<?xml version="1.0" standalone="no"?>
<!DOCTYPE svg PUBLIC "-//W3C//DTD SVG 1.1//EN" "http://www.w3.org/Graphics/SVG/1.1/DTD/svg11.dtd">
<svg xmlns="http://www.w3.org/2000/svg" version="1.1" width="100%" height="100%">
<style type="text/css"><![CDATA[
  .stroke { fill:none; stroke:black; stroke-width:2 }
]]></style>
<path class="stroke" d="M 20.770715441176474 11.605839 C 17.979818382352942 27.372261 12.183339705882354 41.970802 7.245597794117647 50.14598" />
<path class="stroke" d="M 16.477026470588235 30.583939 L 16.477026470588235 90.43795" />
<path class="stroke" d="M 36.4752472 9.306931 C 34.5742568 17.029703 31.722772 25.049503 27.920792 30.396038" />
<path class="stroke" d="M 33.3861392 20.594059 L 92.316832 20.594059" />
<path class="stroke" d="M 45.129434239039995 30.086715079999998 L 45.129434239039995 51.86539904" />
<path class="stroke" d="M 45.129434239039995 30.086715079999998 L 77.08477432000001 30.086715079999998 L 77.08477432000001 51.86539904" />
<path class="stroke" d="M 45.315222498400004 40.382790328 L 76.8989879696 40.382790328" />
<path class="stroke" d="M 45.129434239039995 50.914742944 L 77.08477432000001 50.914742944" />
<path class="stroke" d="M 29.820144592 56.855 L 92.5798492 56.855" />
<path class="stroke" d="M 42.576 56.9843836532336 C 42.072646824 60.680575890704 39.304215608 67.834495721792 28.230486553600002 71.888383711856" />
<path class="stroke" d="M 41.148612408000005 62.543611709984 C 64.711821368 62.543611709984 71.962039032 62.543611709984 92.35328048 62.543611709984 C 91.67357044 77.67824287304 85.32963464000001 83.045133697952 78.9856872 86.4799430024 C 76.04028918399999 87.767995388672 73.32146144000001 88.09000940432 70.376055664 88.19734691936" />
<path class="stroke" d="M 57.46160448 62.543611709984 C 55.422478240000004 71.55998686942401 44.094013528000005 78.322269066176 31.63270056 82.0790938568" />
<path class="stroke" d="M 73.09488496 62.543611709984 C 71.05576648 73.49206691936 61.08671176000001 81.75707763536 50.66452348 85.0845497924" />
</svg>
