<?xml version="1.0" standalone="no"?>
<!DOCTYPE svg PUBLIC "-//W3C//DTD SVG 1.1//EN" "http://www.w3.org/Graphics/SVG/1.1/DTD/svg11.dtd">
<svg xmlns="http://www.w3.org/2000/svg" version="1.1" width="100%" height="100%">
<style type="text/css"><![CDATA[
  .stroke { fill:none; stroke:black; stroke-width:2 }
]]></style>
<path class="stroke" d="M 12.46055 8.044167 L 89.74765 8.044167 L 89.74765 20.662558" />
<path class="stroke" d="M 12.46055 20.662558 L 89.74765 20.662558" />
<path class="stroke" d="M 12.14511 8.044167 L 12.14511 58.20186 C 12.25031 72.92316 10.46261 81.01996 6.15142 94.164055" />
<path class="stroke" d="M 38.68178851351351 35.87883136 C 34.45610425675676 41.3445256 30.02919536486487 45.12846616 26.205956243243243 47.23065664" />
<path class="stroke" d="M 39.88912943243243 50.59415896 C 35.66344448648648 56.05985176 29.62675022972973 60.8948872 24.193726432432435 63.207296799999995" />
<path class="stroke" d="M 33.85243517567568 57.741603999999995 L 33.85243517567568 89.6948872" />
<path class="stroke" d="M 52.098514647500004 31.70099032 C 50.9044550525 37.26138616 49.1133661625 43.03564216 46.725247475 46.885147360000005" />
<path class="stroke" d="M 50.158168685 39.82772248 L 87.1740101 39.82772248" />
<path class="stroke" d="M 54.184122305 47.01518224 L 54.184122305 68.20525312000001" />
<path class="stroke" d="M 54.184122305 47.01518224 L 79.41915875000001 47.01518224 L 79.41915875000001 68.20525312000001" />
<path class="stroke" d="M 54.3308387375 57.032985184 L 79.27244382500001 57.032985184" />
<path class="stroke" d="M 54.184122305 67.280290432 L 79.41915875000001 67.280290432" />
<path class="stroke" d="M 63.4271882075 74.685254992 C 60.0527358875 77.5232116 54.3308387375 80.4872986 48.462225155 82.3792696" />
<path class="stroke" d="M 61.6666040825 76.324963264 L 74.7242711 76.324963264 C 69.442518725 81.496349512 58.1454368375 87.48758968 46.848357462500005 90.76700536" />
<path class="stroke" d="M 56.091423365 79.41518238399999 C 61.849999999999994 83.993548624 73.6972600925 88.30744468 86.1680654 90.76700536" />
</svg>
