<?xml version="1.0" standalone="no"?>
<!DOCTYPE svg PUBLIC "-//W3C//DTD SVG 1.1//EN" "http://www.w3.org/Graphics/SVG/1.1/DTD/svg11.dtd">
<svg xmlns="http://www.w3.org/2000/svg" version="1.1" width="100%" height="100%">
<style type="text/css"><![CDATA[
  .stroke { fill:none; stroke:black; stroke-width:2 }
]]></style>
<path class="stroke" d="M 8.946819428571429 27.956203 L 28.46715257142857 27.956203" />
<path class="stroke" d="M 20.45880857142857 9.270073 L 20.45880857142857 90.14598" />
<path class="stroke" d="M 20.45880857142857 36.131386 C 17.20542 44.598537 13.20125057142857 52.48175 7.4452551428571425 56.861313" />
<path class="stroke" d="M 20.45880857142857 36.131386 C 24.212719714285715 37.299267 26.71532657142857 42.26277 27.96663 46.934303" />
<path class="stroke" d="M 34.5426 20.34703 L 91.3249 20.34703" />
<path class="stroke" d="M 38.6435 35.48899 L 87.2239 35.48899" />
<path class="stroke" d="M 34.858044 50.63089 L 91.009544 50.63089" />
<path class="stroke" d="M 57.2555 6.78233 L 57.2556 50.6309 C 58.2019 77.9706 74.9183 94.043 83.123 94.4795 C 84.8026 94.5688 86.4905 94.5542 88.1703 94.4795 C 91.2223 94.3438 93.6382 92.4816 94.4795 89.1167 L 94.4795 84.0694" />
<path class="stroke" d="M 88.1703 64.1956 C 70.9253 82.7024 50.8413 89.8529 29.1799 93.5332" />
<path class="stroke" d="M 69.55844 6.78234 C 73.23864 8.88539 75.02634 10.98846 77.12934 14.03789" />
</svg>
