<?xml version="1.0" standalone="no"?>
<!DOCTYPE svg PUBLIC "-//W3C//DTD SVG 1.1//EN" "http://www.w3.org/Graphics/SVG/1.1/DTD/svg11.dtd">
<svg xmlns="http://www.w3.org/2000/svg" version="1.1" width="100%" height="100%">
<style type="text/css"><![CDATA[
  .stroke { fill:none; stroke:black; stroke-width:2 }
]]></style>
<path class="stroke" d="M 8.003300000000001 33.069305 L 25.825083333333335 30.9901" />
<path class="stroke" d="M 19.389438333333334 9.60396 L 19.389438333333334 84.15842 C 19.389438333333334 87.42574 17.161715833333336 90.09901 14.191419166666668 90.09901" />
<path class="stroke" d="M 8.498349166666667 63.36634 L 24.09241 46.435642" />
<path class="stroke" d="M 38.54896 38.0126 L 56.9716 38.0126" />
<path class="stroke" d="M 38.296552000000005 6.466875 L 38.296552000000005 88.17032 M 25.173504 93.5331 L 55.205040000000004 82.1766" />
<path class="stroke" d="M 93.31232 29.1798 C 84.73184 37.8023 76.90848 41.3775 65.04728 41.7981" />
<path class="stroke" d="M 64.79488 6.46687 L 64.79488 86.9085 C 64.7108 90.0631 66.39320000000001 93.5331 69.08512 93.5331 L 89.7792 93.2177 C 93.144 92.797 94.7424 90.1683 94.82648 86.5931 L 94.82648 77.4448" />
</svg>
