<?xml version="1.0" standalone="no"?>
<!DOCTYPE svg PUBLIC "-//W3C//DTD SVG 1.1//EN" "http://www.w3.org/Graphics/SVG/1.1/DTD/svg11.dtd">
<svg xmlns="http://www.w3.org/2000/svg" version="1.1" width="100%" height="100%">
<style type="text/css"><![CDATA[
  .stroke { fill:none; stroke:black; stroke-width:2 }
]]></style>
<path class="stroke" d="M 10.961809821428572 14.059406 C 13.879066071428571 16.138615 16.796323214285717 19.108912 19.183169642857145 22.673267" />
<path class="stroke" d="M 9.105374107142858 38.118813 C 11.757426785714285 39.90099 14.939887500000001 42.574257 17.06152857142857 46.138615" />
<path class="stroke" d="M 8.840169642857143 85.64356 C 9.434829464285714 87.422676 11.091678571428572 89.896904 13.024666964285714 89.896904 C 14.957658035714285 89.896904 17.5919375 76.73267 19.448374107142858 69.60396" />
<path class="stroke" d="M 62.5 9.781021733333333 L 62.5 22.366666666666667" />
<path class="stroke" d="M 37.64598475 22.366666666666667 L 87.5729875 22.366666666666667" />
<path class="stroke" d="M 49.924858529411765 34.7628172206 C 46.575782058823535 46.0421155194 39.62000764705883 56.4859117508 33.694717352941176 62.334434092" />
<path class="stroke" d="M 44.772431764705885 48.3397499606 L 44.772431764705885 91.15930943000001" />
<path class="stroke" d="M 69.871346875 31.98029066 C 66.14871981249999 43.91605711 61.495438375 50.523355 57.0282827125 54.78612941" />
<path class="stroke" d="M 68.75456034999999 35.81678668 L 83.83120075 35.81678668 C 77.31660355 58.40948806 64.65966962499999 73.54233258 54.0501810625 79.5102169" />
<path class="stroke" d="M 62.053831 49.24452494 C 66.707115625 51.375911779999996 70.6158742 54.359851750000004 73.9662369625 57.77007011" />
<path class="stroke" d="M 53.4917871625 57.77007011 C 64.845801775 72.90292120000001 75.0830305 82.0678814 90.904193125 86.970065" />
</svg>
