<?xml version="1.0" standalone="no"?>
<!DOCTYPE svg PUBLIC "-//W3C//DTD SVG 1.1//EN" "http://www.w3.org/Graphics/SVG/1.1/DTD/svg11.dtd">
<svg xmlns="http://www.w3.org/2000/svg" version="1.1" width="100%" height="100%">
<style type="text/css"><![CDATA[
  .stroke { fill:none; stroke:black; stroke-width:2 }
]]></style>
<path class="stroke" d="M 11.313868 17.445253 C 15.401459 18.029196 19.48905 20.364962 22.408756 24.160583" />
<path class="stroke" d="M 9.270073 47.226276 C 13.357662 47.226276 18.321167 46.934303 23.86861 43.138683 C 16.27737 53.357662 14.233576 58.321167 15.109488 60.9489 C 15.69343 63.284668 20.948904 65.62044 22.116787 68.832115 C 23.576641 72.33576 18.129246 80.26506 11.021896 83.722626" />
<path class="stroke" d="M 11.021896 84.014595 C 39.692924 81.65476 40.51095 91.313866 90.43795 90.14598" />
<path class="stroke" d="M 39.813893 8.435344 L 39.813893 35.438488" />
<path class="stroke" d="M 39.813893 8.435344 L 85.523613 8.435344 L 85.523613 35.438488" />
<path class="stroke" d="M 40.255488 22.3154392 L 85.08201799999999 22.3154392" />
<path class="stroke" d="M 39.813893 35.438488 L 85.523613 35.438488" />
<path class="stroke" d="M 33.851734 46.290240000000004 L 33.851734 77.07888000000001" />
<path class="stroke" d="M 33.851734 46.290240000000004 L 91.92742999999999 46.290240000000004 L 91.92742999999999 72.28392000000001 C 92.00107 74.97584 90.5289 76.65824 88.83595 76.57415999999999 L 85.52368999999999 76.57415999999999" />
<path class="stroke" d="M 62.55837 8.940064 L 62.55837 61.93694400000001" />
<path class="stroke" d="M 45.555229999999995 68.245992 C 55.71293 63.198712 67.19551999999999 60.675032 77.79491999999999 59.665592000000004" />
<path class="stroke" d="M 74.04103 53.86119200000001 C 77.5005 57.899032000000005 79.41436999999999 62.189192000000006 80.22398999999999 66.984232" />
</svg>
