<?xml version="1.0" standalone="no"?>
<!DOCTYPE svg PUBLIC "-//W3C//DTD SVG 1.1//EN" "http://www.w3.org/Graphics/SVG/1.1/DTD/svg11.dtd">
<svg xmlns="http://www.w3.org/2000/svg" version="1.1" width="100%" height="100%">
<style type="text/css"><![CDATA[
  .stroke { fill:none; stroke:black; stroke-width:2 }
]]></style>
<path class="stroke" d="M 18.430655833333333 9.562042 C 21.350365 11.021896 24.27007 14.817516 26.216541666666668 19.48905" />
<path class="stroke" d="M 8.2116775 22.8707 L 35.46228333333334 22.8707" />
<path class="stroke" d="M 13.564475000000002 37.007298 L 30.109488333333335 37.007298" />
<path class="stroke" d="M 13.564475000000002 51.313866 L 30.109488333333335 51.313866" />
<path class="stroke" d="M 12.59124 64.45255 L 12.59124 85.76642" />
<path class="stroke" d="M 12.59124 64.16058 L 31.569341666666666 64.16058 L 31.569341666666666 85.76642" />
<path class="stroke" d="M 12.59124 85.76642 L 31.326033333333335 85.76642" />
<path class="stroke" d="M 43.42475197 14.059406 L 53.15544658 14.059406 C 52.03267255 28.316833 49.22574283 36.930695 44.92178191 46.138615" />
<path class="stroke" d="M 44.92178191 46.138615 L 53.15544658 46.138615 C 51.54103 64.1955 48.891187 77.4448 43.0504948 90.09901" />
<path class="stroke" d="M 43.42475197 64.55446 C 49.412871100000004 66.33663 58.39504948 84.15842 70.371289 86.237625 C 78.7920769 88.019806 82.7217838 89.50495 93.5752474 89.50495" />
<path class="stroke" d="M 87.7598775334 5.2027398 C 82.20897212860001 13.7835621 75.5478867403 21.772602000000003 67.9153939192 23.547944700000002" />
<path class="stroke" d="M 78.73965793900001 17.0383563 L 78.7919915854 76.40145000000001" />
<path class="stroke" d="M 78.9152317003 42.240872700000004 L 88.2815382604 42.240872700000004" />
<path class="stroke" d="M 68.4397581967 45.9197064 L 68.4397581967 76.664232" />
<path class="stroke" d="M 60.1826202685 76.92700500000001 L 94.07385869500001 76.92700500000001" />
</svg>
