<?xml version="1.0" standalone="no"?>
<!DOCTYPE svg PUBLIC "-//W3C//DTD SVG 1.1//EN" "http://www.w3.org/Graphics/SVG/1.1/DTD/svg11.dtd">
<svg xmlns="http://www.w3.org/2000/svg" version="1.1" width="100%" height="100%">
<style type="text/css"><![CDATA[
  .stroke { fill:none; stroke:black; stroke-width:2 }
]]></style>
<path class="stroke" d="M 13.154171785714285 14.059406 C 16.654879285714284 16.138615 20.15558785714286 19.108912 23.01980357142857 22.673267" />
<path class="stroke" d="M 10.926448928571428 38.118813 C 14.108912142857141 39.90099 17.927864999999997 42.574257 20.473834285714286 46.138615" />
<path class="stroke" d="M 10.608203571428572 85.64356 C 11.321795357142857 87.422676 13.310014285714285 89.896904 15.629600357142856 89.896904 C 17.949189642857142 89.896904 21.110325 76.73267 23.33804892857143 69.60396" />
<path class="stroke" d="M 64.3613125 10.7080292 L 64.3613125 42.708026000000004" />
<path class="stroke" d="M 64.3613125 21.6861296 L 82.7554675 21.6861296" />
<path class="stroke" d="M 47.937954250000004 22.38686 L 47.937954250000004 42.708026000000004" />
<path class="stroke" d="M 32.39050975 42.708026000000004 L 92.8284625 42.708026000000004" />
<path class="stroke" d="M 64.43111392885001 46.941773551699995 L 64.43111392885001 73.422004559 C 64.43111392885001 74.1816831605 63.32982601735 74.615786015 62.531520959800005 74.615786015 L 61.134484203999996 74.615786015" />
<path class="stroke" d="M 48.561155452449995 56.817596858 C 47.56327225075 60.615991724 44.5696233292 63.8717584865 40.3785130618 66.4763722682" />
<path class="stroke" d="M 78.497652187 56.817596858 C 82.48918431025001 59.096634521 85.8819854188 62.1353500421 87.8777518222 66.6934220228" />
<path class="stroke" d="M 79.57005062500002 68.14747648 C 73.816939495 78.55031872 61.225253785 88.47670528 47.65665097 92.56637760000001" />
</svg>
