<?xml version="1.0" standalone="no"?>
<!DOCTYPE svg PUBLIC "-//W3C//DTD SVG 1.1//EN" "http://www.w3.org/Graphics/SVG/1.1/DTD/svg11.dtd">
<svg xmlns="http://www.w3.org/2000/svg" version="1.1" width="100%" height="100%">
<style type="text/css"><![CDATA[
  .stroke { fill:none; stroke:black; stroke-width:2 }
]]></style>
<path class="stroke" d="M 25.3211663 10.729925 C 21.6423344 18.029196 16.649633 23.86861 11.9197064 28.540146 C 15.598539200000001 31.45985 20.065691 36.131386 24.2700698 40.218975" />
<path class="stroke" d="M 35.3065682 25.912407 C 29.0 34.67153 20.5912397 45.18248 10.0802918 56.277367 C 19.540145 54.525543 30.0510929 52.48175 39.510947 50.437954" />
<path class="stroke" d="M 36.357662 43.430653 C 38.9853983 46.642334 39.7737218 49.85401 41.3503634 55.40146" />
<path class="stroke" d="M 25.846715 54.233574 L 25.846715 89.56204" />
<path class="stroke" d="M 17.7007277 65.03649 C 16.124087 70.87591 14.2846697 74.67153 10.6058378 78.75912" />
<path class="stroke" d="M 32.678831 65.32846 C 35.5693403 68.540146 35.616215 68.81081 37.075672999999995 71.72973" />
<path class="stroke" d="M 66.400604 5.52051 C 66.287042 14.66879 65.151422 21.92439 62.482634000000004 27.60259" />
<path class="stroke" d="M 53.62460522 12.77599 L 85.13879030000001 12.77599 L 85.13879030000001 27.60259" />
<path class="stroke" d="M 46.98107162 27.91798 L 94.6782116 27.91798" />
<path class="stroke" d="M 55.839122 38.958973 L 55.839122 56.624573" />
<path class="stroke" d="M 55.839122 38.958973 L 86.671934 38.958973 L 86.671934 56.624573" />
<path class="stroke" d="M 55.839122 56.624573 L 86.671934 56.624573" />
<path class="stroke" d="M 50.60609162 68.57868 L 91.10096000000001 68.612" />
<path class="stroke" d="M 56.179784780000006 68.92746 L 56.179784780000006 84.700356" />
<path class="stroke" d="M 46.810727 84.3849 L 94.50787400000002 84.3849" />
<path class="stroke" d="M 77.30282600000001 56.6246 L 77.30282600000001 94.795" />
</svg>
