<?xml version="1.0" standalone="no"?>
<!DOCTYPE svg PUBLIC "-//W3C//DTD SVG 1.1//EN" "http://www.w3.org/Graphics/SVG/1.1/DTD/svg11.dtd">
<svg xmlns="http://www.w3.org/2000/svg" version="1.1" width="100%" height="100%">
<style type="text/css"><![CDATA[
  .stroke { fill:none; stroke:black; stroke-width:2 }
]]></style>
<path class="stroke" d="M 8.69085 22.0316 L 2.3817 38.1199" />
<path class="stroke" d="M 20.6782 22.0316 L 27.6183 38.1199" />
<path class="stroke" d="M 14.6845 7.3123 L 14.6845 93.3186" />
<path class="stroke" d="M 37.1021895 11.9 L 92.897807 11.9" />
<path class="stroke" d="M 65.0 4.2956204 L 65.0 20.645984000000002" />
<path class="stroke" d="M 39.554743099999996 24.580290416666667 L 39.554743099999996 42.74736416666667" />
<path class="stroke" d="M 39.554743099999996 24.580290416666667 L 90.6496338 24.580290416666667 L 90.6496338 42.74736416666667" />
<path class="stroke" d="M 55.725581 24.580290416666667 L 55.725581 42.74736416666667" />
<path class="stroke" d="M 74.2744792 24.580290416666667 L 74.2744792 42.74736416666667" />
<path class="stroke" d="M 39.554743099999996 42.75590416666667 L 90.78217599999999 42.75590416666667" />
<path class="stroke" d="M 65.22085 52.287065 L 65.22085 59.38485" />
<path class="stroke" d="M 34.305994 59.38485 L 95.25238999999999 59.38485" />
<path class="stroke" d="M 65.22085 59.38485 C 58.15463 68.74345 47.99686 75.57835 34.968453 79.8896" />
<path class="stroke" d="M 51.30912 72.3186 L 51.30912 94.40065 M 37.83909 96.29335 C 49.468959999999996 95.8202 61.09883 94.87385 71.40374 91.40379999999999" />
<path class="stroke" d="M 91.940046 67.744435 C 85.977936 71.529985 79.35334599999999 74.21133499999999 72.066206 75.630935" />
<path class="stroke" d="M 65.0 59.38485 C 69.78442999999999 78.04945000000001 79.86856 88.19659999999999 93.4858 95.66239999999999" />
</svg>
