<?xml version="1.0" standalone="no"?>
<!DOCTYPE svg PUBLIC "-//W3C//DTD SVG 1.1//EN" "http://www.w3.org/Graphics/SVG/1.1/DTD/svg11.dtd">
<svg xmlns="http://www.w3.org/2000/svg" version="1.1" width="100%" height="100%">
<style type="text/css"><![CDATA[
  .stroke { fill:none; stroke:black; stroke-width:2 }
]]></style>
<path class="stroke" d="M 10.41240845 19.75547375 L 10.41240845 53.1569325" />
<path class="stroke" d="M 10.41240845 19.75547375 L 32.68978 19.75547375 L 32.68978 52.83576550000001" />
<path class="stroke" d="M 10.41240845 50.5875888 L 32.68978 50.5875888" />
<path class="stroke" d="M 48.942408 9.4764385 C 48.475256 12.980087 48.2979312 14.994076 46.4293184 17.329842" />
<path class="stroke" d="M 37.633508000000006 17.015707 L 37.633508000000006 66.96335" />
<path class="stroke" d="M 37.3821976 17.43295 L 75.14176 17.43295 L 75.14176 43.333332" />
<path class="stroke" d="M 38.136124 30.583939 L 74.896552 30.583939" />
<path class="stroke" d="M 37.884817600000005 43.430653 L 75.14176 43.430653" />
<path class="stroke" d="M 38.136124 55.10949 L 87.392672 55.10949" />
<path class="stroke" d="M 37.884817600000005 66.20438 L 87.770112 66.20438 L 86.298848 80.57471 C 85.80843200000001 85.01916 84.459768 90.22988 81.63984400000001 90.22988 C 80.045972 90.22988 79.3103392 90.22988 78.206896 90.22988" />
<path class="stroke" d="M 34.8045976 74.137924 C 34.5593856 76.74329 33.3333328 80.881226 31.862068 83.48659" />
<path class="stroke" d="M 46.452105599999996 74.137924 C 47.4329496 76.28352 48.2911864 79.042145 48.413792 82.26054" />
<path class="stroke" d="M 61.164748800000005 74.597694 C 62.513408 76.74329 63.3716432 79.042145 63.9846744 81.800766" />
<path class="stroke" d="M 74.52873600000001 74.44444 C 76.245208 75.82375 77.593864 77.816086 78.69731200000001 80.72797" />
</svg>
