<?xml version="1.0" standalone="no"?>
<!DOCTYPE svg PUBLIC "-//W3C//DTD SVG 1.1//EN" "http://www.w3.org/Graphics/SVG/1.1/DTD/svg11.dtd">
<svg xmlns="http://www.w3.org/2000/svg" version="1.1" width="100%" height="100%">
<style type="text/css"><![CDATA[
  .stroke { fill:none; stroke:black; stroke-width:2 }
]]></style>
<path class="stroke" d="M 5.4963501 19.18978 L 5.4963501 67.77372" />
<path class="stroke" d="M 5.4963501 19.18978 L 24.59124 19.18978 L 24.59124 67.306568" />
<path class="stroke" d="M 5.4963501 64.03649279999999 L 24.59124 64.03649279999999" />
<path class="stroke" d="M 46.1947959 9.44652787 C 45.512500572 15.024999999999999 45.274168335 24.222222656999996 36.0983337957 35.42611479" />
<path class="stroke" d="M 45.631667763 14.356111478999999 L 71.43031335 14.356111478999999 L 65.36591358 23.968325244" />
<path class="stroke" d="M 45.6678825 24.939707809999998 L 45.6678825 68.77912069999999" />
<path class="stroke" d="M 45.6678825 24.939707809999998 L 85.3321175 24.939707809999998 L 85.3321175 66.38788094 C 85.3321175 67.82262698 84.7627695 68.61970508 83.0547385 68.61970508 L 81.15693025 68.61970508" />
<path class="stroke" d="M 59.588320589999995 25.784612452399998 L 59.588320589999995 36.1625968328 C 59.588320589999995 45.313078646 56.13430639 54.3519687608 47.49926998 56.69538449" />
<path class="stroke" d="M 67.42627617 25.6730219006 L 67.42627617 52.008553796 C 67.42627617 54.79833478999999 69.15328509 56.472202622 71.013136265 56.472202622 L 81.3751775 56.472202622 C 82.83649645 56.58379355599999 83.89926725000001 55.691062261999996 83.89926725000001 54.463558166 L 83.89926725000001 52.343328126799996" />
<path class="stroke" d="M 43.01094835 71.8029192 L 88.178825 71.8029192" />
<path class="stroke" d="M 65.594887 60.7080292 L 65.594887 73.08759 C 65.594887 82.080292 55.628414899999996 91.3235656 39.97445125 93.40876" />
<path class="stroke" d="M 65.594887 72.9708024 C 65.594887 82.19708 75.7722685 91.302368 91.215326 93.40876" />
</svg>
