<?xml version="1.0" standalone="no"?>
<!DOCTYPE svg PUBLIC "-//W3C//DTD SVG 1.1//EN" "http://www.w3.org/Graphics/SVG/1.1/DTD/svg11.dtd">
<svg xmlns="http://www.w3.org/2000/svg" version="1.1" width="100%" height="100%">
<style type="text/css"><![CDATA[
  .stroke { fill:none; stroke:black; stroke-width:2 }
]]></style>
<path class="stroke" d="M 11.717810060000001 21.3686116 L 43.050945739999996 21.3686116" />
<path class="stroke" d="M 27.500016632 10.05474403 L 27.500016632 34.7642324" />
<path class="stroke" d="M 14.608320188000002 34.7642324 L 40.27605692 34.7642324" />
<path class="stroke" d="M 9.9983569345 46.6773704 L 9.9983569345 59.26714936" />
<path class="stroke" d="M 9.9983569345 46.16350056 L 46.65163987 46.16350056 L 46.65163987 59.52408296" />
<path class="stroke" d="M 23.125692788000002 56.11167806 L 23.125692788000002 67.78758932 C 23.125692788000002 78.0824799 19.284525348000003 88.25182251999999 9.681605736000002 90.8883185" />
<path class="stroke" d="M 23.128932200000005 55.61671237 L 31.945807124 55.61671237 L 31.779452540000005 85.44575259999999 M 25.624274236000005 87.9904109 L 48.58142542000001 79.50821929" />
<path class="stroke" d="M 65.37855 8.04417 L 65.37855 26.6562 C 65.2734 41.062 59.64775 47.897 53.23344 50.9464" />
<path class="stroke" d="M 65.5363 8.04416 L 82.571 8.04416 L 82.571 36.7507 C 82.41325 40.8516 83.6751 43.3753 85.4101 43.3753 L 96.361255 43.3753" />
<path class="stroke" d="M 60.48895 53.15461 L 86.8297 53.15461 C 80.1525 77.23451 67.9548 89.01161 54.17981 94.16401" />
<path class="stroke" d="M 64.27445 53.15461 C 66.74555000000001 75.65721 80.88855 92.16621 96.4511 93.84861" />
</svg>
