<?xml version="1.0" standalone="no"?>
<!DOCTYPE svg PUBLIC "-//W3C//DTD SVG 1.1//EN" "http://www.w3.org/Graphics/SVG/1.1/DTD/svg11.dtd">
<svg xmlns="http://www.w3.org/2000/svg" version="1.1" width="100%" height="100%">
<style type="text/css"><![CDATA[
  .stroke { fill:none; stroke:black; stroke-width:2 }
]]></style>
<path class="stroke" d="M 8.8686125 24.744522 L 8.8686125 67.66423" />
<path class="stroke" d="M 8.8686125 24.744522 L 41.423355 24.744522 L 41.423355 65.32846 C 41.423355 69.70802 40.109485 72.33576 38.64963 72.62773 L 37.335765 72.62773" />
<path class="stroke" d="M 25.07299 9.854013 L 25.07299 90.14598" />
<path class="stroke" d="M 58.64356 8.35962 L 58.454260000000005 61.0411 C 58.39114 76.183 52.27126 89.4322 44.44795 93.8486" />
<path class="stroke" d="M 58.6435 8.04416 L 81.92428000000001 8.04416 L 81.92428000000001 86.5931 C 82.05046 91.9559 83.8801 93.8486 86.08828 94.1641 L 92.3344 94.1641 C 94.54258 94.1641 96.94005999999999 91.6404 96.6877 87.5395 L 96.6877 80.5994" />
<path class="stroke" d="M 64.51102 34.85803 C 70.12618 39.695026 73.47004 47.371227 76.24606 57.88643" />
</svg>
