<?xml version="1.0" standalone="no"?>
<!DOCTYPE svg PUBLIC "-//W3C//DTD SVG 1.1//EN" "http://www.w3.org/Graphics/SVG/1.1/DTD/svg11.dtd">
<svg xmlns="http://www.w3.org/2000/svg" version="1.1" width="100%" height="100%">
<style type="text/css"><![CDATA[
  .stroke { fill:none; stroke:black; stroke-width:2 }
]]></style>
<path class="stroke" d="M 5.0729925 20.160000000000004 L 44.927005 20.160000000000004" />
<path class="stroke" d="M 25.0 9.51386856 L 25.0 32.404377600000004" />
<path class="stroke" d="M 14.14014446 34.813328193000004 L 14.14014446 58.843457184" />
<path class="stroke" d="M 14.14014446 34.813328193000004 L 35.734305 34.813328193000004 L 35.734305 58.843457184" />
<path class="stroke" d="M 14.265692849999999 46.173795003799995 L 35.6087579 46.173795003799995" />
<path class="stroke" d="M 14.14014446 57.7945238024 L 35.734305 57.7945238024" />
<path class="stroke" d="M 4.9270065 70.24060338999999 L 45.36496 70.24060338999999" />
<path class="stroke" d="M 24.961685 60.264164131 L 24.961685 90.425832106" />
<path class="stroke" d="M 60.2970295 10.63649257142857 C 59.1089105 19.462517714285713 57.3267325 28.62800342857143 54.950495000000004 34.73832914285714" />
<path class="stroke" d="M 58.366337 23.536067428571428 L 95.19802 23.536067428571428" />
<path class="stroke" d="M 61.3209795 36.072556 L 88.40298250000001 36.072556 C 84.0680675 44.42693 72.8272 62.44045 67.62226749999999 71.18296 C 65.0516975 75.72140999999999 62.304114999999996 80.27337 62.393535 86.19873 C 62.393535 92.82338999999999 64.4045925 95.47317 68.426665 95.47317 L 93.0954075 95.47317 C 94.704245 95.39959999999999 96.44717 94.22192 96.31308250000001 90.61517 L 96.31308250000001 86.41958" />
</svg>
