<?xml version="1.0" standalone="no"?>
<!DOCTYPE svg PUBLIC "-//W3C//DTD SVG 1.1//EN" "http://www.w3.org/Graphics/SVG/1.1/DTD/svg11.dtd">
<svg xmlns="http://www.w3.org/2000/svg" version="1.1" width="100%" height="100%">
<style type="text/css"><![CDATA[
  .stroke { fill:none; stroke:black; stroke-width:2 }
]]></style>
<path class="stroke" d="M 5.48540055 19.6167875 L 39.5145945 19.6167875" />
<path class="stroke" d="M 15.602188499999999 10.49269875 L 15.602188499999999 29.470801249999997" />
<path class="stroke" d="M 29.397807000000004 10.49269875 L 29.397807000000004 29.470801249999997" />
<path class="stroke" d="M 13.840695 29.8501525 C 12.515805 41.8375 9.061515 53.588274999999996 3.0520485 61.0804" />
<path class="stroke" d="M 12.563055 41.916399999999996 L 40.528395 42.152950000000004 L 40.38642 68.651425 C 40.102515 80.638825 37.12149 94.518925 32.011065 94.67665 L 29.88171 94.67665" />
<path class="stroke" d="M 15.372262575 56.5711675 L 15.372262575 74.790145" />
<path class="stroke" d="M 15.372262575 56.5711675 L 29.69343 56.5711675 L 29.69343 74.614963" />
<path class="stroke" d="M 15.372262575 73.3886848 L 29.69343 73.3886848" />
<path class="stroke" d="M 64.9851498 9.90099 C 63.351485350000004 22.673267 59.43069375 37.82178 53.386138200000005 46.435642" />
<path class="stroke" d="M 59.2673267 35.742573 L 86.8762355 35.742573" />
<path class="stroke" d="M 74.13366500000001 36.039604 C 72.17326700000001 61.287132 63.841584850000004 82.376236 50.7722775 89.80198" />
<path class="stroke" d="M 59.2673267 43.465347 C 62.8613853 61.58416 80.34158099999999 90.09901 89.980199 90.09901" />
</svg>
