<?xml version="1.0" standalone="no"?>
<!DOCTYPE svg PUBLIC "-//W3C//DTD SVG 1.1//EN" "http://www.w3.org/Graphics/SVG/1.1/DTD/svg11.dtd">
<svg xmlns="http://www.w3.org/2000/svg" version="1.1" width="100%" height="100%">
<style type="text/css"><![CDATA[
  .stroke { fill:none; stroke:black; stroke-width:2 }
]]></style>
<path class="stroke" d="M 18.430655833333333 9.562042 C 21.350365 11.021896 24.27007 14.817516 26.216541666666668 19.48905" />
<path class="stroke" d="M 8.2116775 22.8707 L 35.46228333333334 22.8707" />
<path class="stroke" d="M 13.564475000000002 37.007298 L 30.109488333333335 37.007298" />
<path class="stroke" d="M 13.564475000000002 51.313866 L 30.109488333333335 51.313866" />
<path class="stroke" d="M 12.59124 64.45255 L 12.59124 85.76642" />
<path class="stroke" d="M 12.59124 64.16058 L 31.569341666666666 64.16058 L 31.569341666666666 85.76642" />
<path class="stroke" d="M 12.59124 85.76642 L 31.326033333333335 85.76642" />
<path class="stroke" d="M 60.536251 8.35962 L 60.536251 35.1735" />
<path class="stroke" d="M 60.536251 8.35962 L 84.384871 8.35962 L 84.384871 35.1735" />
<path class="stroke" d="M 60.536251 35.1735 L 84.384871 35.1735" />
<path class="stroke" d="M 51.072525999999996 15.6151 L 51.072525999999996 50.6309 L 87.034726 50.6309 L 87.034726 69.8738" />
<path class="stroke" d="M 44.069398 69.8738 L 95.93062 69.8738" />
<path class="stroke" d="M 59.9270068 79.37956199999999 C 59.051093800000004 85.043795 54.4963498 90.357663 45.9124078 94.62043800000001" />
<path class="stroke" d="M 78.677626 79.4915048 C 86.0291944 83.5839408 90.759118 89.18978 93.562039 94.737226" />
</svg>
