<?xml version="1.0" standalone="no"?>
<!DOCTYPE svg PUBLIC "-//W3C//DTD SVG 1.1//EN" "http://www.w3.org/Graphics/SVG/1.1/DTD/svg11.dtd">
<svg xmlns="http://www.w3.org/2000/svg" version="1.1" width="100%" height="100%">
<style type="text/css"><![CDATA[
  .stroke { fill:none; stroke:black; stroke-width:2 }
]]></style>
<path class="stroke" d="M 13.961809821428572 14.059406 C 16.87906607142857 16.138615 19.796323214285717 19.108912 22.183169642857145 22.673267" />
<path class="stroke" d="M 12.105374107142858 38.118813 C 14.757426785714285 39.90099 17.9398875 42.574257 20.06152857142857 46.138615" />
<path class="stroke" d="M 11.840169642857143 85.64356 C 12.434829464285714 87.422676 14.091678571428572 89.896904 16.024666964285714 89.896904 C 17.957658035714285 89.896904 20.5919375 76.73267 22.448374107142858 69.60396" />
<path class="stroke" d="M 60.26429152 3.548895 C 53.04665824 6.1777 47.34473344 8.01785 37.09561456 8.123" />
<path class="stroke" d="M 37.09561456 8.12305 L 37.09561456 46.29335" />
<path class="stroke" d="M 69.3585424 7.8075715 L 86.46438544000002 7.8075715 L 86.46438544000002 46.29335" />
<path class="stroke" d="M 37.09561456 27.05048 L 53.984898400000006 27.05048" />
<path class="stroke" d="M 69.5751016 27.050485 L 86.46438544000002 27.050485" />
<path class="stroke" d="M 37.09561456 46.29335 L 86.46438544000002 46.29335" />
<path class="stroke" d="M 45.990538 53.233435 C 43.694062 61.225 37.706626 69.05885 27.2902174 74.0536" />
<path class="stroke" d="M 43.775962 61.2776 L 92.24921800000001 61.4353 L 92.003128 79.10095 C 91.511026 87.09255 86.343916 96.34595 77.48584600000001 96.4511 L 73.79496400000001 96.4511" />
<path class="stroke" d="M 33.614598112 78.87773375 C 33.250218304 80.9580275 31.79270032 82.70985125 29.424233440000002 83.69525375" />
<path class="stroke" d="M 43.999415776000006 79.20620375 C 46.0035016 80.629559375 47.096640400000005 81.94343 48.00758992 83.8047425" />
<path class="stroke" d="M 58.938974800000004 79.3156925 C 60.94306124800001 80.629559375 61.854010768 82.05291875 62.76495904000001 83.91423125" />
<path class="stroke" d="M 72.785398144 79.3156925 C 74.97167200000001 80.629559375 76.2470032 81.8339375 77.34014512000002 83.91423125" />
</svg>
