<?xml version="1.0" standalone="no"?>
<!DOCTYPE svg PUBLIC "-//W3C//DTD SVG 1.1//EN" "http://www.w3.org/Graphics/SVG/1.1/DTD/svg11.dtd">
<svg xmlns="http://www.w3.org/2000/svg" version="1.1" width="100%" height="100%">
<style type="text/css"><![CDATA[
  .stroke { fill:none; stroke:black; stroke-width:2 }
]]></style>
<path class="stroke" d="M 8.250825 11.089109 L 29.838708333333333 11.290321 C 31.451613333333338 17.741934 26.61290166666667 33.225803 21.774193333333333 40.0" />
<path class="stroke" d="M 21.774193333333333 40.96774 C 25.80645 44.51613 29.032255833333334 49.032257 30.645160833333332 54.19355 C 32.2580625 57.09677 32.2580625 65.161285 23.655913333333334 68.38709 L 18.54838666666667 69.354836" />
<path class="stroke" d="M 10.726071666666666 11.089109 L 10.726071666666666 90.09901" />
<path class="stroke" d="M 46.23034 19.0063 L 62.35015 19.0063" />
<path class="stroke" d="M 46.009483 3.2334375 L 46.009483 44.08516 M 34.526816 46.76655 L 60.804410000000004 41.0883" />
<path class="stroke" d="M 94.14828 14.5899 C 86.64035999999999 18.90115 79.79491999999999 20.68875 69.41637 20.89905" />
<path class="stroke" d="M 69.19551999999999 3.233435 L 69.19551999999999 43.45425 C 69.12195 45.03155 70.59405 46.76655 72.94948 46.76655 L 91.0568 46.60885 C 94.001 46.3985 95.39959999999999 45.08415 95.47317 43.29655 L 95.47317 38.7224" />
<path class="stroke" d="M 42.8248169 72.59124 L 87.17517749999999 72.59124" />
<path class="stroke" d="M 65.0 56.24087525 L 65.0 93.90510499999999" />
<path class="stroke" d="M 36.8978091 93.90510499999999 L 92.897807 93.90510499999999" />
</svg>
