<?xml version="1.0" standalone="no"?>
<!DOCTYPE svg PUBLIC "-//W3C//DTD SVG 1.1//EN" "http://www.w3.org/Graphics/SVG/1.1/DTD/svg11.dtd">
<svg xmlns="http://www.w3.org/2000/svg" version="1.1" width="100%" height="100%">
<style type="text/css"><![CDATA[
  .stroke { fill:none; stroke:black; stroke-width:2 }
]]></style>
<path class="stroke" d="M 24.88759168 8.762376 L 24.88759168 41.770071" />
<path class="stroke" d="M 25.162042539999998 8.872275 L 75.11240455999999 8.872275 L 75.11240455999999 41.551095000000004" />
<path class="stroke" d="M 24.88759168 25.90691775 L 74.56350284 25.90691775" />
<path class="stroke" d="M 24.88759168 41.758649999999996 L 75.11240455999999 41.758649999999996" />
<path class="stroke" d="M 49.70343 8.762376 L 49.70343 67.8284625" />
<path class="stroke" d="M 22.966422499999997 54.4707975 L 77.03357279999999 54.4707975" />
<path class="stroke" d="M 12.26277222 67.8284625 L 88.2861248 67.8284625" />
<path class="stroke" d="M 18.613138 77.00729 C 18.029196 82.55474 15.69343 87.22627 11.89781 89.85401" />
<path class="stroke" d="M 35.255474 77.88321 C 38.46715 81.678825 40.218975 85.18248 41.67883 90.14598" />
<path class="stroke" d="M 59.197075 78.17518 C 62.408752 81.678825 63.868607 85.47445 65.32846 90.43795" />
<path class="stroke" d="M 81.386856 78.17518 C 84.8905 81.678825 86.9343 84.8905 88.68613 90.43795" />
</svg>
