<?xml version="1.0" standalone="no"?>
<!DOCTYPE svg PUBLIC "-//W3C//DTD SVG 1.1//EN" "http://www.w3.org/Graphics/SVG/1.1/DTD/svg11.dtd">
<svg xmlns="http://www.w3.org/2000/svg" version="1.1" width="100%" height="100%">
<style type="text/css"><![CDATA[
  .stroke { fill:none; stroke:black; stroke-width:2 }
]]></style>
<path class="stroke" d="M 17.649612524999995 9.270073 L 17.649612524999995 76.94445" />
<path class="stroke" d="M 17.649612524999995 36.715324 L 25.897551626999995 36.715324" />
<path class="stroke" d="M 10.275833819099999 20.555557 L 10.369250896799997 82.77778" />
<path class="stroke" d="M 3.3139045718999998 89.270065 L 28.959167974499994 66.94445" />
<path class="stroke" d="M 47.754950165000004 28.316833 C 43.54901038 35.148514 40.569802429999996 36.930695 35.077006565 39.343063" />
<path class="stroke" d="M 34.9440126 9.90099 L 34.9440126 75.84158 C 34.9440126 84.455444 36.71435598 89.207924 39.167822009999995 89.207924 L 52.048515570000006 89.207924 C 53.18762385 89.207924 53.800989619999996 87.72277 53.800989619999996 83.86139 L 53.800989619999996 81.18812" />
<path class="stroke" d="M 62.9562035 9.854013 C 62.2262765 19.781021 57.554744 30.29197 54.781021 32.627735" />
<path class="stroke" d="M 60.7664225 25.036495 L 60.7664225 90.43795" />
<path class="stroke" d="M 78.1386835 10.145985 C 77.2627715 16.569342 75.656933 22.116787 73.321167 25.328465" />
<path class="stroke" d="M 60.7664225 24.76344 L 87.77372 24.76344" />
<path class="stroke" d="M 74.051095 25.328465 L 74.051095 90.43795" />
<path class="stroke" d="M 60.7664225 47.79185 L 85.87591 47.79185" />
<path class="stroke" d="M 60.7664225 69.124084 L 86.021895 69.124084" />
<path class="stroke" d="M 60.7664225 90.43795 L 90.693428 90.43795" />
</svg>
