<?xml version="1.0" standalone="no"?>
<!DOCTYPE svg PUBLIC "-//W3C//DTD SVG 1.1//EN" "http://www.w3.org/Graphics/SVG/1.1/DTD/svg11.dtd">
<svg xmlns="http://www.w3.org/2000/svg" version="1.1" width="100%" height="100%">
<style type="text/css"><![CDATA[
  .stroke { fill:none; stroke:black; stroke-width:2 }
]]></style>
<path class="stroke" d="M 29.7956176 16.27372222 L 76.74452000000001 15.12919688 C 75.57664 31.438684199999997 72.072992 40.165692 70.90510880000001 42.025545799999996 C 69.50364400000001 43.599267039999994 66.700728 44.0284649 64.36496 44.1715302 L 62.029192 44.0284649" />
<path class="stroke" d="M 52.919704 5.11459844 C 50.116784 21.13795467 41.007296000000004 37.44744395 26.291969599999998 42.025545799999996" />
<path class="stroke" d="M 15.12481578 65.27007256 L 43.881018499999996 64.05547424 C 43.165692 81.3635016 41.0197076 90.62481600000001 40.30437914 92.5985384 C 39.44598195 94.26860991999999 37.7291959 94.7240852 36.298538 94.8759096 L 34.8678801 94.7240852" />
<path class="stroke" d="M 29.2883187 53.42773712 C 27.5715302 70.43211516 21.991968800000002 87.74014460000001 12.978831379999999 92.5985384" />
<path class="stroke" d="M 58.61970622 64.60218934 L 88.5496315 63.36423336 C 87.80510799999999 81.0051074 85.5715324 90.444524 84.82700686000001 92.4562026 C 83.93357305 94.15839088 82.1467141 94.62262530000001 80.65766199999999 94.7773694 L 79.1686099 94.62262530000001" />
<path class="stroke" d="M 73.3613113 52.53211668 C 71.5744498 69.86350199 65.7671512 87.50437815000001 56.38613062 92.4562026" />
</svg>
