<?xml version="1.0" standalone="no"?>
<!DOCTYPE svg PUBLIC "-//W3C//DTD SVG 1.1//EN" "http://www.w3.org/Graphics/SVG/1.1/DTD/svg11.dtd">
<svg xmlns="http://www.w3.org/2000/svg" version="1.1" width="100%" height="100%">
<style type="text/css"><![CDATA[
  .stroke { fill:none; stroke:black; stroke-width:2 }
]]></style>
<path class="stroke" d="M 14.017018867924529 5.5205 L 14.017018867924529 16.877" />
<path class="stroke" d="M 4.196179245283019 17.1924 L 24.434264150943395 17.1924 C 19.90952830188679 37.2765 13.124150943396225 51.9978 3.660498113207547 60.7256" />
<path class="stroke" d="M 14.017018867924529 47.1609 L 14.017018867924529 94.795" />
<path class="stroke" d="M 26.15920754716981 39.2744 C 25.56396226415094 43.2702 24.433075471698114 46.6351 22.94507547169811 48.4228" />
<path class="stroke" d="M 14.195603773584907 46.5299 C 18.71909433962264 50.6309 21.45701886792453 55.6783 24.37352830188679 63.5646" />
<path class="stroke" d="M 40.167882899999995 21.204379 L 59.502616499999995 21.204379" />
<path class="stroke" d="M 51.0 5.875911299999999 L 50.7090905 44.92727119999999" />
<path class="stroke" d="M 51.0 23.043792800000002 C 47.9343066 30.1970781 43.4379553 37.7591235 37.1021895 43.0729915" />
<path class="stroke" d="M 51.0 24.678831799999998 C 54.8832101 27.335765799999997 56.927004999999994 29.788318 58.97080199999999 33.26277219999999" />
<path class="stroke" d="M 64.78010409999999 21.204379 L 86.97079919999999 21.204379" />
<path class="stroke" d="M 75.321164 5.875911299999999 L 75.363633 44.272724999999994" />
<path class="stroke" d="M 74.912406 23.861313 C 72.459851 31.832114999999995 66.1240845 39.598540799999995 59.9926998 44.7080249" />
<path class="stroke" d="M 74.912406 23.656934 C 78.591235 32.445251999999996 82.9777038 35.235963 89.10909199999999 40.345452" />
<path class="stroke" d="M 41.59305 55.296532 L 88.40695 55.296532" />
<path class="stroke" d="M 34.9684565 68.64668420000001 L 95.47317699999999 68.64668420000001" />
<path class="stroke" d="M 65.220829 68.791782 L 65.220829 90.413254 C 65.220829 91.961108 63.454239 92.928488 61.908499 92.880142 L 59.037799 92.880142" />
<path class="stroke" d="M 52.85486 74.45107 C 48.80647999999999 79.916928 44.09569 84.367014 35.410097 87.801282" />
<path class="stroke" d="M 78.02847 74.59624600000001 C 84.43227999999999 78.030514 89.51105999999999 82.33547 93.70665 87.801282" />
</svg>
