<?xml version="1.0" standalone="no"?>
<!DOCTYPE svg PUBLIC "-//W3C//DTD SVG 1.1//EN" "http://www.w3.org/Graphics/SVG/1.1/DTD/svg11.dtd">
<svg xmlns="http://www.w3.org/2000/svg" version="1.1" width="100%" height="100%">
<style type="text/css"><![CDATA[
  .stroke { fill:none; stroke:black; stroke-width:2 }
]]></style>
<path class="stroke" d="M 11.313868 17.445253 C 15.401459 18.029196 19.48905 20.364962 22.408756 24.160583" />
<path class="stroke" d="M 9.270073 47.226276 C 13.357662 47.226276 18.321167 46.934303 23.86861 43.138683 C 16.27737 53.357662 14.233576 58.321167 15.109488 60.9489 C 15.69343 63.284668 20.948904 65.62044 22.116787 68.832115 C 23.576641 72.33576 18.129246 80.26506 11.021896 83.722626" />
<path class="stroke" d="M 11.021896 84.014595 C 39.692924 81.65476 40.51095 91.313866 90.43795 90.14598" />
<path class="stroke" d="M 43.17518118 9.8832104 C 42.09488922 17.8248168 35.18102112 26.233576 31.07591108 28.102188" />
<path class="stroke" d="M 39.9343053 22.029196 L 39.9343053 74.35036000000001" />
<path class="stroke" d="M 65.64525158000001 10.116788 C 64.34890182000001 15.2554736 61.97226084 19.693429599999998 58.51532716 22.262772000000002" />
<path class="stroke" d="M 39.9343053 21.810752 L 79.9051056 21.810752" />
<path class="stroke" d="M 59.5956206 22.262772000000002 L 59.5956206 74.35036000000001" />
<path class="stroke" d="M 39.9343053 40.23348 L 77.09634679999999 40.23348" />
<path class="stroke" d="M 39.9343053 57.2992672 L 77.31240460000001 57.2992672" />
<path class="stroke" d="M 39.9343053 74.35036000000001 L 84.22627344 74.35036000000001" />
</svg>
