<?xml version="1.0" standalone="no"?>
<!DOCTYPE svg PUBLIC "-//W3C//DTD SVG 1.1//EN" "http://www.w3.org/Graphics/SVG/1.1/DTD/svg11.dtd">
<svg xmlns="http://www.w3.org/2000/svg" version="1.1" width="100%" height="100%">
<style type="text/css"><![CDATA[
  .stroke { fill:none; stroke:black; stroke-width:2 }
]]></style>
<path class="stroke" d="M 11.089108000000001 10.198019 L 28.3168304 10.198019 C 25.821784000000005 18.217821 24.0396028 21.782179 20.757080000000002 24.1326" />
<path class="stroke" d="M 16.593069600000003 18.45423 C 18.8643892 21.50353 20.126228 25.81483 21.1356688 31.07253" />
<path class="stroke" d="M 7.40594 37.227722 L 33.544556 37.227722 C 30.574258400000005 45.247524 27.247524 49.70297 23.920792000000002 50.89109" />
<path class="stroke" d="M 20.475247200000002 42.574257 L 20.475247200000002 84.455444 C 20.475247200000002 87.72277 19.643564 90.09901 18.455446000000002 90.09901 L 16.910892 90.09901" />
<path class="stroke" d="M 50.9927002 9.854013 L 87.605836 9.854013" />
<path class="stroke" d="M 69.56204199999999 9.854013 C 68.861314 14.817516 67.4598532 18.905107 65.47744 22.0621" />
<path class="stroke" d="M 52.54 22.3791 L 52.54 76.715324" />
<path class="stroke" d="M 52.54 22.3791 L 86.21542 22.3791 L 86.21542 76.423355" />
<path class="stroke" d="M 52.73026 40.77066 L 86.21542 40.77066" />
<path class="stroke" d="M 52.73026 59.79627 L 86.21542 59.79627" />
<path class="stroke" d="M 52.5693424 76.715324 L 86.37955600000001 76.715324" />
<path class="stroke" d="M 59.226275799999996 83.13868 C 56.0729914 86.9343 52.3941598 89.56204 48.0145972 89.85401" />
<path class="stroke" d="M 80.248174 83.43065 C 83.927008 84.59853 86.905108 86.35036 90.40875700000001 90.72992" />
</svg>
