<?xml version="1.0" standalone="no"?>
<!DOCTYPE svg PUBLIC "-//W3C//DTD SVG 1.1//EN" "http://www.w3.org/Graphics/SVG/1.1/DTD/svg11.dtd">
<svg xmlns="http://www.w3.org/2000/svg" version="1.1" width="100%" height="100%">
<style type="text/css"><![CDATA[
  .stroke { fill:none; stroke:black; stroke-width:2 }
]]></style>
<path class="stroke" d="M 24.744522 8.1824815 L 24.744522 30.255472" />
<path class="stroke" d="M 24.744522 8.1824815 L 74.9635 8.1824815 L 74.9635 30.255472" />
<path class="stroke" d="M 25.036495 18.617692899999998 L 74.67153 18.617692899999998" />
<path class="stroke" d="M 24.744522 29.291969199999997 L 74.9635 29.291969199999997" />
<path class="stroke" d="M 6.151417 41.2539457 L 94.479454 41.2539457" />
<path class="stroke" d="M 16.5615 41.638822149999996 L 16.5615 88.20664854" />
<path class="stroke" d="M 16.877 56.070925 L 37.3817 56.070925" />
<path class="stroke" d="M 16.877 70.6955652 L 37.3817 70.6955652" />
<path class="stroke" d="M 6.78233 89.938491 L 49.3691 84.165634" />
<path class="stroke" d="M 38.0126 41.44639277 L 38.0126 93.2097746" />
<path class="stroke" d="M 58.12376175 52.055841193999996 L 85.40594250000001 52.055841193999996 C 79.19801825 72.23113921449999 68.7425738 82.08777391999999 50.4455445 90.71232663" />
<path class="stroke" d="M 57.47029685 56.6761392145 C 59.903224050000006 66.2280633955 68.41935365 74.089193816 71.2580626 77.601613405 C 76.4032235 82.953871135 85.6290302 86.96806183999999 94.391089 90.71232663" />
</svg>
