<?xml version="1.0" standalone="no"?>
<!DOCTYPE svg PUBLIC "-//W3C//DTD SVG 1.1//EN" "http://www.w3.org/Graphics/SVG/1.1/DTD/svg11.dtd">
<svg xmlns="http://www.w3.org/2000/svg" version="1.1" width="100%" height="100%">
<style type="text/css"><![CDATA[
  .stroke { fill:none; stroke:black; stroke-width:2 }
]]></style>
<path class="stroke" d="M 8.486562857142857 11.089109 L 30.691242857142853 11.290321 C 32.350230857142854 17.741934 27.373270285714284 33.225803 22.396313142857142 40.0" />
<path class="stroke" d="M 22.396313142857142 40.96774 C 26.54377714285714 44.51613 29.861748857142857 49.032257 31.520736857142854 54.19355 C 33.179721428571426 57.09677 33.179721428571426 65.161285 24.33179657142857 68.38709 L 19.078340571428573 69.354836" />
<path class="stroke" d="M 11.032530857142856 11.089109 L 11.032530857142856 90.09901" />
<path class="stroke" d="M 37.5261775 20.157066 L 87.945025 20.157066" />
<path class="stroke" d="M 42.24452425 34.67153 L 42.0255475 62.70073" />
<path class="stroke" d="M 42.0255475 34.67153 L 82.974445 34.67153 L 82.974445 62.70073" />
<path class="stroke" d="M 42.0255475 48.63624 L 82.7554675 48.63624" />
<path class="stroke" d="M 42.0255475 62.9927 L 82.974445 62.9927" />
<path class="stroke" d="M 36.332116 77.59124 L 88.66787500000001 77.59124" />
<path class="stroke" d="M 62.6392225 8.978102 L 62.6392225 90.72992" />
</svg>
