<?xml version="1.0" standalone="no"?>
<!DOCTYPE svg PUBLIC "-//W3C//DTD SVG 1.1//EN" "http://www.w3.org/Graphics/SVG/1.1/DTD/svg11.dtd">
<svg xmlns="http://www.w3.org/2000/svg" version="1.1" width="100%" height="100%">
<style type="text/css"><![CDATA[
  .stroke { fill:none; stroke:black; stroke-width:2 }
]]></style>
<path class="stroke" d="M 11.313868 17.445253 C 15.401459 18.029196 19.48905 20.364962 22.408756 24.160583" />
<path class="stroke" d="M 9.270073 47.226276 C 13.357662 47.226276 18.321167 46.934303 23.86861 43.138683 C 16.27737 53.357662 14.233576 58.321167 15.109488 60.9489 C 15.69343 63.284668 20.948904 65.62044 22.116787 68.832115 C 23.576641 72.33576 18.129246 80.26506 11.021896 83.722626" />
<path class="stroke" d="M 11.021896 84.014595 C 39.692924 81.65476 40.51095 91.313866 90.43795 90.14598" />
<path class="stroke" d="M 31.526816 15.492080000000001 L 92.25238999999999 15.492080000000001" />
<path class="stroke" d="M 40.359626 27.8580672 L 40.359626 48.5520688" />
<path class="stroke" d="M 40.359626 27.8580672 L 84.08204599999999 27.8580672 L 84.08204599999999 48.5520688" />
<path class="stroke" d="M 40.359626 48.5520688 L 84.08204599999999 48.5520688" />
<path class="stroke" d="M 62.441629999999996 7.4164 L 62.441629999999996 78.07888000000001" />
<path class="stroke" d="M 62.441629999999996 48.552080000000004 C 56.84751 62.09568000000001 45.73291 73.8728 31.747631 76.31232" />
<path class="stroke" d="M 62.441629999999996 48.552080000000004 C 68.47738 61.84336 77.16298 73.6204 92.47317 76.31232" />
</svg>
