<?xml version="1.0" standalone="no"?>
<!DOCTYPE svg PUBLIC "-//W3C//DTD SVG 1.1//EN" "http://www.w3.org/Graphics/SVG/1.1/DTD/svg11.dtd">
<svg xmlns="http://www.w3.org/2000/svg" version="1.1" width="100%" height="100%">
<style type="text/css"><![CDATA[
  .stroke { fill:none; stroke:black; stroke-width:2 }
]]></style>
<path class="stroke" d="M 9.60396 33.069305 L 30.9901 30.9901" />
<path class="stroke" d="M 23.267326 9.60396 L 23.267326 84.15842 C 23.267326 87.42574 20.594059 90.09901 17.029703 90.09901" />
<path class="stroke" d="M 10.198019 63.36634 L 28.910892 46.435642" />
<path class="stroke" d="M 87.6633652 8.80088 C 74.77227719999999 12.761276444444444 55.019801099999995 14.609461333333332 43.3762384 14.609461333333332" />
<path class="stroke" d="M 44.623761599999995 21.47414844444444 C 47.7425745 25.17051822222222 49.61617 29.20897777777778 51.069306999999995 33.355336888888885" />
<path class="stroke" d="M 60.4257429 20.15401511111111 C 63.3366348 23.05830577777778 65.207921 26.754675555555554 66.45544699999999 31.507151111111114" />
<path class="stroke" d="M 86.623763 18.569855999999998 C 84.9603978 24.906490666666663 82.46534299999999 29.658966222222222 78.93069299999999 33.091308444444444" />
<path class="stroke" d="M 44.051093 50.5145965 L 86.153279 50.5145965" />
<path class="stroke" d="M 65.10218599999999 40.8357663 L 65.10218599999999 93.97444800000001" />
<path class="stroke" d="M 65.10218599999999 53.74087475 C 58.357665 68.3540129 50.1824805 76.1350342 39.554743099999996 80.12043249999999" />
<path class="stroke" d="M 65.10218599999999 53.74087475 C 71.4379525 68.54379275 80.021895 76.32481405 90.6496338 79.74087475" />
</svg>
