<?xml version="1.0" standalone="no"?>
<!DOCTYPE svg PUBLIC "-//W3C//DTD SVG 1.1//EN" "http://www.w3.org/Graphics/SVG/1.1/DTD/svg11.dtd">
<svg xmlns="http://www.w3.org/2000/svg" version="1.1" width="100%" height="100%">
<style type="text/css"><![CDATA[
  .stroke { fill:none; stroke:black; stroke-width:2 }
]]></style>
<path class="stroke" d="M 50.0 7.381726400000005 L 50.0 20.0" />
<path class="stroke" d="M 7.5 20.0 L 92.5 20.0" />
<path class="stroke" d="M 24.4432416 28.391891 L 13.597837160000001 40.79729675 L 23.70378136 51.2567555" />
<path class="stroke" d="M 33.8097286 42.01351175 C 25.350313 51.00378125 16.89089588 59.99405 8.17513456 69.2567555 L 32.084321880000005 66.33783725" />
<path class="stroke" d="M 31.59135016 66.09459275 C 26.66161928 82.87837999999999 15.323241600000001 90.1756745 4.970810932 93.8243225" />
<path class="stroke" d="M 51.84306455 30.39050975 C 50.894159450000004 37.83576575 44.821167200000005 45.7189775 41.2153273 47.47080125" />
<path class="stroke" d="M 48.99634925 41.77737125 L 48.99634925 90.8284625" />
<path class="stroke" d="M 71.58028855 30.60948875 C 70.44160295 35.4270065 68.3540129 39.58759025 65.3175171 41.99634875" />
<path class="stroke" d="M 48.99634925 41.57258 L 84.105836 41.57258" />
<path class="stroke" d="M 66.2664235 41.99634875 L 66.2664235 90.8284625" />
<path class="stroke" d="M 48.99634925 58.843887499999994 L 81.638683 58.843887499999994" />
<path class="stroke" d="M 48.99634925 74.843063 L 81.8284635 74.843063" />
<path class="stroke" d="M 48.99634925 90.8284625 L 87.9014564 90.8284625" />
</svg>
