<?xml version="1.0" standalone="no"?>
<!DOCTYPE svg PUBLIC "-//W3C//DTD SVG 1.1//EN" "http://www.w3.org/Graphics/SVG/1.1/DTD/svg11.dtd">
<svg xmlns="http://www.w3.org/2000/svg" version="1.1" width="100%" height="100%">
<style type="text/css"><![CDATA[
  .stroke { fill:none; stroke:black; stroke-width:2 }
]]></style>
<path class="stroke" d="M 8.86496275 14.7777914 L 30.631384 14.7777914" />
<path class="stroke" d="M 15.866300449999999 14.7777914 C 15.731276049999998 34.81833575 8.762773249999999 58.0474392 4.5729925499999995 64.5" />
<path class="stroke" d="M 13.05474345 43.653282499999996 L 13.05474345 77.405108" />
<path class="stroke" d="M 13.05474345 43.653282499999996 L 28.0766395 43.653282499999996 L 27.97445 77.6532825" />
<path class="stroke" d="M 12.9525543 74.9233545 L 27.97445 74.9233545" />
<path class="stroke" d="M 69.0 7.392605754000003 L 69.0 17.85" />
<path class="stroke" d="M 42.65 17.85 L 95.35 17.85" />
<path class="stroke" d="M 68.5890794752 19.014065167200002 C 65.113459072 26.3982692985 56.82020416 34.66765086 47.0402324992 40.572546935999995 C 61.637838073599994 39.63891156 74.3238534976 39.214533165 88.21307584 39.276612150000005" />
<path class="stroke" d="M 81.448874848 33.952224206400004 C 85.445836288 35.56486733999999 88.9214566912 38.0262692985 91.180612096 41.336428047" />
<path class="stroke" d="M 51.3974498 47.775993 L 51.3974498 72.41324300000001 C 51.5930598 83.51730300000001 47.485745800000004 89.76354300000001 42.7918002 93.23348750000001" />
<path class="stroke" d="M 66.45746866 49.51103950000001 L 66.45746866 90.457434" />
<path class="stroke" d="M 81.9085364 47.776026 L 81.9085364 87.33444050000001 C 81.9085364 91.151446 83.27762039999999 93.23341600000002 84.6467044 93.23341600000002 L 92.4699884 93.23341600000002 C 94.2302924 93.34902600000001 95.4037664 90.68867600000002 95.4037664 87.3343316 L 95.4037664 82.12935600000002" />
</svg>
