<?xml version="1.0" standalone="no"?>
<!DOCTYPE svg PUBLIC "-//W3C//DTD SVG 1.1//EN" "http://www.w3.org/Graphics/SVG/1.1/DTD/svg11.dtd">
<svg xmlns="http://www.w3.org/2000/svg" version="1.1" width="100%" height="100%">
<style type="text/css"><![CDATA[
  .stroke { fill:none; stroke:black; stroke-width:2 }
]]></style>
<path class="stroke" d="M 27.918 5.5205 C 21.8192 17.8233 14.4585 30.7571 4.88959 40.5363" />
<path class="stroke" d="M 27.918 5.83596 C 34.0168 11.8296 38.2229 18.4543 42.7445 25.0789" />
<path class="stroke" d="M 12.1451 33.59624 L 40.2208 33.59624" />
<path class="stroke" d="M 6.782335 51.57724 L 44.006287 51.57724" />
<path class="stroke" d="M 27.287043 33.9117 L 27.287043 88.1703" />
<path class="stroke" d="M 6.46688 61.672 C 10.7781 65.878 14.143 70.3996 17.5079 75.2366" />
<path class="stroke" d="M 43.06 61.6719 C 40.7466 67.4553 37.4868 72.2923 33.2807 77.1294" />
<path class="stroke" d="M 8.04416 94.4795 L 42.7445 83.7539" />
<path class="stroke" d="M 70.37854 6.290817105263159 L 70.37854 20.857565789473686" />
<path class="stroke" d="M 54.4963498 8.40376447368421 C 56.9489038 11.285055263157895 58.175182 13.974259868421052 59.7518224 18.008066447368424" />
<path class="stroke" d="M 85.328464 8.40376447368421 C 84.27736959999999 13.398001315789474 82.700728 15.318863157894738 80.423356 17.81598157894737" />
<path class="stroke" d="M 56.2481752 26.08029066 L 56.2481752 79.7094854" />
<path class="stroke" d="M 56.423356600000005 26.08029066 L 83.75182000000001 26.08029066 L 83.75182000000001 79.7094854" />
<path class="stroke" d="M 56.4293188 44.3861404 L 83.7227704 44.3861404" />
<path class="stroke" d="M 56.4293188 62.40990194 L 83.7227704 62.40990194" />
<path class="stroke" d="M 56.423356600000005 79.47006999999999 L 83.576638 79.47006999999999" />
<path class="stroke" d="M 59.9270068 85.216056 C 58.5255472 89.286126 56.2481752 91.4408728 53.620438 92.3985344" />
<path class="stroke" d="M 80.77372 85.4554714 C 83.401456 86.413133 85.328464 88.5678798 86.905108 92.3985344" />
</svg>
