<?xml version="1.0" standalone="no"?>
<!DOCTYPE svg PUBLIC "-//W3C//DTD SVG 1.1//EN" "http://www.w3.org/Graphics/SVG/1.1/DTD/svg11.dtd">
<svg xmlns="http://www.w3.org/2000/svg" version="1.1" width="100%" height="100%">
<style type="text/css"><![CDATA[
  .stroke { fill:none; stroke:black; stroke-width:2 }
]]></style>
<path class="stroke" d="M 25.912407 5.9124077999999995 C 24.452553 11.868612599999999 15.109488 18.175182 9.562042 19.576641" />
<path class="stroke" d="M 21.532845 15.021897 L 21.532845 54.262769999999996" />
<path class="stroke" d="M 56.277367 6.087591 C 54.525543 9.9416052 51.313866 13.2700722 46.642334 15.197079" />
<path class="stroke" d="M 21.532845 14.858063999999999 L 75.54744 14.858063999999999" />
<path class="stroke" d="M 48.10219 15.197079 L 48.10219 54.262769999999996" />
<path class="stroke" d="M 21.532845 28.675109999999997 L 71.75182 28.675109999999997" />
<path class="stroke" d="M 21.532845 41.474450399999995 L 72.04379 41.474450399999995" />
<path class="stroke" d="M 21.532845 54.262769999999996 L 81.386856 54.262769999999996" />
<path class="stroke" d="M 23.861385 70.3366334 L 73.46535 70.3366334 C 62.178215 83.95544595 43.168316 90.608912 9.90099 96.43069299999999" />
<path class="stroke" d="M 22.673267 73.45544595 C 27.096771 79.90322505 42.580643 85.20967759999999 47.741932 87.5806455 C 57.09677 91.1935485 73.870964 93.903224 89.80198 96.43069299999999" />
</svg>
