<?xml version="1.0" standalone="no"?>
<!DOCTYPE svg PUBLIC "-//W3C//DTD SVG 1.1//EN" "http://www.w3.org/Graphics/SVG/1.1/DTD/svg11.dtd">
<svg xmlns="http://www.w3.org/2000/svg" version="1.1" width="100%" height="100%">
<style type="text/css"><![CDATA[
  .stroke { fill:none; stroke:black; stroke-width:2 }
]]></style>
<path class="stroke" d="M 82.376236 6.6006599999999995 C 63.960396 9.570957333333332 35.742573 10.957096 19.108912 10.957096" />
<path class="stroke" d="M 20.891088 16.105611333333332 C 25.346535 18.877888666666664 28.0231 21.906733333333335 30.09901 25.016502666666668" />
<path class="stroke" d="M 43.465347 15.115511333333332 C 47.623764 17.29372933333333 50.29703 20.066006666666667 52.07921 23.630363333333335" />
<path class="stroke" d="M 80.89109 13.927392 C 78.514854 18.679868 74.95049 22.244224666666668 69.90099 24.81848133333333" />
<path class="stroke" d="M 11.1987 32.731880000000004 L 89.1167 32.731880000000004 L 89.1167 63.01576" />
<path class="stroke" d="M 10.8833 47.369068 L 89.1167 47.369068" />
<path class="stroke" d="M 11.1987 63.01576 L 89.1167 63.01576" />
<path class="stroke" d="M 17.4453 74.13248 C 16.6042 80.77808 14.5012 85.15248000000001 10.8207 90.03152" />
<path class="stroke" d="M 33.21814 70.09464 L 33.21814 91.54576 C 33.21814 93.81704 35.11094 95.33120000000001 37.95004 95.33120000000001 L 72.01944 95.33120000000001 C 74.64824 95.33120000000001 76.96164 93.56464 77.06674 90.78864 L 77.06674 86.4984" />
<path class="stroke" d="M 45.2056 70.094656 C 50.6735 73.964256 54.2487 78.086256 57.5084 83.470016" />
<path class="stroke" d="M 77.0667 70.34703999999999 C 83.6913 75.05776 87.7923 79.7688 91.8932 86.24607999999999" />
</svg>
