<?xml version="1.0" standalone="no"?>
<!DOCTYPE svg PUBLIC "-//W3C//DTD SVG 1.1//EN" "http://www.w3.org/Graphics/SVG/1.1/DTD/svg11.dtd">
<svg xmlns="http://www.w3.org/2000/svg" version="1.1" width="100%" height="100%">
<style type="text/css"><![CDATA[
  .stroke { fill:none; stroke:black; stroke-width:2 }
]]></style>
<path class="stroke" d="M 25.94635 5.835962 C 25.57835 9.831762 24.7371 13.196672 22.47635 15.930572" />
<path class="stroke" d="M 12.5394 15.930615 L 12.5394 66.719215 C 12.48685 79.02212 10.22605 87.224014 4.02206 93.21771" />
<path class="stroke" d="M 12.5394 15.930615 L 37.93375 15.930615 L 37.93375 87.53941 C 37.98635 91.32491 37.09255 92.902214 35.72555 92.902214 L 33.3596 92.902214" />
<path class="stroke" d="M 22.00315 26.97159 C 24.89485 29.49519 26.6824 33.59619 28.3123 39.27439" />
<path class="stroke" d="M 25.41096 59.69863 L 25.41096 81.39726" />
<path class="stroke" d="M 3.23344 49.6845 L 46.4511 49.6845" />
<path class="stroke" d="M 75.0 4.227158000000003 L 75.0 20.0" />
<path class="stroke" d="M 53.75 20.0 L 96.25 20.0" />
<path class="stroke" d="M 66.7981 36.293371 L 66.7981 71.84544 C 66.95585 85.24183 60.8044 95.32596 53.548895 95.47317" />
<path class="stroke" d="M 66.7981 36.072556 L 83.2019 36.072556 L 83.2019 88.40695 C 82.9916 92.89688999999998 84.5163 95.84123 86.82965 95.69395 L 93.13875 95.69395 C 96.03045 95.69395 96.8717 92.16091 96.76655 88.40695 L 96.76655 85.09461999999999" />
</svg>
