<?xml version="1.0" standalone="no"?>
<!DOCTYPE svg PUBLIC "-//W3C//DTD SVG 1.1//EN" "http://www.w3.org/Graphics/SVG/1.1/DTD/svg11.dtd">
<svg xmlns="http://www.w3.org/2000/svg" version="1.1" width="100%" height="100%">
<style type="text/css"><![CDATA[
  .stroke { fill:none; stroke:black; stroke-width:2 }
]]></style>
<path class="stroke" d="M 11.313868 17.445253 C 15.401459 18.029196 19.48905 20.364962 22.408756 24.160583" />
<path class="stroke" d="M 9.270073 47.226276 C 13.357662 47.226276 18.321167 46.934303 23.86861 43.138683 C 16.27737 53.357662 14.233576 58.321167 15.109488 60.9489 C 15.69343 63.284668 20.948904 65.62044 22.116787 68.832115 C 23.576641 72.33576 18.129246 80.26506 11.021896 83.722626" />
<path class="stroke" d="M 11.021896 84.014595 C 39.692924 81.65476 40.51095 91.313866 90.43795 90.14598" />
<path class="stroke" d="M 44.462202 8.148266199999998 L 83.65775199999999 8.148266199999998 L 83.65775199999999 39.706696" />
<path class="stroke" d="M 44.6861502 24.186096799999998 L 83.2097562 24.186096799999998" />
<path class="stroke" d="M 44.686136 39.706696 L 83.65775199999999 39.706696" />
<path class="stroke" d="M 44.462202 8.148266199999998 L 44.462202 71.26497 M 32.8154543 76.69719119999999 C 40.953169 72.55831991999999 49.314981 70.48888919999999 59.916416999999996 70.23026119999999" />
<path class="stroke" d="M 90.37693639999999 43.328061999999996 C 84.7775214 47.897922 80.2980604 51.691897999999995 76.71447739999999 57.296516" />
<path class="stroke" d="M 65.2917276 39.965406 C 67.6061856 61.09041 75.9679266 71.351152 92.8407216 76.17980399999999" />
</svg>
