<?xml version="1.0" standalone="no"?>
<!DOCTYPE svg PUBLIC "-//W3C//DTD SVG 1.1//EN" "http://www.w3.org/Graphics/SVG/1.1/DTD/svg11.dtd">
<svg xmlns="http://www.w3.org/2000/svg" version="1.1" width="100%" height="100%">
<style type="text/css"><![CDATA[
  .stroke { fill:none; stroke:black; stroke-width:2 }
]]></style>
<path class="stroke" d="M 11.946819428571429 27.956203 L 31.46715257142857 27.956203" />
<path class="stroke" d="M 23.45880857142857 9.270073 L 23.45880857142857 90.14598" />
<path class="stroke" d="M 23.45880857142857 36.131386 C 20.20542 44.598537 16.20125057142857 52.48175 10.445255142857143 56.861313" />
<path class="stroke" d="M 23.45880857142857 36.131386 C 27.212719714285715 37.299267 29.71532657142857 42.26277 30.96663 46.934303" />
<path class="stroke" d="M 54.266245915384616 6.78234 L 39.968089751538464 13.7224" />
<path class="stroke" d="M 39.748153326923074 14.037843 L 39.748153326923074 73.34394 M 31.389279869615386 78.39113 L 57.29960689692308 63.295456" />
<path class="stroke" d="M 57.345821661538466 19.4006 L 57.565822238461536 67.0347 C 57.41917843076923 82.9127 49.353559815384614 92.7971 39.08828408461538 94.795" />
<path class="stroke" d="M 69.8479156 12.941643749999999 L 92.2696899 12.941643749999999 L 92.2696899 64.4873717 C 92.2696899 68.68294599999999 90.6822826 70.78073599999999 88.6980392 70.78073599999999 L 85.32490089999999 70.78073599999999" />
<path class="stroke" d="M 69.8479156 12.941643749999999 L 69.8479156 93.8564355" />
</svg>
