<?xml version="1.0" standalone="no"?>
<!DOCTYPE svg PUBLIC "-//W3C//DTD SVG 1.1//EN" "http://www.w3.org/Graphics/SVG/1.1/DTD/svg11.dtd">
<svg xmlns="http://www.w3.org/2000/svg" version="1.1" width="100%" height="100%">
<style type="text/css"><![CDATA[
  .stroke { fill:none; stroke:black; stroke-width:2 }
]]></style>
<path class="stroke" d="M 11.003300000000001 33.069305 L 28.825083333333335 30.9901" />
<path class="stroke" d="M 22.389438333333334 9.60396 L 22.389438333333334 84.15842 C 22.389438333333334 87.42574 20.161715833333336 90.09901 17.19141916666667 90.09901" />
<path class="stroke" d="M 11.498349166666667 63.36634 L 27.09241 46.435642" />
<path class="stroke" d="M 86.95841464 9.240924 C 73.33069304 13.399340266666668 52.44950402 15.3399344 40.14059488 15.3399344" />
<path class="stroke" d="M 41.45940512 22.547855866666666 C 44.7564359 26.42904413333333 46.737094 30.66942666666667 48.273267399999995 35.023103733333336" />
<path class="stroke" d="M 58.16435678 21.161715866666665 C 61.24158536 24.211221066666667 63.2198022 28.092409333333332 64.5386154 33.08250866666667" />
<path class="stroke" d="M 85.8594066 19.4983488 C 84.10099196 26.151815199999998 81.46336260000001 31.141914533333335 77.72673259999999 34.74587386666667" />
<path class="stroke" d="M 42.223982 42.47631 L 87.27755 42.47631" />
<path class="stroke" d="M 30.92041836 62.581151399999996 L 95.54450440000001 62.581151399999996" />
<path class="stroke" d="M 63.000037 42.6971488 L 63.000037 95.031596" />
<path class="stroke" d="M 35.921106 74.05366 L 35.921106 95.25238999999999 L 89.378558 95.25238999999999" />
<path class="stroke" d="M 89.378558 73.61196 L 89.378558 95.25238999999999" />
</svg>
