<?xml version="1.0" standalone="no"?>
<!DOCTYPE svg PUBLIC "-//W3C//DTD SVG 1.1//EN" "http://www.w3.org/Graphics/SVG/1.1/DTD/svg11.dtd">
<svg xmlns="http://www.w3.org/2000/svg" version="1.1" width="100%" height="100%">
<style type="text/css"><![CDATA[
  .stroke { fill:none; stroke:black; stroke-width:2 }
]]></style>
<path class="stroke" d="M 50.14598 8.978102 C 49.562042 12.189779 47.518246 14.525547 44.890507 15.69343" />
<path class="stroke" d="M 38.17518 15.69343 L 38.17518 50.729923" />
<path class="stroke" d="M 38.17518 15.69343 L 62.9927 15.69343 L 62.9927 50.729923" />
<path class="stroke" d="M 38.17518 32.919704 L 62.70073 32.919704" />
<path class="stroke" d="M 38.17518 50.729923 L 62.70073 50.729923" />
<path class="stroke" d="M 15.985401 15.985401 L 26.788319 22.70073" />
<path class="stroke" d="M 14.233576 45.766422 L 27.372261 33.79562" />
<path class="stroke" d="M 82.55474 15.985401 L 73.21168 23.86861" />
<path class="stroke" d="M 73.21168 34.37956 L 85.76642 45.47445" />
<path class="stroke" d="M 11.021896 62.324810920000004 L 88.68613 62.324810920000004" />
<path class="stroke" d="M 50.14598 55.26496144 L 50.14598 90.3432892" />
<path class="stroke" d="M 47.226276 64.49707702 C 35.547443 74.2722568 23.576641 81.6036421 13.065693 85.6766329" />
<path class="stroke" d="M 53.06569 64.49707702 C 64.16058 74.81532100000001 75.54744 81.33211000000001 86.642334 85.6766329" />
</svg>
