<?xml version="1.0" standalone="no"?>
<!DOCTYPE svg PUBLIC "-//W3C//DTD SVG 1.1//EN" "http://www.w3.org/Graphics/SVG/1.1/DTD/svg11.dtd">
<svg xmlns="http://www.w3.org/2000/svg" version="1.1" width="100%" height="100%">
<style type="text/css"><![CDATA[
  .stroke { fill:none; stroke:black; stroke-width:2 }
]]></style>
<path class="stroke" d="M 10.55412 8.990537 L 10.55412 74.60566" />
<path class="stroke" d="M 10.55412 8.990537 L 29.577580869565217 8.990537 L 29.577580869565217 74.60566" />
<path class="stroke" d="M 10.55412 31.072573 L 29.31695043478261 31.072573" />
<path class="stroke" d="M 10.55412 53.1546 L 29.31695043478261 53.1546" />
<path class="stroke" d="M 10.55412 74.60566 L 29.577580869565217 74.60566" />
<path class="stroke" d="M 15.244773913043478 82.1766 C 13.50751304347826 87.4343 10.206634782608695 91.7455 5.3421969565217395 95.1104" />
<path class="stroke" d="M 24.365690869565217 82.49213 C 26.88476043478261 85.43633 28.62202130434782 88.38063 29.57755608695652 92.58673" />
<path class="stroke" d="M 46.52919625 4.9270065 C 50.32481665 7.2627735 53.36131245 10.474452 55.63868495 13.540146" />
<path class="stroke" d="M 86.7627695 4.9270065 C 85.2141614 7.8175175 82.018244 11.204378 78.791969 13.6861305" />
<path class="stroke" d="M 42.3540142 18.14233485 L 42.3540142 51.2518215" />
<path class="stroke" d="M 42.3540142 18.010947899999998 L 92.8357624 18.010947899999998 L 92.8357624 51.2518215" />
<path class="stroke" d="M 67.594887 18.14233485 L 67.594887 48.88686" />
<path class="stroke" d="M 42.3540142 33.440051100000005 L 92.456204 33.440051100000005" />
<path class="stroke" d="M 42.3540142 48.88686 L 92.8357624 48.88686" />
<path class="stroke" d="M 47.80072716 67.2978099 L 47.80072716 95.2569312" />
<path class="stroke" d="M 47.80072716 67.2978099 L 86.97153 67.2978099 L 86.97153 95.2569312" />
<path class="stroke" d="M 48.0284661 80.51574434 L 86.7437934 80.51574434" />
<path class="stroke" d="M 47.80072716 94.03649432 L 86.97153 94.03649432" />
</svg>
