<?xml version="1.0" standalone="no"?>
<!DOCTYPE svg PUBLIC "-//W3C//DTD SVG 1.1//EN" "http://www.w3.org/Graphics/SVG/1.1/DTD/svg11.dtd">
<svg xmlns="http://www.w3.org/2000/svg" version="1.1" width="100%" height="100%">
<style type="text/css"><![CDATA[
  .stroke { fill:none; stroke:black; stroke-width:2 }
]]></style>
<path class="stroke" d="M 16.435644 2.8811880000000003 L 45.247524 2.8811880000000003 L 45.247524 25.6039605 C 45.247524 26.584158 43.465347 27.029703 40.79208 27.029703 L 37.227722 27.029703" />
<path class="stroke" d="M 11.683168 8.4059406 C 18.51485 9.1188114 24.752476 10.3663365 29.20792 12.059406" />
<path class="stroke" d="M 12.277227 20.435643 L 30.9901 15.8019801" />
<path class="stroke" d="M 61.287132 2.8811880000000003 L 88.91089 2.8811880000000003 L 88.91089 25.336633199999998 C 88.91089 26.316830999999997 87.42574 26.940594 84.15842 26.940594 L 81.18812 26.940594" />
<path class="stroke" d="M 58.316833 8.1386136 C 64.85149 8.762376 69.90099 10.0099011 74.0594 11.970297" />
<path class="stroke" d="M 58.316833 20.257424999999998 L 76.73267 15.623763" />
<path class="stroke" d="M 15.1824812 37.004086964 L 15.1824812 59.665691159999994" />
<path class="stroke" d="M 15.1824812 36.914159896 L 85.08028639999999 36.914159896 L 85.08028639999999 59.665691159999994" />
<path class="stroke" d="M 50.131382 37.004086964 L 50.131382 58.0470064" />
<path class="stroke" d="M 15.1824812 47.474523864 L 84.554744 47.474523864" />
<path class="stroke" d="M 15.1824812 58.0470064 L 85.08028639999999 58.0470064" />
<path class="stroke" d="M 14.984257 71.7273073 L 85.33126 71.7273073" />
<path class="stroke" d="M 34.22713 63.73579685 L 34.22713 82.60930766" />
<path class="stroke" d="M 65.77287 63.5657693 L 65.77287 82.6092861" />
<path class="stroke" d="M 6.466877 82.7793406 L 94.164055 82.7793406" />
<path class="stroke" d="M 31.7035 86.896546 C 28.7592 91.02590199999999 22.0295 93.26059599999999 14.3533 94.47510159999999" />
<path class="stroke" d="M 65.7729 86.89649980000002 C 69.7686 90.9772534 75.3417 93.0176302 83.123 94.47505539999999" />
</svg>
