<?xml version="1.0" standalone="no"?>
<!DOCTYPE svg PUBLIC "-//W3C//DTD SVG 1.1//EN" "http://www.w3.org/Graphics/SVG/1.1/DTD/svg11.dtd">
<svg xmlns="http://www.w3.org/2000/svg" version="1.1" width="100%" height="100%">
<style type="text/css"><![CDATA[
  .stroke { fill:none; stroke:black; stroke-width:2 }
]]></style>
<path class="stroke" d="M 7.80755 10.8833 L 39.03785 10.8833 L 39.03785 49.0537" />
<path class="stroke" d="M 3.86435 30.12615 L 46.76655 30.12615" />
<path class="stroke" d="M 7.9653 49.0536 L 39.03785 49.0537" />
<path class="stroke" d="M 22.1609 11.1988 C 19.79495 44.9527 16.85065 64.3008 2.917945 77.7603" />
<path class="stroke" d="M 15.370437625 63.4496345 L 15.370437625 88.956203" />
<path class="stroke" d="M 15.370437625 63.4496345 L 39.23905 63.4496345 L 39.23905 88.7109482" />
<path class="stroke" d="M 15.370437625 86.99415872 L 39.23905 86.99415872" />
<path class="stroke" d="M 61.9306925 9.90099 C 63.861385 13.762377 65.49505 18.811882 66.53465249999999 24.158417" />
<path class="stroke" d="M 86.28712999999999 10.198019 C 85.544555 16.138615 84.20792 20.891088 82.27723 24.158417" />
<path class="stroke" d="M 61.039604 29.80198 L 88.811882 29.80198" />
<path class="stroke" d="M 62.376238 47.0297 L 87.62376499999999 47.0297" />
<path class="stroke" d="M 57.029703 64.55446 L 93.267325 64.55446" />
<path class="stroke" d="M 75.0 29.80198 L 75.0 89.80198" />
</svg>
