<?xml version="1.0" standalone="no"?>
<!DOCTYPE svg PUBLIC "-//W3C//DTD SVG 1.1//EN" "http://www.w3.org/Graphics/SVG/1.1/DTD/svg11.dtd">
<svg xmlns="http://www.w3.org/2000/svg" version="1.1" width="100%" height="100%">
<style type="text/css"><![CDATA[
  .stroke { fill:none; stroke:black; stroke-width:2 }
]]></style>
<path class="stroke" d="M 11.96423342 9.854013 L 11.9442956 55.63759 C 9.411409169999999 80.20134 9.411409169999999 79.39597 6.5805365799999995 89.865776" />
<path class="stroke" d="M 11.96423342 9.854013 L 27.0883216 9.854013 L 27.0883216 86.05839 C 27.0883216 88.39416 26.6562023 90.43795 25.575911079999997 90.43795 L 24.387591699999998 90.43795" />
<path class="stroke" d="M 11.96423342 31.862577 L 27.0883216 31.862577" />
<path class="stroke" d="M 11.96423342 55.110336 L 27.0883216 55.110336" />
<path class="stroke" d="M 48.5551736 11.170886409638555 C 50.9863096 12.537605445783132 52.7738936 14.469898939759037 53.7034536 16.260742795180725" />
<path class="stroke" d="M 78.58676840000001 11.170886409638555 C 77.4426684 13.480154843373494 75.8696244 14.799768819277109 73.65296040000001 16.260787614457833" />
<path class="stroke" d="M 41.0473344 18.66431995180723 L 87.81073040000001 18.66431995180723" />
<path class="stroke" d="M 35.4700322 26.157749012048193 L 92.95896687999999 26.157749012048193" />
<path class="stroke" d="M 64.858024 10.181178168674698 C 63.57092 24.272587469879518 51.55838 34.546644819277105 35.4700288 41.00326506024097" />
<path class="stroke" d="M 66.57414 18.805711325301203 C 70.57832 28.372789397590363 80.15979200000001 36.38463855421687 92.959024 41.00326506024097" />
<path class="stroke" d="M 49.20875764 41.537069620000004 L 49.20875764 72.15158903440002" />
<path class="stroke" d="M 49.27834884 41.48478342040001 L 82.0865992 41.48478342040001" />
<path class="stroke" d="M 65.7086496 41.58307672 L 65.7086496 72.15158903440002" />
<path class="stroke" d="M 49.20875764 51.65629174000001 L 78.9897772 51.65629174000001" />
<path class="stroke" d="M 49.407299280000004 62.180903129200004 L 78.9897772 62.180903129200004" />
<path class="stroke" d="M 49.20875764 72.15158903440002 L 89.7109428 72.15158903440002 C 89.7109428 86.36904773440001 87.52700039999999 92.09295958 83.1591224 92.09295958" />
<path class="stroke" d="M 40.87007268 79.352641828 C 40.27445184 81.75298875400001 39.08321016 84.52262566 37.09781008 85.999766608" />
<path class="stroke" d="M 50.201458360000004 78.6140707216 C 51.59123964 80.46049279600001 52.58394104 82.67620105600001 53.1795612 86.18440843600001" />
<path class="stroke" d="M 62.7094892 78.24478833040001 C 64.29780872 80.46049279600001 65.48904836 82.67620105600001 66.28321016000001 85.261192972" />
<path class="stroke" d="M 75.8131368 77.506217224 C 77.6 79.906567312 78.59269800000001 81.19906643200001 79.3868564 84.153342004" />
</svg>
