<?xml version="1.0" standalone="no"?>
<!DOCTYPE svg PUBLIC "-//W3C//DTD SVG 1.1//EN" "http://www.w3.org/Graphics/SVG/1.1/DTD/svg11.dtd">
<svg xmlns="http://www.w3.org/2000/svg" version="1.1" width="100%" height="100%">
<style type="text/css"><![CDATA[
  .stroke { fill:none; stroke:black; stroke-width:2 }
]]></style>
<path class="stroke" d="M 50.312496 4.3430655 L 50.312496 10.3284665" />
<path class="stroke" d="M 14.233576 10.3284665 L 14.233576 17.627737" />
<path class="stroke" d="M 14.233576 10.3284665 L 86.05839 10.3284665 L 86.05839 17.627737" />
<path class="stroke" d="M 38.46715 15.2919695 C 35.547443 20.4014585 27.956203 25.218977 19.197079 26.9708025" />
<path class="stroke" d="M 60.40019 14.4160575 L 60.40019 21.036505 C 60.65693 23.613138 63.23729 25.028355 67.96229 24.975755 L 85.93139 24.975805" />
<path class="stroke" d="M 24.05365 29.37697 C 23.84335 32.768125 22.05575 36.395875000000004 19.16405 36.23815" />
<path class="stroke" d="M 12.69715 36.474775 L 12.69715 75.51265000000001" />
<path class="stroke" d="M 12.69715 36.474775 L 36.5142 36.474775 L 36.5142 91.36435 C 36.63475 94.2592 35.6422 96.09625 33.83285 95.859625 L 31.9401 95.859625" />
<path class="stroke" d="M 12.85485 48.777604 L 36.35645 48.777604" />
<path class="stroke" d="M 12.8548785 60.60726775 L 36.51418 60.60726775" />
<path class="stroke" d="M 3.07571 78.5883475 L 36.35645 71.0173225" />
<path class="stroke" d="M 46.6088 49.014175 C 38.82755 80.08675 24.5794 89.156125 6.54575 94.67665" />
<path class="stroke" d="M 63.540146 32.60948875 L 87.33576500000001 32.60948875 L 86.45985 47.0620435" />
<path class="stroke" d="M 65.729925 47.0620435 L 86.31386499999999 47.0620435" />
<path class="stroke" d="M 65.5839405 47.0620435 L 63.832115 61.733575 L 89.08759 61.733575 C 87.33576500000001 83.19343 82.08028999999999 91.95254875 79.744522 91.95254875 L 78.4306565 91.95254875" />
</svg>
