<?xml version="1.0" standalone="no"?>
<!DOCTYPE svg PUBLIC "-//W3C//DTD SVG 1.1//EN" "http://www.w3.org/Graphics/SVG/1.1/DTD/svg11.dtd">
<svg xmlns="http://www.w3.org/2000/svg" version="1.1" width="100%" height="100%">
<style type="text/css"><![CDATA[
  .stroke { fill:none; stroke:black; stroke-width:2 }
]]></style>
<path class="stroke" d="M 24.76344 7.41325 C 20.24184 17.1925 13.82764 23.817 6.78234 28.2334" />
<path class="stroke" d="M 25.0789 30.44158 C 20.347 40.22088 14.0379 47.16098 6.78234 52.20818" />
<path class="stroke" d="M 17.82337 44.006344 L 17.82337 93.84854" />
<path class="stroke" d="M 73.81704 12.775985 L 90.69404 12.775985" />
<path class="stroke" d="M 69.87374 38.01264 L 94.16404 38.01264" />
<path class="stroke" d="M 82.80756 38.01264 L 82.80756 87.85484 C 83.18956 92.40424 81.39656 94.31324 78.07566 94.16404 L 75.55206 94.16404" />
<path class="stroke" d="M 63.123096 8.675072 C 52.254487999999995 12.039972 42.344924 12.881172 32.675064 12.776072" />
<path class="stroke" d="M 32.43533264 24.76336 L 63.36281064 24.76336" />
<path class="stroke" d="M 32.675064 36.750874 L 32.914844 66.08827" />
<path class="stroke" d="M 32.675064 36.750874 L 63.122944 36.750874 L 63.362724 66.08827" />
<path class="stroke" d="M 33.154624 51.26186 L 62.643612 51.57736" />
<path class="stroke" d="M 32.914844 66.08827 L 63.362724 66.08827" />
<path class="stroke" d="M 48.018932 12.460643 L 48.018932 91.009445" />
<path class="stroke" d="M 32.67508072 78.3912 L 63.3627544 78.3912" />
<path class="stroke" d="M 32.1955838 94.4795 L 63.12303216 88.8012" />
</svg>
