<?xml version="1.0" standalone="no"?>
<!DOCTYPE svg PUBLIC "-//W3C//DTD SVG 1.1//EN" "http://www.w3.org/Graphics/SVG/1.1/DTD/svg11.dtd">
<svg xmlns="http://www.w3.org/2000/svg" version="1.1" width="100%" height="100%">
<style type="text/css"><![CDATA[
  .stroke { fill:none; stroke:black; stroke-width:2 }
]]></style>
<path class="stroke" d="M 9.60396 33.069305 L 30.9901 30.9901" />
<path class="stroke" d="M 23.267326 9.60396 L 23.267326 84.15842 C 23.267326 87.42574 20.594059 90.09901 17.029703 90.09901" />
<path class="stroke" d="M 10.198019 63.36634 L 28.910892 46.435642" />
<path class="stroke" d="M 40.3501465 8.044167 L 89.0410195 8.044167 L 89.0410195 23.186256" />
<path class="stroke" d="M 40.3501465 23.186256 L 89.0410195 23.186256" />
<path class="stroke" d="M 40.1514193 8.044167 L 40.1514193 58.20186 C 40.2176953 72.92316 39.0914443 81.01996 36.3753946 94.164055" />
<path class="stroke" d="M 43.558240636 42.369200000000006 L 91.191756376 42.369200000000006" />
<path class="stroke" d="M 67.375 25.122467067200002 L 67.375 62.20509171200001" />
<path class="stroke" d="M 53.9653499911 64.0172476475 L 53.9653499911 89.10477966500001" />
<path class="stroke" d="M 53.9653499911 64.0172476475 L 80.90823963999999 64.0172476475 L 80.90823963999999 88.86355405100001" />
<path class="stroke" d="M 53.9653499911 87.17496896960002 L 80.90823963999999 87.17496896960002" />
</svg>
