<?xml version="1.0" standalone="no"?>
<!DOCTYPE svg PUBLIC "-//W3C//DTD SVG 1.1//EN" "http://www.w3.org/Graphics/SVG/1.1/DTD/svg11.dtd">
<svg xmlns="http://www.w3.org/2000/svg" version="1.1" width="100%" height="100%">
<style type="text/css"><![CDATA[
  .stroke { fill:none; stroke:black; stroke-width:2 }
]]></style>
<path class="stroke" d="M 13.154171785714285 14.059406 C 16.654879285714284 16.138615 20.15558785714286 19.108912 23.01980357142857 22.673267" />
<path class="stroke" d="M 10.926448928571428 38.118813 C 14.108912142857141 39.90099 17.927864999999997 42.574257 20.473834285714286 46.138615" />
<path class="stroke" d="M 10.608203571428572 85.64356 C 11.321795357142857 87.422676 13.310014285714285 89.896904 15.629600357142856 89.896904 C 17.949189642857142 89.896904 21.110325 76.73267 23.33804892857143 69.60396" />
<path class="stroke" d="M 34.0125652 20.157066 L 58.213612 20.157066" />
<path class="stroke" d="M 36.27737164 34.67153 L 36.1722628 62.70073" />
<path class="stroke" d="M 36.1722628 34.67153 L 55.8277336 34.67153 L 55.8277336 62.70073" />
<path class="stroke" d="M 36.1722628 48.63624 L 55.7226244 48.63624" />
<path class="stroke" d="M 36.1722628 62.9927 L 55.8277336 62.9927" />
<path class="stroke" d="M 33.439415679999996 77.59124 L 58.56058 77.59124" />
<path class="stroke" d="M 46.0668268 8.978102 L 46.0668268 90.72992" />
<path class="stroke" d="M 84.04963407999999 10.145985 C 79.8452542 15.109488 75.85109344 17.153284 71.54160544 17.445253" />
<path class="stroke" d="M 71.54160544 17.445253 L 71.54160544 49.562042 C 71.54160544 58.613136 70.80583852000001 73.50365 68.59853992 84.59853" />
<path class="stroke" d="M 71.54160544 34.37956 L 93.8248156 34.37956" />
<path class="stroke" d="M 82.68321087999999 34.37956 L 82.68321087999999 90.14598" />
</svg>
