<?xml version="1.0" standalone="no"?>
<!DOCTYPE svg PUBLIC "-//W3C//DTD SVG 1.1//EN" "http://www.w3.org/Graphics/SVG/1.1/DTD/svg11.dtd">
<svg xmlns="http://www.w3.org/2000/svg" version="1.1" width="100%" height="100%">
<style type="text/css"><![CDATA[
  .stroke { fill:none; stroke:black; stroke-width:2 }
]]></style>
<path class="stroke" d="M 13.154171785714285 14.059406 C 16.654879285714284 16.138615 20.15558785714286 19.108912 23.01980357142857 22.673267" />
<path class="stroke" d="M 10.926448928571428 38.118813 C 14.108912142857141 39.90099 17.927864999999997 42.574257 20.473834285714286 46.138615" />
<path class="stroke" d="M 10.608203571428572 85.64356 C 11.321795357142857 87.422676 13.310014285714285 89.896904 15.629600357142856 89.896904 C 17.949189642857142 89.896904 21.110325 76.73267 23.33804892857143 69.60396" />
<path class="stroke" d="M 57.92262542 12.81605692 C 52.9532827 21.487591000000002 44.5270063 30.5445235 35.88466988 36.325546" />
<path class="stroke" d="M 55.32992442 17.82627664 L 74.5591256 17.82627664 C 66.7810226 33.62773462 50.144523899999996 51.9343018 33.5080289 61.9547386" />
<path class="stroke" d="M 47.11970804 27.26861284 C 55.6 41.25806524 73.04671138 54.4394143 91.4116784 61.9547386" />
<path class="stroke" d="M 48.256714969 58.98175125 L 48.256714969 86.3102175" />
<path class="stroke" d="M 48.256714969 58.98175125 L 74.1621156 58.98175125 L 74.1621156 86.04744450000001" />
<path class="stroke" d="M 48.256714969 84.2080272 L 74.1621156 84.2080272" />
</svg>
