<?xml version="1.0" standalone="no"?>
<!DOCTYPE svg PUBLIC "-//W3C//DTD SVG 1.1//EN" "http://www.w3.org/Graphics/SVG/1.1/DTD/svg11.dtd">
<svg xmlns="http://www.w3.org/2000/svg" version="1.1" width="100%" height="100%">
<style type="text/css"><![CDATA[
  .stroke { fill:none; stroke:black; stroke-width:2 }
]]></style>
<path class="stroke" d="M 11.313868 17.445253 C 15.401459 18.029196 19.48905 20.364962 22.408756 24.160583" />
<path class="stroke" d="M 9.270073 47.226276 C 13.357662 47.226276 18.321167 46.934303 23.86861 43.138683 C 16.27737 53.357662 14.233576 58.321167 15.109488 60.9489 C 15.69343 63.284668 20.948904 65.62044 22.116787 68.832115 C 23.576641 72.33576 18.129246 80.26506 11.021896 83.722626" />
<path class="stroke" d="M 11.021896 84.014595 C 39.692924 81.65476 40.51095 91.313866 90.43795 90.14598" />
<path class="stroke" d="M 43.932846 7.740900847058823 C 47.20291896 10.159106682352942 49.81897688 13.48413854117647 51.78102088 16.658033505882354" />
<path class="stroke" d="M 78.59561679999999 7.740900847058823 C 77.26143136 10.733429882352942 74.5080256 14.239826635294119 71.72846559999999 16.8091704" />
<path class="stroke" d="M 31.7476359 20.990915616 L 92.9148385 20.990915616" />
<path class="stroke" d="M 63.10411 20.990915616 C 55.15456 30.0555728 43.89275 36.049934799999996 34.17668 39.6319528" />
<path class="stroke" d="M 54.2713 29.105234399999997 C 64.28179 36.41547096000001 68.10932 68.06862216 61.779149999999994 78.66840608 C 59.49735999999999 82.03108848 54.56572 79.69181 52.50478 79.10700776" />
<path class="stroke" d="M 61.11674 39.851218880000005 C 53.01998 47.52685256 44.702439999999996 51.693881360000006 33.293378 56.51849984000001" />
<path class="stroke" d="M 63.766589999999994 52.57094568000001 C 57.95162 60.24678792 44.187169999999995 68.14168768 33.072556 72.74710960000002" />
<path class="stroke" d="M 85.40692899999999 30.421074200000003 C 80.916919 36.12303508 75.543649 40.94772308 70.39115899999999 44.67601116" />
<path class="stroke" d="M 63.987356 49.939293888 C 72.378536 58.8577386936 80.548936 67.77624884800001 90.706636 73.405074688" />
</svg>
