<?xml version="1.0" standalone="no"?>
<!DOCTYPE svg PUBLIC "-//W3C//DTD SVG 1.1//EN" "http://www.w3.org/Graphics/SVG/1.1/DTD/svg11.dtd">
<svg xmlns="http://www.w3.org/2000/svg" version="1.1" width="100%" height="100%">
<style type="text/css"><![CDATA[
  .stroke { fill:none; stroke:black; stroke-width:2 }
]]></style>
<path class="stroke" d="M 49.999996 5.0 C 52.376232 7.6732674 52.793365 10.037088 52.918915 12.702702" />
<path class="stroke" d="M 12.702702 13.675674 L 92.81081 13.351351" />
<path class="stroke" d="M 12.378378 13.999998 L 12.702702 39.62162 C 12.702702 61.30479 14.560343 79.686905 6.5405407 92.162155" />
<path class="stroke" d="M 35.88031143970588 26.40072959 C 32.40285370441177 39.17153141 25.18044127352941 50.996349620000004 19.028014851470587 57.6182438" />
<path class="stroke" d="M 30.53037498235294 41.772990590000006 L 30.53037498235294 90.2547395" />
<path class="stroke" d="M 50.121457031999995 41.5364957 L 88.16408267999999 41.5364957" />
<path class="stroke" d="M 78.68289132 24.50875913 L 78.68289132 85.76130500000001 C 78.68289132 87.88977440000001 76.93838808 90.0182438 74.131966032 90.0182438 L 69.14276772 90.0182438" />
<path class="stroke" d="M 51.680581104 49.8138695 C 56.35795332 51.70583834 59.16437964 54.78029054 60.72349944 58.32773576" />
</svg>
