<?xml version="1.0" standalone="no"?>
<!DOCTYPE svg PUBLIC "-//W3C//DTD SVG 1.1//EN" "http://www.w3.org/Graphics/SVG/1.1/DTD/svg11.dtd">
<svg xmlns="http://www.w3.org/2000/svg" version="1.1" width="100%" height="100%">
<style type="text/css"><![CDATA[
  .stroke { fill:none; stroke:black; stroke-width:2 }
]]></style>
<path class="stroke" d="M 50.312496 7.2384425 L 50.312496 17.214110833333333" />
<path class="stroke" d="M 14.233576 17.214110833333333 L 14.233576 29.379561666666667" />
<path class="stroke" d="M 14.233576 17.214110833333333 L 86.05839 17.214110833333333 L 86.05839 29.379561666666667" />
<path class="stroke" d="M 38.46715 25.486615833333335 C 35.547443 34.002430833333335 27.956203 42.03162833333333 19.197079 44.9513375" />
<path class="stroke" d="M 60.40019 24.026762500000004 L 60.40019 35.06084166666667 C 60.65693 39.35523 63.23729 41.713925 67.96229 41.62625833333333 L 85.93139 41.62634166666667" />
<path class="stroke" d="M 32.919704 51.00802864 L 32.919704 59.36423336 C 32.919704 71.58905065 25.036495 81.95693449999999 11.89781 87.991965" />
<path class="stroke" d="M 13.065693 60.13795598 L 57.73722 57.50729833 L 57.73722 80.56423230000001 C 57.73722 84.43284539999999 61.824814 86.5992681 67.66423 86.7540122 L 83.722626 86.7540122 C 86.9343 86.5992681 89.85401 85.51605409999999 90.14598 83.34963458000001 L 90.14598 80.8737205" />
</svg>
