<?xml version="1.0" standalone="no"?>
<!DOCTYPE svg PUBLIC "-//W3C//DTD SVG 1.1//EN" "http://www.w3.org/Graphics/SVG/1.1/DTD/svg11.dtd">
<svg xmlns="http://www.w3.org/2000/svg" version="1.1" width="100%" height="100%">
<style type="text/css"><![CDATA[
  .stroke { fill:none; stroke:black; stroke-width:2 }
]]></style>
<path class="stroke" d="M 8.003300000000001 33.069305 L 25.825083333333335 30.9901" />
<path class="stroke" d="M 19.389438333333334 9.60396 L 19.389438333333334 84.15842 C 19.389438333333334 87.42574 17.161715833333336 90.09901 14.191419166666668 90.09901" />
<path class="stroke" d="M 8.498349166666667 63.36634 L 24.09241 46.435642" />
<path class="stroke" d="M 51.419520000000006 7.41325 L 51.419520000000006 60.0947 C 51.4196 83.8591 37.287040000000005 93.428 25.678232 93.5331" />
<path class="stroke" d="M 30.220824 23.81703 C 35.268176 30.02103 38.044176 35.27863 40.820176000000004 44.32173" />
<path class="stroke" d="M 27.444792 68.612 C 33.501552000000004 63.775 38.801232 60.8307 46.119872 57.8864" />
<path class="stroke" d="M 67.31864 7.09779 L 67.31864 88.1703 C 67.06624 92.1045 69.0256 94.4052 71.35640000000001 94.4795 L 91.29335999999999 94.4795 C 94.1536 94.5843 96.25624 92.1662 96.08832 88.1703 L 96.08832 82.1766" />
<path class="stroke" d="M 89.27440800000001 26.34072 C 85.152488 33.91162 81.787608 38.64352 76.65616800000001 43.05992" />
<path class="stroke" d="M 72.36592000000002 55.3628 C 78.33856 58.307 83.55416 60.9359 88.76968000000001 67.0347" />
</svg>
