<?xml version="1.0" standalone="no"?>
<!DOCTYPE svg PUBLIC "-//W3C//DTD SVG 1.1//EN" "http://www.w3.org/Graphics/SVG/1.1/DTD/svg11.dtd">
<svg xmlns="http://www.w3.org/2000/svg" version="1.1" width="100%" height="100%">
<style type="text/css"><![CDATA[
  .stroke { fill:none; stroke:black; stroke-width:2 }
]]></style>
<path class="stroke" d="M 27.918 5.5205 C 21.8192 17.8233 14.4585 30.7571 4.88959 40.5363" />
<path class="stroke" d="M 27.918 5.83596 C 34.0168 11.8296 38.2229 18.4543 42.7445 25.0789" />
<path class="stroke" d="M 12.1451 33.59624 L 40.2208 33.59624" />
<path class="stroke" d="M 6.782335 51.57724 L 44.006287 51.57724" />
<path class="stroke" d="M 27.287043 33.9117 L 27.287043 88.1703" />
<path class="stroke" d="M 6.46688 61.672 C 10.7781 65.878 14.143 70.3996 17.5079 75.2366" />
<path class="stroke" d="M 43.06 61.6719 C 40.7466 67.4553 37.4868 72.2923 33.2807 77.1294" />
<path class="stroke" d="M 8.04416 94.4795 L 42.7445 83.7539" />
<path class="stroke" d="M 54.757424199999996 9.90099 L 79.5891113 9.90099 L 79.5891113 39.009903" />
<path class="stroke" d="M 57.297031649999994 24.455444 L 79.5891113 24.455444" />
<path class="stroke" d="M 47.13861609999999 39.009903 L 89.7475278 39.009903" />
<path class="stroke" d="M 69.1485125 42.27723 L 69.1485125 85.04951 C 68.866334 87.72277 68.0197985 89.80198 65.48020149999999 89.80198 L 63.787127649999995 89.80198" />
<path class="stroke" d="M 50.80693185 50.0 C 55.039603650000004 52.673267 57.8613839 55.049507 60.40099135 59.80198" />
<path class="stroke" d="M 48.2673282 80.0 C 54.475249500000004 78.21782 59.55445585 74.653465 63.222775399999996 68.41584" />
<path class="stroke" d="M 86.64357 50.89109 C 85.5148465 55.940598 83.2574242 59.207924 79.5891113 62.47525" />
<path class="stroke" d="M 74.50990399999999 64.55446 C 79.5891113 74.0594 83.067865 78.6014 90.876238 83.564354" />
</svg>
