<?xml version="1.0" standalone="no"?>
<!DOCTYPE svg PUBLIC "-//W3C//DTD SVG 1.1//EN" "http://www.w3.org/Graphics/SVG/1.1/DTD/svg11.dtd">
<svg xmlns="http://www.w3.org/2000/svg" version="1.1" width="100%" height="100%">
<style type="text/css"><![CDATA[
  .stroke { fill:none; stroke:black; stroke-width:2 }
]]></style>
<path class="stroke" d="M 20.770715441176474 11.605839 C 17.979818382352942 27.372261 12.183339705882354 41.970802 7.245597794117647 50.14598" />
<path class="stroke" d="M 16.477026470588235 30.583939 L 16.477026470588235 90.43795" />
<path class="stroke" d="M 37.53936 7.41324 L 44.60568000000001 17.5079" />
<path class="stroke" d="M 60.2524 6.78233 C 55.205040000000004 34.9632 44.35336 60.6204 26.182968000000002 79.0221" />
<path class="stroke" d="M 31.482640000000004 28.8644 L 80.44160000000001 28.8644 C 79.68448000000001 35.3839 76.65616 40.9569 72.87064000000001 45.5836" />
<path class="stroke" d="M 48.64344 45.8991 L 86.4984 45.8991 C 85.23656 52.9443 82.71288 57.4659 78.67504 62.3029" />
<path class="stroke" d="M 39.81072 62.6183 L 92.80760000000001 62.6183 L 92.80760000000001 78.3912 C 93.14408 86.1725 90.45216 94.2692 84.22712 94.164 L 80.44160000000001 94.164" />
<path class="stroke" d="M 40.4054776 76.79452 L 32.515068 87.9726" />
<path class="stroke" d="M 51.167224000000004 76.49844 L 54.447944 87.223946" />
<path class="stroke" d="M 65.299704 74.9211 L 69.08514400000001 85.3312" />
<path class="stroke" d="M 78.92740800000001 72.71296 L 82.965328 82.80756" />
</svg>
