<?xml version="1.0" standalone="no"?>
<!DOCTYPE svg PUBLIC "-//W3C//DTD SVG 1.1//EN" "http://www.w3.org/Graphics/SVG/1.1/DTD/svg11.dtd">
<svg xmlns="http://www.w3.org/2000/svg" version="1.1" width="100%" height="100%">
<style type="text/css"><![CDATA[
  .stroke { fill:none; stroke:black; stroke-width:2 }
]]></style>
<path class="stroke" d="M 20.29703 15.745545120000001 C 27.128712 17.563366170000002 32.17822 20.593069110000002 35.742573 24.22871223" />
<path class="stroke" d="M 78.81188 15.139603919999999 C 75.84158 19.07821866 72.27723 22.25940537 64.85149 24.38019804" />
<path class="stroke" d="M 15.247524 29.07623724 L 85.04951 29.07623724" />
<path class="stroke" d="M 50.0 10.898019600000001 L 50.0 49.2237597" />
<path class="stroke" d="M 44.598537 29.34087522 C 37.82178 38.01386178 26.237625 46.04257554 11.386139 51.7990098" />
<path class="stroke" d="M 55.985397 29.4897789 C 62.772278 38.01386178 74.95049 46.1940588 88.31683 51.7990098" />
<path class="stroke" d="M 45.841583 54.6 C 43.762375 60.897029110000005 36.930695 68.76831722 29.504951 74.43564379 C 45.766422 76.30291700000001 68.832115 82.3379528 80.51095 89.92043702000001" />
<path class="stroke" d="M 68.71287 60.2673271 C 61.287132 78.21386380000001 45.841583 84.98317220000001 22.992699 89.4562026" />
<path class="stroke" d="M 9.854013 62.84014479 L 89.85401 62.84014479" />
</svg>
