<?xml version="1.0" standalone="no"?>
<!DOCTYPE svg PUBLIC "-//W3C//DTD SVG 1.1//EN" "http://www.w3.org/Graphics/SVG/1.1/DTD/svg11.dtd">
<svg xmlns="http://www.w3.org/2000/svg" version="1.1" width="100%" height="100%">
<style type="text/css"><![CDATA[
  .stroke { fill:none; stroke:black; stroke-width:2 }
]]></style>
<path class="stroke" d="M 56.237625 9.306931 C 57.72277 12.574257 58.91089 15.544554 58.91089 19.108912" />
<path class="stroke" d="M 27.956203 19.197079 L 86.9343 19.197079" />
<path class="stroke" d="M 27.956203 19.197079 L 27.956203 36.131386 C 27.956203 56.861313 21.532845 72.62773 6.159601 93.8404" />
<path class="stroke" d="M 47.089054985000004 28.2701165 L 47.089054985000004 34.8284705" />
<path class="stroke" d="M 37.112842310000005 35.062655 L 56.80616167000001 35.062655 L 56.80616167000001 63.6383615" />
<path class="stroke" d="M 37.11282086 50.05321025 L 56.806139505000004 50.05321025" />
<path class="stroke" d="M 37.112842310000005 63.6383615 L 56.80616167000001 63.6383615" />
<path class="stroke" d="M 37.112842310000005 35.062655 L 37.112842310000005 90.5744795 M 32.4067926045 92.44832675 C 39.64709689 89.40912574999999 48.453738305 87.301985 55.850412590000005 86.82255275" />
<path class="stroke" d="M 47.07802468 76.71386075 C 52.307629775 80.18824099999999 56.214464850000006 85.05547700000001 57.77355953000001 91.0487885" />
<path class="stroke" d="M 69.98648349999999 32.10337844 L 85.37566899999999 32.10337844 C 83.4783775 37.6493241125 81.8263245 45.248684525 79.4729709 52.900673749999996" />
<path class="stroke" d="M 79.68378150000001 53.593917725 C 82.09810900000001 56.1798645125 86.371287 62.586633875000004 86.371287 68.93564584999999 L 86.371287 71.6868798125 C 86.371287 74.226489875 85.1450334 81.55472693749999 82.6351325 81.55472693749999 L 76.31080800000001 80.861486525" />
<path class="stroke" d="M 70.19729475 33.027702125 L 69.98648349999999 92.64661699999999" />
</svg>
