<?xml version="1.0" standalone="no"?>
<!DOCTYPE svg PUBLIC "-//W3C//DTD SVG 1.1//EN" "http://www.w3.org/Graphics/SVG/1.1/DTD/svg11.dtd">
<svg xmlns="http://www.w3.org/2000/svg" version="1.1" width="100%" height="100%">
<style type="text/css"><![CDATA[
  .stroke { fill:none; stroke:black; stroke-width:2 }
]]></style>
<path class="stroke" d="M 6.0948895 19.6167875 L 43.905105 19.6167875" />
<path class="stroke" d="M 17.335765 10.49269875 L 17.335765 29.470801249999997" />
<path class="stroke" d="M 32.66423 10.49269875 L 32.66423 29.470801249999997" />
<path class="stroke" d="M 15.37855 29.8501525 C 13.90645 41.8375 10.06835 53.588274999999996 3.391165 61.0804" />
<path class="stroke" d="M 13.95895 41.916399999999996 L 45.03155 42.152950000000004 L 44.8738 68.651425 C 44.55835 80.638825 41.2461 94.518925 35.56785 94.67665 L 33.2019 94.67665" />
<path class="stroke" d="M 17.08029175 56.5711675 L 17.08029175 74.790145" />
<path class="stroke" d="M 17.08029175 56.5711675 L 32.9927 56.5711675 L 32.9927 74.614963" />
<path class="stroke" d="M 17.08029175 73.3886848 L 32.9927 73.3886848" />
<path class="stroke" d="M 68.168318 9.90099 C 66.6831685 22.673267 63.118812500000004 37.82178 57.623762 46.435642" />
<path class="stroke" d="M 62.970297 35.742573 L 88.069305 35.742573" />
<path class="stroke" d="M 76.48515 36.039604 C 74.70297 61.287132 67.1287135 82.376236 55.247525 89.80198" />
<path class="stroke" d="M 62.970297 43.465347 C 66.237623 61.58416 82.12871 90.09901 90.89108999999999 90.09901" />
</svg>
