<?xml version="1.0" standalone="no"?>
<!DOCTYPE svg PUBLIC "-//W3C//DTD SVG 1.1//EN" "http://www.w3.org/Graphics/SVG/1.1/DTD/svg11.dtd">
<svg xmlns="http://www.w3.org/2000/svg" version="1.1" width="100%" height="100%">
<style type="text/css"><![CDATA[
  .stroke { fill:none; stroke:black; stroke-width:2 }
]]></style>
<path class="stroke" d="M 18.431386619999998 9.854013 L 18.4006716 55.63759 C 14.498657369999998 80.20134 14.498657369999998 79.39597 10.137583379999999 89.865776" />
<path class="stroke" d="M 18.431386619999998 9.854013 L 41.730657599999994 9.854013 L 41.730657599999994 86.05839 C 41.730657599999994 88.39416 41.064960299999996 90.43795 39.40072788 90.43795 L 37.570073699999995 90.43795" />
<path class="stroke" d="M 18.431386619999998 31.862577 L 41.730657599999994 31.862577" />
<path class="stroke" d="M 18.431386619999998 55.110336 L 41.730657599999994 55.110336" />
<path class="stroke" d="M 60.078101939999996 9.854013 L 60.046309199999996 55.63759 C 56.00738219 80.20134 56.00738219 79.39597 51.49328806 89.865776" />
<path class="stroke" d="M 60.078101939999996 9.854013 L 84.1948912 9.854013 L 84.1948912 86.05839 C 84.1948912 88.39416 83.5058361 90.43795 81.78320955999999 90.43795 L 79.8883219 90.43795" />
<path class="stroke" d="M 60.078101939999996 31.862577 L 84.1948912 31.862577" />
<path class="stroke" d="M 60.078101939999996 55.110336 L 84.1948912 55.110336" />
</svg>
