<?xml version="1.0" standalone="no"?>
<!DOCTYPE svg PUBLIC "-//W3C//DTD SVG 1.1//EN" "http://www.w3.org/Graphics/SVG/1.1/DTD/svg11.dtd">
<svg xmlns="http://www.w3.org/2000/svg" version="1.1" width="100%" height="100%">
<style type="text/css"><![CDATA[
  .stroke { fill:none; stroke:black; stroke-width:2 }
]]></style>
<path class="stroke" d="M 20.770715441176474 11.605839 C 17.979818382352942 27.372261 12.183339705882354 41.970802 7.245597794117647 50.14598" />
<path class="stroke" d="M 16.477026470588235 30.583939 L 16.477026470588235 90.43795" />
<path class="stroke" d="M 56.5851355 6.78233 L 56.5851355 20.66248" />
<path class="stroke" d="M 67.4684725 6.78234 L 67.4684725 20.97789" />
<path class="stroke" d="M 36.238192749999996 8.35962 C 39.629317 12.03994 41.6009185 15.72034 43.57251775 20.34704" />
<path class="stroke" d="M 87.81547 8.99053 C 85.76497 13.40694 82.7681905 17.50784 79.53464500000001 20.66244" />
<path class="stroke" d="M 29.61356275 21.29334 L 95.62304125 21.29334" />
<path class="stroke" d="M 44.755517499999996 27.28695 C 49.1718925 30.5467 51.4589425 33.8063 53.509442500000006 39.2743" />
<path class="stroke" d="M 80.717695 26.97163 C 76.53787 30.7572 74.250673 33.9118 71.96369725 39.2745" />
<path class="stroke" d="M 31.2697165 39.5899 L 94.6766275 39.5899" />
<path class="stroke" d="M 38.6041 54.731823 L 87.105625 54.731823" />
<path class="stroke" d="M 31.03312375 68.6121 L 94.44003699999999 68.6121" />
<path class="stroke" d="M 62.612221 40.274315 C 62.83666 84.26434 42.6262 90.9044 30.3233425 91.0095" />
<path class="stroke" d="M 62.9731 67.9811 C 69.36115000000001 81.8612 79.7713 90.694 94.203475 91.6404" />
</svg>
