<?xml version="1.0" standalone="no"?>
<!DOCTYPE svg PUBLIC "-//W3C//DTD SVG 1.1//EN" "http://www.w3.org/Graphics/SVG/1.1/DTD/svg11.dtd">
<svg xmlns="http://www.w3.org/2000/svg" version="1.1" width="100%" height="100%">
<style type="text/css"><![CDATA[
  .stroke { fill:none; stroke:black; stroke-width:2 }
]]></style>
<path class="stroke" d="M 11.313868 17.445253 C 15.401459 18.029196 19.48905 20.364962 22.408756 24.160583" />
<path class="stroke" d="M 9.270073 47.226276 C 13.357662 47.226276 18.321167 46.934303 23.86861 43.138683 C 16.27737 53.357662 14.233576 58.321167 15.109488 60.9489 C 15.69343 63.284668 20.948904 65.62044 22.116787 68.832115 C 23.576641 72.33576 18.129246 80.26506 11.021896 83.722626" />
<path class="stroke" d="M 11.021896 84.014595 C 39.692924 81.65476 40.51095 91.313866 90.43795 90.14598" />
<path class="stroke" d="M 36.100728419999996 10.74510845 L 36.100728419999996 22.891094900000002" />
<path class="stroke" d="M 36.100728419999996 10.74510845 L 90.11532716 10.74510845 L 90.11532716 22.891094900000002" />
<path class="stroke" d="M 53.1956142 10.74510845 L 53.1956142 22.891094900000002" />
<path class="stroke" d="M 72.80444944 10.74510845 L 72.80444944 22.891094900000002" />
<path class="stroke" d="M 36.100728419999996 22.896804500000002 L 90.2554432 22.896804500000002" />
<path class="stroke" d="M 33.07591108 31.64 L 92.924083 31.64" />
<path class="stroke" d="M 46.590364506 40.055459585 L 46.590364506 52.845181790000005" />
<path class="stroke" d="M 46.590364506 40.055459585 L 79.56087439999999 40.055459585 L 79.56087439999999 52.722204026" />
<path class="stroke" d="M 46.590364506 51.861356729600004 L 79.56087439999999 51.861356729600004" />
<path class="stroke" d="M 63.232656 55.14186576920001 C 55.39835 66.4943524862 45.702278 71.6401674176 31.8176136 75.67187612720001" />
<path class="stroke" d="M 63.4653786 54.98270005964 L 63.4653786 75.51270717440002" />
<path class="stroke" d="M 90.69183600000001 56.5741268852 C 87.43391199999999 59.65099793960001 83.71067599999999 61.61381373740001 78.35847799999999 63.09918290840001" />
<path class="stroke" d="M 67.65408199999999 60.871148379679994 C 74.014678 67.66144861640001 82.935008 72.22368884180001 94.182416 75.51270717440002" />
</svg>
