<?xml version="1.0" standalone="no"?>
<!DOCTYPE svg PUBLIC "-//W3C//DTD SVG 1.1//EN" "http://www.w3.org/Graphics/SVG/1.1/DTD/svg11.dtd">
<svg xmlns="http://www.w3.org/2000/svg" version="1.1" width="100%" height="100%">
<style type="text/css"><![CDATA[
  .stroke { fill:none; stroke:black; stroke-width:2 }
]]></style>
<path class="stroke" d="M 13.886999999999999 8.990537 L 13.886999999999999 74.60566" />
<path class="stroke" d="M 13.886999999999999 8.990537 L 38.91786956521739 8.990537 L 38.91786956521739 74.60566" />
<path class="stroke" d="M 13.886999999999999 31.072573 L 38.57493478260869 31.072573" />
<path class="stroke" d="M 13.886999999999999 53.1546 L 38.57493478260869 53.1546" />
<path class="stroke" d="M 13.886999999999999 74.60566 L 38.91786956521739 74.60566" />
<path class="stroke" d="M 20.05891304347826 82.1766 C 17.773043478260867 87.4343 13.429782608695652 91.7455 7.02920652173913 95.1104" />
<path class="stroke" d="M 32.06011956521739 82.49213 C 35.374684782608696 85.43633 37.66055434782608 88.38063 38.91783695652173 92.58673" />
<path class="stroke" d="M 68.168318 9.90099 C 66.6831685 22.673267 63.118812500000004 37.82178 57.623762 46.435642" />
<path class="stroke" d="M 62.970297 35.742573 L 88.069305 35.742573" />
<path class="stroke" d="M 76.48515 36.039604 C 74.70297 61.287132 67.1287135 82.376236 55.247525 89.80198" />
<path class="stroke" d="M 62.970297 43.465347 C 66.237623 61.58416 82.12871 90.09901 90.89108999999999 90.09901" />
</svg>
