<?xml version="1.0" standalone="no"?>
<!DOCTYPE svg PUBLIC "-//W3C//DTD SVG 1.1//EN" "http://www.w3.org/Graphics/SVG/1.1/DTD/svg11.dtd">
<svg xmlns="http://www.w3.org/2000/svg" version="1.1" width="100%" height="100%">
<style type="text/css"><![CDATA[
  .stroke { fill:none; stroke:black; stroke-width:2 }
]]></style>
<path class="stroke" d="M 9.1605835 20.107488432 L 40.8394125 20.107488432" />
<path class="stroke" d="M 25.0 8.5510506267 L 25.0 35.172128214" />
<path class="stroke" d="M 4.9270065 35.172128214 L 44.927005 35.172128214" />
<path class="stroke" d="M 18.503649 38.701138297199996 L 18.503649 44.5825391784 C 18.503649 49.768291038 14.708029 54.890801762399995 5.218978 56.21885997" />
<path class="stroke" d="M 27.116787 38.637897811799995 L 27.116787 53.562743987999994 C 27.116787 55.14376586999999 29.014599 56.092378565999994 31.0583915 56.092378565999994 L 42.44525 56.092378565999994 C 44.051095 56.155619267999995 45.218975 55.649691485999995 45.218975 54.95404159799999 L 45.218975 53.75246696039999" />
<path class="stroke" d="M 9.1605835 73.9766416 L 40.8394125 73.9766416" />
<path class="stroke" d="M 25.0 60.24233521 L 25.0 91.8802882" />
<path class="stroke" d="M 4.9270065 91.8802882 L 44.927005 91.8802882" />
<path class="stroke" d="M 71.131385 10.145985 L 69.8175165 42.26277 C 68.357662 66.496346 63.83235 86.2737 54.781021 90.72992" />
<path class="stroke" d="M 56.386860999999996 39.635033 L 80.036495 31.167881 C 79.1605835 44.890507 78.4306565 65.03649 79.89051 83.43065 C 80.47445 86.642334 81.204376 90.14598 84.85401 90.14598 L 92.59124 89.85401 C 94.051095 90.14598 94.92700500000001 87.51824 94.92700500000001 84.59853 L 94.92700500000001 79.63503" />
<path class="stroke" d="M 63.248175 48.68613 C 66.3138675 49.562042 69.525547 52.189777 72.59124 58.321167" />
</svg>
