<?xml version="1.0" standalone="no"?>
<!DOCTYPE svg PUBLIC "-//W3C//DTD SVG 1.1//EN" "http://www.w3.org/Graphics/SVG/1.1/DTD/svg11.dtd">
<svg xmlns="http://www.w3.org/2000/svg" version="1.1" width="100%" height="100%">
<style type="text/css"><![CDATA[
  .stroke { fill:none; stroke:black; stroke-width:2 }
]]></style>
<path class="stroke" d="M 12.372261 16.605839 L 41.715325 15.437956 C 40.9854 32.08029 38.79562 40.9854 38.065693 42.88321 C 37.1897775 44.489048 35.437955 44.927005 33.9781 45.07299 L 32.518245 44.927005" />
<path class="stroke" d="M 26.824815 5.218978 C 25.07299 21.5693415 19.37956 38.2116775 10.182481 42.88321" />
<path class="stroke" d="M 59.1605835 8.8686125 L 59.1605835 39.233575" />
<path class="stroke" d="M 59.1605835 8.8686125 L 90.9854 8.8686125 L 90.9854 38.941605" />
<path class="stroke" d="M 59.1605835 36.897808 L 90.9854 36.897808" />
<path class="stroke" d="M 20.07299 61.934305 L 80.21897 61.934305" />
<path class="stroke" d="M 50.14598 54.489051 L 50.14598 95.36496" />
<path class="stroke" d="M 50.14598 64.4160575 C 40.51095 75.656933 28.832115 81.642334 13.649633 84.70802499999999" />
<path class="stroke" d="M 50.14598 64.4160575 C 59.197075 75.8029175 71.45985 81.7883185 86.642334 84.4160575" />
</svg>
