<?xml version="1.0" standalone="no"?>
<!DOCTYPE svg PUBLIC "-//W3C//DTD SVG 1.1//EN" "http://www.w3.org/Graphics/SVG/1.1/DTD/svg11.dtd">
<svg xmlns="http://www.w3.org/2000/svg" version="1.1" width="100%" height="100%">
<style type="text/css"><![CDATA[
  .stroke { fill:none; stroke:black; stroke-width:2 }
]]></style>
<path class="stroke" d="M 5.44165 4.479480000000001 L 5.356164 38.0" />
<path class="stroke" d="M 5.44165 4.479480000000001 L 45.03155 4.479480000000001" />
<path class="stroke" d="M 23.1072635 4.47952 L 23.1072635 14.57412" />
<path class="stroke" d="M 5.44165 15.078844000000002 L 38.2492 15.078844000000002 L 38.2492 25.930604000000002" />
<path class="stroke" d="M 5.44165 25.930604000000002 L 38.2492 25.930604000000002" />
<path class="stroke" d="M 23.264992 26.0568 L 23.264992 36.2776" />
<path class="stroke" d="M 5.44165 36.403800000000004 L 45.347 36.403800000000004" />
<path class="stroke" d="M 61.9306925 6.0990096000000005 L 86.732675 6.0990096000000005 C 81.0891075 21.663366800000002 71.584158 29.267328 54.950495000000004 35.920792" />
<path class="stroke" d="M 61.3366335 9.6633668 C 63.5483855 17.0322572 71.2903215 23.0967744 73.870966 25.806452000000004 C 78.548385 29.935484000000002 86.93548200000001 33.032256000000004 94.90099000000001 35.920792" />
<path class="stroke" d="M 27.080292 45.9124078 L 27.080292 85.15328199999999" />
<path class="stroke" d="M 27.372261 45.9124078 L 72.9197 45.9124078 L 72.9197 85.15328199999999" />
<path class="stroke" d="M 27.382198 59.306932 L 72.871284 59.306932" />
<path class="stroke" d="M 27.382198 72.49505020000001 L 72.871284 72.49505020000001" />
<path class="stroke" d="M 27.372261 84.9781 L 72.62773 84.9781" />
<path class="stroke" d="M 33.211678 89.18248 C 30.875912 92.16058 27.080292 93.737224 22.70073 94.437952" />
<path class="stroke" d="M 67.9562 89.357662 C 72.33576 90.05839 75.54744 91.63503399999999 78.17518 94.437952" />
</svg>
