<?xml version="1.0" standalone="no"?>
<!DOCTYPE svg PUBLIC "-//W3C//DTD SVG 1.1//EN" "http://www.w3.org/Graphics/SVG/1.1/DTD/svg11.dtd">
<svg xmlns="http://www.w3.org/2000/svg" version="1.1" width="100%" height="100%">
<style type="text/css"><![CDATA[
  .stroke { fill:none; stroke:black; stroke-width:2 }
]]></style>
<path class="stroke" d="M 12.6678825 10.145985 L 12.6678825 90.43795" />
<path class="stroke" d="M 12.6678825 10.145985 L 52.33211749999999 10.145985 L 52.33211749999999 86.05839 C 52.33211749999999 88.68613 51.76276949999999 90.14598 50.05473849999999 90.14598 L 48.156930249999995 90.14598" />
<path class="stroke" d="M 22.905778187499998 20.943137848739497 C 24.740328047499997 25.18284937815126 26.20796768416666 31.012450689075628 27.30869772583333 36.57707173109244" />
<path class="stroke" d="M 42.35200525833332 20.943137848739497 C 41.60351134333333 26.189779663865544 40.05881793333333 32.33735838655463 38.499451683333334 36.842052" />
<path class="stroke" d="M 20.337408195 39.25714285714286 L 45.74592262499999 39.25714285714286" />
<path class="stroke" d="M 33.14105643333333 45.186217967999994 L 33.14105643333333 77.379153024" />
<path class="stroke" d="M 21.98850294333333 58.610800704 L 21.98850294333333 78.812844744 M 21.98850294333333 77.379153024 L 44.00309875 77.379153024" />
<path class="stroke" d="M 44.00309875 58.480465296 L 44.00309875 78.94317970559999" />
<path class="stroke" d="M 72.41321 12.1451 L 72.41321 68.612" />
<path class="stroke" d="M 89.41635000000001 6.78233 L 89.41635000000001 84.0694 C 89.53207 89.6425 85.83068 92.3765 81.43530000000001 92.2713 L 77.61830000000002 92.2713" />
</svg>
