<?xml version="1.0" standalone="no"?>
<!DOCTYPE svg PUBLIC "-//W3C//DTD SVG 1.1//EN" "http://www.w3.org/Graphics/SVG/1.1/DTD/svg11.dtd">
<svg xmlns="http://www.w3.org/2000/svg" version="1.1" width="100%" height="100%">
<style type="text/css"><![CDATA[
  .stroke { fill:none; stroke:black; stroke-width:2 }
]]></style>
<path class="stroke" d="M 13.697958 12.38168 L 44.8020505 12.38168" />
<path class="stroke" d="M 10.882491525 24.36907 L 44.94740475 24.2987" />
<path class="stroke" d="M 29.25 3.23344 L 29.25 24.36915 C 29.316232 35.98701 21.384610000000002 44.45325 11.15063125 46.60885" />
<path class="stroke" d="M 29.25 24.3691 C 36.601947499999994 29.909088 39.51623454999999 33.33766 43.887662999999996 40.350647" />
<path class="stroke" d="M 53.253794639999995 12.38168 L 86.84621453999999 12.38168" />
<path class="stroke" d="M 50.213090847000004 24.36907 L 89.45255883 24.36907" />
<path class="stroke" d="M 70.05 3.23344 L 70.05 24.36915 C 70.2913422 33.938 61.5553788 44.45325 50.50268175 46.60885" />
<path class="stroke" d="M 70.05 24.3691 C 70.1948145 34.04315 76.7105949 43.55945 89.4525267 46.76655" />
<path class="stroke" d="M 27.080292 54.9270065 L 27.080292 87.627735" />
<path class="stroke" d="M 27.372261 54.9270065 L 72.9197 54.9270065 L 72.9197 87.627735" />
<path class="stroke" d="M 27.382198 66.08911 L 72.871284 66.08911" />
<path class="stroke" d="M 27.382198 77.0792085 L 72.871284 77.0792085" />
<path class="stroke" d="M 27.372261 87.48175 L 72.62773 87.48175" />
<path class="stroke" d="M 33.211678 90.9854 C 30.875912 93.46715 21.39527 95.149045 17.015707 95.73298249999999" />
<path class="stroke" d="M 63.82199 91.02094249999999 C 66.335075 92.277485 75.75916 96.047123 84.86911 95.890053" />
</svg>
