<?xml version="1.0" standalone="no"?>
<!DOCTYPE svg PUBLIC "-//W3C//DTD SVG 1.1//EN" "http://www.w3.org/Graphics/SVG/1.1/DTD/svg11.dtd">
<svg xmlns="http://www.w3.org/2000/svg" version="1.1" width="100%" height="100%">
<style type="text/css"><![CDATA[
  .stroke { fill:none; stroke:black; stroke-width:2 }
]]></style>
<path class="stroke" d="M 13.961809821428572 14.059406 C 16.87906607142857 16.138615 19.796323214285717 19.108912 22.183169642857145 22.673267" />
<path class="stroke" d="M 12.105374107142858 38.118813 C 14.757426785714285 39.90099 17.9398875 42.574257 20.06152857142857 46.138615" />
<path class="stroke" d="M 11.840169642857143 85.64356 C 12.434829464285714 87.422676 14.091678571428572 89.896904 16.024666964285714 89.896904 C 17.957658035714285 89.896904 20.5919375 76.73267 22.448374107142858 69.60396" />
<path class="stroke" d="M 33.700322 6.943194 L 33.64219152 58.9" />
<path class="stroke" d="M 33.700322 6.943194 L 60.621454 6.943194" />
<path class="stroke" d="M 45.71293918 6.943256 L 45.71293918 22.589886" />
<path class="stroke" d="M 33.700322 23.372208200000003 L 56.009456 23.372208200000003 L 56.009456 40.192436199999996" />
<path class="stroke" d="M 33.700322 40.192436199999996 L 56.009456 40.192436199999996" />
<path class="stroke" d="M 45.820194560000004 40.38804 L 45.820194560000004 56.23028" />
<path class="stroke" d="M 33.700322 56.42589 L 60.83596 56.42589" />
<path class="stroke" d="M 66.68229686960001 13.518982058285715 C 65.7451086024 24.736860014857147 64.339326596 36.38619235771429 62.464950456000004 44.152416340571435" />
<path class="stroke" d="M 65.1593666256 29.91434170171429 L 94.21219817600002 29.91434170171429" />
<path class="stroke" d="M 68.919764717248 49.6 L 93.1618328848 49.6" />
<path class="stroke" d="M 42.548856 66.391168 L 42.548856 91.627776" />
<path class="stroke" d="M 42.548856 66.391168 L 84.807592 66.391168 L 84.807592 91.526816" />
<path class="stroke" d="M 56.706619200000006 66.492128 L 56.706619200000006 91.627776" />
<path class="stroke" d="M 71.0788952 66.49211424 L 71.0788952 91.7287232" />
<path class="stroke" d="M 34.8264972 91.728704 L 93.173496 91.728704" />
</svg>
