<?xml version="1.0" standalone="no"?>
<!DOCTYPE svg PUBLIC "-//W3C//DTD SVG 1.1//EN" "http://www.w3.org/Graphics/SVG/1.1/DTD/svg11.dtd">
<svg xmlns="http://www.w3.org/2000/svg" version="1.1" width="100%" height="100%">
<style type="text/css"><![CDATA[
  .stroke { fill:none; stroke:black; stroke-width:2 }
]]></style>
<path class="stroke" d="M 18.430655833333333 9.562042 C 21.350365 11.021896 24.27007 14.817516 26.216541666666668 19.48905" />
<path class="stroke" d="M 8.2116775 22.8707 L 35.46228333333334 22.8707" />
<path class="stroke" d="M 13.564475000000002 37.007298 L 30.109488333333335 37.007298" />
<path class="stroke" d="M 13.564475000000002 51.313866 L 30.109488333333335 51.313866" />
<path class="stroke" d="M 12.59124 64.45255 L 12.59124 85.76642" />
<path class="stroke" d="M 12.59124 64.16058 L 31.569341666666666 64.16058 L 31.569341666666666 85.76642" />
<path class="stroke" d="M 12.59124 85.76642 L 31.326033333333335 85.76642" />
<path class="stroke" d="M 58.454260000000005 8.04417 L 58.454260000000005 26.6562 C 58.32808 41.062 51.5773 47.897 43.880128 50.9464" />
<path class="stroke" d="M 58.64356 8.04416 L 79.08519999999999 8.04416 L 79.08519999999999 36.7507 C 78.8959 40.8516 80.41012 43.3753 82.49212 43.3753 L 95.633506 43.3753" />
<path class="stroke" d="M 52.58674 53.15461 L 84.19564 53.15461 C 76.18299999999999 77.23451 61.54576 89.01161 45.015772 94.16401" />
<path class="stroke" d="M 57.12934 53.15461 C 60.094660000000005 75.65721 77.06626 92.16621 95.74132 93.84861" />
</svg>
