<?xml version="1.0" standalone="no"?>
<!DOCTYPE svg PUBLIC "-//W3C//DTD SVG 1.1//EN" "http://www.w3.org/Graphics/SVG/1.1/DTD/svg11.dtd">
<svg xmlns="http://www.w3.org/2000/svg" version="1.1" width="100%" height="100%">
<style type="text/css"><![CDATA[
  .stroke { fill:none; stroke:black; stroke-width:2 }
]]></style>
<path class="stroke" d="M 61.881187 14.3267332 C 47.623764 17.059405599999998 37.524754 17.772278 18.905107 18.7372252" />
<path class="stroke" d="M 18.45428 6.960396 L 18.45428 33.336631999999994 C 18.45428 36.782177600000004 24.455444 38.68316960000001 32.772278 38.68316960000001 L 76.435646 38.68316960000001 C 80.29703 38.68316960000001 82.376236 38.089108 82.376236 36.544556 L 82.376236 35.475248" />
<path class="stroke" d="M 30.29197 48.864962775 C 29.708027 52.7189775 25.620438 57.2153265 22.408756 58.9817516" />
<path class="stroke" d="M 27.66423 55.28832065 L 74.9635 55.28832065" />
<path class="stroke" d="M 17.153284 68.6342362 L 81.9708 68.6342362" />
<path class="stroke" d="M 48.9781 55.77007225 L 48.9781 62.514596850000004 C 49.027023 77.34864300000001 21.532845 89.492698 10.729925 91.7408725" />
<path class="stroke" d="M 49.027023 69.1432425 C 57.153282 80.17882750000001 71.45985 87.726274 89.270065 91.580289" />
</svg>
