<?xml version="1.0" standalone="no"?>
<!DOCTYPE svg PUBLIC "-//W3C//DTD SVG 1.1//EN" "http://www.w3.org/Graphics/SVG/1.1/DTD/svg11.dtd">
<svg xmlns="http://www.w3.org/2000/svg" version="1.1" width="100%" height="100%">
<style type="text/css"><![CDATA[
  .stroke { fill:none; stroke:black; stroke-width:2 }
]]></style>
<path class="stroke" d="M 11.313868 17.445253 C 15.401459 18.029196 19.48905 20.364962 22.408756 24.160583" />
<path class="stroke" d="M 9.270073 47.226276 C 13.357662 47.226276 18.321167 46.934303 23.86861 43.138683 C 16.27737 53.357662 14.233576 58.321167 15.109488 60.9489 C 15.69343 63.284668 20.948904 65.62044 22.116787 68.832115 C 23.576641 72.33576 18.129246 80.26506 11.021896 83.722626" />
<path class="stroke" d="M 11.021896 84.014595 C 39.692924 81.65476 40.51095 91.313866 90.43795 90.14598" />
<path class="stroke" d="M 39.9905416 18.3911294 L 82.7097796 18.3911294 L 82.7097796 44.2586854" />
<path class="stroke" d="M 29.7192454 31.3249566 L 92.7476206 31.3249566" />
<path class="stroke" d="M 39.9905416 44.2586854 L 82.7097796 44.2586854" />
<path class="stroke" d="M 63.33441362 9.3375422 L 63.33441362 74.52359799999999 C 63.33441362 77.9726 61.46687858 80.128216 58.43221036 80.21448 L 54.9306051 80.21448" />
<path class="stroke" d="M 37.6561598 50.984254879999995 C 41.3910878 53.053688879999996 44.6592238 55.89909052 47.227097799999996 59.2619056" />
<path class="stroke" d="M 34.854897199999996 75.041018 C 41.3911692 73.40265799999999 46.9937092 70.212366 52.3627792 64.17667399999999" />
<path class="stroke" d="M 87.1451324 50.9842516 C 84.7328804 54.6919636 82.08730639999999 57.1062076 78.2745304 58.7444036" />
<path class="stroke" d="M 73.37213399999999 64.17651000000001 C 79.51931400000001 66.07341600000001 84.73291 69.005162 90.179828 75.299728" />
</svg>
