<?xml version="1.0" standalone="no"?>
<!DOCTYPE svg PUBLIC "-//W3C//DTD SVG 1.1//EN" "http://www.w3.org/Graphics/SVG/1.1/DTD/svg11.dtd">
<svg xmlns="http://www.w3.org/2000/svg" version="1.1" width="100%" height="100%">
<style type="text/css"><![CDATA[
  .stroke { fill:none; stroke:black; stroke-width:2 }
]]></style>
<path class="stroke" d="M 32.8759096 10.729925 C 27.036496 15.109488 20.029196 18.029196 13.7226272 19.781021" />
<path class="stroke" d="M 8.8175168 41.094887 L 36.145984 37.299267" />
<path class="stroke" d="M 24.0 16.569342 L 24.0 86.642334" />
<path class="stroke" d="M 24.0 44.890507 C 18.6277376 57.153282 14.189779999999999 65.03649 8.116788 68.540146" />
<path class="stroke" d="M 24.0 44.890507 C 28.9051088 48.394157 31.7080264 51.313866 34.043792 56.277367" />
<path class="stroke" d="M 51.84306455 9.854013 C 50.894159450000004 19.781021 44.821167200000005 30.29197 41.2153273 32.627735" />
<path class="stroke" d="M 48.99634925 25.036495 L 48.99634925 90.43795" />
<path class="stroke" d="M 71.58028855 10.145985 C 70.44160295 16.569342 68.3540129 22.116787 65.3175171 25.328465" />
<path class="stroke" d="M 48.99634925 24.76344 L 84.105836 24.76344" />
<path class="stroke" d="M 66.2664235 25.328465 L 66.2664235 90.43795" />
<path class="stroke" d="M 48.99634925 47.79185 L 81.638683 47.79185" />
<path class="stroke" d="M 48.99634925 69.124084 L 81.8284635 69.124084" />
<path class="stroke" d="M 48.99634925 90.43795 L 87.9014564 90.43795" />
</svg>
