<?xml version="1.0" standalone="no"?>
<!DOCTYPE svg PUBLIC "-//W3C//DTD SVG 1.1//EN" "http://www.w3.org/Graphics/SVG/1.1/DTD/svg11.dtd">
<svg xmlns="http://www.w3.org/2000/svg" version="1.1" width="100%" height="100%">
<style type="text/css"><![CDATA[
  .stroke { fill:none; stroke:black; stroke-width:2 }
]]></style>
<path class="stroke" d="M 28.7065685 10.796478235294117 C 32.56058306 13.544439411764706 35.64379418 17.322884705882352 37.95620318 20.929583529411765" />
<path class="stroke" d="M 69.5591198 10.796478235294117 C 67.98668696 14.197079411764706 64.7416016 18.18162117647059 61.4656916 21.10133" />
<path class="stroke" d="M 9.562042 23.5 L 90.43795 23.5" />
<path class="stroke" d="M 25.3649615 23.37591105 C 22.2992685 33.30291825 17.7737215 40.0036493 14.1240865 45.95985175 C 17.627737 50.4270055 21.5693415 55.8868615 25.3649615 62.58758745" />
<path class="stroke" d="M 35.87591 40.7481745 C 27.9926985 61.59488605 18.2116775 77.47810249999999 8.7226265 89.1423295 C 20.4014585 85.66787799999999 31.0583915 84.42700125 41.56934 84.42700125" />
<path class="stroke" d="M 38.64963 75.989047 C 40.6151 79.57670999999999 42.9811 85.833305 43.46715 91.3759085" />
<path class="stroke" d="M 75.36496149999999 23.37591105 C 72.2992685 33.30291825 67.7737215 40.0036493 64.1240865 45.95985175 C 67.627737 50.4270055 71.56934150000001 55.8868615 75.36496149999999 62.58758745" />
<path class="stroke" d="M 85.87591 40.7481745 C 77.9926985 61.59488605 68.21167750000001 77.47810249999999 58.722626500000004 89.1423295 C 70.4014585 85.66787799999999 81.0583915 84.42700125 91.56934 84.42700125" />
<path class="stroke" d="M 88.64963 75.989047 C 90.6151 79.57670999999999 92.9811 85.833305 93.46715 91.3759085" />
</svg>
