<?xml version="1.0" standalone="no"?>
<!DOCTYPE svg PUBLIC "-//W3C//DTD SVG 1.1//EN" "http://www.w3.org/Graphics/SVG/1.1/DTD/svg11.dtd">
<svg xmlns="http://www.w3.org/2000/svg" version="1.1" width="100%" height="100%">
<style type="text/css"><![CDATA[
  .stroke { fill:none; stroke:black; stroke-width:2 }
]]></style>
<path class="stroke" d="M 8.607954255319148 13.7224 C 11.1249 16.98216 12.433691489361703 19.92646 13.44054255319149 23.50156" />
<path class="stroke" d="M 34.884871276595746 13.72239 C 34.0794670212766 17.1924 32.36793510638298 20.347 29.750371276595747 23.1862" />
<path class="stroke" d="M 5.587621276595745 33.91172 L 39.11327234042554 33.91172" />
<path class="stroke" d="M 22.19947659574468 5.8359594 L 22.19947659574468 94.164" />
<path class="stroke" d="M 22.19940957446809 41.798 C 21.091930851063832 54.942 14.245898936170214 66.8245 6.493710638297873 73.343796" />
<path class="stroke" d="M 22.501541489361703 44.32176 C 28.54216914893617 47.37116 32.77063723404256 51.68236 36.09297765957447 57.25546" />
<path class="stroke" d="M 61.764231280000004 7.554744 L 61.764231280000004 15.437956 C 61.764231280000004 26.9708025 57.270802149999994 36.751825 49.7817517 42.44525" />
<path class="stroke" d="M 50.447445009999996 16.167883 L 75.9102154 13.6861305 L 75.9102154 35.437955 C 75.9102154 39.08759 78.24014398 41.131385 81.5686111 41.27737 L 90.72189682 41.27737 C 92.552551 41.131385 94.2167857 40.109485 94.38320859999999 38.065693 L 94.38320859999999 35.729925" />
<path class="stroke" d="M 48.783211449999996 73.5 L 94.2167857 73.5" />
<path class="stroke" d="M 71.5 54.489051 L 71.5 95.36496" />
</svg>
