<?xml version="1.0" standalone="no"?>
<!DOCTYPE svg PUBLIC "-//W3C//DTD SVG 1.1//EN" "http://www.w3.org/Graphics/SVG/1.1/DTD/svg11.dtd">
<svg xmlns="http://www.w3.org/2000/svg" version="1.1" width="100%" height="100%">
<style type="text/css"><![CDATA[
  .stroke { fill:none; stroke:black; stroke-width:2 }
]]></style>
<path class="stroke" d="M 18.430655833333333 9.562042 C 21.350365 11.021896 24.27007 14.817516 26.216541666666668 19.48905" />
<path class="stroke" d="M 8.2116775 22.8707 L 35.46228333333334 22.8707" />
<path class="stroke" d="M 13.564475000000002 37.007298 L 30.109488333333335 37.007298" />
<path class="stroke" d="M 13.564475000000002 51.313866 L 30.109488333333335 51.313866" />
<path class="stroke" d="M 12.59124 64.45255 L 12.59124 85.76642" />
<path class="stroke" d="M 12.59124 64.16058 L 31.569341666666666 64.16058 L 31.569341666666666 85.76642" />
<path class="stroke" d="M 12.59124 85.76642 L 31.326033333333335 85.76642" />
<path class="stroke" d="M 46.241344 24.7634 L 46.241344 73.6593 C 46.175067999999996 83.5436 44.916391 87.7498 41.6703475 92.9022" />
<path class="stroke" d="M 46.440046 24.76342 L 96.32332 24.76342" />
<path class="stroke" d="M 46.440064899999996 45.2681 L 61.5441259 45.2681 L 61.5441259 66.4038 C 61.5441259 74.3954 61.3454239 82.7024 56.575693900000005 82.8076 L 53.793424900000005 82.8076" />
<path class="stroke" d="M 70.686163 5.83596 L 70.686163 24.7634 C 70.752376 71.0304 86.717647 93.0074 94.73338899999999 93.2176 L 94.73338899999999 82.4922" />
<path class="stroke" d="M 90.559891 47.476357 C 84.995227 71.661354 74.660833 87.01366 61.146640000000005 93.21766" />
<path class="stroke" d="M 86.3864623 6.78233 C 88.6388383 9.30599 90.0962173 11.51419 91.55359630000001 15.61519" />
</svg>
