<?xml version="1.0" standalone="no"?>
<!DOCTYPE svg PUBLIC "-//W3C//DTD SVG 1.1//EN" "http://www.w3.org/Graphics/SVG/1.1/DTD/svg11.dtd">
<svg xmlns="http://www.w3.org/2000/svg" version="1.1" width="100%" height="100%">
<style type="text/css"><![CDATA[
  .stroke { fill:none; stroke:black; stroke-width:2 }
]]></style>
<path class="stroke" d="M 10.145985 16.160000000000004 L 89.85401 16.160000000000004" />
<path class="stroke" d="M 50.0 5.513868560000001 L 50.0 28.404377600000004" />
<path class="stroke" d="M 9.854013 30.007298 L 9.854013 38.5912382" />
<path class="stroke" d="M 9.854013 29.6569322 L 90.14598 29.6569322 L 90.14598 38.7664202" />
<path class="stroke" d="M 47.67007184 38.8357663 C 42.764962399999995 44.1496346 36.6335756 48.894159450000004 30.50218796 53.0693428 L 43.127036 61.798249999999996" />
<path class="stroke" d="M 61.64962988 49.84306455 C 54.363212 55.711845 40.903892 64.89524 28.0496324 73.5656888 L 69.00729319999999 70.1496333" />
<path class="stroke" d="M 65.57372264 64.2664235 C 68.7620384 67.1131375 70.96933999999999 69.7700736 71.7051044 73.5656888" />
<path class="stroke" d="M 49.8773684 72.0474435 L 49.86191828 92.9602731" />
<path class="stroke" d="M 26.332845439999996 79.8284635 C 25.10656808 83.0547385 23.14452464 85.9014564 19.95620384 88.368612" />
<path class="stroke" d="M 71.7051044 80.018244 C 74.8934252 82.105836 76.85547199999999 84.572989 78.32700584 88.368612" />
</svg>
