<?xml version="1.0" standalone="no"?>
<!DOCTYPE svg PUBLIC "-//W3C//DTD SVG 1.1//EN" "http://www.w3.org/Graphics/SVG/1.1/DTD/svg11.dtd">
<svg xmlns="http://www.w3.org/2000/svg" version="1.1" width="100%" height="100%">
<style type="text/css"><![CDATA[
  .stroke { fill:none; stroke:black; stroke-width:2 }
]]></style>
<path class="stroke" d="M 50.312496 4.9221409 L 50.312496 11.705595366666666" />
<path class="stroke" d="M 14.233576 11.705595366666666 L 14.233576 19.97810193333333" />
<path class="stroke" d="M 14.233576 11.705595366666666 L 86.05839 11.705595366666666 L 86.05839 19.97810193333333" />
<path class="stroke" d="M 38.46715 17.330898766666667 C 35.547443 23.121652966666666 27.956203 28.581507266666666 19.197079 30.5669095" />
<path class="stroke" d="M 60.40019 16.3381985 L 60.40019 23.841372333333332 C 60.65693 26.7615564 63.23729 28.365469 67.96229 28.305855666666666 L 85.93139 28.305912333333335" />
<path class="stroke" d="M 26.831684 41.94191445333333 C 30.69307 43.969636693333335 32.475246 45.997359786666664 35.445545 49.799338666666664" />
<path class="stroke" d="M 69.90099 41.94191445333333 C 67.52475 45.49042944 65.44554 48.02508288 61.881187 49.54587392" />
<path class="stroke" d="M 17.920792 52.84092416 L 82.376236 52.84092416" />
<path class="stroke" d="M 49.369083 53.09438805333333 L 49.369083 74.63894528" />
<path class="stroke" d="M 22.079208 63.993398613333326 L 77.32674 63.993398613333326" />
<path class="stroke" d="M 10.198019 74.63894528 L 89.207924 74.63894528" />
<path class="stroke" d="M 18.613138 83.2846656 C 18.029196 86.8350336 15.69343 89.8248128 11.89781 91.5065664" />
<path class="stroke" d="M 35.255474 83.8452544 C 38.46715 86.274448 40.218975 88.51678720000001 41.67883 91.6934272" />
<path class="stroke" d="M 59.197075 84.03211519999999 C 62.408752 86.274448 63.868607 88.703648 65.32846 91.88028800000001" />
<path class="stroke" d="M 81.386856 84.03211519999999 C 84.8905 86.274448 86.9343 88.32992 88.68613 91.88028800000001" />
</svg>
