<?xml version="1.0" standalone="no"?>
<!DOCTYPE svg PUBLIC "-//W3C//DTD SVG 1.1//EN" "http://www.w3.org/Graphics/SVG/1.1/DTD/svg11.dtd">
<svg xmlns="http://www.w3.org/2000/svg" version="1.1" width="100%" height="100%">
<style type="text/css"><![CDATA[
  .stroke { fill:none; stroke:black; stroke-width:2 }
]]></style>
<path class="stroke" d="M 10.267693518518518 11.8297 L 42.445910185185184 11.8297" />
<path class="stroke" d="M 9.71763888888889 30.09901 L 9.71763888888889 89.80198" />
<path class="stroke" d="M 9.71763888888889 30.1262 L 43.546018518518515 30.1262 L 43.546018518518515 89.80198" />
<path class="stroke" d="M 20.99376574074074 11.683168 L 20.99376574074074 40.79208 C 20.99376574074074 47.326733 20.718737037037037 54.455444 14.66813425925926 58.61386" />
<path class="stroke" d="M 31.444811111111115 11.980198 L 31.444811111111115 42.574257 C 31.444811111111115 48.811882 31.444811111111115 53.861385 35.84525 53.861385 L 38.320499999999996 53.861385" />
<path class="stroke" d="M 14.393105555555556 71.9802 L 39.145583333333335 71.9802" />
<path class="stroke" d="M 9.71763888888889 89.80198 L 43.546018518518515 89.80198" />
<path class="stroke" d="M 64.90099000000001 22.22630907142857 L 80.346535 22.22630907142857" />
<path class="stroke" d="M 72.772278 11.193776428571429 L 72.772278 36.84441442857143" />
<path class="stroke" d="M 57.178218 37.00446857142857 L 92.82177999999999 37.00446857142857" />
<path class="stroke" d="M 86.138615 16.98585678571429 C 78.7128715 39.87836 67.574257 54.22065178571429 55.6930695 60.84017285714286" />
<path class="stroke" d="M 64.26459787499999 50.82846637 L 82.65875812499999 50.82846637 C 80.57846625 55.97883138 77.835649875 59.785758 72.62986275 61.689261" />
<path class="stroke" d="M 72.511935 61.689261 C 74.5166475 67.98453599999999 74.228101875 85.73649610000001 72.69525375 88.59780699999999 C 72.03832125 89.74233185 71.381385 90.0284649 70.286494875 90.1715302" />
<path class="stroke" d="M 57.695254875 65.8725184 L 88.02372 65.8725184" />
</svg>
