<?xml version="1.0" standalone="no"?>
<!DOCTYPE svg PUBLIC "-//W3C//DTD SVG 1.1//EN" "http://www.w3.org/Graphics/SVG/1.1/DTD/svg11.dtd">
<svg xmlns="http://www.w3.org/2000/svg" version="1.1" width="100%" height="100%">
<style type="text/css"><![CDATA[
  .stroke { fill:none; stroke:black; stroke-width:2 }
]]></style>
<path class="stroke" d="M 13.5401455 43.46715 L 35.34063166666667 40.839413" />
<path class="stroke" d="M 25.462285333333334 20.401459 L 25.462285333333334 76.16788" />
<path class="stroke" d="M 10.815085166666668 79.9635 L 37.04379350000001 73.24817" />
<path class="stroke" d="M 38.8992698 11.9 L 93.1007268 11.9" />
<path class="stroke" d="M 66.0 4.2956204 L 66.0 20.645984000000002" />
<path class="stroke" d="M 41.281750439999996 24.580290416666667 L 41.281750439999996 42.74736416666667" />
<path class="stroke" d="M 41.281750439999996 24.580290416666667 L 90.91678712000001 24.580290416666667 L 90.91678712000001 42.74736416666667" />
<path class="stroke" d="M 56.990564400000004 24.580290416666667 L 56.990564400000004 42.74736416666667" />
<path class="stroke" d="M 75.00949408 24.580290416666667 L 75.00949408 42.74736416666667" />
<path class="stroke" d="M 41.281750439999996 42.75590416666667 L 91.04554240000002 42.75590416666667" />
<path class="stroke" d="M 66.21454 52.287065 L 66.21454 59.38485" />
<path class="stroke" d="M 36.1829656 59.38485 L 95.388036 59.38485" />
<path class="stroke" d="M 66.21454 59.38485 C 59.350212 68.74345 49.482664 75.57835 36.8264972 79.8896" />
<path class="stroke" d="M 52.700288 72.3186 L 52.700288 94.40065 M 39.615116 96.29335 C 50.912704000000005 95.8202 62.21029200000001 94.87385 72.220776 91.40379999999999" />
<path class="stroke" d="M 92.17033040000001 67.744435 C 86.37856640000001 71.529985 79.94325040000001 74.21133499999999 72.86431440000001 75.630935" />
<path class="stroke" d="M 66.0 59.38485 C 70.64773199999999 78.04945000000001 80.443744 88.19659999999999 93.67192 95.66239999999999" />
</svg>
