<?xml version="1.0" standalone="no"?>
<!DOCTYPE svg PUBLIC "-//W3C//DTD SVG 1.1//EN" "http://www.w3.org/Graphics/SVG/1.1/DTD/svg11.dtd">
<svg xmlns="http://www.w3.org/2000/svg" version="1.1" width="100%" height="100%">
<style type="text/css"><![CDATA[
  .stroke { fill:none; stroke:black; stroke-width:2 }
]]></style>
<path class="stroke" d="M 5.0729925 19.759122400000003 L 44.6350325 19.759122400000003" />
<path class="stroke" d="M 25.000021 7.35036442 L 25.000021 34.4510936" />
<path class="stroke" d="M 8.7226265 34.4510936 L 41.131385 34.4510936" />
<path class="stroke" d="M 4.9270065 46.175180999999995 L 4.9270065 56.189777899999996" />
<path class="stroke" d="M 4.9270065 45.7664209 L 45.07299 45.7664209 L 45.07299 56.3941569" />
<path class="stroke" d="M 40.1892685 56.65141875 C 31.1040835 58.37592385 19.7476585 59.58304585 8.6750935 59.88484685" />
<path class="stroke" d="M 5.55204985 71.1372128 L 43.880128 71.1372128" />
<path class="stroke" d="M 24.57412 59.108846 L 24.57412 92.86595" />
<path class="stroke" d="M 24.5741389 71.1372538 C 19.74762025 77.8196798 13.927453900000001 83.5967438 5.835963850000001 88.4684868" />
<path class="stroke" d="M 24.5741389 71.1372538 C 29.353317999999998 78.1645718 34.70030980000001 83.3812068 43.596223 88.33913179999999" />
<path class="stroke" d="M 65.37855 8.04417 L 65.37855 26.6562 C 65.2734 41.062 59.64775 47.897 53.23344 50.9464" />
<path class="stroke" d="M 65.5363 8.04416 L 82.571 8.04416 L 82.571 36.7507 C 82.41325 40.8516 83.6751 43.3753 85.4101 43.3753 L 96.361255 43.3753" />
<path class="stroke" d="M 60.48895 53.15461 L 86.8297 53.15461 C 80.1525 77.23451 67.9548 89.01161 54.17981 94.16401" />
<path class="stroke" d="M 64.27445 53.15461 C 66.74555000000001 75.65721 80.88855 92.16621 96.4511 93.84861" />
</svg>
