<?xml version="1.0" standalone="no"?>
<!DOCTYPE svg PUBLIC "-//W3C//DTD SVG 1.1//EN" "http://www.w3.org/Graphics/SVG/1.1/DTD/svg11.dtd">
<svg xmlns="http://www.w3.org/2000/svg" version="1.1" width="100%" height="100%">
<style type="text/css"><![CDATA[
  .stroke { fill:none; stroke:black; stroke-width:2 }
]]></style>
<path class="stroke" d="M 25.5 5.5362948 L 25.5 15.0" />
<path class="stroke" d="M 5.95 15.0 L 45.050000000000004 15.0" />
<path class="stroke" d="M 12.328466800000001 25.43430625 L 12.328466800000001 40.6167875" />
<path class="stroke" d="M 12.328466800000001 25.43430625 L 37.78832 25.43430625 L 37.78832 40.470802500000005" />
<path class="stroke" d="M 12.328466800000001 39.448904 L 37.78832 39.448904" />
<path class="stroke" d="M 5.610810300000001 52.95297243 L 40.345944 52.95297243 C 35.091888000000004 58.51513393 32.027028 58.67405367 26.4810795 60.10432398" />
<path class="stroke" d="M 26.3351337 60.89891778 C 26.189187 82.19405219999999 26.4810795 87.7562137 23.934304500000003 90.59780699999999 C 23.145985500000002 91.74233185 22.357662 92.0284649 21.04379385 92.1715302" />
<path class="stroke" d="M 6.63243225 72.6589168 L 43.9945935 66.7789168" />
<path class="stroke" d="M 68.2445235 10.145985 L 66.79926815 42.26277 C 65.1934282 66.496346 60.215585000000004 86.2737 50.2591231 90.72992" />
<path class="stroke" d="M 52.0255471 39.635033 L 78.0401445 31.167881 C 77.07664185 44.890507 76.27372215 65.03649 77.879561 83.43065 C 78.521895 86.642334 79.3248136 90.14598 83.33941100000001 90.14598 L 91.85036400000001 89.85401 C 93.4562045 90.14598 94.4197055 87.51824 94.4197055 84.59853 L 94.4197055 79.63503" />
<path class="stroke" d="M 59.5729925 48.68613 C 62.945254250000005 49.562042 66.4781017 52.189777 69.850364 58.321167" />
</svg>
