<?xml version="1.0" standalone="no"?>
<!DOCTYPE svg PUBLIC "-//W3C//DTD SVG 1.1//EN" "http://www.w3.org/Graphics/SVG/1.1/DTD/svg11.dtd">
<svg xmlns="http://www.w3.org/2000/svg" version="1.1" width="100%" height="100%">
<style type="text/css"><![CDATA[
  .stroke { fill:none; stroke:black; stroke-width:2 }
]]></style>
<path class="stroke" d="M 56.237625 8.376237900000001 C 57.72277 11.3168313 58.91089 13.9900986 58.91089 17.198020800000002" />
<path class="stroke" d="M 27.956203 17.2773711 L 86.9343 17.2773711" />
<path class="stroke" d="M 27.956203 17.2773711 L 27.956203 32.5182474 C 27.956203 51.1751817 21.532845 65.364957 6.159601 84.45636" />
<path class="stroke" d="M 36.62871235 39.167176 L 88.9504955 39.167176" />
<path class="stroke" d="M 51.3270265 24.60314064 L 51.3270265 69.9762144" />
<path class="stroke" d="M 73.8837815 24.57081016 L 73.8837815 70.15783696" />
<path class="stroke" d="M 51.3270265 70.52107760000001 L 73.6729709 70.52107760000001" />
<path class="stroke" d="M 42.0985397 81.60583199999999 C 41.7189774 86.043792 40.2007295 89.78101600000001 37.7335765 91.88320800000001" />
<path class="stroke" d="M 52.9160581 82.306568 C 55.0036475 85.34306000000001 56.142333750000006 88.145984 57.0912395 92.116784" />
<path class="stroke" d="M 68.47809875 82.540144 C 70.5656888 85.34306000000001 71.51459455 88.37956000000001 72.46349900000001 92.35036000000001" />
<path class="stroke" d="M 82.9014564 82.540144 C 85.178825 85.34306000000001 86.507295 87.9124 87.6459845 92.35036000000001" />
</svg>
