<?xml version="1.0" standalone="no"?>
<!DOCTYPE svg PUBLIC "-//W3C//DTD SVG 1.1//EN" "http://www.w3.org/Graphics/SVG/1.1/DTD/svg11.dtd">
<svg xmlns="http://www.w3.org/2000/svg" version="1.1" width="100%" height="100%">
<style type="text/css"><![CDATA[
  .stroke { fill:none; stroke:black; stroke-width:2 }
]]></style>
<path class="stroke" d="M 50.6309 4.984202 L 50.6309 15.141929999999999" />
<path class="stroke" d="M 6.466877 15.36271 L 6.466877 24.195519999999995" />
<path class="stroke" d="M 6.466877 15.36271 L 94.164055 15.36271 L 94.164055 24.195519999999995" />
<path class="stroke" d="M 15.6151 25.709091304347826 L 83.123 25.709091304347826" />
<path class="stroke" d="M 51.8927 26.01769347826087 C 50.4206 30.23525 45.163 33.21835869565217 39.9054 34.04127173913044" />
<path class="stroke" d="M 23.186144 34.34991304347826 L 23.186144 59.03789130434782" />
<path class="stroke" d="M 23.186144 34.34991304347826 L 75.55204 34.34991304347826 L 75.55204 59.03789130434782" />
<path class="stroke" d="M 23.5016 42.68209347826087 L 75.5521 42.68209347826087" />
<path class="stroke" d="M 23.5016 51.01425434782608 L 75.5521 51.01425434782608" />
<path class="stroke" d="M 6.782335 59.34648956521739 L 93.84862 59.34648956521739" />
<path class="stroke" d="M 33.814713 64.0648636175 C 28.91008 67.912383465 21.06267 71.525299898 9.618528 75.091293266" />
<path class="stroke" d="M 66.18528 64.0648636175 C 71.08991 67.912383465 78.28338 71.525299898 90.38147 75.091293266" />
<path class="stroke" d="M 29.2759106 76.47912385 L 73.66715119999999 75.972262628 C 72.6861236 80.724087398 70.7240852 83.511824336 68.026274 87.123211682 C 66.5547368 88.833868035 63.85693064 91.43153271999999 58.7065664 91.43153271999999 L 56.00875687999999 91.43153271999999" />
<path class="stroke" d="M 44.48174852 76.352408219 L 42.029198 80.217225308 C 38.10510692 85.159122548 30.99269924 88.327005945 24.8613116 90.98802812" />
</svg>
