<?xml version="1.0" standalone="no"?>
<!DOCTYPE svg PUBLIC "-//W3C//DTD SVG 1.1//EN" "http://www.w3.org/Graphics/SVG/1.1/DTD/svg11.dtd">
<svg xmlns="http://www.w3.org/2000/svg" version="1.1" width="100%" height="100%">
<style type="text/css"><![CDATA[
  .stroke { fill:none; stroke:black; stroke-width:2 }
]]></style>
<path class="stroke" d="M 12.773722 14.233576 L 44.014595 14.233576" />
<path class="stroke" d="M 13.649633 28.832115 L 13.649633 47.226276" />
<path class="stroke" d="M 13.649633 28.832115 L 42.55474 29.124084 L 42.55474 47.518246" />
<path class="stroke" d="M 13.649633 47.226276 L 42.55474 47.226276" />
<path class="stroke" d="M 15.985401 56.861313 C 19.48905 63.284668 20.364962 69.124084 20.948904 79.051094" />
<path class="stroke" d="M 37.88321 55.985397 C 37.88321 63.576637 37.59124 71.16788 34.9635 76.131386" />
<path class="stroke" d="M 13.649633 88.39416 L 44.598537 79.051094" />
<path class="stroke" d="M 57.1605835 13.45985248 L 87.67152999999999 13.45985248" />
<path class="stroke" d="M 72.635035 13.45985248 C 72.051095 18.22481536 70.883211 22.14890272 69.2312 25.179616" />
<path class="stroke" d="M 58.45 25.483936 L 58.45 77.64671104" />
<path class="stroke" d="M 58.45 25.483936 L 86.51285 25.483936 L 86.51285 77.3664208" />
<path class="stroke" d="M 58.60855 43.139833599999996 L 86.51285 43.139833599999996" />
<path class="stroke" d="M 58.60855 61.4044192 L 86.51285 61.4044192" />
<path class="stroke" d="M 58.474452 77.64671104 L 86.64963 77.64671104" />
<path class="stroke" d="M 64.0218965 83.81313279999999 C 61.3941595 87.45692799999999 58.3284665 89.97955839999999 54.678831 90.2598496" />
<path class="stroke" d="M 81.540145 84.093424 C 84.60584 85.21458879999999 87.08759 86.89634559999999 90.00729749999999 91.1007232" />
</svg>
