<?xml version="1.0" standalone="no"?>
<!DOCTYPE svg PUBLIC "-//W3C//DTD SVG 1.1//EN" "http://www.w3.org/Graphics/SVG/1.1/DTD/svg11.dtd">
<svg xmlns="http://www.w3.org/2000/svg" version="1.1" width="100%" height="100%">
<style type="text/css"><![CDATA[
  .stroke { fill:none; stroke:black; stroke-width:2 }
]]></style>
<path class="stroke" d="M 13.886999999999999 8.990537 L 13.886999999999999 74.60566" />
<path class="stroke" d="M 13.886999999999999 8.990537 L 38.91786956521739 8.990537 L 38.91786956521739 74.60566" />
<path class="stroke" d="M 13.886999999999999 31.072573 L 38.57493478260869 31.072573" />
<path class="stroke" d="M 13.886999999999999 53.1546 L 38.57493478260869 53.1546" />
<path class="stroke" d="M 13.886999999999999 74.60566 L 38.91786956521739 74.60566" />
<path class="stroke" d="M 20.05891304347826 82.1766 C 17.773043478260867 87.4343 13.429782608695652 91.7455 7.02920652173913 95.1104" />
<path class="stroke" d="M 32.06011956521739 82.49213 C 35.374684782608696 85.43633 37.66055434782608 88.38063 38.91783695652173 92.58673" />
<path class="stroke" d="M 57.384633261000005 12.343430275 L 57.384633261000005 45.8207992" />
<path class="stroke" d="M 57.384633261000005 12.343430275 L 82.51923175 12.343430275 L 82.51923175 45.8207992" />
<path class="stroke" d="M 57.5307657475 28.170167565 L 82.373100765 28.170167565" />
<path class="stroke" d="M 57.384633261000005 44.35948662 L 82.51923175 44.35948662" />
<path class="stroke" d="M 64.184 46.12509679087 C 63.870052916000006 51.523118759300004 62.143350972 61.9709022964 55.236540582399996 67.89131309269999" />
<path class="stroke" d="M 63.293722172 54.2439480978 C 77.990362812 54.2439480978 82.512405788 54.2439480978 95.23065432 54.2439480978 C 94.80671146 76.3469844805 90.84992676000002 84.1849411434 86.89313480000001 89.201232205 C 85.05605665600001 91.0823397424 83.36029296000001 91.552617969 81.523209976 91.70937666199998" />
<path class="stroke" d="M 73.46832032 54.2439480978 C 72.19649416 67.4117132083 65.130802252 77.28753824920001 57.35854004 82.774109685" />
<path class="stroke" d="M 83.21897464000001 54.2439480978 C 81.94715332 70.23337666200001 75.72934084 82.303828237 69.22890382 87.1633611425" />
</svg>
