<?xml version="1.0" standalone="no"?>
<!DOCTYPE svg PUBLIC "-//W3C//DTD SVG 1.1//EN" "http://www.w3.org/Graphics/SVG/1.1/DTD/svg11.dtd">
<svg xmlns="http://www.w3.org/2000/svg" version="1.1" width="100%" height="100%">
<style type="text/css"><![CDATA[
  .stroke { fill:none; stroke:black; stroke-width:2 }
]]></style>
<path class="stroke" d="M 20.058392 5.7372252 C 15.503648000000002 14.6715318 10.3649628 21.6788316 3.9416052 25.8832098" />
<path class="stroke" d="M 20.058392 5.7372252 C 24.7299256 14.321166 29.5182464 21.6788316 36.175180000000005 25.7080284" />
<path class="stroke" d="M 8.088758791999998 35.072992 L 31.9112382 35.072992" />
<path class="stroke" d="M 20.0 21.9927002 L 20.0 52.124084" />
<path class="stroke" d="M 4.905108888000001 52.124084 L 34.98510776 52.124084" />
<path class="stroke" d="M 10.623065432 65.09488999999999 L 10.623065432 89.38686" />
<path class="stroke" d="M 10.623065432 65.09488999999999 L 29.4633568 65.09488999999999 L 29.4633568 89.153284" />
<path class="stroke" d="M 10.623065432 87.5182464 L 29.4633568 87.5182464" />
<path class="stroke" d="M 43.3123 22.23974 L 96.6877 22.23974" />
<path class="stroke" d="M 51.640408 37.38167 L 51.640408 93.84857" />
<path class="stroke" d="M 51.640408 37.38167 L 88.170388 37.38167 L 88.170388 88.17037 C 88.35962799999999 91.53527 87.034708 93.638275 85.141948 93.53307 L 83.438488 93.53307" />
<path class="stroke" d="M 51.82963 52.2082 L 87.98107 51.8927" />
<path class="stroke" d="M 51.64039 67.6656 L 87.98113 67.6656" />
<path class="stroke" d="M 70.0 6.78233 L 70.0 93.8486" />
<path class="stroke" d="M 81.92428000000001 6.78233 C 84.38488000000001 8.88539 85.8991 12.2503 87.03472 15.9306" />
</svg>
