<?xml version="1.0" standalone="no"?>
<!DOCTYPE svg PUBLIC "-//W3C//DTD SVG 1.1//EN" "http://www.w3.org/Graphics/SVG/1.1/DTD/svg11.dtd">
<svg xmlns="http://www.w3.org/2000/svg" version="1.1" width="100%" height="100%">
<style type="text/css"><![CDATA[
  .stroke { fill:none; stroke:black; stroke-width:2 }
]]></style>
<path class="stroke" d="M 50.14598 6.130634928 C 38.75912 15.677579694857144 25.912407 23.16538005257143 9.854013 27.658058472" />
<path class="stroke" d="M 50.14598 6.130634928 C 61.824814 15.303188811428571 73.795616 23.16538005257143 90.43795 27.470864633142856" />
<path class="stroke" d="M 33.8248168 24.285714285714285 L 66.17518000000001 24.285714285714285" />
<path class="stroke" d="M 19.78588786666667 36.748904780000004 L 19.78588786666667 88.81897000000001" />
<path class="stroke" d="M 19.78588786666667 36.748904780000004 L 43.62043523333334 36.748904780000004 L 43.62043523333334 89.89926639999999 C 43.62043523333334 90.9795554 42.11191943333334 92.7080252 40.0 92.49196740000001 L 38.18977876666667 92.49196740000001" />
<path class="stroke" d="M 19.78588786666667 51.2248166 L 43.62043523333334 51.2248166" />
<path class="stroke" d="M 19.78588786666667 66.13284476 L 43.318733933333334 66.13284476" />
<path class="stroke" d="M 61.532845 39.34160504 L 61.532845 64.40437792" />
<path class="stroke" d="M 79.927 35.02043646 L 79.927 88.81897000000001 C 79.927 90.76349760000001 77.59124 92.49196740000001 75.54744 92.7080252 L 73.21168 92.7080252" />
</svg>
