<?xml version="1.0" standalone="no"?>
<!DOCTYPE svg PUBLIC "-//W3C//DTD SVG 1.1//EN" "http://www.w3.org/Graphics/SVG/1.1/DTD/svg11.dtd">
<svg xmlns="http://www.w3.org/2000/svg" version="1.1" width="100%" height="100%">
<style type="text/css"><![CDATA[
  .stroke { fill:none; stroke:black; stroke-width:2 }
]]></style>
<path class="stroke" d="M 15.370329426470589 11.605839 C 13.305065602941177 27.372261 9.01567138235294 41.970802 5.361742367647058 50.14598" />
<path class="stroke" d="M 12.192999588235294 30.583939 L 12.192999588235294 90.43795" />
<path class="stroke" d="M 37.611385775 27.184159679999997 C 32.9777233 33.74257344 29.69554505 35.4534672 23.644159775 37.76934048" />
<path class="stroke" d="M 23.497641 9.5049504 L 23.497641 72.80791679999999 C 23.497641 81.07722624 25.4480193 85.63960704 28.15099035 85.63960704 L 42.34158495 85.63960704 C 43.596534750000004 85.63960704 44.272276700000006 84.21385919999999 44.272276700000006 80.50693439999999 L 44.272276700000006 77.94059519999999" />
<path class="stroke" d="M 59.1605835 9.854013 L 89.67152999999999 9.854013" />
<path class="stroke" d="M 74.635035 9.854013 C 74.051095 14.817516 72.883211 18.905107 71.2312 22.0621" />
<path class="stroke" d="M 60.45 22.3791 L 60.45 76.715324" />
<path class="stroke" d="M 60.45 22.3791 L 88.51285 22.3791 L 88.51285 76.423355" />
<path class="stroke" d="M 60.60855 40.77066 L 88.51285 40.77066" />
<path class="stroke" d="M 60.60855 59.79627 L 88.51285 59.79627" />
<path class="stroke" d="M 60.474452 76.715324 L 88.64963 76.715324" />
<path class="stroke" d="M 66.0218965 83.13868 C 63.3941595 86.9343 60.3284665 89.56204 56.678831 89.85401" />
<path class="stroke" d="M 83.540145 83.43065 C 86.60584 84.59853 89.08759 86.35036 92.00729749999999 90.72992" />
</svg>
