<?xml version="1.0" standalone="no"?>
<!DOCTYPE svg PUBLIC "-//W3C//DTD SVG 1.1//EN" "http://www.w3.org/Graphics/SVG/1.1/DTD/svg11.dtd">
<svg xmlns="http://www.w3.org/2000/svg" version="1.1" width="100%" height="100%">
<style type="text/css"><![CDATA[
  .stroke { fill:none; stroke:black; stroke-width:2 }
]]></style>
<path class="stroke" d="M 8.003300000000001 33.069305 L 25.825083333333335 30.9901" />
<path class="stroke" d="M 19.389438333333334 9.60396 L 19.389438333333334 84.15842 C 19.389438333333334 87.42574 17.161715833333336 90.09901 14.191419166666668 90.09901" />
<path class="stroke" d="M 8.498349166666667 63.36634 L 24.09241 46.435642" />
<path class="stroke" d="M 86.782177 7.70077 C 72.970297 11.16611688888889 51.80692975 12.783278666666666 39.331683999999996 12.783278666666666" />
<path class="stroke" d="M 40.668316000000004 18.78987988888889 C 44.00990125 22.024203444444446 46.017325 25.55785555555556 47.5742575 29.18591977777778" />
<path class="stroke" d="M 57.59901025 17.634763222222222 C 60.717823 20.176017555555557 62.7227725 23.410341111111112 64.0594075 27.568757222222224" />
<path class="stroke" d="M 85.6683175 16.248624 C 83.8861405 21.79317933333333 81.2128675 25.951595444444447 77.4257425 28.95489488888889" />
<path class="stroke" d="M 47.479196380000005 35.025 L 79.0208005 35.025" />
<path class="stroke" d="M 40.668316000000004 50.995543104999996 L 85.0 50.995543104999996" />
<path class="stroke" d="M 64.0594075 39.651980135 L 60.940592499999994 54.5876735005 C 58.49009875 65.17500000000001 48.0198025 77.27480135 35.99009875 83.702821215" />
<path class="stroke" d="M 59.60396125 61.9609913405 L 78.539605 61.9609913405 C 76.53465249999999 74.62797338499999 65.1814225 85.72242935 47.797028499999996 90.31990067499999" />
<path class="stroke" d="M 57.153467500000005 67.6327715525 C 65.1732685 80.2997516875 72.970297 87.105890106 92.12871249999999 90.31990067499999" />
</svg>
