<?xml version="1.0" standalone="no"?>
<!DOCTYPE svg PUBLIC "-//W3C//DTD SVG 1.1//EN" "http://www.w3.org/Graphics/SVG/1.1/DTD/svg11.dtd">
<svg xmlns="http://www.w3.org/2000/svg" version="1.1" width="100%" height="100%">
<style type="text/css"><![CDATA[
  .stroke { fill:none; stroke:black; stroke-width:2 }
]]></style>
<path class="stroke" d="M 13.154171785714285 11.7326733 C 16.654879285714284 12.876238250000002 20.15558785714286 14.509901600000001 23.01980357142857 16.47029685" />
<path class="stroke" d="M 10.926448928571428 24.965347150000003 C 14.108912142857141 25.9455445 17.927864999999997 27.415841350000004 20.473834285714286 29.376238250000004" />
<path class="stroke" d="M 10.608203571428572 51.103958 C 11.321795357142857 52.0824718 13.310014285714285 53.44329720000001 15.629600357142856 53.44329720000001 C 17.949189642857142 53.44329720000001 21.110325 46.202968500000004 23.33804892857143 42.282178" />
<path class="stroke" d="M 39.7772275 17.38144225 L 39.7772275 30.1930702 C 39.7772275 45.712869 37.549505499999995 49.14356550000001 34.8762385 52.410893300000005" />
<path class="stroke" d="M 39.76804 17.4504942 L 86.0438125 17.4504942 L 86.0438125 19.167526000000002 C 86.0438125 20.613401200000002 85.8118525 21.634020250000003 84.76804 22.90979365" />
<path class="stroke" d="M 63.3910885 9.282178000000002 L 63.3910885 27.252476500000004" />
<path class="stroke" d="M 49.133665 27.252476500000004 L 77.87128750000001 27.252476500000004 C 74.72395 43.645155 57.82178125 52.9009895 41.782177 53.391089" />
<path class="stroke" d="M 52.6047115 28.0445029 C 52.621714749999995 34.50886575 71.68847875 53.2696325 85.589005 53.2696325" />
<path class="stroke" d="M 45.247524 64.40098995 C 44.059406 70.01485135 36.633663 76.87623805 29.504951 80.09901005 C 45.766422 81.332115 68.832115 85.317516 80.51095 90.3248169" />
<path class="stroke" d="M 68.71287 70.7425745 C 61.287132 82.594061 45.841583 87.064359 22.992699 90.018247" />
<path class="stroke" d="M 9.854013 72.44160504999999 L 89.85401 72.44160504999999" />
</svg>
