<?xml version="1.0" standalone="no"?>
<!DOCTYPE svg PUBLIC "-//W3C//DTD SVG 1.1//EN" "http://www.w3.org/Graphics/SVG/1.1/DTD/svg11.dtd">
<svg xmlns="http://www.w3.org/2000/svg" version="1.1" width="100%" height="100%">
<style type="text/css"><![CDATA[
  .stroke { fill:none; stroke:black; stroke-width:2 }
]]></style>
<path class="stroke" d="M 25.912407 10.729925 C 21.824816 18.029196 16.27737 23.86861 11.021896 28.540146 C 15.109488 31.45985 20.07299 36.131386 24.744522 40.218975" />
<path class="stroke" d="M 37.007298 25.912407 C 30.0 34.67153 20.656933 45.18248 8.978102 56.277367 C 19.48905 54.525543 31.167881 52.48175 41.67883 50.437954" />
<path class="stroke" d="M 38.17518 43.430653 C 41.094887 46.642334 41.970802 49.85401 43.722626 55.40146" />
<path class="stroke" d="M 26.49635 54.233574 L 26.49635 89.56204" />
<path class="stroke" d="M 17.445253 65.03649 C 15.69343 70.87591 13.649633 74.67153 9.562042 78.75912" />
<path class="stroke" d="M 34.08759 65.32846 C 37.299267 68.540146 37.35135 68.81081 38.97297 71.72973" />
<path class="stroke" d="M 66.605839 6.558029149999999 C 65.8759115 12.647079625 62.0802915 18.359487725 54.9270065 22.941970849999997" />
<path class="stroke" d="M 82.23135500000001 6.678367659999999 C 88.357662 11.07773636 92.29926499999999 17.1040135 94.6350325 23.06751795" />
<path class="stroke" d="M 75.62664178 19.52700672 C 73.2616783 27.6554736 67.61858649999999 36.758336 60.96386788 43.258393600000005 C 70.896714415 42.230655999999996 79.528831765 41.763504 88.97966350000002 41.83184" />
<path class="stroke" d="M 84.377006575 35.97080064 C 87.0967132 37.745984 89.46167668 40.455473600000005 90.9989044 44.0992672" />
<path class="stroke" d="M 58.284671 74.92700500000001 C 57.9927005 79.1605835 56.8248165 82.37226 55.0729925 84.56204199999999" />
<path class="stroke" d="M 63.18324 70.0831 L 65.85624 78.9833 C 68.52864 86.3823 73.25264 89.68905000000001 82.85079 89.84585 L 89.96350000000001 89.84585 C 91.423355 89.817515 92.20306500000001 88.831417 92.29926499999999 87.77372 L 92.29926499999999 86.60584" />
<path class="stroke" d="M 74.48904999999999 61.934305 C 76.678831 63.248175 78.284672 65.437956 79.59853749999999 67.9197065" />
<path class="stroke" d="M 90.25547499999999 65.0 C 92.44525 66.89780999999999 93.75912 69.233575 94.92700500000001 71.861313" />
</svg>
