<?xml version="1.0" standalone="no"?>
<!DOCTYPE svg PUBLIC "-//W3C//DTD SVG 1.1//EN" "http://www.w3.org/Graphics/SVG/1.1/DTD/svg11.dtd">
<svg xmlns="http://www.w3.org/2000/svg" version="1.1" width="100%" height="100%">
<style type="text/css"><![CDATA[
  .stroke { fill:none; stroke:black; stroke-width:2 }
]]></style>
<path class="stroke" d="M 12.46055 8.044167 L 89.74765 8.044167 L 89.74765 20.662558" />
<path class="stroke" d="M 12.46055 20.662558 L 89.74765 20.662558" />
<path class="stroke" d="M 12.14511 8.044167 L 12.14511 58.20186 C 12.25031 72.92316 10.46261 81.01996 6.15142 94.164055" />
<path class="stroke" d="M 57.005312 33.503089599999996 L 57.005312 86.0145948 C 57.005312 87.85400999999999 55.481752 90.10218599999999 53.145984 90.10218599999999 L 51.043792 90.10218599999999" />
<path class="stroke" d="M 27.218977600000002 52.0875891 L 50.236712000000004 50.739498999999995 C 47.19551680000001 65.92062089999999 36.9974824 77.444772 24.8832104 82.94890000000001" />
<path class="stroke" d="M 84.01068000000001 45.797060099999996 C 78.191024 51.0496452 71.51337280000001 53.7081416 64.013052 55.8532909" />
<path class="stroke" d="M 61.0304592 50.672891899999996 C 66.4503176 65.1094091 75.89334400000001 77.913002 88.649632 82.94890000000001" />
</svg>
