<?xml version="1.0" standalone="no"?>
<!DOCTYPE svg PUBLIC "-//W3C//DTD SVG 1.1//EN" "http://www.w3.org/Graphics/SVG/1.1/DTD/svg11.dtd">
<svg xmlns="http://www.w3.org/2000/svg" version="1.1" width="100%" height="100%">
<style type="text/css"><![CDATA[
  .stroke { fill:none; stroke:black; stroke-width:2 }
]]></style>
<path class="stroke" d="M 27.500000000000004 9.678831933333333 L 27.500000000000004 23.71666666666667" />
<path class="stroke" d="M 9.273722150000001 23.71666666666667 L 45.886857500000005 23.71666666666667" />
<path class="stroke" d="M 18.105837200000003 34.827735759999996 C 16.178831900000002 39.87299176 12.324815800000001 43.86715072 8.47080245 45.338684560000004" />
<path class="stroke" d="M 36.091242 34.40729896 C 40.266424 36.92992624 43.638683 40.92408664 46.20802725 46.17956176" />
<path class="stroke" d="M 34.645985 47.651092 C 30.952551850000003 63.207296799999995 20.3540139 85.9109416 5.2591231 90.3255424" />
<path class="stroke" d="M 19.711677150000003 50.38394128 C 23.0839411 62.78686 38.821167 83.1781024 49.90145600000001 90.115324" />
<path class="stroke" d="M 64.85149 15.544554 L 88.31683 15.544554 C 88.31683 20.891088 86.83168 31.881187 78.81188 39.009903" />
<path class="stroke" d="M 78.514854 39.009903 C 82.2292 42.6393 89.80198 50.29703 89.80198 59.207924 L 89.80198 63.069305 C 89.80198 66.63367 87.42574 68.71287 83.564354 68.71287 L 71.68317 68.41584" />
<path class="stroke" d="M 64.85149 15.544554 L 64.85149 90.09901" />
</svg>
