<?xml version="1.0" standalone="no"?>
<!DOCTYPE svg PUBLIC "-//W3C//DTD SVG 1.1//EN" "http://www.w3.org/Graphics/SVG/1.1/DTD/svg11.dtd">
<svg xmlns="http://www.w3.org/2000/svg" version="1.1" width="100%" height="100%">
<style type="text/css"><![CDATA[
  .stroke { fill:none; stroke:black; stroke-width:2 }
]]></style>
<path class="stroke" d="M 27.956203 10.264596875 L 72.62773 10.264596875" />
<path class="stroke" d="M 13.065693 21.213502083333335 C 13.065693 26.992090625000003 12.773722 30.945861458333336 11.313868 35.20377083333334" />
<path class="stroke" d="M 13.357662 21.213502083333335 L 87.51824 21.213502083333335 C 87.22627 27.296225000000003 86.35036 30.3375875 85.18248 33.37895104166667" />
<path class="stroke" d="M 50.165638 10.264596875 L 50.165638 48.281625000000005" />
<path class="stroke" d="M 27.080292 28.512771875000002 C 31.45985 29.425180208333337 34.37956 30.945861458333336 37.299267 34.29135833333334" />
<path class="stroke" d="M 27.372261 39.15754166666667 C 30.875912 39.7658125 33.79562 41.59063125 37.007298 45.848536458333335" />
<path class="stroke" d="M 60.9489 28.512771875000002 C 64.74452 29.121044791666666 67.9562 30.641727083333336 72.04379 33.98722395833334" />
<path class="stroke" d="M 60.9489 39.461677083333335 C 65.03649 40.06994791666666 68.540146 42.80717395833334 71.45985 45.848536458333335" />
<path class="stroke" d="M 50.14598 55.2591231 C 38.75912 63.448904150000004 25.912407 69.8722623 9.854013 73.72627565" />
<path class="stroke" d="M 50.14598 55.2591231 C 61.824814 63.1277355 73.795616 69.8722623 90.43795 73.5656927" />
<path class="stroke" d="M 30.58978016 70.625 L 69.41021599999999 70.625" />
<path class="stroke" d="M 20.66238 77.2902416 L 80.28388 77.2902416 L 80.28388 90.64035884 C 80.17868 92.4784296 77.86538 93.59093960000001 74.29018 93.5425936 L 67.03468 93.5425936" />
<path class="stroke" d="M 48.42274 77.435344 L 48.42274 97.170356" />
</svg>
