<?xml version="1.0" standalone="no"?>
<!DOCTYPE svg PUBLIC "-//W3C//DTD SVG 1.1//EN" "http://www.w3.org/Graphics/SVG/1.1/DTD/svg11.dtd">
<svg xmlns="http://www.w3.org/2000/svg" version="1.1" width="100%" height="100%">
<style type="text/css"><![CDATA[
  .stroke { fill:none; stroke:black; stroke-width:2 }
]]></style>
<path class="stroke" d="M 24.4432416 7.189188 L 13.597837160000001 23.729729 L 23.70378136 37.675674" />
<path class="stroke" d="M 33.8097286 25.351349 C 25.350313 37.338375 16.89089588 49.3254 8.17513456 61.675674 L 32.084321880000005 57.783783" />
<path class="stroke" d="M 31.59135016 57.459457 C 26.66161928 79.83784 15.323241600000001 89.567566 4.970810932 94.43243" />
<path class="stroke" d="M 51.84306455 9.854013 C 50.894159450000004 19.781021 44.821167200000005 30.29197 41.2153273 32.627735" />
<path class="stroke" d="M 48.99634925 25.036495 L 48.99634925 90.43795" />
<path class="stroke" d="M 71.58028855 10.145985 C 70.44160295 16.569342 68.3540129 22.116787 65.3175171 25.328465" />
<path class="stroke" d="M 48.99634925 24.76344 L 84.105836 24.76344" />
<path class="stroke" d="M 66.2664235 25.328465 L 66.2664235 90.43795" />
<path class="stroke" d="M 48.99634925 47.79185 L 81.638683 47.79185" />
<path class="stroke" d="M 48.99634925 69.124084 L 81.8284635 69.124084" />
<path class="stroke" d="M 48.99634925 90.43795 L 87.9014564 90.43795" />
</svg>
