<?xml version="1.0" standalone="no"?>
<!DOCTYPE svg PUBLIC "-//W3C//DTD SVG 1.1//EN" "http://www.w3.org/Graphics/SVG/1.1/DTD/svg11.dtd">
<svg xmlns="http://www.w3.org/2000/svg" version="1.1" width="100%" height="100%">
<style type="text/css"><![CDATA[
  .stroke { fill:none; stroke:black; stroke-width:2 }
]]></style>
<path class="stroke" d="M 5.44165 4.479480000000001 L 5.356164 38.0" />
<path class="stroke" d="M 5.44165 4.479480000000001 L 45.03155 4.479480000000001" />
<path class="stroke" d="M 23.1072635 4.47952 L 23.1072635 14.57412" />
<path class="stroke" d="M 5.44165 15.078844000000002 L 38.2492 15.078844000000002 L 38.2492 25.930604000000002" />
<path class="stroke" d="M 5.44165 25.930604000000002 L 38.2492 25.930604000000002" />
<path class="stroke" d="M 23.264992 26.0568 L 23.264992 36.2776" />
<path class="stroke" d="M 5.44165 36.403800000000004 L 45.347 36.403800000000004" />
<path class="stroke" d="M 60.2970295 8.72192390857143 C 59.1089105 15.959264525714289 57.3267325 23.474962811428576 54.950495000000004 28.48542989714286" />
<path class="stroke" d="M 58.366337 19.299575291428575 L 95.19802 19.299575291428575" />
<path class="stroke" d="M 63.13357596 32.0 L 93.866421 32.0" />
<path class="stroke" d="M 20.0 46.4285722 L 20.0 75.57142780000001" />
<path class="stroke" d="M 19.642859 46.0 L 79.64286 46.0 L 79.64286 75.57142780000001" />
<path class="stroke" d="M 20.357143 56.0714302 L 79.28571 56.0714302" />
<path class="stroke" d="M 20.357143 65.0714302 L 79.64286 65.0714302" />
<path class="stroke" d="M 19.642859 73.64285559999999 L 79.28571 73.8571444" />
<path class="stroke" d="M 38.57143 74.28571600000001 C 36.235664 84.79666 23.86861 92.510944 9.562042 94.087588" />
<path class="stroke" d="M 54.64286 74.5 L 54.525543 89.532844 C 54.525543 92.686126 58.029198 94.26276999999999 62.70073 94.26276999999999 L 86.9343 94.26276999999999 C 89.85401 94.26276999999999 91.605835 93.562039 91.605835 92.16058 L 91.605835 90.05839" />
</svg>
