<?xml version="1.0" standalone="no"?>
<!DOCTYPE svg PUBLIC "-//W3C//DTD SVG 1.1//EN" "http://www.w3.org/Graphics/SVG/1.1/DTD/svg11.dtd">
<svg xmlns="http://www.w3.org/2000/svg" version="1.1" width="100%" height="100%">
<style type="text/css"><![CDATA[
  .stroke { fill:none; stroke:black; stroke-width:2 }
]]></style>
<path class="stroke" d="M 30.446110625 5.83596 C 25.661524874999998 18.87483 15.632712375 32.54463 5.327741125 38.64353" />
<path class="stroke" d="M 7.811969375 8.04417 C 17.932936875 17.7182 26.397686874999998 33.0705 26.305636875 61.6719 L 26.305636875 77.4448 C 26.673661 85.6467 24.557561 96.0569 17.1967985 95.7414 L 12.639624375 95.7414" />
<path class="stroke" d="M 23.269325625 34.22716 C 23.361375625 49.47426 14.068438125 62.82856 5.327748124999999 67.03466" />
<path class="stroke" d="M 41.00802857 16.554744 L 85.99196574999999 16.554744" />
<path class="stroke" d="M 63.5 6.744525149999999 L 63.5 29.343062999999997" />
<path class="stroke" d="M 34.99634923 29.343062999999997 L 91.79634709999999 29.343062999999997" />
<path class="stroke" d="M 47.755619999 40.675912 L 47.755619999 60.109488" />
<path class="stroke" d="M 47.755619999 40.675912 L 79.3894876 40.675912 L 79.3894876 59.9226272" />
<path class="stroke" d="M 47.755619999 58.61459712 L 79.3894876 58.61459712" />
<path class="stroke" d="M 63.5 65.20316159999999 C 55.362263999999996 74.651712 45.208696 80.95077119999999 33.263372 83.373504" />
<path class="stroke" d="M 48.493652999999995 77.8013568 L 48.493652999999995 90.1570944 M 40.430609 94.2757248 L 62.828056000000004 83.61580800000002" />
<path class="stroke" d="M 86.7933179 65.68774656 C 83.73236164 70.85615616000001 79.99946706 73.84421376 75.14668806 76.58989056000001" />
<path class="stroke" d="M 63.72393399999999 65.4454656 C 71.04048399999999 80.0624256 80.596729 88.13817599999999 94.18456699999999 94.7601792" />
</svg>
