<?xml version="1.0" standalone="no"?>
<!DOCTYPE svg PUBLIC "-//W3C//DTD SVG 1.1//EN" "http://www.w3.org/Graphics/SVG/1.1/DTD/svg11.dtd">
<svg xmlns="http://www.w3.org/2000/svg" version="1.1" width="100%" height="100%">
<style type="text/css"><![CDATA[
  .stroke { fill:none; stroke:black; stroke-width:2 }
]]></style>
<path class="stroke" d="M 18.905107 9.854013 L 90.14598 9.854013" />
<path class="stroke" d="M 18.613138 9.854013 L 18.613138 31.167881 C 18.613138 74.67153 14.817516 81.386856 10.198019 90.09901" />
<path class="stroke" d="M 30.89416025 34.126349858 L 51.60994625 34.126349858" />
<path class="stroke" d="M 42.5 20.3000719926 L 42.18831125 55.52439862239999" />
<path class="stroke" d="M 42.5 35.7855011056 C 39.2153285 42.237764446199996 34.397809249999995 49.058729397 27.60948875 53.851838332999996" />
<path class="stroke" d="M 42.5 37.2603062836 C 46.660582250000004 39.65686075159999 48.850362499999996 41.869062836000005 51.040144999999995 45.0030205244" />
<path class="stroke" d="M 57.26439725 34.126349858 L 81.040142 34.126349858" />
<path class="stroke" d="M 68.55839 20.3000719926 L 68.6038925 54.93399795" />
<path class="stroke" d="M 68.120435 36.522904325999995 C 65.4926975 43.71256773 58.704376249999996 50.717883801599996 52.1350355 55.3266384598" />
<path class="stroke" d="M 68.120435 36.338554468 C 72.0620375 44.265617304 76.7618255 46.782838626 83.33117 51.391597704" />
<path class="stroke" d="M 59.3613125 59.800729929999996 L 59.3613125 92.60072664999998" />
<path class="stroke" d="M 59.3613125 71.05328284000001 L 77.7554675 71.05328284000001" />
<path class="stroke" d="M 42.937954250000004 71.7715315 L 42.937954250000004 92.60072664999998" />
<path class="stroke" d="M 27.39050975 92.60072664999998 L 87.8284625 92.60072664999998" />
</svg>
