<?xml version="1.0" standalone="no"?>
<!DOCTYPE svg PUBLIC "-//W3C//DTD SVG 1.1//EN" "http://www.w3.org/Graphics/SVG/1.1/DTD/svg11.dtd">
<svg xmlns="http://www.w3.org/2000/svg" version="1.1" width="100%" height="100%">
<style type="text/css"><![CDATA[
  .stroke { fill:none; stroke:black; stroke-width:2 }
]]></style>
<path class="stroke" d="M 30.583939 9.854013 L 30.583939 21.240875" />
<path class="stroke" d="M 16.27737 21.240875 L 44.598537 21.240875" />
<path class="stroke" d="M 20.07299 21.532845 C 22.116787 27.372261 23.576641 33.79562 24.452553 41.970802" />
<path class="stroke" d="M 41.38686 21.240875 C 39.343063 27.66423 37.524754 34.851486 38.118813 41.68317" />
<path class="stroke" d="M 12.773722 41.970802 L 46.934303 41.970802" />
<path class="stroke" d="M 9.562042 56.861313 L 47.518246 56.861313" />
<path class="stroke" d="M 30.875912 43.430653 L 30.875912 88.978096" />
<path class="stroke" d="M 30.583939 60.07299 C 25.036495 65.32846 18.613138 71.45985 11.605839 73.795616" />
<path class="stroke" d="M 30.875912 62.408752 C 36.423355 64.16058 39.051094 66.496346 42.26277 70.29197" />
<path class="stroke" d="M 75.18831968 10.145985 C 68.6481732 15.109488 62.43503424000001 17.153284 55.73138624 17.445253" />
<path class="stroke" d="M 55.73138624 17.445253 L 55.73138624 49.562042 C 55.73138624 58.613136 54.58685992 73.50365 51.15328432 84.59853" />
<path class="stroke" d="M 55.73138624 34.37956 L 90.3941576 34.37956" />
<path class="stroke" d="M 73.06277248 34.37956 L 73.06277248 90.14598" />
</svg>
