<?xml version="1.0" standalone="no"?>
<!DOCTYPE svg PUBLIC "-//W3C//DTD SVG 1.1//EN" "http://www.w3.org/Graphics/SVG/1.1/DTD/svg11.dtd">
<svg xmlns="http://www.w3.org/2000/svg" version="1.1" width="100%" height="100%">
<style type="text/css"><![CDATA[
  .stroke { fill:none; stroke:black; stroke-width:2 }
]]></style>
<path class="stroke" d="M 10.267693518518518 11.8297 L 42.445910185185184 11.8297" />
<path class="stroke" d="M 9.71763888888889 30.09901 L 9.71763888888889 89.80198" />
<path class="stroke" d="M 9.71763888888889 30.1262 L 43.546018518518515 30.1262 L 43.546018518518515 89.80198" />
<path class="stroke" d="M 20.99376574074074 11.683168 L 20.99376574074074 40.79208 C 20.99376574074074 47.326733 20.718737037037037 54.455444 14.66813425925926 58.61386" />
<path class="stroke" d="M 31.444811111111115 11.980198 L 31.444811111111115 42.574257 C 31.444811111111115 48.811882 31.444811111111115 53.861385 35.84525 53.861385 L 38.320499999999996 53.861385" />
<path class="stroke" d="M 14.393105555555556 71.9802 L 39.145583333333335 71.9802" />
<path class="stroke" d="M 9.71763888888889 89.80198 L 43.546018518518515 89.80198" />
<path class="stroke" d="M 71.56934150000001 12.81605692 C 68.21167750000001 21.487591000000002 62.5182475 30.5445235 56.678831 36.325546" />
<path class="stroke" d="M 69.8175165 17.82627664 L 82.81022 17.82627664 C 77.554745 33.62773462 66.3138675 51.9343018 55.0729925 61.9547386" />
<path class="stroke" d="M 64.270073 27.26861284 C 70.0 41.25806524 81.7883185 54.4394143 94.19708 61.9547386" />
<path class="stroke" d="M 65.038320925 58.98175125 L 65.038320925 86.3102175" />
<path class="stroke" d="M 65.038320925 58.98175125 L 82.54197 58.98175125 L 82.54197 86.04744450000001" />
<path class="stroke" d="M 65.038320925 84.2080272 L 82.54197 84.2080272" />
</svg>
