<?xml version="1.0" standalone="no"?>
<!DOCTYPE svg PUBLIC "-//W3C//DTD SVG 1.1//EN" "http://www.w3.org/Graphics/SVG/1.1/DTD/svg11.dtd">
<svg xmlns="http://www.w3.org/2000/svg" version="1.1" width="100%" height="100%">
<style type="text/css"><![CDATA[
  .stroke { fill:none; stroke:black; stroke-width:2 }
]]></style>
<path class="stroke" d="M 20.299686 7.7807541 C 19.25000088 15.75 18.883335900000002 28.88888951 4.766667378 44.894449699999996" />
<path class="stroke" d="M 19.43333502 14.794444969999999 L 59.123559 14.794444969999999 L 49.7937132 28.52617892" />
<path class="stroke" d="M 19.48905 29.9138683 L 19.48905 92.541601" />
<path class="stroke" d="M 19.48905 29.9138683 L 80.51095 29.9138683 L 80.51095 89.12554420000001 C 80.51095 91.17518140000001 79.63503 92.3138644 77.00729 92.3138644 L 74.087585 92.3138644" />
<path class="stroke" d="M 40.9051086 31.120874932 L 40.9051086 45.946566904 C 40.9051086 59.01868378 35.5912406 71.931383944 22.3065692 75.2791207" />
<path class="stroke" d="M 52.963501799999996 30.961459857999998 L 52.963501799999996 68.58364828 C 52.963501799999996 72.5690497 55.6204386 74.96028946 58.4817481 74.96028946 L 74.42335 74.96028946 C 76.67153299999998 75.11970507999999 78.306565 73.84437466 78.306565 72.09079738 L 78.306565 69.061897324" />
</svg>
