<?xml version="1.0" standalone="no"?>
<!DOCTYPE svg PUBLIC "-//W3C//DTD SVG 1.1//EN" "http://www.w3.org/Graphics/SVG/1.1/DTD/svg11.dtd">
<svg xmlns="http://www.w3.org/2000/svg" version="1.1" width="100%" height="100%">
<style type="text/css"><![CDATA[
  .stroke { fill:none; stroke:black; stroke-width:2 }
]]></style>
<path class="stroke" d="M 20.770715441176474 11.605839 C 17.979818382352942 27.372261 12.183339705882354 41.970802 7.245597794117647 50.14598" />
<path class="stroke" d="M 16.477026470588235 30.583939 L 16.477026470588235 90.43795" />
<path class="stroke" d="M 29.600416666666668 10.8833 L 65.61516666666667 10.8833" />
<path class="stroke" d="M 45.89905 10.8833 C 45.3733 29.9159 41.43013333333333 42.3239 32.22923333333333 54.7319" />
<path class="stroke" d="M 44.058883333333334 30.1262 L 64.30080000000001 30.1263 C 59.393633333333334 58.202 51.06905 76.4986 34.06941666666667 94.4795" />
<path class="stroke" d="M 44.584583333333335 45.89907 C 47.651583333333335 48.52787 49.929833333333335 51.78757 51.419583333333335 55.678272" />
<path class="stroke" d="M 77.42899 12.1451 L 77.42899 68.612" />
<path class="stroke" d="M 91.34065 6.78233 L 91.34065 84.0694 C 91.43533 89.6425 88.40692 92.3765 84.8107 92.2713 L 81.6877 92.2713" />
</svg>
