<?xml version="1.0" standalone="no"?>
<!DOCTYPE svg PUBLIC "-//W3C//DTD SVG 1.1//EN" "http://www.w3.org/Graphics/SVG/1.1/DTD/svg11.dtd">
<svg xmlns="http://www.w3.org/2000/svg" version="1.1" width="100%" height="100%">
<style type="text/css"><![CDATA[
  .stroke { fill:none; stroke:black; stroke-width:2 }
]]></style>
<path class="stroke" d="M 24.744522 8.32189755 L 24.744522 31.1306544" />
<path class="stroke" d="M 24.744522 8.32189755 L 74.9635 8.32189755 L 74.9635 31.1306544" />
<path class="stroke" d="M 25.036495 19.104949329999997 L 74.67153 19.104949329999997" />
<path class="stroke" d="M 24.744522 30.13503484 L 74.9635 30.13503484" />
<path class="stroke" d="M 50.14598 40.856890514599996 L 50.14598 47.7209480398" />
<path class="stroke" d="M 11.313868 47.8669929344 L 88.10219 47.8669929344" />
<path class="stroke" d="M 29.542335209999997 56.50055837305 L 29.542335209999997 71.3853415307" />
<path class="stroke" d="M 29.542335209999997 56.50055837305 L 69.641604 56.50055837305 L 69.641604 71.24221900458" />
<path class="stroke" d="M 29.542335209999997 70.24035789036799 L 69.641604 70.24035789036799" />
<path class="stroke" d="M 50.005287 70.65694879009999 L 50.005287 88.47429012699999 C 50.005287 88.98544325649999 48.394157 89.27753129499999 47.226276 89.27753129499999 L 45.18248 89.27753129499999" />
<path class="stroke" d="M 26.788319 77.30194047399999 C 25.328465 79.857707372 20.948904 82.0483645345 14.817516 83.8008905146" />
<path class="stroke" d="M 70.58394 77.30194047399999 C 76.423355 78.83540111299999 81.386856 80.88001438129999 84.306564 83.94693340839999" />
</svg>
