<?xml version="1.0" standalone="no"?>
<!DOCTYPE svg PUBLIC "-//W3C//DTD SVG 1.1//EN" "http://www.w3.org/Graphics/SVG/1.1/DTD/svg11.dtd">
<svg xmlns="http://www.w3.org/2000/svg" version="1.1" width="100%" height="100%">
<style type="text/css"><![CDATA[
  .stroke { fill:none; stroke:black; stroke-width:2 }
]]></style>
<path class="stroke" d="M 20.273721416666664 9.562042 C 23.4854015 11.021896 26.697077 14.817516 28.83819583333333 19.48905" />
<path class="stroke" d="M 9.03284525 22.8707 L 39.00851166666667 22.8707" />
<path class="stroke" d="M 14.9209225 37.007298 L 33.12043716666666 37.007298" />
<path class="stroke" d="M 14.9209225 51.313866 L 33.12043716666666 51.313866" />
<path class="stroke" d="M 13.850364 64.45255 L 13.850364 85.76642" />
<path class="stroke" d="M 13.850364 64.16058 L 34.72627583333333 64.16058 L 34.72627583333333 85.76642" />
<path class="stroke" d="M 13.850364 85.76642 L 34.45863666666666 85.76642" />
<path class="stroke" d="M 50.9670428 6.7872963 L 50.9670428 45.104454" />
<path class="stroke" d="M 50.9670428 6.7872963 L 87.13787479999999 6.7872963 L 87.13787479999999 45.104454" />
<path class="stroke" d="M 50.9670428 25.447298 L 87.13787479999999 25.447298" />
<path class="stroke" d="M 50.9670428 45.104454 L 87.13787479999999 45.104454" />
<path class="stroke" d="M 43.96574762 58.717697 L 94.31782279999999 58.717697" />
<path class="stroke" d="M 69.140387 7.08985 L 69.140387 94.4864" />
<path class="stroke" d="M 69.24395429 60.98541 C 63.3201512 76.800804 54.07103309 84.066444 44.314207544 90.9857" />
<path class="stroke" d="M 69.24395429 60.98541 C 75.45810284 76.62635 83.7478682 85.044235 94.31782279999999 91.09132" />
</svg>
