<?xml version="1.0" standalone="no"?>
<!DOCTYPE svg PUBLIC "-//W3C//DTD SVG 1.1//EN" "http://www.w3.org/Graphics/SVG/1.1/DTD/svg11.dtd">
<svg xmlns="http://www.w3.org/2000/svg" version="1.1" width="100%" height="100%">
<style type="text/css"><![CDATA[
  .stroke { fill:none; stroke:black; stroke-width:2 }
]]></style>
<path class="stroke" d="M 18.430655833333333 9.562042 C 21.350365 11.021896 24.27007 14.817516 26.216541666666668 19.48905" />
<path class="stroke" d="M 8.2116775 22.8707 L 35.46228333333334 22.8707" />
<path class="stroke" d="M 13.564475000000002 37.007298 L 30.109488333333335 37.007298" />
<path class="stroke" d="M 13.564475000000002 51.313866 L 30.109488333333335 51.313866" />
<path class="stroke" d="M 12.59124 64.45255 L 12.59124 85.76642" />
<path class="stroke" d="M 12.59124 64.16058 L 31.569341666666666 64.16058 L 31.569341666666666 85.76642" />
<path class="stroke" d="M 12.59124 85.76642 L 31.326033333333335 85.76642" />
<path class="stroke" d="M 53.17227776 8.376237900000001 C 55.6435648 10.5148512 56.78415744 12.6534654 58.68514880000001 16.663365" />
<path class="stroke" d="M 80.7366336 8.376237900000001 C 79.21584 12.1188123 77.88514559999999 14.792079600000001 75.60395968 16.3960389" />
<path class="stroke" d="M 47.46930688 19.8712872 L 88.72079104 19.8712872" />
<path class="stroke" d="M 67.59621312 20.1386124 L 67.59621312 42.8613876" />
<path class="stroke" d="M 50.130693120000004 31.6336626 L 85.4891136 31.6336626" />
<path class="stroke" d="M 42.52673216 42.8613876 L 93.09307136000001 42.8613876" />
<path class="stroke" d="M 65.37536 53.39117 C 58.174528 55.59935 50.569919999999996 56.703450000000004 43.369088 57.17665" />
<path class="stroke" d="M 40.3406912 65.53628499999999 L 96.26496 65.53628499999999" />
<path class="stroke" d="M 55.07888 55.914864 L 55.07888 94.2429125 C 54.944288 95.977913 53.396448 97.08201199999999 51.646688 97.08201199999999 L 48.214496 97.08201199999999" />
<path class="stroke" d="M 41.5520448 80.362765 C 47.7434496 78.049415 56.3575296 76.524715 64.5678336 76.10406499999999" />
<path class="stroke" d="M 73.65305599999999 53.233435 L 73.65305599999999 69.79495 C 73.92224 83.78020000000001 85.295488 96.66145 93.43846400000001 96.76655 L 93.43846400000001 91.40385" />
<path class="stroke" d="M 93.84224 72.3186285 C 88.18924799999999 84.41113 78.700288 93.822277 64.97158400000001 96.92428000000001" />
<path class="stroke" d="M 83.5457664 55.44164 C 85.83389439999999 56.70347 87.3144064 57.80757 88.7949184 59.85807" />
</svg>
