<?xml version="1.0" standalone="no"?>
<!DOCTYPE svg PUBLIC "-//W3C//DTD SVG 1.1//EN" "http://www.w3.org/Graphics/SVG/1.1/DTD/svg11.dtd">
<svg xmlns="http://www.w3.org/2000/svg" version="1.1" width="100%" height="100%">
<style type="text/css"><![CDATA[
  .stroke { fill:none; stroke:black; stroke-width:2 }
]]></style>
<path class="stroke" d="M 3.23344 15.6151 L 46.60885 15.6151" />
<path class="stroke" d="M 9.54259 31.072584 L 9.54259 56.940086" />
<path class="stroke" d="M 9.54259 31.072584 L 40.77289 31.072584 L 40.77289 56.940086" />
<path class="stroke" d="M 9.54259 56.940086 L 40.77289 56.940086" />
<path class="stroke" d="M 25.31545 5.5205 L 25.31545 93.8486" />
<path class="stroke" d="M 25.31545 56.9401 C 21.31965 73.8696 13.38065 88.591 3.391165 91.6404" />
<path class="stroke" d="M 25.31545 56.9401 C 29.6267 73.5542 35.8307 88.2755 46.76655 91.6404" />
<path class="stroke" d="M 59.1605835 9.854013 L 89.67152999999999 9.854013" />
<path class="stroke" d="M 74.635035 9.854013 C 74.051095 14.817516 72.883211 18.905107 71.2312 22.0621" />
<path class="stroke" d="M 60.45 22.3791 L 60.45 76.715324" />
<path class="stroke" d="M 60.45 22.3791 L 88.51285 22.3791 L 88.51285 76.423355" />
<path class="stroke" d="M 60.60855 40.77066 L 88.51285 40.77066" />
<path class="stroke" d="M 60.60855 59.79627 L 88.51285 59.79627" />
<path class="stroke" d="M 60.474452 76.715324 L 88.64963 76.715324" />
<path class="stroke" d="M 66.0218965 83.13868 C 63.3941595 86.9343 60.3284665 89.56204 56.678831 89.85401" />
<path class="stroke" d="M 83.540145 83.43065 C 86.60584 84.59853 89.08759 86.35036 92.00729749999999 90.72992" />
</svg>
