<?xml version="1.0" standalone="no"?>
<!DOCTYPE svg PUBLIC "-//W3C//DTD SVG 1.1//EN" "http://www.w3.org/Graphics/SVG/1.1/DTD/svg11.dtd">
<svg xmlns="http://www.w3.org/2000/svg" version="1.1" width="100%" height="100%">
<style type="text/css"><![CDATA[
  .stroke { fill:none; stroke:black; stroke-width:2 }
]]></style>
<path class="stroke" d="M 8.69085 22.0316 L 2.3817 38.1199" />
<path class="stroke" d="M 20.6782 22.0316 L 27.6183 38.1199" />
<path class="stroke" d="M 14.6845 7.3123 L 14.6845 93.3186" />
<path class="stroke" d="M 37.8943165 8.5615108 L 57.6577315 8.5615108 L 57.6577315 51.223943999999996" />
<path class="stroke" d="M 38.225556499999996 30.618336 L 57.436916499999995 30.618336" />
<path class="stroke" d="M 38.115131500000004 51.223943999999996 L 57.6577315 51.223943999999996" />
<path class="stroke" d="M 37.8943165 8.5615108 L 37.8943165 79.95582 M 32.8154595 83.14822000000001 L 56.77444 71.53947600000001" />
<path class="stroke" d="M 53.020500999999996 64.28394200000001 C 56.222370999999995 67.18599 58.209776 74.151402 58.872220999999996 81.69715" />
<path class="stroke" d="M 67.820808753 6.8648643 L 93.6326334 6.78233" />
<path class="stroke" d="M 72.62697173 6.8648643 L 70.803945504 40.918915" />
<path class="stroke" d="M 65.50059383499999 41.24324 L 92.84599488999999 41.24324" />
<path class="stroke" d="M 90.52578406 6.8648643 L 85.3881594 40.918915 C 82.63109978 54.638405 74.373542136 73.940155 62.010800073 86.34286 L 51.455 95.0" />
<path class="stroke" d="M 83.730861205 49.027023 L 83.701524184 80.37407 C 83.701524184 87.556114 82.33399926999999 92.17143 87.21118767 92.162155 L 94.77320073 92.17143 C 96.87560292 92.17143 96.35000364999999 87.02857 96.35000364999999 83.94286" />
</svg>
