<?xml version="1.0" standalone="no"?>
<!DOCTYPE svg PUBLIC "-//W3C//DTD SVG 1.1//EN" "http://www.w3.org/Graphics/SVG/1.1/DTD/svg11.dtd">
<svg xmlns="http://www.w3.org/2000/svg" version="1.1" width="100%" height="100%">
<style type="text/css"><![CDATA[
  .stroke { fill:none; stroke:black; stroke-width:2 }
]]></style>
<path class="stroke" d="M 26.831684 8.376237900000001 C 30.69307 10.5148512 32.475246 12.6534654 35.445545 16.663365" />
<path class="stroke" d="M 69.90099 8.376237900000001 C 67.52475 12.1188123 65.44554 14.792079600000001 61.881187 16.3960389" />
<path class="stroke" d="M 17.920792 19.8712872 L 82.376236 19.8712872" />
<path class="stroke" d="M 49.369083 20.1386124 L 49.369083 42.8613876" />
<path class="stroke" d="M 22.079208 31.6336626 L 77.32674 31.6336626" />
<path class="stroke" d="M 10.198019 42.8613876 L 89.207924 42.8613876" />
<path class="stroke" d="M 45.899 53.39117 C 34.6477 55.59935 22.7655 56.703450000000004 11.5142 57.17665" />
<path class="stroke" d="M 6.78233 65.53628499999999 L 94.164 65.53628499999999" />
<path class="stroke" d="M 29.81075 55.914864 L 29.81075 94.2429125 C 29.60045 95.977913 27.18195 97.08201199999999 24.44795 97.08201199999999 L 19.08515 97.08201199999999" />
<path class="stroke" d="M 8.67507 80.362765 C 18.34914 78.049415 31.80864 76.524715 44.63724 76.10406499999999" />
<path class="stroke" d="M 58.8329 53.233435 L 58.8329 69.79495 C 59.2535 83.78020000000001 77.0242 96.66145 89.7476 96.76655 L 89.7476 91.40385" />
<path class="stroke" d="M 90.3785 72.3186285 C 81.5457 84.41113 66.7192 93.822277 45.2681 96.92428000000001" />
<path class="stroke" d="M 74.29026 55.44164 C 77.86546 56.70347 80.17876 57.80757 82.49206 59.85807" />
</svg>
