<?xml version="1.0" standalone="no"?>
<!DOCTYPE svg PUBLIC "-//W3C//DTD SVG 1.1//EN" "http://www.w3.org/Graphics/SVG/1.1/DTD/svg11.dtd">
<svg xmlns="http://www.w3.org/2000/svg" version="1.1" width="100%" height="100%">
<style type="text/css"><![CDATA[
  .stroke { fill:none; stroke:black; stroke-width:2 }
]]></style>
<path class="stroke" d="M 12.189779 15.69343 L 87.81021 15.69343" />
<path class="stroke" d="M 34.67153 8.394159 L 34.67153 23.576641" />
<path class="stroke" d="M 65.32846 8.394159 L 65.32846 23.576641" />
<path class="stroke" d="M 30.583939 27.8832104 L 30.583939 36.9927" />
<path class="stroke" d="M 16.27737 36.9927 L 44.598537 36.9927" />
<path class="stroke" d="M 20.07299 37.226276 C 22.116787 41.89780880000001 23.576641 47.036496 24.452553 53.5766416" />
<path class="stroke" d="M 41.38686 36.9927 C 39.343063 42.131384 37.524754 47.881188800000004 38.118813 53.346536" />
<path class="stroke" d="M 12.773722 53.5766416 L 46.934303 53.5766416" />
<path class="stroke" d="M 9.562042 65.4890504 L 47.518246 65.4890504" />
<path class="stroke" d="M 30.875912 54.7445224 L 30.875912 91.1824768" />
<path class="stroke" d="M 30.583939 68.058392 C 25.036495 72.26276800000001 18.613138 77.16788 11.605839 79.03649279999999" />
<path class="stroke" d="M 30.875912 69.92700160000001 C 36.423355 71.328464 39.051094 73.1970768 42.26277 76.233576" />
<path class="stroke" d="M 75.18831968 28.116788 C 68.6481732 32.0875904 62.43503424000001 33.7226272 55.73138624 33.9562024" />
<path class="stroke" d="M 55.73138624 33.9562024 L 55.73138624 59.6496336 C 55.73138624 66.89050879999999 54.58685992 78.80292 51.15328432 87.678824" />
<path class="stroke" d="M 55.73138624 47.503648 L 90.3941576 47.503648" />
<path class="stroke" d="M 73.06277248 47.503648 L 73.06277248 92.116784" />
</svg>
