<?xml version="1.0" standalone="no"?>
<!DOCTYPE svg PUBLIC "-//W3C//DTD SVG 1.1//EN" "http://www.w3.org/Graphics/SVG/1.1/DTD/svg11.dtd">
<svg xmlns="http://www.w3.org/2000/svg" version="1.1" width="100%" height="100%">
<style type="text/css"><![CDATA[
  .stroke { fill:none; stroke:black; stroke-width:2 }
]]></style>
<path class="stroke" d="M 15.52116768 9.854013 L 15.4953024 55.63759 C 12.209395679999998 80.20134 12.209395679999998 79.39597 8.536912319999999 89.865776" />
<path class="stroke" d="M 15.52116768 9.854013 L 35.1416064 9.854013 L 35.1416064 86.05839 C 35.1416064 88.39416 34.5810192 90.43795 33.17956032 90.43795 L 31.637956799999998 90.43795" />
<path class="stroke" d="M 15.52116768 31.862577 L 35.1416064 31.862577" />
<path class="stroke" d="M 15.52116768 55.110336 L 35.1416064 55.110336" />
<path class="stroke" d="M 54.1204377 10.145985 L 54.1204377 52.77372" />
<path class="stroke" d="M 54.1204377 10.145985 L 83.726275 10.145985" />
<path class="stroke" d="M 54.1204377 24.160583 L 80.5 24.160583" />
<path class="stroke" d="M 54.1204377 39.343063 L 80.5 39.343063" />
<path class="stroke" d="M 41.2153273 52.48175 L 93.594887 52.48175" />
<path class="stroke" d="M 53.74087475 52.77372 L 53.74087475 89.56204 C 58.295618450000006 88.10219 61.901459 86.642334 65.50729695 81.9708" />
<path class="stroke" d="M 79.74087475 59.197075 C 78.60218850000001 64.74452 75.945255 68.832115 72.71897870000001 71.45985" />
<path class="stroke" d="M 65.50729695 59.197075 C 72.352835 77.4448 78.032847 84.8905 92.456204 89.270065" />
</svg>
