<?xml version="1.0" standalone="no"?>
<!DOCTYPE svg PUBLIC "-//W3C//DTD SVG 1.1//EN" "http://www.w3.org/Graphics/SVG/1.1/DTD/svg11.dtd">
<svg xmlns="http://www.w3.org/2000/svg" version="1.1" width="100%" height="100%">
<style type="text/css"><![CDATA[
  .stroke { fill:none; stroke:black; stroke-width:2 }
]]></style>
<path class="stroke" d="M 20.770715441176474 11.605839 C 17.979818382352942 27.372261 12.183339705882354 41.970802 7.245597794117647 50.14598" />
<path class="stroke" d="M 16.477026470588235 30.583939 L 16.477026470588235 90.43795" />
<path class="stroke" d="M 74.77600000000001 8.880148 C 67.64243200000001 16.043122 52.029376000000006 22.878028 35.204992 25.694010000000002" />
<path class="stroke" d="M 57.7810208 22.6313867 C 53.109488 29.5802914 47.270072 35.78467005 41.430655200000004 41.2445252 L 53.45432 52.65925" />
<path class="stroke" d="M 71.0948856 37.02554595 C 64.15544 44.70010499999999 51.33704 56.70916 39.094888 68.0474392 L 78.102184 63.580289699999994" />
<path class="stroke" d="M 74.8321168 55.8868615 C 77.868608 59.6094875 79.9708 63.0839424 80.671528 68.0474392" />
<path class="stroke" d="M 59.883208 66.06204149999999 L 59.8684936 93.40958789999999" />
<path class="stroke" d="M 37.4598528 76.2372215 C 36.2919696 80.45619649999999 34.4233568 84.17882759999999 31.3868608 87.405108" />
<path class="stroke" d="M 80.671528 76.485396 C 83.708024 79.215324 85.57664 82.44160099999999 86.9781008 87.405108" />
</svg>
