<?xml version="1.0" standalone="no"?>
<!DOCTYPE svg PUBLIC "-//W3C//DTD SVG 1.1//EN" "http://www.w3.org/Graphics/SVG/1.1/DTD/svg11.dtd">
<svg xmlns="http://www.w3.org/2000/svg" version="1.1" width="100%" height="100%">
<style type="text/css"><![CDATA[
  .stroke { fill:none; stroke:black; stroke-width:2 }
]]></style>
<path class="stroke" d="M 13.649633 9.562042 L 13.649633 90.14598" />
<path class="stroke" d="M 13.649633 9.562042 L 38.17518 9.562042 L 38.17518 38.46715" />
<path class="stroke" d="M 13.649633 22.408756 L 37.88321 22.408756" />
<path class="stroke" d="M 13.649633 36.131386 L 38.17518 36.131386" />
<path class="stroke" d="M 62.408752 9.854013 L 62.408752 38.46715" />
<path class="stroke" d="M 62.408752 9.854013 L 86.642334 9.854013 L 86.642334 85.47445 C 86.642334 88.39416 84.306564 90.14598 81.678825 89.85401" />
<path class="stroke" d="M 62.408752 22.408756 L 86.642334 22.408756" />
<path class="stroke" d="M 62.408752 36.131386 L 86.642334 36.131386" />
<path class="stroke" d="M 45.60875712 46.40802846 C 41.3109472 50.743795500000004 34.0233568 55.27226175 26.548903680000002 58.162773" />
<path class="stroke" d="M 43.36642112 48.91313832 L 59.9970816 48.91313832 C 53.2700736 56.81386731 38.8817504 65.96715090000001 24.4934304 70.97736929999999" />
<path class="stroke" d="M 36.26569344 53.63430642 C 43.6 60.629032620000004 58.68904768 67.21970715 74.5722624 70.97736929999999" />
<path class="stroke" d="M 37.249050784000005 69.490875625 L 37.249050784000005 83.15510875" />
<path class="stroke" d="M 37.249050784000005 69.490875625 L 59.65372160000001 69.490875625 L 59.65372160000001 83.02372225" />
<path class="stroke" d="M 37.249050784000005 82.1040136 L 59.65372160000001 82.1040136" />
</svg>
