<?xml version="1.0" standalone="no"?>
<!DOCTYPE svg PUBLIC "-//W3C//DTD SVG 1.1//EN" "http://www.w3.org/Graphics/SVG/1.1/DTD/svg11.dtd">
<svg xmlns="http://www.w3.org/2000/svg" version="1.1" width="100%" height="100%">
<style type="text/css"><![CDATA[
  .stroke { fill:none; stroke:black; stroke-width:2 }
]]></style>
<path class="stroke" d="M 35.8759096 10.729925 C 30.036496 15.109488 23.029196 18.029196 16.722627199999998 19.781021" />
<path class="stroke" d="M 11.8175168 41.094887 L 39.145984 37.299267" />
<path class="stroke" d="M 27.0 16.569342 L 27.0 86.642334" />
<path class="stroke" d="M 27.0 44.890507 C 21.6277376 57.153282 17.18978 65.03649 11.116788 68.540146" />
<path class="stroke" d="M 27.0 44.890507 C 31.9051088 48.394157 34.7080264 51.313866 37.043792 56.277367" />
<path class="stroke" d="M 52.3564354 11.966054142857145 C 50.9306926 21.895332428571432 48.792079 32.20650385714286 45.940594 39.08062028571429" />
<path class="stroke" d="M 50.0396044 26.478075857142862 L 94.237624 26.478075857142862" />
<path class="stroke" d="M 70.0031722 32.14890476 L 70.0031722 86.2919652 C 70.0031722 87.8452494 69.03649419999999 88.732842 68.3357656 88.732842 L 67.109488 88.732842" />
<path class="stroke" d="M 56.0729914 52.3416024 C 55.197079 60.108027199999995 52.5693424 66.7649622 48.8905096 72.09051095999999" />
<path class="stroke" d="M 82.350364 52.3416024 C 85.85401300000001 57.0014588 88.83211359999999 63.21459788 90.5839384 72.53430384" />
</svg>
