<?xml version="1.0" standalone="no"?>
<!DOCTYPE svg PUBLIC "-//W3C//DTD SVG 1.1//EN" "http://www.w3.org/Graphics/SVG/1.1/DTD/svg11.dtd">
<svg xmlns="http://www.w3.org/2000/svg" version="1.1" width="100%" height="100%">
<style type="text/css"><![CDATA[
  .stroke { fill:none; stroke:black; stroke-width:2 }
]]></style>
<path class="stroke" d="M 50.6309 6.466883 L 50.6309 15.615143" />
<path class="stroke" d="M 6.151422 15.9306 L 94.794975 15.9306" />
<path class="stroke" d="M 31.388 16.2461 L 39.5899 34.858" />
<path class="stroke" d="M 69.5584 15.9306 L 60.4101 35.1735" />
<path class="stroke" d="M 13.0915 35.1735 L 13.0915 94.4795" />
<path class="stroke" d="M 13.0915 35.1735 L 85.9622 35.1735 L 85.9622 88.4858 C 86.0673 92.2713 83.9643 94.1641 81.2303 93.8486 L 76.183 93.8486" />
<path class="stroke" d="M 42.2043788 36.9124084 L 42.2043788 42.3430648 C 42.2043788 47.131386 37.6496348 51.8613128 26.2627736 53.087590000000006" />
<path class="stroke" d="M 52.540144399999996 36.8540146 L 52.540144399999996 50.635036 C 52.540144399999996 52.09489000000001 54.8175188 52.970802000000006 57.270069799999995 52.970802000000006 L 70.93430000000001 52.970802000000006 C 72.861314 53.029196 74.26276999999999 52.562042000000005 74.26276999999999 51.919706000000005 L 74.26276999999999 50.8102188" />
</svg>
