<?xml version="1.0" standalone="no"?>
<!DOCTYPE svg PUBLIC "-//W3C//DTD SVG 1.1//EN" "http://www.w3.org/Graphics/SVG/1.1/DTD/svg11.dtd">
<svg xmlns="http://www.w3.org/2000/svg" version="1.1" width="100%" height="100%">
<style type="text/css"><![CDATA[
  .stroke { fill:none; stroke:black; stroke-width:2 }
]]></style>
<path class="stroke" d="M 13.154171785714285 14.059406 C 16.654879285714284 16.138615 20.15558785714286 19.108912 23.01980357142857 22.673267" />
<path class="stroke" d="M 10.926448928571428 38.118813 C 14.108912142857141 39.90099 17.927864999999997 42.574257 20.473834285714286 46.138615" />
<path class="stroke" d="M 10.608203571428572 85.64356 C 11.321795357142857 87.422676 13.310014285714285 89.896904 15.629600357142856 89.896904 C 17.949189642857142 89.896904 21.110325 76.73267 23.33804892857143 69.60396" />
<path class="stroke" d="M 33.9085002 8.044167 L 90.0410262 8.044167 L 90.0410262 33.280758" />
<path class="stroke" d="M 33.9085002 33.280758 L 90.0410262 33.280758" />
<path class="stroke" d="M 33.9085002 8.044167 L 33.9085002 58.20186 C 33.9947642 72.92316 32.2702222 81.01996 23.0441644 94.164055" />
<path class="stroke" d="M 72.45693000499999 53.990099799999996 C 63.68861486 58.0891084 57.47772371 59.158417 46.026640805 60.6058378" />
<path class="stroke" d="M 45.7493822 42.940594 L 45.7493822 82.50494799999998 C 45.7493822 87.67326639999999 49.44009806 90.5247544 54.55495097 90.5247544 L 81.40792228999999 90.5247544 C 83.78267345 90.5247544 85.06138514 89.63366199999999 85.06138514 87.316834 L 85.06138514 85.712872" />
</svg>
