<?xml version="1.0" standalone="no"?>
<!DOCTYPE svg PUBLIC "-//W3C//DTD SVG 1.1//EN" "http://www.w3.org/Graphics/SVG/1.1/DTD/svg11.dtd">
<svg xmlns="http://www.w3.org/2000/svg" version="1.1" width="100%" height="100%">
<style type="text/css"><![CDATA[
  .stroke { fill:none; stroke:black; stroke-width:2 }
]]></style>
<path class="stroke" d="M 27.918 5.5205 C 21.8192 17.8233 14.4585 30.7571 4.88959 40.5363" />
<path class="stroke" d="M 27.918 5.83596 C 34.0168 11.8296 38.2229 18.4543 42.7445 25.0789" />
<path class="stroke" d="M 12.1451 33.59624 L 40.2208 33.59624" />
<path class="stroke" d="M 6.782335 51.57724 L 44.006287 51.57724" />
<path class="stroke" d="M 27.287043 33.9117 L 27.287043 88.1703" />
<path class="stroke" d="M 6.46688 61.672 C 10.7781 65.878 14.143 70.3996 17.5079 75.2366" />
<path class="stroke" d="M 43.06 61.6719 C 40.7466 67.4553 37.4868 72.2923 33.2807 77.1294" />
<path class="stroke" d="M 8.04416 94.4795 L 42.7445 83.7539" />
<path class="stroke" d="M 74.693466 9.306931 C 75.47762256 12.574257 76.10494992 15.544554 76.10494992 19.108912" />
<path class="stroke" d="M 59.760875184 19.197079 L 90.9013104 19.197079" />
<path class="stroke" d="M 59.760875184 19.197079 L 59.760875184 36.131386 C 59.760875184 56.861313 56.36934216 72.62773 48.252269328 93.8404" />
<path class="stroke" d="M 76.00032788600001 30.597078879999998 C 73.52733521 50.4102169 67.62647255 72.598444 60.667772956 88.44233440000001 C 71.0543421105 85.937224 80.0807660555 84.798541 89.96330245000001 84.96511000000001" />
<path class="stroke" d="M 85.15040070250001 70.67882656 C 87.99434084 75.00583599999999 90.467333516 81.61021690000001 92.07478028 90.49196380000001" />
</svg>
