<?xml version="1.0" standalone="no"?>
<!DOCTYPE svg PUBLIC "-//W3C//DTD SVG 1.1//EN" "http://www.w3.org/Graphics/SVG/1.1/DTD/svg11.dtd">
<svg xmlns="http://www.w3.org/2000/svg" version="1.1" width="100%" height="100%">
<style type="text/css"><![CDATA[
  .stroke { fill:none; stroke:black; stroke-width:2 }
]]></style>
<path class="stroke" d="M 29.2776125364 7.3065688 C 26.714692853999995 14.9270065 20.599253369999996 23.460939999999997 13.3875101544 29.554744 C 24.151772732700003 28.59124 33.5064302757 28.153284999999997 43.74833163 28.21735" />
<path class="stroke" d="M 38.7604152735 22.7226256 C 41.707771416 24.38686 44.27069109839999 26.9270065 45.936590472 30.343062999999997" />
<path class="stroke" d="M 18.431386619999998 43.71532754 L 18.431386619999998 73.35036199999999 C 18.431386619999998 79.92079340000001 18.431386619999998 82.67722599999999 18.431386619999998 89.05148747999999" />
<path class="stroke" d="M 18.431386619999998 43.71532754 L 41.730657599999994 43.71532754 L 41.730657599999994 87.9138662 C 41.730657599999994 89.2686128 41.064960299999996 90.454011 39.40072788 90.454011 L 37.570073699999995 90.454011" />
<path class="stroke" d="M 18.431386619999998 56.48029466 L 41.730657599999994 56.48029466" />
<path class="stroke" d="M 18.431386619999998 69.96399488 L 41.730657599999994 69.96399488" />
<path class="stroke" d="M 79.79702911 16.74257485 C 72.24059492 19.8168313 66.88811962 20.61881275 57.01970671 21.704378350000002" />
<path class="stroke" d="M 56.7807684 8.4554455 L 56.7807684 38.128710999999996 C 56.7807684 42.0049498 59.96138532 44.143565800000005 64.36930734 44.143565800000005 L 87.51089238 44.143565800000005 C 89.5574259 44.143565800000005 90.65940508 43.4752465 90.65940508 41.7376255 L 90.65940508 40.534654" />
<path class="stroke" d="M 79.79702911 64.74257485 C 72.24059492 67.8168313 66.88811962 68.61881275 57.01970671 69.70437835" />
<path class="stroke" d="M 56.7807684 56.4554455 L 56.7807684 86.128711 C 56.7807684 90.00494979999999 59.96138532 92.1435658 64.36930734 92.1435658 L 87.51089238 92.1435658 C 89.5574259 92.1435658 90.65940508 91.4752465 90.65940508 89.73762550000001 L 90.65940508 88.534654" />
</svg>
