<?xml version="1.0" standalone="no"?>
<!DOCTYPE svg PUBLIC "-//W3C//DTD SVG 1.1//EN" "http://www.w3.org/Graphics/SVG/1.1/DTD/svg11.dtd">
<svg xmlns="http://www.w3.org/2000/svg" version="1.1" width="100%" height="100%">
<style type="text/css"><![CDATA[
  .stroke { fill:none; stroke:black; stroke-width:2 }
]]></style>
<path class="stroke" d="M 26.788319 9.437550694444443 C 24.452553 14.912002777777777 21.824816 18.35887986111111 16.861313 20.994727083333334" />
<path class="stroke" d="M 24.452553 15.520274999999998 L 47.226276 15.520274999999998" />
<path class="stroke" d="M 30.0 15.925790277777777 C 34.08759 19.169911111111112 35.547443 21.805758333333333 36.423355 26.6719375" />
<path class="stroke" d="M 65.32846 9.437550694444443 C 63.284668 16.12854652777778 60.07299 18.967152083333332 57.44525 20.994727083333334" />
<path class="stroke" d="M 62.9927 15.723032638888888 L 86.35036 15.723032638888888" />
<path class="stroke" d="M 72.62773 16.12854652777778 C 72.9197 20.589211805555557 71.16788 23.630574305555555 67.9562 26.6719375" />
<path class="stroke" d="M 8.350785 40.117799500000004 L 41.96335 40.117799500000004" />
<path class="stroke" d="M 11.4963495 51.0036475 L 11.350365 72.0255475" />
<path class="stroke" d="M 11.350365 51.0036475 L 38.64963 51.0036475 L 38.64963 72.0255475" />
<path class="stroke" d="M 11.350365 61.477180000000004 L 38.503645 61.477180000000004" />
<path class="stroke" d="M 11.350365 72.244525 L 38.64963 72.244525" />
<path class="stroke" d="M 7.554744 83.19343 L 42.44525 83.19343" />
<path class="stroke" d="M 25.092815 31.733576499999998 L 25.092815 93.04744000000001" />
<path class="stroke" d="M 57.492097 32.45270725 L 87.36558500000001 32.45270725 L 87.36558500000001 58.95110725 C 87.3376925 61.056208 86.265785 62.49995725 83.83512 62.49995725 L 78.675145 62.49995725" />
<path class="stroke" d="M 57.4920105 32.68925725 L 57.4920105 91.127755 C 57.572935 93.7655875 59.39305 95.21008 61.8372315 95.149855 L 88.9949225 95.149855 C 91.62024 95.149855 93.702325 93.73033 93.611845 91.127755 L 93.611845 86.63248" />
</svg>
