<?xml version="1.0" standalone="no"?>
<!DOCTYPE svg PUBLIC "-//W3C//DTD SVG 1.1//EN" "http://www.w3.org/Graphics/SVG/1.1/DTD/svg11.dtd">
<svg xmlns="http://www.w3.org/2000/svg" version="1.1" width="100%" height="100%">
<style type="text/css"><![CDATA[
  .stroke { fill:none; stroke:black; stroke-width:2 }
]]></style>
<path class="stroke" d="M 8.946819428571429 27.956203 L 28.46715257142857 27.956203" />
<path class="stroke" d="M 20.45880857142857 9.270073 L 20.45880857142857 90.14598" />
<path class="stroke" d="M 20.45880857142857 36.131386 C 17.20542 44.598537 13.20125057142857 52.48175 7.4452551428571425 56.861313" />
<path class="stroke" d="M 20.45880857142857 36.131386 C 24.212719714285715 37.299267 26.71532657142857 42.26277 27.96663 46.934303" />
<path class="stroke" d="M 44.5823707949 6.84306507 C 42.3364441031 11.39780955 39.0210283709 14.47226262 36.347305769900004 17.20510845 C 38.9140801262 19.2547437 41.8016995829 21.759854100000002 44.5823707949 24.83430483" />
<path class="stroke" d="M 52.282691666 14.8138683 C 46.5074509211 24.37883007 39.3418749365 31.666423499999997 32.3901961739 37.018245300000004 C 40.9461084971 35.4240852 48.753377612899996 34.85474175 56.453698484 34.85474175" />
<path class="stroke" d="M 54.314718938 30.983209799999997 C 55.75462226 32.629314 57.48795386 35.499987 57.844034089999994 38.0430639" />
<path class="stroke" d="M 81.2123707949 6.84306507 C 78.9664441031 11.39780955 75.65102837089998 14.47226262 72.9773057699 17.20510845 C 75.5440801262 19.2547437 78.4316995829 21.759854100000002 81.2123707949 24.83430483" />
<path class="stroke" d="M 88.912691666 14.8138683 C 83.1374509211 24.37883007 75.9718749365 31.666423499999997 69.0201961739 37.018245300000004 C 77.57610849710001 35.4240852 85.3833776129 34.85474175 93.083698484 34.85474175" />
<path class="stroke" d="M 90.944718938 30.983209799999997 C 92.38462226 32.629314 94.11795386 35.499987 94.47403409 38.0430639" />
<path class="stroke" d="M 29.7 50.49315 L 96.3 50.49315" />
<path class="stroke" d="M 62.87835658 10.054794 L 62.87835658 37.0137 C 61.41863036 59.369865 82.997908 93.0074 92.413224 93.2176 L 92.413224 82.4922" />
<path class="stroke" d="M 89.88328684000001 59.369865 C 86.343818 68.82226 75.13873799999999 86.38276 59.264924 92.586754" />
<path class="stroke" d="M 83.8010966 37.0137 C 86.9638344 40.958904 86.4772622 38.9863 88.18027599999999 45.56164" />
<path class="stroke" d="M 41.29795488 56.188659 C 40.44319124 69.608004 35.1669794 80.234774 28.299122132 85.04399699999999" />
<path class="stroke" d="M 40.05997188 65.264167 C 42.47702648 72.788265 46.9278882 80.428691 51.99772736 85.04399699999999" />
</svg>
