<?xml version="1.0" standalone="no"?>
<!DOCTYPE svg PUBLIC "-//W3C//DTD SVG 1.1//EN" "http://www.w3.org/Graphics/SVG/1.1/DTD/svg11.dtd">
<svg xmlns="http://www.w3.org/2000/svg" version="1.1" width="100%" height="100%">
<style type="text/css"><![CDATA[
  .stroke { fill:none; stroke:black; stroke-width:2 }
]]></style>
<path class="stroke" d="M 12.189779 10.2007295 L 87.81021 10.2007295" />
<path class="stroke" d="M 34.67153 5.45620335 L 34.67153 15.324816649999999" />
<path class="stroke" d="M 65.32846 5.45620335 L 65.32846 15.324816649999999" />
<path class="stroke" d="M 24.744522 25.0189778 L 24.744522 51.5065664" />
<path class="stroke" d="M 24.744522 25.0189778 L 74.9635 25.0189778 L 74.9635 51.5065664" />
<path class="stroke" d="M 25.036495 37.54123147999999 L 74.67153 37.54123147999999" />
<path class="stroke" d="M 24.744522 50.35036304 L 74.9635 50.35036304" />
<path class="stroke" d="M 15.401459 68.69270026 L 84.8905 68.69270026" />
<path class="stroke" d="M 49.43925 58.90747639 L 49.065422 59.0457946 C 45.126904 70.3446696 33.364487 74.39906669999999 6.074766 81.45327209999999" />
<path class="stroke" d="M 58.037384 68.72803674 C 66.26168 73.43084108 72.990654 77.58037406 89.81309 81.72990630000001" />
<path class="stroke" d="M 43.031528 75.157715 L 43.031528 93.45426499999999 C 42.95368 95.399565 40.774972000000005 96.398515 38.59619000000001 96.451115 L 35.328053999999995 96.451115" />
<path class="stroke" d="M 30.4258648 83.51735 C 28.7917968 87.25025 25.523660800000002 91.2986 19.454262200000002 93.7697" />
<path class="stroke" d="M 55.1703844 83.35962 C 59.839118400000004 86.67192 62.4069184 89.82652 64.2744564 93.76972" />
<path class="stroke" d="M 66.375383 82.09778 C 70.343929 84.726578 73.14512500000001 87.51312999999999 75.479529 91.08838" />
</svg>
