<?xml version="1.0" standalone="no"?>
<!DOCTYPE svg PUBLIC "-//W3C//DTD SVG 1.1//EN" "http://www.w3.org/Graphics/SVG/1.1/DTD/svg11.dtd">
<svg xmlns="http://www.w3.org/2000/svg" version="1.1" width="100%" height="100%">
<style type="text/css"><![CDATA[
  .stroke { fill:none; stroke:black; stroke-width:2 }
]]></style>
<path class="stroke" d="M 25.15773 6.2397528 L 25.15773 20.75083" />
<path class="stroke" d="M 25.31546 11.173538 L 36.260273 11.065205240000001" />
<path class="stroke" d="M 8.5962 21.331258000000002 L 8.5962 52.384846 C 8.4385 66.21870200000001 6.8612 75.98947000000001 3.391165 84.599382" />
<path class="stroke" d="M 8.5962 21.331258000000002 L 46.13565 21.331258000000002 L 46.13565 25.394346000000002 C 46.0831 28.39327 45.5573 29.941170000000003 44.40065 30.908549999999998" />
<path class="stroke" d="M 13.2465745 38.589589520000004 L 34.945205 32.54027120000001" />
<path class="stroke" d="M 21.529972 25.684652 L 21.4657535 42.521642840000005 C 21.3013685 47.361094 20.80822 47.361094 22.78082 47.96602712 L 38.232875 47.96602712 C 39.219177 47.05862928 39.38356 44.63890232000001 39.38356 41.9167088 L 39.38356 38.2871248" />
<path class="stroke" d="M 12.7129348 58.470032 L 47.665622000000006 58.470032" />
<path class="stroke" d="M 30.630920000000003 58.470032 C 26.08832 63.6856 19.653 67.1346 14.10096 69.1956" />
<path class="stroke" d="M 25.583600000000004 63.1388 C 31.303880000000003 67.34492 33.49104 85.55732 29.873800000000003 91.65616 C 28.56992 93.59096 25.75184 92.245 24.57416 91.90852000000001" />
<path class="stroke" d="M 29.49528 69.32176 C 24.868560000000002 73.73812000000001 20.11568 76.13572 13.596216 78.91168" />
<path class="stroke" d="M 31.00948 76.64036 C 27.68664 81.05684 19.821240000000003 85.59936 13.470032 88.2492" />
<path class="stroke" d="M 43.375388 63.8959 C 40.809668 67.17666 37.739228000000004 69.95266000000001 34.794948000000005 72.09782" />
<path class="stroke" d="M 31.135632 75.126176 C 35.930592000000004 80.2576172 40.599392 85.389096 46.403792 88.62777600000001" />
</svg>
