<?xml version="1.0" standalone="no"?>
<!DOCTYPE svg PUBLIC "-//W3C//DTD SVG 1.1//EN" "http://www.w3.org/Graphics/SVG/1.1/DTD/svg11.dtd">
<svg xmlns="http://www.w3.org/2000/svg" version="1.1" width="100%" height="100%">
<style type="text/css"><![CDATA[
  .stroke { fill:none; stroke:black; stroke-width:2 }
]]></style>
<path class="stroke" d="M 45.405539839999996 5.367507499999999 L 22.63808576 9.673504999999999" />
<path class="stroke" d="M 22.63808576 9.673504999999999 L 22.63808576 32.63879 M 13.9890224 34.736585 L 44.76957248 28.55359" />
<path class="stroke" d="M 34.721384959999995 19.38961 C 40.99622527999999 22.922719999999998 45.4903328 28.111994999999997 48.45816704 34.294954999999995" />
<path class="stroke" d="M 64.89243708800001 8.8211675 L 86.20023257599999 8.0036494 C 85.729339328 15.667882899999999 84.787560896 20.164232799999997 83.49261152 25.989051099999998 C 82.78627366399999 28.748174249999998 81.4913267072 32.937956 79.019151872 32.937956 L 77.72420330239999 32.937956" />
<path class="stroke" d="M 72.19123928959999 8.61678745 L 71.01401504 14.8503634 C 69.13045132159999 22.821165399999998 65.7164956352 27.93065475 62.773429568000005 32.22262599999999" />
<path class="stroke" d="M 27.080292 44.81386767 L 27.080292 83.4007273" />
<path class="stroke" d="M 27.372261 44.81386767 L 72.9197 44.81386767 L 72.9197 83.4007273" />
<path class="stroke" d="M 27.382198 57.9851498 L 72.871284 57.9851498" />
<path class="stroke" d="M 27.382198 70.95346603 L 72.871284 70.95346603" />
<path class="stroke" d="M 27.372261 83.228465 L 72.62773 83.228465" />
<path class="stroke" d="M 33.211678 87.36277199999999 C 30.875912 90.291237 21.39527 92.2758731 17.015707 92.96491935" />
<path class="stroke" d="M 63.82199 87.40471215 C 66.335075 88.8874323 75.75916 93.33560514 84.86911 93.15026254" />
</svg>
