<?xml version="1.0" standalone="no"?>
<!DOCTYPE svg PUBLIC "-//W3C//DTD SVG 1.1//EN" "http://www.w3.org/Graphics/SVG/1.1/DTD/svg11.dtd">
<svg xmlns="http://www.w3.org/2000/svg" version="1.1" width="100%" height="100%">
<style type="text/css"><![CDATA[
  .stroke { fill:none; stroke:black; stroke-width:2 }
]]></style>
<path class="stroke" d="M 82.376236 5.5005500000000005 C 63.960396 7.975797777777778 35.742573 9.130913333333334 19.108912 9.130913333333334" />
<path class="stroke" d="M 20.891088 13.42134277777778 C 25.346535 15.731573888888889 28.0231 18.255611111111115 30.09901 20.84708555555556" />
<path class="stroke" d="M 43.465347 12.596259444444444 C 47.623764 14.411441111111111 50.29703 16.721672222222224 52.07921 19.691969444444446" />
<path class="stroke" d="M 80.89109 11.606160000000001 C 78.514854 15.566556666666667 74.95049 18.536853888888892 69.90099 20.682067777777778" />
<path class="stroke" d="M 13.649633 24.295619416666668 L 13.649633 36.233982166666664" />
<path class="stroke" d="M 13.649633 24.295619416666668 L 86.642334 24.295619416666668 L 86.642334 36.233982166666664" />
<path class="stroke" d="M 36.75083 24.295619416666668 L 36.75083 36.233982166666664" />
<path class="stroke" d="M 63.249256 24.295619416666668 L 63.249256 36.233982166666664" />
<path class="stroke" d="M 13.649633 36.23959416666666 L 86.83168 36.23959416666666" />
<path class="stroke" d="M 11.277595 45.583594 L 39.511045 45.583594 L 39.511045 73.40692" />
<path class="stroke" d="M 11.750795 59.96848 L 39.195595 59.96848" />
<path class="stroke" d="M 11.593045 73.40692 L 39.511045 73.40692" />
<path class="stroke" d="M 11.277595 45.583594 L 11.277595 92.1451 M 4.022085 94.22710000000001 L 38.2492 86.65618" />
<path class="stroke" d="M 32.88643 81.92430999999999 C 37.46053 83.81694999999999 40.29968 88.35961 41.24603 93.28075" />
<path class="stroke" d="M 55.218978 56.9489038 L 94.6350325 56.9489038" />
<path class="stroke" d="M 82.81022 46.9635034 L 82.81022 91.459852 C 82.81022 93.036496 82.226275 94.087588 80.912407 94.087588 L 76.9708025 94.087588" />
<path class="stroke" d="M 63.248175 63.6058378 C 65.0 65.1824812 66.605839 67.4598532 67.9197065 71.3138662" />
</svg>
