<?xml version="1.0" standalone="no"?>
<!DOCTYPE svg PUBLIC "-//W3C//DTD SVG 1.1//EN" "http://www.w3.org/Graphics/SVG/1.1/DTD/svg11.dtd">
<svg xmlns="http://www.w3.org/2000/svg" version="1.1" width="100%" height="100%">
<style type="text/css"><![CDATA[
  .stroke { fill:none; stroke:black; stroke-width:2 }
]]></style>
<path class="stroke" d="M 50.0 4.804442200000004 L 50.0 19.0" />
<path class="stroke" d="M 7.5 19.0 L 92.5 19.0" />
<path class="stroke" d="M 16.687696 24.7823356 L 16.687696 55.558372 L 83.31232 55.558372" />
<path class="stroke" d="M 83.31232 24.5552044 L 83.31232 55.558372" />
<path class="stroke" d="M 72.80875520000001 26.72204368 C 67.01789600000001 34.6567936 45.701384 45.74070400000001 27.51824728 49.8461296" />
<path class="stroke" d="M 35.693429679999994 29.244670816 C 46.172456000000004 31.9615168 62.483744 40.16848 71.37542400000001 46.649228799999996" />
<path class="stroke" d="M 8.35962 65.501576 L 8.35962 93.817048" />
<path class="stroke" d="M 8.35962 65.501576 L 91.3249 65.501576 L 91.3249 89.741332 C 91.4301 92.02946400000002 89.327 93.45950400000001 86.9085 93.388036 L 82.1767 93.388036" />
<path class="stroke" d="M 49.3691 55.419542400000005 L 49.3691 80.94640240000001 M 25.0789 86.3090932 C 39.5899 82.0189052 55.9936 79.8737772 71.1356 79.0157532" />
<path class="stroke" d="M 65.7729 74.0820132 C 70.715 77.5141772 73.4491 81.1608132 74.6057 85.2365972" />
</svg>
