<?xml version="1.0" standalone="no"?>
<!DOCTYPE svg PUBLIC "-//W3C//DTD SVG 1.1//EN" "http://www.w3.org/Graphics/SVG/1.1/DTD/svg11.dtd">
<svg xmlns="http://www.w3.org/2000/svg" version="1.1" width="100%" height="100%">
<style type="text/css"><![CDATA[
  .stroke { fill:none; stroke:black; stroke-width:2 }
]]></style>
<path class="stroke" d="M 41.094887 10.729925 C 33.79562 15.109488 25.036495 18.029196 17.153284 19.781021" />
<path class="stroke" d="M 11.021896 41.094887 L 45.18248 37.299267" />
<path class="stroke" d="M 30.0 16.569342 L 30.0 86.642334" />
<path class="stroke" d="M 30.0 44.890507 C 23.284672 57.153282 17.737225 65.03649 10.145985 68.540146" />
<path class="stroke" d="M 30.0 44.890507 C 36.131386 48.394157 39.635033 51.313866 42.55474 56.277367" />
<path class="stroke" d="M 71.92956065 9.97153265 C 70.65802795 18.69853947 67.62591213 23.27664083 63.51788284 27.425546779999998" />
<path class="stroke" d="M 71.6361308 12.9759113 L 84.05802795 12.9759113 C 82.8843052 25.851822600000002 73.59233516 42.30437914 60.77919687 49.0284649" />
<path class="stroke" d="M 70.07116825 22.41824707 C 73.126467075 24.3459742 75.548539855 26.85328313 77.70036378 31.43138645" />
<path class="stroke" d="M 74.3839399 50.97153265 C 72.8277357 59.69853947 69.11678798 64.27664083 64.08905064 68.42554677999999" />
<path class="stroke" d="M 74.0248168 53.9759113 L 89.2277357 53.9759113 C 87.7912392 66.8518226 76.41897736 83.30437914000001 60.73722602 90.0284649" />
<path class="stroke" d="M 72.1094895 63.41824707 C 75.84881045 65.3459742 78.81313833 67.85328313 81.44671388 72.43138645" />
</svg>
