<?xml version="1.0" standalone="no"?>
<!DOCTYPE svg PUBLIC "-//W3C//DTD SVG 1.1//EN" "http://www.w3.org/Graphics/SVG/1.1/DTD/svg11.dtd">
<svg xmlns="http://www.w3.org/2000/svg" version="1.1" width="100%" height="100%">
<style type="text/css"><![CDATA[
  .stroke { fill:none; stroke:black; stroke-width:2 }
]]></style>
<path class="stroke" d="M 17.76438511627907 13.941605 C 20.616192441860466 17.153284 22.042098139534883 21.240875 22.75504895348837 25.912407" />
<path class="stroke" d="M 10.159564360465117 29.416058 L 31.072820930232556 27.66423 C 26.795107906976746 39.927006 16.813782674418604 50.729923 8.25835988372093 57.44525" />
<path class="stroke" d="M 22.042098139534883 45.18248 L 22.042098139534883 89.56204" />
<path class="stroke" d="M 24.65625465116279 44.014595 C 27.983362790697672 46.642334 29.64691686046512 50.14598 31.072820930232556 54.233574" />
<path class="stroke" d="M 50.867490000000004 8.04416 L 50.867490000000004 44.6373" />
<path class="stroke" d="M 50.867490000000004 8.04416 L 79.79499 8.04416 L 79.79499 44.6373" />
<path class="stroke" d="M 64.999972 25.3943 L 64.999972 44.6373" />
<path class="stroke" d="M 64.999972 25.3943 L 79.57418200000001 25.3943" />
<path class="stroke" d="M 39.60568 45.2681 L 39.60568 92.9022" />
<path class="stroke" d="M 39.60568 45.2681 L 90.39432 45.2681 L 90.39432 86.9085 C 90.32068 90.2734 88.48051999999998 92.3764 86.86113999999999 92.2713 L 83.76965999999999 92.2713" />
<path class="stroke" d="M 53.958991 58.51736 L 53.958991 81.86116" />
<path class="stroke" d="M 53.958991 58.51736 L 76.04098099999999 58.51736 L 76.04098099999999 81.86116" />
<path class="stroke" d="M 53.958991 81.86116 L 76.04098099999999 81.86116" />
</svg>
