<?xml version="1.0" standalone="no"?>
<!DOCTYPE svg PUBLIC "-//W3C//DTD SVG 1.1//EN" "http://www.w3.org/Graphics/SVG/1.1/DTD/svg11.dtd">
<svg xmlns="http://www.w3.org/2000/svg" version="1.1" width="100%" height="100%">
<style type="text/css"><![CDATA[
  .stroke { fill:none; stroke:black; stroke-width:2 }
]]></style>
<path class="stroke" d="M 6.46688 7.505710344827586 L 93.5331 7.505710344827586" />
<path class="stroke" d="M 14.6688 18.818655172413795 L 14.6688 33.830103448275864" />
<path class="stroke" d="M 14.6688 18.818655172413795 L 84.7003 18.818655172413795 L 84.7003 33.830103448275864" />
<path class="stroke" d="M 37.06627 7.723241379310346 L 37.06627 33.39496551724138" />
<path class="stroke" d="M 61.67194 7.723300000000001 L 61.67194 33.17743793103448" />
<path class="stroke" d="M 14.6688 33.830103448275864 L 84.7003 33.830103448275864" />
<path class="stroke" d="M 15.401459 54.8029192 L 84.8905 54.8029192" />
<path class="stroke" d="M 49.43925 44.2242988 L 49.065422 44.373832 C 45.126904 56.588832 33.364487 60.971964 6.074766 68.59813199999999" />
<path class="stroke" d="M 58.037384 54.8411208 C 66.26168 59.9252336 72.990654 64.4112152 89.81309 68.89719600000001" />
<path class="stroke" d="M 25.4653465 68.358416 L 62.475249500000004 68.358416 L 62.475249500000004 77.1029696" />
<path class="stroke" d="M 25.6732668 77.133376 L 62.475249500000004 77.133376" />
<path class="stroke" d="M 25.6732668 77.1029696 L 25.6732668 90.9801984 C 25.6732668 92.4059392 27.960395 93.8316832 31.4950506 93.8316832 L 71.207921 93.8316832 C 74.326729 93.8316832 77.029702 92.7861376 77.029702 91.4554464 L 77.029702 89.7445568" />
</svg>
