<?xml version="1.0" standalone="no"?>
<!DOCTYPE svg PUBLIC "-//W3C//DTD SVG 1.1//EN" "http://www.w3.org/Graphics/SVG/1.1/DTD/svg11.dtd">
<svg xmlns="http://www.w3.org/2000/svg" version="1.1" width="100%" height="100%">
<style type="text/css"><![CDATA[
  .stroke { fill:none; stroke:black; stroke-width:2 }
]]></style>
<path class="stroke" d="M 50.5 6.151438666666671 L 50.5 16.666666666666668" />
<path class="stroke" d="M 14.375 16.666666666666668 L 86.625 16.666666666666668" />
<path class="stroke" d="M 48.1423346 17.755474000000003 C 43.178830999999995 24.10583875 31.335304999999998 31.217449999999996 17.3686116 36.29562 C 38.21532655 35.4927 56.33211605 35.1277375 76.167195 35.181125" />
<path class="stroke" d="M 66.50729774999999 30.602188 C 72.215324 31.98905 77.17882759999999 34.105838750000004 80.405108 36.9525525" />
<path class="stroke" d="M 32.335766 44.109488060000004 L 32.335766 75.788318 C 32.335766 82.8118826 32.335766 85.758414 32.335766 92.57227972000001" />
<path class="stroke" d="M 32.335766 44.109488060000004 L 73.21168 44.109488060000004 L 73.21168 91.35620180000001 C 73.21168 92.8043792 72.04379 94.071529 69.124084 94.071529 L 65.91241 94.071529" />
<path class="stroke" d="M 32.335766 57.75479774 L 73.21168 57.75479774" />
<path class="stroke" d="M 32.335766 72.16840832 L 73.21168 72.16840832" />
</svg>
