<?xml version="1.0" standalone="no"?>
<!DOCTYPE svg PUBLIC "-//W3C//DTD SVG 1.1//EN" "http://www.w3.org/Graphics/SVG/1.1/DTD/svg11.dtd">
<svg xmlns="http://www.w3.org/2000/svg" version="1.1" width="100%" height="100%">
<style type="text/css"><![CDATA[
  .stroke { fill:none; stroke:black; stroke-width:2 }
]]></style>
<path class="stroke" d="M 10.437956 27.956203 L 33.211678 27.956203" />
<path class="stroke" d="M 23.86861 9.270073 L 23.86861 90.14598" />
<path class="stroke" d="M 23.86861 36.131386 C 20.07299 44.598537 15.401459 52.48175 8.686131 56.861313" />
<path class="stroke" d="M 23.86861 36.131386 C 28.248173 37.299267 31.167881 42.26277 32.627735 46.934303" />
<path class="stroke" d="M 85.1277809 7.3911675 C 73.4537229 10.125142499999999 60.0478749 11.5972925 46.6419659 11.8075925" />
<path class="stroke" d="M 39.13722252 22.05995 L 92.0552337 22.05995" />
<path class="stroke" d="M 60.111992 11.334399999999999 C 59.791253999999995 26.8444 54.659812 34.94115 39.522082499999996 40.9874" />
<path class="stroke" d="M 72.812314 22.21765 C 75.891167 30.9453 81.27917500000001 36.83385 91.285493 41.1451" />
<path class="stroke" d="M 53.954285999999996 33.731865 L 53.954285999999996 49.504765" />
<path class="stroke" d="M 53.954285999999996 33.731865 L 77.623018 33.731865 L 77.623018 49.504765" />
<path class="stroke" d="M 53.954285999999996 49.504765 L 77.623018 49.504765" />
<path class="stroke" d="M 46.8883205 59.15985385 L 46.8883205 92.07955949999999" />
<path class="stroke" d="M 46.8883205 59.15985385 L 84.1116795 59.15985385 L 84.1116795 90.28393990000001 C 84.1116795 91.3613133 83.57736829999999 91.9598518 81.9744469 91.9598518 L 80.19342685000001 91.9598518" />
<path class="stroke" d="M 53.905547122 67.56335735 L 53.905547122 82.5029189" />
<path class="stroke" d="M 53.905547122 67.56335735 L 77.2013128 67.56335735 L 77.2013128 82.35926966" />
<path class="stroke" d="M 53.905547122 81.353721536 L 77.2013128 81.353721536" />
</svg>
