<?xml version="1.0" standalone="no"?>
<!DOCTYPE svg PUBLIC "-//W3C//DTD SVG 1.1//EN" "http://www.w3.org/Graphics/SVG/1.1/DTD/svg11.dtd">
<svg xmlns="http://www.w3.org/2000/svg" version="1.1" width="100%" height="100%">
<style type="text/css"><![CDATA[
  .stroke { fill:none; stroke:black; stroke-width:2 }
]]></style>
<path class="stroke" d="M 13.154171785714285 14.059406 C 16.654879285714284 16.138615 20.15558785714286 19.108912 23.01980357142857 22.673267" />
<path class="stroke" d="M 10.926448928571428 38.118813 C 14.108912142857141 39.90099 17.927864999999997 42.574257 20.473834285714286 46.138615" />
<path class="stroke" d="M 10.608203571428572 85.64356 C 11.321795357142857 87.422676 13.310014285714285 89.896904 15.629600357142856 89.896904 C 17.949189642857142 89.896904 21.110325 76.73267 23.33804892857143 69.60396" />
<path class="stroke" d="M 36.238192749999996 32.01898 L 88.998445 32.01898" />
<path class="stroke" d="M 50.670347500000005 11.261809999999999 L 50.670347500000005 60.28391599999999" />
<path class="stroke" d="M 74.3296525 10.820179999999999 L 74.3296525 60.28386" />
<path class="stroke" d="M 29.85015775 60.725559999999994 L 95.62304125 60.725559999999994" />
<path class="stroke" d="M 48.777625 71.4196 C 46.5694 82.14519999999999 41.522125 87.94959999999999 35.764975 91.10416" />
<path class="stroke" d="M 74.32967500000001 71.41948000000001 C 77.32645000000001 82.01884 81.506275 87.31852 87.34225 91.10403999999998" />
</svg>
