<?xml version="1.0" standalone="no"?>
<!DOCTYPE svg PUBLIC "-//W3C//DTD SVG 1.1//EN" "http://www.w3.org/Graphics/SVG/1.1/DTD/svg11.dtd">
<svg xmlns="http://www.w3.org/2000/svg" version="1.1" width="100%" height="100%">
<style type="text/css"><![CDATA[
  .stroke { fill:none; stroke:black; stroke-width:2 }
]]></style>
<path class="stroke" d="M 22.2397 6.46687 C 22.2397 10.9884 19.7161 14.5636 16.5615 17.1924" />
<path class="stroke" d="M 9.30599 17.5079 L 9.30599 91.9558" />
<path class="stroke" d="M 9.62145 17.5079 L 33.9117 17.5079 L 33.9117 41.7981" />
<path class="stroke" d="M 9.62145 41.7981 L 33.9117 41.7981" />
<path class="stroke" d="M 9.62145 63.5647 L 34.5426 63.5647 L 34.5426 91.9558" />
<path class="stroke" d="M 9.30599 91.9558 L 34.5426 91.9558" />
<path class="stroke" d="M 45.7372252 9.5 L 94.26276999999999 9.5" />
<path class="stroke" d="M 50.642335 29.2700698 L 50.642335 67.897807" />
<path class="stroke" d="M 50.642335 29.2700698 L 89.70802599999999 29.2700698 L 89.70802599999999 65.795614 C 89.70802599999999 69.73721800000001 88.131382 72.102184 86.37955600000001 72.364957 L 84.802918 72.364957" />
<path class="stroke" d="M 70.087588 15.8686117 L 70.087588 88.131382" />
</svg>
