<?xml version="1.0" standalone="no"?>
<!DOCTYPE svg PUBLIC "-//W3C//DTD SVG 1.1//EN" "http://www.w3.org/Graphics/SVG/1.1/DTD/svg11.dtd">
<svg xmlns="http://www.w3.org/2000/svg" version="1.1" width="100%" height="100%">
<style type="text/css"><![CDATA[
  .stroke { fill:none; stroke:black; stroke-width:2 }
]]></style>
<path class="stroke" d="M 23.3211663 10.729925 C 19.6423344 18.029196 14.649633000000001 23.86861 9.9197064 28.540146 C 13.598539200000001 31.45985 18.065691 36.131386 22.2700698 40.218975" />
<path class="stroke" d="M 33.3065682 25.912407 C 27.0 34.67153 18.5912397 45.18248 8.0802918 56.277367 C 17.540145 54.525543 28.0510929 52.48175 37.510947 50.437954" />
<path class="stroke" d="M 34.357662 43.430653 C 36.9853983 46.642334 37.7737218 49.85401 39.3503634 55.40146" />
<path class="stroke" d="M 23.846715 54.233574 L 23.846715 89.56204" />
<path class="stroke" d="M 15.700727700000002 65.03649 C 14.124087 70.87591 12.2846697 74.67153 8.6058378 78.75912" />
<path class="stroke" d="M 30.678831 65.32846 C 33.5693403 68.540146 33.616215 68.81081 35.075672999999995 71.72973" />
<path class="stroke" d="M 83.27271393000001 2.2369855949999997 C 86.09732583 3.2953477949999996 87.73864243 4.700083244999999 88.73107233 6.6532422449999995" />
<path class="stroke" d="M 48.03627775 15.2980863 L 96.6167245 15.2980863" />
<path class="stroke" d="M 53.588338 26.8437881 L 53.588338 56.862803099999994" />
<path class="stroke" d="M 53.588338 26.8437881 L 91.06467800000001 26.8437881 L 91.06467800000001 56.862803099999994" />
<path class="stroke" d="M 53.7618245 41.083622 L 90.71769950000001 41.083622" />
<path class="stroke" d="M 53.588338 56.862803099999994 L 91.06467800000001 56.862803099999994" />
<path class="stroke" d="M 72.326475 4.3296519 L 72.326475 56.670342" />
<path class="stroke" d="M 50.7408758 69.86423266 L 94.09853575 69.86423266" />
<path class="stroke" d="M 81.091242 62.87445238 L 81.091242 94.0218964 C 81.091242 95.1255472 80.4489025 95.8613116 79.0036477 95.8613116 L 74.66788275 95.8613116" />
<path class="stroke" d="M 59.5729925 74.52408646 C 61.5 75.62773684 63.2664229 77.22189724 64.71167715 79.91970634" />
</svg>
