<?xml version="1.0" standalone="no"?>
<!DOCTYPE svg PUBLIC "-//W3C//DTD SVG 1.1//EN" "http://www.w3.org/Graphics/SVG/1.1/DTD/svg11.dtd">
<svg xmlns="http://www.w3.org/2000/svg" version="1.1" width="100%" height="100%">
<style type="text/css"><![CDATA[
  .stroke { fill:none; stroke:black; stroke-width:2 }
]]></style>
<path class="stroke" d="M 27.233957555555556 9.306931 C 23.077126944444444 17.680412 16.201412462962963 26.030926 9.984231666666668 30.69307" />
<path class="stroke" d="M 27.503482962962966 9.306931 C 31.917333092592596 14.123711 36.40759962962963 17.216494 41.73978325925926 19.536081" />
<path class="stroke" d="M 28.128672148148148 19.999998 C 30.23348166666667 22.319588 30.935089074074078 24.639175 31.496371370370372 27.731956" />
<path class="stroke" d="M 19.84975101851852 29.896904 L 40.476898999999996 29.896904 L 40.476898999999996 57.72277" />
<path class="stroke" d="M 20.22625522222222 43.81443 L 39.81423207407407 43.81443" />
<path class="stroke" d="M 19.956728000000002 57.72277 L 40.440777833333335 57.72277" />
<path class="stroke" d="M 19.84975101851852 29.896904 L 19.84975101851852 89.896904 C 27.286748703703704 87.57732 33.48657351851852 83.55427 38.95908407407407 79.842926" />
<path class="stroke" d="M 35.28503140740741 74.12371 C 37.95112685185185 76.90721 40.476898999999996 82.16495 41.599465407407415 85.87628" />
<path class="stroke" d="M 69.57736940000001 10.4160584 L 69.57736940000001 20.693429599999998" />
<path class="stroke" d="M 49.615327765 20.927004800000002 L 49.615327765 32.138684" />
<path class="stroke" d="M 49.615327765 20.927004800000002 L 89.53941130000001 20.927004800000002 L 89.53941130000001 32.138684" />
<path class="stroke" d="M 58.112533208 32.76344 L 58.112533208 90.07920800000001" />
<path class="stroke" d="M 58.112533208 32.76344 L 80.77043176800001 32.76344 L 80.77043176800001 53.962160000000004" />
<path class="stroke" d="M 58.259635767999995 53.962160000000004 L 80.77043176800001 53.962160000000004" />
<path class="stroke" d="M 58.112533208 69.8612 L 82.3595852944 69.8612 L 82.3595852944 90.07920800000001" />
<path class="stroke" d="M 58.1160190816 90.07920800000001 L 82.3595852944 90.07920800000001" />
</svg>
