<?xml version="1.0" standalone="no"?>
<!DOCTYPE svg PUBLIC "-//W3C//DTD SVG 1.1//EN" "http://www.w3.org/Graphics/SVG/1.1/DTD/svg11.dtd">
<svg xmlns="http://www.w3.org/2000/svg" version="1.1" width="100%" height="100%">
<style type="text/css"><![CDATA[
  .stroke { fill:none; stroke:black; stroke-width:2 }
]]></style>
<path class="stroke" d="M 10.437956 9.562042 L 10.437956 92.77372" />
<path class="stroke" d="M 10.437956 9.270073 L 90.14598 9.270073 L 90.14598 92.48175" />
<path class="stroke" d="M 10.729925 86.642334 L 90.14598 86.642334" />
<path class="stroke" d="M 32.7381352 18.514207 C 35.4552872 20.648787 37.453175200000004 23.666697 38.4920952 26.463687" />
<path class="stroke" d="M 66.3028588 18.514207 C 65.02415880000001 22.120887 63.2660508 24.181897 60.78860280000001 26.463757" />
<path class="stroke" d="M 24.3470208 30.217661 L 76.61199280000001 30.217661" />
<path class="stroke" d="M 18.1135654 41.921108 L 82.36590416 41.921108" />
<path class="stroke" d="M 50.958968 16.968453 C 49.52044 38.97681 36.09466 55.02312 18.1135616 65.10725" />
<path class="stroke" d="M 52.87698 30.438489999999998 C 57.35224 45.38062 68.060944 57.89375 82.365968 65.10725" />
<path class="stroke" d="M 39.34495048 53.5855447 L 55.417822640000004 53.5855447 L 55.417822640000004 61.619603319999996" />
<path class="stroke" d="M 39.435247296 61.6475392 L 55.417822640000004 61.6475392" />
<path class="stroke" d="M 39.435247296 61.619603319999996 L 39.435247296 74.36930727999999 C 39.435247296 75.67920663999999 40.4285144 76.98910894 41.963564832 76.98910894 L 59.21029712000001 76.98910894 C 60.564750880000005 76.98910894 61.73861344000001 76.02851392 61.73861344000001 74.80594138 L 61.73861344000001 73.23406155999999" />
</svg>
