<?xml version="1.0" standalone="no"?>
<!DOCTYPE svg PUBLIC "-//W3C//DTD SVG 1.1//EN" "http://www.w3.org/Graphics/SVG/1.1/DTD/svg11.dtd">
<svg xmlns="http://www.w3.org/2000/svg" version="1.1" width="100%" height="100%">
<style type="text/css"><![CDATA[
  .stroke { fill:none; stroke:black; stroke-width:2 }
]]></style>
<path class="stroke" d="M 24.09241 9.306931 C 20.274912500000003 17.680412 13.960480833333333 26.030926 8.250825 30.69307" />
<path class="stroke" d="M 24.339933333333335 9.306931 C 28.39346916666667 14.123711 32.517183333333335 17.216494 37.41408666666667 19.536081" />
<path class="stroke" d="M 24.914086666666666 19.999998 C 26.847075 22.319588 27.491408333333336 24.639175 28.00687166666667 27.731956" />
<path class="stroke" d="M 17.310995833333337 29.896904 L 36.254295 29.896904 L 36.254295 57.72277" />
<path class="stroke" d="M 17.656765 43.81443 L 35.645723333333336 43.81443" />
<path class="stroke" d="M 17.40924 57.72277 L 36.2211225 57.72277" />
<path class="stroke" d="M 17.310995833333337 29.896904 L 17.310995833333337 89.896904 C 24.140891666666665 87.57732 29.834608333333335 83.55427 34.86038333333333 79.842926" />
<path class="stroke" d="M 31.486253333333334 74.12371 C 33.93470833333333 76.90721 36.254295 82.16495 37.285223333333334 85.87628" />
<path class="stroke" d="M 42.791794 9.30599 L 93.447964 9.30599 L 93.447964 87.8548 C 93.447964 91.6404 91.88327000000001 93.8486 90.31857600000001 93.8486 L 87.58047 93.8486" />
<path class="stroke" d="M 50.7977949636 26.25 L 80.38220211000001 26.25" />
<path class="stroke" d="M 55.16069459974 41.32883162500001 L 55.16069459974 64.70985275000001" />
<path class="stroke" d="M 55.16069459974 41.32883162500001 L 76.11542677599999 41.32883162500001 L 76.11542677599999 64.48503585" />
<path class="stroke" d="M 55.16069459974 62.91131216000001 L 76.11542677599999 62.91131216000001" />
</svg>
