<?xml version="1.0" standalone="no"?>
<!DOCTYPE svg PUBLIC "-//W3C//DTD SVG 1.1//EN" "http://www.w3.org/Graphics/SVG/1.1/DTD/svg11.dtd">
<svg xmlns="http://www.w3.org/2000/svg" version="1.1" width="100%" height="100%">
<style type="text/css"><![CDATA[
  .stroke { fill:none; stroke:black; stroke-width:2 }
]]></style>
<path class="stroke" d="M 18.68935849056604 5.5205 L 18.68935849056604 16.877" />
<path class="stroke" d="M 5.594905660377359 17.1924 L 32.57901886792453 17.1924 C 26.546037735849055 37.2765 17.4988679245283 51.9978 4.880664150943397 60.7256" />
<path class="stroke" d="M 18.68935849056604 47.1609 L 18.68935849056604 94.795" />
<path class="stroke" d="M 34.87894339622642 39.2744 C 34.085283018867926 43.2702 32.57743396226415 46.6351 30.59343396226415 48.4228" />
<path class="stroke" d="M 18.92747169811321 46.5299 C 24.95879245283019 50.6309 28.60935849056604 55.6783 32.49803773584906 63.5646" />
<path class="stroke" d="M 43.3123 22.23974 L 96.6877 22.23974" />
<path class="stroke" d="M 51.640408 37.38167 L 51.640408 93.84857" />
<path class="stroke" d="M 51.640408 37.38167 L 88.170388 37.38167 L 88.170388 88.17037 C 88.35962799999999 91.53527 87.034708 93.638275 85.141948 93.53307 L 83.438488 93.53307" />
<path class="stroke" d="M 51.82963 52.2082 L 87.98107 51.8927" />
<path class="stroke" d="M 51.64039 67.6656 L 87.98113 67.6656" />
<path class="stroke" d="M 70.0 6.78233 L 70.0 93.8486" />
<path class="stroke" d="M 81.92428000000001 6.78233 C 84.38488000000001 8.88539 85.8991 12.2503 87.03472 15.9306" />
</svg>
