<?xml version="1.0" standalone="no"?>
<!DOCTYPE svg PUBLIC "-//W3C//DTD SVG 1.1//EN" "http://www.w3.org/Graphics/SVG/1.1/DTD/svg11.dtd">
<svg xmlns="http://www.w3.org/2000/svg" version="1.1" width="100%" height="100%">
<style type="text/css"><![CDATA[
  .stroke { fill:none; stroke:black; stroke-width:2 }
]]></style>
<path class="stroke" d="M 13.154171785714285 14.059406 C 16.654879285714284 16.138615 20.15558785714286 19.108912 23.01980357142857 22.673267" />
<path class="stroke" d="M 10.926448928571428 38.118813 C 14.108912142857141 39.90099 17.927864999999997 42.574257 20.473834285714286 46.138615" />
<path class="stroke" d="M 10.608203571428572 85.64356 C 11.321795357142857 87.422676 13.310014285714285 89.896904 15.629600357142856 89.896904 C 17.949189642857142 89.896904 21.110325 76.73267 23.33804892857143 69.60396" />
<path class="stroke" d="M 32.38612983 13.3394155 L 90.6138617 13.3394155" />
<path class="stroke" d="M 49.6970781 7.13503515 L 49.6970781 20.040144849999997" />
<path class="stroke" d="M 73.3029142 7.13503515 L 73.3029142 20.040144849999997" />
<path class="stroke" d="M 38.9100942 30.7965295 L 38.9100942 48.541064500000005" />
<path class="stroke" d="M 38.9100942 30.7965295 L 84.8185722 30.7965295 L 84.8185722 48.541064500000005" />
<path class="stroke" d="M 38.9100942 48.541064500000005 L 84.8185722 48.541064500000005" />
<path class="stroke" d="M 34.29496445 60.8438395 L 88.9479436 60.8438395" />
<path class="stroke" d="M 29.92271349 73.14667 L 93.8060122 73.14667" />
<path class="stroke" d="M 61.742935 31.03312 L 61.742935 70.5442 C 61.904789 83.63560000000001 44.334929 95.7808 28.7082025 96.09625" />
<path class="stroke" d="M 61.742935 70.5442 C 61.742935 83.47795 75.83124 95.7019 94.291836 96.09625" />
</svg>
