<?xml version="1.0" standalone="no"?>
<!DOCTYPE svg PUBLIC "-//W3C//DTD SVG 1.1//EN" "http://www.w3.org/Graphics/SVG/1.1/DTD/svg11.dtd">
<svg xmlns="http://www.w3.org/2000/svg" version="1.1" width="100%" height="100%">
<style type="text/css"><![CDATA[
  .stroke { fill:none; stroke:black; stroke-width:2 }
]]></style>
<path class="stroke" d="M 8.003300000000001 33.069305 L 25.825083333333335 30.9901" />
<path class="stroke" d="M 19.389438333333334 9.60396 L 19.389438333333334 84.15842 C 19.389438333333334 87.42574 17.161715833333336 90.09901 14.191419166666668 90.09901" />
<path class="stroke" d="M 8.498349166666667 63.36634 L 24.09241 46.435642" />
<path class="stroke" d="M 38.413938328 19.00452521 L 38.413938328 48.58233248" />
<path class="stroke" d="M 38.413938328 19.00452521 L 84.81627399999999 19.00452521 L 84.81627399999999 48.58233248" />
<path class="stroke" d="M 38.683721379999994 32.987708486 L 84.54649372 32.987708486" />
<path class="stroke" d="M 38.413938328 47.291238727999996 L 84.81627399999999 47.291238727999996" />
<path class="stroke" d="M 61.75 6.60218871 L 61.75 60.202186700000006" />
<path class="stroke" d="M 39.683335135 63.0000008 L 81.29307175 63.0990096 C 73.335641575 78.6633668 59.93366278 86.26732799999999 36.48019795 92.920792" />
<path class="stroke" d="M 44.18750047 63.6666672 C 48.603223555 74.0322572 59.519353315000004 80.0967744 63.15806206 82.80645200000001 C 69.75322285 86.935484 81.57902962 90.032256 92.8103959 92.920792" />
</svg>
