<?xml version="1.0" standalone="no"?>
<!DOCTYPE svg PUBLIC "-//W3C//DTD SVG 1.1//EN" "http://www.w3.org/Graphics/SVG/1.1/DTD/svg11.dtd">
<svg xmlns="http://www.w3.org/2000/svg" version="1.1" width="100%" height="100%">
<style type="text/css"><![CDATA[
  .stroke { fill:none; stroke:black; stroke-width:2 }
]]></style>
<path class="stroke" d="M 20.770715441176474 11.605839 C 17.979818382352942 27.372261 12.183339705882354 41.970802 7.245597794117647 50.14598" />
<path class="stroke" d="M 16.477026470588235 30.583939 L 16.477026470588235 90.43795" />
<path class="stroke" d="M 45.990538 7.41325 C 41.479486 19.6109 34.507846 28.654 26.30599 34.2271" />
<path class="stroke" d="M 44.268142 13.4069 L 71.82647800000001 13.4069 C 69.119878 18.0336 65.921098 22.6603 61.984204000000005 25.3943" />
<path class="stroke" d="M 36.3943462 25.07889 L 36.3943462 41.79809" />
<path class="stroke" d="M 36.3943462 25.07889 L 86.58992020000001 25.07889 L 86.58992020000001 41.79809" />
<path class="stroke" d="M 61.738192 25.394272 L 61.738192 41.482674" />
<path class="stroke" d="M 36.3943462 41.79809 L 86.58992020000001 41.79809" />
<path class="stroke" d="M 60.261886000000004 45.268 C 51.239782 53.7854 41.233396 59.4637 27.7823272 60.4101" />
<path class="stroke" d="M 61.492180000000005 45.899014 C 64.608904 51.997814 66.003154 58.412113 66.16718800000001 65.77281 L 66.16718800000001 87.224014 C 66.249088 91.90331 63.952612 94.447815 60.753910000000005 94.479515 L 56.32491400000001 94.479515" />
<path class="stroke" d="M 64.936972 55.9938 C 56.324992 68.2966 43.283938 75.2366 27.5362762 75.2366" />
<path class="stroke" d="M 65.921176 70.1894 C 58.129366 84.4901 40.987384000000006 91.5352 27.2902174 91.6404" />
<path class="stroke" d="M 92.24914000000001 51.2618 C 88.558336 58.7277 82.40694400000001 65.2471 75.02525800000001 67.9811" />
<path class="stroke" d="M 65.921176 58.5173 C 71.170342 78.6014 80.11039 93.6382 89.78863000000001 93.8486 L 94.46371599999999 93.8486" />
</svg>
