<?xml version="1.0" standalone="no"?>
<!DOCTYPE svg PUBLIC "-//W3C//DTD SVG 1.1//EN" "http://www.w3.org/Graphics/SVG/1.1/DTD/svg11.dtd">
<svg xmlns="http://www.w3.org/2000/svg" version="1.1" width="100%" height="100%">
<style type="text/css"><![CDATA[
  .stroke { fill:none; stroke:black; stroke-width:2 }
]]></style>
<path class="stroke" d="M 8.003300000000001 33.069305 L 25.825083333333335 30.9901" />
<path class="stroke" d="M 19.389438333333334 9.60396 L 19.389438333333334 84.15842 C 19.389438333333334 87.42574 17.161715833333336 90.09901 14.191419166666668 90.09901" />
<path class="stroke" d="M 8.498349166666667 63.36634 L 24.09241 46.435642" />
<path class="stroke" d="M 35.37740125 22.64156 L 91.745305 22.64156" />
<path class="stroke" d="M 41.27357275 32.389965 C 45.20447425 37.106964 47.2484485 40.880566 49.5283 48.113266" />
<path class="stroke" d="M 85.849075 31.76103 C 83.805025 38.469532 81.76105 42.976933 78.30189999999999 47.798733" />
<path class="stroke" d="M 31.132089999999998 55.9748 L 94.57547500000001 55.9748" />
<path class="stroke" d="M 64.1509015 7.23271 C 64.11160000000001 30.4508 64.54577499999999 42.239 62.087275 55.8962 C 58.80055 72.5559 47.916700750000004 84.6436 31.13207575 93.3962" />
<path class="stroke" d="M 65.566075 56.6038 C 70.912 74.2139 82.15405 86.7925 94.33959999999999 93.0818" />
</svg>
