<?xml version="1.0" standalone="no"?>
<!DOCTYPE svg PUBLIC "-//W3C//DTD SVG 1.1//EN" "http://www.w3.org/Graphics/SVG/1.1/DTD/svg11.dtd">
<svg xmlns="http://www.w3.org/2000/svg" version="1.1" width="100%" height="100%">
<style type="text/css"><![CDATA[
  .stroke { fill:none; stroke:black; stroke-width:2 }
]]></style>
<path class="stroke" d="M 13.154171785714285 14.059406 C 16.654879285714284 16.138615 20.15558785714286 19.108912 23.01980357142857 22.673267" />
<path class="stroke" d="M 10.926448928571428 38.118813 C 14.108912142857141 39.90099 17.927864999999997 42.574257 20.473834285714286 46.138615" />
<path class="stroke" d="M 10.608203571428572 85.64356 C 11.321795357142857 87.422676 13.310014285714285 89.896904 15.629600357142856 89.896904 C 17.949189642857142 89.896904 21.110325 76.73267 23.33804892857143 69.60396" />
<path class="stroke" d="M 35.02043646 19.6167875 L 90.9795554 19.6167875" />
<path class="stroke" d="M 51.6569322 10.49269875 L 51.6569322 29.470801249999997" />
<path class="stroke" d="M 74.34306040000001 10.49269875 L 74.34306040000001 29.470801249999997" />
<path class="stroke" d="M 39.04158388 33.1624615 L 86.95841464 33.1624615" />
<path class="stroke" d="M 36.621442 52.69802125 L 36.621442 92.351485" />
<path class="stroke" d="M 36.40396044 52.69802125 L 89.15643589999999 52.69802125 L 89.14508799999999 85.89108999999999 C 89.14508799999999 90.12376 86.95841464 92.5742575 84.10099196 92.5742575 L 81.2435641 92.5742575" />
<path class="stroke" d="M 63.0 35.767327 L 63.0 78.539605" />
<path class="stroke" d="M 48.273267399999995 63.613862499999996 L 48.273267399999995 78.539605 L 77.72673259999999 78.539605" />
<path class="stroke" d="M 77.72673259999999 63.3910885 L 77.72673259999999 78.7623775" />
</svg>
