<?xml version="1.0" standalone="no"?>
<!DOCTYPE svg PUBLIC "-//W3C//DTD SVG 1.1//EN" "http://www.w3.org/Graphics/SVG/1.1/DTD/svg11.dtd">
<svg xmlns="http://www.w3.org/2000/svg" version="1.1" width="100%" height="100%">
<style type="text/css"><![CDATA[
  .stroke { fill:none; stroke:black; stroke-width:2 }
]]></style>
<path class="stroke" d="M 31.741934400000005 6.73870952 C 24.0 12.05161249 17.2554732 12.5729923 6.967741200000001 13.82257974" />
<path class="stroke" d="M 10.9677412 19.33225773 C 12.0 20.40948906 12.700729200000001 22.72481726 13.419354400000001 24.251611269999998" />
<path class="stroke" d="M 29.4193544 18.545161309999997 C 29.051092 21.656202790000002 28.64516 23.07096725 27.741934400000005 24.251611269999998" />
<path class="stroke" d="M 4.992700200000001 30.613540999999998 L 35.124084 30.613540999999998" />
<path class="stroke" d="M 20.0 11.947968 L 20.0 57.276638559999995" />
<path class="stroke" d="M 19.941604 33.0547427 C 16.25656 43.185641000000004 11.532846000000001 50.1525486 4.4087584 54.783205" />
<path class="stroke" d="M 19.941604 33.0547427 C 23.40696 42.993186 29.0852 49.984701 35.941604000000005 54.42700403999999" />
<path class="stroke" d="M 11.024817376000001 58.00583852 L 11.024817376000001 90.3795588" />
<path class="stroke" d="M 11.024817376000001 57.87737128 L 29.042918271999998 57.87737128 L 29.042918271999998 90.3795588" />
<path class="stroke" d="M 20.033867360000002 58.00583852 L 20.033867360000002 88.067152" />
<path class="stroke" d="M 11.024817376000001 72.96360552 L 28.907445120000002 72.96360552" />
<path class="stroke" d="M 11.024817376000001 88.067152 L 29.042918271999998 88.067152" />
<path class="stroke" d="M 49.8613864 9.60396 L 67.1485144 9.60396 L 67.1485144 85.346535 C 67.1485144 88.61386 66.0792082 90.09901 64.475248 90.09901 L 62.336633199999994 90.09901" />
<path class="stroke" d="M 47.0099008 28.019802 C 51.10891 30.396038 54.851485600000004 34.554455 57.524752 40.19802" />
<path class="stroke" d="M 47.3663362 68.11881 L 58.59406 52.673267" />
<path class="stroke" d="M 76.7722792 9.60396 L 93.34653399999999 9.60396 L 93.34653399999999 84.455444 C 93.34653399999999 87.72277 92.455444 89.80198 90.495052 89.80198 L 88.712872 89.80198" />
<path class="stroke" d="M 74.9900998 27.128712 C 78.910894 29.20792 81.940594 33.366337 84.43564 39.90099" />
<path class="stroke" d="M 74.9900998 67.52475 L 86.039602 52.07921" />
</svg>
