<?xml version="1.0" standalone="no"?>
<!DOCTYPE svg PUBLIC "-//W3C//DTD SVG 1.1//EN" "http://www.w3.org/Graphics/SVG/1.1/DTD/svg11.dtd">
<svg xmlns="http://www.w3.org/2000/svg" version="1.1" width="100%" height="100%">
<style type="text/css"><![CDATA[
  .stroke { fill:none; stroke:black; stroke-width:2 }
]]></style>
<path class="stroke" d="M 26.788319 7.725060833333334 C 24.452553 14.294403333333333 21.824816 18.430655833333333 16.861313 21.593672500000004" />
<path class="stroke" d="M 24.452553 15.024329999999999 L 47.226276 15.024329999999999" />
<path class="stroke" d="M 30.0 15.510948333333333 C 34.08759 19.403893333333336 35.547443 22.56691 36.423355 28.406325" />
<path class="stroke" d="M 65.32846 7.725060833333334 C 63.284668 15.754255833333335 60.07299 19.160582500000004 57.44525 21.593672500000004" />
<path class="stroke" d="M 62.9927 15.267639166666667 L 86.35036 15.267639166666667" />
<path class="stroke" d="M 72.62773 15.754255833333335 C 72.9197 21.107054166666668 71.16788 24.756689166666668 67.9562 28.406325" />
<path class="stroke" d="M 6.133888888888889 43.13879 L 43.287777777777784 43.13879" />
<path class="stroke" d="M 10.6905 53.959019 L 38.38055555555555 53.959019" />
<path class="stroke" d="M 6.484396666666666 64.55843999999999 L 43.638284444444444 64.55843999999999" />
<path class="stroke" d="M 24.71077777777778 33.86435 L 24.71077777777778 96.79813" />
<path class="stroke" d="M 24.71085888888889 65.0 C 21.20574777777778 75.23134 14.896524444444445 85.46268 7.886435555555556 93.04417000000001" />
<path class="stroke" d="M 24.36034888888889 68.312253 C 31.136794444444448 72.507913 36.16079555555556 77.36591299999999 40.48379222222222 82.66561300000001" />
<path class="stroke" d="M 57.4921285 46.00949 L 92.66563 46.00949" />
<path class="stroke" d="M 67.113565 35.630905 L 67.113565 60.141957999999995" />
<path class="stroke" d="M 82.886435 35.41009 L 82.886435 60.14193" />
<path class="stroke" d="M 53.2334385 60.36278 L 97.08202750000001 60.36278" />
<path class="stroke" d="M 62.372261 71.686788045 L 62.372261 95.89350096" />
<path class="stroke" d="M 62.372261 71.686788045 L 87.48175 71.686788045 L 87.48175 95.89350096" />
<path class="stroke" d="M 62.5182475 83.130736547 L 87.33576500000001 83.130736547" />
<path class="stroke" d="M 62.372261 94.836859556 L 87.48175 94.836859556" />
</svg>
