<?xml version="1.0" standalone="no"?>
<!DOCTYPE svg PUBLIC "-//W3C//DTD SVG 1.1//EN" "http://www.w3.org/Graphics/SVG/1.1/DTD/svg11.dtd">
<svg xmlns="http://www.w3.org/2000/svg" version="1.1" width="100%" height="100%">
<style type="text/css"><![CDATA[
  .stroke { fill:none; stroke:black; stroke-width:2 }
]]></style>
<path class="stroke" d="M 13.09144 8.04416 L 13.09144 41.167202" />
<path class="stroke" d="M 13.09144 8.04416 L 40.85174 8.04416 L 40.85174 41.167202" />
<path class="stroke" d="M 13.7224 24.763386 L 40.8517 24.763386" />
<path class="stroke" d="M 13.09144 41.167202 L 40.85174 41.167202" />
<path class="stroke" d="M 6.46688 52.83911 L 47.1609 52.52365" />
<path class="stroke" d="M 26.6562 53.31229 L 26.6562 91.32499" />
<path class="stroke" d="M 26.9716 72.3975 L 43.2178 72.3975" />
<path class="stroke" d="M 15.6151 67.3501 C 15.4048 81.8612 12.6709 88.4858 6.46687 93.5331" />
<path class="stroke" d="M 15.6151 67.3501 C 15.6151 90.694 26.6561 93.2177 30.4416 93.2177 L 93.8486 93.2177" />
<path class="stroke" d="M 55.893430179999996 8.8686117 L 88.84525239999999 8.8686117" />
<path class="stroke" d="M 72.6058378 8.8686117 C 71.9751826 13.3357644 70.71386788000001 17.0145963 68.929696 19.855890000000002" />
<path class="stroke" d="M 57.286 20.14119 L 57.286 69.04379159999999" />
<path class="stroke" d="M 57.286 20.14119 L 87.593878 20.14119 L 87.593878 68.7810195" />
<path class="stroke" d="M 57.457234 36.693594 L 87.593878 36.693594" />
<path class="stroke" d="M 57.457234 53.816643 L 87.593878 53.816643" />
<path class="stroke" d="M 57.312408160000004 69.04379159999999 L 87.74160040000001 69.04379159999999" />
<path class="stroke" d="M 63.30364822 74.824812 C 60.46569226 78.24087 57.15474382 80.605836 53.21313748 80.868609" />
<path class="stroke" d="M 82.2233566 75.087585 C 85.5343072 76.138677 88.2145972 77.715324 91.3678813 81.65692800000001" />
</svg>
