<?xml version="1.0" standalone="no"?>
<!DOCTYPE svg PUBLIC "-//W3C//DTD SVG 1.1//EN" "http://www.w3.org/Graphics/SVG/1.1/DTD/svg11.dtd">
<svg xmlns="http://www.w3.org/2000/svg" version="1.1" width="100%" height="100%">
<style type="text/css"><![CDATA[
  .stroke { fill:none; stroke:black; stroke-width:2 }
]]></style>
<path class="stroke" d="M 25.5 5.5362948 L 25.5 15.0" />
<path class="stroke" d="M 5.95 15.0 L 45.050000000000004 15.0" />
<path class="stroke" d="M 12.328466800000001 25.43430625 L 12.328466800000001 40.6167875" />
<path class="stroke" d="M 12.328466800000001 25.43430625 L 37.78832 25.43430625 L 37.78832 40.470802500000005" />
<path class="stroke" d="M 12.328466800000001 39.448904 L 37.78832 39.448904" />
<path class="stroke" d="M 5.610810300000001 52.95297243 L 40.345944 52.95297243 C 35.091888000000004 58.51513393 32.027028 58.67405367 26.4810795 60.10432398" />
<path class="stroke" d="M 26.3351337 60.89891778 C 26.189187 82.19405219999999 26.4810795 87.7562137 23.934304500000003 90.59780699999999 C 23.145985500000002 91.74233185 22.357662 92.0284649 21.04379385 92.1715302" />
<path class="stroke" d="M 6.63243225 72.6589168 L 43.9945935 66.7789168" />
<path class="stroke" d="M 64.85149 15.544554 L 88.31683 15.544554 C 88.31683 20.891088 86.83168 31.881187 78.81188 39.009903" />
<path class="stroke" d="M 78.514854 39.009903 C 82.2292 42.6393 89.80198 50.29703 89.80198 59.207924 L 89.80198 63.069305 C 89.80198 66.63367 87.42574 68.71287 83.564354 68.71287 L 71.68317 68.41584" />
<path class="stroke" d="M 64.85149 15.544554 L 64.85149 90.09901" />
</svg>
