<?xml version="1.0" standalone="no"?>
<!DOCTYPE svg PUBLIC "-//W3C//DTD SVG 1.1//EN" "http://www.w3.org/Graphics/SVG/1.1/DTD/svg11.dtd">
<svg xmlns="http://www.w3.org/2000/svg" version="1.1" width="100%" height="100%">
<style type="text/css"><![CDATA[
  .stroke { fill:none; stroke:black; stroke-width:2 }
]]></style>
<path class="stroke" d="M 7.029217391304347 9.0794604 L 42.689565217391305 9.0794604" />
<path class="stroke" d="M 24.85945652173913 9.310406399999998 L 24.85945652173913 43.254856800000006" />
<path class="stroke" d="M 8.057882608695651 47.6422452 L 42.68960869565217 39.0984876" />
<path class="stroke" d="M 53.818642 5.015771999999999 L 53.607257000000004 36.62466 C 53.536773000000004 45.7098 46.702907 53.659319999999994 37.9668775 56.30916" />
<path class="stroke" d="M 53.818575 4.826496 L 79.81544600000001 4.826496 L 79.81544600000001 51.95586 C 79.95634700000001 55.173539999999996 81.99944500000001 56.30916 84.46524600000001 56.49846 L 91.44008000000001 56.49846 C 93.90588100000001 56.49846 96.583067 54.98424 96.301265 52.5237 L 96.301265 48.35964" />
<path class="stroke" d="M 60.370639 20.914818 C 66.640901 23.817015599999998 70.374878 28.4227362 73.474767 34.731857999999995" />
<path class="stroke" d="M 17.4453 69.545728 C 16.6042 76.85588800000001 14.5012 81.667728 10.8207 87.034672" />
<path class="stroke" d="M 33.21814 65.104104 L 33.21814 88.700336 C 33.21814 91.19874399999999 35.11094 92.86432 37.95004 92.86432 L 72.01944 92.86432 C 74.64824 92.86432 76.96164 90.921104 77.06674 87.867504 L 77.06674 83.14824" />
<path class="stroke" d="M 45.2056 65.1041216 C 50.6735 69.36068159999999 54.2487 73.8948816 57.5084 79.8170176" />
<path class="stroke" d="M 77.0667 65.381744 C 83.6913 70.563536 87.7923 75.74568 91.8932 82.870688" />
</svg>
