<?xml version="1.0" standalone="no"?>
<!DOCTYPE svg PUBLIC "-//W3C//DTD SVG 1.1//EN" "http://www.w3.org/Graphics/SVG/1.1/DTD/svg11.dtd">
<svg xmlns="http://www.w3.org/2000/svg" version="1.1" width="100%" height="100%">
<style type="text/css"><![CDATA[
  .stroke { fill:none; stroke:black; stroke-width:2 }
]]></style>
<path class="stroke" d="M 4.600416666666667 10.8833 L 40.61516666666667 10.8833" />
<path class="stroke" d="M 20.89905 10.8833 C 20.3733 29.9159 16.430133333333334 42.3239 7.229233333333333 54.7319" />
<path class="stroke" d="M 19.058883333333334 30.1262 L 39.3008 30.1263 C 34.393633333333334 58.202 26.06905 76.4986 9.069416666666667 94.4795" />
<path class="stroke" d="M 19.584583333333335 45.89907 C 22.651583333333335 48.52787 24.929833333333335 51.78757 26.419583333333332 55.678272" />
<path class="stroke" d="M 59.0220706 14.0379 C 57.69714999999999 24.448 55.23661 34.858 48.8012506 41.4826" />
<path class="stroke" d="M 56.7507916 27.6026 L 89.116708 27.6026" />
<path class="stroke" d="M 44.069401 51.26187 L 96.68770900000001 51.26187" />
<path class="stroke" d="M 70.378525 8.044137 L 70.5678238 93.53316" />
<path class="stroke" d="M 70.56783999999999 51.2618 C 65.26816 68.5068 57.50788 81.9664 45.77287 90.3786" />
<path class="stroke" d="M 70.56783999999999 51.2618 C 75.67828 68.5068 82.30282 81.9663 94.79494 90.3785" />
</svg>
