<?xml version="1.0" standalone="no"?>
<!DOCTYPE svg PUBLIC "-//W3C//DTD SVG 1.1//EN" "http://www.w3.org/Graphics/SVG/1.1/DTD/svg11.dtd">
<svg xmlns="http://www.w3.org/2000/svg" version="1.1" width="100%" height="100%">
<style type="text/css"><![CDATA[
  .stroke { fill:none; stroke:black; stroke-width:2 }
]]></style>
<path class="stroke" d="M 14.984257 24.5173904 L 85.33126 24.5173904" />
<path class="stroke" d="M 34.22713 8.623328800000001 L 34.22713 46.160255680000006" />
<path class="stroke" d="M 65.77287 8.285166400000001 L 65.77287 46.16021280000001" />
<path class="stroke" d="M 6.466877 46.4984288 L 94.164055 46.4984288" />
<path class="stroke" d="M 31.7035 47.85113200000001 C 28.7592 55.03728399999999 22.0295 58.926232 14.3533 61.0397872" />
<path class="stroke" d="M 65.7729 47.851051600000005 C 69.7686 54.9526228 75.3417 58.503408400000005 83.123 61.03970679999999" />
<path class="stroke" d="M 44.6372 55.283887 L 44.6372 88.217677 C 44.532 91.719217 41.5878 93.51732700000001 38.6435 93.612007 L 34.2271 93.612007" />
<path class="stroke" d="M 27.60252 70.33123 C 25.39432 77.05045 20.97792 84.33748 12.77603 88.78546" />
<path class="stroke" d="M 61.04106 70.047316 C 67.35016 76.009456 70.82016 81.687736 73.34386 88.785496" />
<path class="stroke" d="M 76.18295 67.776004 C 81.54585 72.5078404 85.33125 77.523634 88.48585 83.959084" />
</svg>
