<?xml version="1.0" standalone="no"?>
<!DOCTYPE svg PUBLIC "-//W3C//DTD SVG 1.1//EN" "http://www.w3.org/Graphics/SVG/1.1/DTD/svg11.dtd">
<svg xmlns="http://www.w3.org/2000/svg" version="1.1" width="100%" height="100%">
<style type="text/css"><![CDATA[
  .stroke { fill:none; stroke:black; stroke-width:2 }
]]></style>
<path class="stroke" d="M 10.437956 27.956203 L 33.211678 27.956203" />
<path class="stroke" d="M 23.86861 9.270073 L 23.86861 90.14598" />
<path class="stroke" d="M 23.86861 36.131386 C 20.07299 44.598537 15.401459 52.48175 8.686131 56.861313" />
<path class="stroke" d="M 23.86861 36.131386 C 28.248173 37.299267 31.167881 42.26277 32.627735 46.934303" />
<path class="stroke" d="M 43.96529714 7.367603289473685 C 47.87700734 11.587471710526318 50.41956534 15.18484013157895 52.76657534 19.819840789473687" />
<path class="stroke" d="M 59.416455400000004 5.49975 C 63.1325494 9.51217105263158 65.2838874 12.901907894736844 68.0220554 18.159539473684212" />
<path class="stroke" d="M 90.7097588 4.877131578947369 C 88.16720079999999 10.411473684210527 84.84226480000001 15.323250000000002 80.73501279999999 20.234960526315792" />
<path class="stroke" d="M 66.05346488 34.43069275 C 65.31683172000001 46.46039575 60.71287106 61.16336725 56.29306962 68.06930725 C 66.37518164 70.711675 80.6759113 79.25182 87.916789 89.9817505" />
<path class="stroke" d="M 80.6019794 48.0198025 C 75.99802184 73.415845 66.42178146 82.99505500000001 52.25547338 89.324815" />
<path class="stroke" d="M 44.109488060000004 51.660582250000004 L 93.7094862 51.660582250000004" />
</svg>
