<?xml version="1.0" standalone="no"?>
<!DOCTYPE svg PUBLIC "-//W3C//DTD SVG 1.1//EN" "http://www.w3.org/Graphics/SVG/1.1/DTD/svg11.dtd">
<svg xmlns="http://www.w3.org/2000/svg" version="1.1" width="100%" height="100%">
<style type="text/css"><![CDATA[
  .stroke { fill:none; stroke:black; stroke-width:2 }
]]></style>
<path class="stroke" d="M 6.78233 8.044168 L 94.164 8.044168" />
<path class="stroke" d="M 14.837906 19.625937 L 86.35911 19.625937 L 86.35911 35.785538" />
<path class="stroke" d="M 14.538654 35.486286 L 86.95761 35.486286" />
<path class="stroke" d="M 14.98422 19.40065 L 14.98422 61.67185 C 14.87902 75.86745 13.51212 82.17665 8.67502 90.37855" />
<path class="stroke" d="M 47.455845 43.86592981 L 47.455845 73.71449851 C 47.455845 86.7207568 37.04577 91.9952518 24.03312 93.6735028" />
<path class="stroke" d="M 23.3233425 53.935303 L 45.326475 53.935303" />
<path class="stroke" d="M 26.872275000000002 65.802817 L 45.326475 65.802817" />
<path class="stroke" d="M 23.5599375 78.389614 L 45.089925 75.152983" />
<path class="stroke" d="M 64.49055 43.8659338 L 64.49055 93.493702" />
<path class="stroke" d="M 64.49055 54.115138 L 87.913275 54.115138" />
<path class="stroke" d="M 64.49055 65.982652 L 84.36435 65.982652" />
<path class="stroke" d="M 64.49055 78.569392 L 87.67665 78.569392" />
</svg>
