<?xml version="1.0" standalone="no"?>
<!DOCTYPE svg PUBLIC "-//W3C//DTD SVG 1.1//EN" "http://www.w3.org/Graphics/SVG/1.1/DTD/svg11.dtd">
<svg xmlns="http://www.w3.org/2000/svg" version="1.1" width="100%" height="100%">
<style type="text/css"><![CDATA[
  .stroke { fill:none; stroke:black; stroke-width:2 }
]]></style>
<path class="stroke" d="M 56.237625 9.306931 C 57.72277 12.574257 58.91089 15.544554 58.91089 19.108912" />
<path class="stroke" d="M 27.956203 19.197079 L 86.9343 19.197079" />
<path class="stroke" d="M 27.956203 19.197079 L 27.956203 36.131386 C 27.956203 56.861313 21.532845 72.62773 6.159601 93.8404" />
<path class="stroke" d="M 42.237622099999996 25.954454820000002 L 73.67821547999999 25.954454820000002 C 69.1247558 32.20990038 65.87227511 34.990099619999995 59.881671 36.823428" />
<path class="stroke" d="M 52.282352020000005 32.3942994 C 56.42751029 34.7727534 58.7303661 38.1355674 60.572595559999996 42.2365734" />
<path class="stroke" d="M 35.515840499999996 47.03762316 L 83.2188147 47.03762316 C 77.79802158000001 53.29306872 71.7267313 56.7683166 65.65544539999999 57.6950502" />
<path class="stroke" d="M 59.36732614 51.207920460000004 L 59.36732614 83.87524632 C 59.36732614 86.4237606 57.8495043 88.2772278 55.68118895 88.2772278 L 52.8623779 88.2772278" />
</svg>
