<?xml version="1.0" standalone="no"?>
<!DOCTYPE svg PUBLIC "-//W3C//DTD SVG 1.1//EN" "http://www.w3.org/Graphics/SVG/1.1/DTD/svg11.dtd">
<svg xmlns="http://www.w3.org/2000/svg" version="1.1" width="100%" height="100%">
<style type="text/css"><![CDATA[
  .stroke { fill:none; stroke:black; stroke-width:2 }
]]></style>
<path class="stroke" d="M 49.99996 7.07728915 L 49.99996 14.19083515" />
<path class="stroke" d="M 6.46688 14.364375000000003 L 93.2177 14.364375000000003" />
<path class="stroke" d="M 37.38174 14.5378219 L 37.38174 33.10252135 C 37.486843 41.604090250000006 31.598242 52.01415750000001 15.930542 54.79023025000001" />
<path class="stroke" d="M 62.30286 14.537883500000001 L 62.30286 52.01422350000001 C 62.09256 53.633533500000006 60.30496 54.9059035 57.88646 54.7902385 L 53.47006 54.7902385" />
<path class="stroke" d="M 27.287071 23.73348365 C 22.344872 29.45898365 16.771772 34.1434981 7.413242 37.787027" />
<path class="stroke" d="M 72.0821 23.733405 C 81.1252 27.72393 86.0673 32.40855500000001 91.6404 37.960585" />
<path class="stroke" d="M 17.4453 67.6656 C 16.6042 75.9726 14.5012 81.4406 10.8207 87.5394" />
<path class="stroke" d="M 33.21814 62.6183 L 33.21814 89.4322 C 33.21814 92.2713 35.11094 94.164 37.95004 94.164 L 72.01944 94.164 C 74.64824 94.164 76.96164 91.9558 77.06674 88.4858 L 77.06674 83.123" />
<path class="stroke" d="M 45.2056 62.61832 C 50.6735 67.45532 54.2487 72.60782 57.5084 79.33752" />
<path class="stroke" d="M 77.0667 62.9338 C 83.6913 68.8222 87.7923 74.711 91.8932 82.8076" />
</svg>
