<?xml version="1.0" standalone="no"?>
<!DOCTYPE svg PUBLIC "-//W3C//DTD SVG 1.1//EN" "http://www.w3.org/Graphics/SVG/1.1/DTD/svg11.dtd">
<svg xmlns="http://www.w3.org/2000/svg" version="1.1" width="100%" height="100%">
<style type="text/css"><![CDATA[
  .stroke { fill:none; stroke:black; stroke-width:2 }
]]></style>
<path class="stroke" d="M 20.757080000000002 5.835962 C 20.462680000000002 9.831762 19.789680000000004 13.196672 17.981080000000002 15.930572" />
<path class="stroke" d="M 10.03152 15.930615 L 10.03152 66.719215 C 9.98948 79.02212 8.180840000000002 87.224014 3.217648 93.21771" />
<path class="stroke" d="M 10.03152 15.930615 L 30.347000000000005 15.930615 L 30.347000000000005 87.53941 C 30.389080000000003 91.32491 29.674040000000005 92.902214 28.58044 92.902214 L 26.68768 92.902214" />
<path class="stroke" d="M 17.602520000000002 26.97159 C 19.91588 29.49519 21.345920000000003 33.59619 22.64984 39.27439" />
<path class="stroke" d="M 20.328768 59.69863 L 20.328768 81.39726" />
<path class="stroke" d="M 2.586752 49.6845 L 37.16088 49.6845" />
<path class="stroke" d="M 43.26499 6.943194 L 43.2136984 58.9" />
<path class="stroke" d="M 43.26499 6.943194 L 67.01893 6.943194" />
<path class="stroke" d="M 53.8643581 6.943256 L 53.8643581 22.589886" />
<path class="stroke" d="M 43.26499 23.372208200000003 L 62.94952 23.372208200000003 L 62.94952 40.192436199999996" />
<path class="stroke" d="M 43.26499 40.192436199999996 L 62.94952 40.192436199999996" />
<path class="stroke" d="M 53.9589952 40.38804 L 53.9589952 56.23028" />
<path class="stroke" d="M 43.26499 56.42589 L 67.2082 56.42589" />
<path class="stroke" d="M 72.366732532 13.518982058285715 C 71.539801708 24.736860014857147 70.29940582 36.38619235771429 68.64554452 44.152416340571435" />
<path class="stroke" d="M 71.022970552 29.91434170171429 L 96.65782192 29.91434170171429" />
<path class="stroke" d="M 74.34096886815999 49.6 L 95.73102901600001 49.6" />
<path class="stroke" d="M 51.07252 66.391168 L 51.07252 91.627776" />
<path class="stroke" d="M 51.07252 66.391168 L 88.35964 66.391168 L 88.35964 91.526816" />
<path class="stroke" d="M 63.56466399999999 66.492128 L 63.56466399999999 91.627776" />
<path class="stroke" d="M 76.246084 66.49211424 L 76.246084 91.7287232" />
<path class="stroke" d="M 44.258674 91.728704 L 95.74132 91.728704" />
</svg>
