<?xml version="1.0" standalone="no"?>
<!DOCTYPE svg PUBLIC "-//W3C//DTD SVG 1.1//EN" "http://www.w3.org/Graphics/SVG/1.1/DTD/svg11.dtd">
<svg xmlns="http://www.w3.org/2000/svg" version="1.1" width="100%" height="100%">
<style type="text/css"><![CDATA[
  .stroke { fill:none; stroke:black; stroke-width:2 }
]]></style>
<path class="stroke" d="M 40.68614 5.5205 C 30.854395000000004 9.83174 20.502075 12.2502 10.14981 13.0914" />
<path class="stroke" d="M 9.802815 13.0915 L 9.802815 76.4984 M 4.0772842 79.3375 L 22.46844325 72.0819" />
<path class="stroke" d="M 9.802815 42.11355 L 49.70823000000001 42.11355" />
<path class="stroke" d="M 28.541040000000002 9.9369 L 28.541040000000002 46.8454 C 29.003700000000002 80.8097 42.131980000000006 94.2692 51.269735 94.164 L 51.269735 79.653" />
<path class="stroke" d="M 5.642517705 91.0 L 30.107479875000003 91.0" />
<path class="stroke" d="M 64.85149 15.544554 L 88.31683 15.544554 C 88.31683 20.891088 86.83168 31.881187 78.81188 39.009903" />
<path class="stroke" d="M 78.514854 39.009903 C 82.2292 42.6393 89.80198 50.29703 89.80198 59.207924 L 89.80198 63.069305 C 89.80198 66.63367 87.42574 68.71287 83.564354 68.71287 L 71.68317 68.41584" />
<path class="stroke" d="M 64.85149 15.544554 L 64.85149 90.09901" />
</svg>
