<?xml version="1.0" standalone="no"?>
<!DOCTYPE svg PUBLIC "-//W3C//DTD SVG 1.1//EN" "http://www.w3.org/Graphics/SVG/1.1/DTD/svg11.dtd">
<svg xmlns="http://www.w3.org/2000/svg" version="1.1" width="100%" height="100%">
<style type="text/css"><![CDATA[
  .stroke { fill:none; stroke:black; stroke-width:2 }
]]></style>
<path class="stroke" d="M 26.340715 7.41325 L 73.34382 7.41325 C 66.61411 14.8791 59.253414 19.5058 49.369114 22.2397" />
<path class="stroke" d="M 49.369114 22.2397 L 49.369114 88.1703 C 49.579414 92.2712 47.581516 94.164 44.321815 94.164 L 36.119915 94.164" />
<path class="stroke" d="M 40.22086 37.6972 L 58.517357 37.6972" />
<path class="stroke" d="M 34.2271 55.9937 L 64.5111 55.9937" />
<path class="stroke" d="M 24.132442 76.18301 L 74.605644 76.18301" />
<path class="stroke" d="M 7.41325 29.8107 L 32.0189 29.8107 C 29.1798 50.8412 20.347 68.7171 6.78233 85.3312" />
<path class="stroke" d="M 95.1104 30.1262 C 90.694 36.4353 84.7003 40.8518 77.7602 43.0599" />
<path class="stroke" d="M 66.7192 29.1798 C 69.348 51.6825 77.655 71.0304 94.164 85.3312" />
</svg>
