<?xml version="1.0" standalone="no"?>
<!DOCTYPE svg PUBLIC "-//W3C//DTD SVG 1.1//EN" "http://www.w3.org/Graphics/SVG/1.1/DTD/svg11.dtd">
<svg xmlns="http://www.w3.org/2000/svg" version="1.1" width="100%" height="100%">
<style type="text/css"><![CDATA[
  .stroke { fill:none; stroke:black; stroke-width:2 }
]]></style>
<path class="stroke" d="M 53.0 12.747523750000001 L 53.0 31.68316875" />
<path class="stroke" d="M 28.4 16.83168375 L 28.4 31.68316875 L 77.84356460000001 31.68316875" />
<path class="stroke" d="M 77.84356460000001 17.20297125 L 77.84356460000001 31.68316875" />
<path class="stroke" d="M 18.905107 43.109488060000004 L 90.14598 43.109488060000004" />
<path class="stroke" d="M 18.613138 43.109488060000004 L 18.613138 56.32408622 C 18.613138 83.2963486 14.817516 87.45985071999999 10.198019 92.8613862" />
<path class="stroke" d="M 40.0293192 61.3608054044 C 38.99895148 64.27058485980001 35.90785406 66.6954027022 32.043978800000005 69.2818728718" />
<path class="stroke" d="M 82.3986618 61.5517240628 C 79.82189708 64.7429619298 76.7094854 66.8464372876 73.1182462 68.6494140338" />
<path class="stroke" d="M 54.965323999999995 51.3708750898 C 55.13777 56.4140698456 55.051505999999996 60.4899591456 54.965323999999995 66.7891967858 C 55.219114 80.665070336 35.061955999999995 92.40795416 22.84087444 92.83936907" />
<path class="stroke" d="M 55.02574324 68.5144154136 C 57.723639999999996 78.80623736199999 75.87876800000001 90.120973986 83.8919679 92.23837544899999 C 85.8072952 92.83936907 87.24379579999999 92.989616832 89.3985344 93.13986974" />
</svg>
