<?xml version="1.0" standalone="no"?>
<!DOCTYPE svg PUBLIC "-//W3C//DTD SVG 1.1//EN" "http://www.w3.org/Graphics/SVG/1.1/DTD/svg11.dtd">
<svg xmlns="http://www.w3.org/2000/svg" version="1.1" width="100%" height="100%">
<style type="text/css"><![CDATA[
  .stroke { fill:none; stroke:black; stroke-width:2 }
]]></style>
<path class="stroke" d="M 11.605839 38.46715 L 30.29197 35.839413" />
<path class="stroke" d="M 21.824816 15.401459 L 21.824816 71.16788" />
<path class="stroke" d="M 9.270073 74.9635 L 31.751823 68.24817" />
<path class="stroke" d="M 38.197543365 8.044167 L 89.539363895 8.044167 L 89.539363895 23.186256" />
<path class="stroke" d="M 38.197543365 23.186256 L 89.539363895 23.186256" />
<path class="stroke" d="M 37.987996573000004 8.044167 L 37.987996573000004 58.20186 C 38.057880933 72.92316 36.870311823 81.01996 34.006388306 94.164055" />
<path class="stroke" d="M 68.043837696 31.88467024 L 68.043837696 87.59269599999999" />
<path class="stroke" d="M 46.779269641599996 37.14014536 L 46.779269641599996 58.3722592 M 46.779269641599996 56.48029072 L 88.41804192000001 56.48029072" />
<path class="stroke" d="M 88.605603448 37.14014536 L 88.605603448 58.58248048" />
<path class="stroke" d="M 45.0912113928 69.72408376 L 45.0912113928 89.6948872 M 45.0912113928 87.80291439999999 L 90.481225152 87.80291439999999" />
<path class="stroke" d="M 90.481225152 69.3036484 L 90.481225152 89.9051056" />
</svg>
