<?xml version="1.0" standalone="no"?>
<!DOCTYPE svg PUBLIC "-//W3C//DTD SVG 1.1//EN" "http://www.w3.org/Graphics/SVG/1.1/DTD/svg11.dtd">
<svg xmlns="http://www.w3.org/2000/svg" version="1.1" width="100%" height="100%">
<style type="text/css"><![CDATA[
  .stroke { fill:none; stroke:black; stroke-width:2 }
]]></style>
<path class="stroke" d="M 12.003300000000001 33.069305 L 29.825083333333335 30.9901" />
<path class="stroke" d="M 23.389438333333334 9.60396 L 23.389438333333334 84.15842 C 23.389438333333334 87.42574 21.161715833333336 90.09901 18.19141916666667 90.09901" />
<path class="stroke" d="M 12.498349166666667 63.36634 L 28.09241 46.435642" />
<path class="stroke" d="M 43.310946279999996 11.099736912 L 43.310946279999996 38.646829056" />
<path class="stroke" d="M 43.310946279999996 11.099736912 L 80.47299 11.099736912 L 80.47299 38.646829056" />
<path class="stroke" d="M 43.5270063 24.1228807392 L 80.2569322 24.1228807392" />
<path class="stroke" d="M 43.310946279999996 37.4443775616 L 80.47299 37.4443775616" />
<path class="stroke" d="M 47.760254 47.570343456 C 45.581546 55.70256 39.901158 63.674285760000004 30.0189242 68.75694336" />
<path class="stroke" d="M 45.659245999999996 55.75608576 L 91.646694 55.916561279999996 L 91.413224 73.89312672 C 90.94635799999999 82.02537888 86.044228 91.44163872 77.640418 91.54863936000001 L 74.138812 91.54863936000001" />
<path class="stroke" d="M 69.2827717308 67.46818254672 C 62.3194463376 69.37996015776 57.3870898536 69.87868568879999 48.293254258800005 70.55376274992" />
<path class="stroke" d="M 48.073070352 62.3146930416 L 48.073070352 80.7675077472 C 48.073070352 83.17801144895999 51.0040388496 84.50794545216 55.0659805752 84.50794545216 L 76.39116950640002 84.50794545216 C 78.277069452 84.50794545216 79.2925536624 84.0923399568 79.2925536624 83.0117713776 L 79.2925536624 82.26368350080001" />
</svg>
