<?xml version="1.0" standalone="no"?>
<!DOCTYPE svg PUBLIC "-//W3C//DTD SVG 1.1//EN" "http://www.w3.org/Graphics/SVG/1.1/DTD/svg11.dtd">
<svg xmlns="http://www.w3.org/2000/svg" version="1.1" width="100%" height="100%">
<style type="text/css"><![CDATA[
  .stroke { fill:none; stroke:black; stroke-width:2 }
]]></style>
<path class="stroke" d="M 41.188118 8.80088 C 31.980198 12.761276444444444 17.8712865 14.609461333333332 9.554456 14.609461333333332" />
<path class="stroke" d="M 10.445544 21.47414844444444 C 12.6732675 25.17051822222222 14.01155 29.20897777777778 15.049505 33.355336888888885" />
<path class="stroke" d="M 21.7326735 20.15401511111111 C 23.811882 23.05830577777778 25.148515 26.754675555555554 26.039605 31.507151111111114" />
<path class="stroke" d="M 40.445545 18.569855999999998 C 39.257427 24.906490666666663 37.475245 29.658966222222222 34.950495 33.091308444444444" />
<path class="stroke" d="M 10.036495 50.5145965 L 40.109485 50.5145965" />
<path class="stroke" d="M 25.07299 40.8357663 L 25.07299 93.97444800000001" />
<path class="stroke" d="M 25.07299 53.74087475 C 20.255475 68.3540129 14.4160575 76.1350342 6.8248165 80.12043249999999" />
<path class="stroke" d="M 25.07299 53.74087475 C 29.5985375 68.54379275 35.729925 76.32481405 43.321167 79.74087475" />
<path class="stroke" d="M 86.31386499999999 9.854013 C 78.86861 20.948904 68.065693 29.124084 60.182480999999996 30.0" />
<path class="stroke" d="M 90.54744500000001 34.37956 C 82.01237 49.22649 74.56072 55.46259 61.71837 58.21079" />
<path class="stroke" d="M 94.70027 60.953674 C 85.217985 79.264305 72.2992685 88.68613 58.576642 89.56204" />
</svg>
