<?xml version="1.0" standalone="no"?>
<!DOCTYPE svg PUBLIC "-//W3C//DTD SVG 1.1//EN" "http://www.w3.org/Graphics/SVG/1.1/DTD/svg11.dtd">
<svg xmlns="http://www.w3.org/2000/svg" version="1.1" width="100%" height="100%">
<style type="text/css"><![CDATA[
  .stroke { fill:none; stroke:black; stroke-width:2 }
]]></style>
<path class="stroke" d="M 26.02513 17.153 L 14.03783 21.096125" />
<path class="stroke" d="M 14.03783 21.096125 L 14.03783 91.67975" />
<path class="stroke" d="M 14.35333 43.17825 L 26.02523 43.17825" />
<path class="stroke" d="M 14.66873 66.8375 L 26.02523 66.8375" />
<path class="stroke" d="M 74.9211 17.153 L 88.1703 21.096249999999998 L 88.1703 91.67975" />
<path class="stroke" d="M 74.9212 43.5725 L 87.5394 43.5725" />
<path class="stroke" d="M 74.9212 68.41487500000001 L 87.5394 68.41487500000001" />
<path class="stroke" d="M 6.151415 92.07412500000001 L 95.11041 92.07412500000001" />
<path class="stroke" d="M 33.524087 10.145985 L 33.524087 90.43795" />
<path class="stroke" d="M 33.524087 10.145985 L 66.47591299999999 10.145985 L 66.47591299999999 86.05839 C 66.47591299999999 88.68613 66.0029162 90.14598 64.5839366 90.14598 L 63.0072959 90.14598" />
<path class="stroke" d="M 42.872567274752 25.759999999999998 L 57.1274313152 25.759999999999998" />
<path class="stroke" d="M 41.788846486400004 40.72572208 L 41.788846486400004 66.76671392" />
<path class="stroke" d="M 41.788846486400004 40.72572208 L 58.286831359999994 40.72572208 L 58.286831359999994 66.51632044800002" />
<path class="stroke" d="M 41.788846486400004 64.7635601408 L 58.286831359999994 64.7635601408" />
</svg>
