<?xml version="1.0" standalone="no"?>
<!DOCTYPE svg PUBLIC "-//W3C//DTD SVG 1.1//EN" "http://www.w3.org/Graphics/SVG/1.1/DTD/svg11.dtd">
<svg xmlns="http://www.w3.org/2000/svg" version="1.1" width="100%" height="100%">
<style type="text/css"><![CDATA[
  .stroke { fill:none; stroke:black; stroke-width:2 }
]]></style>
<path class="stroke" d="M 8.69085 22.0316 L 2.3817 38.1199" />
<path class="stroke" d="M 20.6782 22.0316 L 27.6183 38.1199" />
<path class="stroke" d="M 14.6845 7.3123 L 14.6845 93.3186" />
<path class="stroke" d="M 34.18978 7.245597794117647 C 38.8613128 10.680549264705883 42.5985384 15.403605882352942 45.4014584 19.911979411764708" />
<path class="stroke" d="M 83.708024 7.245597794117647 C 81.8020448 11.496349264705882 77.868608 16.477026470588235 73.897808 20.126662500000002" />
<path class="stroke" d="M 38.552992192000005 23.895218337499998 L 38.552992192000005 54.351275724999994" />
<path class="stroke" d="M 38.552992192000005 23.895218337499998 L 75.2151808 23.895218337499998 L 75.2151808 54.058429815000004" />
<path class="stroke" d="M 38.552992192000005 52.008501423999995 L 75.2151808 52.008501423999995" />
<path class="stroke" d="M 49.605838399999996 56.545145207 L 49.605838399999996 68.316092954 C 49.605838399999996 78.69477915499999 43.5328464 88.94689549399999 28.3503648 91.604851325" />
<path class="stroke" d="M 63.3868592 56.4185766455 L 63.3868592 86.28894053 C 63.3868592 89.453174075 66.42335840000001 91.351713335 69.69342639999999 91.351713335 L 87.9124 91.351713335 C 90.481752 91.47828233 92.35036000000001 90.465726035 92.35036000000001 89.073462755 L 92.35036000000001 86.668649249" />
</svg>
