<?xml version="1.0" standalone="no"?>
<!DOCTYPE svg PUBLIC "-//W3C//DTD SVG 1.1//EN" "http://www.w3.org/Graphics/SVG/1.1/DTD/svg11.dtd">
<svg xmlns="http://www.w3.org/2000/svg" version="1.1" width="100%" height="100%">
<style type="text/css"><![CDATA[
  .stroke { fill:none; stroke:black; stroke-width:2 }
]]></style>
<path class="stroke" d="M 10.036495 15.864263617021276 L 39.817515 15.864263617021276" />
<path class="stroke" d="M 25.07299 9.15514659574468 L 25.07299 39.06662265957447" />
<path class="stroke" d="M 11.350365 27.32567170212766 L 38.64963 27.32567170212766" />
<path class="stroke" d="M 5.0729925 39.06662265957447 L 45.07299 39.06662265957447" />
<path class="stroke" d="M 16.167883 49.51824728 L 16.14094 75.1570504 C 15.732985 86.42512959999999 16.417125 87.95052480000001 12.5916235 93.8136128" />
<path class="stroke" d="M 16.167883 49.51824728 L 36.60584 49.51824728 L 36.60584 92.19269840000001 C 36.60584 93.5007296 36.021895 94.645252 34.562042 94.645252 L 32.956205 94.645252" />
<path class="stroke" d="M 16.167883 61.843043120000004 L 36.60584 61.843043120000004" />
<path class="stroke" d="M 16.167883 74.86178816 L 36.60584 74.86178816" />
<path class="stroke" d="M 66.48265 6.15142 C 63.59095 19.0852 59.910650000000004 28.2334 54.968455 34.2271" />
<path class="stroke" d="M 64.5899 14.353272 L 82.57095000000001 14.353272 C 81.3091 22.450071 78.9432 29.284971 75.15775 33.911774" />
<path class="stroke" d="M 61.11985 33.91169 L 88.88015 33.91169 L 88.88015 66.71929" />
<path class="stroke" d="M 53.706625 50.31548 L 96.76655 50.31548" />
<path class="stroke" d="M 58.4385 66.71929 L 88.88015 66.71929" />
<path class="stroke" d="M 75.15775 33.9117 L 75.15775 88.1703 C 75.10515 92.1661 73.79075 94.5846 72.1609 94.4795 L 68.69085 94.4795" />
</svg>
