<?xml version="1.0" standalone="no"?>
<!DOCTYPE svg PUBLIC "-//W3C//DTD SVG 1.1//EN" "http://www.w3.org/Graphics/SVG/1.1/DTD/svg11.dtd">
<svg xmlns="http://www.w3.org/2000/svg" version="1.1" width="100%" height="100%">
<style type="text/css"><![CDATA[
  .stroke { fill:none; stroke:black; stroke-width:2 }
]]></style>
<path class="stroke" d="M 16.435644 4.80198 L 45.247524 4.80198 L 45.247524 42.6732675 C 45.247524 44.30693 43.465347 45.049505 40.79208 45.049505 L 37.227722 45.049505" />
<path class="stroke" d="M 11.683168 14.009901 C 18.51485 15.198019 24.752476 17.2772275 29.20792 20.09901" />
<path class="stroke" d="M 12.277227 34.059405 L 30.9901 26.3366335" />
<path class="stroke" d="M 61.287132 4.80198 L 88.91089 4.80198 L 88.91089 42.227722 C 88.91089 43.861385 87.42574 44.90099 84.15842 44.90099 L 81.18812 44.90099" />
<path class="stroke" d="M 58.316833 13.564356 C 64.85149 14.60396 69.90099 16.6831685 74.0594 19.950495" />
<path class="stroke" d="M 58.316833 33.762375 L 76.73267 26.039605" />
<path class="stroke" d="M 50.0 55.8029195 L 50.0 63.540146" />
<path class="stroke" d="M 22.116787 63.9781015 L 78.46715 63.9781015" />
<path class="stroke" d="M 26.788319 70.255475 C 32.627735 75.510948 37.007298 82.37226 39.343063 89.08759" />
<path class="stroke" d="M 74.087585 69.08759 C 67.08029 74.48904999999999 61.240875 82.81022 59.78102 91.423355" />
<path class="stroke" d="M 11.313868 92.88320999999999 L 88.10219 92.88320999999999" />
</svg>
