<?xml version="1.0" standalone="no"?>
<!DOCTYPE svg PUBLIC "-//W3C//DTD SVG 1.1//EN" "http://www.w3.org/Graphics/SVG/1.1/DTD/svg11.dtd">
<svg xmlns="http://www.w3.org/2000/svg" version="1.1" width="100%" height="100%">
<style type="text/css"><![CDATA[
  .stroke { fill:none; stroke:black; stroke-width:2 }
]]></style>
<path class="stroke" d="M 23.89591 10.729925 L 23.89591 23.86861" />
<path class="stroke" d="M 7.2627735 23.86861 L 42.88321 23.86861" />
<path class="stroke" d="M 23.17518 39.343063 L 38.941605 39.343063 C 38.2116775 53.06569 37.627735 62.116783 36.45985 70.29197 C 35.0 79.63503 32.37226 88.10219 30.036495 88.10219 L 27.116787 88.10219" />
<path class="stroke" d="M 23.9051075 23.86861 L 22.883211 41.38686 C 21.861313 60.07299 18.065693 78.46715 12.372261 84.014595" />
<path class="stroke" d="M 68.168318 9.90099 C 66.6831685 22.673267 63.118812500000004 37.82178 57.623762 46.435642" />
<path class="stroke" d="M 62.970297 35.742573 L 88.069305 35.742573" />
<path class="stroke" d="M 76.48515 36.039604 C 74.70297 61.287132 67.1287135 82.376236 55.247525 89.80198" />
<path class="stroke" d="M 62.970297 43.465347 C 66.237623 61.58416 82.12871 90.09901 90.89108999999999 90.09901" />
</svg>
