<?xml version="1.0" standalone="no"?>
<!DOCTYPE svg PUBLIC "-//W3C//DTD SVG 1.1//EN" "http://www.w3.org/Graphics/SVG/1.1/DTD/svg11.dtd">
<svg xmlns="http://www.w3.org/2000/svg" version="1.1" width="100%" height="100%">
<style type="text/css"><![CDATA[
  .stroke { fill:none; stroke:black; stroke-width:2 }
]]></style>
<path class="stroke" d="M 12.362784000000001 23.277558399999997 L 41.637223999999996 23.277558399999997" />
<path class="stroke" d="M 9.7129332 45.8138516 L 41.774028 45.681556" />
<path class="stroke" d="M 27.0 6.0788671999999995 L 27.0 45.814002 C 27.062336000000002 67.65557879999999 19.59728 83.57211 9.9653 87.62463799999999" />
<path class="stroke" d="M 27.0 45.813908 C 33.91948 56.22908544 36.662338399999996 62.67480079999999 40.776624 75.85921636" />
<path class="stroke" d="M 53.2 10.714287 L 53.2 59.285713" />
<path class="stroke" d="M 53.00000104 10.0 L 86.60000160000001 10.0 L 86.60000160000001 59.285713" />
<path class="stroke" d="M 53.40000008 26.785717 L 86.3999976 26.785717" />
<path class="stroke" d="M 53.40000008 41.785717 L 86.60000160000001 41.785717" />
<path class="stroke" d="M 53.00000104 56.071426 L 86.3999976 56.428574" />
<path class="stroke" d="M 63.600000800000004 57.14286 C 62.29197184 74.6611 55.3664216 87.51824 47.35474352 90.14598" />
<path class="stroke" d="M 72.6000016 57.5 L 72.53430408 82.55474 C 72.53430408 87.81021 74.49635088 90.43795 77.1124088 90.43795 L 90.68320800000001 90.43795 C 92.31824560000001 90.43795 93.29926760000001 89.270065 93.29926760000001 86.9343 L 93.29926760000001 83.43065" />
</svg>
