<?xml version="1.0" standalone="no"?>
<!DOCTYPE svg PUBLIC "-//W3C//DTD SVG 1.1//EN" "http://www.w3.org/Graphics/SVG/1.1/DTD/svg11.dtd">
<svg xmlns="http://www.w3.org/2000/svg" version="1.1" width="100%" height="100%">
<style type="text/css"><![CDATA[
  .stroke { fill:none; stroke:black; stroke-width:2 }
]]></style>
<path class="stroke" d="M 13.154171785714285 14.059406 C 16.654879285714284 16.138615 20.15558785714286 19.108912 23.01980357142857 22.673267" />
<path class="stroke" d="M 10.926448928571428 38.118813 C 14.108912142857141 39.90099 17.927864999999997 42.574257 20.473834285714286 46.138615" />
<path class="stroke" d="M 10.608203571428572 85.64356 C 11.321795357142857 87.422676 13.310014285714285 89.896904 15.629600357142856 89.896904 C 17.949189642857142 89.896904 21.110325 76.73267 23.33804892857143 69.60396" />
<path class="stroke" d="M 31.4905366 18.815458 L 95.04892099999999 18.815458" />
<path class="stroke" d="M 43.004746299999994 6.2981075 L 43.004746299999994 32.897487" />
<path class="stroke" d="M 63.26971712 6.2981075 L 63.26971712 32.701908" />
<path class="stroke" d="M 83.7649533 6.2981075 L 83.7649533 32.897487" />
<path class="stroke" d="M 43.004746299999994 32.897487 L 83.7649533 32.897487" />
<path class="stroke" d="M 34.19342949 42.3576629 L 34.19342949 51.370800110000005" />
<path class="stroke" d="M 34.19342949 41.98977881 L 92.8065654 41.98977881 L 92.8065654 51.55474121" />
<path class="stroke" d="M 42.774393339999996 53.1283629968 L 42.774393339999996 76.923049112" />
<path class="stroke" d="M 42.774393339999996 53.1283629968 L 84.600726504 53.1283629968 L 84.600726504 75.62809822400001 C 84.600726504 78.056126288 82.912666328 79.512945344 81.037044624 79.67481351199999 L 79.348990872 79.67481351199999" />
<path class="stroke" d="M 63.593777552 44.8730648072 L 63.593777552 89.386931312" />
</svg>
