<?xml version="1.0" standalone="no"?>
<!DOCTYPE svg PUBLIC "-//W3C//DTD SVG 1.1//EN" "http://www.w3.org/Graphics/SVG/1.1/DTD/svg11.dtd">
<svg xmlns="http://www.w3.org/2000/svg" version="1.1" width="100%" height="100%">
<style type="text/css"><![CDATA[
  .stroke { fill:none; stroke:black; stroke-width:2 }
]]></style>
<path class="stroke" d="M 10.267693518518518 11.8297 L 42.445910185185184 11.8297" />
<path class="stroke" d="M 9.71763888888889 30.09901 L 9.71763888888889 89.80198" />
<path class="stroke" d="M 9.71763888888889 30.1262 L 43.546018518518515 30.1262 L 43.546018518518515 89.80198" />
<path class="stroke" d="M 20.99376574074074 11.683168 L 20.99376574074074 40.79208 C 20.99376574074074 47.326733 20.718737037037037 54.455444 14.66813425925926 58.61386" />
<path class="stroke" d="M 31.444811111111115 11.980198 L 31.444811111111115 42.574257 C 31.444811111111115 48.811882 31.444811111111115 53.861385 35.84525 53.861385 L 38.320499999999996 53.861385" />
<path class="stroke" d="M 14.393105555555556 71.9802 L 39.145583333333335 71.9802" />
<path class="stroke" d="M 9.71763888888889 89.80198 L 43.546018518518515 89.80198" />
<path class="stroke" d="M 73.61313799999999 2.755474 C 70.69343 9.10583875 63.72665 16.21745 55.510948 21.29562 C 67.7737215 20.4927 78.4306565 20.1277375 90.09835000000001 20.181125" />
<path class="stroke" d="M 84.4160575 15.602188 C 87.77372 16.98905 90.693428 19.10583875 92.59124 21.9525525" />
<path class="stroke" d="M 68.503649 27.3905105 L 68.503649 34.178831 C 68.503649 40.1642325 64.708029 46.076640999999995 55.218978 47.6094875" />
<path class="stroke" d="M 77.116787 27.31751825 L 77.116787 44.543795 C 77.116787 46.3686125 79.014599 47.463502500000004 81.0583915 47.463502500000004 L 92.44525 47.463502500000004 C 94.051095 47.536495 95.218975 46.952552499999996 95.218975 46.149632499999996 L 95.218975 44.7627735" />
<path class="stroke" d="M 71.56934150000001 56.678831 C 68.21167750000001 63.248175 62.5182475 70.1094875 56.678831 74.48904999999999" />
<path class="stroke" d="M 69.8175165 60.474452 L 82.81022 60.474452 C 77.554745 72.4452535 66.3138675 86.31386499999999 55.0729925 93.90510499999999" />
<path class="stroke" d="M 64.270073 67.627737 C 70.0 78.225807 81.7883185 88.21167750000001 94.19708 93.90510499999999" />
</svg>
