<?xml version="1.0" standalone="no"?>
<!DOCTYPE svg PUBLIC "-//W3C//DTD SVG 1.1//EN" "http://www.w3.org/Graphics/SVG/1.1/DTD/svg11.dtd">
<svg xmlns="http://www.w3.org/2000/svg" version="1.1" width="100%" height="100%">
<style type="text/css"><![CDATA[
  .stroke { fill:none; stroke:black; stroke-width:2 }
]]></style>
<path class="stroke" d="M 13.154171785714285 14.059406 C 16.654879285714284 16.138615 20.15558785714286 19.108912 23.01980357142857 22.673267" />
<path class="stroke" d="M 10.926448928571428 38.118813 C 14.108912142857141 39.90099 17.927864999999997 42.574257 20.473834285714286 46.138615" />
<path class="stroke" d="M 10.608203571428572 85.64356 C 11.321795357142857 87.422676 13.310014285714285 89.896904 15.629600357142856 89.896904 C 17.949189642857142 89.896904 21.110325 76.73267 23.33804892857143 69.60396" />
<path class="stroke" d="M 40.0547425 17.626959574468085 L 84.7262725 17.626959574468085" />
<path class="stroke" d="M 62.609485 10.172385106382979 L 62.609485 43.407358510638296" />
<path class="stroke" d="M 42.0255475 30.36185744680851 L 82.974445 30.36185744680851" />
<path class="stroke" d="M 32.60948875 43.407358510638296 L 92.60948499999999 43.407358510638296" />
<path class="stroke" d="M 45.310219000000004 54.9270065 L 45.310219000000004 87.627735" />
<path class="stroke" d="M 45.52919575 54.9270065 L 79.689775 54.9270065 L 79.689775 87.627735" />
<path class="stroke" d="M 45.5366485 66.08911 L 79.653463 66.08911" />
<path class="stroke" d="M 45.5366485 77.0792085 L 79.653463 77.0792085" />
<path class="stroke" d="M 45.52919575 87.48175 L 79.4707975 87.48175" />
<path class="stroke" d="M 49.9087585 90.9854 C 48.156934 93.46715 41.0464525 95.149045 37.76178025 95.73298249999999" />
<path class="stroke" d="M 72.86649249999999 91.02094249999999 C 74.75130625 92.277485 81.81936999999999 96.047123 88.65183250000001 95.890053" />
</svg>
