<?xml version="1.0" standalone="no"?>
<!DOCTYPE svg PUBLIC "-//W3C//DTD SVG 1.1//EN" "http://www.w3.org/Graphics/SVG/1.1/DTD/svg11.dtd">
<svg xmlns="http://www.w3.org/2000/svg" version="1.1" width="100%" height="100%">
<style type="text/css"><![CDATA[
  .stroke { fill:none; stroke:black; stroke-width:2 }
]]></style>
<path class="stroke" d="M 14.874452360000001 9.854013 L 14.849664800000001 55.63759 C 11.70067086 80.20134 11.70067086 79.39597 8.18120764 89.865776" />
<path class="stroke" d="M 14.874452360000001 9.854013 L 33.6773728 9.854013 L 33.6773728 86.05839 C 33.6773728 88.39416 33.1401434 90.43795 31.79707864 90.43795 L 30.3197086 90.43795" />
<path class="stroke" d="M 14.874452360000001 31.862577 L 33.6773728 31.862577" />
<path class="stroke" d="M 14.874452360000001 55.110336 L 33.6773728 55.110336" />
<path class="stroke" d="M 41.16715193 14.9087585 L 91.8328407 14.9087585" />
<path class="stroke" d="M 56.2299251 7.97445105 L 56.2299251 22.397808949999998" />
<path class="stroke" d="M 76.7700682 7.97445105 L 76.7700682 22.397808949999998" />
<path class="stroke" d="M 49.57882974 31.15839385 L 49.57882974 58.381748800000004" />
<path class="stroke" d="M 49.57882974 31.15839385 L 83.22554500000001 31.15839385 L 83.22554500000001 58.381748800000004" />
<path class="stroke" d="M 49.77445165 44.028487909999996 L 83.02992510000001 44.028487909999996" />
<path class="stroke" d="M 49.57882974 57.19342868 L 83.22554500000001 57.19342868" />
<path class="stroke" d="M 43.31897753 72.9525543 L 89.87663500000001 72.9525543" />
<path class="stroke" d="M 66.59780660000001 63.24452555 L 66.59780660000001 74.07664125 C 66.59780660000001 81.9452555 56.32467382 90.0331199 40.18904975 91.857665" />
<path class="stroke" d="M 66.59780660000001 73.9744521 C 66.59780660000001 82.047445 77.0883383 90.014572 93.0065668 91.857665" />
</svg>
