<?xml version="1.0" standalone="no"?>
<!DOCTYPE svg PUBLIC "-//W3C//DTD SVG 1.1//EN" "http://www.w3.org/Graphics/SVG/1.1/DTD/svg11.dtd">
<svg xmlns="http://www.w3.org/2000/svg" version="1.1" width="100%" height="100%">
<style type="text/css"><![CDATA[
  .stroke { fill:none; stroke:black; stroke-width:2 }
]]></style>
<path class="stroke" d="M 13.154171785714285 14.059406 C 16.654879285714284 16.138615 20.15558785714286 19.108912 23.01980357142857 22.673267" />
<path class="stroke" d="M 10.926448928571428 38.118813 C 14.108912142857141 39.90099 17.927864999999997 42.574257 20.473834285714286 46.138615" />
<path class="stroke" d="M 10.608203571428572 85.64356 C 11.321795357142857 87.422676 13.310014285714285 89.896904 15.629600357142856 89.896904 C 17.949189642857142 89.896904 21.110325 76.73267 23.33804892857143 69.60396" />
<path class="stroke" d="M 36.1342175272 9.58613786 L 55.3460985232 9.58613786 L 55.3460985232 42.253467179999994" />
<path class="stroke" d="M 39.4002373612 24.38415836 L 52.080079336 24.38415836" />
<path class="stroke" d="M 36.518456182 41.974257099999996 L 52.080079336 36.1108896" />
<path class="stroke" d="M 64.3756852432 9.3069306 L 83.7796852432 9.3069306 L 83.7796852432 42.532672559999995" />
<path class="stroke" d="M 68.602300744 24.38415836 L 80.513666056 24.38415836" />
<path class="stroke" d="M 65.33627767600001 41.974257099999996 L 80.897897596 36.1108896" />
<path class="stroke" d="M 48.0868235849 47.22262689 C 47.063903887100004 52.48394113 40.517218241600006 58.0547441 36.6301228294 59.29269955" />
<path class="stroke" d="M 45.0180644915 55.26934235 L 45.0180644915 89.9321135" />
<path class="stroke" d="M 69.36355105690001 47.37737205 C 68.1360479801 50.78175126 65.8856259062 53.72189711 62.612283433799995 55.424086450000004" />
<path class="stroke" d="M 45.0180644915 55.1246232 L 82.866091208 55.1246232" />
<path class="stroke" d="M 63.635204533 55.424086450000004 L 63.635204533 89.9321135" />
<path class="stroke" d="M 45.0180644915 67.3296805 L 80.206500274 67.3296805" />
<path class="stroke" d="M 45.0180644915 78.63576452000001 L 80.411083653 78.63576452000001" />
<path class="stroke" d="M 45.0180644915 89.9321135 L 86.9577699992 89.9321135" />
</svg>
