<?xml version="1.0" standalone="no"?>
<!DOCTYPE svg PUBLIC "-//W3C//DTD SVG 1.1//EN" "http://www.w3.org/Graphics/SVG/1.1/DTD/svg11.dtd">
<svg xmlns="http://www.w3.org/2000/svg" version="1.1" width="100%" height="100%">
<style type="text/css"><![CDATA[
  .stroke { fill:none; stroke:black; stroke-width:2 }
]]></style>
<path class="stroke" d="M 18.73868438 10.03284525 L 18.73868438 27.1618005" />
<path class="stroke" d="M 18.73868438 10.03284525 L 81.51240724 10.03284525 L 81.51240724 27.1618005" />
<path class="stroke" d="M 38.605713800000004 10.03284525 L 38.605713800000004 27.1618005" />
<path class="stroke" d="M 61.39436016 10.03284525 L 61.39436016 27.1618005" />
<path class="stroke" d="M 18.73868438 27.169852499999998 L 81.6752448 27.169852499999998" />
<path class="stroke" d="M 27.080292 37.40510845 L 27.080292 79.9160555" />
<path class="stroke" d="M 27.372261 37.40510845 L 72.9197 37.40510845 L 72.9197 79.9160555" />
<path class="stroke" d="M 27.382198 51.915843 L 72.871284 51.915843" />
<path class="stroke" d="M 27.382198 66.20297105 L 72.871284 66.20297105" />
<path class="stroke" d="M 27.372261 79.726275 L 72.62773 79.726275" />
<path class="stroke" d="M 33.211678 84.28102 C 30.875912 87.507295 21.39527 89.6937585 17.015707 90.45287725" />
<path class="stroke" d="M 63.82199 84.32722525 C 66.335075 85.9607305 75.75916 90.8612599 84.86911 90.65706890000001" />
</svg>
