<?xml version="1.0" standalone="no"?>
<!DOCTYPE svg PUBLIC "-//W3C//DTD SVG 1.1//EN" "http://www.w3.org/Graphics/SVG/1.1/DTD/svg11.dtd">
<svg xmlns="http://www.w3.org/2000/svg" version="1.1" width="100%" height="100%">
<style type="text/css"><![CDATA[
  .stroke { fill:none; stroke:black; stroke-width:2 }
]]></style>
<path class="stroke" d="M 13.154171785714285 11.435643599999999 C 16.654879285714284 12.683169000000001 20.15558785714286 14.4653472 23.01980357142857 16.6039602" />
<path class="stroke" d="M 10.926448928571428 25.8712878 C 14.108912142857141 26.940594 17.927864999999997 28.5445542 20.473834285714286 30.683169" />
<path class="stroke" d="M 10.608203571428572 54.38613599999999 C 11.321795357142857 55.453605599999996 13.310014285714285 56.938142400000004 15.629600357142856 56.938142400000004 C 17.949189642857142 56.938142400000004 21.110325 49.039601999999995 23.33804892857143 44.762375999999996" />
<path class="stroke" d="M 63.6065654 9.9372252 C 55.294157600000005 18.8715318 45.91605711 25.878831599999998 34.19342949 30.0832098" />
<path class="stroke" d="M 63.6065654 9.9372252 C 72.13211422 18.521166 80.87079968 25.878831599999998 93.0197035 29.9080284" />
<path class="stroke" d="M 47.8407189 27.90475488 L 77.7775809 27.90475488" />
<path class="stroke" d="M 32.87223826 38.0649744 L 95.04890202 38.0649744" />
<path class="stroke" d="M 62.809128 28.071254399999997 L 62.809128 58.3854768 L 56.969128 58.3854768" />
<path class="stroke" d="M 48.761883999999995 45.560304 C 45.84495 50.9457456 42.006902 53.999380800000004 35.405366 57.5527152" />
<path class="stroke" d="M 74.783975 45.726835200000004 C 81.61568 48.447407999999996 86.1446 52.333752 89.752333 57.5527152" />
<path class="stroke" d="M 18.321167 78.3620432 L 81.678825 78.3620432" />
<path class="stroke" d="M 50.0 67.24379517 L 50.0 92.8554714" />
<path class="stroke" d="M 9.854013 92.8554714 L 89.85401 92.8554714" />
</svg>
