<?xml version="1.0" standalone="no"?>
<!DOCTYPE svg PUBLIC "-//W3C//DTD SVG 1.1//EN" "http://www.w3.org/Graphics/SVG/1.1/DTD/svg11.dtd">
<svg xmlns="http://www.w3.org/2000/svg" version="1.1" width="100%" height="100%">
<style type="text/css"><![CDATA[
  .stroke { fill:none; stroke:black; stroke-width:2 }
]]></style>
<path class="stroke" d="M 18.927302857142855 8.6813872 C 17.485245714285714 13.03896 14.601131428571428 17.396488 8.472285714285713 20.517368" />
<path class="stroke" d="M 17.124845714285712 14.687706400000001 L 52.09558857142857 14.687706400000001" />
<path class="stroke" d="M 7.3907108571428575 24.933752000000002 L 56.78236571428571 24.933752000000002" />
<path class="stroke" d="M 10.635417142857142 33.943200000000004 L 10.635417142857142 52.49213600000001" />
<path class="stroke" d="M 10.635417142857142 33.943200000000004 L 54.258628571428574 33.943200000000004 L 54.258628571428574 50.372256 C 54.378857142857136 51.844384000000005 51.97531428571428 52.609904 50.29291428571429 52.668760000000006 L 46.68765714285714 52.668760000000006" />
<path class="stroke" d="M 32.266731428571426 7.2681376 L 32.266731428571426 57.261824000000004" />
<path class="stroke" d="M 68.651375 10.801256 L 68.651375 42.42272" />
<path class="stroke" d="M 87.97312500000001 7.798104800000001 L 87.97312500000001 51.078864 C 88.104625 54.1998 83.89849999999998 55.73084 78.90375 55.671928 L 74.56625000000001 55.671928" />
<path class="stroke" d="M 50.3155 60.7839107 L 50.3155 66.320183" />
<path class="stroke" d="M 6.15142 66.320183 L 93.2177 66.320183" />
<path class="stroke" d="M 50.3155 66.320183 C 40.2209 73.619891 25.7098 78.95111299999999 7.09779 82.313888" />
<path class="stroke" d="M 30.4416 76.408508 L 30.4416 93.632507 M 11.1987 95.108813 C 27.8128 94.739756 44.4269 94.00160299999999 59.1482 91.294964" />
<path class="stroke" d="M 88.48578 72.8406593 C 79.96848 75.7933883 70.50478 77.8848413 60.09458 78.9921293" />
<path class="stroke" d="M 50.0 66.320183 C 56.8349 80.878571 71.2408 88.793348 90.694 94.616672" />
</svg>
