<?xml version="1.0" standalone="no"?>
<!DOCTYPE svg PUBLIC "-//W3C//DTD SVG 1.1//EN" "http://www.w3.org/Graphics/SVG/1.1/DTD/svg11.dtd">
<svg xmlns="http://www.w3.org/2000/svg" version="1.1" width="100%" height="100%">
<style type="text/css"><![CDATA[
  .stroke { fill:none; stroke:black; stroke-width:2 }
]]></style>
<path class="stroke" d="M 18.1386849 10.729925 C 15.277371199999997 18.029196 11.394159 23.86861 7.715327199999999 28.540146 C 10.5766416 31.45985 14.051093 36.131386 17.321165399999998 40.218975" />
<path class="stroke" d="M 25.9051086 25.912407 C 21.0 34.67153 14.459853099999998 45.18248 6.2846714 56.277367 C 13.642335 54.525543 21.8175167 52.48175 29.175180999999995 50.437954" />
<path class="stroke" d="M 26.722625999999998 43.430653 C 28.766420899999996 46.642334 29.379561399999996 49.85401 30.605838199999997 55.40146" />
<path class="stroke" d="M 18.547445 54.233574 L 18.547445 89.56204" />
<path class="stroke" d="M 12.2116771 65.03649 C 10.985401 70.87591 9.5547431 74.67153 6.693429399999999 78.75912" />
<path class="stroke" d="M 23.861313 65.32846 C 26.1094869 68.540146 26.145944999999998 68.81081 27.281078999999995 71.72973" />
<path class="stroke" d="M 51.58019121621622 15.109488 C 48.34878560810811 22.70073 44.96350233783784 27.956203 42.03984889189189 30.875912" />
<path class="stroke" d="M 52.50345191891892 35.547443 C 49.27204578378378 43.138683 44.65575017567568 49.85401 40.50108491891892 53.06569" />
<path class="stroke" d="M 47.88715631081081 45.47445 L 47.88715631081081 89.85401" />
<path class="stroke" d="M 60.431605225 7.245597794117647 C 63.240364321 10.680549264705883 65.487371213 15.403605882352942 67.172626863 19.911979411764708" />
<path class="stroke" d="M 90.20444943 7.245597794117647 C 89.058479436 11.496349264705882 86.69350055999999 16.477026470588235 84.30605706 20.126662500000002" />
<path class="stroke" d="M 56.072713480000004 23.4463735 L 95.8272769 23.4463735" />
<path class="stroke" d="M 76.1017555 23.71454 L 75.95 92.32257475" />
<path class="stroke" d="M 76.1017555 54.014235 L 91.7304556 54.014235" />
<path class="stroke" d="M 63.355977 52.13718 C 63.1030672 76.00152499999999 59.9672358 84.850195 55.010564470000006 94.503135" />
<path class="stroke" d="M 63.355977 52.13718 C 63.8111954 94.77131 76.88096684199999 92.870965 83.55290245 93.967737 L 96.7377137 94.235045" />
</svg>
