<?xml version="1.0" standalone="no"?>
<!DOCTYPE svg PUBLIC "-//W3C//DTD SVG 1.1//EN" "http://www.w3.org/Graphics/SVG/1.1/DTD/svg11.dtd">
<svg xmlns="http://www.w3.org/2000/svg" version="1.1" width="100%" height="100%">
<style type="text/css"><![CDATA[
  .stroke { fill:none; stroke:black; stroke-width:2 }
]]></style>
<path class="stroke" d="M 17.223941099999998 8.853112152941176 C 19.536349836 11.106440317647058 21.386276507999998 14.204765458823529 22.773721908000002 17.162258494117648" />
<path class="stroke" d="M 41.73547188 8.853112152941176 C 40.792012176 11.64160511764706 38.844960959999995 14.908929364705882 36.87941496 17.3030906" />
<path class="stroke" d="M 5.7372252 19.27 L 54.262769999999996 19.27" />
<path class="stroke" d="M 13.7735022 26.810718 L 13.7735022 46.022064 L 47.426502000000006 46.022064" />
<path class="stroke" d="M 47.426502000000006 26.810718 L 47.426502000000006 46.022064" />
<path class="stroke" d="M 30.599999999999998 20.716089599999997 L 30.599999999999998 46.684529999999995 C 30.599999999999998 54.324918 22.915469999999996 56.53311 15.893363999999998 58.078835999999995" />
<path class="stroke" d="M 69.5510947 5.9124077999999995 L 69.526846 33.382554 C 66.44630845 48.120804 66.44630845 47.637582 63.003355299999996 53.919465599999995" />
<path class="stroke" d="M 69.5510947 5.9124077999999995 L 87.945256 5.9124077999999995 L 87.945256 51.635034 C 87.945256 53.036496 87.41970549999999 54.262769999999996 86.1058378 54.262769999999996 L 84.6605845 54.262769999999996" />
<path class="stroke" d="M 69.5510947 19.1175462 L 87.945256 19.1175462" />
<path class="stroke" d="M 69.5510947 33.0662016 L 87.945256 33.0662016" />
<path class="stroke" d="M 18.321167 76.71751760000001 L 81.678825 76.71751760000001" />
<path class="stroke" d="M 50.0 64.618247685 L 50.0 92.48977769999999" />
<path class="stroke" d="M 9.854013 92.48977769999999 L 89.85401 92.48977769999999" />
</svg>
