<?xml version="1.0" standalone="no"?>
<!DOCTYPE svg PUBLIC "-//W3C//DTD SVG 1.1//EN" "http://www.w3.org/Graphics/SVG/1.1/DTD/svg11.dtd">
<svg xmlns="http://www.w3.org/2000/svg" version="1.1" width="100%" height="100%">
<style type="text/css"><![CDATA[
  .stroke { fill:none; stroke:black; stroke-width:2 }
]]></style>
<path class="stroke" d="M 20.273721416666664 9.562042 C 23.4854015 11.021896 26.697077 14.817516 28.83819583333333 19.48905" />
<path class="stroke" d="M 9.03284525 22.8707 L 39.00851166666667 22.8707" />
<path class="stroke" d="M 14.9209225 37.007298 L 33.12043716666666 37.007298" />
<path class="stroke" d="M 14.9209225 51.313866 L 33.12043716666666 51.313866" />
<path class="stroke" d="M 13.850364 64.45255 L 13.850364 85.76642" />
<path class="stroke" d="M 13.850364 64.16058 L 34.72627583333333 64.16058 L 34.72627583333333 85.76642" />
<path class="stroke" d="M 13.850364 85.76642 L 34.45863666666666 85.76642" />
<path class="stroke" d="M 50.2613137 21.3686116 L 83.49342730000001 21.3686116" />
<path class="stroke" d="M 67.00001764 10.05474403 L 67.00001764 34.7642324" />
<path class="stroke" d="M 53.32700626 34.7642324 L 80.55036340000001 34.7642324" />
<path class="stroke" d="M 47.907298474 46.6773704 L 47.907298474 59.26714936" />
<path class="stroke" d="M 47.907298474 46.16350056 L 87.89269804 46.16350056 L 87.89269804 59.52408296" />
<path class="stroke" d="M 60.494159859999996 57.01605764 L 60.494159859999996 68.42043608 C 60.494159859999996 78.47591059999999 56.16715306 88.40875688 45.34963492 90.98393899999999" />
<path class="stroke" d="M 70.31313718 56.89343066 L 70.31313718 85.83357559999999 C 70.31313718 88.899269 72.47664286 90.7386842 74.80656631 90.7386842 L 87.78758499999999 90.7386842 C 89.61824829999999 90.8613116 90.9496315 89.8802882 90.9496315 88.5313826 L 90.9496315 86.20145948000001" />
</svg>
