<?xml version="1.0" standalone="no"?>
<!DOCTYPE svg PUBLIC "-//W3C//DTD SVG 1.1//EN" "http://www.w3.org/Graphics/SVG/1.1/DTD/svg11.dtd">
<svg xmlns="http://www.w3.org/2000/svg" version="1.1" width="100%" height="100%">
<style type="text/css"><![CDATA[
  .stroke { fill:none; stroke:black; stroke-width:2 }
]]></style>
<path class="stroke" d="M 13.5401455 38.46715 L 35.34063166666667 35.839413" />
<path class="stroke" d="M 25.462285333333334 15.401459 L 25.462285333333334 71.16788" />
<path class="stroke" d="M 10.815085166666668 74.9635 L 37.04379350000001 68.24817" />
<path class="stroke" d="M 43.63941584 13.540700000000001 L 87.00058144000002 13.540700000000001" />
<path class="stroke" d="M 65.32 2.5865911861999997 L 65.32 26.139289952000006" />
<path class="stroke" d="M 43.480583072 27.136765639 L 86.84174976 27.136765639" />
<path class="stroke" d="M 54.96645056 23.263 L 54.96645056 41.0192242855" />
<path class="stroke" d="M 76.024513216 23.4044838073 L 76.024513216 40.807" />
<path class="stroke" d="M 50.41459856 44.109488060000004 L 50.41459856 84.6583914" />
<path class="stroke" d="M 50.613137480000006 44.109488060000004 L 81.585396 44.109488060000004 L 81.585396 84.6583914" />
<path class="stroke" d="M 50.61989464 57.950496400000006 L 81.55247312 57.950496400000006" />
<path class="stroke" d="M 50.61989464 71.57821854 L 81.55247312 71.57821854" />
<path class="stroke" d="M 50.613137480000006 84.47737000000001 L 81.3868564 84.47737000000001" />
<path class="stroke" d="M 54.58394104 88.821896 C 52.99562016 91.899266 46.5487836 93.9848158 43.57068076 94.7088983" />
<path class="stroke" d="M 75.3989532 88.8659687 C 77.10785100000001 90.4240814 83.5162288 95.09843251999999 89.71099480000001 94.90366571999999" />
</svg>
