<?xml version="1.0" standalone="no"?>
<!DOCTYPE svg PUBLIC "-//W3C//DTD SVG 1.1//EN" "http://www.w3.org/Graphics/SVG/1.1/DTD/svg11.dtd">
<svg xmlns="http://www.w3.org/2000/svg" version="1.1" width="100%" height="100%">
<style type="text/css"><![CDATA[
  .stroke { fill:none; stroke:black; stroke-width:2 }
]]></style>
<path class="stroke" d="M 25.912407 7.43430585 C 24.452553 11.901459449999999 15.109488 16.631386499999998 9.562042 17.682480750000003" />
<path class="stroke" d="M 21.532845 14.26642275 L 21.532845 43.6970775" />
<path class="stroke" d="M 56.277367 7.56569325 C 54.525543 10.456203899999998 51.313866 12.95255415 46.642334 14.397809250000002" />
<path class="stroke" d="M 21.532845 14.143548 L 75.54744 14.143548" />
<path class="stroke" d="M 48.10219 14.397809250000002 L 48.10219 43.6970775" />
<path class="stroke" d="M 21.532845 24.5063325 L 71.75182 24.5063325" />
<path class="stroke" d="M 21.532845 34.1058378 L 72.04379 34.1058378" />
<path class="stroke" d="M 21.532845 43.6970775 L 81.386856 43.6970775" />
<path class="stroke" d="M 29.838707 55.91935465 L 29.838707 71.8870957 C 29.838707 83.2096762 25.967741 87.12903130000001 14.032257 91.7741905" />
<path class="stroke" d="M 12.5786 55.9622635 L 69.4969 55.9622635 L 69.4969 71.10376 L 92.7673 71.10376 L 92.7673 83.27356 C 92.9769 89.26414 86.64864 94.75 76.918915 93.0351337 L 70.1081 91.721617" />
</svg>
