<?xml version="1.0" standalone="no"?>
<!DOCTYPE svg PUBLIC "-//W3C//DTD SVG 1.1//EN" "http://www.w3.org/Graphics/SVG/1.1/DTD/svg11.dtd">
<svg xmlns="http://www.w3.org/2000/svg" version="1.1" width="100%" height="100%">
<style type="text/css"><![CDATA[
  .stroke { fill:none; stroke:black; stroke-width:2 }
]]></style>
<path class="stroke" d="M 25.473195 4.48264774 L 25.473195 10.88640976" />
<path class="stroke" d="M 3.864375 11.6183164 L 46.766575 11.6183164" />
<path class="stroke" d="M 9.7003 11.80126 L 9.7003 47.75401 C 9.49 50.406988 10.6992 52.87697599999999 13.1703 52.968441999999996 L 44.87385 52.968441999999996" />
<path class="stroke" d="M 66.167883 5.71532754 L 66.14094 32.2698022 C 62.7181205 46.5167772 62.7181205 46.0496626 58.892617 52.12215008" />
<path class="stroke" d="M 66.167883 5.71532754 L 86.60584 5.71532754 L 86.60584 49.9138662 C 86.60584 51.2686128 86.021895 52.454010999999994 84.56204199999999 52.454010999999994 L 82.956205 52.454010999999994" />
<path class="stroke" d="M 66.167883 18.48029466 L 86.60584 18.48029466" />
<path class="stroke" d="M 66.167883 31.963994879999994 L 86.60584 31.963994879999994" />
<path class="stroke" d="M 20.07299 66.6277368 L 79.927 66.6277368" />
<path class="stroke" d="M 50.31146 66.6277368 L 50.31146 95.12408400000001" />
<path class="stroke" d="M 24.744522 80.5255464 L 75.54744 80.5255464" />
<path class="stroke" d="M 11.021896 95.12408400000001 L 89.270065 95.12408400000001" />
</svg>
