<?xml version="1.0" standalone="no"?>
<!DOCTYPE svg PUBLIC "-//W3C//DTD SVG 1.1//EN" "http://www.w3.org/Graphics/SVG/1.1/DTD/svg11.dtd">
<svg xmlns="http://www.w3.org/2000/svg" version="1.1" width="100%" height="100%">
<style type="text/css"><![CDATA[
  .stroke { fill:none; stroke:black; stroke-width:2 }
]]></style>
<path class="stroke" d="M 25.708004400000004 9.562042 L 25.708004400000004 16.861313" />
<path class="stroke" d="M 9.830655640000002 16.861313 L 41.4102156 16.861313" />
<path class="stroke" d="M 14.84087592 17.153284 C 17.27007256 22.992699 19.24379496 30.29197 20.002917999999998 38.17518" />
<path class="stroke" d="M 35.4890484 17.153284 C 34.4262776 24.744522 32.908027360000006 31.751823 30.782479 38.17518" />
<path class="stroke" d="M 8.1605836 38.17518 L 44.143060000000006 38.17518" />
<path class="stroke" d="M 8.22978 38.17518 L 8.22978 61.240875 C 8.22978 74.67153 7.09780916 83.722626 4.8204379600000005 90.14598" />
<path class="stroke" d="M 36.365836936 45.61678741 C 31.255413904000005 51.94087528 23.8402916752 56.600727879999994 18.4292549584 57.099999999999994" />
<path class="stroke" d="M 39.271766248000006 59.5963492 C 33.413290768 68.0590993 28.298478208000002 71.6136763 19.483489168000002 73.18015030000001" />
<path class="stroke" d="M 42.122265328000005 74.74359418 C 35.613624904 85.18065385 26.7462178984 90.5510941 17.3270070688 91.05036279999999" />
<path class="stroke" d="M 52.62627686 17.065691960000002 L 88.0189748 17.065691960000002" />
<path class="stroke" d="M 70.57664059999999 17.065691960000002 C 69.89927019999999 21.63211472 68.54452476 25.39269844 66.628192 28.297132" />
<path class="stroke" d="M 54.122 28.588772000000002 L 54.122 78.57809808" />
<path class="stroke" d="M 54.122 28.588772000000002 L 86.674906 28.588772000000002 L 86.674906 78.3094866" />
<path class="stroke" d="M 54.305918 45.5090072 L 86.674906 45.5090072" />
<path class="stroke" d="M 54.305918 63.0125684 L 86.674906 63.0125684" />
<path class="stroke" d="M 54.150364319999994 78.57809808 L 86.83357079999999 78.57809808" />
<path class="stroke" d="M 60.58539994 84.4875856 C 57.53722502 87.979556 53.981021139999996 90.3970768 49.74744396 90.6656892" />
<path class="stroke" d="M 80.90656820000001 84.756198 C 84.4627744 85.8306476 87.3416044 87.4423312 90.7284651 91.47152640000002" />
</svg>
