<?xml version="1.0" standalone="no"?>
<!DOCTYPE svg PUBLIC "-//W3C//DTD SVG 1.1//EN" "http://www.w3.org/Graphics/SVG/1.1/DTD/svg11.dtd">
<svg xmlns="http://www.w3.org/2000/svg" version="1.1" width="100%" height="100%">
<style type="text/css"><![CDATA[
  .stroke { fill:none; stroke:black; stroke-width:2 }
]]></style>
<path class="stroke" d="M 49.6845 5.665616 C 49.369 7.886431999999999 46.2145 9.703456 39.2744 11.116703999999999" />
<path class="stroke" d="M 18.4542 11.116736 L 18.4542 33.627776" />
<path class="stroke" d="M 18.4542 11.116736 L 80.5994 11.116736 L 80.5994 33.526816" />
<path class="stroke" d="M 39.27444 11.217664 L 39.27444 33.627776" />
<path class="stroke" d="M 60.41014 11.11672256 L 60.41014 33.728723200000005" />
<path class="stroke" d="M 7.09779 33.72870399999999 L 92.9022 33.72870399999999" />
<path class="stroke" d="M 57.571 41.1672 C 50.5258 52.2082 40.9569 59.7792 29.8107 63.8801" />
<path class="stroke" d="M 45.89909 54.732 L 45.89909 94.1641" />
<path class="stroke" d="M 30.1261 41.1672 C 24.6582 52.8391 17.613 60.0946 7.09779 66.4038" />
<path class="stroke" d="M 31.7034 73.3439 C 26.2355 83.5436 17.9285 90.2733 7.41325 94.164" />
<path class="stroke" d="M 91.95579 41.16727 C 87.329185 55.15247 77.65508 64.72137 65.45738 68.61197" />
<path class="stroke" d="M 56.6246 56.3092 C 60.9359 76.919 74.3954 89.327 93.2177 94.4794" />
</svg>
