<?xml version="1.0" standalone="no"?>
<!DOCTYPE svg PUBLIC "-//W3C//DTD SVG 1.1//EN" "http://www.w3.org/Graphics/SVG/1.1/DTD/svg11.dtd">
<svg xmlns="http://www.w3.org/2000/svg" version="1.1" width="100%" height="100%">
<style type="text/css"><![CDATA[
  .stroke { fill:none; stroke:black; stroke-width:2 }
]]></style>
<path class="stroke" d="M 17.05742536 9.58613786 L 42.00792016 9.58613786 L 42.00792016 42.253467179999994" />
<path class="stroke" d="M 21.299009560000002 24.38415836 L 37.7663368 24.38415836" />
<path class="stroke" d="M 17.5564366 41.974257099999996 L 37.7663368 36.1108896" />
<path class="stroke" d="M 53.73465616 9.3069306 L 78.93465616 9.3069306 L 78.93465616 42.532672559999995" />
<path class="stroke" d="M 59.223767200000005 24.38415836 L 74.6930728 24.38415836" />
<path class="stroke" d="M 54.9821788 41.974257099999996 L 75.1920748 36.1108896" />
<path class="stroke" d="M 32.58029037 47.22262689 C 31.251823230000003 52.48394113 22.74963408 58.0547441 17.70145822 59.29269955" />
<path class="stroke" d="M 28.594888949999998 55.26934235 L 28.594888949999998 89.9321135" />
<path class="stroke" d="M 60.21240397 47.37737205 C 58.61824413 50.78175126 55.69561806 53.72189711 51.444523939999996 55.424086450000004" />
<path class="stroke" d="M 28.594888949999998 55.1246232 L 77.74817039999999 55.1246232" />
<path class="stroke" d="M 52.7729929 55.424086450000004 L 52.7729929 89.9321135" />
<path class="stroke" d="M 28.594888949999998 67.3296805 L 74.2941562 67.3296805" />
<path class="stroke" d="M 28.594888949999998 78.63576452000001 L 74.5598489 78.63576452000001" />
<path class="stroke" d="M 28.594888949999998 89.9321135 L 83.06203896 89.9321135" />
</svg>
