<?xml version="1.0" standalone="no"?>
<!DOCTYPE svg PUBLIC "-//W3C//DTD SVG 1.1//EN" "http://www.w3.org/Graphics/SVG/1.1/DTD/svg11.dtd">
<svg xmlns="http://www.w3.org/2000/svg" version="1.1" width="100%" height="100%">
<style type="text/css"><![CDATA[
  .stroke { fill:none; stroke:black; stroke-width:2 }
]]></style>
<path class="stroke" d="M 11.313868 17.445253 C 15.401459 18.029196 19.48905 20.364962 22.408756 24.160583" />
<path class="stroke" d="M 9.270073 47.226276 C 13.357662 47.226276 18.321167 46.934303 23.86861 43.138683 C 16.27737 53.357662 14.233576 58.321167 15.109488 60.9489 C 15.69343 63.284668 20.948904 65.62044 22.116787 68.832115 C 23.576641 72.33576 18.129246 80.26506 11.021896 83.722626" />
<path class="stroke" d="M 11.021896 84.014595 C 39.692924 81.65476 40.51095 91.313866 90.43795 90.14598" />
<path class="stroke" d="M 46.861385999999996 10.0673264 C 49.1485135 11.81386112 50.8118815 14.3089106 52.0594054 17.552473999999997" />
<path class="stroke" d="M 74.099009 10.0673264 C 73.267325 13.56039668 72.019806 16.30495052 69.9405946 18.30099044" />
<path class="stroke" d="M 33.554456 20.087589799999996 L 88.4455468 20.087589799999996" />
<path class="stroke" d="M 60.489048999999994 20.332845439999996 C 57.627736 24.256933999999998 56.605838199999994 26.70948872 55.92115 29.690852" />
<path class="stroke" d="M 43.9504962 29.7782162 L 43.9504962 75.93663704" />
<path class="stroke" d="M 43.9504962 29.7782162 L 77.84158 29.7782162 L 77.84158 75.93663704" />
<path class="stroke" d="M 44.1584158 45.348901399999995 L 77.84158 45.348901399999995" />
<path class="stroke" d="M 43.9504962 60.8 L 77.84158 60.8" />
<path class="stroke" d="M 44.1584158 75.93663704 L 77.84158 75.93663704" />
</svg>
