<?xml version="1.0" standalone="no"?>
<!DOCTYPE svg PUBLIC "-//W3C//DTD SVG 1.1//EN" "http://www.w3.org/Graphics/SVG/1.1/DTD/svg11.dtd">
<svg xmlns="http://www.w3.org/2000/svg" version="1.1" width="100%" height="100%">
<style type="text/css"><![CDATA[
  .stroke { fill:none; stroke:black; stroke-width:2 }
]]></style>
<path class="stroke" d="M 13.154171785714285 14.059406 C 16.654879285714284 16.138615 20.15558785714286 19.108912 23.01980357142857 22.673267" />
<path class="stroke" d="M 10.926448928571428 38.118813 C 14.108912142857141 39.90099 17.927864999999997 42.574257 20.473834285714286 46.138615" />
<path class="stroke" d="M 10.608203571428572 85.64356 C 11.321795357142857 87.422676 13.310014285714285 89.896904 15.629600357142856 89.896904 C 17.949189642857142 89.896904 21.110325 76.73267 23.33804892857143 69.60396" />
<path class="stroke" d="M 49.1131381 17.153284 C 48.68685971 25.036495 46.98175053 32.919704 44.4240853 35.839413" />
<path class="stroke" d="M 47.621166290000005 29.708027 L 80.4445264 29.708027" />
<path class="stroke" d="M 63.639038719999995 9.854013 L 63.639038719999995 48.394157" />
<path class="stroke" d="M 38.24306507 48.394157 L 88.11751698 48.394157" />
<path class="stroke" d="M 56.55827669999999 54.525543 L 56.55827669999999 58.905106 C 56.55827669999999 70.87591 49.32627547 86.642334 39.09561966 87.81021" />
<path class="stroke" d="M 66.16422990000001 54.525543 L 66.16422990000001 79.927 C 66.16422990000001 86.9343 70.21386475 91.0219 74.4766377 91.0219 L 88.11751698 91.0219 C 90.03576279999999 91.0219 91.5277368 89.56204 91.5277368 86.642334 L 91.5277368 84.59853" />
</svg>
