<?xml version="1.0" standalone="no"?>
<!DOCTYPE svg PUBLIC "-//W3C//DTD SVG 1.1//EN" "http://www.w3.org/Graphics/SVG/1.1/DTD/svg11.dtd">
<svg xmlns="http://www.w3.org/2000/svg" version="1.1" width="100%" height="100%">
<style type="text/css"><![CDATA[
  .stroke { fill:none; stroke:black; stroke-width:2 }
]]></style>
<path class="stroke" d="M 20.770715441176474 11.605839 C 17.979818382352942 27.372261 12.183339705882354 41.970802 7.245597794117647 50.14598" />
<path class="stroke" d="M 16.477026470588235 30.583939 L 16.477026470588235 90.43795" />
<path class="stroke" d="M 36.074159112000004 13.3394155 L 91.12583288 13.3394155" />
<path class="stroke" d="M 52.440873839999995 7.13503515 L 52.440873839999995 20.040144849999997" />
<path class="stroke" d="M 74.75911888000002 7.13503515 L 74.75911888000002 20.040144849999997" />
<path class="stroke" d="M 35.1240856 26.08029066 L 92.116784 26.08029066" />
<path class="stroke" d="M 34.8905104 26.08029066 L 34.8905104 43.55766242 C 34.8905104 79.23065460000001 31.8540128 84.73722192 28.1584152 91.8811882" />
<path class="stroke" d="M 47.22569248 34.7399695072 L 47.22569248 73.5062164288 C 47.22569248 80.24816996799998 45.992409088 85.5153232 42.703649152 90.3611082144" />
<path class="stroke" d="M 47.22569248 34.7399695072 L 87.51299008 34.7399695072 L 87.51299008 90.15041977599999 C 87.51299008 91.41454030399998 86.69080256000001 92.88933916799999 85.04642048 92.88933916799999 L 83.607588096 92.88933916799999" />
<path class="stroke" d="M 47.22569248 51.172495823999995 L 87.51299008 51.172495823999995" />
<path class="stroke" d="M 47.22569248 68.245046704 L 87.51299008 68.245046704" />
<path class="stroke" d="M 67.02082924800001 35.161342776 L 67.02082924800001 89.72904867199999" />
</svg>
