<?xml version="1.0" standalone="no"?>
<!DOCTYPE svg PUBLIC "-//W3C//DTD SVG 1.1//EN" "http://www.w3.org/Graphics/SVG/1.1/DTD/svg11.dtd">
<svg xmlns="http://www.w3.org/2000/svg" version="1.1" width="100%" height="100%">
<style type="text/css"><![CDATA[
  .stroke { fill:none; stroke:black; stroke-width:2 }
]]></style>
<path class="stroke" d="M 8.65408 15.4088 L 54.339648 15.4088" />
<path class="stroke" d="M 19.9245312 6.28931 L 19.9245312 62.2642" />
<path class="stroke" d="M 42.465405440000005 6.60377 L 42.465405440000005 62.2641" />
<path class="stroke" d="M 19.92460544 30.50313 L 42.26418944 30.50313" />
<path class="stroke" d="M 19.9245408 46.540836 L 42.062912 46.540836" />
<path class="stroke" d="M 4.8301888 62.57858 L 58.767295999999995 62.57858" />
<path class="stroke" d="M 26.163584 62.5786 C 26.297728000000003 75.262 21.199168 82.5996 13.886784 82.7044" />
<path class="stroke" d="M 37.232736 62.89308 L 37.232736 75.47168 C 36.964384 78.93078 38.70864 81.76098 40.654112 81.13208 L 52.125792000000004 81.13208" />
<path class="stroke" d="M 11.47168 62.8931 L 11.47168 93.0818 L 54.138368 93.0818" />
<path class="stroke" d="M 69.8978088 33.211678 L 93.37226000000001 30.875912 C 92.78832 64.16058 91.036496 81.9708 90.4525544 85.76642 C 89.751822 88.978096 88.350364 89.85401 87.18248 90.14598 L 86.014596 89.85401" />
<path class="stroke" d="M 81.459852 10.437956 C 80.058392 43.138683 75.503648 76.423355 68.1459848 85.76642" />
</svg>
