<?xml version="1.0" standalone="no"?>
<!DOCTYPE svg PUBLIC "-//W3C//DTD SVG 1.1//EN" "http://www.w3.org/Graphics/SVG/1.1/DTD/svg11.dtd">
<svg xmlns="http://www.w3.org/2000/svg" version="1.1" width="100%" height="100%">
<style type="text/css"><![CDATA[
  .stroke { fill:none; stroke:black; stroke-width:2 }
]]></style>
<path class="stroke" d="M 13.154171785714285 14.059406 C 16.654879285714284 16.138615 20.15558785714286 19.108912 23.01980357142857 22.673267" />
<path class="stroke" d="M 10.926448928571428 38.118813 C 14.108912142857141 39.90099 17.927864999999997 42.574257 20.473834285714286 46.138615" />
<path class="stroke" d="M 10.608203571428572 85.64356 C 11.321795357142857 87.422676 13.310014285714285 89.896904 15.629600357142856 89.896904 C 17.949189642857142 89.896904 21.110325 76.73267 23.33804892857143 69.60396" />
<path class="stroke" d="M 46.529926375 10.796478235294117 C 49.420437295 13.544439411764706 51.732845635000004 17.322884705882352 53.467152385000006 20.929583529411765" />
<path class="stroke" d="M 77.16933985 10.796478235294117 C 75.99001522 14.197079411764706 73.5562012 18.18162117647059 71.0992687 21.10133" />
<path class="stroke" d="M 32.1715315 23.5 L 92.8284625 23.5" />
<path class="stroke" d="M 44.023721125 23.37591105 C 41.724451375 33.30291825 38.330291125 40.0036493 35.593064874999996 45.95985175 C 38.220802750000004 50.4270055 41.177006125 55.8868615 44.023721125 62.58758745" />
<path class="stroke" d="M 51.906932499999996 40.7481745 C 45.994523875 61.59488605 38.658758125 77.47810249999999 31.541969875 89.1423295 C 40.301093875 85.66787799999999 48.293793625 84.42700125 56.177004999999994 84.42700125" />
<path class="stroke" d="M 53.9872225 75.989047 C 55.461325 79.57670999999999 57.235825 85.833305 57.600362499999996 91.3759085" />
<path class="stroke" d="M 81.523721125 23.37591105 C 79.224451375 33.30291825 75.830291125 40.0036493 73.09306487500001 45.95985175 C 75.72080274999999 50.4270055 78.677006125 55.8868615 81.523721125 62.58758745" />
<path class="stroke" d="M 89.40693250000001 40.7481745 C 83.494523875 61.59488605 76.158758125 77.47810249999999 69.041969875 89.1423295 C 77.801093875 85.66787799999999 85.793793625 84.42700125 93.677005 84.42700125" />
<path class="stroke" d="M 91.4872225 75.989047 C 92.961325 79.57670999999999 94.735825 85.833305 95.1003625 91.3759085" />
</svg>
