<?xml version="1.0" standalone="no"?>
<!DOCTYPE svg PUBLIC "-//W3C//DTD SVG 1.1//EN" "http://www.w3.org/Graphics/SVG/1.1/DTD/svg11.dtd">
<svg xmlns="http://www.w3.org/2000/svg" version="1.1" width="100%" height="100%">
<style type="text/css"><![CDATA[
  .stroke { fill:none; stroke:black; stroke-width:2 }
]]></style>
<path class="stroke" d="M 29.256491511627907 7.138686 C 28.339840465116282 18.5255472 22.534372674418606 27.28467 17.03445697674419 33.4160568 C 27.728738372093026 36.56934 36.895263488372095 42.0 43.9229323255814 48.83211359999999" />
<path class="stroke" d="M 42.68938604651163 16.099010399999997 C 40.513468604651166 32.1386148 31.700898837209305 41.824812 16.728908023255816 47.605836" />
<path class="stroke" d="M 10.617891279069768 20.277372 L 44.554455000000004 17.881187999999998" />
<path class="stroke" d="M 55.8396033 9.1485144 L 84.609903 9.1485144 C 78.0633647 32.4950502 67.03762327999999 43.900991999999995 47.7425742 53.881188" />
<path class="stroke" d="M 55.150494859999995 14.4950502 C 57.71612718 25.548385800000002 66.69677294 34.6451616 69.69032056 38.709678000000004 C 75.1161266 44.903226000000004 84.84515912 49.548384 94.0851484 53.881188" />
<path class="stroke" d="M 17.4453 70.89904 C 16.6042 78.37534000000001 14.5012 83.29654000000001 10.8207 88.78546" />
<path class="stroke" d="M 33.21814 66.35647 L 33.21814 90.48898 C 33.21814 93.04417 35.11094 94.7476 37.95004 94.7476 L 72.01944 94.7476 C 74.64824 94.7476 76.96164 92.76022 77.06674 89.63722 L 77.06674 84.81070000000001" />
<path class="stroke" d="M 45.2056 66.356488 C 50.6735 70.709788 54.2487 75.34703800000001 57.5084 81.403768" />
<path class="stroke" d="M 77.0667 66.64042 C 83.6913 71.93997999999999 87.7923 77.2399 91.8932 84.52683999999999" />
</svg>
