<?xml version="1.0" standalone="no"?>
<!DOCTYPE svg PUBLIC "-//W3C//DTD SVG 1.1//EN" "http://www.w3.org/Graphics/SVG/1.1/DTD/svg11.dtd">
<svg xmlns="http://www.w3.org/2000/svg" version="1.1" width="100%" height="100%">
<style type="text/css"><![CDATA[
  .stroke { fill:none; stroke:black; stroke-width:2 }
]]></style>
<path class="stroke" d="M 11.350365 12.773722 L 40.255475 12.773722" />
<path class="stroke" d="M 11.350365 26.204376 L 40.547445 26.204376 L 40.547445 45.766422" />
<path class="stroke" d="M 11.350365 45.766422 L 40.40146 45.766422" />
<path class="stroke" d="M 11.350365 26.204376 L 11.350365 64.45255 C 11.350365 78.46715 9.1089105 85.64356 4.950495 90.69307" />
<path class="stroke" d="M 21.29197024 55.53284598 C 20.82481696 60.09926966 17.83503616 64.9343062 16.05985344 66.0087581" />
<path class="stroke" d="M 19.8905104 62.5167877 L 19.8905104 92.60145700000001" />
<path class="stroke" d="M 31.00875744 55.6671531 C 30.44817376 58.62189732 29.42043712 61.17372202 27.92554688 62.6510939" />
<path class="stroke" d="M 19.8905104 62.3911824 L 37.1751808 62.3911824" />
<path class="stroke" d="M 28.3927008 62.6510939 L 28.3927008 92.60145700000001" />
<path class="stroke" d="M 19.8905104 72.984251 L 35.9605824 72.984251" />
<path class="stroke" d="M 19.8905104 82.79707864 L 36.0540128 82.79707864" />
<path class="stroke" d="M 19.8905104 92.60145700000001 L 39.04379392 92.60145700000001" />
<path class="stroke" d="M 59.1605835 13.45985248 L 89.67152999999999 13.45985248" />
<path class="stroke" d="M 74.635035 13.45985248 C 74.051095 18.22481536 72.883211 22.14890272 71.2312 25.179616" />
<path class="stroke" d="M 60.45 25.483936 L 60.45 77.64671104" />
<path class="stroke" d="M 60.45 25.483936 L 88.51285 25.483936 L 88.51285 77.3664208" />
<path class="stroke" d="M 60.60855 43.139833599999996 L 88.51285 43.139833599999996" />
<path class="stroke" d="M 60.60855 61.4044192 L 88.51285 61.4044192" />
<path class="stroke" d="M 60.474452 77.64671104 L 88.64963 77.64671104" />
<path class="stroke" d="M 66.0218965 83.81313279999999 C 63.3941595 87.45692799999999 60.3284665 89.97955839999999 56.678831 90.2598496" />
<path class="stroke" d="M 83.540145 84.093424 C 86.60584 85.21458879999999 89.08759 86.89634559999999 92.00729749999999 91.1007232" />
</svg>
