<?xml version="1.0" standalone="no"?>
<!DOCTYPE svg PUBLIC "-//W3C//DTD SVG 1.1//EN" "http://www.w3.org/Graphics/SVG/1.1/DTD/svg11.dtd">
<svg xmlns="http://www.w3.org/2000/svg" version="1.1" width="100%" height="100%">
<style type="text/css"><![CDATA[
  .stroke { fill:none; stroke:black; stroke-width:2 }
]]></style>
<path class="stroke" d="M 11.313868 17.445253 C 15.401459 18.029196 19.48905 20.364962 22.408756 24.160583" />
<path class="stroke" d="M 9.270073 47.226276 C 13.357662 47.226276 18.321167 46.934303 23.86861 43.138683 C 16.27737 53.357662 14.233576 58.321167 15.109488 60.9489 C 15.69343 63.284668 20.948904 65.62044 22.116787 68.832115 C 23.576641 72.33576 18.129246 80.26506 11.021896 83.722626" />
<path class="stroke" d="M 11.021896 84.014595 C 39.692924 81.65476 40.51095 91.313866 90.43795 90.14598" />
<path class="stroke" d="M 54.60875 8.5362762 C 50.19238 19.362840000000002 42.46368 28.466922000000004 32.526809 32.157726000000004" />
<path class="stroke" d="M 50.85486 16.16406 L 74.92429 16.16406 L 62.779149999999994 31.665546000000003" />
<path class="stroke" d="M 40.69716 31.6656084 L 40.69716 50.365952400000005" />
<path class="stroke" d="M 40.69716 31.6656084 L 84.86121 31.6656084 L 84.86121 50.365952400000005" />
<path class="stroke" d="M 62.779149999999994 31.6656084 L 62.779149999999994 50.365952400000005" />
<path class="stroke" d="M 40.69716 50.365952400000005 L 84.86121 50.365952400000005" />
<path class="stroke" d="M 58.804410000000004 50.61198 C 57.111459999999994 66.359634 46.5857 74.725524 32.526816 76.44799800000001" />
<path class="stroke" d="M 67.85807 50.857992 L 67.85807 72.018924 C 67.56365 74.479512 69.47745 76.69401 71.61203 76.44792000000001 L 89.49843 76.44792000000001 C 91.63301 76.44792000000001 93.32596 74.971614 93.25232 72.018924 L 93.25232 67.097748" />
</svg>
