<?xml version="1.0" standalone="no"?>
<!DOCTYPE svg PUBLIC "-//W3C//DTD SVG 1.1//EN" "http://www.w3.org/Graphics/SVG/1.1/DTD/svg11.dtd">
<svg xmlns="http://www.w3.org/2000/svg" version="1.1" width="100%" height="100%">
<style type="text/css"><![CDATA[
  .stroke { fill:none; stroke:black; stroke-width:2 }
]]></style>
<path class="stroke" d="M 25.1262 5.5205 C 19.63728 17.8233 13.01265 30.7571 4.400631000000001 40.5363" />
<path class="stroke" d="M 25.1262 5.83596 C 30.615120000000005 11.8296 34.40061 18.4543 38.47005 25.0789" />
<path class="stroke" d="M 10.93059 33.59624 L 36.19872 33.59624" />
<path class="stroke" d="M 6.1041015 51.57724 L 39.6056583 51.57724" />
<path class="stroke" d="M 24.5583387 33.9117 L 24.5583387 88.1703" />
<path class="stroke" d="M 5.820192 61.672 C 9.70029 65.878 12.728700000000002 70.3996 15.757109999999999 75.2366" />
<path class="stroke" d="M 38.754000000000005 61.6719 C 36.67194 67.4553 33.73812 72.2923 29.952630000000003 77.1294" />
<path class="stroke" d="M 7.239744 94.4795 L 38.47005 83.7539" />
<path class="stroke" d="M 70.0 8.117371024000004 L 70.0 19.6" />
<path class="stroke" d="M 44.5 19.6 L 95.5 19.6" />
<path class="stroke" d="M 69.602334976 20.8781892032 C 66.23883135999999 28.986334916 58.2131008 38.066440160000006 48.748612096 44.550247616 C 62.875327168 43.52507936 75.152116288 43.05909524 88.59329919999999 43.12726040000001" />
<path class="stroke" d="M 82.04729824 37.28087363840001 C 85.91532544 39.05161904 89.278829056 41.754334916 91.46510848 45.389019032" />
<path class="stroke" d="M 62.2043788 52.97226184 L 62.2043788 67.09196848 C 62.2043788 79.5416036 57.6496348 91.83941328 46.2627736 95.02773400000001" />
<path class="stroke" d="M 72.5401444 52.82043796 L 72.5401444 88.6510936 C 72.5401444 92.44671400000001 74.8175188 94.7240852 77.27006979999999 94.7240852 L 90.93430000000001 94.7240852 C 92.861314 94.8759096 94.26276999999999 93.6613092 94.26276999999999 91.99123560000001 L 94.26276999999999 89.10656888" />
</svg>
