<?xml version="1.0" standalone="no"?>
<!DOCTYPE svg PUBLIC "-//W3C//DTD SVG 1.1//EN" "http://www.w3.org/Graphics/SVG/1.1/DTD/svg11.dtd">
<svg xmlns="http://www.w3.org/2000/svg" version="1.1" width="100%" height="100%">
<style type="text/css"><![CDATA[
  .stroke { fill:none; stroke:black; stroke-width:2 }
]]></style>
<path class="stroke" d="M 21.025528301886794 5.5205 L 21.025528301886794 16.877" />
<path class="stroke" d="M 6.294268867924528 17.1924 L 36.651396226415095 17.1924 C 29.86429245283019 37.2765 19.68622641509434 51.9978 5.49074716981132 60.7256" />
<path class="stroke" d="M 21.025528301886794 47.1609 L 21.025528301886794 94.795" />
<path class="stroke" d="M 39.238811320754714 39.2744 C 38.34594339622642 43.2702 36.649613207547176 46.6351 34.41761320754717 48.4228" />
<path class="stroke" d="M 21.29340566037736 46.5299 C 28.078641509433965 50.6309 32.1855283018868 55.6783 36.56029245283019 63.5646" />
<path class="stroke" d="M 53.34160364 8.43722595 L 53.34160364 37.132113600000004" />
<path class="stroke" d="M 53.34160364 8.43722595 L 84.47737000000001 8.43722595 L 84.47737000000001 37.132113600000004" />
<path class="stroke" d="M 53.5226269 22.00300077 L 84.2963486 22.00300077" />
<path class="stroke" d="M 53.34160364 35.87955996 L 84.47737000000001 35.87955996" />
<path class="stroke" d="M 57.069402 46.4274411 C 55.243998 54.8985 50.484754 63.202381 42.2050446 68.496816" />
<path class="stroke" d="M 55.309098 54.954256 L 93.839122 55.121418 L 93.643512 73.847007 C 93.252354 82.31810300000001 89.145164 92.12670700000001 82.104134 92.238166 L 79.170356 92.238166" />
<path class="stroke" d="M 75.1017817204 67.15435681950001 C 69.26764422880001 69.145791831 65.1351293368 69.6652975925 57.5159697844 70.3685028645" />
<path class="stroke" d="M 57.331491376 61.786138585 L 57.331491376 81.00782057 C 57.331491376 83.518761926 59.787167684799996 84.90410984600001 63.1904161576 84.90410984600001 L 81.0574663432 84.90410984600001 C 82.637544676 84.90410984600001 83.48835577119999 84.471187455 83.48835577119999 83.34559518500001 L 83.48835577119999 82.56633698000002" />
</svg>
