<?xml version="1.0" standalone="no"?>
<!DOCTYPE svg PUBLIC "-//W3C//DTD SVG 1.1//EN" "http://www.w3.org/Graphics/SVG/1.1/DTD/svg11.dtd">
<svg xmlns="http://www.w3.org/2000/svg" version="1.1" width="100%" height="100%">
<style type="text/css"><![CDATA[
  .stroke { fill:none; stroke:black; stroke-width:2 }
]]></style>
<path class="stroke" d="M 27.918 5.5205 C 21.8192 17.8233 14.4585 30.7571 4.88959 40.5363" />
<path class="stroke" d="M 27.918 5.83596 C 34.0168 11.8296 38.2229 18.4543 42.7445 25.0789" />
<path class="stroke" d="M 12.1451 33.59624 L 40.2208 33.59624" />
<path class="stroke" d="M 6.782335 51.57724 L 44.006287 51.57724" />
<path class="stroke" d="M 27.287043 33.9117 L 27.287043 88.1703" />
<path class="stroke" d="M 6.46688 61.672 C 10.7781 65.878 14.143 70.3996 17.5079 75.2366" />
<path class="stroke" d="M 43.06 61.6719 C 40.7466 67.4553 37.4868 72.2923 33.2807 77.1294" />
<path class="stroke" d="M 8.04416 94.4795 L 42.7445 83.7539" />
<path class="stroke" d="M 73.0 6.24963492 L 73.0 10.58248176" />
<path class="stroke" d="M 57.94306498 10.82773684 L 88.37226100000001 10.82773684" />
<path class="stroke" d="M 60.46569226 14.343066000000002 C 63.61897690000001 17.28613088 65.98394092000001 21.1284656 67.24525402 24.889050400000002" />
<path class="stroke" d="M 86.0072959 13.689050400000001 C 82.2233566 16.713868 79.07007250000001 21.3737232 78.2817508 26.197078800000003" />
<path class="stroke" d="M 52.10948872 27.014597600000002 L 93.5751826 27.014597600000002" />
<path class="stroke" d="M 58.573722880000005 38.178217599999996 L 58.573722880000005 68.9853996" />
<path class="stroke" d="M 58.73138614 38.280789999999996 L 87.42627496 38.280789999999996 L 87.42627496 68.78102200000001" />
<path class="stroke" d="M 58.573722880000005 54.1797899 L 87.11094844000002 54.1797899" />
<path class="stroke" d="M 58.573722880000005 68.97474 L 87.42627496 68.97474" />
<path class="stroke" d="M 72.82963000000001 38.178217599999996 L 72.82963000000001 93.306565" />
<path class="stroke" d="M 57.4700725 80.839411 L 88.5299248 80.839411" />
<path class="stroke" d="M 51.321167020000004 93.306565 L 94.99415680000001 93.306565" />
</svg>
