<?xml version="1.0" standalone="no"?>
<!DOCTYPE svg PUBLIC "-//W3C//DTD SVG 1.1//EN" "http://www.w3.org/Graphics/SVG/1.1/DTD/svg11.dtd">
<svg xmlns="http://www.w3.org/2000/svg" version="1.1" width="100%" height="100%">
<style type="text/css"><![CDATA[
  .stroke { fill:none; stroke:black; stroke-width:2 }
]]></style>
<path class="stroke" d="M 24.09241 9.306931 C 20.274912500000003 17.680412 13.960480833333333 26.030926 8.250825 30.69307" />
<path class="stroke" d="M 24.339933333333335 9.306931 C 28.39346916666667 14.123711 32.517183333333335 17.216494 37.41408666666667 19.536081" />
<path class="stroke" d="M 24.914086666666666 19.999998 C 26.847075 22.319588 27.491408333333336 24.639175 28.00687166666667 27.731956" />
<path class="stroke" d="M 17.310995833333337 29.896904 L 36.254295 29.896904 L 36.254295 57.72277" />
<path class="stroke" d="M 17.656765 43.81443 L 35.645723333333336 43.81443" />
<path class="stroke" d="M 17.40924 57.72277 L 36.2211225 57.72277" />
<path class="stroke" d="M 17.310995833333337 29.896904 L 17.310995833333337 89.896904 C 24.140891666666665 87.57732 29.834608333333335 83.55427 34.86038333333333 79.842926" />
<path class="stroke" d="M 31.486253333333334 74.12371 C 33.93470833333333 76.90721 36.254295 82.16495 37.285223333333334 85.87628" />
<path class="stroke" d="M 66.45738 6.78234 C 59.481573999999995 11.1987 52.11461 13.4069 45.138804 14.3533" />
<path class="stroke" d="M 42.2050446 31.07257 L 96.38168 31.07257" />
<path class="stroke" d="M 56.482665 11.829728 L 56.482665 88.485825 C 56.352278999999996 91.955826 54.852809 94.164024 53.157729 94.164024 L 49.832792999999995 94.164024" />
<path class="stroke" d="M 43.3785434 60.72553 C 49.3764668 56.09883 57.721356799999995 53.04943 65.6750888 52.20813" />
<path class="stroke" d="M 74.476398 6.46687 L 74.476398 39.5899 C 74.73716999999999 67.5604 85.75500399999999 93.3229 93.643512 93.5331 L 93.643512 82.8077" />
<path class="stroke" d="M 94.03467 44.637257 C 88.558334 68.82226 79.365904 87.644554 66.066222 93.84856" />
<path class="stroke" d="M 84.0599612 10.88328 C 86.2765852 13.40694 87.7108312 15.61514 89.1450772 19.71614" />
</svg>
