<?xml version="1.0" standalone="no"?>
<!DOCTYPE svg PUBLIC "-//W3C//DTD SVG 1.1//EN" "http://www.w3.org/Graphics/SVG/1.1/DTD/svg11.dtd">
<svg xmlns="http://www.w3.org/2000/svg" version="1.1" width="100%" height="100%">
<style type="text/css"><![CDATA[
  .stroke { fill:none; stroke:black; stroke-width:2 }
]]></style>
<path class="stroke" d="M 27.918 5.5205 C 21.8192 17.8233 14.4585 30.7571 4.88959 40.5363" />
<path class="stroke" d="M 27.918 5.83596 C 34.0168 11.8296 38.2229 18.4543 42.7445 25.0789" />
<path class="stroke" d="M 12.1451 33.59624 L 40.2208 33.59624" />
<path class="stroke" d="M 6.782335 51.57724 L 44.006287 51.57724" />
<path class="stroke" d="M 27.287043 33.9117 L 27.287043 88.1703" />
<path class="stroke" d="M 6.46688 61.672 C 10.7781 65.878 14.143 70.3996 17.5079 75.2366" />
<path class="stroke" d="M 43.06 61.6719 C 40.7466 67.4553 37.4868 72.2923 33.2807 77.1294" />
<path class="stroke" d="M 8.04416 94.4795 L 42.7445 83.7539" />
<path class="stroke" d="M 56.524087 10.145985 L 56.524087 90.43795" />
<path class="stroke" d="M 56.524087 10.145985 L 89.47591299999999 10.145985 L 89.47591299999999 86.05839 C 89.47591299999999 88.68613 89.0029162 90.14598 87.5839366 90.14598 L 86.0072959 90.14598" />
<path class="stroke" d="M 65.872567274752 25.759999999999998 L 80.1274313152 25.759999999999998" />
<path class="stroke" d="M 64.7888464864 40.72572208 L 64.7888464864 66.76671392" />
<path class="stroke" d="M 64.7888464864 40.72572208 L 81.28683136 40.72572208 L 81.28683136 66.51632044800002" />
<path class="stroke" d="M 64.7888464864 64.7635601408 L 81.28683136 64.7635601408" />
</svg>
