<?xml version="1.0" standalone="no"?>
<!DOCTYPE svg PUBLIC "-//W3C//DTD SVG 1.1//EN" "http://www.w3.org/Graphics/SVG/1.1/DTD/svg11.dtd">
<svg xmlns="http://www.w3.org/2000/svg" version="1.1" width="100%" height="100%">
<style type="text/css"><![CDATA[
  .stroke { fill:none; stroke:black; stroke-width:2 }
]]></style>
<path class="stroke" d="M 4.6671531 18.6861296 L 41.0642299 18.6861296" />
<path class="stroke" d="M 23.00001932 5.54744468 L 23.00001932 34.2423344" />
<path class="stroke" d="M 8.02481638 34.2423344 L 37.8408742 34.2423344" />
<path class="stroke" d="M 7.61829 50.987384 L 38.381710000000005 50.987384" />
<path class="stroke" d="M 3.2649857 66.0788604 L 43.0252306 66.0788604" />
<path class="stroke" d="M 23.1451162 66.242884 L 23.1451162 90.684548 C 23.1451162 92.434296 21.9842142 93.527856 20.968442200000002 93.473204 L 19.081982200000002 93.473204" />
<path class="stroke" d="M 15.018908 72.64034000000001 C 12.358544 78.819136 9.262882000000001 83.84966800000001 3.5552066000000004 87.73188400000001" />
<path class="stroke" d="M 31.561566 72.804452 C 35.769784 76.686668 39.107268 81.55314 41.86437 87.73188400000001" />
<path class="stroke" d="M 56.199287 18.76967 L 85.91889 18.76967 L 85.760605 49.850376" />
<path class="stroke" d="M 49.053642 34.54263 L 92.90223 34.54263" />
<path class="stroke" d="M 56.134666 49.850376 L 85.760605 49.850376" />
<path class="stroke" d="M 72.43959 7.72871 L 72.43959 87.2239 C 72.43959 91.43 71.14035 94.0588 69.029144 94.164 L 66.593094 94.164" />
<path class="stroke" d="M 54.575314 58.517384 C 57.17369 61.041084 59.44732 64.511086 61.233776 68.61208" />
<path class="stroke" d="M 52.626484 87.8549 C 57.17374 85.8569 61.071404 81.9663 64.80665 74.6057" />
<path class="stroke" d="M 89.00459 58.51738 C 87.3264 63.03898 85.485886 65.98318 82.83335 67.98098" />
<path class="stroke" d="M 79.42279 74.6055 C 83.69936 76.9188 87.32644 80.4941 91.11584 88.1704" />
</svg>
