<?xml version="1.0" standalone="no"?>
<!DOCTYPE svg PUBLIC "-//W3C//DTD SVG 1.1//EN" "http://www.w3.org/Graphics/SVG/1.1/DTD/svg11.dtd">
<svg xmlns="http://www.w3.org/2000/svg" version="1.1" width="100%" height="100%">
<style type="text/css"><![CDATA[
  .stroke { fill:none; stroke:black; stroke-width:2 }
]]></style>
<path class="stroke" d="M 27.918 5.5205 C 21.8192 17.8233 14.4585 30.7571 4.88959 40.5363" />
<path class="stroke" d="M 27.918 5.83596 C 34.0168 11.8296 38.2229 18.4543 42.7445 25.0789" />
<path class="stroke" d="M 12.1451 33.59624 L 40.2208 33.59624" />
<path class="stroke" d="M 6.782335 51.57724 L 44.006287 51.57724" />
<path class="stroke" d="M 27.287043 33.9117 L 27.287043 88.1703" />
<path class="stroke" d="M 6.46688 61.672 C 10.7781 65.878 14.143 70.3996 17.5079 75.2366" />
<path class="stroke" d="M 43.06 61.6719 C 40.7466 67.4553 37.4868 72.2923 33.2807 77.1294" />
<path class="stroke" d="M 8.04416 94.4795 L 42.7445 83.7539" />
<path class="stroke" d="M 61.642336 27.685772 L 88.21167750000001 27.685772" />
<path class="stroke" d="M 75.218977 8.686131 L 75.218977 91.313866" />
<path class="stroke" d="M 75.218977 30.0 C 70.69343 50.729923 63.832115 63.868607 55.8029195 70.29197" />
<path class="stroke" d="M 75.218977 30.29197 C 79.744522 50.437954 85.87591 63.284668 94.051095 70.0" />
<path class="stroke" d="M 68.79562 67.08029 L 81.204376 67.08029" />
</svg>
