<?xml version="1.0" standalone="no"?>
<!DOCTYPE svg PUBLIC "-//W3C//DTD SVG 1.1//EN" "http://www.w3.org/Graphics/SVG/1.1/DTD/svg11.dtd">
<svg xmlns="http://www.w3.org/2000/svg" version="1.1" width="100%" height="100%">
<style type="text/css"><![CDATA[
  .stroke { fill:none; stroke:black; stroke-width:2 }
]]></style>
<path class="stroke" d="M 13.6058378 9.440000000000001 L 86.394155 9.440000000000001" />
<path class="stroke" d="M 44.3503634 11.941605024800001 C 43.824814700000005 14.471006153600001 40.9343054 16.7028314584 36.992698700000005 18.0419262336" />
<path class="stroke" d="M 28.846715 18.190714655200004 L 28.846715 52.858391408" />
<path class="stroke" d="M 28.846715 18.0419262336 L 71.153285 18.0419262336 L 71.153285 53.15596723200001" />
<path class="stroke" d="M 28.846715 29.201050209600005 L 71.153285 29.201050209600005" />
<path class="stroke" d="M 28.846715 41.10411578400001 L 70.890512 41.10411578400001" />
<path class="stroke" d="M 28.846715 51.965663936000006 L 71.153285 51.965663936000006" />
<path class="stroke" d="M 40.802917 56.3788283 C 33.79562 66.31459562 24.452553 72.8576566 11.021896 78.67371892" />
<path class="stroke" d="M 38.17518 60.25620069 L 67.08029 60.25620069 C 60.9489 71.6459811 48.10219 82.55109048 30.583939 89.33649319999999" />
<path class="stroke" d="M 36.131386 65.1029168 C 40.64516 73.6354828 66.20438 89.82116339999999 86.35036 89.82116339999999" />
</svg>
