<?xml version="1.0" standalone="no"?>
<!DOCTYPE svg PUBLIC "-//W3C//DTD SVG 1.1//EN" "http://www.w3.org/Graphics/SVG/1.1/DTD/svg11.dtd">
<svg xmlns="http://www.w3.org/2000/svg" version="1.1" width="100%" height="100%">
<style type="text/css"><![CDATA[
  .stroke { fill:none; stroke:black; stroke-width:2 }
]]></style>
<path class="stroke" d="M 22.334400000000002 5.5205 C 17.45536 17.8233 11.5668 30.7571 3.9116720000000003 40.5363" />
<path class="stroke" d="M 22.334400000000002 5.83596 C 27.213440000000006 11.8296 30.578320000000005 18.4543 34.195600000000006 25.0789" />
<path class="stroke" d="M 9.71608 33.59624 L 32.17664 33.59624" />
<path class="stroke" d="M 5.425868 51.57724 L 35.2050296 51.57724" />
<path class="stroke" d="M 21.829634400000003 33.9117 L 21.829634400000003 88.1703" />
<path class="stroke" d="M 5.173504 61.672 C 8.622480000000001 65.878 11.314400000000001 70.3996 14.00632 75.2366" />
<path class="stroke" d="M 34.448 61.6719 C 32.597280000000005 67.4553 29.989440000000002 72.2923 26.624560000000002 77.1294" />
<path class="stroke" d="M 6.435328 94.4795 L 34.195600000000006 83.7539" />
<path class="stroke" d="M 87.98104000000001 7.09779 C 75.86746 11.5142 62.9968 12.776 50.693979999999996 13.7224" />
<path class="stroke" d="M 48.9905458 29.81067 L 90.63090399999999 29.81067" />
<path class="stroke" d="M 44.069398 52.20823 L 95.74132 52.20823" />
<path class="stroke" d="M 58.26496 29.81073 L 58.26496 72.71293" />
<path class="stroke" d="M 81.35646639999999 30.12623 L 81.35646639999999 73.02833" />
<path class="stroke" d="M 48.9905452 73.3438 L 90.63090399999999 73.3438" />
<path class="stroke" d="M 69.8107516 12.1451 L 69.8107516 93.2177" />
<path class="stroke" d="M 46.1513968 93.2177 L 93.470038 93.2177" />
</svg>
