<?xml version="1.0" standalone="no"?>
<!DOCTYPE svg PUBLIC "-//W3C//DTD SVG 1.1//EN" "http://www.w3.org/Graphics/SVG/1.1/DTD/svg11.dtd">
<svg xmlns="http://www.w3.org/2000/svg" version="1.1" width="100%" height="100%">
<style type="text/css"><![CDATA[
  .stroke { fill:none; stroke:black; stroke-width:2 }
]]></style>
<path class="stroke" d="M 21.1386849 13.40802725 C 18.277371199999997 20.488320119999997 14.394159 26.1525517 10.715327199999999 30.68394162 C 13.5766416 33.516054499999996 17.051093 38.04744442 20.321165399999998 42.01240575" />
<path class="stroke" d="M 28.9051086 28.135034790000002 C 24.0 36.6313841 17.459853099999997 46.8270056 9.2846714 57.589045989999995 C 16.642335 55.88977671 24.8175167 53.9072975 32.175180999999995 51.92481538" />
<path class="stroke" d="M 29.722625999999998 45.12773341 C 31.766420899999996 48.243063979999995 32.3795614 51.358389700000004 33.605838199999994 56.7394162" />
<path class="stroke" d="M 21.547445 55.606566779999994 L 21.547445 89.8751788" />
<path class="stroke" d="M 15.2116771 66.0853953 C 13.985401 71.7496327 12.5547431 75.4313841 9.6934294 79.3963464" />
<path class="stroke" d="M 26.861313 66.3686062 C 29.1094869 69.48394162 29.145944999999998 69.74648570000001 30.281078999999995 72.57783810000001" />
<path class="stroke" d="M 44.48678822 19.462000000000003 L 64.57321052 19.462000000000003" />
<path class="stroke" d="M 54.53 12.389926972000001 L 54.53 27.595765120000003" />
<path class="stroke" d="M 38.6766548 30.029980600000002 L 94.32332 30.029980600000002" />
<path class="stroke" d="M 73.257128 12.427442800000001 L 73.257128 30.029962 C 73.52210600000001 56.042527 83.525246 93.49688200000001 91.540988 93.692368 L 91.540988 83.717746" />
<path class="stroke" d="M 91.938455 48.51264901 C 86.373791 71.0047018 76.83433099999999 87.33596680000001 63.320138 93.10568122000001" />
<path class="stroke" d="M 86.771321 13.6009447 C 89.023697 15.9479485 90.481076 18.001574500000004 91.938455 21.815504500000003" />
<path class="stroke" d="M 49.912876159999996 40.84356330000001 L 49.9252229 79.06273635000001" />
<path class="stroke" d="M 58.57034435 40.23205389 L 58.57034435 70.80739698" />
<path class="stroke" d="M 42.17444945 61.97868285 C 43.69810445 65.23763535 44.82429245 69.37699095 45.45359945 74.5303209" />
<path class="stroke" d="M 64.82575295 46.65287619 C 64.30794335 50.9334216 63.4794524 57.0484971 61.097532650000005 58.2715029" />
<path class="stroke" d="M 40.2816435245 87.3180813 L 67.10411015 64.08081858" />
</svg>
