<?xml version="1.0" standalone="no"?>
<!DOCTYPE svg PUBLIC "-//W3C//DTD SVG 1.1//EN" "http://www.w3.org/Graphics/SVG/1.1/DTD/svg11.dtd">
<svg xmlns="http://www.w3.org/2000/svg" version="1.1" width="100%" height="100%">
<style type="text/css"><![CDATA[
  .stroke { fill:none; stroke:black; stroke-width:2 }
]]></style>
<path class="stroke" d="M 20.7344878125 9.562042 C 24.019160625 11.021896 27.30382875 14.817516 29.493609375 19.48905" />
<path class="stroke" d="M 9.2381371875 22.8707 L 39.89506875 22.8707" />
<path class="stroke" d="M 15.260034375000002 37.007298 L 33.873174375 37.007298" />
<path class="stroke" d="M 15.260034375000002 51.313866 L 33.873174375 51.313866" />
<path class="stroke" d="M 14.165145 64.45255 L 14.165145 85.76642" />
<path class="stroke" d="M 14.165145 64.16058 L 35.515509375 64.16058 L 35.515509375 85.76642" />
<path class="stroke" d="M 14.165145 85.76642 L 35.2417875 85.76642" />
<path class="stroke" d="M 52.965304 4.6656128 C 57.444784 7.288105999999999 59.842264 9.178732 61.482664 13.81386" />
<path class="stroke" d="M 85.89909399999999 4.482646 C 84.447934 8.751852 81.482734 11.37438 77.949574 13.630927999999999" />
<path class="stroke" d="M 47.0978032 17.656156999999997 L 92.71292199999999 17.656156999999997" />
<path class="stroke" d="M 61.67194 18.022108 L 61.67194 53.70028599999999" />
<path class="stroke" d="M 77.94955 17.839118 L 77.94955 53.883275999999995" />
<path class="stroke" d="M 49.55836 28.085165999999997 C 52.776039999999995 31.256548 54.2902 34.61092 55.42588 38.697136" />
<path class="stroke" d="M 88.17034000000001 28.268155999999998 C 87.72873999999999 33.086273999999996 86.7193 35.525754 83.62774 38.697136" />
<path class="stroke" d="M 44.069398 54.06626599999999 L 95.93062 54.06626599999999" />
<path class="stroke" d="M 54.846713199999996 65.15839385 L 54.846713199999996 92.3817488" />
<path class="stroke" d="M 54.846713199999996 65.15839385 L 84.9781 65.15839385 L 84.9781 92.3817488" />
<path class="stroke" d="M 55.021896999999996 78.02848791 L 84.802918 78.02848791" />
<path class="stroke" d="M 54.846713199999996 91.19342868 L 84.9781 91.19342868" />
</svg>
