<?xml version="1.0" standalone="no"?>
<!DOCTYPE svg PUBLIC "-//W3C//DTD SVG 1.1//EN" "http://www.w3.org/Graphics/SVG/1.1/DTD/svg11.dtd">
<svg xmlns="http://www.w3.org/2000/svg" version="1.1" width="100%" height="100%">
<style type="text/css"><![CDATA[
  .stroke { fill:none; stroke:black; stroke-width:2 }
]]></style>
<path class="stroke" d="M 12.189779 13.2007295 L 87.81021 13.2007295" />
<path class="stroke" d="M 34.67153 8.45620335 L 34.67153 18.32481665" />
<path class="stroke" d="M 65.32846 8.45620335 L 65.32846 18.32481665" />
<path class="stroke" d="M 27.2700698 27.87956175 L 27.2700698 53.631384" />
<path class="stroke" d="M 27.2700698 27.87956175 L 72.46715 27.87956175 L 72.46715 53.631384" />
<path class="stroke" d="M 27.5328455 40.05397505 L 72.20437700000001 40.05397505" />
<path class="stroke" d="M 27.2700698 52.5072974 L 72.46715 52.5072974" />
<path class="stroke" d="M 15.401459 66.69270026 L 84.8905 66.69270026" />
<path class="stroke" d="M 49.43925 56.90747639 L 49.065422 57.0457946 C 45.126904 68.3446696 33.364487 72.39906669999999 6.074766 79.45327209999999" />
<path class="stroke" d="M 58.037384 66.72803674 C 66.26168 71.43084108 72.990654 75.58037406 89.81309 79.72990630000001" />
<path class="stroke" d="M 23.656933600000002 85.19926960000001 L 74.34306000000001 85.19926960000001" />
<path class="stroke" d="M 49.0 76.370072635 L 49.0 96.70875670000001" />
<path class="stroke" d="M 16.8832104 96.70875670000001 L 80.88320800000001 96.70875670000001" />
</svg>
