<?xml version="1.0" standalone="no"?>
<!DOCTYPE svg PUBLIC "-//W3C//DTD SVG 1.1//EN" "http://www.w3.org/Graphics/SVG/1.1/DTD/svg11.dtd">
<svg xmlns="http://www.w3.org/2000/svg" version="1.1" width="100%" height="100%">
<style type="text/css"><![CDATA[
  .stroke { fill:none; stroke:black; stroke-width:2 }
]]></style>
<path class="stroke" d="M 25.104904697674417 11.89781 C 24.41232390697674 30.875912 20.025970465116277 45.47445 15.870478604651163 55.693428 C 23.950602325581393 60.9489 30.87642130232558 70.0 36.18621553488372 81.386856" />
<path class="stroke" d="M 35.25420279069767 26.831684 C 33.61017627906977 53.564358 26.95179023255814 69.70802 15.639619395348836 79.34306" />
<path class="stroke" d="M 11.022406744186046 33.79562 L 36.663366 29.80198" />
<path class="stroke" d="M 67.087588 8.958540147999999 L 67.087588 12.745984924" />
<path class="stroke" d="M 43.7883208 12.826569472 L 89.861314 12.826569472" />
<path class="stroke" d="M 57.329926527999994 17.713284639999998 C 56.489050047999996 21.7915324 52.116495807999996 25.617517359999997 43.875911488 28.686715359999997" />
<path class="stroke" d="M 75.33052096 17.793883456 C 82.38802662399999 20.740437376 86.92875328 24.776641599999998 89.61955744 28.770802720000002" />
<path class="stroke" d="M 45.9905542 37.99677419354839 L 88.198756 37.99677419354839" />
<path class="stroke" d="M 58.861198 28.227729032258065 L 58.861198 63.396159999999995" />
<path class="stroke" d="M 74.76025 27.983509677419356 L 74.76025 63.39612903225806" />
<path class="stroke" d="M 45.8012794 51.18485161290322 L 88.00948 51.18485161290322" />
<path class="stroke" d="M 41.069401 63.88464516129032 L 93.68770900000001 63.88464516129032" />
<path class="stroke" d="M 65.675074 65.00007 C 61.47524799999999 71.653465 54.3465352 76.435641 47.0396044 78.93069299999999" />
<path class="stroke" d="M 59.693068 72.277228 L 59.693068 92.861386 C 64.8613852 91.82178099999999 68.247526 90.78217599999999 71.8118836 88.28713099999999" />
<path class="stroke" d="M 84.10891240000001 66.039605 C 81.613864 70.1980201 78.227722 73.5247505 74.306929 75.18812199999999" />
<path class="stroke" d="M 70.56435880000001 71.029702 C 74.48515 79.762377 82.148518 87.03960219999999 90.5247544 90.78217599999999" />
</svg>
