<?xml version="1.0" standalone="no"?>
<!DOCTYPE svg PUBLIC "-//W3C//DTD SVG 1.1//EN" "http://www.w3.org/Graphics/SVG/1.1/DTD/svg11.dtd">
<svg xmlns="http://www.w3.org/2000/svg" version="1.1" width="100%" height="100%">
<style type="text/css"><![CDATA[
  .stroke { fill:none; stroke:black; stroke-width:2 }
]]></style>
<path class="stroke" d="M 8.946819428571429 27.956203 L 28.46715257142857 27.956203" />
<path class="stroke" d="M 20.45880857142857 9.270073 L 20.45880857142857 90.14598" />
<path class="stroke" d="M 20.45880857142857 36.131386 C 17.20542 44.598537 13.20125057142857 52.48175 7.4452551428571425 56.861313" />
<path class="stroke" d="M 20.45880857142857 36.131386 C 24.212719714285715 37.299267 26.71532657142857 42.26277 27.96663 46.934303" />
<path class="stroke" d="M 53.043792800000006 7.554744 L 53.043792800000006 15.437956 C 53.043792800000006 26.9708025 47.5255465 36.751825 38.328467 42.44525" />
<path class="stroke" d="M 39.1459851 16.167883 L 70.416054 13.6861305 L 70.416054 35.437955 C 70.416054 39.08759 73.2773698 41.131385 77.364961 41.27737 L 88.6058382 41.27737 C 90.85400999999999 41.131385 92.897807 40.109485 93.10218599999999 38.065693 L 93.10218599999999 35.729925" />
<path class="stroke" d="M 37.1021895 73.5 L 92.897807 73.5" />
<path class="stroke" d="M 65.0 54.489051 L 65.0 95.36496" />
</svg>
