<?xml version="1.0" standalone="no"?>
<!DOCTYPE svg PUBLIC "-//W3C//DTD SVG 1.1//EN" "http://www.w3.org/Graphics/SVG/1.1/DTD/svg11.dtd">
<svg xmlns="http://www.w3.org/2000/svg" version="1.1" width="100%" height="100%">
<style type="text/css"><![CDATA[
  .stroke { fill:none; stroke:black; stroke-width:2 }
]]></style>
<path class="stroke" d="M 82.4037728 6.974762500000001 C 63.022044799999996 8.9095731 38.7950048 10.263905099999999 15.173532799999998 10.602511100000001" />
<path class="stroke" d="M 8.51103968 23.2271168 L 90.2776064 23.2271168" />
<path class="stroke" d="M 49.091456 9.731876 L 49.091456 47.605700000000006" />
<path class="stroke" d="M 49.091496320000005 23.227162800000002 C 38.7949232 30.724518800000002 26.37856832 37.206102800000004 9.116722880000001 42.6719608" />
<path class="stroke" d="M 49.091496320000005 23.227162800000002 C 59.2870784 31.111470800000003 70.69399424000001 36.9642808 89.67194239999999 42.5268308" />
<path class="stroke" d="M 45.532672559999995 55.78415822 C 44.415841640000004 63.16237606 37.435643219999996 72.18019858 30.734653939999998 76.41584178 C 46.020436679999996 78.036494 67.7021881 83.2744496 78.68029299999999 89.85547364000001" />
<path class="stroke" d="M 67.5900978 64.11881220000001 C 60.60990408 79.6950516 46.09108802 85.57030040000001 24.61313706 89.4525532" />
<path class="stroke" d="M 12.26277222 66.35182378 L 87.4627694 66.35182378" />
</svg>
