<?xml version="1.0" standalone="no"?>
<!DOCTYPE svg PUBLIC "-//W3C//DTD SVG 1.1//EN" "http://www.w3.org/Graphics/SVG/1.1/DTD/svg11.dtd">
<svg xmlns="http://www.w3.org/2000/svg" version="1.1" width="100%" height="100%">
<style type="text/css"><![CDATA[
  .stroke { fill:none; stroke:black; stroke-width:2 }
]]></style>
<path class="stroke" d="M 8.69085 22.0316 L 2.3817 38.1199" />
<path class="stroke" d="M 20.6782 22.0316 L 27.6183 38.1199" />
<path class="stroke" d="M 14.6845 7.3123 L 14.6845 93.3186" />
<path class="stroke" d="M 42.4160575 4.9270065 C 46.5036487 7.2627735 49.7737211 10.474452 52.2262761 13.540146" />
<path class="stroke" d="M 85.74452099999999 4.9270065 C 84.0767892 7.8175175 80.635032 11.204378 77.160582 13.6861305" />
<path class="stroke" d="M 37.919707599999995 18.14233485 L 37.919707599999995 51.2518215" />
<path class="stroke" d="M 37.919707599999995 18.010947899999998 L 92.2846672 18.010947899999998 L 92.2846672 51.2518215" />
<path class="stroke" d="M 65.10218599999999 18.14233485 L 65.10218599999999 48.88686" />
<path class="stroke" d="M 37.919707599999995 33.440051100000005 L 91.875912 33.440051100000005" />
<path class="stroke" d="M 37.919707599999995 48.88686 L 92.2846672 48.88686" />
<path class="stroke" d="M 43.78539848 67.2978099 L 43.78539848 95.2569312" />
<path class="stroke" d="M 43.78539848 67.2978099 L 85.96933999999999 67.2978099 L 85.96933999999999 95.2569312" />
<path class="stroke" d="M 44.0306558 80.51574434 L 85.72408519999999 80.51574434" />
<path class="stroke" d="M 43.78539848 94.03649432 L 85.96933999999999 94.03649432" />
</svg>
