<?xml version="1.0" standalone="no"?>
<!DOCTYPE svg PUBLIC "-//W3C//DTD SVG 1.1//EN" "http://www.w3.org/Graphics/SVG/1.1/DTD/svg11.dtd">
<svg xmlns="http://www.w3.org/2000/svg" version="1.1" width="100%" height="100%">
<style type="text/css"><![CDATA[
  .stroke { fill:none; stroke:black; stroke-width:2 }
]]></style>
<path class="stroke" d="M 27.956203 10.264596875 L 72.62773 10.264596875" />
<path class="stroke" d="M 13.065693 21.213502083333335 C 13.065693 26.992090625000003 12.773722 30.945861458333336 11.313868 35.20377083333334" />
<path class="stroke" d="M 13.357662 21.213502083333335 L 87.51824 21.213502083333335 C 87.22627 27.296225000000003 86.35036 30.3375875 85.18248 33.37895104166667" />
<path class="stroke" d="M 50.165638 10.264596875 L 50.165638 48.281625000000005" />
<path class="stroke" d="M 27.080292 28.512771875000002 C 31.45985 29.425180208333337 34.37956 30.945861458333336 37.299267 34.29135833333334" />
<path class="stroke" d="M 27.372261 39.15754166666667 C 30.875912 39.7658125 33.79562 41.59063125 37.007298 45.848536458333335" />
<path class="stroke" d="M 60.9489 28.512771875000002 C 64.74452 29.121044791666666 67.9562 30.641727083333336 72.04379 33.98722395833334" />
<path class="stroke" d="M 60.9489 39.461677083333335 C 65.03649 40.06994791666666 68.540146 42.80717395833334 71.45985 45.848536458333335" />
<path class="stroke" d="M 16.2461 54.33754 L 93.2177 54.33754" />
<path class="stroke" d="M 16.2461 54.33754 L 16.2461 78.1546 C 15.51 85.35755 11.9348 90.50999999999999 5.5205 94.4006" />
<path class="stroke" d="M 30.12614 63.64351 L 85.64664 63.64351" />
<path class="stroke" d="M 16.561558 73.58042 L 92.586754 73.58042" />
<path class="stroke" d="M 31.0726 74.526821 L 31.0726 94.87382 M 15.29969 96.92427 L 55.36279 92.03467" />
<path class="stroke" d="M 85.9622 77.0504725 C 82.4921 81.0462725 77.1293 83.937973 69.8739 85.410122" />
<path class="stroke" d="M 54.4164 73.73815 C 57.0452 88.8275 68.8223 94.1377 91.6404 96.6088" />
</svg>
