<?xml version="1.0" standalone="no"?>
<!DOCTYPE svg PUBLIC "-//W3C//DTD SVG 1.1//EN" "http://www.w3.org/Graphics/SVG/1.1/DTD/svg11.dtd">
<svg xmlns="http://www.w3.org/2000/svg" version="1.1" width="100%" height="100%">
<style type="text/css"><![CDATA[
  .stroke { fill:none; stroke:black; stroke-width:2 }
]]></style>
<path class="stroke" d="M 7.0255465 19.18978 L 27.97445 19.18978" />
<path class="stroke" d="M 3.5510947499999994 38.18608 L 31.346713999999995 38.18608" />
<path class="stroke" d="M 14.383210449999998 38.109488 C 12.645985099999999 52.124084800000006 10.09124025 64.03649279999999 7.434306249999999 72.9124 C 12.645985099999999 71.74452000000001 20.3102193 70.1094848 26.850363399999996 69.642336" />
<path class="stroke" d="M 24.704379 62.401455999999996 C 26.1350355 66.13868400000001 27.565692 71.27736800000001 28.0766395 75.01459200000001" />
<path class="stroke" d="M 61.46689 6.46688 C 61.246039999999994 11.5142 59.479519999999994 14.3534 57.05045 17.1925" />
<path class="stroke" d="M 42.917947 18.1388 L 42.917947 54.1009" />
<path class="stroke" d="M 42.917947 18.1388 L 86.419587 17.8233 L 86.419587 53.7854" />
<path class="stroke" d="M 64.77914999999999 18.1388 L 64.77914999999999 54.1009" />
<path class="stroke" d="M 43.138740999999996 35.489 L 85.977901 35.489" />
<path class="stroke" d="M 42.917947 54.1009 L 86.419587 53.7854" />
<path class="stroke" d="M 58.81697 54.4164 C 58.66976 75.9726 49.689809999999994 89.0116 34.747631 94.4795" />
<path class="stroke" d="M 67.64984999999999 54.4164 L 67.64984999999999 89.7476 C 67.67764 92.6066 68.60892 93.6413 70.2997 93.5332 L 92.16091 93.5332 C 93.9275 93.7261 95.23307 92.9022 95.25238999999999 90.0631 L 95.25238999999999 82.8076" />
<path class="stroke" d="M 82.00314 61.9873 C 80.16298 69.8738 77.21870999999999 76.8139 73.17033 83.7539 C 78.39639 81.2303 83.62252 79.0221 88.84858 78.3912" />
<path class="stroke" d="M 86.19873 71.4511 C 88.55416 75.0263 89.5847 78.9169 89.95268999999999 82.8076" />
</svg>
