<?xml version="1.0" standalone="no"?>
<!DOCTYPE svg PUBLIC "-//W3C//DTD SVG 1.1//EN" "http://www.w3.org/Graphics/SVG/1.1/DTD/svg11.dtd">
<svg xmlns="http://www.w3.org/2000/svg" version="1.1" width="100%" height="100%">
<style type="text/css"><![CDATA[
  .stroke { fill:none; stroke:black; stroke-width:2 }
]]></style>
<path class="stroke" d="M 8.225378510638297 13.7224 C 10.63046 16.98216 11.881082978723404 19.92646 12.843185106382979 23.50156" />
<path class="stroke" d="M 33.33443255319149 13.72239 C 32.56482404255319 17.1924 30.92936021276596 20.347 28.42813255319149 23.1862" />
<path class="stroke" d="M 5.339282553191489 33.91172 L 37.37490468085107 33.91172" />
<path class="stroke" d="M 21.21283319148936 5.8359594 L 21.21283319148936 94.164" />
<path class="stroke" d="M 21.21276914893617 41.798 C 20.15451170212766 54.942 13.612747872340424 66.8245 6.2051012765957445 73.343796" />
<path class="stroke" d="M 21.501472978723402 44.32176 C 27.27362829787234 47.37116 31.31416446808511 51.68236 34.488845319148936 57.25546" />
<path class="stroke" d="M 71.42970375 8.841584450000001 C 72.3653451 11.945544149999998 73.1138607 14.767326299999999 73.1138607 18.1534664" />
<path class="stroke" d="M 53.61240789 18.23722505 L 90.768609 18.23722505" />
<path class="stroke" d="M 53.61240789 18.23722505 L 53.61240789 34.3248167 C 53.61240789 54.01824735 49.56569235 68.9963435 39.88054863 89.14838" />
<path class="stroke" d="M 61.3580229 33.51665846153846 L 90.42941133 33.51665846153846 L 90.42941133 59.81124307692308" />
<path class="stroke" d="M 58.752539775 46.56202452307692 L 96.051721149 46.56202452307692" />
<path class="stroke" d="M 61.35797943 59.81124307692308 L 90.42941133 59.81124307692308" />
<path class="stroke" d="M 77.12785215 26.586264307692307 L 77.12785215 59.81124307692308" />
<path class="stroke" d="M 63.762963826562995 68.96642299999999 L 63.762963826562995 85.97080199999999" />
<path class="stroke" d="M 63.762963826562995 68.96642299999999 L 87.8345548812 68.96642299999999 L 87.8345548812 85.8072988" />
<path class="stroke" d="M 63.762963826562995 84.66277248 L 87.8345548812 84.66277248" />
</svg>
