<?xml version="1.0" standalone="no"?>
<!DOCTYPE svg PUBLIC "-//W3C//DTD SVG 1.1//EN" "http://www.w3.org/Graphics/SVG/1.1/DTD/svg11.dtd">
<svg xmlns="http://www.w3.org/2000/svg" version="1.1" width="100%" height="100%">
<style type="text/css"><![CDATA[
  .stroke { fill:none; stroke:black; stroke-width:2 }
]]></style>
<path class="stroke" d="M 25.3211663 10.729925 C 21.6423344 18.029196 16.649633 23.86861 11.9197064 28.540146 C 15.598539200000001 31.45985 20.065691 36.131386 24.2700698 40.218975" />
<path class="stroke" d="M 35.3065682 25.912407 C 29.0 34.67153 20.5912397 45.18248 10.0802918 56.277367 C 19.540145 54.525543 30.0510929 52.48175 39.510947 50.437954" />
<path class="stroke" d="M 36.357662 43.430653 C 38.9853983 46.642334 39.7737218 49.85401 41.3503634 55.40146" />
<path class="stroke" d="M 25.846715 54.233574 L 25.846715 89.56204" />
<path class="stroke" d="M 17.7007277 65.03649 C 16.124087 70.87591 14.2846697 74.67153 10.6058378 78.75912" />
<path class="stroke" d="M 32.678831 65.32846 C 35.5693403 68.540146 35.616215 68.81081 37.075672999999995 71.72973" />
<path class="stroke" d="M 53.281186559999995 9.90099 L 78.37425984 9.90099 L 78.37425984 39.009903" />
<path class="stroke" d="M 55.84752672 24.455444 L 78.37425984 24.455444" />
<path class="stroke" d="M 45.58218048 39.009903 L 88.63960704 39.009903" />
<path class="stroke" d="M 67.82376 42.27723 L 67.82376 85.04951 C 67.5386112 87.72277 66.6831648 89.80198 64.1168352 89.80198 L 62.40593952 89.80198" />
<path class="stroke" d="M 49.28911008 50.0 C 53.56633632 52.673267 56.41781952 55.049507 58.98415968 59.80198" />
<path class="stroke" d="M 46.722773759999995 80.0 C 52.9960416 78.21782 58.12871327999999 74.653465 61.83564672 68.41584" />
<path class="stroke" d="M 85.502976 50.89109 C 84.3623712 55.940598 82.08118656 59.207924 78.37425984 62.47525" />
<path class="stroke" d="M 73.2415872 64.55446 C 78.37425984 74.0594 81.88963199999999 78.6014 89.78019839999999 83.564354" />
</svg>
