<?xml version="1.0" standalone="no"?>
<!DOCTYPE svg PUBLIC "-//W3C//DTD SVG 1.1//EN" "http://www.w3.org/Graphics/SVG/1.1/DTD/svg11.dtd">
<svg xmlns="http://www.w3.org/2000/svg" version="1.1" width="100%" height="100%">
<style type="text/css"><![CDATA[
  .stroke { fill:none; stroke:black; stroke-width:2 }
]]></style>
<path class="stroke" d="M 8.553868148 19.846422208 L 29.654012 19.846422208" />
<path class="stroke" d="M 4.81197066 40.69080259200001 L 33.18802756 40.69080259200001" />
<path class="stroke" d="M 14.8029192 42.666276496 L 14.8029192 55.917078112000006 C 14.8029192 67.60058183999999 11.7664232 79.141603232 4.1751824 82.13371959999999" />
<path class="stroke" d="M 21.6934296 42.523795624 L 21.6934296 76.14948784 C 21.6934296 79.7115316 23.211679200000003 81.84875688 24.8467132 81.84875688 L 33.9562 81.84875688 C 35.240876 81.99123824 36.175180000000005 80.85138248 36.175180000000005 79.28408264 L 36.175180000000005 76.576933872" />
<path class="stroke" d="M 50.9927002 9.854013 L 87.605836 9.854013" />
<path class="stroke" d="M 69.56204199999999 9.854013 C 68.861314 14.817516 67.4598532 18.905107 65.47744 22.0621" />
<path class="stroke" d="M 52.54 22.3791 L 52.54 76.715324" />
<path class="stroke" d="M 52.54 22.3791 L 86.21542 22.3791 L 86.21542 76.423355" />
<path class="stroke" d="M 52.73026 40.77066 L 86.21542 40.77066" />
<path class="stroke" d="M 52.73026 59.79627 L 86.21542 59.79627" />
<path class="stroke" d="M 52.5693424 76.715324 L 86.37955600000001 76.715324" />
<path class="stroke" d="M 59.226275799999996 83.13868 C 56.0729914 86.9343 52.3941598 89.56204 48.0145972 89.85401" />
<path class="stroke" d="M 80.248174 83.43065 C 83.927008 84.59853 86.905108 86.35036 90.40875700000001 90.72992" />
</svg>
