<?xml version="1.0" standalone="no"?>
<!DOCTYPE svg PUBLIC "-//W3C//DTD SVG 1.1//EN" "http://www.w3.org/Graphics/SVG/1.1/DTD/svg11.dtd">
<svg xmlns="http://www.w3.org/2000/svg" version="1.1" width="100%" height="100%">
<style type="text/css"><![CDATA[
  .stroke { fill:none; stroke:black; stroke-width:2 }
]]></style>
<path class="stroke" d="M 17.737225 8.694717352941176 C 23.576641 12.81665911764706 28.248173 18.484327058823528 31.751823 23.894375294117648" />
<path class="stroke" d="M 79.63503 8.694717352941176 C 77.252556 13.795619117647059 72.33576 19.772431764705882 67.37226 24.151995000000003" />
<path class="stroke" d="M 9.562042 28.799999999999997 L 90.43795 28.799999999999997" />
<path class="stroke" d="M 31.7035 29.231315399999986 C 28.7592 43.02979979999998 22.0295 50.497160399999984 14.3533 54.555501839999984" />
<path class="stroke" d="M 65.7729 29.231161020000012 C 69.7686 42.86723765999999 75.3417 49.68527598000003 83.123 54.55534745999999" />
<path class="stroke" d="M 18.4542 60.48896 L 18.4542 92.03472" />
<path class="stroke" d="M 18.4542 60.48896 L 80.5994 60.48896 L 80.5994 91.90852000000001" />
<path class="stroke" d="M 39.27444 60.61516 L 39.27444 92.03472" />
<path class="stroke" d="M 60.41014 60.6151428 L 60.41014 92.160904" />
<path class="stroke" d="M 7.09779 92.16087999999999 L 92.9022 92.16087999999999" />
</svg>
