<?xml version="1.0" standalone="no"?>
<!DOCTYPE svg PUBLIC "-//W3C//DTD SVG 1.1//EN" "http://www.w3.org/Graphics/SVG/1.1/DTD/svg11.dtd">
<svg xmlns="http://www.w3.org/2000/svg" version="1.1" width="100%" height="100%">
<style type="text/css"><![CDATA[
  .stroke { fill:none; stroke:black; stroke-width:2 }
]]></style>
<path class="stroke" d="M 7.072135714285714 11.089109 L 25.576035714285712 11.290321 C 26.958525714285717 17.741934 22.81105857142857 33.225803 18.663594285714286 40.0" />
<path class="stroke" d="M 18.663594285714286 40.96774 C 22.119814285714284 44.51613 24.884790714285714 49.032257 26.26728071428571 54.19355 C 27.649767857142855 57.09677 27.649767857142855 65.161285 20.276497142857142 68.38709 L 15.898617142857145 69.354836" />
<path class="stroke" d="M 9.193775714285714 11.089109 L 9.193775714285714 90.09901" />
<path class="stroke" d="M 37.919707599999995 17.445253 C 40.7810213 18.029196 43.642335 20.364962 45.686129199999996 24.160583" />
<path class="stroke" d="M 36.4890511 47.226276 C 39.3503634 47.226276 42.8248169 46.934303 46.708027 43.138683 C 41.394159 53.357662 39.9635032 58.321167 40.5766416 60.9489 C 40.985400999999996 63.284668 44.6642328 65.62044 45.481750899999994 68.832115 C 46.5036487 72.33576 42.6904722 80.26506 37.7153272 83.722626" />
<path class="stroke" d="M 37.7153272 84.014595 C 57.785046799999996 81.65476 58.357665 91.313866 93.306565 90.14598" />
<path class="stroke" d="M 70.80948648 9.54160568 C 68.44924019999999 31.045268 63.0280594 49.24563199999999 51.601897814 62.27152879999999" />
<path class="stroke" d="M 51.904378734 24.391123999999998 L 93.6468581 24.391123999999998" />
<path class="stroke" d="M 66.90293703768 40.152554006 L 66.90293703768 63.7583918 C 66.90293703768 68.99208026 66.90293703768 71.1877214 66.90293703768 76.265150372" />
<path class="stroke" d="M 66.90293703768 40.152554006 L 85.11233920640001 40.152554006 L 85.11233920640001 75.35897618 C 85.11233920640001 76.43810192000001 84.5920675692 77.3823329 83.29139694032 77.3823329 L 81.8606604068 77.3823329" />
<path class="stroke" d="M 66.90293703768 50.320510574000004 L 85.11233920640001 50.320510574000004" />
<path class="stroke" d="M 66.90293703768 61.060975232000004 L 85.11233920640001 61.060975232000004" />
</svg>
