<?xml version="1.0" standalone="no"?>
<!DOCTYPE svg PUBLIC "-//W3C//DTD SVG 1.1//EN" "http://www.w3.org/Graphics/SVG/1.1/DTD/svg11.dtd">
<svg xmlns="http://www.w3.org/2000/svg" version="1.1" width="100%" height="100%">
<style type="text/css"><![CDATA[
  .stroke { fill:none; stroke:black; stroke-width:2 }
]]></style>
<path class="stroke" d="M 12.372261 14.963503399999999 L 41.715325 14.2627736 C 40.9854 24.248174 38.79562 29.59124 38.065693 30.729926 C 37.1897775 31.693428799999996 35.437955 31.956203 33.9781 32.043794 L 32.518245 31.956203" />
<path class="stroke" d="M 26.824815 8.1313868 C 25.07299 17.9416049 19.37956 27.9270065 10.182481 30.729926" />
<path class="stroke" d="M 59.1605835 10.3211675 L 59.1605835 28.540145" />
<path class="stroke" d="M 59.1605835 10.3211675 L 90.9854 10.3211675 L 90.9854 28.364963" />
<path class="stroke" d="M 59.1605835 27.138684799999996 L 90.9854 27.138684799999996" />
<path class="stroke" d="M 27.080292 41.40510845 L 27.080292 83.9160555" />
<path class="stroke" d="M 27.372261 41.40510845 L 72.9197 41.40510845 L 72.9197 83.9160555" />
<path class="stroke" d="M 27.382198 55.915843 L 72.871284 55.915843" />
<path class="stroke" d="M 27.382198 70.20297105 L 72.871284 70.20297105" />
<path class="stroke" d="M 27.372261 83.726275 L 72.62773 83.726275" />
<path class="stroke" d="M 33.211678 88.28102 C 30.875912 91.507295 21.39527 93.6937585 17.015707 94.45287725" />
<path class="stroke" d="M 63.82199 88.32722525 C 66.335075 89.9607305 75.75916 94.8612599 84.86911 94.65706890000001" />
</svg>
