<?xml version="1.0" standalone="no"?>
<!DOCTYPE svg PUBLIC "-//W3C//DTD SVG 1.1//EN" "http://www.w3.org/Graphics/SVG/1.1/DTD/svg11.dtd">
<svg xmlns="http://www.w3.org/2000/svg" version="1.1" width="100%" height="100%">
<style type="text/css"><![CDATA[
  .stroke { fill:none; stroke:black; stroke-width:2 }
]]></style>
<path class="stroke" d="M 19.62263090909091 5.51212 C 17.312086363636364 16.18763 13.245085454545455 26.54933 5.451421818181818 31.83253" />
<path class="stroke" d="M 18.754981818181815 11.2215 L 37.021527272727276 11.2215 C 35.94507272727272 17.87713 32.571436363636366 23.27433 28.325618181818182 27.39653" />
<path class="stroke" d="M 13.262936363636364 27.08275 L 13.262936363636364 72.72795 C 13.360572727272727 83.09285 10.554572727272728 88.06055 5.463336363636364 93.35545" />
<path class="stroke" d="M 14.124781818181818 27.08276 L 43.10923636363636 27.08276 L 43.10923636363636 87.99256 C 42.766963636363634 91.46236 40.70405454545454 92.72436 38.64114545454545 92.72436 L 34.17296363636363 92.72436" />
<path class="stroke" d="M 28.32872727272727 27.39985 L 28.32872727272727 67.67075" />
<path class="stroke" d="M 13.5527 47.05964 L 42.376518181818184 47.05964" />
<path class="stroke" d="M 13.839481818181818 68.1953 L 42.6633 68.1953" />
<path class="stroke" d="M 59.744524999999996 27.080292 L 59.744524999999996 59.489044" />
<path class="stroke" d="M 59.744524999999996 27.372261 L 90.54744500000001 27.372261 L 90.54744500000001 59.78102" />
<path class="stroke" d="M 59.744524999999996 55.773968 L 90.54744500000001 55.773968" />
<path class="stroke" d="M 74.994995 8.394159 L 74.994995 86.642334" />
<path class="stroke" d="M 58.722626500000004 91.0219 L 90.693428 82.55474" />
<path class="stroke" d="M 87.77372 73.21168 C 90.25547499999999 78.46715 91.56934 84.306564 92.44525 91.0219" />
</svg>
