<?xml version="1.0" standalone="no"?>
<!DOCTYPE svg PUBLIC "-//W3C//DTD SVG 1.1//EN" "http://www.w3.org/Graphics/SVG/1.1/DTD/svg11.dtd">
<svg xmlns="http://www.w3.org/2000/svg" version="1.1" width="100%" height="100%">
<style type="text/css"><![CDATA[
  .stroke { fill:none; stroke:black; stroke-width:2 }
]]></style>
<path class="stroke" d="M 15.401459 15.54306516 L 84.8905 15.54306516" />
<path class="stroke" d="M 49.43925 4.435513739999999 L 49.065422 4.5925236 C 45.126904 17.4182736 33.364487 22.0205622 6.074766 30.0280386" />
<path class="stroke" d="M 58.037384 15.583176839999998 C 66.26168 20.921495280000002 72.990654 25.63177596 89.81309 30.3420558" />
<path class="stroke" d="M 33.3211663 28.53284598 C 32.0072977 33.09926966 23.5985392 37.9343062 18.6058378 39.0087581" />
<path class="stroke" d="M 29.3795605 35.5167877 L 29.3795605 65.60145700000001" />
<path class="stroke" d="M 60.6496303 28.6671531 C 59.0729887 31.62189732 56.1824794 34.17372202 51.9781006 35.6510939" />
<path class="stroke" d="M 29.3795605 35.3911824 L 77.992696 35.3911824" />
<path class="stroke" d="M 53.291971000000004 35.6510939 L 53.291971000000004 65.60145700000001" />
<path class="stroke" d="M 29.3795605 45.984251 L 74.576638 45.984251" />
<path class="stroke" d="M 29.3795605 55.797078639999995 L 74.839411 55.797078639999995" />
<path class="stroke" d="M 29.3795605 65.60145700000001 L 83.24817039999999 65.60145700000001" />
<path class="stroke" d="M 10.437956 77.06204325 L 89.270065 77.06204325" />
<path class="stroke" d="M 65.62044 72.90145975 L 65.62044 91.441605 C 65.62044 92.09854 64.45255 92.536495 61.824814 92.536495 L 53.941605 92.536495" />
<path class="stroke" d="M 26.49635 79.83576575000001 C 30.0 80.4927005 33.211678 81.4416055 35.839413 83.04744425" />
</svg>
