<?xml version="1.0" standalone="no"?>
<!DOCTYPE svg PUBLIC "-//W3C//DTD SVG 1.1//EN" "http://www.w3.org/Graphics/SVG/1.1/DTD/svg11.dtd">
<svg xmlns="http://www.w3.org/2000/svg" version="1.1" width="100%" height="100%">
<style type="text/css"><![CDATA[
  .stroke { fill:none; stroke:black; stroke-width:2 }
]]></style>
<path class="stroke" d="M 15.058394 19.462000000000003 L 46.941604000000005 19.462000000000003" />
<path class="stroke" d="M 31.0 12.389926972000001 L 31.0 27.595765120000003" />
<path class="stroke" d="M 5.83596 30.029980600000002 L 94.164 30.029980600000002" />
<path class="stroke" d="M 60.7256 12.427442800000001 L 60.7256 30.029962 C 61.1462 56.042527 77.0242 93.49688200000001 89.7476 93.692368 L 89.7476 83.717746" />
<path class="stroke" d="M 90.3785 48.51264901 C 81.5457 71.0047018 66.4037 87.33596680000001 44.9526 93.10568122000001" />
<path class="stroke" d="M 82.1767 13.6009447 C 85.7519 15.9479485 88.0652 18.001574500000004 90.3785 21.815504500000003" />
<path class="stroke" d="M 23.671232 40.84356330000001 L 23.69083 79.06273635000001" />
<path class="stroke" d="M 37.413245 40.23205389 L 37.413245 70.80739698" />
<path class="stroke" d="M 11.388015 61.97868285 C 13.806515 65.23763535 15.594115 69.37699095 16.593015 74.5303209" />
<path class="stroke" d="M 47.342465 46.65287619 C 46.520545 50.9334216 45.20548 57.0484971 41.424655 58.2715029" />
<path class="stroke" d="M 8.38356115 87.3180813 L 50.958905 64.08081858" />
</svg>
