<?xml version="1.0" standalone="no"?>
<!DOCTYPE svg PUBLIC "-//W3C//DTD SVG 1.1//EN" "http://www.w3.org/Graphics/SVG/1.1/DTD/svg11.dtd">
<svg xmlns="http://www.w3.org/2000/svg" version="1.1" width="100%" height="100%">
<style type="text/css"><![CDATA[
  .stroke { fill:none; stroke:black; stroke-width:2 }
]]></style>
<path class="stroke" d="M 50.14598 6.95255475 L 50.14598 16.587590249999998" />
<path class="stroke" d="M 12.4817505 16.806567 L 12.4817505 27.31751625" />
<path class="stroke" d="M 12.4817505 16.806567 L 87.81021 16.806567 L 87.81021 27.31751625" />
<path class="stroke" d="M 45.247524 26.90396023 C 44.059406 33.15940579 36.633663 40.80495097 29.504951 44.39603977 C 45.766422 45.770071 68.832115 50.2109464 80.51095 55.790510260000005" />
<path class="stroke" d="M 68.71287 33.9702973 C 61.287132 47.1762394 45.841583 52.1574286 22.992699 55.4489038" />
<path class="stroke" d="M 9.854013 35.86350277 L 89.85401 35.86350277" />
<path class="stroke" d="M 11.021896 68.40145432 L 88.68613 68.40145432" />
<path class="stroke" d="M 50.14598 62.48029024 L 50.14598 91.9008232" />
<path class="stroke" d="M 47.226276 70.22335492 C 35.547443 78.4218928 23.576641 84.5707966 13.065693 87.9868534" />
<path class="stroke" d="M 53.06569 70.22335492 C 64.16058 78.87736600000001 75.54744 84.34306000000001 86.642334 87.9868534" />
</svg>
