<?xml version="1.0" standalone="no"?>
<!DOCTYPE svg PUBLIC "-//W3C//DTD SVG 1.1//EN" "http://www.w3.org/Graphics/SVG/1.1/DTD/svg11.dtd">
<svg xmlns="http://www.w3.org/2000/svg" version="1.1" width="100%" height="100%">
<style type="text/css"><![CDATA[
  .stroke { fill:none; stroke:black; stroke-width:2 }
]]></style>
<path class="stroke" d="M 6.78233 8.044168 L 94.164 8.044168" />
<path class="stroke" d="M 14.837906 19.625937 L 86.35911 19.625937 L 86.35911 35.785538" />
<path class="stroke" d="M 14.538654 35.486286 L 86.95761 35.486286" />
<path class="stroke" d="M 14.98422 19.40065 L 14.98422 61.67185 C 14.87902 75.86745 13.51212 82.17665 8.67502 90.37855" />
<path class="stroke" d="M 55.755537800000006 46.7941595 L 55.755537800000006 53.889049400000005" />
<path class="stroke" d="M 29.47518213 53.889049400000005 L 85.7554718 53.889049400000005" />
<path class="stroke" d="M 54.6167844 62.245254020000004 L 79.52773590000001 62.245254020000004 C 78.37445045000001 69.6554726 77.4518213 74.54306282 75.60656300000001 78.9576638 C 73.30000000000001 84.0029162 69.1481708 88.5751826 65.4576621 88.5751826 L 60.84452346 88.5751826" />
<path class="stroke" d="M 55.77006985 53.889049400000005 L 54.155473380000004 63.3489044 C 52.54087454 73.43941459999999 46.54379494 83.37226100000001 37.54817238 86.3678813" />
</svg>
