<?xml version="1.0" standalone="no"?>
<!DOCTYPE svg PUBLIC "-//W3C//DTD SVG 1.1//EN" "http://www.w3.org/Graphics/SVG/1.1/DTD/svg11.dtd">
<svg xmlns="http://www.w3.org/2000/svg" version="1.1" width="100%" height="100%">
<style type="text/css"><![CDATA[
  .stroke { fill:none; stroke:black; stroke-width:2 }
]]></style>
<path class="stroke" d="M 11.313868 15.164961920000001 C 15.401459 15.53868544 19.48905 17.03357568 22.408756 19.46277312" />
<path class="stroke" d="M 9.270073 34.22481664 C 13.357662 34.22481664 18.321167 34.03795392 23.86861 31.60875712 C 16.27737 38.14890368 14.233576 41.325546880000005 15.109488 43.007296000000004 C 15.69343 44.50218752 20.948904 45.9970816 22.116787 48.0525536 C 23.576641 50.294886399999996 18.129246 55.36963840000001 11.021896 57.58248064000001" />
<path class="stroke" d="M 11.021896 57.7693408 C 39.692924 56.259046399999995 40.51095 62.44087424000001 90.43795 61.693427199999995" />
<path class="stroke" d="M 46.861385999999996 10.443088896 C 49.1485135 11.560871116800001 50.8118815 13.157702784000001 52.0594054 15.233583359999997" />
<path class="stroke" d="M 74.099009 10.443088896 C 73.267325 12.6786538752 72.019806 14.4351683328 69.9405946 15.7126338816" />
<path class="stroke" d="M 33.554456 16.856057471999996 L 88.4455468 16.856057471999996" />
<path class="stroke" d="M 60.489048999999994 17.013021081599998 C 57.627736 19.524437759999998 56.605838199999994 21.0940727808 55.92115 23.00214528" />
<path class="stroke" d="M 43.9504962 23.058058368 L 43.9504962 52.5994477056" />
<path class="stroke" d="M 43.9504962 23.058058368 L 77.84158 23.058058368 L 77.84158 52.5994477056" />
<path class="stroke" d="M 44.1584158 33.023296896 L 77.84158 33.023296896" />
<path class="stroke" d="M 43.9504962 42.912 L 77.84158 42.912" />
<path class="stroke" d="M 44.1584158 52.5994477056 L 77.84158 52.5994477056" />
<path class="stroke" d="M 19.93284656 71.90948844 L 79.8452494 71.90948844" />
<path class="stroke" d="M 61.8715344 67.24963492 L 61.8715344 88.0145976 C 61.8715344 88.7503648 60.983938 89.2408744 58.98685864 89.2408744 L 52.9956198 89.2408744" />
<path class="stroke" d="M 32.137226 75.01605764 C 34.8 75.75182456 37.24087528 76.81459816 39.23795388 78.61313756" />
</svg>
