<?xml version="1.0" standalone="no"?>
<!DOCTYPE svg PUBLIC "-//W3C//DTD SVG 1.1//EN" "http://www.w3.org/Graphics/SVG/1.1/DTD/svg11.dtd">
<svg xmlns="http://www.w3.org/2000/svg" version="1.1" width="100%" height="100%">
<style type="text/css"><![CDATA[
  .stroke { fill:none; stroke:black; stroke-width:2 }
]]></style>
<path class="stroke" d="M 25.75504895348837 11.89781 C 25.042098139534883 30.875912 20.52673430232558 45.47445 16.249022093023257 55.693428 C 24.566796511627906 60.9489 31.696316046511626 70.0 37.16228069767442 81.386856" />
<path class="stroke" d="M 36.20285581395349 26.831684 C 34.510475581395355 53.564358 27.65625465116279 69.70802 16.011372906976746 79.34306" />
<path class="stroke" d="M 11.25835988372093 33.79562 L 37.653465000000004 29.80198" />
<path class="stroke" d="M 52.513868 5.796478235294118 C 55.316787680000004 8.544439411764706 57.55912304 12.322884705882352 59.240875040000006 15.929583529411765" />
<path class="stroke" d="M 82.22481439999999 5.796478235294118 C 81.08122688 9.197079411764706 78.7211648 13.181621176470589 76.3386848 16.10133" />
<path class="stroke" d="M 43.283018 16.2264115 L 92.71697599999999 16.2264115" />
<path class="stroke" d="M 46.3019 29.528272 L 88.18868 29.528272 L 88.18868 59.245282" />
<path class="stroke" d="M 41.584907 44.528266 L 94.415096 44.528266" />
<path class="stroke" d="M 46.490561 59.528323 L 88.18870100000001 59.528323" />
<path class="stroke" d="M 62.528294 16.7924485 L 62.528294 94.33968399999999" />
<path class="stroke" d="M 73.282994 16.7924485 L 73.282994 94.33968399999999" />
<path class="stroke" d="M 61.58492 59.52835 C 59.06918 77.54716 50.5157 89.62264 41.584904 94.05658" />
<path class="stroke" d="M 74.22644 59.528259999999996 C 76.36472 76.98115 84.54086000000001 89.05663 93.47167999999999 94.05658" />
</svg>
