<?xml version="1.0" standalone="no"?>
<!DOCTYPE svg PUBLIC "-//W3C//DTD SVG 1.1//EN" "http://www.w3.org/Graphics/SVG/1.1/DTD/svg11.dtd">
<svg xmlns="http://www.w3.org/2000/svg" version="1.1" width="100%" height="100%">
<style type="text/css"><![CDATA[
  .stroke { fill:none; stroke:black; stroke-width:2 }
]]></style>
<path class="stroke" d="M 26.005770232558138 11.89781 C 25.19096930232558 30.875912 20.030553488372092 45.47445 15.141739534883722 55.693428 C 24.647767441860463 60.9489 32.79578976744186 70.0 39.04260651162791 81.386856" />
<path class="stroke" d="M 37.94612093023255 26.831684 C 36.01197209302326 53.564358 28.178576744186046 69.70802 14.870140465116279 79.34306" />
<path class="stroke" d="M 9.438125581395349 33.79562 L 39.60396 29.80198" />
<path class="stroke" d="M 44.258674 13.19399 L 95.55207999999999 13.19399" />
<path class="stroke" d="M 56.182953999999995 5.4842227999999995 L 56.182953999999995 46.108842" />
<path class="stroke" d="M 82.68141399999999 5.4842227999999995 L 82.68141399999999 46.108842" />
<path class="stroke" d="M 56.182953999999995 28.761847 L 82.68141399999999 28.761847" />
<path class="stroke" d="M 56.182953999999995 46.108842 L 82.68141399999999 46.108842" />
<path class="stroke" d="M 46.6131376 59.489044 L 93.211678 59.489044" />
<path class="stroke" d="M 70.087588 51.897808 L 70.087588 89.61644" />
<path class="stroke" d="M 68.3357656 61.824814 C 61.328465800000004 72.33576 54.1459846 80.21897 47.8394158 84.59853" />
<path class="stroke" d="M 71.839414 61.824814 C 78.496348 72.9197 85.328464 79.927 91.9854004 84.59853" />
</svg>
