<?xml version="1.0" standalone="no"?>
<!DOCTYPE svg PUBLIC "-//W3C//DTD SVG 1.1//EN" "http://www.w3.org/Graphics/SVG/1.1/DTD/svg11.dtd">
<svg xmlns="http://www.w3.org/2000/svg" version="1.1" width="100%" height="100%">
<style type="text/css"><![CDATA[
  .stroke { fill:none; stroke:black; stroke-width:2 }
]]></style>
<path class="stroke" d="M 4.35332 12.854856 L 4.2849312 86.6" />
<path class="stroke" d="M 4.35332 12.854856 L 36.025240000000004 12.854856" />
<path class="stroke" d="M 18.4858108 12.854944 L 18.4858108 35.063064" />
<path class="stroke" d="M 4.35332 36.173456800000004 L 30.599360000000004 36.173456800000004 L 30.599360000000004 60.0473288" />
<path class="stroke" d="M 4.35332 60.0473288 L 30.599360000000004 60.0473288" />
<path class="stroke" d="M 18.6119936 60.32496 L 18.6119936 82.81072" />
<path class="stroke" d="M 4.35332 83.08836000000001 L 36.2776 83.08836000000001" />
<path class="stroke" d="M 52.3564354 5.318246285714285 C 50.9306926 9.731258857142857 48.792079 14.314001714285714 45.940594 17.36916457142857" />
<path class="stroke" d="M 50.0396044 11.768033714285714 L 94.237624 11.768033714285714" />
<path class="stroke" d="M 58.59562012 22.538320624999997 L 58.59562012 48.34853875" />
<path class="stroke" d="M 58.59562012 22.538320624999997 L 81.509488 22.538320624999997 L 81.509488 48.10036425" />
<path class="stroke" d="M 58.59562012 46.36313679999999 L 81.509488 46.36313679999999" />
<path class="stroke" d="M 46.74671509 61.5421526875 L 46.74671509 89.93339262500001" />
<path class="stroke" d="M 46.74671509 61.5421526875 L 63.93211599999999 61.5421526875 L 63.93211599999999 89.660400675" />
<path class="stroke" d="M 46.74671509 87.74945048 L 63.93211599999999 87.74945048" />
<path class="stroke" d="M 76.14671509 61.5421526875 L 76.14671509 89.93339262500001" />
<path class="stroke" d="M 76.14671509 61.5421526875 L 93.332116 61.5421526875 L 93.332116 89.660400675" />
<path class="stroke" d="M 76.14671509 87.74945048 L 93.332116 87.74945048" />
</svg>
