<?xml version="1.0" standalone="no"?>
<!DOCTYPE svg PUBLIC "-//W3C//DTD SVG 1.1//EN" "http://www.w3.org/Graphics/SVG/1.1/DTD/svg11.dtd">
<svg xmlns="http://www.w3.org/2000/svg" version="1.1" width="100%" height="100%">
<style type="text/css"><![CDATA[
  .stroke { fill:none; stroke:black; stroke-width:2 }
]]></style>
<path class="stroke" d="M 33.211678 6.558029149999999 C 31.751823 12.647079625 24.160583 18.359487725 9.854013 22.941970849999997" />
<path class="stroke" d="M 64.46271 6.678367659999999 C 76.715324 11.07773636 84.59853 17.1040135 89.270065 23.06751795" />
<path class="stroke" d="M 51.25328356 19.52700672 C 46.5233566 27.6554736 35.237173 36.758336 21.92773576 43.258393600000005 C 41.79342883 42.230655999999996 59.057663530000006 41.763504 77.95932700000002 41.83184" />
<path class="stroke" d="M 68.75401315 35.97080064 C 74.19342639999999 37.745984 78.92335336 40.455473600000005 81.9978088 44.0992672" />
<path class="stroke" d="M 16.435644 54.80198 L 45.247524 54.80198 L 45.247524 92.67326750000001 C 45.247524 94.30693 43.465347 95.04950500000001 40.79208 95.04950500000001 L 37.227722 95.04950500000001" />
<path class="stroke" d="M 11.683168 64.009901 C 18.51485 65.198019 24.752476 67.2772275 29.20792 70.09900999999999" />
<path class="stroke" d="M 12.277227 84.059405 L 30.9901 76.3366335" />
<path class="stroke" d="M 61.287132 54.80198 L 88.91089 54.80198 L 88.91089 92.227722 C 88.91089 93.861385 87.42574 94.90099000000001 84.15842 94.90099000000001 L 81.18812 94.90099000000001" />
<path class="stroke" d="M 58.316833 63.564356000000004 C 64.85149 64.60396 69.90099 66.6831685 74.0594 69.950495" />
<path class="stroke" d="M 58.316833 83.76237499999999 L 76.73267 76.039605" />
</svg>
