<?xml version="1.0" standalone="no"?>
<!DOCTYPE svg PUBLIC "-//W3C//DTD SVG 1.1//EN" "http://www.w3.org/Graphics/SVG/1.1/DTD/svg11.dtd">
<svg xmlns="http://www.w3.org/2000/svg" version="1.1" width="100%" height="100%">
<style type="text/css"><![CDATA[
  .stroke { fill:none; stroke:black; stroke-width:2 }
]]></style>
<path class="stroke" d="M 12.28759108 12.45985248 L 12.2671144 56.4120864 C 9.66577158 79.9932864 9.66577158 79.2201312 6.75838892 89.27114495999999" />
<path class="stroke" d="M 12.28759108 12.45985248 L 27.8204384 12.45985248 L 27.8204384 85.6160544 C 27.8204384 87.8583936 27.3766402 89.820432 26.26715192 89.820432 L 25.046715799999998 89.820432" />
<path class="stroke" d="M 12.28759108 33.58807392 L 27.8204384 33.58807392" />
<path class="stroke" d="M 12.28759108 55.90592255999999 L 27.8204384 55.90592255999999" />
<path class="stroke" d="M 65.44163 5.839088000000004 L 65.44163 17.447920000000003" />
<path class="stroke" d="M 34.5268139 17.70024 L 34.5268139 27.794880000000006" />
<path class="stroke" d="M 34.5268139 17.70024 L 95.9148385 17.70024 L 95.9148385 27.794880000000006" />
<path class="stroke" d="M 48.00839285 28.116788 C 46.812772550000005 42.364962399999996 43.961678570000004 49.8394136 40.098904759999996 56.6131376" />
<path class="stroke" d="M 47.732481199999995 33.021896 L 59.41277255 33.021896 C 58.3091228 54.043792 49.57189724 80.90510880000001 37.52372243 91.88320800000001" />
<path class="stroke" d="M 46.260949249999996 48.4379544 C 49.133842175 51.585264 51.411313594999996 55.6788296 53.43467042 63.153284000000006" />
<path class="stroke" d="M 69.72002111 32.272581136 L 88.54031855 32.272581136 L 88.54031855 58.841643536 C 88.522746275 60.952357888 87.84744455 62.399957136000005 86.31612559999999 62.399957136000005 L 83.06534135 62.399957136000005" />
<path class="stroke" d="M 69.719966615 32.509761936000004 L 69.719966615 91.10409567999999 C 69.77094905 93.7489624 70.9176215 95.19730688 72.457455845 95.13692128000001 L 89.566801175 95.13692128000001 C 91.2207512 95.13692128000001 92.53246475 93.71361088 92.47546235 91.10409567999999 L 92.47546235 86.59683328" />
</svg>
