<?xml version="1.0" standalone="no"?>
<!DOCTYPE svg PUBLIC "-//W3C//DTD SVG 1.1//EN" "http://www.w3.org/Graphics/SVG/1.1/DTD/svg11.dtd">
<svg xmlns="http://www.w3.org/2000/svg" version="1.1" width="100%" height="100%">
<style type="text/css"><![CDATA[
  .stroke { fill:none; stroke:black; stroke-width:2 }
]]></style>
<path class="stroke" d="M 8.69085 22.0316 L 2.3817 38.1199" />
<path class="stroke" d="M 20.6782 22.0316 L 27.6183 38.1199" />
<path class="stroke" d="M 14.6845 7.3123 L 14.6845 93.3186" />
<path class="stroke" d="M 36.7350129 8.841123947368422 C 41.1514599 13.90496605263158 44.0220899 18.22180815789474 46.6719399 23.78380894736842" />
<path class="stroke" d="M 54.179869 6.5996999999999995 C 58.37545899999999 11.414605263157895 60.804389 15.482289473684212 63.895869 21.791447368421053" />
<path class="stroke" d="M 89.51101799999999 5.852557894736842 C 86.640388 12.493768421052632 82.886428 18.387900000000002 78.24920800000001 24.281952631578946" />
<path class="stroke" d="M 35.851734 30.7965325 L 35.851734 94.913275 L 94.14828 94.913275" />
<path class="stroke" d="M 94.14828 30.3233425 L 94.14828 94.913275" />
<path class="stroke" d="M 84.95766079999999 34.837591 C 79.890659 51.368320000000004 61.238710999999995 74.4598 45.32846637 83.01277" />
<path class="stroke" d="M 52.48175096999999 40.0930642 C 61.650898999999995 45.75316 75.923276 62.851 83.703496 76.35256" />
</svg>
