<?xml version="1.0" standalone="no"?>
<!DOCTYPE svg PUBLIC "-//W3C//DTD SVG 1.1//EN" "http://www.w3.org/Graphics/SVG/1.1/DTD/svg11.dtd">
<svg xmlns="http://www.w3.org/2000/svg" version="1.1" width="100%" height="100%">
<style type="text/css"><![CDATA[
  .stroke { fill:none; stroke:black; stroke-width:2 }
]]></style>
<path class="stroke" d="M 10.667477555555557 17.65620336 L 27.601782666666665 17.65620336" />
<path class="stroke" d="M 19.322788555555558 17.65620336 L 19.322788555555558 74.58174752" />
<path class="stroke" d="M 10.855635355555556 44.84452251 L 27.41362422222222 44.84452251" />
<path class="stroke" d="M 9.726682755555556 78.8299246 L 28.918895000000003 70.89999999999999" />
<path class="stroke" d="M 36.4752472 23.81708 L 83.524752 23.81708" />
<path class="stroke" d="M 60.0 9.90099 L 60.0 82.9703 C 60.0 86.83168 58.336632 90.09901 56.1980192 90.09901 L 54.534652799999996 90.09901" />
<path class="stroke" d="M 38.6138608 36.930695 C 43.366336000000004 39.30693 47.405941600000006 42.574257 51.445544 48.51485" />
<path class="stroke" d="M 36.9504944 79.40594 C 43.366336000000004 76.13861 49.3069304 69.60396 52.633664 60.990097" />
<path class="stroke" d="M 83.524752 34.257427 C 80.67326399999999 42.87129 77.34653600000001 48.51485 71.64356800000002 52.9703" />
<path class="stroke" d="M 67.12871200000001 53.564358 C 73.30693600000001 60.39604 81.14851680000001 74.0594 85.1881168 84.75247" />
<path class="stroke" d="M 78.2970272 9.306931 C 81.386136 10.79208 84.0 13.168318 86.613864 17.029703" />
</svg>
