<?xml version="1.0" standalone="no"?>
<!DOCTYPE svg PUBLIC "-//W3C//DTD SVG 1.1//EN" "http://www.w3.org/Graphics/SVG/1.1/DTD/svg11.dtd">
<svg xmlns="http://www.w3.org/2000/svg" version="1.1" width="100%" height="100%">
<style type="text/css"><![CDATA[
  .stroke { fill:none; stroke:black; stroke-width:2 }
]]></style>
<path class="stroke" d="M 55.8675 3.75396 C 53.63826 9.26394 48.75918 14.521560000000001 43.50156 16.687700000000003" />
<path class="stroke" d="M 19.48905 19.131386499999998 L 19.48905 91.394155" />
<path class="stroke" d="M 19.48905 19.131386499999998 L 80.51095 19.131386499999998 L 80.51095 91.382986" />
<path class="stroke" d="M 31.0189775 31.24598409 C 33.5240867 33.102919119999996 35.83649636 35.26934235 37.333478 38.468478000000005" />
<path class="stroke" d="M 68.59561880000001 31.24598409 C 67.43941430000001 34.0313869 65.3197088 36.352554760000004 62.4291959 38.36423336" />
<path class="stroke" d="M 26.77956056 44.86350199 L 73.413137 44.86350199" />
<path class="stroke" d="M 50.0 27.0900988 L 50.0963468 69.90990120000001" />
<path class="stroke" d="M 46.43503442 46.25620366 C 42.469004 53.63347400000001 34.459442 61.134723 24.8525546 65.13503367999999" />
<path class="stroke" d="M 53.95036202 46.410946700000004 C 57.18905 53.689177 65.247386 61.576372 74.9547386 65.28977725000001" />
</svg>
