<?xml version="1.0" standalone="no"?>
<!DOCTYPE svg PUBLIC "-//W3C//DTD SVG 1.1//EN" "http://www.w3.org/Graphics/SVG/1.1/DTD/svg11.dtd">
<svg xmlns="http://www.w3.org/2000/svg" version="1.1" width="100%" height="100%">
<style type="text/css"><![CDATA[
  .stroke { fill:none; stroke:black; stroke-width:2 }
]]></style>
<path class="stroke" d="M 17.223941099999998 14.755186921568628 C 19.536349836 18.5107338627451 21.386276507999998 23.674609098039216 22.773721908000002 28.603764156862745" />
<path class="stroke" d="M 41.73547188 14.755186921568628 C 40.792012176 19.402675196078434 38.844960959999995 24.848215607843137 36.87941496 28.838484333333334" />
<path class="stroke" d="M 5.7372252 32.11666666666667 L 54.262769999999996 32.11666666666667" />
<path class="stroke" d="M 13.7735022 44.68453 L 13.7735022 76.70344 L 47.426502000000006 76.70344" />
<path class="stroke" d="M 47.426502000000006 44.68453 L 47.426502000000006 76.70344" />
<path class="stroke" d="M 30.599999999999998 34.526816 L 30.599999999999998 77.80754999999999 C 30.599999999999998 90.54153 22.915469999999996 94.22185 15.893363999999998 96.79805999999999" />
<path class="stroke" d="M 69.5510947 9.854013 L 69.526846 55.63759 C 66.44630845 80.20134 66.44630845 79.39597 63.003355299999996 89.865776" />
<path class="stroke" d="M 69.5510947 9.854013 L 87.945256 9.854013 L 87.945256 86.05839 C 87.945256 88.39416 87.41970549999999 90.43795 86.1058378 90.43795 L 84.6605845 90.43795" />
<path class="stroke" d="M 69.5510947 31.862577 L 87.945256 31.862577" />
<path class="stroke" d="M 69.5510947 55.110336 L 87.945256 55.110336" />
</svg>
