<?xml version="1.0" standalone="no"?>
<!DOCTYPE svg PUBLIC "-//W3C//DTD SVG 1.1//EN" "http://www.w3.org/Graphics/SVG/1.1/DTD/svg11.dtd">
<svg xmlns="http://www.w3.org/2000/svg" version="1.1" width="100%" height="100%">
<style type="text/css"><![CDATA[
  .stroke { fill:none; stroke:black; stroke-width:2 }
]]></style>
<path class="stroke" d="M 13.154171785714285 13.497029759999998 C 16.654879285714284 15.4930704 20.15558785714286 18.34455552 23.01980357142857 21.766336319999997" />
<path class="stroke" d="M 10.926448928571428 36.59406048 C 14.108912142857141 38.304950399999996 17.927864999999997 40.87128672 20.473834285714286 44.2930704" />
<path class="stroke" d="M 10.608203571428572 82.21781759999999 C 11.321795357142857 83.92576896 13.310014285714285 86.30102784 15.629600357142856 86.30102784 C 17.949189642857142 86.30102784 21.110325 73.66336319999999 23.33804892857143 66.8198016" />
<path class="stroke" d="M 47.6749759496 12.289342739999999 L 47.6749759496 40.837077120000004" />
<path class="stroke" d="M 47.6749759496 12.289342739999999 L 78.14785179999998 12.289342739999999 L 78.14785179999998 40.837077120000004" />
<path class="stroke" d="M 47.852145166 25.785549484 L 77.970684404 25.785549484" />
<path class="stroke" d="M 47.6749759496 39.590946832 L 78.14785179999998 39.590946832" />
<path class="stroke" d="M 33.07591108 47.3775 L 92.924083 47.3775" />
<path class="stroke" d="M 45.239999999999995 47.5470974914008 C 44.75999826 52.392106235111996 42.11999942 61.769541689376 31.560000064 67.083421892568" />
<path class="stroke" d="M 43.87883142 54.834193727952 C 66.34890182000001 54.834193727952 73.26276917999999 54.834193727952 92.7080252 54.834193727952 C 92.0598481 74.67283187412 86.0102186 81.707810387856 79.960578 86.2101955572 C 77.15182216 87.898588550016 74.5591256 88.32068800296 71.75036236 88.46138717808" />
<path class="stroke" d="M 59.4350352 54.834193727952 C 57.4905076 66.65295576127201 46.68759022 75.51702837052801 34.8043794 80.4415149204" />
<path class="stroke" d="M 74.34306040000001 54.834193727952 C 72.3985402 69.18554717808 62.8919674 80.01941257608 52.9532827 84.3810990522" />
</svg>
