<?xml version="1.0" standalone="no"?>
<!DOCTYPE svg PUBLIC "-//W3C//DTD SVG 1.1//EN" "http://www.w3.org/Graphics/SVG/1.1/DTD/svg11.dtd">
<svg xmlns="http://www.w3.org/2000/svg" version="1.1" width="100%" height="100%">
<style type="text/css"><![CDATA[
  .stroke { fill:none; stroke:black; stroke-width:2 }
]]></style>
<path class="stroke" d="M 30.757086 4.33754 C 26.656185 10.9096 19.715984 17.48165 8.044165 22.94955 C 18.033686 28.8381 26.130384 38.66985 29.810684 46.7666" />
<path class="stroke" d="M 59.7792 4.33754 C 55.6783 10.9096 48.7381 17.48165 37.06628 22.94955 C 47.0558 28.8381 55.1525 38.66985 58.8328 46.7666" />
<path class="stroke" d="M 88.4858 4.33754 C 84.3849 10.9096 77.4447 17.48165 65.77288 22.94955 C 75.7624 28.8381 83.8591 38.66985 87.5394 46.7666" />
<path class="stroke" d="M 30.52356 64.633507 C 29.267014 67.46073150000001 25.497383 69.8167535 20.78534 72.3298415" />
<path class="stroke" d="M 82.19349 64.819009 C 79.051094 67.9197065 75.25547 69.963503 70.87591 71.7153265" />
<path class="stroke" d="M 48.7382 54.9270065 C 48.9485 59.827118 48.8433 63.787368 48.7382 69.9078865 C 49.0477 83.39008 24.4658 94.7998 9.562042 95.218975" />
<path class="stroke" d="M 48.811882 71.584158 C 52.102 81.583985 74.2424 92.57770500000001 84.014595 94.6350325 C 86.35036 95.218975 88.10219 95.36496 90.72992 95.51095000000001" />
</svg>
