<?xml version="1.0" standalone="no"?>
<!DOCTYPE svg PUBLIC "-//W3C//DTD SVG 1.1//EN" "http://www.w3.org/Graphics/SVG/1.1/DTD/svg11.dtd">
<svg xmlns="http://www.w3.org/2000/svg" version="1.1" width="100%" height="100%">
<style type="text/css"><![CDATA[
  .stroke { fill:none; stroke:black; stroke-width:2 }
]]></style>
<path class="stroke" d="M 11.1591235 7.245597794117647 C 13.84525486 10.680549264705883 15.994159580000002 15.403605882352942 17.605838580000004 19.911979411764708" />
<path class="stroke" d="M 39.6321138 7.245597794117647 C 38.53617576 11.496349264705882 36.2744496 16.477026470588235 33.9912396 20.126662500000002" />
<path class="stroke" d="M 12.9051087 24.86496315 L 39.36350324000001 24.86496315" />
<path class="stroke" d="M 8.60729834 45.46350105 L 41.78101944 45.46350105" />
<path class="stroke" d="M 18.27737188 26.60218805 L 18.27737188 49.93065395 C 18.27737188 79.95985175 15.45693432 84.42700125 10.621897319999999 88.6459839" />
<path class="stroke" d="M 34.259851999999995 26.60218805 L 34.259851999999995 91.3759085" />
<path class="stroke" d="M 48.03469764 12.4605 L 94.2933792 12.4605" />
<path class="stroke" d="M 61.813888000000006 12.4606 L 61.813888000000006 33.9117 C 62.087304 56.6246 59.079936000000004 73.3439 55.58044 91.6404" />
<path class="stroke" d="M 48.3627776 94.795 L 79.365968 81.5458" />
<path class="stroke" d="M 61.977948 35.489 L 79.529976 35.489 L 79.529976 86.9085 C 79.365916 90.0631 80.51418 93.5331 82.48264 93.5331 L 91.66875200000001 93.5331 C 93.09043199999999 93.6383 94.512112 90.9043 94.457408 87.2239 L 94.457408 81.2303" />
<path class="stroke" d="M 66.2428372 49.68454 C 68.9221892 54.31124 70.45322519999999 59.25344 72.1482692 65.14194" />
</svg>
