<?xml version="1.0" standalone="no"?>
<!DOCTYPE svg PUBLIC "-//W3C//DTD SVG 1.1//EN" "http://www.w3.org/Graphics/SVG/1.1/DTD/svg11.dtd">
<svg xmlns="http://www.w3.org/2000/svg" version="1.1" width="100%" height="100%">
<style type="text/css"><![CDATA[
  .stroke { fill:none; stroke:black; stroke-width:2 }
]]></style>
<path class="stroke" d="M 23.770715441176474 11.605839 C 20.979818382352942 27.372261 15.183339705882354 41.970802 10.245597794117646 50.14598" />
<path class="stroke" d="M 19.477026470588235 30.583939 L 19.477026470588235 90.43795" />
<path class="stroke" d="M 60.419707 7.53503608 C 56.040144999999995 13.37737165 45.589974999999995 19.920054 33.266422 24.5919704 C 51.660582250000004 23.853284 67.64598475 23.517518499999998 85.147525 23.566635" />
<path class="stroke" d="M 76.62408625 19.35401296 C 81.66058 20.629925999999998 86.040142 22.57737165 88.88686 25.1963483" />
<path class="stroke" d="M 52.7554735 30.199269660000002 L 52.7554735 36.44452452 C 52.7554735 41.9510939 47.0620435 47.39050972 32.828467 48.800728500000005" />
<path class="stroke" d="M 65.6751805 30.13211679 L 65.6751805 45.980291400000006 C 65.6751805 47.6591235 68.52189849999999 48.66642230000001 71.58758725 48.66642230000001 L 88.66787500000001 48.66642230000001 C 91.07664249999999 48.73357540000001 92.8284625 48.1963483 92.8284625 47.4576619 L 92.8284625 46.18175162" />
<path class="stroke" d="M 57.35401225 57.144524520000004 C 52.31751625 63.18832100000001 43.77737125 69.50072850000001 35.018246500000004 73.52992599999999" />
<path class="stroke" d="M 54.72627475 60.63649584 L 74.21533 60.63649584 C 66.33211750000001 71.64963322000001 49.47080125 84.4087558 32.60948875 91.3926966" />
<path class="stroke" d="M 46.4051095 67.21751804 C 55.0 76.96774244000001 72.68247775 86.1547433 91.29562 91.3926966" />
</svg>
