<?xml version="1.0" standalone="no"?>
<!DOCTYPE svg PUBLIC "-//W3C//DTD SVG 1.1//EN" "http://www.w3.org/Graphics/SVG/1.1/DTD/svg11.dtd">
<svg xmlns="http://www.w3.org/2000/svg" version="1.1" width="100%" height="100%">
<style type="text/css"><![CDATA[
  .stroke { fill:none; stroke:black; stroke-width:2 }
]]></style>
<path class="stroke" d="M 12.189779 19.6167875 L 87.81021 19.6167875" />
<path class="stroke" d="M 34.67153 10.49269875 L 34.67153 29.470801249999997" />
<path class="stroke" d="M 65.32846 10.49269875 L 65.32846 29.470801249999997" />
<path class="stroke" d="M 25.912407 29.43430585 C 24.452553 33.90145945 15.109488 38.6313865 9.562042 39.682480749999996" />
<path class="stroke" d="M 21.532845 36.266422750000004 L 21.532845 65.6970775" />
<path class="stroke" d="M 56.277367 29.56569325 C 54.525543 32.4562039 51.313866 34.95255415 46.642334 36.39780925" />
<path class="stroke" d="M 21.532845 36.143547999999996 L 75.54744 36.143547999999996" />
<path class="stroke" d="M 48.10219 36.39780925 L 48.10219 65.6970775" />
<path class="stroke" d="M 21.532845 46.5063325 L 71.75182 46.5063325" />
<path class="stroke" d="M 21.532845 56.105837799999996 L 72.04379 56.105837799999996" />
<path class="stroke" d="M 21.532845 65.6970775 L 81.386856 65.6970775" />
<path class="stroke" d="M 23.861385 77.75247505 L 73.46535 77.75247505 C 62.178215 87.9665844625 43.168316 92.956684 9.90099 97.32301974999999" />
<path class="stroke" d="M 22.673267 80.0915844625 C 27.096771 84.9274187875 42.580643 88.9072582 47.741932 90.685484125 C 57.09677 93.395161375 73.870964 95.42741799999999 89.80198 97.32301974999999" />
</svg>
