<?xml version="1.0" standalone="no"?>
<!DOCTYPE svg PUBLIC "-//W3C//DTD SVG 1.1//EN" "http://www.w3.org/Graphics/SVG/1.1/DTD/svg11.dtd">
<svg xmlns="http://www.w3.org/2000/svg" version="1.1" width="100%" height="100%">
<style type="text/css"><![CDATA[
  .stroke { fill:none; stroke:black; stroke-width:2 }
]]></style>
<path class="stroke" d="M 21.7350129 7.902909078947369 C 26.1514599 10.997479254385965 29.022089899999997 13.635549429824563 31.671939899999998 17.034549912280706" />
<path class="stroke" d="M 39.179869 6.53315 C 43.37545899999999 9.475592105263159 45.804389 11.96139912280702 48.895869 15.81699561403509" />
<path class="stroke" d="M 74.51101799999999 6.076563157894737 C 71.640388 10.135080701754386 67.886428 13.737050000000002 63.249208 17.33897105263158" />
<path class="stroke" d="M 9.562042 22.135416666666668 L 90.43795 22.135416666666668" />
<path class="stroke" d="M 30.141989999999993 23.078557291666673 C 26.785487999999994 37.09073437499999 19.113629999999997 44.67373958333332 10.362762 48.79493124999999" />
<path class="stroke" d="M 68.981106 23.07840052083334 C 73.536204 36.92565468749999 79.889538 43.84928177083334 88.76022 48.794774479166655" />
<path class="stroke" d="M 44.131384999999995 37.1021895 C 47.635034000000005 37.7153272 51.48905 38.9416054 54.9927002 41.394159" />
<path class="stroke" d="M 25.9124078 47.1716643 L 73.737224 47.1716643" />
<path class="stroke" d="M 38.808403999999996 56.5058619 L 60.375643999999994 56.5058619" />
<path class="stroke" d="M 37.6763 65.8240778 L 61.565419999999996 65.8240778" />
<path class="stroke" d="M 37.48766 75.62247550000001 L 37.48766 94.8156145" />
<path class="stroke" d="M 37.4876 75.402413 L 61.75406 75.402413 L 61.75406 94.60342" />
<path class="stroke" d="M 37.488236 92.402165 L 61.565996000000005 92.40223499999999" />
</svg>
