<?xml version="1.0" standalone="no"?>
<!DOCTYPE svg PUBLIC "-//W3C//DTD SVG 1.1//EN" "http://www.w3.org/Graphics/SVG/1.1/DTD/svg11.dtd">
<svg xmlns="http://www.w3.org/2000/svg" version="1.1" width="100%" height="100%">
<style type="text/css"><![CDATA[
  .stroke { fill:none; stroke:black; stroke-width:2 }
]]></style>
<path class="stroke" d="M 5.980198000000001 13.920792500000001 L 27.128714000000002 13.920792500000001 L 27.128714000000002 37.148512999999994" />
<path class="stroke" d="M 6.0990096000000005 37.22928 L 27.128714000000002 37.22928" />
<path class="stroke" d="M 6.0990096000000005 37.148512999999994 L 6.0990096000000005 74.009902 C 6.0990096000000005 77.79702599999999 7.40594 81.5841585 9.4257432 81.5841585 L 32.118812000000005 81.5841585 C 33.900988000000005 81.5841585 35.445544000000005 78.806928 35.445544000000005 75.2722795 L 35.445544000000005 70.727729" />
<path class="stroke" d="M 59.89208068 9.90099 C 58.020792310000004 22.673267 53.529703749999996 37.82178 46.60594012 46.435642" />
<path class="stroke" d="M 53.34257422 35.742573 L 84.9673243 35.742573" />
<path class="stroke" d="M 70.371289 36.039604 C 68.1257422 61.287132 58.582179010000004 82.376236 43.6118815 89.80198" />
<path class="stroke" d="M 53.34257422 43.465347 C 57.45940498 61.58416 77.48217460000001 90.09901 88.5227734 90.09901" />
</svg>
