<?xml version="1.0" standalone="no"?>
<!DOCTYPE svg PUBLIC "-//W3C//DTD SVG 1.1//EN" "http://www.w3.org/Graphics/SVG/1.1/DTD/svg11.dtd">
<svg xmlns="http://www.w3.org/2000/svg" version="1.1" width="100%" height="100%">
<style type="text/css"><![CDATA[
  .stroke { fill:none; stroke:black; stroke-width:2 }
]]></style>
<path class="stroke" d="M 25.07299 10.5182462 C 19.37956 26.897808300000005 12.9562035 39.7445246 4.9270065 47.4525513" />
<path class="stroke" d="M 25.07299 10.5182462 C 30.912407 26.255471 36.897808 39.7445246 45.218975 47.1313854" />
<path class="stroke" d="M 15.29489008 41.25 L 34.705107999999996 41.25" />
<path class="stroke" d="M 10.33119 54.5804832 L 40.14194 54.5804832 L 40.14194 81.28071768 C 40.08934 84.9568592 38.93269 87.18187920000001 37.14509 87.08518720000001 L 33.51734 87.08518720000001" />
<path class="stroke" d="M 24.21137 54.870688 L 24.21137 94.34071200000001" />
<path class="stroke" d="M 59.1605835 9.854013 L 89.67152999999999 9.854013" />
<path class="stroke" d="M 74.635035 9.854013 C 74.051095 14.817516 72.883211 18.905107 71.2312 22.0621" />
<path class="stroke" d="M 60.45 22.3791 L 60.45 76.715324" />
<path class="stroke" d="M 60.45 22.3791 L 88.51285 22.3791 L 88.51285 76.423355" />
<path class="stroke" d="M 60.60855 40.77066 L 88.51285 40.77066" />
<path class="stroke" d="M 60.60855 59.79627 L 88.51285 59.79627" />
<path class="stroke" d="M 60.474452 76.715324 L 88.64963 76.715324" />
<path class="stroke" d="M 66.0218965 83.13868 C 63.3941595 86.9343 60.3284665 89.56204 56.678831 89.85401" />
<path class="stroke" d="M 83.540145 83.43065 C 86.60584 84.59853 89.08759 86.35036 92.00729749999999 90.72992" />
</svg>
