<?xml version="1.0" standalone="no"?>
<!DOCTYPE svg PUBLIC "-//W3C//DTD SVG 1.1//EN" "http://www.w3.org/Graphics/SVG/1.1/DTD/svg11.dtd">
<svg xmlns="http://www.w3.org/2000/svg" version="1.1" width="100%" height="100%">
<style type="text/css"><![CDATA[
  .stroke { fill:none; stroke:black; stroke-width:2 }
]]></style>
<path class="stroke" d="M 23.95985258333333 9.562042 C 27.7554745 11.021896 31.551090999999996 14.817516 34.08150416666666 19.48905" />
<path class="stroke" d="M 10.675180749999999 22.8707 L 46.100968333333334 22.8707" />
<path class="stroke" d="M 17.6338175 37.007298 L 39.14233483333333 37.007298" />
<path class="stroke" d="M 17.6338175 51.313866 L 39.14233483333333 51.313866" />
<path class="stroke" d="M 16.368612 64.45255 L 16.368612 85.76642" />
<path class="stroke" d="M 16.368612 64.16058 L 41.040144166666664 64.16058 L 41.040144166666664 85.76642" />
<path class="stroke" d="M 16.368612 85.76642 L 40.72384333333333 85.76642" />
<path class="stroke" d="M 82.87226 11.021896 C 74.82846749999999 15.109488 64.5656935 17.445253 57.07663735 18.321167" />
<path class="stroke" d="M 50.142333699999995 39.635033 L 90.91605249999999 39.635033" />
<path class="stroke" d="M 70.9452475 15.69343 L 70.9452475 60.9489" />
<path class="stroke" d="M 55.9671485 60.9489 L 55.9671485 88.68613" />
<path class="stroke" d="M 55.9671485 60.9489 L 86.7554705 60.9489 L 86.7554705 88.68613" />
<path class="stroke" d="M 55.9671485 87.22627 L 86.7554705 87.22627" />
</svg>
