<?xml version="1.0" standalone="no"?>
<!DOCTYPE svg PUBLIC "-//W3C//DTD SVG 1.1//EN" "http://www.w3.org/Graphics/SVG/1.1/DTD/svg11.dtd">
<svg xmlns="http://www.w3.org/2000/svg" version="1.1" width="100%" height="100%">
<style type="text/css"><![CDATA[
  .stroke { fill:none; stroke:black; stroke-width:2 }
]]></style>
<path class="stroke" d="M 13.154171785714285 14.059406 C 16.654879285714284 16.138615 20.15558785714286 19.108912 23.01980357142857 22.673267" />
<path class="stroke" d="M 10.926448928571428 38.118813 C 14.108912142857141 39.90099 17.927864999999997 42.574257 20.473834285714286 46.138615" />
<path class="stroke" d="M 10.608203571428572 85.64356 C 11.321795357142857 87.422676 13.310014285714285 89.896904 15.629600357142856 89.896904 C 17.949189642857142 89.896904 21.110325 76.73267 23.33804892857143 69.60396" />
<path class="stroke" d="M 62.5 8.4817517 L 62.5 13.1240876" />
<path class="stroke" d="M 41.58759025 13.386860899999999 L 83.8503625 13.386860899999999" />
<path class="stroke" d="M 45.09123925 17.153285 C 49.47080125 20.3065688 52.7554735 24.423356 54.50729725 28.452554" />
<path class="stroke" d="M 80.56568875 16.452554 C 75.31021750000001 19.69343 70.93065625 24.686132 69.835765 29.854013" />
<path class="stroke" d="M 33.485400999999996 30.729926 L 91.07664249999999 30.729926" />
<path class="stroke" d="M 46.4051095 42.5912365 L 46.4051095 70.854015" />
<path class="stroke" d="M 46.4051095 42.5912365 L 78.81386499999999 42.5912365 L 78.81386499999999 70.854015" />
<path class="stroke" d="M 46.4051095 56.72262300000001 L 78.81386499999999 56.72262300000001" />
<path class="stroke" d="M 46.4051095 70.854015 L 78.81386499999999 70.854015" />
<path class="stroke" d="M 62.609485 42.5912365 L 62.609485 78.562045 C 62.609485 84.02189500000001 64.58028999999999 89.481745 67.86496149999999 89.481745 L 86.6970775 89.481745 C 88.88686 89.481745 90.20072499999999 86.912409 90.20072499999999 83.37955000000001 L 90.20072499999999 79.20437900000002" />
</svg>
