<?xml version="1.0" standalone="no"?>
<!DOCTYPE svg PUBLIC "-//W3C//DTD SVG 1.1//EN" "http://www.w3.org/Graphics/SVG/1.1/DTD/svg11.dtd">
<svg xmlns="http://www.w3.org/2000/svg" version="1.1" width="100%" height="100%">
<style type="text/css"><![CDATA[
  .stroke { fill:none; stroke:black; stroke-width:2 }
]]></style>
<path class="stroke" d="M 26.807454054054055 15.109488 C 22.16748702702703 22.70073 17.306567459459462 27.956203 13.108500972972973 30.875912" />
<path class="stroke" d="M 28.133161729729732 35.547443 C 23.493193945945947 43.138683 16.86466691891892 49.85401 10.89899372972973 53.06569" />
<path class="stroke" d="M 21.504634702702706 45.47445 L 21.504634702702706 89.85401" />
<path class="stroke" d="M 42.0441 6.60377 C 39.905704 13.9413 37.125796 19.0776 33.4905636 23.8994" />
<path class="stroke" d="M 40.119472200000004 13.83653 L 62.999976880000006 13.83653" />
<path class="stroke" d="M 33.0628912 39.30819 L 65.779908 39.30819" />
<path class="stroke" d="M 49.7421624 14.779896 L 49.7421624 86.7924" />
<path class="stroke" d="M 49.955968 61.949734 L 62.78614 61.949734" />
<path class="stroke" d="M 39.0503184 60.37737 L 39.0503184 89.93707" />
<path class="stroke" d="M 33.0628912 92.13837 L 62.786208 83.01897" />
<path class="stroke" d="M 72.69053635 9.305997 L 90.87035589999999 9.305997 L 90.87035589999999 63.564655 C 90.87035589999999 67.98106 89.5832638 70.189255 87.97441984000001 70.189255 L 85.23944386 70.189255" />
<path class="stroke" d="M 72.69053635 9.305997 L 72.69053635 94.479454" />
</svg>
