<?xml version="1.0" standalone="no"?>
<!DOCTYPE svg PUBLIC "-//W3C//DTD SVG 1.1//EN" "http://www.w3.org/Graphics/SVG/1.1/DTD/svg11.dtd">
<svg xmlns="http://www.w3.org/2000/svg" version="1.1" width="100%" height="100%">
<style type="text/css"><![CDATA[
  .stroke { fill:none; stroke:black; stroke-width:2 }
]]></style>
<path class="stroke" d="M 50.005783 9.789049819999999 L 50.005783 16.87555627" />
<path class="stroke" d="M 20.948904 17.098805829999996 L 79.051094 17.098805829999996" />
<path class="stroke" d="M 29.229792 17.318641 L 37.299267 32.79926942" />
<path class="stroke" d="M 70.15286 17.32212639 L 62.408752 32.79926942" />
<path class="stroke" d="M 10.145985 32.79926942 L 89.85401 32.79926942" />
<path class="stroke" d="M 31.45985 41.713135529999995 L 31.45985 67.4182432" />
<path class="stroke" d="M 31.167881 41.713135529999995 L 68.832115 41.713135529999995 L 68.832115 67.00364579999999" />
<path class="stroke" d="M 31.45985 53.817752999999996 L 68.832115 53.817752999999996" />
<path class="stroke" d="M 32.043793 64.9306517 L 68.832115 64.9306517" />
<path class="stroke" d="M 17.4453 77.59935999999999 C 16.6042 82.58356 14.5012 85.86436 10.8207 89.52364" />
<path class="stroke" d="M 33.21814 74.57097999999999 L 33.21814 90.65932 C 33.21814 92.36277999999999 35.11094 93.4984 37.95004 93.4984 L 72.01944 93.4984 C 74.64824 93.4984 76.96164 92.17348 77.06674 90.09147999999999 L 77.06674 86.8738" />
<path class="stroke" d="M 45.2056 74.57099199999999 C 50.6735 77.473192 54.2487 80.56469200000001 57.5084 84.60251199999999" />
<path class="stroke" d="M 77.0667 74.76028 C 83.6913 78.29332 87.7923 81.8266 91.8932 86.68456" />
</svg>
