<?xml version="1.0" standalone="no"?>
<!DOCTYPE svg PUBLIC "-//W3C//DTD SVG 1.1//EN" "http://www.w3.org/Graphics/SVG/1.1/DTD/svg11.dtd">
<svg xmlns="http://www.w3.org/2000/svg" version="1.1" width="100%" height="100%">
<style type="text/css"><![CDATA[
  .stroke { fill:none; stroke:black; stroke-width:2 }
]]></style>
<path class="stroke" d="M 9.854013 11.343063999999998 L 9.854013 22.7883176" />
<path class="stroke" d="M 9.854013 10.8759096 L 90.14598 10.8759096 L 90.14598 23.0218936" />
<path class="stroke" d="M 16.03778 22.327 L 39.93708 22.327" />
<path class="stroke" d="M 11.32076 38.36482 L 45.91198 38.36482" />
<path class="stroke" d="M 21.38361 38.9937 L 21.38361 77.673 C 21.69811 87.8407 14.77988 93.2914 6.603777 94.0252" />
<path class="stroke" d="M 35.22012 38.36474 L 35.22012 86.16354 C 35.32492 89.62264 38.25992 91.82394 41.19492 91.82394 L 87.42142 91.82394 C 90.77572 91.92874 93.18662 90.14674 92.76732 86.47794 L 92.76732 76.10064" />
<path class="stroke" d="M 52.80145976 35.20875764 L 89.0642299 35.20875764" />
<path class="stroke" d="M 78.1854024 23.89197052 L 78.1854024 74.3211656 C 78.1854024 76.1080288 77.648173 77.2992664 76.43941444000001 77.2992664 L 72.8131383 77.2992664" />
<path class="stroke" d="M 60.188321 42.753282840000004 C 61.8 44.54014536 63.277371880000004 47.12116696 64.48612998 51.489048360000005" />
</svg>
