<?xml version="1.0" standalone="no"?>
<!DOCTYPE svg PUBLIC "-//W3C//DTD SVG 1.1//EN" "http://www.w3.org/Graphics/SVG/1.1/DTD/svg11.dtd">
<svg xmlns="http://www.w3.org/2000/svg" version="1.1" width="100%" height="100%">
<style type="text/css"><![CDATA[
  .stroke { fill:none; stroke:black; stroke-width:2 }
]]></style>
<path class="stroke" d="M 11.003300000000001 33.069305 L 28.825083333333335 30.9901" />
<path class="stroke" d="M 22.389438333333334 9.60396 L 22.389438333333334 84.15842 C 22.389438333333334 87.42574 20.161715833333336 90.09901 17.19141916666667 90.09901" />
<path class="stroke" d="M 11.498349166666667 63.36634 L 27.09241 46.435642" />
<path class="stroke" d="M 46.1386849 7.43430585 C 45.116787099999996 11.901459449999999 38.5766416 16.631386499999998 34.6934294 17.682480750000003" />
<path class="stroke" d="M 43.0729915 14.26642275 L 43.0729915 43.6970775" />
<path class="stroke" d="M 67.3941569 7.56569325 C 66.16788009999999 10.456203899999998 63.91970619999999 12.95255415 60.6496338 14.397809250000002" />
<path class="stroke" d="M 43.0729915 14.143548 L 80.883208 14.143548" />
<path class="stroke" d="M 61.671533 14.397809250000002 L 61.671533 43.6970775" />
<path class="stroke" d="M 43.0729915 24.5063325 L 78.22627399999999 24.5063325" />
<path class="stroke" d="M 43.0729915 34.1058378 L 78.430653 34.1058378" />
<path class="stroke" d="M 43.0729915 43.6970775 L 84.97079919999999 43.6970775" />
<path class="stroke" d="M 48.887094899999994 55.91935465 L 48.887094899999994 71.8870957 C 48.887094899999994 83.2096762 46.177418700000004 87.12903130000001 37.8225799 91.7741905" />
<path class="stroke" d="M 36.80502 55.9622635 L 76.64783 55.9622635 L 76.64783 71.10376 L 92.93711 71.10376 L 92.93711 83.27356 C 93.08382999999999 89.26414 88.65404799999999 94.75 81.8432405 93.0351337 L 77.07567 91.721617" />
</svg>
