<?xml version="1.0" standalone="no"?>
<!DOCTYPE svg PUBLIC "-//W3C//DTD SVG 1.1//EN" "http://www.w3.org/Graphics/SVG/1.1/DTD/svg11.dtd">
<svg xmlns="http://www.w3.org/2000/svg" version="1.1" width="100%" height="100%">
<style type="text/css"><![CDATA[
  .stroke { fill:none; stroke:black; stroke-width:2 }
]]></style>
<path class="stroke" d="M 28.248173 10.49505 L 28.248173 58.905106" />
<path class="stroke" d="M 28.350513 10.412371 L 76.59794 10.412371" />
<path class="stroke" d="M 52.51272 10.5678 L 52.51272 58.905106" />
<path class="stroke" d="M 28.248173 26.49635 L 72.04379 26.49635" />
<path class="stroke" d="M 28.540146 43.138683 L 72.04379 43.138683" />
<path class="stroke" d="M 28.248173 58.905106 L 87.81021 58.905106 C 87.81021 81.386856 84.59853 90.43795 78.17518 90.43795" />
<path class="stroke" d="M 15.985401 70.29197 C 15.109488 74.087585 13.357662 78.46715 10.437956 80.80292" />
<path class="stroke" d="M 29.708027 69.124084 C 31.751823 72.04379 33.211678 75.54744 34.08759 81.09489" />
<path class="stroke" d="M 48.10219 68.540146 C 50.437954 72.04379 52.189777 75.54744 53.357662 79.63503" />
<path class="stroke" d="M 67.37226 67.37226 C 70.0 71.16788 71.45985 73.21168 72.62773 77.88321" />
</svg>
