<?xml version="1.0" standalone="no"?>
<!DOCTYPE svg PUBLIC "-//W3C//DTD SVG 1.1//EN" "http://www.w3.org/Graphics/SVG/1.1/DTD/svg11.dtd">
<svg xmlns="http://www.w3.org/2000/svg" version="1.1" width="100%" height="100%">
<style type="text/css"><![CDATA[
  .stroke { fill:none; stroke:black; stroke-width:2 }
]]></style>
<path class="stroke" d="M 50.0 11.472771375 L 50.0 28.514851874999998" />
<path class="stroke" d="M 20.0 15.148515374999999 L 20.0 28.514851874999998 L 80.29703 28.514851874999998" />
<path class="stroke" d="M 80.29703 15.482674125 L 80.29703 28.514851874999998" />
<path class="stroke" d="M 50.14598 33.99268248525 L 50.14598 40.14947016975" />
<path class="stroke" d="M 12.4817505 40.289396313 L 12.4817505 47.00589288375" />
<path class="stroke" d="M 12.4817505 40.289396313 L 87.81021 40.289396313 L 87.81021 47.00589288375" />
<path class="stroke" d="M 19.90535 54.0338033 L 80.09465 54.0338033" />
<path class="stroke" d="M 11.3880155 67.42748860500001 L 89.179799 67.42748860500001" />
<path class="stroke" d="M 50.283923 67.57305955000001 L 50.283923 89.26503635 C 50.283923 90.8179377 48.012593 91.7884722 46.025213 91.73996855 L 42.334313 91.73996855" />
<path class="stroke" d="M 34.384820000000005 73.25080175 C 29.179759999999998 78.7344832 23.12303 83.19908035 11.955839000000001 86.64454705" />
<path class="stroke" d="M 66.75089 73.39645114999999 C 74.98436000000001 76.84191784999999 81.51422 81.16091175 86.90855 86.64454705" />
</svg>
