<?xml version="1.0" standalone="no"?>
<!DOCTYPE svg PUBLIC "-//W3C//DTD SVG 1.1//EN" "http://www.w3.org/Graphics/SVG/1.1/DTD/svg11.dtd">
<svg xmlns="http://www.w3.org/2000/svg" version="1.1" width="100%" height="100%">
<style type="text/css"><![CDATA[
  .stroke { fill:none; stroke:black; stroke-width:2 }
]]></style>
<path class="stroke" d="M 11.294462870370372 11.8297 L 46.690501203703704 11.8297" />
<path class="stroke" d="M 10.68940277777778 30.09901 L 10.68940277777778 89.80198" />
<path class="stroke" d="M 10.68940277777778 30.1262 L 47.90062037037037 30.1262 L 47.90062037037037 89.80198" />
<path class="stroke" d="M 23.093142314814816 11.683168 L 23.093142314814816 40.79208 C 23.093142314814816 47.326733 22.790610740740743 54.455444 16.134947685185185 58.61386" />
<path class="stroke" d="M 34.58929222222223 11.980198 L 34.58929222222223 42.574257 C 34.58929222222223 48.811882 34.58929222222223 53.861385 39.42977500000001 53.861385 L 42.15255 53.861385" />
<path class="stroke" d="M 15.832416111111112 71.9802 L 43.060141666666674 71.9802" />
<path class="stroke" d="M 10.68940277777778 89.80198 L 47.90062037037037 89.80198" />
<path class="stroke" d="M 59.2792079 17.445545000000003 L 81.4851497 17.445545000000003 L 81.4851497 42.039601999999995" />
<path class="stroke" d="M 59.40396008 42.12512 L 81.4851497 42.12512" />
<path class="stroke" d="M 59.40396008 42.039601999999995 L 59.40396008 81.069308 C 59.40396008 85.07920399999999 60.776237 89.08910900000001 62.89703036 89.08910900000001 L 86.7247526 89.08910900000001 C 88.5960374 89.08910900000001 90.2178212 86.14851200000001 90.2178212 82.40594300000001 L 90.2178212 77.594066" />
</svg>
