<?xml version="1.0" standalone="no"?>
<!DOCTYPE svg PUBLIC "-//W3C//DTD SVG 1.1//EN" "http://www.w3.org/Graphics/SVG/1.1/DTD/svg11.dtd">
<svg xmlns="http://www.w3.org/2000/svg" version="1.1" width="100%" height="100%">
<style type="text/css"><![CDATA[
  .stroke { fill:none; stroke:black; stroke-width:2 }
]]></style>
<path class="stroke" d="M 8.946819428571429 27.956203 L 28.46715257142857 27.956203" />
<path class="stroke" d="M 20.45880857142857 9.270073 L 20.45880857142857 90.14598" />
<path class="stroke" d="M 20.45880857142857 36.131386 C 17.20542 44.598537 13.20125057142857 52.48175 7.4452551428571425 56.861313" />
<path class="stroke" d="M 20.45880857142857 36.131386 C 24.212719714285715 37.299267 26.71532657142857 42.26277 27.96663 46.934303" />
<path class="stroke" d="M 34.526816 9.382137931034482 L 95.47317 9.382137931034482" />
<path class="stroke" d="M 40.268159999999995 23.52331896551724 L 40.268159999999995 42.287629310344826" />
<path class="stroke" d="M 40.268159999999995 23.52331896551724 L 89.29021 23.52331896551724 L 89.29021 42.287629310344826" />
<path class="stroke" d="M 55.946388999999996 9.654051724137931 L 55.946388999999996 41.74370689655172" />
<path class="stroke" d="M 73.170358 9.654125 L 73.170358 41.4717974137931" />
<path class="stroke" d="M 40.268159999999995 42.287629310344826 L 89.29021 42.287629310344826" />
<path class="stroke" d="M 41.59305 55.7571 L 88.40695 55.7571" />
<path class="stroke" d="M 34.9684565 70.268135 L 95.47317699999999 70.268135" />
<path class="stroke" d="M 65.220829 70.42585 L 65.220829 93.92745 C 65.220829 95.60990000000001 63.454239 96.6614 61.908499 96.60884999999999 L 59.037799 96.60884999999999" />
<path class="stroke" d="M 52.85486 76.57724999999999 C 48.80647999999999 82.5184 44.09569 87.35544999999999 35.410097 91.08834999999999" />
<path class="stroke" d="M 78.02847 76.73505 C 84.43227999999999 80.46795 89.51105999999999 85.14725 93.70665 91.08834999999999" />
</svg>
