<?xml version="1.0" standalone="no"?>
<!DOCTYPE svg PUBLIC "-//W3C//DTD SVG 1.1//EN" "http://www.w3.org/Graphics/SVG/1.1/DTD/svg11.dtd">
<svg xmlns="http://www.w3.org/2000/svg" version="1.1" width="100%" height="100%">
<style type="text/css"><![CDATA[
  .stroke { fill:none; stroke:black; stroke-width:2 }
]]></style>
<path class="stroke" d="M 11.313868 17.445253 C 15.401459 18.029196 19.48905 20.364962 22.408756 24.160583" />
<path class="stroke" d="M 9.270073 47.226276 C 13.357662 47.226276 18.321167 46.934303 23.86861 43.138683 C 16.27737 53.357662 14.233576 58.321167 15.109488 60.9489 C 15.69343 63.284668 20.948904 65.62044 22.116787 68.832115 C 23.576641 72.33576 18.129246 80.26506 11.021896 83.722626" />
<path class="stroke" d="M 11.021896 84.014595 C 39.692924 81.65476 40.51095 91.313866 90.43795 90.14598" />
<path class="stroke" d="M 48.094597949999994 14.50904579882353 C 50.792408142 17.438372412941177 52.950655925999996 21.46619509647059 54.569342226 25.310936042352942" />
<path class="stroke" d="M 76.69138386 14.50904579882353 C 75.59068087200001 18.13408665294118 73.31912111999999 22.38160817411765 71.02598412 25.49401778" />
<path class="stroke" d="M 34.6934294 28.051000000000002 L 91.306565 28.051000000000002" />
<path class="stroke" d="M 34.955837 37.8539334 L 34.955837 62.8286832 L 91.04417000000001 62.8286832" />
<path class="stroke" d="M 91.04417000000001 37.8539334 L 91.04417000000001 62.8286832" />
<path class="stroke" d="M 63.0 29.930916479999997 L 63.0 63.689888999999994 C 63.0 73.62239339999999 50.192449999999994 76.493043 38.48894 78.5024868" />
</svg>
