<?xml version="1.0" standalone="no"?>
<!DOCTYPE svg PUBLIC "-//W3C//DTD SVG 1.1//EN" "http://www.w3.org/Graphics/SVG/1.1/DTD/svg11.dtd">
<svg xmlns="http://www.w3.org/2000/svg" version="1.1" width="100%" height="100%">
<style type="text/css"><![CDATA[
  .stroke { fill:none; stroke:black; stroke-width:2 }
]]></style>
<path class="stroke" d="M 12.189779 19.6167875 L 87.81021 19.6167875" />
<path class="stroke" d="M 34.67153 10.49269875 L 34.67153 29.470801249999997" />
<path class="stroke" d="M 65.32846 10.49269875 L 65.32846 29.470801249999997" />
<path class="stroke" d="M 50.31547 29.553234625 L 50.31547 35.1368545" />
<path class="stroke" d="M 6.46688 35.1368368 L 93.8486 35.1368368" />
<path class="stroke" d="M 50.149628 36.993827875 C 39.07731 40.9663977325 34.58853 42.952681555 23.21696 47.9846017225 C 36.08479 51.69233179 29.501247 49.706047525 37.58105 52.089589705" />
<path class="stroke" d="M 64.51372 41.76091135 C 36.683292 54.473131885 35.785538 52.88410288 16.932669 65.99358044499999 C 40.57357 63.477621025 50.149628 63.080362225 66.30923 61.8885924625" />
<path class="stroke" d="M 57.930176 57.1215112 C 69.601 62.683105195 70.19951 63.3452006875 73.192024 65.463906175" />
<path class="stroke" d="M 18.03284628 72.4925176525 L 18.03284628 94.013683975" />
<path class="stroke" d="M 18.03284628 72.407116135 L 73.17444816 72.407116135 L 73.17444816 94.013683975" />
<path class="stroke" d="M 45.6036458 72.4925176525 L 45.6036458 92.476459" />
<path class="stroke" d="M 18.03284628 82.436033215 L 72.7598536 82.436033215" />
<path class="stroke" d="M 18.03284628 92.476459 L 73.17444816 92.476459" />
</svg>
