<?xml version="1.0" standalone="no"?>
<!DOCTYPE svg PUBLIC "-//W3C//DTD SVG 1.1//EN" "http://www.w3.org/Graphics/SVG/1.1/DTD/svg11.dtd">
<svg xmlns="http://www.w3.org/2000/svg" version="1.1" width="100%" height="100%">
<style type="text/css"><![CDATA[
  .stroke { fill:none; stroke:black; stroke-width:2 }
]]></style>
<path class="stroke" d="M 50.0 6.24963492 L 50.0 10.58248176" />
<path class="stroke" d="M 22.116787 10.82773684 L 78.46715 10.82773684" />
<path class="stroke" d="M 26.788319 14.343066000000002 C 32.627735 17.28613088 37.007298 21.1284656 39.343063 24.889050400000002" />
<path class="stroke" d="M 74.087585 13.689050400000001 C 67.08029 16.713868 61.240875 21.3737232 59.78102 26.197078800000003" />
<path class="stroke" d="M 11.313868 27.014597600000002 L 88.10219 27.014597600000002" />
<path class="stroke" d="M 23.284672 38.178217599999996 L 23.284672 68.9853996" />
<path class="stroke" d="M 23.576641 38.280789999999996 L 76.715324 38.280789999999996 L 76.715324 68.78102200000001" />
<path class="stroke" d="M 23.284672 54.1797899 L 76.131386 54.1797899" />
<path class="stroke" d="M 23.284672 68.97474 L 76.715324 68.97474" />
<path class="stroke" d="M 49.6845 38.178217599999996 L 49.6845 93.306565" />
<path class="stroke" d="M 21.240875 80.839411 L 78.75912 80.839411" />
<path class="stroke" d="M 9.854013 93.306565 L 90.72992 93.306565" />
</svg>
