<?xml version="1.0" standalone="no"?>
<!DOCTYPE svg PUBLIC "-//W3C//DTD SVG 1.1//EN" "http://www.w3.org/Graphics/SVG/1.1/DTD/svg11.dtd">
<svg xmlns="http://www.w3.org/2000/svg" version="1.1" width="100%" height="100%">
<style type="text/css"><![CDATA[
  .stroke { fill:none; stroke:black; stroke-width:2 }
]]></style>
<path class="stroke" d="M 18.430655833333333 9.562042 C 21.350365 11.021896 24.27007 14.817516 26.216541666666668 19.48905" />
<path class="stroke" d="M 8.2116775 22.8707 L 35.46228333333334 22.8707" />
<path class="stroke" d="M 13.564475000000002 37.007298 L 30.109488333333335 37.007298" />
<path class="stroke" d="M 13.564475000000002 51.313866 L 30.109488333333335 51.313866" />
<path class="stroke" d="M 12.59124 64.45255 L 12.59124 85.76642" />
<path class="stroke" d="M 12.59124 64.16058 L 31.569341666666666 64.16058 L 31.569341666666666 85.76642" />
<path class="stroke" d="M 12.59124 85.76642 L 31.326033333333335 85.76642" />
<path class="stroke" d="M 47.31386739999999 13.922627279999999 L 92.68612599999999 13.922627279999999" />
<path class="stroke" d="M 60.80291799999999 8.842334664000001 L 60.80291799999999 19.409342136" />
<path class="stroke" d="M 79.197076 8.842334664000001 L 79.197076 19.409342136" />
<path class="stroke" d="M 47.37410800000001 26.1908679 L 47.37410800000001 43.2066759" />
<path class="stroke" d="M 47.37410800000001 26.1908679 L 89.393188 26.1908679 L 89.393188 43.2066759" />
<path class="stroke" d="M 47.37410800000001 43.2066759 L 89.393188 43.2066759" />
<path class="stroke" d="M 68.57289399999999 26.465204999999997 L 68.57289399999999 85.197165" />
<path class="stroke" d="M 44.72429199999999 57.8456265 L 91.66432 57.8456265" />
<path class="stroke" d="M 44.72429199999999 71.340153 L 91.66432 71.340153" />
<path class="stroke" d="M 42.074451999999994 85.197165 L 93.93556 85.197165" />
</svg>
