<?xml version="1.0" standalone="no"?>
<!DOCTYPE svg PUBLIC "-//W3C//DTD SVG 1.1//EN" "http://www.w3.org/Graphics/SVG/1.1/DTD/svg11.dtd">
<svg xmlns="http://www.w3.org/2000/svg" version="1.1" width="100%" height="100%">
<style type="text/css"><![CDATA[
  .stroke { fill:none; stroke:black; stroke-width:2 }
]]></style>
<path class="stroke" d="M 13.154171785714285 14.059406 C 16.654879285714284 16.138615 20.15558785714286 19.108912 23.01980357142857 22.673267" />
<path class="stroke" d="M 10.926448928571428 38.118813 C 14.108912142857141 39.90099 17.927864999999997 42.574257 20.473834285714286 46.138615" />
<path class="stroke" d="M 10.608203571428572 85.64356 C 11.321795357142857 87.422676 13.310014285714285 89.896904 15.629600357142856 89.896904 C 17.949189642857142 89.896904 21.110325 76.73267 23.33804892857143 69.60396" />
<path class="stroke" d="M 63.6065654 11.562042 C 55.294157600000005 26.452553 45.91605711 38.131386 34.19342949 45.138683" />
<path class="stroke" d="M 63.6065654 11.562042 C 72.13211422 25.86861 80.87079968 38.131386 93.0197035 44.846714" />
<path class="stroke" d="M 47.8407189 41.5079248 L 77.7775809 41.5079248" />
<path class="stroke" d="M 32.87223826 58.441624 L 95.04890202 58.441624" />
<path class="stroke" d="M 62.809128 41.785424 L 62.809128 92.309128 L 56.969128 92.309128" />
<path class="stroke" d="M 48.761883999999995 70.93384 C 45.84495 79.909576 42.006902 84.998968 35.405366 90.921192" />
<path class="stroke" d="M 74.783975 71.211392 C 81.61568 75.74568 86.1446 82.22292 89.752333 90.921192" />
</svg>
