<?xml version="1.0" standalone="no"?>
<!DOCTYPE svg PUBLIC "-//W3C//DTD SVG 1.1//EN" "http://www.w3.org/Graphics/SVG/1.1/DTD/svg11.dtd">
<svg xmlns="http://www.w3.org/2000/svg" version="1.1" width="100%" height="100%">
<style type="text/css"><![CDATA[
  .stroke { fill:none; stroke:black; stroke-width:2 }
]]></style>
<path class="stroke" d="M 16.2461 5.638802 L 93.2177 5.638802" />
<path class="stroke" d="M 16.2461 5.638802 L 16.2461 36.60098 C 15.51 45.96481500000001 11.9348 52.663 5.5205 57.72078" />
<path class="stroke" d="M 30.12614 17.736563 L 85.64664 17.736563" />
<path class="stroke" d="M 16.561558 30.654546 L 92.586754 30.654546" />
<path class="stroke" d="M 31.0726 31.884867300000003 L 31.0726 58.335966000000006 M 15.29969 61.001551 L 55.36279 54.645071" />
<path class="stroke" d="M 85.9622 35.165614250000004 C 82.4921 40.36015425 77.1293 44.1193649 69.8739 46.0331586" />
<path class="stroke" d="M 54.4164 30.859595000000002 C 57.0452 50.475750000000005 68.8223 57.37901000000001 91.6404 60.591440000000006" />
<path class="stroke" d="M 22.85547364 70.675912 L 22.85547364 90.109488" />
<path class="stroke" d="M 22.85547364 70.675912 L 81.413136 70.675912 L 81.413136 89.9226272" />
<path class="stroke" d="M 22.85547364 88.61459712 L 81.413136 88.61459712" />
</svg>
