<?xml version="1.0" standalone="no"?>
<!DOCTYPE svg PUBLIC "-//W3C//DTD SVG 1.1//EN" "http://www.w3.org/Graphics/SVG/1.1/DTD/svg11.dtd">
<svg xmlns="http://www.w3.org/2000/svg" version="1.1" width="100%" height="100%">
<style type="text/css"><![CDATA[
  .stroke { fill:none; stroke:black; stroke-width:2 }
]]></style>
<path class="stroke" d="M 13.154171785714285 14.059406 C 16.654879285714284 16.138615 20.15558785714286 19.108912 23.01980357142857 22.673267" />
<path class="stroke" d="M 10.926448928571428 38.118813 C 14.108912142857141 39.90099 17.927864999999997 42.574257 20.473834285714286 46.138615" />
<path class="stroke" d="M 10.608203571428572 85.64356 C 11.321795357142857 87.422676 13.310014285714285 89.896904 15.629600357142856 89.896904 C 17.949189642857142 89.896904 21.110325 76.73267 23.33804892857143 69.60396" />
<path class="stroke" d="M 86.42970172 8.480748 C 72.24950492 11.847084977777778 50.52178121 13.418042133333334 37.71386224 13.418042133333334" />
<path class="stroke" d="M 39.08613776 19.253026177777777 C 42.51683195 22.39494048888889 44.577787 25.827631111111113 46.1762377 29.352036355555555" />
<path class="stroke" d="M 56.46831719 18.130912844444442 C 59.670298280000004 20.59955991111111 61.7287131 23.741474222222223 63.1009917 27.781078444444447" />
<path class="stroke" d="M 85.2861393 16.7843776 C 83.45643758 22.170517066666665 80.7118773 26.21012128888889 76.8237623 29.127612177777777" />
<path class="stroke" d="M 31.50157 36.66406 L 90.76970200000001 36.66406 C 81.701412 42.61039 73.604708 45.481049999999996 59.192464 47.12139" />
<path class="stroke" d="M 59.192464 47.12139 L 59.192464 87.72077999999999 C 59.840188 90.7282 52.30224681999999 91.75 44.928680619999994 91.38528500000001 L 34.329178322000004 89.245641" />
<path class="stroke" d="M 31.987386100000002 65.5756973 L 89.79814064 57.168791" />
</svg>
