<?xml version="1.0" standalone="no"?>
<!DOCTYPE svg PUBLIC "-//W3C//DTD SVG 1.1//EN" "http://www.w3.org/Graphics/SVG/1.1/DTD/svg11.dtd">
<svg xmlns="http://www.w3.org/2000/svg" version="1.1" width="100%" height="100%">
<style type="text/css"><![CDATA[
  .stroke { fill:none; stroke:black; stroke-width:2 }
]]></style>
<path class="stroke" d="M 13.035458863636363 25.811516 C 12.535696249999999 33.979057 11.536172613636364 36.806282 10.536648977272728 41.83246" />
<path class="stroke" d="M 30.558054545454546 23.267326 C 29.140413749999997 28.613861 27.250226022727272 33.069305 24.651215909090908 36.336636" />
<path class="stroke" d="M 19.45319409090909 9.306931 L 19.45319409090909 57.72277 C 19.45319409090909 74.653465 12.421102272727271 85.6467 7.6395136363636365 90.39604" />
<path class="stroke" d="M 19.216922613636363 63.36634 C 23.233572727272726 68.71287 27.013951363636366 75.24753 28.667866818181814 82.9703" />
<path class="stroke" d="M 41.59489025 16.3748 L 93.4051065 16.3748" />
<path class="stroke" d="M 67.5 3.1279707368 L 67.5 31.610304128000006" />
<path class="stroke" d="M 41.40510845 32.816553796 L 93.215326 32.816553796" />
<path class="stroke" d="M 55.129031 28.132 L 55.129031 49.60464332200001" />
<path class="stroke" d="M 80.2903191 28.3030966972 L 80.2903191 49.348000000000006" />
<path class="stroke" d="M 47.370874932 51.4 L 91.52912069999999 51.4" />
<path class="stroke" d="M 62.355984707999994 54.5820574924 L 62.355984707999994 68.2184357128 C 62.355984707999994 80.241910246 58.211167668 92.1187564408 47.849123976 95.19793849000001" />
<path class="stroke" d="M 71.76153140400001 54.435430660600005 L 71.76153140400001 89.039575396 C 71.76153140400001 92.70526879 73.833942108 94.90468382200001 76.065763518 94.90468382200001 L 88.500213 94.90468382200001 C 90.25379573999999 95.051311156 91.52912069999999 93.878287462 91.52912069999999 92.265381766 L 91.52912069999999 89.4794594068" />
</svg>
