<?xml version="1.0" standalone="no"?>
<!DOCTYPE svg PUBLIC "-//W3C//DTD SVG 1.1//EN" "http://www.w3.org/Graphics/SVG/1.1/DTD/svg11.dtd">
<svg xmlns="http://www.w3.org/2000/svg" version="1.1" width="100%" height="100%">
<style type="text/css"><![CDATA[
  .stroke { fill:none; stroke:black; stroke-width:2 }
]]></style>
<path class="stroke" d="M 8.003300000000001 33.069305 L 25.825083333333335 30.9901" />
<path class="stroke" d="M 19.389438333333334 9.60396 L 19.389438333333334 84.15842 C 19.389438333333334 87.42574 17.161715833333336 90.09901 14.191419166666668 90.09901" />
<path class="stroke" d="M 8.498349166666667 63.36634 L 24.09241 46.435642" />
<path class="stroke" d="M 32.39050975 5.839414999999999 L 32.39050975 12.9926985" />
<path class="stroke" d="M 32.39050975 5.5474435 L 92.60948499999999 5.5474435 L 92.60948499999999 13.138683499999999" />
<path class="stroke" d="M 52.7554735 8.398539320000001 L 52.7554735 20.889049040000003 C 52.7554735 31.902187800000004 47.0620435 42.78101944 32.828467 45.601457" />
<path class="stroke" d="M 65.6751805 8.264233579999999 L 65.6751805 39.9605828 C 65.6751805 43.31824700000001 68.52189849999999 45.3328446 71.58758725 45.3328446 L 88.66787500000001 45.3328446 C 91.07664249999999 45.4671508 92.8284625 44.3926966 92.8284625 42.9153238 L 92.8284625 40.36350324000001" />
<path class="stroke" d="M 40.0547425 61.934305 L 85.1642275 61.934305" />
<path class="stroke" d="M 62.609485 54.489051 L 62.609485 95.36496" />
<path class="stroke" d="M 62.609485 64.4160575 C 55.3832125 75.656933 46.624086250000005 81.642334 35.237224749999996 84.70802499999999" />
<path class="stroke" d="M 62.609485 64.4160575 C 69.39780625 75.8029175 78.5948875 81.7883185 89.9817505 84.4160575" />
</svg>
