<?xml version="1.0" standalone="no"?>
<!DOCTYPE svg PUBLIC "-//W3C//DTD SVG 1.1//EN" "http://www.w3.org/Graphics/SVG/1.1/DTD/svg11.dtd">
<svg xmlns="http://www.w3.org/2000/svg" version="1.1" width="100%" height="100%">
<style type="text/css"><![CDATA[
  .stroke { fill:none; stroke:black; stroke-width:2 }
]]></style>
<path class="stroke" d="M 35.378550000000004 4.3580427 C 33.90645 7.714499999999999 30.068350000000002 11.004717 23.391165 13.102511999999999" />
<path class="stroke" d="M 33.95895 7.736592 L 65.03155000000001 7.802826 L 64.8738 15.222399 C 64.55834999999999 18.578871 61.2461 22.465299 55.56785 22.509462 L 53.2019 22.509462" />
<path class="stroke" d="M 27.080292 25.17883079 L 27.080292 79.4620401" />
<path class="stroke" d="M 27.372261 25.17883079 L 72.9197 25.17883079 L 72.9197 79.4620401" />
<path class="stroke" d="M 27.382198 43.7079226 L 72.871284 43.7079226" />
<path class="stroke" d="M 27.382198 61.95148611 L 72.871284 61.95148611" />
<path class="stroke" d="M 27.372261 79.21970499999999 L 72.62773 79.21970499999999" />
<path class="stroke" d="M 33.211678 85.035764 C 30.875912 89.155469 27.080292 91.33649319999999 22.70073 92.3058336" />
<path class="stroke" d="M 67.9562 85.2780991 C 72.33576 86.2474395 75.54744 88.4284637 78.17518 92.3058336" />
</svg>
