<?xml version="1.0" standalone="no"?>
<!DOCTYPE svg PUBLIC "-//W3C//DTD SVG 1.1//EN" "http://www.w3.org/Graphics/SVG/1.1/DTD/svg11.dtd">
<svg xmlns="http://www.w3.org/2000/svg" version="1.1" width="100%" height="100%">
<style type="text/css"><![CDATA[
  .stroke { fill:none; stroke:black; stroke-width:2 }
]]></style>
<path class="stroke" d="M 6.133888888888889 8.162475 L 54.153555555555556 8.162475" />
<path class="stroke" d="M 27.8654 8.162475 C 27.1644 22.436925000000002 21.906844444444445 31.742925 9.638977777777777 41.048925000000004" />
<path class="stroke" d="M 25.411844444444448 22.59465 L 52.40106666666667 22.594725 C 45.858177777777776 43.6515 34.75873333333333 57.373949999999994 12.092555555555556 70.859625" />
<path class="stroke" d="M 26.11277777777778 34.4243025 C 30.202111111111112 36.3959025 33.23977777777778 38.8406775 35.22611111111111 41.758704" />
<path class="stroke" d="M 69.90531999999999 9.108825 L 69.90531999999999 51.458999999999996" />
<path class="stroke" d="M 88.4542 5.0867474999999995 L 88.4542 63.05205 C 88.58044 67.231875 84.54256 69.282375 79.7476 69.203475 L 75.5836 69.203475" />
<path class="stroke" d="M 18.613138 77.00729 C 18.029196 82.55474 15.69343 87.22627 11.89781 89.85401" />
<path class="stroke" d="M 35.255474 77.88321 C 38.46715 81.678825 40.218975 85.18248 41.67883 90.14598" />
<path class="stroke" d="M 59.197075 78.17518 C 62.408752 81.678825 63.868607 85.47445 65.32846 90.43795" />
<path class="stroke" d="M 81.386856 78.17518 C 84.8905 81.678825 86.9343 84.8905 88.68613 90.43795" />
</svg>
