<?xml version="1.0" standalone="no"?>
<!DOCTYPE svg PUBLIC "-//W3C//DTD SVG 1.1//EN" "http://www.w3.org/Graphics/SVG/1.1/DTD/svg11.dtd">
<svg xmlns="http://www.w3.org/2000/svg" version="1.1" width="100%" height="100%">
<style type="text/css"><![CDATA[
  .stroke { fill:none; stroke:black; stroke-width:2 }
]]></style>
<path class="stroke" d="M 25.912407 10.729925 C 21.824816 18.029196 16.27737 23.86861 11.021896 28.540146 C 15.109488 31.45985 20.07299 36.131386 24.744522 40.218975" />
<path class="stroke" d="M 37.007298 25.912407 C 30.0 34.67153 20.656933 45.18248 8.978102 56.277367 C 19.48905 54.525543 31.167881 52.48175 41.67883 50.437954" />
<path class="stroke" d="M 38.17518 43.430653 C 41.094887 46.642334 41.970802 49.85401 43.722626 55.40146" />
<path class="stroke" d="M 26.49635 54.233574 L 26.49635 89.56204" />
<path class="stroke" d="M 17.445253 65.03649 C 15.69343 70.87591 13.649633 74.67153 9.562042 78.75912" />
<path class="stroke" d="M 34.08759 65.32846 C 37.299267 68.540146 37.35135 68.81081 38.97297 71.72973" />
<path class="stroke" d="M 66.90735649999999 11.613896050000001 C 64.45504 22.606809900000002 60.531335 32.929428279999996 54.809264 43.117980759999995" />
<path class="stroke" d="M 83.09264 11.613896050000001 C 85.544955 22.606809900000002 89.14169 32.929428279999996 95.19073499999999 43.117980759999995" />
<path class="stroke" d="M 64.6379553 47.083211 L 86.83357559999999 45.63503608 C 86.3430618 59.21167828 85.3620426 67.17664096 84.013137 77.49489052 C 83.2773684 82.38248010000001 81.92846532 89.8043792 79.35328319999999 89.8043792 L 78.00437844 89.8043792" />
<path class="stroke" d="M 72.24087426 46.721166339999996 L 71.014599 57.76350088 C 69.05255346 71.88320728 65.49634962 80.9343027 62.4306558 88.5372232" />
</svg>
