<?xml version="1.0" standalone="no"?>
<!DOCTYPE svg PUBLIC "-//W3C//DTD SVG 1.1//EN" "http://www.w3.org/Graphics/SVG/1.1/DTD/svg11.dtd">
<svg xmlns="http://www.w3.org/2000/svg" version="1.1" width="100%" height="100%">
<style type="text/css"><![CDATA[
  .stroke { fill:none; stroke:black; stroke-width:2 }
]]></style>
<path class="stroke" d="M 29.759317567567567 15.109488 C 23.959358783783784 22.70073 17.883209324324326 27.956203 12.635626216216215 30.875912" />
<path class="stroke" d="M 31.416452162162162 35.547443 C 25.616492432432434 43.138683 17.330833648648646 49.85401 9.873742162162161 53.06569" />
<path class="stroke" d="M 23.13079337837838 45.47445 L 23.13079337837838 89.85401" />
<path class="stroke" d="M 64.0992664 11.562042 C 56.356201600000006 26.452553 47.620436760000004 38.131386 36.700728840000004 45.138683" />
<path class="stroke" d="M 64.0992664 11.562042 C 72.04087352 25.86861 80.18101888000001 38.131386 91.497806 44.846714" />
<path class="stroke" d="M 49.4132724 41.5079248 L 77.29966440000001 41.5079248" />
<path class="stroke" d="M 35.47003016 58.441624 L 93.38801832000001 58.441624" />
<path class="stroke" d="M 63.35644800000001 41.785424 L 63.35644800000001 92.309128 L 57.916448 92.309128" />
<path class="stroke" d="M 50.271344 70.93384 C 47.5542 79.909576 43.979032000000004 84.998968 37.829656 90.921192" />
<path class="stroke" d="M 74.5111 71.211392 C 80.87488 75.74568 85.09360000000001 82.22292 88.454228 90.921192" />
</svg>
