<?xml version="1.0" standalone="no"?>
<!DOCTYPE svg PUBLIC "-//W3C//DTD SVG 1.1//EN" "http://www.w3.org/Graphics/SVG/1.1/DTD/svg11.dtd">
<svg xmlns="http://www.w3.org/2000/svg" version="1.1" width="100%" height="100%">
<style type="text/css"><![CDATA[
  .stroke { fill:none; stroke:black; stroke-width:2 }
]]></style>
<path class="stroke" d="M 11.313868 17.445253 C 15.401459 18.029196 19.48905 20.364962 22.408756 24.160583" />
<path class="stroke" d="M 9.270073 47.226276 C 13.357662 47.226276 18.321167 46.934303 23.86861 43.138683 C 16.27737 53.357662 14.233576 58.321167 15.109488 60.9489 C 15.69343 63.284668 20.948904 65.62044 22.116787 68.832115 C 23.576641 72.33576 18.129246 80.26506 11.021896 83.722626" />
<path class="stroke" d="M 11.021896 84.014595 C 39.692924 81.65476 40.51095 91.313866 90.43795 90.14598" />
<path class="stroke" d="M 57.76569127 9.3430648 C 53.13211495 14.59854 45.27518155 20.087590000000002 37.21678678 23.59124" />
<path class="stroke" d="M 55.34817277 12.3795616 L 73.27810360000001 12.3795616 C 66.0255481 21.9562028 50.51313715 33.051092 35.00072965 39.124084" />
<path class="stroke" d="M 47.69270074 18.102189600000003 C 55.599999999999994 26.5806456 71.86787953 34.569342000000006 88.99197039999999 39.124084" />
<path class="stroke" d="M 41.6040952 45.7665552 L 82.96055619999998 45.7665552" />
<path class="stroke" d="M 37.0331626 58.788633600000004 L 87.3138766 58.788633600000004" />
<path class="stroke" d="M 34.4211469 72.26500320000001 L 90.3611719 72.26500320000001" />
<path class="stroke" d="M 62.50001035 39.55836096 L 62.50001035 81.35018208" />
</svg>
