<?xml version="1.0" standalone="no"?>
<!DOCTYPE svg PUBLIC "-//W3C//DTD SVG 1.1//EN" "http://www.w3.org/Graphics/SVG/1.1/DTD/svg11.dtd">
<svg xmlns="http://www.w3.org/2000/svg" version="1.1" width="100%" height="100%">
<style type="text/css"><![CDATA[
  .stroke { fill:none; stroke:black; stroke-width:2 }
]]></style>
<path class="stroke" d="M 18.2492638776 8.7755616 L 52.878610007999995 8.8686117" />
<path class="stroke" d="M 18.2492638776 8.7755616 L 18.0758174184 39.2094774 C 14.7803352732 76.10723999999999 9.2182322736 73.24817039999999 6.540771812400001 81.08910900000001" />
<path class="stroke" d="M 34.8542657064 16.718838464199997 C 34.765746876 19.696170559000002 32.649279516 23.150620219 30.748805892 23.265227839" />
<path class="stroke" d="M 26.325262177199996 23.3741087887 L 26.325262177199996 59.90070918999999" />
<path class="stroke" d="M 26.325262177199996 23.2657022785 L 46.32780844944 23.2657022785 L 46.32780844944 59.90070918999999" />
<path class="stroke" d="M 26.325262177199996 40.4708611225 L 46.32780844944 40.4708611225" />
<path class="stroke" d="M 26.325262177199996 58.311289156 L 46.32780844944 58.311289156" />
<path class="stroke" d="M 36.2272982589 62.385233401300006 L 36.2272982589 89.54937675100001 C 36.2272982589 90.3286757845 35.5269400479 90.773990335 35.0192621772 90.773990335 L 34.130824056 90.773990335" />
<path class="stroke" d="M 26.1348822693 72.516122362 C 25.5002837355 76.412619436 23.596488568799998 79.7524737985 20.9311742052 82.4243576698" />
<path class="stroke" d="M 45.172838718 72.516122362 C 47.711232418499996 74.85402136900001 49.868866303199994 77.9712186469 51.1380633708 82.6470132292" />
<path class="stroke" d="M 65.69489014 9.854013 L 91.3240852 9.854013" />
<path class="stroke" d="M 78.6934294 9.854013 C 78.2029198 14.817516 77.22189724 18.905107 75.834208 22.0621" />
<path class="stroke" d="M 66.77799999999999 22.3791 L 66.77799999999999 76.715324" />
<path class="stroke" d="M 66.77799999999999 22.3791 L 90.35079400000001 22.3791 L 90.35079400000001 76.423355" />
<path class="stroke" d="M 66.911182 40.77066 L 90.35079400000001 40.77066" />
<path class="stroke" d="M 66.911182 59.79627 L 90.35079400000001 59.79627" />
<path class="stroke" d="M 66.79853968 76.715324 L 90.4656892 76.715324" />
<path class="stroke" d="M 71.45839306 83.13868 C 69.25109398000001 86.9343 66.67591186 89.56204 63.61021804 89.85401" />
<path class="stroke" d="M 86.17372180000001 83.43065 C 88.7489056 84.59853 90.83357559999999 86.35036 93.28612989999999 90.72992" />
</svg>
