<?xml version="1.0" standalone="no"?>
<!DOCTYPE svg PUBLIC "-//W3C//DTD SVG 1.1//EN" "http://www.w3.org/Graphics/SVG/1.1/DTD/svg11.dtd">
<svg xmlns="http://www.w3.org/2000/svg" version="1.1" width="100%" height="100%">
<style type="text/css"><![CDATA[
  .stroke { fill:none; stroke:black; stroke-width:2 }
]]></style>
<path class="stroke" d="M 11.313868 17.445253 C 15.401459 18.029196 19.48905 20.364962 22.408756 24.160583" />
<path class="stroke" d="M 9.270073 47.226276 C 13.357662 47.226276 18.321167 46.934303 23.86861 43.138683 C 16.27737 53.357662 14.233576 58.321167 15.109488 60.9489 C 15.69343 63.284668 20.948904 65.62044 22.116787 68.832115 C 23.576641 72.33576 18.129246 80.26506 11.021896 83.722626" />
<path class="stroke" d="M 11.021896 84.014595 C 39.692924 81.65476 40.51095 91.313866 90.43795 90.14598" />
<path class="stroke" d="M 40.061313 8.55295133432353 C 44.03211588 10.237314137441176 47.20875764 12.553312180470588 49.59123964 14.76403822435294" />
<path class="stroke" d="M 82.1518204 8.55295133432353 C 80.53173808 10.637349825441177 77.1883168 13.079674700117648 73.8131368 14.869310223500001" />
<path class="stroke" d="M 32.1829656 16.00470709 L 91.817048 16.00470709" />
<path class="stroke" d="M 37.116692 24.78153814 L 37.116692 54.44119726" />
<path class="stroke" d="M 37.116692 24.78153814 L 87.09778 24.78153814 L 87.09778 54.44119726" />
<path class="stroke" d="M 55.350144 16.156031812899997 L 55.350144 28.2620283532 C 54.980644240000004 31.684387560999994 47.30322528 38.028806699200004 37.43225824 39.4214818129" />
<path class="stroke" d="M 68.43533640000001 16.00470709 L 68.43533640000001 37.03888051 C 68.1493284 38.80436839 69.79390704 40.11582022 72.08204040000001 40.065403749999994 L 78.3028164 40.065403749999994 C 79.9473964 40.01493931 82.0209884 39.056546680000004 81.94951632000001 37.19022586 L 81.94951632000001 35.07167878" />
<path class="stroke" d="M 37.116692 46.11835429 L 87.09778 46.11835429" />
<path class="stroke" d="M 37.116692 54.44119726 L 87.09778 54.44119726" />
<path class="stroke" d="M 35.09781008 64.6421307068 L 88.70364420000001 64.6421307068" />
<path class="stroke" d="M 72.6218992 59.45637943239999 L 72.6218992 82.56481647199999 C 72.6218992 83.383620256 71.827734 83.929487368 70.04087352 83.929487368 L 64.6802914 83.929487368" />
<path class="stroke" d="M 46.017518 68.09929843079999 C 48.400000000000006 68.91810190320001 50.58394104 70.1008170952 52.37080084 72.10233451319999" />
</svg>
