<?xml version="1.0" standalone="no"?>
<!DOCTYPE svg PUBLIC "-//W3C//DTD SVG 1.1//EN" "http://www.w3.org/Graphics/SVG/1.1/DTD/svg11.dtd">
<svg xmlns="http://www.w3.org/2000/svg" version="1.1" width="100%" height="100%">
<style type="text/css"><![CDATA[
  .stroke { fill:none; stroke:black; stroke-width:2 }
]]></style>
<path class="stroke" d="M 54.10092 6.46688 L 54.10092 14.66882" />
<path class="stroke" d="M 18.7697 14.98422 L 93.8486 14.98422" />
<path class="stroke" d="M 18.7697 15.2997 L 18.7697 59.7792 C 19.0852 71.2408 14.6687 79.2323 6.46688 87.5394" />
<path class="stroke" d="M 5.83596 25.07884 C 8.78023 28.65404 10.4627 32.22924 11.8297 36.43534" />
<path class="stroke" d="M 6.15141 58.20189 C 8.14931 57.04519 10.4627 54.62679 12.1451 52.20829" />
<path class="stroke" d="M 59.113864400000004 23.54044167092 C 50.232113600000005 29.05380227378 40.211677460000004 33.37800698036 27.68613014 35.97252876758" />
<path class="stroke" d="M 59.113864400000004 23.54044167092 C 68.22335492 28.8375915386 77.56058048 33.37800698036 90.541601 35.86442432564" />
<path class="stroke" d="M 46.383357104 34.025 L 71.61664040000001 34.025" />
<path class="stroke" d="M 35.432992536 41.22249251045 L 35.432992536 71.292955175" />
<path class="stroke" d="M 35.432992536 41.22249251045 L 54.023939482 41.22249251045 L 54.023939482 71.916826346 C 54.023939482 72.5406932435 52.84729715800001 73.538884553 51.2 73.4141111735 L 49.788027438 73.4141111735" />
<path class="stroke" d="M 35.432992536 49.582331586500004 L 54.023939482 49.582331586500004" />
<path class="stroke" d="M 35.432992536 58.1917178489 L 53.788612468000004 58.1917178489" />
<path class="stroke" d="M 67.9956191 42.719776910600004 L 67.9956191 57.1935282488" />
<path class="stroke" d="M 82.34306000000001 40.22430205565 L 82.34306000000001 71.292955175 C 82.34306000000001 72.41591986400002 80.52116720000001 73.4141111735 78.9270032 73.538884553 L 77.1051104 73.538884553" />
<path class="stroke" d="M 33.607334 81.06560768 C 32.951276 85.15929728 31.310936 87.85392768 28.440146 90.85941632000001" />
<path class="stroke" d="M 45.9101492 78.57829824000001 L 45.9101492 91.79218816 C 45.9101492 93.19129663999999 47.3865332 94.1240192 49.6010312 94.1240192 L 76.17516320000001 94.1240192 C 78.2256272 94.1240192 80.0300792 93.03581824 80.1120572 91.32580224 L 80.1120572 88.6830144" />
<path class="stroke" d="M 55.260368 78.578308096 C 59.52533 80.96198169600001 62.313986 83.501133696 64.856552 86.817529856" />
<path class="stroke" d="M 80.112026 78.73377664 C 85.279214 81.63558016 88.477994 84.53758080000001 91.67669599999999 88.52758528" />
</svg>
