<?xml version="1.0" standalone="no"?>
<!DOCTYPE svg PUBLIC "-//W3C//DTD SVG 1.1//EN" "http://www.w3.org/Graphics/SVG/1.1/DTD/svg11.dtd">
<svg xmlns="http://www.w3.org/2000/svg" version="1.1" width="100%" height="100%">
<style type="text/css"><![CDATA[
  .stroke { fill:none; stroke:black; stroke-width:2 }
]]></style>
<path class="stroke" d="M 36.291968000000004 4.058394 C 32.15564 15.078880000000002 16.929560000000002 30.473200000000006 3.9416052 36.175180000000005" />
<path class="stroke" d="M 9.781021200000001 7.5620428 C 17.26604 11.33544 28.916960000000003 22.734 35.26816 31.735039999999998" />
<path class="stroke" d="M 8.029196 54.321166 L 32.087588000000004 54.321166" />
<path class="stroke" d="M 20.058392 45.3868612 L 20.058392 94.437952" />
<path class="stroke" d="M 20.058392 57.299268999999995 C 16.20438 70.7883196 11.532846000000001 77.9708008 5.4598532 81.64963" />
<path class="stroke" d="M 20.058392 57.299268999999995 C 23.67883 70.963501 28.583940000000002 78.14598219999999 34.6569336 81.29926900000001" />
<path class="stroke" d="M 58.454260000000005 8.04417 L 58.454260000000005 26.6562 C 58.32808 41.062 51.5773 47.897 43.880128 50.9464" />
<path class="stroke" d="M 58.64356 8.04416 L 79.08519999999999 8.04416 L 79.08519999999999 36.7507 C 78.8959 40.8516 80.41012 43.3753 82.49212 43.3753 L 95.633506 43.3753" />
<path class="stroke" d="M 52.58674 53.15461 L 84.19564 53.15461 C 76.18299999999999 77.23451 61.54576 89.01161 45.015772 94.16401" />
<path class="stroke" d="M 57.12934 53.15461 C 60.094660000000005 75.65721 77.06626 92.16621 95.74132 93.84861" />
</svg>
