<?xml version="1.0" standalone="no"?>
<!DOCTYPE svg PUBLIC "-//W3C//DTD SVG 1.1//EN" "http://www.w3.org/Graphics/SVG/1.1/DTD/svg11.dtd">
<svg xmlns="http://www.w3.org/2000/svg" version="1.1" width="100%" height="100%">
<style type="text/css"><![CDATA[
  .stroke { fill:none; stroke:black; stroke-width:2 }
]]></style>
<path class="stroke" d="M 11.313868 17.445253 C 15.401459 18.029196 19.48905 20.364962 22.408756 24.160583" />
<path class="stroke" d="M 9.270073 47.226276 C 13.357662 47.226276 18.321167 46.934303 23.86861 43.138683 C 16.27737 53.357662 14.233576 58.321167 15.109488 60.9489 C 15.69343 63.284668 20.948904 65.62044 22.116787 68.832115 C 23.576641 72.33576 18.129246 80.26506 11.021896 83.722626" />
<path class="stroke" d="M 11.021896 84.014595 C 39.692924 81.65476 40.51095 91.313866 90.43795 90.14598" />
<path class="stroke" d="M 86.62775099999999 6.4574125 C 72.495241 8.055734300000001 54.829691 9.1745303 37.605700999999996 9.4542483" />
<path class="stroke" d="M 32.7476331 19.8832704 L 92.36908799999999 19.8832704" />
<path class="stroke" d="M 62.33752 8.735028 L 62.33752 40.0221" />
<path class="stroke" d="M 62.3375494 19.8833084 C 54.829631500000005 26.0767764 45.7760394 31.4311284 33.1892771 35.9464024" />
<path class="stroke" d="M 62.3375494 19.8833084 C 69.771828 26.396432400000002 78.08937080000001 31.2313624 91.927458 35.8265124" />
<path class="stroke" d="M 48.887094899999994 45.30967726 L 48.887094899999994 58.79354748 C 48.887094899999994 68.35483768 46.177418700000004 71.66451532 37.8225799 75.5870942" />
<path class="stroke" d="M 36.80502 45.3459114 L 76.64783 45.3459114 L 76.64783 58.132064 L 92.93711 58.132064 L 92.93711 68.408784 C 93.08382999999999 73.467496 88.65404799999999 78.1 81.8432405 76.65189068000001 L 77.07567 75.5426988" />
</svg>
