<?xml version="1.0" standalone="no"?>
<!DOCTYPE svg PUBLIC "-//W3C//DTD SVG 1.1//EN" "http://www.w3.org/Graphics/SVG/1.1/DTD/svg11.dtd">
<svg xmlns="http://www.w3.org/2000/svg" version="1.1" width="100%" height="100%">
<style type="text/css"><![CDATA[
  .stroke { fill:none; stroke:black; stroke-width:2 }
]]></style>
<path class="stroke" d="M 11.003300000000001 33.069305 L 28.825083333333335 30.9901" />
<path class="stroke" d="M 22.389438333333334 9.60396 L 22.389438333333334 84.15842 C 22.389438333333334 87.42574 20.161715833333336 90.09901 17.19141916666667 90.09901" />
<path class="stroke" d="M 11.498349166666667 63.36634 L 27.09241 46.435642" />
<path class="stroke" d="M 61.0 7.381726400000005 L 61.0 20.0" />
<path class="stroke" d="M 30.4 20.0 L 91.6 20.0" />
<path class="stroke" d="M 42.599133952 28.391891 L 34.790442755200004 40.79729675 L 42.066722579200004 51.2567555" />
<path class="stroke" d="M 49.343004592 42.01351175 C 43.25222536 51.00378125 37.161445033599996 59.99405 30.8860968832 69.2567555 L 48.1007117536 66.33783725" />
<path class="stroke" d="M 47.7457721152 66.09459275 C 44.1963658816 82.87837999999999 36.032733952 90.1756745 28.57898387104 93.8243225" />
<path class="stroke" d="M 62.327006476 30.39050975 C 61.643794804 37.83576575 57.271240384 45.7189775 54.675035656 47.47080125" />
<path class="stroke" d="M 60.27737146 41.77737125 L 60.27737146 90.8284625" />
<path class="stroke" d="M 76.537807756 30.60948875 C 75.717954124 35.4270065 74.214889288 39.58759025 72.028612312 41.99634875" />
<path class="stroke" d="M 60.27737146 41.57258 L 85.55620191999999 41.57258" />
<path class="stroke" d="M 72.71182492 41.99634875 L 72.71182492 90.8284625" />
<path class="stroke" d="M 60.27737146 58.843887499999994 L 83.77985176 58.843887499999994" />
<path class="stroke" d="M 60.27737146 74.843063 L 83.91649372 74.843063" />
<path class="stroke" d="M 60.27737146 90.8284625 L 88.289048608 90.8284625" />
</svg>
