<?xml version="1.0" standalone="no"?>
<!DOCTYPE svg PUBLIC "-//W3C//DTD SVG 1.1//EN" "http://www.w3.org/Graphics/SVG/1.1/DTD/svg11.dtd">
<svg xmlns="http://www.w3.org/2000/svg" version="1.1" width="100%" height="100%">
<style type="text/css"><![CDATA[
  .stroke { fill:none; stroke:black; stroke-width:2 }
]]></style>
<path class="stroke" d="M 10.961809821428572 14.059406 C 13.879066071428571 16.138615 16.796323214285717 19.108912 19.183169642857145 22.673267" />
<path class="stroke" d="M 9.105374107142858 38.118813 C 11.757426785714285 39.90099 14.939887500000001 42.574257 17.06152857142857 46.138615" />
<path class="stroke" d="M 8.840169642857143 85.64356 C 9.434829464285714 87.422676 11.091678571428572 89.896904 13.024666964285714 89.896904 C 14.957658035714285 89.896904 17.5919375 76.73267 19.448374107142858 69.60396" />
<path class="stroke" d="M 30.02761 15.3911456 L 57.4723975 15.3911456" />
<path class="stroke" d="M 27.543374875 26.419544400000003 L 57.60065125 26.354804" />
<path class="stroke" d="M 43.75 6.9747648 L 43.75 26.419618000000003 C 43.80844 37.108049199999996 36.80995 44.89699 27.779968750000002 46.880142" />
<path class="stroke" d="M 43.75 26.419572000000002 C 50.2370125 31.51636096 52.80844225 34.670647200000005 56.665585 41.12259524" />
<path class="stroke" d="M 64.92981879999999 15.3911456 L 94.5701893 15.3911456" />
<path class="stroke" d="M 62.246844865 26.419544400000003 L 96.86990485000001 26.419544400000003" />
<path class="stroke" d="M 79.75 6.9747648 L 79.75 26.419618000000003 C 79.962949 35.22296 72.25474600000001 44.89699 62.50236625 46.880142" />
<path class="stroke" d="M 79.75 26.419572000000002 C 79.87777750000001 35.319698 85.62699549999999 44.074694 96.8698765 47.025226" />
<path class="stroke" d="M 43.5583915 56.4131383 L 43.5583915 90.2583904" />
<path class="stroke" d="M 43.5583915 56.4131383 L 81.222625 56.4131383 L 81.222625 90.2583904" />
<path class="stroke" d="M 43.77737125 72.41379578 L 81.0036475 72.41379578" />
<path class="stroke" d="M 43.5583915 88.78101944 L 81.222625 88.78101944" />
</svg>
