<?xml version="1.0" standalone="no"?>
<!DOCTYPE svg PUBLIC "-//W3C//DTD SVG 1.1//EN" "http://www.w3.org/Graphics/SVG/1.1/DTD/svg11.dtd">
<svg xmlns="http://www.w3.org/2000/svg" version="1.1" width="100%" height="100%">
<style type="text/css"><![CDATA[
  .stroke { fill:none; stroke:black; stroke-width:2 }
]]></style>
<path class="stroke" d="M 20.770715441176474 11.605839 C 17.979818382352942 27.372261 12.183339705882354 41.970802 7.245597794117647 50.14598" />
<path class="stroke" d="M 16.477026470588235 30.583939 L 16.477026470588235 90.43795" />
<path class="stroke" d="M 42.0255475 11.496349799999999 L 85.3832125 11.496349799999999" />
<path class="stroke" d="M 42.0255475 23.5839384 L 85.8211675 23.5839384 L 85.8211675 41.1897798" />
<path class="stroke" d="M 42.0255475 41.1897798 L 85.60219000000001 41.1897798" />
<path class="stroke" d="M 42.0255475 23.5839384 L 42.0255475 58.007295000000006 C 42.0255475 70.620435 38.66336575 77.07920399999999 32.4257425 81.62376300000001" />
<path class="stroke" d="M 48.220462 56.045743 L 48.220462 94.08994" />
<path class="stroke" d="M 48.220462 56.045743 L 90.8332015 56.045743 L 90.8332015 90.966895 C 90.89862625 92.623075 89.1967735 93.85333 87.49485849999999 93.80603500000001 L 84.94204825 93.80603500000001" />
<path class="stroke" d="M 49.00591382499999 74.4999955 L 90.2441173 74.6419705" />
<path class="stroke" d="M 62.555566299999995 56.18769775 L 62.555566299999995 93.0962095" />
<path class="stroke" d="M 77.283501715 56.18769865 L 77.283501715 93.238162" />
</svg>
