<?xml version="1.0" standalone="no"?>
<!DOCTYPE svg PUBLIC "-//W3C//DTD SVG 1.1//EN" "http://www.w3.org/Graphics/SVG/1.1/DTD/svg11.dtd">
<svg xmlns="http://www.w3.org/2000/svg" version="1.1" width="100%" height="100%">
<style type="text/css"><![CDATA[
  .stroke { fill:none; stroke:black; stroke-width:2 }
]]></style>
<path class="stroke" d="M 11.313868 17.445253 C 15.401459 18.029196 19.48905 20.364962 22.408756 24.160583" />
<path class="stroke" d="M 9.270073 47.226276 C 13.357662 47.226276 18.321167 46.934303 23.86861 43.138683 C 16.27737 53.357662 14.233576 58.321167 15.109488 60.9489 C 15.69343 63.284668 20.948904 65.62044 22.116787 68.832115 C 23.576641 72.33576 18.129246 80.26506 11.021896 83.722626" />
<path class="stroke" d="M 11.021896 84.014595 C 39.692924 81.65476 40.51095 91.313866 90.43795 90.14598" />
<path class="stroke" d="M 48.14510192 11.0268148 C 45.1924532 21.673552 40.19550848 32.320273 31.7917988 41.178271 C 38.98425392 50.717722 44.81387648 66.645157 47.46369248 79.761892" />
<path class="stroke" d="M 69.041024 11.0268148 C 66.088376 21.673552 61.091432 32.320273 52.6877216 41.178271 C 59.880176 50.717722 65.7098 66.645157 68.35961599999999 79.761892" />
<path class="stroke" d="M 89.709776 11.0268148 C 86.757128 21.673552 81.760184 32.320273 73.3564736 41.178271 C 80.54892799999999 50.717722 86.378552 66.645157 89.028368 79.761892" />
</svg>
