<?xml version="1.0" standalone="no"?>
<!DOCTYPE svg PUBLIC "-//W3C//DTD SVG 1.1//EN" "http://www.w3.org/Graphics/SVG/1.1/DTD/svg11.dtd">
<svg xmlns="http://www.w3.org/2000/svg" version="1.1" width="100%" height="100%">
<style type="text/css"><![CDATA[
  .stroke { fill:none; stroke:black; stroke-width:2 }
]]></style>
<path class="stroke" d="M 11.313868 17.445253 C 15.401459 18.029196 19.48905 20.364962 22.408756 24.160583" />
<path class="stroke" d="M 9.270073 47.226276 C 13.357662 47.226276 18.321167 46.934303 23.86861 43.138683 C 16.27737 53.357662 14.233576 58.321167 15.109488 60.9489 C 15.69343 63.284668 20.948904 65.62044 22.116787 68.832115 C 23.576641 72.33576 18.129246 80.26506 11.021896 83.722626" />
<path class="stroke" d="M 11.021896 84.014595 C 39.692924 81.65476 40.51095 91.313866 90.43795 90.14598" />
<path class="stroke" d="M 42.474751 9.949528 C 42.474751 18.698240000000002 39.645129999999995 24.418480000000002 35.291782 29.381680000000003" />
<path class="stroke" d="M 42.257125 20.0441968 L 86.660902 20.0441968" />
<path class="stroke" d="M 62.717695 6.921136000000001 L 62.717695 38.71928" />
<path class="stroke" d="M 32.89747372 39.223976 L 92.32018539999999 39.223976" />
<path class="stroke" d="M 45.013284184 52.385401 L 45.013284184 74.24817399999999" />
<path class="stroke" d="M 45.013284184 52.385401 L 80.14788159999999 52.385401 L 80.14788159999999 74.03795560000002" />
<path class="stroke" d="M 45.013284184 72.56642176000001 L 80.14788159999999 72.56642176000001" />
</svg>
