<?xml version="1.0" standalone="no"?>
<!DOCTYPE svg PUBLIC "-//W3C//DTD SVG 1.1//EN" "http://www.w3.org/Graphics/SVG/1.1/DTD/svg11.dtd">
<svg xmlns="http://www.w3.org/2000/svg" version="1.1" width="100%" height="100%">
<style type="text/css"><![CDATA[
  .stroke { fill:none; stroke:black; stroke-width:2 }
]]></style>
<path class="stroke" d="M 4.773584 16.5471665 L 15.2453 25.207565000000002" />
<path class="stroke" d="M 4.773584 92.707538 L 17.509430000000002 54.245255" />
<path class="stroke" d="M 44.7524748 14.3267332 C 39.0495056 17.059405599999998 35.0099016 17.772278 27.5620428 18.7372252" />
<path class="stroke" d="M 27.381712 6.960396 L 27.381712 33.336631999999994 C 27.381712 36.782177600000004 29.7821776 38.68316960000001 33.1089112 38.68316960000001 L 50.574258400000005 38.68316960000001 C 52.118812000000005 38.68316960000001 52.950494400000004 38.089108 52.950494400000004 36.544556 L 52.950494400000004 35.475248" />
<path class="stroke" d="M 32.116788 48.864962775 C 31.8832108 52.7189775 30.2481752 57.2153265 28.963502400000003 58.9817516" />
<path class="stroke" d="M 31.065692 55.28832065 L 49.9854 55.28832065" />
<path class="stroke" d="M 26.8613136 68.6342362 L 52.78832 68.6342362" />
<path class="stroke" d="M 39.59124 55.77007225 L 39.59124 62.514596850000004 C 39.610809200000006 77.34864300000001 28.613138 89.492698 24.29197 91.7408725" />
<path class="stroke" d="M 39.610809200000006 69.1432425 C 42.8613128 80.17882750000001 48.58394 87.726274 55.708026000000004 91.580289" />
<path class="stroke" d="M 68.75094736 11.58759125 L 88.679706112 11.58759125 C 85.27416112 21.441605 82.87766272 23.99634875 78.71532673600001 27.281019999999998" />
<path class="stroke" d="M 76.69722448 22.536495 C 78.21080214400001 26.18613 79.219853056 29.470801249999997 79.850509984 34.215326250000004" />
<path class="stroke" d="M 60.547634560000006 32.3533134 L 96.25235680000002 32.3533134 L 94.28645008000001 40.51612834" />
<path class="stroke" d="M 78.53629600000001 32.119873 L 78.4 91.6" />
<path class="stroke" d="M 78.53629600000001 58.965334 L 92.5728832 58.965334" />
<path class="stroke" d="M 67.088944 57.331192 C 66.8617984 78.10721 64.04541760000001 85.81075799999999 59.59368784 94.214494" />
<path class="stroke" d="M 67.088944 57.331192 C 67.4977888 94.447964 78.95741824000001 91.8387092 88.01548364800001 93.5096736 L 97.07004640000001 93.98109799999999" />
</svg>
