<?xml version="1.0" standalone="no"?>
<!DOCTYPE svg PUBLIC "-//W3C//DTD SVG 1.1//EN" "http://www.w3.org/Graphics/SVG/1.1/DTD/svg11.dtd">
<svg xmlns="http://www.w3.org/2000/svg" version="1.1" width="100%" height="100%">
<style type="text/css"><![CDATA[
  .stroke { fill:none; stroke:black; stroke-width:2 }
]]></style>
<path class="stroke" d="M 29.759317567567567 15.109488 C 23.959358783783784 22.70073 17.883209324324326 27.956203 12.635626216216215 30.875912" />
<path class="stroke" d="M 31.416452162162162 35.547443 C 25.616492432432434 43.138683 17.330833648648646 49.85401 9.873742162162161 53.06569" />
<path class="stroke" d="M 23.13079337837838 45.47445 L 23.13079337837838 89.85401" />
<path class="stroke" d="M 88.14034699999999 6.46688 C 71.790172 11.9348 55.209755 13.9327 39.089895 14.0379" />
<path class="stroke" d="M 39.089895 14.0379 L 39.089895 59.4638 C 39.166691 71.2409 36.479999 80.8097 31.7208224 87.8549" />
<path class="stroke" d="M 47.228992478 27.505 L 91.451004748 27.505" />
<path class="stroke" d="M 69.34 15.52810213 L 69.34 41.2799248" />
<path class="stroke" d="M 54.680320426799994 46.835619436 L 54.680320426799994 92.12729536" />
<path class="stroke" d="M 54.680320426799994 46.835619436 L 83.8376929528 46.835619436 L 83.8376929528 91.9643761" />
<path class="stroke" d="M 54.680320426799994 60.670730584000005 L 83.8376929528 60.670730584000005" />
<path class="stroke" d="M 54.680320426799994 76.20527872000001 L 83.8376929528 76.20527872000001" />
<path class="stroke" d="M 54.680320426799994 90.49809718 L 83.8376929528 90.49809718" />
</svg>
