<?xml version="1.0" standalone="no"?>
<!DOCTYPE svg PUBLIC "-//W3C//DTD SVG 1.1//EN" "http://www.w3.org/Graphics/SVG/1.1/DTD/svg11.dtd">
<svg xmlns="http://www.w3.org/2000/svg" version="1.1" width="100%" height="100%">
<style type="text/css"><![CDATA[
  .stroke { fill:none; stroke:black; stroke-width:2 }
]]></style>
<path class="stroke" d="M 27.918 5.5205 C 21.8192 17.8233 14.4585 30.7571 4.88959 40.5363" />
<path class="stroke" d="M 27.918 5.83596 C 34.0168 11.8296 38.2229 18.4543 42.7445 25.0789" />
<path class="stroke" d="M 12.1451 33.59624 L 40.2208 33.59624" />
<path class="stroke" d="M 6.782335 51.57724 L 44.006287 51.57724" />
<path class="stroke" d="M 27.287043 33.9117 L 27.287043 88.1703" />
<path class="stroke" d="M 6.46688 61.672 C 10.7781 65.878 14.143 70.3996 17.5079 75.2366" />
<path class="stroke" d="M 43.06 61.6719 C 40.7466 67.4553 37.4868 72.2923 33.2807 77.1294" />
<path class="stroke" d="M 8.04416 94.4795 L 42.7445 83.7539" />
<path class="stroke" d="M 68.1 4.6423356 L 68.1 10.832116800000001" />
<path class="stroke" d="M 55.4856344388 11.1824812 L 80.97853866 11.1824812" />
<path class="stroke" d="M 57.5990355156 16.20438 C 60.240787314 20.4087584 62.2221016152 25.897807999999998 63.278801701199995 31.270072" />
<path class="stroke" d="M 78.997223454 15.270071999999999 C 75.827123196 19.59124 73.18537185 26.248176 72.524933448 33.138684000000005" />
<path class="stroke" d="M 50.598393883199996 34.306568 L 85.337430756 34.306568" />
<path class="stroke" d="M 58.1333123872 44.60072965 L 58.1333123872 68.8810192" />
<path class="stroke" d="M 58.1333123872 44.60072965 L 79.1047576 44.60072965 L 79.1047576 68.8810192" />
<path class="stroke" d="M 58.255240312 56.07946219 L 78.982830928 56.07946219" />
<path class="stroke" d="M 58.1333123872 67.82116612 L 79.1047576 67.82116612" />
<path class="stroke" d="M 63.464232839999994 72.039123592 L 63.464232839999994 79.53342942399999 C 63.464232839999994 86.14131268 59.061313639999995 92.668611664 48.05401448 94.36087420000001" />
<path class="stroke" d="M 73.45547291999999 71.958540148 L 73.45547291999999 90.97634968 C 73.45547291999999 92.9909482 75.65693483999999 94.19970676 78.02773414 94.19970676 L 91.23649 94.19970676 C 93.09927019999999 94.28029047999999 94.454011 93.63561795999999 94.454011 92.74919428000001 L 94.454011 91.218101944" />
</svg>
