<?xml version="1.0" standalone="no"?>
<!DOCTYPE svg PUBLIC "-//W3C//DTD SVG 1.1//EN" "http://www.w3.org/Graphics/SVG/1.1/DTD/svg11.dtd">
<svg xmlns="http://www.w3.org/2000/svg" version="1.1" width="100%" height="100%">
<style type="text/css"><![CDATA[
  .stroke { fill:none; stroke:black; stroke-width:2 }
]]></style>
<path class="stroke" d="M 50.14598 4.6350365 L 50.14598 11.0583935" />
<path class="stroke" d="M 12.4817505 11.204378 L 12.4817505 18.2116775" />
<path class="stroke" d="M 12.4817505 11.204378 L 87.81021 11.204378 L 87.81021 18.2116775" />
<path class="stroke" d="M 24.262771400000002 25.159185234042553 L 75.4861258 25.159185234042553" />
<path class="stroke" d="M 50.1255428 18.74825119148936 L 50.1255428 47.33032831914894" />
<path class="stroke" d="M 26.5226278 36.11119740425532 L 73.4773636 36.11119740425532" />
<path class="stroke" d="M 15.7255471 47.33032831914894 L 84.5255428 47.33032831914894" />
<path class="stroke" d="M 13.649633 58.29561941666667 L 13.649633 70.23398216666666" />
<path class="stroke" d="M 13.649633 58.29561941666667 L 86.642334 58.29561941666667 L 86.642334 70.23398216666666" />
<path class="stroke" d="M 36.75083 58.29561941666667 L 36.75083 70.23398216666666" />
<path class="stroke" d="M 63.249256 58.29561941666667 L 63.249256 70.23398216666666" />
<path class="stroke" d="M 13.649633 70.23959416666666 L 86.83168 70.23959416666666" />
<path class="stroke" d="M 17.4453 80.59935999999999 C 16.6042 85.58356 14.5012 88.86436 10.8207 92.52364" />
<path class="stroke" d="M 33.21814 77.57097999999999 L 33.21814 93.65932 C 33.21814 95.36277999999999 35.11094 96.4984 37.95004 96.4984 L 72.01944 96.4984 C 74.64824 96.4984 76.96164 95.17348 77.06674 93.09147999999999 L 77.06674 89.8738" />
<path class="stroke" d="M 45.2056 77.57099199999999 C 50.6735 80.473192 54.2487 83.56469200000001 57.5084 87.60251199999999" />
<path class="stroke" d="M 77.0667 77.76028 C 83.6913 81.29332 87.7923 84.8266 91.8932 89.68456" />
</svg>
