<?xml version="1.0" standalone="no"?>
<!DOCTYPE svg PUBLIC "-//W3C//DTD SVG 1.1//EN" "http://www.w3.org/Graphics/SVG/1.1/DTD/svg11.dtd">
<svg xmlns="http://www.w3.org/2000/svg" version="1.1" width="100%" height="100%">
<style type="text/css"><![CDATA[
  .stroke { fill:none; stroke:black; stroke-width:2 }
]]></style>
<path class="stroke" d="M 27.28702 4.484824096385543 C 30.86222 5.954414457831325 33.49102 8.032149397590361 34.85802 9.95778795180723" />
<path class="stroke" d="M 71.45113 4.484824096385543 C 69.76863 6.96790843373494 67.45533 8.386848192771083 64.19553 9.957836144578314" />
<path class="stroke" d="M 16.24608 12.54227951807229 L 85.01578 12.54227951807229" />
<path class="stroke" d="M 8.044165 20.599730120481926 L 92.586716 20.599730120481926" />
<path class="stroke" d="M 51.2618 3.420621686746988 C 49.369 18.57267469879518 31.7035 29.620048192771083 8.04416 36.56265060240964" />
<path class="stroke" d="M 53.7855 12.694313253012048 C 59.674 22.981493975903614 73.7644 31.596385542168676 92.5868 36.56265060240964" />
<path class="stroke" d="M 42.175180000000005 36.8992698 C 46.846712000000004 37.49488928 51.9854 38.68613096 56.6569336 41.068611600000004" />
<path class="stroke" d="M 17.8832104 46.68104532 L 81.649632 46.68104532" />
<path class="stroke" d="M 35.077872 55.748551559999996 L 63.834192 55.748551559999996" />
<path class="stroke" d="M 33.5684 64.80053272 L 65.42056 64.80053272" />
<path class="stroke" d="M 33.31688 74.31897620000001 L 33.31688 92.9637398" />
<path class="stroke" d="M 33.3168 74.10520120000001 L 65.67208000000001 74.10520120000001 L 65.67208000000001 92.757608" />
<path class="stroke" d="M 33.317648000000005 90.619246 L 65.42132800000002 90.619314" />
</svg>
