<?xml version="1.0" standalone="no"?>
<!DOCTYPE svg PUBLIC "-//W3C//DTD SVG 1.1//EN" "http://www.w3.org/Graphics/SVG/1.1/DTD/svg11.dtd">
<svg xmlns="http://www.w3.org/2000/svg" version="1.1" width="100%" height="100%">
<style type="text/css"><![CDATA[
  .stroke { fill:none; stroke:black; stroke-width:2 }
]]></style>
<path class="stroke" d="M 16.49124066 9.854013 L 16.4637588 55.63759 C 12.97248291 80.20134 12.97248291 79.39597 9.070469339999999 89.865776" />
<path class="stroke" d="M 16.49124066 9.854013 L 37.3379568 9.854013 L 37.3379568 86.05839 C 37.3379568 88.39416 36.7423329 90.43795 35.25328284 90.43795 L 33.6153291 90.43795" />
<path class="stroke" d="M 16.49124066 31.862577 L 37.3379568 31.862577" />
<path class="stroke" d="M 16.49124066 55.110336 L 37.3379568 55.110336" />
<path class="stroke" d="M 43.13722557 8.67508 L 96.44007355 8.67508" />
<path class="stroke" d="M 70.462153 8.67508 C 63.534688 21.714 53.720825 30.3365 45.253963999999996 35.489" />
<path class="stroke" d="M 62.76499 20.347 C 71.488417 30.8623 74.823836 76.3933 69.307545 91.6404 C 67.319128 96.4774 63.021556000000004 93.1125 61.225594 92.2713" />
<path class="stroke" d="M 68.730302 35.8044 C 61.674554 46.8453 54.426412 52.8393 44.4842294 59.7792" />
<path class="stroke" d="M 71.039457 54.1009 C 65.972126 65.1421 53.977391 76.4984 44.2917988 83.123" />
<path class="stroke" d="M 89.8974667 22.23975 C 85.9847437 30.44165 81.3023227 37.38165 76.81229569999999 42.74455" />
<path class="stroke" d="M 71.23183879999999 50.31544 C 78.5441528 63.144043 85.6640728 75.97274 94.5157828 84.06944" />
</svg>
