<?xml version="1.0" standalone="no"?>
<!DOCTYPE svg PUBLIC "-//W3C//DTD SVG 1.1//EN" "http://www.w3.org/Graphics/SVG/1.1/DTD/svg11.dtd">
<svg xmlns="http://www.w3.org/2000/svg" version="1.1" width="100%" height="100%">
<style type="text/css"><![CDATA[
  .stroke { fill:none; stroke:black; stroke-width:2 }
]]></style>
<path class="stroke" d="M 29.367776900000003 7.0978 L 29.367776900000003 15.9306" />
<path class="stroke" d="M 14.019757400000001 16.246 L 44.317171800000004 16.246 L 44.317171800000004 54.7318" />
<path class="stroke" d="M 14.019724400000001 36.4353 L 44.31713770000001 36.4353" />
<path class="stroke" d="M 14.019757400000001 54.7318 L 44.317171800000004 54.7318" />
<path class="stroke" d="M 14.019757400000001 16.246 L 14.019757400000001 91.0094 M 6.7796809300000005 93.5331 C 17.918610600000004 89.4399 31.467289700000002 86.602 42.846788600000004 85.9563" />
<path class="stroke" d="M 29.350807200000002 72.3419 C 37.396353500000004 77.0212 43.40686900000001 83.5764 45.80547620000001 91.6482" />
<path class="stroke" d="M 65.7846713 14.26277222 L 65.755034 57.2993346 C 61.98993255 80.3892596 61.98993255 79.63221180000001 57.7818787 89.47382943999999" />
<path class="stroke" d="M 65.7846713 14.26277222 L 88.266424 14.26277222 L 88.266424 85.89488659999999 C 88.266424 88.0905104 87.62408450000001 90.011673 86.0182462 90.011673 L 84.2518255 90.011673" />
<path class="stroke" d="M 65.7846713 34.95082238 L 88.266424 34.95082238" />
<path class="stroke" d="M 65.7846713 56.803715839999995 L 88.266424 56.803715839999995" />
</svg>
