<?xml version="1.0" standalone="no"?>
<!DOCTYPE svg PUBLIC "-//W3C//DTD SVG 1.1//EN" "http://www.w3.org/Graphics/SVG/1.1/DTD/svg11.dtd">
<svg xmlns="http://www.w3.org/2000/svg" version="1.1" width="100%" height="100%">
<style type="text/css"><![CDATA[
  .stroke { fill:none; stroke:black; stroke-width:2 }
]]></style>
<path class="stroke" d="M 23.002660180000003 9.562042 L 23.002660180000003 19.543037" />
<path class="stroke" d="M 9.63649584 19.857473 L 36.36350324000001 19.857473" />
<path class="stroke" d="M 13.44570432 20.1671 L 17.157662820000002 41.970802" />
<path class="stroke" d="M 32.2703156 20.172009 L 28.70802592 41.970802" />
<path class="stroke" d="M 4.6671531 41.970802 L 41.3328446 41.970802" />
<path class="stroke" d="M 14.471531 54.525543 L 14.471531 90.72992" />
<path class="stroke" d="M 14.337225260000002 54.525543 L 31.662772900000004 54.525543 L 31.662772900000004 90.14598" />
<path class="stroke" d="M 14.471531 71.5743 L 31.662772900000004 71.5743" />
<path class="stroke" d="M 14.740144780000001 87.22627 L 31.662772900000004 87.22627" />
<path class="stroke" d="M 59.355912112 11.9883208 L 59.355912112 29.478539199999997" />
<path class="stroke" d="M 59.355912112 11.9883208 L 80.74218880000001 11.9883208 L 80.74218880000001 29.310364479999997" />
<path class="stroke" d="M 59.355912112 28.133137407999996 L 80.74218880000001 28.133137407999996" />
<path class="stroke" d="M 56.2481752 43.4651085376 L 56.2481752 82.39205574399999" />
<path class="stroke" d="M 56.423356600000005 43.4651085376 L 83.75182000000001 43.4651085376 L 83.75182000000001 82.39205574399999" />
<path class="stroke" d="M 56.4293188 56.752476544000004 L 83.7227704 56.752476544000004" />
<path class="stroke" d="M 56.4293188 69.83508979839999 L 83.7227704 69.83508979839999" />
<path class="stroke" d="M 56.423356600000005 82.21827520000001 L 83.576638 82.21827520000001" />
<path class="stroke" d="M 59.9270068 86.38902015999999 C 58.5255472 89.34329536 56.2481752 90.90732620799999 53.620438 91.602448384" />
<path class="stroke" d="M 80.77372 86.562800704 C 83.401456 87.25792288 85.328464 88.82195372800001 86.905108 91.602448384" />
</svg>
