<?xml version="1.0" standalone="no"?>
<!DOCTYPE svg PUBLIC "-//W3C//DTD SVG 1.1//EN" "http://www.w3.org/Graphics/SVG/1.1/DTD/svg11.dtd">
<svg xmlns="http://www.w3.org/2000/svg" version="1.1" width="100%" height="100%">
<style type="text/css"><![CDATA[
  .stroke { fill:none; stroke:black; stroke-width:2 }
]]></style>
<path class="stroke" d="M 22.75504895348837 11.89781 C 22.042098139534883 30.875912 17.52673430232558 45.47445 13.249022093023257 55.693428 C 21.566796511627906 60.9489 28.696316046511626 70.0 34.16228069767442 81.386856" />
<path class="stroke" d="M 33.20285581395349 26.831684 C 31.51047558139535 53.564358 24.65625465116279 69.70802 13.011372906976744 79.34306" />
<path class="stroke" d="M 8.25835988372093 33.79562 L 34.653465000000004 29.80198" />
<path class="stroke" d="M 46.512913600000005 10.54891 L 87.65361759999999 10.54891 L 87.65361759999999 33.26182" />
<path class="stroke" d="M 46.3463824 21.526801 L 87.65361759999999 21.526801" />
<path class="stroke" d="M 46.512913600000005 33.26182 L 87.65361759999999 33.26182" />
<path class="stroke" d="M 40.503648580000004 42.8408746 L 40.503648580000004 51.71094614" />
<path class="stroke" d="M 40.503648580000004 42.47882994 L 93.4963468 42.47882994 L 93.4963468 51.891967539999996" />
<path class="stroke" d="M 49.9652548 53.6094871 L 49.9652548 77.2153265" />
<path class="stroke" d="M 49.9652548 53.6094871 L 84.34306288000002 53.6094871 L 84.34306288000002 75.930653 C 84.34306288000002 78.33941100000001 82.95561616 79.784668 81.41400928000002 79.94525150000001 L 80.02656784 79.94525150000001" />
<path class="stroke" d="M 67.07707744000001 45.41970715 L 67.07707744000001 89.580289" />
</svg>
