<?xml version="1.0" standalone="no"?>
<!DOCTYPE svg PUBLIC "-//W3C//DTD SVG 1.1//EN" "http://www.w3.org/Graphics/SVG/1.1/DTD/svg11.dtd">
<svg xmlns="http://www.w3.org/2000/svg" version="1.1" width="100%" height="100%">
<style type="text/css"><![CDATA[
  .stroke { fill:none; stroke:black; stroke-width:2 }
]]></style>
<path class="stroke" d="M 23.038319791666666 9.562042 C 26.687956250000003 11.021896 30.3375875 14.817516 32.77067708333333 19.48905" />
<path class="stroke" d="M 10.264596875 22.8707 L 44.327854166666675 22.8707" />
<path class="stroke" d="M 16.955593750000002 37.007298 L 37.63686041666667 37.007298" />
<path class="stroke" d="M 16.955593750000002 51.313866 L 37.63686041666667 51.313866" />
<path class="stroke" d="M 15.739050000000002 64.45255 L 15.739050000000002 85.76642" />
<path class="stroke" d="M 15.739050000000002 64.16058 L 39.461677083333335 64.16058 L 39.461677083333335 85.76642" />
<path class="stroke" d="M 15.739050000000002 85.76642 L 39.15754166666667 85.76642" />
<path class="stroke" d="M 62.06625 10.2524 L 89.98425 10.2524 L 89.98425 40.2208" />
<path class="stroke" d="M 62.22395 40.2208 L 89.98425 40.2208" />
<path class="stroke" d="M 62.06625 10.2524 L 62.06625 53.7855 C 61.85595 69.2429 58.49105 84.7004 53.548895 93.5332" />
<path class="stroke" d="M 75.6309 40.5363 C 77.4185 66.1935 82.9916 84.9106 96.29339999999999 92.9022" />
</svg>
