<?xml version="1.0" standalone="no"?>
<!DOCTYPE svg PUBLIC "-//W3C//DTD SVG 1.1//EN" "http://www.w3.org/Graphics/SVG/1.1/DTD/svg11.dtd">
<svg xmlns="http://www.w3.org/2000/svg" version="1.1" width="100%" height="100%">
<style type="text/css"><![CDATA[
  .stroke { fill:none; stroke:black; stroke-width:2 }
]]></style>
<path class="stroke" d="M 12.9343064 9.854013 L 12.912752000000001 55.63759 C 10.1744964 80.20134 10.1744964 79.39597 7.1140936 89.865776" />
<path class="stroke" d="M 12.9343064 9.854013 L 29.284672 9.854013 L 29.284672 86.05839 C 29.284672 88.39416 28.817516 90.43795 27.6496336 90.43795 L 26.364964 90.43795" />
<path class="stroke" d="M 12.9343064 31.862577 L 29.284672 31.862577" />
<path class="stroke" d="M 12.9343064 55.110336 L 29.284672 55.110336" />
<path class="stroke" d="M 51.52997 6.46687 C 49.46903 22.45 44.09569 38.1177 34.747631 48.1072" />
<path class="stroke" d="M 49.54253 22.5552 L 93.04417000000001 22.8706 L 92.82332 58.2019 C 92.38168999999999 74.1851 87.74454 92.6919 79.79499 92.9022 L 76.48266000000001 92.9022" />
<path class="stroke" d="M 48.15252306 36.0962163 L 48.15252306 81.405381 L 82.5474852 81.405381" />
<path class="stroke" d="M 82.5474852 35.7618287 L 82.5474852 81.405381" />
<path class="stroke" d="M 77.125019872 38.95189764 C 74.13548881 50.6336128 63.13083949 66.951592 53.7437951583 72.9956908" />
<path class="stroke" d="M 57.96423307229999 42.665765368 C 63.37403041 46.6655664 71.79473284 58.74804 76.38506263999999 68.2891424" />
</svg>
