<?xml version="1.0" standalone="no"?>
<!DOCTYPE svg PUBLIC "-//W3C//DTD SVG 1.1//EN" "http://www.w3.org/Graphics/SVG/1.1/DTD/svg11.dtd">
<svg xmlns="http://www.w3.org/2000/svg" version="1.1" width="100%" height="100%">
<style type="text/css"><![CDATA[
  .stroke { fill:none; stroke:black; stroke-width:2 }
]]></style>
<path class="stroke" d="M 3.23344 11.1987 L 46.76655 11.1987" />
<path class="stroke" d="M 22.1609 11.5142 C 19.5847 24.8686 16.405405 31.189186 6.999999 45.13513 M 6.8612 44.95273 C 18.2703 43.16513 28.89065 40.43113 38.88015 35.17353" />
<path class="stroke" d="M 35.4101 26.65623 C 37.9338 31.07253 39.8265 37.06623 41.24605 43.05993" />
<path class="stroke" d="M 12.2239925 65.77287 L 39.511045 65.77287" />
<path class="stroke" d="M 25.4732 50.31547 L 25.486485 87.297295" />
<path class="stroke" d="M 8.2972965 95.0 L 43.6486475 78.540535" />
<path class="stroke" d="M 68.168318 9.90099 C 66.6831685 22.673267 63.118812500000004 37.82178 57.623762 46.435642" />
<path class="stroke" d="M 62.970297 35.742573 L 88.069305 35.742573" />
<path class="stroke" d="M 76.48515 36.039604 C 74.70297 61.287132 67.1287135 82.376236 55.247525 89.80198" />
<path class="stroke" d="M 62.970297 43.465347 C 66.237623 61.58416 82.12871 90.09901 90.89108999999999 90.09901" />
</svg>
