<?xml version="1.0" standalone="no"?>
<!DOCTYPE svg PUBLIC "-//W3C//DTD SVG 1.1//EN" "http://www.w3.org/Graphics/SVG/1.1/DTD/svg11.dtd">
<svg xmlns="http://www.w3.org/2000/svg" version="1.1" width="100%" height="100%">
<style type="text/css"><![CDATA[
  .stroke { fill:none; stroke:black; stroke-width:2 }
]]></style>
<path class="stroke" d="M 72.05675 5.4038016 C 62.91686599999999 10.693382399999999 42.912638 15.740697599999999 21.356395999999997 17.820192" />
<path class="stroke" d="M 15.401459 27.87372198 L 84.8905 27.87372198" />
<path class="stroke" d="M 49.43925 14.385980969999999 L 49.065422 14.576635799999998 C 45.126904 30.150760799999997 33.364487 35.7392541 6.074766 45.462618299999995" />
<path class="stroke" d="M 58.037384 27.92242902 C 66.26168 34.404672839999996 72.990654 40.124299380000004 89.81309 45.8439249" />
<path class="stroke" d="M 44.6372 50.31543 L 44.6372 86.90853 C 44.532 90.79913 41.5878 92.79703 38.6435 92.90223 L 34.2271 92.90223" />
<path class="stroke" d="M 27.60252 67.0347 C 25.39432 74.5005 20.97792 82.5972 12.77603 87.5394" />
<path class="stroke" d="M 61.04106 66.71924 C 67.35016 73.34384 70.82016 79.65304 73.34386 87.53944" />
<path class="stroke" d="M 76.18295 64.19556 C 81.54585 69.453156 85.33125 75.02626 88.48585 82.17676" />
</svg>
