<?xml version="1.0" standalone="no"?>
<!DOCTYPE svg PUBLIC "-//W3C//DTD SVG 1.1//EN" "http://www.w3.org/Graphics/SVG/1.1/DTD/svg11.dtd">
<svg xmlns="http://www.w3.org/2000/svg" version="1.1" width="100%" height="100%">
<style type="text/css"><![CDATA[
  .stroke { fill:none; stroke:black; stroke-width:2 }
]]></style>
<path class="stroke" d="M 8.82727755 12.1070215445 L 39.973984050000006 12.1070215445 L 39.973984050000006 34.403549693" />
<path class="stroke" d="M 8.82727755 34.403549693 L 39.973984050000006 34.403549693" />
<path class="stroke" d="M 8.82727755 12.1070215445 L 8.82727755 56.421343310000005 C 8.87514355 69.42761186 7.9182330499999996 76.58113465999999 2.7988961 88.19394259250001" />
<path class="stroke" d="M 13.826215885 54.2485131235 L 13.826215885 93.50148315249999" />
<path class="stroke" d="M 13.826215885 54.3994859455 L 37.8586468 54.3994859455 L 37.8586468 93.65245644" />
<path class="stroke" d="M 14.288378155 92.14272821999998 L 37.766214175 92.14272821999998" />
<path class="stroke" d="M 75.00002 5.96687934 L 75.00002 14.840681839999998" />
<path class="stroke" d="M 56.2303 15.452691699999999 L 93.92745 15.452691699999999" />
<path class="stroke" d="M 62.224000000000004 15.452682 L 68.8486 43.604119" />
<path class="stroke" d="M 86.98740000000001 15.758716999999997 L 80.3628 44.216091999999996" />
<path class="stroke" d="M 53.0757075 44.5220979 L 97.08201 44.5220979" />
<path class="stroke" d="M 56.388035 69.6135632 L 93.138835 69.6135632" />
<path class="stroke" d="M 74.84225 44.52207268 L 74.84225 92.2571268" />
</svg>
