<?xml version="1.0" standalone="no"?>
<!DOCTYPE svg PUBLIC "-//W3C//DTD SVG 1.1//EN" "http://www.w3.org/Graphics/SVG/1.1/DTD/svg11.dtd">
<svg xmlns="http://www.w3.org/2000/svg" version="1.1" width="100%" height="100%">
<style type="text/css"><![CDATA[
  .stroke { fill:none; stroke:black; stroke-width:2 }
]]></style>
<path class="stroke" d="M 26.769344444444446 9.306931 C 22.527680555555555 17.680412 15.511645370370369 26.030926 9.167583333333333 30.69307" />
<path class="stroke" d="M 27.044370370370373 9.306931 C 31.548299074074077 14.123711 36.13020370370371 17.216494 41.57120740740741 19.536081" />
<path class="stroke" d="M 27.682318518518517 19.999998 C 29.830083333333334 22.319588 30.54600925925926 24.639175 31.118746296296298 27.731956" />
<path class="stroke" d="M 19.234439814814817 29.896904 L 40.28255 29.896904 L 40.28255 57.72277" />
<path class="stroke" d="M 19.618627777777778 43.81443 L 39.60635925925926 43.81443" />
<path class="stroke" d="M 19.3436 57.72277 L 40.245691666666666 57.72277" />
<path class="stroke" d="M 19.234439814814817 29.896904 L 19.234439814814817 89.896904 C 26.823212962962963 87.57732 33.149564814814816 83.55427 38.73375925925926 79.842926" />
<path class="stroke" d="M 34.98472592592593 74.12371 C 37.705231481481476 76.90721 40.28255 82.16495 41.42802592592593 85.87628" />
<path class="stroke" d="M 60.2153265 11.605839 C 59.25182385 22.116787 56.68248125 32.627735 53.47080245 39.927006" />
<path class="stroke" d="M 57.8065696 26.204376 L 90.08394000000001 26.204376 C 89.7627708 34.37956 88.15693250000001 39.927006 85.10583500000001 45.47445" />
<path class="stroke" d="M 72.7408747 30.875912 C 72.7408747 62.408752 62.78392 79.653 50.41970715 90.14598" />
<path class="stroke" d="M 72.58028900000001 48.394157 C 76.27372215 63.868607 81.73357325 80.21897 94.7408725 90.14598" />
</svg>
