<?xml version="1.0" standalone="no"?>
<!DOCTYPE svg PUBLIC "-//W3C//DTD SVG 1.1//EN" "http://www.w3.org/Graphics/SVG/1.1/DTD/svg11.dtd">
<svg xmlns="http://www.w3.org/2000/svg" version="1.1" width="100%" height="100%">
<style type="text/css"><![CDATA[
  .stroke { fill:none; stroke:black; stroke-width:2 }
]]></style>
<path class="stroke" d="M 18.430655833333333 9.562042 C 21.350365 11.021896 24.27007 14.817516 26.216541666666668 19.48905" />
<path class="stroke" d="M 8.2116775 22.8707 L 35.46228333333334 22.8707" />
<path class="stroke" d="M 13.564475000000002 37.007298 L 30.109488333333335 37.007298" />
<path class="stroke" d="M 13.564475000000002 51.313866 L 30.109488333333335 51.313866" />
<path class="stroke" d="M 12.59124 64.45255 L 12.59124 85.76642" />
<path class="stroke" d="M 12.59124 64.16058 L 31.569341666666666 64.16058 L 31.569341666666666 85.76642" />
<path class="stroke" d="M 12.59124 85.76642 L 31.326033333333335 85.76642" />
<path class="stroke" d="M 40.8438445 16.87696 L 94.7712765 16.87696" />
<path class="stroke" d="M 58.887980999999996 6.46687 L 58.887980999999996 41.16724" />
<path class="stroke" d="M 77.752359 6.46687 L 77.752359 41.4826" />
<path class="stroke" d="M 43.0993705 28.8643 L 93.13094950000001 28.8643" />
<path class="stroke" d="M 39.40851775 41.4826 L 96.41168475 41.4826" />
<path class="stroke" d="M 50.4810435 53.78545 L 50.4810435 94.47945" />
<path class="stroke" d="M 50.4810435 53.78545 L 86.1593485 53.78545 L 86.1593485 89.11675 C 86.1593485 92.16615 84.7239535 94.58465 82.87853849999999 94.47945 L 79.80280350000001 94.47945" />
<path class="stroke" d="M 68.3201895 42.74451 L 68.3201895 79.02201" />
<path class="stroke" d="M 50.8911935 66.71923 L 85.7491985 66.71923" />
<path class="stroke" d="M 39.40851775 79.3375 L 96.41168475 79.3375" />
</svg>
