<?xml version="1.0" standalone="no"?>
<!DOCTYPE svg PUBLIC "-//W3C//DTD SVG 1.1//EN" "http://www.w3.org/Graphics/SVG/1.1/DTD/svg11.dtd">
<svg xmlns="http://www.w3.org/2000/svg" version="1.1" width="100%" height="100%">
<style type="text/css"><![CDATA[
  .stroke { fill:none; stroke:black; stroke-width:2 }
]]></style>
<path class="stroke" d="M 27.2871 3.7981048000000004 C 25.7098 13.219752000000002 18.1389 22.288112 6.15142 29.589896000000003" />
<path class="stroke" d="M 23.5015 15.28072 L 46.5299 15.28072 C 40.0105 33.476296000000005 27.1819 42.66248000000001 7.41325 52.55521600000001" />
<path class="stroke" d="M 16.87687 22.876968800000004 L 37.06617 31.179864800000004" />
<path class="stroke" d="M 55.362743 15.457428000000002 L 93.53314 15.457428000000002" />
<path class="stroke" d="M 60.72553 15.63408 L 60.72553 34.889568000000004" />
<path class="stroke" d="M 50.000084 34.889568000000004 L 93.84859 34.889568000000004" />
<path class="stroke" d="M 79.0221 3.9747624000000004 L 79.0221 52.201912" />
<path class="stroke" d="M 20.07299 61.934305 L 80.21897 61.934305" />
<path class="stroke" d="M 50.14598 54.489051 L 50.14598 95.36496" />
<path class="stroke" d="M 50.14598 64.4160575 C 40.51095 75.656933 28.832115 81.642334 13.649633 84.70802499999999" />
<path class="stroke" d="M 50.14598 64.4160575 C 59.197075 75.8029175 71.45985 81.7883185 86.642334 84.4160575" />
</svg>
