<?xml version="1.0" standalone="no"?>
<!DOCTYPE svg PUBLIC "-//W3C//DTD SVG 1.1//EN" "http://www.w3.org/Graphics/SVG/1.1/DTD/svg11.dtd">
<svg xmlns="http://www.w3.org/2000/svg" version="1.1" width="100%" height="100%">
<style type="text/css"><![CDATA[
  .stroke { fill:none; stroke:black; stroke-width:2 }
]]></style>
<path class="stroke" d="M 27.66423 9.270073 L 73.795616 9.270073 C 65.91241 17.153284 60.36496 19.197079 50.729923 21.824816" />
<path class="stroke" d="M 46.05839 18.029196 C 49.562042 20.948904 51.897808 23.576641 53.357662 27.372261" />
<path class="stroke" d="M 24.3540142 29.878707320700002 L 24.3540142 55.476019332999996" />
<path class="stroke" d="M 24.3540142 29.7771306098 L 74.8357624 29.7771306098 L 74.8357624 55.476019332999996" />
<path class="stroke" d="M 49.594887 29.878707320700002 L 49.594887 53.64764132" />
<path class="stroke" d="M 24.3540142 41.705541728200004 L 74.456204 41.705541728200004" />
<path class="stroke" d="M 24.3540142 53.64764132 L 74.8357624 53.64764132" />
<path class="stroke" d="M 23.02262458 65.3175544314 L 75.25327850000001 64.4386056856 C 73.95401199999999 76.96362625399999 70.0562036 83.66561204 68.75693354 85.09390384599999 C 67.19780395 86.30245752479999 64.0795599 86.63206396300001 61.481018 86.74193227399999 L 58.8824761 86.63206396300001" />
<path class="stroke" d="M 48.7481707 56.7478028428 C 45.6299222 69.0530864129 35.4956168 81.5781084865 19.12481618 85.09390384599999" />
</svg>
