<?xml version="1.0" standalone="no"?>
<!DOCTYPE svg PUBLIC "-//W3C//DTD SVG 1.1//EN" "http://www.w3.org/Graphics/SVG/1.1/DTD/svg11.dtd">
<svg xmlns="http://www.w3.org/2000/svg" version="1.1" width="100%" height="100%">
<style type="text/css"><![CDATA[
  .stroke { fill:none; stroke:black; stroke-width:2 }
]]></style>
<path class="stroke" d="M 10.961809821428572 14.059406 C 13.879066071428571 16.138615 16.796323214285717 19.108912 19.183169642857145 22.673267" />
<path class="stroke" d="M 9.105374107142858 38.118813 C 11.757426785714285 39.90099 14.939887500000001 42.574257 17.06152857142857 46.138615" />
<path class="stroke" d="M 8.840169642857143 85.64356 C 9.434829464285714 87.422676 11.091678571428572 89.896904 13.024666964285714 89.896904 C 14.957658035714285 89.896904 17.5919375 76.73267 19.448374107142858 69.60396" />
<path class="stroke" d="M 29.9227081 16.87696 L 93.8059737 16.87696" />
<path class="stroke" d="M 51.2980698 6.46687 L 51.2980698 41.16724" />
<path class="stroke" d="M 73.6451022 6.46687 L 73.6451022 41.4826" />
<path class="stroke" d="M 32.5946389 28.8643 L 91.8628171 28.8643" />
<path class="stroke" d="M 28.22239795 41.4826 L 95.74922655 41.4826" />
<path class="stroke" d="M 41.3390823 53.78545 L 41.3390823 94.47945" />
<path class="stroke" d="M 41.3390823 53.78545 L 83.6041513 53.78545 L 83.6041513 89.11675 C 83.6041513 92.16615 81.9037603 94.58465 79.7176533 94.47945 L 76.0740903 94.47945" />
<path class="stroke" d="M 62.4716091 42.74451 L 62.4716091 79.02201" />
<path class="stroke" d="M 41.8249523 66.71923 L 83.1182813 66.71923" />
<path class="stroke" d="M 28.22239795 79.3375 L 95.74922655 79.3375" />
</svg>
