<?xml version="1.0" standalone="no"?>
<!DOCTYPE svg PUBLIC "-//W3C//DTD SVG 1.1//EN" "http://www.w3.org/Graphics/SVG/1.1/DTD/svg11.dtd">
<svg xmlns="http://www.w3.org/2000/svg" version="1.1" width="100%" height="100%">
<style type="text/css"><![CDATA[
  .stroke { fill:none; stroke:black; stroke-width:2 }
]]></style>
<path class="stroke" d="M 13.154171785714285 14.059406 C 16.654879285714284 16.138615 20.15558785714286 19.108912 23.01980357142857 22.673267" />
<path class="stroke" d="M 10.926448928571428 38.118813 C 14.108912142857141 39.90099 17.927864999999997 42.574257 20.473834285714286 46.138615" />
<path class="stroke" d="M 10.608203571428572 85.64356 C 11.321795357142857 87.422676 13.310014285714285 89.896904 15.629600357142856 89.896904 C 17.949189642857142 89.896904 21.110325 76.73267 23.33804892857143 69.60396" />
<path class="stroke" d="M 35.831587999999996 8.990537 L 35.831587999999996 74.60566" />
<path class="stroke" d="M 35.831587999999996 8.990537 L 58.96011147826087 8.990537 L 58.96011147826087 74.60566" />
<path class="stroke" d="M 35.831587999999996 31.072573 L 58.643239739130436 31.072573" />
<path class="stroke" d="M 35.831587999999996 53.1546 L 58.643239739130436 53.1546" />
<path class="stroke" d="M 35.831587999999996 74.60566 L 58.96011147826087 74.60566" />
<path class="stroke" d="M 41.53443565217391 82.1766 C 39.42229217391304 87.4343 35.40911913043478 91.7455 29.494986826086958 95.1104" />
<path class="stroke" d="M 52.62355047826087 82.49213 C 55.686208739130436 85.43633 57.798352217391304 88.38063 58.96008134782608 92.58673" />
<path class="stroke" d="M 73.94263405 12.1451 L 73.94263405 68.612" />
<path class="stroke" d="M 87.63016175 6.78233 L 87.63016175 84.0694 C 87.72331634999999 89.6425 84.7436974 92.3765 81.2054165 92.2713 L 78.1327315 92.2713" />
</svg>
