<?xml version="1.0" standalone="no"?>
<!DOCTYPE svg PUBLIC "-//W3C//DTD SVG 1.1//EN" "http://www.w3.org/Graphics/SVG/1.1/DTD/svg11.dtd">
<svg xmlns="http://www.w3.org/2000/svg" version="1.1" width="100%" height="100%">
<style type="text/css"><![CDATA[
  .stroke { fill:none; stroke:black; stroke-width:2 }
]]></style>
<path class="stroke" d="M 28.7065685 9.35694780392157 C 32.56058306 11.738514156862745 35.64379418 15.013166745098038 37.95620318 18.138972392156862" />
<path class="stroke" d="M 69.5591198 9.35694780392157 C 67.98668696 12.30413549019608 64.7416016 15.757405019607845 61.4656916 18.287819333333335" />
<path class="stroke" d="M 9.562042 20.366666666666667 L 90.43795 20.366666666666667" />
<path class="stroke" d="M 19.78588786666667 34.748904780000004 L 19.78588786666667 86.81897000000001" />
<path class="stroke" d="M 19.78588786666667 34.748904780000004 L 43.62043523333334 34.748904780000004 L 43.62043523333334 87.89926639999999 C 43.62043523333334 88.9795554 42.11191943333334 90.7080252 40.0 90.49196740000001 L 38.18977876666667 90.49196740000001" />
<path class="stroke" d="M 19.78588786666667 49.2248166 L 43.62043523333334 49.2248166" />
<path class="stroke" d="M 19.78588786666667 64.13284476 L 43.318733933333334 64.13284476" />
<path class="stroke" d="M 61.532845 37.34160504 L 61.532845 62.404377919999995" />
<path class="stroke" d="M 79.927 33.02043646 L 79.927 86.81897000000001 C 79.927 88.76349760000001 77.59124 90.49196740000001 75.54744 90.7080252 L 73.21168 90.7080252" />
</svg>
