<?xml version="1.0" standalone="no"?>
<!DOCTYPE svg PUBLIC "-//W3C//DTD SVG 1.1//EN" "http://www.w3.org/Graphics/SVG/1.1/DTD/svg11.dtd">
<svg xmlns="http://www.w3.org/2000/svg" version="1.1" width="100%" height="100%">
<style type="text/css"><![CDATA[
  .stroke { fill:none; stroke:black; stroke-width:2 }
]]></style>
<path class="stroke" d="M 20.770715441176474 11.605839 C 17.979818382352942 27.372261 12.183339705882354 41.970802 7.245597794117647 50.14598" />
<path class="stroke" d="M 16.477026470588235 30.583939 L 16.477026470588235 90.43795" />
<path class="stroke" d="M 62.5 4.227158000000003 L 62.5 20.0" />
<path class="stroke" d="M 30.625 20.0 L 94.375 20.0" />
<path class="stroke" d="M 43.4927002 28.547445 L 43.4927002 40.69343" />
<path class="stroke" d="M 43.4927002 28.547445 L 81.68248 28.547445 L 81.68248 40.576642" />
<path class="stroke" d="M 43.4927002 39.7591232 L 81.68248 39.7591232" />
<path class="stroke" d="M 32.39050975 51.2591225 L 32.39050975 61.98904775" />
<path class="stroke" d="M 32.39050975 50.82116525 L 92.60948499999999 50.82116525 L 92.60948499999999 62.20802525" />
<path class="stroke" d="M 40.810218774999996 61.42992701 L 84.343063375 61.42992701" />
<path class="stroke" d="M 62.5766395 61.75401445 L 62.5766395 90.05766358 C 62.5766395 90.7058392 61.81021825 91.57007039999999 60.737225349999996 91.57007039999999 L 57.824815674999996 91.57007039999999" />
</svg>
