<?xml version="1.0" standalone="no"?>
<!DOCTYPE svg PUBLIC "-//W3C//DTD SVG 1.1//EN" "http://www.w3.org/Graphics/SVG/1.1/DTD/svg11.dtd">
<svg xmlns="http://www.w3.org/2000/svg" version="1.1" width="100%" height="100%">
<style type="text/css"><![CDATA[
  .stroke { fill:none; stroke:black; stroke-width:2 }
]]></style>
<path class="stroke" d="M 27.918 5.5205 C 21.8192 17.8233 14.4585 30.7571 4.88959 40.5363" />
<path class="stroke" d="M 27.918 5.83596 C 34.0168 11.8296 38.2229 18.4543 42.7445 25.0789" />
<path class="stroke" d="M 12.1451 33.59624 L 40.2208 33.59624" />
<path class="stroke" d="M 6.782335 51.57724 L 44.006287 51.57724" />
<path class="stroke" d="M 27.287043 33.9117 L 27.287043 88.1703" />
<path class="stroke" d="M 6.46688 61.672 C 10.7781 65.878 14.143 70.3996 17.5079 75.2366" />
<path class="stroke" d="M 43.06 61.6719 C 40.7466 67.4553 37.4868 72.2923 33.2807 77.1294" />
<path class="stroke" d="M 8.04416 94.4795 L 42.7445 83.7539" />
<path class="stroke" d="M 50.642335 7.245597794117647 C 54.1459846 10.680549264705883 56.9489038 15.403605882352942 59.051093800000004 19.911979411764708" />
<path class="stroke" d="M 87.78101799999999 7.245597794117647 C 86.3515336 11.496349264705882 83.401456 16.477026470588235 80.423356 20.126662500000002" />
<path class="stroke" d="M 53.914744144 23.895218337499998 L 53.914744144 54.351275724999994" />
<path class="stroke" d="M 53.914744144 23.895218337499998 L 81.41138559999999 23.895218337499998 L 81.41138559999999 54.058429815000004" />
<path class="stroke" d="M 53.914744144 52.008501423999995 L 81.41138559999999 52.008501423999995" />
<path class="stroke" d="M 62.2043788 56.545145207 L 62.2043788 68.316092954 C 62.2043788 78.69477915499999 57.6496348 88.94689549399999 46.2627736 91.604851325" />
<path class="stroke" d="M 72.5401444 56.4185766455 L 72.5401444 86.28894053 C 72.5401444 89.453174075 74.8175188 91.351713335 77.27006979999999 91.351713335 L 90.93430000000001 91.351713335 C 92.861314 91.47828233 94.26276999999999 90.465726035 94.26276999999999 89.073462755 L 94.26276999999999 86.668649249" />
</svg>
