<?xml version="1.0" standalone="no"?>
<!DOCTYPE svg PUBLIC "-//W3C//DTD SVG 1.1//EN" "http://www.w3.org/Graphics/SVG/1.1/DTD/svg11.dtd">
<svg xmlns="http://www.w3.org/2000/svg" version="1.1" width="100%" height="100%">
<style type="text/css"><![CDATA[
  .stroke { fill:none; stroke:black; stroke-width:2 }
]]></style>
<path class="stroke" d="M 20.770715441176474 11.605839 C 17.979818382352942 27.372261 12.183339705882354 41.970802 7.245597794117647 50.14598" />
<path class="stroke" d="M 16.477026470588235 30.583939 L 16.477026470588235 90.43795" />
<path class="stroke" d="M 32.64851425 14.059406 L 44.2326745 14.059406 C 42.89603875 28.316833 39.55445575 36.930695 34.43069275 46.138615" />
<path class="stroke" d="M 34.43069275 46.138615 L 44.2326745 46.138615 C 42.31075 64.1955 39.156175000000005 77.4448 32.20297 90.09901" />
<path class="stroke" d="M 32.64851425 64.55446 C 39.7772275 66.33663 50.470297 84.15842 64.72772499999999 86.237625 C 74.7524725 88.019806 79.430695 89.50495 92.351485 89.50495" />
<path class="stroke" d="M 59.1769804375 17.033662 L 87.07920625 17.033662 L 87.07920625 43.267324" />
<path class="stroke" d="M 49.4863856875 29.87722632 L 94.430693125 29.87722632" />
<path class="stroke" d="M 57.1720290625 43.267324 L 87.07920625 43.267324" />
<path class="stroke" d="M 57.004951375 56.6574272 L 86.912126875 56.6574272" />
<path class="stroke" d="M 51.9925740625 70.32079432 L 91.590349375 70.32079432" />
<path class="stroke" d="M 71.875 8.835643200000002 L 71.875 82.89108920000001" />
</svg>
