<?xml version="1.0" standalone="no"?>
<!DOCTYPE svg PUBLIC "-//W3C//DTD SVG 1.1//EN" "http://www.w3.org/Graphics/SVG/1.1/DTD/svg11.dtd">
<svg xmlns="http://www.w3.org/2000/svg" version="1.1" width="100%" height="100%">
<style type="text/css"><![CDATA[
  .stroke { fill:none; stroke:black; stroke-width:2 }
]]></style>
<path class="stroke" d="M 14.3533 3.3313405172413795 L 50.0 3.3313405172413795 C 41.4826 12.804137931034482 30.7571 17.65383620689655 7.09779 22.775474137931035" />
<path class="stroke" d="M 15.930558 9.72210775862069 C 19.190258 10.900512931034482 21.503658 12.21490948275862 23.817059 13.665297413793102" />
<path class="stroke" d="M 77.76028 3.8752306034482755 L 64.82658 9.178196120689654" />
<path class="stroke" d="M 50.3154 3.467310344827586 C 59.2534 13.257413793103447 72.6078 18.96823275862069 92.9022 23.047456896551722" />
<path class="stroke" d="M 89.11671 9.993995689655172 L 76.81381 15.025030172413791" />
<path class="stroke" d="M 16.594593 34.77026875 L 81.45946 34.77026875" />
<path class="stroke" d="M 24.744522 48.37591075 L 24.744522 63.704376249999996" />
<path class="stroke" d="M 24.744522 48.5948875 L 74.9635 48.5948875 L 74.9635 63.704376249999996" />
<path class="stroke" d="M 24.744522 63.704376249999996 L 74.9635 63.704376249999996" />
<path class="stroke" d="M 31.751823 69.835765 C 35.839413 75.09123625 38.46715 82.0985395 39.927006 89.324815" />
<path class="stroke" d="M 66.20438 69.835765 C 65.03649 76.62408625 62.408752 83.4124075 58.029198 89.76276999999999" />
<path class="stroke" d="M 10.145985 90.20072499999999 L 89.85401 90.20072499999999" />
</svg>
