<?xml version="1.0" standalone="no"?>
<!DOCTYPE svg PUBLIC "-//W3C//DTD SVG 1.1//EN" "http://www.w3.org/Graphics/SVG/1.1/DTD/svg11.dtd">
<svg xmlns="http://www.w3.org/2000/svg" version="1.1" width="100%" height="100%">
<style type="text/css"><![CDATA[
  .stroke { fill:none; stroke:black; stroke-width:2 }
]]></style>
<path class="stroke" d="M 10.267693518518518 11.8297 L 42.445910185185184 11.8297" />
<path class="stroke" d="M 9.71763888888889 30.09901 L 9.71763888888889 89.80198" />
<path class="stroke" d="M 9.71763888888889 30.1262 L 43.546018518518515 30.1262 L 43.546018518518515 89.80198" />
<path class="stroke" d="M 20.99376574074074 11.683168 L 20.99376574074074 40.79208 C 20.99376574074074 47.326733 20.718737037037037 54.455444 14.66813425925926 58.61386" />
<path class="stroke" d="M 31.444811111111115 11.980198 L 31.444811111111115 42.574257 C 31.444811111111115 48.811882 31.444811111111115 53.861385 35.84525 53.861385 L 38.320499999999996 53.861385" />
<path class="stroke" d="M 14.393105555555556 71.9802 L 39.145583333333335 71.9802" />
<path class="stroke" d="M 9.71763888888889 89.80198 L 43.546018518518515 89.80198" />
<path class="stroke" d="M 60.48895 9.93691 C 60.48895 20.8728 58.4385 28.0231 55.2839 34.2271" />
<path class="stroke" d="M 60.33125 22.555246 L 92.5079 22.555246" />
<path class="stroke" d="M 75.15775 6.15142 L 75.15775 45.8991" />
<path class="stroke" d="M 53.548894 46.52997 L 96.60883 46.52997" />
<path class="stroke" d="M 62.3284668 62.98175125 L 62.3284668 90.3102175" />
<path class="stroke" d="M 62.3284668 62.98175125 L 87.78832 62.98175125 L 87.78832 90.04744450000001" />
<path class="stroke" d="M 62.3284668 88.2080272 L 87.78832 88.2080272" />
</svg>
