<?xml version="1.0" standalone="no"?>
<!DOCTYPE svg PUBLIC "-//W3C//DTD SVG 1.1//EN" "http://www.w3.org/Graphics/SVG/1.1/DTD/svg11.dtd">
<svg xmlns="http://www.w3.org/2000/svg" version="1.1" width="100%" height="100%">
<style type="text/css"><![CDATA[
  .stroke { fill:none; stroke:black; stroke-width:2 }
]]></style>
<path class="stroke" d="M 11.313868 17.445253 C 15.401459 18.029196 19.48905 20.364962 22.408756 24.160583" />
<path class="stroke" d="M 9.270073 47.226276 C 13.357662 47.226276 18.321167 46.934303 23.86861 43.138683 C 16.27737 53.357662 14.233576 58.321167 15.109488 60.9489 C 15.69343 63.284668 20.948904 65.62044 22.116787 68.832115 C 23.576641 72.33576 18.129246 80.26506 11.021896 83.722626" />
<path class="stroke" d="M 11.021896 84.014595 C 39.692924 81.65476 40.51095 91.313866 90.43795 90.14598" />
<path class="stroke" d="M 40.0702988 14.01253284 L 40.0702988 57.3694818 C 39.34441282 66.805992 34.26321466 72.6719352 29.907901 74.9673036" />
<path class="stroke" d="M 40.0702988 14.01253284 L 83.578103 13.9138683 L 83.578103 73.12554420000001 C 83.578103 75.17518140000001 82.9299222 76.3138644 80.9853946 76.3138644 L 78.82481290000001 76.3138644" />
<path class="stroke" d="M 52.165371975199996 29.43807717888 L 72.79462541999999 29.43807717888" />
<path class="stroke" d="M 62.48 20.378143866528 L 62.48 41.24834554176" />
<path class="stroke" d="M 49.4084666328 41.24834554176 L 75.456465656 41.24834554176" />
<path class="stroke" d="M 52.165371975199996 51.8486046096 L 52.165371975199996 68.6741947104" />
<path class="stroke" d="M 52.165371975199996 51.8486046096 L 72.88969248 51.8486046096 L 72.88969248 68.51241062976" />
<path class="stroke" d="M 52.165371975199996 67.37991818649601 L 72.88969248 67.37991818649601" />
</svg>
