<?xml version="1.0" standalone="no"?>
<!DOCTYPE svg PUBLIC "-//W3C//DTD SVG 1.1//EN" "http://www.w3.org/Graphics/SVG/1.1/DTD/svg11.dtd">
<svg xmlns="http://www.w3.org/2000/svg" version="1.1" width="100%" height="100%">
<style type="text/css"><![CDATA[
  .stroke { fill:none; stroke:black; stroke-width:2 }
]]></style>
<path class="stroke" d="M 21.506319 10.729925 L 21.506319 23.86861" />
<path class="stroke" d="M 6.53649615 23.86861 L 38.594889 23.86861" />
<path class="stroke" d="M 20.857662 39.343063 L 35.047444500000005 39.343063 C 34.39050975 53.06569 33.8649615 62.116783 32.81386500000001 70.29197 C 31.5 79.63503 29.135033999999997 88.10219 27.0328455 88.10219 L 24.4051083 88.10219" />
<path class="stroke" d="M 21.51459675 23.86861 L 20.5948899 41.38686 C 19.6751817 60.07299 16.2591237 78.46715 11.1350349 84.014595" />
<path class="stroke" d="M 56.32673245 7.9773694285714285 C 55.01980155 14.596888285714286 53.05940575 21.47100257142857 50.4455445 26.053746857142855" />
<path class="stroke" d="M 54.2029707 17.65205057142857 L 94.71782200000001 17.65205057142857" />
<path class="stroke" d="M 51.8940846975 36.446686080000006 L 92.71728588 36.446686080000006" />
<path class="stroke" d="M 62.704956885 28.088327040000003 L 62.704956885 77.1482688" />
<path class="stroke" d="M 81.74501753999999 28.088328768 L 81.74501753999999 77.32996800000001" />
<path class="stroke" d="M 62.866324905 49.711056 L 81.583644405 49.711056" />
<path class="stroke" d="M 63.027682695 62.9753856 L 81.583675095 62.9753856" />
<path class="stroke" d="M 50.76458784 77.6933952 L 94.49218065000001 77.6933952" />
<path class="stroke" d="M 62.436925 83.00569600000001 C 60.81756 87.581952 57.116225 90.058496 52.894315 91.4044416" />
<path class="stroke" d="M 81.175095 83.0056448 C 83.37273 87.5280384 86.43793500000001 89.78923520000001 90.71765 91.4043904" />
</svg>
