<?xml version="1.0" standalone="no"?>
<!DOCTYPE svg PUBLIC "-//W3C//DTD SVG 1.1//EN" "http://www.w3.org/Graphics/SVG/1.1/DTD/svg11.dtd">
<svg xmlns="http://www.w3.org/2000/svg" version="1.1" width="100%" height="100%">
<style type="text/css"><![CDATA[
  .stroke { fill:none; stroke:black; stroke-width:2 }
]]></style>
<path class="stroke" d="M 12.189779 15.69343 L 87.81021 15.69343" />
<path class="stroke" d="M 34.67153 8.394159 L 34.67153 23.576641" />
<path class="stroke" d="M 65.32846 8.394159 L 65.32846 23.576641" />
<path class="stroke" d="M 13.999998 39.00810724 L 13.999998 71.91728979999999 C 13.999998 84.46540580000001 11.0810795 88.2535072 6.15142 93.50955099999999" />
<path class="stroke" d="M 13.351351 38.77135072 L 93.13513 39.00810724" />
<path class="stroke" d="M 69.252335 30.79906598 L 69.252335 53.44953226 C 71.869156 81.83084310000001 73.0284 93.432682 85.9622 93.279163 L 89.4321 93.279163 C 92.2713 93.394357 94.278 92.005678 94.164 89.364319 L 94.164 86.600977" />
<path class="stroke" d="M 85.6467 59.197142 C 74.816 77.696583 67.623634 91.1558047 56.810806 92.27837315" />
<path class="stroke" d="M 80.5994 29.9511009 C 82.75675 31.19513478 84.17167 32.67218904 85.675674 34.27297246" />
</svg>
