<?xml version="1.0" standalone="no"?>
<!DOCTYPE svg PUBLIC "-//W3C//DTD SVG 1.1//EN" "http://www.w3.org/Graphics/SVG/1.1/DTD/svg11.dtd">
<svg xmlns="http://www.w3.org/2000/svg" version="1.1" width="100%" height="100%">
<style type="text/css"><![CDATA[
  .stroke { fill:none; stroke:black; stroke-width:2 }
]]></style>
<path class="stroke" d="M 23.038319791666666 9.562042 C 26.687956250000003 11.021896 30.3375875 14.817516 32.77067708333333 19.48905" />
<path class="stroke" d="M 10.264596875 22.8707 L 44.327854166666675 22.8707" />
<path class="stroke" d="M 16.955593750000002 37.007298 L 37.63686041666667 37.007298" />
<path class="stroke" d="M 16.955593750000002 51.313866 L 37.63686041666667 51.313866" />
<path class="stroke" d="M 15.739050000000002 64.45255 L 15.739050000000002 85.76642" />
<path class="stroke" d="M 15.739050000000002 64.16058 L 39.461677083333335 64.16058 L 39.461677083333335 85.76642" />
<path class="stroke" d="M 15.739050000000002 85.76642 L 39.15754166666667 85.76642" />
<path class="stroke" d="M 53.694968 8.64779725 L 60.09435 12.5503225" />
<path class="stroke" d="M 53.694968 42.966977 L 61.477985000000004 25.6352075" />
<path class="stroke" d="M 71.5124074 5.8029195 C 70.84671466 11.0583935 69.0715325 16.3138675 66.85255442 19.963503" />
<path class="stroke" d="M 69.84817536 13.102188 L 92.148904 13.102188 C 91.92700528 17.18978 90.81751700000001 19.963503 88.709486 22.737225" />
<path class="stroke" d="M 80.16642252 15.437956 C 80.16642252 31.204376 73.287072 39.8265 64.74452494 45.07299" />
<path class="stroke" d="M 80.0554724 24.1970785 C 82.60729893999999 31.9343035 86.3795597 40.109485 95.366421 45.07299" />
<path class="stroke" d="M 59.1605835 58.8686125 L 59.1605835 89.233575" />
<path class="stroke" d="M 59.1605835 58.8686125 L 90.9854 58.8686125 L 90.9854 88.94160500000001" />
<path class="stroke" d="M 59.1605835 86.897808 L 90.9854 86.897808" />
</svg>
