<?xml version="1.0" standalone="no"?>
<!DOCTYPE svg PUBLIC "-//W3C//DTD SVG 1.1//EN" "http://www.w3.org/Graphics/SVG/1.1/DTD/svg11.dtd">
<svg xmlns="http://www.w3.org/2000/svg" version="1.1" width="100%" height="100%">
<style type="text/css"><![CDATA[
  .stroke { fill:none; stroke:black; stroke-width:2 }
]]></style>
<path class="stroke" d="M 27.846714 3.5510947499999994 C 22.0072975 5.2883208 16.459852 6.0036494 10.474452 6.10583855" />
<path class="stroke" d="M 10.474452 6.10583855 L 10.474452 17.3467147 C 10.474452 20.5145976 9.4525535 25.726277499999995 6.386861 29.609485499999998" />
<path class="stroke" d="M 10.474452 12.032846 L 41.423355 12.032846" />
<path class="stroke" d="M 25.948904 12.032846 L 25.948904 31.551092999999995" />
<path class="stroke" d="M 77.84671399999999 3.5510947499999994 C 72.00729749999999 5.2883208 66.459852 6.0036494 60.474452 6.10583855" />
<path class="stroke" d="M 60.474452 6.10583855 L 60.474452 17.3467147 C 60.474452 20.5145976 59.4525535 25.726277499999995 56.386860999999996 29.609485499999998" />
<path class="stroke" d="M 60.474452 12.032846 L 91.423355 12.032846" />
<path class="stroke" d="M 75.948904 12.032846 L 75.948904 31.551092999999995" />
<path class="stroke" d="M 27.080292 41.40510845 L 27.080292 83.9160555" />
<path class="stroke" d="M 27.372261 41.40510845 L 72.9197 41.40510845 L 72.9197 83.9160555" />
<path class="stroke" d="M 27.382198 55.915843 L 72.871284 55.915843" />
<path class="stroke" d="M 27.382198 70.20297105 L 72.871284 70.20297105" />
<path class="stroke" d="M 27.372261 83.726275 L 72.62773 83.726275" />
<path class="stroke" d="M 33.211678 88.28102 C 30.875912 91.507295 27.080292 93.215326 22.70073 93.97444800000001" />
<path class="stroke" d="M 67.9562 88.4708005 C 72.33576 89.2299225 75.54744 90.9379535 78.17518 93.97444800000001" />
</svg>
