<?xml version="1.0" standalone="no"?>
<!DOCTYPE svg PUBLIC "-//W3C//DTD SVG 1.1//EN" "http://www.w3.org/Graphics/SVG/1.1/DTD/svg11.dtd">
<svg xmlns="http://www.w3.org/2000/svg" version="1.1" width="100%" height="100%">
<style type="text/css"><![CDATA[
  .stroke { fill:none; stroke:black; stroke-width:2 }
]]></style>
<path class="stroke" d="M 18.47737146 25.53503562 L 83.79707 25.53503562" />
<path class="stroke" d="M 50.472895 7.286915429999999 L 50.12149667999999 7.5448602 C 46.41928976 28.615735199999996 35.362617779999994 36.176637899999996 9.71028004 49.331777699999996" />
<path class="stroke" d="M 58.55514096 25.600933379999997 C 66.28597919999999 34.37102796 72.61121476 42.10934622 88.4243046 49.8476631" />
<path class="stroke" d="M 19.50761334 30.672756137647056 C 23.22944088 33.0833265 25.51979788 34.047554011764696 28.66903664 37.261647476470586" />
<path class="stroke" d="M 81.6335096 31.476279767647053 C 79.3431432 33.40473637411764 79.62944464 34.851078169411764 71.3269078 38.065171106470586" />
<path class="stroke" d="M 24.744522 45.422364687 L 24.744522 69.658508256" />
<path class="stroke" d="M 24.744522 45.422364687 L 74.9635 45.422364687 L 74.9635 69.658508256" />
<path class="stroke" d="M 25.036495 56.8802268042 L 74.67153 56.8802268042" />
<path class="stroke" d="M 24.744522 68.6005821816 L 74.9635 68.6005821816" />
<path class="stroke" d="M 50.005287 69.9831020355 L 50.005287 93.884413585 C 50.005287 94.5701068075 48.394157 94.961932225 47.226276 94.961932225 L 45.18248 94.961932225" />
<path class="stroke" d="M 26.788319 78.89711527 C 25.328465 82.32558306 20.948904 85.2642694975 14.817516 87.615218983" />
<path class="stroke" d="M 70.58394 78.89711527 C 76.423355 80.954196615 81.386856 83.6969705115 84.306564 87.811130182" />
</svg>
