<?xml version="1.0" standalone="no"?>
<!DOCTYPE svg PUBLIC "-//W3C//DTD SVG 1.1//EN" "http://www.w3.org/Graphics/SVG/1.1/DTD/svg11.dtd">
<svg xmlns="http://www.w3.org/2000/svg" version="1.1" width="100%" height="100%">
<style type="text/css"><![CDATA[
  .stroke { fill:none; stroke:black; stroke-width:2 }
]]></style>
<path class="stroke" d="M 11.8297 8.990532 L 11.8297 40.53627" />
<path class="stroke" d="M 11.8297 8.990532 L 39.2744 8.990532 L 39.2744 40.53627" />
<path class="stroke" d="M 11.8297 40.53627 L 39.2744 40.53627" />
<path class="stroke" d="M 25.39435 40.5363 L 25.39435 89.1167" />
<path class="stroke" d="M 25.70984 59.1483 L 41.48264 59.1483" />
<path class="stroke" d="M 11.8297 52.5236 L 11.8297 92.2713" />
<path class="stroke" d="M 6.78233 93.8486 L 41.7981 85.6467" />
<path class="stroke" d="M 69.6372 7.41325 L 69.6372 60.0947 C 69.63725 83.8591 60.8044 93.428 53.548895 93.5331" />
<path class="stroke" d="M 56.388015 23.81703 C 59.542609999999996 30.02103 61.277609999999996 35.27863 63.01261 44.32173" />
<path class="stroke" d="M 54.652995 68.612 C 58.43847 63.775 61.75077 60.8307 66.32491999999999 57.8864" />
<path class="stroke" d="M 79.57415 7.09779 L 79.57415 88.1703 C 79.4164 92.1045 80.64099999999999 94.4052 82.09774999999999 94.4795 L 94.55834999999999 94.4795 C 96.346 94.5843 97.66015 92.1662 97.5552 88.1703 L 97.5552 82.1766" />
<path class="stroke" d="M 93.296505 26.34072 C 90.720305 33.91162 88.617255 38.64352 85.410105 43.05992" />
<path class="stroke" d="M 82.7287 55.3628 C 86.4616 58.307 89.72135 60.9359 92.98105000000001 67.0347" />
</svg>
