<?xml version="1.0" standalone="no"?>
<!DOCTYPE svg PUBLIC "-//W3C//DTD SVG 1.1//EN" "http://www.w3.org/Graphics/SVG/1.1/DTD/svg11.dtd">
<svg xmlns="http://www.w3.org/2000/svg" version="1.1" width="100%" height="100%">
<style type="text/css"><![CDATA[
  .stroke { fill:none; stroke:black; stroke-width:2 }
]]></style>
<path class="stroke" d="M 11.313868 17.445253 C 15.401459 18.029196 19.48905 20.364962 22.408756 24.160583" />
<path class="stroke" d="M 9.270073 47.226276 C 13.357662 47.226276 18.321167 46.934303 23.86861 43.138683 C 16.27737 53.357662 14.233576 58.321167 15.109488 60.9489 C 15.69343 63.284668 20.948904 65.62044 22.116787 68.832115 C 23.576641 72.33576 18.129246 80.26506 11.021896 83.722626" />
<path class="stroke" d="M 11.021896 84.014595 C 39.692924 81.65476 40.51095 91.313866 90.43795 90.14598" />
<path class="stroke" d="M 57.925544200000004 10.649633600000001 C 57.727002999999996 15.142872 52.979923 20.356152 48.717301 20.529112" />
<path class="stroke" d="M 38.795619099999996 20.693429599999998 L 38.795619099999996 75.81752" />
<path class="stroke" d="M 38.795619099999996 20.529828000000002 L 83.65985332 20.529828000000002 L 83.65985332 75.81752" />
<path class="stroke" d="M 38.795619099999996 46.49498 L 83.65985332 46.49498" />
<path class="stroke" d="M 38.795619099999996 73.41884800000001 L 83.65985332 73.41884800000001" />
</svg>
