<?xml version="1.0" standalone="no"?>
<!DOCTYPE svg PUBLIC "-//W3C//DTD SVG 1.1//EN" "http://www.w3.org/Graphics/SVG/1.1/DTD/svg11.dtd">
<svg xmlns="http://www.w3.org/2000/svg" version="1.1" width="100%" height="100%">
<style type="text/css"><![CDATA[
  .stroke { fill:none; stroke:black; stroke-width:2 }
]]></style>
<path class="stroke" d="M 18.430655833333333 9.562042 C 21.350365 11.021896 24.27007 14.817516 26.216541666666668 19.48905" />
<path class="stroke" d="M 8.2116775 22.8707 L 35.46228333333334 22.8707" />
<path class="stroke" d="M 13.564475000000002 37.007298 L 30.109488333333335 37.007298" />
<path class="stroke" d="M 13.564475000000002 51.313866 L 30.109488333333335 51.313866" />
<path class="stroke" d="M 12.59124 64.45255 L 12.59124 85.76642" />
<path class="stroke" d="M 12.59124 64.16058 L 31.569341666666666 64.16058 L 31.569341666666666 85.76642" />
<path class="stroke" d="M 12.59124 85.76642 L 31.326033333333335 85.76642" />
<path class="stroke" d="M 47.3138674 23.540145 L 92.686126 23.540145" />
<path class="stroke" d="M 60.802918 12.5912385 L 60.802918 35.3649615" />
<path class="stroke" d="M 79.19707600000001 12.5912385 L 79.19707600000001 35.3649615" />
<path class="stroke" d="M 67.810216 30.733576499999998 C 65.07634 49.933275 58.79698 66.1836 45.5620438 77.81386499999999" />
<path class="stroke" d="M 45.9124078 43.992075 L 94.26276999999999 43.992075" />
<path class="stroke" d="M 60.015474123999994 61.8487220625 L 60.015474123999994 88.72171387499999" />
<path class="stroke" d="M 60.015474123999994 61.8487220625 L 83.6931376 61.8487220625 L 83.6931376 88.463320425" />
<path class="stroke" d="M 60.015474123999994 86.65456008000001 L 83.6931376 86.65456008000001" />
</svg>
