<?xml version="1.0" standalone="no"?>
<!DOCTYPE svg PUBLIC "-//W3C//DTD SVG 1.1//EN" "http://www.w3.org/Graphics/SVG/1.1/DTD/svg11.dtd">
<svg xmlns="http://www.w3.org/2000/svg" version="1.1" width="100%" height="100%">
<style type="text/css"><![CDATA[
  .stroke { fill:none; stroke:black; stroke-width:2 }
]]></style>
<path class="stroke" d="M 9.785 7.41324 L 9.785 57.8864" />
<path class="stroke" d="M 9.785 7.09779 L 43.37537037037037 7.09779" />
<path class="stroke" d="M 25.55787962962963 7.09779 L 25.55787962962963 57.571" />
<path class="stroke" d="M 10.369259259259259 22.8707 L 38.70194444444444 22.8707" />
<path class="stroke" d="M 9.785 40.5363 L 38.409814814814816 40.5363" />
<path class="stroke" d="M 9.785 57.8864 L 43.37537037037037 57.8864 C 43.6675 70.8202 41.330740740740744 92.2713 34.612685185185185 92.5868 L 27.310462962962962 92.5868" />
<path class="stroke" d="M 7.448291666666667 68.92747 C 8.90874537037037 74.81597 8.90874537037037 80.38917 7.448291666666667 86.59307" />
<path class="stroke" d="M 15.334740740740742 67.98113 C 17.671592592592592 73.13363 18.255666666666666 77.33953 18.255666666666666 82.80753" />
<path class="stroke" d="M 22.929111111111112 66.71927 C 25.265870370370372 70.82017 26.434203703703705 74.29017 27.310407407407407 78.39107" />
<path class="stroke" d="M 30.52346296296296 65.45733 C 32.27605555555555 68.50673 33.4442962962963 71.55623 34.61262962962963 74.92113" />
<path class="stroke" d="M 53.47080245 37.007298 L 91.689775 37.007298" />
<path class="stroke" d="M 72.58028900000001 9.270073 L 72.58028900000001 40.218975 C 72.58028900000001 62.70073 64.1471203 85.808914 50.90145875 91.0219" />
<path class="stroke" d="M 72.58028900000001 39.927006 C 72.58028900000001 62.9927 81.19191950000001 85.75592 94.259122 91.0219" />
<path class="stroke" d="M 67.741720375 78.3564618 C 70.95150662500001 81.3638298 72.816639125 85.3554278 73.944400375 90.9053878" />
</svg>
