<?xml version="1.0" standalone="no"?>
<!DOCTYPE svg PUBLIC "-//W3C//DTD SVG 1.1//EN" "http://www.w3.org/Graphics/SVG/1.1/DTD/svg11.dtd">
<svg xmlns="http://www.w3.org/2000/svg" version="1.1" width="100%" height="100%">
<style type="text/css"><![CDATA[
  .stroke { fill:none; stroke:black; stroke-width:2 }
]]></style>
<path class="stroke" d="M 29.20851891891892 15.109488 C 23.905699459459463 22.70073 18.35036281081081 27.956203 13.55257254054054 30.875912" />
<path class="stroke" d="M 30.723613405405406 35.547443 C 25.420793081081083 43.138683 17.84533362162162 49.85401 11.027421405405406 53.06569" />
<path class="stroke" d="M 23.14815394594595 45.47445 L 23.14815394594595 89.85401" />
<path class="stroke" d="M 59.3537199172 11.022845892400001 C 55.206450426800004 17.035108605999998 49.084290445200004 21.093386658400004 44.1470642172 24.700743154 C 48.8868026136 27.406261684 54.219005181200004 30.713007412 59.3537199172 34.7712823756" />
<path class="stroke" d="M 73.572931048 21.544306156 C 62.9085225308 34.170055692400005 49.676757322 43.789679019999994 36.8399691292 50.854083796 C 52.6390930588 48.749792463999995 67.0557920212 47.998259110000006 81.275003152 47.998259110000006" />
<path class="stroke" d="M 77.325219464 42.887836936 C 79.98410727999999 45.06069448 83.18483207999999 48.849982839999996 83.84236052 52.206844348000004" />
<path class="stroke" d="M 57.3782751352 53.2842835438 C 52.580844811999995 59.918007114999995 44.446072027999996 66.8465604775 36.1027137328 71.26904268999999" />
<path class="stroke" d="M 54.8752675752 57.1171016296 L 73.439242336 57.1171016296 C 65.93021965599999 69.2052169843 49.869253884 83.209740877 33.808291684 90.875375029" />
<path class="stroke" d="M 46.9490803024 64.34048882260001 C 55.135999999999996 75.0424199086 71.9791494728 85.1261519395 89.708787904 90.875375029" />
</svg>
