<?xml version="1.0" standalone="no"?>
<!DOCTYPE svg PUBLIC "-//W3C//DTD SVG 1.1//EN" "http://www.w3.org/Graphics/SVG/1.1/DTD/svg11.dtd">
<svg xmlns="http://www.w3.org/2000/svg" version="1.1" width="100%" height="100%">
<style type="text/css"><![CDATA[
  .stroke { fill:none; stroke:black; stroke-width:2 }
]]></style>
<path class="stroke" d="M 25.3649615 9.854013 C 22.2992685 21.532845 17.7737215 29.416058 14.1240865 36.423355 C 17.627737 41.67883 21.5693415 48.10219 25.3649615 55.985397" />
<path class="stroke" d="M 35.87591 30.29197 C 27.9926985 54.817513 18.2116775 73.50365 8.7226265 87.22627 C 20.4014585 83.13868 31.0583915 81.678825 41.56934 81.678825" />
<path class="stroke" d="M 38.64963 71.75182 C 40.6151 75.9726 42.9811 83.3333 43.46715 89.85401" />
<path class="stroke" d="M 62.372261 33.211678 L 91.715325 30.875912 C 90.9854 64.16058 88.79562 81.9708 88.06569300000001 85.76642 C 87.18977749999999 88.978096 85.437955 89.85401 83.9781 90.14598 L 82.51824500000001 89.85401" />
<path class="stroke" d="M 76.824815 10.437956 C 75.07299 43.138683 69.37956 76.423355 60.182480999999996 85.76642" />
</svg>
