<?xml version="1.0" standalone="no"?>
<!DOCTYPE svg PUBLIC "-//W3C//DTD SVG 1.1//EN" "http://www.w3.org/Graphics/SVG/1.1/DTD/svg11.dtd">
<svg xmlns="http://www.w3.org/2000/svg" version="1.1" width="100%" height="100%">
<style type="text/css"><![CDATA[
  .stroke { fill:none; stroke:black; stroke-width:2 }
]]></style>
<path class="stroke" d="M 13.4463599 7.2397503 L 53.8343969 7.2397503 L 53.8343969 29.952682199999998" />
<path class="stroke" d="M 13.4463599 29.952682199999998 L 53.8343969 29.952682199999998" />
<path class="stroke" d="M 13.4463599 7.2397503 L 13.4463599 52.381674000000004 C 13.5084279 65.630844 12.2675989 72.917964 5.6293378 84.74764950000001" />
<path class="stroke" d="M 23.890483849999995 42.484230000000004 L 47.95951615 42.484230000000004" />
<path class="stroke" d="M 20.484496420499998 61.3485755 L 51.59256628899999 61.3485755" />
<path class="stroke" d="M 36.038537653 61.553605000000005 L 36.038537653 92.105685 C 36.038537653 94.29287000000001 35.130258023 95.65982 34.335526843 95.591505 L 32.85957694299999 95.591505" />
<path class="stroke" d="M 29.680663019999994 69.55042499999999 C 27.599217359999997 77.27392 25.177198330000003 83.562085 20.711562729 88.414855" />
<path class="stroke" d="M 42.623494789999995 69.755565 C 45.915967959999996 74.608335 48.52718641999999 80.69142500000001 50.68431905 88.414855" />
<path class="stroke" d="M 64.42116605999999 30.29197 L 88.9992669 30.29197" />
<path class="stroke" d="M 82.8737781 9.270073 L 82.8737781 84.8905 C 82.8737781 87.51824 81.7467114 90.14598 79.93357355999999 90.14598 L 76.7102151 90.14598" />
<path class="stroke" d="M 65.42846531999999 40.51095 C 68.4503631 42.846714 70.2635037 46.642334 71.2708002 51.021896" />
</svg>
