<?xml version="1.0" standalone="no"?>
<!DOCTYPE svg PUBLIC "-//W3C//DTD SVG 1.1//EN" "http://www.w3.org/Graphics/SVG/1.1/DTD/svg11.dtd">
<svg xmlns="http://www.w3.org/2000/svg" version="1.1" width="100%" height="100%">
<style type="text/css"><![CDATA[
  .stroke { fill:none; stroke:black; stroke-width:2 }
]]></style>
<path class="stroke" d="M 20.7299256 10.729925 C 17.4598528 18.029196 13.021896000000002 23.86861 8.8175168 28.540146 C 12.087590400000002 31.45985 16.058392 36.131386 19.7956176 40.218975" />
<path class="stroke" d="M 29.6058384 25.912407 C 24.0 34.67153 16.5255464 45.18248 7.1824816 56.277367 C 15.591239999999999 54.525543 24.934304800000003 52.48175 33.343064 50.437954" />
<path class="stroke" d="M 30.540143999999998 43.430653 C 32.8759096 46.642334 33.5766416 49.85401 34.9781008 55.40146" />
<path class="stroke" d="M 21.19708 54.233574 L 21.19708 89.56204" />
<path class="stroke" d="M 13.956202400000002 65.03649 C 12.554744 70.87591 10.9197064 74.67153 7.6496336000000005 78.75912" />
<path class="stroke" d="M 27.270072 65.32846 C 29.8394136 68.540146 29.881079999999997 68.81081 31.178376 71.72973" />
<path class="stroke" d="M 49.829632000000004 6.15142 L 83.545728 6.15142 L 83.545728 31.7035" />
<path class="stroke" d="M 49.8295936 19.085215 L 83.1419776 19.085215" />
<path class="stroke" d="M 40.34069568 32.649826 L 96.2649952 32.649826" />
<path class="stroke" d="M 69.009472 32.649868 C 61.74131199999999 42.028736 51.4448 48.230885 42.561536000000004 51.937065" />
<path class="stroke" d="M 60.93376000000001 41.045456 C 70.086208 48.60909 73.58566400000001 81.35945 67.79808 92.32666 C 65.711872 95.8059 61.202944 93.38554 59.318656000000004 92.780464" />
<path class="stroke" d="M 67.192448 52.163933 C 59.789696 60.10563 52.185088 64.4171 41.7539456 69.40896" />
<path class="stroke" d="M 69.615168 65.32457 C 64.298624 73.26648 51.713983999999996 81.43504 41.5520512 86.20011" />
<path class="stroke" d="M 89.4006208 42.406822 C 85.29546880000001 48.30643 80.3827648 53.29836 75.67191679999999 57.155884" />
<path class="stroke" d="M 69.8170112 62.601704 C 77.48894720000001 71.82929 84.95902720000001 81.05695 94.2460672 86.88089" />
</svg>
