<?xml version="1.0" standalone="no"?>
<!DOCTYPE svg PUBLIC "-//W3C//DTD SVG 1.1//EN" "http://www.w3.org/Graphics/SVG/1.1/DTD/svg11.dtd">
<svg xmlns="http://www.w3.org/2000/svg" version="1.1" width="100%" height="100%">
<style type="text/css"><![CDATA[
  .stroke { fill:none; stroke:black; stroke-width:2 }
]]></style>
<path class="stroke" d="M 10.198019 14.059406 L 25.643566 14.059406 C 23.861385 28.316833 19.405941 36.930695 12.574257 46.138615" />
<path class="stroke" d="M 12.574257 46.138615 L 25.643566 46.138615 C 23.081 64.1955 18.8749 77.4448 9.60396 90.09901" />
<path class="stroke" d="M 10.198019 64.55446 C 19.70297 66.33663 33.960396 84.15842 52.9703 86.237625 C 66.33663 88.019806 72.57426 89.50495 89.80198 89.50495" />
<path class="stroke" d="M 45.56930725 17.033662 L 82.77227500000001 17.033662 L 82.77227500000001 43.267324" />
<path class="stroke" d="M 32.64851425 29.87722632 L 92.5742575 29.87722632" />
<path class="stroke" d="M 42.89603875 43.267324 L 82.77227500000001 43.267324" />
<path class="stroke" d="M 42.6732685 56.6574272 L 82.5495025 56.6574272" />
<path class="stroke" d="M 35.99009875 70.32079432 L 88.7871325 70.32079432" />
<path class="stroke" d="M 62.5 8.835643200000002 L 62.5 82.89108920000001" />
</svg>
