<?xml version="1.0" standalone="no"?>
<!DOCTYPE svg PUBLIC "-//W3C//DTD SVG 1.1//EN" "http://www.w3.org/Graphics/SVG/1.1/DTD/svg11.dtd">
<svg xmlns="http://www.w3.org/2000/svg" version="1.1" width="100%" height="100%">
<style type="text/css"><![CDATA[
  .stroke { fill:none; stroke:black; stroke-width:2 }
]]></style>
<path class="stroke" d="M 19.62263090909091 5.51212 C 17.312086363636364 16.18763 13.245085454545455 26.54933 5.451421818181818 31.83253" />
<path class="stroke" d="M 18.754981818181815 11.2215 L 37.021527272727276 11.2215 C 35.94507272727272 17.87713 32.571436363636366 23.27433 28.325618181818182 27.39653" />
<path class="stroke" d="M 13.262936363636364 27.08275 L 13.262936363636364 72.72795 C 13.360572727272727 83.09285 10.554572727272728 88.06055 5.463336363636364 93.35545" />
<path class="stroke" d="M 14.124781818181818 27.08276 L 43.10923636363636 27.08276 L 43.10923636363636 87.99256 C 42.766963636363634 91.46236 40.70405454545454 92.72436 38.64114545454545 92.72436 L 34.17296363636363 92.72436" />
<path class="stroke" d="M 28.32872727272727 27.39985 L 28.32872727272727 67.67075" />
<path class="stroke" d="M 13.5527 47.05964 L 42.376518181818184 47.05964" />
<path class="stroke" d="M 13.839481818181818 68.1953 L 42.6633 68.1953" />
<path class="stroke" d="M 62.6642325 6.8211675 L 89.08759 6.0036494 C 88.503645 13.667882899999999 87.33576500000001 18.164232799999997 85.72992500000001 23.989051099999998 C 84.85401 26.748174249999998 83.24817300000001 30.937955999999996 80.18248 30.937955999999996 L 78.576641 30.937955999999996" />
<path class="stroke" d="M 71.7153265 6.61678745 L 70.255475 12.8503634 C 67.9197065 20.821165399999998 63.686130500000004 25.93065475 60.036495 30.222625999999995" />
<path class="stroke" d="M 66.0218965 45.770072299999995 C 65.5839405 48.80656875 64.270073 54.1204377 62.0802915 57.1569335" />
<path class="stroke" d="M 65.2919695 52.602189800000005 L 85.87591 52.602189800000005" />
<path class="stroke" d="M 56.24087525 69.302918 L 93.90510499999999 69.302918" />
<path class="stroke" d="M 75.218977 41.59489025 L 75.218977 93.215326" />
</svg>
