<?xml version="1.0" standalone="no"?>
<!DOCTYPE svg PUBLIC "-//W3C//DTD SVG 1.1//EN" "http://www.w3.org/Graphics/SVG/1.1/DTD/svg11.dtd">
<svg xmlns="http://www.w3.org/2000/svg" version="1.1" width="100%" height="100%">
<style type="text/css"><![CDATA[
  .stroke { fill:none; stroke:black; stroke-width:2 }
]]></style>
<path class="stroke" d="M 10.5678 7.41324 L 10.5678 57.8864" />
<path class="stroke" d="M 10.5678 7.09779 L 46.8454 7.09779" />
<path class="stroke" d="M 27.60251 7.09779 L 27.60251 57.571" />
<path class="stroke" d="M 11.1988 22.8707 L 41.7981 22.8707" />
<path class="stroke" d="M 10.5678 40.5363 L 41.4826 40.5363" />
<path class="stroke" d="M 10.5678 57.8864 L 46.8454 57.8864 C 47.1609 70.8202 44.6372 92.2713 37.3817 92.5868 L 29.4953 92.5868" />
<path class="stroke" d="M 8.044155 68.92747 C 9.621445 74.81597 9.621445 80.38917 8.044155 86.59307" />
<path class="stroke" d="M 16.56152 67.98113 C 19.08532 73.13363 19.71612 77.33953 19.71612 82.80753" />
<path class="stroke" d="M 24.76344 66.71927 C 27.28714 70.82017 28.54894 74.29017 29.49524 78.39107" />
<path class="stroke" d="M 32.96534 65.45733 C 34.85814 68.50673 36.11984 71.55623 37.38164 74.92113" />
<path class="stroke" d="M 56.85474409 14.8029192 L 92.294155 14.8029192" />
<path class="stroke" d="M 74.5744498 3.7080292000000004 L 74.5744498 16.087590000000002 C 74.5744498 25.080292 66.75460246 34.3235656 54.47226175 36.40876" />
<path class="stroke" d="M 74.5744498 15.9708024 C 74.5744498 25.19708 82.5597799 34.302368 94.6766404 36.40876" />
<path class="stroke" d="M 54.17445235 48.7153282 L 94.8255451 48.7153282" />
<path class="stroke" d="M 85.2956188 48.8905096 L 85.2956188 90.05839 C 85.2956188 91.63503399999999 84.25328284 93.036496 82.4664244 93.036496 L 80.9773723 93.036496" />
<path class="stroke" d="M 62.427518068 58.656934 L 62.427518068 73.23211599999999" />
<path class="stroke" d="M 62.427518068 58.656934 L 75.4120432 58.656934 L 75.4120432 73.09197040000001" />
<path class="stroke" d="M 62.427518068 72.11094784 L 75.4120432 72.11094784" />
</svg>
