<?xml version="1.0" standalone="no"?>
<!DOCTYPE svg PUBLIC "-//W3C//DTD SVG 1.1//EN" "http://www.w3.org/Graphics/SVG/1.1/DTD/svg11.dtd">
<svg xmlns="http://www.w3.org/2000/svg" version="1.1" width="100%" height="100%">
<style type="text/css"><![CDATA[
  .stroke { fill:none; stroke:black; stroke-width:2 }
]]></style>
<path class="stroke" d="M 10.961809821428572 14.059406 C 13.879066071428571 16.138615 16.796323214285717 19.108912 19.183169642857145 22.673267" />
<path class="stroke" d="M 9.105374107142858 38.118813 C 11.757426785714285 39.90099 14.939887500000001 42.574257 17.06152857142857 46.138615" />
<path class="stroke" d="M 8.840169642857143 85.64356 C 9.434829464285714 87.422676 11.091678571428572 89.896904 13.024666964285714 89.896904 C 14.957658035714285 89.896904 17.5919375 76.73267 19.448374107142858 69.60396" />
<path class="stroke" d="M 30.195014428 29.127600000000005 L 64.054983448 29.127600000000005" />
<path class="stroke" d="M 47.125 9.325795521600002 L 47.125 51.90214233600001" />
<path class="stroke" d="M 37.5928391503 53.9827658175 L 37.5928391503 82.78696924500001" />
<path class="stroke" d="M 37.5928391503 53.9827658175 L 56.74501372 53.9827658175 L 56.74501372 82.510006503" />
<path class="stroke" d="M 37.5928391503 80.57126066880001 L 56.74501372 80.57126066880001" />
<path class="stroke" d="M 72.088503475 9.854013 L 72.0662755 55.63759 C 69.24244941250001 80.20134 69.24244941250001 79.39597 66.086409025 89.865776" />
<path class="stroke" d="M 72.088503475 9.854013 L 88.949818 9.854013 L 88.949818 86.05839 C 88.949818 88.39416 88.46806337500001 90.43795 87.26368464999999 90.43795 L 85.938869125 90.43795" />
<path class="stroke" d="M 72.088503475 31.862577 L 88.949818 31.862577" />
<path class="stroke" d="M 72.088503475 55.110336 L 88.949818 55.110336" />
</svg>
