<?xml version="1.0" standalone="no"?>
<!DOCTYPE svg PUBLIC "-//W3C//DTD SVG 1.1//EN" "http://www.w3.org/Graphics/SVG/1.1/DTD/svg11.dtd">
<svg xmlns="http://www.w3.org/2000/svg" version="1.1" width="100%" height="100%">
<style type="text/css"><![CDATA[
  .stroke { fill:none; stroke:black; stroke-width:2 }
]]></style>
<path class="stroke" d="M 49.99996 3.33596385 L 49.99996 9.15613785" />
<path class="stroke" d="M 6.46688 9.298125 L 93.2177 9.298125" />
<path class="stroke" d="M 37.38174 9.4400361 L 37.38174 24.629335649999998 C 37.486843 31.58516475 31.598242 40.102492500000004 15.930542 42.373824750000004" />
<path class="stroke" d="M 62.30286 9.4400865 L 62.30286 40.1025465 C 62.09256 41.4274365 60.30496 42.4684665 57.88646 42.3738315 L 53.47006 42.3738315" />
<path class="stroke" d="M 27.287071 16.96375935 C 22.344872 21.64825935 16.771772 25.4810439 7.413242 28.462113" />
<path class="stroke" d="M 72.0821 16.963695 C 81.1252 20.228669999999997 86.0673 24.061545000000002 91.6404 28.604115" />
<path class="stroke" d="M 43.138683 52.3467141 C 36.423355 59.5729925 25.036495 67.12043625 13.357662 71.937955" />
<path class="stroke" d="M 39.635033 56.5218972 L 65.62044 56.5218972 C 55.10949 69.68977885000001 32.627735 84.94525150000001 10.145985 93.2956155" />
<path class="stroke" d="M 28.540146 64.3905107 C 40.0 76.0483877 63.576637 87.03284525000001 88.39416 93.2956155" />
</svg>
