<?xml version="1.0" standalone="no"?>
<!DOCTYPE svg PUBLIC "-//W3C//DTD SVG 1.1//EN" "http://www.w3.org/Graphics/SVG/1.1/DTD/svg11.dtd">
<svg xmlns="http://www.w3.org/2000/svg" version="1.1" width="100%" height="100%">
<style type="text/css"><![CDATA[
  .stroke { fill:none; stroke:black; stroke-width:2 }
]]></style>
<path class="stroke" d="M 26.4179918 10.729925 L 26.4179918 23.86861" />
<path class="stroke" d="M 10.11751803 23.86861 L 45.025545799999996 23.86861" />
<path class="stroke" d="M 25.7116764 39.343063 L 41.1627729 39.343063 C 40.44744395 53.06569 39.875180300000004 62.116783 38.730653000000004 70.29197 C 37.3 79.63503 34.7248148 88.10219 32.4357651 88.10219 L 29.574451259999996 88.10219" />
<path class="stroke" d="M 26.427005349999998 23.86861 L 25.425546779999998 41.38686 C 24.42408674 60.07299 20.70437914 78.46715 15.12481578 84.014595" />
<path class="stroke" d="M 55.2273265705 13.977369428571429 C 54.2780194895 20.596888285714286 52.8540592675 27.47100257142857 50.955445505 32.053746857142855" />
<path class="stroke" d="M 53.684703263 23.65205057142857 L 83.11321798 23.65205057142857" />
<path class="stroke" d="M 74.9673265 31.54653406 C 69.38316908 40.11881246 61.1465347 46.273267399999995 51.9326735 48.25148572" />
<path class="stroke" d="M 58.9353069 46.293388 L 58.9353069 90.23366299999999" />
<path class="stroke" d="M 83.203959 42.31683224 C 78.03861388 50.2297033 72.45445599 54.62574359999999 66.1722776 56.60396044" />
<path class="stroke" d="M 63.10099069 51.3287143 C 70.0811877 66.27524984 76.3633675 75.2871282 89.3465347 83.4198022" />
</svg>
