<?xml version="1.0" standalone="no"?>
<!DOCTYPE svg PUBLIC "-//W3C//DTD SVG 1.1//EN" "http://www.w3.org/Graphics/SVG/1.1/DTD/svg11.dtd">
<svg xmlns="http://www.w3.org/2000/svg" version="1.1" width="100%" height="100%">
<style type="text/css"><![CDATA[
  .stroke { fill:none; stroke:black; stroke-width:2 }
]]></style>
<path class="stroke" d="M 5.0729925 20.160000000000004 L 44.927005 20.160000000000004" />
<path class="stroke" d="M 25.0 9.51386856 L 25.0 32.404377600000004" />
<path class="stroke" d="M 14.14014446 34.813328193000004 L 14.14014446 58.843457184" />
<path class="stroke" d="M 14.14014446 34.813328193000004 L 35.734305 34.813328193000004 L 35.734305 58.843457184" />
<path class="stroke" d="M 14.265692849999999 46.173795003799995 L 35.6087579 46.173795003799995" />
<path class="stroke" d="M 14.14014446 57.7945238024 L 35.734305 57.7945238024" />
<path class="stroke" d="M 4.9270065 70.24060338999999 L 45.36496 70.24060338999999" />
<path class="stroke" d="M 24.961685 60.264164131 L 24.961685 90.425832106" />
<path class="stroke" d="M 75.07299 6.693429399999999 C 69.37956 17.1167871 62.9562035 25.291970199999998 54.9270065 30.1970781" />
<path class="stroke" d="M 75.07299 6.693429399999999 C 80.912407 16.708026999999998 86.897808 25.291970199999998 95.218975 29.992699799999997" />
<path class="stroke" d="M 61.188118 39.3386144 L 88.960395 39.3386144" />
<path class="stroke" d="M 55.0990095 61.96039608 L 94.90099000000001 61.96039608" />
<path class="stroke" d="M 74.851485 39.3386144 L 74.851485 93.2673268" />
</svg>
