<?xml version="1.0" standalone="no"?>
<!DOCTYPE svg PUBLIC "-//W3C//DTD SVG 1.1//EN" "http://www.w3.org/Graphics/SVG/1.1/DTD/svg11.dtd">
<svg xmlns="http://www.w3.org/2000/svg" version="1.1" width="100%" height="100%">
<style type="text/css"><![CDATA[
  .stroke { fill:none; stroke:black; stroke-width:2 }
]]></style>
<path class="stroke" d="M 10.961809821428572 14.059406 C 13.879066071428571 16.138615 16.796323214285717 19.108912 19.183169642857145 22.673267" />
<path class="stroke" d="M 9.105374107142858 38.118813 C 11.757426785714285 39.90099 14.939887500000001 42.574257 17.06152857142857 46.138615" />
<path class="stroke" d="M 8.840169642857143 85.64356 C 9.434829464285714 87.422676 11.091678571428572 89.896904 13.024666964285714 89.896904 C 14.957658035714285 89.896904 17.5919375 76.73267 19.448374107142858 69.60396" />
<path class="stroke" d="M 35.237224749999996 9.562042 L 35.237224749999996 90.14598" />
<path class="stroke" d="M 35.237224749999996 9.562042 L 53.631384999999995 9.562042 L 53.631384999999995 38.46715" />
<path class="stroke" d="M 35.237224749999996 22.408756 L 53.4124075 22.408756" />
<path class="stroke" d="M 35.237224749999996 36.131386 L 53.631384999999995 36.131386" />
<path class="stroke" d="M 71.80656400000001 9.854013 L 71.80656400000001 38.46715" />
<path class="stroke" d="M 71.80656400000001 9.854013 L 89.9817505 9.854013 L 89.9817505 85.47445 C 89.9817505 88.39416 88.229923 90.14598 86.25911875 89.85401" />
<path class="stroke" d="M 71.80656400000001 22.408756 L 89.9817505 22.408756" />
<path class="stroke" d="M 71.80656400000001 36.131386 L 89.9817505 36.131386" />
<path class="stroke" d="M 46.78831975 50.284671 L 78.21167500000001 50.284671" />
<path class="stroke" d="M 62.6635165 50.284671 L 62.6635165 85.90510499999999" />
<path class="stroke" d="M 49.24087405 67.656933 L 75.912406 67.656933" />
<path class="stroke" d="M 42.0364954 85.90510499999999 L 83.11678412500001 85.90510499999999" />
</svg>
