<?xml version="1.0" standalone="no"?>
<!DOCTYPE svg PUBLIC "-//W3C//DTD SVG 1.1//EN" "http://www.w3.org/Graphics/SVG/1.1/DTD/svg11.dtd">
<svg xmlns="http://www.w3.org/2000/svg" version="1.1" width="100%" height="100%">
<style type="text/css"><![CDATA[
  .stroke { fill:none; stroke:black; stroke-width:2 }
]]></style>
<path class="stroke" d="M 13.154171785714285 14.059406 C 16.654879285714284 16.138615 20.15558785714286 19.108912 23.01980357142857 22.673267" />
<path class="stroke" d="M 10.926448928571428 38.118813 C 14.108912142857141 39.90099 17.927864999999997 42.574257 20.473834285714286 46.138615" />
<path class="stroke" d="M 10.608203571428572 85.64356 C 11.321795357142857 87.422676 13.310014285714285 89.896904 15.629600357142856 89.896904 C 17.949189642857142 89.896904 21.110325 76.73267 23.33804892857143 69.60396" />
<path class="stroke" d="M 46.175047750000004 6.782335 L 46.175047750000004 31.703514" />
<path class="stroke" d="M 46.175047750000004 6.782335 L 79.298125 6.782335 L 79.298125 31.703514" />
<path class="stroke" d="M 62.5 18.769756 L 62.5 32.018955" />
<path class="stroke" d="M 62.5 18.769756 L 78.82495 18.769756" />
<path class="stroke" d="M 30.7965325 32.96529 L 30.7965325 46.21449" />
<path class="stroke" d="M 30.7965325 32.96529 L 95.1498175 32.96529 L 95.1498175 45.58359" />
<path class="stroke" d="M 45.9385 45.268127 L 45.9385 94.47953" />
<path class="stroke" d="M 45.9385 45.268127 L 79.298125 45.268127 L 79.298125 88.485825 C 79.298125 92.271225 77.40535 94.164024 75.7492 94.164024 L 73.619875 94.164024" />
<path class="stroke" d="M 45.9385 59.4637 L 79.298125 59.4637" />
<path class="stroke" d="M 45.9385 73.34389 L 79.0615 73.34389" />
</svg>
