<?xml version="1.0" standalone="no"?>
<!DOCTYPE svg PUBLIC "-//W3C//DTD SVG 1.1//EN" "http://www.w3.org/Graphics/SVG/1.1/DTD/svg11.dtd">
<svg xmlns="http://www.w3.org/2000/svg" version="1.1" width="100%" height="100%">
<style type="text/css"><![CDATA[
  .stroke { fill:none; stroke:black; stroke-width:2 }
]]></style>
<path class="stroke" d="M 23.76642188 10.729925 C 20.332845439999996 18.029196 15.672990800000001 23.86861 11.25839264 28.540146 C 14.69196992 31.45985 18.8613116 36.131386 22.785398479999998 40.218975" />
<path class="stroke" d="M 33.086130319999995 25.912407 C 27.2 34.67153 19.35182372 45.18248 9.54160568 56.277367 C 18.370801999999998 54.525543 28.18102004 52.48175 37.0102172 50.437954" />
<path class="stroke" d="M 34.0671512 43.430653 C 36.51970508 46.642334 37.255473679999994 49.85401 38.72700584 55.40146" />
<path class="stroke" d="M 24.256933999999998 54.233574 L 24.256933999999998 89.56204" />
<path class="stroke" d="M 16.654012520000002 65.03649 C 15.1824812 70.87591 13.465691719999999 74.67153 10.03211528 78.75912" />
<path class="stroke" d="M 30.633575599999997 65.32846 C 33.331384279999995 68.540146 33.375133999999996 68.81081 34.737294799999994 71.72973" />
<path class="stroke" d="M 59.975766116 8.035218687499999 L 59.975766116 21.851276625" />
<path class="stroke" d="M 59.975766116 8.035218687499999 L 82.12583839999999 8.035218687499999 L 82.12583839999999 21.718430275000003" />
<path class="stroke" d="M 59.975766116 20.78850264 L 82.12583839999999 20.78850264" />
<path class="stroke" d="M 48.521824587 28.91374055625 L 48.521824587 44.11140428750001" />
<path class="stroke" d="M 48.521824587 28.91374055625 L 65.1343788 28.91374055625 L 65.1343788 43.9652733025" />
<path class="stroke" d="M 48.521824587 42.942352903999996 L 65.1343788 42.942352903999996" />
<path class="stroke" d="M 76.941824587 28.91374055625 L 76.941824587 44.11140428750001" />
<path class="stroke" d="M 76.941824587 28.91374055625 L 93.5543788 28.91374055625 L 93.5543788 43.9652733025" />
<path class="stroke" d="M 76.941824587 42.942352903999996 L 93.5543788 42.942352903999996" />
<path class="stroke" d="M 53.6423342 60.36021755 L 88.5270026 60.36021755" />
<path class="stroke" d="M 71.0846684 53.58503641000001 L 71.0846684 90.7821136" />
<path class="stroke" d="M 71.0846684 62.618612324999994 C 65.496351 72.84780903 58.7226267 78.29452394 49.91678714 81.08430274999999" />
<path class="stroke" d="M 71.0846684 62.618612324999994 C 76.3343035 72.98065492500001 83.44671299999999 78.42736983500001 92.25255372000001 80.818612325" />
</svg>
