<?xml version="1.0" standalone="no"?>
<!DOCTYPE svg PUBLIC "-//W3C//DTD SVG 1.1//EN" "http://www.w3.org/Graphics/SVG/1.1/DTD/svg11.dtd">
<svg xmlns="http://www.w3.org/2000/svg" version="1.1" width="100%" height="100%">
<style type="text/css"><![CDATA[
  .stroke { fill:none; stroke:black; stroke-width:2 }
]]></style>
<path class="stroke" d="M 8.69085 22.0316 L 2.3817 38.1199" />
<path class="stroke" d="M 20.6782 22.0316 L 27.6183 38.1199" />
<path class="stroke" d="M 14.6845 7.3123 L 14.6845 93.3186" />
<path class="stroke" d="M 46.58759025 14.25985296 L 88.631385 14.25985296" />
<path class="stroke" d="M 68.923356 7.25255424 C 66.29561774999999 19.865692799999998 57.31751625 34.160582399999996 40.018246500000004 40.607294399999994" />
<path class="stroke" d="M 61.2591225 27.85401504 L 89.2883205 27.85401504" />
<path class="stroke" d="M 72.86496149999999 27.99416016 L 72.86496149999999 43.1299248" />
<path class="stroke" d="M 52.28102025 43.410216 L 94.1058375 43.410216" />
<path class="stroke" d="M 54.2518245 54.9270065 L 54.21141 77.818795 C 49.07718075 90.10067000000001 49.07718075 89.697985 43.3389255 94.93288799999999" />
<path class="stroke" d="M 54.2518245 54.9270065 L 84.90876 54.9270065 L 84.90876 93.029195 C 84.90876 94.19708 84.0328425 95.218975 81.843063 95.218975 L 79.43430749999999 95.218975" />
<path class="stroke" d="M 54.2518245 65.9312885 L 84.90876 65.9312885" />
<path class="stroke" d="M 54.2518245 77.555168 L 84.90876 77.555168" />
</svg>
