<?xml version="1.0" standalone="no"?>
<!DOCTYPE svg PUBLIC "-//W3C//DTD SVG 1.1//EN" "http://www.w3.org/Graphics/SVG/1.1/DTD/svg11.dtd">
<svg xmlns="http://www.w3.org/2000/svg" version="1.1" width="100%" height="100%">
<style type="text/css"><![CDATA[
  .stroke { fill:none; stroke:black; stroke-width:2 }
]]></style>
<path class="stroke" d="M 25.45112 5.5205 C 20.328128 17.8233 14.14514 30.7571 6.1072556 40.5363" />
<path class="stroke" d="M 25.45112 5.83596 C 30.574112000000003 11.8296 34.107236 18.4543 37.90538 25.0789" />
<path class="stroke" d="M 12.201884 33.59624 L 35.785472 33.59624" />
<path class="stroke" d="M 7.6971614 51.57724 L 38.96528108 51.57724" />
<path class="stroke" d="M 24.92111612 33.9117 L 24.92111612 88.1703" />
<path class="stroke" d="M 7.432179199999999 61.672 C 11.053604 65.878 13.88012 70.3996 16.706636 75.2366" />
<path class="stroke" d="M 38.1704 61.6719 C 36.227144 67.4553 33.488912 72.2923 29.955788000000002 77.1294" />
<path class="stroke" d="M 8.7570944 94.4795 L 37.90538 83.7539" />
<path class="stroke" d="M 70.087588 10.5182462 C 63.255472 26.897808300000005 55.5474442 39.7445246 45.9124078 47.4525513" />
<path class="stroke" d="M 70.087588 10.5182462 C 77.0948884 26.255471 84.27736959999999 39.7445246 94.26276999999999 47.1313854" />
<path class="stroke" d="M 58.353868096 41.25 L 81.6461296 41.25" />
<path class="stroke" d="M 52.397428 54.5804832 L 88.170328 54.5804832 L 88.170328 81.28071768 C 88.107208 84.9568592 86.719228 87.18187920000001 84.574108 87.08518720000001 L 80.220808 87.08518720000001" />
<path class="stroke" d="M 69.05364399999999 54.870688 L 69.05364399999999 94.34071200000001" />
</svg>
