<?xml version="1.0" standalone="no"?>
<!DOCTYPE svg PUBLIC "-//W3C//DTD SVG 1.1//EN" "http://www.w3.org/Graphics/SVG/1.1/DTD/svg11.dtd">
<svg xmlns="http://www.w3.org/2000/svg" version="1.1" width="100%" height="100%">
<style type="text/css"><![CDATA[
  .stroke { fill:none; stroke:black; stroke-width:2 }
]]></style>
<path class="stroke" d="M 11.313868 17.445253 C 15.401459 18.029196 19.48905 20.364962 22.408756 24.160583" />
<path class="stroke" d="M 9.270073 47.226276 C 13.357662 47.226276 18.321167 46.934303 23.86861 43.138683 C 16.27737 53.357662 14.233576 58.321167 15.109488 60.9489 C 15.69343 63.284668 20.948904 65.62044 22.116787 68.832115 C 23.576641 72.33576 18.129246 80.26506 11.021896 83.722626" />
<path class="stroke" d="M 11.021896 84.014595 C 39.692924 81.65476 40.51095 91.313866 90.43795 90.14598" />
<path class="stroke" d="M 40.0236925 10.2176838 L 40.0236925 20.8233178" />
<path class="stroke" d="M 40.0236925 10.2176838 L 85.4494675 10.2176838 L 85.4494675 20.8233178" />
<path class="stroke" d="M 40.0236925 20.8233178 L 85.4494675 20.8233178" />
<path class="stroke" d="M 62.97315625 4.52681 L 62.97315625 29.359607999999998" />
<path class="stroke" d="M 30.79652875 29.618318 L 94.6766605 29.618318" />
<path class="stroke" d="M 43.3359775 38.5361419 L 43.3359775 76.72277233" />
<path class="stroke" d="M 43.3359775 38.5361419 L 79.7712775 38.5361419 L 79.7712775 52.6597891" />
<path class="stroke" d="M 43.5725275 52.6597891 L 79.7712775 52.6597891" />
<path class="stroke" d="M 43.3359775 63.2525245 L 82.3267345 63.2525245 L 82.3267345 76.72277233" />
<path class="stroke" d="M 43.341583 76.72277233 L 82.3267345 76.72277233" />
</svg>
