<?xml version="1.0" standalone="no"?>
<!DOCTYPE svg PUBLIC "-//W3C//DTD SVG 1.1//EN" "http://www.w3.org/Graphics/SVG/1.1/DTD/svg11.dtd">
<svg xmlns="http://www.w3.org/2000/svg" version="1.1" width="100%" height="100%">
<style type="text/css"><![CDATA[
  .stroke { fill:none; stroke:black; stroke-width:2 }
]]></style>
<path class="stroke" d="M 16.167883 9.854013 L 16.14094 55.63759 C 12.7181205 80.20134 12.7181205 79.39597 8.892617 89.865776" />
<path class="stroke" d="M 16.167883 9.854013 L 36.60584 9.854013 L 36.60584 86.05839 C 36.60584 88.39416 36.021895 90.43795 34.562042 90.43795 L 32.956205 90.43795" />
<path class="stroke" d="M 16.167883 31.862577 L 36.60584 31.862577" />
<path class="stroke" d="M 16.167883 55.110336 L 36.60584 55.110336" />
<path class="stroke" d="M 52.065678334000005 9.840697149999999 L 85.890223396 9.61506835 L 85.890223396 25.543836149999997 C 85.890223396 31.1657547 86.588918316 35.85068635 83.0954408824 34.9136985 L 79.369061364 34.9136985" />
<path class="stroke" d="M 52.065678334000005 9.840697149999999 L 52.065678334000005 90.7554813" />
<path class="stroke" d="M 59.8573345324 47.55000114 L 87.54994222 47.69108867999999 C 82.254018478 69.87029769 73.33457386719999 80.7059424 57.725544508000006 90.18712860000001" />
<path class="stroke" d="M 62.8550003128 48.50000076 C 65.79380495320001 63.27096651 73.0588376956 71.91290351999999 75.48051449440001 75.77419409999999 C 79.86980448400001 81.6580647 87.74025630880001 86.0709648 95.215089016 90.18712860000001" />
</svg>
