<?xml version="1.0" standalone="no"?>
<!DOCTYPE svg PUBLIC "-//W3C//DTD SVG 1.1//EN" "http://www.w3.org/Graphics/SVG/1.1/DTD/svg11.dtd">
<svg xmlns="http://www.w3.org/2000/svg" version="1.1" width="100%" height="100%">
<style type="text/css"><![CDATA[
  .stroke { fill:none; stroke:black; stroke-width:2 }
]]></style>
<path class="stroke" d="M 6.70348 15.3911456 L 43.29653 15.3911456" />
<path class="stroke" d="M 3.3911665 26.419544400000003 L 43.467535 26.354804" />
<path class="stroke" d="M 25.0 6.9747648 L 25.0 26.419618000000003 C 25.07792 37.108049199999996 15.7466 44.89699 3.706625 46.880142" />
<path class="stroke" d="M 25.0 26.419572000000002 C 33.64935 31.51636096 37.077923 34.670647200000005 42.22078 41.12259524" />
<path class="stroke" d="M 53.2397584 15.3911456 L 92.7602524 15.3911456" />
<path class="stroke" d="M 49.66245982 26.419544400000003 L 95.8265398 26.419544400000003" />
<path class="stroke" d="M 73.0 6.9747648 L 73.0 26.419618000000003 C 73.283932 35.22296 63.006328 44.89699 50.003155 46.880142" />
<path class="stroke" d="M 73.0 26.419572000000002 C 73.17037 35.319698 80.835994 44.074694 95.826502 47.025226" />
<path class="stroke" d="M 24.744522 56.4131383 L 24.744522 90.2583904" />
<path class="stroke" d="M 24.744522 56.4131383 L 74.9635 56.4131383 L 74.9635 90.2583904" />
<path class="stroke" d="M 25.036495 72.41379578 L 74.67153 72.41379578" />
<path class="stroke" d="M 24.744522 88.78101944 L 74.9635 88.78101944" />
</svg>
