<?xml version="1.0" standalone="no"?>
<!DOCTYPE svg PUBLIC "-//W3C//DTD SVG 1.1//EN" "http://www.w3.org/Graphics/SVG/1.1/DTD/svg11.dtd">
<svg xmlns="http://www.w3.org/2000/svg" version="1.1" width="100%" height="100%">
<style type="text/css"><![CDATA[
  .stroke { fill:none; stroke:black; stroke-width:2 }
]]></style>
<path class="stroke" d="M 15.46569284 14.540875699999999 L 35.915326040000004 12.84160545 L 34.52554476 30.68394162" />
<path class="stroke" d="M 12.68613096 32.94963464 L 34.52554476 30.68394162" />
<path class="stroke" d="M 12.68613096 32.94963464 L 11.296349 50.791967899999996 L 33.13576552 48.80948772 C 29.959122400000002 83.0780978 20.83168368 91.5485161 18.811881720000002 89.8198015 L 17.3980196 87.51485452" />
<path class="stroke" d="M 63.736787528 9.857663599999999 C 60.361605080000004 18.748174249999998 52.3080074 28.70443 42.810655888 35.813868 C 56.986422054 34.68978 69.305838914 34.1788325 82.79369260000001 34.253575" />
<path class="stroke" d="M 76.22496247000001 27.8430632 C 80.10642032 29.78467 83.48160276799999 32.74817425 85.67547344 36.7335735" />
<path class="stroke" d="M 44.252554 49.33138688 L 44.252554 70.07298816" />
<path class="stroke" d="M 44.252554 49.518247040000006 L 86.1445252 49.518247040000006 L 86.1445252 70.2598528" />
<path class="stroke" d="M 44.252554 67.69533952 L 86.1445252 67.69533952" />
<path class="stroke" d="M 64.99319320000001 37.37226176 L 64.99319320000001 87.45109376" />
<path class="stroke" d="M 42.86277204 90.25401600000001 L 86.34306208000001 84.8350336" />
<path class="stroke" d="M 82.3722592 78.8554752 C 85.747446 82.218976 87.5343024 85.95620095999999 88.72554000000001 90.25401600000001" />
</svg>
