<?xml version="1.0" standalone="no"?>
<!DOCTYPE svg PUBLIC "-//W3C//DTD SVG 1.1//EN" "http://www.w3.org/Graphics/SVG/1.1/DTD/svg11.dtd">
<svg xmlns="http://www.w3.org/2000/svg" version="1.1" width="100%" height="100%">
<style type="text/css"><![CDATA[
  .stroke { fill:none; stroke:black; stroke-width:2 }
]]></style>
<path class="stroke" d="M 50.0 7.96720234375 L 50.0 19.80198046875" />
<path class="stroke" d="M 26.0 10.51980234375 L 26.0 19.80198046875 L 74.23762400000001 19.80198046875" />
<path class="stroke" d="M 74.23762400000001 10.751857031250001 L 74.23762400000001 19.80198046875" />
<path class="stroke" d="M 18.431386619999998 35.700728840000004 L 18.4006716 66.8335612 C 14.498657369999998 83.5369112 14.498657369999998 82.98925960000001 10.137583379999999 90.10872768" />
<path class="stroke" d="M 18.431386619999998 35.700728840000004 L 41.730657599999994 35.700728840000004 L 41.730657599999994 87.5197052 C 41.730657599999994 89.1080288 41.064960299999996 90.497806 39.40072788 90.497806 L 37.570073699999995 90.497806" />
<path class="stroke" d="M 18.431386619999998 50.666552360000004 L 41.730657599999994 50.666552360000004" />
<path class="stroke" d="M 18.431386619999998 66.47502847999999 L 41.730657599999994 66.47502847999999" />
<path class="stroke" d="M 60.078101939999996 35.700728840000004 L 60.046309199999996 66.8335612 C 56.00738219 83.5369112 56.00738219 82.98925960000001 51.49328806 90.10872768" />
<path class="stroke" d="M 60.078101939999996 35.700728840000004 L 84.1948912 35.700728840000004 L 84.1948912 87.5197052 C 84.1948912 89.1080288 83.5058361 90.497806 81.78320955999999 90.497806 L 79.8883219 90.497806" />
<path class="stroke" d="M 60.078101939999996 50.666552360000004 L 84.1948912 50.666552360000004" />
<path class="stroke" d="M 60.078101939999996 66.47502847999999 L 84.1948912 66.47502847999999" />
</svg>
