<?xml version="1.0" standalone="no"?>
<!DOCTYPE svg PUBLIC "-//W3C//DTD SVG 1.1//EN" "http://www.w3.org/Graphics/SVG/1.1/DTD/svg11.dtd">
<svg xmlns="http://www.w3.org/2000/svg" version="1.1" width="100%" height="100%">
<style type="text/css"><![CDATA[
  .stroke { fill:none; stroke:black; stroke-width:2 }
]]></style>
<path class="stroke" d="M 12.372261 8.32189755 L 12.372261 31.1306544" />
<path class="stroke" d="M 12.372261 8.32189755 L 37.48175 8.32189755 L 37.48175 31.1306544" />
<path class="stroke" d="M 12.5182475 19.104949329999997 L 37.335765 19.104949329999997" />
<path class="stroke" d="M 12.372261 30.13503484 L 37.48175 30.13503484" />
<path class="stroke" d="M 25.07299 40.856890514599996 L 25.07299 47.7209480398" />
<path class="stroke" d="M 5.656934 47.8669929344 L 44.051095 47.8669929344" />
<path class="stroke" d="M 14.771167604999999 56.50055837305 L 14.771167604999999 71.3853415307" />
<path class="stroke" d="M 14.771167604999999 56.50055837305 L 34.820802 56.50055837305 L 34.820802 71.24221900458" />
<path class="stroke" d="M 14.771167604999999 70.24035789036799 L 34.820802 70.24035789036799" />
<path class="stroke" d="M 25.0026435 70.65694879009999 L 25.0026435 88.47429012699999 C 25.0026435 88.98544325649999 24.1970785 89.27753129499999 23.613138 89.27753129499999 L 22.59124 89.27753129499999" />
<path class="stroke" d="M 13.3941595 77.30194047399999 C 12.6642325 79.857707372 10.474452 82.0483645345 7.408758 83.8008905146" />
<path class="stroke" d="M 35.29197 77.30194047399999 C 38.2116775 78.83540111299999 40.693428 80.88001438129999 42.153282 83.94693340839999" />
<path class="stroke" d="M 86.31386499999999 9.854013 C 78.86861 20.948904 68.065693 29.124084 60.182480999999996 30.0" />
<path class="stroke" d="M 90.54744500000001 34.37956 C 82.01237 49.22649 74.56072 55.46259 61.71837 58.21079" />
<path class="stroke" d="M 94.70027 60.953674 C 85.217985 79.264305 72.2992685 88.68613 58.576642 89.56204" />
</svg>
