<?xml version="1.0" standalone="no"?>
<!DOCTYPE svg PUBLIC "-//W3C//DTD SVG 1.1//EN" "http://www.w3.org/Graphics/SVG/1.1/DTD/svg11.dtd">
<svg xmlns="http://www.w3.org/2000/svg" version="1.1" width="100%" height="100%">
<style type="text/css"><![CDATA[
  .stroke { fill:none; stroke:black; stroke-width:2 }
]]></style>
<path class="stroke" d="M 26.788319 7.725060833333334 C 24.452553 14.294403333333333 21.824816 18.430655833333333 16.861313 21.593672500000004" />
<path class="stroke" d="M 24.452553 15.024329999999999 L 47.226276 15.024329999999999" />
<path class="stroke" d="M 30.0 15.510948333333333 C 34.08759 19.403893333333336 35.547443 22.56691 36.423355 28.406325" />
<path class="stroke" d="M 65.32846 7.725060833333334 C 63.284668 15.754255833333335 60.07299 19.160582500000004 57.44525 21.593672500000004" />
<path class="stroke" d="M 62.9927 15.267639166666667 L 86.35036 15.267639166666667" />
<path class="stroke" d="M 72.62773 15.754255833333335 C 72.9197 21.107054166666668 71.16788 24.756689166666668 67.9562 28.406325" />
<path class="stroke" d="M 19.197079 36.113137 L 81.386856 36.113137 L 81.386856 48.81386725" />
<path class="stroke" d="M 15.985401 48.81386725 L 81.386856 48.81386725" />
<path class="stroke" d="M 16.27737 49.03284475 L 12.4817505 60.419707 L 88.10219 60.419707 C 88.10219 69.1788295 84.8905 73.55839 81.386856 76.4051095 C 79.84525 77.41678449999999 78.46715 79.25182 75.25547 79.4707975 L 71.45985 79.4707975" />
<path class="stroke" d="M 49.85401 36.113137 L 49.85401 93.457447" />
<path class="stroke" d="M 47.6025 60.8663545 C 40.91478 70.57769425 26.277540000000002 79.84424949999999 10.504679999999999 83.66207125" />
</svg>
