<?xml version="1.0" standalone="no"?>
<!DOCTYPE svg PUBLIC "-//W3C//DTD SVG 1.1//EN" "http://www.w3.org/Graphics/SVG/1.1/DTD/svg11.dtd">
<svg xmlns="http://www.w3.org/2000/svg" version="1.1" width="100%" height="100%">
<style type="text/css"><![CDATA[
  .stroke { fill:none; stroke:black; stroke-width:2 }
]]></style>
<path class="stroke" d="M 8.946819428571429 27.956203 L 28.46715257142857 27.956203" />
<path class="stroke" d="M 20.45880857142857 9.270073 L 20.45880857142857 90.14598" />
<path class="stroke" d="M 20.45880857142857 36.131386 C 17.20542 44.598537 13.20125057142857 52.48175 7.4452551428571425 56.861313" />
<path class="stroke" d="M 20.45880857142857 36.131386 C 24.212719714285715 37.299267 26.71532657142857 42.26277 27.96663 46.934303" />
<path class="stroke" d="M 34.085172 24.76342 L 95.9148 24.76342" />
<path class="stroke" d="M 72.50792 5.83596 L 72.50792 24.7634 C 72.80234 52.7339 83.91693999999998 93.0074 92.82332 93.2176 L 92.82332 82.4922" />
<path class="stroke" d="M 93.26495 44.637257 C 87.08198999999999 68.82226 76.48258999999999 86.38276 61.46682 92.586754" />
<path class="stroke" d="M 87.52368999999999 7.09779 C 90.02633 9.62145 91.64564 11.82965 93.26495 15.93065" />
<path class="stroke" d="M 34.13868546 45.7686111 L 67.6160568 45.7686111" />
<path class="stroke" d="M 45.7883208 35.94963492 L 45.7883208 49.5963492 C 45.7883208 65.24014398 43.213136999999996 77.0562018 39.41167752 79.552551" />
<path class="stroke" d="M 56.57956056 35.94963492 L 56.57956056 81.5496315" />
</svg>
