<?xml version="1.0" standalone="no"?>
<!DOCTYPE svg PUBLIC "-//W3C//DTD SVG 1.1//EN" "http://www.w3.org/Graphics/SVG/1.1/DTD/svg11.dtd">
<svg xmlns="http://www.w3.org/2000/svg" version="1.1" width="100%" height="100%">
<style type="text/css"><![CDATA[
  .stroke { fill:none; stroke:black; stroke-width:2 }
]]></style>
<path class="stroke" d="M 7.543611428571428 11.089109 L 27.28110476190476 11.290321 C 28.755760761904764 17.741934 24.331795809523808 33.225803 19.9078339047619 40.0" />
<path class="stroke" d="M 19.9078339047619 40.96774 C 23.59446857142857 44.51613 26.54377676190476 49.032257 28.01843276190476 54.19355 C 29.493085714285712 57.09677 29.493085714285712 65.161285 21.62826361904762 68.38709 L 16.95852495238095 69.354836" />
<path class="stroke" d="M 9.806694095238095 11.089109 L 9.806694095238095 90.09901" />
<path class="stroke" d="M 41.813893 8.04418 L 41.813893 41.79811" />
<path class="stroke" d="M 41.813893 8.04418 L 87.523613 8.04418 L 87.523613 41.79811" />
<path class="stroke" d="M 42.255488 25.394299 L 87.08201799999999 25.394299" />
<path class="stroke" d="M 41.813893 41.79811 L 87.523613 41.79811" />
<path class="stroke" d="M 35.851734 55.3628 L 35.851734 93.8486" />
<path class="stroke" d="M 35.851734 55.3628 L 93.92742999999999 55.3628 L 93.92742999999999 87.8549 C 94.00107 91.2198 92.5289 93.3228 90.83595 93.2177 L 87.52368999999999 93.2177" />
<path class="stroke" d="M 64.55837 8.67508 L 64.55837 74.92118" />
<path class="stroke" d="M 47.555229999999995 82.80749 C 57.71293 76.49839 69.19551999999999 73.34379 79.79491999999999 72.08199" />
<path class="stroke" d="M 76.04103 64.82649 C 79.5005 69.87379 81.41436999999999 75.23649 82.22398999999999 81.23029" />
</svg>
