<?xml version="1.0" standalone="no"?>
<!DOCTYPE svg PUBLIC "-//W3C//DTD SVG 1.1//EN" "http://www.w3.org/Graphics/SVG/1.1/DTD/svg11.dtd">
<svg xmlns="http://www.w3.org/2000/svg" version="1.1" width="100%" height="100%">
<style type="text/css"><![CDATA[
  .stroke { fill:none; stroke:black; stroke-width:2 }
]]></style>
<path class="stroke" d="M 15.930572 5.126185 L 79.33757 5.126185 C 69.13767 10.909545 61.14617 13.538345 50.31547 15.536295" />
<path class="stroke" d="M 42.74457 11.59305 C 47.686672 13.7487 51.99797 16.37755 53.15467 19.1641" />
<path class="stroke" d="M 7.728707 19.32177 L 92.271255 19.32177 C 89.957954 23.31757 85.751854 25.73607 79.65305 27.83912" />
<path class="stroke" d="M 53.46999 21.056785 L 53.46999 44.400635 C 53.36489 46.345935 51.05149 47.344885 48.10719 47.397485 L 42.11359 47.397485" />
<path class="stroke" d="M 53.47 21.2145 C 44.8475 32.7813 30.2313 40.87805 7.09779 45.03155" />
<path class="stroke" d="M 20.07299 61.934305 L 80.21897 61.934305" />
<path class="stroke" d="M 50.14598 54.489051 L 50.14598 95.36496" />
<path class="stroke" d="M 50.14598 64.4160575 C 40.51095 75.656933 28.832115 81.642334 13.649633 84.70802499999999" />
<path class="stroke" d="M 50.14598 64.4160575 C 59.197075 75.8029175 71.45985 81.7883185 86.642334 84.4160575" />
</svg>
