<?xml version="1.0" standalone="no"?>
<!DOCTYPE svg PUBLIC "-//W3C//DTD SVG 1.1//EN" "http://www.w3.org/Graphics/SVG/1.1/DTD/svg11.dtd">
<svg xmlns="http://www.w3.org/2000/svg" version="1.1" width="100%" height="100%">
<style type="text/css"><![CDATA[
  .stroke { fill:none; stroke:black; stroke-width:2 }
]]></style>
<path class="stroke" d="M 13.154171785714285 14.059406 C 16.654879285714284 16.138615 20.15558785714286 19.108912 23.01980357142857 22.673267" />
<path class="stroke" d="M 10.926448928571428 38.118813 C 14.108912142857141 39.90099 17.927864999999997 42.574257 20.473834285714286 46.138615" />
<path class="stroke" d="M 10.608203571428572 85.64356 C 11.321795357142857 87.422676 13.310014285714285 89.896904 15.629600357142856 89.896904 C 17.949189642857142 89.896904 21.110325 76.73267 23.33804892857143 69.60396" />
<path class="stroke" d="M 29.85016 9.382137931034482 L 95.149825 9.382137931034482" />
<path class="stroke" d="M 36.001599999999996 23.52331896551724 L 36.001599999999996 42.287629310344826" />
<path class="stroke" d="M 36.001599999999996 23.52331896551724 L 88.525225 23.52331896551724 L 88.525225 42.287629310344826" />
<path class="stroke" d="M 52.7997025 9.654051724137931 L 52.7997025 41.74370689655172" />
<path class="stroke" d="M 71.25395499999999 9.654125 L 71.25395499999999 41.4717974137931" />
<path class="stroke" d="M 36.001599999999996 42.287629310344826 L 88.525225 42.287629310344826" />
<path class="stroke" d="M 37.421125 55.7571 L 87.57887500000001 55.7571" />
<path class="stroke" d="M 30.32334625 70.268135 L 95.1498325 70.268135" />
<path class="stroke" d="M 62.7366025 70.42585 L 62.7366025 93.92745 C 62.7366025 95.60990000000001 60.8438275 96.6614 59.1876775 96.60884999999999 L 56.1119275 96.60884999999999" />
<path class="stroke" d="M 49.48735 76.57724999999999 C 45.1498 82.5184 40.102525 87.35544999999999 30.7965325 91.08834999999999" />
<path class="stroke" d="M 76.459075 76.73505 C 83.3203 80.46795 88.76185 85.14725 93.257125 91.08834999999999" />
</svg>
