<?xml version="1.0" standalone="no"?>
<!DOCTYPE svg PUBLIC "-//W3C//DTD SVG 1.1//EN" "http://www.w3.org/Graphics/SVG/1.1/DTD/svg11.dtd">
<svg xmlns="http://www.w3.org/2000/svg" version="1.1" width="100%" height="100%">
<style type="text/css"><![CDATA[
  .stroke { fill:none; stroke:black; stroke-width:2 }
]]></style>
<path class="stroke" d="M 20.7344878125 9.562042 C 24.019160625 11.021896 27.30382875 14.817516 29.493609375 19.48905" />
<path class="stroke" d="M 9.2381371875 22.8707 L 39.89506875 22.8707" />
<path class="stroke" d="M 15.260034375000002 37.007298 L 33.873174375 37.007298" />
<path class="stroke" d="M 15.260034375000002 51.313866 L 33.873174375 51.313866" />
<path class="stroke" d="M 14.165145 64.45255 L 14.165145 85.76642" />
<path class="stroke" d="M 14.165145 64.16058 L 35.515509375 64.16058 L 35.515509375 85.76642" />
<path class="stroke" d="M 14.165145 85.76642 L 35.2417875 85.76642" />
<path class="stroke" d="M 71.28550100000001 10.729925 L 71.28550100000001 23.86861" />
<path class="stroke" d="M 52.98905085 23.86861 L 92.171531 23.86861" />
<path class="stroke" d="M 70.492698 39.343063 L 87.83576550000001 39.343063 C 87.03284525000001 53.06569 86.39050850000001 62.116783 85.10583500000001 70.29197 C 83.5 79.63503 80.609486 88.10219 78.0401445 88.10219 L 74.82846570000001 88.10219" />
<path class="stroke" d="M 71.29561825 23.86861 L 70.17153210000001 41.38686 C 69.0474443 60.07299 64.8722623 78.46715 58.6094871 84.014595" />
</svg>
