<?xml version="1.0" standalone="no"?>
<!DOCTYPE svg PUBLIC "-//W3C//DTD SVG 1.1//EN" "http://www.w3.org/Graphics/SVG/1.1/DTD/svg11.dtd">
<svg xmlns="http://www.w3.org/2000/svg" version="1.1" width="100%" height="100%">
<style type="text/css"><![CDATA[
  .stroke { fill:none; stroke:black; stroke-width:2 }
]]></style>
<path class="stroke" d="M 22.28467002 10.729925 C 18.76934176 18.029196 13.9985382 23.86861 9.47883056 28.540146 C 12.994159680000001 31.45985 17.262771400000002 36.131386 21.28028892 40.218975" />
<path class="stroke" d="M 31.82627628 25.912407 C 25.8 34.67153 17.76496238 45.18248 7.7211677199999995 56.277367 C 16.760583 54.525543 26.80437766 52.48175 35.8437938 50.437954" />
<path class="stroke" d="M 32.8306548 43.430653 C 35.34160282 46.642334 36.09488972 49.85401 37.601458359999995 55.40146" />
<path class="stroke" d="M 22.786861 54.233574 L 22.786861 89.56204" />
<path class="stroke" d="M 15.00291758 65.03649 C 13.496349799999999 70.87591 11.738684379999999 74.67153 8.22335612 78.75912" />
<path class="stroke" d="M 29.315327399999997 65.32846 C 32.07736962 68.540146 32.122161 68.81081 33.516754199999994 71.72973" />
<path class="stroke" d="M 66.087588 10.13576452 C 59.255472 25.919706180000002 51.5474442 38.29926916 41.9124078 45.72700398" />
<path class="stroke" d="M 66.087588 10.13576452 C 73.0948884 25.3007266 80.27736959999999 38.29926916 90.26276999999999 45.41751684" />
<path class="stroke" d="M 56.961234 41.46376 L 74.56861062 41.46376" />
<path class="stroke" d="M 49.878392958 57.11032 L 81.37970622 57.11032" />
<path class="stroke" d="M 60.662626038 57.4014584 C 58.959853596 68.6131376 55.41240789 79.5912352 51.439269438 88.934304 C 61.939706220000005 86.36496 70.45357572 85.1970768 78.82554293999999 84.729928" />
<path class="stroke" d="M 76.8389742 78.189776 C 78.39985359600001 81.92700160000001 79.67693231999999 86.598536 80.38641942000001 90.80292" />
</svg>
