<?xml version="1.0" standalone="no"?>
<!DOCTYPE svg PUBLIC "-//W3C//DTD SVG 1.1//EN" "http://www.w3.org/Graphics/SVG/1.1/DTD/svg11.dtd">
<svg xmlns="http://www.w3.org/2000/svg" version="1.1" width="100%" height="100%">
<style type="text/css"><![CDATA[
  .stroke { fill:none; stroke:black; stroke-width:2 }
]]></style>
<path class="stroke" d="M 13.154171785714285 14.059406 C 16.654879285714284 16.138615 20.15558785714286 19.108912 23.01980357142857 22.673267" />
<path class="stroke" d="M 10.926448928571428 38.118813 C 14.108912142857141 39.90099 17.927864999999997 42.574257 20.473834285714286 46.138615" />
<path class="stroke" d="M 10.608203571428572 85.64356 C 11.321795357142857 87.422676 13.310014285714285 89.896904 15.629600357142856 89.896904 C 17.949189642857142 89.896904 21.110325 76.73267 23.33804892857143 69.60396" />
<path class="stroke" d="M 49.9274264 8.99053 C 45.41431292 18.1388 40.200864179999996 24.448 33.58675158 28.8644" />
<path class="stroke" d="M 74.9053716 8.99054 C 79.3407096 16.877 84.47630960000001 23.1861 91.01258159999999 27.6025" />
<path class="stroke" d="M 62.766529999999996 19.71604 C 53.895854 39.27444 45.258722000000006 50.94644 30.5520508 58.51734" />
<path class="stroke" d="M 62.766529999999996 19.71604 C 71.248188 39.37954 79.262832 50.84114 95.214494 58.51734" />
<path class="stroke" d="M 45.4921032 60.09469 L 45.7255732 91.64039" />
<path class="stroke" d="M 45.4921032 60.09469 L 80.0409272 60.09469 L 80.2743972 91.64039" />
<path class="stroke" d="M 45.7255732 91.64039 L 80.2743972 91.64039" />
</svg>
