<?xml version="1.0" standalone="no"?>
<!DOCTYPE svg PUBLIC "-//W3C//DTD SVG 1.1//EN" "http://www.w3.org/Graphics/SVG/1.1/DTD/svg11.dtd">
<svg xmlns="http://www.w3.org/2000/svg" version="1.1" width="100%" height="100%">
<style type="text/css"><![CDATA[
  .stroke { fill:none; stroke:black; stroke-width:2 }
]]></style>
<path class="stroke" d="M 10.036495 10.5021884 L 40.109485 10.5021884" />
<path class="stroke" d="M 25.07299 3.95036488 L 25.07299 39.92116480000001" />
<path class="stroke" d="M 25.07299 12.6861306 C 20.255475 22.57810104 14.4160575 27.84525392 6.8248165 30.543062" />
<path class="stroke" d="M 25.07299 12.6861306 C 33.00499 16.403992 38.99003 22.3291772 43.321167 30.2861306" />
<path class="stroke" d="M 60.036495 10.5021884 L 90.109485 10.5021884" />
<path class="stroke" d="M 75.07299 3.95036488 L 75.07299 39.92116480000001" />
<path class="stroke" d="M 75.07299 12.6861306 C 70.255475 22.57810104 64.4160575 27.84525392 56.8248165 30.543062" />
<path class="stroke" d="M 75.07299 12.6861306 C 79.59853749999999 22.7065674 85.72992500000001 27.97372028 93.321167 30.2861306" />
<path class="stroke" d="M 72.9197 44.83284562 C 57.153282 46.2576641 40.319 47.304662 25.620438 47.86058367" />
<path class="stroke" d="M 22.116787 58.90291835 L 79.927 58.90291835" />
<path class="stroke" d="M 11.605839 71.0138675 L 88.39416 71.0138675" />
<path class="stroke" d="M 49.27007 47.32627613 C 51.62162 51.10108057 51.945942 52.28810763 52.594593 56.24486287 L 52.48175 91.1394145 C 52.48175 93.27663856 50.729923 94.87955935 47.226276 94.70145826000001 L 44.014595 94.70145826000001" />
</svg>
