<?xml version="1.0" standalone="no"?>
<!DOCTYPE svg PUBLIC "-//W3C//DTD SVG 1.1//EN" "http://www.w3.org/Graphics/SVG/1.1/DTD/svg11.dtd">
<svg xmlns="http://www.w3.org/2000/svg" version="1.1" width="100%" height="100%">
<style type="text/css"><![CDATA[
  .stroke { fill:none; stroke:black; stroke-width:2 }
]]></style>
<path class="stroke" d="M 11.313868 17.445253 C 15.401459 18.029196 19.48905 20.364962 22.408756 24.160583" />
<path class="stroke" d="M 9.270073 47.226276 C 13.357662 47.226276 18.321167 46.934303 23.86861 43.138683 C 16.27737 53.357662 14.233576 58.321167 15.109488 60.9489 C 15.69343 63.284668 20.948904 65.62044 22.116787 68.832115 C 23.576641 72.33576 18.129246 80.26506 11.021896 83.722626" />
<path class="stroke" d="M 11.021896 84.014595 C 39.692924 81.65476 40.51095 91.313866 90.43795 90.14598" />
<path class="stroke" d="M 39.8248169 16.651094399999998 L 84.17517749999999 16.651094399999998" />
<path class="stroke" d="M 62.0 7.49489014 L 62.0 28.5868588" />
<path class="stroke" d="M 33.8978091 28.5868588 L 89.897807 28.5868588" />
<path class="stroke" d="M 43.702969499999995 34.98613856 C 46.405939000000004 37.086733088 48.69307 39.833663808000004 50.1485135 42.74217884800001" />
<path class="stroke" d="M 77.801982 35.147722336 C 76.762377 38.37940656 74.891088 40.964751872 72.18812199999999 42.74217884800001" />
<path class="stroke" d="M 42.4554456 45.812277120000005 L 81.33663479999998 45.812277120000005" />
<path class="stroke" d="M 44.3267332 55.184156800000004 L 79.673271 55.184156800000004" />
<path class="stroke" d="M 36.8415842 64.71762624000002 L 87.574255 64.71762624000002" />
<path class="stroke" d="M 62.0 45.812277120000005 L 62.0 78.45227712" />
</svg>
