<?xml version="1.0" standalone="no"?>
<!DOCTYPE svg PUBLIC "-//W3C//DTD SVG 1.1//EN" "http://www.w3.org/Graphics/SVG/1.1/DTD/svg11.dtd">
<svg xmlns="http://www.w3.org/2000/svg" version="1.1" width="100%" height="100%">
<style type="text/css"><![CDATA[
  .stroke { fill:none; stroke:black; stroke-width:2 }
]]></style>
<path class="stroke" d="M 54.10092 6.46688 L 54.10092 14.66882" />
<path class="stroke" d="M 18.7697 14.98422 L 93.8486 14.98422" />
<path class="stroke" d="M 18.7697 15.2997 L 18.7697 59.7792 C 19.0852 71.2408 14.6687 79.2323 6.46688 87.5394" />
<path class="stroke" d="M 5.83596 25.07884 C 8.78023 28.65404 10.4627 32.22924 11.8297 36.43534" />
<path class="stroke" d="M 6.15141 58.20189 C 8.14931 57.04519 10.4627 54.62679 12.1451 52.20829" />
<path class="stroke" d="M 29.708730938 29.322406589265 L 53.380227878 29.322406589265 L 53.380227878 46.490733263610004" />
<path class="stroke" d="M 29.708730938 46.490733263610004 L 53.380227878 46.490733263610004" />
<path class="stroke" d="M 29.708730938 29.322406589265 L 29.708730938 63.44443434870001 C 29.745109098 73.4592611322 29.017857118 78.96747368819999 25.127161036 87.90933579622501" />
<path class="stroke" d="M 33.5079240726 61.771355105095 L 33.5079240726 91.996142027425" />
<path class="stroke" d="M 33.5079240726 61.887604178035 L 51.772571568000004 61.887604178035 L 51.772571568000004 92.11239145879999" />
<path class="stroke" d="M 33.8591673978 90.94990072939999 L 51.702322773000006 90.94990072939999" />
<path class="stroke" d="M 80.0000152 24.5944970918 L 80.0000152 31.427325016799998" />
<path class="stroke" d="M 65.735028 31.898572609 L 94.384862 31.898572609" />
<path class="stroke" d="M 70.29024000000001 31.898565140000002 L 75.32493600000001 53.57517163" />
<path class="stroke" d="M 89.11042400000001 32.13421209 L 84.075728 54.04639084" />
<path class="stroke" d="M 63.3375377 54.282015383 L 96.7823276 54.282015383" />
<path class="stroke" d="M 65.85490659999999 73.60244366399999 L 93.7855146 73.60244366399999" />
<path class="stroke" d="M 79.88011 54.281995963600004 L 79.88011 91.037987636" />
</svg>
