<?xml version="1.0" standalone="no"?>
<!DOCTYPE svg PUBLIC "-//W3C//DTD SVG 1.1//EN" "http://www.w3.org/Graphics/SVG/1.1/DTD/svg11.dtd">
<svg xmlns="http://www.w3.org/2000/svg" version="1.1" width="100%" height="100%">
<style type="text/css"><![CDATA[
  .stroke { fill:none; stroke:black; stroke-width:2 }
]]></style>
<path class="stroke" d="M 25.912407 10.729925 C 21.824816 18.029196 16.27737 23.86861 11.021896 28.540146 C 15.109488 31.45985 20.07299 36.131386 24.744522 40.218975" />
<path class="stroke" d="M 37.007298 25.912407 C 30.0 34.67153 20.656933 45.18248 8.978102 56.277367 C 19.48905 54.525543 31.167881 52.48175 41.67883 50.437954" />
<path class="stroke" d="M 38.17518 43.430653 C 41.094887 46.642334 41.970802 49.85401 43.722626 55.40146" />
<path class="stroke" d="M 26.49635 54.233574 L 26.49635 89.56204" />
<path class="stroke" d="M 17.445253 65.03649 C 15.69343 70.87591 13.649633 74.67153 9.562042 78.75912" />
<path class="stroke" d="M 34.08759 65.32846 C 37.299267 68.540146 37.35135 68.81081 38.97297 71.72973" />
<path class="stroke" d="M 73.029195 4.781021 C 72.901925 7.589295 69.858925 10.847595 67.126475 10.955695" />
<path class="stroke" d="M 60.7664225 11.0583935 L 60.7664225 45.51095" />
<path class="stroke" d="M 60.7664225 10.9561425 L 89.525547 10.9561425 L 89.525547 45.51095" />
<path class="stroke" d="M 60.7664225 27.1843625 L 89.525547 27.1843625" />
<path class="stroke" d="M 60.7664225 44.01178 L 89.525547 44.01178" />
<path class="stroke" d="M 58.8686125 55.85693232 L 58.8686125 79.8919688" />
<path class="stroke" d="M 58.8686125 55.85693232 L 91.423355 55.85693232 L 91.423355 78.58393760000001 C 91.423355 81.0364912 90.109485 82.5080256 88.64963 82.6715288 L 87.33576500000001 82.6715288" />
<path class="stroke" d="M 75.07299 47.51824728 L 75.07299 92.48174879999999" />
</svg>
