<?xml version="1.0" standalone="no"?>
<!DOCTYPE svg PUBLIC "-//W3C//DTD SVG 1.1//EN" "http://www.w3.org/Graphics/SVG/1.1/DTD/svg11.dtd">
<svg xmlns="http://www.w3.org/2000/svg" version="1.1" width="100%" height="100%">
<style type="text/css"><![CDATA[
  .stroke { fill:none; stroke:black; stroke-width:2 }
]]></style>
<path class="stroke" d="M 30.7571 7.41325 C 24.9737 19.6109 16.0357 28.654 5.5205 34.2271" />
<path class="stroke" d="M 28.5489 13.4069 L 63.8801 13.4069 C 60.4101 18.0336 56.3091 22.6603 51.2618 25.3943" />
<path class="stroke" d="M 18.45429 25.07889 L 18.45429 41.79809" />
<path class="stroke" d="M 18.45429 25.07889 L 82.80759 25.07889 L 82.80759 41.79809" />
<path class="stroke" d="M 50.9464 25.394272 L 50.9464 41.482674" />
<path class="stroke" d="M 18.45429 41.79809 L 82.80759 41.79809" />
<path class="stroke" d="M 49.0537 45.268 C 37.4869 53.7854 24.6582 59.4637 7.41324 60.4101" />
<path class="stroke" d="M 50.631 45.899014 C 54.6268 51.997814 56.4143 58.412113 56.6246 65.77281 L 56.6246 87.224014 C 56.7296 91.90331 53.7854 94.447815 49.6845 94.479515 L 44.0063 94.479515" />
<path class="stroke" d="M 55.0474 55.9938 C 44.0064 68.2966 27.2871 75.2366 7.09779 75.2366" />
<path class="stroke" d="M 56.3092 70.1894 C 46.3197 84.4901 24.3428 91.5352 6.78233 91.6404" />
<path class="stroke" d="M 90.063 51.2618 C 85.3312 58.7277 77.4448 65.2471 67.9811 67.9811" />
<path class="stroke" d="M 56.3092 58.5173 C 63.0389 78.6014 74.5005 93.6382 86.9085 93.8486 L 92.9022 93.8486" />
</svg>
