<?xml version="1.0" standalone="no"?>
<!DOCTYPE svg PUBLIC "-//W3C//DTD SVG 1.1//EN" "http://www.w3.org/Graphics/SVG/1.1/DTD/svg11.dtd">
<svg xmlns="http://www.w3.org/2000/svg" version="1.1" width="100%" height="100%">
<style type="text/css"><![CDATA[
  .stroke { fill:none; stroke:black; stroke-width:2 }
]]></style>
<path class="stroke" d="M 27.918 5.5205 C 21.8192 17.8233 14.4585 30.7571 4.88959 40.5363" />
<path class="stroke" d="M 27.918 5.83596 C 34.0168 11.8296 38.2229 18.4543 42.7445 25.0789" />
<path class="stroke" d="M 12.1451 33.59624 L 40.2208 33.59624" />
<path class="stroke" d="M 6.782335 51.57724 L 44.006287 51.57724" />
<path class="stroke" d="M 27.287043 33.9117 L 27.287043 88.1703" />
<path class="stroke" d="M 6.46688 61.672 C 10.7781 65.878 14.143 70.3996 17.5079 75.2366" />
<path class="stroke" d="M 43.06 61.6719 C 40.7466 67.4553 37.4868 72.2923 33.2807 77.1294" />
<path class="stroke" d="M 8.04416 94.4795 L 42.7445 83.7539" />
<path class="stroke" d="M 65.145985 17.153284 C 64.85401350000001 25.036495 63.686130500000004 32.919704 61.934305 35.839413" />
<path class="stroke" d="M 64.1240865 29.708027 L 86.60584 29.708027" />
<path class="stroke" d="M 75.095232 9.854013 L 75.095232 48.394157" />
<path class="stroke" d="M 57.7007295 48.394157 L 91.861313 48.394157" />
<path class="stroke" d="M 70.245395 54.525543 L 70.245395 58.905106 C 70.245395 70.87591 65.2919695 86.642334 58.284671 87.81021" />
<path class="stroke" d="M 76.824815 54.525543 L 76.824815 79.927 C 76.824815 86.9343 79.59853749999999 91.0219 82.51824500000001 91.0219 L 91.861313 91.0219 C 93.17518 91.0219 94.19708 89.56204 94.19708 86.642334 L 94.19708 84.59853" />
</svg>
