<?xml version="1.0" standalone="no"?>
<!DOCTYPE svg PUBLIC "-//W3C//DTD SVG 1.1//EN" "http://www.w3.org/Graphics/SVG/1.1/DTD/svg11.dtd">
<svg xmlns="http://www.w3.org/2000/svg" version="1.1" width="100%" height="100%">
<style type="text/css"><![CDATA[
  .stroke { fill:none; stroke:black; stroke-width:2 }
]]></style>
<path class="stroke" d="M 8.946819428571429 27.956203 L 28.46715257142857 27.956203" />
<path class="stroke" d="M 20.45880857142857 9.270073 L 20.45880857142857 90.14598" />
<path class="stroke" d="M 20.45880857142857 36.131386 C 17.20542 44.598537 13.20125057142857 52.48175 7.4452551428571425 56.861313" />
<path class="stroke" d="M 20.45880857142857 36.131386 C 24.212719714285715 37.299267 26.71532657142857 42.26277 27.96663 46.934303" />
<path class="stroke" d="M 42.4160575 50.729923 L 42.4160575 90.14598 L 85.94890000000001 90.14598" />
<path class="stroke" d="M 47.14540128 20.2224 L 82.85459648 20.2224" />
<path class="stroke" d="M 65.0 8.8462481184 L 65.0 33.306392064" />
<path class="stroke" d="M 51.272845986 35.848758176 L 51.272845986 78.70539776" />
<path class="stroke" d="M 51.272845986 35.848758176 L 79.967736756 35.848758176 L 79.967736756 78.5512376" />
<path class="stroke" d="M 51.272845986 48.940046144 L 79.967736756 48.940046144" />
<path class="stroke" d="M 51.272845986 63.63940352 L 79.967736756 63.63940352" />
<path class="stroke" d="M 51.272845986 77.16379088000001 L 79.967736756 77.16379088000001" />
</svg>
