<?xml version="1.0" standalone="no"?>
<!DOCTYPE svg PUBLIC "-//W3C//DTD SVG 1.1//EN" "http://www.w3.org/Graphics/SVG/1.1/DTD/svg11.dtd">
<svg xmlns="http://www.w3.org/2000/svg" version="1.1" width="100%" height="100%">
<style type="text/css"><![CDATA[
  .stroke { fill:none; stroke:black; stroke-width:2 }
]]></style>
<path class="stroke" d="M 22.83909 7.54891 L 77.38168999999999 7.54891 L 77.38168999999999 30.26182" />
<path class="stroke" d="M 22.61831 18.526801 L 77.38168999999999 18.526801" />
<path class="stroke" d="M 22.83909 30.26182 L 77.38168999999999 30.26182" />
<path class="stroke" d="M 7.029217391304347 40.073482999999996 L 42.689565217391305 40.073482999999996" />
<path class="stroke" d="M 24.85945652173913 40.196528 L 24.85945652173913 58.28168600000001" />
<path class="stroke" d="M 8.057882608695651 60.619229000000004 L 42.68960869565217 56.067227" />
<path class="stroke" d="M 59.1605835 40.3211675 L 59.1605835 58.540144999999995" />
<path class="stroke" d="M 59.1605835 40.3211675 L 90.9854 40.3211675 L 90.9854 58.364963" />
<path class="stroke" d="M 59.1605835 57.13868479999999 L 90.9854 57.13868479999999" />
<path class="stroke" d="M 10.437956 74.75693363 L 89.270065 74.75693363" />
<path class="stroke" d="M 65.62044 69.59781009 L 65.62044 92.5875902 C 65.62044 93.4021896 64.45255 93.9452538 61.824814 93.9452538 L 53.941605 93.9452538" />
<path class="stroke" d="M 26.49635 78.19634953 C 30.0 79.01094862 33.211678 80.18759082 35.839413 82.17883087" />
</svg>
