<?xml version="1.0" standalone="no"?>
<!DOCTYPE svg PUBLIC "-//W3C//DTD SVG 1.1//EN" "http://www.w3.org/Graphics/SVG/1.1/DTD/svg11.dtd">
<svg xmlns="http://www.w3.org/2000/svg" version="1.1" width="100%" height="100%">
<style type="text/css"><![CDATA[
  .stroke { fill:none; stroke:black; stroke-width:2 }
]]></style>
<path class="stroke" d="M 12.189779 14.9087585 L 87.81021 14.9087585" />
<path class="stroke" d="M 34.67153 7.97445105 L 34.67153 22.397808949999998" />
<path class="stroke" d="M 65.32846 7.97445105 L 65.32846 22.397808949999998" />
<path class="stroke" d="M 49.05361 22.416408 L 49.05361 28.473224000000002" />
<path class="stroke" d="M 12.1451 28.977936 L 92.9022 28.977936" />
<path class="stroke" d="M 12.145143 29.230285600000002 L 12.145143 66.832768 C 12.565743 78.273328 10.778143 85.928448 5.835963 93.5835632" />
<path class="stroke" d="M 12.145086 39.701312 L 84.700386 39.701312 L 84.700386 50.361176" />
<path class="stroke" d="M 35.488987 29.230324799999998 L 35.488987 49.8580656" />
<path class="stroke" d="M 61.04105 29.230324799999998 L 61.04105 49.441536" />
<path class="stroke" d="M 12.145086 50.361176 L 84.700386 50.361176" />
<path class="stroke" d="M 33.0188 63.78616 L 92.4528 63.78616" />
<path class="stroke" d="M 32.3899 50.4528 L 32.3899 63.28304 C 31.9706 68.06288 30.2935 72.08808 26.7296 76.61632 L 88.3648 76.3648 L 88.3648 89.19496000000001 C 88.3648 91.8784 86.478 93.55552 83.6478 93.47168 L 79.5597 93.47168" />
<path class="stroke" d="M 23.2705 82.90568 C 21.9078 86.67928 19.2872 90.2012 16.0377 93.47168" />
<path class="stroke" d="M 33.962204 82.65408000000001 C 36.373203 84.91824000000001 39.098503 88.44024 40.880505 91.2076" />
<path class="stroke" d="M 51.57237 82.90568 C 54.19297 85.25368 55.87007 87.85328 57.86167 90.2012" />
<path class="stroke" d="M 67.29568 82.15096 C 69.39208 83.82808 71.48858 86.51152 73.27048 88.44024" />
</svg>
