<?xml version="1.0" standalone="no"?>
<!DOCTYPE svg PUBLIC "-//W3C//DTD SVG 1.1//EN" "http://www.w3.org/Graphics/SVG/1.1/DTD/svg11.dtd">
<svg xmlns="http://www.w3.org/2000/svg" version="1.1" width="100%" height="100%">
<style type="text/css"><![CDATA[
  .stroke { fill:none; stroke:black; stroke-width:2 }
]]></style>
<path class="stroke" d="M 3.548895 8.35962 L 46.60885 8.35962" />
<path class="stroke" d="M 11.9085 19.7161 L 11.9085 31.388" />
<path class="stroke" d="M 11.9085 19.7161 L 38.0915 19.7161 L 38.0915 31.388" />
<path class="stroke" d="M 11.9085 31.388 L 38.0915 31.388" />
<path class="stroke" d="M 7.9653075 42.7445 L 7.9653075 94.4795" />
<path class="stroke" d="M 7.9653075 42.7445 L 42.19246 42.7445 L 42.19246 88.1703 C 42.139908 91.6404 40.9832075 93.5331 39.668808 93.8486 L 36.9874075 93.8486" />
<path class="stroke" d="M 19.794945 43.05992 C 20.215545 59.46372 17.954745 62.30282 13.012595 64.82652" />
<path class="stroke" d="M 29.416405 43.37543 L 29.416405 55.99373 C 29.363855 59.14833 30.415355 61.67193 32.097805 61.67193 L 36.987355 61.67193" />
<path class="stroke" d="M 15.378536 72.71288 L 34.779185 72.71288" />
<path class="stroke" d="M 25.157735 72.71288 L 25.157735 92.586784" />
<path class="stroke" d="M 59.744524999999996 27.080292 L 59.744524999999996 59.489044" />
<path class="stroke" d="M 59.744524999999996 27.372261 L 90.54744500000001 27.372261 L 90.54744500000001 59.78102" />
<path class="stroke" d="M 59.744524999999996 55.773968 L 90.54744500000001 55.773968" />
<path class="stroke" d="M 74.994995 8.394159 L 74.994995 86.642334" />
<path class="stroke" d="M 58.722626500000004 91.0219 L 90.693428 82.55474" />
<path class="stroke" d="M 87.77372 73.21168 C 90.25547499999999 78.46715 91.56934 84.306564 92.44525 91.0219" />
</svg>
