<?xml version="1.0" standalone="no"?>
<!DOCTYPE svg PUBLIC "-//W3C//DTD SVG 1.1//EN" "http://www.w3.org/Graphics/SVG/1.1/DTD/svg11.dtd">
<svg xmlns="http://www.w3.org/2000/svg" version="1.1" width="100%" height="100%">
<style type="text/css"><![CDATA[
  .stroke { fill:none; stroke:black; stroke-width:2 }
]]></style>
<path class="stroke" d="M 13.154171785714285 14.059406 C 16.654879285714284 16.138615 20.15558785714286 19.108912 23.01980357142857 22.673267" />
<path class="stroke" d="M 10.926448928571428 38.118813 C 14.108912142857141 39.90099 17.927864999999997 42.574257 20.473834285714286 46.138615" />
<path class="stroke" d="M 10.608203571428572 85.64356 C 11.321795357142857 87.422676 13.310014285714285 89.896904 15.629600357142856 89.896904 C 17.949189642857142 89.896904 21.110325 76.73267 23.33804892857143 69.60396" />
<path class="stroke" d="M 40.0547425 15.864263617021276 L 84.7262725 15.864263617021276" />
<path class="stroke" d="M 62.609485 9.15514659574468 L 62.609485 39.06662265957447" />
<path class="stroke" d="M 42.0255475 27.32567170212766 L 82.974445 27.32567170212766" />
<path class="stroke" d="M 32.60948875 39.06662265957447 L 92.60948499999999 39.06662265957447" />
<path class="stroke" d="M 49.2518245 49.51824728 L 49.21141 75.1570504 C 48.5994775 86.42512959999999 49.6256875 87.95052480000001 43.88743525 93.8136128" />
<path class="stroke" d="M 49.2518245 49.51824728 L 79.90876 49.51824728 L 79.90876 92.19269840000001 C 79.90876 93.5007296 79.0328425 94.645252 76.843063 94.645252 L 74.43430749999999 94.645252" />
<path class="stroke" d="M 49.2518245 61.843043120000004 L 79.90876 61.843043120000004" />
<path class="stroke" d="M 49.2518245 74.86178816 L 79.90876 74.86178816" />
</svg>
