<?xml version="1.0" standalone="no"?>
<!DOCTYPE svg PUBLIC "-//W3C//DTD SVG 1.1//EN" "http://www.w3.org/Graphics/SVG/1.1/DTD/svg11.dtd">
<svg xmlns="http://www.w3.org/2000/svg" version="1.1" width="100%" height="100%">
<style type="text/css"><![CDATA[
  .stroke { fill:none; stroke:black; stroke-width:2 }
]]></style>
<path class="stroke" d="M 28.837954879999998 12.4698888125 L 71.7226208 12.4698888125" />
<path class="stroke" d="M 14.543065279999999 23.637772124999998 C 14.543065279999999 29.531932437500004 14.262773119999999 33.5647786875 12.86131328 37.90784625" />
<path class="stroke" d="M 14.82335552 23.637772124999998 L 86.0175104 23.637772124999998 C 85.7372192 29.8421495 84.89634559999999 32.94433925 83.7751808 36.046530062500004" />
<path class="stroke" d="M 50.15901248 12.4698888125 L 50.15901248 51.2472575" />
<path class="stroke" d="M 27.99708032 31.0830273125 C 32.20145599999999 32.013683812500005 35.0043776 33.5647786875 37.80729632 36.977185500000004" />
<path class="stroke" d="M 28.27737056 41.9406925 C 31.640875519999998 42.561128749999995 34.4437952 44.422443875 37.52700608 48.7655071875" />
<path class="stroke" d="M 60.510944 31.0830273125 C 64.1547392 31.7034656875 67.23795199999999 33.254561625 71.1620384 36.6669684375" />
<path class="stroke" d="M 60.510944 42.250910624999996 C 64.43503039999999 42.87134687499999 67.79854015999999 45.6633174375 70.601456 48.7655071875" />
<path class="stroke" d="M 25.167168 58.850177 L 75.03468799999999 58.850177 L 75.03468799999999 89.891154" />
<path class="stroke" d="M 24.965312 73.85329469999999 L 75.03468799999999 73.85329469999999" />
<path class="stroke" d="M 25.167168 89.891154 L 75.03468799999999 89.891154" />
</svg>
