<?xml version="1.0" standalone="no"?>
<!DOCTYPE svg PUBLIC "-//W3C//DTD SVG 1.1//EN" "http://www.w3.org/Graphics/SVG/1.1/DTD/svg11.dtd">
<svg xmlns="http://www.w3.org/2000/svg" version="1.1" width="100%" height="100%">
<style type="text/css"><![CDATA[
  .stroke { fill:none; stroke:black; stroke-width:2 }
]]></style>
<path class="stroke" d="M 20.891088 21.48515 L 20.891088 46.732674 C 20.891088 62.178215 17.920792 71.68317 11.683168 82.07921" />
<path class="stroke" d="M 20.891088 21.6088 L 76.435646 21.6088" />
<path class="stroke" d="M 58.019806 9.60396 L 62.178215 41.68317 C 65.44554 69.30693 80.0 90.09901 84.75247 90.09901 L 86.83168 90.09901 C 88.91089 90.09901 90.9901 88.019806 90.9901 85.9406 L 90.9901 82.376236" />
<path class="stroke" d="M 78.81188 43.168316 C 75.544556 54.455444 69.30693 61.58416 61.287132 68.11881" />
<path class="stroke" d="M 78.514854 9.306931 C 82.376236 10.79208 85.04951 14.653465 86.237625 18.51485" />
<path class="stroke" d="M 21.72919638 32.125 L 53.2708005 32.125" />
<path class="stroke" d="M 29.904188400000002 49.745758384 C 29.41413546 52.324187128 27.94397937 54.472879192 26.1062826 56.76481544799999" />
<path class="stroke" d="M 50.0554611 49.914936208 C 48.82992666 52.742772328 47.3496333 54.606714736 45.641604900000004 56.204377768" />
<path class="stroke" d="M 37.007898 40.893429927999996 C 37.089915000000005 45.362331616 37.048887 48.974079616 37.007898 54.555992488 C 37.128603 66.85175296 27.541662000000002 77.2574176 21.72919638 77.63970520000001" />
<path class="stroke" d="M 37.036633980000005 56.084752095999995 C 38.319779999999994 65.20459432 46.954536000000004 75.23086696 50.76569205 77.10714964 C 51.6766404 77.63970520000001 52.3598541 77.77284352000001 53.38466880000001 77.90598639999999" />
</svg>
