<?xml version="1.0" standalone="no"?>
<!DOCTYPE svg PUBLIC "-//W3C//DTD SVG 1.1//EN" "http://www.w3.org/Graphics/SVG/1.1/DTD/svg11.dtd">
<svg xmlns="http://www.w3.org/2000/svg" version="1.1" width="100%" height="100%">
<style type="text/css"><![CDATA[
  .stroke { fill:none; stroke:black; stroke-width:2 }
]]></style>
<path class="stroke" d="M 20.594059 9.306931 C 18.217821 17.029703 14.653465 25.049503 9.90099 30.396038" />
<path class="stroke" d="M 16.732674 20.594059 L 90.39604 20.594059" />
<path class="stroke" d="M 31.411792798799997 30.086715079999998 L 31.411792798799997 51.86539904" />
<path class="stroke" d="M 31.411792798799997 30.086715079999998 L 71.3559679 30.086715079999998 L 71.3559679 51.86539904" />
<path class="stroke" d="M 31.644028123 40.382790328 L 71.123734962 40.382790328" />
<path class="stroke" d="M 31.411792798799997 50.914742944 L 71.3559679 50.914742944" />
<path class="stroke" d="M 12.27518074 56.855 L 90.7248115 56.855" />
<path class="stroke" d="M 28.22 56.9843836532336 C 27.590808529999997 60.680575890704 24.130269509999998 67.834495721792 10.288108192 71.888383711856" />
<path class="stroke" d="M 26.43576551 62.543611709984 C 55.88977671 62.543611709984 64.95254879 62.543611709984 90.44160059999999 62.543611709984 C 89.59196305 77.67824287304 81.66204330000001 83.045133697952 73.73210900000001 86.4799430024 C 70.05036147999999 87.767995388672 66.65182680000001 88.09000940432 62.97006958 88.19734691936" />
<path class="stroke" d="M 46.8270056 62.543611709984 C 44.278097800000005 71.55998686942401 30.11751691 78.322269066176 14.540875699999999 82.0790938568" />
<path class="stroke" d="M 66.3686062 62.543611709984 C 63.8197081 73.49206691936 51.358389700000004 81.75707763536 38.33065435 85.0845497924" />
</svg>
