<?xml version="1.0" standalone="no"?>
<!DOCTYPE svg PUBLIC "-//W3C//DTD SVG 1.1//EN" "http://www.w3.org/Graphics/SVG/1.1/DTD/svg11.dtd">
<svg xmlns="http://www.w3.org/2000/svg" version="1.1" width="100%" height="100%">
<style type="text/css"><![CDATA[
  .stroke { fill:none; stroke:black; stroke-width:2 }
]]></style>
<path class="stroke" d="M 49.999996 5.0 C 52.376232 7.6732674 52.793365 10.037088 52.918915 12.702702" />
<path class="stroke" d="M 12.702702 13.675674 L 92.81081 13.351351" />
<path class="stroke" d="M 12.378378 13.999998 L 12.702702 39.62162 C 12.702702 61.30479 14.560343 79.686905 6.5405407 92.162155" />
<path class="stroke" d="M 25.0255465 28.086685068 L 46.0766395 28.086685068" />
<path class="stroke" d="M 35.551092999999995 23.0417809576 L 35.551092999999995 50.739296896000006" />
<path class="stroke" d="M 35.551092999999995 29.768320562 C 32.1788325 37.385137800799995 28.09124025 41.440845518399996 22.777371549999998 43.51815774" />
<path class="stroke" d="M 35.551092999999995 29.768320562 C 41.103493 32.63107384 45.293020999999996 37.193466444 48.3248169 43.320320562" />
<path class="stroke" d="M 60.0255465 28.086685068 L 81.0766395 28.086685068" />
<path class="stroke" d="M 70.55109300000001 23.0417809576 L 70.55109300000001 50.739296896000006" />
<path class="stroke" d="M 70.55109300000001 29.768320562 C 67.1788325 37.385137800799995 63.09124024999999 41.440845518399996 57.77737155 43.51815774" />
<path class="stroke" d="M 70.55109300000001 29.768320562 C 73.71897625 37.484056898000006 78.0109475 41.5397646156 83.3248169 43.320320562" />
<path class="stroke" d="M 35.7299255 55.4330924948 L 79.262768 55.4330924948" />
<path class="stroke" d="M 49.732600899999994 55.4330924948 C 49.462552099999996 66.5072615315 35.5255465 79.3433908144 27.145985099999997 82.90899999999999" />
<path class="stroke" d="M 44.1094869 71.389349165 L 44.1094869 90.040210856" />
<path class="stroke" d="M 44.1094869 71.389349165 L 74.153279 71.389349165 L 73.94890000000001 90.177349165" />
<path class="stroke" d="M 43.9051086 88.668823069 L 73.94890000000001 88.668823069" />
</svg>
