<?xml version="1.0" standalone="no"?>
<!DOCTYPE svg PUBLIC "-//W3C//DTD SVG 1.1//EN" "http://www.w3.org/Graphics/SVG/1.1/DTD/svg11.dtd">
<svg xmlns="http://www.w3.org/2000/svg" version="1.1" width="100%" height="100%">
<style type="text/css"><![CDATA[
  .stroke { fill:none; stroke:black; stroke-width:2 }
]]></style>
<path class="stroke" d="M 26.831684 6.980198250000001 C 30.69307 8.762376 32.475246 10.5445545 35.445545 13.8861375" />
<path class="stroke" d="M 69.90099 6.980198250000001 C 67.52475 10.09901025 65.44554 12.326733 61.881187 13.66336575" />
<path class="stroke" d="M 17.920792 16.559406000000003 L 82.376236 16.559406000000003" />
<path class="stroke" d="M 49.369083 16.782176999999997 L 49.369083 35.717823" />
<path class="stroke" d="M 22.079208 26.361385499999997 L 77.32674 26.361385499999997" />
<path class="stroke" d="M 10.198019 35.717823 L 89.207924 35.717823" />
<path class="stroke" d="M 49.27007 42.840145989999996 C 40.218975 51.66934336 22.70073 59.94671365 9.854013 62.15401378" />
<path class="stroke" d="M 49.27007 43.02408646 C 58.905106 51.853283829999995 76.715324 60.314597739999996 89.56204 62.15401378" />
<path class="stroke" d="M 47.226276 52.22116729 C 49.27007 53.87664097 50.437954 55.348172919999996 51.021896 57.18758959" />
<path class="stroke" d="M 34.851486 58.6591228 L 62.9927 58.6591228 L 62.9927 74.11021678" />
<path class="stroke" d="M 34.9635 66.38467041999999 L 62.70073 66.38467041999999" />
<path class="stroke" d="M 34.9635 74.11021678 L 62.9927 74.11021678" />
<path class="stroke" d="M 34.9635 58.6591228 L 34.9635 93.6080263 C 39.927006 93.24014095000001 45.47445 92.87226190000001 52.77372 90.481015" />
<path class="stroke" d="M 74.9635 77.6051065 C 70.58394 81.1 65.91241 83.3072995 58.321167 84.59488719999999" />
<path class="stroke" d="M 48.68613 78.1569298 C 55.985397 85.51459270000001 66.788315 91.58467042000001 80.51095 93.6080263" />
</svg>
