<?xml version="1.0" standalone="no"?>
<!DOCTYPE svg PUBLIC "-//W3C//DTD SVG 1.1//EN" "http://www.w3.org/Graphics/SVG/1.1/DTD/svg11.dtd">
<svg xmlns="http://www.w3.org/2000/svg" version="1.1" width="100%" height="100%">
<style type="text/css"><![CDATA[
  .stroke { fill:none; stroke:black; stroke-width:2 }
]]></style>
<path class="stroke" d="M 27.918 5.5205 C 21.8192 17.8233 14.4585 30.7571 4.88959 40.5363" />
<path class="stroke" d="M 27.918 5.83596 C 34.0168 11.8296 38.2229 18.4543 42.7445 25.0789" />
<path class="stroke" d="M 12.1451 33.59624 L 40.2208 33.59624" />
<path class="stroke" d="M 6.782335 51.57724 L 44.006287 51.57724" />
<path class="stroke" d="M 27.287043 33.9117 L 27.287043 88.1703" />
<path class="stroke" d="M 6.46688 61.672 C 10.7781 65.878 14.143 70.3996 17.5079 75.2366" />
<path class="stroke" d="M 43.06 61.6719 C 40.7466 67.4553 37.4868 72.2923 33.2807 77.1294" />
<path class="stroke" d="M 8.04416 94.4795 L 42.7445 83.7539" />
<path class="stroke" d="M 65.37855 6.46687 C 63.90645 22.45 60.06835 38.1177 53.391165 48.1072" />
<path class="stroke" d="M 63.95895 22.5552 L 95.03155000000001 22.8706 L 94.8738 58.2019 C 94.55834999999999 74.1851 91.2461 92.6919 85.56784999999999 92.9022 L 83.2019 92.9022" />
<path class="stroke" d="M 68.61829900000001 42.712923599999996 C 75.62146899999999 48.727659599999996 79.690849 56.7108556 82.151419 67.8107756" />
</svg>
