<?xml version="1.0" standalone="no"?>
<!DOCTYPE svg PUBLIC "-//W3C//DTD SVG 1.1//EN" "http://www.w3.org/Graphics/SVG/1.1/DTD/svg11.dtd">
<svg xmlns="http://www.w3.org/2000/svg" version="1.1" width="100%" height="100%">
<style type="text/css"><![CDATA[
  .stroke { fill:none; stroke:black; stroke-width:2 }
]]></style>
<path class="stroke" d="M 20.7299256 10.729925 C 17.4598528 18.029196 13.021896000000002 23.86861 8.8175168 28.540146 C 12.087590400000002 31.45985 16.058392 36.131386 19.7956176 40.218975" />
<path class="stroke" d="M 29.6058384 25.912407 C 24.0 34.67153 16.5255464 45.18248 7.1824816 56.277367 C 15.591239999999999 54.525543 24.934304800000003 52.48175 33.343064 50.437954" />
<path class="stroke" d="M 30.540143999999998 43.430653 C 32.8759096 46.642334 33.5766416 49.85401 34.9781008 55.40146" />
<path class="stroke" d="M 21.19708 54.233574 L 21.19708 89.56204" />
<path class="stroke" d="M 13.956202400000002 65.03649 C 12.554744 70.87591 10.9197064 74.67153 7.6496336000000005 78.75912" />
<path class="stroke" d="M 27.270072 65.32846 C 29.8394136 68.540146 29.881079999999997 68.81081 31.178376 71.72973" />
<path class="stroke" d="M 49.2781015 10.145985 L 49.2781015 90.43795" />
<path class="stroke" d="M 49.2781015 10.145985 L 87.7218985 10.145985 L 87.7218985 86.05839 C 87.7218985 88.68613 87.17006889999999 90.14598 85.5145927 90.14598 L 83.67517855 90.14598" />
<path class="stroke" d="M 59.2009850125 20.943137848739497 C 60.9790871845 25.18284937815126 62.4015686785 31.012450689075628 63.4684301035 36.57707173109244" />
<path class="stroke" d="M 78.048866635 20.943137848739497 C 77.323403302 26.189779663865544 75.82623892000001 32.33735838655463 74.31485317 36.842052" />
<path class="stroke" d="M 56.711641789 39.25714285714286 L 81.338355775 39.25714285714286" />
<path class="stroke" d="M 69.12133162 45.186217967999994 L 69.12133162 77.379153024" />
<path class="stroke" d="M 58.311933622 58.610800704 L 58.311933622 78.812844744 M 58.311933622 77.379153024 L 79.64915725 77.379153024" />
<path class="stroke" d="M 79.64915725 58.480465296 L 79.64915725 78.94317970559999" />
</svg>
