<?xml version="1.0" standalone="no"?>
<!DOCTYPE svg PUBLIC "-//W3C//DTD SVG 1.1//EN" "http://www.w3.org/Graphics/SVG/1.1/DTD/svg11.dtd">
<svg xmlns="http://www.w3.org/2000/svg" version="1.1" width="100%" height="100%">
<style type="text/css"><![CDATA[
  .stroke { fill:none; stroke:black; stroke-width:2 }
]]></style>
<path class="stroke" d="M 20.770715441176474 11.605839 C 17.979818382352942 27.372261 12.183339705882354 41.970802 7.245597794117647 50.14598" />
<path class="stroke" d="M 16.477026470588235 30.583939 L 16.477026470588235 90.43795" />
<path class="stroke" d="M 38.30291875 4.9270065 C 42.682480749999996 7.2627735 46.18612975 10.474452 48.81386725 13.540146" />
<path class="stroke" d="M 84.7262725 4.9270065 C 82.93941699999999 7.8175175 79.25182 11.204378 75.529195 13.6861305" />
<path class="stroke" d="M 33.485400999999996 18.14233485 L 33.485400999999996 51.2518215" />
<path class="stroke" d="M 33.485400999999996 18.010947899999998 L 91.733572 18.010947899999998 L 91.733572 51.2518215" />
<path class="stroke" d="M 62.609485 18.14233485 L 62.609485 48.88686" />
<path class="stroke" d="M 33.485400999999996 33.440051100000005 L 91.29562 33.440051100000005" />
<path class="stroke" d="M 33.485400999999996 48.88686 L 91.733572 48.88686" />
<path class="stroke" d="M 39.7700698 67.2978099 L 39.7700698 95.2569312" />
<path class="stroke" d="M 39.7700698 67.2978099 L 84.96715 67.2978099 L 84.96715 95.2569312" />
<path class="stroke" d="M 40.0328455 80.51574434 L 84.704377 80.51574434" />
<path class="stroke" d="M 39.7700698 94.03649432 L 84.96715 94.03649432" />
</svg>
