<?xml version="1.0" standalone="no"?>
<!DOCTYPE svg PUBLIC "-//W3C//DTD SVG 1.1//EN" "http://www.w3.org/Graphics/SVG/1.1/DTD/svg11.dtd">
<svg xmlns="http://www.w3.org/2000/svg" version="1.1" width="100%" height="100%">
<style type="text/css"><![CDATA[
  .stroke { fill:none; stroke:black; stroke-width:2 }
]]></style>
<path class="stroke" d="M 26.87591072 10.729925 C 22.95182336 18.029196 17.626275200000002 23.86861 12.58102016 28.540146 C 16.50510848 31.45985 21.2700704 36.131386 25.75474112 40.218975" />
<path class="stroke" d="M 37.52700608 25.912407 C 30.799999999999997 34.67153 21.83065568 45.18248 10.618977919999999 56.277367 C 20.709487999999997 54.525543 31.92116576 52.48175 42.0116768 50.437954" />
<path class="stroke" d="M 38.6481728 43.430653 C 41.45109152 46.642334 42.29196992 49.85401 43.973720959999994 55.40146" />
<path class="stroke" d="M 27.436495999999998 54.233574 L 27.436495999999998 89.56204" />
<path class="stroke" d="M 18.74744288 65.03649 C 17.0656928 70.87591 15.10364768 74.67153 11.17956032 78.75912" />
<path class="stroke" d="M 34.7240864 65.32846 C 37.80729632 68.540146 37.857296 68.81081 39.414051199999996 71.72973" />
<path class="stroke" d="M 66.43211516 10.686129600000001 C 62.940144599999996 21.19708 57.0189774 32.175180000000005 50.94598424 39.18248" />
<path class="stroke" d="M 64.61021716 16.7591232 L 78.1226288 16.7591232 C 72.6569348 35.9124056 60.9664222 58.102184 49.2759122 70.248168" />
<path class="stroke" d="M 58.84087592 28.2043792 C 64.8 45.1612912 77.05985124 61.138684000000005 89.9649632 70.248168" />
<path class="stroke" d="M 66.63229560799999 63.5315504 C 69.3443895328 64.4274284 71.954764968 67.1152044 73.7515330528 70.02684339999999" />
<path class="stroke" d="M 63.886318087999996 77.19400585 C 68.462979528 78.6125113 71.920880728 81.82285156 75.175379768 86.82493930000001" />
</svg>
