<?xml version="1.0" standalone="no"?>
<!DOCTYPE svg PUBLIC "-//W3C//DTD SVG 1.1//EN" "http://www.w3.org/Graphics/SVG/1.1/DTD/svg11.dtd">
<svg xmlns="http://www.w3.org/2000/svg" version="1.1" width="100%" height="100%">
<style type="text/css"><![CDATA[
  .stroke { fill:none; stroke:black; stroke-width:2 }
]]></style>
<path class="stroke" d="M 54.10092 6.46688 L 54.10092 14.66882" />
<path class="stroke" d="M 18.7697 14.98422 L 93.8486 14.98422" />
<path class="stroke" d="M 18.7697 15.2997 L 18.7697 59.7792 C 19.0852 71.2408 14.6687 79.2323 6.46688 87.5394" />
<path class="stroke" d="M 5.83596 25.07884 C 8.78023 28.65404 10.4627 32.22924 11.8297 36.43534" />
<path class="stroke" d="M 6.15141 58.20189 C 8.14931 57.04519 10.4627 54.62679 12.1451 52.20829" />
<path class="stroke" d="M 32.336218311799996 36.704780277 L 86.5515681 36.704780277" />
<path class="stroke" d="M 58.89250285 21.1938781155 L 58.60084224439999 21.41313117 C 55.528010500799994 39.32337491999999 46.350972757399994 45.750142215 25.059532433199998 56.932011044999996" />
<path class="stroke" d="M 65.60076699679999 36.760793373 C 72.017362736 44.215373766 77.2673082508 50.792944287 90.39217281799999 57.370513634999995" />
<path class="stroke" d="M 33.1913190722 41.071842716999996 C 36.2804359304 43.120827524999996 38.1814322404 43.940420909999986 40.7953004112 46.67240035499999" />
<path class="stroke" d="M 84.755812968 41.75483780249999 C 82.85480885599999 43.394025918 83.0924390512 44.623416444 76.201333474 47.3553954405" />
<path class="stroke" d="M 37.537953259999995 53.609009983949996 L 37.537953259999995 74.2097320176" />
<path class="stroke" d="M 37.537953259999995 53.609009983949996 L 79.21970499999999 53.609009983949996 L 79.21970499999999 74.2097320176" />
<path class="stroke" d="M 37.78029085 63.34819278357 L 78.9773699 63.34819278357" />
<path class="stroke" d="M 37.537953259999995 73.31049485436 L 79.21970499999999 73.31049485436" />
<path class="stroke" d="M 58.50438821 74.485636730175 L 58.50438821 94.80175154725 C 58.50438821 95.384590786375 57.16715031 95.71764239125 56.19780908 95.71764239125 L 54.5014584 95.71764239125" />
<path class="stroke" d="M 39.23430477 82.0625479795 C 38.02262595 84.976745601 34.38759032 87.47462907287499 29.29853828 89.47293613555" />
<path class="stroke" d="M 75.5846702 82.0625479795 C 80.43138465 83.81106712275 84.55109048 86.142424934775 86.97444811999999 89.6394606547" />
</svg>
