<?xml version="1.0" standalone="no"?>
<!DOCTYPE svg PUBLIC "-//W3C//DTD SVG 1.1//EN" "http://www.w3.org/Graphics/SVG/1.1/DTD/svg11.dtd">
<svg xmlns="http://www.w3.org/2000/svg" version="1.1" width="100%" height="100%">
<style type="text/css"><![CDATA[
  .stroke { fill:none; stroke:black; stroke-width:2 }
]]></style>
<path class="stroke" d="M 26.3153264 13.303648999999998 L 77.04817279999999 11.948904719999998 C 75.92699839999999 24.64963452 73.6846688 32.10072864 70.601456 41.75328467999999 C 68.9196992 46.325545899999995 65.83649216 53.2686128 59.9503616 53.2686128 L 56.86715072 53.2686128" />
<path class="stroke" d="M 43.69342688 12.96496206 L 40.890512 23.29488792 C 36.40583648 36.50364552 28.27737056 44.9707993 21.2700704 52.083208799999994" />
<path class="stroke" d="M 21.94498976 19.14383952 C 37.632090559999995 24.510834720000002 46.74750176 31.634301920000002 52.25917855999999 41.53884591999999" />
<path class="stroke" d="M 16.569342 75.4401441 C 15.985401 78.91167847 13.649633 81.54525319999999 10.145985 83.34087444" />
<path class="stroke" d="M 26.36648 71.468142 L 31.71248 78.766306 C 37.05728 84.833486 46.50528 87.54502099999999 65.70158 87.673597 L 79.927 87.673597 C 82.84671 87.6503623 84.40613 86.84176194 84.59853 85.9744504 L 84.59853 85.0167888" />
<path class="stroke" d="M 48.9781 64.7861301 C 53.357662 65.8635035 56.569344 67.65912392 59.197075 69.69415933" />
<path class="stroke" d="M 80.51095 67.3 C 84.8905 68.8562042 87.51824 70.7715315 89.85401 72.92627666" />
</svg>
