<?xml version="1.0" standalone="no"?>
<!DOCTYPE svg PUBLIC "-//W3C//DTD SVG 1.1//EN" "http://www.w3.org/Graphics/SVG/1.1/DTD/svg11.dtd">
<svg xmlns="http://www.w3.org/2000/svg" version="1.1" width="100%" height="100%">
<style type="text/css"><![CDATA[
  .stroke { fill:none; stroke:black; stroke-width:2 }
]]></style>
<path class="stroke" d="M 24.724083760000003 9.273722249999999 L 24.724083760000003 42.383208" />
<path class="stroke" d="M 24.724083760000003 9.273722249999999 L 78.96058000000001 9.273722249999999 L 78.96058000000001 42.383208" />
<path class="stroke" d="M 25.0394146 24.92653935 L 78.6452524 24.92653935" />
<path class="stroke" d="M 24.724083760000003 40.937953799999995 L 78.96058000000001 40.937953799999995" />
<path class="stroke" d="M 23.1862 69.62617399999999 L 46.2145 69.62617399999999" />
<path class="stroke" d="M 22.87069 54.16876875 L 22.87069 94.2034568 M 6.46688 96.831219 L 44.0063 91.266534" />
<path class="stroke" d="M 91.6404 65.298102 C 80.9148 69.523127 71.1356 71.274975 56.3091 71.48106899999999" />
<path class="stroke" d="M 55.9936 54.1687663 L 55.9936 93.585165 C 55.8885 95.130919 57.9915 96.831219 61.3564 96.831219 L 87.224 96.676673 C 91.43 96.47053 93.428 95.182467 93.5331 93.43061900000001 L 93.5331 88.947952" />
</svg>
