<?xml version="1.0" standalone="no"?>
<!DOCTYPE svg PUBLIC "-//W3C//DTD SVG 1.1//EN" "http://www.w3.org/Graphics/SVG/1.1/DTD/svg11.dtd">
<svg xmlns="http://www.w3.org/2000/svg" version="1.1" width="100%" height="100%">
<style type="text/css"><![CDATA[
  .stroke { fill:none; stroke:black; stroke-width:2 }
]]></style>
<path class="stroke" d="M 11.521896400000001 7.554744 L 11.521896400000001 15.437956 C 11.521896400000001 26.9708025 8.762773249999999 36.751825 4.1642335 42.44525" />
<path class="stroke" d="M 4.5729925499999995 16.167883 L 20.208026999999998 13.6861305 L 20.208026999999998 35.437955 C 20.208026999999998 39.08759 21.6386849 41.131385 23.6824805 41.27737 L 29.3029191 41.27737 C 30.427004999999994 41.131385 31.4489035 40.109485 31.551092999999995 38.065693 L 31.551092999999995 35.729925" />
<path class="stroke" d="M 7.0255465 61.934305 L 28.0766395 61.934305" />
<path class="stroke" d="M 17.551092999999998 54.489051 L 17.551092999999998 95.36496" />
<path class="stroke" d="M 17.551092999999998 64.4160575 C 14.178832499999999 75.656933 10.09124025 81.642334 4.77737155 84.70802499999999" />
<path class="stroke" d="M 17.551092999999998 64.4160575 C 20.718976249999997 75.8029175 25.0109475 81.7883185 30.3248169 84.4160575" />
<path class="stroke" d="M 51.84306455 9.854013 C 50.894159450000004 19.781021 44.821167200000005 30.29197 41.2153273 32.627735" />
<path class="stroke" d="M 48.99634925 25.036495 L 48.99634925 90.43795" />
<path class="stroke" d="M 71.58028855 10.145985 C 70.44160295 16.569342 68.3540129 22.116787 65.3175171 25.328465" />
<path class="stroke" d="M 48.99634925 24.76344 L 84.105836 24.76344" />
<path class="stroke" d="M 66.2664235 25.328465 L 66.2664235 90.43795" />
<path class="stroke" d="M 48.99634925 47.79185 L 81.638683 47.79185" />
<path class="stroke" d="M 48.99634925 69.124084 L 81.8284635 69.124084" />
<path class="stroke" d="M 48.99634925 90.43795 L 87.9014564 90.43795" />
</svg>
