<?xml version="1.0" standalone="no"?>
<!DOCTYPE svg PUBLIC "-//W3C//DTD SVG 1.1//EN" "http://www.w3.org/Graphics/SVG/1.1/DTD/svg11.dtd">
<svg xmlns="http://www.w3.org/2000/svg" version="1.1" width="100%" height="100%">
<style type="text/css"><![CDATA[
  .stroke { fill:none; stroke:black; stroke-width:2 }
]]></style>
<path class="stroke" d="M 10.779349285714286 13.42376246 L 31.133639285714285 13.61290174 C 32.65437828571429 19.67741796 28.09216442857143 34.232254819999994 23.529953714285714 40.599999999999994" />
<path class="stroke" d="M 23.529953714285714 41.509675599999994 C 27.331795714285715 44.8451622 30.373269785714285 49.09032158 31.894008785714284 53.941936999999996 C 33.414744642857144 56.670963799999996 33.414744642857144 64.25160790000001 25.304146857142857 67.2838646 L 20.48847885714286 68.19354584" />
<path class="stroke" d="M 13.113153285714285 13.42376246 L 13.113153285714285 87.6930694" />
<path class="stroke" d="M 49.2071526 8.796478235294117 C 52.337079576 11.544439411764706 54.841020728000004 15.322884705882352 56.718977128000006 18.929583529411765" />
<path class="stroke" d="M 82.38437608000001 8.796478235294117 C 81.107370016 12.197079411764706 78.47196736000001 16.18162117647059 75.81153136 19.10133" />
<path class="stroke" d="M 37.54416579 23.8533132 L 96.08991685000001 23.8533132" />
<path class="stroke" d="M 67.556791 23.8533132 C 59.947936 34.15406 49.168775 40.965835 39.869108 45.03631" />
<path class="stroke" d="M 59.10253 33.07413 C 68.683999 41.38121700000001 72.347492 77.350707 66.288615 89.395916 C 64.104616 93.217146 59.384332 90.558875 57.41171800000001 89.894327" />
<path class="stroke" d="M 65.654594 45.285476 C 57.904838 54.007787 49.943764 58.743047000000004 39.0236618 64.22556800000001" />
<path class="stroke" d="M 68.190879 59.73971100000001 C 62.625122000000005 68.462259 49.450577 77.43373600000001 38.8123036 82.66717000000001" />
<path class="stroke" d="M 88.9037749 34.5694025 C 84.6061939 41.0489035 79.46320690000002 46.5315035 74.5315379 50.7681945" />
<path class="stroke" d="M 68.4021836 56.7491976 C 76.4337416 66.88379397 84.2539816 77.0184646 93.9763516 83.4148576" />
</svg>
