<?xml version="1.0" standalone="no"?>
<!DOCTYPE svg PUBLIC "-//W3C//DTD SVG 1.1//EN" "http://www.w3.org/Graphics/SVG/1.1/DTD/svg11.dtd">
<svg xmlns="http://www.w3.org/2000/svg" version="1.1" width="100%" height="100%">
<style type="text/css"><![CDATA[
  .stroke { fill:none; stroke:black; stroke-width:2 }
]]></style>
<path class="stroke" d="M 7.543611428571428 11.089109 L 27.28110476190476 11.290321 C 28.755760761904764 17.741934 24.331795809523808 33.225803 19.9078339047619 40.0" />
<path class="stroke" d="M 19.9078339047619 40.96774 C 23.59446857142857 44.51613 26.54377676190476 49.032257 28.01843276190476 54.19355 C 29.493085714285712 57.09677 29.493085714285712 65.161285 21.62826361904762 68.38709 L 16.95852495238095 69.354836" />
<path class="stroke" d="M 9.806694095238095 11.089109 L 9.806694095238095 90.09901" />
<path class="stroke" d="M 65.10218599999999 11.562042 C 57.131384 26.452553 48.1386849 38.131386 36.8978091 45.138683" />
<path class="stroke" d="M 65.10218599999999 11.562042 C 73.2773698 25.86861 81.6569312 38.131386 93.306565 44.846714" />
<path class="stroke" d="M 49.984251 41.5079248 L 78.690831 41.5079248" />
<path class="stroke" d="M 35.6309134 58.441624 L 95.25237179999999 58.441624" />
<path class="stroke" d="M 64.33752 41.785424 L 64.33752 92.309128 L 58.73752 92.309128" />
<path class="stroke" d="M 50.86756 70.93384 C 48.070499999999996 79.909576 44.39018 84.998968 38.05994 90.921192" />
<path class="stroke" d="M 75.82024999999999 71.211392 C 82.3712 75.74568 86.714 82.22292 90.17347000000001 90.921192" />
</svg>
