<?xml version="1.0" standalone="no"?>
<!DOCTYPE svg PUBLIC "-//W3C//DTD SVG 1.1//EN" "http://www.w3.org/Graphics/SVG/1.1/DTD/svg11.dtd">
<svg xmlns="http://www.w3.org/2000/svg" version="1.1" width="100%" height="100%">
<style type="text/css"><![CDATA[
  .stroke { fill:none; stroke:black; stroke-width:2 }
]]></style>
<path class="stroke" d="M 27.430655140000002 10.729925 C 23.26131232 18.029196 17.602917400000003 23.86861 12.24233392 28.540146 C 16.411677760000003 31.45985 21.474449800000002 36.131386 26.23941244 40.218975" />
<path class="stroke" d="M 38.74744396 25.912407 C 31.6 34.67153 22.07007166 45.18248 10.15766404 56.277367 C 20.878830999999998 54.525543 32.79123862 52.48175 43.5124066 50.437954" />
<path class="stroke" d="M 39.9386836 43.430653 C 42.916784740000004 46.642334 43.81021804 49.85401 45.59707852 55.40146" />
<path class="stroke" d="M 28.026277 54.233574 L 28.026277 89.56204" />
<path class="stroke" d="M 18.79415806 65.03649 C 17.0072986 70.87591 14.92262566 74.67153 10.75328284 78.75912" />
<path class="stroke" d="M 35.7693418 65.32846 C 39.04525234 68.540146 39.098377 68.81081 40.7524294 71.72973" />
<path class="stroke" d="M 56.6605835 19.17883079 L 56.6605835 85.5788283" />
<path class="stroke" d="M 56.82116645000001 19.17883079 L 78.5 19.17883079 L 78.5 85.5788283" />
<path class="stroke" d="M 56.6605835 41.241299 L 78.5 41.241299" />
<path class="stroke" d="M 56.82116645000001 64.805995 L 78.5 64.805995" />
<path class="stroke" d="M 45.41970715 85.82116339999999 L 89.90145600000001 85.82116339999999" />
</svg>
