<?xml version="1.0" standalone="no"?>
<!DOCTYPE svg PUBLIC "-//W3C//DTD SVG 1.1//EN" "http://www.w3.org/Graphics/SVG/1.1/DTD/svg11.dtd">
<svg xmlns="http://www.w3.org/2000/svg" version="1.1" width="100%" height="100%">
<style type="text/css"><![CDATA[
  .stroke { fill:none; stroke:black; stroke-width:2 }
]]></style>
<path class="stroke" d="M 50.14598 6.95255475 L 50.14598 16.587590249999998" />
<path class="stroke" d="M 12.4817505 16.806567 L 12.4817505 27.31751625" />
<path class="stroke" d="M 12.4817505 16.806567 L 87.81021 16.806567 L 87.81021 27.31751625" />
<path class="stroke" d="M 50.428757759999996 28.64049056842105 L 50.428757759999996 43.09070526315789" />
<path class="stroke" d="M 29.083094131199996 30.736534357894737 C 32.37932670719999 33.59477482105263 34.027444607999996 36.26246578947368 36.1464493056 40.26400191578948" />
<path class="stroke" d="M 70.52145561599998 30.736534357894737 C 69.1087847424 35.69081730526315 66.989778432 37.59631225263158 63.92899046399999 40.07345372631579" />
<path class="stroke" d="M 31.04233536 46.397079384 L 31.04233536 75.4189752 C 31.04233536 81.85346664 31.04233536 84.55286960000001 31.04233536 90.795249808" />
<path class="stroke" d="M 31.04233536 46.397079384 L 70.2832128 46.397079384 L 70.2832128 89.68116552000001 C 70.2832128 91.00788288 69.1620384 92.1687556 66.35912064 92.1687556 L 63.275913599999996 92.1687556" />
<path class="stroke" d="M 31.04233536 58.897943736 L 70.2832128 58.897943736" />
<path class="stroke" d="M 31.04233536 72.102670848 L 70.2832128 72.102670848" />
</svg>
