<?xml version="1.0" standalone="no"?>
<!DOCTYPE svg PUBLIC "-//W3C//DTD SVG 1.1//EN" "http://www.w3.org/Graphics/SVG/1.1/DTD/svg11.dtd">
<svg xmlns="http://www.w3.org/2000/svg" version="1.1" width="100%" height="100%">
<style type="text/css"><![CDATA[
  .stroke { fill:none; stroke:black; stroke-width:2 }
]]></style>
<path class="stroke" d="M 26.769344444444446 9.306931 C 22.527680555555555 17.680412 15.511645370370369 26.030926 9.167583333333333 30.69307" />
<path class="stroke" d="M 27.044370370370373 9.306931 C 31.548299074074077 14.123711 36.13020370370371 17.216494 41.57120740740741 19.536081" />
<path class="stroke" d="M 27.682318518518517 19.999998 C 29.830083333333334 22.319588 30.54600925925926 24.639175 31.118746296296298 27.731956" />
<path class="stroke" d="M 19.234439814814817 29.896904 L 40.28255 29.896904 L 40.28255 57.72277" />
<path class="stroke" d="M 19.618627777777778 43.81443 L 39.60635925925926 43.81443" />
<path class="stroke" d="M 19.3436 57.72277 L 40.245691666666666 57.72277" />
<path class="stroke" d="M 19.234439814814817 29.896904 L 19.234439814814817 89.896904 C 26.823212962962963 87.57732 33.149564814814816 83.55427 38.73375925925926 79.842926" />
<path class="stroke" d="M 34.98472592592593 74.12371 C 37.705231481481476 76.90721 40.28255 82.16495 41.42802592592593 85.87628" />
<path class="stroke" d="M 57.690824 6.78234 C 55.80648 21.2934 53.215584 29.8107 47.9747624 39.2744" />
<path class="stroke" d="M 56.630912 18.13879 L 88.95898400000002 18.13879 L 88.95898400000002 58.51739 C 88.900128 63.98539 88.13455200000001 71.03059 84.5426 71.13579 L 82.24604 71.13579" />
<path class="stroke" d="M 58.220808000000005 33.2807 L 78.536264 33.2807 L 78.536264 59.7791" />
<path class="stroke" d="M 55.74768 59.7791 L 78.536264 59.7791" />
<path class="stroke" d="M 55.74768 59.7791 L 55.74768 85.9622 C 55.512144 90.3786 57.043128 92.5868 59.280776 92.5868 L 90.548936 92.5868 C 93.02212 92.692 94.258712 89.6425 94.258712 85.3313 L 94.258712 79.0221" />
</svg>
