<?xml version="1.0" standalone="no"?>
<!DOCTYPE svg PUBLIC "-//W3C//DTD SVG 1.1//EN" "http://www.w3.org/Graphics/SVG/1.1/DTD/svg11.dtd">
<svg xmlns="http://www.w3.org/2000/svg" version="1.1" width="100%" height="100%">
<style type="text/css"><![CDATA[
  .stroke { fill:none; stroke:black; stroke-width:2 }
]]></style>
<path class="stroke" d="M 22.7299256 10.729925 C 19.4598528 18.029196 15.021896000000002 23.86861 10.8175168 28.540146 C 14.087590400000002 31.45985 18.058392 36.131386 21.7956176 40.218975" />
<path class="stroke" d="M 31.6058384 25.912407 C 26.0 34.67153 18.5255464 45.18248 9.1824816 56.277367 C 17.59124 54.525543 26.934304800000003 52.48175 35.343064 50.437954" />
<path class="stroke" d="M 32.540144 43.430653 C 34.8759096 46.642334 35.5766416 49.85401 36.9781008 55.40146" />
<path class="stroke" d="M 23.19708 54.233574 L 23.19708 89.56204" />
<path class="stroke" d="M 15.956202400000002 65.03649 C 14.554744 70.87591 12.9197064 74.67153 9.649633600000001 78.75912" />
<path class="stroke" d="M 29.270072 65.32846 C 31.8394136 68.540146 31.881079999999997 68.81081 33.178376 71.72973" />
<path class="stroke" d="M 46.7883208 17.445253 C 49.2408754 18.029196 51.69343 20.364962 53.4452536 24.160583" />
<path class="stroke" d="M 45.5620438 47.226276 C 48.0145972 47.226276 50.9927002 46.934303 54.321166 43.138683 C 49.766422 53.357662 48.5401456 58.321167 49.0656928 60.9489 C 49.416058 63.284668 52.5693424 65.62044 53.2700722 68.832115 C 54.1459846 72.33576 50.8775476 80.26506 46.6131376 83.722626" />
<path class="stroke" d="M 46.6131376 84.014595 C 63.8157544 81.65476 64.30657 91.313866 94.26276999999999 90.14598" />
<path class="stroke" d="M 74.659414762 9.3430648 C 71.87926897 14.59854 67.16510893 20.087590000000002 62.330072068 23.59124" />
<path class="stroke" d="M 73.208903662 12.3795616 L 83.96686216 12.3795616 C 79.61532886 21.9562028 70.30788229 33.051092 61.00043778999999 39.124084" />
<path class="stroke" d="M 68.615620444 18.102189600000003 C 73.35999999999999 26.5806456 83.120727718 34.569342000000006 93.39518224 39.124084" />
<path class="stroke" d="M 64.96245712 45.7665552 L 89.77633372 45.7665552" />
<path class="stroke" d="M 62.21989755999999 58.788633600000004 L 92.38832596 58.788633600000004" />
<path class="stroke" d="M 60.652688139999995 72.26500320000001 L 94.21670313999999 72.26500320000001" />
<path class="stroke" d="M 77.50000621 39.55836096 L 77.50000621 81.35018208" />
</svg>
