<?xml version="1.0" standalone="no"?>
<!DOCTYPE svg PUBLIC "-//W3C//DTD SVG 1.1//EN" "http://www.w3.org/Graphics/SVG/1.1/DTD/svg11.dtd">
<svg xmlns="http://www.w3.org/2000/svg" version="1.1" width="100%" height="100%">
<style type="text/css"><![CDATA[
  .stroke { fill:none; stroke:black; stroke-width:2 }
]]></style>
<path class="stroke" d="M 12.189779 19.6167875 L 87.81021 19.6167875" />
<path class="stroke" d="M 34.67153 10.49269875 L 34.67153 29.470801249999997" />
<path class="stroke" d="M 65.32846 10.49269875 L 65.32846 29.470801249999997" />
<path class="stroke" d="M 82.376236 31.600659999999998 C 63.960396 34.57095733333333 35.742573 35.957096 19.108912 35.957096" />
<path class="stroke" d="M 20.891088 41.10561133333333 C 25.346535 43.877888666666664 28.0231 46.906733333333335 30.09901 50.01650266666667" />
<path class="stroke" d="M 43.465347 40.11551133333333 C 47.623764 42.29372933333333 50.29703 45.06600666666667 52.07921 48.630363333333335" />
<path class="stroke" d="M 80.89109 38.927392 C 78.514854 43.679868 74.95049 47.24422466666667 69.90099 49.81848133333333" />
<path class="stroke" d="M 20.07299 62.885947375 L 80.21897 62.885947375" />
<path class="stroke" d="M 50.14598 55.626824725000006 L 50.14598 95.48083600000001" />
<path class="stroke" d="M 50.14598 65.3056560625 C 40.51095 76.265509675 28.832115 82.10127565 13.649633 85.090324375" />
<path class="stroke" d="M 50.14598 65.3056560625 C 59.197075 76.4078445625 71.45985 82.2436105375 86.642334 84.8056560625" />
</svg>
