<?xml version="1.0" standalone="no"?>
<!DOCTYPE svg PUBLIC "-//W3C//DTD SVG 1.1//EN" "http://www.w3.org/Graphics/SVG/1.1/DTD/svg11.dtd">
<svg xmlns="http://www.w3.org/2000/svg" version="1.1" width="100%" height="100%">
<style type="text/css"><![CDATA[
  .stroke { fill:none; stroke:black; stroke-width:2 }
]]></style>
<path class="stroke" d="M 39.27446 4.54416311 L 39.27446 39.629322810000005 C 39.27446 54.917380800000004 25.39436 61.11722580000001 8.04416 63.0899068" />
<path class="stroke" d="M 7.09779 16.380093000000002 L 36.4353 16.380093000000002" />
<path class="stroke" d="M 11.8297 30.329627 L 36.4353 30.329627" />
<path class="stroke" d="M 7.41325 45.124634 L 36.1199 41.320173000000004" />
<path class="stroke" d="M 61.9874 4.5441678 L 61.9874 62.87856200000001" />
<path class="stroke" d="M 61.9874 16.591478000000002 L 93.2177 16.591478000000002" />
<path class="stroke" d="M 61.9874 30.541012 L 88.4858 30.541012" />
<path class="stroke" d="M 61.9874 45.335952 L 92.9022 45.335952" />
<path class="stroke" d="M 17.4453 72.51576 C 16.6042 79.57670999999999 14.5012 84.22451 10.8207 89.40849" />
<path class="stroke" d="M 33.21814 68.225555 L 33.21814 91.01737 C 33.21814 93.430605 35.11094 95.0394 37.95004 95.0394 L 72.01944 95.0394 C 74.64824 95.0394 76.96164 93.16243 77.06674 90.21293 L 77.06674 85.65455" />
<path class="stroke" d="M 45.2056 68.225572 C 50.6735 72.33702199999999 54.2487 76.716647 57.5084 82.436892" />
<path class="stroke" d="M 77.0667 68.49373 C 83.6913 73.49887 87.7923 78.50434999999999 91.8932 85.38646" />
</svg>
