<?xml version="1.0" standalone="no"?>
<!DOCTYPE svg PUBLIC "-//W3C//DTD SVG 1.1//EN" "http://www.w3.org/Graphics/SVG/1.1/DTD/svg11.dtd">
<svg xmlns="http://www.w3.org/2000/svg" version="1.1" width="100%" height="100%">
<style type="text/css"><![CDATA[
  .stroke { fill:none; stroke:black; stroke-width:2 }
]]></style>
<path class="stroke" d="M 18.905107 9.854013 L 90.14598 9.854013" />
<path class="stroke" d="M 18.613138 9.854013 L 18.613138 31.167881 C 18.613138 74.67153 14.817516 81.386856 10.198019 90.09901" />
<path class="stroke" d="M 40.0293192 39.29162162 C 38.99895148 43.98481429 35.90785406 47.89581081 32.043978800000005 52.06753689" />
<path class="stroke" d="M 82.3986618 39.59955494 C 79.82189708 44.746712790000004 76.7094854 48.13941498 73.1182462 51.047441989999996" />
<path class="stroke" d="M 54.965323999999995 23.17883079 C 55.13777 31.31301588 55.051505999999996 37.88703088 54.965323999999995 48.04709159 C 55.219114 70.4275328 35.061955999999995 89.367668 22.84087444 90.0634985" />
<path class="stroke" d="M 55.02574324 50.82970228 C 57.723639999999996 67.4294151 75.87876800000001 85.6789903 83.8919679 89.09415394999999 C 85.8072952 90.0634985 87.24379579999999 90.3058336 89.3985344 90.548177" />
</svg>
