<?xml version="1.0" standalone="no"?>
<!DOCTYPE svg PUBLIC "-//W3C//DTD SVG 1.1//EN" "http://www.w3.org/Graphics/SVG/1.1/DTD/svg11.dtd">
<svg xmlns="http://www.w3.org/2000/svg" version="1.1" width="100%" height="100%">
<style type="text/css"><![CDATA[
  .stroke { fill:none; stroke:black; stroke-width:2 }
]]></style>
<path class="stroke" d="M 30.005770232558138 11.89781 C 29.19096930232558 30.875912 24.030553488372092 45.47445 19.141739534883722 55.693428 C 28.647767441860463 60.9489 36.79578976744186 70.0 43.04260651162791 81.386856" />
<path class="stroke" d="M 41.94612093023255 26.831684 C 40.01197209302326 53.564358 32.178576744186046 69.70802 18.87014046511628 79.34306" />
<path class="stroke" d="M 13.438125581395349 33.79562 L 43.60396 29.80198" />
<path class="stroke" d="M 53.772894 8.67508 L 95.337558 8.67508" />
<path class="stroke" d="M 53.772894 8.67508 L 53.772894 56.3092 C 53.3754 70.7151 51.444792 81.02 47.98107 88.8012" />
<path class="stroke" d="M 61.2681156 27.28702 L 91.2491856 27.28702" />
<path class="stroke" d="M 53.94324132 47.16084 L 94.99684716 47.16084" />
<path class="stroke" d="M 61.77920400000001 49.053642 L 61.77920400000001 89.74764 M 53.2618326 93.84854 L 74.8959066 84.06934" />
<path class="stroke" d="M 91.419588 54.100945 C 89.545734 62.092545 86.649822 67.875946 82.73190600000001 70.820244" />
<path class="stroke" d="M 74.384856 47.4763 C 75.804408 77.655 82.164042 88.2754 94.485816 93.2176" />
</svg>
