<?xml version="1.0" standalone="no"?>
<!DOCTYPE svg PUBLIC "-//W3C//DTD SVG 1.1//EN" "http://www.w3.org/Graphics/SVG/1.1/DTD/svg11.dtd">
<svg xmlns="http://www.w3.org/2000/svg" version="1.1" width="100%" height="100%">
<style type="text/css"><![CDATA[
  .stroke { fill:none; stroke:black; stroke-width:2 }
]]></style>
<path class="stroke" d="M 13.961809821428572 16.21584164 C 16.87906607142857 18.1702981 19.796323214285717 20.96237728 22.183169642857145 24.31287098" />
<path class="stroke" d="M 12.105374107142858 38.83168422 C 14.757426785714285 40.5069306 17.9398875 43.01980158 20.06152857142857 46.3702981" />
<path class="stroke" d="M 11.840169642857143 83.5049464 C 12.434829464285714 85.17731543999999 14.091678571428572 87.50308976 16.024666964285714 87.50308976 C 17.957658035714285 87.50308976 20.5919375 75.1287098 22.448374107142858 68.4277224" />
<path class="stroke" d="M 35.237224749999996 9.2116775 L 35.237224749999996 24.783455" />
<path class="stroke" d="M 35.237224749999996 9.2116775 L 89.9817505 9.2116775 L 89.9817505 24.783455" />
<path class="stroke" d="M 52.5631225 9.2116775 L 52.5631225 24.783455" />
<path class="stroke" d="M 72.436942 9.2116775 L 72.436942 24.783455" />
<path class="stroke" d="M 35.237224749999996 24.790775 L 90.12376 24.790775" />
<path class="stroke" d="M 48.067825 31.4621403 C 45.859674999999996 42.4905 40.102525 53.301213 30.0867475 60.193968" />
<path class="stroke" d="M 45.938424999999995 42.563088 L 92.547325 42.780713999999996 L 92.3107 67.159311 C 91.837525 78.187719 86.86914999999999 90.95741100000001 78.351775 91.10251799999999 L 74.80285 91.10251799999999" />
<path class="stroke" d="M 48.7700725 53.879781036 L 48.7700725 69.533208252" />
<path class="stroke" d="M 48.7700725 54.020802063 L 76.49270050000001 54.020802063 L 76.49270050000001 69.67423266" />
<path class="stroke" d="M 48.7700725 67.738826544 L 76.49270050000001 67.738826544" />
<path class="stroke" d="M 62.495495500000004 44.854378796999995 L 62.495495500000004 82.648247322" />
<path class="stroke" d="M 47.85036385 84.76357769999998 L 76.6240852 80.67393941999998" />
<path class="stroke" d="M 73.996348 76.16124144 C 76.2299275 78.69963345 77.412406 81.520070412 78.200725 84.76357769999998" />
</svg>
