<?xml version="1.0" standalone="no"?>
<!DOCTYPE svg PUBLIC "-//W3C//DTD SVG 1.1//EN" "http://www.w3.org/Graphics/SVG/1.1/DTD/svg11.dtd">
<svg xmlns="http://www.w3.org/2000/svg" version="1.1" width="100%" height="100%">
<style type="text/css"><![CDATA[
  .stroke { fill:none; stroke:black; stroke-width:2 }
]]></style>
<path class="stroke" d="M 13.154171785714285 14.059406 C 16.654879285714284 16.138615 20.15558785714286 19.108912 23.01980357142857 22.673267" />
<path class="stroke" d="M 10.926448928571428 38.118813 C 14.108912142857141 39.90099 17.927864999999997 42.574257 20.473834285714286 46.138615" />
<path class="stroke" d="M 10.608203571428572 85.64356 C 11.321795357142857 87.422676 13.310014285714285 89.896904 15.629600357142856 89.896904 C 17.949189642857142 89.896904 21.110325 76.73267 23.33804892857143 69.60396" />
<path class="stroke" d="M 43.335925 6.78234 C 40.81225 21.2934 37.342299999999994 29.8107 30.3233425 39.2744" />
<path class="stroke" d="M 41.916399999999996 18.13879 L 85.212925 18.13879 L 85.212925 58.51739 C 85.13409999999999 63.98539 84.10877500000001 71.03059 79.298125 71.13579 L 76.222375 71.13579" />
<path class="stroke" d="M 44.045725000000004 33.2807 L 71.25392500000001 33.2807 L 71.25392500000001 59.7791" />
<path class="stroke" d="M 40.7335 59.7791 L 71.25392500000001 59.7791" />
<path class="stroke" d="M 40.7335 59.7791 L 40.7335 85.9622 C 40.41805 90.3786 42.468475 92.5868 45.465325 92.5868 L 87.34232499999999 92.5868 C 90.65462500000001 92.692 92.31077499999999 89.6425 92.31077499999999 85.3313 L 92.31077499999999 79.0221" />
</svg>
