<?xml version="1.0" standalone="no"?>
<!DOCTYPE svg PUBLIC "-//W3C//DTD SVG 1.1//EN" "http://www.w3.org/Graphics/SVG/1.1/DTD/svg11.dtd">
<svg xmlns="http://www.w3.org/2000/svg" version="1.1" width="100%" height="100%">
<style type="text/css"><![CDATA[
  .stroke { fill:none; stroke:black; stroke-width:2 }
]]></style>
<path class="stroke" d="M 13.154171785714285 14.059406 C 16.654879285714284 16.138615 20.15558785714286 19.108912 23.01980357142857 22.673267" />
<path class="stroke" d="M 10.926448928571428 38.118813 C 14.108912142857141 39.90099 17.927864999999997 42.574257 20.473834285714286 46.138615" />
<path class="stroke" d="M 10.608203571428572 85.64356 C 11.321795357142857 87.422676 13.310014285714285 89.896904 15.629600357142856 89.896904 C 17.949189642857142 89.896904 21.110325 76.73267 23.33804892857143 69.60396" />
<path class="stroke" d="M 62.973175 6.466883 L 62.973175 15.615143" />
<path class="stroke" d="M 29.6135665 15.9306 L 96.09623124999999 15.9306" />
<path class="stroke" d="M 48.541 16.2461 L 54.692425 34.858" />
<path class="stroke" d="M 77.1688 15.9306 L 70.307575 35.1735" />
<path class="stroke" d="M 34.818625 35.1735 L 34.818625 94.4795" />
<path class="stroke" d="M 34.818625 35.1735 L 89.47165 35.1735 L 89.47165 88.4858 C 89.550475 92.2713 87.973225 94.1641 85.922725 93.8486 L 82.13725000000001 93.8486" />
<path class="stroke" d="M 45.28306552 57.660000000000004 L 79.71693232 57.660000000000004" />
<path class="stroke" d="M 62.5 47.01386856 L 62.5 69.9043776" />
<path class="stroke" d="M 52.806277102 71.022992375 L 52.806277102 86.50912325" />
<path class="stroke" d="M 52.806277102 71.022992375 L 72.2830648 71.022992375 L 72.2830648 86.36021855" />
<path class="stroke" d="M 52.806277102 85.31788208 L 72.2830648 85.31788208" />
</svg>
