<?xml version="1.0" standalone="no"?>
<!DOCTYPE svg PUBLIC "-//W3C//DTD SVG 1.1//EN" "http://www.w3.org/Graphics/SVG/1.1/DTD/svg11.dtd">
<svg xmlns="http://www.w3.org/2000/svg" version="1.1" width="100%" height="100%">
<style type="text/css"><![CDATA[
  .stroke { fill:none; stroke:black; stroke-width:2 }
]]></style>
<path class="stroke" d="M 30.52356 17.46282644 C 29.267014 20.063872980000003 25.497383 22.23141322 20.78534 24.54345418" />
<path class="stroke" d="M 82.19349 17.63348828 C 79.051094 20.48612998 75.25547 22.36642276 70.87591 23.97810038" />
<path class="stroke" d="M 48.7382 8.532845980000001 C 48.9485 13.04094856 48.8433 16.68437856 48.7382 22.315255580000002 C 49.0477 34.718873599999995 24.4658 45.215816 9.562042 45.601457" />
<path class="stroke" d="M 48.811882 23.85742536 C 52.102 33.0572662 74.2424 43.1714886 84.014595 45.0642299 C 86.35036 45.601457 88.10219 45.73576320000001 90.72992 45.870074" />
<path class="stroke" d="M 30.52356 63.46282644 C 29.267014 66.06387298 25.497383 68.23141322000001 20.78534 70.54345418" />
<path class="stroke" d="M 82.19349 63.63348828 C 79.051094 66.48612998 75.25547 68.36642276 70.87591 69.97810038" />
<path class="stroke" d="M 48.7382 54.53284598 C 48.9485 59.040948560000004 48.8433 62.68437856 48.7382 68.31525558 C 49.0477 80.7188736 24.4658 91.21581599999999 9.562042 91.60145700000001" />
<path class="stroke" d="M 48.811882 69.85742536000001 C 52.102 79.0572662 74.2424 89.1714886 84.014595 91.0642299 C 86.35036 91.60145700000001 88.10219 91.73576320000001 90.72992 91.870074" />
</svg>
