<?xml version="1.0" standalone="no"?>
<!DOCTYPE svg PUBLIC "-//W3C//DTD SVG 1.1//EN" "http://www.w3.org/Graphics/SVG/1.1/DTD/svg11.dtd">
<svg xmlns="http://www.w3.org/2000/svg" version="1.1" width="100%" height="100%">
<style type="text/css"><![CDATA[
  .stroke { fill:none; stroke:black; stroke-width:2 }
]]></style>
<path class="stroke" d="M 25.0 4.6423356 L 25.0 10.832116800000001" />
<path class="stroke" d="M 13.846714799999999 11.1824812 L 36.38686 11.1824812" />
<path class="stroke" d="M 15.715327600000002 16.20438 C 18.051094 20.4087584 19.802919199999998 25.897807999999998 20.7372252 31.270072" />
<path class="stroke" d="M 34.635034000000005 15.270071999999999 C 31.832116000000003 19.59124 29.496350000000003 26.248176 28.912408 33.138684000000005" />
<path class="stroke" d="M 9.5255472 34.306568 L 40.240876 34.306568" />
<path class="stroke" d="M 11.59562012 46.27897765 L 11.59562012 67.7773711" />
<path class="stroke" d="M 11.59562012 46.27897765 L 34.509488 46.27897765 L 34.509488 67.57065634" />
<path class="stroke" d="M 11.59562012 66.123648064 L 34.509488 66.123648064" />
<path class="stroke" d="M 18.503649 69.325984852 L 18.503649 77.634889144 C 18.503649 84.96102058 14.708029 92.197808584 5.218978 94.0740127" />
<path class="stroke" d="M 27.116787 69.236642338 L 27.116787 90.32160508 M 20.972603 92.01178078 L 43.82192 86.07621921999998" />
<path class="stroke" d="M 72.75 4.6423356 L 72.75 10.832116800000001" />
<path class="stroke" d="M 62.851459385 11.1824812 L 82.85583825 11.1824812" />
<path class="stroke" d="M 64.509853245 16.20438 C 66.582845925 20.4087584 68.13759078999999 25.897807999999998 68.966787365 31.270072" />
<path class="stroke" d="M 81.301092675 15.270071999999999 C 78.81350295 19.59124 76.740510625 26.248176 76.2222621 33.138684000000005" />
<path class="stroke" d="M 59.01642314 34.306568 L 86.27627745 34.306568" />
<path class="stroke" d="M 61.59562012 46.27897765 L 61.59562012 67.7773711" />
<path class="stroke" d="M 61.59562012 46.27897765 L 84.509488 46.27897765 L 84.509488 67.57065634" />
<path class="stroke" d="M 61.59562012 66.123648064 L 84.509488 66.123648064" />
<path class="stroke" d="M 68.503649 69.325984852 L 68.503649 77.634889144 C 68.503649 84.96102058 64.708029 92.197808584 55.218978 94.0740127" />
<path class="stroke" d="M 77.116787 69.236642338 L 77.116787 90.32160508 C 77.116787 92.55518169999999 79.014599 93.89532706 81.0583915 93.89532706 L 92.44525 93.89532706 C 94.051095 93.98466988 95.218975 93.26992426 95.218975 92.28715018 L 95.218975 90.58963476400001" />
</svg>
