<?xml version="1.0" standalone="no"?>
<!DOCTYPE svg PUBLIC "-//W3C//DTD SVG 1.1//EN" "http://www.w3.org/Graphics/SVG/1.1/DTD/svg11.dtd">
<svg xmlns="http://www.w3.org/2000/svg" version="1.1" width="100%" height="100%">
<style type="text/css"><![CDATA[
  .stroke { fill:none; stroke:black; stroke-width:2 }
]]></style>
<path class="stroke" d="M 13.5020006622 16.00949 L 44.778278195999995 16.00949" />
<path class="stroke" d="M 22.057381997999997 5.630904999999999 L 22.057381997999997 30.141957999999995" />
<path class="stroke" d="M 36.082618002 5.410089999999999 L 36.082618002 30.14193" />
<path class="stroke" d="M 9.7151735142 30.362779999999997 L 48.705338853 30.362779999999997" />
<path class="stroke" d="M 18.431386619999998 42.9124078 L 18.431386619999998 73.56934 C 18.431386619999998 80.366338 18.431386619999998 83.21782 18.431386619999998 89.8118836" />
<path class="stroke" d="M 18.431386619999998 42.9124078 L 41.730657599999994 42.9124078 L 41.730657599999994 88.63503399999999 C 41.730657599999994 90.036496 41.064960299999996 91.26276999999999 39.40072788 91.26276999999999 L 37.570073699999995 91.26276999999999" />
<path class="stroke" d="M 18.431386619999998 56.1175462 L 41.730657599999994 56.1175462" />
<path class="stroke" d="M 18.431386619999998 70.0662016 L 41.730657599999994 70.0662016" />
<path class="stroke" d="M 63.711882519999996 9.90099 C 62.01881209 22.673267 57.95544625 37.82178 51.69108868 46.435642" />
<path class="stroke" d="M 57.78613858 35.742573 L 86.3990077 35.742573" />
<path class="stroke" d="M 73.193071 36.039604 C 71.1613858 61.287132 62.52673339 82.376236 48.9821785 89.80198" />
<path class="stroke" d="M 57.78613858 43.465347 C 61.51089021999999 61.58416 79.62672939999999 90.09901 89.6158426 90.09901" />
</svg>
