<?xml version="1.0" standalone="no"?>
<!DOCTYPE svg PUBLIC "-//W3C//DTD SVG 1.1//EN" "http://www.w3.org/Graphics/SVG/1.1/DTD/svg11.dtd">
<svg xmlns="http://www.w3.org/2000/svg" version="1.1" width="100%" height="100%">
<style type="text/css"><![CDATA[
  .stroke { fill:none; stroke:black; stroke-width:2 }
]]></style>
<path class="stroke" d="M 10.5678 7.41324 L 10.5678 57.8864" />
<path class="stroke" d="M 10.5678 7.09779 L 46.8454 7.09779" />
<path class="stroke" d="M 27.60251 7.09779 L 27.60251 57.571" />
<path class="stroke" d="M 11.1988 22.8707 L 41.7981 22.8707" />
<path class="stroke" d="M 10.5678 40.5363 L 41.4826 40.5363" />
<path class="stroke" d="M 10.5678 57.8864 L 46.8454 57.8864 C 47.1609 70.8202 44.6372 92.2713 37.3817 92.5868 L 29.4953 92.5868" />
<path class="stroke" d="M 8.044155 68.92747 C 9.621445 74.81597 9.621445 80.38917 8.044155 86.59307" />
<path class="stroke" d="M 16.56152 67.98113 C 19.08532 73.13363 19.71612 77.33953 19.71612 82.80753" />
<path class="stroke" d="M 24.76344 66.71927 C 27.28714 70.82017 28.54894 74.29017 29.49524 78.39107" />
<path class="stroke" d="M 32.96534 65.45733 C 34.85814 68.50673 36.11984 71.55623 37.38164 74.92113" />
<path class="stroke" d="M 75.07299 6.693429399999999 C 69.37956 17.1167871 62.9562035 25.291970199999998 54.9270065 30.1970781" />
<path class="stroke" d="M 75.07299 6.693429399999999 C 80.912407 16.708026999999998 86.897808 25.291970199999998 95.218975 29.992699799999997" />
<path class="stroke" d="M 64.90537 28.5489 L 85.09461999999999 28.5489" />
<path class="stroke" d="M 57.176665 41.7981 L 57.176665 62.9337" />
<path class="stroke" d="M 57.176665 41.7981 L 93.138815 41.7981 L 93.138815 62.9337" />
<path class="stroke" d="M 57.176665 62.9337 L 93.138815 62.9337" />
<path class="stroke" d="M 74.84227 29.1798 L 74.68451999999999 68.9275 C 73.05462 83.2282 63.06517 90.9043 53.548905 93.8485" />
<path class="stroke" d="M 74.68455 69.2429 C 76.57730000000001 82.387 86.04105 91.1146 96.29339999999999 94.164" />
</svg>
