<?xml version="1.0" standalone="no"?>
<!DOCTYPE svg PUBLIC "-//W3C//DTD SVG 1.1//EN" "http://www.w3.org/Graphics/SVG/1.1/DTD/svg11.dtd">
<svg xmlns="http://www.w3.org/2000/svg" version="1.1" width="100%" height="100%">
<style type="text/css"><![CDATA[
  .stroke { fill:none; stroke:black; stroke-width:2 }
]]></style>
<path class="stroke" d="M 5.1262 9.621452 L 45.50475 9.621452" />
<path class="stroke" d="M 5.1262 9.62145 L 5.1262 91.3249 L 46.2934 91.3249" />
<path class="stroke" d="M 41.1627712 23.8992698 C 37.440076 42.634096 23.736604 68.80444 12.04744468 78.497806" />
<path class="stroke" d="M 17.302919080000002 29.85547276 C 24.039436000000002 36.270248 34.525264 55.647800000000004 40.241344 70.949568" />
<path class="stroke" d="M 65.37855 8.04417 L 65.37855 26.6562 C 65.2734 41.062 59.64775 47.897 53.23344 50.9464" />
<path class="stroke" d="M 65.5363 8.04416 L 82.571 8.04416 L 82.571 36.7507 C 82.41325 40.8516 83.6751 43.3753 85.4101 43.3753 L 96.361255 43.3753" />
<path class="stroke" d="M 60.48895 53.15461 L 86.8297 53.15461 C 80.1525 77.23451 67.9548 89.01161 54.17981 94.16401" />
<path class="stroke" d="M 64.27445 53.15461 C 66.74555000000001 75.65721 80.88855 92.16621 96.4511 93.84861" />
</svg>
