<?xml version="1.0" standalone="no"?>
<!DOCTYPE svg PUBLIC "-//W3C//DTD SVG 1.1//EN" "http://www.w3.org/Graphics/SVG/1.1/DTD/svg11.dtd">
<svg xmlns="http://www.w3.org/2000/svg" version="1.1" width="100%" height="100%">
<style type="text/css"><![CDATA[
  .stroke { fill:none; stroke:black; stroke-width:2 }
]]></style>
<path class="stroke" d="M 5.872872340425532 11.8297 L 43.79489361702128 11.8297 C 37.41861702127659 21.9243 34.062659574468086 24.1325 25.67287234042553 26.9716" />
<path class="stroke" d="M 25.67287234042553 26.9716 L 25.67287234042553 86.2776" />
<path class="stroke" d="M 25.67287234042553 46.53 L 40.43893617021276 46.53" />
<path class="stroke" d="M 12.249148936170213 33.596245 L 12.249148936170213 91.009445" />
<path class="stroke" d="M 5.872872340425532 93.5331 L 40.774574468085106 81.8612" />
<path class="stroke" d="M 53.23344 15.6151 L 96.60884999999999 15.6151" />
<path class="stroke" d="M 59.542590000000004 31.072584 L 59.542590000000004 56.940086" />
<path class="stroke" d="M 59.542590000000004 31.072584 L 90.77288999999999 31.072584 L 90.77288999999999 56.940086" />
<path class="stroke" d="M 59.542590000000004 56.940086 L 90.77288999999999 56.940086" />
<path class="stroke" d="M 75.31545 5.5205 L 75.31545 93.8486" />
<path class="stroke" d="M 75.31545 56.9401 C 71.31965 73.8696 63.38065 88.591 53.391165 91.6404" />
<path class="stroke" d="M 75.31545 56.9401 C 79.6267 73.5542 85.83070000000001 88.2755 96.76655 91.6404" />
</svg>
