<?xml version="1.0" standalone="no"?>
<!DOCTYPE svg PUBLIC "-//W3C//DTD SVG 1.1//EN" "http://www.w3.org/Graphics/SVG/1.1/DTD/svg11.dtd">
<svg xmlns="http://www.w3.org/2000/svg" version="1.1" width="100%" height="100%">
<style type="text/css"><![CDATA[
  .stroke { fill:none; stroke:black; stroke-width:2 }
]]></style>
<path class="stroke" d="M 29.09666625 5.83596 C 24.99559275 18.87483 16.39946775 32.54463 7.56663525 38.64353" />
<path class="stroke" d="M 9.69597375 8.04417 C 18.37108875 17.7182 25.62658875 33.0705 25.54768875 61.6719 L 25.54768875 77.4448 C 25.863138 85.6467 24.049338 96.0569 17.740113 95.7414 L 13.83396375 95.7414" />
<path class="stroke" d="M 22.94513625 34.22716 C 23.02403625 49.47426 15.05866125 62.82856 7.56664125 67.03466" />
<path class="stroke" d="M 37.9623052 22.64156 L 92.0754928 22.64156" />
<path class="stroke" d="M 43.62262984 32.389965 C 47.39629528 37.106964 49.35851056 40.880566 51.547168 48.113266" />
<path class="stroke" d="M 86.415112 31.76103 C 84.45282399999999 38.469532 82.490608 42.976933 79.16982399999999 47.798733" />
<path class="stroke" d="M 33.8868064 55.9748 L 94.792456 55.9748" />
<path class="stroke" d="M 65.58486544 7.23271 C 65.547136 30.4508 65.963944 42.239 63.603784 55.8962 C 60.448527999999996 72.5559 50.00003272 84.6436 33.88679272 93.3962" />
<path class="stroke" d="M 66.943432 56.6038 C 72.07552 74.2139 82.867888 86.7925 94.56601599999999 93.0818" />
</svg>
