<?xml version="1.0" standalone="no"?>
<!DOCTYPE svg PUBLIC "-//W3C//DTD SVG 1.1//EN" "http://www.w3.org/Graphics/SVG/1.1/DTD/svg11.dtd">
<svg xmlns="http://www.w3.org/2000/svg" version="1.1" width="100%" height="100%">
<style type="text/css"><![CDATA[
  .stroke { fill:none; stroke:black; stroke-width:2 }
]]></style>
<path class="stroke" d="M 10.267693518518518 11.8297 L 42.445910185185184 11.8297" />
<path class="stroke" d="M 9.71763888888889 30.09901 L 9.71763888888889 89.80198" />
<path class="stroke" d="M 9.71763888888889 30.1262 L 43.546018518518515 30.1262 L 43.546018518518515 89.80198" />
<path class="stroke" d="M 20.99376574074074 11.683168 L 20.99376574074074 40.79208 C 20.99376574074074 47.326733 20.718737037037037 54.455444 14.66813425925926 58.61386" />
<path class="stroke" d="M 31.444811111111115 11.980198 L 31.444811111111115 42.574257 C 31.444811111111115 48.811882 31.444811111111115 53.861385 35.84525 53.861385 L 38.320499999999996 53.861385" />
<path class="stroke" d="M 14.393105555555556 71.9802 L 39.145583333333335 71.9802" />
<path class="stroke" d="M 9.71763888888889 89.80198 L 43.546018518518515 89.80198" />
<path class="stroke" d="M 75.07299 8.958540147999999 L 75.07299 12.745984924" />
<path class="stroke" d="M 55.656934 12.826569472 L 94.051095 12.826569472" />
<path class="stroke" d="M 66.94160543999999 17.713284639999998 C 66.24087503999999 21.7915324 62.59707984 25.617517359999997 55.72992624 28.686715359999997" />
<path class="stroke" d="M 81.94210079999999 17.793883456 C 87.82335552 20.740437376 91.6072944 24.776641599999998 93.8496312 28.770802720000002" />
<path class="stroke" d="M 57.4921285 37.99677419354839 L 92.66563 37.99677419354839" />
<path class="stroke" d="M 68.217665 28.227729032258065 L 68.217665 63.396159999999995" />
<path class="stroke" d="M 81.466875 27.983509677419356 L 81.466875 63.39612903225806" />
<path class="stroke" d="M 57.3343995 51.18485161290322 L 92.5079 51.18485161290322" />
<path class="stroke" d="M 53.3911675 63.88464516129032 L 97.2397575 63.88464516129032" />
<path class="stroke" d="M 73.895895 65.00007 C 70.39604 71.653465 64.455446 76.435641 58.366337 78.93069299999999" />
<path class="stroke" d="M 68.91089 72.277228 L 68.91089 92.861386 C 73.217821 91.82178099999999 76.039605 90.78217599999999 79.00990300000001 88.28713099999999" />
<path class="stroke" d="M 89.257427 66.039605 C 87.17822000000001 70.1980201 84.356435 73.5247505 81.0891075 75.18812199999999" />
<path class="stroke" d="M 77.970299 71.029702 C 81.23762500000001 79.762377 87.62376499999999 87.03960219999999 94.603962 90.78217599999999" />
</svg>
