<?xml version="1.0" standalone="no"?>
<!DOCTYPE svg PUBLIC "-//W3C//DTD SVG 1.1//EN" "http://www.w3.org/Graphics/SVG/1.1/DTD/svg11.dtd">
<svg xmlns="http://www.w3.org/2000/svg" version="1.1" width="100%" height="100%">
<style type="text/css"><![CDATA[
  .stroke { fill:none; stroke:black; stroke-width:2 }
]]></style>
<path class="stroke" d="M 27.580289000000004 6.95255475 L 27.580289000000004 16.587590249999998" />
<path class="stroke" d="M 6.864962775 16.806567 L 6.864962775 27.31751625" />
<path class="stroke" d="M 6.864962775 16.806567 L 48.295615500000004 16.806567 L 48.295615500000004 27.31751625" />
<path class="stroke" d="M 11.040144500000002 33.33203795744681 L 43.7992665 33.33203795744681" />
<path class="stroke" d="M 27.580289000000004 25.5792805106383 L 27.580289000000004 60.143652851063834" />
<path class="stroke" d="M 12.485401500000002 46.57633174468086 L 42.514593000000005 46.57633174468086" />
<path class="stroke" d="M 5.580291750000001 60.143652851063834 L 49.580289 60.143652851063834" />
<path class="stroke" d="M 10.07664185 71.20802875 L 10.07664185 92.4635025" />
<path class="stroke" d="M 10.07664185 71.20802875 L 45.083940000000005 71.20802875 L 45.083940000000005 92.2591235" />
<path class="stroke" d="M 10.07664185 90.8284656 L 45.083940000000005 90.8284656" />
<path class="stroke" d="M 68.651375 12.1451 L 68.651375 68.612" />
<path class="stroke" d="M 87.97312500000001 6.78233 L 87.97312500000001 84.0694 C 88.104625 89.6425 83.89849999999998 92.3765 78.90375 92.2713 L 74.56625000000001 92.2713" />
</svg>
