<?xml version="1.0" standalone="no"?>
<!DOCTYPE svg PUBLIC "-//W3C//DTD SVG 1.1//EN" "http://www.w3.org/Graphics/SVG/1.1/DTD/svg11.dtd">
<svg xmlns="http://www.w3.org/2000/svg" version="1.1" width="100%" height="100%">
<style type="text/css"><![CDATA[
  .stroke { fill:none; stroke:black; stroke-width:2 }
]]></style>
<path class="stroke" d="M 8.003300000000001 33.069305 L 25.825083333333335 30.9901" />
<path class="stroke" d="M 19.389438333333334 9.60396 L 19.389438333333334 84.15842 C 19.389438333333334 87.42574 17.161715833333336 90.09901 14.191419166666668 90.09901" />
<path class="stroke" d="M 8.498349166666667 63.36634 L 24.09241 46.435642" />
<path class="stroke" d="M 62.609485 6.95255475 L 62.609485 16.587590249999998" />
<path class="stroke" d="M 34.361312874999996 16.806567 L 34.361312874999996 27.31751625" />
<path class="stroke" d="M 34.361312874999996 16.806567 L 90.8576575 16.806567 L 90.8576575 27.31751625" />
<path class="stroke" d="M 45.70195 28.009853245833334 C 41.67985 35.5802898375 36.948025 39.58822396 30.3233425 43.5960860875" />
<path class="stroke" d="M 42.862825 32.90841775 L 63.6421315 32.70968755166667 C 54.928974999999994 46.86175458333334 44.0458 56.58460875 29.613565 62.076909666666666" />
<path class="stroke" d="M 44.28235 39.142902416666665 L 52.089925 46.04538775" />
<path class="stroke" d="M 37.1845225 44.70936524166667 L 45.938522500000005 52.27978065833334" />
<path class="stroke" d="M 69.59774275 32.90838739916667 L 93.0204655 32.90838739916667 C 88.4463625 40.18199989916667 82.6063825 43.874646741666666 79.09574500000001 47.47889995833333" />
<path class="stroke" d="M 66.9680875 26.529166666666665 C 73.03192 45.076064009999996 81.7429 55.025917 95.149825 62.076839083333326" />
<path class="stroke" d="M 49.9606 57.605066265000005 L 76.22245 57.605066265000005" />
<path class="stroke" d="M 35.7649825 69.32266169300001 L 90.18131500000001 69.32266169300001" />
<path class="stroke" d="M 62.973196 69.48539203 L 62.973196 93.73434291000001 C 62.973196 95.47029482 61.08042025 96.55523252 59.4242725 96.50101143 L 56.34852025 96.50101143" />
<path class="stroke" d="M 49.48735 77.94806086 C 45.386425 83.91542457 39.392725 88.09256369 30.7965325 90.80495953" />
<path class="stroke" d="M 76.459075 78.27364535 C 83.556925 81.63700381000001 88.525225 85.48866162 93.257125 90.80495953" />
</svg>
