<?xml version="1.0" standalone="no"?>
<!DOCTYPE svg PUBLIC "-//W3C//DTD SVG 1.1//EN" "http://www.w3.org/Graphics/SVG/1.1/DTD/svg11.dtd">
<svg xmlns="http://www.w3.org/2000/svg" version="1.1" width="100%" height="100%">
<style type="text/css"><![CDATA[
  .stroke { fill:none; stroke:black; stroke-width:2 }
]]></style>
<path class="stroke" d="M 10.961809821428572 14.059406 C 13.879066071428571 16.138615 16.796323214285717 19.108912 19.183169642857145 22.673267" />
<path class="stroke" d="M 9.105374107142858 38.118813 C 11.757426785714285 39.90099 14.939887500000001 42.574257 17.06152857142857 46.138615" />
<path class="stroke" d="M 8.840169642857143 85.64356 C 9.434829464285714 87.422676 11.091678571428572 89.896904 13.024666964285714 89.896904 C 14.957658035714285 89.896904 17.5919375 76.73267 19.448374107142858 69.60396" />
<path class="stroke" d="M 39.6167875 10.145985 L 39.6167875 90.43795" />
<path class="stroke" d="M 39.6167875 10.145985 L 85.3832125 10.145985 L 85.3832125 86.05839 C 85.3832125 88.68613 84.7262725 90.14598 82.7554675 90.14598 L 80.56568875 90.14598" />
<path class="stroke" d="M 52.6007878816 25.759999999999998 L 72.39921016 25.759999999999998" />
<path class="stroke" d="M 51.09562012 40.72572208 L 51.09562012 66.76671392" />
<path class="stroke" d="M 51.09562012 40.72572208 L 74.00948799999999 40.72572208 L 74.00948799999999 66.51632044800002" />
<path class="stroke" d="M 51.09562012 64.7635601408 L 74.00948799999999 64.7635601408" />
</svg>
