<?xml version="1.0" standalone="no"?>
<!DOCTYPE svg PUBLIC "-//W3C//DTD SVG 1.1//EN" "http://www.w3.org/Graphics/SVG/1.1/DTD/svg11.dtd">
<svg xmlns="http://www.w3.org/2000/svg" version="1.1" width="100%" height="100%">
<style type="text/css"><![CDATA[
  .stroke { fill:none; stroke:black; stroke-width:2 }
]]></style>
<path class="stroke" d="M 15.401459 15.54306516 L 84.8905 15.54306516" />
<path class="stroke" d="M 49.43925 4.435513739999999 L 49.065422 4.5925236 C 45.126904 17.4182736 33.364487 22.0205622 6.074766 30.0280386" />
<path class="stroke" d="M 58.037384 15.583176839999998 C 66.26168 20.921495280000002 72.990654 25.63177596 89.81309 30.3420558" />
<path class="stroke" d="M 32.02554595 27.43430585 C 30.784670050000003 31.901459449999997 22.8430648 36.6313865 18.127735700000002 37.68248075" />
<path class="stroke" d="M 28.302918249999998 34.266422750000004 L 28.302918249999998 63.6970775" />
<path class="stroke" d="M 57.83576195 27.56569325 C 56.346711549999995 30.4562039 53.6167861 32.95255415 49.6459839 34.39780925" />
<path class="stroke" d="M 28.302918249999998 34.143547999999996 L 74.215324 34.143547999999996" />
<path class="stroke" d="M 50.8868615 34.39780925 L 50.8868615 63.6970775" />
<path class="stroke" d="M 28.302918249999998 44.5063325 L 70.989047 44.5063325" />
<path class="stroke" d="M 28.302918249999998 54.1058378 L 71.2372215 54.1058378" />
<path class="stroke" d="M 28.302918249999998 63.6970775 L 79.17882759999999 63.6970775" />
<path class="stroke" d="M 20.71167836 72.36788256 L 20.71167836 95.91240640000001" />
<path class="stroke" d="M 20.71167836 72.27445184 L 80.51313392 72.27445184 L 80.51313392 95.91240640000001" />
<path class="stroke" d="M 50.612404600000005 72.36788256 L 50.612404600000005 94.230656" />
<path class="stroke" d="M 20.71167836 83.24625856 L 80.0635032 83.24625856" />
<path class="stroke" d="M 20.71167836 94.230656 L 80.51313392 94.230656" />
</svg>
