<?xml version="1.0" standalone="no"?>
<!DOCTYPE svg PUBLIC "-//W3C//DTD SVG 1.1//EN" "http://www.w3.org/Graphics/SVG/1.1/DTD/svg11.dtd">
<svg xmlns="http://www.w3.org/2000/svg" version="1.1" width="100%" height="100%">
<style type="text/css"><![CDATA[
  .stroke { fill:none; stroke:black; stroke-width:2 }
]]></style>
<path class="stroke" d="M 12.46055 8.044167 L 89.74765 8.044167 L 89.74765 23.186256" />
<path class="stroke" d="M 12.46055 23.186256 L 89.74765 23.186256" />
<path class="stroke" d="M 12.14511 8.044167 L 12.14511 58.20186 C 12.25031 72.92316 10.46261 81.01996 6.15142 94.164055" />
<path class="stroke" d="M 22.173504 35.83909 L 91.82648 35.83909" />
<path class="stroke" d="M 52.457440000000005 36.05994 C 48.33552 45.40802 43.70872 51.44377 36.81072 58.14193 M 27.97792 59.466910999999996 C 46.232479999999995 58.215590999999996 63.22504000000001 56.301791 79.20824 52.621471" />
<path class="stroke" d="M 73.65616 46.659361000000004 C 77.69408 49.750771 80.72240000000001 53.946360999999996 82.99368 58.141951" />
<path class="stroke" d="M 36.558388 74.041009 L 80.21767200000001 74.041009" />
<path class="stroke" d="M 57.75712 63.220828999999995 L 57.75712 92.810739" />
<path class="stroke" d="M 22.425864 92.810739 L 90.81704 92.810739" />
</svg>
