<?xml version="1.0" standalone="no"?>
<!DOCTYPE svg PUBLIC "-//W3C//DTD SVG 1.1//EN" "http://www.w3.org/Graphics/SVG/1.1/DTD/svg11.dtd">
<svg xmlns="http://www.w3.org/2000/svg" version="1.1" width="100%" height="100%">
<style type="text/css"><![CDATA[
  .stroke { fill:none; stroke:black; stroke-width:2 }
]]></style>
<path class="stroke" d="M 24.76344 7.41325 C 20.24184 17.1925 13.82764 23.817 6.78234 28.2334" />
<path class="stroke" d="M 25.0789 30.44158 C 20.347 40.22088 14.0379 47.16098 6.78234 52.20818" />
<path class="stroke" d="M 17.82337 44.006344 L 17.82337 93.84854" />
<path class="stroke" d="M 73.81704 12.775985 L 90.69404 12.775985" />
<path class="stroke" d="M 69.87374 38.01264 L 94.16404 38.01264" />
<path class="stroke" d="M 82.80756 38.01264 L 82.80756 87.85484 C 83.18956 92.40424 81.39656 94.31324 78.07566 94.16404 L 75.55206 94.16404" />
<path class="stroke" d="M 42.611988 1.940061 C 41.787611999999996 6.734999999999999 39.638276 11.43531 35.8990524 14.43216" />
<path class="stroke" d="M 41.817012 6.766559999999999 L 59.217668 6.86118 L 59.129328 17.46057 C 58.952676 22.25553 57.097816 27.807570000000002 53.917996 27.870659999999997 L 52.593064 27.870659999999997" />
<path class="stroke" d="M 32.5255472 30.4598532 L 32.5255472 59.890508000000004" />
<path class="stroke" d="M 32.5255472 30.3430648 L 63.5912384 30.3430648 L 63.5912384 59.890508000000004" />
<path class="stroke" d="M 48.058392 30.4598532 L 48.058392 57.78832" />
<path class="stroke" d="M 32.5255472 44.0578232 L 63.357664 44.0578232" />
<path class="stroke" d="M 32.5255472 57.78832 L 63.5912384 57.78832" />
<path class="stroke" d="M 34.1605836 76.1021894 L 61.9562 76.1021894" />
<path class="stroke" d="M 48.058392 67.7810219 L 48.058392 77.0656925 C 48.058392 83.810219 41.9251784 90.7426742 32.29197 92.30657" />
<path class="stroke" d="M 48.058392 76.9781018 C 48.058392 83.89780999999999 54.321396 90.726776 63.824816 92.30657" />
</svg>
