<?xml version="1.0" standalone="no"?>
<!DOCTYPE svg PUBLIC "-//W3C//DTD SVG 1.1//EN" "http://www.w3.org/Graphics/SVG/1.1/DTD/svg11.dtd">
<svg xmlns="http://www.w3.org/2000/svg" version="1.1" width="100%" height="100%">
<style type="text/css"><![CDATA[
  .stroke { fill:none; stroke:black; stroke-width:2 }
]]></style>
<path class="stroke" d="M 11.1096 8.990537 L 11.1096 74.60566" />
<path class="stroke" d="M 11.1096 8.990537 L 31.13429565217391 8.990537 L 31.13429565217391 74.60566" />
<path class="stroke" d="M 11.1096 31.072573 L 30.859947826086955 31.072573" />
<path class="stroke" d="M 11.1096 53.1546 L 30.859947826086955 53.1546" />
<path class="stroke" d="M 11.1096 74.60566 L 31.13429565217391 74.60566" />
<path class="stroke" d="M 16.04713043478261 82.1766 C 14.218434782608695 87.4343 10.74382608695652 91.7455 5.623365217391305 95.1104" />
<path class="stroke" d="M 25.64809565217391 82.49213 C 28.299747826086957 85.43633 30.128443478260866 88.38063 31.134269565217387 92.58673" />
<path class="stroke" d="M 39.6182952 24.76342 L 94.38168 24.76342" />
<path class="stroke" d="M 73.649872 5.83596 L 73.649872 24.7634 C 73.91064399999999 52.7339 83.75500399999999 93.0074 91.643512 93.2176 L 91.643512 82.4922" />
<path class="stroke" d="M 92.03467 44.637257 C 86.558334 68.82226 77.170294 86.38276 63.870611999999994 92.586754" />
<path class="stroke" d="M 86.949554 7.09779 C 89.166178 9.62145 90.600424 11.82965 92.03467 15.93065" />
<path class="stroke" d="M 42.15474403 51.86118 L 67.2262752 51.86118" />
<path class="stroke" d="M 54.576244700000004 35.954022 L 54.576244700000004 84.045972" />
</svg>
