<?xml version="1.0" standalone="no"?>
<!DOCTYPE svg PUBLIC "-//W3C//DTD SVG 1.1//EN" "http://www.w3.org/Graphics/SVG/1.1/DTD/svg11.dtd">
<svg xmlns="http://www.w3.org/2000/svg" version="1.1" width="100%" height="100%">
<style type="text/css"><![CDATA[
  .stroke { fill:none; stroke:black; stroke-width:2 }
]]></style>
<path class="stroke" d="M 50.0 5.381726400000005 L 50.0 18.0" />
<path class="stroke" d="M 7.5 18.0 L 92.5 18.0" />
<path class="stroke" d="M 8.99053 25.976298200000002 L 21.6088 38.15612300000001" />
<path class="stroke" d="M 7.41325 63.327783800000006 L 29.4953 50.87726" />
<path class="stroke" d="M 90.3786 25.705685000000003 L 78.0757 38.15612300000001" />
<path class="stroke" d="M 71.4511 50.33594780000001 L 93.5331 63.598397" />
<path class="stroke" d="M 50.2919692 24.443065070000003 C 47.8394148 28.99780955 44.2189772 32.07226262 41.2992692 34.805108450000006 C 44.1021896 36.8547437 47.2554732 39.35985410000001 50.2919692 42.43430483" />
<path class="stroke" d="M 58.700728 32.4138683 C 52.3941588 41.97883007 44.569342 49.2664235 36.9781012 54.6182453 C 46.3211668 53.0240852 54.846713199999996 52.454741750000004 63.255472 52.454741750000004" />
<path class="stroke" d="M 60.919704 48.5832098 C 62.49208 50.229314 64.38488000000001 53.099987 64.77372 55.64306390000001" />
<path class="stroke" d="M 9.854013 73.116708 L 90.72992 73.116708" />
<path class="stroke" d="M 49.92337 63.5724132 L 49.92337 92.4275832" />
</svg>
