<?xml version="1.0" standalone="no"?>
<!DOCTYPE svg PUBLIC "-//W3C//DTD SVG 1.1//EN" "http://www.w3.org/Graphics/SVG/1.1/DTD/svg11.dtd">
<svg xmlns="http://www.w3.org/2000/svg" version="1.1" width="100%" height="100%">
<style type="text/css"><![CDATA[
  .stroke { fill:none; stroke:black; stroke-width:2 }
]]></style>
<path class="stroke" d="M 20.770715441176474 11.605839 C 17.979818382352942 27.372261 12.183339705882354 41.970802 7.245597794117647 50.14598" />
<path class="stroke" d="M 16.477026470588235 30.583939 L 16.477026470588235 90.43795" />
<path class="stroke" d="M 33.867475999999996 5.83596 L 85.17348000000001 5.83596" />
<path class="stroke" d="M 61.438452 6.15142 C 60.319656 10.4627 56.323879999999996 13.5121 52.328103999999996 14.3533" />
<path class="stroke" d="M 39.62146944 14.6688 L 39.62146944 39.9054" />
<path class="stroke" d="M 39.62146944 14.6688 L 79.4195504 14.6688 L 79.4195504 39.9054" />
<path class="stroke" d="M 39.861216 23.18614 L 79.419596 23.18614" />
<path class="stroke" d="M 39.861216 31.70346 L 79.419596 31.70346" />
<path class="stroke" d="M 27.1545746 40.220856 L 27.1545746 51.577255" />
<path class="stroke" d="M 27.1545746 40.220856 L 93.3249512 40.220856 L 93.3249512 52.208157" />
<path class="stroke" d="M 35.258428 51.59936 C 34.619192 56.58356 33.020912 59.86436 30.223732 63.52364" />
<path class="stroke" d="M 47.2457864 48.57098 L 47.2457864 64.65932 C 47.2457864 66.36277999999999 48.6843144 67.4984 50.8420304 67.4984 L 76.7347744 67.4984 C 78.73266240000001 67.4984 80.49084640000001 66.17348 80.5707224 64.09147999999999 L 80.5707224 60.8738" />
<path class="stroke" d="M 56.356255999999995 48.570992 C 60.51186 51.473192 63.229012 54.564692 65.706384 58.602512" />
<path class="stroke" d="M 80.57069200000001 48.760279999999995 C 85.605388 52.293319999999994 88.722148 55.8266 91.838832 60.68456" />
<path class="stroke" d="M 54.78539908 76.20583888 C 49.681749800000006 79.359124 41.0277362 82.652554 32.15182312 84.754744" />
<path class="stroke" d="M 52.12262508 78.02773696 L 71.8715344 78.02773696 C 63.8832124 83.77372168 46.797078600000006 90.4306552 29.710948600000002 94.0744504" />
<path class="stroke" d="M 43.69051096 81.46131376 C 52.4 86.54838735999999 70.31824412 91.3416052 89.1795616 94.0744504" />
</svg>
