<?xml version="1.0" standalone="no"?>
<!DOCTYPE svg PUBLIC "-//W3C//DTD SVG 1.1//EN" "http://www.w3.org/Graphics/SVG/1.1/DTD/svg11.dtd">
<svg xmlns="http://www.w3.org/2000/svg" version="1.1" width="100%" height="100%">
<style type="text/css"><![CDATA[
  .stroke { fill:none; stroke:black; stroke-width:2 }
]]></style>
<path class="stroke" d="M 23.3211663 10.729925 C 19.6423344 18.029196 14.649633000000001 23.86861 9.9197064 28.540146 C 13.598539200000001 31.45985 18.065691 36.131386 22.2700698 40.218975" />
<path class="stroke" d="M 33.3065682 25.912407 C 27.0 34.67153 18.5912397 45.18248 8.0802918 56.277367 C 17.540145 54.525543 28.0510929 52.48175 37.510947 50.437954" />
<path class="stroke" d="M 34.357662 43.430653 C 36.9853983 46.642334 37.7737218 49.85401 39.3503634 55.40146" />
<path class="stroke" d="M 23.846715 54.233574 L 23.846715 89.56204" />
<path class="stroke" d="M 15.700727700000002 65.03649 C 14.124087 70.87591 12.2846697 74.67153 8.6058378 78.75912" />
<path class="stroke" d="M 30.678831 65.32846 C 33.5693403 68.540146 33.616215 68.81081 35.075672999999995 71.72973" />
<path class="stroke" d="M 62.217698 9.9369 C 62.034707999999995 41.6929 55.265006 68.4017 46.4826518 88.4858" />
<path class="stroke" d="M 50.324914 9.62145 L 82.34381400000001 9.62145 C 81.124016 21.9243 79.172432 29.8108 75.757102 38.959 L 88.19874 38.959 C 86.91798399999999 65.3523 70.268098 85.121 51.605669999999996 94.164" />
<path class="stroke" d="M 62.03465 19.4006 C 66.303856 64.3007 78.257598 94.6898 92.40692999999999 93.8485 L 96.06626599999998 93.8485" />
</svg>
