<?xml version="1.0" standalone="no"?>
<!DOCTYPE svg PUBLIC "-//W3C//DTD SVG 1.1//EN" "http://www.w3.org/Graphics/SVG/1.1/DTD/svg11.dtd">
<svg xmlns="http://www.w3.org/2000/svg" version="1.1" width="100%" height="100%">
<style type="text/css"><![CDATA[
  .stroke { fill:none; stroke:black; stroke-width:2 }
]]></style>
<path class="stroke" d="M 10.437956 27.956203 L 33.211678 27.956203" />
<path class="stroke" d="M 23.86861 9.270073 L 23.86861 90.14598" />
<path class="stroke" d="M 23.86861 36.131386 C 20.07299 44.598537 15.401459 52.48175 8.686131 56.861313" />
<path class="stroke" d="M 23.86861 36.131386 C 28.248173 37.299267 31.167881 42.26277 32.627735 46.934303" />
<path class="stroke" d="M 41.398248631499996 20.5583576 L 91.12833007200001 20.5583576" />
<path class="stroke" d="M 54.567856569 10.1104088 L 54.567856569 71.43533599999999" />
<path class="stroke" d="M 77.76211227600001 10.11041096 L 77.76211227600001 71.66246" />
<path class="stroke" d="M 54.764432157 37.13882 L 77.56553045700001 37.13882" />
<path class="stroke" d="M 54.960995283 53.719232 L 77.565567843 53.719232" />
<path class="stroke" d="M 40.022316096 72.116744 L 93.29047461000002 72.116744" />
<path class="stroke" d="M 54.241344999999995 78.75712000000001 C 52.268664 84.47744 47.759765 87.57312 42.616711 89.255552" />
<path class="stroke" d="M 77.06784300000001 78.757056 C 79.74496200000002 84.41004799999999 83.478939 87.23654400000001 88.69241000000001 89.255488" />
</svg>
