<?xml version="1.0" standalone="no"?>
<!DOCTYPE svg PUBLIC "-//W3C//DTD SVG 1.1//EN" "http://www.w3.org/Graphics/SVG/1.1/DTD/svg11.dtd">
<svg xmlns="http://www.w3.org/2000/svg" version="1.1" width="100%" height="100%">
<style type="text/css"><![CDATA[
  .stroke { fill:none; stroke:black; stroke-width:2 }
]]></style>
<path class="stroke" d="M 20.7344878125 9.562042 C 24.019160625 11.021896 27.30382875 14.817516 29.493609375 19.48905" />
<path class="stroke" d="M 9.2381371875 22.8707 L 39.89506875 22.8707" />
<path class="stroke" d="M 15.260034375000002 37.007298 L 33.873174375 37.007298" />
<path class="stroke" d="M 15.260034375000002 51.313866 L 33.873174375 51.313866" />
<path class="stroke" d="M 14.165145 64.45255 L 14.165145 85.76642" />
<path class="stroke" d="M 14.165145 64.16058 L 35.515509375 64.16058 L 35.515509375 85.76642" />
<path class="stroke" d="M 14.165145 85.76642 L 35.2417875 85.76642" />
<path class="stroke" d="M 54.94379435 9.744525 L 86.12335619999999 8.576642 C 85.4343011 19.525547 84.0562027 25.948904 82.1613115 34.270073 C 81.12773179999999 38.2116775 79.23284414 44.19708 75.6153264 44.19708 L 73.72043638 44.19708" />
<path class="stroke" d="M 65.62408527 9.4525535 L 63.9014605 18.357662 C 61.14525367 29.744522 56.14963399 37.0437925 51.8430641 43.17518" />
<path class="stroke" d="M 50.809488529999996 58.8686125 L 50.809488529999996 89.233575" />
<path class="stroke" d="M 50.809488529999996 58.8686125 L 88.36277199999999 58.8686125 L 88.36277199999999 88.94160500000001" />
<path class="stroke" d="M 50.809488529999996 86.897808 L 88.36277199999999 86.897808" />
</svg>
