<?xml version="1.0" standalone="no"?>
<!DOCTYPE svg PUBLIC "-//W3C//DTD SVG 1.1//EN" "http://www.w3.org/Graphics/SVG/1.1/DTD/svg11.dtd">
<svg xmlns="http://www.w3.org/2000/svg" version="1.1" width="100%" height="100%">
<style type="text/css"><![CDATA[
  .stroke { fill:none; stroke:black; stroke-width:2 }
]]></style>
<path class="stroke" d="M 11.204620000000002 33.069305 L 36.15511666666667 30.9901" />
<path class="stroke" d="M 27.14521366666667 9.60396 L 27.14521366666667 84.15842 C 27.14521366666667 87.42574 24.02640216666667 90.09901 19.867986833333337 90.09901" />
<path class="stroke" d="M 11.897688833333335 63.36634 L 33.729374 46.435642" />
<path class="stroke" d="M 46.90875855 7.981751249999999 L 46.90875855 35.3102175" />
<path class="stroke" d="M 46.90875855 7.981751249999999 L 88.28102 7.981751249999999 L 88.28102 35.047444500000005" />
<path class="stroke" d="M 46.90875855 33.2080272 L 88.28102 33.2080272" />
<path class="stroke" d="M 51.463502250000005 55.7189775 L 85.813867 54.4343062 C 85.0547385 66.4781017 83.5364945 73.5437944 81.4489025 82.6970803 C 80.310213 87.03284525000001 78.2226249 93.61678800000001 74.237224 93.61678800000001 L 72.1496333 93.61678800000001" />
<path class="stroke" d="M 63.22992445 55.397808850000004 L 61.3321175 65.1934282 C 58.295618450000006 77.7189742 52.79196965 85.74817175000001 48.0474435 92.492698" />
</svg>
