<?xml version="1.0" standalone="no"?>
<!DOCTYPE svg PUBLIC "-//W3C//DTD SVG 1.1//EN" "http://www.w3.org/Graphics/SVG/1.1/DTD/svg11.dtd">
<svg xmlns="http://www.w3.org/2000/svg" version="1.1" width="100%" height="100%">
<style type="text/css"><![CDATA[
  .stroke { fill:none; stroke:black; stroke-width:2 }
]]></style>
<path class="stroke" d="M 48.17259 3.75 L 48.17259 15.342639000000002" />
<path class="stroke" d="M 18.454268 5.625 L 28.233467 12.75" />
<path class="stroke" d="M 80.2839 5.625 L 69.5583 12.75" />
<path class="stroke" d="M 7.5 15.49681125 L 7.5 24.960537" />
<path class="stroke" d="M 7.5 15.49681125 L 92.5 15.49681125 L 92.5 24.960537" />
<path class="stroke" d="M 30.9927002 24.547445 L 30.9927002 36.69343" />
<path class="stroke" d="M 30.9927002 24.547445 L 69.18248 24.547445 L 69.18248 36.576642" />
<path class="stroke" d="M 30.9927002 35.7591232 L 69.18248 35.7591232" />
<path class="stroke" d="M 27.080292 48.41970715 L 27.080292 84.39050850000001" />
<path class="stroke" d="M 27.372261 48.41970715 L 72.9197 48.41970715 L 72.9197 84.39050850000001" />
<path class="stroke" d="M 27.382198 60.698021000000004 L 72.871284 60.698021000000004" />
<path class="stroke" d="M 27.382198 72.78712935 L 72.871284 72.78712935" />
<path class="stroke" d="M 27.372261 84.22992500000001 L 72.62773 84.22992500000001" />
<path class="stroke" d="M 33.211678 88.08394000000001 C 30.875912 90.81386499999999 21.39527 92.6639495 17.015707 93.30628075" />
<path class="stroke" d="M 63.82199 88.12303675 C 66.335075 89.5052335 75.75916 93.6518353 84.86911 93.4790583" />
</svg>
