<?xml version="1.0" standalone="no"?>
<!DOCTYPE svg PUBLIC "-//W3C//DTD SVG 1.1//EN" "http://www.w3.org/Graphics/SVG/1.1/DTD/svg11.dtd">
<svg xmlns="http://www.w3.org/2000/svg" version="1.1" width="100%" height="100%">
<style type="text/css"><![CDATA[
  .stroke { fill:none; stroke:black; stroke-width:2 }
]]></style>
<path class="stroke" d="M 29.2776125364 8.260729536 C 26.714692853999995 13.74744468 20.599253369999996 19.8918768 13.3875101544 24.27941568 C 24.151772732700003 23.5856928 33.5064302757 23.270365199999997 43.74833163 23.316492" />
<path class="stroke" d="M 38.7604152735 19.360290432 C 41.707771416 20.5585392 44.27069109839999 22.38744468 45.936590472 24.847005359999997" />
<path class="stroke" d="M 18.431386619999998 34.475035828799996 L 18.431386619999998 55.81226063999999 C 18.431386619999998 60.542971248 18.431386619999998 62.52760271999999 18.431386619999998 67.1170709856" />
<path class="stroke" d="M 18.431386619999998 34.475035828799996 L 41.730657599999994 34.475035828799996 L 41.730657599999994 66.297983664 C 41.730657599999994 67.273401216 41.064960299999996 68.12688791999999 39.40072788 68.12688791999999 L 37.570073699999995 68.12688791999999" />
<path class="stroke" d="M 18.431386619999998 43.665812155199994 L 41.730657599999994 43.665812155199994" />
<path class="stroke" d="M 18.431386619999998 53.3740763136 L 41.730657599999994 53.3740763136" />
<path class="stroke" d="M 79.79702911 15.054653892 C 72.24059492 17.268118536 66.88811962 17.845545180000002 57.01970671 18.627152412" />
<path class="stroke" d="M 56.7807684 9.08792076 L 56.7807684 30.452671919999997 C 56.7807684 33.243563855999994 59.96138532 34.783367376 64.36930734 34.783367376 L 87.51089238 34.783367376 C 89.5574259 34.783367376 90.65940508 34.30217748 90.65940508 33.05109036 L 90.65940508 32.18495088" />
<path class="stroke" d="M 79.79702911 49.61465389199999 C 72.24059492 51.828118536 66.88811962 52.405545180000004 57.01970671 53.187152411999996" />
<path class="stroke" d="M 56.7807684 43.64792076 L 56.7807684 65.01267192 C 56.7807684 67.803563856 59.96138532 69.343367376 64.36930734 69.343367376 L 87.51089238 69.343367376 C 89.5574259 69.343367376 90.65940508 68.86217748 90.65940508 67.61109036 L 90.65940508 66.74495088" />
<path class="stroke" d="M 17.4453 80.59935999999999 C 16.6042 85.58356 14.5012 88.86436 10.8207 92.52364" />
<path class="stroke" d="M 33.21814 77.57097999999999 L 33.21814 93.65932 C 33.21814 95.36277999999999 35.11094 96.4984 37.95004 96.4984 L 72.01944 96.4984 C 74.64824 96.4984 76.96164 95.17348 77.06674 93.09147999999999 L 77.06674 89.8738" />
<path class="stroke" d="M 45.2056 77.57099199999999 C 50.6735 80.473192 54.2487 83.56469200000001 57.5084 87.60251199999999" />
<path class="stroke" d="M 77.0667 77.76028 C 83.6913 81.29332 87.7923 84.8266 91.8932 89.68456" />
</svg>
