<?xml version="1.0" standalone="no"?>
<!DOCTYPE svg PUBLIC "-//W3C//DTD SVG 1.1//EN" "http://www.w3.org/Graphics/SVG/1.1/DTD/svg11.dtd">
<svg xmlns="http://www.w3.org/2000/svg" version="1.1" width="100%" height="100%">
<style type="text/css"><![CDATA[
  .stroke { fill:none; stroke:black; stroke-width:2 }
]]></style>
<path class="stroke" d="M 3.383281 12.1451 L 51.616730000000004 12.1451" />
<path class="stroke" d="M 26.979480000000002 12.4606 C 26.979480000000002 21.1882 25.244450000000004 28.3387 20.039415 32.3344" />
<path class="stroke" d="M 7.8943150000000015 32.3344 L 7.8943150000000015 93.2177" />
<path class="stroke" d="M 7.8943150000000015 32.3344 L 45.717705 32.3344 L 45.717705 86.9085 C 45.83337 91.3249 44.734525000000005 93.2176 42.941635000000005 93.2176 L 40.51267000000001 93.2176" />
<path class="stroke" d="M 20.039420500000002 32.965317 L 20.039420500000002 88.48582" />
<path class="stroke" d="M 32.531565 32.965317 L 32.531565 88.48582" />
<path class="stroke" d="M 56.5218953 30.29197 L 90.3613095 30.29197" />
<path class="stroke" d="M 81.92766549999999 9.270073 L 81.92766549999999 84.8905 C 81.92766549999999 87.51824 80.375907 90.14598 77.87955779999999 90.14598 L 73.44160049999999 90.14598" />
<path class="stroke" d="M 57.9087566 40.51095 C 62.069340499999996 42.846714 64.5656935 46.642334 65.952551 51.021896" />
</svg>
