<?xml version="1.0" standalone="no"?>
<!DOCTYPE svg PUBLIC "-//W3C//DTD SVG 1.1//EN" "http://www.w3.org/Graphics/SVG/1.1/DTD/svg11.dtd">
<svg xmlns="http://www.w3.org/2000/svg" version="1.1" width="100%" height="100%">
<style type="text/css"><![CDATA[
  .stroke { fill:none; stroke:black; stroke-width:2 }
]]></style>
<path class="stroke" d="M 32.8759096 10.729925 C 27.036496 15.109488 20.029196 18.029196 13.7226272 19.781021" />
<path class="stroke" d="M 8.8175168 41.094887 L 36.145984 37.299267" />
<path class="stroke" d="M 24.0 16.569342 L 24.0 86.642334" />
<path class="stroke" d="M 24.0 44.890507 C 18.6277376 57.153282 14.189779999999999 65.03649 8.116788 68.540146" />
<path class="stroke" d="M 24.0 44.890507 C 28.9051088 48.394157 31.7080264 51.313866 34.043792 56.277367" />
<path class="stroke" d="M 67.5832086 5.5620438 L 67.5832086 13.2700722" />
<path class="stroke" d="M 46.114597785 13.4452536 L 46.114597785 21.854013" />
<path class="stroke" d="M 46.114597785 13.4452536 L 89.0518197 13.4452536 L 89.0518197 21.854013" />
<path class="stroke" d="M 52.0328444 29.47664075 L 82.397805 29.47664075" />
<path class="stroke" d="M 63.989049050000006 29.707297840000003 C 59.0547437 39.62554639 50.686125000000004 44.965835 41.66406 49.03631" />
<path class="stroke" d="M 57.9160581 38.9335767 C 69.49269849999999 50.00510596 71.7700736 81.37445045000001 67.594887 88.5248155 C 65.127734 92.67663680000001 60.572990950000005 91.7540116 58.8649606 89.9087533" />
<path class="stroke" d="M 63.4197069 47.237225620000004 C 58.10583795 56.0021903 50.894159450000004 61.07663917 41.59489025 64.99780812" />
<path class="stroke" d="M 67.4051065 59.0007301 C 61.71167655 70.5335767 51.6532847 77.6839378 41.59489025 81.14379494" />
<path class="stroke" d="M 86.95255 40.54817238 C 83.9160555 46.31459647 79.17152999999999 50.9277359 73.47809875 53.46496073" />
<path class="stroke" d="M 70.06204325 50.00510596 C 74.42700450000001 67.76568925000001 84.105836 77.6839378 93.02554225 84.83430680000001" />
</svg>
