<?xml version="1.0" standalone="no"?>
<!DOCTYPE svg PUBLIC "-//W3C//DTD SVG 1.1//EN" "http://www.w3.org/Graphics/SVG/1.1/DTD/svg11.dtd">
<svg xmlns="http://www.w3.org/2000/svg" version="1.1" width="100%" height="100%">
<style type="text/css"><![CDATA[
  .stroke { fill:none; stroke:black; stroke-width:2 }
]]></style>
<path class="stroke" d="M 25.157728 6.78233 L 25.157728 15.6151" />
<path class="stroke" d="M 3.2334385 15.93057 L 46.76658 15.93057" />
<path class="stroke" d="M 23.1073 22.23976 C 21.2145 29.49536 18.53315 34.85806 15.37855 39.58996 M 9.3849 32.96526 C 14.6951 37.80236 18.5857 46.74036 21.52995 57.25546" />
<path class="stroke" d="M 32.7287 33.91161 C 27.1031 54.31131 17.21875 66.82441 6.38805 71.13561" />
<path class="stroke" d="M 38.72235 50.3154 C 32.30805 73.5542 20.68875 89.5374 3.706625 93.2177" />
<path class="stroke" d="M 29.7319 73.0284 C 35.3049 77.3396 39.30075 84.4901 43.45425 93.2177" />
<path class="stroke" d="M 62.372261 33.211678 L 91.715325 30.875912 C 90.9854 64.16058 88.79562 81.9708 88.06569300000001 85.76642 C 87.18977749999999 88.978096 85.437955 89.85401 83.9781 90.14598 L 82.51824500000001 89.85401" />
<path class="stroke" d="M 76.824815 10.437956 C 75.07299 43.138683 69.37956 76.423355 60.182480999999996 85.76642" />
</svg>
