<?xml version="1.0" standalone="no"?>
<!DOCTYPE svg PUBLIC "-//W3C//DTD SVG 1.1//EN" "http://www.w3.org/Graphics/SVG/1.1/DTD/svg11.dtd">
<svg xmlns="http://www.w3.org/2000/svg" version="1.1" width="100%" height="100%">
<style type="text/css"><![CDATA[
  .stroke { fill:none; stroke:black; stroke-width:2 }
]]></style>
<path class="stroke" d="M 50.0 8.4817517 L 50.0 13.1240876" />
<path class="stroke" d="M 22.116787 13.386860899999999 L 78.46715 13.386860899999999" />
<path class="stroke" d="M 26.788319 17.153285 C 32.627735 20.3065688 37.007298 24.423356 39.343063 28.452554" />
<path class="stroke" d="M 74.087585 16.452554 C 67.08029 19.69343 61.240875 24.686132 59.78102 29.854013" />
<path class="stroke" d="M 11.313868 30.729926 L 88.10219 30.729926" />
<path class="stroke" d="M 28.540146 42.5912365 L 28.540146 70.854015" />
<path class="stroke" d="M 28.540146 42.5912365 L 71.75182 42.5912365 L 71.75182 70.854015" />
<path class="stroke" d="M 28.540146 56.72262300000001 L 71.75182 56.72262300000001" />
<path class="stroke" d="M 28.540146 70.854015 L 71.75182 70.854015" />
<path class="stroke" d="M 50.14598 42.5912365 L 50.14598 78.562045 C 50.14598 84.02189500000001 52.77372 89.481745 57.153282 89.481745 L 82.26277 89.481745 C 85.18248 89.481745 86.9343 86.912409 86.9343 83.37955000000001 L 86.9343 79.20437900000002" />
</svg>
