<?xml version="1.0" standalone="no"?>
<!DOCTYPE svg PUBLIC "-//W3C//DTD SVG 1.1//EN" "http://www.w3.org/Graphics/SVG/1.1/DTD/svg11.dtd">
<svg xmlns="http://www.w3.org/2000/svg" version="1.1" width="100%" height="100%">
<style type="text/css"><![CDATA[
  .stroke { fill:none; stroke:black; stroke-width:2 }
]]></style>
<path class="stroke" d="M 11.605839 38.46715 L 30.29197 35.839413" />
<path class="stroke" d="M 21.824816 15.401459 L 21.824816 71.16788" />
<path class="stroke" d="M 9.270073 74.9635 L 31.751823 68.24817" />
<path class="stroke" d="M 38.722385 7.641958649999999 L 92.82335499999999 7.641958649999999 L 92.82335499999999 19.6294301" />
<path class="stroke" d="M 38.722385 19.6294301 L 92.82335499999999 19.6294301" />
<path class="stroke" d="M 38.501577 7.641958649999999 L 38.501577 55.291767 C 38.575217 69.277002 37.323827 76.96896199999999 34.305994 89.45585225" />
<path class="stroke" d="M 49.732845999999995 25.796478235294117 C 53.00291896 28.544439411764706 55.618976880000005 32.32288470588235 57.58102088 35.929583529411765" />
<path class="stroke" d="M 84.3956168 25.796478235294117 C 83.06143136 29.197079411764705 80.3080256 33.181621176470586 77.5284656 36.101330000000004" />
<path class="stroke" d="M 51.858393199999995 39.89197052 L 84.06861264 39.89197052" />
<path class="stroke" d="M 46.626276239999996 56.37080084 L 87.01167584 56.37080084" />
<path class="stroke" d="M 58.39853968 41.281750439999996 L 58.39853968 59.94452316 C 58.39853968 83.96788140000001 54.96496352 87.541601 49.07883152 90.91678712000001" />
<path class="stroke" d="M 77.85547199999999 41.281750439999996 L 77.85547199999999 93.1007268" />
</svg>
