<?xml version="1.0" standalone="no"?>
<!DOCTYPE svg PUBLIC "-//W3C//DTD SVG 1.1//EN" "http://www.w3.org/Graphics/SVG/1.1/DTD/svg11.dtd">
<svg xmlns="http://www.w3.org/2000/svg" version="1.1" width="100%" height="100%">
<style type="text/css"><![CDATA[
  .stroke { fill:none; stroke:black; stroke-width:2 }
]]></style>
<path class="stroke" d="M 19.4006 8.35962 C 18.1388 20.978 14.6687 29.1799 6.46687 36.1199" />
<path class="stroke" d="M 18.1388 17.50796 L 39.9054 17.50796 L 27.2871 36.43516" />
<path class="stroke" d="M 8.67508 36.75078 L 8.67508 59.46378" />
<path class="stroke" d="M 8.67508 36.75078 L 45.26808 36.43528 L 45.26808 59.14828" />
<path class="stroke" d="M 26.9716 37.06622 L 26.9716 58.83282" />
<path class="stroke" d="M 8.67508 59.46378 L 45.26808 59.14828" />
<path class="stroke" d="M 21.9243 59.7791 C 20.1367 75.552 16.4563 86.5931 6.46688 94.1641" />
<path class="stroke" d="M 32.6499 59.7791 L 32.6499 88.4858 C 32.2293 91.6404 34.9633 94.4795 38.0127 94.164 L 88.1708 94.164 C 91.2198 94.164 93.6378 92.2713 93.5328 88.4858 L 93.5328 82.1766" />
<path class="stroke" d="M 55.64014446 32.2299263 L 80.8751795 30.244525199999998 C 80.247444 58.53649299999999 78.3642332 73.67518 77.73649598 76.901457 C 76.98320865 79.6313816 75.4766413 80.3759085 74.221166 80.624083 L 72.9656907 80.3759085" />
<path class="stroke" d="M 68.0693409 12.872262599999999 C 66.5627714 40.66788055 61.6664216 68.95985175 53.75693366 76.901457" />
</svg>
