<?xml version="1.0" standalone="no"?>
<!DOCTYPE svg PUBLIC "-//W3C//DTD SVG 1.1//EN" "http://www.w3.org/Graphics/SVG/1.1/DTD/svg11.dtd">
<svg xmlns="http://www.w3.org/2000/svg" version="1.1" width="100%" height="100%">
<style type="text/css"><![CDATA[
  .stroke { fill:none; stroke:black; stroke-width:2 }
]]></style>
<path class="stroke" d="M 49.99996 3.7066265 L 49.99996 10.1734865" />
<path class="stroke" d="M 6.46688 10.33125 L 93.2177 10.33125" />
<path class="stroke" d="M 37.38174 10.488929 L 37.38174 27.3659285 C 37.486843 35.0946275 31.598242 44.558325 15.930542 47.0820275" />
<path class="stroke" d="M 62.30286 10.488985 L 62.30286 44.558385 C 62.09256 46.030485 60.30496 47.187185 57.88646 47.082035 L 53.47006 47.082035" />
<path class="stroke" d="M 27.287071 18.8486215 C 22.344872 24.0536215 16.771772 28.312271 7.413242 31.62457" />
<path class="stroke" d="M 72.0821 18.84855 C 81.1252 22.4763 86.0673 26.73505 91.6404 31.78235" />
<path class="stroke" d="M 19.48905 63.540146 L 19.48905 79.744522" />
<path class="stroke" d="M 19.48905 63.686130500000004 L 81.09489 63.686130500000004 L 81.09489 79.89051" />
<path class="stroke" d="M 19.48905 77.886984 L 81.09489 77.886984" />
<path class="stroke" d="M 49.98999 54.1970795 L 49.98999 93.321167" />
<path class="stroke" d="M 17.445253 95.51095000000001 L 81.386856 91.27736999999999" />
<path class="stroke" d="M 75.54744 86.60584 C 80.51095 89.233575 83.13868 92.15328199999999 84.8905 95.51095000000001" />
</svg>
