<?xml version="1.0" standalone="no"?>
<!DOCTYPE svg PUBLIC "-//W3C//DTD SVG 1.1//EN" "http://www.w3.org/Graphics/SVG/1.1/DTD/svg11.dtd">
<svg xmlns="http://www.w3.org/2000/svg" version="1.1" width="100%" height="100%">
<style type="text/css"><![CDATA[
  .stroke { fill:none; stroke:black; stroke-width:2 }
]]></style>
<path class="stroke" d="M 82.376236 8.80088 C 63.960396 12.761276444444444 35.742573 14.609461333333332 19.108912 14.609461333333332" />
<path class="stroke" d="M 20.891088 21.47414844444444 C 25.346535 25.17051822222222 28.0231 29.20897777777778 30.09901 33.355336888888885" />
<path class="stroke" d="M 43.465347 20.15401511111111 C 47.623764 23.05830577777778 50.29703 26.754675555555554 52.07921 31.507151111111114" />
<path class="stroke" d="M 80.89109 18.569855999999998 C 78.514854 24.906490666666663 74.95049 29.658966222222222 69.90099 33.091308444444444" />
<path class="stroke" d="M 45.247524 41.17326705 C 44.059406 51.59900965 36.633663 64.34158495 29.504951 70.32673295000001 C 45.766422 72.616785 68.832115 80.018244 80.51095 89.3175171" />
<path class="stroke" d="M 68.71287 52.9504955 C 61.287132 74.960399 45.841583 83.262381 22.992699 88.74817300000001" />
<path class="stroke" d="M 9.854013 56.10583795 L 89.85401 56.10583795" />
</svg>
