<?xml version="1.0" standalone="no"?>
<!DOCTYPE svg PUBLIC "-//W3C//DTD SVG 1.1//EN" "http://www.w3.org/Graphics/SVG/1.1/DTD/svg11.dtd">
<svg xmlns="http://www.w3.org/2000/svg" version="1.1" width="100%" height="100%">
<style type="text/css"><![CDATA[
  .stroke { fill:none; stroke:black; stroke-width:2 }
]]></style>
<path class="stroke" d="M 18.430655833333333 9.562042 C 21.350365 11.021896 24.27007 14.817516 26.216541666666668 19.48905" />
<path class="stroke" d="M 8.2116775 22.8707 L 35.46228333333334 22.8707" />
<path class="stroke" d="M 13.564475000000002 37.007298 L 30.109488333333335 37.007298" />
<path class="stroke" d="M 13.564475000000002 51.313866 L 30.109488333333335 51.313866" />
<path class="stroke" d="M 12.59124 64.45255 L 12.59124 85.76642" />
<path class="stroke" d="M 12.59124 64.16058 L 31.569341666666666 64.16058 L 31.569341666666666 85.76642" />
<path class="stroke" d="M 12.59124 85.76642 L 31.326033333333335 85.76642" />
<path class="stroke" d="M 54.513868 5.796478235294118 C 57.316787680000004 8.544439411764706 59.55912304 12.322884705882352 61.240875040000006 15.929583529411765" />
<path class="stroke" d="M 84.22481439999999 5.796478235294118 C 83.08122688 9.197079411764706 80.7211648 13.181621176470589 78.3386848 16.10133" />
<path class="stroke" d="M 45.283018 16.2264115 L 94.71697599999999 16.2264115" />
<path class="stroke" d="M 48.3019 29.528272 L 90.18868 29.528272 L 90.18868 59.245282" />
<path class="stroke" d="M 43.584907 44.528266 L 96.415096 44.528266" />
<path class="stroke" d="M 48.490561 59.528323 L 90.18870100000001 59.528323" />
<path class="stroke" d="M 64.528294 16.7924485 L 64.528294 94.33968399999999" />
<path class="stroke" d="M 75.282994 16.7924485 L 75.282994 94.33968399999999" />
<path class="stroke" d="M 63.58492 59.52835 C 61.06918 77.54716 52.5157 89.62264 43.584904 94.05658" />
<path class="stroke" d="M 76.22644 59.528259999999996 C 78.36472 76.98115 86.54086000000001 89.05663 95.47167999999999 94.05658" />
</svg>
