<?xml version="1.0" standalone="no"?>
<!DOCTYPE svg PUBLIC "-//W3C//DTD SVG 1.1//EN" "http://www.w3.org/Graphics/SVG/1.1/DTD/svg11.dtd">
<svg xmlns="http://www.w3.org/2000/svg" version="1.1" width="100%" height="100%">
<style type="text/css"><![CDATA[
  .stroke { fill:none; stroke:black; stroke-width:2 }
]]></style>
<path class="stroke" d="M 18.905107 9.854013 L 90.14598 9.854013" />
<path class="stroke" d="M 18.613138 9.854013 L 18.613138 31.167881 C 18.613138 74.67153 14.817516 81.386856 10.198019 90.09901" />
<path class="stroke" d="M 26.454256 20.9195532 L 54.971632 20.9195532" />
<path class="stroke" d="M 40.839141600000005 21.19402341 L 40.839141600000005 33.26971041" />
<path class="stroke" d="M 22.9211336 33.544140600000006 L 58.2523648 33.544140600000006" />
<path class="stroke" d="M 31.249200000000002 33.81865605 L 31.249200000000002 88.70826539999999" />
<path class="stroke" d="M 31.5016 51.108753300000004 L 49.67192 51.108753300000004" />
<path class="stroke" d="M 31.5016 68.673453 L 49.67192 68.673453" />
<path class="stroke" d="M 23.425864 90.90378 L 57.74768 83.219244" />
<path class="stroke" d="M 49.92424 33.818605590000004 L 49.92424 93.92272785" />
<path class="stroke" d="M 71.006733664 20.6138613 C 69.747326888 31.72574229 66.72475299999999 44.9049486 62.064950176 52.399008540000004" />
<path class="stroke" d="M 66.598811856 43.09603851 L 87.88277064 43.09603851" />
<path class="stroke" d="M 78.05940720000001 43.35445548 C 76.54811856 65.31980483999999 70.125149048 83.66732532 60.0499012 90.1277226" />
<path class="stroke" d="M 66.598811856 49.81485189 C 69.369504304 65.5782192 82.84514607999999 90.3861387 90.27564432 90.3861387" />
</svg>
