<?xml version="1.0" standalone="no"?>
<!DOCTYPE svg PUBLIC "-//W3C//DTD SVG 1.1//EN" "http://www.w3.org/Graphics/SVG/1.1/DTD/svg11.dtd">
<svg xmlns="http://www.w3.org/2000/svg" version="1.1" width="100%" height="100%">
<style type="text/css"><![CDATA[
  .stroke { fill:none; stroke:black; stroke-width:2 }
]]></style>
<path class="stroke" d="M 13.154171785714285 14.059406 C 16.654879285714284 16.138615 20.15558785714286 19.108912 23.01980357142857 22.673267" />
<path class="stroke" d="M 10.926448928571428 38.118813 C 14.108912142857141 39.90099 17.927864999999997 42.574257 20.473834285714286 46.138615" />
<path class="stroke" d="M 10.608203571428572 85.64356 C 11.321795357142857 87.422676 13.310014285714285 89.896904 15.629600357142856 89.896904 C 17.949189642857142 89.896904 21.110325 76.73267 23.33804892857143 69.60396" />
<path class="stroke" d="M 39.21922 7.54891 L 85.97001999999999 7.54891 L 85.97001999999999 30.26182" />
<path class="stroke" d="M 39.02998 18.526801 L 85.97001999999999 18.526801" />
<path class="stroke" d="M 39.21922 30.26182 L 85.97001999999999 30.26182" />
<path class="stroke" d="M 32.39050975 41.67883 L 32.39050975 55.985397" />
<path class="stroke" d="M 32.39050975 41.094887 L 92.60948499999999 41.094887 L 92.60948499999999 56.277367" />
<path class="stroke" d="M 46.816831 56.8613858 L 76.57920999999999 56.8613858 C 69.806929 74.37128765 58.400989599999996 82.92574400000001 38.440594 90.41089099999999" />
<path class="stroke" d="M 46.1039602 60.87128765 C 48.7580626 69.16128935 58.0483858 75.98387120000001 61.1451592 79.0322585 C 66.758062 83.67741950000001 76.8225784 87.161288 86.381188 90.41089099999999" />
</svg>
