<?xml version="1.0" standalone="no"?>
<!DOCTYPE svg PUBLIC "-//W3C//DTD SVG 1.1//EN" "http://www.w3.org/Graphics/SVG/1.1/DTD/svg11.dtd">
<svg xmlns="http://www.w3.org/2000/svg" version="1.1" width="100%" height="100%">
<style type="text/css"><![CDATA[
  .stroke { fill:none; stroke:black; stroke-width:2 }
]]></style>
<path class="stroke" d="M 31.711810526315787 3.706624 L 31.711810526315787 47.082012" />
<path class="stroke" d="M 10.459894736842104 8.7539 C 14.998105263157894 10.85695 18.872105263157895 12.96005 22.082 16.00945" />
<path class="stroke" d="M 7.139294736842105 36.041 C 13.669894736842105 34.7792 19.868315789473684 33.0441 24.73852631578947 30.6782" />
<path class="stroke" d="M 42.4934304 23.17518 L 93.1328416 23.17518" />
<path class="stroke" d="M 68.00002688000001 4.9270065 L 68.00002688000001 44.78102" />
<path class="stroke" d="M 47.16496192 44.78102 L 88.6481728 44.78102" />
<path class="stroke" d="M 50.3155 52.287065 L 50.3155 59.38485" />
<path class="stroke" d="M 6.15142 59.38485 L 93.2177 59.38485" />
<path class="stroke" d="M 50.3155 59.38485 C 40.2209 68.74345 25.7098 75.57835 7.09779 79.8896" />
<path class="stroke" d="M 30.4416 72.3186 L 30.4416 94.40065 M 11.1987 96.29335 C 27.8128 95.8202 44.4269 94.87385 59.1482 91.40379999999999" />
<path class="stroke" d="M 88.48578 67.744435 C 79.96848 71.529985 70.50478 74.21133499999999 60.09458 75.630935" />
<path class="stroke" d="M 50.0 59.38485 C 56.8349 78.04945000000001 71.2408 88.19659999999999 90.694 95.66239999999999" />
</svg>
