<?xml version="1.0" standalone="no"?>
<!DOCTYPE svg PUBLIC "-//W3C//DTD SVG 1.1//EN" "http://www.w3.org/Graphics/SVG/1.1/DTD/svg11.dtd">
<svg xmlns="http://www.w3.org/2000/svg" version="1.1" width="100%" height="100%">
<style type="text/css"><![CDATA[
  .stroke { fill:none; stroke:black; stroke-width:2 }
]]></style>
<path class="stroke" d="M 39.46374599999999 4.747617 C 32.776026 12.549915 23.627765999999998 16.156735 13.911665999999999 17.113564999999998" />
<path class="stroke" d="M 24.51111 19.100917499999998 C 26.214509999999997 20.867506799999997 27.35013 22.4132475 28.29651 24.400617499999996" />
<path class="stroke" d="M 35.110397999999996 14.0220899 C 36.624678 15.567830599999997 37.570997999999996 16.892789899999997 38.706678 18.6593806" />
<path class="stroke" d="M 47.981046 14.463645 C 39.589865999999994 26.020014999999997 24.195605999999998 31.834915 8.801268 32.791815" />
<path class="stroke" d="M 31.514082000000002 28.154637 C 35.615021999999996 33.527907 39.54532199999999 37.067177 39.842262 50.236557 C 40.122761999999994 62.469336999999996 37.318602 65.988377 33.974742 65.914807 L 29.621501999999996 65.914807" />
<path class="stroke" d="M 35.489022 35.220786999999994 C 28.990482 41.182897 20.031522 45.378556999999994 10.883262 47.807556999999996" />
<path class="stroke" d="M 39.085181999999996 44.936856999999996 C 30.757061999999998 53.548956999999994 20.157761999999998 58.62780699999999 8.233445999999999 61.719287" />
<path class="stroke" d="M 57.75241 6.955836999999999 L 88.11516 6.955836999999999 L 88.11516 33.89596" />
<path class="stroke" d="M 57.925891 20.646668 L 87.76812100000001 20.646668" />
<path class="stroke" d="M 57.92588 33.89596 L 88.11516 33.89596" />
<path class="stroke" d="M 57.75241 6.955836999999999 L 57.75241 60.83595 M 48.730281500000004 65.47321199999999 C 55.034145 61.94002919999999 61.511605 60.173441999999994 69.723985 59.952662" />
<path class="stroke" d="M 93.32016200000001 36.98737 C 88.982587 40.88847 85.51258200000001 44.12723 82.73656700000001 48.91166" />
<path class="stroke" d="M 73.887958 34.11681 C 75.680848 52.150349999999996 82.158253 60.90951999999999 95.228728 65.03153999999999" />
<path class="stroke" d="M 18.321167 82.19926960000001 L 81.678825 82.19926960000001" />
<path class="stroke" d="M 50.0 73.370072635 L 50.0 93.70875670000001" />
<path class="stroke" d="M 9.854013 93.70875670000001 L 89.85401 93.70875670000001" />
</svg>
