<?xml version="1.0" standalone="no"?>
<!DOCTYPE svg PUBLIC "-//W3C//DTD SVG 1.1//EN" "http://www.w3.org/Graphics/SVG/1.1/DTD/svg11.dtd">
<svg xmlns="http://www.w3.org/2000/svg" version="1.1" width="100%" height="100%">
<style type="text/css"><![CDATA[
  .stroke { fill:none; stroke:black; stroke-width:2 }
]]></style>
<path class="stroke" d="M 19.116728000000002 10.729925 L 19.116728000000002 23.86861" />
<path class="stroke" d="M 5.8102188 23.86861 L 34.306568 23.86861" />
<path class="stroke" d="M 18.540144 39.343063 L 31.153284000000003 39.343063 C 30.569342000000002 53.06569 30.102188 62.116783 29.167880000000004 70.29197 C 28.0 79.63503 25.897807999999998 88.10219 24.029196 88.10219 L 21.6934296 88.10219" />
<path class="stroke" d="M 19.124086000000002 23.86861 L 18.3065688 41.38686 C 17.4890504 60.07299 14.4525544 78.46715 9.8978088 84.014595" />
<path class="stroke" d="M 52.3564354 7.9773694285714285 C 50.9306926 14.596888285714286 48.792079 21.47100257142857 45.940594 26.053746857142855" />
<path class="stroke" d="M 50.0396044 17.65205057142857 L 94.237624 17.65205057142857" />
<path class="stroke" d="M 46.6131376 56.6131376 L 80.423356 45.8686128 C 82.350364 45.8686128 82.87591 48.9051088 82.87591 51.4744504 L 82.87591 60.8175168 C 82.175182 62.6861296 81.64963 64.087592 80.248174 64.087592 L 79.021894 64.087592" />
<path class="stroke" d="M 65.8832098 28.8175168 L 65.8832098 73.664232" />
<path class="stroke" d="M 50.020942 35.8743456 L 50.1261832 84.40876 C 50.1261832 89.3138672 52.5693424 91.649632 55.3722628 91.649632 L 90.05839 91.649632 C 91.810216 91.649632 93.036496 90.01459200000001 93.036496 88.37956000000001 L 93.036496 85.1094848" />
</svg>
