<?xml version="1.0" standalone="no"?>
<!DOCTYPE svg PUBLIC "-//W3C//DTD SVG 1.1//EN" "http://www.w3.org/Graphics/SVG/1.1/DTD/svg11.dtd">
<svg xmlns="http://www.w3.org/2000/svg" version="1.1" width="100%" height="100%">
<style type="text/css"><![CDATA[
  .stroke { fill:none; stroke:black; stroke-width:2 }
]]></style>
<path class="stroke" d="M 26.87591072 10.729925 C 22.95182336 18.029196 17.626275200000002 23.86861 12.58102016 28.540146 C 16.50510848 31.45985 21.2700704 36.131386 25.75474112 40.218975" />
<path class="stroke" d="M 37.52700608 25.912407 C 30.799999999999997 34.67153 21.83065568 45.18248 10.618977919999999 56.277367 C 20.709487999999997 54.525543 31.92116576 52.48175 42.0116768 50.437954" />
<path class="stroke" d="M 38.6481728 43.430653 C 41.45109152 46.642334 42.29196992 49.85401 43.973720959999994 55.40146" />
<path class="stroke" d="M 27.436495999999998 54.233574 L 27.436495999999998 89.56204" />
<path class="stroke" d="M 18.74744288 65.03649 C 17.0656928 70.87591 15.10364768 74.67153 11.17956032 78.75912" />
<path class="stroke" d="M 34.7240864 65.32846 C 37.80729632 68.540146 37.857296 68.81081 39.414051199999996 71.72973" />
<path class="stroke" d="M 70.90787160000001 8.686131 L 70.90787160000001 22.408756" />
<path class="stroke" d="M 53.00875868 22.408756 L 89.44671400000001 22.408756" />
<path class="stroke" d="M 82.3109464 26.49635 C 79.8817508 58.321167 65.913867 81.678825 52.856933760000004 86.35036" />
<path class="stroke" d="M 59.233575720000005 32.919704 C 63.029195599999994 56.277367 78.05985124 84.306564 90.81313879999999 90.14598" />
</svg>
