<?xml version="1.0" standalone="no"?>
<!DOCTYPE svg PUBLIC "-//W3C//DTD SVG 1.1//EN" "http://www.w3.org/Graphics/SVG/1.1/DTD/svg11.dtd">
<svg xmlns="http://www.w3.org/2000/svg" version="1.1" width="100%" height="100%">
<style type="text/css"><![CDATA[
  .stroke { fill:none; stroke:black; stroke-width:2 }
]]></style>
<path class="stroke" d="M 25.507986486486487 15.109488 C 20.536593243243246 22.70073 15.328465135135136 27.956203 10.830536756756757 30.875912" />
<path class="stroke" d="M 26.92838756756757 35.547443 C 21.956993513513513 43.138683 14.85500027027027 49.85401 8.463207567567569 53.06569" />
<path class="stroke" d="M 19.826394324324326 45.47445 L 19.826394324324326 89.85401" />
<path class="stroke" d="M 37.3683166 24.329895 L 37.3683166 47.623764 C 37.3683166 75.84158 35.05148572 82.07921 32.27128804 88.019806" />
<path class="stroke" d="M 37.3587616 24.455444 L 85.48556500000001 24.455444 L 85.48556500000001 27.57732 C 85.48556500000001 30.206184 85.2443266 32.061855 84.15876159999999 34.381443" />
<path class="stroke" d="M 61.926732040000005 9.60396 L 61.926732040000005 42.27723" />
<path class="stroke" d="M 47.099011600000004 42.27723 L 76.98613900000001 42.27723 C 73.712908 72.0821 56.1346525 88.91089 39.45346408 89.80198" />
<path class="stroke" d="M 50.708899960000004 43.717278 C 50.726583340000005 55.470665 70.5560179 89.58115 85.01256520000001 89.58115" />
</svg>
