<?xml version="1.0" standalone="no"?>
<!DOCTYPE svg PUBLIC "-//W3C//DTD SVG 1.1//EN" "http://www.w3.org/Graphics/SVG/1.1/DTD/svg11.dtd">
<svg xmlns="http://www.w3.org/2000/svg" version="1.1" width="100%" height="100%">
<style type="text/css"><![CDATA[
  .stroke { fill:none; stroke:black; stroke-width:2 }
]]></style>
<path class="stroke" d="M 18.62208409090909 25.811516 C 17.908137500000002 33.979057 16.480246590909093 36.806282 15.052355681818185 41.83246" />
<path class="stroke" d="M 43.65436363636364 23.267326 C 41.6291625 28.613861 38.92889431818182 33.069305 35.21602272727273 36.336636" />
<path class="stroke" d="M 27.790277272727277 9.306931 L 27.790277272727277 57.72277 C 27.790277272727277 74.653465 17.74443181818182 85.6467 10.91359090909091 90.39604" />
<path class="stroke" d="M 27.452746590909094 63.36634 C 33.19081818181819 68.71287 38.591359090909094 75.24753 40.95409545454545 82.9703" />
<path class="stroke" d="M 46.6861216 12.196779310344827 L 96.31386699999999 12.196779310344827" />
<path class="stroke" d="M 51.361216 30.580314655172412 L 51.361216 54.97391810344827" />
<path class="stroke" d="M 51.361216 30.580314655172412 L 91.27917099999999 30.580314655172412 L 91.27917099999999 54.97391810344827" />
<path class="stroke" d="M 64.1277739 12.55026724137931 L 64.1277739 54.26681896551724" />
<path class="stroke" d="M 78.15300579999999 12.5503625 L 78.15300579999999 53.913336637931025" />
<path class="stroke" d="M 51.361216 54.97391810344827 L 91.27917099999999 54.97391810344827" />
<path class="stroke" d="M 53.44306519 77.813868 L 89.55693025 77.813868" />
<path class="stroke" d="M 71.5 66.368612675 L 71.5 92.7335735" />
<path class="stroke" d="M 48.61678741 92.7335735 L 94.2167857 92.7335735" />
</svg>
