<?xml version="1.0" standalone="no"?>
<!DOCTYPE svg PUBLIC "-//W3C//DTD SVG 1.1//EN" "http://www.w3.org/Graphics/SVG/1.1/DTD/svg11.dtd">
<svg xmlns="http://www.w3.org/2000/svg" version="1.1" width="100%" height="100%">
<style type="text/css"><![CDATA[
  .stroke { fill:none; stroke:black; stroke-width:2 }
]]></style>
<path class="stroke" d="M 25.507986486486487 15.109488 C 20.536593243243246 22.70073 15.328465135135136 27.956203 10.830536756756757 30.875912" />
<path class="stroke" d="M 26.92838756756757 35.547443 C 21.956993513513513 43.138683 14.85500027027027 49.85401 8.463207567567569 53.06569" />
<path class="stroke" d="M 19.826394324324326 45.47445 L 19.826394324324326 89.85401" />
<path class="stroke" d="M 50.126544 9.697079500000001 L 50.126544 34.937956" />
<path class="stroke" d="M 35.927006399999996 20.222625999999998 L 35.927006399999996 36.06204225 M 35.927006399999996 34.937956 L 63.9562 34.937956" />
<path class="stroke" d="M 63.9562 20.1204365 L 63.9562 36.1642314" />
<path class="stroke" d="M 33.8248168 50.2 L 66.17518000000001 50.2" />
<path class="stroke" d="M 44.8029192 53.2642035112 L 44.8029192 66.39553068640001 C 44.8029192 77.973691348 41.7664232 89.4106543504 34.1751824 92.37579262" />
<path class="stroke" d="M 51.6934296 53.123007302800005 L 51.6934296 86.445517048 M 46.7780824 89.116657468 L 65.057536 79.736142532" />
<path class="stroke" d="M 77.08118895999999 9.6039603 C 76.01188132 21.993068989999998 73.445545 36.6871266 69.48910864 45.04257274" />
<path class="stroke" d="M 73.33861384 34.67029581 L 91.4098996 34.67029581" />
<path class="stroke" d="M 83.069308 34.95841588 C 81.7861384 59.448518039999996 76.33267372 79.90494892000001 67.778218 87.1079206" />
<path class="stroke" d="M 73.33861384 42.16138659 C 75.69108856 59.736635199999995 87.1326712 87.3960397 93.4415848 87.3960397" />
</svg>
