<?xml version="1.0" standalone="no"?>
<!DOCTYPE svg PUBLIC "-//W3C//DTD SVG 1.1//EN" "http://www.w3.org/Graphics/SVG/1.1/DTD/svg11.dtd">
<svg xmlns="http://www.w3.org/2000/svg" version="1.1" width="100%" height="100%">
<style type="text/css"><![CDATA[
  .stroke { fill:none; stroke:black; stroke-width:2 }
]]></style>
<path class="stroke" d="M 50.946415 6.466873 L 50.946415 16.246073" />
<path class="stroke" d="M 8.044167 16.56153 L 92.90226 16.56153" />
<path class="stroke" d="M 73.3438 16.8769 C 63.4595 38.6436 33.7013 43.3754 6.78234 47.7919" />
<path class="stroke" d="M 28.5489 16.877 C 39.59 38.8538 61.3566 42.5342 92.5868 47.7918" />
<path class="stroke" d="M 19.1798 47.3218 L 19.1798 68.2965 C 19.1798 82.387 12.5078 91.7455 3.46687 94.164" />
<path class="stroke" d="M 19.8107 54.3091 L 81.45112 54.3091" />
<path class="stroke" d="M 19.4953 65.3975 L 81.45112 65.3975" />
<path class="stroke" d="M 50.0 65.3975 L 50.0 94.0 L 44.0 94.0" />
<path class="stroke" d="M 40.0 74.0 L 30.0 88.0" />
<path class="stroke" d="M 60.0 74.0 L 70.0 88.0" />
<path class="stroke" d="M 81.45112 47.006355 L 81.45112 94.164055" />
</svg>
