<?xml version="1.0" standalone="no"?>
<!DOCTYPE svg PUBLIC "-//W3C//DTD SVG 1.1//EN" "http://www.w3.org/Graphics/SVG/1.1/DTD/svg11.dtd">
<svg xmlns="http://www.w3.org/2000/svg" version="1.1" width="100%" height="100%">
<style type="text/css"><![CDATA[
  .stroke { fill:none; stroke:black; stroke-width:2 }
]]></style>
<path class="stroke" d="M 20.7344878125 9.562042 C 24.019160625 11.021896 27.30382875 14.817516 29.493609375 19.48905" />
<path class="stroke" d="M 9.2381371875 22.8707 L 39.89506875 22.8707" />
<path class="stroke" d="M 15.260034375000002 37.007298 L 33.873174375 37.007298" />
<path class="stroke" d="M 15.260034375000002 51.313866 L 33.873174375 51.313866" />
<path class="stroke" d="M 14.165145 64.45255 L 14.165145 85.76642" />
<path class="stroke" d="M 14.165145 64.16058 L 35.515509375 64.16058 L 35.515509375 85.76642" />
<path class="stroke" d="M 14.165145 85.76642 L 35.2417875 85.76642" />
<path class="stroke" d="M 44.63722 9.30599 L 93.65932 9.30599 L 93.65932 87.8548 C 93.65932 91.6404 92.1451 93.8486 90.63087999999999 93.8486 L 87.9811 93.8486" />
<path class="stroke" d="M 52.384962868 26.25 L 81.0150343 26.25" />
<path class="stroke" d="M 56.60712380619999 41.32883162500001 L 56.60712380619999 64.70985275000001" />
<path class="stroke" d="M 56.60712380619999 41.32883162500001 L 76.88589687999999 41.32883162500001 L 76.88589687999999 64.48503585" />
<path class="stroke" d="M 56.60712380619999 62.91131216000001 L 76.88589687999999 62.91131216000001" />
</svg>
