<?xml version="1.0" standalone="no"?>
<!DOCTYPE svg PUBLIC "-//W3C//DTD SVG 1.1//EN" "http://www.w3.org/Graphics/SVG/1.1/DTD/svg11.dtd">
<svg xmlns="http://www.w3.org/2000/svg" version="1.1" width="100%" height="100%">
<style type="text/css"><![CDATA[
  .stroke { fill:none; stroke:black; stroke-width:2 }
]]></style>
<path class="stroke" d="M 50.31547 6.0709795 L 50.31547 13.515806" />
<path class="stroke" d="M 6.46688 13.5157824 L 93.8486 13.5157824" />
<path class="stroke" d="M 50.149628 15.9917705 C 39.07731 21.28853031 34.58853 23.93690874 23.21696 30.64613563 C 36.08479 35.58977572 29.501247 32.9413967 37.58105 36.11945294" />
<path class="stroke" d="M 64.51372 22.3478818 C 36.683292 39.29750918 35.785538 37.17880384 16.932669 54.658107259999994 C 40.57357 51.303494699999995 50.149628 50.7738163 66.30923 49.184789949999995" />
<path class="stroke" d="M 57.930176 42.8286816 C 69.601 50.24414026 70.19951 51.12693424999999 73.192024 53.9518749" />
<path class="stroke" d="M 18.03284628 63.32335687 L 18.03284628 92.0182453" />
<path class="stroke" d="M 18.03284628 63.20948818 L 73.17444816 63.20948818 L 73.17444816 92.0182453" />
<path class="stroke" d="M 45.6036458 63.32335687 L 45.6036458 89.96861200000001" />
<path class="stroke" d="M 18.03284628 76.58137762 L 72.7598536 76.58137762" />
<path class="stroke" d="M 18.03284628 89.96861200000001 L 73.17444816 89.96861200000001" />
</svg>
