<?xml version="1.0" standalone="no"?>
<!DOCTYPE svg PUBLIC "-//W3C//DTD SVG 1.1//EN" "http://www.w3.org/Graphics/SVG/1.1/DTD/svg11.dtd">
<svg xmlns="http://www.w3.org/2000/svg" version="1.1" width="100%" height="100%">
<style type="text/css"><![CDATA[
  .stroke { fill:none; stroke:black; stroke-width:2 }
]]></style>
<path class="stroke" d="M 20.7344878125 9.562042 C 24.019160625 11.021896 27.30382875 14.817516 29.493609375 19.48905" />
<path class="stroke" d="M 9.2381371875 22.8707 L 39.89506875 22.8707" />
<path class="stroke" d="M 15.260034375000002 37.007298 L 33.873174375 37.007298" />
<path class="stroke" d="M 15.260034375000002 51.313866 L 33.873174375 51.313866" />
<path class="stroke" d="M 14.165145 64.45255 L 14.165145 85.76642" />
<path class="stroke" d="M 14.165145 64.16058 L 35.515509375 64.16058 L 35.515509375 85.76642" />
<path class="stroke" d="M 14.165145 85.76642 L 35.2417875 85.76642" />
<path class="stroke" d="M 91.0646615 3.2334375 C 79.9605465 5.3364925 66.0804715 6.8085925 52.5473365 7.1766425" />
<path class="stroke" d="M 48.73028315 20.89904 L 95.57571200000001 20.89904" />
<path class="stroke" d="M 71.97948 6.2303 L 71.97948 47.3975" />
<path class="stroke" d="M 71.9795031 20.89909 C 66.08042475 29.04839 58.966888100000006 36.09359 49.07728915 42.03474" />
<path class="stroke" d="M 71.9795031 20.89909 C 77.820722 29.46899 84.35593420000001 35.83074 95.228717 41.87699" />
<path class="stroke" d="M 61.411288850000005 54.3548385 L 61.411288850000005 72.096773 C 61.411288850000005 84.677418 59.28225755 89.032257 52.71774135 94.193545" />
<path class="stroke" d="M 51.91823 54.402515 L 83.22329500000001 54.402515 L 83.22329500000001 71.2264 L 96.02201500000001 71.2264 L 96.02201500000001 84.7484 C 96.137295 91.4046 92.65675200000001 97.5 87.30540325000001 95.594593 L 83.559455 94.13513" />
</svg>
