<?xml version="1.0" standalone="no"?>
<!DOCTYPE svg PUBLIC "-//W3C//DTD SVG 1.1//EN" "http://www.w3.org/Graphics/SVG/1.1/DTD/svg11.dtd">
<svg xmlns="http://www.w3.org/2000/svg" version="1.1" width="100%" height="100%">
<style type="text/css"><![CDATA[
  .stroke { fill:none; stroke:black; stroke-width:2 }
]]></style>
<path class="stroke" d="M 34.099266400000005 5.770009344 C 26.356201600000002 14.755369124571429 17.620436760000004 21.802710637714284 6.700728840000001 26.031113856" />
<path class="stroke" d="M 34.099266400000005 5.770009344 C 42.040873520000005 14.403001234285714 50.18101888 21.802710637714284 61.497806000000004 25.85493141942857" />
<path class="stroke" d="M 23.000875424000004 22.857142857142858 L 44.99912240000001 22.857142857142858" />
<path class="stroke" d="M 17.2681308 32.0189 L 53.3059548 32.3344 L 53.3059548 58.8328" />
<path class="stroke" d="M 17.9116828 45.26809 L 53.0914828 45.26809" />
<path class="stroke" d="M 17.482534800000003 58.5173 L 53.3059548 58.8328" />
<path class="stroke" d="M 17.2681308 32.0189 L 17.2681308 58.5174 C 17.3395988 71.346 13.5499588 82.5972 8.6876868 90.694" />
<path class="stroke" d="M 24.791707620800004 69.49853975 L 24.791707620800004 88.3248165" />
<path class="stroke" d="M 24.791707620800004 69.49853975 L 54.22329792000001 69.49853975 L 54.22329792000001 88.1437951" />
<path class="stroke" d="M 24.791707620800004 86.87664096 L 54.22329792000001 86.87664096" />
<path class="stroke" d="M 72.41321 12.1451 L 72.41321 68.612" />
<path class="stroke" d="M 89.41635000000001 6.78233 L 89.41635000000001 84.0694 C 89.53207 89.6425 85.83068 92.3765 81.43530000000001 92.2713 L 77.61830000000002 92.2713" />
</svg>
