<?xml version="1.0" standalone="no"?>
<!DOCTYPE svg PUBLIC "-//W3C//DTD SVG 1.1//EN" "http://www.w3.org/Graphics/SVG/1.1/DTD/svg11.dtd">
<svg xmlns="http://www.w3.org/2000/svg" version="1.1" width="100%" height="100%">
<style type="text/css"><![CDATA[
  .stroke { fill:none; stroke:black; stroke-width:2 }
]]></style>
<path class="stroke" d="M 8.250825 11.089109 L 29.838708333333333 11.290321 C 31.451613333333338 17.741934 26.61290166666667 33.225803 21.774193333333333 40.0" />
<path class="stroke" d="M 21.774193333333333 40.96774 C 25.80645 44.51613 29.032255833333334 49.032257 30.645160833333332 54.19355 C 32.2580625 57.09677 32.2580625 65.161285 23.655913333333334 68.38709 L 18.54838666666667 69.354836" />
<path class="stroke" d="M 10.726071666666666 11.089109 L 10.726071666666666 90.09901" />
<path class="stroke" d="M 38.54896 9.93691 L 82.71296000000001 9.93691 L 82.71296000000001 48.4228" />
<path class="stroke" d="M 38.801296 29.49524 L 82.20817600000001 29.49524" />
<path class="stroke" d="M 38.801280000000006 48.4228 L 82.71296000000001 48.4228" />
<path class="stroke" d="M 38.54896 9.93691 L 38.54896 86.9085 M 25.425864 93.53316 C 34.59512 88.485756 44.01688 85.96206 55.962160000000004 85.64666" />
<path class="stroke" d="M 90.283872 52.8391 C 83.974672 58.4121 78.927392 63.0389 74.88955200000001 69.8738" />
<path class="stroke" d="M 62.018848000000006 48.7383 C 64.626688 74.5005 74.04836800000001 87.0136 93.05996800000001 92.9022" />
</svg>
