<?xml version="1.0" standalone="no"?>
<!DOCTYPE svg PUBLIC "-//W3C//DTD SVG 1.1//EN" "http://www.w3.org/Graphics/SVG/1.1/DTD/svg11.dtd">
<svg xmlns="http://www.w3.org/2000/svg" version="1.1" width="100%" height="100%">
<style type="text/css"><![CDATA[
  .stroke { fill:none; stroke:black; stroke-width:2 }
]]></style>
<path class="stroke" d="M 15.844525339999999 9.854013 L 15.8181212 55.63759 C 12.463758089999999 80.20134 12.463758089999999 79.39597 8.71476466 89.865776" />
<path class="stroke" d="M 15.844525339999999 9.854013 L 35.8737232 9.854013 L 35.8737232 86.05839 C 35.8737232 88.39416 35.3014571 90.43795 33.87080116 90.43795 L 32.2970809 90.43795" />
<path class="stroke" d="M 15.844525339999999 31.862577 L 35.8737232 31.862577" />
<path class="stroke" d="M 15.844525339999999 55.110336 L 35.8737232 55.110336" />
<path class="stroke" d="M 67.594887 10.435766430000001 L 67.594887 22.923356090000002" />
<path class="stroke" d="M 42.3540142 23.18905152 L 92.2664235 23.18905152" />
<path class="stroke" d="M 46.52919625 37.04306282 L 46.52919625 71.80802630000001" />
<path class="stroke" d="M 46.52919625 37.04306282 L 88.8503615 37.04306282 L 88.8503615 69.9160526 C 88.8503615 73.46349620000001 87.1423305 75.59196560000001 85.244519 75.8284613 L 83.5364945 75.8284613" />
<path class="stroke" d="M 67.594887 24.98175053 L 67.594887 90.0182438" />
</svg>
