<?xml version="1.0" standalone="no"?>
<!DOCTYPE svg PUBLIC "-//W3C//DTD SVG 1.1//EN" "http://www.w3.org/Graphics/SVG/1.1/DTD/svg11.dtd">
<svg xmlns="http://www.w3.org/2000/svg" version="1.1" width="100%" height="100%">
<style type="text/css"><![CDATA[
  .stroke { fill:none; stroke:black; stroke-width:2 }
]]></style>
<path class="stroke" d="M 8.350785 20.157066 L 41.96335 20.157066" />
<path class="stroke" d="M 11.4963495 34.67153 L 11.350365 62.70073" />
<path class="stroke" d="M 11.350365 34.67153 L 38.64963 34.67153 L 38.64963 62.70073" />
<path class="stroke" d="M 11.350365 48.63624 L 38.503645 48.63624" />
<path class="stroke" d="M 11.350365 62.9927 L 38.64963 62.9927" />
<path class="stroke" d="M 7.554744 77.59124 L 42.44525 77.59124" />
<path class="stroke" d="M 25.092815 8.978102 L 25.092815 90.72992" />
<path class="stroke" d="M 63.832115 11.605839 C 62.9562035 22.116787 60.6204375 32.627735 57.7007295 39.927006" />
<path class="stroke" d="M 61.642336 26.204376 L 90.9854 26.204376 C 90.693428 34.37956 89.233575 39.927006 86.45985 45.47445" />
<path class="stroke" d="M 75.218977 30.875912 C 75.218977 62.408752 66.16720000000001 79.653 54.9270065 90.14598" />
<path class="stroke" d="M 75.07299 48.394157 C 78.4306565 63.868607 83.3941575 80.21897 95.218975 90.14598" />
</svg>
