<?xml version="1.0" standalone="no"?>
<!DOCTYPE svg PUBLIC "-//W3C//DTD SVG 1.1//EN" "http://www.w3.org/Graphics/SVG/1.1/DTD/svg11.dtd">
<svg xmlns="http://www.w3.org/2000/svg" version="1.1" width="100%" height="100%">
<style type="text/css"><![CDATA[
  .stroke { fill:none; stroke:black; stroke-width:2 }
]]></style>
<path class="stroke" d="M 11.751375999999999 17.722772 L 36.655669555555555 17.722772" />
<path class="stroke" d="M 36.655669555555555 5.841584000000001 L 36.655669555555555 31.267328" />
<path class="stroke" d="M 11.427943333333333 37.089108 L 45.38834066666666 29.366336000000004" />
<path class="stroke" d="M 80.9405935 13.3267332 C 73.811882 16.059405599999998 68.762377 16.772278 59.4525535 17.7372252" />
<path class="stroke" d="M 59.22714 5.960396 L 59.22714 32.336631999999994 C 59.22714 35.782177600000004 62.227722 37.68316960000001 66.386139 37.68316960000001 L 88.21782300000001 37.68316960000001 C 90.148515 37.68316960000001 91.188118 37.089108 91.188118 35.544556 L 91.188118 34.475248" />
<path class="stroke" d="M 29.42554706 43.81386767 L 29.42554706 73.959851 C 29.42554706 80.6435657 29.42554706 83.447523 29.42554706 89.93168553999999" />
<path class="stroke" d="M 29.42554706 43.81386767 L 66.6226288 43.81386767 L 66.6226288 88.7744501 C 66.6226288 90.1525544 65.5598489 91.3583905 62.90291644 91.3583905 L 59.9802931 91.3583905" />
<path class="stroke" d="M 29.42554706 56.798920429999995 L 66.6226288 56.798920429999995" />
<path class="stroke" d="M 29.42554706 70.51509823999999 L 66.6226288 70.51509823999999" />
</svg>
