<?xml version="1.0" standalone="no"?>
<!DOCTYPE svg PUBLIC "-//W3C//DTD SVG 1.1//EN" "http://www.w3.org/Graphics/SVG/1.1/DTD/svg11.dtd">
<svg xmlns="http://www.w3.org/2000/svg" version="1.1" width="100%" height="100%">
<style type="text/css"><![CDATA[
  .stroke { fill:none; stroke:black; stroke-width:2 }
]]></style>
<path class="stroke" d="M 10.145985 11.9 L 89.85401 11.9" />
<path class="stroke" d="M 50.0 4.2956204 L 50.0 20.645984000000002" />
<path class="stroke" d="M 13.649633 24.580290416666667 L 13.649633 42.74736416666667" />
<path class="stroke" d="M 13.649633 24.580290416666667 L 86.642334 24.580290416666667 L 86.642334 42.74736416666667" />
<path class="stroke" d="M 36.75083 24.580290416666667 L 36.75083 42.74736416666667" />
<path class="stroke" d="M 63.249256 24.580290416666667 L 63.249256 42.74736416666667" />
<path class="stroke" d="M 13.649633 42.75590416666667 L 86.83168 42.75590416666667" />
<path class="stroke" d="M 50.3155 52.287065 L 50.3155 59.38485" />
<path class="stroke" d="M 6.15142 59.38485 L 93.2177 59.38485" />
<path class="stroke" d="M 50.3155 59.38485 C 40.2209 68.74345 25.7098 75.57835 7.09779 79.8896" />
<path class="stroke" d="M 30.4416 72.3186 L 30.4416 94.40065 M 11.1987 96.29335 C 27.8128 95.8202 44.4269 94.87385 59.1482 91.40379999999999" />
<path class="stroke" d="M 88.48578 67.744435 C 79.96848 71.529985 70.50478 74.21133499999999 60.09458 75.630935" />
<path class="stroke" d="M 50.0 59.38485 C 56.8349 78.04945000000001 71.2408 88.19659999999999 90.694 95.66239999999999" />
</svg>
