<?xml version="1.0" standalone="no"?>
<!DOCTYPE svg PUBLIC "-//W3C//DTD SVG 1.1//EN" "http://www.w3.org/Graphics/SVG/1.1/DTD/svg11.dtd">
<svg xmlns="http://www.w3.org/2000/svg" version="1.1" width="100%" height="100%">
<style type="text/css"><![CDATA[
  .stroke { fill:none; stroke:black; stroke-width:2 }
]]></style>
<path class="stroke" d="M 22.334400000000002 5.5205 C 17.45536 17.8233 11.5668 30.7571 3.9116720000000003 40.5363" />
<path class="stroke" d="M 22.334400000000002 5.83596 C 27.213440000000006 11.8296 30.578320000000005 18.4543 34.195600000000006 25.0789" />
<path class="stroke" d="M 9.71608 33.59624 L 32.17664 33.59624" />
<path class="stroke" d="M 5.425868 51.57724 L 35.2050296 51.57724" />
<path class="stroke" d="M 21.829634400000003 33.9117 L 21.829634400000003 88.1703" />
<path class="stroke" d="M 5.173504 61.672 C 8.622480000000001 65.878 11.314400000000001 70.3996 14.00632 75.2366" />
<path class="stroke" d="M 34.448 61.6719 C 32.597280000000005 67.4553 29.989440000000002 72.2923 26.624560000000002 77.1294" />
<path class="stroke" d="M 6.435328 94.4795 L 34.195600000000006 83.7539" />
<path class="stroke" d="M 43.26499 6.943194 L 43.2136984 58.9" />
<path class="stroke" d="M 43.26499 6.943194 L 67.01893 6.943194" />
<path class="stroke" d="M 53.8643581 6.943256 L 53.8643581 22.589886" />
<path class="stroke" d="M 43.26499 23.372208200000003 L 62.94952 23.372208200000003 L 62.94952 40.192436199999996" />
<path class="stroke" d="M 43.26499 40.192436199999996 L 62.94952 40.192436199999996" />
<path class="stroke" d="M 53.9589952 40.38804 L 53.9589952 56.23028" />
<path class="stroke" d="M 43.26499 56.42589 L 67.2082 56.42589" />
<path class="stroke" d="M 72.366732532 13.518982058285715 C 71.539801708 24.736860014857147 70.29940582 36.38619235771429 68.64554452 44.152416340571435" />
<path class="stroke" d="M 71.022970552 29.91434170171429 L 96.65782192 29.91434170171429" />
<path class="stroke" d="M 74.34096886815999 49.6 L 95.73102901600001 49.6" />
<path class="stroke" d="M 51.07252 66.391168 L 51.07252 91.627776" />
<path class="stroke" d="M 51.07252 66.391168 L 88.35964 66.391168 L 88.35964 91.526816" />
<path class="stroke" d="M 63.56466399999999 66.492128 L 63.56466399999999 91.627776" />
<path class="stroke" d="M 76.246084 66.49211424 L 76.246084 91.7287232" />
<path class="stroke" d="M 44.258674 91.728704 L 95.74132 91.728704" />
</svg>
