<?xml version="1.0" standalone="no"?>
<!DOCTYPE svg PUBLIC "-//W3C//DTD SVG 1.1//EN" "http://www.w3.org/Graphics/SVG/1.1/DTD/svg11.dtd">
<svg xmlns="http://www.w3.org/2000/svg" version="1.1" width="100%" height="100%">
<style type="text/css"><![CDATA[
  .stroke { fill:none; stroke:black; stroke-width:2 }
]]></style>
<path class="stroke" d="M 24.925188 2.5 L 24.925188 18.341646" />
<path class="stroke" d="M 3.07571 3.864355 C 6.8086 6.33545 9.7529 9.7529 11.2776 14.1167" />
<path class="stroke" d="M 44.55835 3.864355 C 42.5079 8.4385 40.142 11.59305 36.35645 14.27445" />
<path class="stroke" d="M 4.968455 18.5331 L 4.968455 47.71295" />
<path class="stroke" d="M 5.1262 18.5331 L 45.347 18.5331 L 45.347 45.03155 C 45.5047 46.8717 44.40065 47.7655 42.98105 47.71295 L 41.40375 47.71295" />
<path class="stroke" d="M 24.7755625 18.341646 L 24.84225 46.4511" />
<path class="stroke" d="M 19.239403 26.122196 C 18.341646 30.01247 16.546135 35.24938 12.057358 38.39152" />
<path class="stroke" d="M 31.2094765 26.421448 C 33.00499 28.067333 36.446385 32.55611 37.04489 38.39152" />
<path class="stroke" d="M 68.168318 4.950495 C 66.6831685 11.3366335 63.118812500000004 18.91089 57.623762 23.217821" />
<path class="stroke" d="M 62.970297 17.8712865 L 88.069305 17.8712865" />
<path class="stroke" d="M 76.48515 18.019802 C 74.70297 30.643566 67.1287135 41.188118 55.247525 44.90099" />
<path class="stroke" d="M 62.970297 21.7326735 C 66.237623 30.79208 82.12871 45.049505 90.89108999999999 45.049505" />
<path class="stroke" d="M 9.854013 63.832115 L 89.56204 63.832115" />
<path class="stroke" d="M 37.59124 55.218978 L 37.59124 67.18978 C 37.59124 80.912407 31.45985 91.27736999999999 22.408756 93.46715" />
<path class="stroke" d="M 63.284668 55.218978 L 63.284668 95.218975" />
</svg>
