<?xml version="1.0" standalone="no"?>
<!DOCTYPE svg PUBLIC "-//W3C//DTD SVG 1.1//EN" "http://www.w3.org/Graphics/SVG/1.1/DTD/svg11.dtd">
<svg xmlns="http://www.w3.org/2000/svg" version="1.1" width="100%" height="100%">
<style type="text/css"><![CDATA[
  .stroke { fill:none; stroke:black; stroke-width:2 }
]]></style>
<path class="stroke" d="M 82.376236 13.720572 C 63.960396 16.29482968888889 35.742573 17.496149866666666 19.108912 17.496149866666666" />
<path class="stroke" d="M 20.891088 21.958196488888888 C 25.346535 24.360836844444442 28.0231 26.985835555555557 30.09901 29.680968977777777" />
<path class="stroke" d="M 43.465347 21.100109822222223 C 47.623764 22.987898755555555 50.29703 25.39053911111111 52.07921 28.47964822222222" />
<path class="stroke" d="M 80.89109 20.0704064 C 78.514854 24.189218933333333 74.95049 27.278328044444443 69.90099 29.509350488888888" />
<path class="stroke" d="M 13.06569196 33.7598523 L 13.06569196 45.348171570000005" />
<path class="stroke" d="M 13.06569196 33.286858470000006 L 86.9343016 33.286858470000006 L 86.9343016 45.584667270000004" />
<path class="stroke" d="M 28.804949549999996 45.84356392 L 69.97624049999999 45.84356392 C 60.60791845 68.41188186 44.82970228 79.43762559999999 17.217821700000002 89.0851484" />
<path class="stroke" d="M 27.818811609999997 51.01188186 C 31.49031993 61.69677294 44.34193369 70.49032288000001 48.625803559999994 74.4193554 C 56.3903191 80.4064518 70.31290012 84.89677119999999 83.5356434 89.0851484" />
</svg>
