<?xml version="1.0" standalone="no"?>
<!DOCTYPE svg PUBLIC "-//W3C//DTD SVG 1.1//EN" "http://www.w3.org/Graphics/SVG/1.1/DTD/svg11.dtd">
<svg xmlns="http://www.w3.org/2000/svg" version="1.1" width="100%" height="100%">
<style type="text/css"><![CDATA[
  .stroke { fill:none; stroke:black; stroke-width:2 }
]]></style>
<path class="stroke" d="M 13.25766406 9.854013 L 13.2355708 55.63759 C 10.42885881 80.20134 10.42885881 79.39597 7.291945939999999 89.865776" />
<path class="stroke" d="M 13.25766406 9.854013 L 30.016788799999997 9.854013 L 30.016788799999997 86.05839 C 30.016788799999997 88.39416 29.537953899999998 90.43795 28.340874439999997 90.43795 L 27.024088099999997 90.43795" />
<path class="stroke" d="M 13.25766406 31.862577 L 30.016788799999997 31.862577" />
<path class="stroke" d="M 13.25766406 55.110336 L 30.016788799999997 55.110336" />
<path class="stroke" d="M 49.168775 6.330177466666667 C 51.986862 8.980050799999999 53.959476 12.218680133333333 55.509454000000005 16.046281066666666" />
<path class="stroke" d="M 83.83129199999999 6.624611466666667 C 81.858611 10.354052800000002 79.674612 13.788999466666667 76.64514 16.04626706666667" />
<path class="stroke" d="M 41.771305 23.112544 L 89.53788300000001 23.112544" />
<path class="stroke" d="M 37.1214514 40.18924 L 95.244474 40.18924" />
<path class="stroke" d="M 66.5 6.624604 C 63.1324594 37.57766133333334 52.339148 61.38804000000001 37.3328096 66.39332" />
<path class="stroke" d="M 70.2884815 23.797557466666667 C 73.44555031 39.63001466666667 80.026764 60.406546666666664 95.03308899999999 65.80438666666667" />
<path class="stroke" d="M 54.5099329518 68.28102154 L 76.922165235 67.27664216 C 76.36464852 81.5890494 74.692094556 89.247444 74.1345763134 90.87956059999999 C 73.4655520545 92.26058128 72.127510029 92.6372243 71.01247278 92.76277139999999 L 69.897435531 92.6372243" />
<path class="stroke" d="M 65.54879369700001 58.48832108 C 64.210749762 72.54963369000001 59.862107928 86.86204265 52.837378987799994 90.87956059999999" />
</svg>
