<?xml version="1.0" standalone="no"?>
<!DOCTYPE svg PUBLIC "-//W3C//DTD SVG 1.1//EN" "http://www.w3.org/Graphics/SVG/1.1/DTD/svg11.dtd">
<svg xmlns="http://www.w3.org/2000/svg" version="1.1" width="100%" height="100%">
<style type="text/css"><![CDATA[
  .stroke { fill:none; stroke:black; stroke-width:2 }
]]></style>
<path class="stroke" d="M 11.313868 17.445253 C 15.401459 18.029196 19.48905 20.364962 22.408756 24.160583" />
<path class="stroke" d="M 9.270073 47.226276 C 13.357662 47.226276 18.321167 46.934303 23.86861 43.138683 C 16.27737 53.357662 14.233576 58.321167 15.109488 60.9489 C 15.69343 63.284668 20.948904 65.62044 22.116787 68.832115 C 23.576641 72.33576 18.129246 80.26506 11.021896 83.722626" />
<path class="stroke" d="M 11.021896 84.014595 C 39.692924 81.65476 40.51095 91.313866 90.43795 90.14598" />
<path class="stroke" d="M 35.189342073 10.340144799999997 L 35.189342073 18.351822319999997" />
<path class="stroke" d="M 35.189342073 10.013136719999999 L 85.05065357999999 10.013136719999999 L 85.05065357999999 18.515325519999998" />
<path class="stroke" d="M 42.657792087 20.681635760000002 L 79.15372176 20.681635760000002" />
<path class="stroke" d="M 43.0104009792 31.57033656 L 43.0104009792 59.66298992" />
<path class="stroke" d="M 43.0104009792 31.57033656 L 78.448524096 31.57033656 L 78.448524096 59.66298992" />
<path class="stroke" d="M 43.1866785981 45.725483856000004 L 78.27219394049999 45.725483856000004" />
<path class="stroke" d="M 43.0104009792 59.66298992 L 78.448524096 59.66298992" />
<path class="stroke" d="M 36.663264307199995 69.68053136 L 84.619350174 69.68053136" />
<path class="stroke" d="M 60.465016767 13.712933020800001 L 60.465016767 77.73811216" />
</svg>
