<?xml version="1.0" standalone="no"?>
<!DOCTYPE svg PUBLIC "-//W3C//DTD SVG 1.1//EN" "http://www.w3.org/Graphics/SVG/1.1/DTD/svg11.dtd">
<svg xmlns="http://www.w3.org/2000/svg" version="1.1" width="100%" height="100%">
<style type="text/css"><![CDATA[
  .stroke { fill:none; stroke:black; stroke-width:2 }
]]></style>
<path class="stroke" d="M 11.003300000000001 33.069305 L 28.825083333333335 30.9901" />
<path class="stroke" d="M 22.389438333333334 9.60396 L 22.389438333333334 84.15842 C 22.389438333333334 87.42574 20.161715833333336 90.09901 17.19141916666667 90.09901" />
<path class="stroke" d="M 11.498349166666667 63.36634 L 27.09241 46.435642" />
<path class="stroke" d="M 63.102185999999996 5.2144160625 L 63.102185999999996 12.4406926875" />
<path class="stroke" d="M 36.73722535 12.60492525 L 36.73722535 20.4881371875" />
<path class="stroke" d="M 36.73722535 12.60492525 L 89.467147 12.60492525 L 89.467147 20.4881371875" />
<path class="stroke" d="M 53.9051086 12.442335120000001 L 53.9051086 22.217516640000003 C 53.9051086 30.8364948 48.5912406 39.350363040000005 35.3065692 41.55766200000001" />
<path class="stroke" d="M 65.96350179999999 12.337226280000001 L 65.96350179999999 37.1430648 C 65.96350179999999 39.770802 68.6204386 41.347443600000005 71.4817481 41.347443600000005 L 87.42335 41.347443600000005 C 89.67153299999998 41.4525528 91.306565 40.611675600000005 91.306565 39.4554708 L 91.306565 37.45839384000001" />
<path class="stroke" d="M 49.0 50.2591231 C 47.364960999999994 57.64598445 42.2554734 64.22992500000001 36.73722535 67.9233565" />
<path class="stroke" d="M 44.708027 60.37591165 L 89.058389 60.37591165" />
<path class="stroke" d="M 59.46689 60.37591165 L 59.46689 94.7408725" />
<path class="stroke" d="M 59.627736 70.492698 L 82.92700500000001 70.492698" />
<path class="stroke" d="M 59.627736 80.609486 L 85.583939 80.609486" />
</svg>
