<?xml version="1.0" standalone="no"?>
<!DOCTYPE svg PUBLIC "-//W3C//DTD SVG 1.1//EN" "http://www.w3.org/Graphics/SVG/1.1/DTD/svg11.dtd">
<svg xmlns="http://www.w3.org/2000/svg" version="1.1" width="100%" height="100%">
<style type="text/css"><![CDATA[
  .stroke { fill:none; stroke:black; stroke-width:2 }
]]></style>
<path class="stroke" d="M 17.154171785714283 14.059406 C 20.654879285714284 16.138615 24.15558785714286 19.108912 27.01980357142857 22.673267" />
<path class="stroke" d="M 14.926448928571428 38.118813 C 18.108912142857143 39.90099 21.927864999999997 42.574257 24.473834285714286 46.138615" />
<path class="stroke" d="M 14.608203571428572 85.64356 C 15.321795357142857 87.422676 17.310014285714285 89.896904 19.629600357142856 89.896904 C 21.949189642857142 89.896904 25.110325 76.73267 27.33804892857143 69.60396" />
<path class="stroke" d="M 35.9858052 26.6562 L 93.449502 26.6562" />
<path class="stroke" d="M 64.9353417 12.776 L 64.9353417 44.6372" />
<path class="stroke" d="M 64.93525199999999 26.65615 C 57.099335999999994 36.01475 47.086746 43.16515 35.5504704 46.21455" />
<path class="stroke" d="M 65.152947 26.65615 C 74.294895 30.96735 82.13094899999999 36.54055 90.402186 44.63725" />
<path class="stroke" d="M 64.93532099999999 44.6373 C 56.809122 55.3628 46.070997 60.4102 35.3328099 62.9338" />
<path class="stroke" d="M 64.7176536 45.2682 C 73.1340666 54.7319 82.42112159999999 59.4637 93.88485749999998 62.9337" />
<path class="stroke" d="M 64.7176536 58.20194 L 64.9353486 89.11664 C 65.0078676 93.00724 63.7744236 95.00524 61.235016599999994 94.79494 L 59.49366359999999 94.79494" />
<path class="stroke" d="M 48.392702099999994 65.14197 C 51.3674991 67.24487 53.689211099999994 69.97897 55.7933661 73.65917" />
<path class="stroke" d="M 38.5977657 90.69394 C 47.716215059999996 90.540535 52.863239699999994 87.62162 58.4054025 81.23024" />
<path class="stroke" d="M 80.17190099999999 65.14198 C 77.632425 69.34818 75.52833899999999 71.66138 72.77123699999999 73.65928" />
<path class="stroke" d="M 70.8123753 81.23027 C 77.9952753 82.70227 83.8722813 85.43637 90.40216530000001 90.69407" />
</svg>
