<?xml version="1.0" standalone="no"?>
<!DOCTYPE svg PUBLIC "-//W3C//DTD SVG 1.1//EN" "http://www.w3.org/Graphics/SVG/1.1/DTD/svg11.dtd">
<svg xmlns="http://www.w3.org/2000/svg" version="1.1" width="100%" height="100%">
<style type="text/css"><![CDATA[
  .stroke { fill:none; stroke:black; stroke-width:2 }
]]></style>
<path class="stroke" d="M 9.1182474 15.2026272 L 31.5065664 15.2026272" />
<path class="stroke" d="M 16.319623319999998 15.2026272 C 16.18074108 34.064316000000005 9.013138199999998 55.927001600000004 4.703649479999999 62.0" />
<path class="stroke" d="M 13.42773612 42.37956 L 13.42773612 74.145984" />
<path class="stroke" d="M 13.42773612 42.37956 L 28.8788292 42.37956 L 28.77372 74.37956000000001" />
<path class="stroke" d="M 13.322627279999999 71.81021600000001 L 28.77372 71.81021600000001" />
<path class="stroke" d="M 40.5425856 12.4606 L 95.65932799999999 12.4606" />
<path class="stroke" d="M 47.4069504 27.2871 L 47.4069504 55.6782" />
<path class="stroke" d="M 47.4069504 27.2871 L 89.1987584 27.2871 L 89.1987584 55.6782" />
<path class="stroke" d="M 47.4069632 41.48266 L 88.7949952 41.48266" />
<path class="stroke" d="M 47.4069504 55.6782 L 89.1987584 55.6782" />
<path class="stroke" d="M 68.403776 12.4606 L 68.403776 61.3564 C 68.538432 79.4426 55.348096 89.327 41.1482688 93.5331" />
<path class="stroke" d="M 54.473216 63.5647 C 65.644608 82.0715 79.44064 93.9538 95.255552 94.1641" />
</svg>
