<?xml version="1.0" standalone="no"?>
<!DOCTYPE svg PUBLIC "-//W3C//DTD SVG 1.1//EN" "http://www.w3.org/Graphics/SVG/1.1/DTD/svg11.dtd">
<svg xmlns="http://www.w3.org/2000/svg" version="1.1" width="100%" height="100%">
<style type="text/css"><![CDATA[
  .stroke { fill:none; stroke:black; stroke-width:2 }
]]></style>
<path class="stroke" d="M 16.7410947 2.5 C 11.1356157 8.746575 8.459804100000001 12.0442965 4.44520505 15.547945 C 8.299221150000001 18.175682 15.656163600000001 19.0 19.634246500000003 21.958905" />
<path class="stroke" d="M 25.963014 13.0821915 C 18.549316500000003 25.41096 19.0917793 22.452057 12.40136865 32.643837 C 23.61232665 31.9863015 15.836984900000001 32.47945 27.590410650000003 31.0" />
<path class="stroke" d="M 28.132876200000002 31.164383 C 28.4945188 35.438355 14.9328762 43.82192 9.5082185 45.79452" />
<path class="stroke" d="M 40.55598865 4.652995 L 59.47240015 4.652995 L 59.47240015 27.8391" />
<path class="stroke" d="M 40.87303265 16.6404 L 59.26104865 16.6404" />
<path class="stroke" d="M 40.76734015 27.8391 L 59.47240015 27.8391" />
<path class="stroke" d="M 40.55598865 4.652995 L 40.55598865 43.45425 M 35.69479695 45.18925 L 58.626964 38.88015" />
<path class="stroke" d="M 55.0339081 34.936925 C 58.0985551 36.514125 60.0007856 40.299675 60.634840100000005 44.400625" />
<path class="stroke" d="M 76.45049829999999 7.772277 L 92.1722761 7.772277 C 92.1722761 10.445544 91.17722560000001 15.9405935 85.80395960000001 19.5049515" />
<path class="stroke" d="M 85.60495218 19.5049515 C 88.09356400000001 21.31965 93.1673266 25.148515 93.1673266 29.603962 L 93.1673266 31.5346525 C 93.1673266 33.316835 91.5752458 34.356435 88.98811717999999 34.356435 L 81.02772390000001 34.20792" />
<path class="stroke" d="M 76.45049829999999 7.772277 L 76.45049829999999 45.049505" />
<path class="stroke" d="M 50.005783 54.781021 L 50.005783 59.7715185" />
<path class="stroke" d="M 20.948904 59.9287365 L 79.051094 59.9287365" />
<path class="stroke" d="M 29.229792 60.08355 L 37.299267 70.985401" />
<path class="stroke" d="M 70.15286 60.0860045 L 62.408752 70.985401" />
<path class="stroke" d="M 10.145985 70.985401 L 89.85401 70.985401" />
<path class="stroke" d="M 31.45985 77.2627715 L 31.45985 95.36496" />
<path class="stroke" d="M 31.167881 77.2627715 L 68.832115 77.2627715 L 68.832115 95.07299" />
<path class="stroke" d="M 31.45985 85.78715 L 68.832115 85.78715" />
<path class="stroke" d="M 32.043793 93.613135 L 68.832115 93.613135" />
</svg>
