<?xml version="1.0" standalone="no"?>
<!DOCTYPE svg PUBLIC "-//W3C//DTD SVG 1.1//EN" "http://www.w3.org/Graphics/SVG/1.1/DTD/svg11.dtd">
<svg xmlns="http://www.w3.org/2000/svg" version="1.1" width="100%" height="100%">
<style type="text/css"><![CDATA[
  .stroke { fill:none; stroke:black; stroke-width:2 }
]]></style>
<path class="stroke" d="M 11.640366 8.044167 L 52.712946 8.044167 L 52.712946 33.280758" />
<path class="stroke" d="M 11.640366 33.280758 L 52.712946 33.280758" />
<path class="stroke" d="M 11.640366 8.044167 L 11.640366 58.20186 C 11.703486 72.92316 10.441626 81.01996 3.6908519999999996 94.164055" />
<path class="stroke" d="M 23.823941100000003 47.3211654 L 23.823941100000003 77.364961" />
<path class="stroke" d="M 23.823941100000003 47.3211654 L 49.60729716 47.3211654 L 49.60729716 75.729922 C 49.60729716 78.795614 48.56671212 80.635032 47.41050696 80.839411 L 46.369925880000004 80.839411" />
<path class="stroke" d="M 36.657808079999995 36.8978091 L 36.657808079999995 93.10218599999999" />
<path class="stroke" d="M 67.39743 12.1451 L 67.39743 68.612" />
<path class="stroke" d="M 87.49205 6.78233 L 87.49205 84.0694 C 87.62881 89.6425 83.25443999999999 92.3765 78.05990000000001 92.2713 L 73.54890000000002 92.2713" />
</svg>
