<?xml version="1.0" standalone="no"?>
<!DOCTYPE svg PUBLIC "-//W3C//DTD SVG 1.1//EN" "http://www.w3.org/Graphics/SVG/1.1/DTD/svg11.dtd">
<svg xmlns="http://www.w3.org/2000/svg" version="1.1" width="100%" height="100%">
<style type="text/css"><![CDATA[
  .stroke { fill:none; stroke:black; stroke-width:2 }
]]></style>
<path class="stroke" d="M 11.139728685714285 27.956203 L 33.26277291428571 27.956203" />
<path class="stroke" d="M 24.186649714285714 9.270073 L 24.186649714285714 90.14598" />
<path class="stroke" d="M 24.186649714285714 36.131386 C 20.499476 44.598537 15.961417314285713 52.48175 9.437955828571429 56.861313" />
<path class="stroke" d="M 24.186649714285714 36.131386 C 28.441082342857143 37.299267 31.277370114285716 42.26277 32.695514 46.934303" />
<path class="stroke" d="M 64.5 9.678831933333333 L 64.5 23.71666666666667" />
<path class="stroke" d="M 42.95985345 23.71666666666667 L 86.2299225 23.71666666666667" />
<path class="stroke" d="M 53.39780760000001 34.827735759999996 C 51.1204377 39.87299176 46.5656914 43.86715072 42.01094835 45.338684560000004" />
<path class="stroke" d="M 74.65328600000001 34.40729896 C 79.587592 36.92992624 83.572989 40.92408664 86.60948675 46.17956176" />
<path class="stroke" d="M 72.945255 47.651092 C 68.58028855 63.207296799999995 56.0547437 85.9109416 38.2153273 90.3255424" />
<path class="stroke" d="M 55.295618450000006 50.38394128 C 59.2810213 62.78686 77.879561 83.1781024 90.97444800000001 90.115324" />
</svg>
