<?xml version="1.0" standalone="no"?>
<!DOCTYPE svg PUBLIC "-//W3C//DTD SVG 1.1//EN" "http://www.w3.org/Graphics/SVG/1.1/DTD/svg11.dtd">
<svg xmlns="http://www.w3.org/2000/svg" version="1.1" width="100%" height="100%">
<style type="text/css"><![CDATA[
  .stroke { fill:none; stroke:black; stroke-width:2 }
]]></style>
<path class="stroke" d="M 19.0852 6.15142 C 18.0337 22.1346 15.4048 35.5941 7.41324 51.2618" />
<path class="stroke" d="M 18.45424 18.1388 L 39.58984 18.4543 C 36.54054 50.6309 25.28914 75.8676 6.78234 94.1641" />
<path class="stroke" d="M 14.0378 36.1199 C 22.8706 62.5132 39.5899 93.6383 58.2019 93.8486 L 93.8486 93.8486" />
<path class="stroke" d="M 59.485796 11.2823293 L 59.485796 52.421152000000006 C 59.668786 67.922689 52.533103999999994 79.591468 44.1167182 79.76181100000001" />
<path class="stroke" d="M 59.485796 11.0268148 L 78.514204 11.0268148 L 78.514204 71.58518500000001 C 78.27025599999999 76.780687 80.03890799999999 80.187709 82.72239400000001 80.017285 L 90.04095 80.017285 C 93.395322 80.017285 94.371172 75.929053 94.249198 71.58518500000001 L 94.249198 67.752346" />
</svg>
