<?xml version="1.0" standalone="no"?>
<!DOCTYPE svg PUBLIC "-//W3C//DTD SVG 1.1//EN" "http://www.w3.org/Graphics/SVG/1.1/DTD/svg11.dtd">
<svg xmlns="http://www.w3.org/2000/svg" version="1.1" width="100%" height="100%">
<style type="text/css"><![CDATA[
  .stroke { fill:none; stroke:black; stroke-width:2 }
]]></style>
<path class="stroke" d="M 8.82727755 7.869564003925 L 39.973984050000006 7.869564003925 L 39.973984050000006 22.362307300450002" />
<path class="stroke" d="M 8.82727755 22.362307300450002 L 39.973984050000006 22.362307300450002" />
<path class="stroke" d="M 8.82727755 7.869564003925 L 8.82727755 36.673873151500004 C 8.87514355 45.127947709000004 7.9182330499999996 49.77773752899999 2.7988961 57.32606268512501" />
<path class="stroke" d="M 13.826215885 35.261533530275 L 13.826215885 60.775964049124994" />
<path class="stroke" d="M 13.826215885 35.359665864575 L 37.8586468 35.359665864575 L 37.8586468 60.874096686" />
<path class="stroke" d="M 14.288378155 59.89277334299999 L 37.766214175 59.89277334299999" />
<path class="stroke" d="M 75.00002 3.8784715710000004 L 75.00002 9.646443196" />
<path class="stroke" d="M 56.2303 10.044249605 L 93.92745 10.044249605" />
<path class="stroke" d="M 62.224000000000004 10.0442433 L 68.8486 28.34267735" />
<path class="stroke" d="M 86.98740000000001 10.24316605 L 80.3628 28.7404598" />
<path class="stroke" d="M 53.0757075 28.939363635 L 97.08201 28.939363635" />
<path class="stroke" d="M 56.388035 45.248816080000005 L 93.138835 45.248816080000005" />
<path class="stroke" d="M 74.84225 28.939347242 L 74.84225 59.96713242" />
<path class="stroke" d="M 18.321167 78.554744 L 81.678825 78.554744" />
<path class="stroke" d="M 50.0 68.74452515 L 50.0 91.343063" />
<path class="stroke" d="M 9.854013 91.343063 L 89.85401 91.343063" />
</svg>
