<?xml version="1.0" standalone="no"?>
<!DOCTYPE svg PUBLIC "-//W3C//DTD SVG 1.1//EN" "http://www.w3.org/Graphics/SVG/1.1/DTD/svg11.dtd">
<svg xmlns="http://www.w3.org/2000/svg" version="1.1" width="100%" height="100%">
<style type="text/css"><![CDATA[
  .stroke { fill:none; stroke:black; stroke-width:2 }
]]></style>
<path class="stroke" d="M 14.984257 20.126216 L 85.33126 20.126216" />
<path class="stroke" d="M 34.22713 7.078852000000001 L 34.22713 37.8927472" />
<path class="stroke" d="M 65.77287 6.801256000000001 L 65.77287 37.89271200000001" />
<path class="stroke" d="M 6.466877 38.170352 L 94.164055 38.170352" />
<path class="stroke" d="M 31.7035 39.28078000000001 C 28.7592 45.17986 22.0295 48.372279999999996 14.3533 50.107288" />
<path class="stroke" d="M 65.7729 39.28071400000001 C 69.7686 45.110362 75.3417 48.025186000000005 83.123 50.10722199999999" />
<path class="stroke" d="M 26.8673267 54.037624 L 61.76237810000001 54.037624 L 61.76237810000001 67.15445439999999" />
<path class="stroke" d="M 27.063365840000003 67.200064 L 61.76237810000001 67.200064" />
<path class="stroke" d="M 27.063365840000003 67.15445439999999 L 27.063365840000003 87.9702976 C 27.063365840000003 90.1089088 29.219801 92.24752480000001 32.55247628 92.24752480000001 L 69.9960398 92.24752480000001 C 72.9366302 92.24752480000001 75.4851476 90.6792064 75.4851476 88.6831696 L 75.4851476 86.1168352" />
</svg>
