<?xml version="1.0" standalone="no"?>
<!DOCTYPE svg PUBLIC "-//W3C//DTD SVG 1.1//EN" "http://www.w3.org/Graphics/SVG/1.1/DTD/svg11.dtd">
<svg xmlns="http://www.w3.org/2000/svg" version="1.1" width="100%" height="100%">
<style type="text/css"><![CDATA[
  .stroke { fill:none; stroke:black; stroke-width:2 }
]]></style>
<path class="stroke" d="M 29.29050804 9.576642 L 29.29050804 39.007296000000004" />
<path class="stroke" d="M 29.29050804 9.576642 L 70.47006999999999 9.576642 L 70.47006999999999 39.007296000000004" />
<path class="stroke" d="M 29.5299259 23.490257200000002 L 70.23065460000001 23.490257200000002" />
<path class="stroke" d="M 29.29050804 37.7226256 L 70.47006999999999 37.7226256" />
<path class="stroke" d="M 9.562042 45.75 L 90.43795 45.75" />
<path class="stroke" d="M 26.0 45.92484277464 C 25.351349 50.9196971496 21.783783 60.5871563808 7.5135136 66.0653833944" />
<path class="stroke" d="M 24.160583 53.4373131216 C 54.525543 53.4373131216 63.868607 53.4373131216 90.14598 53.4373131216 C 89.270065 73.889517396 81.09489 81.1420725648 72.9197 85.78370676 C 69.124084 87.5243180928 65.62044 87.959472168 61.824814 88.104522864" />
<path class="stroke" d="M 45.18248 53.4373131216 C 42.55474 65.62160387760001 27.956203 74.75982306240002 11.89781 79.83661332" />
<path class="stroke" d="M 65.32846 53.4373131216 C 62.70073 68.232522864 49.85401 79.401456264 36.423355 83.89804026" />
</svg>
