<?xml version="1.0" standalone="no"?>
<!DOCTYPE svg PUBLIC "-//W3C//DTD SVG 1.1//EN" "http://www.w3.org/Graphics/SVG/1.1/DTD/svg11.dtd">
<svg xmlns="http://www.w3.org/2000/svg" version="1.1" width="100%" height="100%">
<style type="text/css"><![CDATA[
  .stroke { fill:none; stroke:black; stroke-width:2 }
]]></style>
<path class="stroke" d="M 13.154171785714285 14.059406 C 16.654879285714284 16.138615 20.15558785714286 19.108912 23.01980357142857 22.673267" />
<path class="stroke" d="M 10.926448928571428 38.118813 C 14.108912142857141 39.90099 17.927864999999997 42.574257 20.473834285714286 46.138615" />
<path class="stroke" d="M 10.608203571428572 85.64356 C 11.321795357142857 87.422676 13.310014285714285 89.896904 15.629600357142856 89.896904 C 17.949189642857142 89.896904 21.110325 76.73267 23.33804892857143 69.60396" />
<path class="stroke" d="M 49.689778000000004 15.109488 L 49.689778000000004 30.875912 C 49.689778000000004 53.941605 43.77737125 73.50365 33.9233575 84.8905" />
<path class="stroke" d="M 34.79926975 32.335766 L 68.302915 27.372261 L 68.302915 70.87591 C 68.302915 78.17518 71.3686105 82.26277 75.74817250000001 82.55474 L 87.79196950000001 82.55474 C 90.20072499999999 82.26277 92.3905075 80.21897 92.60948499999999 76.131386 L 92.60948499999999 71.45985" />
</svg>
