<?xml version="1.0" standalone="no"?>
<!DOCTYPE svg PUBLIC "-//W3C//DTD SVG 1.1//EN" "http://www.w3.org/Graphics/SVG/1.1/DTD/svg11.dtd">
<svg xmlns="http://www.w3.org/2000/svg" version="1.1" width="100%" height="100%">
<style type="text/css"><![CDATA[
  .stroke { fill:none; stroke:black; stroke-width:2 }
]]></style>
<path class="stroke" d="M 26.788319 9.755068944444444 C 24.452553 17.200323777777776 21.824816 21.88807661111111 16.861313 25.472828833333335" />
<path class="stroke" d="M 24.452553 18.027573999999998 L 47.226276 18.027573999999998" />
<path class="stroke" d="M 30.0 18.579074777777777 C 34.08759 22.991079111111112 35.547443 26.575831333333333 36.423355 33.193835" />
<path class="stroke" d="M 65.32846 9.755068944444444 C 63.284668 18.85482327777778 60.07299 22.715326833333336 57.44525 25.472828833333335" />
<path class="stroke" d="M 62.9927 18.30332438888889 L 86.35036 18.30332438888889" />
<path class="stroke" d="M 72.62773 18.85482327777778 C 72.9197 24.921328055555556 71.16788 29.057581055555556 67.9562 33.193835" />
<path class="stroke" d="M 50.14598 33.7204657448 C 38.75912 45.4005825732 25.912407 54.5614591784 9.854013 60.057982945199996" />
<path class="stroke" d="M 50.14598 33.7204657448 C 61.824814 44.942537684 73.795616 54.5614591784 90.43795 59.8289624616" />
<path class="stroke" d="M 35.44233512 55.82 L 64.557662 55.82" />
<path class="stroke" d="M 30.9927002 67.431517785 L 30.9927002 89.45218859" />
<path class="stroke" d="M 30.9927002 67.431517785 L 69.18248 67.431517785 L 69.18248 89.240451946" />
<path class="stroke" d="M 30.9927002 87.75829036159999 L 69.18248 87.75829036159999" />
</svg>
