<?xml version="1.0" standalone="no"?>
<!DOCTYPE svg PUBLIC "-//W3C//DTD SVG 1.1//EN" "http://www.w3.org/Graphics/SVG/1.1/DTD/svg11.dtd">
<svg xmlns="http://www.w3.org/2000/svg" version="1.1" width="100%" height="100%">
<style type="text/css"><![CDATA[
  .stroke { fill:none; stroke:black; stroke-width:2 }
]]></style>
<path class="stroke" d="M 18.68935849056604 5.5205 L 18.68935849056604 16.877" />
<path class="stroke" d="M 5.594905660377359 17.1924 L 32.57901886792453 17.1924 C 26.546037735849055 37.2765 17.4988679245283 51.9978 4.880664150943397 60.7256" />
<path class="stroke" d="M 18.68935849056604 47.1609 L 18.68935849056604 94.795" />
<path class="stroke" d="M 34.87894339622642 39.2744 C 34.085283018867926 43.2702 32.57743396226415 46.6351 30.59343396226415 48.4228" />
<path class="stroke" d="M 18.92747169811321 46.5299 C 24.95879245283019 50.6309 28.60935849056604 55.6783 32.49803773584906 63.5646" />
<path class="stroke" d="M 52.3564354 9.306931 C 50.9306926 17.029703 48.792079 25.049503 45.940594 30.396038" />
<path class="stroke" d="M 50.0396044 20.594059 L 94.237624 20.594059" />
<path class="stroke" d="M 54.846713199999996 30.576642 L 54.846713199999996 60.007296000000004" />
<path class="stroke" d="M 54.846713199999996 30.576642 L 84.9781 30.576642 L 84.9781 60.007296000000004" />
<path class="stroke" d="M 55.021896999999996 44.4902572 L 84.802918 44.4902572" />
<path class="stroke" d="M 54.846713199999996 58.7226256 L 84.9781 58.7226256" />
<path class="stroke" d="M 65.8832098 69.0072986 C 61.854012999999995 72.948905 55.021896999999996 77.0656925 48.0145972 79.69343" />
<path class="stroke" d="M 63.781019799999996 71.2846712 L 79.372264 71.2846712 C 73.06569400000001 78.46715209999999 59.576640999999995 86.788319 46.087591 91.343063" />
<path class="stroke" d="M 57.124087599999996 75.5766422 C 64.0 81.93548419999999 78.14598219999999 87.9270065 93.036496 91.343063" />
</svg>
