<?xml version="1.0" standalone="no"?>
<!DOCTYPE svg PUBLIC "-//W3C//DTD SVG 1.1//EN" "http://www.w3.org/Graphics/SVG/1.1/DTD/svg11.dtd">
<svg xmlns="http://www.w3.org/2000/svg" version="1.1" width="100%" height="100%">
<style type="text/css"><![CDATA[
  .stroke { fill:none; stroke:black; stroke-width:2 }
]]></style>
<path class="stroke" d="M 8.350785 12.0942396 L 41.96335 12.0942396" />
<path class="stroke" d="M 11.4963495 20.802918 L 11.350365 37.620438" />
<path class="stroke" d="M 11.350365 20.802918 L 38.64963 20.802918 L 38.64963 37.620438" />
<path class="stroke" d="M 11.350365 29.181744 L 38.503645 29.181744" />
<path class="stroke" d="M 11.350365 37.79562 L 38.64963 37.79562" />
<path class="stroke" d="M 7.554744 46.554744 L 42.44525 46.554744" />
<path class="stroke" d="M 25.092815 5.386861199999999 L 25.092815 54.437952" />
<path class="stroke" d="M 66.7981 2.58927264 L 66.7981 17.2164096 C 66.95585 22.728067199999998 60.8044 26.8769664 53.548895 26.9375328" />
<path class="stroke" d="M 66.7981 2.49842304 L 83.2019 2.49842304 L 83.2019 24.030288 C 82.9916 25.8775776 84.5163 27.0889632 86.82965 27.028368 L 93.13875 27.028368 C 96.03045 27.028368 96.8717 25.5747744 96.76655 24.030288 L 96.76655 22.6675008" />
<path class="stroke" d="M 61.9306925 31.523168063999996 L 86.732675 31.523168063999996 C 81.0891075 44.597228112 71.584158 50.98455552 54.950495000000004 56.57346528" />
<path class="stroke" d="M 61.3366335 34.517228112 C 63.5483855 40.707096048 71.2903215 45.801290496 73.870966 48.07741968 C 78.548385 51.54580656 86.93548200000001 54.14709504 94.90099000000001 56.57346528" />
<path class="stroke" d="M 72.9197 63.8248168 C 57.153282 64.759124 40.319 65.44568 25.620438 65.8102188" />
<path class="stroke" d="M 22.116787 73.051094 L 79.927 73.051094" />
<path class="stroke" d="M 11.605839 80.9927 L 88.39416 80.9927" />
<path class="stroke" d="M 49.27007 65.4598532 C 51.62162 67.9351348 51.945942 68.7135132 52.594593 71.3081068 L 52.48175 94.18978000000001 C 52.48175 95.59123840000001 50.729923 96.642334 47.226276 96.5255464 L 44.014595 96.5255464" />
</svg>
