<?xml version="1.0" standalone="no"?>
<!DOCTYPE svg PUBLIC "-//W3C//DTD SVG 1.1//EN" "http://www.w3.org/Graphics/SVG/1.1/DTD/svg11.dtd">
<svg xmlns="http://www.w3.org/2000/svg" version="1.1" width="100%" height="100%">
<style type="text/css"><![CDATA[
  .stroke { fill:none; stroke:black; stroke-width:2 }
]]></style>
<path class="stroke" d="M 20.770715441176474 11.605839 C 17.979818382352942 27.372261 12.183339705882354 41.970802 7.245597794117647 50.14598" />
<path class="stroke" d="M 16.477026470588235 30.583939 L 16.477026470588235 90.43795" />
<path class="stroke" d="M 61.113864400000004 6.693429399999999 C 52.232113600000005 17.1167871 42.211677460000004 25.291970199999998 29.68613014 30.1970781" />
<path class="stroke" d="M 61.113864400000004 6.693429399999999 C 70.22335492 16.708026999999998 79.56058048 25.291970199999998 92.541601 29.992699799999997" />
<path class="stroke" d="M 45.2523772 28.5489 L 76.7476072 28.5489" />
<path class="stroke" d="M 33.1955974 41.7981 L 33.1955974 62.9337" />
<path class="stroke" d="M 33.1955974 41.7981 L 89.2965514 41.7981 L 89.2965514 62.9337" />
<path class="stroke" d="M 33.1955974 62.9337 L 89.2965514 62.9337" />
<path class="stroke" d="M 60.7539412 29.1798 L 60.5078512 68.9275 C 57.9652072 83.2282 42.3816652 90.9043 27.5362918 93.8485" />
<path class="stroke" d="M 60.507898000000004 69.2429 C 63.460588 82.387 78.22403800000001 91.1146 94.217704 94.164" />
</svg>
