<?xml version="1.0" standalone="no"?>
<!DOCTYPE svg PUBLIC "-//W3C//DTD SVG 1.1//EN" "http://www.w3.org/Graphics/SVG/1.1/DTD/svg11.dtd">
<svg xmlns="http://www.w3.org/2000/svg" version="1.1" width="100%" height="100%">
<style type="text/css"><![CDATA[
  .stroke { fill:none; stroke:black; stroke-width:2 }
]]></style>
<path class="stroke" d="M 50.14598 6.95255475 L 50.14598 16.587590249999998" />
<path class="stroke" d="M 12.4817505 16.806567 L 12.4817505 27.31751625" />
<path class="stroke" d="M 12.4817505 16.806567 L 87.81021 16.806567 L 87.81021 27.31751625" />
<path class="stroke" d="M 27.6026 28.009853245833334 C 22.2398 35.5802898375 15.9307 39.58822396 7.09779 43.5960860875" />
<path class="stroke" d="M 23.8171 32.90841775 L 51.522842 32.70968755166667 C 39.9053 46.86175458333334 25.3944 56.58460875 6.15142 62.076909666666666" />
<path class="stroke" d="M 25.7098 39.142902416666665 L 36.1199 46.04538775" />
<path class="stroke" d="M 16.24603 44.70936524166667 L 27.91803 52.27978065833334" />
<path class="stroke" d="M 59.463657 32.90838739916667 L 90.693954 32.90838739916667 C 84.59515 40.18199989916667 76.80851 43.874646741666666 72.12766 47.47889995833333" />
<path class="stroke" d="M 55.95745 26.529166666666665 C 64.04256 45.076064009999996 75.6572 55.025917 93.5331 62.076839083333326" />
<path class="stroke" d="M 33.2808 57.605066265000005 L 68.2966 57.605066265000005" />
<path class="stroke" d="M 14.35331 69.32266169300001 L 86.90842 69.32266169300001" />
<path class="stroke" d="M 50.630928 69.48539203 L 50.630928 93.73434291000001 C 50.630928 95.47029482 48.107227 96.55523252 45.89903 96.50101143 L 41.798027 96.50101143" />
<path class="stroke" d="M 32.6498 77.94806086 C 27.1819 83.91542457 19.1903 88.09256369 7.72871 90.80495953" />
<path class="stroke" d="M 68.6121 78.27364535 C 78.0759 81.63700381000001 84.7003 85.48866162 91.0095 90.80495953" />
</svg>
