<?xml version="1.0" standalone="no"?>
<!DOCTYPE svg PUBLIC "-//W3C//DTD SVG 1.1//EN" "http://www.w3.org/Graphics/SVG/1.1/DTD/svg11.dtd">
<svg xmlns="http://www.w3.org/2000/svg" version="1.1" width="100%" height="100%">
<style type="text/css"><![CDATA[
  .stroke { fill:none; stroke:black; stroke-width:2 }
]]></style>
<path class="stroke" d="M 12.189779 17.69343 L 87.81021 17.69343" />
<path class="stroke" d="M 34.67153 10.394159 L 34.67153 25.576641" />
<path class="stroke" d="M 65.32846 10.394159 L 65.32846 25.576641" />
<path class="stroke" d="M 24.132515 27.4075083 L 73.34382 27.4075083 C 68.50681 32.976872279999995 59.884315 36.56109384 49.684616 37.994751" />
<path class="stroke" d="M 49.684616 37.994751 L 49.369114 69.75650532 C 49.579414 71.90701727999999 47.581516 72.8996016 44.321815 72.8996016 L 40.220814 72.8996016" />
<path class="stroke" d="M 7.09779 42.62667132 L 37.3817 42.62667132 C 32.0189 53.820513719999994 23.1861 61.209519480000004 6.78233 68.26768128" />
<path class="stroke" d="M 93.84854 41.799566664 C 89.432144 45.108058704 84.06934 47.258623104 77.44474 48.58199894399999" />
<path class="stroke" d="M 63.2492 42.62672376 C 68.4017 54.09624324 78.2859 62.75345795999999 94.164 68.26768128" />
<path class="stroke" d="M 9.562042 79.38 L 90.43795 79.38" />
<path class="stroke" d="M 18.613138 84.02043232 C 18.029196 87.39328191999999 15.69343 90.23357216000001 11.89781 91.83123808" />
<path class="stroke" d="M 35.255474 84.55299167999999 C 38.46715 86.86072560000001 40.218975 88.99094784 41.67883 92.00875583999999" />
<path class="stroke" d="M 59.197075 84.73050943999999 C 62.408752 86.86072560000001 63.868607 89.1684656 65.32846 92.1862736" />
<path class="stroke" d="M 81.386856 84.73050943999999 C 84.8905 86.86072560000001 86.9343 88.813424 88.68613 92.1862736" />
</svg>
