<?xml version="1.0" standalone="no"?>
<!DOCTYPE svg PUBLIC "-//W3C//DTD SVG 1.1//EN" "http://www.w3.org/Graphics/SVG/1.1/DTD/svg11.dtd">
<svg xmlns="http://www.w3.org/2000/svg" version="1.1" width="100%" height="100%">
<style type="text/css"><![CDATA[
  .stroke { fill:none; stroke:black; stroke-width:2 }
]]></style>
<path class="stroke" d="M 6.46688 8.567496551724137 L 93.5331 8.567496551724137" />
<path class="stroke" d="M 14.6688 18.46632327586207 L 14.6688 31.601340517241375" />
<path class="stroke" d="M 14.6688 18.46632327586207 L 84.7003 18.46632327586207 L 84.7003 31.601340517241375" />
<path class="stroke" d="M 37.06627 8.757836206896553 L 37.06627 31.220594827586204" />
<path class="stroke" d="M 61.67194 8.7578875 L 61.67194 31.03025818965517" />
<path class="stroke" d="M 14.6688 31.601340517241375 L 84.7003 31.601340517241375" />
<path class="stroke" d="M 6.100824528301887 47.102508900000004 L 44.49142924528302 47.102508900000004" />
<path class="stroke" d="M 16.51688679245283 41.329658 L 16.51688679245283 55.3769942" />
<path class="stroke" d="M 33.182641509433964 41.329658 L 33.182641509433964 55.3769942" />
<path class="stroke" d="M 16.51688679245283 55.3769942 L 33.182641509433964 55.3769942" />
<path class="stroke" d="M 9.672075471698113 63.26658475 L 9.672075471698113 76.5441528" />
<path class="stroke" d="M 9.672075471698113 63.26658475 L 39.72990566037736 63.26658475 L 39.72990566037736 76.5441528" />
<path class="stroke" d="M 9.672075471698113 76.5441528 L 39.72990566037736 76.5441528" />
<path class="stroke" d="M 5.803223584905661 85.58833 L 44.19382547169811 85.58833" />
<path class="stroke" d="M 24.849716981132072 55.56941016 L 24.849716981132072 95.40222716" />
<path class="stroke" d="M 66.167883 43.01094793 L 66.14094 70.9389299 C 62.7181205 85.9228174 62.7181205 85.4315417 58.892617 91.81812335999999" />
<path class="stroke" d="M 66.167883 43.01094793 L 86.60584 43.01094793 L 86.60584 89.4956179 C 86.60584 90.9204376 86.021895 92.1671495 84.56204199999999 92.1671495 L 82.956205 92.1671495" />
<path class="stroke" d="M 66.167883 56.436171970000004 L 86.60584 56.436171970000004" />
<path class="stroke" d="M 66.167883 70.61730496 L 86.60584 70.61730496" />
</svg>
