<?xml version="1.0" standalone="no"?>
<!DOCTYPE svg PUBLIC "-//W3C//DTD SVG 1.1//EN" "http://www.w3.org/Graphics/SVG/1.1/DTD/svg11.dtd">
<svg xmlns="http://www.w3.org/2000/svg" version="1.1" width="100%" height="100%">
<style type="text/css"><![CDATA[
  .stroke { fill:none; stroke:black; stroke-width:2 }
]]></style>
<path class="stroke" d="M 24.925188 5.0 L 24.925188 36.683292" />
<path class="stroke" d="M 3.07571 7.72871 C 6.8086 12.6709 9.7529 19.5058 11.2776 28.2334" />
<path class="stroke" d="M 44.55835 7.72871 C 42.5079 16.877 40.142 23.1861 36.35645 28.5489" />
<path class="stroke" d="M 4.968455 37.0662 L 4.968455 95.4259" />
<path class="stroke" d="M 5.1262 37.0662 L 45.347 37.0662 L 45.347 90.0631 C 45.5047 93.7434 44.40065 95.531 42.98105 95.4259 L 41.40375 95.4259" />
<path class="stroke" d="M 24.7755625 36.683292 L 24.84225 92.9022" />
<path class="stroke" d="M 19.239403 52.244392 C 18.341646 60.02494 16.546135 70.49876 12.057358 76.78304" />
<path class="stroke" d="M 31.2094765 52.842896 C 33.00499 56.134666 36.446385 65.11222 37.04489 76.78304" />
<path class="stroke" d="M 68.168318 9.90099 C 66.6831685 22.673267 63.118812500000004 37.82178 57.623762 46.435642" />
<path class="stroke" d="M 62.970297 35.742573 L 88.069305 35.742573" />
<path class="stroke" d="M 76.48515 36.039604 C 74.70297 61.287132 67.1287135 82.376236 55.247525 89.80198" />
<path class="stroke" d="M 62.970297 43.465347 C 66.237623 61.58416 82.12871 90.09901 90.89108999999999 90.09901" />
</svg>
