<?xml version="1.0" standalone="no"?>
<!DOCTYPE svg PUBLIC "-//W3C//DTD SVG 1.1//EN" "http://www.w3.org/Graphics/SVG/1.1/DTD/svg11.dtd">
<svg xmlns="http://www.w3.org/2000/svg" version="1.1" width="100%" height="100%">
<style type="text/css"><![CDATA[
  .stroke { fill:none; stroke:black; stroke-width:2 }
]]></style>
<path class="stroke" d="M 26.788319 9.437550694444443 C 24.452553 14.912002777777777 21.824816 18.35887986111111 16.861313 20.994727083333334" />
<path class="stroke" d="M 24.452553 15.520274999999998 L 47.226276 15.520274999999998" />
<path class="stroke" d="M 30.0 15.925790277777777 C 34.08759 19.169911111111112 35.547443 21.805758333333333 36.423355 26.6719375" />
<path class="stroke" d="M 65.32846 9.437550694444443 C 63.284668 16.12854652777778 60.07299 18.967152083333332 57.44525 20.994727083333334" />
<path class="stroke" d="M 62.9927 15.723032638888888 L 86.35036 15.723032638888888" />
<path class="stroke" d="M 72.62773 16.12854652777778 C 72.9197 20.589211805555557 71.16788 23.630574305555555 67.9562 26.6719375" />
<path class="stroke" d="M 15.18540128 32.252407416 L 15.18540128 94.49474255999999" />
<path class="stroke" d="M 15.18540128 32.034014604 L 85.32846239999999 32.034014604 L 85.32846239999999 94.27634900000001" />
<path class="stroke" d="M 15.442334 89.908465832 L 85.32846239999999 89.908465832" />
<path class="stroke" d="M 26.278890271999998 50.95564 L 73.721106752 50.95564" />
<path class="stroke" d="M 50.0 39.734617462239996 L 50.0 63.8612139904" />
<path class="stroke" d="M 36.6442040072 65.04023396325 L 36.6442040072 81.36261590550001" />
<path class="stroke" d="M 36.6442040072 65.04023396325 L 63.47888928 65.04023396325 L 63.47888928 81.2056703517" />
<path class="stroke" d="M 36.6442040072 80.10704771232 L 63.47888928 80.10704771232" />
</svg>
