<?xml version="1.0" standalone="no"?>
<!DOCTYPE svg PUBLIC "-//W3C//DTD SVG 1.1//EN" "http://www.w3.org/Graphics/SVG/1.1/DTD/svg11.dtd">
<svg xmlns="http://www.w3.org/2000/svg" version="1.1" width="100%" height="100%">
<style type="text/css"><![CDATA[
  .stroke { fill:none; stroke:black; stroke-width:2 }
]]></style>
<path class="stroke" d="M 13.154171785714285 14.059406 C 16.654879285714284 16.138615 20.15558785714286 19.108912 23.01980357142857 22.673267" />
<path class="stroke" d="M 10.926448928571428 38.118813 C 14.108912142857141 39.90099 17.927864999999997 42.574257 20.473834285714286 46.138615" />
<path class="stroke" d="M 10.608203571428572 85.64356 C 11.321795357142857 87.422676 13.310014285714285 89.896904 15.629600357142856 89.896904 C 17.949189642857142 89.896904 21.110325 76.73267 23.33804892857143 69.60396" />
<path class="stroke" d="M 59.6504626 10.800613210526315 L 59.6504626 28.863381578947365" />
<path class="stroke" d="M 40.75065626199999 13.42066794736842 C 43.669195521999995 16.993468526315787 45.12846658 20.328082236842103 47.004668656 25.330002394736844" />
<path class="stroke" d="M 77.44087215999998 13.42066794736842 C 76.190069824 19.613521631578944 74.31386632 21.995390315789475 71.60379363999999 25.091817157894738" />
<path class="stroke" d="M 42.4854011 32.99634923 L 42.4854011 69.273719 C 42.4854011 77.3168333 42.4854011 80.69108700000001 42.4854011 88.49406225999999" />
<path class="stroke" d="M 42.4854011 32.99634923 L 77.229928 32.99634923 L 77.229928 87.1014569 C 77.229928 88.7598536 76.2372215 90.2109445 73.7554714 90.2109445 L 71.02554849999999 90.2109445" />
<path class="stroke" d="M 42.4854011 48.62242967 L 77.229928 48.62242967" />
<path class="stroke" d="M 42.4854011 65.12833856 L 77.229928 65.12833856" />
</svg>
