<?xml version="1.0" standalone="no"?>
<!DOCTYPE svg PUBLIC "-//W3C//DTD SVG 1.1//EN" "http://www.w3.org/Graphics/SVG/1.1/DTD/svg11.dtd">
<svg xmlns="http://www.w3.org/2000/svg" version="1.1" width="100%" height="100%">
<style type="text/css"><![CDATA[
  .stroke { fill:none; stroke:black; stroke-width:2 }
]]></style>
<path class="stroke" d="M 11.313868 17.445253 C 15.401459 18.029196 19.48905 20.364962 22.408756 24.160583" />
<path class="stroke" d="M 9.270073 47.226276 C 13.357662 47.226276 18.321167 46.934303 23.86861 43.138683 C 16.27737 53.357662 14.233576 58.321167 15.109488 60.9489 C 15.69343 63.284668 20.948904 65.62044 22.116787 68.832115 C 23.576641 72.33576 18.129246 80.26506 11.021896 83.722626" />
<path class="stroke" d="M 11.021896 84.014595 C 39.692924 81.65476 40.51095 91.313866 90.43795 90.14598" />
<path class="stroke" d="M 42.774433099999996 8.936595246 L 91.3769861 8.936595246 L 91.3769861 27.561199403999996" />
<path class="stroke" d="M 42.774433099999996 27.561199403999996 L 91.3769861 27.561199403999996" />
<path class="stroke" d="M 42.774433099999996 8.936595246 L 42.774433099999996 45.95297268 C 42.8491251 56.817292079999994 41.355924099999996 62.792730479999996 33.3675082 72.49307259" />
<path class="stroke" d="M 57.7620291775 35.499603906 C 59.544058355000004 37.6210499238 61.05193115 40.3952479708 62.011484257499994 43.3326342998" />
<path class="stroke" d="M 80.24302098999999 35.6627916386 C 79.55762426499999 38.926555081000004 78.32391016 41.5375637472 76.54188328999999 43.3326342998" />
<path class="stroke" d="M 56.939554492 46.433207812 L 82.57336708599999 46.433207812" />
<path class="stroke" d="M 58.173267674 55.89811718 L 81.476735095 55.89811718" />
<path class="stroke" d="M 53.238415868999994 65.52622032400001 L 86.685740975 65.52622032400001" />
<path class="stroke" d="M 69.82499999999999 46.433207812 L 69.82499999999999 79.39720781199999" />
</svg>
