<?xml version="1.0" standalone="no"?>
<!DOCTYPE svg PUBLIC "-//W3C//DTD SVG 1.1//EN" "http://www.w3.org/Graphics/SVG/1.1/DTD/svg11.dtd">
<svg xmlns="http://www.w3.org/2000/svg" version="1.1" width="100%" height="100%">
<style type="text/css"><![CDATA[
  .stroke { fill:none; stroke:black; stroke-width:2 }
]]></style>
<path class="stroke" d="M 8.003300000000001 33.069305 L 25.825083333333335 30.9901" />
<path class="stroke" d="M 19.389438333333334 9.60396 L 19.389438333333334 84.15842 C 19.389438333333334 87.42574 17.161715833333336 90.09901 14.191419166666668 90.09901" />
<path class="stroke" d="M 8.498349166666667 63.36634 L 24.09241 46.435642" />
<path class="stroke" d="M 29.140375 22.23974 L 95.859625 22.23974" />
<path class="stroke" d="M 39.55051 37.38167 L 39.55051 93.84857" />
<path class="stroke" d="M 39.55051 37.38167 L 85.212985 37.38167 L 85.212985 88.17037 C 85.449535 91.53527 83.793385 93.638275 81.427435 93.53307 L 79.29811000000001 93.53307" />
<path class="stroke" d="M 39.7870375 52.2082 L 84.9763375 51.8927" />
<path class="stroke" d="M 39.5504875 67.6656 L 84.9764125 67.6656" />
<path class="stroke" d="M 62.5 6.78233 L 62.5 93.8486" />
<path class="stroke" d="M 77.40535 6.78233 C 80.4811 8.88539 82.373875 12.2503 83.79339999999999 15.9306" />
</svg>
