<?xml version="1.0" standalone="no"?>
<!DOCTYPE svg PUBLIC "-//W3C//DTD SVG 1.1//EN" "http://www.w3.org/Graphics/SVG/1.1/DTD/svg11.dtd">
<svg xmlns="http://www.w3.org/2000/svg" version="1.1" width="100%" height="100%">
<style type="text/css"><![CDATA[
  .stroke { fill:none; stroke:black; stroke-width:2 }
]]></style>
<path class="stroke" d="M 13.154171785714285 14.059406 C 16.654879285714284 16.138615 20.15558785714286 19.108912 23.01980357142857 22.673267" />
<path class="stroke" d="M 10.926448928571428 38.118813 C 14.108912142857141 39.90099 17.927864999999997 42.574257 20.473834285714286 46.138615" />
<path class="stroke" d="M 10.608203571428572 85.64356 C 11.321795357142857 87.422676 13.310014285714285 89.896904 15.629600357142856 89.896904 C 17.949189642857142 89.896904 21.110325 76.73267 23.33804892857143 69.60396" />
<path class="stroke" d="M 38.295048640000005 21.48515 L 38.295048640000005 46.732674 C 38.295048640000005 62.178215 35.97821776 71.68317 31.11287104 82.07921" />
<path class="stroke" d="M 38.295048640000005 21.6088 L 81.61980388 21.6088" />
<path class="stroke" d="M 67.25544868 9.60396 L 70.49900769999999 41.68317 C 73.0475212 69.30693 84.4 90.09901 88.10692660000001 90.09901 L 89.72871040000001 90.09901 C 91.3504942 90.09901 92.972278 88.019806 92.972278 85.9406 L 92.972278 82.376236" />
<path class="stroke" d="M 83.4732664 43.168316 C 80.92475368000001 54.455444 76.0594054 61.58416 69.80396296 68.11881" />
<path class="stroke" d="M 83.24158612 9.306931 C 86.25346408 10.79208 88.3386178 14.653465 89.2653475 18.51485" />
<path class="stroke" d="M 43.9612696108 38.75 L 64.77872833 38.75" />
<path class="stroke" d="M 47.031281547220004 51.087225875 L 47.031281547220004 70.21715225" />
<path class="stroke" d="M 47.031281547220004 51.087225875 L 61.776355527999996 51.087225875 L 61.776355527999996 70.03321115" />
<path class="stroke" d="M 47.031281547220004 68.74561904000001 L 61.776355527999996 68.74561904000001" />
</svg>
