<?xml version="1.0" standalone="no"?>
<!DOCTYPE svg PUBLIC "-//W3C//DTD SVG 1.1//EN" "http://www.w3.org/Graphics/SVG/1.1/DTD/svg11.dtd">
<svg xmlns="http://www.w3.org/2000/svg" version="1.1" width="100%" height="100%">
<style type="text/css"><![CDATA[
  .stroke { fill:none; stroke:black; stroke-width:2 }
]]></style>
<path class="stroke" d="M 13.961809821428572 14.059406 C 16.87906607142857 16.138615 19.796323214285717 19.108912 22.183169642857145 22.673267" />
<path class="stroke" d="M 12.105374107142858 38.118813 C 14.757426785714285 39.90099 17.9398875 42.574257 20.06152857142857 46.138615" />
<path class="stroke" d="M 11.840169642857143 85.64356 C 12.434829464285714 87.422676 14.091678571428572 89.896904 16.024666964285714 89.896904 C 17.957658035714285 89.896904 20.5919375 76.73267 22.448374107142858 69.60396" />
<path class="stroke" d="M 45.3211654 11.9708025 L 45.3211654 48.75912" />
<path class="stroke" d="M 45.3211654 11.9708025 L 80.47444999999999 11.9708025 L 80.47444999999999 48.75912" />
<path class="stroke" d="M 45.5255465 29.3628215 L 80.270071 29.3628215" />
<path class="stroke" d="M 45.3211654 47.153282 L 80.47444999999999 47.153282" />
<path class="stroke" d="M 54.167162 51.2540042 L 54.167162 89.08029049999999" />
<path class="stroke" d="M 73.37854300000001 51.2540042 L 73.37854300000001 90.0645418" />
<path class="stroke" d="M 36.943221 56.63343024999999 C 40.329121 61.714592749999994 42.831761 68.16842675000001 44.230221 76.2031885" />
<path class="stroke" d="M 89.71923799999999 56.7726955 C 88.24706799999998 65.06584869999999 85.670858 71.45945549999999 82.873798 76.2724608" />
<path class="stroke" d="M 32.7476324 91.0488105 L 94.3564825 91.0488105" />
</svg>
