<?xml version="1.0" standalone="no"?>
<!DOCTYPE svg PUBLIC "-//W3C//DTD SVG 1.1//EN" "http://www.w3.org/Graphics/SVG/1.1/DTD/svg11.dtd">
<svg xmlns="http://www.w3.org/2000/svg" version="1.1" width="100%" height="100%">
<style type="text/css"><![CDATA[
  .stroke { fill:none; stroke:black; stroke-width:2 }
]]></style>
<path class="stroke" d="M 82.376236 8.480748 C 63.960396 11.847084977777778 35.742573 13.418042133333334 19.108912 13.418042133333334" />
<path class="stroke" d="M 18.931507 13.316589911111112 C 17.616438 22.507457066666664 15.315069 34.67914577777778 5.0 40.39238942222222" />
<path class="stroke" d="M 43.465347 18.130912844444442 C 47.623764 20.59955991111111 50.29703 23.741474222222223 52.07921 27.781078444444447" />
<path class="stroke" d="M 71.863014 16.049011244444443 C 79.09589 20.768644933333334 80.41096 23.997867466666666 83.369865 28.717504933333334" />
<path class="stroke" d="M 23.495260000000002 36.66406 L 89.690836 36.66406 C 79.562616 42.61039 70.519544 45.481049999999996 54.422751999999996 47.12139" />
<path class="stroke" d="M 54.422751999999996 47.12139 L 54.422751999999996 87.72077999999999 C 55.146184 90.7282 46.72718476 91.75 38.491773159999994 91.38528500000001 L 26.653367996 89.245641" />
<path class="stroke" d="M 24.0378598 65.5756973 L 88.60571552 57.168791" />
</svg>
