<?xml version="1.0" standalone="no"?>
<!DOCTYPE svg PUBLIC "-//W3C//DTD SVG 1.1//EN" "http://www.w3.org/Graphics/SVG/1.1/DTD/svg11.dtd">
<svg xmlns="http://www.w3.org/2000/svg" version="1.1" width="100%" height="100%">
<style type="text/css"><![CDATA[
  .stroke { fill:none; stroke:black; stroke-width:2 }
]]></style>
<path class="stroke" d="M 45.899 6.78234 C 34.6477 11.1987 22.7655 13.4069 11.5142 14.3533" />
<path class="stroke" d="M 6.78233 31.07257 L 94.164 31.07257" />
<path class="stroke" d="M 29.81075 11.829728 L 29.81075 88.485825 C 29.60045 91.955826 27.18195 94.164024 24.44795 94.164024 L 19.08515 94.164024" />
<path class="stroke" d="M 8.67507 60.72553 C 18.34914 56.09883 31.80864 53.04943 44.63724 52.20813" />
<path class="stroke" d="M 58.8329 6.46687 L 58.8329 39.5899 C 59.2535 67.5604 77.0242 93.3229 89.7476 93.5331 L 89.7476 82.8077" />
<path class="stroke" d="M 90.3785 44.637257 C 81.5457 68.82226 66.7192 87.644554 45.2681 93.84856" />
<path class="stroke" d="M 74.29026 10.88328 C 77.86546 13.40694 80.17876 15.61514 82.49206 19.71614" />
</svg>
