<?xml version="1.0" standalone="no"?>
<!DOCTYPE svg PUBLIC "-//W3C//DTD SVG 1.1//EN" "http://www.w3.org/Graphics/SVG/1.1/DTD/svg11.dtd">
<svg xmlns="http://www.w3.org/2000/svg" version="1.1" width="100%" height="100%">
<style type="text/css"><![CDATA[
  .stroke { fill:none; stroke:black; stroke-width:2 }
]]></style>
<path class="stroke" d="M 29.09666625 5.83596 C 24.99559275 18.87483 16.39946775 32.54463 7.56663525 38.64353" />
<path class="stroke" d="M 9.69597375 8.04417 C 18.37108875 17.7182 25.62658875 33.0705 25.54768875 61.6719 L 25.54768875 77.4448 C 25.863138 85.6467 24.049338 96.0569 17.740113 95.7414 L 13.83396375 95.7414" />
<path class="stroke" d="M 22.94513625 34.22716 C 23.02403625 49.47426 15.05866125 62.82856 7.56664125 67.03466" />
<path class="stroke" d="M 34.92744184 8.841123947368422 C 39.47007304 13.90496605263158 42.42272104 18.22180815789474 45.14828104 23.78380894736842" />
<path class="stroke" d="M 52.8707224 6.5996999999999995 C 57.1861864 11.414605263157895 59.6845144 15.482289473684212 62.8643224 21.791447368421053" />
<path class="stroke" d="M 89.2113328 5.852557894736842 C 86.2586848 12.493768421052632 82.3974688 18.387900000000002 77.6277568 24.281952631578946" />
<path class="stroke" d="M 39.547144 31.603772499999998 L 39.547144 81.3679 C 39.471688 87.73585 36.226432 93.39625 31.8490552 96.22645" />
<path class="stroke" d="M 39.773584 31.3679275 L 85.962232 31.3679275 L 85.962232 81.603775 C 85.886776 90.64465 90.113176 96.619525 96.60376 96.698125 L 96.60376 86.556625" />
<path class="stroke" d="M 39.547144 46.6981 L 85.73586399999999 46.6981" />
<path class="stroke" d="M 39.547144 65.094325 L 85.962232 65.094325" />
<path class="stroke" d="M 62.6414752 31.3679275 L 62.6414752 94.81135" />
</svg>
