<?xml version="1.0" standalone="no"?>
<!DOCTYPE svg PUBLIC "-//W3C//DTD SVG 1.1//EN" "http://www.w3.org/Graphics/SVG/1.1/DTD/svg11.dtd">
<svg xmlns="http://www.w3.org/2000/svg" version="1.1" width="100%" height="100%">
<style type="text/css"><![CDATA[
  .stroke { fill:none; stroke:black; stroke-width:2 }
]]></style>
<path class="stroke" d="M 30.9927002 8.877736875 L 30.9927002 25.57846625" />
<path class="stroke" d="M 30.9927002 8.877736875 L 69.18248 8.877736875 L 69.18248 25.417882750000004" />
<path class="stroke" d="M 30.9927002 24.2937944 L 69.18248 24.2937944" />
<path class="stroke" d="M 11.24452515 34.115510562500006 L 11.24452515 52.48631287500001" />
<path class="stroke" d="M 11.24452515 34.115510562500006 L 39.88686 34.115510562500006 L 39.88686 52.30967102500001" />
<path class="stroke" d="M 11.24452515 51.07317384 L 39.88686 51.07317384" />
<path class="stroke" d="M 60.24452515 34.115510562500006 L 60.24452515 52.48631287500001" />
<path class="stroke" d="M 60.24452515 34.115510562500006 L 88.88686 34.115510562500006 L 88.88686 52.30967102500001" />
<path class="stroke" d="M 60.24452515 51.07317384 L 88.88686 51.07317384" />
<path class="stroke" d="M 20.07299 66.3087579 L 80.21897 66.3087579" />
<path class="stroke" d="M 50.14598 60.50145978 L 50.14598 92.38466880000001" />
<path class="stroke" d="M 50.14598 68.24452485 C 40.51095 77.01240774 28.832115 81.68102052 13.649633 84.0722595" />
<path class="stroke" d="M 50.14598 68.24452485 C 59.197075 77.12627565 71.45985 81.79488843 86.642334 83.84452485" />
</svg>
