<?xml version="1.0" standalone="no"?>
<!DOCTYPE svg PUBLIC "-//W3C//DTD SVG 1.1//EN" "http://www.w3.org/Graphics/SVG/1.1/DTD/svg11.dtd">
<svg xmlns="http://www.w3.org/2000/svg" version="1.1" width="100%" height="100%">
<style type="text/css"><![CDATA[
  .stroke { fill:none; stroke:black; stroke-width:2 }
]]></style>
<path class="stroke" d="M 8.1240876 10.145985 L 22.401459 10.145985 L 21.87591 29.416058" />
<path class="stroke" d="M 9.437954999999999 29.416058 L 21.788318999999998 29.416058" />
<path class="stroke" d="M 9.3503643 29.416058 L 8.299268999999999 48.9781 L 23.452554 48.9781 C 22.401459 77.59124 19.248174 89.270065 17.8467132 89.270065 L 17.0583939 89.270065" />
<path class="stroke" d="M 65.220829 5.20505 L 65.220829 17.8234" />
<path class="stroke" d="M 34.526816 17.82336 L 95.69402 17.82336" />
<path class="stroke" d="M 66.76659 25.0788 C 56.09725999999999 37.880302 57.773067 35.785538 46.251872 46.857857 C 55.259353 55.236908 50.650872899999996 50.74813 61.962595 64.21447" />
<path class="stroke" d="M 79.57414 43.06 C 57.563592 74.08978 59.4488796 68.40399 35.851734 93.2177 C 54.253389999999996 91.1146 73.09669 87.1188 89.29021 80.9148" />
<path class="stroke" d="M 83.3281 70.5047 C 87.81810999999999 76.6035 90.98316 83.3334 93.26495 91.6404" />
</svg>
