<?xml version="1.0" standalone="no"?>
<!DOCTYPE svg PUBLIC "-//W3C//DTD SVG 1.1//EN" "http://www.w3.org/Graphics/SVG/1.1/DTD/svg11.dtd">
<svg xmlns="http://www.w3.org/2000/svg" version="1.1" width="100%" height="100%">
<style type="text/css"><![CDATA[
  .stroke { fill:none; stroke:black; stroke-width:2 }
]]></style>
<path class="stroke" d="M 50.14598 5.770009344 C 38.75912 14.755369124571429 25.912407 21.802710637714284 9.854013 26.031113856" />
<path class="stroke" d="M 50.14598 5.770009344 C 61.824814 14.403001234285714 73.795616 21.802710637714284 90.43795 25.85493141942857" />
<path class="stroke" d="M 33.8248168 22.857142857142858 L 66.17518000000001 22.857142857142858" />
<path class="stroke" d="M 25.39431 32.0189 L 78.39111 32.3344 L 78.39111 58.8328" />
<path class="stroke" d="M 26.34071 45.26809 L 78.07571 45.26809" />
<path class="stroke" d="M 25.70961 58.5173 L 78.39111 58.8328" />
<path class="stroke" d="M 25.39431 32.0189 L 25.39431 58.5174 C 25.49941 71.346 19.92641 82.5972 12.77601 90.694" />
<path class="stroke" d="M 36.458393560000005 69.49853975 L 36.458393560000005 88.3248165" />
<path class="stroke" d="M 36.458393560000005 69.49853975 L 79.740144 69.49853975 L 79.740144 88.1437951" />
<path class="stroke" d="M 36.458393560000005 86.87664096 L 79.740144 86.87664096" />
</svg>
