<?xml version="1.0" standalone="no"?>
<!DOCTYPE svg PUBLIC "-//W3C//DTD SVG 1.1//EN" "http://www.w3.org/Graphics/SVG/1.1/DTD/svg11.dtd">
<svg xmlns="http://www.w3.org/2000/svg" version="1.1" width="100%" height="100%">
<style type="text/css"><![CDATA[
  .stroke { fill:none; stroke:black; stroke-width:2 }
]]></style>
<path class="stroke" d="M 11.37153205 15.352955600000001 L 34.381748800000004 15.352955600000001" />
<path class="stroke" d="M 18.77294619 15.352955600000001 C 18.63020611 36.5723555 11.26350315 61.1678768 6.83430641 68.0" />
<path class="stroke" d="M 15.80072879 45.927005 L 15.80072879 81.664232" />
<path class="stroke" d="M 15.80072879 45.927005 L 31.681018899999998 45.927005 L 31.57299 81.92700500000001" />
<path class="stroke" d="M 15.692700259999999 79.03649300000001 L 31.57299 79.03649300000001" />
<path class="stroke" d="M 48.7153282 21.8102184 L 65.287957 21.8102184" />
<path class="stroke" d="M 58.0 6.04379448 L 57.750648999999996 46.21090752" />
<path class="stroke" d="M 58.0 23.702186880000003 C 55.3722628 31.05985176 51.5182474 38.8379556 46.087591 44.3036484" />
<path class="stroke" d="M 58.0 25.38394128 C 61.328465800000004 28.116787679999998 63.08029 30.639412800000002 64.832116 34.21313712" />
<path class="stroke" d="M 69.81151779999999 21.8102184 L 88.83211359999999 21.8102184" />
<path class="stroke" d="M 78.846712 6.04379448 L 78.883114 45.537659999999995" />
<path class="stroke" d="M 78.496348 24.5430648 C 76.394158 32.741603999999995 70.963501 40.729927679999996 65.7080284 45.985397039999995" />
<path class="stroke" d="M 78.496348 24.332846399999998 C 81.64963 33.3722592 85.4094604 36.2427048 90.664936 41.4981792" />
<path class="stroke" d="M 45.205048 54.968455 L 94.79494 54.968455 L 92.064514 60.4838705" />
<path class="stroke" d="M 70.1893 54.810725 L 70.0 95.0" />
<path class="stroke" d="M 70.1893 72.94955 L 89.68456 72.94955" />
<path class="stroke" d="M 54.2902 71.8454 C 53.97472 85.88325 50.06308 91.08834999999999 43.880122 96.76655" />
<path class="stroke" d="M 54.2902 71.8454 C 54.85804 96.9243 70.774192 95.16129000000001 83.3548384 96.29032000000001 L 95.93062 96.60884999999999" />
</svg>
