<?xml version="1.0" standalone="no"?>
<!DOCTYPE svg PUBLIC "-//W3C//DTD SVG 1.1//EN" "http://www.w3.org/Graphics/SVG/1.1/DTD/svg11.dtd">
<svg xmlns="http://www.w3.org/2000/svg" version="1.1" width="100%" height="100%">
<style type="text/css"><![CDATA[
  .stroke { fill:none; stroke:black; stroke-width:2 }
]]></style>
<path class="stroke" d="M 11.313868 17.445253 C 15.401459 18.029196 19.48905 20.364962 22.408756 24.160583" />
<path class="stroke" d="M 9.270073 47.226276 C 13.357662 47.226276 18.321167 46.934303 23.86861 43.138683 C 16.27737 53.357662 14.233576 58.321167 15.109488 60.9489 C 15.69343 63.284668 20.948904 65.62044 22.116787 68.832115 C 23.576641 72.33576 18.129246 80.26506 11.021896 83.722626" />
<path class="stroke" d="M 11.021896 84.014595 C 39.692924 81.65476 40.51095 91.313866 90.43795 90.14598" />
<path class="stroke" d="M 41.2335749 13.39050975 L 91.10218599999999 13.39050975" />
<path class="stroke" d="M 41.0291966 13.39050975 L 41.0291966 29.375910750000003 C 41.0291966 62.0036475 38.3722612 67.040142 35.1386133 73.5742575" />
<path class="stroke" d="M 52.83267255 32.0049501 L 84.0831705 32.0049501 C 76.97227545000001 52.433168925 64.99603908 62.41336799999999 44.0376237 71.1460395" />
<path class="stroke" d="M 52.08415821 36.683168925 C 54.870965729999995 46.354837575 64.62580509 54.3145164 67.87741716 57.870968250000004 C 73.77096509999998 63.29032275000001 84.33870732 67.35483599999999 94.37524739999999 71.1460395" />
</svg>
