<?xml version="1.0" standalone="no"?>
<!DOCTYPE svg PUBLIC "-//W3C//DTD SVG 1.1//EN" "http://www.w3.org/Graphics/SVG/1.1/DTD/svg11.dtd">
<svg xmlns="http://www.w3.org/2000/svg" version="1.1" width="100%" height="100%">
<style type="text/css"><![CDATA[
  .stroke { fill:none; stroke:black; stroke-width:2 }
]]></style>
<path class="stroke" d="M 18.430655833333333 9.562042 C 21.350365 11.021896 24.27007 14.817516 26.216541666666668 19.48905" />
<path class="stroke" d="M 8.2116775 22.8707 L 35.46228333333334 22.8707" />
<path class="stroke" d="M 13.564475000000002 37.007298 L 30.109488333333335 37.007298" />
<path class="stroke" d="M 13.564475000000002 51.313866 L 30.109488333333335 51.313866" />
<path class="stroke" d="M 12.59124 64.45255 L 12.59124 85.76642" />
<path class="stroke" d="M 12.59124 64.16058 L 31.569341666666666 64.16058 L 31.569341666666666 85.76642" />
<path class="stroke" d="M 12.59124 85.76642 L 31.326033333333335 85.76642" />
<path class="stroke" d="M 70.087588 7.5731372640000005 C 63.255472 19.366421976 55.5474442 28.616057712 45.9124078 34.165836936" />
<path class="stroke" d="M 70.087588 7.5731372640000005 C 77.0948884 18.90393912 84.27736959999999 28.616057712 94.26276999999999 33.934597487999994" />
<path class="stroke" d="M 60.29489008 30.0 L 79.705108 30.0" />
<path class="stroke" d="M 49.369119999999995 42.6640402 L 49.369119999999995 95.925916" />
<path class="stroke" d="M 49.369119999999995 42.6640402 L 90.44164 42.6640402 L 90.44164 91.553653 C 90.50469999999999 93.872305 88.86436 95.594662 87.22396 95.528449 L 84.76342 95.528449" />
<path class="stroke" d="M 50.126182 68.4999937 L 89.87384800000001 68.6987587" />
<path class="stroke" d="M 63.186088 42.86277685 L 63.186088 94.5346933" />
<path class="stroke" d="M 77.3816884 42.86277811 L 77.3816884 94.7334268" />
</svg>
