<?xml version="1.0" standalone="no"?>
<!DOCTYPE svg PUBLIC "-//W3C//DTD SVG 1.1//EN" "http://www.w3.org/Graphics/SVG/1.1/DTD/svg11.dtd">
<svg xmlns="http://www.w3.org/2000/svg" version="1.1" width="100%" height="100%">
<style type="text/css"><![CDATA[
  .stroke { fill:none; stroke:black; stroke-width:2 }
]]></style>
<path class="stroke" d="M 18.430655833333333 9.562042 C 21.350365 11.021896 24.27007 14.817516 26.216541666666668 19.48905" />
<path class="stroke" d="M 8.2116775 22.8707 L 35.46228333333334 22.8707" />
<path class="stroke" d="M 13.564475000000002 37.007298 L 30.109488333333335 37.007298" />
<path class="stroke" d="M 13.564475000000002 51.313866 L 30.109488333333335 51.313866" />
<path class="stroke" d="M 12.59124 64.45255 L 12.59124 85.76642" />
<path class="stroke" d="M 12.59124 64.16058 L 31.569341666666666 64.16058 L 31.569341666666666 85.76642" />
<path class="stroke" d="M 12.59124 85.76642 L 31.326033333333335 85.76642" />
<path class="stroke" d="M 51.58904886 11.8466201335 L 51.58904886 38.532865648000005" />
<path class="stroke" d="M 51.58904886 11.8466201335 L 83.22700499999999 11.8466201335 L 83.22700499999999 38.532865648000005" />
<path class="stroke" d="M 51.77299185 24.462790716100002 L 83.04306389999999 24.462790716100002" />
<path class="stroke" d="M 51.58904886 37.367990762800005 L 83.22700499999999 37.367990762800005" />
<path class="stroke" d="M 55.376973 47.177520223 C 53.522127 55.055605 48.686121 62.778214330000004 40.2728679 67.70203888" />
<path class="stroke" d="M 53.588277000000005 55.10745808 L 92.73975300000001 55.26291874 L 92.540988 72.67771651000001 C 92.14352099999999 80.55583579000002 87.970086 89.67783751000002 80.81549100000001 89.78149438000001 L 77.834394 89.78149438000001" />
<path class="stroke" d="M 73.70019755460001 66.45355184213501 C 67.7719610712 68.30558640283 63.5727927132 68.788726761025 55.8307434906 69.442707663985" />
<path class="stroke" d="M 55.643289624 61.461108884050006 L 55.643289624 79.33727313010002 C 55.643289624 81.67244859118 58.1385736152 82.96082215678001 61.5967131924 82.96082215678001 L 79.75194160680002 82.96082215678001 C 81.357505074 82.96082215678001 82.2220389288 82.55820433315002 82.2220389288 81.51140352205002 L 82.2220389288 80.78669339140002" />
</svg>
