<?xml version="1.0" standalone="no"?>
<!DOCTYPE svg PUBLIC "-//W3C//DTD SVG 1.1//EN" "http://www.w3.org/Graphics/SVG/1.1/DTD/svg11.dtd">
<svg xmlns="http://www.w3.org/2000/svg" version="1.1" width="100%" height="100%">
<style type="text/css"><![CDATA[
  .stroke { fill:none; stroke:black; stroke-width:2 }
]]></style>
<path class="stroke" d="M 25.07299 9.601459859999999 L 25.07299 20.85401318" />
<path class="stroke" d="M 5.656934 21.09343104 L 44.051095 21.09343104" />
<path class="stroke" d="M 14.771167604999999 35.246817005 L 14.771167604999999 59.64810087" />
<path class="stroke" d="M 14.771167604999999 35.246817005 L 34.820802 35.246817005 L 34.820802 59.413473778" />
<path class="stroke" d="M 14.771167604999999 57.771078508799995 L 34.820802 57.771078508799995" />
<path class="stroke" d="M 25.0026435 58.45401441 L 25.0026435 87.6627707 C 25.0026435 88.50072664999999 24.1970785 88.9795595 23.613138 88.9795595 L 22.59124 88.9795595" />
<path class="stroke" d="M 13.3941595 69.3474434 C 12.6642325 73.5372252 10.474452 77.12846644999999 7.408758 80.00145986" />
<path class="stroke" d="M 35.29197 69.3474434 C 38.2116775 71.86131329999999 40.693428 75.21313832999999 42.153282 80.24087443999998" />
<path class="stroke" d="M 49.52460664 30.75712 L 96.252382 30.75712" />
<path class="stroke" d="M 70.50958624 5.0 C 70.50958624 14.657534 70.50958624 22.219177 70.50958624 30.438354 C 70.50958624 55.42466 49.08517912 87.6446 32.65614784 95.4259" />
<path class="stroke" d="M 70.27287472 38.9863 L 70.50958624 89.287674 C 70.50958624 93.561646 71.9298604 93.561646 74.770408 93.561646 L 79.79354559999999 93.870964 C 84.67096240000001 93.870964 88.1503624 91.927704 88.15483791999999 88.064514 L 88.15483791999999 80.64516" />
<path class="stroke" d="M 83.325301048 9.889586000000001 C 87.19105088799999 12.202946 89.43734864800001 15.273406000000001 90.79558328799999 19.542606" />
</svg>
