<?xml version="1.0" standalone="no"?>
<!DOCTYPE svg PUBLIC "-//W3C//DTD SVG 1.1//EN" "http://www.w3.org/Graphics/SVG/1.1/DTD/svg11.dtd">
<svg xmlns="http://www.w3.org/2000/svg" version="1.1" width="100%" height="100%">
<style type="text/css"><![CDATA[
  .stroke { fill:none; stroke:black; stroke-width:2 }
]]></style>
<path class="stroke" d="M 50.312496 5.2116786 L 50.312496 12.394159799999999" />
<path class="stroke" d="M 14.233576 12.394159799999999 L 14.233576 21.1532844" />
<path class="stroke" d="M 14.233576 12.394159799999999 L 86.05839 12.394159799999999 L 86.05839 21.1532844" />
<path class="stroke" d="M 38.46715 18.3503634 C 35.547443 24.4817502 27.956203 30.262772399999996 19.197079 32.364963" />
<path class="stroke" d="M 60.40019 17.299269 L 60.40019 25.243805999999996 C 60.65693 28.3357656 63.23729 30.034026 67.96229 29.970906 L 85.93139 29.970966" />
<path class="stroke" d="M 47.226276 33.3065688 C 41.38686 40.927006500000005 27.4533 49.46094 11.021896 55.554744 C 35.547443 54.59124 56.861313 54.15328499999999 80.1967 54.21735" />
<path class="stroke" d="M 68.832115 48.72262559999999 C 75.54744 50.38686 81.386856 52.927006500000005 85.18248 56.343062999999994" />
<path class="stroke" d="M 16.569342 79.941604 C 15.985401 83.3284668 13.649633 85.897808 10.145985 87.6496336" />
<path class="stroke" d="M 26.36648 76.06648 L 31.71248 83.18664 C 37.05728 89.10584 46.50528 91.75124 65.70158 91.87668 L 79.927 91.87668 C 82.84671 91.854012 84.40613 91.0651336 84.59853 90.218976 L 84.59853 89.284672" />
<path class="stroke" d="M 48.9781 69.547444 C 53.357662 70.59854 56.569344 72.3503648 59.197075 74.3357652" />
<path class="stroke" d="M 80.51095 72.0 C 84.8905 73.518248 87.51824 75.38686 89.85401 77.4890504" />
</svg>
