<?xml version="1.0" standalone="no"?>
<!DOCTYPE svg PUBLIC "-//W3C//DTD SVG 1.1//EN" "http://www.w3.org/Graphics/SVG/1.1/DTD/svg11.dtd">
<svg xmlns="http://www.w3.org/2000/svg" version="1.1" width="100%" height="100%">
<style type="text/css"><![CDATA[
  .stroke { fill:none; stroke:black; stroke-width:2 }
]]></style>
<path class="stroke" d="M 8.69085 22.0316 L 2.3817 38.1199" />
<path class="stroke" d="M 20.6782 22.0316 L 27.6183 38.1199" />
<path class="stroke" d="M 14.6845 7.3123 L 14.6845 93.3186" />
<path class="stroke" d="M 51.8175167 10.145985 C 50.5912406 19.197079 46.91240809999999 25.036495 42.6204372 28.832115" />
<path class="stroke" d="M 49.364960999999994 19.781021 L 84.92700500000001 19.781021" />
<path class="stroke" d="M 51.8175167 33.16715261 C 51.0 49.08247997 47.7299255 63.15255298 45.2773712 70.99488772000001 C 59.3795614 72.60948340000002 77.9781022 75.8386795 88.8102165 86.6795572" />
<path class="stroke" d="M 51.8175167 33.16715261 L 81.6569312 33.16715261 C 81.04379 50.46642093 78.3868588 73.53211334 73.2773698 84.37298630000001 C 71.6423308 87.14087454000001 68.9853996 88.2941592 66.53284389999999 88.2941592" />
<path class="stroke" d="M 66.53284389999999 33.397809699999996 C 66.1240845 49.31313627 64.6934294 61.99926832 61.2189759 73.07080389999999" />
<path class="stroke" d="M 37.1021895 54.387588300000004 L 93.10218599999999 54.387588300000004" />
</svg>
