<?xml version="1.0" standalone="no"?>
<!DOCTYPE svg PUBLIC "-//W3C//DTD SVG 1.1//EN" "http://www.w3.org/Graphics/SVG/1.1/DTD/svg11.dtd">
<svg xmlns="http://www.w3.org/2000/svg" version="1.1" width="100%" height="100%">
<style type="text/css"><![CDATA[
  .stroke { fill:none; stroke:black; stroke-width:2 }
]]></style>
<path class="stroke" d="M 11.003300000000001 33.069305 L 28.825083333333335 30.9901" />
<path class="stroke" d="M 22.389438333333334 9.60396 L 22.389438333333334 84.15842 C 22.389438333333334 87.42574 20.161715833333336 90.09901 17.19141916666667 90.09901" />
<path class="stroke" d="M 11.498349166666667 63.36634 L 27.09241 46.435642" />
<path class="stroke" d="M 50.277227319999994 14.3267332 C 45.14455504 17.059405599999998 41.50891144 17.772278 34.80583852 18.7372252" />
<path class="stroke" d="M 34.6435408 6.960396 L 34.6435408 33.336631999999994 C 34.6435408 36.782177600000004 36.80395984 38.68316960000001 39.79802008 38.68316960000001 L 55.51683256 38.68316960000001 C 56.9069308 38.68316960000001 57.65544496 38.089108 57.65544496 36.544556 L 57.65544496 35.475248" />
<path class="stroke" d="M 38.9051092 48.864962775 C 38.69488972 52.7189775 37.22335768 57.2153265 36.06715216 58.9817516" />
<path class="stroke" d="M 37.9591228 55.28832065 L 54.98685999999999 55.28832065" />
<path class="stroke" d="M 34.17518224 68.6342362 L 57.509488 68.6342362" />
<path class="stroke" d="M 45.632115999999996 55.77007225 L 45.632115999999996 62.514596850000004 C 45.64972828 77.34864300000001 35.7518242 89.492698 31.862773 91.7408725" />
<path class="stroke" d="M 45.64972828 69.1432425 C 48.57518152 80.17882750000001 53.725546 87.726274 60.137223399999996 91.580289" />
<path class="stroke" d="M 71.875852624 11.58759125 L 89.81173550080001 11.58759125 C 86.746745008 21.441605 84.58989644799999 23.99634875 80.8437940624 27.281019999999998" />
<path class="stroke" d="M 79.027502032 22.536495 C 80.3897219296 26.18613 81.2978677504 29.470801249999997 81.86545898559999 34.215326250000004" />
<path class="stroke" d="M 64.49287110399999 32.3533134 L 96.62712112 32.3533134 L 94.857805072 40.51612834" />
<path class="stroke" d="M 80.6826664 32.119873 L 80.56 91.6" />
<path class="stroke" d="M 80.6826664 58.965334 L 93.31559487999999 58.965334" />
<path class="stroke" d="M 70.3800496 57.331192 C 70.17561856 78.10721 67.64087584 85.81075799999999 63.634319056 94.214494" />
<path class="stroke" d="M 70.3800496 57.331192 C 70.74800992 94.447964 81.06167641600001 91.8387092 89.21393528320002 93.5096736 L 97.36304176 93.98109799999999" />
</svg>
