<?xml version="1.0" standalone="no"?>
<!DOCTYPE svg PUBLIC "-//W3C//DTD SVG 1.1//EN" "http://www.w3.org/Graphics/SVG/1.1/DTD/svg11.dtd">
<svg xmlns="http://www.w3.org/2000/svg" version="1.1" width="100%" height="100%">
<style type="text/css"><![CDATA[
  .stroke { fill:none; stroke:black; stroke-width:2 }
]]></style>
<path class="stroke" d="M 20.770715441176474 11.605839 C 17.979818382352942 27.372261 12.183339705882354 41.970802 7.245597794117647 50.14598" />
<path class="stroke" d="M 16.477026470588235 30.583939 L 16.477026470588235 90.43795" />
<path class="stroke" d="M 27.910096 11.1987 L 67.089895 11.1987" />
<path class="stroke" d="M 44.944810000000004 11.5142 C 42.62623 24.8686 39.7648645 31.189186 31.2999991 45.13513 M 31.17508 44.95273 C 41.44327 43.16513 51.001585 40.43113 59.992135 35.17353" />
<path class="stroke" d="M 56.86909 26.65623 C 59.14042 31.07253 60.84385 37.06623 62.121444999999994 43.05993" />
<path class="stroke" d="M 36.00159325 65.77287 L 60.5599405 65.77287" />
<path class="stroke" d="M 47.92588 50.31547 L 47.937836499999996 87.297295" />
<path class="stroke" d="M 32.46756685 95.0 L 64.28378275 78.540535" />
<path class="stroke" d="M 77.42899 12.1451 L 77.42899 68.612" />
<path class="stroke" d="M 91.34065 6.78233 L 91.34065 84.0694 C 91.43533 89.6425 88.40692 92.3765 84.8107 92.2713 L 81.6877 92.2713" />
</svg>
