<?xml version="1.0" standalone="no"?>
<!DOCTYPE svg PUBLIC "-//W3C//DTD SVG 1.1//EN" "http://www.w3.org/Graphics/SVG/1.1/DTD/svg11.dtd">
<svg xmlns="http://www.w3.org/2000/svg" version="1.1" width="100%" height="100%">
<style type="text/css"><![CDATA[
  .stroke { fill:none; stroke:black; stroke-width:2 }
]]></style>
<path class="stroke" d="M 20.9871286 22.22630907142857 L 38.5950499 22.22630907142857" />
<path class="stroke" d="M 29.960396919999997 11.193776428571429 L 29.960396919999997 36.84441442857143" />
<path class="stroke" d="M 12.183168519999999 37.00446857142857 L 52.816829199999994 37.00446857142857" />
<path class="stroke" d="M 45.1980211 16.98585678571429 C 36.73267351 39.87836 24.034652979999997 54.22065178571429 10.490099229999998 60.84017285714286" />
<path class="stroke" d="M 29.84653428 50.82846637 L 44.33357555 50.82846637 C 42.0591231 55.97883138 39.060310529999995 59.785758 33.36864994 61.689261" />
<path class="stroke" d="M 33.2397156 61.689261 C 35.4315346 67.98453599999999 35.11605805 85.73649610000001 33.4401441 88.59780699999999 C 32.7218979 89.74233185 32.0036476 90.0284649 30.806567729999998 90.1715302" />
<path class="stroke" d="M 18.27722726 70.3544553 L 49.9405941 63.65940596" />
<path class="stroke" d="M 65.89505072 15.5148514 C 64.35049524 26.49900962 60.643565 39.526730799999996 54.92871248 46.93465212" />
<path class="stroke" d="M 60.48910888 37.73861278 L 86.5920772 37.73861278" />
<path class="stroke" d="M 74.544556 37.99405944 C 72.6910888 59.70693352 64.81386204 77.84356296 52.457426 84.2297028" />
<path class="stroke" d="M 60.48910888 44.38019842 C 63.88712792 59.962377599999996 80.41385840000001 84.4851486 89.5267336 84.4851486" />
</svg>
