<?xml version="1.0" standalone="no"?>
<!DOCTYPE svg PUBLIC "-//W3C//DTD SVG 1.1//EN" "http://www.w3.org/Graphics/SVG/1.1/DTD/svg11.dtd">
<svg xmlns="http://www.w3.org/2000/svg" version="1.1" width="100%" height="100%">
<style type="text/css"><![CDATA[
  .stroke { fill:none; stroke:black; stroke-width:2 }
]]></style>
<path class="stroke" d="M 50.14598 8.958540147999999 L 50.14598 12.745984924" />
<path class="stroke" d="M 11.313868 12.826569472 L 88.10219 12.826569472" />
<path class="stroke" d="M 33.88321087999999 17.713284639999998 C 32.48175008 21.7915324 25.19415968 25.617517359999997 11.45985248 28.686715359999997" />
<path class="stroke" d="M 63.8842016 17.793883456 C 75.64671104 20.740437376 83.21458879999999 24.776641599999998 87.6992624 28.770802720000002" />
<path class="stroke" d="M 14.984257 37.99677419354839 L 85.33126 37.99677419354839" />
<path class="stroke" d="M 36.43533 28.227729032258065 L 36.43533 63.396159999999995" />
<path class="stroke" d="M 62.93375 27.983509677419356 L 62.93375 63.39612903225806" />
<path class="stroke" d="M 14.668799 51.18485161290322 L 85.0158 51.18485161290322" />
<path class="stroke" d="M 6.782335 63.88464516129032 L 94.479515 63.88464516129032" />
<path class="stroke" d="M 47.79179 65.00007 C 40.79208 71.653465 28.910892 76.435641 16.732674 78.93069299999999" />
<path class="stroke" d="M 37.82178 72.277228 L 37.82178 92.861386 C 46.435642 91.82178099999999 52.07921 90.78217599999999 58.019806 88.28713099999999" />
<path class="stroke" d="M 78.514854 66.039605 C 74.35644 70.1980201 68.71287 73.5247505 62.178215 75.18812199999999" />
<path class="stroke" d="M 55.940598 71.029702 C 62.47525 79.762377 75.24753 87.03960219999999 89.207924 90.78217599999999" />
</svg>
