<?xml version="1.0" standalone="no"?>
<!DOCTYPE svg PUBLIC "-//W3C//DTD SVG 1.1//EN" "http://www.w3.org/Graphics/SVG/1.1/DTD/svg11.dtd">
<svg xmlns="http://www.w3.org/2000/svg" version="1.1" width="100%" height="100%">
<style type="text/css"><![CDATA[
  .stroke { fill:none; stroke:black; stroke-width:2 }
]]></style>
<path class="stroke" d="M 25.912407 10.729925 C 21.824816 18.029196 16.27737 23.86861 11.021896 28.540146 C 15.109488 31.45985 20.07299 36.131386 24.744522 40.218975" />
<path class="stroke" d="M 37.007298 25.912407 C 30.0 34.67153 20.656933 45.18248 8.978102 56.277367 C 19.48905 54.525543 31.167881 52.48175 41.67883 50.437954" />
<path class="stroke" d="M 38.17518 43.430653 C 41.094887 46.642334 41.970802 49.85401 43.722626 55.40146" />
<path class="stroke" d="M 26.49635 54.233574 L 26.49635 89.56204" />
<path class="stroke" d="M 17.445253 65.03649 C 15.69343 70.87591 13.649633 74.67153 9.562042 78.75912" />
<path class="stroke" d="M 34.08759 65.32846 C 37.299267 68.540146 37.35135 68.81081 38.97297 71.72973" />
<path class="stroke" d="M 75.0 10.467981342080005 L 75.0 21.032000000000004" />
<path class="stroke" d="M 53.75 21.032000000000004 L 96.25 21.032000000000004" />
<path class="stroke" d="M 74.66861248000001 22.207934066944002 C 71.8656928 29.66742812272 65.177584 38.02112494720001 57.29051008 43.98622780672 C 69.06277263999999 43.0430730112 79.29343023999999 42.6143676208 90.494416 42.67707956800001" />
<path class="stroke" d="M 85.03941520000001 37.29840374732801 C 88.2627712 38.9274895168 91.06569088 41.41398812272 92.8875904 44.75789750944" />
<path class="stroke" d="M 68.503649 51.7344808928 L 68.503649 64.72461100160001 C 68.503649 76.17827531200001 64.708029 87.4922602176 55.218978 90.42551528000001" />
<path class="stroke" d="M 77.116787 51.5948029232 L 77.116787 84.559006112 C 77.116787 88.05097688000002 79.014599 90.146158384 81.0583915 90.146158384 L 92.44525 90.146158384 C 94.051095 90.285836832 95.218975 89.168404464 95.218975 87.63193675200002 L 95.218975 84.9780433696" />
</svg>
