<?xml version="1.0" standalone="no"?>
<!DOCTYPE svg PUBLIC "-//W3C//DTD SVG 1.1//EN" "http://www.w3.org/Graphics/SVG/1.1/DTD/svg11.dtd">
<svg xmlns="http://www.w3.org/2000/svg" version="1.1" width="100%" height="100%">
<style type="text/css"><![CDATA[
  .stroke { fill:none; stroke:black; stroke-width:2 }
]]></style>
<path class="stroke" d="M 50.14598 6.95255475 L 50.14598 16.587590249999998" />
<path class="stroke" d="M 12.4817505 16.806567 L 12.4817505 27.31751625" />
<path class="stroke" d="M 12.4817505 16.806567 L 87.81021 16.806567 L 87.81021 27.31751625" />
<path class="stroke" d="M 27.76496024 29.4961676125 L 27.76496024 53.224632400000004" />
<path class="stroke" d="M 27.76496024 29.4961676125 L 73.96642 29.4961676125 L 73.96642 53.224632400000004" />
<path class="stroke" d="M 28.0335754 40.7140198675 L 73.6978076 40.7140198675" />
<path class="stroke" d="M 27.76496024 52.18886689 L 73.96642 52.18886689" />
<path class="stroke" d="M 46.62772208 58.6913364325 C 45.534653520000006 66.2700493225 38.70296996 75.5329213675 32.144554920000004 79.88366356750001 C 47.10510824 81.54835525 68.32554580000001 86.9286466 79.07007399999999 93.688502815" />
<path class="stroke" d="M 68.21584039999999 67.252475575 C 61.38416144 83.25198235 47.17425636 89.28688465 26.15328308 93.27463345000001" />
<path class="stroke" d="M 14.06569196 69.5461668175 L 87.6656892 69.5461668175" />
</svg>
