<?xml version="1.0" standalone="no"?>
<!DOCTYPE svg PUBLIC "-//W3C//DTD SVG 1.1//EN" "http://www.w3.org/Graphics/SVG/1.1/DTD/svg11.dtd">
<svg xmlns="http://www.w3.org/2000/svg" version="1.1" width="100%" height="100%">
<style type="text/css"><![CDATA[
  .stroke { fill:none; stroke:black; stroke-width:2 }
]]></style>
<path class="stroke" d="M 28.96708552 8.7755616 L 83.9343016 8.8686117" />
<path class="stroke" d="M 28.96708552 8.7755616 L 28.69177368 39.2094774 C 23.46084964 76.10723999999999 14.63211472 73.24817039999999 10.382177480000001 81.08910900000001" />
<path class="stroke" d="M 55.32423128 16.718838464199997 C 55.1837252 19.696170559000002 51.8242532 23.150620219 48.8076284 23.265227839" />
<path class="stroke" d="M 41.786130439999994 23.3741087887 L 41.786130439999994 59.90070918999999" />
<path class="stroke" d="M 41.786130439999994 23.2657022785 L 73.536203888 23.2657022785 L 73.536203888 59.90070918999999" />
<path class="stroke" d="M 41.786130439999994 40.4708611225 L 73.536203888 40.4708611225" />
<path class="stroke" d="M 41.786130439999994 58.311289156 L 73.536203888 58.311289156" />
<path class="stroke" d="M 57.50364803 62.385233401300006 L 57.50364803 89.54937675100001 C 57.50364803 90.3286757845 56.39196833 90.773990335 55.58613044 90.773990335 L 54.1759112 90.773990335" />
<path class="stroke" d="M 41.48394011 72.516122362 C 40.476640849999995 76.412619436 37.45474376 79.7524737985 33.22408604 82.4243576698" />
<path class="stroke" d="M 71.7029186 72.516122362 C 75.73211495 74.85402136900001 79.15693063999998 77.9712186469 81.17152915999999 82.6470132292" />
</svg>
