<?xml version="1.0" standalone="no"?>
<!DOCTYPE svg PUBLIC "-//W3C//DTD SVG 1.1//EN" "http://www.w3.org/Graphics/SVG/1.1/DTD/svg11.dtd">
<svg xmlns="http://www.w3.org/2000/svg" version="1.1" width="100%" height="100%">
<style type="text/css"><![CDATA[
  .stroke { fill:none; stroke:black; stroke-width:2 }
]]></style>
<path class="stroke" d="M 5.1262 9.621452 L 45.50475 9.621452" />
<path class="stroke" d="M 5.1262 9.62145 L 5.1262 91.3249 L 46.2934 91.3249" />
<path class="stroke" d="M 41.1627712 23.8992698 C 37.440076 42.634096 23.736604 68.80444 12.04744468 78.497806" />
<path class="stroke" d="M 17.302919080000002 29.85547276 C 24.039436000000002 36.270248 34.525264 55.647800000000004 40.241344 70.949568" />
<path class="stroke" d="M 63.832115 11.605839 C 62.9562035 22.116787 60.6204375 32.627735 57.7007295 39.927006" />
<path class="stroke" d="M 61.642336 26.204376 L 90.9854 26.204376 C 90.693428 34.37956 89.233575 39.927006 86.45985 45.47445" />
<path class="stroke" d="M 75.218977 30.875912 C 75.218977 62.408752 66.16720000000001 79.653 54.9270065 90.14598" />
<path class="stroke" d="M 75.07299 48.394157 C 78.4306565 63.868607 83.3941575 80.21897 95.218975 90.14598" />
</svg>
