<?xml version="1.0" standalone="no"?>
<!DOCTYPE svg PUBLIC "-//W3C//DTD SVG 1.1//EN" "http://www.w3.org/Graphics/SVG/1.1/DTD/svg11.dtd">
<svg xmlns="http://www.w3.org/2000/svg" version="1.1" width="100%" height="100%">
<style type="text/css"><![CDATA[
  .stroke { fill:none; stroke:black; stroke-width:2 }
]]></style>
<path class="stroke" d="M 39.46374599999999 6.78231 C 32.776026 17.92845 23.627765999999998 23.08105 13.911665999999999 24.44795" />
<path class="stroke" d="M 24.51111 27.287025 C 26.214509999999997 29.810724 27.35013 32.018925 28.29651 34.858025" />
<path class="stroke" d="M 35.110397999999996 20.031557 C 36.624678 22.239758 37.570997999999996 24.132557 38.706678 26.656258" />
<path class="stroke" d="M 47.981046 20.66235 C 39.589865999999994 37.17145 24.195605999999998 45.47845 8.801268 46.84545" />
<path class="stroke" d="M 31.514082000000002 40.22091 C 35.615021999999996 47.89701 39.54532199999999 52.95311 39.842262 71.76651 C 40.122761999999994 89.24191 37.318602 94.26911 33.974742 94.16401 L 29.621501999999996 94.16401" />
<path class="stroke" d="M 35.489022 50.31541 C 28.990482 58.83271 20.031522 64.82651 10.883262 68.29651" />
<path class="stroke" d="M 39.085181999999996 64.19551 C 30.757061999999998 76.49851 20.157761999999998 83.75401 8.233445999999999 88.17041" />
<path class="stroke" d="M 57.75241 9.93691 L 88.11516 9.93691 L 88.11516 48.4228" />
<path class="stroke" d="M 57.925891 29.49524 L 87.76812100000001 29.49524" />
<path class="stroke" d="M 57.92588 48.4228 L 88.11516 48.4228" />
<path class="stroke" d="M 57.75241 9.93691 L 57.75241 86.9085 M 48.730281500000004 93.53316 C 55.034145 88.485756 61.511605 85.96206 69.723985 85.64666" />
<path class="stroke" d="M 93.32016200000001 52.8391 C 88.982587 58.4121 85.51258200000001 63.0389 82.73656700000001 69.8738" />
<path class="stroke" d="M 73.887958 48.7383 C 75.680848 74.5005 82.158253 87.0136 95.228728 92.9022" />
</svg>
