<?xml version="1.0" standalone="no"?>
<!DOCTYPE svg PUBLIC "-//W3C//DTD SVG 1.1//EN" "http://www.w3.org/Graphics/SVG/1.1/DTD/svg11.dtd">
<svg xmlns="http://www.w3.org/2000/svg" version="1.1" width="100%" height="100%">
<style type="text/css"><![CDATA[
  .stroke { fill:none; stroke:black; stroke-width:2 }
]]></style>
<path class="stroke" d="M 16.167883 17.065691960000002 L 16.14094 59.186582800000004 C 12.7181205 81.7852328 12.7181205 81.0442924 8.892617 90.67651392" />
<path class="stroke" d="M 16.167883 17.065691960000002 L 36.60584 17.065691960000002 L 36.60584 87.1737188 C 36.60584 89.3226272 36.021895 91.202914 34.562042 91.202914 L 32.956205 91.202914" />
<path class="stroke" d="M 16.167883 37.313570840000004 L 36.60584 37.313570840000004" />
<path class="stroke" d="M 16.167883 58.70150912 L 36.60584 58.70150912" />
<path class="stroke" d="M 46.52919625 7.245597794117647 C 50.32481665 10.680549264705883 53.36131245 15.403605882352942 55.63868495 19.911979411764708" />
<path class="stroke" d="M 86.7627695 7.245597794117647 C 85.2141614 11.496349264705882 82.018244 16.477026470588235 78.791969 20.126662500000002" />
<path class="stroke" d="M 50.074306156 23.895218337499998 L 50.074306156 54.351275724999994" />
<path class="stroke" d="M 50.074306156 23.895218337499998 L 79.86233440000001 23.895218337499998 L 79.86233440000001 54.058429815000004" />
<path class="stroke" d="M 50.074306156 52.008501423999995 L 79.86233440000001 52.008501423999995" />
<path class="stroke" d="M 59.0547437 56.545145207 L 59.0547437 68.316092954 C 59.0547437 78.69477915499999 54.1204377 88.94689549399999 41.7846714 91.604851325" />
<path class="stroke" d="M 70.2518231 56.4185766455 L 70.2518231 86.28894053 C 70.2518231 89.453174075 72.71897870000001 91.351713335 75.37590895 91.351713335 L 90.178825 91.351713335 C 92.2664235 91.47828233 93.78466750000001 90.465726035 93.78466750000001 89.073462755 L 93.78466750000001 86.668649249" />
</svg>
