<?xml version="1.0" standalone="no"?>
<!DOCTYPE svg PUBLIC "-//W3C//DTD SVG 1.1//EN" "http://www.w3.org/Graphics/SVG/1.1/DTD/svg11.dtd">
<svg xmlns="http://www.w3.org/2000/svg" version="1.1" width="100%" height="100%">
<style type="text/css"><![CDATA[
  .stroke { fill:none; stroke:black; stroke-width:2 }
]]></style>
<path class="stroke" d="M 22.7299256 10.729925 C 19.4598528 18.029196 15.021896000000002 23.86861 10.8175168 28.540146 C 14.087590400000002 31.45985 18.058392 36.131386 21.7956176 40.218975" />
<path class="stroke" d="M 31.6058384 25.912407 C 26.0 34.67153 18.5255464 45.18248 9.1824816 56.277367 C 17.59124 54.525543 26.934304800000003 52.48175 35.343064 50.437954" />
<path class="stroke" d="M 32.540144 43.430653 C 34.8759096 46.642334 35.5766416 49.85401 36.9781008 55.40146" />
<path class="stroke" d="M 23.19708 54.233574 L 23.19708 89.56204" />
<path class="stroke" d="M 15.956202400000002 65.03649 C 14.554744 70.87591 12.9197064 74.67153 9.649633600000001 78.75912" />
<path class="stroke" d="M 29.270072 65.32846 C 31.8394136 68.540146 31.881079999999997 68.81081 33.178376 71.72973" />
<path class="stroke" d="M 55.8248162 9.270073 C 53.89781 20.364962 50.744524999999996 25.328465 46.1897798 30.29197" />
<path class="stroke" d="M 55.124087599999996 14.9842 L 70.364963 14.9842 C 69.3138662 23.86861 67.03649419999999 29.124084 64.0583918 34.37956" />
<path class="stroke" d="M 47.55836 36.11986 L 78.072989 36.11986 L 78.072989 55.10949" />
<path class="stroke" d="M 63.007298 36.131386 L 63.007298 55.10949" />
<path class="stroke" d="M 47.504951 55.10949 L 77.8978076 55.10949" />
<path class="stroke" d="M 47.55836 36.4354 L 47.55836 81.09489 C 47.504951 85.9406 48.642335 90.14598 51.4452536 90.14598 L 86.30657 90.14598 C 88.2335756 90.14598 89.9854004 88.10219 89.9854004 85.76642 L 89.9854004 81.386856" />
</svg>
