<?xml version="1.0" standalone="no"?>
<!DOCTYPE svg PUBLIC "-//W3C//DTD SVG 1.1//EN" "http://www.w3.org/Graphics/SVG/1.1/DTD/svg11.dtd">
<svg xmlns="http://www.w3.org/2000/svg" version="1.1" width="100%" height="100%">
<style type="text/css"><![CDATA[
  .stroke { fill:none; stroke:black; stroke-width:2 }
]]></style>
<path class="stroke" d="M 49.999996 5.0 C 52.376232 7.6732674 52.793365 10.037088 52.918915 12.702702" />
<path class="stroke" d="M 12.702702 13.675674 L 92.81081 13.351351" />
<path class="stroke" d="M 12.378378 13.999998 L 12.702702 39.62162 C 12.702702 61.30479 14.560343 79.686905 6.5405407 92.162155" />
<path class="stroke" d="M 27.85247463 31.82574262 L 39.745545820000004 31.82574262 C 38.37326645 42.80396141 34.94257457 49.43663515 29.68217789 56.52673355" />
<path class="stroke" d="M 29.68217789 56.52673355 L 39.745545820000004 56.52673355 C 37.772369999999995 70.43053499999999 34.533673 80.632496 27.395049200000003 90.3762377" />
<path class="stroke" d="M 27.85247463 70.7069342 C 35.1712869 72.0792051 46.14950492 85.80198340000001 60.787131 87.40297125 C 71.0792051 88.77525062000001 75.8821802 89.9188115 89.1475246 89.9188115" />
<path class="stroke" d="M 80.611195337 29.8771089484 C 72.7206024191 31.9400992162 61.989395986999995 33.440455258 53.940990498800005 34.1906329632" />
<path class="stroke" d="M 48.1019509001 52.57 L 86.1346140455 52.57" />
<path class="stroke" d="M 67.355 32.8778222948 L 67.355 76.0130712824" />
<path class="stroke" d="M 54.0988009439 76.0130712824 L 81.084631454 76.0130712824" />
</svg>
