<?xml version="1.0" standalone="no"?>
<!DOCTYPE svg PUBLIC "-//W3C//DTD SVG 1.1//EN" "http://www.w3.org/Graphics/SVG/1.1/DTD/svg11.dtd">
<svg xmlns="http://www.w3.org/2000/svg" version="1.1" width="100%" height="100%">
<style type="text/css"><![CDATA[
  .stroke { fill:none; stroke:black; stroke-width:2 }
]]></style>
<path class="stroke" d="M 20.69489024 9.854013 L 20.6604032 55.63759 C 16.27919424 80.20134 16.27919424 79.39597 11.38254976 89.865776" />
<path class="stroke" d="M 20.69489024 9.854013 L 46.8554752 9.854013 L 46.8554752 86.05839 C 46.8554752 88.39416 46.108025600000005 90.43795 44.23941376 90.43795 L 42.1839424 90.43795" />
<path class="stroke" d="M 20.69489024 31.862577 L 46.8554752 31.862577" />
<path class="stroke" d="M 20.69489024 55.110336 L 46.8554752 55.110336" />
<path class="stroke" d="M 62.372261 33.211678 L 91.715325 30.875912 C 90.9854 64.16058 88.79562 81.9708 88.06569300000001 85.76642 C 87.18977749999999 88.978096 85.437955 89.85401 83.9781 90.14598 L 82.51824500000001 89.85401" />
<path class="stroke" d="M 76.824815 10.437956 C 75.07299 43.138683 69.37956 76.423355 60.182480999999996 85.76642" />
</svg>
