<?xml version="1.0" standalone="no"?>
<!DOCTYPE svg PUBLIC "-//W3C//DTD SVG 1.1//EN" "http://www.w3.org/Graphics/SVG/1.1/DTD/svg11.dtd">
<svg xmlns="http://www.w3.org/2000/svg" version="1.1" width="100%" height="100%">
<style type="text/css"><![CDATA[
  .stroke { fill:none; stroke:black; stroke-width:2 }
]]></style>
<path class="stroke" d="M 29.80198 15.169731803571427 L 60.69307 15.169731803571427" />
<path class="stroke" d="M 45.544556 6.8953323214285716 L 45.544556 26.133310821428573" />
<path class="stroke" d="M 14.356436 26.253351428571428 L 85.64356 26.253351428571428" />
<path class="stroke" d="M 72.27723 11.239392589285716 C 57.425743 28.40877 35.148514 39.165488839285715 11.386139 44.13012964285714" />
<path class="stroke" d="M 31.81605584 39.082663912499996 L 31.81605584 67.22572679999999" />
<path class="stroke" d="M 31.81605584 39.082663912499996 L 67.97371999999999 39.082663912499996 L 67.97371999999999 67.22572679999999" />
<path class="stroke" d="M 32.0262764 52.3875584475 L 67.7635016 52.3875584475" />
<path class="stroke" d="M 31.81605584 65.99726073 L 67.97371999999999 65.99726073" />
<path class="stroke" d="M 18.613138 77.00729 C 18.029196 82.55474 15.69343 87.22627 11.89781 89.85401" />
<path class="stroke" d="M 35.255474 77.88321 C 38.46715 81.678825 40.218975 85.18248 41.67883 90.14598" />
<path class="stroke" d="M 59.197075 78.17518 C 62.408752 81.678825 63.868607 85.47445 65.32846 90.43795" />
<path class="stroke" d="M 81.386856 78.17518 C 84.8905 81.678825 86.9343 84.8905 88.68613 90.43795" />
</svg>
