<?xml version="1.0" standalone="no"?>
<!DOCTYPE svg PUBLIC "-//W3C//DTD SVG 1.1//EN" "http://www.w3.org/Graphics/SVG/1.1/DTD/svg11.dtd">
<svg xmlns="http://www.w3.org/2000/svg" version="1.1" width="100%" height="100%">
<style type="text/css"><![CDATA[
  .stroke { fill:none; stroke:black; stroke-width:2 }
]]></style>
<path class="stroke" d="M 13.154171785714285 14.059406 C 16.654879285714284 16.138615 20.15558785714286 19.108912 23.01980357142857 22.673267" />
<path class="stroke" d="M 10.926448928571428 38.118813 C 14.108912142857141 39.90099 17.927864999999997 42.574257 20.473834285714286 46.138615" />
<path class="stroke" d="M 10.608203571428572 85.64356 C 11.321795357142857 87.422676 13.310014285714285 89.896904 15.629600357142856 89.896904 C 17.949189642857142 89.896904 21.110325 76.73267 23.33804892857143 69.60396" />
<path class="stroke" d="M 38.451094749999996 20.160000000000004 L 66.3489035 20.160000000000004" />
<path class="stroke" d="M 52.4 9.51386856 L 52.4 32.404377600000004" />
<path class="stroke" d="M 44.798101122 34.813328193000004 L 44.798101122 58.843457184" />
<path class="stroke" d="M 44.798101122 34.813328193000004 L 59.914013499999996 34.813328193000004 L 59.914013499999996 58.843457184" />
<path class="stroke" d="M 44.885984995 46.173795003799995 L 59.82613053 46.173795003799995" />
<path class="stroke" d="M 44.798101122 57.7945238024 L 59.914013499999996 57.7945238024" />
<path class="stroke" d="M 38.34890455 70.24060338999999 L 66.655472 70.24060338999999" />
<path class="stroke" d="M 52.3731795 60.264164131 L 52.3731795 90.425832106" />
<path class="stroke" d="M 73.001970634 17.868611700000002 L 72.98047011999999 59.073831000000006 C 70.249060159 81.181206 70.249060159 80.45637300000001 67.196308366 89.87919839999999" />
<path class="stroke" d="M 73.001970634 17.868611700000002 L 89.31146032 17.868611700000002 L 89.31146032 86.452551 C 89.31146032 88.554744 88.84547221 90.394155 87.680509516 90.394155 L 86.39905159 90.394155" />
<path class="stroke" d="M 73.001970634 37.6763193 L 89.31146032 37.6763193" />
<path class="stroke" d="M 73.001970634 58.5993024 L 89.31146032 58.5993024" />
</svg>
