<?xml version="1.0" standalone="no"?>
<!DOCTYPE svg PUBLIC "-//W3C//DTD SVG 1.1//EN" "http://www.w3.org/Graphics/SVG/1.1/DTD/svg11.dtd">
<svg xmlns="http://www.w3.org/2000/svg" version="1.1" width="100%" height="100%">
<style type="text/css"><![CDATA[
  .stroke { fill:none; stroke:black; stroke-width:2 }
]]></style>
<path class="stroke" d="M 11.807549999999999 10.8833 L 43.03785 10.8833 L 43.03785 49.0537" />
<path class="stroke" d="M 7.86435 30.12615 L 50.76655 30.12615" />
<path class="stroke" d="M 11.9653 49.0536 L 43.03785 49.0537" />
<path class="stroke" d="M 26.1609 11.1988 C 23.79495 44.9527 20.85065 64.3008 6.917945 77.7603" />
<path class="stroke" d="M 19.370437625 63.4496345 L 19.370437625 88.956203" />
<path class="stroke" d="M 19.370437625 63.4496345 L 43.23905 63.4496345 L 43.23905 88.7109482" />
<path class="stroke" d="M 19.370437625 86.99415872 L 43.23905 86.99415872" />
<path class="stroke" d="M 64.85149 15.544554 L 88.31683 15.544554 C 88.31683 20.891088 86.83168 31.881187 78.81188 39.009903" />
<path class="stroke" d="M 78.514854 39.009903 C 82.2292 42.6393 89.80198 50.29703 89.80198 59.207924 L 89.80198 63.069305 C 89.80198 66.63367 87.42574 68.71287 83.564354 68.71287 L 71.68317 68.41584" />
<path class="stroke" d="M 64.85149 15.544554 L 64.85149 90.09901" />
</svg>
