<?xml version="1.0" standalone="no"?>
<!DOCTYPE svg PUBLIC "-//W3C//DTD SVG 1.1//EN" "http://www.w3.org/Graphics/SVG/1.1/DTD/svg11.dtd">
<svg xmlns="http://www.w3.org/2000/svg" version="1.1" width="100%" height="100%">
<style type="text/css"><![CDATA[
  .stroke { fill:none; stroke:black; stroke-width:2 }
]]></style>
<path class="stroke" d="M 8.350785 20.157066 L 41.96335 20.157066" />
<path class="stroke" d="M 11.4963495 34.67153 L 11.350365 62.70073" />
<path class="stroke" d="M 11.350365 34.67153 L 38.64963 34.67153 L 38.64963 62.70073" />
<path class="stroke" d="M 11.350365 48.63624 L 38.503645 48.63624" />
<path class="stroke" d="M 11.350365 62.9927 L 38.64963 62.9927" />
<path class="stroke" d="M 7.554744 77.59124 L 42.44525 77.59124" />
<path class="stroke" d="M 25.092815 8.978102 L 25.092815 90.72992" />
<path class="stroke" d="M 61.9306925 10.23366296 L 86.732675 10.23366296 C 81.0891075 31.24554518 71.584158 41.5108928 54.950495000000004 50.4930692" />
<path class="stroke" d="M 61.3366335 15.045545180000001 C 63.5483855 24.993547220000004 71.2903215 33.180645440000006 73.870966 36.8387102 C 78.548385 42.412903400000005 86.93548200000001 46.593545600000006 94.90099000000001 50.4930692" />
<path class="stroke" d="M 59.1605835 70.7839408 L 90.83941250000001 70.7839408" />
<path class="stroke" d="M 75.0 55.74160523 L 75.0 90.3926966" />
<path class="stroke" d="M 54.9270065 90.3926966 L 94.92700500000001 90.3926966" />
</svg>
