<?xml version="1.0" standalone="no"?>
<!DOCTYPE svg PUBLIC "-//W3C//DTD SVG 1.1//EN" "http://www.w3.org/Graphics/SVG/1.1/DTD/svg11.dtd">
<svg xmlns="http://www.w3.org/2000/svg" version="1.1" width="100%" height="100%">
<style type="text/css"><![CDATA[
  .stroke { fill:none; stroke:black; stroke-width:2 }
]]></style>
<path class="stroke" d="M 13.154171785714285 14.059406 C 16.654879285714284 16.138615 20.15558785714286 19.108912 23.01980357142857 22.673267" />
<path class="stroke" d="M 10.926448928571428 38.118813 C 14.108912142857141 39.90099 17.927864999999997 42.574257 20.473834285714286 46.138615" />
<path class="stroke" d="M 10.608203571428572 85.64356 C 11.321795357142857 87.422676 13.310014285714285 89.896904 15.629600357142856 89.896904 C 17.949189642857142 89.896904 21.110325 76.73267 23.33804892857143 69.60396" />
<path class="stroke" d="M 29.613565 11.8297 L 95.38645 11.8297" />
<path class="stroke" d="M 35.055175 30.1262 L 35.055175 91.9558" />
<path class="stroke" d="M 35.055175 30.1262 L 90.181375 30.1262 L 90.181375 91.9558" />
<path class="stroke" d="M 55.1656 12.145157 L 55.1656 37.381756 C 54.758063500000006 44.51613 46.290322 57.741936 35.403226000000004 60.645157" />
<path class="stroke" d="M 69.5977975 11.8297 L 69.5977975 55.6783 C 69.2823475 59.3587 71.096221 62.0926 73.61989750000001 61.9875 L 80.48104749999999 61.9875 C 82.2949225 61.8823 84.58197249999999 59.8844 84.503143 55.9938 L 84.503143 51.5774" />
<path class="stroke" d="M 35.055175 74.6057 L 90.181375 74.6057" />
<path class="stroke" d="M 35.055175 91.9558 L 90.181375 91.9558" />
</svg>
