<?xml version="1.0" standalone="no"?>
<!DOCTYPE svg PUBLIC "-//W3C//DTD SVG 1.1//EN" "http://www.w3.org/Graphics/SVG/1.1/DTD/svg11.dtd">
<svg xmlns="http://www.w3.org/2000/svg" version="1.1" width="100%" height="100%">
<style type="text/css"><![CDATA[
  .stroke { fill:none; stroke:black; stroke-width:2 }
]]></style>
<path class="stroke" d="M 41.094887 10.729925 C 33.79562 15.109488 25.036495 18.029196 17.153284 19.781021" />
<path class="stroke" d="M 11.021896 41.094887 L 45.18248 37.299267" />
<path class="stroke" d="M 30.0 16.569342 L 30.0 86.642334" />
<path class="stroke" d="M 30.0 44.890507 C 23.284672 57.153282 17.737225 65.03649 10.145985 68.540146" />
<path class="stroke" d="M 30.0 44.890507 C 36.131386 48.394157 39.635033 51.313866 42.55474 56.277367" />
<path class="stroke" d="M 48.9970795 7.245597794117647 C 52.61751742 10.680549264705883 55.51386726 15.403605882352942 57.68613026 19.911979411764708" />
<path class="stroke" d="M 87.37371859999999 7.245597794117647 C 85.89658471999999 11.496349264705882 82.8481712 16.477026470588235 79.7708012 20.126662500000002" />
<path class="stroke" d="M 52.3785689488 23.895218337499998 L 52.3785689488 54.351275724999994" />
<path class="stroke" d="M 52.3785689488 23.895218337499998 L 80.79176512 23.895218337499998 L 80.79176512 54.058429815000004" />
<path class="stroke" d="M 52.3785689488 52.008501423999995 L 80.79176512 52.008501423999995" />
<path class="stroke" d="M 60.94452476 56.545145207 L 60.94452476 68.316092954 C 60.94452476 78.69477915499999 56.23795596 88.94689549399999 44.47153272 91.604851325" />
<path class="stroke" d="M 71.62481588 56.4185766455 L 71.62481588 86.28894053 C 71.62481588 89.453174075 73.97810276 91.351713335 76.51240546 91.351713335 L 90.63211000000001 91.351713335 C 92.6233578 91.47828233 94.071529 90.465726035 94.071529 89.073462755 L 94.071529 86.668649249" />
</svg>
