<?xml version="1.0" standalone="no"?>
<!DOCTYPE svg PUBLIC "-//W3C//DTD SVG 1.1//EN" "http://www.w3.org/Graphics/SVG/1.1/DTD/svg11.dtd">
<svg xmlns="http://www.w3.org/2000/svg" version="1.1" width="100%" height="100%">
<style type="text/css"><![CDATA[
  .stroke { fill:none; stroke:black; stroke-width:2 }
]]></style>
<path class="stroke" d="M 8.946819428571429 27.956203 L 28.46715257142857 27.956203" />
<path class="stroke" d="M 20.45880857142857 9.270073 L 20.45880857142857 90.14598" />
<path class="stroke" d="M 20.45880857142857 36.131386 C 17.20542 44.598537 13.20125057142857 52.48175 7.4452551428571425 56.861313" />
<path class="stroke" d="M 20.45880857142857 36.131386 C 24.212719714285715 37.299267 26.71532657142857 42.26277 27.96663 46.934303" />
<path class="stroke" d="M 45.7886428 5.520505 C 49.910593500000004 8.780255 53.1492828 13.617185 55.50471209999999 18.769686" />
<path class="stroke" d="M 82.2240152 5.83596 C 78.322841 9.30603 75.304861 13.7225 72.9495038 19.0852" />
<path class="stroke" d="M 35.8517354 19.40062 L 95.03151899999999 19.40062" />
<path class="stroke" d="M 41.813879 34.858 L 87.08196899999999 34.858" />
<path class="stroke" d="M 35.6309155 50.0 L 94.8107012 50.0" />
<path class="stroke" d="M 64.558391 19.716116 L 64.7792396 89.74761 C 64.852881 93.007416 63.159858899999996 95.00532 61.6877589 94.79501 L 56.608838899999995 94.79501" />
<path class="stroke" d="M 42.9179498 59.1483 C 46.9663312 60.9359 50.1314498 65.2471 52.6340905 69.8739" />
<path class="stroke" d="M 36.955837 88.80123 C 45.64143 86.38273 52.33959 83.01793 59.2586 74.29033" />
<path class="stroke" d="M 88.40692899999999 58.5173 C 85.24187900000001 64.8264 82.076829 68.612 77.145119 69.8738" />
<path class="stroke" d="M 64.77922000000001 58.20194 C 71.03575000000001 76.39324 79.5005 87.01364 91.94005999999999 90.69404" />
</svg>
