<?xml version="1.0" standalone="no"?>
<!DOCTYPE svg PUBLIC "-//W3C//DTD SVG 1.1//EN" "http://www.w3.org/Graphics/SVG/1.1/DTD/svg11.dtd">
<svg xmlns="http://www.w3.org/2000/svg" version="1.1" width="100%" height="100%">
<style type="text/css"><![CDATA[
  .stroke { fill:none; stroke:black; stroke-width:2 }
]]></style>
<path class="stroke" d="M 10.267693518518518 11.8297 L 42.445910185185184 11.8297" />
<path class="stroke" d="M 9.71763888888889 30.09901 L 9.71763888888889 89.80198" />
<path class="stroke" d="M 9.71763888888889 30.1262 L 43.546018518518515 30.1262 L 43.546018518518515 89.80198" />
<path class="stroke" d="M 20.99376574074074 11.683168 L 20.99376574074074 40.79208 C 20.99376574074074 47.326733 20.718737037037037 54.455444 14.66813425925926 58.61386" />
<path class="stroke" d="M 31.444811111111115 11.980198 L 31.444811111111115 42.574257 C 31.444811111111115 48.811882 31.444811111111115 53.861385 35.84525 53.861385 L 38.320499999999996 53.861385" />
<path class="stroke" d="M 14.393105555555556 71.9802 L 39.145583333333335 71.9802" />
<path class="stroke" d="M 9.71763888888889 89.80198 L 43.546018518518515 89.80198" />
<path class="stroke" d="M 66.459852 7.554744 L 66.459852 15.437956 C 66.459852 26.9708025 62.5182475 36.751825 55.948904999999996 42.44525" />
<path class="stroke" d="M 56.5328465 16.167883 L 78.86861 13.6861305 L 78.86861 35.437955 C 78.86861 39.08759 80.912407 41.131385 83.832115 41.27737 L 91.861313 41.27737 C 93.46715 41.131385 94.92700500000001 40.109485 95.07299 38.065693 L 95.07299 35.729925" />
<path class="stroke" d="M 55.0729925 73.5 L 94.92700500000001 73.5" />
<path class="stroke" d="M 75.0 54.489051 L 75.0 95.36496" />
</svg>
