<?xml version="1.0" standalone="no"?>
<!DOCTYPE svg PUBLIC "-//W3C//DTD SVG 1.1//EN" "http://www.w3.org/Graphics/SVG/1.1/DTD/svg11.dtd">
<svg xmlns="http://www.w3.org/2000/svg" version="1.1" width="100%" height="100%">
<style type="text/css"><![CDATA[
  .stroke { fill:none; stroke:black; stroke-width:2 }
]]></style>
<path class="stroke" d="M 29.759317567567567 15.109488 C 23.959358783783784 22.70073 17.883209324324326 27.956203 12.635626216216215 30.875912" />
<path class="stroke" d="M 31.416452162162162 35.547443 C 25.616492432432434 43.138683 17.330833648648646 49.85401 9.873742162162161 53.06569" />
<path class="stroke" d="M 23.13079337837838 45.47445 L 23.13079337837838 89.85401" />
<path class="stroke" d="M 47.3211654 6.915036079999999 L 47.3211654 43.409047040000004" />
<path class="stroke" d="M 47.3211654 6.915036079999999 L 82.47444999999999 6.915036079999999 L 82.47444999999999 43.409047040000004" />
<path class="stroke" d="M 47.5255465 24.167918928000002 L 82.270071 24.167918928000002" />
<path class="stroke" d="M 47.3211654 41.816055744 L 82.47444999999999 41.816055744" />
<path class="stroke" d="M 41.788612107999995 55.8 L 88.2113833 55.8" />
<path class="stroke" d="M 37.3065692 67.86423266 L 92.4890455 67.86423266" />
<path class="stroke" d="M 75.934308 60.87445238 L 75.934308 92.0218964 C 75.934308 93.1255472 75.116785 93.8613116 73.2773698 93.8613116 L 67.7591235 93.8613116" />
<path class="stroke" d="M 48.547444999999996 72.52408646 C 51.0 73.62773684 53.2481746 75.22189724 55.0875891 77.91970634" />
</svg>
