<?xml version="1.0" standalone="no"?>
<!DOCTYPE svg PUBLIC "-//W3C//DTD SVG 1.1//EN" "http://www.w3.org/Graphics/SVG/1.1/DTD/svg11.dtd">
<svg xmlns="http://www.w3.org/2000/svg" version="1.1" width="100%" height="100%">
<style type="text/css"><![CDATA[
  .stroke { fill:none; stroke:black; stroke-width:2 }
]]></style>
<path class="stroke" d="M 18.430655833333333 9.562042 C 21.350365 11.021896 24.27007 14.817516 26.216541666666668 19.48905" />
<path class="stroke" d="M 8.2116775 22.8707 L 35.46228333333334 22.8707" />
<path class="stroke" d="M 13.564475000000002 37.007298 L 30.109488333333335 37.007298" />
<path class="stroke" d="M 13.564475000000002 51.313866 L 30.109488333333335 51.313866" />
<path class="stroke" d="M 12.59124 64.45255 L 12.59124 85.76642" />
<path class="stroke" d="M 12.59124 64.16058 L 31.569341666666666 64.16058 L 31.569341666666666 85.76642" />
<path class="stroke" d="M 12.59124 85.76642 L 31.326033333333335 85.76642" />
<path class="stroke" d="M 70.087588 8.958540147999999 L 70.087588 12.745984924" />
<path class="stroke" d="M 46.7883208 12.826569472 L 92.861314 12.826569472" />
<path class="stroke" d="M 60.329926527999994 17.713284639999998 C 59.489050047999996 21.7915324 55.116495807999996 25.617517359999997 46.875911488 28.686715359999997" />
<path class="stroke" d="M 78.33052096 17.793883456 C 85.38802662399999 20.740437376 89.92875328 24.776641599999998 92.61955744 28.770802720000002" />
<path class="stroke" d="M 48.9905542 37.99677419354839 L 91.198756 37.99677419354839" />
<path class="stroke" d="M 61.861198 28.227729032258065 L 61.861198 63.396159999999995" />
<path class="stroke" d="M 77.76025 27.983509677419356 L 77.76025 63.39612903225806" />
<path class="stroke" d="M 48.8012794 51.18485161290322 L 91.00948 51.18485161290322" />
<path class="stroke" d="M 44.069401 63.88464516129032 L 96.68770900000001 63.88464516129032" />
<path class="stroke" d="M 68.675074 65.00007 C 64.475248 71.653465 57.3465352 76.435641 50.0396044 78.93069299999999" />
<path class="stroke" d="M 62.693068 72.277228 L 62.693068 92.861386 C 67.8613852 91.82178099999999 71.247526 90.78217599999999 74.8118836 88.28713099999999" />
<path class="stroke" d="M 87.10891240000001 66.039605 C 84.613864 70.1980201 81.227722 73.5247505 77.306929 75.18812199999999" />
<path class="stroke" d="M 73.56435880000001 71.029702 C 77.48515 79.762377 85.148518 87.03960219999999 93.5247544 90.78217599999999" />
</svg>
