<?xml version="1.0" standalone="no"?>
<!DOCTYPE svg PUBLIC "-//W3C//DTD SVG 1.1//EN" "http://www.w3.org/Graphics/SVG/1.1/DTD/svg11.dtd">
<svg xmlns="http://www.w3.org/2000/svg" version="1.1" width="100%" height="100%">
<style type="text/css"><![CDATA[
  .stroke { fill:none; stroke:black; stroke-width:2 }
]]></style>
<path class="stroke" d="M 11.507565943396227 11.99405862 L 11.507565943396227 46.92475134" />
<path class="stroke" d="M 11.507565943396227 11.99405862 L 44.48907452830189 11.99405862 L 44.48907452830189 46.92475134" />
<path class="stroke" d="M 11.507565943396227 29.459405959999998 L 44.48907452830189 29.459405959999998" />
<path class="stroke" d="M 11.507565943396227 46.92475134 L 44.48907452830189 46.92475134" />
<path class="stroke" d="M 27.84420037735849 11.99405862 L 27.84420037735849 79.5267318" />
<path class="stroke" d="M 13.973473301886791 62.3524768 L 42.023165094339625 62.3524768" />
<path class="stroke" d="M 10.582849905660378 81.85544308 L 45.72202509433963 77.1980166" />
<path class="stroke" d="M 57.0792066 11.99405862 L 82.05940408 11.99405862 C 78.44158680000001 19.85346458 75.85742406 23.34653542 71.097766 25.649948" />
<path class="stroke" d="M 65.05995092 20.0851454 C 68.35336434 23.0734594 70.1830306 27.2985334 71.64671976 32.4510794" />
<path class="stroke" d="M 51.738613 38.48316756 L 89.6396062 38.48316756 C 85.33267468 46.342573519999995 80.5089098 50.7089106 75.6851484 51.8732682" />
<path class="stroke" d="M 70.68910844 43.72277186 L 70.68910844 84.76633512 C 70.68910844 87.9683146 69.4831678 90.2970298 67.7603967 90.2970298 L 65.5207934 90.2970298" />
</svg>
