<?xml version="1.0" standalone="no"?>
<!DOCTYPE svg PUBLIC "-//W3C//DTD SVG 1.1//EN" "http://www.w3.org/Graphics/SVG/1.1/DTD/svg11.dtd">
<svg xmlns="http://www.w3.org/2000/svg" version="1.1" width="100%" height="100%">
<style type="text/css"><![CDATA[
  .stroke { fill:none; stroke:black; stroke-width:2 }
]]></style>
<path class="stroke" d="M 12.684931 21.561644 L 10.145985 52.189777" />
<path class="stroke" d="M 23.576641 9.854013 L 23.576641 44.890507 C 23.576641 65.62044 16.27737 80.80292 10.729925 84.014595" />
<path class="stroke" d="M 40.8920928 10.54891 L 83.2794848 10.54891 L 83.2794848 33.26182" />
<path class="stroke" d="M 40.7205152 21.526801 L 83.2794848 21.526801" />
<path class="stroke" d="M 40.8920928 33.26182 L 83.2794848 33.26182" />
<path class="stroke" d="M 34.700728840000004 42.8408746 L 34.700728840000004 51.71094614" />
<path class="stroke" d="M 34.700728840000004 42.47882994 L 89.2992664 42.47882994 L 89.2992664 51.891967539999996" />
<path class="stroke" d="M 44.449050400000004 53.6094871 L 44.449050400000004 77.2153265" />
<path class="stroke" d="M 44.449050400000004 53.6094871 L 79.86861024000001 53.6094871 L 79.86861024000001 75.930653 C 79.86861024000001 78.33941100000001 78.43911968 79.784668 76.85079744000001 79.94525150000001 L 75.42131232 79.94525150000001" />
<path class="stroke" d="M 62.079413120000005 45.41970715 L 62.079413120000005 89.580289" />
</svg>
