<?xml version="1.0" standalone="no"?>
<!DOCTYPE svg PUBLIC "-//W3C//DTD SVG 1.1//EN" "http://www.w3.org/Graphics/SVG/1.1/DTD/svg11.dtd">
<svg xmlns="http://www.w3.org/2000/svg" version="1.1" width="100%" height="100%">
<style type="text/css"><![CDATA[
  .stroke { fill:none; stroke:black; stroke-width:2 }
]]></style>
<path class="stroke" d="M 14.22773704 9.854013 L 14.2040272 55.63759 C 11.19194604 80.20134 11.19194604 79.39597 7.82550296 89.865776" />
<path class="stroke" d="M 14.22773704 9.854013 L 32.2131392 9.854013 L 32.2131392 86.05839 C 32.2131392 88.39416 31.699267600000002 90.43795 30.414596959999997 90.43795 L 29.0014604 90.43795" />
<path class="stroke" d="M 14.22773704 31.862577 L 32.2131392 31.862577" />
<path class="stroke" d="M 14.22773704 55.110336 L 32.2131392 55.110336" />
<path class="stroke" d="M 42.279155 9.73978 L 89.23502500000001 9.73978 L 89.23502500000001 43.004695" />
<path class="stroke" d="M 65.654559 10.039428999999998 L 65.654559 42.705065" />
<path class="stroke" d="M 42.074145 43.004695 L 89.23502500000001 43.004695" />
<path class="stroke" d="M 42.074145 9.739789499999999 L 42.074145 81.66400449999999 C 42.074145 86.1593095 43.509475 88.85645449999998 46.380134999999996 88.85645449999998 L 90.26026999999999 88.85645449999998 C 93.13093 89.2560245 94.771335 86.3590945 94.56626 81.96372949999999 L 94.56626 73.2728445" />
</svg>
