<?xml version="1.0" standalone="no"?>
<!DOCTYPE svg PUBLIC "-//W3C//DTD SVG 1.1//EN" "http://www.w3.org/Graphics/SVG/1.1/DTD/svg11.dtd">
<svg xmlns="http://www.w3.org/2000/svg" version="1.1" width="100%" height="100%">
<style type="text/css"><![CDATA[
  .stroke { fill:none; stroke:black; stroke-width:2 }
]]></style>
<path class="stroke" d="M 32.454242876838244 9.9635034 C 28.09346622242647 19.4233566 19.036468290441178 28.182481199999998 11.321246553308823 33.087588" />
<path class="stroke" d="M 25.745353860294117 21.3503634 L 25.745353860294117 57.262769999999996" />
<path class="stroke" d="M 41.40625 20.94744468 L 41.40625 49.747443600000004" />
<path class="stroke" d="M 68.168318 8.940594 C 66.6831685 16.6039602 63.118812500000004 25.693067999999997 57.623762 30.8613852" />
<path class="stroke" d="M 62.970297 24.4455438 L 88.069305 24.4455438" />
<path class="stroke" d="M 76.48515 24.623762399999997 C 74.70297 39.7722792 67.1287135 52.4257416 55.247525 56.881188" />
<path class="stroke" d="M 62.970297 29.0792082 C 66.237623 39.950495999999994 82.12871 57.059406 90.89108999999999 57.059406" />
<path class="stroke" d="M 17.4453 70.89904 C 16.6042 78.37534000000001 14.5012 83.29654000000001 10.8207 88.78546" />
<path class="stroke" d="M 33.21814 66.35647 L 33.21814 90.48898 C 33.21814 93.04417 35.11094 94.7476 37.95004 94.7476 L 72.01944 94.7476 C 74.64824 94.7476 76.96164 92.76022 77.06674 89.63722 L 77.06674 84.81070000000001" />
<path class="stroke" d="M 45.2056 66.356488 C 50.6735 70.709788 54.2487 75.34703800000001 57.5084 81.403768" />
<path class="stroke" d="M 77.0667 66.64042 C 83.6913 71.93997999999999 87.7923 77.2399 91.8932 84.52683999999999" />
</svg>
