<?xml version="1.0" standalone="no"?>
<!DOCTYPE svg PUBLIC "-//W3C//DTD SVG 1.1//EN" "http://www.w3.org/Graphics/SVG/1.1/DTD/svg11.dtd">
<svg xmlns="http://www.w3.org/2000/svg" version="1.1" width="100%" height="100%">
<style type="text/css"><![CDATA[
  .stroke { fill:none; stroke:black; stroke-width:2 }
]]></style>
<path class="stroke" d="M 25.0700704 9.4890511 L 25.0700704 18.481750899999998" />
<path class="stroke" d="M 6.99124024 18.6861292 L 6.99124024 28.4963485" />
<path class="stroke" d="M 6.99124024 18.6861292 L 43.1489008 18.6861292 L 43.1489008 28.4963485" />
<path class="stroke" d="M 21.628100765 28.5091666744 C 18.572626525 35.61982462 13.391605225 43.04650927 8.077736210000001 47.78694772" />
<path class="stroke" d="M 20.033940015 32.6175468448 L 31.8573002 32.6175468448 C 27.07481795 45.5747423884 16.845619425000002 60.586127475999994 6.6164231749999995 68.80288565199999" />
<path class="stroke" d="M 14.98576643 40.3602625288 C 20.2 51.831613496799996 30.927369835 62.640319726 42.2193428 68.80288565199999" />
<path class="stroke" d="M 15.684872041750001 66.365036025 L 15.684872041750001 88.77437834999999" />
<path class="stroke" d="M 15.684872041750001 66.365036025 L 31.613192700000006 66.365036025 L 31.613192700000006 88.55890449" />
<path class="stroke" d="M 15.684872041750001 87.050582304 L 31.613192700000006 87.050582304" />
<path class="stroke" d="M 59.1605835 9.854013 L 89.67152999999999 9.854013" />
<path class="stroke" d="M 74.635035 9.854013 C 74.051095 14.817516 72.883211 18.905107 71.2312 22.0621" />
<path class="stroke" d="M 60.45 22.3791 L 60.45 76.715324" />
<path class="stroke" d="M 60.45 22.3791 L 88.51285 22.3791 L 88.51285 76.423355" />
<path class="stroke" d="M 60.60855 40.77066 L 88.51285 40.77066" />
<path class="stroke" d="M 60.60855 59.79627 L 88.51285 59.79627" />
<path class="stroke" d="M 60.474452 76.715324 L 88.64963 76.715324" />
<path class="stroke" d="M 66.0218965 83.13868 C 63.3941595 86.9343 60.3284665 89.56204 56.678831 89.85401" />
<path class="stroke" d="M 83.540145 83.43065 C 86.60584 84.59853 89.08759 86.35036 92.00729749999999 90.72992" />
</svg>
