<?xml version="1.0" standalone="no"?>
<!DOCTYPE svg PUBLIC "-//W3C//DTD SVG 1.1//EN" "http://www.w3.org/Graphics/SVG/1.1/DTD/svg11.dtd">
<svg xmlns="http://www.w3.org/2000/svg" version="1.1" width="100%" height="100%">
<style type="text/css"><![CDATA[
  .stroke { fill:none; stroke:black; stroke-width:2 }
]]></style>
<path class="stroke" d="M 10.437956 27.956203 L 33.211678 27.956203" />
<path class="stroke" d="M 23.86861 9.270073 L 23.86861 90.14598" />
<path class="stroke" d="M 23.86861 36.131386 C 20.07299 44.598537 15.401459 52.48175 8.686131 56.861313" />
<path class="stroke" d="M 23.86861 36.131386 C 28.248173 37.299267 31.167881 42.26277 32.627735 46.934303" />
<path class="stroke" d="M 67.594887 10.4160584 L 67.594887 20.693429599999998" />
<path class="stroke" d="M 43.113137825 20.927004800000002 L 43.113137825 32.138684" />
<path class="stroke" d="M 43.113137825 20.927004800000002 L 92.0766365 20.927004800000002 L 92.0766365 32.138684" />
<path class="stroke" d="M 53.53423884 32.76344 L 53.53423884 90.07920800000001" />
<path class="stroke" d="M 53.53423884 32.76344 L 81.32222764 32.76344 L 81.32222764 53.962160000000004" />
<path class="stroke" d="M 53.714647639999995 53.962160000000004 L 81.32222764 53.962160000000004" />
<path class="stroke" d="M 53.53423884 69.8612 L 83.271189512 69.8612 L 83.271189512 90.07920800000001" />
<path class="stroke" d="M 53.538513968000004 90.07920800000001 L 83.271189512 90.07920800000001" />
</svg>
