<?xml version="1.0" standalone="no"?>
<!DOCTYPE svg PUBLIC "-//W3C//DTD SVG 1.1//EN" "http://www.w3.org/Graphics/SVG/1.1/DTD/svg11.dtd">
<svg xmlns="http://www.w3.org/2000/svg" version="1.1" width="100%" height="100%">
<style type="text/css"><![CDATA[
  .stroke { fill:none; stroke:black; stroke-width:2 }
]]></style>
<path class="stroke" d="M 28.766420899999996 10.729925 C 23.656934 15.109488 17.525546499999997 18.029196 12.0072988 19.781021" />
<path class="stroke" d="M 7.715327199999999 41.094887 L 31.627735999999995 37.299267" />
<path class="stroke" d="M 21.0 16.569342 L 21.0 86.642334" />
<path class="stroke" d="M 21.0 44.890507 C 16.2992704 57.153282 12.416057499999999 65.03649 7.102189499999999 68.540146" />
<path class="stroke" d="M 21.0 44.890507 C 25.291970199999998 48.394157 27.7445231 51.313866 29.788318 56.277367" />
<path class="stroke" d="M 65.3992669 9.562042 L 65.3992669 18.321167" />
<path class="stroke" d="M 44.64890449 18.321167 L 86.3510893 18.321167" />
<path class="stroke" d="M 52.30437928 29.124084 L 52.30437928 44.598537" />
<path class="stroke" d="M 52.30437928 29.124084 L 78.69561795999999 29.124084 L 78.69561795999999 44.598537" />
<path class="stroke" d="M 52.30437928 44.598537 L 78.69561795999999 44.598537" />
<path class="stroke" d="M 44.04452383 54.525543 L 44.04452383 89.56204" />
<path class="stroke" d="M 44.04452383 54.525543 L 86.7540148 54.525543 L 86.7540148 85.18248 C 86.9554741 88.39416 85.1423335 90.72992 83.53065634000001 90.72992 L 82.32189294999999 90.72992" />
<path class="stroke" d="M 55.93065634 65.14851 L 55.93065634 81.678825" />
<path class="stroke" d="M 55.93065634 65.32846 L 75.06933882999999 65.32846 L 75.06933882999999 81.678825" />
<path class="stroke" d="M 55.93065634 81.678825 L 75.06933882999999 81.678825" />
</svg>
