<?xml version="1.0" standalone="no"?>
<!DOCTYPE svg PUBLIC "-//W3C//DTD SVG 1.1//EN" "http://www.w3.org/Graphics/SVG/1.1/DTD/svg11.dtd">
<svg xmlns="http://www.w3.org/2000/svg" version="1.1" width="100%" height="100%">
<style type="text/css"><![CDATA[
  .stroke { fill:none; stroke:black; stroke-width:2 }
]]></style>
<path class="stroke" d="M 49.999996 5.0 C 52.376232 7.6732674 52.793365 10.037088 52.918915 12.702702" />
<path class="stroke" d="M 12.702702 13.675674 L 92.81081 13.351351" />
<path class="stroke" d="M 12.378378 13.999998 L 12.702702 39.62162 C 12.702702 61.30479 14.560343 79.686905 6.5405407 92.162155" />
<path class="stroke" d="M 24.32664135 37.5722602 L 46.27992405 37.5722602" />
<path class="stroke" d="M 35.3032827 25.36204364 L 35.3032827 92.3985344" />
<path class="stroke" d="M 35.3032827 41.6423343 C 31.786496749999998 60.07737012 27.523721975 69.89342776000001 21.982116044999998 74.921161" />
<path class="stroke" d="M 35.3032827 41.6423343 C 41.093642700000004 48.57107599999999 45.4627219 59.6134666 48.624451910000005 74.4423343" />
<path class="stroke" d="M 60.82664135 37.5722602 L 82.77992405 37.5722602" />
<path class="stroke" d="M 71.80328270000001 25.36204364 L 71.80328270000001 92.3985344" />
<path class="stroke" d="M 71.80328270000001 41.6423343 C 68.28649675 60.07737012 64.023721975 69.89342776000001 58.482116045 74.921161" />
<path class="stroke" d="M 71.80328270000001 41.6423343 C 75.10693237499999 60.3167847 79.58284525 70.13284234 85.12445191 74.4423343" />
</svg>
