<?xml version="1.0" standalone="no"?>
<!DOCTYPE svg PUBLIC "-//W3C//DTD SVG 1.1//EN" "http://www.w3.org/Graphics/SVG/1.1/DTD/svg11.dtd">
<svg xmlns="http://www.w3.org/2000/svg" version="1.1" width="100%" height="100%">
<style type="text/css"><![CDATA[
  .stroke { fill:none; stroke:black; stroke-width:2 }
]]></style>
<path class="stroke" d="M 28.706332874999998 5.83596 C 24.195152025 18.87483 14.739414525 32.54463 5.023298775 38.64353" />
<path class="stroke" d="M 7.365571125 8.04417 C 16.908197625 17.7182 24.889247625 33.0705 24.802457625 61.6719 L 24.802457625 77.4448 C 25.149451799999998 85.6467 23.1542718 96.0569 16.214124299999998 95.7414 L 11.917360125 95.7414" />
<path class="stroke" d="M 21.939649874999997 34.22716 C 22.026439874999998 49.47426 13.264527375 62.82856 5.023305375 67.03466" />
<path class="stroke" d="M 46.6744515 10.145985 C 48.6598526 11.021896 50.843795 12.773722 52.829196780000004 16.27737" />
<path class="stroke" d="M 36.35036442 24.530949 L 63.4510936 24.530949" />
<path class="stroke" d="M 43.6580956 37.865517 L 55.8795316 37.865517" />
<path class="stroke" d="M 43.01657 51.177254 L 56.553738 51.177254" />
<path class="stroke" d="M 42.909674 65.174965 L 42.909674 92.593735" />
<path class="stroke" d="M 42.90964 64.86059 L 56.660634 64.86059 L 56.660634 92.2906" />
<path class="stroke" d="M 42.9100004 89.14595 L 56.5540644 89.14605" />
<path class="stroke" d="M 73.04598511 40.51095 L 94.24306419999999 40.51095" />
<path class="stroke" d="M 83.4518233 13.941605 L 83.4518233 44.014595 C 82.1992687 70.0 77.9084569 85.320595 70.73357644 90.72992" />
<path class="stroke" d="M 83.4518233 44.30657 C 85.57153111 70.0 88.8474454 85.47445 96.36277168 90.43795" />
<path class="stroke" d="M 91.35255328 17.737225 C 92.9905096 19.197079 94.1467141 22.992699 94.72481635 27.080292" />
</svg>
