<?xml version="1.0" standalone="no"?>
<!DOCTYPE svg PUBLIC "-//W3C//DTD SVG 1.1//EN" "http://www.w3.org/Graphics/SVG/1.1/DTD/svg11.dtd">
<svg xmlns="http://www.w3.org/2000/svg" version="1.1" width="100%" height="100%">
<style type="text/css"><![CDATA[
  .stroke { fill:none; stroke:black; stroke-width:2 }
]]></style>
<path class="stroke" d="M 24.09241 9.306931 C 20.274912500000003 17.680412 13.960480833333333 26.030926 8.250825 30.69307" />
<path class="stroke" d="M 24.339933333333335 9.306931 C 28.39346916666667 14.123711 32.517183333333335 17.216494 37.41408666666667 19.536081" />
<path class="stroke" d="M 24.914086666666666 19.999998 C 26.847075 22.319588 27.491408333333336 24.639175 28.00687166666667 27.731956" />
<path class="stroke" d="M 17.310995833333337 29.896904 L 36.254295 29.896904 L 36.254295 57.72277" />
<path class="stroke" d="M 17.656765 43.81443 L 35.645723333333336 43.81443" />
<path class="stroke" d="M 17.40924 57.72277 L 36.2211225 57.72277" />
<path class="stroke" d="M 17.310995833333337 29.896904 L 17.310995833333337 89.896904 C 24.140891666666665 87.57732 29.834608333333335 83.55427 34.86038333333333 79.842926" />
<path class="stroke" d="M 31.486253333333334 74.12371 C 33.93470833333333 76.90721 36.254295 82.16495 37.285223333333334 85.87628" />
<path class="stroke" d="M 52.3564354 11.966054142857145 C 50.9306926 21.895332428571432 48.792079 32.20650385714286 45.940594 39.08062028571429" />
<path class="stroke" d="M 50.0396044 26.478075857142862 L 94.237624 26.478075857142862" />
<path class="stroke" d="M 52.578101499999995 39.7956176 L 52.578101499999995 74.131384" />
<path class="stroke" d="M 52.578101499999995 39.7956176 L 87.7372234 39.7956176 L 87.7372234 72.26276800000001 C 87.7372234 75.766416 86.3182438 77.868608 84.74160040000001 78.102184 L 83.3226262 78.102184" />
<path class="stroke" d="M 70.0788292 27.8832104 L 70.0788292 92.116784" />
</svg>
