<?xml version="1.0" standalone="no"?>
<!DOCTYPE svg PUBLIC "-//W3C//DTD SVG 1.1//EN" "http://www.w3.org/Graphics/SVG/1.1/DTD/svg11.dtd">
<svg xmlns="http://www.w3.org/2000/svg" version="1.1" width="100%" height="100%">
<style type="text/css"><![CDATA[
  .stroke { fill:none; stroke:black; stroke-width:2 }
]]></style>
<path class="stroke" d="M 27.918 5.5205 C 21.8192 17.8233 14.4585 30.7571 4.88959 40.5363" />
<path class="stroke" d="M 27.918 5.83596 C 34.0168 11.8296 38.2229 18.4543 42.7445 25.0789" />
<path class="stroke" d="M 12.1451 33.59624 L 40.2208 33.59624" />
<path class="stroke" d="M 6.782335 51.57724 L 44.006287 51.57724" />
<path class="stroke" d="M 27.287043 33.9117 L 27.287043 88.1703" />
<path class="stroke" d="M 6.46688 61.672 C 10.7781 65.878 14.143 70.3996 17.5079 75.2366" />
<path class="stroke" d="M 43.06 61.6719 C 40.7466 67.4553 37.4868 72.2923 33.2807 77.1294" />
<path class="stroke" d="M 8.04416 94.4795 L 42.7445 83.7539" />
<path class="stroke" d="M 57.96919638 17.8 L 89.5108005 17.8" />
<path class="stroke" d="M 60.071970195999995 30.6 L 87.4080271 30.6" />
<path class="stroke" d="M 53.392816603200004 43.800000000000004 L 94.60717932 43.800000000000004" />
<path class="stroke" d="M 68.62775 4.4007400000000025 C 65.729738 40.21561 59.386934000000004 74.39014 52.552028 88.47005000000001" />
<path class="stroke" d="M 53.42773712 64.1240865 L 94.42043380000001 64.1240865" />
<path class="stroke" d="M 82.1226288 55.8029195 L 82.1226288 92.88320999999999 C 82.1226288 94.19708 81.515326 95.07299 80.14890328000001 95.07299 L 76.0496346 95.07299" />
<path class="stroke" d="M 61.778102000000004 69.6715315 C 63.6 70.985401 65.27007256 72.883211 66.63649476 76.0948885" />
</svg>
