<?xml version="1.0" standalone="no"?>
<!DOCTYPE svg PUBLIC "-//W3C//DTD SVG 1.1//EN" "http://www.w3.org/Graphics/SVG/1.1/DTD/svg11.dtd">
<svg xmlns="http://www.w3.org/2000/svg" version="1.1" width="100%" height="100%">
<style type="text/css"><![CDATA[
  .stroke { fill:none; stroke:black; stroke-width:2 }
]]></style>
<path class="stroke" d="M 24.1325 6.330177466666667 C 28.3386 8.980050799999999 31.2828 12.218680133333333 33.5962 16.046281066666666" />
<path class="stroke" d="M 75.8676 6.624611466666667 C 72.9233 10.354052800000002 69.6636 13.788999466666667 65.142 16.04626706666667" />
<path class="stroke" d="M 13.0915 23.112544 L 84.3849 23.112544" />
<path class="stroke" d="M 6.15142 40.18924 L 92.9022 40.18924" />
<path class="stroke" d="M 50.0 6.624604 C 44.97382 37.57766133333334 28.8644 61.38804000000001 6.46688 66.39332" />
<path class="stroke" d="M 55.65445 23.797557466666667 C 60.366493 39.63001466666667 70.1892 60.406546666666664 92.5867 65.80438666666667" />
<path class="stroke" d="M 32.43722505 62.3802915 L 62.55985259999999 61.37591212 C 61.894155299999994 70.79197042 60.5627721 76.31605744 58.7321145 83.47226278 C 57.7335714 86.86204265 55.90291722 92.0094888 52.4080272 92.0094888 L 50.57737073999999 92.0094888" />
<path class="stroke" d="M 42.75547220999999 62.12919601 L 41.091241499999995 69.78758932 C 38.42846541 79.58028892 33.60218877 85.85766155 29.4416043 91.1306548" />
</svg>
