<?xml version="1.0" standalone="no"?>
<!DOCTYPE svg PUBLIC "-//W3C//DTD SVG 1.1//EN" "http://www.w3.org/Graphics/SVG/1.1/DTD/svg11.dtd">
<svg xmlns="http://www.w3.org/2000/svg" version="1.1" width="100%" height="100%">
<style type="text/css"><![CDATA[
  .stroke { fill:none; stroke:black; stroke-width:2 }
]]></style>
<path class="stroke" d="M 10.779349285714286 11.725445599 L 31.133639285714285 11.848386131 C 32.65437828571429 15.790321674 28.09216442857143 25.250965632999996 23.529953714285714 29.389999999999997" />
<path class="stroke" d="M 23.529953714285714 29.981289139999998 C 27.331795714285715 32.14935543 30.373269785714285 34.908709027 31.894008785714284 38.06225905 C 33.414744642857144 39.836126469999996 33.414744642857144 44.76354513500001 25.304146857142857 46.73451199 L 20.48847885714286 47.325804796" />
<path class="stroke" d="M 13.113153285714285 11.725445599 L 13.113153285714285 60.00049511" />
<path class="stroke" d="M 49.2071526 8.717710852941178 C 52.337079576 10.50388561764706 54.841020728000004 12.95987505882353 56.718977128000006 15.304229294117647" />
<path class="stroke" d="M 82.38437608000001 8.717710852941178 C 81.107370016 10.928101617647059 78.47196736000001 13.518053764705883 75.81153136 15.415864500000001" />
<path class="stroke" d="M 37.54416579 18.50465358 L 96.08991685000001 18.50465358" />
<path class="stroke" d="M 67.556791 18.50465358 C 59.947936 25.200139 49.168775 29.62779275 39.869108 32.2736015" />
<path class="stroke" d="M 59.10253 24.498184499999997 C 68.683999 29.897791050000006 72.347492 53.27795955 66.288615 61.1073454 C 64.104616 63.5911449 59.384332 61.86326875 57.41171800000001 61.43131255" />
<path class="stroke" d="M 65.654594 32.4355594 C 57.904838 38.10506155 49.943764 41.18298055 39.0236618 44.746619200000005" />
<path class="stroke" d="M 68.190879 41.83081215000001 C 62.625122000000005 47.500468350000006 49.450577 53.33192840000001 38.8123036 56.73366050000001" />
<path class="stroke" d="M 88.9037749 25.470111625 C 84.6061939 29.681787275 79.46320690000002 33.245477275 74.5315379 35.999326425" />
<path class="stroke" d="M 68.4021836 39.88697844 C 76.4337416 46.4744660805 84.2539816 53.062001990000006 93.9763516 57.219657440000006" />
<path class="stroke" d="M 18.321167 79.4583936 L 81.678825 79.4583936" />
<path class="stroke" d="M 50.0 68.99416016 L 50.0 93.0992672" />
<path class="stroke" d="M 9.854013 93.0992672 L 89.85401 93.0992672" />
</svg>
