<?xml version="1.0" standalone="no"?>
<!DOCTYPE svg PUBLIC "-//W3C//DTD SVG 1.1//EN" "http://www.w3.org/Graphics/SVG/1.1/DTD/svg11.dtd">
<svg xmlns="http://www.w3.org/2000/svg" version="1.1" width="100%" height="100%">
<style type="text/css"><![CDATA[
  .stroke { fill:none; stroke:black; stroke-width:2 }
]]></style>
<path class="stroke" d="M 50.31546 5.8328124 L 50.31546 19.397515000000002" />
<path class="stroke" d="M 50.63092 10.444828999999999 L 72.520546 10.34356142" />
<path class="stroke" d="M 17.1924 19.940089 L 17.1924 48.968443 C 16.877 61.900090999999996 13.7224 71.033635 6.78233 79.082031" />
<path class="stroke" d="M 17.1924 19.940089 L 92.2713 19.940089 L 92.2713 23.738193 C 92.1662 26.541535 91.1146 27.988485 88.8013 28.892774999999997" />
<path class="stroke" d="M 26.493149 36.07287716 L 69.89041 30.418079600000002" />
<path class="stroke" d="M 43.059944 24.009566 L 42.931507 39.74849222 C 42.602737 44.272327 41.61644 44.272327 45.56164 44.83780796 L 76.46575 44.83780796 C 78.438354 43.989588239999996 78.76712 41.72766956 78.76712 39.18301039999999 L 78.76712 35.7901384" />
<path class="stroke" d="M 40.192700416 54.161678435 L 40.192700416 68.50912265" />
<path class="stroke" d="M 40.192700416 54.10474409 L 79.95678515200001 54.10474409 L 79.95678515200001 68.50912265" />
<path class="stroke" d="M 60.07474176 54.161678435 L 60.07474176 67.484306" />
<path class="stroke" d="M 40.192700416 60.79068881 L 79.65780992 60.79068881" />
<path class="stroke" d="M 40.192700416 67.484306 L 79.95678515200001 67.484306" />
<path class="stroke" d="M 44.833868288000005 75.56204338 L 44.833868288000005 88.84671399999999 C 44.833868288000005 91.7920798 44.833868288000005 93.027722 44.833868288000005 95.88514956" />
<path class="stroke" d="M 44.833868288000005 75.56204338 L 76.22657024 75.56204338 L 76.22657024 95.3751814 C 76.22657024 95.9824816 75.32963072000001 96.513867 73.087296512 96.513867 L 70.62073088 96.513867" />
<path class="stroke" d="M 44.833868288000005 81.28427002000001 L 76.22657024 81.28427002000001" />
<path class="stroke" d="M 44.833868288000005 87.32868736 L 76.22657024 87.32868736" />
</svg>
