<?xml version="1.0" standalone="no"?>
<!DOCTYPE svg PUBLIC "-//W3C//DTD SVG 1.1//EN" "http://www.w3.org/Graphics/SVG/1.1/DTD/svg11.dtd">
<svg xmlns="http://www.w3.org/2000/svg" version="1.1" width="100%" height="100%">
<style type="text/css"><![CDATA[
  .stroke { fill:none; stroke:black; stroke-width:2 }
]]></style>
<path class="stroke" d="M 8.003300000000001 33.069305 L 25.825083333333335 30.9901" />
<path class="stroke" d="M 19.389438333333334 9.60396 L 19.389438333333334 84.15842 C 19.389438333333334 87.42574 17.161715833333336 90.09901 14.191419166666668 90.09901" />
<path class="stroke" d="M 8.498349166666667 63.36634 L 24.09241 46.435642" />
<path class="stroke" d="M 34.3454125 8.044167 L 92.31073749999999 8.044167 L 92.31073749999999 23.186256" />
<path class="stroke" d="M 34.3454125 23.186256 L 92.31073749999999 23.186256" />
<path class="stroke" d="M 34.1088325 8.044167 L 34.1088325 58.20186 C 34.1877325 72.92316 32.8469575 81.01996 29.613565 94.164055" />
<path class="stroke" d="M 41.630128 35.83909 L 93.86986 35.83909" />
<path class="stroke" d="M 64.34308 36.05994 C 61.25164 45.40802 57.78154 51.44377 52.60804 58.14193 M 45.98344 59.466910999999996 C 59.67435999999999 58.215590999999996 72.41878 56.301791 84.40618 52.621471" />
<path class="stroke" d="M 80.24212 46.659361000000004 C 83.27056 49.750771 85.54180000000001 53.946360999999996 87.24526 58.141951" />
<path class="stroke" d="M 52.418791 74.041009 L 85.16325400000001 74.041009" />
<path class="stroke" d="M 68.31784 63.220828999999995 L 68.31784 92.810739" />
<path class="stroke" d="M 41.819398 92.810739 L 93.11278 92.810739" />
</svg>
