<?xml version="1.0" standalone="no"?>
<!DOCTYPE svg PUBLIC "-//W3C//DTD SVG 1.1//EN" "http://www.w3.org/Graphics/SVG/1.1/DTD/svg11.dtd">
<svg xmlns="http://www.w3.org/2000/svg" version="1.1" width="100%" height="100%">
<style type="text/css"><![CDATA[
  .stroke { fill:none; stroke:black; stroke-width:2 }
]]></style>
<path class="stroke" d="M 10.961809821428572 14.059406 C 13.879066071428571 16.138615 16.796323214285717 19.108912 19.183169642857145 22.673267" />
<path class="stroke" d="M 9.105374107142858 38.118813 C 11.757426785714285 39.90099 14.939887500000001 42.574257 17.06152857142857 46.138615" />
<path class="stroke" d="M 8.840169642857143 85.64356 C 9.434829464285714 87.422676 11.091678571428572 89.896904 13.024666964285714 89.896904 C 14.957658035714285 89.896904 17.5919375 76.73267 19.448374107142858 69.60396" />
<path class="stroke" d="M 31.987405600000002 20.126216 L 88.26500800000001 20.126216" />
<path class="stroke" d="M 47.381704 7.078852000000001 L 47.381704 37.8927472" />
<path class="stroke" d="M 72.618296 6.801256000000001 L 72.618296 37.89271200000001" />
<path class="stroke" d="M 25.1735016 38.170352 L 95.33124400000001 38.170352" />
<path class="stroke" d="M 45.3628 39.28078000000001 C 43.007360000000006 45.17986 37.623599999999996 48.372279999999996 31.482640000000004 50.107288" />
<path class="stroke" d="M 72.61832000000001 39.28071400000001 C 75.81488000000002 45.110362 80.27336 48.025186000000005 86.4984 50.10722199999999" />
<path class="stroke" d="M 41.49386136 54.037624 L 69.40990248 54.037624 L 69.40990248 67.15445439999999" />
<path class="stroke" d="M 41.650692672000005 67.200064 L 69.40990248 67.200064" />
<path class="stroke" d="M 41.650692672000005 67.15445439999999 L 41.650692672000005 87.9702976 C 41.650692672000005 90.1089088 43.375840800000006 92.24752480000001 46.041981024 92.24752480000001 L 75.99683184 92.24752480000001 C 78.34930416 92.24752480000001 80.38811808 90.6792064 80.38811808 88.6831696 L 80.38811808 86.1168352" />
</svg>
