<?xml version="1.0" standalone="no"?>
<!DOCTYPE svg PUBLIC "-//W3C//DTD SVG 1.1//EN" "http://www.w3.org/Graphics/SVG/1.1/DTD/svg11.dtd">
<svg xmlns="http://www.w3.org/2000/svg" version="1.1" width="100%" height="100%">
<style type="text/css"><![CDATA[
  .stroke { fill:none; stroke:black; stroke-width:2 }
]]></style>
<path class="stroke" d="M 18.454268 5.625 L 28.233467 12.75" />
<path class="stroke" d="M 38.6435 5.625 L 48.4227 12.75" />
<path class="stroke" d="M 80.2839 5.625 L 69.5583 12.75" />
<path class="stroke" d="M 7.5 15.49681125 L 7.5 24.960537" />
<path class="stroke" d="M 7.5 15.49681125 L 92.5 15.49681125 L 92.5 24.960537" />
<path class="stroke" d="M 22.4 28.571429600000002 L 22.4 67.42857040000001" />
<path class="stroke" d="M 22.05357323 28.0 L 80.2535742 28.0 L 80.2535742 67.42857040000001" />
<path class="stroke" d="M 22.74642871 41.42857360000001 L 79.90713869999999 41.42857360000001" />
<path class="stroke" d="M 22.74642871 53.4285736 L 80.2535742 53.4285736" />
<path class="stroke" d="M 22.05357323 64.8571408 L 79.90713869999999 65.1428592" />
<path class="stroke" d="M 40.414287099999996 65.71428800000001 C 38.14859408 79.72888 26.1525517 90.01459200000001 12.27518074 92.116784" />
<path class="stroke" d="M 56.003574199999996 66.0 L 55.88977671 86.043792 C 55.88977671 90.248168 59.28832206 92.35036000000001 63.8197081 92.35036000000001 L 87.32627099999999 92.35036000000001 C 90.1583897 92.35036000000001 91.85765995 91.41605200000001 91.85765995 89.54744 L 91.85765995 86.74452000000001" />
</svg>
