<?xml version="1.0" standalone="no"?>
<!DOCTYPE svg PUBLIC "-//W3C//DTD SVG 1.1//EN" "http://www.w3.org/Graphics/SVG/1.1/DTD/svg11.dtd">
<svg xmlns="http://www.w3.org/2000/svg" version="1.1" width="100%" height="100%">
<style type="text/css"><![CDATA[
  .stroke { fill:none; stroke:black; stroke-width:2 }
]]></style>
<path class="stroke" d="M 13.154171785714285 14.059406 C 16.654879285714284 16.138615 20.15558785714286 19.108912 23.01980357142857 22.673267" />
<path class="stroke" d="M 10.926448928571428 38.118813 C 14.108912142857141 39.90099 17.927864999999997 42.574257 20.473834285714286 46.138615" />
<path class="stroke" d="M 10.608203571428572 85.64356 C 11.321795357142857 87.422676 13.310014285714285 89.896904 15.629600357142856 89.896904 C 17.949189642857142 89.896904 21.110325 76.73267 23.33804892857143 69.60396" />
<path class="stroke" d="M 52.974450250000004 9.562042 C 47.0620435 19.48905 43.33941475 24.160583 37.2080275 28.832115" />
<path class="stroke" d="M 49.2518245 16.27737 L 70.27372 16.27737 C 69.616783 22.992699 66.98904775 27.372261 62.8284655 32.919704" />
<path class="stroke" d="M 46.18612975 34.257427 L 46.18612975 69.124084" />
<path class="stroke" d="M 46.18612975 34.37956 L 78.5948875 34.08759 L 78.5948875 69.124084" />
<path class="stroke" d="M 62.609485 34.08759 L 62.609485 69.124084" />
<path class="stroke" d="M 46.18612975 51.313866 L 78.5948875 51.313866" />
<path class="stroke" d="M 46.18612975 69.124084 L 78.5948875 69.124084" />
<path class="stroke" d="M 39.83576575 77.59124 C 39.178830250000004 81.678825 37.864963 85.47445 36.113137 88.978096" />
<path class="stroke" d="M 50.5656925 78.17518 C 52.31751625 81.09489 53.4124075 85.47445 54.069340000000004 89.85401" />
<path class="stroke" d="M 65.6751805 77.88321 C 68.0839375 81.09489 69.51167799999999 85.18248 70.711675 89.85401" />
<path class="stroke" d="M 81.66058 78.46715 C 83.4124075 80.51095 85.3832125 86.05839 86.4781 90.43795" />
</svg>
