<?xml version="1.0" standalone="no"?>
<!DOCTYPE svg PUBLIC "-//W3C//DTD SVG 1.1//EN" "http://www.w3.org/Graphics/SVG/1.1/DTD/svg11.dtd">
<svg xmlns="http://www.w3.org/2000/svg" version="1.1" width="100%" height="100%">
<style type="text/css"><![CDATA[
  .stroke { fill:none; stroke:black; stroke-width:2 }
]]></style>
<path class="stroke" d="M 13.154171785714285 14.059406 C 16.654879285714284 16.138615 20.15558785714286 19.108912 23.01980357142857 22.673267" />
<path class="stroke" d="M 10.926448928571428 38.118813 C 14.108912142857141 39.90099 17.927864999999997 42.574257 20.473834285714286 46.138615" />
<path class="stroke" d="M 10.608203571428572 85.64356 C 11.321795357142857 87.422676 13.310014285714285 89.896904 15.629600357142856 89.896904 C 17.949189642857142 89.896904 21.110325 76.73267 23.33804892857143 69.60396" />
<path class="stroke" d="M 47.892669999999995 17.46282644 C 46.9502605 20.063872980000003 44.123037249999996 22.23141322 40.589005 24.54345418" />
<path class="stroke" d="M 86.6451175 17.63348828 C 84.2883205 20.48612998 81.4416025 22.36642276 78.15693250000001 23.97810038" />
<path class="stroke" d="M 61.55365 8.532845980000001 C 61.711375000000004 13.04094856 61.632475 16.68437856 61.55365 22.315255580000002 C 61.785775 34.718873599999995 43.34935 45.215816 32.1715315 45.601457" />
<path class="stroke" d="M 61.6089115 23.85742536 C 64.0765 33.0572662 80.68180000000001 43.1714886 88.01094625 45.0642299 C 89.76276999999999 45.601457 91.07664249999999 45.73576320000001 93.04744000000001 45.870074" />
<path class="stroke" d="M 47.892669999999995 63.46282644 C 46.9502605 66.06387298 44.123037249999996 68.23141322000001 40.589005 70.54345418" />
<path class="stroke" d="M 86.6451175 63.63348828 C 84.2883205 66.48612998 81.4416025 68.36642276 78.15693250000001 69.97810038" />
<path class="stroke" d="M 61.55365 54.53284598 C 61.711375000000004 59.040948560000004 61.632475 62.68437856 61.55365 68.31525558 C 61.785775 80.7188736 43.34935 91.21581599999999 32.1715315 91.60145700000001" />
<path class="stroke" d="M 61.6089115 69.85742536000001 C 64.0765 79.0572662 80.68180000000001 89.1714886 88.01094625 91.0642299 C 89.76276999999999 91.60145700000001 91.07664249999999 91.73576320000001 93.04744000000001 91.870074" />
</svg>
