<?xml version="1.0" standalone="no"?>
<!DOCTYPE svg PUBLIC "-//W3C//DTD SVG 1.1//EN" "http://www.w3.org/Graphics/SVG/1.1/DTD/svg11.dtd">
<svg xmlns="http://www.w3.org/2000/svg" version="1.1" width="100%" height="100%">
<style type="text/css"><![CDATA[
  .stroke { fill:none; stroke:black; stroke-width:2 }
]]></style>
<path class="stroke" d="M 27.918 5.5205 C 21.8192 17.8233 14.4585 30.7571 4.88959 40.5363" />
<path class="stroke" d="M 27.918 5.83596 C 34.0168 11.8296 38.2229 18.4543 42.7445 25.0789" />
<path class="stroke" d="M 12.1451 33.59624 L 40.2208 33.59624" />
<path class="stroke" d="M 6.782335 51.57724 L 44.006287 51.57724" />
<path class="stroke" d="M 27.287043 33.9117 L 27.287043 88.1703" />
<path class="stroke" d="M 6.46688 61.672 C 10.7781 65.878 14.143 70.3996 17.5079 75.2366" />
<path class="stroke" d="M 43.06 61.6719 C 40.7466 67.4553 37.4868 72.2923 33.2807 77.1294" />
<path class="stroke" d="M 8.04416 94.4795 L 42.7445 83.7539" />
<path class="stroke" d="M 70.396815636 9.797809950000001 C 68.679677148 21.73065601 64.5849631272 27.99050889 59.0372841696 33.66350274" />
<path class="stroke" d="M 70.000553952 13.905837900000002 L 86.775677148 13.905837900000002 C 85.190625888 31.511675800000003 72.6423057504 54.008028620000005 55.3388318328 63.202186700000006" />
<path class="stroke" d="M 67.88715378 26.816786810000004 C 72.013175238 29.452658600000003 75.28405800120001 32.88101979 78.1899838032 39.14087535" />
<path class="stroke" d="M 69.2209340356 54.04598475 L 69.2209340356 85.0182465" />
<path class="stroke" d="M 69.2209340356 54.04598475 L 88.74864144 54.04598475 L 88.74864144 84.7204371" />
<path class="stroke" d="M 69.2209340356 82.63576416000001 L 88.74864144 82.63576416000001" />
</svg>
