<?xml version="1.0" standalone="no"?>
<!DOCTYPE svg PUBLIC "-//W3C//DTD SVG 1.1//EN" "http://www.w3.org/Graphics/SVG/1.1/DTD/svg11.dtd">
<svg xmlns="http://www.w3.org/2000/svg" version="1.1" width="100%" height="100%">
<style type="text/css"><![CDATA[
  .stroke { fill:none; stroke:black; stroke-width:2 }
]]></style>
<path class="stroke" d="M 30.9405935 14.3267332 C 23.811882 17.059405599999998 18.762377 17.772278 9.4525535 18.7372252" />
<path class="stroke" d="M 9.22714 6.960396 L 9.22714 33.336631999999994 C 9.22714 36.782177600000004 12.227722 38.68316960000001 16.386139 38.68316960000001 L 38.217823 38.68316960000001 C 40.148515 38.68316960000001 41.188118 38.089108 41.188118 36.544556 L 41.188118 35.475248" />
<path class="stroke" d="M 15.145985 48.864962775 C 14.8540135 52.7189775 12.810219 57.2153265 11.204378 58.9817516" />
<path class="stroke" d="M 13.832115 55.28832065 L 37.48175 55.28832065" />
<path class="stroke" d="M 8.576642 68.6342362 L 40.9854 68.6342362" />
<path class="stroke" d="M 24.48905 55.77007225 L 24.48905 62.514596850000004 C 24.5135115 77.34864300000001 10.7664225 89.492698 5.3649625 91.7408725" />
<path class="stroke" d="M 24.5135115 69.1432425 C 28.576641 80.17882750000001 35.729925 87.726274 44.6350325 91.580289" />
<path class="stroke" d="M 60.9386842 11.58759125 L 85.84963264000001 11.58759125 C 81.5927014 21.441605 78.5970784 23.99634875 73.39415842 27.281019999999998" />
<path class="stroke" d="M 70.8715306 22.536495 C 72.76350268 26.18613 74.02481632 29.470801249999997 74.81313748 34.215326250000004" />
<path class="stroke" d="M 50.6845432 32.3533134 L 95.31544600000001 32.3533134 L 92.85806260000001 40.51612834" />
<path class="stroke" d="M 73.17037 32.119873 L 73.0 91.6" />
<path class="stroke" d="M 73.17037 58.965334 L 90.716104 58.965334" />
<path class="stroke" d="M 58.861180000000004 57.331192 C 58.577248 78.10721 55.056772 85.81075799999999 49.4921098 94.214494" />
<path class="stroke" d="M 58.861180000000004 57.331192 C 59.372236 94.447964 73.6967728 91.8387092 85.01935456000001 93.5096736 L 96.337558 93.98109799999999" />
</svg>
