<?xml version="1.0" standalone="no"?>
<!DOCTYPE svg PUBLIC "-//W3C//DTD SVG 1.1//EN" "http://www.w3.org/Graphics/SVG/1.1/DTD/svg11.dtd">
<svg xmlns="http://www.w3.org/2000/svg" version="1.1" width="100%" height="100%">
<style type="text/css"><![CDATA[
  .stroke { fill:none; stroke:black; stroke-width:2 }
]]></style>
<path class="stroke" d="M 20.7344878125 9.562042 C 24.019160625 11.021896 27.30382875 14.817516 29.493609375 19.48905" />
<path class="stroke" d="M 9.2381371875 22.8707 L 39.89506875 22.8707" />
<path class="stroke" d="M 15.260034375000002 37.007298 L 33.873174375 37.007298" />
<path class="stroke" d="M 15.260034375000002 51.313866 L 33.873174375 51.313866" />
<path class="stroke" d="M 14.165145 64.45255 L 14.165145 85.76642" />
<path class="stroke" d="M 14.165145 64.16058 L 35.515509375 64.16058 L 35.515509375 85.76642" />
<path class="stroke" d="M 14.165145 85.76642 L 35.2417875 85.76642" />
<path class="stroke" d="M 54.316831 9.90099 C 56.633662 13.762377 58.59406 18.811882 59.841583 24.158417" />
<path class="stroke" d="M 83.544556 10.198019 C 82.65346600000001 16.138615 81.049504 20.891088 78.732676 24.158417" />
<path class="stroke" d="M 53.2475248 29.80198 L 86.57425839999999 29.80198" />
<path class="stroke" d="M 54.851485600000004 47.0297 L 85.148518 47.0297" />
<path class="stroke" d="M 48.4356436 64.55446 L 91.92079 64.55446" />
<path class="stroke" d="M 70.0 29.80198 L 70.0 89.80198" />
</svg>
