<?xml version="1.0" standalone="no"?>
<!DOCTYPE svg PUBLIC "-//W3C//DTD SVG 1.1//EN" "http://www.w3.org/Graphics/SVG/1.1/DTD/svg11.dtd">
<svg xmlns="http://www.w3.org/2000/svg" version="1.1" width="100%" height="100%">
<style type="text/css"><![CDATA[
  .stroke { fill:none; stroke:black; stroke-width:2 }
]]></style>
<path class="stroke" d="M 26.3211663 10.729925 C 22.6423344 18.029196 17.649633 23.86861 12.9197064 28.540146 C 16.5985392 31.45985 21.065691 36.131386 25.2700698 40.218975" />
<path class="stroke" d="M 36.3065682 25.912407 C 30.0 34.67153 21.5912397 45.18248 11.0802918 56.277367 C 20.540145 54.525543 31.0510929 52.48175 40.510947 50.437954" />
<path class="stroke" d="M 37.357662 43.430653 C 39.9853983 46.642334 40.7737218 49.85401 42.3503634 55.40146" />
<path class="stroke" d="M 26.846715 54.233574 L 26.846715 89.56204" />
<path class="stroke" d="M 18.7007277 65.03649 C 17.124087 70.87591 15.2846697 74.67153 11.6058378 78.75912" />
<path class="stroke" d="M 33.678831 65.32846 C 36.5693403 68.540146 36.616215 68.81081 38.075672999999995 71.72973" />
<path class="stroke" d="M 54.03284606481481 34.485396050000006 L 54.03284606481481 87.697073 L 85.70356481481483 87.697073" />
<path class="stroke" d="M 63.838875 17.82846505 C 65.3852387037037 20.8065684 66.81265207407408 24.28102075 67.73671481481482 29.41171" />
<path class="stroke" d="M 87.03433259259259 17.82846505 C 86.32062611111112 22.2956205 85.01216592592593 26.0182482 83.22789870370372 29.244525199999998" />
<path class="stroke" d="M 61.221950962962964 39.66788055 L 90.00810925925927 39.66788055" />
<path class="stroke" d="M 75.55555555555556 11.163366 L 75.6150288888889 79.836634" />
<path class="stroke" d="M 73.35495951851851 41.9014587 C 70.9067925925926 53.732929999999996 65.96261851851852 65.76323500000001 60.03244111111111 72.17882759999999" />
<path class="stroke" d="M 77.99405062962964 42.1496315 C 79.99324074074075 53.822265 84.96752222222221 66.47154 90.95971518518519 72.42700125" />
</svg>
