<?xml version="1.0" standalone="no"?>
<!DOCTYPE svg PUBLIC "-//W3C//DTD SVG 1.1//EN" "http://www.w3.org/Graphics/SVG/1.1/DTD/svg11.dtd">
<svg xmlns="http://www.w3.org/2000/svg" version="1.1" width="100%" height="100%">
<style type="text/css"><![CDATA[
  .stroke { fill:none; stroke:black; stroke-width:2 }
]]></style>
<path class="stroke" d="M 9.425874 14.2397436 L 39.766548 14.2397436" />
<path class="stroke" d="M 16.447938 14.2397436 L 16.447938 45.293396" />
<path class="stroke" d="M 5.31861 45.583564 L 42.68139 45.583564" />
<path class="stroke" d="M 30.757086 14.2397436 L 30.757086 89.11676800000001 C 30.712943999999997 93.276548 29.741316 94.534188 28.63722 94.63097200000001 L 26.252375999999998 94.63097200000001" />
<path class="stroke" d="M 30.624618 45.583564 C 24.485813999999998 67.05995200000001 18.876966000000003 83.602564 7.438476 94.050452" />
<path class="stroke" d="M 60.733575710000004 9.854013 C 59.95985309 19.781021 55.00802864 30.29197 52.06788226 32.627735" />
<path class="stroke" d="M 58.41240785 25.036495 L 58.41240785 90.43795" />
<path class="stroke" d="M 76.82700451 10.145985 C 75.89853779 16.569342 74.19634898 22.116787 71.72043701999999 25.328465" />
<path class="stroke" d="M 58.41240785 24.76344 L 87.04014319999999 24.76344" />
<path class="stroke" d="M 72.49416070000001 25.328465 L 72.49416070000001 90.43795" />
<path class="stroke" d="M 58.41240785 47.79185 L 85.0284646 47.79185" />
<path class="stroke" d="M 58.41240785 69.124084 L 85.1832087 69.124084" />
<path class="stroke" d="M 58.41240785 90.43795 L 90.13503367999999 90.43795" />
</svg>
