<?xml version="1.0" standalone="no"?>
<!DOCTYPE svg PUBLIC "-//W3C//DTD SVG 1.1//EN" "http://www.w3.org/Graphics/SVG/1.1/DTD/svg11.dtd">
<svg xmlns="http://www.w3.org/2000/svg" version="1.1" width="100%" height="100%">
<style type="text/css"><![CDATA[
  .stroke { fill:none; stroke:black; stroke-width:2 }
]]></style>
<path class="stroke" d="M 23.038319791666666 9.562042 C 26.687956250000003 11.021896 30.3375875 14.817516 32.77067708333333 19.48905" />
<path class="stroke" d="M 10.264596875 22.8707 L 44.327854166666675 22.8707" />
<path class="stroke" d="M 16.955593750000002 37.007298 L 37.63686041666667 37.007298" />
<path class="stroke" d="M 16.955593750000002 51.313866 L 37.63686041666667 51.313866" />
<path class="stroke" d="M 15.739050000000002 64.45255 L 15.739050000000002 85.76642" />
<path class="stroke" d="M 15.739050000000002 64.16058 L 39.461677083333335 64.16058 L 39.461677083333335 85.76642" />
<path class="stroke" d="M 15.739050000000002 85.76642 L 39.15754166666667 85.76642" />
<path class="stroke" d="M 52.2875905 7.245597794117647 C 55.67445178 10.680549264705883 58.383940339999995 15.403605882352942 60.416057339999995 19.911979411764708" />
<path class="stroke" d="M 88.18831739999999 7.245597794117647 C 86.80648248 11.496349264705882 83.9547408 16.477026470588235 81.0759108 20.126662500000002" />
<path class="stroke" d="M 55.4509193392 23.895218337499998 L 55.4509193392 54.351275724999994" />
<path class="stroke" d="M 55.4509193392 23.895218337499998 L 82.03100608 23.895218337499998 L 82.03100608 54.058429815000004" />
<path class="stroke" d="M 55.4509193392 52.008501423999995 L 82.03100608 52.008501423999995" />
<path class="stroke" d="M 63.464232839999994 56.545145207 L 63.464232839999994 68.316092954 C 63.464232839999994 78.69477915499999 59.061313639999995 88.94689549399999 48.05401448 91.604851325" />
<path class="stroke" d="M 73.45547291999999 56.4185766455 L 73.45547291999999 86.28894053 C 73.45547291999999 89.453174075 75.65693483999999 91.351713335 78.02773414 91.351713335 L 91.23649 91.351713335 C 93.09927019999999 91.47828233 94.454011 90.465726035 94.454011 89.073462755 L 94.454011 86.668649249" />
</svg>
