<?xml version="1.0" standalone="no"?>
<!DOCTYPE svg PUBLIC "-//W3C//DTD SVG 1.1//EN" "http://www.w3.org/Graphics/SVG/1.1/DTD/svg11.dtd">
<svg xmlns="http://www.w3.org/2000/svg" version="1.1" width="100%" height="100%">
<style type="text/css"><![CDATA[
  .stroke { fill:none; stroke:black; stroke-width:2 }
]]></style>
<path class="stroke" d="M 50.14598 6.95255475 L 50.14598 16.587590249999998" />
<path class="stroke" d="M 12.4817505 16.806567 L 12.4817505 27.31751625" />
<path class="stroke" d="M 12.4817505 16.806567 L 87.81021 16.806567 L 87.81021 27.31751625" />
<path class="stroke" d="M 26.40547210526316 25.9305984 L 26.40547210526316 95.3312192" />
<path class="stroke" d="M 12.060428947368422 34.00624 C 15.12372105263158 37.371120000000005 17.73867105263158 40.73608 19.905350000000002 45.615120000000005" />
<path class="stroke" d="M 9.819023947368422 77.6656 C 14.227178947368422 75.64672000000002 18.41111315789474 72.87056000000001 21.698505263157898 69.08512" />
<path class="stroke" d="M 43.9441448 26.039128 L 83.2148168 26.039128 L 83.2148168 44.209456" />
<path class="stroke" d="M 43.7851832 34.8214408 L 83.2148168 34.8214408" />
<path class="stroke" d="M 43.9441448 44.209456 L 83.2148168 44.209456" />
<path class="stroke" d="M 38.20802819000001 53.343064 L 38.20802819000001 64.7883176" />
<path class="stroke" d="M 38.20802819000001 52.8759096 L 88.79196739999999 52.8759096 L 88.79196739999999 65.0218936" />
<path class="stroke" d="M 50.326138040000004 65.48910864000001 L 75.3265364 65.48910864000001 C 69.63782035999999 79.49703012 60.056831263999996 86.34059520000001 43.290098959999995 92.32871279999999" />
<path class="stroke" d="M 49.727326568 68.69703012 C 51.956772584 75.32903148 59.760644072 80.78709696000001 62.361933728 83.2258068 C 67.07677208000001 86.94193560000001 75.530965856 89.7290304 83.56019792 92.32871279999999" />
</svg>
