<?xml version="1.0" standalone="no"?>
<!DOCTYPE svg PUBLIC "-//W3C//DTD SVG 1.1//EN" "http://www.w3.org/Graphics/SVG/1.1/DTD/svg11.dtd">
<svg xmlns="http://www.w3.org/2000/svg" version="1.1" width="100%" height="100%">
<style type="text/css"><![CDATA[
  .stroke { fill:none; stroke:black; stroke-width:2 }
]]></style>
<path class="stroke" d="M 13.154171785714285 8.435643599999999 C 16.654879285714284 9.683169000000001 20.15558785714286 11.4653472 23.01980357142857 13.6039602" />
<path class="stroke" d="M 10.926448928571428 22.8712878 C 14.108912142857141 23.940594 17.927864999999997 25.5445542 20.473834285714286 27.683169" />
<path class="stroke" d="M 10.608203571428572 51.38613599999999 C 11.321795357142857 52.453605599999996 13.310014285714285 53.938142400000004 15.629600357142856 53.938142400000004 C 17.949189642857142 53.938142400000004 21.110325 46.039601999999995 23.33804892857143 41.762375999999996" />
<path class="stroke" d="M 49.689778000000004 9.0656928 L 49.689778000000004 18.5255472 C 49.689778000000004 32.364963 43.77737125 44.10218999999999 33.9233575 50.9343" />
<path class="stroke" d="M 34.79926975 19.4014596 L 68.302915 16.4233566 L 68.302915 42.525546 C 68.302915 46.905108 71.3686105 49.357662 75.74817250000001 49.532844 L 87.79196950000001 49.532844 C 90.20072499999999 49.357662 92.3905075 48.131381999999995 92.60948499999999 45.6788316 L 92.60948499999999 42.87591" />
<path class="stroke" d="M 20.07299 69.547444 L 80.21897 69.547444" />
<path class="stroke" d="M 50.14598 63.5912408 L 50.14598 96.291968" />
<path class="stroke" d="M 50.14598 71.532846 C 40.51095 80.5255464 28.832115 85.3138672 13.649633 87.76642" />
<path class="stroke" d="M 50.14598 71.532846 C 59.197075 80.642334 71.45985 85.4306548 86.642334 87.532846" />
</svg>
