<?xml version="1.0" standalone="no"?>
<!DOCTYPE svg PUBLIC "-//W3C//DTD SVG 1.1//EN" "http://www.w3.org/Graphics/SVG/1.1/DTD/svg11.dtd">
<svg xmlns="http://www.w3.org/2000/svg" version="1.1" width="100%" height="100%">
<style type="text/css"><![CDATA[
  .stroke { fill:none; stroke:black; stroke-width:2 }
]]></style>
<path class="stroke" d="M 11.313868 17.445253 C 15.401459 18.029196 19.48905 20.364962 22.408756 24.160583" />
<path class="stroke" d="M 9.270073 47.226276 C 13.357662 47.226276 18.321167 46.934303 23.86861 43.138683 C 16.27737 53.357662 14.233576 58.321167 15.109488 60.9489 C 15.69343 63.284668 20.948904 65.62044 22.116787 68.832115 C 23.576641 72.33576 18.129246 80.26506 11.021896 83.722626" />
<path class="stroke" d="M 11.021896 84.014595 C 39.692924 81.65476 40.51095 91.313866 90.43795 90.14598" />
<path class="stroke" d="M 31.5914848 8.079625379310345 L 93.408501 8.079625379310345" />
<path class="stroke" d="M 37.414848 17.243110689655175 L 37.414848 29.40238379310345" />
<path class="stroke" d="M 37.414848 17.243110689655175 L 87.137213 17.243110689655175 L 87.137213 29.40238379310345" />
<path class="stroke" d="M 53.3170517 8.25582551724138 L 53.3170517 29.04992206896552" />
<path class="stroke" d="M 70.78707739999999 8.255873000000001 L 70.78707739999999 28.873724724137933" />
<path class="stroke" d="M 37.414848 29.40238379310345 L 87.137213 29.40238379310345" />
<path class="stroke" d="M 37.935035889999995 46.390364552 L 87.272255 46.390364552" />
<path class="stroke" d="M 62.1018675 37.821682028000005 L 61.836449619999996 37.94280392 C 59.04010184 47.83695392 50.688785769999996 51.387290840000006 31.31308386 57.56448692" />
<path class="stroke" d="M 68.20654264000001 46.421307848000005 C 74.04579279999999 50.539439216000005 78.82336434000001 54.17308431200001 90.7672939 57.80672876000001" />
<path class="stroke" d="M 45.080396015 57.37031696000001 L 71.357427145 57.37031696000001 L 71.357427145 64.453405376" />
<path class="stroke" d="M 45.228019427999996 64.47803456 L 71.357427145 64.47803456" />
<path class="stroke" d="M 45.228019427999996 64.453405376 L 45.228019427999996 75.693960704 C 45.228019427999996 76.848810752 46.851880449999996 78.003663392 49.361485926 78.003663392 L 77.55762390999999 78.003663392 C 79.77197759 78.003663392 81.69108842 77.156771456 81.69108842 76.07891158400001 L 81.69108842 74.693091008" />
</svg>
