<?xml version="1.0" standalone="no"?>
<!DOCTYPE svg PUBLIC "-//W3C//DTD SVG 1.1//EN" "http://www.w3.org/Graphics/SVG/1.1/DTD/svg11.dtd">
<svg xmlns="http://www.w3.org/2000/svg" version="1.1" width="100%" height="100%">
<style type="text/css"><![CDATA[
  .stroke { fill:none; stroke:black; stroke-width:2 }
]]></style>
<path class="stroke" d="M 10.461423584905662 7.64851425 L 10.461423584905662 34.381187249999996" />
<path class="stroke" d="M 10.461423584905662 7.64851425 L 40.44461320754717 7.64851425 L 40.44461320754717 34.381187249999996" />
<path class="stroke" d="M 10.461423584905662 21.0148515 L 40.44461320754717 21.0148515" />
<path class="stroke" d="M 10.461423584905662 34.381187249999996 L 40.44461320754717 34.381187249999996" />
<path class="stroke" d="M 25.312909433962265 7.64851425 L 25.312909433962265 59.3316825" />
<path class="stroke" d="M 12.70315754716981 46.18812 L 38.20287735849057 46.18812" />
<path class="stroke" d="M 9.620772641509435 61.113859500000004 L 41.56547735849057 57.5495025" />
<path class="stroke" d="M 59.1605835 30.3832125 L 91.27736999999999 30.3832125" />
<path class="stroke" d="M 74.92700500000001 10.45620375 L 74.92700500000001 33.01094625 C 73.029195 52.5 66.527965 63.99044625 55.656934 68.04744000000001" />
<path class="stroke" d="M 74.92700500000001 33.2299275 C 78.1386835 52.5 83.10219000000001 64.1058375 94.489048 67.8284625" />
<path class="stroke" d="M 86.897808 13.30291875 C 89.37956 14.397809249999998 91.131385 17.24452425 92.00729749999999 20.310219" />
<path class="stroke" d="M 18.613138 77.00729 C 18.029196 82.55474 15.69343 87.22627 11.89781 89.85401" />
<path class="stroke" d="M 35.255474 77.88321 C 38.46715 81.678825 40.218975 85.18248 41.67883 90.14598" />
<path class="stroke" d="M 59.197075 78.17518 C 62.408752 81.678825 63.868607 85.47445 65.32846 90.43795" />
<path class="stroke" d="M 81.386856 78.17518 C 84.8905 81.678825 86.9343 84.8905 88.68613 90.43795" />
</svg>
