<?xml version="1.0" standalone="no"?>
<!DOCTYPE svg PUBLIC "-//W3C//DTD SVG 1.1//EN" "http://www.w3.org/Graphics/SVG/1.1/DTD/svg11.dtd">
<svg xmlns="http://www.w3.org/2000/svg" version="1.1" width="100%" height="100%">
<style type="text/css"><![CDATA[
  .stroke { fill:none; stroke:black; stroke-width:2 }
]]></style>
<path class="stroke" d="M 13.154171785714285 14.059406 C 16.654879285714284 16.138615 20.15558785714286 19.108912 23.01980357142857 22.673267" />
<path class="stroke" d="M 10.926448928571428 38.118813 C 14.108912142857141 39.90099 17.927864999999997 42.574257 20.473834285714286 46.138615" />
<path class="stroke" d="M 10.608203571428572 85.64356 C 11.321795357142857 87.422676 13.310014285714285 89.896904 15.629600357142856 89.896904 C 17.949189642857142 89.896904 21.110325 76.73267 23.33804892857143 69.60396" />
<path class="stroke" d="M 64.1051056 8.111313875 L 64.1051056 19.352188625" />
<path class="stroke" d="M 36.98686036 19.6076615 L 36.98686036 31.870435625" />
<path class="stroke" d="M 36.98686036 19.6076615 L 91.2233512 19.6076615 L 91.2233512 31.870435625" />
<path class="stroke" d="M 51.2807392 27.192424 C 46.889601760000005 34.51104 41.817057039999995 39.558400000000006 35.38170424 43.09152" />
<path class="stroke" d="M 75.5836048 27.192432 C 79.89906880000001 33.501599999999996 84.8958688 38.54888 91.2554848 42.082" />
<path class="stroke" d="M 63.772839999999995 35.772832 C 55.141912 51.419551999999996 46.738216 60.757152000000005 32.4290224 66.813872" />
<path class="stroke" d="M 63.772839999999995 35.772832 C 72.02526399999999 51.503631999999996 79.823296 60.672912000000004 95.343832 66.813872" />
<path class="stroke" d="M 46.9652896 68.075752 L 47.1924496 93.312312" />
<path class="stroke" d="M 46.9652896 68.075752 L 80.5803616 68.075752 L 80.8075216 93.312312" />
<path class="stroke" d="M 47.1924496 93.312312 L 80.8075216 93.312312" />
</svg>
