<?xml version="1.0" standalone="no"?>
<!DOCTYPE svg PUBLIC "-//W3C//DTD SVG 1.1//EN" "http://www.w3.org/Graphics/SVG/1.1/DTD/svg11.dtd">
<svg xmlns="http://www.w3.org/2000/svg" version="1.1" width="100%" height="100%">
<style type="text/css"><![CDATA[
  .stroke { fill:none; stroke:black; stroke-width:2 }
]]></style>
<path class="stroke" d="M 33.211678 6.558029149999999 C 31.751823 12.647079625 24.160583 18.359487725 9.854013 22.941970849999997" />
<path class="stroke" d="M 64.46271 6.678367659999999 C 76.715324 11.07773636 84.59853 17.1040135 89.270065 23.06751795" />
<path class="stroke" d="M 51.25328356 19.52700672 C 46.5233566 27.6554736 35.237173 36.758336 21.92773576 43.258393600000005 C 41.79342883 42.230655999999996 59.057663530000006 41.763504 77.95932700000002 41.83184" />
<path class="stroke" d="M 68.75401315 35.97080064 C 74.19342639999999 37.745984 78.92335336 40.455473600000005 81.9978088 44.0992672" />
<path class="stroke" d="M 16.569342 74.92700500000001 C 15.985401 79.1605835 13.649633 82.37226 10.145985 84.56204199999999" />
<path class="stroke" d="M 26.36648 70.0831 L 31.71248 78.9833 C 37.05728 86.3823 46.50528 89.68905000000001 65.70158 89.84585 L 79.927 89.84585 C 82.84671 89.817515 84.40613 88.831417 84.59853 87.77372 L 84.59853 86.60584" />
<path class="stroke" d="M 48.9781 61.934305 C 53.357662 63.248175 56.569344 65.437956 59.197075 67.9197065" />
<path class="stroke" d="M 80.51095 65.0 C 84.8905 66.89780999999999 87.51824 69.233575 89.85401 71.861313" />
</svg>
