<?xml version="1.0" standalone="no"?>
<!DOCTYPE svg PUBLIC "-//W3C//DTD SVG 1.1//EN" "http://www.w3.org/Graphics/SVG/1.1/DTD/svg11.dtd">
<svg xmlns="http://www.w3.org/2000/svg" version="1.1" width="100%" height="100%">
<style type="text/css"><![CDATA[
  .stroke { fill:none; stroke:black; stroke-width:2 }
]]></style>
<path class="stroke" d="M 26.788319 7.725060833333334 C 24.452553 14.294403333333333 21.824816 18.430655833333333 16.861313 21.593672500000004" />
<path class="stroke" d="M 24.452553 15.024329999999999 L 47.226276 15.024329999999999" />
<path class="stroke" d="M 30.0 15.510948333333333 C 34.08759 19.403893333333336 35.547443 22.56691 36.423355 28.406325" />
<path class="stroke" d="M 65.32846 7.725060833333334 C 63.284668 15.754255833333335 60.07299 19.160582500000004 57.44525 21.593672500000004" />
<path class="stroke" d="M 62.9927 15.267639166666667 L 86.35036 15.267639166666667" />
<path class="stroke" d="M 72.62773 15.754255833333335 C 72.9197 21.107054166666668 71.16788 24.756689166666668 67.9562 28.406325" />
<path class="stroke" d="M 72.05675 31.754752 C 62.91686599999999 38.366727999999995 42.912638 44.675872 21.356395999999997 47.27524" />
<path class="stroke" d="M 15.401459 59.842152475 L 84.8905 59.842152475" />
<path class="stroke" d="M 49.43925 42.982476212499996 L 49.065422 43.220794749999996 C 45.126904 62.688451 33.364487 69.67406762499999 6.074766 81.828272875" />
<path class="stroke" d="M 58.037384 59.903036275 C 66.26168 68.00584105 72.990654 75.155374225 89.81309 82.304906125" />
</svg>
