<?xml version="1.0" standalone="no"?>
<!DOCTYPE svg PUBLIC "-//W3C//DTD SVG 1.1//EN" "http://www.w3.org/Graphics/SVG/1.1/DTD/svg11.dtd">
<svg xmlns="http://www.w3.org/2000/svg" version="1.1" width="100%" height="100%">
<style type="text/css"><![CDATA[
  .stroke { fill:none; stroke:black; stroke-width:2 }
]]></style>
<path class="stroke" d="M 8.250825 11.089109 L 29.838708333333333 11.290321 C 31.451613333333338 17.741934 26.61290166666667 33.225803 21.774193333333333 40.0" />
<path class="stroke" d="M 21.774193333333333 40.96774 C 25.80645 44.51613 29.032255833333334 49.032257 30.645160833333332 54.19355 C 32.2580625 57.09677 32.2580625 65.161285 23.655913333333334 68.38709 L 18.54838666666667 69.354836" />
<path class="stroke" d="M 10.726071666666666 11.089109 L 10.726071666666666 90.09901" />
<path class="stroke" d="M 65.78546 4.847431779999999 C 58.157662 15.198538079999999 50.979553440000004 23.7117978 41.6481664 28.453402199999996" />
<path class="stroke" d="M 65.78546 4.847431779999999 C 73.0481728 15.02919606 79.7689154 23.190911399999997 89.4973796 28.271203319999998" />
<path class="stroke" d="M 55.960208 24.173721399999998 L 75.82617680000001 24.173721399999998" />
<path class="stroke" d="M 47.4157054 33.0083771 L 83.0890052 33.0083771 C 80.5079836 40.290129199999996 73.2467124 47.373718499999995 67.68759 51.776637699999995" />
<path class="stroke" d="M 45.649633200000004 53.11021825 L 86.35036000000001 53.11021825" />
<path class="stroke" d="M 38.8992698 66.645082 L 92.9021872 66.645082" />
<path class="stroke" d="M 59.94452316 66.5905102 C 56.56934248 76.57591042 51.6058382 85.06350111999998 46.443795 91.387585 C 56.56934248 90.5554705 71.45985464 89.39050791999999 84.16642032 89.0576644" />
<path class="stroke" d="M 79.9970792 83.8985374 C 82.7766404 86.56131235 85.55620160000001 90.2226247 86.5488996 92.8853968" />
</svg>
