<?xml version="1.0" standalone="no"?>
<!DOCTYPE svg PUBLIC "-//W3C//DTD SVG 1.1//EN" "http://www.w3.org/Graphics/SVG/1.1/DTD/svg11.dtd">
<svg xmlns="http://www.w3.org/2000/svg" version="1.1" width="100%" height="100%">
<style type="text/css"><![CDATA[
  .stroke { fill:none; stroke:black; stroke-width:2 }
]]></style>
<path class="stroke" d="M 27.80291816 10.729925 C 24.20583808 18.029196 19.324085600000004 23.86861 14.69926848 28.540146 C 18.29634944 31.45985 22.6642312 36.131386 26.77517936 40.218975" />
<path class="stroke" d="M 37.56642224 25.912407 C 31.4 34.67153 23.178101039999998 45.18248 12.90072976 56.277367 C 22.150364 54.525543 32.42773528 52.48175 41.6773704 50.437954" />
<path class="stroke" d="M 38.5941584 43.430653 C 41.16350056 46.642334 41.93430576 49.85401 43.47591088 55.40146" />
<path class="stroke" d="M 28.316788 54.233574 L 28.316788 89.56204" />
<path class="stroke" d="M 20.35182264 65.03649 C 18.8102184 70.87591 17.011677040000002 74.67153 13.41459696 78.75912" />
<path class="stroke" d="M 34.9970792 65.32846 C 37.82335496 68.540146 37.869187999999994 68.81081 39.296213599999994 71.72973" />
<path class="stroke" d="M 66.382363256 10.398539320000001 C 66.27790003999999 12.9821514 63.78020564 15.979787400000001 61.53741068 16.0792394" />
<path class="stroke" d="M 56.317079588 16.17372202 L 56.317079588 47.870074" />
<path class="stroke" d="M 56.317079588 16.0796511 L 79.92256897760001 16.0796511 L 79.92256897760001 47.870074" />
<path class="stroke" d="M 56.317079588 31.0096135 L 79.92256897760001 31.0096135" />
<path class="stroke" d="M 56.317079588 46.490837600000006 L 79.92256897760001 46.490837600000006" />
<path class="stroke" d="M 68.00358560000001 47.83086656 L 68.00358560000001 86.83941328 C 68.00358560000001 88.205836 66.9751826 89.8759096 65.3985392 89.8759096 L 63.9795596 89.8759096" />
<path class="stroke" d="M 47.89780988 61.636494760000005 L 63.434780599999996 60.635056399999996 C 61.38197384 71.91246124 54.49830062 80.4732592 46.321167020000004 84.56204" />
<path class="stroke" d="M 86.23220900000001 56.96353036 C 82.3039412 60.86545072 77.79652664 62.84033376 72.7338101 64.43387324" />
<path class="stroke" d="M 70.72055996 60.58557684 C 74.37896438 71.30984676 80.75300720000001 80.8210872 89.3635016 84.56204" />
</svg>
