<?xml version="1.0" standalone="no"?>
<!DOCTYPE svg PUBLIC "-//W3C//DTD SVG 1.1//EN" "http://www.w3.org/Graphics/SVG/1.1/DTD/svg11.dtd">
<svg xmlns="http://www.w3.org/2000/svg" version="1.1" width="100%" height="100%">
<style type="text/css"><![CDATA[
  .stroke { fill:none; stroke:black; stroke-width:2 }
]]></style>
<path class="stroke" d="M 49.99996 7.410096380000001 L 49.99996 13.35960758" />
<path class="stroke" d="M 6.46688 13.504750000000001 L 93.2177 13.504750000000001" />
<path class="stroke" d="M 37.38174 13.64981468 L 37.38174 29.17665422 C 37.486843 36.2870573 31.598242 44.99365900000001 15.930542 47.31546530000001" />
<path class="stroke" d="M 62.30286 13.6498662 L 62.30286 44.9937142 C 62.09256 46.3480462 60.30496 47.412210200000004 57.88646 47.3154722 L 53.47006 47.3154722" />
<path class="stroke" d="M 27.287071 21.340731780000002 C 22.344872 26.12933178 16.771772 30.04728932 7.413242 33.0946044" />
<path class="stroke" d="M 72.0821 21.340666 C 81.1252 24.678196 86.0673 28.596246 91.6404 33.239762" />
<path class="stroke" d="M 27.080292 54.6671531 L 74.67153 54.6671531 L 72.9197 63.53138668" />
<path class="stroke" d="M 31.45985 63.53138668 L 72.62773 63.53138668" />
<path class="stroke" d="M 31.167881 63.53138668 L 27.66423 72.529926 L 78.17518 72.529926 C 74.67153 85.6919704 64.16058 91.0642299 59.489044 91.0642299 L 56.861313 91.0642299" />
</svg>
