<?xml version="1.0" standalone="no"?>
<!DOCTYPE svg PUBLIC "-//W3C//DTD SVG 1.1//EN" "http://www.w3.org/Graphics/SVG/1.1/DTD/svg11.dtd">
<svg xmlns="http://www.w3.org/2000/svg" version="1.1" width="100%" height="100%">
<style type="text/css"><![CDATA[
  .stroke { fill:none; stroke:black; stroke-width:2 }
]]></style>
<path class="stroke" d="M 5.520505 18.7996629 L 93.84859 18.7996629" />
<path class="stroke" d="M 15.61516 30.723912300000002 L 15.61516 61.7271573" />
<path class="stroke" d="M 15.61516 30.723912300000002 L 83.75396 30.723912300000002 L 83.75396 61.7271573" />
<path class="stroke" d="M 15.93059 45.430626000000004 L 83.12309 45.430626000000004" />
<path class="stroke" d="M 15.61516 61.7271573 L 83.75396 61.7271573" />
<path class="stroke" d="M 49.6845 7.4716077 L 49.6845 61.528386" />
<path class="stroke" d="M 17.4453 74.13248 C 16.6042 80.77808 14.5012 85.15248000000001 10.8207 90.03152" />
<path class="stroke" d="M 33.21814 70.09464 L 33.21814 91.54576 C 33.21814 93.81704 35.11094 95.33120000000001 37.95004 95.33120000000001 L 72.01944 95.33120000000001 C 74.64824 95.33120000000001 76.96164 93.56464 77.06674 90.78864 L 77.06674 86.4984" />
<path class="stroke" d="M 45.2056 70.094656 C 50.6735 73.964256 54.2487 78.086256 57.5084 83.470016" />
<path class="stroke" d="M 77.0667 70.34703999999999 C 83.6913 75.05776 87.7923 79.7688 91.8932 86.24607999999999" />
</svg>
