<?xml version="1.0" standalone="no"?>
<!DOCTYPE svg PUBLIC "-//W3C//DTD SVG 1.1//EN" "http://www.w3.org/Graphics/SVG/1.1/DTD/svg11.dtd">
<svg xmlns="http://www.w3.org/2000/svg" version="1.1" width="100%" height="100%">
<style type="text/css"><![CDATA[
  .stroke { fill:none; stroke:black; stroke-width:2 }
]]></style>
<path class="stroke" d="M 11.46376 8.990532 L 11.46376 40.53627" />
<path class="stroke" d="M 11.46376 8.990532 L 33.419520000000006 8.990532 L 33.419520000000006 40.53627" />
<path class="stroke" d="M 11.46376 40.53627 L 33.419520000000006 40.53627" />
<path class="stroke" d="M 22.31548 40.5363 L 22.31548 89.1167" />
<path class="stroke" d="M 22.567872 59.1483 L 35.186112 59.1483" />
<path class="stroke" d="M 11.46376 52.5236 L 11.46376 92.2713" />
<path class="stroke" d="M 7.425864000000001 93.8486 L 35.43848 85.6467" />
<path class="stroke" d="M 48.4050294696 9.58613786 L 63.6248312976 9.58613786 L 63.6248312976 42.253467179999994" />
<path class="stroke" d="M 50.9923958316 24.38415836 L 61.037465448 24.38415836" />
<path class="stroke" d="M 48.709426326 41.974257099999996 L 61.037465448 36.1108896" />
<path class="stroke" d="M 70.7781402576 9.3069306 L 86.1501402576 9.3069306 L 86.1501402576 42.532672559999995" />
<path class="stroke" d="M 74.126497992 24.38415836 L 83.562774408 24.38415836" />
<path class="stroke" d="M 71.539129068 41.974257099999996 L 83.86716562800001 36.1108896" />
<path class="stroke" d="M 57.873977125699994 47.22262689 C 57.063612170300004 52.48394113 51.8772767888 58.0547441 48.7978895142 59.29269955" />
<path class="stroke" d="M 55.442882259499996 55.26934235 L 55.442882259499996 89.9321135" />
<path class="stroke" d="M 74.7295664217 47.37737205 C 73.7571289193 50.78175126 71.9743270166 53.72189711 69.3811596034 55.424086450000004" />
<path class="stroke" d="M 55.442882259499996 55.1246232 L 85.426383944 55.1246232" />
<path class="stroke" d="M 70.191525669 55.424086450000004 L 70.191525669 89.9321135" />
<path class="stroke" d="M 55.442882259499996 67.3296805 L 83.319435282 67.3296805" />
<path class="stroke" d="M 55.442882259499996 78.63576452000001 L 83.48150782900001 78.63576452000001" />
<path class="stroke" d="M 55.442882259499996 89.9321135 L 88.6678437656 89.9321135" />
</svg>
