<?xml version="1.0" standalone="no"?>
<!DOCTYPE svg PUBLIC "-//W3C//DTD SVG 1.1//EN" "http://www.w3.org/Graphics/SVG/1.1/DTD/svg11.dtd">
<svg xmlns="http://www.w3.org/2000/svg" version="1.1" width="100%" height="100%">
<style type="text/css"><![CDATA[
  .stroke { fill:none; stroke:black; stroke-width:2 }
]]></style>
<path class="stroke" d="M 32.64982 6.151417 L 32.64982 20.031557" />
<path class="stroke" d="M 66.71925 6.151417 L 66.71925 20.031557" />
<path class="stroke" d="M 7.41325 13.4069 L 92.2713 13.4069" />
<path class="stroke" d="M 49.999958 21.6088 L 49.999958 28.8643" />
<path class="stroke" d="M 7.097793 28.86432 L 91.95584 28.86432" />
<path class="stroke" d="M 39.905315 33.9116 L 50.000015 45.2681" />
<path class="stroke" d="M 59.463715 33.9116 L 50.315514 44.9526" />
<path class="stroke" d="M 50.000015 45.899055 L 50.000015 57.570957" />
<path class="stroke" d="M 12.1451 40.53627 L 32.9653 40.53627 L 32.9653 56.94007 L 26.9716 56.94007" />
<path class="stroke" d="M 19.7161 40.85177 C 19.0852 48.42267 16.877 53.78547 12.1451 58.83277" />
<path class="stroke" d="M 65.7729 40.85167 C 73.9748 40.74647 81.5457 39.06407 87.5394 36.11987" />
<path class="stroke" d="M 65.4574 40.85177 L 65.4574 57.57107 C 70.2944 57.36067 74.5005 56.20397 78.7066 53.78547" />
<path class="stroke" d="M 79.0221 39.27447 C 79.5478 48.00217 86.0673 58.62247 90.0631 58.51737 L 93.5331 58.51737" />
<path class="stroke" d="M 20.66246 63.8801 L 20.66246 80.9148 C 20.45216 87.224 13.61726 92.9022 7.0978 93.2177" />
<path class="stroke" d="M 79.33756 63.8801 L 79.33756 92.9022" />
<path class="stroke" d="M 20.66246 66.7192 L 79.33756 66.7192" />
<path class="stroke" d="M 20.97796 79.653 L 78.70666 79.653" />
</svg>
