<?xml version="1.0" standalone="no"?>
<!DOCTYPE svg PUBLIC "-//W3C//DTD SVG 1.1//EN" "http://www.w3.org/Graphics/SVG/1.1/DTD/svg11.dtd">
<svg xmlns="http://www.w3.org/2000/svg" version="1.1" width="100%" height="100%">
<style type="text/css"><![CDATA[
  .stroke { fill:none; stroke:black; stroke-width:2 }
]]></style>
<path class="stroke" d="M 25.839414440000002 10.729925 C 22.07883072 18.029196 16.9751804 23.86861 12.140144320000001 28.540146 C 15.90072896 31.45985 20.467150800000002 36.131386 24.76496024 40.218975" />
<path class="stroke" d="M 36.04671416 25.912407 C 29.6 34.67153 21.00437836 45.18248 10.25985384 56.277367 C 19.929926 54.525543 30.674450520000004 52.48175 40.3445236 50.437954" />
<path class="stroke" d="M 37.1211656 43.430653 C 39.807296040000004 46.642334 40.61313784 49.85401 42.22481592 55.40146" />
<path class="stroke" d="M 26.376642 54.233574 L 26.376642 89.56204" />
<path class="stroke" d="M 18.04963276 65.03649 C 16.437955600000002 70.87591 14.55766236 74.67153 10.79707864 78.75912" />
<path class="stroke" d="M 33.3605828 65.32846 C 36.315325640000005 68.540146 36.363242 68.81081 37.855132399999995 71.72973" />
<path class="stroke" d="M 58.25182385 9.854013 C 57.448904150000004 19.781021 52.310218400000004 30.29197 49.2591231 32.627735" />
<path class="stroke" d="M 55.843064749999996 25.036495 L 55.843064749999996 90.43795" />
<path class="stroke" d="M 74.95255185 10.145985 C 73.98904865 16.569342 72.2226263 22.116787 69.6532837 25.328465" />
<path class="stroke" d="M 55.843064749999996 24.76344 L 85.551092 24.76344" />
<path class="stroke" d="M 70.4562045 25.328465 L 70.4562045 90.43795" />
<path class="stroke" d="M 55.843064749999996 47.79185 L 83.46350100000001 47.79185" />
<path class="stroke" d="M 55.843064749999996 69.124084 L 83.62408450000001 69.124084" />
<path class="stroke" d="M 55.843064749999996 90.43795 L 88.7627708 90.43795" />
</svg>
