<?xml version="1.0" standalone="no"?>
<!DOCTYPE svg PUBLIC "-//W3C//DTD SVG 1.1//EN" "http://www.w3.org/Graphics/SVG/1.1/DTD/svg11.dtd">
<svg xmlns="http://www.w3.org/2000/svg" version="1.1" width="100%" height="100%">
<style type="text/css"><![CDATA[
  .stroke { fill:none; stroke:black; stroke-width:2 }
]]></style>
<path class="stroke" d="M 8.250825 11.089109 L 29.838708333333333 11.290321 C 31.451613333333338 17.741934 26.61290166666667 33.225803 21.774193333333333 40.0" />
<path class="stroke" d="M 21.774193333333333 40.96774 C 25.80645 44.51613 29.032255833333334 49.032257 30.645160833333332 54.19355 C 32.2580625 57.09677 32.2580625 65.161285 23.655913333333334 68.38709 L 18.54838666666667 69.354836" />
<path class="stroke" d="M 10.726071666666666 11.089109 L 10.726071666666666 90.09901" />
<path class="stroke" d="M 60.8357628 8.978102 C 57.509547 34.5777 49.869659 56.2448 33.767153289999996 71.75182" />
<path class="stroke" d="M 34.19342949 26.6561 L 93.0197035 26.6561" />
<path class="stroke" d="M 55.3303938948 45.41970715 L 55.3303938948 73.521895 C 55.3303938948 79.7524765 55.3303938948 82.366335 55.3303938948 88.4108933" />
<path class="stroke" d="M 55.3303938948 45.41970715 L 80.992292704 45.41970715 L 80.992292704 87.3321145 C 80.992292704 88.61678800000001 80.25909136199999 89.7408725 78.4260999352 89.7408725 L 76.409810998 89.7408725" />
<path class="stroke" d="M 55.3303938948 57.52441735000001 L 80.992292704 57.52441735000001" />
<path class="stroke" d="M 55.3303938948 70.3106848 L 80.992292704 70.3106848" />
</svg>
