<?xml version="1.0" standalone="no"?>
<!DOCTYPE svg PUBLIC "-//W3C//DTD SVG 1.1//EN" "http://www.w3.org/Graphics/SVG/1.1/DTD/svg11.dtd">
<svg xmlns="http://www.w3.org/2000/svg" version="1.1" width="100%" height="100%">
<style type="text/css"><![CDATA[
  .stroke { fill:none; stroke:black; stroke-width:2 }
]]></style>
<path class="stroke" d="M 20.07299 13.9708032 L 20.07299 31.664232" />
<path class="stroke" d="M 20.07299 13.9708032 L 80.21897 13.9708032 L 80.21897 31.48905" />
<path class="stroke" d="M 19.781021 30.262772399999996 L 79.927 30.262772399999996" />
<path class="stroke" d="M 50.62593 5.386861199999999 L 50.62593 54.262769999999996" />
<path class="stroke" d="M 17.4453 70.89904 C 16.6042 78.37534000000001 14.5012 83.29654000000001 10.8207 88.78546" />
<path class="stroke" d="M 33.21814 66.35647 L 33.21814 90.48898 C 33.21814 93.04417 35.11094 94.7476 37.95004 94.7476 L 72.01944 94.7476 C 74.64824 94.7476 76.96164 92.76022 77.06674 89.63722 L 77.06674 84.81070000000001" />
<path class="stroke" d="M 45.2056 66.356488 C 50.6735 70.709788 54.2487 75.34703800000001 57.5084 81.403768" />
<path class="stroke" d="M 77.0667 66.64042 C 83.6913 71.93997999999999 87.7923 77.2399 91.8932 84.52683999999999" />
</svg>
