<?xml version="1.0" standalone="no"?>
<!DOCTYPE svg PUBLIC "-//W3C//DTD SVG 1.1//EN" "http://www.w3.org/Graphics/SVG/1.1/DTD/svg11.dtd">
<svg xmlns="http://www.w3.org/2000/svg" version="1.1" width="100%" height="100%">
<style type="text/css"><![CDATA[
  .stroke { fill:none; stroke:black; stroke-width:2 }
]]></style>
<path class="stroke" d="M 50.31546 6.443223 L 50.31546 21.4274875" />
<path class="stroke" d="M 50.63092 11.537892499999998 L 72.520546 11.42602715" />
<path class="stroke" d="M 17.1924 22.0268425 L 17.1924 54.0930475 C 16.877 68.3780075 13.7224 78.4673875 6.78233 87.3580575" />
<path class="stroke" d="M 17.1924 22.0268425 L 92.2713 22.0268425 L 92.2713 26.2224225 C 92.1662 29.319137499999997 91.1146 30.917512499999997 88.8013 31.916437499999997" />
<path class="stroke" d="M 26.493149 39.8479457 L 69.89041 33.601367" />
<path class="stroke" d="M 43.059944 26.522194999999996 L 42.931507 43.90821815 C 42.602737 48.905477499999996 41.61644 48.905477499999996 45.56164 49.5301367 L 76.46575 49.5301367 C 78.438354 48.5931498 78.76712 46.0945187 78.76712 43.28355799999999 L 78.76712 39.53561799999999" />
<path class="stroke" d="M 43.69712630000001 58.5110404 L 43.69712630000001 69.77287" />
<path class="stroke" d="M 43.69712630000001 58.5110404 L 74.7003323 58.5110404 L 74.7003323 69.77287" />
<path class="stroke" d="M 43.69712630000001 69.77287 L 74.7003323 69.77287" />
<path class="stroke" d="M 31.3942838 61.558341999999996 L 31.3942838 76.264978 L 78.1451438 76.264978 L 78.1451438 84.346996" />
<path class="stroke" d="M 22.2902174 84.346996 L 89.709806 84.346996" />
<path class="stroke" d="M 42.90510884 88.33941604 C 41.76642194 90.7183939 35.84525474 92.95021846 24.68613014 94.74058396000001" />
<path class="stroke" d="M 67.28091380000001 88.386432016 C 76.83795272 90.105255136 82.9868534 92.4597076 86.6306507 94.78963492" />
</svg>
