<?xml version="1.0" standalone="no"?>
<!DOCTYPE svg PUBLIC "-//W3C//DTD SVG 1.1//EN" "http://www.w3.org/Graphics/SVG/1.1/DTD/svg11.dtd">
<svg xmlns="http://www.w3.org/2000/svg" version="1.1" width="100%" height="100%">
<style type="text/css"><![CDATA[
  .stroke { fill:none; stroke:black; stroke-width:2 }
]]></style>
<path class="stroke" d="M 41.094887 10.729925 C 33.79562 15.109488 25.036495 18.029196 17.153284 19.781021" />
<path class="stroke" d="M 11.021896 41.094887 L 45.18248 37.299267" />
<path class="stroke" d="M 30.0 16.569342 L 30.0 86.642334" />
<path class="stroke" d="M 30.0 44.890507 C 23.284672 57.153282 17.737225 65.03649 10.145985 68.540146" />
<path class="stroke" d="M 30.0 44.890507 C 36.131386 48.394157 39.635033 51.313866 42.55474 56.277367" />
<path class="stroke" d="M 72.9727460678 10.07080263 L 72.9727460678 54.9525501 C 72.9727460678 56.240140950000004 72.1359251458 56.9759085 71.5293277544 56.9759085 L 70.467780112 56.9759085" />
<path class="stroke" d="M 60.913852888600005 26.809486200000002 C 60.155604721 33.2474436 57.8808607376 38.76569235 54.6962178104 43.18029197999999" />
<path class="stroke" d="M 83.661298436 26.809486200000002 C 86.69429058700001 30.6722619 89.2723330064 35.82262719 90.7888293416 43.54817292" />
<path class="stroke" d="M 84.4761675 46.012672 C 80.10462786 63.644608 70.53675198 80.468992 60.22655916 87.40064000000001" />
</svg>
