<?xml version="1.0" standalone="no"?>
<!DOCTYPE svg PUBLIC "-//W3C//DTD SVG 1.1//EN" "http://www.w3.org/Graphics/SVG/1.1/DTD/svg11.dtd">
<svg xmlns="http://www.w3.org/2000/svg" version="1.1" width="100%" height="100%">
<style type="text/css"><![CDATA[
  .stroke { fill:none; stroke:black; stroke-width:2 }
]]></style>
<path class="stroke" d="M 50.31546 6.5110464 L 50.31546 21.65304" />
<path class="stroke" d="M 50.63092 11.659343999999999 L 72.520546 11.54630112" />
<path class="stroke" d="M 17.1924 22.258704 L 17.1924 54.662448 C 16.877 69.097776 13.7224 79.29335999999999 6.78233 88.277616" />
<path class="stroke" d="M 17.1924 22.258704 L 92.2713 22.258704 L 92.2713 26.498448 C 92.1662 29.62776 91.1146 31.24296 88.8013 32.252399999999994" />
<path class="stroke" d="M 26.493149 40.267397759999994 L 69.89041 33.955065600000005" />
<path class="stroke" d="M 43.059944 26.801375999999998 L 42.931507 44.37040992 C 42.602737 49.420272 41.61644 49.420272 45.56164 50.05150656 L 76.46575 50.05150656 C 78.438354 49.104656639999995 78.76712 46.57972416 78.76712 43.739174399999996 L 78.76712 39.9517824" />
<path class="stroke" d="M 35.48321136 59.0690944714 L 35.48321136 74.211166366" />
<path class="stroke" d="M 35.48321136 59.0090068396 L 75.86860992 59.0090068396 L 75.86860992 74.211166366" />
<path class="stroke" d="M 55.675909600000004 59.0690944714 L 55.675909600000004 73.12959064" />
<path class="stroke" d="M 35.48321136 66.0652500364 L 75.5649632 66.0652500364" />
<path class="stroke" d="M 35.48321136 73.12959064 L 75.86860992 73.12959064" />
<path class="stroke" d="M 34.418099663999996 80.0329195228 L 76.2026228 79.5129780112 C 75.16320959999999 86.922145108 72.04496288000001 90.88670008 71.00554683200001 91.731605092 C 69.75824316 92.4465241696 67.26364792000001 92.641502626 65.1848144 92.70649514799999 L 63.105980880000004 92.641502626" />
<path class="stroke" d="M 54.998536560000005 74.9634890056 C 52.50393776000001 82.2426708358 44.39649344 89.65183882299999 31.299852944 91.731605092" />
</svg>
