<?xml version="1.0" standalone="no"?>
<!DOCTYPE svg PUBLIC "-//W3C//DTD SVG 1.1//EN" "http://www.w3.org/Graphics/SVG/1.1/DTD/svg11.dtd">
<svg xmlns="http://www.w3.org/2000/svg" version="1.1" width="100%" height="100%">
<style type="text/css"><![CDATA[
  .stroke { fill:none; stroke:black; stroke-width:2 }
]]></style>
<path class="stroke" d="M 14.14525402 12.95357632 L 14.14525402 41.20700416" />
<path class="stroke" d="M 14.14525402 12.95357632 L 34.735034999999996 12.95357632 L 34.735034999999996 41.20700416" />
<path class="stroke" d="M 14.26496295 26.310646912 L 34.615327300000004 26.310646912" />
<path class="stroke" d="M 14.14525402 39.973720576 L 34.735034999999996 39.973720576" />
<path class="stroke" d="M 50.31167854 10.994159644 L 50.2744972 37.91490292 C 45.55100629 52.35838792 45.55100629 51.88483036 40.271811459999995 58.041076288" />
<path class="stroke" d="M 50.31167854 10.994159644 L 78.5160592 10.994159644 L 78.5160592 55.802333319999995 C 78.5160592 57.175766079999995 77.7102151 58.377514600000005 75.69561795999999 58.377514600000005 L 73.47956289999999 58.377514600000005" />
<path class="stroke" d="M 50.31167854 23.935195275999998 L 78.5160592 23.935195275999998" />
<path class="stroke" d="M 50.31167854 37.604877568 L 78.5160592 37.604877568" />
<path class="stroke" d="M 18.4542 70.11672 L 18.4542 93.77604" />
<path class="stroke" d="M 18.4542 70.11672 L 80.5994 70.11672 L 80.5994 93.68139" />
<path class="stroke" d="M 39.27444 70.21137 L 39.27444 93.77604" />
<path class="stroke" d="M 60.41014 70.2113571 L 60.41014 93.870678" />
<path class="stroke" d="M 7.09779 93.87066 L 92.9022 93.87066" />
</svg>
