<?xml version="1.0" standalone="no"?>
<!DOCTYPE svg PUBLIC "-//W3C//DTD SVG 1.1//EN" "http://www.w3.org/Graphics/SVG/1.1/DTD/svg11.dtd">
<svg xmlns="http://www.w3.org/2000/svg" version="1.1" width="100%" height="100%">
<style type="text/css"><![CDATA[
  .stroke { fill:none; stroke:black; stroke-width:2 }
]]></style>
<path class="stroke" d="M 11.313868 17.445253 C 15.401459 18.029196 19.48905 20.364962 22.408756 24.160583" />
<path class="stroke" d="M 9.270073 47.226276 C 13.357662 47.226276 18.321167 46.934303 23.86861 43.138683 C 16.27737 53.357662 14.233576 58.321167 15.109488 60.9489 C 15.69343 63.284668 20.948904 65.62044 22.116787 68.832115 C 23.576641 72.33576 18.129246 80.26506 11.021896 83.722626" />
<path class="stroke" d="M 11.021896 84.014595 C 39.692924 81.65476 40.51095 91.313866 90.43795 90.14598" />
<path class="stroke" d="M 42.770138625 13.5946543 L 42.770138625 23.553603300000002" />
<path class="stroke" d="M 42.770138625 13.5946543 L 81.382047375 13.5946543 L 81.382047375 23.553603300000002" />
<path class="stroke" d="M 42.770138625 23.553603300000002 L 81.382047375 23.553603300000002" />
<path class="stroke" d="M 62.2771828125 8.250785 L 62.2771828125 31.569388" />
<path class="stroke" d="M 34.9270494375 31.812323000000003 L 89.22516142500001 31.812323000000003" />
<path class="stroke" d="M 44.310219000000004 40.7408022058 L 44.310219000000004 69.949092902" />
<path class="stroke" d="M 44.52919575 40.7408022058 L 78.689775 40.7408022058 L 78.689775 69.949092902" />
<path class="stroke" d="M 44.5366485 50.710793052 L 78.653463 50.710793052" />
<path class="stroke" d="M 44.5366485 60.52714903219999 L 78.653463 60.52714903219999" />
<path class="stroke" d="M 44.52919575 69.81869909999999 L 78.4707975 69.81869909999999" />
<path class="stroke" d="M 48.9087585 72.94815927999998 C 47.156934 75.16485838 40.0464525 76.667126994 36.76178025 77.188699969" />
<path class="stroke" d="M 71.86649249999999 72.97990584099999 C 73.75130625 74.102249602 80.81936999999999 77.4692902636 87.65183250000001 77.3289953396" />
</svg>
