<?xml version="1.0" standalone="no"?>
<!DOCTYPE svg PUBLIC "-//W3C//DTD SVG 1.1//EN" "http://www.w3.org/Graphics/SVG/1.1/DTD/svg11.dtd">
<svg xmlns="http://www.w3.org/2000/svg" version="1.1" width="100%" height="100%">
<style type="text/css"><![CDATA[
  .stroke { fill:none; stroke:black; stroke-width:2 }
]]></style>
<path class="stroke" d="M 11.277595 8.5615108 L 39.511045 8.5615108 L 39.511045 51.223943999999996" />
<path class="stroke" d="M 11.750795 30.618336 L 39.195595 30.618336" />
<path class="stroke" d="M 11.593045 51.223943999999996 L 39.511045 51.223943999999996" />
<path class="stroke" d="M 11.277595 8.5615108 L 11.277595 79.95582 M 4.022085 83.14822000000001 L 38.2492 71.53947600000001" />
<path class="stroke" d="M 32.88643 64.28394200000001 C 37.46053 67.18599 40.29968 74.151402 41.24603 81.69715" />
<path class="stroke" d="M 54.02972679 6.8648643 L 90.903762 6.78233" />
<path class="stroke" d="M 60.8956739 6.8648643 L 58.29135072 40.918915" />
<path class="stroke" d="M 50.71513405 41.24324 L 89.7799927 41.24324" />
<path class="stroke" d="M 86.46540580000001 6.8648643 L 79.12594200000001 40.918915 C 75.18728540000001 54.638405 63.39077448 73.940155 45.72971439 86.34286 L 30.65 95.0" />
<path class="stroke" d="M 76.75837315 49.027023 L 76.71646311999999 80.37407 C 76.71646311999999 87.556114 74.7628561 92.17143 81.7302681 92.162155 L 92.5331439 92.17143 C 95.5365756 92.17143 94.7857195 87.02857 94.7857195 83.94286" />
</svg>
