<?xml version="1.0" standalone="no"?>
<!DOCTYPE svg PUBLIC "-//W3C//DTD SVG 1.1//EN" "http://www.w3.org/Graphics/SVG/1.1/DTD/svg11.dtd">
<svg xmlns="http://www.w3.org/2000/svg" version="1.1" width="100%" height="100%">
<style type="text/css"><![CDATA[
  .stroke { fill:none; stroke:black; stroke-width:2 }
]]></style>
<path class="stroke" d="M 49.999996 5.0 C 52.376232 7.6732674 52.793365 10.037088 52.918915 12.702702" />
<path class="stroke" d="M 12.702702 13.675674 L 92.81081 13.351351" />
<path class="stroke" d="M 12.378378 13.999998 L 12.702702 39.62162 C 12.702702 61.30479 14.560343 79.686905 6.5405407 92.162155" />
<path class="stroke" d="M 33.070983600000005 30.9542195 L 78.6766566 30.9542195 L 78.6766566 57.7681495" />
<path class="stroke" d="M 22.1056809 44.36123550000001 L 89.39273010000001 44.36123550000001" />
<path class="stroke" d="M 33.070983600000005 57.7681495 L 78.6766566 57.7681495" />
<path class="stroke" d="M 57.99214427 21.5694035 L 57.99214427 89.140315 C 57.99214427 92.7155 55.99842443 94.94998 52.75871106 95.0394 L 49.02051085 95.0394" />
<path class="stroke" d="M 30.5788733 64.7397764 C 34.566161300000005 66.8849214 38.055117300000006 69.83442310000001 40.7964963 73.320268" />
<path class="stroke" d="M 27.5883362 89.676665 C 34.566248200000004 87.978365 40.5473382 84.671355 46.279183200000006 78.414845" />
<path class="stroke" d="M 83.4116954 64.739773 C 80.83645340000001 68.583133 78.0121244 71.085703 73.9417284 72.783833" />
<path class="stroke" d="M 68.708089 78.414675 C 75.27061900000001 80.38098000000001 80.836485 83.419985 86.651438 89.94484" />
</svg>
