<?xml version="1.0" standalone="no"?>
<!DOCTYPE svg PUBLIC "-//W3C//DTD SVG 1.1//EN" "http://www.w3.org/Graphics/SVG/1.1/DTD/svg11.dtd">
<svg xmlns="http://www.w3.org/2000/svg" version="1.1" width="100%" height="100%">
<style type="text/css"><![CDATA[
  .stroke { fill:none; stroke:black; stroke-width:2 }
]]></style>
<path class="stroke" d="M 29.07900161764706 4.6423356 C 25.171745735294117 10.948904400000002 17.05667558823529 16.7883208 10.143836911764705 20.058392" />
<path class="stroke" d="M 23.067837058823528 12.233575600000002 L 23.067837058823528 36.175180000000005" />
<path class="stroke" d="M 45.08028879999999 12.116788 L 87.824812 12.116788" />
<path class="stroke" d="M 77.17178799999999 3.7080292000000004 L 77.17178799999999 33.9562 C 77.17178799999999 35.007296000000004 75.211672 36.058392 72.05838879999999 36.058392 L 66.452548 36.058392" />
<path class="stroke" d="M 46.8321136 16.20438 C 52.087588 17.1386856 55.240876 18.6569336 56.992695999999995 20.4087584" />
<path class="stroke" d="M 19.197079 53.7956194 L 19.197079 92.861314" />
<path class="stroke" d="M 19.108912 53.7956194 L 81.386856 53.7956194 L 81.386856 90.05839 C 81.386856 92.510944 79.63503 94.087588 76.715324 94.087588 L 74.087585 93.912406" />
<path class="stroke" d="M 50.729923 45.5620438 C 50.729923 58.87591 41.38686 64.131385 30.0 68.1605818" />
<path class="stroke" d="M 48.10219 58.0 C 57.44525 59.401459599999995 65.32846 63.781019799999996 69.70802 68.5109476" />
<path class="stroke" d="M 53.06569 67.635034 C 50.729923 75.16788159999999 39.343063 80.423356 30.0 82.87591" />
<path class="stroke" d="M 50.31552 73.406968 C 58.321167 75.16788159999999 65.91241 78.14598219999999 70.29197 83.401456" />
</svg>
