<?xml version="1.0" standalone="no"?>
<!DOCTYPE svg PUBLIC "-//W3C//DTD SVG 1.1//EN" "http://www.w3.org/Graphics/SVG/1.1/DTD/svg11.dtd">
<svg xmlns="http://www.w3.org/2000/svg" version="1.1" width="100%" height="100%">
<style type="text/css"><![CDATA[
  .stroke { fill:none; stroke:black; stroke-width:2 }
]]></style>
<path class="stroke" d="M 7.3899360000000005 12.896224535 L 20.1887 17.81340635" />
<path class="stroke" d="M 7.3899360000000005 56.13839102 L 22.955970000000004 34.30036145" />
<path class="stroke" d="M 43.0248148 9.31167857 C 41.69342932 15.933575809999999 38.143065 22.55547305 33.70510884 27.15401378" />
<path class="stroke" d="M 39.69635072 18.50875688 L 84.297808 18.50875688 C 83.85401056 23.6591228 81.635034 27.15401378 77.418972 30.6489035" />
<path class="stroke" d="M 60.33284504 21.45182456 C 60.33284504 41.31751376 46.574144000000004 52.18139000000001 29.48904988 58.7919674" />
<path class="stroke" d="M 60.1109448 32.488318910000004 C 65.21459788 42.23722241 72.7591194 52.5379511 90.732842 58.7919674" />
<path class="stroke" d="M 18.4542 69.253944 L 18.4542 93.701908" />
<path class="stroke" d="M 18.4542 69.253944 L 80.5994 69.253944 L 80.5994 93.604103" />
<path class="stroke" d="M 39.27444 69.351749 L 39.27444 93.701908" />
<path class="stroke" d="M 60.41014 69.35173567 L 60.41014 93.7997006" />
<path class="stroke" d="M 7.09779 93.79968199999999 L 92.9022 93.79968199999999" />
</svg>
