<?xml version="1.0" standalone="no"?>
<!DOCTYPE svg PUBLIC "-//W3C//DTD SVG 1.1//EN" "http://www.w3.org/Graphics/SVG/1.1/DTD/svg11.dtd">
<svg xmlns="http://www.w3.org/2000/svg" version="1.1" width="100%" height="100%">
<style type="text/css"><![CDATA[
  .stroke { fill:none; stroke:black; stroke-width:2 }
]]></style>
<path class="stroke" d="M 13.649633 8.843064583333334 L 13.649633 21.819545833333333" />
<path class="stroke" d="M 13.649633 8.843064583333334 L 86.642334 8.843064583333334 L 86.642334 21.819545833333333" />
<path class="stroke" d="M 36.75083 8.843064583333334 L 36.75083 21.819545833333333" />
<path class="stroke" d="M 63.249256 8.843064583333334 L 63.249256 21.819545833333333" />
<path class="stroke" d="M 13.649633 21.825645833333333 L 86.83168 21.825645833333333" />
<path class="stroke" d="M 29.692060285672 30.187663848 C 27.180398996919994 35.598174615 21.187268302599996 41.657267399999995 14.119759951311998 45.98386824 C 24.668737278046002 45.2997804 33.836301670185996 44.988832349999996 43.8733649974 45.0343185" />
<path class="stroke" d="M 38.98520696803 41.133064176000005 C 41.87361598768 42.3146706 44.38527727643199 44.118174615 46.017858662559995 46.543574729999996" />
<path class="stroke" d="M 19.062758887599998 56.037882553399996 L 19.062758887599998 77.07875701999998 C 19.062758887599998 81.743763314 19.062758887599998 83.70083045999999 19.062758887599998 88.22655611079999" />
<path class="stroke" d="M 19.062758887599998 56.037882553399996 L 41.89604444799999 56.037882553399996 L 41.89604444799999 87.418845002 C 41.89604444799999 88.38071508799999 41.243661094 89.22234780999999 39.6127133224 89.22234780999999 L 37.818672226 89.22234780999999" />
<path class="stroke" d="M 19.062758887599998 65.1010092086 L 41.89604444799999 65.1010092086" />
<path class="stroke" d="M 19.062758887599998 74.6744363648 L 41.89604444799999 74.6744363648" />
<path class="stroke" d="M 79.2010885278 36.887228143499996 C 71.7957830216 39.069950223 66.5503572276 39.6393570525 56.8793125758 40.4101086285" />
<path class="stroke" d="M 56.645153031999996 31.003366305 L 56.645153031999996 52.07138481 C 56.645153031999996 54.823514358 59.762157613599996 56.341931718 64.0819211932 56.341931718 L 86.7606745324 56.341931718 C 88.766277382 56.341931718 89.8462169784 55.867425014999995 89.8462169784 54.633714104999996 L 89.8462169784 53.779604340000006" />
<path class="stroke" d="M 79.2010885278 70.9672281435 C 71.7957830216 73.14995022299999 66.5503572276 73.7193570525 56.8793125758 74.4901086285" />
<path class="stroke" d="M 56.645153031999996 65.083366305 L 56.645153031999996 86.15138481 C 56.645153031999996 88.903514358 59.762157613599996 90.421931718 64.0819211932 90.421931718 L 86.7606745324 90.421931718 C 88.766277382 90.421931718 89.8462169784 89.947425015 89.8462169784 88.71371410500001 L 89.8462169784 87.85960434" />
</svg>
