<?xml version="1.0" standalone="no"?>
<!DOCTYPE svg PUBLIC "-//W3C//DTD SVG 1.1//EN" "http://www.w3.org/Graphics/SVG/1.1/DTD/svg11.dtd">
<svg xmlns="http://www.w3.org/2000/svg" version="1.1" width="100%" height="100%">
<style type="text/css"><![CDATA[
  .stroke { fill:none; stroke:black; stroke-width:2 }
]]></style>
<path class="stroke" d="M 49.99993 7.09779 C 37.06613 9.93688 26.34063 10.88328 14.35323 11.82968" />
<path class="stroke" d="M 10.88331 29.81072 L 54.41641 29.81072" />
<path class="stroke" d="M 7.728701 49.68457 L 58.20187 49.68457" />
<path class="stroke" d="M 19.0851 30.12614 L 19.0851 68.92744" />
<path class="stroke" d="M 46.53 30.12619 L 46.53 68.92739" />
<path class="stroke" d="M 10.8833 68.9274 L 54.4164 68.9274" />
<path class="stroke" d="M 32.6499 10.2524 L 32.6499 89.4323" />
<path class="stroke" d="M 12.4605 93.8486 L 52.5237 86.2776" />
<path class="stroke" d="M 64.59459 7.5135136 L 88.27026 7.5135136 C 85.35135 15.297297 82.80973 25.963066 79.189186 36.7027" />
<path class="stroke" d="M 79.51351 37.675674 C 83.22786 41.305073 89.80198 50.29703 89.80198 59.207924 L 89.80198 63.069305 C 89.80198 66.63367 87.915436 76.918915 84.05405 76.918915 L 74.32432 75.945946" />
<path class="stroke" d="M 64.918915 8.81081 L 64.59459 92.48648" />
</svg>
