<?xml version="1.0" standalone="no"?>
<!DOCTYPE svg PUBLIC "-//W3C//DTD SVG 1.1//EN" "http://www.w3.org/Graphics/SVG/1.1/DTD/svg11.dtd">
<svg xmlns="http://www.w3.org/2000/svg" version="1.1" width="100%" height="100%">
<style type="text/css"><![CDATA[
  .stroke { fill:none; stroke:black; stroke-width:2 }
]]></style>
<path class="stroke" d="M 45.45736 6.46688 C 41.84016 13.9327 36.70872 22.0295 29.8108 27.6025 M 18.9590056 29.1798 C 35.194524799999996 27.918 57.234444800000006 24.7634 72.46060800000001 20.0315" />
<path class="stroke" d="M 64.88968 11.5142 C 71.36704 17.6131 74.5636 21.5037 78.26496 28.8644" />
<path class="stroke" d="M 15.401459 44.8991381748 L 84.8905 44.8991381748" />
<path class="stroke" d="M 49.43925 34.2517567422 L 49.065422 34.402261908 C 45.126904 46.696659408 33.364487 51.108281766000005 6.074766 58.78401985799999" />
<path class="stroke" d="M 58.037384 44.9375880852 C 66.26168 50.0547476184 72.990654 54.5698880988 89.81309 59.085027774" />
<path class="stroke" d="M 48.38310284 57.0227736306 C 38.240328 63.0091704294 30.5564014 65.687295237 16.11062616 69.1531052286" />
<path class="stroke" d="M 62.828876199999996 63.166707948 C 52.3787458 69.1531052286 39.469752119999995 74.9819673996 21.33569512 78.60531153720001" />
<path class="stroke" d="M 77.88936819999999 69.3106427472 C 64.0583022 77.5025551704 48.075748219999994 84.906781446 19.18419492 89.947960842" />
</svg>
