<?xml version="1.0" standalone="no"?>
<!DOCTYPE svg PUBLIC "-//W3C//DTD SVG 1.1//EN" "http://www.w3.org/Graphics/SVG/1.1/DTD/svg11.dtd">
<svg xmlns="http://www.w3.org/2000/svg" version="1.1" width="100%" height="100%">
<style type="text/css"><![CDATA[
  .stroke { fill:none; stroke:black; stroke-width:2 }
]]></style>
<path class="stroke" d="M 49.14963147 10.12408676 C 43.69269793 16.1970794 35.637224270000004 20.296350160000003 29.14087397 23.9401446 C 35.37737186 26.6729916 42.393427870000004 30.0131388 49.14963147 34.11240644" />
<path class="stroke" d="M 67.8591198 20.7518244 C 53.82700333 33.505106760000004 36.41678595 43.221897999999996 19.52627517 50.3576604 C 40.31459613 48.2321136 59.28393687 47.472989000000005 77.99342519999999 47.472989000000005" />
<path class="stroke" d="M 72.7963414 42.3109464 C 76.294878 44.505752 80.50635799999999 48.333315999999996 81.371527 51.724085200000005" />
<path class="stroke" d="M 46.55036202 52.81240762 C 40.2379537 59.5131385 29.534305299999996 66.51167725 18.55620228 70.978831" />
<path class="stroke" d="M 43.256931019999996 56.68394104 L 67.6832136 56.68394104 C 57.8029206 68.89415857 36.6700709 83.0401423 15.5372259 90.7832071" />
<path class="stroke" d="M 32.82773724 63.98029174 C 43.599999999999994 74.79032314 65.76203878 84.97591105000001 89.0905104 90.7832071" />
</svg>
