<?xml version="1.0" standalone="no"?>
<!DOCTYPE svg PUBLIC "-//W3C//DTD SVG 1.1//EN" "http://www.w3.org/Graphics/SVG/1.1/DTD/svg11.dtd">
<svg xmlns="http://www.w3.org/2000/svg" version="1.1" width="100%" height="100%">
<style type="text/css"><![CDATA[
  .stroke { fill:none; stroke:black; stroke-width:2 }
]]></style>
<path class="stroke" d="M 18.613138 11.313868 L 18.613138 91.313866" />
<path class="stroke" d="M 18.905107 11.313868 L 81.678825 11.313868 L 81.678825 91.897804" />
<path class="stroke" d="M 18.613138 87.22627 L 81.678825 87.22627" />
<path class="stroke" d="M 34.87299272 24.656933600000002 L 65.127002 24.656933600000002" />
<path class="stroke" d="M 50.2049498 17.6496336 L 50.2049498 33.2916168" />
<path class="stroke" d="M 27.93576572 33.543184 L 71.8715288 33.543184" />
<path class="stroke" d="M 33.341926040000004 42.880584 L 33.341926040000004 57.1426944" />
<path class="stroke" d="M 33.341926040000004 42.880618399999996 L 66.86240269999999 42.880618399999996 L 66.86240269999999 57.142728000000005" />
<path class="stroke" d="M 33.341926040000004 57.142720000000004 L 66.86240269999999 57.142720000000004" />
<path class="stroke" d="M 45.8477618 60.3941496 C 42.5810192 67.16788 36.9927002 72.072992 30.82627664 75.34306000000001" />
<path class="stroke" d="M 49.325546 60.39416 L 49.325546 81.88320800000001" />
<path class="stroke" d="M 72.25693316 57.824816 C 69.75182000000001 62.496352 67.24671476 65.2992672 62.814593 68.33576000000001" />
<path class="stroke" d="M 52.0233554 62.729928 C 58.575182 67.16788 64.5489014 72.540144 68.4029186 77.211676" />
</svg>
