<?xml version="1.0" standalone="no"?>
<!DOCTYPE svg PUBLIC "-//W3C//DTD SVG 1.1//EN" "http://www.w3.org/Graphics/SVG/1.1/DTD/svg11.dtd">
<svg xmlns="http://www.w3.org/2000/svg" version="1.1" width="100%" height="100%">
<style type="text/css"><![CDATA[
  .stroke { fill:none; stroke:black; stroke-width:2 }
]]></style>
<path class="stroke" d="M 48.17259 3.75 L 48.17259 15.342639000000002" />
<path class="stroke" d="M 18.454268 5.625 L 28.233467 12.75" />
<path class="stroke" d="M 80.2839 5.625 L 69.5583 12.75" />
<path class="stroke" d="M 7.5 15.49681125 L 7.5 24.960537" />
<path class="stroke" d="M 7.5 15.49681125 L 92.5 15.49681125 L 92.5 24.960537" />
<path class="stroke" d="M 24.656933600000002 26.43430625 L 24.656933600000002 41.6167875" />
<path class="stroke" d="M 24.656933600000002 26.43430625 L 75.57664 26.43430625 L 75.57664 41.470802500000005" />
<path class="stroke" d="M 24.656933600000002 40.448904 L 75.57664 40.448904" />
<path class="stroke" d="M 72.9197 54.49415974 C 57.153282 55.5919707 40.319 56.398674 25.620438 56.82700709" />
<path class="stroke" d="M 22.116787 65.33503544999999 L 79.927 65.33503544999999" />
<path class="stroke" d="M 11.605839 74.6664225 L 88.39416 74.6664225" />
<path class="stroke" d="M 49.27007 56.41532751 C 51.62162 59.32378339 51.945942 60.23837801 52.594593 63.28702549 L 52.48175 90.1729915 C 52.48175 91.81970512 50.729923 93.05474244999999 47.226276 92.91751701999999 L 44.014595 92.91751701999999" />
</svg>
