<?xml version="1.0" standalone="no"?>
<!DOCTYPE svg PUBLIC "-//W3C//DTD SVG 1.1//EN" "http://www.w3.org/Graphics/SVG/1.1/DTD/svg11.dtd">
<svg xmlns="http://www.w3.org/2000/svg" version="1.1" width="100%" height="100%">
<style type="text/css"><![CDATA[
  .stroke { fill:none; stroke:black; stroke-width:2 }
]]></style>
<path class="stroke" d="M 7.3899360000000005 6.053458075 L 20.1887 8.785225749999999" />
<path class="stroke" d="M 7.3899360000000005 30.0768839 L 22.955970000000004 17.944645249999997" />
<path class="stroke" d="M 43.0248148 4.06204365 C 41.69342932 7.740875449999999 38.143065 11.41970725 33.70510884 13.974452099999999" />
<path class="stroke" d="M 39.69635072 9.1715316 L 84.297808 9.1715316 C 83.85401056 12.032846 81.635034 13.974452099999999 77.418972 15.916057499999997" />
<path class="stroke" d="M 60.33284504 10.806569199999998 C 60.33284504 21.8430632 46.574144000000004 27.87855 29.48904988 31.551092999999995" />
<path class="stroke" d="M 60.1109448 16.937954949999998 C 65.21459788 22.35401245 72.7591194 28.0766395 90.732842 31.551092999999995" />
<path class="stroke" d="M 27.080292 41.40510845 L 27.080292 83.9160555" />
<path class="stroke" d="M 27.372261 41.40510845 L 72.9197 41.40510845 L 72.9197 83.9160555" />
<path class="stroke" d="M 27.382198 55.915843 L 72.871284 55.915843" />
<path class="stroke" d="M 27.382198 70.20297105 L 72.871284 70.20297105" />
<path class="stroke" d="M 27.372261 83.726275 L 72.62773 83.726275" />
<path class="stroke" d="M 33.211678 88.28102 C 30.875912 91.507295 27.080292 93.215326 22.70073 93.97444800000001" />
<path class="stroke" d="M 67.9562 88.4708005 C 72.33576 89.2299225 75.54744 90.9379535 78.17518 93.97444800000001" />
</svg>
