<?xml version="1.0" standalone="no"?>
<!DOCTYPE svg PUBLIC "-//W3C//DTD SVG 1.1//EN" "http://www.w3.org/Graphics/SVG/1.1/DTD/svg11.dtd">
<svg xmlns="http://www.w3.org/2000/svg" version="1.1" width="100%" height="100%">
<style type="text/css"><![CDATA[
  .stroke { fill:none; stroke:black; stroke-width:2 }
]]></style>
<path class="stroke" d="M 8.250825 11.089109 L 29.838708333333333 11.290321 C 31.451613333333338 17.741934 26.61290166666667 33.225803 21.774193333333333 40.0" />
<path class="stroke" d="M 21.774193333333333 40.96774 C 25.80645 44.51613 29.032255833333334 49.032257 30.645160833333332 54.19355 C 32.2580625 57.09677 32.2580625 65.161285 23.655913333333334 68.38709 L 18.54838666666667 69.354836" />
<path class="stroke" d="M 10.726071666666666 11.089109 L 10.726071666666666 90.09901" />
<path class="stroke" d="M 48.515774199999996 8.6861159 C 47.558334136 19.25 45.93345306 28.791948199999997 37.302181138 38.91870101" />
<path class="stroke" d="M 47.725557093999996 17.983334029999998 L 83.9278523 17.983334029999998 L 75.41790204 36.18586508" />
<path class="stroke" d="M 47.766 37.4782471048 L 47.766 91.046245096" />
<path class="stroke" d="M 62.9238084112 39.595678264 L 62.9238084112 89.39234483199999" />
<path class="stroke" d="M 62.9238084112 39.595678264 L 88.5153996 39.595678264 L 88.5153996 89.39234483199999" />
<path class="stroke" d="M 63.072597851999994 63.137515182399994 L 88.366611688 63.137515182399994" />
<path class="stroke" d="M 62.9238084112 87.21868251519999 L 88.5153996 87.21868251519999" />
</svg>
