<?xml version="1.0" standalone="no"?>
<!DOCTYPE svg PUBLIC "-//W3C//DTD SVG 1.1//EN" "http://www.w3.org/Graphics/SVG/1.1/DTD/svg11.dtd">
<svg xmlns="http://www.w3.org/2000/svg" version="1.1" width="100%" height="100%">
<style type="text/css"><![CDATA[
  .stroke { fill:none; stroke:black; stroke-width:2 }
]]></style>
<path class="stroke" d="M 25.5 4.1522211 L 25.5 11.25" />
<path class="stroke" d="M 5.95 11.25 L 45.050000000000004 11.25" />
<path class="stroke" d="M 12.328466800000001 19.0757296875 L 12.328466800000001 30.462590625" />
<path class="stroke" d="M 12.328466800000001 19.0757296875 L 37.78832 19.0757296875 L 37.78832 30.353101875000004" />
<path class="stroke" d="M 12.328466800000001 29.586678 L 37.78832 29.586678" />
<path class="stroke" d="M 5.610810300000001 39.714729322500006 L 40.345944 39.714729322500006 C 35.091888000000004 43.8863504475 32.027028 44.0055402525 26.4810795 45.078242984999996" />
<path class="stroke" d="M 26.3351337 45.674188335 C 26.189187 61.64553914999999 26.4810795 65.817160275 23.934304500000003 67.94835524999999 C 23.145985500000002 68.80674888749999 22.357662 69.021348675 21.04379385 69.12864765" />
<path class="stroke" d="M 6.63243225 54.494187600000004 L 43.9945935 50.08418760000001" />
<path class="stroke" d="M 68.2445235 7.60948875 L 66.79926815 31.697077500000002 C 65.1934282 49.8722595 60.215585000000004 64.705275 50.2591231 68.04744000000001" />
<path class="stroke" d="M 52.0255471 29.72627475 L 78.0401445 23.375910750000003 C 77.07664185 33.667880249999996 76.27372215 48.7773675 77.879561 62.572987499999996 C 78.521895 64.9817505 79.3248136 67.60948499999999 83.33941100000001 67.60948499999999 L 91.85036400000001 67.3905075 C 93.4562045 67.60948499999999 94.4197055 65.63868000000001 94.4197055 63.4488975 L 94.4197055 59.7262725" />
<path class="stroke" d="M 59.5729925 36.5145975 C 62.945254250000005 37.1715315 66.4781017 39.14233275 69.850364 43.74087525" />
<path class="stroke" d="M 18.613138 77.00729 C 18.029196 82.55474 15.69343 87.22627 11.89781 89.85401" />
<path class="stroke" d="M 35.255474 77.88321 C 38.46715 81.678825 40.218975 85.18248 41.67883 90.14598" />
<path class="stroke" d="M 59.197075 78.17518 C 62.408752 81.678825 63.868607 85.47445 65.32846 90.43795" />
<path class="stroke" d="M 81.386856 78.17518 C 84.8905 81.678825 86.9343 84.8905 88.68613 90.43795" />
</svg>
