<?xml version="1.0" standalone="no"?>
<!DOCTYPE svg PUBLIC "-//W3C//DTD SVG 1.1//EN" "http://www.w3.org/Graphics/SVG/1.1/DTD/svg11.dtd">
<svg xmlns="http://www.w3.org/2000/svg" version="1.1" width="100%" height="100%">
<style type="text/css"><![CDATA[
  .stroke { fill:none; stroke:black; stroke-width:2 }
]]></style>
<path class="stroke" d="M 50.1401408 9.647810225 L 50.1401408 20.246349274999996" />
<path class="stroke" d="M 13.98248048 20.487223699999998 L 13.98248048 32.049267875" />
<path class="stroke" d="M 13.98248048 20.487223699999998 L 86.2978016 20.487223699999998 L 86.2978016 32.049267875" />
<path class="stroke" d="M 22.732673000000002 37.16381048387097 L 77.80198100000001 37.16381048387097" />
<path class="stroke" d="M 38.2376255 29.37975108870968 L 38.2376255 58.699458467741934" />
<path class="stroke" d="M 61.640375000000006 29.583359677419352 L 61.640375000000006 58.699458467741934" />
<path class="stroke" d="M 23.267327 47.908177903225805 L 77.0 47.908177903225805" />
<path class="stroke" d="M 17.6534654 58.903065 L 82.34654 58.903065" />
<path class="stroke" d="M 37.50782 60.08529435483871 C 35.0297033 68.26908338709677 27.0098996 74.98817983870967 13.643564000000001 77.83870967741935" />
<path class="stroke" d="M 61.92428 60.08529435483871 C 63.366341 68.26908338709677 71.65346 74.78457467741936 86.08910900000001 77.83870967741935" />
<path class="stroke" d="M 44.435317100000006 70.57177039999999 C 49.73500436 71.3099234 54.8359241 73.5244994 58.34697836 75.9235259" />
<path class="stroke" d="M 39.0694181 81.828863975 C 48.0126461 82.99763255000002 54.7697111 85.64277206 61.1293091 89.76421055" />
</svg>
