<?xml version="1.0" standalone="no"?>
<!DOCTYPE svg PUBLIC "-//W3C//DTD SVG 1.1//EN" "http://www.w3.org/Graphics/SVG/1.1/DTD/svg11.dtd">
<svg xmlns="http://www.w3.org/2000/svg" version="1.1" width="100%" height="100%">
<style type="text/css"><![CDATA[
  .stroke { fill:none; stroke:black; stroke-width:2 }
]]></style>
<path class="stroke" d="M 11.313868 17.445253 C 15.401459 18.029196 19.48905 20.364962 22.408756 24.160583" />
<path class="stroke" d="M 9.270073 47.226276 C 13.357662 47.226276 18.321167 46.934303 23.86861 43.138683 C 16.27737 53.357662 14.233576 58.321167 15.109488 60.9489 C 15.69343 63.284668 20.948904 65.62044 22.116787 68.832115 C 23.576641 72.33576 18.129246 80.26506 11.021896 83.722626" />
<path class="stroke" d="M 11.021896 84.014595 C 39.692924 81.65476 40.51095 91.313866 90.43795 90.14598" />
<path class="stroke" d="M 44.3445256 12.427006835999999 L 85.967884 12.427006835999999" />
<path class="stroke" d="M 44.3445256 22.338829488 L 86.3883208 22.338829488 L 86.3883208 36.77561943599999" />
<path class="stroke" d="M 44.3445256 36.77561943599999 L 86.1781024 36.77561943599999" />
<path class="stroke" d="M 44.3445256 22.338829488 L 44.3445256 50.565981900000004 C 44.3445256 60.9087567 41.11683112 66.20494727999998 35.1287128 69.93148566" />
<path class="stroke" d="M 50.29164352 48.95750926 L 50.29164352 80.1537508" />
<path class="stroke" d="M 50.29164352 48.95750926 L 91.19987344 48.95750926 L 91.19987344 77.5928539 C 91.2626812 78.95092149999999 89.62890256 79.9597306 87.99506416 79.9209487 L 85.54436632 79.9209487" />
<path class="stroke" d="M 51.04567727199999 64.08999631 L 90.634352608 64.20641581" />
<path class="stroke" d="M 64.053343648 49.073912154999995 L 64.053343648 79.33889178999999" />
<path class="stroke" d="M 78.1921616464 49.073912893 L 78.1921616464 79.45529284" />
</svg>
