<?xml version="1.0" standalone="no"?>
<!DOCTYPE svg PUBLIC "-//W3C//DTD SVG 1.1//EN" "http://www.w3.org/Graphics/SVG/1.1/DTD/svg11.dtd">
<svg xmlns="http://www.w3.org/2000/svg" version="1.1" width="100%" height="100%">
<style type="text/css"><![CDATA[
  .stroke { fill:none; stroke:black; stroke-width:2 }
]]></style>
<path class="stroke" d="M 13.886999999999999 8.990537 L 13.886999999999999 74.60566" />
<path class="stroke" d="M 13.886999999999999 8.990537 L 38.91786956521739 8.990537 L 38.91786956521739 74.60566" />
<path class="stroke" d="M 13.886999999999999 31.072573 L 38.57493478260869 31.072573" />
<path class="stroke" d="M 13.886999999999999 53.1546 L 38.57493478260869 53.1546" />
<path class="stroke" d="M 13.886999999999999 74.60566 L 38.91786956521739 74.60566" />
<path class="stroke" d="M 20.05891304347826 82.1766 C 17.773043478260867 87.4343 13.429782608695652 91.7455 7.02920652173913 95.1104" />
<path class="stroke" d="M 32.06011956521739 82.49213 C 35.374684782608696 85.43633 37.66055434782608 88.38063 38.91783695652173 92.58673" />
<path class="stroke" d="M 50.53211527 9.854013 L 93.9890478 9.854013" />
<path class="stroke" d="M 50.35401418 9.854013 L 50.35401418 31.167881 C 50.35401418 74.67153 48.038684759999995 81.386856 45.22079159 90.09901" />
<path class="stroke" d="M 60.639900365 34.6732668 L 87.87247715 34.6732668 C 81.67584003500001 61.910891899999996 71.239405484 75.217824 52.97564351 86.861386" />
<path class="stroke" d="M 59.987623583 40.910891899999996 C 62.416127278999994 53.8064501 70.916773007 64.4193552 73.750320668 69.161291 C 78.88612673 76.38709700000001 88.095159236 81.80644799999999 96.84128702 86.861386" />
</svg>
