<?xml version="1.0" standalone="no"?>
<!DOCTYPE svg PUBLIC "-//W3C//DTD SVG 1.1//EN" "http://www.w3.org/Graphics/SVG/1.1/DTD/svg11.dtd">
<svg xmlns="http://www.w3.org/2000/svg" version="1.1" width="100%" height="100%">
<style type="text/css"><![CDATA[
  .stroke { fill:none; stroke:black; stroke-width:2 }
]]></style>
<path class="stroke" d="M 8.250825 11.089109 L 29.838708333333333 11.290321 C 31.451613333333338 17.741934 26.61290166666667 33.225803 21.774193333333333 40.0" />
<path class="stroke" d="M 21.774193333333333 40.96774 C 25.80645 44.51613 29.032255833333334 49.032257 30.645160833333332 54.19355 C 32.2580625 57.09677 32.2580625 65.161285 23.655913333333334 68.38709 L 18.54838666666667 69.354836" />
<path class="stroke" d="M 10.726071666666666 11.089109 L 10.726071666666666 90.09901" />
<path class="stroke" d="M 63.454274 10.729925 L 63.454274 23.86861" />
<path class="stroke" d="M 40.167882899999995 23.86861 L 90.03649399999999 23.86861" />
<path class="stroke" d="M 62.445251999999996 39.343063 L 84.518247 39.343063 C 83.4963485 53.06569 82.67882900000001 62.116783 81.04379 70.29197 C 79.0 79.63503 75.321164 88.10219 72.051093 88.10219 L 67.96350179999999 88.10219" />
<path class="stroke" d="M 63.467150499999995 23.86861 L 62.0364954 41.38686 C 60.605838199999994 60.07299 55.291970199999994 78.46715 47.3211654 84.014595" />
</svg>
