<?xml version="1.0" standalone="no"?>
<!DOCTYPE svg PUBLIC "-//W3C//DTD SVG 1.1//EN" "http://www.w3.org/Graphics/SVG/1.1/DTD/svg11.dtd">
<svg xmlns="http://www.w3.org/2000/svg" version="1.1" width="100%" height="100%">
<style type="text/css"><![CDATA[
  .stroke { fill:none; stroke:black; stroke-width:2 }
]]></style>
<path class="stroke" d="M 11.91051 6.385335 C 11.11841 15.304599 9.53716 22.721287 6.84881 27.506311" />
<path class="stroke" d="M 10.849045 13.83652 L 41.194945 13.83652" />
<path class="stroke" d="M 3.45912 32.3899 L 45.91195 32.3899" />
<path class="stroke" d="M 20.243881 13.593146 C 18.66558 34.070683 11.109481 50.140804 3.546921 62.04098" />
<path class="stroke" d="M 11.271638 48.593586 L 11.25 93.88889" />
<path class="stroke" d="M 30.1079215 36.65558 C 29.1964625 40.634956 28.133127 44.816624 26.0064565 48.39138" />
<path class="stroke" d="M 11.271638 48.3913 L 44.08321 48.3913" />
<path class="stroke" d="M 26.3102625 48.39128 L 26.250002 89.72223" />
<path class="stroke" d="M 11.575488 63.162155 L 41.348885 63.162155" />
<path class="stroke" d="M 11.7273685 78.13529 L 41.348885 78.13529" />
<path class="stroke" d="M 11.25 90.27779 L 43.888895 90.27779" />
<path class="stroke" d="M 56.8 10.714287 L 56.8 59.285713" />
<path class="stroke" d="M 56.60714386 10.0 L 89.0071444 10.0 L 89.0071444 59.285713" />
<path class="stroke" d="M 56.992857220000005 26.785717 L 88.8142834 26.785717" />
<path class="stroke" d="M 56.992857220000005 41.785717 L 89.0071444 41.785717" />
<path class="stroke" d="M 56.60714386 56.071426 L 88.8142834 56.428574" />
<path class="stroke" d="M 66.8285722 57.14286 C 65.56725856 74.6611 58.889049400000005 87.51824 51.16350268 90.14598" />
<path class="stroke" d="M 75.5071444 57.5 L 75.44379322 82.55474 C 75.44379322 87.81021 77.33576692 90.43795 79.85839419999999 90.43795 L 92.944522 90.43795 C 94.5211654 90.43795 95.46715090000001 89.270065 95.46715090000001 86.9343 L 95.46715090000001 83.43065" />
</svg>
