<?xml version="1.0" standalone="no"?>
<!DOCTYPE svg PUBLIC "-//W3C//DTD SVG 1.1//EN" "http://www.w3.org/Graphics/SVG/1.1/DTD/svg11.dtd">
<svg xmlns="http://www.w3.org/2000/svg" version="1.1" width="100%" height="100%">
<style type="text/css"><![CDATA[
  .stroke { fill:none; stroke:black; stroke-width:2 }
]]></style>
<path class="stroke" d="M 14.984257 20.126216 L 85.33126 20.126216" />
<path class="stroke" d="M 34.22713 7.078852000000001 L 34.22713 37.8927472" />
<path class="stroke" d="M 65.77287 6.801256000000001 L 65.77287 37.89271200000001" />
<path class="stroke" d="M 6.466877 38.170352 L 94.164055 38.170352" />
<path class="stroke" d="M 31.7035 39.28078000000001 C 28.7592 45.17986 22.0295 48.372279999999996 14.3533 50.107288" />
<path class="stroke" d="M 65.7729 39.28071400000001 C 69.7686 45.110362 75.3417 48.025186000000005 83.123 50.10722199999999" />
<path class="stroke" d="M 48.940087999999996 51.86909 L 48.940087999999996 89.140315 C 49.028372 92.447325 47.526788 94.145625 44.435336 93.96686999999999 L 42.315428 93.96686999999999" />
<path class="stroke" d="M 25.621402399999997 58.304423 C 30.302806399999998 60.896328 33.3942584 64.292843 36.485794399999996 68.761718" />
<path class="stroke" d="M 16.3469792 90.48101999999999 C 24.031568 85.028865 30.921163999999997 81.18558999999999 40.195603999999996 77.34223" />
<path class="stroke" d="M 73.31860999999999 59.108846 C 69.962054 63.756645999999996 66.34064599999999 66.795481 62.18919799999999 69.566226" />
<path class="stroke" d="M 58.744517599999995 76.5378155 C 65.10407359999999 82.3474805 71.9936696 87.0846155 79.41322159999999 91.55366049999999" />
</svg>
