<?xml version="1.0" standalone="no"?>
<!DOCTYPE svg PUBLIC "-//W3C//DTD SVG 1.1//EN" "http://www.w3.org/Graphics/SVG/1.1/DTD/svg11.dtd">
<svg xmlns="http://www.w3.org/2000/svg" version="1.1" width="100%" height="100%">
<style type="text/css"><![CDATA[
  .stroke { fill:none; stroke:black; stroke-width:2 }
]]></style>
<path class="stroke" d="M 82.376236 10.50055 C 63.960396 12.975797777777778 35.742573 14.130913333333334 19.108912 14.130913333333334" />
<path class="stroke" d="M 20.891088 18.42134277777778 C 25.346535 20.73157388888889 28.0231 23.255611111111115 30.09901 25.84708555555556" />
<path class="stroke" d="M 43.465347 17.596259444444442 C 47.623764 19.41144111111111 50.29703 21.721672222222224 52.07921 24.691969444444446" />
<path class="stroke" d="M 80.89109 16.606160000000003 C 78.514854 20.566556666666667 74.95049 23.536853888888892 69.90099 25.682067777777778" />
<path class="stroke" d="M 9.854013 29.175180999999995 L 9.854013 39.189777899999996" />
<path class="stroke" d="M 9.854013 28.766420899999996 L 90.14598 28.766420899999996 L 90.14598 39.3941569" />
<path class="stroke" d="M 20.70077 37.479487999999996 C 19.943779999999997 41.466848 18.05108 44.091488 14.73863 47.018912" />
<path class="stroke" d="M 34.896326 35.05678399999999 L 34.896326 47.92745599999999 C 34.896326 49.290223999999995 36.599846 50.19872 39.155036 50.19872 L 69.817496 50.19872 C 72.18341600000001 50.19872 74.265476 49.138783999999994 74.360066 47.473183999999996 L 74.360066 44.89904" />
<path class="stroke" d="M 45.68504 35.0567936 C 50.60615 37.3785536 53.82383 39.8517536 56.757560000000005 43.0820096" />
<path class="stroke" d="M 74.36003 35.208224 C 80.32217 38.034656 84.01307 40.86128 87.70388 44.747648" />
<path class="stroke" d="M 43.138683 60.3430648 C 36.423355 65.59854 25.036495 71.08759 13.357662 74.59124" />
<path class="stroke" d="M 39.635033 63.3795616 L 65.62044 63.3795616 C 55.10949 72.9562028 32.627735 84.051092 10.145985 90.12408400000001" />
<path class="stroke" d="M 28.540146 69.1021896 C 40.0 77.5806456 63.576637 85.569342 88.39416 90.12408400000001" />
</svg>
