<?xml version="1.0" standalone="no"?>
<!DOCTYPE svg PUBLIC "-//W3C//DTD SVG 1.1//EN" "http://www.w3.org/Graphics/SVG/1.1/DTD/svg11.dtd">
<svg xmlns="http://www.w3.org/2000/svg" version="1.1" width="100%" height="100%">
<style type="text/css"><![CDATA[
  .stroke { fill:none; stroke:black; stroke-width:2 }
]]></style>
<path class="stroke" d="M 50.0 5.113579000000001 L 50.0 13.0" />
<path class="stroke" d="M 7.5 13.0 L 92.5 13.0" />
<path class="stroke" d="M 27.8248169 21.547445 L 27.8248169 33.69343" />
<path class="stroke" d="M 27.8248169 21.547445 L 72.37956 21.547445 L 72.37956 33.576642" />
<path class="stroke" d="M 27.8248169 32.7591232 L 72.37956 32.7591232" />
<path class="stroke" d="M 9.854013 44.007298 L 9.854013 52.5912382" />
<path class="stroke" d="M 9.854013 43.6569322 L 90.14598 43.6569322 L 90.14598 52.7664202" />
<path class="stroke" d="M 27.632113439999998 54.25766325 L 71.544518 54.25766325" />
<path class="stroke" d="M 44.92262478 54.40072904 C 37.78686012 60.55255409 25.684549999999998 63.864885 12.637255999999999 66.38961" />
<path class="stroke" d="M 36.14014556 60.1233577 C 52.881748599999995 66.99050876 56.17518336 86.44744395000001 50.1372212 90.8824805 C 46.5693384 93.4576608 39.98247922 92.8853996 37.51240456 91.7408723" />
<path class="stroke" d="M 44.099268439999996 65.27372222 C 36.41459642 70.7102193 25.98539982 73.85766226999999 12.5372259 76.28977972" />
<path class="stroke" d="M 49.8627694 72.5700731 C 41.629193779999994 79.72335770000001 27.083211719999998 84.1583918 12.5372259 86.30437914000001" />
<path class="stroke" d="M 78.13138000000001 61.12481578 C 73.7401418 64.70145857 66.878828 67.5627729 58.645250499999996 69.13649463" />
<path class="stroke" d="M 53.7051087 66.99050876 C 60.0175142 78.00656674999999 74.0145936 84.1583918 86.91386109999999 88.5934308" />
</svg>
