<?xml version="1.0" standalone="no"?>
<!DOCTYPE svg PUBLIC "-//W3C//DTD SVG 1.1//EN" "http://www.w3.org/Graphics/SVG/1.1/DTD/svg11.dtd">
<svg xmlns="http://www.w3.org/2000/svg" version="1.1" width="100%" height="100%">
<style type="text/css"><![CDATA[
  .stroke { fill:none; stroke:black; stroke-width:2 }
]]></style>
<path class="stroke" d="M 11.884865 7.5788601 L 44.39273 7.5788601" />
<path class="stroke" d="M 19.408505 7.5788601 L 19.408505 40.32021099999999" />
<path class="stroke" d="M 7.484225 40.626149 L 47.515775000000005 40.626149" />
<path class="stroke" d="M 34.739735 7.5788601 L 34.739735 86.525288 C 34.69244 90.911143 33.65141 92.23713299999999 32.468450000000004 92.339177 L 29.91326 92.339177" />
<path class="stroke" d="M 34.59780500000001 40.626149 C 28.020515 63.269732 22.011035000000003 80.711399 9.755510000000001 91.727107" />
<path class="stroke" d="M 64.59459 7.5135136 L 88.27026 7.5135136 C 85.35135 15.297297 82.80973 25.963066 79.189186 36.7027" />
<path class="stroke" d="M 79.51351 37.675674 C 83.22786 41.305073 89.80198 50.29703 89.80198 59.207924 L 89.80198 63.069305 C 89.80198 66.63367 87.915436 76.918915 84.05405 76.918915 L 74.32432 75.945946" />
<path class="stroke" d="M 64.918915 8.81081 L 64.59459 92.48648" />
</svg>
