<?xml version="1.0" standalone="no"?>
<!DOCTYPE svg PUBLIC "-//W3C//DTD SVG 1.1//EN" "http://www.w3.org/Graphics/SVG/1.1/DTD/svg11.dtd">
<svg xmlns="http://www.w3.org/2000/svg" version="1.1" width="100%" height="100%">
<style type="text/css"><![CDATA[
  .stroke { fill:none; stroke:black; stroke-width:2 }
]]></style>
<path class="stroke" d="M 9.8978088 19.7591235 L 9.8978088 71.262768" />
<path class="stroke" d="M 9.8978088 19.7591235 L 29.9854 19.7591235 L 29.9854 71.262768" />
<path class="stroke" d="M 10.014598 44.1079501 L 29.868612000000002 44.1079501" />
<path class="stroke" d="M 9.8978088 69.0145948 L 29.9854 69.0145948" />
<path class="stroke" d="M 43.391970549999996 16.3748 L 93.6080263 16.3748" />
<path class="stroke" d="M 68.5 3.1279707368 L 68.5 31.610304128000006" />
<path class="stroke" d="M 43.20802819 32.816553796 L 93.42408520000001 32.816553796" />
<path class="stroke" d="M 56.5096762 28.132 L 56.5096762 49.60464332200001" />
<path class="stroke" d="M 80.89677082 28.3030966972 L 80.89677082 49.348000000000006" />
<path class="stroke" d="M 48.9902326264 51.4 L 91.78976313999999 51.4" />
<path class="stroke" d="M 63.514262101599996 54.5820574924 L 63.514262101599996 68.2184357128 C 63.514262101599996 80.241910246 59.4969778936 92.1187564408 49.4537663152 95.19793849000001" />
<path class="stroke" d="M 72.6304073608 54.435430660600005 L 72.6304073608 89.039575396 C 72.6304073608 92.70526879 74.6390515816 94.90468382200001 76.8022015636 94.90468382200001 L 88.8540526 94.90468382200001 C 90.553678948 95.051311156 91.78976313999999 93.878287462 91.78976313999999 92.265381766 L 91.78976313999999 89.4794594068" />
</svg>
