<?xml version="1.0" standalone="no"?>
<!DOCTYPE svg PUBLIC "-//W3C//DTD SVG 1.1//EN" "http://www.w3.org/Graphics/SVG/1.1/DTD/svg11.dtd">
<svg xmlns="http://www.w3.org/2000/svg" version="1.1" width="100%" height="100%">
<style type="text/css"><![CDATA[
  .stroke { fill:none; stroke:black; stroke-width:2 }
]]></style>
<path class="stroke" d="M 13.154171785714285 14.059406 C 16.654879285714284 16.138615 20.15558785714286 19.108912 23.01980357142857 22.673267" />
<path class="stroke" d="M 10.926448928571428 38.118813 C 14.108912142857141 39.90099 17.927864999999997 42.574257 20.473834285714286 46.138615" />
<path class="stroke" d="M 10.608203571428572 85.64356 C 11.321795357142857 87.422676 13.310014285714285 89.896904 15.629600357142856 89.896904 C 17.949189642857142 89.896904 21.110325 76.73267 23.33804892857143 69.60396" />
<path class="stroke" d="M 49.624671146 8.877736875 L 49.624671146 25.57846625" />
<path class="stroke" d="M 49.624671146 8.877736875 L 77.5032104 8.877736875 L 77.5032104 25.417882750000004" />
<path class="stroke" d="M 49.624671146 24.2937944 L 77.5032104 24.2937944" />
<path class="stroke" d="M 35.2085033595 34.115510562500006 L 35.2085033595 52.48631287500001" />
<path class="stroke" d="M 35.2085033595 34.115510562500006 L 56.117407799999995 34.115510562500006 L 56.117407799999995 52.30967102500001" />
<path class="stroke" d="M 35.2085033595 51.07317384 L 56.117407799999995 51.07317384" />
<path class="stroke" d="M 70.9785033595 34.115510562500006 L 70.9785033595 52.48631287500001" />
<path class="stroke" d="M 70.9785033595 34.115510562500006 L 91.88740779999999 34.115510562500006 L 91.88740779999999 52.30967102500001" />
<path class="stroke" d="M 70.9785033595 51.07317384 L 91.88740779999999 51.07317384" />
<path class="stroke" d="M 41.6532827 66.3087579 L 85.5598481 66.3087579" />
<path class="stroke" d="M 63.6065654 60.50145978 L 63.6065654 92.38466880000001" />
<path class="stroke" d="M 63.6065654 68.24452485 C 56.572993499999995 77.01240774 48.04744395 81.68102052 36.964232089999996 84.0722595" />
<path class="stroke" d="M 63.6065654 68.24452485 C 70.21386475 77.12627565 79.16569050000001 81.79488843 90.24890382000001 83.84452485" />
</svg>
