<?xml version="1.0" standalone="no"?>
<!DOCTYPE svg PUBLIC "-//W3C//DTD SVG 1.1//EN" "http://www.w3.org/Graphics/SVG/1.1/DTD/svg11.dtd">
<svg xmlns="http://www.w3.org/2000/svg" version="1.1" width="100%" height="100%">
<style type="text/css"><![CDATA[
  .stroke { fill:none; stroke:black; stroke-width:2 }
]]></style>
<path class="stroke" d="M 8.250825 11.089109 L 29.838708333333333 11.290321 C 31.451613333333338 17.741934 26.61290166666667 33.225803 21.774193333333333 40.0" />
<path class="stroke" d="M 21.774193333333333 40.96774 C 25.80645 44.51613 29.032255833333334 49.032257 30.645160833333332 54.19355 C 32.2580625 57.09677 32.2580625 65.161285 23.655913333333334 68.38709 L 18.54838666666667 69.354836" />
<path class="stroke" d="M 10.726071666666666 11.089109 L 10.726071666666666 90.09901" />
<path class="stroke" d="M 51.7737211 11.605839 C 49.116787099999996 27.372261 43.5985394 41.970802 38.8978091 50.14598" />
<path class="stroke" d="M 47.686129199999996 30.583939 L 47.686129199999996 90.43795" />
<path class="stroke" d="M 62.654596384 30.29197 L 91.72087216 30.29197" />
<path class="stroke" d="M 84.47681584 9.270073 L 84.47681584 84.8905 C 84.47681584 87.51824 83.14393695999999 90.14598 80.999704384 90.14598 L 77.18773264000001 90.14598" />
<path class="stroke" d="M 63.845837248 40.51095 C 67.41955984 42.846714 69.56379568 46.642334 70.75503327999999 51.021896" />
</svg>
