<?xml version="1.0" standalone="no"?>
<!DOCTYPE svg PUBLIC "-//W3C//DTD SVG 1.1//EN" "http://www.w3.org/Graphics/SVG/1.1/DTD/svg11.dtd">
<svg xmlns="http://www.w3.org/2000/svg" version="1.1" width="100%" height="100%">
<style type="text/css"><![CDATA[
  .stroke { fill:none; stroke:black; stroke-width:2 }
]]></style>
<path class="stroke" d="M 16.126823854166666 9.562042 C 18.681569375 11.021896 21.23631125 14.817516 22.93947395833333 19.48905" />
<path class="stroke" d="M 7.1852178124999995 22.8707 L 31.029497916666667 22.8707" />
<path class="stroke" d="M 11.868915625 37.007298 L 26.345802291666665 37.007298" />
<path class="stroke" d="M 11.868915625 51.313866 L 26.345802291666665 51.313866" />
<path class="stroke" d="M 11.017335 64.45255 L 11.017335 85.76642" />
<path class="stroke" d="M 11.017335 64.16058 L 27.623173958333332 64.16058 L 27.623173958333332 85.76642" />
<path class="stroke" d="M 11.017335 85.76642 L 27.410279166666665 85.76642" />
<path class="stroke" d="M 62.578889000000004 7.413245 C 65.722939 8.675085 68.251829 11.829615 70.16562400000001 15.930615" />
<path class="stroke" d="M 52.326465 24.7634 L 67.294925 24.7634 L 67.294925 90.6939 C 67.15823 93.533 66.2013 94.4794 65.03936 94.4794 L 62.783860000000004 94.4794" />
<path class="stroke" d="M 40.843851 44.32184 L 61.34853 44.32184 C 58.75126 67.35024 50.617745 79.96854 39.2034655 88.80124" />
<path class="stroke" d="M 90.05520800000001 34.22712 C 86.159303 44.53212 84.108813 47.89702 78.777643 53.15452" />
<path class="stroke" d="M 67.294925 27.9181 C 69.14034000000001 65.5626 84.313875 84.5951 96.00159000000001 88.8013" />
</svg>
