<?xml version="1.0" standalone="no"?>
<!DOCTYPE svg PUBLIC "-//W3C//DTD SVG 1.1//EN" "http://www.w3.org/Graphics/SVG/1.1/DTD/svg11.dtd">
<svg xmlns="http://www.w3.org/2000/svg" version="1.1" width="100%" height="100%">
<style type="text/css"><![CDATA[
  .stroke { fill:none; stroke:black; stroke-width:2 }
]]></style>
<path class="stroke" d="M 10.549503453000002 8.621554510900001 L 49.590494098 8.621554510900001" />
<path class="stroke" d="M 40.43802762400001 8.774750645200001 L 40.43802762400001 44.776062055000004 C 40.43802762400001 46.15483723300001 39.436976343199994 47.380415752 37.720891512 47.380415752 L 36.290817554 47.380415752" />
<path class="stroke" d="M 18.47568303864 17.315488783000003 L 18.47568303864 30.061485442" />
<path class="stroke" d="M 18.47568303864 17.315488783000003 L 30.945919136 17.315488783000003 L 30.945919136 29.9389281148" />
<path class="stroke" d="M 18.47568303864 29.08102388608 L 30.945919136 29.08102388608" />
<path class="stroke" d="M 9.318554523 56.8439486803 L 53.301442718 56.8439486803" />
<path class="stroke" d="M 42.990436183999996 56.9913638284 L 42.990436183999996 91.634135185 C 42.990436183999996 92.960881111 41.8626695512 94.140211384 39.929358792 94.140211384 L 38.318262814 94.140211384" />
<path class="stroke" d="M 18.24804798024 65.20980996099999 L 18.24804798024 77.474825614" />
<path class="stroke" d="M 18.24804798024 65.20980996099999 L 32.296794976 65.20980996099999 L 32.296794976 77.3568930916" />
<path class="stroke" d="M 18.24804798024 76.53136260736001 L 32.296794976 76.53136260736001" />
<path class="stroke" d="M 63.16057696 12.773722 C 62.58831772 19.48905 57.724086740000004 29.124084 53.14598146 33.211678" />
<path class="stroke" d="M 58.5824756 26.788319 L 85.47883039999999 26.788319 C 85.19269 31.167881 84.3343031 34.37956 81.75911887999999 37.88321" />
<path class="stroke" d="M 68.597076 37.59124 C 68.597076 57.153282 60.585399599999995 76.131386 48.28175048 84.59853" />
<path class="stroke" d="M 68.31094540000001 50.437954 C 71.1722612 64.45255 78.3255458 76.715324 88.6262768 84.59853" />
</svg>
