<?xml version="1.0" standalone="no"?>
<!DOCTYPE svg PUBLIC "-//W3C//DTD SVG 1.1//EN" "http://www.w3.org/Graphics/SVG/1.1/DTD/svg11.dtd">
<svg xmlns="http://www.w3.org/2000/svg" version="1.1" width="100%" height="100%">
<style type="text/css"><![CDATA[
  .stroke { fill:none; stroke:black; stroke-width:2 }
]]></style>
<path class="stroke" d="M 8.003300000000001 33.069305 L 25.825083333333335 30.9901" />
<path class="stroke" d="M 19.389438333333334 9.60396 L 19.389438333333334 84.15842 C 19.389438333333334 87.42574 17.161715833333336 90.09901 14.191419166666668 90.09901" />
<path class="stroke" d="M 8.498349166666667 63.36634 L 24.09241 46.435642" />
<path class="stroke" d="M 45.452552350000005 8.273722249999999 L 45.452552350000005 41.383208" />
<path class="stroke" d="M 45.452552350000005 8.273722249999999 L 79.3503625 8.273722249999999 L 79.3503625 41.383208" />
<path class="stroke" d="M 45.649634125 23.92653935 L 79.15328275 23.92653935" />
<path class="stroke" d="M 45.452552350000005 39.937953799999995 L 79.3503625 39.937953799999995" />
<path class="stroke" d="M 31.50631 54.968455 L 93.493675 54.968455" />
<path class="stroke" d="M 62.736625000000004 55.1262 L 62.5 95.4838675" />
<path class="stroke" d="M 62.736625000000004 72.94955 L 87.1057 72.94955" />
<path class="stroke" d="M 42.86275 71.8454 C 42.4684 85.88325 37.57885 91.08834999999999 29.8501525 96.76655" />
<path class="stroke" d="M 42.86275 71.8454 C 43.57255 96.9243 63.9516115 95.80645 74.3548375 96.45161 L 94.913275 96.60884999999999" />
</svg>
