<?xml version="1.0" standalone="no"?>
<!DOCTYPE svg PUBLIC "-//W3C//DTD SVG 1.1//EN" "http://www.w3.org/Graphics/SVG/1.1/DTD/svg11.dtd">
<svg xmlns="http://www.w3.org/2000/svg" version="1.1" width="100%" height="100%">
<style type="text/css"><![CDATA[
  .stroke { fill:none; stroke:black; stroke-width:2 }
]]></style>
<path class="stroke" d="M 18.430655833333333 9.562042 C 21.350365 11.021896 24.27007 14.817516 26.216541666666668 19.48905" />
<path class="stroke" d="M 8.2116775 22.8707 L 35.46228333333334 22.8707" />
<path class="stroke" d="M 13.564475000000002 37.007298 L 30.109488333333335 37.007298" />
<path class="stroke" d="M 13.564475000000002 51.313866 L 30.109488333333335 51.313866" />
<path class="stroke" d="M 12.59124 64.45255 L 12.59124 85.76642" />
<path class="stroke" d="M 12.59124 64.16058 L 31.569341666666666 64.16058 L 31.569341666666666 85.76642" />
<path class="stroke" d="M 12.59124 85.76642 L 31.326033333333335 85.76642" />
<path class="stroke" d="M 68.5919674 6.130634928 C 61.418245600000006 15.677579694857144 53.32481641 23.16538005257143 43.20802819 27.658058472" />
<path class="stroke" d="M 68.5919674 6.130634928 C 75.94963282 15.303188811428571 83.49123807999999 23.16538005257143 93.9759085 27.470864633142856" />
<path class="stroke" d="M 58.309634584 24.285714285714285 L 78.69036340000001 24.285714285714285" />
<path class="stroke" d="M 49.465109356 36.748904780000004 L 49.465109356 88.81897000000001" />
<path class="stroke" d="M 49.465109356 36.748904780000004 L 64.480874197 36.748904780000004 L 64.480874197 89.89926639999999 C 64.480874197 90.9795554 63.530509243000004 92.7080252 62.2 92.49196740000001 L 61.059560623 92.49196740000001" />
<path class="stroke" d="M 49.465109356 51.2248166 L 64.480874197 51.2248166" />
<path class="stroke" d="M 49.465109356 66.13284476 L 64.290802378 66.13284476" />
<path class="stroke" d="M 75.76569235 39.34160504 L 75.76569235 64.40437792" />
<path class="stroke" d="M 87.35401 35.02043646 L 87.35401 88.81897000000001 C 87.35401 90.76349760000001 85.8824812 92.49196740000001 84.59488719999999 92.7080252 L 83.1233584 92.7080252" />
</svg>
