<?xml version="1.0" standalone="no"?>
<!DOCTYPE svg PUBLIC "-//W3C//DTD SVG 1.1//EN" "http://www.w3.org/Graphics/SVG/1.1/DTD/svg11.dtd">
<svg xmlns="http://www.w3.org/2000/svg" version="1.1" width="100%" height="100%">
<style type="text/css"><![CDATA[
  .stroke { fill:none; stroke:black; stroke-width:2 }
]]></style>
<path class="stroke" d="M 16.435644 7.5138612 L 45.247524 7.5138612 L 45.247524 43.11287145 C 45.247524 44.6485142 43.465347 45.3465347 40.79208 45.3465347 L 37.227722 45.3465347" />
<path class="stroke" d="M 11.683168 16.16930694 C 18.51485 17.28613786 24.752476 19.240593849999996 29.20792 21.893069399999998" />
<path class="stroke" d="M 12.277227 35.0158407 L 30.9901 27.75643549" />
<path class="stroke" d="M 61.287132 7.5138612 L 88.91089 7.5138612 L 88.91089 42.69405868 C 88.91089 44.229701899999995 87.42574 45.2069306 84.15842 45.2069306 L 81.18812 45.2069306" />
<path class="stroke" d="M 58.316833 15.75049464 C 64.85149 16.727722399999998 69.90099 18.682178389999997 74.0594 21.7534653" />
<path class="stroke" d="M 58.316833 34.7366325 L 76.73267 27.4772287" />
<path class="stroke" d="M 46.05839 54.39853932 C 45.80385 56.9821514 39.71785 59.9797874 34.25295 60.0792394" />
<path class="stroke" d="M 21.532845 60.17372202 L 21.532845 91.870074" />
<path class="stroke" d="M 21.532845 60.0796511 L 79.051094 60.0796511 L 79.051094 91.870074" />
<path class="stroke" d="M 21.532845 75.0096135 L 79.051094 75.0096135" />
<path class="stroke" d="M 21.532845 90.4908376 L 79.051094 90.4908376" />
</svg>
