<?xml version="1.0" standalone="no"?>
<!DOCTYPE svg PUBLIC "-//W3C//DTD SVG 1.1//EN" "http://www.w3.org/Graphics/SVG/1.1/DTD/svg11.dtd">
<svg xmlns="http://www.w3.org/2000/svg" version="1.1" width="100%" height="100%">
<style type="text/css"><![CDATA[
  .stroke { fill:none; stroke:black; stroke-width:2 }
]]></style>
<path class="stroke" d="M 14.131386000000001 14.7777914 L 39.007296000000004 14.7777914" />
<path class="stroke" d="M 22.1329148 14.7777914 C 21.9786012 34.81833575 14.014598 58.0474392 9.2262772 64.5" />
<path class="stroke" d="M 18.9197068 43.653282499999996 L 18.9197068 77.405108" />
<path class="stroke" d="M 18.9197068 43.653282499999996 L 36.087588000000004 43.653282499999996 L 35.970800000000004 77.6532825" />
<path class="stroke" d="M 18.802919199999998 74.9233545 L 35.970800000000004 74.9233545" />
<path class="stroke" d="M 55.690824 6.78234 C 53.80648 21.2934 51.215584 29.8107 45.9747624 39.2744" />
<path class="stroke" d="M 54.630912 18.13879 L 86.95898400000002 18.13879 L 86.95898400000002 58.51739 C 86.900128 63.98539 86.13455200000001 71.03059 82.5426 71.13579 L 80.24604 71.13579" />
<path class="stroke" d="M 56.220808000000005 33.2807 L 76.536264 33.2807 L 76.536264 59.7791" />
<path class="stroke" d="M 53.74768 59.7791 L 76.536264 59.7791" />
<path class="stroke" d="M 53.74768 59.7791 L 53.74768 85.9622 C 53.512144 90.3786 55.043128 92.5868 57.280776 92.5868 L 88.548936 92.5868 C 91.02212 92.692 92.258712 89.6425 92.258712 85.3313 L 92.258712 79.0221" />
</svg>
