<?xml version="1.0" standalone="no"?>
<!DOCTYPE svg PUBLIC "-//W3C//DTD SVG 1.1//EN" "http://www.w3.org/Graphics/SVG/1.1/DTD/svg11.dtd">
<svg xmlns="http://www.w3.org/2000/svg" version="1.1" width="100%" height="100%">
<style type="text/css"><![CDATA[
  .stroke { fill:none; stroke:black; stroke-width:2 }
]]></style>
<path class="stroke" d="M 13.4463599 5.06782521 L 53.8343969 5.06782521 L 53.8343969 20.96687754" />
<path class="stroke" d="M 13.4463599 20.96687754 L 53.8343969 20.96687754" />
<path class="stroke" d="M 13.4463599 5.06782521 L 13.4463599 36.6671718 C 13.5084279 45.94159079999999 12.2675989 51.0425748 5.6293378 59.32335465" />
<path class="stroke" d="M 23.890483849999995 29.738961 L 47.95951615 29.738961" />
<path class="stroke" d="M 20.484496420499998 42.94400285 L 51.59256628899999 42.94400285" />
<path class="stroke" d="M 36.038537653 43.0875235 L 36.038537653 64.4739795 C 36.038537653 66.005009 35.130258023 66.961874 34.335526843 66.9140535 L 32.85957694299999 66.9140535" />
<path class="stroke" d="M 29.680663019999994 48.68529749999999 C 27.599217359999997 54.091744 25.177198330000003 58.49345949999999 20.711562729 61.890398499999996" />
<path class="stroke" d="M 42.623494789999995 48.8288955 C 45.915967959999996 52.2258345 48.52718641999999 56.4839975 50.68431905 61.890398499999996" />
<path class="stroke" d="M 64.42116605999999 21.204379 L 88.9992669 21.204379" />
<path class="stroke" d="M 82.8737781 6.489051099999999 L 82.8737781 59.42335 C 82.8737781 61.262768 81.7467114 63.10218599999999 79.93357355999999 63.10218599999999 L 76.7102151 63.10218599999999" />
<path class="stroke" d="M 65.42846531999999 28.357664999999997 C 68.4503631 29.992699799999997 70.2635037 32.6496338 71.2708002 35.7153272" />
<path class="stroke" d="M 17.4453 78.59935999999999 C 16.6042 83.58356 14.5012 86.86436 10.8207 90.52364" />
<path class="stroke" d="M 33.21814 75.57097999999999 L 33.21814 91.65932 C 33.21814 93.36277999999999 35.11094 94.4984 37.95004 94.4984 L 72.01944 94.4984 C 74.64824 94.4984 76.96164 93.17348 77.06674 91.09147999999999 L 77.06674 87.8738" />
<path class="stroke" d="M 45.2056 75.57099199999999 C 50.6735 78.473192 54.2487 81.56469200000001 57.5084 85.60251199999999" />
<path class="stroke" d="M 77.0667 75.76028 C 83.6913 79.29332 87.7923 82.8266 91.8932 87.68456" />
</svg>
