<?xml version="1.0" standalone="no"?>
<!DOCTYPE svg PUBLIC "-//W3C//DTD SVG 1.1//EN" "http://www.w3.org/Graphics/SVG/1.1/DTD/svg11.dtd">
<svg xmlns="http://www.w3.org/2000/svg" version="1.1" width="100%" height="100%">
<style type="text/css"><![CDATA[
  .stroke { fill:none; stroke:black; stroke-width:2 }
]]></style>
<path class="stroke" d="M 7.242375 22.0316 L 1.98475 38.1199" />
<path class="stroke" d="M 17.231833333333334 22.0316 L 23.01525 38.1199" />
<path class="stroke" d="M 12.237083333333334 7.3123 L 12.237083333333334 93.3186" />
<path class="stroke" d="M 37.837591 13.540700000000001 L 85.662406 13.540700000000001" />
<path class="stroke" d="M 61.75 2.5865911861999997 L 61.75 26.139289952000006" />
<path class="stroke" d="M 37.6624078 27.136765639 L 85.487224 27.136765639" />
<path class="stroke" d="M 50.330644 23.263 L 50.330644 41.0192242855" />
<path class="stroke" d="M 73.55644840000001 23.4044838073 L 73.55644840000001 40.807" />
<path class="stroke" d="M 45.310219000000004 44.109488060000004 L 45.310219000000004 84.6583914" />
<path class="stroke" d="M 45.52919575 44.109488060000004 L 79.689775 44.109488060000004 L 79.689775 84.6583914" />
<path class="stroke" d="M 45.5366485 57.950496400000006 L 79.653463 57.950496400000006" />
<path class="stroke" d="M 45.5366485 71.57821854 L 79.653463 71.57821854" />
<path class="stroke" d="M 45.52919575 84.47737000000001 L 79.4707975 84.47737000000001" />
<path class="stroke" d="M 49.9087585 88.821896 C 48.156934 91.899266 41.0464525 93.9848158 37.76178025 94.7088983" />
<path class="stroke" d="M 72.86649249999999 88.8659687 C 74.75130625 90.4240814 81.81936999999999 95.09843251999999 88.65183250000001 94.90366571999999" />
</svg>
