<?xml version="1.0" standalone="no"?>
<!DOCTYPE svg PUBLIC "-//W3C//DTD SVG 1.1//EN" "http://www.w3.org/Graphics/SVG/1.1/DTD/svg11.dtd">
<svg xmlns="http://www.w3.org/2000/svg" version="1.1" width="100%" height="100%">
<style type="text/css"><![CDATA[
  .stroke { fill:none; stroke:black; stroke-width:2 }
]]></style>
<path class="stroke" d="M 33.814713 3.4841688150000003 C 28.91008 6.78204297 21.06267 9.878828483999998 9.618528 12.935394227999998" />
<path class="stroke" d="M 66.18528 3.4841688150000003 C 71.08991 6.78204297 78.28338 9.878828483999998 90.38147 12.935394227999998" />
<path class="stroke" d="M 29.2759106 14.1249633 L 73.66715119999999 13.690510823999999 C 72.6861236 17.763503484 70.7240852 20.152992288 68.026274 23.248467156 C 66.5547368 24.714744030000002 63.85693064 26.94131376 58.7065664 26.94131376 L 56.00875687999999 26.94131376" />
<path class="stroke" d="M 44.48174852 14.016349901999998 L 42.029198 17.329050264 C 38.10510692 21.564962184 30.99269924 24.28029081 24.8613116 26.561166959999998" />
<path class="stroke" d="M 27.080292 36.8978091 L 27.080292 82.67882900000001" />
<path class="stroke" d="M 27.372261 36.8978091 L 72.9197 36.8978091 L 72.9197 82.67882900000001" />
<path class="stroke" d="M 27.382198 52.524754 L 72.871284 52.524754" />
<path class="stroke" d="M 27.382198 67.9108919 L 72.871284 67.9108919" />
<path class="stroke" d="M 27.372261 82.47444999999999 L 72.62773 82.47444999999999" />
<path class="stroke" d="M 33.211678 87.37956 C 30.875912 90.85400999999999 21.39527 93.208663 17.015707 94.0261755" />
<path class="stroke" d="M 63.82199 87.42931949999999 C 66.335075 89.188479 75.75916 94.4659722 84.86911 94.2460742" />
</svg>
