<?xml version="1.0" standalone="no"?>
<!DOCTYPE svg PUBLIC "-//W3C//DTD SVG 1.1//EN" "http://www.w3.org/Graphics/SVG/1.1/DTD/svg11.dtd">
<svg xmlns="http://www.w3.org/2000/svg" version="1.1" width="100%" height="100%">
<style type="text/css"><![CDATA[
  .stroke { fill:none; stroke:black; stroke-width:2 }
]]></style>
<path class="stroke" d="M 19.76438511627907 13.941605 C 22.616192441860466 17.153284 24.042098139534883 21.240875 24.75504895348837 25.912407" />
<path class="stroke" d="M 12.159564360465117 29.416058 L 33.07282093023255 27.66423 C 28.795107906976746 39.927006 18.813782674418604 50.729923 10.25835988372093 57.44525" />
<path class="stroke" d="M 24.042098139534883 45.18248 L 24.042098139534883 89.56204" />
<path class="stroke" d="M 26.65625465116279 44.014595 C 29.983362790697672 46.642334 31.64691686046512 50.14598 33.07282093023255 54.233574" />
<path class="stroke" d="M 48.50990025 9.90099 C 51.0198005 13.762377 53.143565 18.811882 54.495048249999996 24.158417" />
<path class="stroke" d="M 80.173269 10.198019 C 79.2079215 16.138615 77.470296 20.891088 74.960399 24.158417" />
<path class="stroke" d="M 47.3514852 29.80198 L 83.45544659999999 29.80198" />
<path class="stroke" d="M 49.0891094 47.0297 L 81.9108945 47.0297" />
<path class="stroke" d="M 42.138613899999996 64.55446 L 89.2475225 64.55446" />
<path class="stroke" d="M 65.5 29.80198 L 65.5 89.80198" />
</svg>
