<?xml version="1.0" standalone="no"?>
<!DOCTYPE svg PUBLIC "-//W3C//DTD SVG 1.1//EN" "http://www.w3.org/Graphics/SVG/1.1/DTD/svg11.dtd">
<svg xmlns="http://www.w3.org/2000/svg" version="1.1" width="100%" height="100%">
<style type="text/css"><![CDATA[
  .stroke { fill:none; stroke:black; stroke-width:2 }
]]></style>
<path class="stroke" d="M 8.1240876 10.145985 L 22.401459 10.145985 L 21.87591 29.416058" />
<path class="stroke" d="M 9.437954999999999 29.416058 L 21.788318999999998 29.416058" />
<path class="stroke" d="M 9.3503643 29.416058 L 8.299268999999999 48.9781 L 23.452554 48.9781 C 22.401459 77.59124 19.248174 89.270065 17.8467132 89.270065 L 17.0583939 89.270065" />
<path class="stroke" d="M 50.5912406 10.145985 L 50.5912406 52.77372" />
<path class="stroke" d="M 50.5912406 10.145985 L 82.47444999999999 10.145985" />
<path class="stroke" d="M 50.5912406 24.160583 L 79.0 24.160583" />
<path class="stroke" d="M 50.5912406 39.343063 L 79.0 39.343063" />
<path class="stroke" d="M 36.6934294 52.48175 L 93.10218599999999 52.48175" />
<path class="stroke" d="M 50.1824805 52.77372 L 50.1824805 89.56204 C 55.0875891 88.10219 58.97080199999999 86.642334 62.8540121 81.9708" />
<path class="stroke" d="M 78.1824805 59.197075 C 76.956203 64.74452 74.09488999999999 68.832115 70.6204386 71.45985" />
<path class="stroke" d="M 62.8540121 59.197075 C 70.22613 77.4448 76.343066 84.8905 91.875912 89.270065" />
</svg>
