<?xml version="1.0" standalone="no"?>
<!DOCTYPE svg PUBLIC "-//W3C//DTD SVG 1.1//EN" "http://www.w3.org/Graphics/SVG/1.1/DTD/svg11.dtd">
<svg xmlns="http://www.w3.org/2000/svg" version="1.1" width="100%" height="100%">
<style type="text/css"><![CDATA[
  .stroke { fill:none; stroke:black; stroke-width:2 }
]]></style>
<path class="stroke" d="M 25.912407 8.61678741 C 24.452553 14.275181969999998 15.109488 20.2664229 9.562042 21.597808949999997" />
<path class="stroke" d="M 21.532845 17.270802149999998 L 21.532845 54.5496315" />
<path class="stroke" d="M 56.277367 8.78321145 C 54.525543 12.444524939999999 51.313866 15.606568589999998 46.642334 17.437225050000002" />
<path class="stroke" d="M 21.532845 17.115160799999998 L 75.54744 17.115160799999998" />
<path class="stroke" d="M 48.10219 17.437225050000002 L 48.10219 54.5496315" />
<path class="stroke" d="M 21.532845 30.241354499999996 L 71.75182 30.241354499999996" />
<path class="stroke" d="M 21.532845 42.40072788 L 72.04379 42.40072788" />
<path class="stroke" d="M 21.532845 54.5496315 L 81.386856 54.5496315" />
<path class="stroke" d="M 20.07299 68.8313857 L 80.21897 68.8313857" />
<path class="stroke" d="M 50.14598 63.32189774 L 50.14598 93.57007039999999" />
<path class="stroke" d="M 50.14598 70.66788255 C 40.51095 78.98613042 28.832115 83.41532716 13.649633 85.6839385" />
<path class="stroke" d="M 50.14598 70.66788255 C 59.197075 79.09415895000001 71.45985 83.52335569 86.642334 85.46788255" />
</svg>
