<?xml version="1.0" standalone="no"?>
<!DOCTYPE svg PUBLIC "-//W3C//DTD SVG 1.1//EN" "http://www.w3.org/Graphics/SVG/1.1/DTD/svg11.dtd">
<svg xmlns="http://www.w3.org/2000/svg" version="1.1" width="100%" height="100%">
<style type="text/css"><![CDATA[
  .stroke { fill:none; stroke:black; stroke-width:2 }
]]></style>
<path class="stroke" d="M 11.313868 17.445253 C 15.401459 18.029196 19.48905 20.364962 22.408756 24.160583" />
<path class="stroke" d="M 9.270073 47.226276 C 13.357662 47.226276 18.321167 46.934303 23.86861 43.138683 C 16.27737 53.357662 14.233576 58.321167 15.109488 60.9489 C 15.69343 63.284668 20.948904 65.62044 22.116787 68.832115 C 23.576641 72.33576 18.129246 80.26506 11.021896 83.722626" />
<path class="stroke" d="M 11.021896 84.014595 C 39.692924 81.65476 40.51095 91.313866 90.43795 90.14598" />
<path class="stroke" d="M 30.3233425 28.454219199999997 L 94.203475 28.454219199999997" />
<path class="stroke" d="M 61.7902 7.9116751999999995 L 61.7902 82.309128" />
<path class="stroke" d="M 48.30445 38.447992 C 45.780775 53.531016 41.3644 62.784392000000004 32.6893 71.482664" />
<path class="stroke" d="M 75.03947500000001 38.725544000000006 C 82.5316 47.701456 86.947975 57.232384 90.181375 71.482664" />
<path class="stroke" d="M 75.275995 6.52366 C 78.509395 9.669818399999999 81.03314499999999 13.3711512 82.13722 18.4605432" />
</svg>
