<?xml version="1.0" standalone="no"?>
<!DOCTYPE svg PUBLIC "-//W3C//DTD SVG 1.1//EN" "http://www.w3.org/Graphics/SVG/1.1/DTD/svg11.dtd">
<svg xmlns="http://www.w3.org/2000/svg" version="1.1" width="100%" height="100%">
<style type="text/css"><![CDATA[
  .stroke { fill:none; stroke:black; stroke-width:2 }
]]></style>
<path class="stroke" d="M 49.00518126 6.3446056569 L 49.00518126 34.620106563 C 49.00518126 35.431288798500006 47.42627386 35.894822355 46.28175048 35.894822355 L 44.2788304 35.894822355" />
<path class="stroke" d="M 26.25255262 16.889976306 C 24.821895700000002 20.945889467999997 20.52992592 24.422386180500002 14.52116568 27.203583947399995" />
<path class="stroke" d="M 69.1722612 16.889976306 C 74.8948879 19.323524997 79.75911887999999 22.5682551297 82.62043272 27.4353489396" />
<path class="stroke" d="M 68.23025 28.98798336 C 58.644518 40.096103039999996 28.1943088 51.232688640000006 5.586524138 55.59962688" />
<path class="stroke" d="M 23.576641 54.781021 L 23.576641 95.36496" />
<path class="stroke" d="M 23.576641 54.781021 L 76.131386 54.781021 L 76.131386 95.218975" />
<path class="stroke" d="M 23.576641 67.178074 L 76.131386 67.178074" />
<path class="stroke" d="M 23.576641 81.09792 L 76.131386 81.09792" />
<path class="stroke" d="M 23.576641 93.90510499999999 L 76.131386 93.90510499999999" />
</svg>
