<?xml version="1.0" standalone="no"?>
<!DOCTYPE svg PUBLIC "-//W3C//DTD SVG 1.1//EN" "http://www.w3.org/Graphics/SVG/1.1/DTD/svg11.dtd">
<svg xmlns="http://www.w3.org/2000/svg" version="1.1" width="100%" height="100%">
<style type="text/css"><![CDATA[
  .stroke { fill:none; stroke:black; stroke-width:2 }
]]></style>
<path class="stroke" d="M 24.744522 8.7401457 L 24.744522 33.756201600000004" />
<path class="stroke" d="M 24.744522 8.7401457 L 74.9635 8.7401457 L 74.9635 33.756201600000004" />
<path class="stroke" d="M 25.036495 20.56671862 L 74.67153 20.56671862" />
<path class="stroke" d="M 24.744522 32.66423176 L 74.9635 32.66423176" />
<path class="stroke" d="M 13.649633 43.84306458333333 L 13.649633 56.819545833333336" />
<path class="stroke" d="M 13.649633 43.84306458333333 L 86.642334 43.84306458333333 L 86.642334 56.819545833333336" />
<path class="stroke" d="M 36.75083 43.84306458333333 L 36.75083 56.819545833333336" />
<path class="stroke" d="M 63.249256 43.84306458333333 L 63.249256 56.819545833333336" />
<path class="stroke" d="M 13.649633 56.82564583333333 L 86.83168 56.82564583333333" />
<path class="stroke" d="M 23.861385 68.03168292 L 73.46535 68.03168292 C 62.178215 80.87227761 43.168316 87.14554559999999 9.90099 92.6346534" />
<path class="stroke" d="M 22.673267 70.97227761 C 27.096771 77.05161219 42.580643 82.05483888 47.741932 84.2903229 C 57.09677 87.6967743 73.870964 90.2516112 89.80198 92.6346534" />
</svg>
