<?xml version="1.0" standalone="no"?>
<!DOCTYPE svg PUBLIC "-//W3C//DTD SVG 1.1//EN" "http://www.w3.org/Graphics/SVG/1.1/DTD/svg11.dtd">
<svg xmlns="http://www.w3.org/2000/svg" version="1.1" width="100%" height="100%">
<style type="text/css"><![CDATA[
  .stroke { fill:none; stroke:black; stroke-width:2 }
]]></style>
<path class="stroke" d="M 7.176237599999999 10.49505 L 32.554456800000004 10.49505 L 32.554456800000004 37.82178" />
<path class="stroke" d="M 7.31881152 37.9168 L 32.554456800000004 37.9168" />
<path class="stroke" d="M 7.31881152 37.82178 L 7.31881152 81.18812 C 7.31881152 85.64356 8.887127999999999 90.09901 11.310891839999998 90.09901 L 38.5425744 90.09901 C 40.6811856 90.09901 42.534652799999996 86.83168 42.534652799999996 82.67327 L 42.534652799999996 77.32674" />
<path class="stroke" d="M 59.1762376 10.49505 L 84.5544568 10.49505 L 84.5544568 37.82178" />
<path class="stroke" d="M 59.31881152 37.9168 L 84.5544568 37.9168" />
<path class="stroke" d="M 59.31881152 37.82178 L 59.31881152 81.18812 C 59.31881152 85.64356 60.887128 90.09901 63.31089184 90.09901 L 90.5425744 90.09901 C 92.68118559999999 90.09901 94.5346528 86.83168 94.5346528 82.67327 L 94.5346528 77.32674" />
</svg>
