<?xml version="1.0" standalone="no"?>
<!DOCTYPE svg PUBLIC "-//W3C//DTD SVG 1.1//EN" "http://www.w3.org/Graphics/SVG/1.1/DTD/svg11.dtd">
<svg xmlns="http://www.w3.org/2000/svg" version="1.1" width="100%" height="100%">
<style type="text/css"><![CDATA[
  .stroke { fill:none; stroke:black; stroke-width:2 }
]]></style>
<path class="stroke" d="M 17.737225 6.665949970588236 C 23.576641 9.826105323529411 28.248173 14.171317411764706 31.751823 18.31902105882353" />
<path class="stroke" d="M 79.63503 6.665949970588236 C 77.252556 10.576641323529412 72.33576 15.158864352941178 67.37226 18.5165295" />
<path class="stroke" d="M 6.15142 20.64673 L 93.8486 20.64673" />
<path class="stroke" d="M 13.4069 37.11358 L 13.4069 92.76022" />
<path class="stroke" d="M 13.4069 37.11358 L 86.9085 37.11358 L 86.9085 92.76022" />
<path class="stroke" d="M 40.2208 20.930641299999998 L 40.2208 43.643580400000005 C 39.677418 50.064516999999995 28.387096 61.967742400000006 13.870968 64.5806413" />
<path class="stroke" d="M 59.46373 20.64673 L 59.46373 60.11047 C 59.04313 63.42283 61.461628 65.88334 64.82653 65.78875 L 73.97473 65.78875 C 76.39323 65.69407000000001 79.44263 63.89596 79.337524 60.394420000000004 L 79.337524 56.41966" />
<path class="stroke" d="M 13.4069 77.14513 L 86.9085 77.14513" />
<path class="stroke" d="M 13.4069 92.76022 L 86.9085 92.76022" />
</svg>
