<?xml version="1.0" standalone="no"?>
<!DOCTYPE svg PUBLIC "-//W3C//DTD SVG 1.1//EN" "http://www.w3.org/Graphics/SVG/1.1/DTD/svg11.dtd">
<svg xmlns="http://www.w3.org/2000/svg" version="1.1" width="100%" height="100%">
<style type="text/css"><![CDATA[
  .stroke { fill:none; stroke:black; stroke-width:2 }
]]></style>
<path class="stroke" d="M 29.367776900000003 7.026822 L 29.367776900000003 15.771294" />
<path class="stroke" d="M 14.019757400000001 16.08354 L 44.317171800000004 16.08354 L 44.317171800000004 54.184482" />
<path class="stroke" d="M 14.019724400000001 36.070947 L 44.31713770000001 36.070947" />
<path class="stroke" d="M 14.019757400000001 54.184482 L 44.317171800000004 54.184482" />
<path class="stroke" d="M 14.019757400000001 16.08354 L 14.019757400000001 90.099306 M 6.7796809300000005 92.597769 C 17.918610600000004 88.54550099999999 31.467289700000002 85.73598 42.846788600000004 85.096737" />
<path class="stroke" d="M 29.350807200000002 71.61848099999999 C 37.396353500000004 76.25098799999999 43.40686900000001 82.74063600000001 45.80547620000001 90.731718" />
<path class="stroke" d="M 64.59459 12.137837919999999 L 88.27026 12.137837919999999 C 85.35135 19.532432149999998 82.80973 29.6649127 79.189186 39.867565" />
<path class="stroke" d="M 79.51351 40.7918903 C 83.22786 44.23981935 89.80198 52.7821785 89.80198 61.24752779999999 L 89.80198 64.91583975 C 89.80198 68.3019865 87.915436 78.07296925 84.05405 78.07296925 L 74.32432 77.14864870000001" />
<path class="stroke" d="M 64.918915 13.3702695 L 64.59459 92.862156" />
</svg>
