<?xml version="1.0" standalone="no"?>
<!DOCTYPE svg PUBLIC "-//W3C//DTD SVG 1.1//EN" "http://www.w3.org/Graphics/SVG/1.1/DTD/svg11.dtd">
<svg xmlns="http://www.w3.org/2000/svg" version="1.1" width="100%" height="100%">
<style type="text/css"><![CDATA[
  .stroke { fill:none; stroke:black; stroke-width:2 }
]]></style>
<path class="stroke" d="M 9.40291836 17.45620375 L 9.40291836 72.63868000000001" />
<path class="stroke" d="M 9.40291836 17.45620375 L 28.48613 17.45620375 L 28.48613 72.63868000000001" />
<path class="stroke" d="M 9.5138681 43.54423225 L 28.375181400000002 43.54423225" />
<path class="stroke" d="M 9.40291836 70.229923 L 28.48613 70.229923" />
<path class="stroke" d="M 88.19207812 7.70077 C 75.85346532 11.16611688888889 56.94752391 12.783278666666666 45.80297104 12.783278666666666" />
<path class="stroke" d="M 46.99702896 18.78987988888889 C 49.98217845 22.024203444444446 51.775477 25.55785555555556 53.1663367 29.18591977777778" />
<path class="stroke" d="M 62.12178249 17.634763222222222 C 64.90792188 20.176017555555557 66.69901010000001 23.410341111111112 67.89307070000001 27.568757222222224" />
<path class="stroke" d="M 87.19703030000001 16.248624 C 85.60495218 21.79317933333333 83.2168283 25.951595444444447 79.8336633 28.95489488888889" />
<path class="stroke" d="M 53.0814154328 35.025 L 81.25858178000001 35.025" />
<path class="stroke" d="M 46.99702896 50.995543104999996 L 86.6 50.995543104999996" />
<path class="stroke" d="M 67.89307070000001 39.651980135 L 65.10692929999999 54.5876735005 C 62.91782155 65.17500000000001 53.5643569 77.27480135 42.817821550000005 83.702821215" />
<path class="stroke" d="M 63.912872050000004 61.9609913405 L 80.8287138 61.9609913405 C 79.0376229 74.62797338499999 68.89540410000001 85.72242935 53.36534546 90.31990067499999" />
<path class="stroke" d="M 61.7237643 67.6327715525 C 68.88811986 80.2997516875 75.85346532 87.105890106 92.9683165 90.31990067499999" />
</svg>
