<?xml version="1.0" standalone="no"?>
<!DOCTYPE svg PUBLIC "-//W3C//DTD SVG 1.1//EN" "http://www.w3.org/Graphics/SVG/1.1/DTD/svg11.dtd">
<svg xmlns="http://www.w3.org/2000/svg" version="1.1" width="100%" height="100%">
<style type="text/css"><![CDATA[
  .stroke { fill:none; stroke:black; stroke-width:2 }
]]></style>
<path class="stroke" d="M 8.250825 11.089109 L 29.838708333333333 11.290321 C 31.451613333333338 17.741934 26.61290166666667 33.225803 21.774193333333333 40.0" />
<path class="stroke" d="M 21.774193333333333 40.96774 C 25.80645 44.51613 29.032255833333334 49.032257 30.645160833333332 54.19355 C 32.2580625 57.09677 32.2580625 65.161285 23.655913333333334 68.38709 L 18.54838666666667 69.354836" />
<path class="stroke" d="M 10.726071666666666 11.089109 L 10.726071666666666 90.09901" />
<path class="stroke" d="M 34.968453 8.35962 L 95.25238999999999 8.35962" />
<path class="stroke" d="M 46.6719 19.7161 L 46.6719 31.388" />
<path class="stroke" d="M 46.6719 19.7161 L 83.3281 19.7161 L 83.3281 31.388" />
<path class="stroke" d="M 46.6719 31.388 L 83.3281 31.388" />
<path class="stroke" d="M 41.1514305 42.7445 L 41.1514305 94.4795" />
<path class="stroke" d="M 41.1514305 42.7445 L 89.06944399999999 42.7445 L 89.06944399999999 88.1703 C 88.9958712 91.6404 87.37649049999999 93.5331 85.53633119999999 93.8486 L 81.7823705 93.8486" />
<path class="stroke" d="M 57.712922999999996 43.05992 C 58.301762999999994 59.46372 55.13664299999999 62.30282 48.217633 64.82652" />
<path class="stroke" d="M 71.18296699999999 43.37543 L 71.18296699999999 55.99373 C 71.109397 59.14833 72.581497 61.67193 74.936927 61.67193 L 81.782297 61.67193" />
<path class="stroke" d="M 51.529950400000004 72.71288 L 78.69085899999999 72.71288" />
<path class="stroke" d="M 65.220829 72.71288 L 65.220829 92.586784" />
</svg>
