<?xml version="1.0" standalone="no"?>
<!DOCTYPE svg PUBLIC "-//W3C//DTD SVG 1.1//EN" "http://www.w3.org/Graphics/SVG/1.1/DTD/svg11.dtd">
<svg xmlns="http://www.w3.org/2000/svg" version="1.1" width="100%" height="100%">
<style type="text/css"><![CDATA[
  .stroke { fill:none; stroke:black; stroke-width:2 }
]]></style>
<path class="stroke" d="M 26.09666625 5.83596 C 21.99559275 18.87483 13.399467750000001 32.54463 4.56663525 38.64353" />
<path class="stroke" d="M 6.69597375 8.04417 C 15.37108875 17.7182 22.62658875 33.0705 22.54768875 61.6719 L 22.54768875 77.4448 C 22.863138 85.6467 21.049338 96.0569 14.740113 95.7414 L 10.83396375 95.7414" />
<path class="stroke" d="M 19.94513625 34.22716 C 20.02403625 49.47426 12.05866125 62.82856 4.56664125 67.03466" />
<path class="stroke" d="M 35.02043646 17.262773 L 90.9795554 17.262773" />
<path class="stroke" d="M 51.6569322 9.2335749 L 51.6569322 25.9343051" />
<path class="stroke" d="M 74.34306040000001 9.2335749 L 74.34306040000001 25.9343051" />
<path class="stroke" d="M 37.235036088 39.008757779999996 L 37.235036088 87.5693382" />
<path class="stroke" d="M 37.235036088 38.81605692 L 88.959411936 38.81605692 L 88.959411936 87.5693382" />
<path class="stroke" d="M 63.09722268 39.008757779999996 L 63.09722268 84.100728" />
<path class="stroke" d="M 37.235036088 61.44540828 L 88.57051056 61.44540828" />
<path class="stroke" d="M 37.235036088 84.100728 L 88.959411936 84.100728" />
</svg>
