<?xml version="1.0" standalone="no"?>
<!DOCTYPE svg PUBLIC "-//W3C//DTD SVG 1.1//EN" "http://www.w3.org/Graphics/SVG/1.1/DTD/svg11.dtd">
<svg xmlns="http://www.w3.org/2000/svg" version="1.1" width="100%" height="100%">
<style type="text/css"><![CDATA[
  .stroke { fill:none; stroke:black; stroke-width:2 }
]]></style>
<path class="stroke" d="M 4.8107235 7.367603289473685 C 7.9653285 11.587471710526318 10.0157785 15.18484013157895 11.9085285 19.819840789473687" />
<path class="stroke" d="M 17.271335 5.49975 C 20.268185 9.51217105263158 22.003135 12.901907894736844 24.211335 18.159539473684212" />
<path class="stroke" d="M 42.50787 4.877131578947369 C 40.45742 10.411473684210527 37.77602 15.323250000000002 34.46372 20.234960526315792" />
<path class="stroke" d="M 5.656934 22.4598532 L 5.656934 51.890508000000004" />
<path class="stroke" d="M 5.656934 22.3430648 L 44.489048 22.3430648 L 44.489048 51.890508000000004" />
<path class="stroke" d="M 25.07299 22.4598532 L 25.07299 49.78832" />
<path class="stroke" d="M 5.656934 36.0578232 L 44.19708 36.0578232" />
<path class="stroke" d="M 5.656934 49.78832 L 44.489048 49.78832" />
<path class="stroke" d="M 4.781021 66.0 L 45.218975 66.0" />
<path class="stroke" d="M 10.74452515 76.966423 L 10.74452515 93.970802" />
<path class="stroke" d="M 10.74452515 76.966423 L 39.38686 76.966423 L 39.38686 93.80729880000001" />
<path class="stroke" d="M 10.74452515 92.66277248 L 39.38686 92.66277248" />
<path class="stroke" d="M 59.1605835 40.51095 L 91.27736999999999 40.51095" />
<path class="stroke" d="M 74.92700500000001 13.941605 L 74.92700500000001 44.014595 C 73.029195 70.0 66.527965 85.320595 55.656934 90.72992" />
<path class="stroke" d="M 74.92700500000001 44.30657 C 78.1386835 70.0 83.10219000000001 85.47445 94.489048 90.43795" />
<path class="stroke" d="M 86.897808 17.737225 C 89.37956 19.197079 91.131385 22.992699 92.00729749999999 27.080292" />
</svg>
