<?xml version="1.0" standalone="no"?>
<!DOCTYPE svg PUBLIC "-//W3C//DTD SVG 1.1//EN" "http://www.w3.org/Graphics/SVG/1.1/DTD/svg11.dtd">
<svg xmlns="http://www.w3.org/2000/svg" version="1.1" width="100%" height="100%">
<style type="text/css"><![CDATA[
  .stroke { fill:none; stroke:black; stroke-width:2 }
]]></style>
<path class="stroke" d="M 20.770715441176474 11.605839 C 17.979818382352942 27.372261 12.183339705882354 41.970802 7.245597794117647 50.14598" />
<path class="stroke" d="M 16.477026470588235 30.583939 L 16.477026470588235 90.43795" />
<path class="stroke" d="M 35.167168000000004 7.54891 L 85.034688 7.54891 L 85.034688 30.26182" />
<path class="stroke" d="M 34.965312 18.526801 L 85.034688 18.526801" />
<path class="stroke" d="M 35.167168000000004 30.26182 L 85.034688 30.26182" />
<path class="stroke" d="M 27.8832104 41.67883 L 27.8832104 55.985397" />
<path class="stroke" d="M 27.8832104 41.094887 L 92.116784 41.094887 L 92.116784 56.277367" />
<path class="stroke" d="M 43.2712864 56.8613858 L 75.01782399999999 56.8613858 C 67.7940576 74.37128765 55.62772224 82.92574400000001 34.3366336 90.41089099999999" />
<path class="stroke" d="M 42.510890880000005 60.87128765 C 45.341933440000005 69.16128935 55.251611520000004 75.98387120000001 58.554836480000006 79.0322585 C 64.54193280000001 83.67741950000001 75.27741696000001 87.161288 85.4732672 90.41089099999999" />
</svg>
