<?xml version="1.0" standalone="no"?>
<!DOCTYPE svg PUBLIC "-//W3C//DTD SVG 1.1//EN" "http://www.w3.org/Graphics/SVG/1.1/DTD/svg11.dtd">
<svg xmlns="http://www.w3.org/2000/svg" version="1.1" width="100%" height="100%">
<style type="text/css"><![CDATA[
  .stroke { fill:none; stroke:black; stroke-width:2 }
]]></style>
<path class="stroke" d="M 49.999996 5.0 C 52.376232 7.6732674 52.793365 10.037088 52.918915 12.702702" />
<path class="stroke" d="M 12.702702 13.675674 L 92.81081 13.351351" />
<path class="stroke" d="M 12.378378 13.999998 L 12.702702 39.62162 C 12.702702 61.30479 14.560343 79.686905 6.5405407 92.162155" />
<path class="stroke" d="M 24.6277362 28.936407584 L 47.4832086 28.936407584" />
<path class="stroke" d="M 36.0554724 23.3614013888 L 36.0554724 53.969282048000004" />
<path class="stroke" d="M 36.0554724 30.794743856000004 C 32.394161 39.2119114304 27.956203700000003 43.69377969920001 22.186860539999998 45.98936911999999" />
<path class="stroke" d="M 36.0554724 30.794743856000004 C 42.0837924 33.95830592 46.6324228 39.000099872 49.92408692 45.770743855999996" />
<path class="stroke" d="M 62.6277362 28.936407584 L 85.48320860000001 28.936407584" />
<path class="stroke" d="M 74.05547240000001 23.3614013888 L 74.05547240000001 53.969282048000004" />
<path class="stroke" d="M 74.05547240000001 30.794743856000004 C 70.394161 39.2119114304 65.9562037 43.69377969920001 60.18686054 45.98936911999999" />
<path class="stroke" d="M 74.05547240000001 30.794743856000004 C 77.4948885 39.321224623999996 82.15474300000001 43.803092892799995 87.92408692000001 45.770743855999996" />
<path class="stroke" d="M 51.164052 54.287446016 C 50.924272 56.32252544 49.006336 57.46729088 46.369060000000005 58.612016" />
<path class="stroke" d="M 31.0251996 58.99356416 L 31.0251996 73.49348287999999" />
<path class="stroke" d="M 31.0251996 58.99356416 L 78.2555516 58.86635456 L 78.2555516 73.36627328" />
<path class="stroke" d="M 54.760220000000004 58.99356416 L 54.760220000000004 73.49348287999999" />
<path class="stroke" d="M 31.2649188 65.9891648 L 77.7760068 65.9891648" />
<path class="stroke" d="M 31.0251996 73.49348287999999 L 78.2555516 73.36627328" />
<path class="stroke" d="M 48.286996 73.62069248 C 48.127168 82.31215232 38.377508 87.56947712 22.154570800000002 89.77413440000001" />
<path class="stroke" d="M 57.87698 73.62069248 L 57.87698 87.86623232 C 57.907152 89.01898112 58.918256 89.43617216 60.75396 89.39258624 L 84.48898799999999 89.39258624 C 86.407 89.47036351999999 87.824476 89.13816704 87.845452 87.99344192000001 L 87.845452 85.06802431999999" />
<path class="stroke" d="M 73.460552 76.67327936 C 71.462664 79.85311616000001 68.266028 82.65136448 63.870644 85.44957248 C 69.544652 84.43205696 75.218736 83.54171072 80.892744 83.28733184000001" />
<path class="stroke" d="M 78.015764 80.48908352000001 C 80.573088 81.93060416 81.69196 83.49929408 82.091492 85.06802431999999" />
</svg>
