<?xml version="1.0" standalone="no"?>
<!DOCTYPE svg PUBLIC "-//W3C//DTD SVG 1.1//EN" "http://www.w3.org/Graphics/SVG/1.1/DTD/svg11.dtd">
<svg xmlns="http://www.w3.org/2000/svg" version="1.1" width="100%" height="100%">
<style type="text/css"><![CDATA[
  .stroke { fill:none; stroke:black; stroke-width:2 }
]]></style>
<path class="stroke" d="M 26.005770232558138 11.89781 C 25.19096930232558 30.875912 20.030553488372092 45.47445 15.141739534883722 55.693428 C 24.647767441860463 60.9489 32.79578976744186 70.0 39.04260651162791 81.386856" />
<path class="stroke" d="M 37.94612093023255 26.831684 C 36.01197209302326 53.564358 28.178576744186046 69.70802 14.870140465116279 79.34306" />
<path class="stroke" d="M 9.438125581395349 33.79562 L 39.60396 29.80198" />
<path class="stroke" d="M 58.56306355 8.35962 L 58.56306355 35.1735" />
<path class="stroke" d="M 58.56306355 8.35962 L 83.60411454999999 8.35962 L 83.60411454999999 35.1735" />
<path class="stroke" d="M 58.56306355 35.1735 L 83.60411454999999 35.1735" />
<path class="stroke" d="M 48.6261523 15.6151 L 48.6261523 50.6309 L 86.3864623 50.6309 L 86.3864623 69.8738" />
<path class="stroke" d="M 41.2728679 69.8738 L 95.72715099999999 69.8738" />
<path class="stroke" d="M 57.92335714 79.37956199999999 C 57.00364849 85.043795 52.22116729 90.357663 43.20802819 94.62043800000001" />
<path class="stroke" d="M 77.6115073 79.4915048 C 85.33065411999999 83.5839408 90.2970739 89.18978 93.24014095000001 94.737226" />
</svg>
