<?xml version="1.0" standalone="no"?>
<!DOCTYPE svg PUBLIC "-//W3C//DTD SVG 1.1//EN" "http://www.w3.org/Graphics/SVG/1.1/DTD/svg11.dtd">
<svg xmlns="http://www.w3.org/2000/svg" version="1.1" width="100%" height="100%">
<style type="text/css"><![CDATA[
  .stroke { fill:none; stroke:black; stroke-width:2 }
]]></style>
<path class="stroke" d="M 20.770715441176474 11.605839 C 17.979818382352942 27.372261 12.183339705882354 41.970802 7.245597794117647 50.14598" />
<path class="stroke" d="M 16.477026470588235 30.583939 L 16.477026470588235 90.43795" />
<path class="stroke" d="M 57.231825 7.3905104999999995 L 57.231825 27.536495" />
<path class="stroke" d="M 57.3759085 16.5145975 L 79.4634985 16.5145975" />
<path class="stroke" d="M 38.0182482 31.29196962 L 38.0182482 79.6890478" />
<path class="stroke" d="M 38.26642185 31.29196962 L 76.981745 31.29196962 L 76.981745 79.6890478" />
<path class="stroke" d="M 38.274868299999994 47.81188280000001 L 76.9405914 47.81188280000001" />
<path class="stroke" d="M 38.274868299999994 64.07722858 L 76.9405914 64.07722858" />
<path class="stroke" d="M 38.26642185 79.47299 L 76.7335705 79.47299" />
<path class="stroke" d="M 43.2299263 84.65839199999999 C 41.2445252 88.33138199999999 38.0182482 90.27590959999999 34.2956205 91.1401408" />
<path class="stroke" d="M 72.76276999999999 84.87444980000001 C 76.485396 85.738681 79.215324 87.6832086 81.448903 91.1401408" />
</svg>
