<?xml version="1.0" standalone="no"?>
<!DOCTYPE svg PUBLIC "-//W3C//DTD SVG 1.1//EN" "http://www.w3.org/Graphics/SVG/1.1/DTD/svg11.dtd">
<svg xmlns="http://www.w3.org/2000/svg" version="1.1" width="100%" height="100%">
<style type="text/css"><![CDATA[
  .stroke { fill:none; stroke:black; stroke-width:2 }
]]></style>
<path class="stroke" d="M 11.313868 17.445253 C 15.401459 18.029196 19.48905 20.364962 22.408756 24.160583" />
<path class="stroke" d="M 9.270073 47.226276 C 13.357662 47.226276 18.321167 46.934303 23.86861 43.138683 C 16.27737 53.357662 14.233576 58.321167 15.109488 60.9489 C 15.69343 63.284668 20.948904 65.62044 22.116787 68.832115 C 23.576641 72.33576 18.129246 80.26506 11.021896 83.722626" />
<path class="stroke" d="M 11.021896 84.014595 C 39.692924 81.65476 40.51095 91.313866 90.43795 90.14598" />
<path class="stroke" d="M 61.935320999999995 9.04416874 L 61.935320999999995 16.179811540000003" />
<path class="stroke" d="M 31.24448118 16.425868 L 92.40853274999999 16.425868" />
<path class="stroke" d="M 48.65772 16.671958 L 54.317031 31.189239999999998" />
<path class="stroke" d="M 74.995296 16.425868 L 68.682969 31.43533" />
<path class="stroke" d="M 36.033135 31.43533 L 36.033135 77.69401" />
<path class="stroke" d="M 36.033135 31.43533 L 86.313918 31.43533 L 86.313918 73.018924 C 86.386437 75.971614 84.93536699999999 77.44799800000001 83.04890699999999 77.201908 L 79.56627 77.201908" />
<path class="stroke" d="M 45.6604202784 48.9748 L 77.3395777344 48.9748" />
<path class="stroke" d="M 61.5 40.6708174768 L 61.5 58.525414528000006" />
<path class="stroke" d="M 52.581774933839995 59.397934052500005 L 52.581774933839995 71.477116135" />
<path class="stroke" d="M 52.581774933839995 59.397934052500005 L 70.50041961599999 59.397934052500005 L 70.50041961599999 71.36097046900001" />
<path class="stroke" d="M 52.581774933839995 70.5479480224 L 70.50041961599999 70.5479480224" />
</svg>
