<?xml version="1.0" standalone="no"?>
<!DOCTYPE svg PUBLIC "-//W3C//DTD SVG 1.1//EN" "http://www.w3.org/Graphics/SVG/1.1/DTD/svg11.dtd">
<svg xmlns="http://www.w3.org/2000/svg" version="1.1" width="100%" height="100%">
<style type="text/css"><![CDATA[
  .stroke { fill:none; stroke:black; stroke-width:2 }
]]></style>
<path class="stroke" d="M 10.961809821428572 14.059406 C 13.879066071428571 16.138615 16.796323214285717 19.108912 19.183169642857145 22.673267" />
<path class="stroke" d="M 9.105374107142858 38.118813 C 11.757426785714285 39.90099 14.939887500000001 42.574257 17.06152857142857 46.138615" />
<path class="stroke" d="M 8.840169642857143 85.64356 C 9.434829464285714 87.422676 11.091678571428572 89.896904 13.024666964285714 89.896904 C 14.957658035714285 89.896904 17.5919375 76.73267 19.448374107142858 69.60396" />
<path class="stroke" d="M 32.39050975 9.343063999999998 L 32.39050975 20.7883176" />
<path class="stroke" d="M 32.39050975 8.8759096 L 92.60948499999999 8.8759096 L 92.60948499999999 21.0218936" />
<path class="stroke" d="M 52.7554735 12.8686126 L 52.7554735 21.0145972 C 52.7554735 28.197079 47.0620435 35.2919692 32.828467 37.131384999999995" />
<path class="stroke" d="M 65.6751805 12.781021899999999 L 65.6751805 33.452554 C 65.6751805 35.642335 68.52189849999999 36.956203 71.58758725 36.956203 L 88.66787500000001 36.956203 C 91.07664249999999 37.043794 92.8284625 36.343063 92.8284625 35.379559 L 92.8284625 33.7153282" />
<path class="stroke" d="M 40.0547425 54.321166 L 85.1642275 54.321166" />
<path class="stroke" d="M 62.609485 45.3868612 L 62.609485 94.437952" />
<path class="stroke" d="M 62.609485 57.299268999999995 C 55.3832125 70.7883196 46.624086250000005 77.9708008 35.237224749999996 81.64963" />
<path class="stroke" d="M 62.609485 57.299268999999995 C 69.39780625 70.963501 78.5948875 78.14598219999999 89.9817505 81.29926900000001" />
</svg>
