<?xml version="1.0" standalone="no"?>
<!DOCTYPE svg PUBLIC "-//W3C//DTD SVG 1.1//EN" "http://www.w3.org/Graphics/SVG/1.1/DTD/svg11.dtd">
<svg xmlns="http://www.w3.org/2000/svg" version="1.1" width="100%" height="100%">
<style type="text/css"><![CDATA[
  .stroke { fill:none; stroke:black; stroke-width:2 }
]]></style>
<path class="stroke" d="M 8.946819428571429 27.956203 L 28.46715257142857 27.956203" />
<path class="stroke" d="M 20.45880857142857 9.270073 L 20.45880857142857 90.14598" />
<path class="stroke" d="M 20.45880857142857 36.131386 C 17.20542 44.598537 13.20125057142857 52.48175 7.4452551428571425 56.861313" />
<path class="stroke" d="M 20.45880857142857 36.131386 C 24.212719714285715 37.299267 26.71532657142857 42.26277 27.96663 46.934303" />
<path class="stroke" d="M 65.10218599999999 6.693429399999999 C 57.131384 17.1167871 48.1386849 25.291970199999998 36.8978091 30.1970781" />
<path class="stroke" d="M 65.10218599999999 6.693429399999999 C 73.2773698 16.708026999999998 81.6569312 25.291970199999998 93.306565 29.992699799999997" />
<path class="stroke" d="M 50.867518 28.5489 L 79.13246799999999 28.5489" />
<path class="stroke" d="M 40.047331 41.7981 L 40.047331 62.9337" />
<path class="stroke" d="M 40.047331 41.7981 L 90.394341 41.7981 L 90.394341 62.9337" />
<path class="stroke" d="M 40.047331 62.9337 L 90.394341 62.9337" />
<path class="stroke" d="M 64.779178 29.1798 L 64.55832799999999 68.9275 C 62.276468 83.2282 48.291238 90.9043 34.968467 93.8485" />
<path class="stroke" d="M 64.55837 69.2429 C 67.20822 82.387 80.45747 91.1146 94.81075999999999 94.164" />
</svg>
