<?xml version="1.0" standalone="no"?>
<!DOCTYPE svg PUBLIC "-//W3C//DTD SVG 1.1//EN" "http://www.w3.org/Graphics/SVG/1.1/DTD/svg11.dtd">
<svg xmlns="http://www.w3.org/2000/svg" version="1.1" width="100%" height="100%">
<style type="text/css"><![CDATA[
  .stroke { fill:none; stroke:black; stroke-width:2 }
]]></style>
<path class="stroke" d="M 12.46055 7.641958649999999 L 89.74765 7.641958649999999 L 89.74765 19.6294301" />
<path class="stroke" d="M 12.46055 19.6294301 L 89.74765 19.6294301" />
<path class="stroke" d="M 12.14511 7.641958649999999 L 12.14511 55.291767 C 12.25031 69.277002 10.46261 76.96896199999999 6.15142 89.45585225" />
<path class="stroke" d="M 27.076641249999998 25.695254875 C 32.04014485 27.447080125 36.01094705 29.855839 38.989049550000004 32.1551095" />
<path class="stroke" d="M 79.6897755 25.695254875 C 77.6646726 27.863138125 73.485396 30.4032835 69.266421 32.264597875" />
<path class="stroke" d="M 21.616787799999997 35.6067511375 L 21.616787799999997 60.438866125" />
<path class="stroke" d="M 21.616787799999997 35.508210925 L 87.6313816 35.508210925 L 87.6313816 60.438866125" />
<path class="stroke" d="M 54.624083 35.6067511375 L 54.624083 58.665144999999995" />
<path class="stroke" d="M 21.616787799999997 47.080038325000004 L 87.135036 47.080038325000004" />
<path class="stroke" d="M 21.616787799999997 58.665144999999995 L 87.6313816 58.665144999999995" />
<path class="stroke" d="M 28.73941244 72.473357425 L 28.73941244 93.4426984" />
<path class="stroke" d="M 28.73941244 72.473357425 L 79.96276999999999 72.473357425 L 79.96276999999999 93.4426984" />
<path class="stroke" d="M 29.0372249 82.386808255 L 79.6649606 82.386808255" />
<path class="stroke" d="M 28.73941244 92.52737074000001 L 79.96276999999999 92.52737074000001" />
</svg>
