<?xml version="1.0" standalone="no"?>
<!DOCTYPE svg PUBLIC "-//W3C//DTD SVG 1.1//EN" "http://www.w3.org/Graphics/SVG/1.1/DTD/svg11.dtd">
<svg xmlns="http://www.w3.org/2000/svg" version="1.1" width="100%" height="100%">
<style type="text/css"><![CDATA[
  .stroke { fill:none; stroke:black; stroke-width:2 }
]]></style>
<path class="stroke" d="M 20.299686 9.44652787 C 19.25000088 15.024999999999999 18.883335900000002 24.222222656999996 4.766667378 35.42611479" />
<path class="stroke" d="M 19.43333502 14.356111478999999 L 59.123559 14.356111478999999 L 49.7937132 23.968325244" />
<path class="stroke" d="M 19.48905 24.939707809999998 L 19.48905 68.77912069999999" />
<path class="stroke" d="M 19.48905 24.939707809999998 L 80.51095 24.939707809999998 L 80.51095 66.38788094 C 80.51095 67.82262698 79.63503 68.61970508 77.00729 68.61970508 L 74.087585 68.61970508" />
<path class="stroke" d="M 40.9051086 25.784612452399998 L 40.9051086 36.1625968328 C 40.9051086 45.313078646 35.5912406 54.3519687608 22.3065692 56.69538449" />
<path class="stroke" d="M 52.963501799999996 25.6730219006 L 52.963501799999996 52.008553796 C 52.963501799999996 54.79833478999999 55.6204386 56.472202622 58.4817481 56.472202622 L 74.42335 56.472202622 C 76.67153299999998 56.58379355599999 78.306565 55.691062261999996 78.306565 54.463558166 L 78.306565 52.343328126799996" />
<path class="stroke" d="M 15.401459 71.8029192 L 84.8905 71.8029192" />
<path class="stroke" d="M 50.14598 60.7080292 L 50.14598 73.08759 C 50.14598 82.080292 34.812946 91.3235656 10.729925 93.40876" />
<path class="stroke" d="M 50.14598 72.9708024 C 50.14598 82.19708 65.80349 91.302368 89.56204 93.40876" />
</svg>
