<?xml version="1.0" standalone="no"?>
<!DOCTYPE svg PUBLIC "-//W3C//DTD SVG 1.1//EN" "http://www.w3.org/Graphics/SVG/1.1/DTD/svg11.dtd">
<svg xmlns="http://www.w3.org/2000/svg" version="1.1" width="100%" height="100%">
<style type="text/css"><![CDATA[
  .stroke { fill:none; stroke:black; stroke-width:2 }
]]></style>
<path class="stroke" d="M 3.578101851851852 10.8833 L 31.589574074074072 10.8833" />
<path class="stroke" d="M 16.254816666666667 10.8833 C 15.845899999999999 29.9159 12.77899259259259 42.3239 5.622737037037036 54.7319" />
<path class="stroke" d="M 14.823575925925926 30.1262 L 30.56728888888889 30.1263 C 26.750603703703703 58.202 20.275927777777778 76.4986 7.0539907407407405 94.4795" />
<path class="stroke" d="M 15.232453703703703 45.89907 C 17.617898148148146 48.52787 19.38987037037037 51.78757 20.548564814814814 55.678272" />
<path class="stroke" d="M 34.5426 20.34703 L 91.3249 20.34703" />
<path class="stroke" d="M 38.6435 35.48899 L 87.2239 35.48899" />
<path class="stroke" d="M 34.858044 50.63089 L 91.009544 50.63089" />
<path class="stroke" d="M 57.2555 6.78233 L 57.2556 50.6309 C 58.2019 77.9706 74.9183 94.043 83.123 94.4795 C 84.8026 94.5688 86.4905 94.5542 88.1703 94.4795 C 91.2223 94.3438 93.6382 92.4816 94.4795 89.1167 L 94.4795 84.0694" />
<path class="stroke" d="M 88.1703 64.1956 C 70.9253 82.7024 50.8413 89.8529 29.1799 93.5332" />
<path class="stroke" d="M 69.55844 6.78234 C 73.23864 8.88539 75.02634 10.98846 77.12934 14.03789" />
</svg>
