<?xml version="1.0" standalone="no"?>
<!DOCTYPE svg PUBLIC "-//W3C//DTD SVG 1.1//EN" "http://www.w3.org/Graphics/SVG/1.1/DTD/svg11.dtd">
<svg xmlns="http://www.w3.org/2000/svg" version="1.1" width="100%" height="100%">
<style type="text/css"><![CDATA[
  .stroke { fill:none; stroke:black; stroke-width:2 }
]]></style>
<path class="stroke" d="M 9.564393617021276 13.7224 C 12.360999999999999 16.98216 13.815212765957446 19.92646 14.933936170212766 23.50156" />
<path class="stroke" d="M 38.760968085106384 13.72239 C 37.86607446808511 17.1924 35.964372340425534 20.347 33.055968085106386 23.1862" />
<path class="stroke" d="M 6.208468085106383 33.91172 L 43.45919148936171 33.91172" />
<path class="stroke" d="M 24.666085106382976 5.8359594 L 24.666085106382976 94.164" />
<path class="stroke" d="M 24.666010638297873 41.798 C 23.435478723404255 54.942 15.82877659574468 66.8245 7.215234042553192 73.343796" />
<path class="stroke" d="M 25.001712765957446 44.32176 C 31.713521276595745 47.37116 36.411819148936175 51.68236 40.1033085106383 57.25546" />
<path class="stroke" d="M 62.929195 16.569342 C 66.25766269 18.613138 69.08686054 22.408756 71.5832086 27.66423" />
<path class="stroke" d="M 60.266422899999995 36.423355 C 63.09562018 38.46715 65.92481575 41.970802 68.58758899 47.226276" />
<path class="stroke" d="M 53.77591099 71.16788 L 94.38320859999999 55.693428" />
<path class="stroke" d="M 79.57153059999999 9.562042 L 79.57153059999999 89.85401" />
</svg>
