<?xml version="1.0" standalone="no"?>
<!DOCTYPE svg PUBLIC "-//W3C//DTD SVG 1.1//EN" "http://www.w3.org/Graphics/SVG/1.1/DTD/svg11.dtd">
<svg xmlns="http://www.w3.org/2000/svg" version="1.1" width="100%" height="100%">
<style type="text/css"><![CDATA[
  .stroke { fill:none; stroke:black; stroke-width:2 }
]]></style>
<path class="stroke" d="M 20.07299 17.626959574468085 L 79.63503 17.626959574468085" />
<path class="stroke" d="M 50.14598 10.172385106382979 L 50.14598 43.407358510638296" />
<path class="stroke" d="M 22.70073 30.36185744680851 L 77.29926 30.36185744680851" />
<path class="stroke" d="M 10.145985 43.407358510638296 L 90.14598 43.407358510638296" />
<path class="stroke" d="M 47.226276 47.20729916 C 41.38686 51.94890472 34.08759 56.18248074 26.788319 59.908028959999996 L 41.8179 67.6969" />
<path class="stroke" d="M 63.868607 57.029196060000004 C 55.1943 62.265953999999994 39.1713 70.460368 23.86861 78.19707616 L 72.62773 75.14890356" />
<path class="stroke" d="M 68.540146 69.89927019999999 C 72.33576 72.439415 74.9635 74.81021952 75.83941 78.19707616" />
<path class="stroke" d="M 49.85401 76.8423342 L 49.835617 95.50301292" />
<path class="stroke" d="M 21.824816 83.7853982 C 20.364962 86.6642282 18.029196 89.20437648 14.233576 91.4058384" />
<path class="stroke" d="M 75.83941 83.9547408 C 79.63503 85.8175152 81.9708 88.0189748 83.722626 91.4058384" />
</svg>
