<?xml version="1.0" standalone="no"?>
<!DOCTYPE svg PUBLIC "-//W3C//DTD SVG 1.1//EN" "http://www.w3.org/Graphics/SVG/1.1/DTD/svg11.dtd">
<svg xmlns="http://www.w3.org/2000/svg" version="1.1" width="100%" height="100%">
<style type="text/css"><![CDATA[
  .stroke { fill:none; stroke:black; stroke-width:2 }
]]></style>
<path class="stroke" d="M 11.313868 17.445253 C 15.401459 18.029196 19.48905 20.364962 22.408756 24.160583" />
<path class="stroke" d="M 9.270073 47.226276 C 13.357662 47.226276 18.321167 46.934303 23.86861 43.138683 C 16.27737 53.357662 14.233576 58.321167 15.109488 60.9489 C 15.69343 63.284668 20.948904 65.62044 22.116787 68.832115 C 23.576641 72.33576 18.129246 80.26506 11.021896 83.722626" />
<path class="stroke" d="M 11.021896 84.014595 C 39.692924 81.65476 40.51095 91.313866 90.43795 90.14598" />
<path class="stroke" d="M 41.12262776 17.30583863 L 76.87736600000001 17.30583863" />
<path class="stroke" d="M 59.242213400000004 9.51021738 L 59.242213400000004 26.911923690000002" />
<path class="stroke" d="M 32.92408676 27.1917922 L 84.8481704 27.1917922" />
<path class="stroke" d="M 39.31318532 37.5796497 L 39.31318532 53.44624752" />
<path class="stroke" d="M 39.31318532 37.579687969999995 L 78.92829409999999 37.579687969999995 L 78.92829409999999 53.4462849" />
<path class="stroke" d="M 39.31318532 53.446276000000005 L 78.92829409999999 53.446276000000005" />
<path class="stroke" d="M 54.0928094 57.06349143 C 50.232113600000005 64.5992665 43.6277366 70.0562036 36.34014512 73.69415425000001" />
<path class="stroke" d="M 58.202918 57.063503 L 58.202918 80.9700689" />
<path class="stroke" d="M 85.30364828 54.2051078 C 82.34306000000001 59.4021916 79.38248108 62.52043476 74.144519 65.898533" />
<path class="stroke" d="M 61.3912382 59.6620449 C 69.13430600000001 64.5992665 76.19415620000001 70.5759102 80.74890380000001 75.77298955" />
</svg>
