<?xml version="1.0" standalone="no"?>
<!DOCTYPE svg PUBLIC "-//W3C//DTD SVG 1.1//EN" "http://www.w3.org/Graphics/SVG/1.1/DTD/svg11.dtd">
<svg xmlns="http://www.w3.org/2000/svg" version="1.1" width="100%" height="100%">
<style type="text/css"><![CDATA[
  .stroke { fill:none; stroke:black; stroke-width:2 }
]]></style>
<path class="stroke" d="M 26.02513 13.507987499999999 L 14.03783 16.6131984375" />
<path class="stroke" d="M 14.03783 16.6131984375 L 14.03783 72.197803125" />
<path class="stroke" d="M 14.35333 34.002871875 L 26.02523 34.002871875" />
<path class="stroke" d="M 14.66873 52.63453125 L 26.02523 52.63453125" />
<path class="stroke" d="M 74.9211 13.507987499999999 L 88.1703 16.613296874999996 L 88.1703 72.197803125" />
<path class="stroke" d="M 74.9212 34.313343749999994 L 87.5394 34.313343749999994" />
<path class="stroke" d="M 74.9212 53.87671406250001 L 87.5394 53.87671406250001" />
<path class="stroke" d="M 6.151415 72.50837343750001 L 95.11041 72.50837343750001" />
<path class="stroke" d="M 33.524087 7.989963187499999 L 33.524087 71.219885625" />
<path class="stroke" d="M 33.524087 7.989963187499999 L 66.47591299999999 7.989963187499999 L 66.47591299999999 67.770982125 C 66.47591299999999 69.840327375 66.0029162 70.98995925 64.5839366 70.98995925 L 63.0072959 70.98995925" />
<path class="stroke" d="M 42.872567274752 20.285999999999998 L 57.1274313152 20.285999999999998" />
<path class="stroke" d="M 41.788846486400004 32.071506138 L 41.788846486400004 52.578787212" />
<path class="stroke" d="M 41.788846486400004 32.071506138 L 58.286831359999994 32.071506138 L 58.286831359999994 52.38160235280001" />
<path class="stroke" d="M 41.788846486400004 51.001303610879994 L 58.286831359999994 51.001303610879994" />
<path class="stroke" d="M 31.7035 81.42274 C 28.7592 88.39438 22.0295 92.16724 14.3533 94.217704" />
<path class="stroke" d="M 65.7729 81.422662 C 69.7686 88.312246 75.3417 91.75703800000001 83.123 94.217626" />
</svg>
