<?xml version="1.0" standalone="no"?>
<!DOCTYPE svg PUBLIC "-//W3C//DTD SVG 1.1//EN" "http://www.w3.org/Graphics/SVG/1.1/DTD/svg11.dtd">
<svg xmlns="http://www.w3.org/2000/svg" version="1.1" width="100%" height="100%">
<style type="text/css"><![CDATA[
  .stroke { fill:none; stroke:black; stroke-width:2 }
]]></style>
<path class="stroke" d="M 50.14598 6.95255475 L 50.14598 16.587590249999998" />
<path class="stroke" d="M 12.4817505 16.806567 L 12.4817505 27.31751625" />
<path class="stroke" d="M 12.4817505 16.806567 L 87.81021 16.806567 L 87.81021 27.31751625" />
<path class="stroke" d="M 75.24515896 25.390967616 C 58.6 29.641289992 44.09926738 30.05839384 21.98064358 31.058063792" />
<path class="stroke" d="M 30.58064358 35.465806184 C 32.8 36.327591248000004 34.30656778 38.179853808000004 35.85161196 39.401289016" />
<path class="stroke" d="M 70.25161195999999 34.836129048 C 69.4598478 37.324962232000004 68.587094 38.4567738 66.64515896 39.401289016" />
<path class="stroke" d="M 17.73430543 44.4908328 L 82.51678059999999 44.4908328" />
<path class="stroke" d="M 50.0 29.558374399999998 L 50.0 65.821310848" />
<path class="stroke" d="M 49.8744486 46.443794159999996 C 41.951603999999996 54.548512800000005 31.7956189 60.122038880000005 16.47883056 63.826564000000005" />
<path class="stroke" d="M 49.8744486 46.443794159999996 C 57.324964 54.3945488 69.53317999999999 59.987760800000004 84.2744486 63.541603232" />
<path class="stroke" d="M 30.703357358399998 66.40467081599999 L 30.703357358399998 92.30364704" />
<path class="stroke" d="M 30.703357358399998 66.301897024 L 69.44227428479999 66.301897024 L 69.44227428479999 92.30364704" />
<path class="stroke" d="M 50.072814824 66.40467081599999 L 50.072814824 90.4537216" />
<path class="stroke" d="M 30.703357358399998 78.370884416 L 69.151007008 78.370884416" />
<path class="stroke" d="M 30.703357358399998 90.4537216 L 69.44227428479999 90.4537216" />
</svg>
