<?xml version="1.0" standalone="no"?>
<!DOCTYPE svg PUBLIC "-//W3C//DTD SVG 1.1//EN" "http://www.w3.org/Graphics/SVG/1.1/DTD/svg11.dtd">
<svg xmlns="http://www.w3.org/2000/svg" version="1.1" width="100%" height="100%">
<style type="text/css"><![CDATA[
  .stroke { fill:none; stroke:black; stroke-width:2 }
]]></style>
<path class="stroke" d="M 12.189779 14.124087 L 87.81021 14.124087" />
<path class="stroke" d="M 34.67153 7.5547431000000005 L 34.67153 21.218976899999998" />
<path class="stroke" d="M 65.32846 7.5547431000000005 L 65.32846 21.218976899999998" />
<path class="stroke" d="M 50.94639 23.01419417 L 50.94639 27.32017208" />
<path class="stroke" d="M 7.72875 27.8123162 L 93.53315 27.8123162" />
<path class="stroke" d="M 19.4006 27.93533 L 19.4006 52.110455 C 18.98 53.89435400000001 21.3984 55.555208 26.3406 55.616711 L 89.7477 55.616711" />
<path class="stroke" d="M 31.596012 67.0012471 C 28.902744 75.82319405000001 24.225845 91.4436578 8.8591385 94.53236785" />
<path class="stroke" d="M 50.149628 67.20174862 L 51.047733 95.1875441" />
<path class="stroke" d="M 69.30175 67.8032438 L 70.745056 86.2958133 C 71.58324 89.47811899999999 71.86263 89.7589093 75.355064 93.03481065 C 79.40629 94.9067538 89.4645 95.1875441 93.8404 92.46459039999999 C 94.353905 90.6948792 94.6333 92.2860354 95.0 87.9805618" />
</svg>
