<?xml version="1.0" standalone="no"?>
<!DOCTYPE svg PUBLIC "-//W3C//DTD SVG 1.1//EN" "http://www.w3.org/Graphics/SVG/1.1/DTD/svg11.dtd">
<svg xmlns="http://www.w3.org/2000/svg" version="1.1" width="100%" height="100%">
<style type="text/css"><![CDATA[
  .stroke { fill:none; stroke:black; stroke-width:2 }
]]></style>
<path class="stroke" d="M 26.788319 6.437550694444444 C 24.452553 11.912002777777777 21.824816 15.35887986111111 16.861313 17.994727083333334" />
<path class="stroke" d="M 24.452553 12.520274999999998 L 47.226276 12.520274999999998" />
<path class="stroke" d="M 30.0 12.925790277777777 C 34.08759 16.169911111111112 35.547443 18.805758333333333 36.423355 23.6719375" />
<path class="stroke" d="M 65.32846 6.437550694444444 C 63.284668 13.128546527777779 60.07299 15.967152083333334 57.44525 17.994727083333334" />
<path class="stroke" d="M 62.9927 12.723032638888888 L 86.35036 12.723032638888888" />
<path class="stroke" d="M 72.62773 13.128546527777779 C 72.9197 17.589211805555557 71.16788 20.630574305555555 67.9562 23.6719375" />
<path class="stroke" d="M 29.07900161764706 33.70437925 C 25.171745735294117 45.52919575 17.05667558823529 56.4781015 10.143836911764705 62.609485" />
<path class="stroke" d="M 23.067837058823528 47.937954250000004 L 23.067837058823528 92.8284625" />
<path class="stroke" d="M 45.08028879999999 47.7189775 L 87.824812 47.7189775" />
<path class="stroke" d="M 77.17178799999999 31.95255475 L 77.17178799999999 88.66787500000001 C 77.17178799999999 90.63868000000001 75.211672 92.60948499999999 72.05838879999999 92.60948499999999 L 66.452548 92.60948499999999" />
<path class="stroke" d="M 46.8321136 55.3832125 C 52.087588 57.1350355 55.240876 59.9817505 56.992695999999995 63.266422" />
</svg>
