<?xml version="1.0" standalone="no"?>
<!DOCTYPE svg PUBLIC "-//W3C//DTD SVG 1.1//EN" "http://www.w3.org/Graphics/SVG/1.1/DTD/svg11.dtd">
<svg xmlns="http://www.w3.org/2000/svg" version="1.1" width="100%" height="100%">
<style type="text/css"><![CDATA[
  .stroke { fill:none; stroke:black; stroke-width:2 }
]]></style>
<path class="stroke" d="M 10.6204375 8.7226265 C 12.5182475 10.474452 14.270073 12.5182475 15.40415 15.5363" />
<path class="stroke" d="M 39.08759 8.7226265 C 38.2116775 11.350365 36.60584 13.540146 34.4160575 15.437956" />
<path class="stroke" d="M 7.408758 21.5693415 L 42.737225 21.5693415" />
<path class="stroke" d="M 25.0 4.80198 L 25.07299 45.19802" />
<path class="stroke" d="M 22.2992685 22.883211 C 19.2947 29.8429 13.22685 36.91955 5.948905 40.693428" />
<path class="stroke" d="M 27.9926985 23.029195 C 30.44625 29.89545 36.55105 37.3362 43.905105 40.8394125" />
<path class="stroke" d="M 7.7007295 68.503649 L 42.44525 68.503649" />
<path class="stroke" d="M 25.07299 54.6350365 L 25.07299 70.1094875 C 25.07299 81.350365 17.406473 92.90445700000001 5.3649625 95.51095000000001" />
<path class="stroke" d="M 25.07299 69.963503 C 25.07299 81.49635 32.901745 92.87796 44.78102 95.51095000000001" />
<path class="stroke" d="M 59.1605835 9.854013 L 89.67152999999999 9.854013" />
<path class="stroke" d="M 74.635035 9.854013 C 74.051095 14.817516 72.883211 18.905107 71.2312 22.0621" />
<path class="stroke" d="M 60.45 22.3791 L 60.45 76.715324" />
<path class="stroke" d="M 60.45 22.3791 L 88.51285 22.3791 L 88.51285 76.423355" />
<path class="stroke" d="M 60.60855 40.77066 L 88.51285 40.77066" />
<path class="stroke" d="M 60.60855 59.79627 L 88.51285 59.79627" />
<path class="stroke" d="M 60.474452 76.715324 L 88.64963 76.715324" />
<path class="stroke" d="M 66.0218965 83.13868 C 63.3941595 86.9343 60.3284665 89.56204 56.678831 89.85401" />
<path class="stroke" d="M 83.540145 83.43065 C 86.60584 84.59853 89.08759 86.35036 92.00729749999999 90.72992" />
</svg>
