<?xml version="1.0" standalone="no"?>
<!DOCTYPE svg PUBLIC "-//W3C//DTD SVG 1.1//EN" "http://www.w3.org/Graphics/SVG/1.1/DTD/svg11.dtd">
<svg xmlns="http://www.w3.org/2000/svg" version="1.1" width="100%" height="100%">
<style type="text/css"><![CDATA[
  .stroke { fill:none; stroke:black; stroke-width:2 }
]]></style>
<path class="stroke" d="M 8.350785 20.157066 L 41.96335 20.157066" />
<path class="stroke" d="M 11.4963495 34.67153 L 11.350365 62.70073" />
<path class="stroke" d="M 11.350365 34.67153 L 38.64963 34.67153 L 38.64963 62.70073" />
<path class="stroke" d="M 11.350365 48.63624 L 38.503645 48.63624" />
<path class="stroke" d="M 11.350365 62.9927 L 38.64963 62.9927" />
<path class="stroke" d="M 7.554744 77.59124 L 42.44525 77.59124" />
<path class="stroke" d="M 25.092815 8.978102 L 25.092815 90.72992" />
<path class="stroke" d="M 60.036495 17.737225 L 89.96350000000001 17.737225" />
<path class="stroke" d="M 55.0729925 41.4826 L 94.78102 41.4826" />
<path class="stroke" d="M 70.5474435 41.38686 C 68.065693 58.905106 64.4160575 73.795616 60.6204375 84.8905 C 68.065693 83.43065 79.014599 81.386856 88.357662 80.80292" />
<path class="stroke" d="M 85.29196999999999 71.75182 C 87.33576500000001 76.423355 89.37956 82.84671 90.109485 87.51824" />
</svg>
