<?xml version="1.0" standalone="no"?>
<!DOCTYPE svg PUBLIC "-//W3C//DTD SVG 1.1//EN" "http://www.w3.org/Graphics/SVG/1.1/DTD/svg11.dtd">
<svg xmlns="http://www.w3.org/2000/svg" version="1.1" width="100%" height="100%">
<style type="text/css"><![CDATA[
  .stroke { fill:none; stroke:black; stroke-width:2 }
]]></style>
<path class="stroke" d="M 10.307873571428573 11.089109 L 29.428570238095237 11.290321 C 30.85714323809524 17.741934 26.571427190476193 33.225803 22.285714095238095 40.0" />
<path class="stroke" d="M 22.285714095238095 40.96774 C 25.857141428571428 44.51613 28.71428373809524 49.032257 30.142856738095237 54.19355 C 31.571426785714284 57.09677 31.571426785714284 65.161285 23.95238038095238 68.38709 L 19.428571047619048 69.354836" />
<path class="stroke" d="M 12.500234904761905 11.089109 L 12.500234904761905 90.09901" />
<path class="stroke" d="M 45.27518189 16.50722568 L 87.72481275000001 16.50722568" />
<path class="stroke" d="M 66.5 5.356276920500001 L 66.5 31.043281610000005" />
<path class="stroke" d="M 39.60218871 31.043281610000005 L 93.2021867 31.043281610000005" />
<path class="stroke" d="M 57.794889659999996 34.448466778000004 L 57.794889659999996 40.123502716000004 C 57.794889659999996 45.127298370000005 52.70875886 50.07007187600001 39.993430520000004 51.351531550000004" />
<path class="stroke" d="M 69.33649458 34.387445257 L 69.33649458 48.78861262 C 69.33649458 50.31416005 71.87956266 51.229488090000004 74.61824461 51.229488090000004 L 89.87663500000001 51.229488090000004 C 92.02846729999999 51.290509820000004 93.5934265 50.80233389 93.5934265 50.13109277 L 93.5934265 48.971678646" />
<path class="stroke" d="M 61.90291761 56.678831 C 57.40364785 63.248175 49.77445165 70.1094875 41.94963354 74.48904999999999" />
<path class="stroke" d="M 59.55547211 60.474452 L 76.9656948 60.474452 C 69.9233583 72.4452535 54.86058245 86.31386499999999 39.79780995 93.90510499999999" />
<path class="stroke" d="M 52.12189782 67.627737 C 59.8 78.225807 75.59634679 88.21167750000001 92.2240872 93.90510499999999" />
</svg>
