<?xml version="1.0" standalone="no"?>
<!DOCTYPE svg PUBLIC "-//W3C//DTD SVG 1.1//EN" "http://www.w3.org/Graphics/SVG/1.1/DTD/svg11.dtd">
<svg xmlns="http://www.w3.org/2000/svg" version="1.1" width="100%" height="100%">
<style type="text/css"><![CDATA[
  .stroke { fill:none; stroke:black; stroke-width:2 }
]]></style>
<path class="stroke" d="M 16.9073565 11.613896050000001 C 14.45504 22.606809900000002 10.531335 32.929428279999996 4.809264 43.117980759999995" />
<path class="stroke" d="M 33.09264 11.613896050000001 C 35.544955 22.606809900000002 39.14169 32.929428279999996 45.190735 43.117980759999995" />
<path class="stroke" d="M 14.6379553 47.083211 L 36.833575599999996 45.63503608 C 36.3430618 59.21167828 35.3620426 67.17664096 34.013137 77.49489052 C 33.2773684 82.38248010000001 31.92846532 89.8043792 29.3532832 89.8043792 L 28.004378439999996 89.8043792" />
<path class="stroke" d="M 22.24087426 46.721166339999996 L 21.014599 57.76350088 C 19.05255346 71.88320728 15.49634962 80.9343027 12.4306558 88.5372232" />
<path class="stroke" d="M 59.1605835 9.854013 L 89.67152999999999 9.854013" />
<path class="stroke" d="M 74.635035 9.854013 C 74.051095 14.817516 72.883211 18.905107 71.2312 22.0621" />
<path class="stroke" d="M 60.45 22.3791 L 60.45 76.715324" />
<path class="stroke" d="M 60.45 22.3791 L 88.51285 22.3791 L 88.51285 76.423355" />
<path class="stroke" d="M 60.60855 40.77066 L 88.51285 40.77066" />
<path class="stroke" d="M 60.60855 59.79627 L 88.51285 59.79627" />
<path class="stroke" d="M 60.474452 76.715324 L 88.64963 76.715324" />
<path class="stroke" d="M 66.0218965 83.13868 C 63.3941595 86.9343 60.3284665 89.56204 56.678831 89.85401" />
<path class="stroke" d="M 83.540145 83.43065 C 86.60584 84.59853 89.08759 86.35036 92.00729749999999 90.72992" />
</svg>
