<?xml version="1.0" standalone="no"?>
<!DOCTYPE svg PUBLIC "-//W3C//DTD SVG 1.1//EN" "http://www.w3.org/Graphics/SVG/1.1/DTD/svg11.dtd">
<svg xmlns="http://www.w3.org/2000/svg" version="1.1" width="100%" height="100%">
<style type="text/css"><![CDATA[
  .stroke { fill:none; stroke:black; stroke-width:2 }
]]></style>
<path class="stroke" d="M 9.60396 33.069305 L 30.9901 30.9901" />
<path class="stroke" d="M 23.267326 9.60396 L 23.267326 84.15842 C 23.267326 87.42574 20.594059 90.09901 17.029703 90.09901" />
<path class="stroke" d="M 10.198019 63.36634 L 28.910892 46.435642" />
<path class="stroke" d="M 65.10218599999999 5.7372252 C 57.131384 14.6715318 48.1386849 21.6788316 36.8978091 25.8832098" />
<path class="stroke" d="M 65.10218599999999 5.7372252 C 73.2773698 14.321166 81.6569312 21.6788316 93.306565 25.7080284" />
<path class="stroke" d="M 44.155327885999995 35.072992 L 85.84466684999998 35.072992" />
<path class="stroke" d="M 65.0 21.9927002 L 65.0 52.124084" />
<path class="stroke" d="M 38.583940554 52.124084 L 91.22393858 52.124084" />
<path class="stroke" d="M 48.590364506 65.09488999999999 L 48.590364506 89.38686" />
<path class="stroke" d="M 48.590364506 65.09488999999999 L 81.56087439999999 65.09488999999999 L 81.56087439999999 89.153284" />
<path class="stroke" d="M 48.590364506 87.5182464 L 81.56087439999999 87.5182464" />
</svg>
