<?xml version="1.0" standalone="no"?>
<!DOCTYPE svg PUBLIC "-//W3C//DTD SVG 1.1//EN" "http://www.w3.org/Graphics/SVG/1.1/DTD/svg11.dtd">
<svg xmlns="http://www.w3.org/2000/svg" version="1.1" width="100%" height="100%">
<style type="text/css"><![CDATA[
  .stroke { fill:none; stroke:black; stroke-width:2 }
]]></style>
<path class="stroke" d="M 6.4605828700000005 13.3394155 L 46.539411300000005 13.3394155" />
<path class="stroke" d="M 18.3759109 7.13503515 L 18.3759109 20.040144849999997" />
<path class="stroke" d="M 34.62408380000001 7.13503515 L 34.62408380000001 20.040144849999997" />
<path class="stroke" d="M 10.9511038 30.7965295 L 10.9511038 48.541064500000005" />
<path class="stroke" d="M 10.9511038 30.7965295 L 42.550445800000006 30.7965295 L 42.550445800000006 48.541064500000005" />
<path class="stroke" d="M 10.9511038 48.541064500000005 L 42.550445800000006 48.541064500000005" />
<path class="stroke" d="M 7.77445605 60.8438395 L 45.3927404 60.8438395" />
<path class="stroke" d="M 4.76498461 73.14667 L 48.73660580000001 73.14667" />
<path class="stroke" d="M 26.667215000000002 31.03312 L 26.667215000000002 70.5442 C 26.778621 83.63560000000001 14.685081 95.7808 3.9290225 96.09625" />
<path class="stroke" d="M 26.667215000000002 70.5442 C 26.667215000000002 83.47795 36.36436 95.7019 49.071004 96.09625" />
<path class="stroke" d="M 60.733575710000004 9.854013 C 59.95985309 19.781021 55.00802864 30.29197 52.06788226 32.627735" />
<path class="stroke" d="M 58.41240785 25.036495 L 58.41240785 90.43795" />
<path class="stroke" d="M 76.82700451 10.145985 C 75.89853779 16.569342 74.19634898 22.116787 71.72043701999999 25.328465" />
<path class="stroke" d="M 58.41240785 24.76344 L 87.04014319999999 24.76344" />
<path class="stroke" d="M 72.49416070000001 25.328465 L 72.49416070000001 90.43795" />
<path class="stroke" d="M 58.41240785 47.79185 L 85.0284646 47.79185" />
<path class="stroke" d="M 58.41240785 69.124084 L 85.1832087 69.124084" />
<path class="stroke" d="M 58.41240785 90.43795 L 90.13503367999999 90.43795" />
</svg>
