<?xml version="1.0" standalone="no"?>
<!DOCTYPE svg PUBLIC "-//W3C//DTD SVG 1.1//EN" "http://www.w3.org/Graphics/SVG/1.1/DTD/svg11.dtd">
<svg xmlns="http://www.w3.org/2000/svg" version="1.1" width="100%" height="100%">
<style type="text/css"><![CDATA[
  .stroke { fill:none; stroke:black; stroke-width:2 }
]]></style>
<path class="stroke" d="M 45.5 4.6423356 L 45.5 10.832116800000001" />
<path class="stroke" d="M 25.702918769999997 11.1824812 L 65.71167650000001 11.1824812" />
<path class="stroke" d="M 29.01970649 16.20438 C 33.16569185 20.4087584 36.275181579999995 25.897807999999998 37.933574730000004 31.270072" />
<path class="stroke" d="M 62.60218535 15.270071999999999 C 57.6270059 19.59124 53.48102125 26.248176 52.4445242 33.138684000000005" />
<path class="stroke" d="M 18.03284628 34.306568 L 72.55255489999999 34.306568" />
<path class="stroke" d="M 23.19124024 46.27897765 L 23.19124024 67.7773711" />
<path class="stroke" d="M 23.19124024 46.27897765 L 69.018976 46.27897765 L 69.018976 67.57065634" />
<path class="stroke" d="M 23.19124024 66.123648064 L 69.018976 66.123648064" />
<path class="stroke" d="M 37.007298 69.325984852 L 37.007298 77.634889144 C 37.007298 84.96102058 29.416058 92.197808584 10.437956 94.0740127" />
<path class="stroke" d="M 54.233574 69.236642338 L 54.233574 90.32160508 C 54.233574 92.55518169999999 58.029198 93.89532706 62.116783 93.89532706 L 84.8905 93.89532706 C 88.10219 93.98466988 90.43795 93.26992426 90.43795 92.28715018 L 90.43795 90.58963476400001" />
</svg>
