<?xml version="1.0" standalone="no"?>
<!DOCTYPE svg PUBLIC "-//W3C//DTD SVG 1.1//EN" "http://www.w3.org/Graphics/SVG/1.1/DTD/svg11.dtd">
<svg xmlns="http://www.w3.org/2000/svg" version="1.1" width="100%" height="100%">
<style type="text/css"><![CDATA[
  .stroke { fill:none; stroke:black; stroke-width:2 }
]]></style>
<path class="stroke" d="M 20.07299 17.626959574468085 L 79.63503 17.626959574468085" />
<path class="stroke" d="M 50.14598 10.172385106382979 L 50.14598 43.407358510638296" />
<path class="stroke" d="M 22.70073 30.36185744680851 L 77.29926 30.36185744680851" />
<path class="stroke" d="M 10.145985 43.407358510638296 L 90.14598 43.407358510638296" />
<path class="stroke" d="M 31.167881 53.47080245 C 30.0 64.55109365 25.328465 74.3467141 21.824816 79.8065674 C 41.970802 80.930653 68.540146 83.17882750000001 84.014595 90.726274" />
<path class="stroke" d="M 31.167881 53.47080245 L 73.795616 53.47080245 C 72.9197 65.51459685 69.124084 81.57299030000001 61.824814 89.1204335 C 59.489044 91.04744430000001 55.693428 91.85036400000001 52.189777 91.85036400000001" />
<path class="stroke" d="M 52.189777 53.6313865 C 51.605835 64.71167715 49.562042 73.5437944 44.598537 81.2518255" />
<path class="stroke" d="M 10.145985 68.2445235 L 90.14598 68.2445235" />
</svg>
