<?xml version="1.0" standalone="no"?>
<!DOCTYPE svg PUBLIC "-//W3C//DTD SVG 1.1//EN" "http://www.w3.org/Graphics/SVG/1.1/DTD/svg11.dtd">
<svg xmlns="http://www.w3.org/2000/svg" version="1.1" width="100%" height="100%">
<style type="text/css"><![CDATA[
  .stroke { fill:none; stroke:black; stroke-width:2 }
]]></style>
<path class="stroke" d="M 11.598539500000001 14.54772572 L 30.255472 14.54772572" />
<path class="stroke" d="M 17.5996861 14.54772572 C 17.4839509 34.116727850000004 11.5109485 56.79926416 7.9197079 63.099999999999994" />
<path class="stroke" d="M 15.1897801 42.743793499999995 L 15.1897801 75.70145839999999" />
<path class="stroke" d="M 15.1897801 42.743793499999995 L 28.065690999999998 42.743793499999995 L 27.9781 75.9437935" />
<path class="stroke" d="M 15.102189399999999 73.2780991 L 27.9781 73.2780991" />
<path class="stroke" d="M 76.539424 3.8515629599999994 C 74.228147968 9.504802439999999 69.169517824 14.899120559999997 63.718417408 17.1215802" />
<path class="stroke" d="M 44.716787968 17.624232648 L 44.716787968 51.17517912" />
<path class="stroke" d="M 44.716787968 17.491093872 L 89.45138329599999 17.491093872 L 89.45138329599999 51.17517912" />
<path class="stroke" d="M 67.08408448 17.624232648 L 67.08408448 48.77868479999999" />
<path class="stroke" d="M 44.716787968 33.125918448 L 89.11503616 33.125918448" />
<path class="stroke" d="M 44.716787968 48.77868479999999 L 89.45138329599999 48.77868479999999" />
<path class="stroke" d="M 56.769716531200004 55.937173 C 56.070072831999994 58.1361255 53.446406175999996 62.062826 50.822742304 63.0052355" />
<path class="stroke" d="M 42.42701585344 71.48691 L 89.65298041599999 71.48691" />
<path class="stroke" d="M 77.234302528 54.052356 L 77.234302528 94.57591500000001" />
</svg>
