<?xml version="1.0" standalone="no"?>
<!DOCTYPE svg PUBLIC "-//W3C//DTD SVG 1.1//EN" "http://www.w3.org/Graphics/SVG/1.1/DTD/svg11.dtd">
<svg xmlns="http://www.w3.org/2000/svg" version="1.1" width="100%" height="100%">
<style type="text/css"><![CDATA[
  .stroke { fill:none; stroke:black; stroke-width:2 }
]]></style>
<path class="stroke" d="M 13.961809821428572 14.059406 C 16.87906607142857 16.138615 19.796323214285717 19.108912 22.183169642857145 22.673267" />
<path class="stroke" d="M 12.105374107142858 38.118813 C 14.757426785714285 39.90099 17.9398875 42.574257 20.06152857142857 46.138615" />
<path class="stroke" d="M 11.840169642857143 85.64356 C 12.434829464285714 87.422676 14.091678571428572 89.896904 16.024666964285714 89.896904 C 17.957658035714285 89.896904 20.5919375 76.73267 22.448374107142858 69.60396" />
<path class="stroke" d="M 37.45940512 21.48515 L 37.45940512 46.732674 C 37.45940512 62.178215 35.26138608 71.68317 30.64554432 82.07921" />
<path class="stroke" d="M 37.45940512 21.6088 L 78.56237804 21.6088" />
<path class="stroke" d="M 64.93465644 9.60396 L 68.0118791 41.68317 C 70.42969959999999 69.30693 81.2 90.09901 84.7168278 90.09901 L 86.2554432 90.09901 C 87.7940586 90.09901 89.332674 88.019806 89.332674 85.9406 L 89.332674 82.376236" />
<path class="stroke" d="M 80.3207912 43.168316 C 77.90297144 54.455444 73.2871282 61.58416 67.35247767999999 68.11881" />
<path class="stroke" d="M 80.10099196 9.306931 C 82.95841464 10.79208 84.9366374 14.653465 85.8158425 18.51485" />
<path class="stroke" d="M 38.0796053212 32.125 L 61.42039237 32.125" />
<path class="stroke" d="M 44.129099416 49.745758384 C 43.7664602404 52.324187128 42.678544733799995 54.472879192 41.318649124000004 56.76481544799999" />
<path class="stroke" d="M 59.041041214 49.914936208 C 58.1341457284 52.742772328 57.038728642 54.606714736 55.774787626000006 56.204377768" />
<path class="stroke" d="M 49.38584452 40.893429927999996 C 49.4465371 45.362331616 49.416176379999996 48.974079616 49.38584452 54.555992488 C 49.47516622 66.85175296 42.38082988 77.2574176 38.0796053212 77.63970520000001" />
<path class="stroke" d="M 49.4071091452 56.084752095999995 C 50.356637199999994 65.20459432 56.74635664 75.23086696 59.566612117 77.10714964 C 60.240713895999995 77.63970520000001 60.746292034 77.77284352000001 61.50465491200001 77.90598639999999" />
</svg>
