<?xml version="1.0" standalone="no"?>
<!DOCTYPE svg PUBLIC "-//W3C//DTD SVG 1.1//EN" "http://www.w3.org/Graphics/SVG/1.1/DTD/svg11.dtd">
<svg xmlns="http://www.w3.org/2000/svg" version="1.1" width="100%" height="100%">
<style type="text/css"><![CDATA[
  .stroke { fill:none; stroke:black; stroke-width:2 }
]]></style>
<path class="stroke" d="M 15.197810019999999 9.854013 L 15.1724836 55.63759 C 11.95503327 80.20134 11.95503327 79.39597 8.35905998 89.865776" />
<path class="stroke" d="M 15.197810019999999 9.854013 L 34.4094896 9.854013 L 34.4094896 86.05839 C 34.4094896 88.39416 33.8605813 90.43795 32.488319479999994 90.43795 L 30.978832699999995 90.43795" />
<path class="stroke" d="M 15.197810019999999 31.862577 L 34.4094896 31.862577" />
<path class="stroke" d="M 15.197810019999999 55.110336 L 34.4094896 55.110336" />
<path class="stroke" d="M 51.646656 6.78234 C 49.49312 21.2934 46.532095999999996 29.8107 40.5425856 39.2744" />
<path class="stroke" d="M 50.435328 18.13879 L 87.381696 18.13879 L 87.381696 58.51739 C 87.314432 63.98539 86.43948800000001 71.03059 82.33439999999999 71.13579 L 79.70975999999999 71.13579" />
<path class="stroke" d="M 52.252352 33.2807 L 75.470016 33.2807 L 75.470016 59.7791" />
<path class="stroke" d="M 49.425920000000005 59.7791 L 75.470016 59.7791" />
<path class="stroke" d="M 49.425920000000005 59.7791 L 49.425920000000005 85.9622 C 49.156736 90.3786 50.906432 92.5868 53.463744 92.5868 L 89.19878399999999 92.5868 C 92.02528000000001 92.692 93.43852799999999 89.6425 93.43852799999999 85.3313 L 93.43852799999999 79.0221" />
</svg>
