<?xml version="1.0" standalone="no"?>
<!DOCTYPE svg PUBLIC "-//W3C//DTD SVG 1.1//EN" "http://www.w3.org/Graphics/SVG/1.1/DTD/svg11.dtd">
<svg xmlns="http://www.w3.org/2000/svg" version="1.1" width="100%" height="100%">
<style type="text/css"><![CDATA[
  .stroke { fill:none; stroke:black; stroke-width:2 }
]]></style>
<path class="stroke" d="M 14.525547 23.3248169 L 42.146595 23.3248169" />
<path class="stroke" d="M 30.0 6.46350243 L 29.584415 49.41999832" />
<path class="stroke" d="M 30.0 25.34817208 C 25.620438 33.21678591 19.197079 41.53503585 10.145985 47.38029065" />
<path class="stroke" d="M 30.0 27.14671498 C 35.547443 30.06934238 38.46715 32.767149800000006 41.38686 36.58904942" />
<path class="stroke" d="M 49.685863 23.3248169 L 81.386856 23.3248169" />
<path class="stroke" d="M 64.74452 6.46350243 L 64.80519 48.6999975" />
<path class="stroke" d="M 64.16058 26.247444299999998 C 60.65693 35.0153265 51.605835 43.55839488 42.846714 49.17882739" />
<path class="stroke" d="M 64.16058 26.0226274 C 69.41605 35.6897772 75.682434 38.75955930000001 84.44156 44.379997200000005" />
<path class="stroke" d="M 15.652549920000006 56.9708025 L 15.652549920000006 93.75912" />
<path class="stroke" d="M 15.652549920000006 56.9708025 L 83.95036 56.9708025 L 83.95036 93.75912" />
<path class="stroke" d="M 16.049633200000002 74.3628215 L 83.55328080000001 74.3628215" />
<path class="stroke" d="M 15.652549920000006 92.15328199999999 L 83.95036 92.15328199999999" />
</svg>
