<?xml version="1.0" standalone="no"?>
<!DOCTYPE svg PUBLIC "-//W3C//DTD SVG 1.1//EN" "http://www.w3.org/Graphics/SVG/1.1/DTD/svg11.dtd">
<svg xmlns="http://www.w3.org/2000/svg" version="1.1" width="100%" height="100%">
<style type="text/css"><![CDATA[
  .stroke { fill:none; stroke:black; stroke-width:2 }
]]></style>
<path class="stroke" d="M 16.87699 7.6309260000000005 L 16.87699 31.258677" />
<path class="stroke" d="M 16.87699 7.6309260000000005 L 82.17659 7.6309260000000005 L 82.17659 31.258677" />
<path class="stroke" d="M 17.50784 19.7760093 L 81.54574 19.7760093" />
<path class="stroke" d="M 16.87699 31.258677 L 82.17659 31.258677" />
<path class="stroke" d="M 8.35962 40.75396 L 8.35962 67.69402" />
<path class="stroke" d="M 8.35962 40.75396 L 91.3249 40.75396 L 91.3249 63.49843 C 91.4301 65.85386 89.327 67.32596 86.9085 67.25238999999999 L 82.1767 67.25238999999999" />
<path class="stroke" d="M 49.3691 8.072555999999999 L 49.3691 54.444826" />
<path class="stroke" d="M 25.0789 59.965242999999994 C 39.5899 55.548873 55.9936 53.340652999999996 71.1356 52.457393" />
<path class="stroke" d="M 65.7729 47.378543 C 70.715 50.911652999999994 73.4491 54.665543 74.6057 58.861202999999996" />
<path class="stroke" d="M 17.4453 75.7492 C 16.6042 81.97945 14.5012 86.08045 10.8207 90.65455" />
<path class="stroke" d="M 33.21814 71.963725 L 33.21814 92.07415 C 33.21814 94.203475 35.11094 95.623 37.95004 95.623 L 72.01944 95.623 C 74.64824 95.623 76.96164 93.96685 77.06674 91.36435 L 77.06674 87.34225" />
<path class="stroke" d="M 45.2056 71.96374 C 50.6735 75.59149 54.2487 79.455865 57.5084 84.50314" />
<path class="stroke" d="M 77.0667 72.20035 C 83.6913 76.61664999999999 87.7923 81.03325 91.8932 87.1057" />
</svg>
