<?xml version="1.0" standalone="no"?>
<!DOCTYPE svg PUBLIC "-//W3C//DTD SVG 1.1//EN" "http://www.w3.org/Graphics/SVG/1.1/DTD/svg11.dtd">
<svg xmlns="http://www.w3.org/2000/svg" version="1.1" width="100%" height="100%">
<style type="text/css"><![CDATA[
  .stroke { fill:none; stroke:black; stroke-width:2 }
]]></style>
<path class="stroke" d="M 9.621447 5.894082631578947 C 15.930657 9.269977368421053 20.031557 12.147872105263158 23.817057 15.855872631578947" />
<path class="stroke" d="M 34.54267 4.3998 C 40.53637 7.609736842105264 44.00627 10.321526315789473 48.42267 14.527631578947368" />
<path class="stroke" d="M 85.01574 3.9017052631578943 C 80.91484 8.32917894736842 75.55204 12.2586 68.92744 16.18796842105263" />
<path class="stroke" d="M 17.48604 20.429837040000002 L 17.48604 51.0835632" />
<path class="stroke" d="M 17.48604 20.429837040000002 L 80.94364 20.429837040000002 L 80.94364 51.0835632" />
<path class="stroke" d="M 17.48604 35.357838400000006 L 80.94364 35.357838400000006" />
<path class="stroke" d="M 17.48604 51.0835632 L 80.94364 51.0835632" />
<path class="stroke" d="M 5.203066 61.974157600000005 L 93.54004 61.974157600000005" />
<path class="stroke" d="M 49.3691 20.67188 L 49.3691 90.58912000000001" />
<path class="stroke" d="M 49.550797 63.78832800000001 C 39.15816 76.44064320000001 22.931637 82.25315520000001 5.8143992 87.78856" />
<path class="stroke" d="M 49.550797 63.78832800000001 C 60.452812 76.30108000000001 74.99626 83.035388 93.54004 87.873056" />
</svg>
