<?xml version="1.0" standalone="no"?>
<!DOCTYPE svg PUBLIC "-//W3C//DTD SVG 1.1//EN" "http://www.w3.org/Graphics/SVG/1.1/DTD/svg11.dtd">
<svg xmlns="http://www.w3.org/2000/svg" version="1.1" width="100%" height="100%">
<style type="text/css"><![CDATA[
  .stroke { fill:none; stroke:black; stroke-width:2 }
]]></style>
<path class="stroke" d="M 11.1096 8.990537 L 11.1096 74.60566" />
<path class="stroke" d="M 11.1096 8.990537 L 31.13429565217391 8.990537 L 31.13429565217391 74.60566" />
<path class="stroke" d="M 11.1096 31.072573 L 30.859947826086955 31.072573" />
<path class="stroke" d="M 11.1096 53.1546 L 30.859947826086955 53.1546" />
<path class="stroke" d="M 11.1096 74.60566 L 31.13429565217391 74.60566" />
<path class="stroke" d="M 16.04713043478261 82.1766 C 14.218434782608695 87.4343 10.74382608695652 91.7455 5.623365217391305 95.1104" />
<path class="stroke" d="M 25.64809565217391 82.49213 C 28.299747826086957 85.43633 30.128443478260866 88.38063 31.134269565217387 92.58673" />
<path class="stroke" d="M 40.8438445 16.87696 L 94.7712765 16.87696" />
<path class="stroke" d="M 58.887980999999996 6.46687 L 58.887980999999996 41.16724" />
<path class="stroke" d="M 77.752359 6.46687 L 77.752359 41.4826" />
<path class="stroke" d="M 43.0993705 28.8643 L 93.13094950000001 28.8643" />
<path class="stroke" d="M 39.40851775 41.4826 L 96.41168475 41.4826" />
<path class="stroke" d="M 50.4810435 53.78545 L 50.4810435 94.47945" />
<path class="stroke" d="M 50.4810435 53.78545 L 86.1593485 53.78545 L 86.1593485 89.11675 C 86.1593485 92.16615 84.7239535 94.58465 82.87853849999999 94.47945 L 79.80280350000001 94.47945" />
<path class="stroke" d="M 68.3201895 42.74451 L 68.3201895 79.02201" />
<path class="stroke" d="M 50.8911935 66.71923 L 85.7491985 66.71923" />
<path class="stroke" d="M 39.40851775 79.3375 L 96.41168475 79.3375" />
</svg>
