<?xml version="1.0" standalone="no"?>
<!DOCTYPE svg PUBLIC "-//W3C//DTD SVG 1.1//EN" "http://www.w3.org/Graphics/SVG/1.1/DTD/svg11.dtd">
<svg xmlns="http://www.w3.org/2000/svg" version="1.1" width="100%" height="100%">
<style type="text/css"><![CDATA[
  .stroke { fill:none; stroke:black; stroke-width:2 }
]]></style>
<path class="stroke" d="M 34.8759096 10.729925 C 29.036496 15.109488 22.029196 18.029196 15.7226272 19.781021" />
<path class="stroke" d="M 10.8175168 41.094887 L 38.145984 37.299267" />
<path class="stroke" d="M 26.0 16.569342 L 26.0 86.642334" />
<path class="stroke" d="M 26.0 44.890507 C 20.6277376 57.153282 16.18978 65.03649 10.116788 68.540146" />
<path class="stroke" d="M 26.0 44.890507 C 30.9051088 48.394157 33.7080264 51.313866 36.043792 56.277367" />
<path class="stroke" d="M 88.01584048000001 11.001100000000001 C 75.49306928000001 15.951595555555556 56.304949640000004 18.261826666666668 44.994060160000004 18.261826666666668" />
<path class="stroke" d="M 46.20593984 26.84268555555556 C 49.235643800000005 31.463147777777777 51.055708 36.51122222222223 52.4673268 41.69417111111112" />
<path class="stroke" d="M 61.55643596 25.192518888888888 C 64.38415952 28.822882222222223 66.2019804 33.44334444444445 67.4138628 39.38393888888889" />
<path class="stroke" d="M 87.00594120000001 23.212320000000002 C 85.39010072 31.133113333333334 82.96633320000001 37.073707777777784 79.5326732 41.364135555555556" />
<path class="stroke" d="M 44.24 56.582116045 L 44.24 93.78211465000001" />
<path class="stroke" d="M 60.421019968 58.05255435 L 60.421019968 92.6335728" />
<path class="stroke" d="M 60.421019968 58.05255435 L 87.740144 58.05255435 L 87.740144 92.6335728" />
<path class="stroke" d="M 60.57985328 74.40105220999999 L 87.58131232 74.40105220999999" />
<path class="stroke" d="M 60.421019968 91.12408507999999 L 87.740144 91.12408507999999" />
</svg>
