<?xml version="1.0" standalone="no"?>
<!DOCTYPE svg PUBLIC "-//W3C//DTD SVG 1.1//EN" "http://www.w3.org/Graphics/SVG/1.1/DTD/svg11.dtd">
<svg xmlns="http://www.w3.org/2000/svg" version="1.1" width="100%" height="100%">
<style type="text/css"><![CDATA[
  .stroke { fill:none; stroke:black; stroke-width:2 }
]]></style>
<path class="stroke" d="M 41.188118 6.930693000000001 C 31.980198 10.049505200000002 17.8712865 11.5049508 9.554456 11.5049508" />
<path class="stroke" d="M 10.445544 16.910891900000003 C 12.6732675 19.8217831 14.01155 23.002070000000003 15.049505 26.267327800000004" />
<path class="stroke" d="M 21.7326735 15.871286900000001 C 23.811882 18.1584158 25.148515 21.069307000000002 26.039605 24.811881500000002" />
<path class="stroke" d="M 40.445545 14.6237616 C 39.257427 19.613861399999998 37.475245 23.3564359 34.950495 26.059405400000003" />
<path class="stroke" d="M 6.70348 42.6009168 L 43.29653 42.6009168" />
<path class="stroke" d="M 3.3911665 57.7050282 L 43.467535 57.616362" />
<path class="stroke" d="M 25.0 31.0741344 L 25.0 57.705129 C 25.07792 72.34363259999999 15.7466 83.01109499999998 3.706625 85.72715099999999" />
<path class="stroke" d="M 25.0 57.705065999999995 C 33.64935 64.68545088 37.077923 69.00545159999999 42.22078 77.84181522000002" />
<path class="stroke" d="M 64.89790550000001 9.4764385 C 64.5767385 12.980087 64.45482770000001 14.994076 63.170156399999996 17.329842" />
<path class="stroke" d="M 57.12303675 17.015707 L 57.12303675 66.96335" />
<path class="stroke" d="M 56.95026085 17.43295 L 82.90996000000001 17.43295 L 82.90996000000001 43.333332" />
<path class="stroke" d="M 57.468585250000004 30.583939 L 82.7413795 30.583939" />
<path class="stroke" d="M 57.2958121 43.430653 L 82.90996000000001 43.430653" />
<path class="stroke" d="M 57.468585250000004 55.10949 L 91.332462 55.10949" />
<path class="stroke" d="M 57.2958121 66.20438 L 91.59195199999999 66.20438 L 90.580458 80.57471 C 90.24329700000001 85.01916 89.3160905 90.22988 87.37739275000001 90.22988 C 86.28160575 90.22988 85.7758582 90.22988 85.017241 90.22988" />
<path class="stroke" d="M 55.17816085 74.137924 C 55.0095776 76.74329 54.1666663 80.881226 53.15517175 83.48659" />
<path class="stroke" d="M 63.1858226 74.137924 C 63.860152850000006 76.28352 64.45019065 79.042145 64.534482 82.26054" />
<path class="stroke" d="M 73.3007648 74.597694 C 74.227968 76.74329 74.8180047 79.042145 75.23946365 81.800766" />
<path class="stroke" d="M 82.488506 74.44444 C 83.6685805 75.82375 84.5957815 77.816086 85.354402 80.72797" />
</svg>
