<?xml version="1.0" standalone="no"?>
<!DOCTYPE svg PUBLIC "-//W3C//DTD SVG 1.1//EN" "http://www.w3.org/Graphics/SVG/1.1/DTD/svg11.dtd">
<svg xmlns="http://www.w3.org/2000/svg" version="1.1" width="100%" height="100%">
<style type="text/css"><![CDATA[
  .stroke { fill:none; stroke:black; stroke-width:2 }
]]></style>
<path class="stroke" d="M 13.154171785714285 9.841584199999998 C 16.654879285714284 11.2970305 20.15558785714286 13.3762384 23.01980357142857 15.871286899999998" />
<path class="stroke" d="M 10.926448928571428 26.6831691 C 14.108912142857141 27.930692999999998 17.927864999999997 29.8019799 20.473834285714286 32.2970305" />
<path class="stroke" d="M 10.608203571428572 59.95049199999999 C 11.321795357142857 61.195873199999994 13.310014285714285 62.9278328 15.629600357142856 62.9278328 C 17.949189642857142 62.9278328 21.110325 53.712869 23.33804892857143 48.722772" />
<path class="stroke" d="M 44.43430525 6.8978091 C 43.33941475 13.846714699999998 36.332116 21.204379 32.1715315 22.8394145" />
<path class="stroke" d="M 41.14963375 17.525546499999997 L 41.14963375 63.306565" />
<path class="stroke" d="M 67.20802524999999 7.102189499999999 C 65.89415725 11.598539399999998 63.4853995 15.481750899999998 59.9817505 17.7299255" />
<path class="stroke" d="M 41.14963375 17.334408 L 81.66058 17.334408" />
<path class="stroke" d="M 61.0766425 17.7299255 L 61.0766425 63.306565" />
<path class="stroke" d="M 41.14963375 33.454294999999995 L 78.81386499999999 33.454294999999995" />
<path class="stroke" d="M 41.14963375 48.38685879999999 L 79.0328425 48.38685879999999" />
<path class="stroke" d="M 41.14963375 63.306565 L 86.040142 63.306565" />
<path class="stroke" d="M 10.145985 84.1 L 89.85401 84.1" />
<path class="stroke" d="M 50.0 72.6934306 L 50.0 97.218976" />
</svg>
