<?xml version="1.0" standalone="no"?>
<!DOCTYPE svg PUBLIC "-//W3C//DTD SVG 1.1//EN" "http://www.w3.org/Graphics/SVG/1.1/DTD/svg11.dtd">
<svg xmlns="http://www.w3.org/2000/svg" version="1.1" width="100%" height="100%">
<style type="text/css"><![CDATA[
  .stroke { fill:none; stroke:black; stroke-width:2 }
]]></style>
<path class="stroke" d="M 9.60396 33.069305 L 30.9901 30.9901" />
<path class="stroke" d="M 23.267326 9.60396 L 23.267326 84.15842 C 23.267326 87.42574 20.594059 90.09901 17.029703 90.09901" />
<path class="stroke" d="M 10.198019 63.36634 L 28.910892 46.435642" />
<path class="stroke" d="M 48.1386849 9.854013 C 47.116787099999996 19.781021 40.5766416 30.29197 36.6934294 32.627735" />
<path class="stroke" d="M 45.0729915 25.036495 L 45.0729915 90.43795" />
<path class="stroke" d="M 69.3941569 10.145985 C 68.16788009999999 16.569342 65.9197062 22.116787 62.6496338 25.328465" />
<path class="stroke" d="M 45.0729915 24.76344 L 82.883208 24.76344" />
<path class="stroke" d="M 63.671533 25.328465 L 63.671533 90.43795" />
<path class="stroke" d="M 45.0729915 47.79185 L 80.22627399999999 47.79185" />
<path class="stroke" d="M 45.0729915 69.124084 L 80.430653 69.124084" />
<path class="stroke" d="M 45.0729915 90.43795 L 86.97079919999999 90.43795" />
</svg>
