<?xml version="1.0" standalone="no"?>
<!DOCTYPE svg PUBLIC "-//W3C//DTD SVG 1.1//EN" "http://www.w3.org/Graphics/SVG/1.1/DTD/svg11.dtd">
<svg xmlns="http://www.w3.org/2000/svg" version="1.1" width="100%" height="100%">
<style type="text/css"><![CDATA[
  .stroke { fill:none; stroke:black; stroke-width:2 }
]]></style>
<path class="stroke" d="M 56.237625 9.306931 C 57.72277 12.574257 58.91089 15.544554 58.91089 19.108912" />
<path class="stroke" d="M 27.956203 19.197079 L 86.9343 19.197079" />
<path class="stroke" d="M 27.956203 19.197079 L 27.956203 36.131386 C 27.956203 56.861313 21.532845 72.62773 6.159601 93.8404" />
<path class="stroke" d="M 24.85247463 33.006298 L 86.8336639 33.006298" />
<path class="stroke" d="M 42.2643237 23.12355972 L 42.2643237 53.9124312" />
<path class="stroke" d="M 68.98540270000001 23.10162118 L 68.98540270000001 54.03567508" />
<path class="stroke" d="M 42.2643237 54.2821598 L 68.73567322000001 54.2821598" />
<path class="stroke" d="M 30.65766325 67.40291836 L 30.65766325 83.7124074" />
<path class="stroke" d="M 30.65766325 67.40291836 L 80.7919667 67.40291836 L 80.7919667 82.82481480000001 C 80.7919667 84.4890476 78.76860690000001 85.4875888 76.5204302 85.5985374 L 74.49707810000001 85.5985374" />
<path class="stroke" d="M 55.612404600000005 61.74452494 L 55.612404600000005 92.2554724" />
</svg>
