<?xml version="1.0" standalone="no"?>
<!DOCTYPE svg PUBLIC "-//W3C//DTD SVG 1.1//EN" "http://www.w3.org/Graphics/SVG/1.1/DTD/svg11.dtd">
<svg xmlns="http://www.w3.org/2000/svg" version="1.1" width="100%" height="100%">
<style type="text/css"><![CDATA[
  .stroke { fill:none; stroke:black; stroke-width:2 }
]]></style>
<path class="stroke" d="M 21.60884 18.76967 L 79.33754 18.76967 L 79.33754 50.31547" />
<path class="stroke" d="M 7.72871 34.54263 L 92.90219 34.54263" />
<path class="stroke" d="M 21.60884 50.31547 L 79.33754 50.31547" />
<path class="stroke" d="M 53.154613 7.72871 L 53.154613 87.2239 C 53.154613 91.43 50.630917 94.0588 46.530014 94.164 L 41.798115 94.164" />
<path class="stroke" d="M 18.45427 58.517384 C 23.50147 61.041084 27.91787 64.511086 31.38797 68.61208" />
<path class="stroke" d="M 14.66878 87.8549 C 23.50158 85.8569 31.07258 81.9663 38.32808 74.6057" />
<path class="stroke" d="M 85.33126 58.51738 C 82.07146 63.03898 78.49636 65.98318 73.34396 67.98098" />
<path class="stroke" d="M 66.7191 74.6055 C 75.0261 76.9188 82.0715 80.4941 89.4322 88.1704" />
</svg>
