<?xml version="1.0" standalone="no"?>
<!DOCTYPE svg PUBLIC "-//W3C//DTD SVG 1.1//EN" "http://www.w3.org/Graphics/SVG/1.1/DTD/svg11.dtd">
<svg xmlns="http://www.w3.org/2000/svg" version="1.1" width="100%" height="100%">
<style type="text/css"><![CDATA[
  .stroke { fill:none; stroke:black; stroke-width:2 }
]]></style>
<path class="stroke" d="M 21.42588 5.5205 C 17.400672 17.8233 12.542610000000002 30.7571 6.227129400000001 40.5363" />
<path class="stroke" d="M 21.42588 5.83596 C 25.451088000000002 11.8296 28.227114000000004 18.4543 31.211370000000002 25.0789" />
<path class="stroke" d="M 11.015766 33.59624 L 29.545728 33.59624" />
<path class="stroke" d="M 7.4763411 51.57724 L 32.04414942 51.57724" />
<path class="stroke" d="M 21.009448380000002 33.9117 L 21.009448380000002 88.1703" />
<path class="stroke" d="M 7.2681408 61.672 C 10.113546 65.878 12.334380000000001 70.3996 14.555214 75.2366" />
<path class="stroke" d="M 31.419600000000003 61.6719 C 29.892756000000002 67.4553 27.741288000000004 72.2923 24.965262000000003 77.1294" />
<path class="stroke" d="M 8.3091456 94.4795 L 31.211370000000002 83.7539" />
<path class="stroke" d="M 62.365971200000004 7.09779 L 42.7823552 12.4606" />
<path class="stroke" d="M 42.7823552 12.4606 L 42.7823552 93.8486" />
<path class="stroke" d="M 42.984211200000004 32.0189 L 59.3375552 32.0189" />
<path class="stroke" d="M 42.984211200000004 53.15455 L 59.3375552 53.15455" />
<path class="stroke" d="M 38.74448 80.59937 L 55.9054272 73.34387" />
<path class="stroke" d="M 73.18334464 8.04417 L 73.18334464 26.6562 C 73.10797312 41.062 69.0755072 47.897 64.477729792 50.9464" />
<path class="stroke" d="M 73.29641984 8.04416 L 85.5068928 8.04416 L 85.5068928 36.7507 C 85.3938176 40.8516 86.29831168000001 43.3753 87.54195967999999 43.3753 L 95.391747584 43.3753" />
<path class="stroke" d="M 69.67847936000001 53.15461 L 88.55952896000001 53.15461 C 83.773312 77.23451 75.03000064 89.01161 65.156087808 94.16401" />
<path class="stroke" d="M 72.39192575999999 53.15461 C 74.16321024000001 75.65721 84.30091264 92.16621 95.45614848 93.84861" />
</svg>
