<?xml version="1.0" standalone="no"?>
<!DOCTYPE svg PUBLIC "-//W3C//DTD SVG 1.1//EN" "http://www.w3.org/Graphics/SVG/1.1/DTD/svg11.dtd">
<svg xmlns="http://www.w3.org/2000/svg" version="1.1" width="100%" height="100%">
<style type="text/css"><![CDATA[
  .stroke { fill:none; stroke:black; stroke-width:2 }
]]></style>
<path class="stroke" d="M 13.5401455 43.46715 L 35.34063166666667 40.839413" />
<path class="stroke" d="M 25.462285333333334 20.401459 L 25.462285333333334 76.16788" />
<path class="stroke" d="M 10.815085166666668 79.9635 L 37.04379350000001 73.24817" />
<path class="stroke" d="M 38.700728840000004 8.343063999999998 L 38.700728840000004 19.7883176" />
<path class="stroke" d="M 38.700728840000004 7.8759096 L 93.2992664 7.8759096 L 93.2992664 20.0218936" />
<path class="stroke" d="M 49.81897568 19.6569325 L 81.585396 19.6569325" />
<path class="stroke" d="M 62.32700516 19.919706400000003 C 57.16496264 31.218976899999998 48.4101 37.30285000000001 38.971632 41.9401" />
<path class="stroke" d="M 55.97372232 30.430657 C 68.08466920000001 43.043791600000006 70.46715392 78.7810195 66.0992664 86.92700500000001 C 63.518244800000005 91.65692800000001 58.753282840000004 90.605836 56.966420320000005 88.503643" />
<path class="stroke" d="M 61.73138568 39.8905102 C 56.17226124 49.875913000000004 48.62773604 55.656930700000004 38.8992698 60.124085199999996" />
<path class="stroke" d="M 65.9007268 53.291971000000004 C 59.94452316 66.430657 49.42189784 74.576638 38.8992698 78.5182474" />
<path class="stroke" d="M 86.35036000000001 32.2700698 C 83.1737196 38.8394137 78.210216 44.094889 72.25401099999999 46.9853983" />
<path class="stroke" d="M 68.6802914 43.043791600000006 C 73.2467124 63.2773675 83.3722592 74.576638 92.70364420000001 82.722628" />
</svg>
