<?xml version="1.0" standalone="no"?>
<!DOCTYPE svg PUBLIC "-//W3C//DTD SVG 1.1//EN" "http://www.w3.org/Graphics/SVG/1.1/DTD/svg11.dtd">
<svg xmlns="http://www.w3.org/2000/svg" version="1.1" width="100%" height="100%">
<style type="text/css"><![CDATA[
  .stroke { fill:none; stroke:black; stroke-width:2 }
]]></style>
<path class="stroke" d="M 15.844525339999999 9.854013 L 15.8181212 55.63759 C 12.463758089999999 80.20134 12.463758089999999 79.39597 8.71476466 89.865776" />
<path class="stroke" d="M 15.844525339999999 9.854013 L 35.8737232 9.854013 L 35.8737232 86.05839 C 35.8737232 88.39416 35.3014571 90.43795 33.87080116 90.43795 L 32.2970809 90.43795" />
<path class="stroke" d="M 15.844525339999999 31.862577 L 35.8737232 31.862577" />
<path class="stroke" d="M 15.844525339999999 55.110336 L 35.8737232 55.110336" />
<path class="stroke" d="M 89.23506400000001 10.252365 L 44.519029 18.454214" />
<path class="stroke" d="M 44.519029 18.454214 L 44.519029 48.738216 C 44.850304 67.455315 44.850304 73.869514 39.881914 93.21761" />
<path class="stroke" d="M 84.5978965 24.447943 L 57.1057465 29.810743" />
<path class="stroke" d="M 57.1057465 29.810743 L 57.1057465 93.21764" />
<path class="stroke" d="M 89.897509 47.79186 L 71.01735400000001 54.41646" />
<path class="stroke" d="M 66.380176 35.48894 C 68.47796050000001 58.201942 78.5252005 79.968445 93.541051 92.58674" />
</svg>
