<?xml version="1.0" standalone="no"?>
<!DOCTYPE svg PUBLIC "-//W3C//DTD SVG 1.1//EN" "http://www.w3.org/Graphics/SVG/1.1/DTD/svg11.dtd">
<svg xmlns="http://www.w3.org/2000/svg" version="1.1" width="100%" height="100%">
<style type="text/css"><![CDATA[
  .stroke { fill:none; stroke:black; stroke-width:2 }
]]></style>
<path class="stroke" d="M 24.6971576 5.304674368421052 C 29.744525600000003 8.342979631578947 33.025245600000005 10.933084894736842 36.053645599999996 14.270285368421051" />
<path class="stroke" d="M 44.634136 3.9598199999999997 C 49.429096 6.848763157894737 52.205016 9.289373684210526 55.738136 13.07486842105263" />
<path class="stroke" d="M 85.012592 3.5115347368421053 C 81.731872 7.496261052631579 77.441632 11.03274 72.141952 14.569171578947367" />
<path class="stroke" d="M 18.905107 17.065691960000002 L 90.14598 17.065691960000002" />
<path class="stroke" d="M 18.613138 17.065691960000002 L 18.613138 36.67445052000001 C 18.613138 76.6978076 14.817516 82.87590752 10.198019 90.89108920000001" />
<path class="stroke" d="M 26.454256 27.245988944 L 54.971632 27.245988944" />
<path class="stroke" d="M 40.839141600000005 27.4985015372 L 40.839141600000005 38.60813357720001" />
<path class="stroke" d="M 22.9211336 38.86060935200001 L 58.2523648 38.86060935200001" />
<path class="stroke" d="M 31.249200000000002 39.113163566000004 L 31.249200000000002 89.61160416799999" />
<path class="stroke" d="M 31.5016 55.02005303600001 L 49.67192 55.02005303600001" />
<path class="stroke" d="M 31.5016 71.17957676 L 49.67192 71.17957676" />
<path class="stroke" d="M 23.425864 91.6314776 L 57.74768 84.56170448" />
<path class="stroke" d="M 49.92424 39.11311714280001 L 49.92424 94.40890962200001" />
<path class="stroke" d="M 71.006733664 26.964752396 C 69.747326888 37.1876829068 66.72475299999999 49.312552712 62.064950176 56.20708785680001" />
<path class="stroke" d="M 66.598811856 47.6483554292 L 87.88277064 47.6483554292" />
<path class="stroke" d="M 78.05940720000001 47.8860990416 C 76.54811856 68.09422045279999 70.125149048 84.97393929440001 60.0499012 90.917504792" />
<path class="stroke" d="M 66.598811856 53.8296637388 C 69.369504304 68.331961664 82.84514607999999 91.15524760400001 90.27564432 91.15524760400001" />
</svg>
