<?xml version="1.0" standalone="no"?>
<!DOCTYPE svg PUBLIC "-//W3C//DTD SVG 1.1//EN" "http://www.w3.org/Graphics/SVG/1.1/DTD/svg11.dtd">
<svg xmlns="http://www.w3.org/2000/svg" version="1.1" width="100%" height="100%">
<style type="text/css"><![CDATA[
  .stroke { fill:none; stroke:black; stroke-width:2 }
]]></style>
<path class="stroke" d="M 50.14598 5.330291975 L 50.14598 12.717152524999998" />
<path class="stroke" d="M 12.4817505 12.885034699999999 L 12.4817505 20.943429124999998" />
<path class="stroke" d="M 12.4817505 12.885034699999999 L 87.81021 12.885034699999999 L 87.81021 20.943429124999998" />
<path class="stroke" d="M 50.94438 26.210624000000003 C 55.26248 28.295552 57.99758 30.787456 60.41598 33.887552" />
<path class="stroke" d="M 79.3375 23.012672000000002 C 68.1913 40.644608 43.7959 57.468992 17.5078 64.40064000000001" />
<path class="stroke" d="M 26.36648 36.706368 L 31.71248 48.098624 C 37.05728 57.569344 46.50528 61.801984000000004 65.70158 62.002688 L 82.44858 61.801408 C 84.34928 61.801408 86.55658 60.790656 86.24108 59.172352000000004 L 86.24108 58.153408" />
<path class="stroke" d="M 15.3175 42.584192 C 14.5795 48.441664 12.2622 52.077568 8.0462 55.712256" />
<path class="stroke" d="M 76.136986 36.37205568 C 84.68493 38.686574719999996 87.64384 41.00109632 90.9315 44.7884928" />
<path class="stroke" d="M 50.284724000000004 69.2087584 L 50.284724000000004 92.2861312" />
<path class="stroke" d="M 18.335764400000002 78.8321152 L 18.335764400000002 93.3138672 M 18.335764400000002 92.2861312 L 81.40145000000001 92.2861312" />
<path class="stroke" d="M 81.40145000000001 78.7386848 L 81.40145000000001 93.40729728" />
</svg>
