<?xml version="1.0" standalone="no"?>
<!DOCTYPE svg PUBLIC "-//W3C//DTD SVG 1.1//EN" "http://www.w3.org/Graphics/SVG/1.1/DTD/svg11.dtd">
<svg xmlns="http://www.w3.org/2000/svg" version="1.1" width="100%" height="100%">
<style type="text/css"><![CDATA[
  .stroke { fill:none; stroke:black; stroke-width:2 }
]]></style>
<path class="stroke" d="M 23.038319791666666 9.562042 C 26.687956250000003 11.021896 30.3375875 14.817516 32.77067708333333 19.48905" />
<path class="stroke" d="M 10.264596875 22.8707 L 44.327854166666675 22.8707" />
<path class="stroke" d="M 16.955593750000002 37.007298 L 37.63686041666667 37.007298" />
<path class="stroke" d="M 16.955593750000002 51.313866 L 37.63686041666667 51.313866" />
<path class="stroke" d="M 15.739050000000002 64.45255 L 15.739050000000002 85.76642" />
<path class="stroke" d="M 15.739050000000002 64.16058 L 39.461677083333335 64.16058 L 39.461677083333335 85.76642" />
<path class="stroke" d="M 15.739050000000002 85.76642 L 39.15754166666667 85.76642" />
<path class="stroke" d="M 72.58028900000001 9.649633600000001 C 66.31751600000001 21.562042400000003 59.25182385 30.9051088 50.41970715 36.5109464" />
<path class="stroke" d="M 72.58028900000001 9.649633600000001 C 79.0036477 21.094888 85.58758879999999 30.9051088 94.7408725 36.2773712" />
<path class="stroke" d="M 73.3092623 32.85367811 C 67.37466 43.16648289 62.8787455 47.78010595 54.4264302 53.75067941" />
<path class="stroke" d="M 81.7615765 43.4378738 C 75.64713850000001 53.75067941 68.0940039 63.792098259999996 57.4836514 70.03405681999999" />
<path class="stroke" d="M 90.5735665 54.02207032 C 82.48092150000001 68.13433124 73.12942715 80.88964010000001 56.2247949 89.57411269999999" />
</svg>
