<?xml version="1.0" standalone="no"?>
<!DOCTYPE svg PUBLIC "-//W3C//DTD SVG 1.1//EN" "http://www.w3.org/Graphics/SVG/1.1/DTD/svg11.dtd">
<svg xmlns="http://www.w3.org/2000/svg" version="1.1" width="100%" height="100%">
<style type="text/css"><![CDATA[
  .stroke { fill:none; stroke:black; stroke-width:2 }
]]></style>
<path class="stroke" d="M 11.313868 17.445253 C 15.401459 18.029196 19.48905 20.364962 22.408756 24.160583" />
<path class="stroke" d="M 9.270073 47.226276 C 13.357662 47.226276 18.321167 46.934303 23.86861 43.138683 C 16.27737 53.357662 14.233576 58.321167 15.109488 60.9489 C 15.69343 63.284668 20.948904 65.62044 22.116787 68.832115 C 23.576641 72.33576 18.129246 80.26506 11.021896 83.722626" />
<path class="stroke" d="M 11.021896 84.014595 C 39.692924 81.65476 40.51095 91.313866 90.43795 90.14598" />
<path class="stroke" d="M 45.954239 8.5157696 L 45.954239 38.15621300000001" />
<path class="stroke" d="M 45.954239 8.5157696 L 77.774489 8.5157696 L 77.774489 38.15621300000001" />
<path class="stroke" d="M 61.4999692 22.569383000000002 L 61.4999692 38.15621300000001" />
<path class="stroke" d="M 61.4999692 22.569383000000002 L 77.53160020000001 22.569383000000002" />
<path class="stroke" d="M 33.566248 38.667161 L 33.566248 77.250782" />
<path class="stroke" d="M 33.566248 38.667161 L 89.43375200000001 38.667161 L 89.43375200000001 72.395885 C 89.352748 75.121454 87.328572 76.82488400000001 85.547254 76.73975300000001 L 82.146626 76.73975300000001" />
<path class="stroke" d="M 49.354890100000006 49.3990616 L 49.354890100000006 68.3075396" />
<path class="stroke" d="M 49.354890100000006 49.3990616 L 73.6450791 49.3990616 L 73.6450791 68.3075396" />
<path class="stroke" d="M 49.354890100000006 68.3075396 L 73.6450791 68.3075396" />
</svg>
