<?xml version="1.0" standalone="no"?>
<!DOCTYPE svg PUBLIC "-//W3C//DTD SVG 1.1//EN" "http://www.w3.org/Graphics/SVG/1.1/DTD/svg11.dtd">
<svg xmlns="http://www.w3.org/2000/svg" version="1.1" width="100%" height="100%">
<style type="text/css"><![CDATA[
  .stroke { fill:none; stroke:black; stroke-width:2 }
]]></style>
<path class="stroke" d="M 15.52116768 9.854013 L 15.4953024 55.63759 C 12.209395679999998 80.20134 12.209395679999998 79.39597 8.536912319999999 89.865776" />
<path class="stroke" d="M 15.52116768 9.854013 L 35.1416064 9.854013 L 35.1416064 86.05839 C 35.1416064 88.39416 34.5810192 90.43795 33.17956032 90.43795 L 31.637956799999998 90.43795" />
<path class="stroke" d="M 15.52116768 31.862577 L 35.1416064 31.862577" />
<path class="stroke" d="M 15.52116768 55.110336 L 35.1416064 55.110336" />
<path class="stroke" d="M 43.642335 10.145985 L 43.642335 90.43795" />
<path class="stroke" d="M 43.642335 10.145985 L 86.357665 10.145985 L 86.357665 86.05839 C 86.357665 88.68613 85.74452099999999 90.14598 83.905103 90.14598 L 81.8613095 90.14598" />
<path class="stroke" d="M 55.76073535616 25.759999999999998 L 74.239262816 25.759999999999998" />
<path class="stroke" d="M 54.355912112 40.72572208 L 54.355912112 66.76671392" />
<path class="stroke" d="M 54.355912112 40.72572208 L 75.74218879999998 40.72572208 L 75.74218879999998 66.51632044800002" />
<path class="stroke" d="M 54.355912112 64.7635601408 L 75.74218879999998 64.7635601408" />
</svg>
