<?xml version="1.0" standalone="no"?>
<!DOCTYPE svg PUBLIC "-//W3C//DTD SVG 1.1//EN" "http://www.w3.org/Graphics/SVG/1.1/DTD/svg11.dtd">
<svg xmlns="http://www.w3.org/2000/svg" version="1.1" width="100%" height="100%">
<style type="text/css"><![CDATA[
  .stroke { fill:none; stroke:black; stroke-width:2 }
]]></style>
<path class="stroke" d="M 36.52997 1.940061 C 34.46903 6.734999999999999 29.095689999999998 11.43531 19.747631 14.43216" />
<path class="stroke" d="M 34.54253 6.766559999999999 L 78.04417000000001 6.86118 L 77.82332 17.46057 C 77.38168999999999 22.25553 72.74454 27.807570000000002 64.79499 27.870659999999997 L 61.48266 27.870659999999997" />
<path class="stroke" d="M 11.313868 30.4598532 L 11.313868 59.890508000000004" />
<path class="stroke" d="M 11.313868 30.3430648 L 88.978096 30.3430648 L 88.978096 59.890508000000004" />
<path class="stroke" d="M 50.14598 30.4598532 L 50.14598 57.78832" />
<path class="stroke" d="M 11.313868 44.0578232 L 88.39416 44.0578232" />
<path class="stroke" d="M 11.313868 57.78832 L 88.978096 57.78832" />
<path class="stroke" d="M 15.401459 76.1021894 L 84.8905 76.1021894" />
<path class="stroke" d="M 50.14598 67.7810219 L 50.14598 77.0656925 C 50.14598 83.810219 34.812946 90.7426742 10.729925 92.30657" />
<path class="stroke" d="M 50.14598 76.9781018 C 50.14598 83.89780999999999 65.80349 90.726776 89.56204 92.30657" />
</svg>
