<?xml version="1.0" standalone="no"?>
<!DOCTYPE svg PUBLIC "-//W3C//DTD SVG 1.1//EN" "http://www.w3.org/Graphics/SVG/1.1/DTD/svg11.dtd">
<svg xmlns="http://www.w3.org/2000/svg" version="1.1" width="100%" height="100%">
<style type="text/css"><![CDATA[
  .stroke { fill:none; stroke:black; stroke-width:2 }
]]></style>
<path class="stroke" d="M 18.754744279999997 9.854013 L 18.7234904 55.63759 C 14.753019779999999 80.20134 14.753019779999999 79.39597 10.315435719999998 89.865776" />
<path class="stroke" d="M 18.754744279999997 9.854013 L 42.4627744 9.854013 L 42.4627744 86.05839 C 42.4627744 88.39416 41.785398199999996 90.43795 40.09196872 90.43795 L 38.229197799999994 90.43795" />
<path class="stroke" d="M 18.754744279999997 31.862577 L 42.4627744 31.862577" />
<path class="stroke" d="M 18.754744279999997 55.110336 L 42.4627744 55.110336" />
<path class="stroke" d="M 78.65346472 15.45940652 C 70.66930784 18.46534616 65.01386224000001 19.2495058 54.58685992 20.31094772" />
<path class="stroke" d="M 54.3343968 7.3564356 L 54.3343968 36.370295199999994 C 54.3343968 40.16039536 57.69504864 42.251486560000004 62.35247568 42.251486560000004 L 86.80396176 42.251486560000004 C 88.96633680000001 42.251486560000004 90.13069216000001 41.5980188 90.13069216000001 39.8990116 L 90.13069216000001 38.7227728" />
<path class="stroke" d="M 55.8769028448 59.1343062 L 55.8769028448 91.5080256" />
<path class="stroke" d="M 55.8769028448 59.1343062 L 87.93669840000001 59.1343062 L 87.93669840000001 91.5080256" />
<path class="stroke" d="M 56.063298408 74.43928292 L 87.750304752 74.43928292" />
<path class="stroke" d="M 55.8769028448 90.09488816 L 87.93669840000001 90.09488816" />
</svg>
