<?xml version="1.0" standalone="no"?>
<!DOCTYPE svg PUBLIC "-//W3C//DTD SVG 1.1//EN" "http://www.w3.org/Graphics/SVG/1.1/DTD/svg11.dtd">
<svg xmlns="http://www.w3.org/2000/svg" version="1.1" width="100%" height="100%">
<style type="text/css"><![CDATA[
  .stroke { fill:none; stroke:black; stroke-width:2 }
]]></style>
<path class="stroke" d="M 24.88759168 9.87079192 L 24.88759168 31.985947570000004" />
<path class="stroke" d="M 25.162042539999998 9.94442425 L 75.11240455999999 9.94442425 L 75.11240455999999 31.839233650000004" />
<path class="stroke" d="M 24.88759168 21.357634892500002 L 74.56350284 21.357634892500002" />
<path class="stroke" d="M 24.88759168 31.978295499999998 L 75.11240455999999 31.978295499999998" />
<path class="stroke" d="M 49.70343 9.87079192 L 49.70343 49.445069875" />
<path class="stroke" d="M 22.966422499999997 40.495434325000005 L 77.03357279999999 40.495434325000005" />
<path class="stroke" d="M 12.26277222 49.445069875 L 88.2861248 49.445069875" />
<path class="stroke" d="M 18.613138 55.594884300000004 C 18.029196 59.3116758 15.69343 62.441600900000005 11.89781 64.2021867" />
<path class="stroke" d="M 35.255474 56.18175070000001 C 38.46715 58.724812750000005 40.218975 61.072261600000004 41.67883 64.3978066" />
<path class="stroke" d="M 59.197075 56.3773706 C 62.408752 58.724812750000005 63.868607 61.26788150000001 65.32846 64.5934265" />
<path class="stroke" d="M 81.386856 56.3773706 C 84.8905 58.724812750000005 86.9343 60.87663500000001 88.68613 64.5934265" />
<path class="stroke" d="M 18.321167 81.7474448 L 81.678825 81.7474448" />
<path class="stroke" d="M 50.0 73.24525513 L 50.0 92.8306546" />
<path class="stroke" d="M 9.854013 92.8306546 L 89.85401 92.8306546" />
</svg>
