<?xml version="1.0" standalone="no"?>
<!DOCTYPE svg PUBLIC "-//W3C//DTD SVG 1.1//EN" "http://www.w3.org/Graphics/SVG/1.1/DTD/svg11.dtd">
<svg xmlns="http://www.w3.org/2000/svg" version="1.1" width="100%" height="100%">
<style type="text/css"><![CDATA[
  .stroke { fill:none; stroke:black; stroke-width:2 }
]]></style>
<path class="stroke" d="M 8.99054 7.394321 L 90.694 7.394321" />
<path class="stroke" d="M 14.037872 23.861179999999997 L 14.037872 41.08519999999999" />
<path class="stroke" d="M 14.037872 23.861179999999997 L 85.96217 23.861179999999997 L 85.96217 41.08519999999999" />
<path class="stroke" d="M 14.037872 41.08519999999999 L 85.96217 41.08519999999999" />
<path class="stroke" d="M 38.643543 7.583594 L 38.643543 57.55208" />
<path class="stroke" d="M 61.041 7.583594 L 61.041 57.55208" />
<path class="stroke" d="M 7.41325 57.552049999999994 L 92.90221 57.552049999999994" />
<path class="stroke" d="M 17.4453 70.51576 C 16.6042 77.57670999999999 14.5012 82.22451 10.8207 87.40849" />
<path class="stroke" d="M 33.21814 66.225555 L 33.21814 89.01737 C 33.21814 91.430605 35.11094 93.0394 37.95004 93.0394 L 72.01944 93.0394 C 74.64824 93.0394 76.96164 91.16243 77.06674 88.21293 L 77.06674 83.65455" />
<path class="stroke" d="M 45.2056 66.225572 C 50.6735 70.33702199999999 54.2487 74.716647 57.5084 80.436892" />
<path class="stroke" d="M 77.0667 66.49373 C 83.6913 71.49887 87.7923 76.50434999999999 91.8932 83.38646" />
</svg>
