<?xml version="1.0" standalone="no"?>
<!DOCTYPE svg PUBLIC "-//W3C//DTD SVG 1.1//EN" "http://www.w3.org/Graphics/SVG/1.1/DTD/svg11.dtd">
<svg xmlns="http://www.w3.org/2000/svg" version="1.1" width="100%" height="100%">
<style type="text/css"><![CDATA[
  .stroke { fill:none; stroke:black; stroke-width:2 }
]]></style>
<path class="stroke" d="M 25.71678624 11.377534472222223 C 23.47445088 15.100161888888888 20.95182336 17.444038305555555 16.18686048 19.23641441666667" />
<path class="stroke" d="M 23.47445088 15.513786999999999 L 45.33722496 15.513786999999999" />
<path class="stroke" d="M 28.799999999999997 15.789537388888888 C 32.7240864 17.995539555555556 34.12554528 19.787915666666667 34.9664208 23.0969175" />
<path class="stroke" d="M 62.7153216 11.377534472222223 C 60.75328128 15.92741163888889 57.67007039999999 17.857663416666668 55.147439999999996 19.23641441666667" />
<path class="stroke" d="M 60.472992 15.651662194444445 L 82.89634559999999 15.651662194444445" />
<path class="stroke" d="M 69.7226208 15.92741163888889 C 70.00291200000001 18.960664027777778 68.32116479999999 21.02879052777778 65.23795199999999 23.0969175" />
<path class="stroke" d="M 30.15401357 26.8780868536 L 30.15401357 60.221851136000005" />
<path class="stroke" d="M 30.15401357 26.8780868536 L 70.62116722 26.8780868536 L 70.62116722 60.101909860000006" />
<path class="stroke" d="M 30.15401357 37.0635055984 L 70.62116722 37.0635055984" />
<path class="stroke" d="M 30.15401357 48.500051072000005 L 70.62116722 48.500051072000005" />
<path class="stroke" d="M 30.15401357 59.022434268 L 70.62116722 59.022434268" />
<path class="stroke" d="M 9.854013 67.544633765 L 89.56204 67.544633765" />
<path class="stroke" d="M 37.59124 61.420693358 L 37.59124 69.93193357999999 C 37.59124 79.68872137700001 31.45985 87.05821007 22.408756 88.61514365000001" />
<path class="stroke" d="M 63.284668 61.420693358 L 63.284668 89.86069122500001" />
</svg>
