<?xml version="1.0" standalone="no"?>
<!DOCTYPE svg PUBLIC "-//W3C//DTD SVG 1.1//EN" "http://www.w3.org/Graphics/SVG/1.1/DTD/svg11.dtd">
<svg xmlns="http://www.w3.org/2000/svg" version="1.1" width="100%" height="100%">
<style type="text/css"><![CDATA[
  .stroke { fill:none; stroke:black; stroke-width:2 }
]]></style>
<path class="stroke" d="M 6.100824528301887 16.56149 L 44.49142924528302 16.56149" />
<path class="stroke" d="M 16.51688679245283 7.0978 L 16.51688679245283 30.12622" />
<path class="stroke" d="M 33.182641509433964 7.0978 L 33.182641509433964 30.12622" />
<path class="stroke" d="M 16.51688679245283 30.12622 L 33.182641509433964 30.12622" />
<path class="stroke" d="M 9.672075471698113 43.059975 L 9.672075471698113 64.82648" />
<path class="stroke" d="M 9.672075471698113 43.059975 L 39.72990566037736 43.059975 L 39.72990566037736 64.82648" />
<path class="stroke" d="M 9.672075471698113 64.82648 L 39.72990566037736 64.82648" />
<path class="stroke" d="M 5.803223584905661 79.653 L 44.19382547169811 79.653" />
<path class="stroke" d="M 24.849716981132072 30.441656 L 24.849716981132072 95.741356" />
<path class="stroke" d="M 65.37032942647059 11.605839 C 63.30506560294118 27.372261 59.01567138235294 41.970802 55.36174236764706 50.14598" />
<path class="stroke" d="M 62.192999588235296 30.583939 L 62.192999588235296 90.43795" />
<path class="stroke" d="M 87.611385775 27.184159679999997 C 82.97772330000001 33.74257344 79.69554504999999 35.4534672 73.64415977499999 37.76934048" />
<path class="stroke" d="M 73.497641 9.5049504 L 73.497641 72.80791679999999 C 73.497641 81.07722624 75.4480193 85.63960704 78.15099035 85.63960704 L 92.34158495 85.63960704 C 93.59653475 85.63960704 94.2722767 84.21385919999999 94.2722767 80.50693439999999 L 94.2722767 77.94059519999999" />
</svg>
