<?xml version="1.0" standalone="no"?>
<!DOCTYPE svg PUBLIC "-//W3C//DTD SVG 1.1//EN" "http://www.w3.org/Graphics/SVG/1.1/DTD/svg11.dtd">
<svg xmlns="http://www.w3.org/2000/svg" version="1.1" width="100%" height="100%">
<style type="text/css"><![CDATA[
  .stroke { fill:none; stroke:black; stroke-width:2 }
]]></style>
<path class="stroke" d="M 47.226276 2.755474 C 41.38686 9.10583875 27.4533 16.21745 11.021896 21.29562 C 35.547443 20.4927 56.861313 20.1277375 80.1967 20.181125" />
<path class="stroke" d="M 68.832115 15.602188 C 75.54744 16.98905 81.386856 19.10583875 85.18248 21.9525525" />
<path class="stroke" d="M 37.007298 27.3905105 L 37.007298 34.178831 C 37.007298 40.1642325 29.416058 46.076640999999995 10.437956 47.6094875" />
<path class="stroke" d="M 54.233574 27.31751825 L 54.233574 44.543795 C 54.233574 46.3686125 58.029198 47.463502500000004 62.116783 47.463502500000004 L 84.8905 47.463502500000004 C 88.10219 47.536495 90.43795 46.952552499999996 90.43795 46.149632499999996 L 90.43795 44.7627735" />
<path class="stroke" d="M 43.138683 56.678831 C 36.423355 63.248175 25.036495 70.1094875 13.357662 74.48904999999999" />
<path class="stroke" d="M 39.635033 60.474452 L 65.62044 60.474452 C 55.10949 72.4452535 32.627735 86.31386499999999 10.145985 93.90510499999999" />
<path class="stroke" d="M 28.540146 67.627737 C 40.0 78.225807 63.576637 88.21167750000001 88.39416 93.90510499999999" />
</svg>
