<?xml version="1.0" standalone="no"?>
<!DOCTYPE svg PUBLIC "-//W3C//DTD SVG 1.1//EN" "http://www.w3.org/Graphics/SVG/1.1/DTD/svg11.dtd">
<svg xmlns="http://www.w3.org/2000/svg" version="1.1" width="100%" height="100%">
<style type="text/css"><![CDATA[
  .stroke { fill:none; stroke:black; stroke-width:2 }
]]></style>
<path class="stroke" d="M 19.109058205882356 11.605839 C 16.54143291176471 27.372261 11.208672529411764 41.970802 6.665949970588236 50.14598" />
<path class="stroke" d="M 15.158864352941178 30.583939 L 15.158864352941178 90.43795" />
<path class="stroke" d="M 58.538072 3.75 L 58.538072 15.342639000000002" />
<path class="stroke" d="M 34.7634144 5.625 L 42.5867736 12.75" />
<path class="stroke" d="M 84.22712 5.625 L 75.64664 12.75" />
<path class="stroke" d="M 26.0 15.49681125 L 26.0 24.960537" />
<path class="stroke" d="M 26.0 15.49681125 L 94.0 15.49681125 L 94.0 24.960537" />
<path class="stroke" d="M 44.794160160000004 24.547445 L 44.794160160000004 36.69343" />
<path class="stroke" d="M 44.794160160000004 24.547445 L 75.345984 24.547445 L 75.345984 36.576642" />
<path class="stroke" d="M 44.794160160000004 35.7591232 L 75.345984 35.7591232" />
<path class="stroke" d="M 41.6642336 48.41970715 L 41.6642336 84.39050850000001" />
<path class="stroke" d="M 41.89780880000001 48.41970715 L 78.33576000000001 48.41970715 L 78.33576000000001 84.39050850000001" />
<path class="stroke" d="M 41.905758399999996 60.698021000000004 L 78.2970272 60.698021000000004" />
<path class="stroke" d="M 41.905758399999996 72.78712935 L 78.2970272 72.78712935" />
<path class="stroke" d="M 41.89780880000001 84.22992500000001 L 78.102184 84.22992500000001" />
<path class="stroke" d="M 46.5693424 88.08394000000001 C 44.7007296 90.81386499999999 37.116216 92.6639495 33.612565599999996 93.30628075" />
<path class="stroke" d="M 71.057592 88.12303675 C 73.06806 89.5052335 80.607328 93.6518353 87.89528800000001 93.4790583" />
</svg>
