<?xml version="1.0" standalone="no"?>
<!DOCTYPE svg PUBLIC "-//W3C//DTD SVG 1.1//EN" "http://www.w3.org/Graphics/SVG/1.1/DTD/svg11.dtd">
<svg xmlns="http://www.w3.org/2000/svg" version="1.1" width="100%" height="100%">
<style type="text/css"><![CDATA[
  .stroke { fill:none; stroke:black; stroke-width:2 }
]]></style>
<path class="stroke" d="M 12.189779 14.124087 L 87.81021 14.124087" />
<path class="stroke" d="M 34.67153 7.5547431000000005 L 34.67153 21.218976899999998" />
<path class="stroke" d="M 65.32846 7.5547431000000005 L 65.32846 21.218976899999998" />
<path class="stroke" d="M 5.20505 29.1995125 L 94.4795 29.1995125" />
<path class="stroke" d="M 26.02523 29.1995125 C 23.60673 36.3367375 18.34913 42.4093 6.46688 47.180612499999995" />
<path class="stroke" d="M 22.55513 36.652225 L 47.16093 36.652225 C 43.48053 46.4314 30.02103 54.6727 7.09779 59.9566" />
<path class="stroke" d="M 16.24613 42.448750000000004 C 23.71193 44.1049 30.86223 46.8257125 35.17353 49.3099375" />
<path class="stroke" d="M 89.11676 37.125378624999996 L 55.993656 43.631704" />
<path class="stroke" d="M 55.6782 29.1995125 L 55.3627 57.472375 C 55.0473 59.0496625 57.5709 60.035462499999994 61.0409 60.0749125 L 87.5394 60.0749125 C 90.694 60.153774999999996 93.2176 59.28625 93.2176 57.827275 L 93.2176 55.5796375" />
<path class="stroke" d="M 9.854013 72.87408625 L 89.56204 72.87408625" />
<path class="stroke" d="M 37.59124 66.4142335 L 37.59124 75.392335 C 37.59124 85.68430525 31.45985 93.45802749999999 22.408756 95.1003625" />
<path class="stroke" d="M 63.284668 66.4142335 L 63.284668 96.41423125" />
</svg>
