<?xml version="1.0" standalone="no"?>
<!DOCTYPE svg PUBLIC "-//W3C//DTD SVG 1.1//EN" "http://www.w3.org/Graphics/SVG/1.1/DTD/svg11.dtd">
<svg xmlns="http://www.w3.org/2000/svg" version="1.1" width="100%" height="100%">
<style type="text/css"><![CDATA[
  .stroke { fill:none; stroke:black; stroke-width:2 }
]]></style>
<path class="stroke" d="M 32.8759096 10.729925 C 27.036496 15.109488 20.029196 18.029196 13.7226272 19.781021" />
<path class="stroke" d="M 8.8175168 41.094887 L 36.145984 37.299267" />
<path class="stroke" d="M 24.0 16.569342 L 24.0 86.642334" />
<path class="stroke" d="M 24.0 44.890507 C 18.6277376 57.153282 14.189779999999999 65.03649 8.116788 68.540146" />
<path class="stroke" d="M 24.0 44.890507 C 28.9051088 48.394157 31.7080264 51.313866 34.043792 56.277367" />
<path class="stroke" d="M 48.0474435 17.626959574468085 L 86.7627695 17.626959574468085" />
<path class="stroke" d="M 67.594887 10.172385106382979 L 67.594887 43.407358510638296" />
<path class="stroke" d="M 49.7554745 30.36185744680851 L 85.244519 30.36185744680851" />
<path class="stroke" d="M 41.59489025 43.407358510638296 L 93.594887 43.407358510638296" />
<path class="stroke" d="M 52.602189800000005 54.9270065 L 52.602189800000005 87.627735" />
<path class="stroke" d="M 52.79196965 54.9270065 L 82.397805 54.9270065 L 82.397805 87.627735" />
<path class="stroke" d="M 52.7984287 66.08911 L 82.3663346 66.08911" />
<path class="stroke" d="M 52.7984287 77.0792085 L 82.3663346 77.0792085" />
<path class="stroke" d="M 52.79196965 87.48175 L 82.2080245 87.48175" />
<path class="stroke" d="M 56.5875907 90.9854 C 55.0693428 93.46715 48.9069255 95.149045 46.060209549999996 95.73298249999999" />
<path class="stroke" d="M 76.4842935 91.02094249999999 C 78.11779875 92.277485 84.243454 96.047123 90.1649215 95.890053" />
</svg>
