<?xml version="1.0" standalone="no"?>
<!DOCTYPE svg PUBLIC "-//W3C//DTD SVG 1.1//EN" "http://www.w3.org/Graphics/SVG/1.1/DTD/svg11.dtd">
<svg xmlns="http://www.w3.org/2000/svg" version="1.1" width="100%" height="100%">
<style type="text/css"><![CDATA[
  .stroke { fill:none; stroke:black; stroke-width:2 }
]]></style>
<path class="stroke" d="M 8.250825 11.089109 L 29.838708333333333 11.290321 C 31.451613333333338 17.741934 26.61290166666667 33.225803 21.774193333333333 40.0" />
<path class="stroke" d="M 21.774193333333333 40.96774 C 25.80645 44.51613 29.032255833333334 49.032257 30.645160833333332 54.19355 C 32.2580625 57.09677 32.2580625 65.161285 23.655913333333334 68.38709 L 18.54838666666667 69.354836" />
<path class="stroke" d="M 10.726071666666666 11.089109 L 10.726071666666666 90.09901" />
<path class="stroke" d="M 37.76178025 17.958115 L 87.2382175 17.958115" />
<path class="stroke" d="M 43.564357 29.20792 L 43.564357 57.8534" />
<path class="stroke" d="M 43.564357 29.20792 L 83.2329805 29.20792 L 83.2329805 58.167534" />
<path class="stroke" d="M 43.78712725 43.465347 L 82.761775 43.465347" />
<path class="stroke" d="M 43.78712725 57.72277 L 82.05497199999999 57.72277" />
<path class="stroke" d="M 62.971202500000004 9.790575 L 62.971202500000004 90.20942" />
<path class="stroke" d="M 62.736625000000004 57.2556 C 55.60218775 72.33576 47.177839 85.7412 37.76178025 88.95288" />
<path class="stroke" d="M 62.736625000000004 57.2556 C 68.959852 72.9197 78.74794375 86.39163 87.945025 89.89529" />
</svg>
