<?xml version="1.0" standalone="no"?>
<!DOCTYPE svg PUBLIC "-//W3C//DTD SVG 1.1//EN" "http://www.w3.org/Graphics/SVG/1.1/DTD/svg11.dtd">
<svg xmlns="http://www.w3.org/2000/svg" version="1.1" width="100%" height="100%">
<style type="text/css"><![CDATA[
  .stroke { fill:none; stroke:black; stroke-width:2 }
]]></style>
<path class="stroke" d="M 50.6309 5.839088000000004 L 50.6309 17.447920000000003" />
<path class="stroke" d="M 6.466877 17.70024 L 6.466877 27.794880000000006" />
<path class="stroke" d="M 6.466877 17.70024 L 94.164055 17.70024 L 94.164055 27.794880000000006" />
<path class="stroke" d="M 25.726275500000003 28.116788 C 24.018246500000004 42.364962399999996 19.9452551 49.8394136 14.4270068 56.6131376" />
<path class="stroke" d="M 25.332116 33.021896 L 42.018246500000004 33.021896 C 40.441604 54.043792 27.9598532 80.90510880000001 10.748174899999999 91.88320800000001" />
<path class="stroke" d="M 23.229927500000002 48.4379544 C 27.33406025 51.585264 30.58759085 55.6788296 33.478100600000005 63.153284000000006" />
<path class="stroke" d="M 56.7428873 32.272581136 L 83.62902650000001 32.272581136 L 83.62902650000001 58.841643536 C 83.60392325000001 60.952357888 82.6392065 62.399957136000005 80.45160800000001 62.399957136000005 L 75.8076305 62.399957136000005" />
<path class="stroke" d="M 56.74280945 32.509761936000004 L 56.74280945 91.10409567999999 C 56.815641500000005 93.7489624 58.453745000000005 95.19730688 60.65350835 95.13692128000001 L 85.09543025 95.13692128000001 C 87.458216 95.13692128000001 89.3320925 93.71361088 89.25066050000001 91.10409567999999 L 89.25066050000001 86.59683328" />
</svg>
