<?xml version="1.0" standalone="no"?>
<!DOCTYPE svg PUBLIC "-//W3C//DTD SVG 1.1//EN" "http://www.w3.org/Graphics/SVG/1.1/DTD/svg11.dtd">
<svg xmlns="http://www.w3.org/2000/svg" version="1.1" width="100%" height="100%">
<style type="text/css"><![CDATA[
  .stroke { fill:none; stroke:black; stroke-width:2 }
]]></style>
<path class="stroke" d="M 8.250825 15.53465355 L 29.838708333333333 15.72580495 C 31.451613333333338 21.8548373 26.61290166666667 36.56451285 21.774193333333333 43.0" />
<path class="stroke" d="M 21.774193333333333 43.919352999999994 C 25.80645 47.29032349999999 29.032255833333334 51.58064415 30.645160833333332 56.4838725 C 32.2580625 59.2419315 32.2580625 66.90322075 23.655913333333334 69.9677355 L 18.54838666666667 70.8870942" />
<path class="stroke" d="M 10.726071666666666 15.53465355 L 10.726071666666666 90.5940595" />
<path class="stroke" d="M 67.5 10.03503628 L 67.5 18.081751840000003" />
<path class="stroke" d="M 45.78648545 18.70053884 L 89.42432450000001 18.70053884" />
<path class="stroke" d="M 52.41240735 25.065694 C 56.20802775 30.531385919999998 59.0547437 37.6671504 60.572990950000005 44.6510936" />
<path class="stroke" d="M 83.15693025 23.8510936 C 78.60218850000001 29.468612 74.80656875 38.1226288 73.857663 47.0802892" />
<path class="stroke" d="M 42.3540142 48.5985384 L 92.2664235 48.5985384" />
<path class="stroke" d="M 51.02700684 62.804379 L 51.02700684 89.52554599999999" />
<path class="stroke" d="M 51.02700684 62.804379 L 84.12481600000001 62.804379 L 84.12481600000001 89.2686124" />
<path class="stroke" d="M 51.02700684 87.47007104 L 84.12481600000001 87.47007104" />
</svg>
