<?xml version="1.0" standalone="no"?>
<!DOCTYPE svg PUBLIC "-//W3C//DTD SVG 1.1//EN" "http://www.w3.org/Graphics/SVG/1.1/DTD/svg11.dtd">
<svg xmlns="http://www.w3.org/2000/svg" version="1.1" width="100%" height="100%">
<style type="text/css"><![CDATA[
  .stroke { fill:none; stroke:black; stroke-width:2 }
]]></style>
<path class="stroke" d="M 30.7571 6.46687 C 27.8129 22.45 20.1367 38.1177 6.78233 48.1072" />
<path class="stroke" d="M 27.9179 22.5552 L 90.0631 22.8706 L 89.7476 58.2019 C 89.1167 74.1851 82.4922 92.6919 71.1357 92.9022 L 66.4038 92.9022" />
<path class="stroke" d="M 28.80656875 38.51386698 C 31.27372175 40.82627664 33.551094899999995 43.5240867 35.025395 47.507916" />
<path class="stroke" d="M 65.813867 38.51386698 C 64.67518075000001 41.9824818 62.587592 44.87299272 59.74087475 47.378101920000006" />
<path class="stroke" d="M 24.6313854 55.47153078 L 70.5583925 55.47153078" />
<path class="stroke" d="M 47.5 33.3386136 L 47.594887 86.6613864" />
<path class="stroke" d="M 43.989049050000006 57.20583852 C 40.08311 66.392628 32.194905000000006 75.733806 22.733576499999998 80.71532496" />
<path class="stroke" d="M 51.39050805 57.3985374 C 54.580125 66.461994 62.516365 76.283784 72.0766365 80.90802450000001" />
</svg>
