<?xml version="1.0" standalone="no"?>
<!DOCTYPE svg PUBLIC "-//W3C//DTD SVG 1.1//EN" "http://www.w3.org/Graphics/SVG/1.1/DTD/svg11.dtd">
<svg xmlns="http://www.w3.org/2000/svg" version="1.1" width="100%" height="100%">
<style type="text/css"><![CDATA[
  .stroke { fill:none; stroke:black; stroke-width:2 }
]]></style>
<path class="stroke" d="M 20.770715441176474 11.605839 C 17.979818382352942 27.372261 12.183339705882354 41.970802 7.245597794117647 50.14598" />
<path class="stroke" d="M 16.477026470588235 30.583939 L 16.477026470588235 90.43795" />
<path class="stroke" d="M 33.501592 8.04418 L 33.501592 41.79811" />
<path class="stroke" d="M 33.501592 8.04418 L 85.74127200000001 8.04418 L 85.74127200000001 41.79811" />
<path class="stroke" d="M 34.006272 25.394299 L 85.236592 25.394299" />
<path class="stroke" d="M 33.501592 41.79811 L 85.74127200000001 41.79811" />
<path class="stroke" d="M 26.687696 55.3628 L 26.687696 93.8486" />
<path class="stroke" d="M 26.687696 55.3628 L 93.05992 55.3628 L 93.05992 87.8549 C 93.14408 91.2198 91.4616 93.3228 89.52680000000001 93.2177 L 85.74136 93.2177" />
<path class="stroke" d="M 59.49528000000001 8.67508 L 59.49528000000001 74.92118" />
<path class="stroke" d="M 40.06312 82.80749 C 51.67192 76.49839 64.79488 73.34379 76.90848 72.08199" />
<path class="stroke" d="M 72.61832000000001 64.82649 C 76.572 69.87379 78.75928 75.23649 79.68456 81.23029" />
</svg>
