<?xml version="1.0" standalone="no"?>
<!DOCTYPE svg PUBLIC "-//W3C//DTD SVG 1.1//EN" "http://www.w3.org/Graphics/SVG/1.1/DTD/svg11.dtd">
<svg xmlns="http://www.w3.org/2000/svg" version="1.1" width="100%" height="100%">
<style type="text/css"><![CDATA[
  .stroke { fill:none; stroke:black; stroke-width:2 }
]]></style>
<path class="stroke" d="M 11.605839 38.46715 L 30.29197 35.839413" />
<path class="stroke" d="M 21.824816 15.401459 L 21.824816 71.16788" />
<path class="stroke" d="M 9.270073 74.9635 L 31.751823 68.24817" />
<path class="stroke" d="M 49.0891657888 9.576642 L 49.0891657888 39.007296000000004" />
<path class="stroke" d="M 49.0891657888 9.576642 L 78.73845039999999 9.576642 L 78.73845039999999 39.007296000000004" />
<path class="stroke" d="M 49.261546648 23.490257200000002 L 78.566071312 23.490257200000002" />
<path class="stroke" d="M 49.0891657888 37.7226256 L 78.73845039999999 37.7226256" />
<path class="stroke" d="M 34.88467024 45.75 L 93.115324 45.75" />
<path class="stroke" d="M 46.72 45.92484277464 C 46.25297128 50.9196971496 43.68432376 60.5871563808 33.409729792 66.0653833944" />
<path class="stroke" d="M 45.39561976 53.4373131216 C 67.25839096 53.4373131216 73.98539704 53.4373131216 92.9051056 53.4373131216 C 92.27444679999999 73.889517396 86.3883208 81.1420725648 80.502184 85.78370676 C 77.76934048 87.5243180928 75.2467168 87.959472168 72.51386608 88.104522864" />
<path class="stroke" d="M 60.5313856 53.4373131216 C 58.6394128 65.62160387760001 48.12846616 74.75982306240002 36.5664232 79.83661332" />
<path class="stroke" d="M 75.0364912 53.4373131216 C 73.14452560000001 68.232522864 63.8948872 79.401456264 54.2248156 83.89804026" />
</svg>
