<?xml version="1.0" standalone="no"?>
<!DOCTYPE svg PUBLIC "-//W3C//DTD SVG 1.1//EN" "http://www.w3.org/Graphics/SVG/1.1/DTD/svg11.dtd">
<svg xmlns="http://www.w3.org/2000/svg" version="1.1" width="100%" height="100%">
<style type="text/css"><![CDATA[
  .stroke { fill:none; stroke:black; stroke-width:2 }
]]></style>
<path class="stroke" d="M 18.430655833333333 9.562042 C 21.350365 11.021896 24.27007 14.817516 26.216541666666668 19.48905" />
<path class="stroke" d="M 8.2116775 22.8707 L 35.46228333333334 22.8707" />
<path class="stroke" d="M 13.564475000000002 37.007298 L 30.109488333333335 37.007298" />
<path class="stroke" d="M 13.564475000000002 51.313866 L 30.109488333333335 51.313866" />
<path class="stroke" d="M 12.59124 64.45255 L 12.59124 85.76642" />
<path class="stroke" d="M 12.59124 64.16058 L 31.569341666666666 64.16058 L 31.569341666666666 85.76642" />
<path class="stroke" d="M 12.59124 85.76642 L 31.326033333333335 85.76642" />
<path class="stroke" d="M 55.073267200000004 20.22630907142857 L 74.8435648 20.22630907142857" />
<path class="stroke" d="M 65.14851584 9.193776428571429 L 65.14851584 34.84441442857143" />
<path class="stroke" d="M 45.188119040000004 35.00446857142857 L 90.8118784 35.00446857142857" />
<path class="stroke" d="M 82.2574272 14.985856785714288 C 72.75247551999999 37.87836 58.49504896 52.22065178571429 43.287128960000004 58.84017285714286" />
<path class="stroke" d="M 56.3622757376 52.11021855 L 56.3622757376 89.6343024" />
<path class="stroke" d="M 56.3622757376 52.11021855 L 79.5031808 52.11021855 L 79.5031808 89.6343024" />
<path class="stroke" d="M 56.496816896 69.85007793 L 79.368641024 69.85007793" />
<path class="stroke" d="M 56.3622757376 87.99634764 L 79.5031808 87.99634764" />
</svg>
