<?xml version="1.0" standalone="no"?>
<!DOCTYPE svg PUBLIC "-//W3C//DTD SVG 1.1//EN" "http://www.w3.org/Graphics/SVG/1.1/DTD/svg11.dtd">
<svg xmlns="http://www.w3.org/2000/svg" version="1.1" width="100%" height="100%">
<style type="text/css"><![CDATA[
  .stroke { fill:none; stroke:black; stroke-width:2 }
]]></style>
<path class="stroke" d="M 28.8649625 10.7080292 L 28.8649625 42.708026000000004" />
<path class="stroke" d="M 28.8649625 21.6861296 L 42.354009500000004 21.6861296" />
<path class="stroke" d="M 16.821166450000003 22.38686 L 16.821166450000003 42.708026000000004" />
<path class="stroke" d="M 5.419707150000001 42.708026000000004 L 49.7408725 42.708026000000004" />
<path class="stroke" d="M 28.916150214490003 46.941773551699995 L 28.916150214490003 73.422004559 C 28.916150214490003 74.1816831605 28.108539079390006 74.615786015 27.523115370520006 74.615786015 L 26.4986217496 74.615786015" />
<path class="stroke" d="M 17.27818066513 56.817596858 C 16.546399650550004 60.615991724 14.351057108080003 63.8717584865 11.27757624532 66.4763722682" />
<path class="stroke" d="M 39.231611603800005 56.817596858 C 42.15873516085001 59.096634521 44.64678930712 62.1353500421 46.110351336280004 66.6934220228" />
<path class="stroke" d="M 40.01803712500001 68.14747648 C 35.799088963 78.55031872 26.565186109000003 88.47670528 16.614877378 92.56637760000001" />
<path class="stroke" d="M 56.710218510000004 9.854013 L 89.0518218 9.854013" />
<path class="stroke" d="M 73.1131371 9.854013 C 72.49416070000001 14.817516 71.25620366 18.905107 69.505072 22.0621" />
<path class="stroke" d="M 58.077 22.3791 L 58.077 76.715324" />
<path class="stroke" d="M 58.077 22.3791 L 87.823621 22.3791 L 87.823621 76.423355" />
<path class="stroke" d="M 58.245063 40.77066 L 87.823621 40.77066" />
<path class="stroke" d="M 58.245063 59.79627 L 87.823621 59.79627" />
<path class="stroke" d="M 58.102919119999996 76.715324 L 87.9686078 76.715324" />
<path class="stroke" d="M 63.98321029 83.13868 C 61.197809070000005 86.9343 57.94817449 89.56204 54.07956086 89.85401" />
<path class="stroke" d="M 82.5525537 83.43065 C 85.8021904 84.59853 88.43284539999999 86.35036 91.52773535 90.72992" />
</svg>
