<?xml version="1.0" standalone="no"?>
<!DOCTYPE svg PUBLIC "-//W3C//DTD SVG 1.1//EN" "http://www.w3.org/Graphics/SVG/1.1/DTD/svg11.dtd">
<svg xmlns="http://www.w3.org/2000/svg" version="1.1" width="100%" height="100%">
<style type="text/css"><![CDATA[
  .stroke { fill:none; stroke:black; stroke-width:2 }
]]></style>
<path class="stroke" d="M 8.250825 11.089109 L 29.838708333333333 11.290321 C 31.451613333333338 17.741934 26.61290166666667 33.225803 21.774193333333333 40.0" />
<path class="stroke" d="M 21.774193333333333 40.96774 C 25.80645 44.51613 29.032255833333334 49.032257 30.645160833333332 54.19355 C 32.2580625 57.09677 32.2580625 65.161285 23.655913333333334 68.38709 L 18.54838666666667 69.354836" />
<path class="stroke" d="M 10.726071666666666 11.089109 L 10.726071666666666 90.09901" />
<path class="stroke" d="M 61.334304440000004 10.678830999999999 C 56.76788140000001 17.248175 49.0248166 24.1094875 41.08321016 28.48905" />
<path class="stroke" d="M 58.95182244 14.474452 L 76.6218992 14.474452 C 69.4744532 26.4452535 54.18685980000001 40.313865 38.8992698 47.905105" />
<path class="stroke" d="M 51.407299280000004 21.627737 C 59.2 32.225807 75.23211316000001 42.2116775 92.1080288 47.905105" />
<path class="stroke" d="M 40.90223836 61.35651 L 90.883257 61.35651" />
<path class="stroke" d="M 50.769693200000006 61.671898 L 50.769693200000006 80.5994" />
<path class="stroke" d="M 36.82649856 80.59932 L 95.8170276 80.59932" />
<path class="stroke" d="M 71.577292 50.3154 L 71.577292 95.4259" />
</svg>
