<?xml version="1.0" standalone="no"?>
<!DOCTYPE svg PUBLIC "-//W3C//DTD SVG 1.1//EN" "http://www.w3.org/Graphics/SVG/1.1/DTD/svg11.dtd">
<svg xmlns="http://www.w3.org/2000/svg" version="1.1" width="100%" height="100%">
<style type="text/css"><![CDATA[
  .stroke { fill:none; stroke:black; stroke-width:2 }
]]></style>
<path class="stroke" d="M 9.621447 8.841123947368422 C 15.930657 13.90496605263158 20.031557 18.22180815789474 23.817057 23.78380894736842" />
<path class="stroke" d="M 34.54267 6.5996999999999995 C 40.53637 11.414605263157895 44.00627 15.482289473684212 48.42267 21.791447368421053" />
<path class="stroke" d="M 85.01574 5.852557894736842 C 80.91484 12.493768421052632 75.55204 18.387900000000002 68.92744 24.281952631578946" />
<path class="stroke" d="M 16.0377 31.603772499999998 L 16.0377 81.3679 C 15.9329 87.73585 11.4256 93.39625 5.34591 96.22645" />
<path class="stroke" d="M 16.3522 31.3679275 L 80.5031 31.3679275 L 80.5031 81.603775 C 80.3983 90.64465 86.2683 96.619525 95.283 96.698125 L 95.283 86.556625" />
<path class="stroke" d="M 16.0377 46.6981 L 80.1887 46.6981" />
<path class="stroke" d="M 16.0377 65.094325 L 80.5031 65.094325" />
<path class="stroke" d="M 48.11316 31.3679275 L 48.11316 94.81135" />
</svg>
