<?xml version="1.0" standalone="no"?>
<!DOCTYPE svg PUBLIC "-//W3C//DTD SVG 1.1//EN" "http://www.w3.org/Graphics/SVG/1.1/DTD/svg11.dtd">
<svg xmlns="http://www.w3.org/2000/svg" version="1.1" width="100%" height="100%">
<style type="text/css"><![CDATA[
  .stroke { fill:none; stroke:black; stroke-width:2 }
]]></style>
<path class="stroke" d="M 31.7029695 7.31881152 L 66.425745 7.31881152 C 58.524750499999996 25.99604016 45.217821199999996 35.1207936 21.930692999999998 43.1049504" />
<path class="stroke" d="M 30.871286899999998 11.59604016 C 33.967739699999996 20.43870864 44.8064501 27.71612928 48.419352399999994 30.967742400000002 C 54.967738999999995 35.9225808 66.70967479999999 39.6387072 77.861386 43.1049504" />
<path class="stroke" d="M 11.9306925 57.31881152 L 36.732675 57.31881152 C 31.0891075 75.99604016 21.584158 85.1207936 4.950495 93.1049504" />
<path class="stroke" d="M 11.3366335 61.59604016 C 13.5483855 70.43870864 21.2903215 77.71612928 23.870966 80.9677424 C 28.548385 85.92258079999999 36.935482 89.6387072 44.90099 93.1049504" />
<path class="stroke" d="M 61.9306925 57.31881152 L 86.732675 57.31881152 C 81.0891075 75.99604016 71.584158 85.1207936 54.950495000000004 93.1049504" />
<path class="stroke" d="M 61.3366335 61.59604016 C 63.5483855 70.43870864 71.2903215 77.71612928 73.870966 80.9677424 C 78.548385 85.92258079999999 86.93548200000001 89.6387072 94.90099000000001 93.1049504" />
</svg>
