<?xml version="1.0" standalone="no"?>
<!DOCTYPE svg PUBLIC "-//W3C//DTD SVG 1.1//EN" "http://www.w3.org/Graphics/SVG/1.1/DTD/svg11.dtd">
<svg xmlns="http://www.w3.org/2000/svg" version="1.1" width="100%" height="100%">
<style type="text/css"><![CDATA[
  .stroke { fill:none; stroke:black; stroke-width:2 }
]]></style>
<path class="stroke" d="M 26.788319 12.695052722222222 C 24.452553 18.388482888888888 21.824816 21.973235055555556 16.861313 24.714516166666666" />
<path class="stroke" d="M 24.452553 19.021085999999997 L 47.226276 19.021085999999997" />
<path class="stroke" d="M 30.0 19.442821888888886 C 34.08759 22.816707555555556 35.547443 25.557988666666667 36.423355 30.618814999999998" />
<path class="stroke" d="M 65.32846 12.695052722222222 C 63.284668 19.653688388888888 60.07299 22.60583816666667 57.44525 24.714516166666666" />
<path class="stroke" d="M 62.9927 19.23195394444444 L 86.35036 19.23195394444444" />
<path class="stroke" d="M 72.62773 19.653688388888888 C 72.9197 24.29278027777778 71.16788 27.45579727777778 67.9562 30.618814999999998" />
<path class="stroke" d="M 27.425743 38.330692 L 77.0297 38.330692 L 77.0297 58.861384" />
<path class="stroke" d="M 10.198019 48.382177119999994 L 90.09901 48.382177119999994" />
<path class="stroke" d="M 23.861385 58.861384 L 77.0297 58.861384" />
<path class="stroke" d="M 23.564358 69.3405952 L 76.73267 69.3405952" />
<path class="stroke" d="M 14.653465 80.03366512 L 85.04951 80.03366512" />
<path class="stroke" d="M 50.0 31.9148512 L 50.0 89.8712872" />
</svg>
