<?xml version="1.0" standalone="no"?>
<!DOCTYPE svg PUBLIC "-//W3C//DTD SVG 1.1//EN" "http://www.w3.org/Graphics/SVG/1.1/DTD/svg11.dtd">
<svg xmlns="http://www.w3.org/2000/svg" version="1.1" width="100%" height="100%">
<style type="text/css"><![CDATA[
  .stroke { fill:none; stroke:black; stroke-width:2 }
]]></style>
<path class="stroke" d="M 19.472545726102943 11.605839 C 16.856079733455882 27.372261 11.421880974264706 41.970802 6.792747931985295 50.14598" />
<path class="stroke" d="M 15.44721231617647 30.583939 L 15.44721231617647 90.43795" />
<path class="stroke" d="M 24.84375 29.9124078 L 24.84375 77.912406" />
<path class="stroke" d="M 55.435645199999996 4.950495 C 53.3564359 11.3366335 48.3663375 18.91089 40.6732668 23.217821" />
<path class="stroke" d="M 48.1584158 17.8712865 L 83.297027 17.8712865" />
<path class="stroke" d="M 67.07920999999999 18.019802 C 64.584158 30.643566 53.9801989 41.188118 37.346535 44.90099" />
<path class="stroke" d="M 48.1584158 21.7326735 C 52.732672199999996 30.79208 74.980194 45.049505 87.247526 45.049505" />
<path class="stroke" d="M 80.839411 50.41970715 C 70.416054 56.5218972 55.291970199999994 61.0182462 44.2554734 61.5" />
<path class="stroke" d="M 86.766423 63.908758 C 74.817318 72.0745695 64.385008 75.5044245 46.405718 77.01593450000001" />
<path class="stroke" d="M 92.580378 78.52452070000001 C 79.305179 88.59536775000001 61.2189759 93.77737150000002 42.0072988 94.259122" />
</svg>
