<?xml version="1.0" standalone="no"?>
<!DOCTYPE svg PUBLIC "-//W3C//DTD SVG 1.1//EN" "http://www.w3.org/Graphics/SVG/1.1/DTD/svg11.dtd">
<svg xmlns="http://www.w3.org/2000/svg" version="1.1" width="100%" height="100%">
<style type="text/css"><![CDATA[
  .stroke { fill:none; stroke:black; stroke-width:2 }
]]></style>
<path class="stroke" d="M 9.8978088 20.45620375 L 9.8978088 75.63868000000001" />
<path class="stroke" d="M 9.8978088 20.45620375 L 29.9854 20.45620375 L 29.9854 75.63868000000001" />
<path class="stroke" d="M 10.014598 46.54423225 L 29.868612000000002 46.54423225" />
<path class="stroke" d="M 9.8978088 73.229923 L 29.9854 73.229923" />
<path class="stroke" d="M 52.197079 9.744525 L 83.905108 8.576642 C 83.204374 19.525547 81.802918 25.948904 79.87591 34.270073 C 78.82481200000001 38.2116775 76.8978076 44.19708 73.218976 44.19708 L 71.2919692 44.19708" />
<path class="stroke" d="M 63.058391799999995 9.4525535 L 61.30657 18.357662 C 58.503647799999996 29.744522 53.423356600000005 37.0437925 49.043794 43.17518" />
<path class="stroke" d="M 47.9927002 58.8686125 L 47.9927002 89.233575" />
<path class="stroke" d="M 47.9927002 58.8686125 L 86.18248 58.8686125 L 86.18248 88.94160500000001" />
<path class="stroke" d="M 47.9927002 86.897808 L 86.18248 86.897808" />
</svg>
