<?xml version="1.0" standalone="no"?>
<!DOCTYPE svg PUBLIC "-//W3C//DTD SVG 1.1//EN" "http://www.w3.org/Graphics/SVG/1.1/DTD/svg11.dtd">
<svg xmlns="http://www.w3.org/2000/svg" version="1.1" width="100%" height="100%">
<style type="text/css"><![CDATA[
  .stroke { fill:none; stroke:black; stroke-width:2 }
]]></style>
<path class="stroke" d="M 20.770715441176474 11.605839 C 17.979818382352942 27.372261 12.183339705882354 41.970802 7.245597794117647 50.14598" />
<path class="stroke" d="M 16.477026470588235 30.583939 L 16.477026470588235 90.43795" />
<path class="stroke" d="M 48.37591075 10.145985 C 47.0620435 19.197079 43.120437249999995 25.036495 38.521896999999996 28.832115" />
<path class="stroke" d="M 45.748172499999995 19.781021 L 83.8503625 19.781021" />
<path class="stroke" d="M 48.37591075 33.16715261 C 47.5 49.08247997 43.99634875 63.15255298 41.368612 70.99488772000001 C 56.4781015 72.60948340000002 76.4051095 75.8386795 88.01094625 86.6795572" />
<path class="stroke" d="M 48.37591075 33.16715261 L 80.346712 33.16715261 C 79.689775 50.46642093 76.843063 73.53211334 71.3686105 84.37298630000001 C 69.616783 87.14087454000001 66.770071 88.2941592 64.14233275000001 88.2941592" />
<path class="stroke" d="M 64.14233275000001 33.397809699999996 C 63.704376249999996 49.31313627 62.1715315 61.99926832 58.44890275 73.07080389999999" />
<path class="stroke" d="M 32.60948875 54.387588300000004 L 92.60948499999999 54.387588300000004" />
</svg>
