<?xml version="1.0" standalone="no"?>
<!DOCTYPE svg PUBLIC "-//W3C//DTD SVG 1.1//EN" "http://www.w3.org/Graphics/SVG/1.1/DTD/svg11.dtd">
<svg xmlns="http://www.w3.org/2000/svg" version="1.1" width="100%" height="100%">
<style type="text/css"><![CDATA[
  .stroke { fill:none; stroke:black; stroke-width:2 }
]]></style>
<path class="stroke" d="M 11.640366 8.044167 L 52.712946 8.044167 L 52.712946 33.280758" />
<path class="stroke" d="M 11.640366 33.280758 L 52.712946 33.280758" />
<path class="stroke" d="M 11.640366 8.044167 L 11.640366 58.20186 C 11.703486 72.92316 10.441626 81.01996 3.6908519999999996 94.164055" />
<path class="stroke" d="M 18.29338794 55.211388 L 47.839129199999995 55.211388" />
<path class="stroke" d="M 26.375394599999996 42.757086 L 26.375394599999996 72.1703496" />
<path class="stroke" d="M 39.6246054 42.492108 L 39.6246054 72.170316" />
<path class="stroke" d="M 14.716088339999999 72.43533599999999 L 51.5489031 72.43533599999999" />
<path class="stroke" d="M 25.315469999999994 78.85176 C 24.078864 85.28711999999999 21.252389999999995 88.76975999999999 18.028385999999998 90.662496" />
<path class="stroke" d="M 39.624618000000005 78.851688 C 41.302811999999996 85.211304 43.643514 88.39111199999999 46.91166 90.66242399999999" />
<path class="stroke" d="M 65.37855 8.04417 L 65.37855 26.6562 C 65.2734 41.062 59.64775 47.897 53.23344 50.9464" />
<path class="stroke" d="M 65.5363 8.04416 L 82.571 8.04416 L 82.571 36.7507 C 82.41325 40.8516 83.6751 43.3753 85.4101 43.3753 L 96.361255 43.3753" />
<path class="stroke" d="M 60.48895 53.15461 L 86.8297 53.15461 C 80.1525 77.23451 67.9548 89.01161 54.17981 94.16401" />
<path class="stroke" d="M 64.27445 53.15461 C 66.74555000000001 75.65721 80.88855 92.16621 96.4511 93.84861" />
</svg>
