<?xml version="1.0" standalone="no"?>
<!DOCTYPE svg PUBLIC "-//W3C//DTD SVG 1.1//EN" "http://www.w3.org/Graphics/SVG/1.1/DTD/svg11.dtd">
<svg xmlns="http://www.w3.org/2000/svg" version="1.1" width="100%" height="100%">
<style type="text/css"><![CDATA[
  .stroke { fill:none; stroke:black; stroke-width:2 }
]]></style>
<path class="stroke" d="M 20.7344878125 9.562042 C 24.019160625 11.021896 27.30382875 14.817516 29.493609375 19.48905" />
<path class="stroke" d="M 9.2381371875 22.8707 L 39.89506875 22.8707" />
<path class="stroke" d="M 15.260034375000002 37.007298 L 33.873174375 37.007298" />
<path class="stroke" d="M 15.260034375000002 51.313866 L 33.873174375 51.313866" />
<path class="stroke" d="M 14.165145 64.45255 L 14.165145 85.76642" />
<path class="stroke" d="M 14.165145 64.16058 L 35.515509375 64.16058 L 35.515509375 85.76642" />
<path class="stroke" d="M 14.165145 85.76642 L 35.2417875 85.76642" />
<path class="stroke" d="M 59.47342952 13.303648999999998 L 87.37649504 11.948904719999998 C 86.75984912 24.64963452 85.52656784 32.10072864 83.8308008 41.75328467999999 C 82.90583456 46.325545899999995 81.210070688 53.2686128 77.97269888 53.2686128 L 76.276932896 53.2686128" />
<path class="stroke" d="M 69.031384784 12.96496206 L 67.4897816 23.29488792 C 65.023210064 36.50364552 60.552553808 44.9707993 56.69853872 52.083208799999994" />
<path class="stroke" d="M 57.069744368 19.14383952 C 65.697649808 24.510834720000002 70.711125968 31.634301920000002 73.74254820799999 41.53884591999999" />
<path class="stroke" d="M 54.1131381 75.4401441 C 53.79197055 78.91167847 52.50729815 81.54525319999999 50.58029175 83.34087444" />
<path class="stroke" d="M 59.501564 71.468142 L 62.441864 78.766306 C 65.381504 84.833486 70.577904 87.54502099999999 81.13586900000001 87.673597 L 88.95985000000002 87.673597 C 90.5656905 87.6503623 91.4233715 86.84176194 91.5291915 85.9744504 L 91.5291915 85.0167888" />
<path class="stroke" d="M 71.937955 64.7861301 C 74.3467141 65.8635035 76.1131392 67.65912392 77.55839125 69.69415933" />
<path class="stroke" d="M 89.2810225 67.3 C 91.689775 68.8562042 93.13503200000001 70.7715315 94.4197055 72.92627666" />
</svg>
