<?xml version="1.0" standalone="no"?>
<!DOCTYPE svg PUBLIC "-//W3C//DTD SVG 1.1//EN" "http://www.w3.org/Graphics/SVG/1.1/DTD/svg11.dtd">
<svg xmlns="http://www.w3.org/2000/svg" version="1.1" width="100%" height="100%">
<style type="text/css"><![CDATA[
  .stroke { fill:none; stroke:black; stroke-width:2 }
]]></style>
<path class="stroke" d="M 3.3123 10.2524 L 26.40378 10.2524 C 22.87068 19.4006 19.71612 23.817 14.100959999999999 26.3406" />
<path class="stroke" d="M 14.100959999999999 26.3406 L 14.100959999999999 88.8012 C 14.35332 93.428 11.416459799999998 95.0 8.5436418 94.4389 L 4.413965579999999 91.14714" />
<path class="stroke" d="M 3.501579 54.731842 L 26.0252496 41.79814" />
<path class="stroke" d="M 76.35249999999999 8.880148 C 69.66478000000001 16.043122 55.02754 22.878028 39.25468 25.694010000000002" />
<path class="stroke" d="M 60.419707 22.6313867 C 56.040144999999995 29.5802914 50.5656925 35.78467005 45.09123925 41.2445252 L 56.363425 52.65925" />
<path class="stroke" d="M 72.90145525 37.02554595 C 66.395725 44.70010499999999 54.378475 56.70916 42.9014575 68.0474392 L 79.4707975 63.580289699999994" />
<path class="stroke" d="M 76.4051095 55.8868615 C 79.25182 59.6094875 81.222625 63.0839424 81.8795575 68.0474392" />
<path class="stroke" d="M 62.3905075 66.06204149999999 L 62.376712749999996 93.40958789999999" />
<path class="stroke" d="M 41.368612 76.2372215 C 40.2737215 80.45619649999999 38.521896999999996 84.17882759999999 35.675182 87.405108" />
<path class="stroke" d="M 81.8795575 76.485396 C 84.7262725 79.215324 86.4781 82.44160099999999 87.79196950000001 87.405108" />
</svg>
