<?xml version="1.0" standalone="no"?>
<!DOCTYPE svg PUBLIC "-//W3C//DTD SVG 1.1//EN" "http://www.w3.org/Graphics/SVG/1.1/DTD/svg11.dtd">
<svg xmlns="http://www.w3.org/2000/svg" version="1.1" width="100%" height="100%">
<style type="text/css"><![CDATA[
  .stroke { fill:none; stroke:black; stroke-width:2 }
]]></style>
<path class="stroke" d="M 14.115803 10.272478 L 14.115803 65.85831 C 13.478200450000001 77.9564 9.01498585 85.47684 5.1893725 88.41962" />
<path class="stroke" d="M 14.115803 10.272478 L 52.332117499999995 10.145985 L 52.332117499999995 86.05839 C 52.332117499999995 88.68613 51.762769500000005 90.14598 50.0547385 90.14598 L 48.15693025 90.14598" />
<path class="stroke" d="M 24.739853762 30.048816895999998 L 42.86014395 30.048816895999998" />
<path class="stroke" d="M 33.800000000000004 18.4335177776 L 33.800000000000004 45.190186592" />
<path class="stroke" d="M 22.318247718 45.190186592 L 45.198246860000005 45.190186592" />
<path class="stroke" d="M 24.739853762 58.78026232 L 24.739853762 80.35153168" />
<path class="stroke" d="M 24.739853762 58.78026232 L 42.9436488 58.78026232 L 42.9436488 80.144116192" />
<path class="stroke" d="M 24.739853762 78.6922028032 L 42.9436488 78.6922028032" />
<path class="stroke" d="M 89.051092 9.854013 C 83.094888 20.948904 74.4525544 29.124084 68.1459848 30.0" />
<path class="stroke" d="M 92.43795600000001 34.37956 C 85.60989599999999 49.22649 79.648576 55.46259 69.374696 58.21079" />
<path class="stroke" d="M 95.76021600000001 60.953674 C 88.174388 79.264305 77.8394148 88.68613 66.8613136 89.56204" />
</svg>
