<?xml version="1.0" standalone="no"?>
<!DOCTYPE svg PUBLIC "-//W3C//DTD SVG 1.1//EN" "http://www.w3.org/Graphics/SVG/1.1/DTD/svg11.dtd">
<svg xmlns="http://www.w3.org/2000/svg" version="1.1" width="100%" height="100%">
<style type="text/css"><![CDATA[
  .stroke { fill:none; stroke:black; stroke-width:2 }
]]></style>
<path class="stroke" d="M 10.461423584905662 10.198019 L 10.461423584905662 45.841583" />
<path class="stroke" d="M 10.461423584905662 10.198019 L 40.44461320754717 10.198019 L 40.44461320754717 45.841583" />
<path class="stroke" d="M 10.461423584905662 28.019802 L 40.44461320754717 28.019802" />
<path class="stroke" d="M 10.461423584905662 45.841583 L 40.44461320754717 45.841583" />
<path class="stroke" d="M 25.312909433962265 10.198019 L 25.312909433962265 79.10891" />
<path class="stroke" d="M 12.70315754716981 61.58416 L 38.20287735849057 61.58416" />
<path class="stroke" d="M 9.620772641509435 81.485146 L 41.56547735849057 76.73267" />
<path class="stroke" d="M 59.1605835 40.51095 L 91.27736999999999 40.51095" />
<path class="stroke" d="M 74.92700500000001 13.941605 L 74.92700500000001 44.014595 C 73.029195 70.0 66.527965 85.320595 55.656934 90.72992" />
<path class="stroke" d="M 74.92700500000001 44.30657 C 78.1386835 70.0 83.10219000000001 85.47445 94.489048 90.43795" />
<path class="stroke" d="M 86.897808 17.737225 C 89.37956 19.197079 91.131385 22.992699 92.00729749999999 27.080292" />
</svg>
