<?xml version="1.0" standalone="no"?>
<!DOCTYPE svg PUBLIC "-//W3C//DTD SVG 1.1//EN" "http://www.w3.org/Graphics/SVG/1.1/DTD/svg11.dtd">
<svg xmlns="http://www.w3.org/2000/svg" version="1.1" width="100%" height="100%">
<style type="text/css"><![CDATA[
  .stroke { fill:none; stroke:black; stroke-width:2 }
]]></style>
<path class="stroke" d="M 32.705049 6.2397528 L 32.705049 20.75083" />
<path class="stroke" d="M 32.910098000000005 11.173538 L 47.138354899999996 11.065205240000001" />
<path class="stroke" d="M 11.17506 21.331258000000002 L 11.17506 52.384846 C 10.97005 66.21870200000001 8.91956 75.98947000000001 4.4085145 84.599382" />
<path class="stroke" d="M 11.17506 21.331258000000002 L 59.976345 21.331258000000002 L 59.976345 25.394346000000002 C 59.908030000000004 28.39327 59.224489999999996 29.941170000000003 57.720845 30.908549999999998" />
<path class="stroke" d="M 17.22054685 38.589589520000004 L 45.4287665 32.54027120000001" />
<path class="stroke" d="M 27.9889636 25.684652 L 27.905479550000003 42.521642840000005 C 27.69177905 47.361094 27.050686 47.361094 29.615066 47.96602712 L 49.702737500000005 47.96602712 C 50.98493010000001 47.05862928 51.19862800000001 44.63890232000001 51.19862800000001 41.9167088 L 51.19862800000001 38.2871248" />
<path class="stroke" d="M 16.52681524 58.470032 L 61.96530860000001 58.470032" />
<path class="stroke" d="M 39.820196 58.470032 C 33.914816 63.6856 25.5489 67.1346 18.331248000000002 69.1956" />
<path class="stroke" d="M 33.258680000000005 63.1388 C 40.695044 67.34492 43.538351999999996 85.55732 38.83594000000001 91.65616 C 37.140896 93.59096 33.477392 92.245 31.946408 91.90852000000001" />
<path class="stroke" d="M 38.343864 69.32176 C 32.329128000000004 73.73812000000001 26.150384000000003 76.13572 17.6750808 78.91168" />
<path class="stroke" d="M 40.312324000000004 76.64036 C 35.992632 81.05684 25.767612000000003 85.59936 17.5110416 88.2492" />
<path class="stroke" d="M 56.3880044 63.8959 C 53.052568400000006 67.17666 49.06099640000001 69.95266000000001 45.233432400000005 72.09782" />
<path class="stroke" d="M 40.476321600000006 75.126176 C 46.70976960000001 80.2576172 52.7792096 85.389096 60.324929600000004 88.62777600000001" />
<path class="stroke" d="M 72.41321 12.1451 L 72.41321 68.612" />
<path class="stroke" d="M 89.41635000000001 6.78233 L 89.41635000000001 84.0694 C 89.53207 89.6425 85.83068 92.3765 81.43530000000001 92.2713 L 77.61830000000002 92.2713" />
</svg>
