<?xml version="1.0" standalone="no"?>
<!DOCTYPE svg PUBLIC "-//W3C//DTD SVG 1.1//EN" "http://www.w3.org/Graphics/SVG/1.1/DTD/svg11.dtd">
<svg xmlns="http://www.w3.org/2000/svg" version="1.1" width="100%" height="100%">
<style type="text/css"><![CDATA[
  .stroke { fill:none; stroke:black; stroke-width:2 }
]]></style>
<path class="stroke" d="M 20.09269889 13.3394155 L 88.9072911 13.3394155" />
<path class="stroke" d="M 40.55109229999999 7.13503515 L 40.55109229999999 20.040144849999997" />
<path class="stroke" d="M 68.4488986 7.13503515 L 68.4488986 20.040144849999997" />
<path class="stroke" d="M 18.905107 26.08029066 L 90.14598 26.08029066" />
<path class="stroke" d="M 18.613138 26.08029066 L 18.613138 43.55766242 C 18.613138 79.23065460000001 14.817516 84.73722192 10.198019 91.8811882" />
<path class="stroke" d="M 34.0321156 34.7399695072 L 34.0321156 73.5062164288 C 34.0321156 80.24816996799998 32.49051136 85.5153232 28.37956144 90.3611082144" />
<path class="stroke" d="M 34.0321156 34.7399695072 L 84.3912376 34.7399695072 L 84.3912376 90.15041977599999 C 84.3912376 91.41454030399998 83.36350320000001 92.88933916799999 81.3080256 92.88933916799999 L 79.50948512 92.88933916799999" />
<path class="stroke" d="M 34.0321156 51.172495823999995 L 84.3912376 51.172495823999995" />
<path class="stroke" d="M 34.0321156 68.245046704 L 84.3912376 68.245046704" />
<path class="stroke" d="M 58.77603656 35.161342776 L 58.77603656 89.72904867199999" />
</svg>
