<?xml version="1.0" standalone="no"?>
<!DOCTYPE svg PUBLIC "-//W3C//DTD SVG 1.1//EN" "http://www.w3.org/Graphics/SVG/1.1/DTD/svg11.dtd">
<svg xmlns="http://www.w3.org/2000/svg" version="1.1" width="100%" height="100%">
<style type="text/css"><![CDATA[
  .stroke { fill:none; stroke:black; stroke-width:2 }
]]></style>
<path class="stroke" d="M 12.189779 14.7700725 L 87.81021 14.7700725" />
<path class="stroke" d="M 34.67153 9.29561925 L 34.67153 20.68248075" />
<path class="stroke" d="M 65.32846 9.29561925 L 65.32846 20.68248075" />
<path class="stroke" d="M 82.17669 24.868136 C 56.20399 27.980635200000002 38.11779 28.665401600000003 19.40059 28.6031824" />
<path class="stroke" d="M 5.835964 35.69965808 L 95.42591 35.69965808" />
<path class="stroke" d="M 22.5552 42.796248608 L 22.5552 62.21828624" />
<path class="stroke" d="M 22.5552 42.796248608 L 78.706604 42.796248608 L 78.706604 62.21828624" />
<path class="stroke" d="M 23.186157 52.50727216000001 L 78.70666 52.50727216000001" />
<path class="stroke" d="M 22.5552 62.21828624 L 78.706604 62.21828624" />
<path class="stroke" d="M 50.63096 28.042939056 L 50.63096 77.34511168" />
<path class="stroke" d="M 13.091485 69.68834352 L 87.53938 69.68834352" />
<path class="stroke" d="M 5.520505 77.531864 L 95.11041 77.531864" />
<path class="stroke" d="M 18.613138 81.60583199999999 C 18.029196 86.043792 15.69343 89.78101600000001 11.89781 91.88320800000001" />
<path class="stroke" d="M 35.255474 82.306568 C 38.46715 85.34306000000001 40.218975 88.145984 41.67883 92.116784" />
<path class="stroke" d="M 59.197075 82.540144 C 62.408752 85.34306000000001 63.868607 88.37956000000001 65.32846 92.35036000000001" />
<path class="stroke" d="M 81.386856 82.540144 C 84.8905 85.34306000000001 86.9343 87.9124 88.68613 92.35036000000001" />
</svg>
