<?xml version="1.0" standalone="no"?>
<!DOCTYPE svg PUBLIC "-//W3C//DTD SVG 1.1//EN" "http://www.w3.org/Graphics/SVG/1.1/DTD/svg11.dtd">
<svg xmlns="http://www.w3.org/2000/svg" version="1.1" width="100%" height="100%">
<style type="text/css"><![CDATA[
  .stroke { fill:none; stroke:black; stroke-width:2 }
]]></style>
<path class="stroke" d="M 54.10092 6.46688 L 54.10092 14.66882" />
<path class="stroke" d="M 18.7697 14.98422 L 93.8486 14.98422" />
<path class="stroke" d="M 18.7697 15.2997 L 18.7697 59.7792 C 19.0852 71.2408 14.6687 79.2323 6.46688 87.5394" />
<path class="stroke" d="M 5.83596 25.07884 C 8.78023 28.65404 10.4627 32.22924 11.8297 36.43534" />
<path class="stroke" d="M 6.15141 58.20189 C 8.14931 57.04519 10.4627 54.62679 12.1451 52.20829" />
<path class="stroke" d="M 44.233576 25.609487925 C 43.7664216 31.565692499999997 40.4963504 38.5145955 37.927004800000006 41.2445252" />
<path class="stroke" d="M 42.131384 35.53649555 L 79.9708 35.53649555" />
<path class="stroke" d="M 33.7226272 56.1620014 L 85.57664 56.1620014" />
<path class="stroke" d="M 59.18248 36.281020749999996 L 59.18248 46.70437695 C 59.221618400000004 69.62972099999999 37.226276 88.39780599999999 28.58394 91.8722575" />
<path class="stroke" d="M 59.221618400000004 56.94864749999999 C 65.7226256 74.0036425 77.16788 85.66787799999999 91.41605200000001 91.624083" />
</svg>
