<?xml version="1.0" standalone="no"?>
<!DOCTYPE svg PUBLIC "-//W3C//DTD SVG 1.1//EN" "http://www.w3.org/Graphics/SVG/1.1/DTD/svg11.dtd">
<svg xmlns="http://www.w3.org/2000/svg" version="1.1" width="100%" height="100%">
<style type="text/css"><![CDATA[
  .stroke { fill:none; stroke:black; stroke-width:2 }
]]></style>
<path class="stroke" d="M 40.272989259999996 10.729925 C 33.1197076 15.109488 24.5357651 18.029196 16.81021832 19.781021" />
<path class="stroke" d="M 10.80145808 41.094887 L 44.2788304 37.299267" />
<path class="stroke" d="M 29.4 16.569342 L 29.4 86.642334" />
<path class="stroke" d="M 29.4 44.890507 C 22.81897856 57.153282 17.3824805 65.03649 9.943065299999999 68.540146" />
<path class="stroke" d="M 29.4 44.890507 C 35.40875828 48.394157 38.84233234 51.313866 41.703645200000004 56.277367" />
<path class="stroke" d="M 58.1774868 33.169632039999996 C 57.511517420000004 38.032458180000006 55.51361299 42.08481602 53.0162302 46.40732738" />
<path class="stroke" d="M 85.5625497 33.48869548 C 83.89707982 38.82189518 81.8853991 42.337225159999996 79.56423230000001 45.35036158" />
<path class="stroke" d="M 67.831246 16.474451180000003 C 67.942705 24.90264296 67.886949 31.714272960000002 67.831246 42.24156478 C 67.995281 65.4309376 54.966874000000004 85.055656 47.06788226 85.776637" />
<path class="stroke" d="M 67.87029746 45.124751759999995 C 69.61406 62.3244542 81.348472 81.2336526 86.52773535 84.7722559 C 87.7656908 85.776637 88.6941607 86.0277312 90.0868576 86.278834" />
</svg>
