<?xml version="1.0" standalone="no"?>
<!DOCTYPE svg PUBLIC "-//W3C//DTD SVG 1.1//EN" "http://www.w3.org/Graphics/SVG/1.1/DTD/svg11.dtd">
<svg xmlns="http://www.w3.org/2000/svg" version="1.1" width="100%" height="100%">
<style type="text/css"><![CDATA[
  .stroke { fill:none; stroke:black; stroke-width:2 }
]]></style>
<path class="stroke" d="M 50.31636 16.27737 L 50.31636 88.39416" />
<path class="stroke" d="M 14.817516 46.35036 L 14.817516 91.605835 M 14.817516 88.39416 L 84.8905 88.39416" />
<path class="stroke" d="M 84.8905 46.05839 L 84.8905 91.897804" />
<path class="stroke" d="M 32.501823435 17.8832104 C 30.386495265 27.226276 27.263867835 33.5328464 24.745619685 39.138684 C 27.163138529999998 43.343064 29.882845635 48.481752 32.501823435 54.7883176" />
<path class="stroke" d="M 39.754377899999994 34.233576 C 34.314961964999995 53.8540104 27.566057475 68.80292 21.018612285 79.78101600000001 C 29.077006365 76.510944 36.43029013499999 75.34306000000001 43.682844599999996 75.34306000000001" />
<path class="stroke" d="M 41.6682447 67.401456 C 43.024418999999995 70.77808 44.656959 76.66664 44.992333499999994 81.88320800000001" />
<path class="stroke" d="M 67.00182343499999 17.8832104 C 64.886495265 27.226276 61.76386783499999 33.5328464 59.245619685 39.138684 C 61.66313852999999 43.343064 64.382845635 48.481752 67.00182343499999 54.7883176" />
<path class="stroke" d="M 74.25437790000001 34.233576 C 68.814961965 53.8540104 62.066057475 68.80292 55.518612284999996 79.78101600000001 C 63.577006364999995 76.510944 70.93029013499999 75.34306000000001 78.1828446 75.34306000000001" />
<path class="stroke" d="M 76.1682447 67.401456 C 77.524419 70.77808 79.156959 76.66664 79.4923335 81.88320800000001" />
</svg>
