<?xml version="1.0" standalone="no"?>
<!DOCTYPE svg PUBLIC "-//W3C//DTD SVG 1.1//EN" "http://www.w3.org/Graphics/SVG/1.1/DTD/svg11.dtd">
<svg xmlns="http://www.w3.org/2000/svg" version="1.1" width="100%" height="100%">
<style type="text/css"><![CDATA[
  .stroke { fill:none; stroke:black; stroke-width:2 }
]]></style>
<path class="stroke" d="M 27.956203 10.675180749999999 L 72.62773 10.675180749999999" />
<path class="stroke" d="M 13.065693 22.062042166666664 C 13.065693 28.07177425 12.773722 32.183695916666665 11.313868 36.61192166666666" />
<path class="stroke" d="M 13.357662 22.062042166666664 L 87.51824 22.062042166666664 C 87.22627 28.388074 86.35036 31.551090999999996 85.18248 34.714109083333334" />
<path class="stroke" d="M 50.165638 10.675180749999999 L 50.165638 50.21289" />
<path class="stroke" d="M 27.080292 29.65328275 C 31.45985 30.602187416666666 34.37956 32.183695916666665 37.299267 35.66301266666667" />
<path class="stroke" d="M 27.372261 40.72384333333333 C 30.875912 41.356444999999994 33.79562 43.2542565 37.007298 47.68247791666666" />
<path class="stroke" d="M 60.9489 29.65328275 C 64.74452 30.28588658333333 67.9562 31.867396166666666 72.04379 35.34671291666667" />
<path class="stroke" d="M 60.9489 41.040144166666664 C 65.03649 41.67274583333333 68.540146 44.51946091666667 71.45985 47.68247791666666" />
<path class="stroke" d="M 28.5 55.8020775 L 71.5 55.8020775" />
<path class="stroke" d="M 15.8170382 67.0480425 L 84.4541972 67.0480425" />
<path class="stroke" d="M 42.5920804 67.160892 L 24.71089074 90.7301995 C 41.5702972 87.997526375 58.4297028 86.1188145 75.0336626 85.09405985000001" />
<path class="stroke" d="M 70.180201 79.62871245 C 74.0118794 82.87376175 77.07722556 86.63118549999999 79.37624120000001 90.55940724999999" />
</svg>
