<?xml version="1.0" standalone="no"?>
<!DOCTYPE svg PUBLIC "-//W3C//DTD SVG 1.1//EN" "http://www.w3.org/Graphics/SVG/1.1/DTD/svg11.dtd">
<svg xmlns="http://www.w3.org/2000/svg" version="1.1" width="100%" height="100%">
<style type="text/css"><![CDATA[
  .stroke { fill:none; stroke:black; stroke-width:2 }
]]></style>
<path class="stroke" d="M 12.328466800000001 9.675912 L 12.328466800000001 29.109488" />
<path class="stroke" d="M 12.328466800000001 9.675912 L 37.78832 9.675912 L 37.78832 28.9226272" />
<path class="stroke" d="M 12.328466800000001 27.61459712 L 37.78832 27.61459712" />
<path class="stroke" d="M 62.3284668 9.675912 L 62.3284668 29.109488" />
<path class="stroke" d="M 62.3284668 9.675912 L 87.78832 9.675912 L 87.78832 28.9226272" />
<path class="stroke" d="M 62.3284668 27.61459712 L 87.78832 27.61459712" />
<path class="stroke" d="M 15.401459 44.8029192 L 84.8905 44.8029192" />
<path class="stroke" d="M 50.14598 33.7080292 L 50.14598 46.087590000000006 C 50.14598 55.080292 34.812946 64.3235656 10.729925 66.40876" />
<path class="stroke" d="M 50.14598 45.9708024 C 50.14598 55.19708 65.80349 64.302368 89.56204 66.40876" />
<path class="stroke" d="M 12.328466800000001 69.675912 L 12.328466800000001 89.109488" />
<path class="stroke" d="M 12.328466800000001 69.675912 L 37.78832 69.675912 L 37.78832 88.9226272" />
<path class="stroke" d="M 12.328466800000001 87.61459712 L 37.78832 87.61459712" />
<path class="stroke" d="M 62.3284668 69.675912 L 62.3284668 89.109488" />
<path class="stroke" d="M 62.3284668 69.675912 L 87.78832 69.675912 L 87.78832 88.9226272" />
<path class="stroke" d="M 62.3284668 87.61459712 L 87.78832 87.61459712" />
</svg>
