<?xml version="1.0" standalone="no"?>
<!DOCTYPE svg PUBLIC "-//W3C//DTD SVG 1.1//EN" "http://www.w3.org/Graphics/SVG/1.1/DTD/svg11.dtd">
<svg xmlns="http://www.w3.org/2000/svg" version="1.1" width="100%" height="100%">
<style type="text/css"><![CDATA[
  .stroke { fill:none; stroke:black; stroke-width:2 }
]]></style>
<path class="stroke" d="M 12.189779 16.4781015 L 87.81021 16.4781015" />
<path class="stroke" d="M 34.67153 8.813866950000001 L 34.67153 24.75547305" />
<path class="stroke" d="M 65.32846 8.813866950000001 L 65.32846 24.75547305" />
<path class="stroke" d="M 13.154171785714285 34.68514856 C 16.654879285714284 36.2653474 20.15558785714286 38.52277312 23.01980357142857 41.23168292" />
<path class="stroke" d="M 10.926448928571428 52.970297880000004 C 14.108912142857141 54.3247524 17.927864999999997 56.35643532 20.473834285714286 59.0653474" />
<path class="stroke" d="M 10.608203571428572 89.0891056 C 11.321795357142857 90.44123376 13.310014285714285 92.32164704 15.629600357142856 92.32164704 C 17.949189642857142 92.32164704 21.110325 82.3168292 23.33804892857143 76.8990096" />
<path class="stroke" d="M 84.92903028 29.1214192352 C 70.8 33.1592254924 58.491238589999995 33.555474148 39.71612769 34.5051606024" />
<path class="stroke" d="M 47.016127690000005 38.6925158748 C 48.9 39.5112116856 50.17883079 41.2708611176 51.49032178 42.4312245652" />
<path class="stroke" d="M 80.69032177999999 38.0943225956 C 80.01824289999999 40.4587141204 79.27741699999999 41.53393511 77.62903028 42.4312245652" />
<path class="stroke" d="M 36.111677865000004 47.266291159999994 L 91.1014533 47.266291159999994" />
<path class="stroke" d="M 63.5 33.08045568 L 63.5 67.5302453056" />
<path class="stroke" d="M 63.3934273 49.121604452 C 56.668222 56.821087160000005 48.04744395 62.115936936000004 35.04598408 65.6352358" />
<path class="stroke" d="M 63.3934273 49.121604452 C 69.717702 56.67482136 80.08049 61.988372760000004 92.5934273 65.3645230704" />
<path class="stroke" d="M 47.1202917112 68.0844372752 L 47.1202917112 92.688464688" />
<path class="stroke" d="M 47.1202917112 67.9868021728 L 80.0033258464 67.9868021728 L 80.0033258464 92.688464688" />
<path class="stroke" d="M 63.561807932 68.0844372752 L 63.561807932 90.93103552" />
<path class="stroke" d="M 47.1202917112 79.45234019520001 L 79.75608734400001 79.45234019520001" />
<path class="stroke" d="M 47.1202917112 90.93103552 L 80.0033258464 90.93103552" />
</svg>
