<?xml version="1.0" standalone="no"?>
<!DOCTYPE svg PUBLIC "-//W3C//DTD SVG 1.1//EN" "http://www.w3.org/Graphics/SVG/1.1/DTD/svg11.dtd">
<svg xmlns="http://www.w3.org/2000/svg" version="1.1" width="100%" height="100%">
<style type="text/css"><![CDATA[
  .stroke { fill:none; stroke:black; stroke-width:2 }
]]></style>
<path class="stroke" d="M 20.770715441176474 11.605839 C 17.979818382352942 27.372261 12.183339705882354 41.970802 7.245597794117647 50.14598" />
<path class="stroke" d="M 16.477026470588235 30.583939 L 16.477026470588235 90.43795" />
<path class="stroke" d="M 37.6569322 17.626959574468085 L 84.1153234 17.626959574468085" />
<path class="stroke" d="M 61.113864400000004 10.172385106382979 L 61.113864400000004 43.407358510638296" />
<path class="stroke" d="M 39.7065694 30.36185744680851 L 82.2934228 30.36185744680851" />
<path class="stroke" d="M 29.9138683 43.407358510638296 L 92.3138644 43.407358510638296" />
<path class="stroke" d="M 43.12262776 54.9270065 L 43.12262776 87.627735" />
<path class="stroke" d="M 43.35036358000001 54.9270065 L 78.87736600000001 54.9270065 L 78.87736600000001 87.627735" />
<path class="stroke" d="M 43.35811444 66.08911 L 78.83960152 66.08911" />
<path class="stroke" d="M 43.35811444 77.0792085 L 78.83960152 77.0792085" />
<path class="stroke" d="M 43.35036358000001 87.48175 L 78.64962940000001 87.48175" />
<path class="stroke" d="M 47.90510884 90.9854 C 46.08321136 93.46715 38.6883106 95.149045 35.27225146 95.73298249999999" />
<path class="stroke" d="M 71.78115220000001 91.02094249999999 C 73.7413585 92.277485 81.0921448 96.047123 88.1979058 95.890053" />
</svg>
