<?xml version="1.0" standalone="no"?>
<!DOCTYPE svg PUBLIC "-//W3C//DTD SVG 1.1//EN" "http://www.w3.org/Graphics/SVG/1.1/DTD/svg11.dtd">
<svg xmlns="http://www.w3.org/2000/svg" version="1.1" width="100%" height="100%">
<style type="text/css"><![CDATA[
  .stroke { fill:none; stroke:black; stroke-width:2 }
]]></style>
<path class="stroke" d="M 15.058394 13.4 L 46.941604000000005 13.4" />
<path class="stroke" d="M 31.0 5.7956204 L 31.0 22.145984000000002" />
<path class="stroke" d="M 5.83596 24.76342 L 94.164 24.76342" />
<path class="stroke" d="M 60.7256 5.83596 L 60.7256 24.7634 C 61.1462 52.7339 77.0242 93.0074 89.7476 93.2176 L 89.7476 82.4922" />
<path class="stroke" d="M 90.3785 44.637257 C 81.5457 68.82226 66.4037 86.38276 44.9526 92.586754" />
<path class="stroke" d="M 82.1767 7.09779 C 85.7519 9.62145 88.0652 11.82965 90.3785 15.93065" />
<path class="stroke" d="M 35.15775 37.287065 L 35.15775 44.38485" />
<path class="stroke" d="M 13.07571 44.38485 L 56.60885 44.38485" />
<path class="stroke" d="M 35.15775 44.38485 C 30.11045 53.743449999999996 22.8549 60.57835 13.548895 64.8896" />
<path class="stroke" d="M 25.2208 57.3186 L 25.2208 79.40065 M 15.599350000000001 81.29335 C 23.906399999999998 80.8202 32.21345 79.87385 39.5741 76.40379999999999" />
<path class="stroke" d="M 54.24289 52.744434999999996 C 49.98424 56.529984999999996 45.25239 59.211335 40.047290000000004 60.630935" />
<path class="stroke" d="M 35.0 44.38485 C 38.41745 63.04945 45.6204 73.19659999999999 55.347 80.66239999999999" />
</svg>
