<?xml version="1.0" standalone="no"?>
<!DOCTYPE svg PUBLIC "-//W3C//DTD SVG 1.1//EN" "http://www.w3.org/Graphics/SVG/1.1/DTD/svg11.dtd">
<svg xmlns="http://www.w3.org/2000/svg" version="1.1" width="100%" height="100%">
<style type="text/css"><![CDATA[
  .stroke { fill:none; stroke:black; stroke-width:2 }
]]></style>
<path class="stroke" d="M 18.108028960000002 9.854013 L 18.077852800000002 55.63759 C 14.244294960000001 80.20134 14.244294960000001 79.39597 9.959731040000001 89.865776" />
<path class="stroke" d="M 18.108028960000002 9.854013 L 40.99854080000001 9.854013 L 40.99854080000001 86.05839 C 40.99854080000001 88.39416 40.3445224 90.43795 38.70948704 90.43795 L 36.9109496 90.43795" />
<path class="stroke" d="M 18.108028960000002 31.862577 L 40.99854080000001 31.862577" />
<path class="stroke" d="M 18.108028960000002 55.110336 L 40.99854080000001 55.110336" />
<path class="stroke" d="M 66.779780344 9.959853200000001 C 63.89510884 21.39050975 57.0119302 34.191410000000005 48.894816624 43.332116 C 61.010436842000004 41.88686 71.539488622 41.229927499999995 83.06716980000002 41.326025" />
<path class="stroke" d="M 77.45306481 33.0839384 C 80.77043536 35.58029 83.655106864 39.39050975 85.53014512 44.5145945" />
<path class="stroke" d="M 54.321605472 56.223357 L 54.321605472 87.802918" />
<path class="stroke" d="M 54.321605472 56.223357 L 80.7998528 56.223357 L 80.7998528 87.49926920000001" />
<path class="stroke" d="M 54.321605472 85.37372031999999 L 80.7998528 85.37372031999999" />
</svg>
