<?xml version="1.0" standalone="no"?>
<!DOCTYPE svg PUBLIC "-//W3C//DTD SVG 1.1//EN" "http://www.w3.org/Graphics/SVG/1.1/DTD/svg11.dtd">
<svg xmlns="http://www.w3.org/2000/svg" version="1.1" width="100%" height="100%">
<style type="text/css"><![CDATA[
  .stroke { fill:none; stroke:black; stroke-width:2 }
]]></style>
<path class="stroke" d="M 14.6688 18.353308 L 14.6688 48.668766 C 14.5636 54.797032 12.5657 57.404875999999994 7.41325 60.599363999999994" />
<path class="stroke" d="M 14.9842 18.3533204 L 94.164 18.3533204" />
<path class="stroke" d="M 14.98423 31.066221999999996 L 38.95893 31.066221999999996 L 38.95893 44.170356000000005 C 38.95893 49.125147999999996 38.64353 54.275487999999996 31.07253 54.340711999999996 L 26.65623 54.340711999999996" />
<path class="stroke" d="M 53.4701 6.6182952 L 53.4701 18.353308 C 53.5752 47.038848 78.9169 60.664588 91.6403 60.794912000000004 L 91.6403 54.145164" />
<path class="stroke" d="M 85.0157 32.43534134 C 76.1829 47.430039480000005 59.7791 56.9484692 38.328 60.7949492" />
<path class="stroke" d="M 78.39121 7.2050446 C 81.96641 8.7697138 84.27971 10.138797799999999 86.59301 12.6814178" />
<path class="stroke" d="M 18.4542 69.391168 L 18.4542 94.627776" />
<path class="stroke" d="M 18.4542 69.391168 L 80.5994 69.391168 L 80.5994 94.526816" />
<path class="stroke" d="M 39.27444 69.492128 L 39.27444 94.627776" />
<path class="stroke" d="M 60.41014 69.49211424 L 60.41014 94.7287232" />
<path class="stroke" d="M 7.09779 94.728704 L 92.9022 94.728704" />
</svg>
