<?xml version="1.0" standalone="no"?>
<!DOCTYPE svg PUBLIC "-//W3C//DTD SVG 1.1//EN" "http://www.w3.org/Graphics/SVG/1.1/DTD/svg11.dtd">
<svg xmlns="http://www.w3.org/2000/svg" version="1.1" width="100%" height="100%">
<style type="text/css"><![CDATA[
  .stroke { fill:none; stroke:black; stroke-width:2 }
]]></style>
<path class="stroke" d="M 22.839923720930233 13.941605 C 26.506533139534888 17.153284 28.339840465116282 21.240875 29.256491511627907 25.912407" />
<path class="stroke" d="M 13.062297034883722 29.416058 L 39.95076976744186 27.66423 C 34.45085302325582 39.927006 21.61772058139535 50.729923 10.617891279069768 57.44525" />
<path class="stroke" d="M 28.339840465116282 45.18248 L 28.339840465116282 89.56204" />
<path class="stroke" d="M 31.700898837209305 44.014595 C 35.97860930232558 46.642334 38.11746453488372 50.14598 39.95076976744186 54.233574" />
<path class="stroke" d="M 46.233868168 10.464962749999998 L 46.233868168 46.295618499999996" />
<path class="stroke" d="M 46.233868168 10.464962749999998 L 78.3132832 10.464962749999998 L 78.3132832 45.951093900000004" />
<path class="stroke" d="M 46.233868168 43.53941344 L 78.3132832 43.53941344" />
<path class="stroke" d="M 55.9051086 48.87664142 L 55.9051086 62.72481524 C 55.9051086 74.9350343 50.5912406 86.99634764 37.3065692 90.1233545" />
<path class="stroke" d="M 67.96350179999999 48.72773723 L 67.96350179999999 83.8693418 C 67.96350179999999 87.5919695 70.6204386 89.8255451 73.4817481 89.8255451 L 89.42335 89.8255451 C 91.67153299999998 89.9744498 93.306565 88.7832071 93.306565 87.1452503 L 93.306565 84.31605794000001" />
</svg>
