<?xml version="1.0" standalone="no"?>
<!DOCTYPE svg PUBLIC "-//W3C//DTD SVG 1.1//EN" "http://www.w3.org/Graphics/SVG/1.1/DTD/svg11.dtd">
<svg xmlns="http://www.w3.org/2000/svg" version="1.1" width="100%" height="100%">
<style type="text/css"><![CDATA[
  .stroke { fill:none; stroke:black; stroke-width:2 }
]]></style>
<path class="stroke" d="M 5.48540055 9.80839375 L 39.5145945 9.80839375" />
<path class="stroke" d="M 15.602188499999999 5.246349375 L 15.602188499999999 14.735400624999999" />
<path class="stroke" d="M 29.397807000000004 5.246349375 L 29.397807000000004 14.735400624999999" />
<path class="stroke" d="M 13.840695 14.92507625 C 12.515805 20.91875 9.061515 26.794137499999998 3.0520485 30.5402" />
<path class="stroke" d="M 12.563055 20.958199999999998 L 40.528395 21.076475000000002 L 40.38642 34.3257125 C 40.102515 40.3194125 37.12149 47.2594625 32.011065 47.338325 L 29.88171 47.338325" />
<path class="stroke" d="M 15.372262575 28.28558375 L 15.372262575 37.3950725" />
<path class="stroke" d="M 15.372262575 28.28558375 L 29.69343 28.28558375 L 29.69343 37.3074815" />
<path class="stroke" d="M 15.372262575 36.6943424 L 29.69343 36.6943424" />
<path class="stroke" d="M 64.9851498 4.950495 C 63.351485350000004 11.3366335 59.43069375 18.91089 53.386138200000005 23.217821" />
<path class="stroke" d="M 59.2673267 17.8712865 L 86.8762355 17.8712865" />
<path class="stroke" d="M 74.13366500000001 18.019802 C 72.17326700000001 30.643566 63.841584850000004 41.188118 50.7722775 44.90099" />
<path class="stroke" d="M 59.2673267 21.7326735 C 62.8613853 30.79208 80.34158099999999 45.049505 89.980199 45.049505" />
<path class="stroke" d="M 40.218975 55.0729925 C 46.05839 55.510948 52.48175 56.386860999999996 58.321167 58.138685" />
<path class="stroke" d="M 9.854013 62.265474499999996 L 89.56204 62.265474499999996" />
<path class="stroke" d="M 31.34734 68.9327585 L 67.29274 68.9327585" />
<path class="stroke" d="M 29.4605 75.588627 L 69.2757 75.588627" />
<path class="stroke" d="M 29.1461 82.5874825 L 29.1461 96.29686749999999" />
<path class="stroke" d="M 29.146 82.430295 L 69.5901 82.430295 L 69.5901 96.14529999999999" />
<path class="stroke" d="M 29.14706 94.572975 L 69.27666 94.573025" />
</svg>
