<?xml version="1.0" standalone="no"?>
<!DOCTYPE svg PUBLIC "-//W3C//DTD SVG 1.1//EN" "http://www.w3.org/Graphics/SVG/1.1/DTD/svg11.dtd">
<svg xmlns="http://www.w3.org/2000/svg" version="1.1" width="100%" height="100%">
<style type="text/css"><![CDATA[
  .stroke { fill:none; stroke:black; stroke-width:2 }
]]></style>
<path class="stroke" d="M 13.154171785714285 14.059406 C 16.654879285714284 16.138615 20.15558785714286 19.108912 23.01980357142857 22.673267" />
<path class="stroke" d="M 10.926448928571428 38.118813 C 14.108912142857141 39.90099 17.927864999999997 42.574257 20.473834285714286 46.138615" />
<path class="stroke" d="M 10.608203571428572 85.64356 C 11.321795357142857 87.422676 13.310014285714285 89.896904 15.629600357142856 89.896904 C 17.949189642857142 89.896904 21.110325 76.73267 23.33804892857143 69.60396" />
<path class="stroke" d="M 44.43430525 9.854013 C 43.33941475 19.781021 36.332116 30.29197 32.1715315 32.627735" />
<path class="stroke" d="M 41.14963375 25.036495 L 41.14963375 90.43795" />
<path class="stroke" d="M 67.20802524999999 10.145985 C 65.89415725 16.569342 63.4853995 22.116787 59.9817505 25.328465" />
<path class="stroke" d="M 41.14963375 24.76344 L 81.66058 24.76344" />
<path class="stroke" d="M 61.0766425 25.328465 L 61.0766425 90.43795" />
<path class="stroke" d="M 41.14963375 47.79185 L 78.81386499999999 47.79185" />
<path class="stroke" d="M 41.14963375 69.124084 L 79.0328425 69.124084" />
<path class="stroke" d="M 41.14963375 90.43795 L 86.040142 90.43795" />
</svg>
