<?xml version="1.0" standalone="no"?>
<!DOCTYPE svg PUBLIC "-//W3C//DTD SVG 1.1//EN" "http://www.w3.org/Graphics/SVG/1.1/DTD/svg11.dtd">
<svg xmlns="http://www.w3.org/2000/svg" version="1.1" width="100%" height="100%">
<style type="text/css"><![CDATA[
  .stroke { fill:none; stroke:black; stroke-width:2 }
]]></style>
<path class="stroke" d="M 16.75987568181818 25.811516 C 16.11732375 33.979057 14.832221931818182 36.806282 13.547120113636364 41.83246" />
<path class="stroke" d="M 39.28892727272728 23.267326 C 37.46624625 28.613861 35.036004886363635 33.069305 31.694420454545455 36.336636" />
<path class="stroke" d="M 25.011249545454543 9.306931 L 25.011249545454543 57.72277 C 25.011249545454543 74.653465 15.969988636363636 85.6467 9.82223181818182 90.39604" />
<path class="stroke" d="M 24.70747193181818 63.36634 C 29.871736363636366 68.71287 34.732223181818185 75.24753 36.85868590909091 82.9703" />
<path class="stroke" d="M 51.3014599 12.773722 L 87.7218985 12.773722" />
<path class="stroke" d="M 51.3014599 26.204376 L 88.0897807 26.204376 L 88.0897807 45.766422" />
<path class="stroke" d="M 51.3014599 45.766422 L 87.90583960000001 45.766422" />
<path class="stroke" d="M 51.3014599 26.204376 L 51.3014599 64.45255 C 51.3014599 78.46715 48.47722723 85.64356 43.2376237 90.69307" />
</svg>
