<?xml version="1.0" standalone="no"?>
<!DOCTYPE svg PUBLIC "-//W3C//DTD SVG 1.1//EN" "http://www.w3.org/Graphics/SVG/1.1/DTD/svg11.dtd">
<svg xmlns="http://www.w3.org/2000/svg" version="1.1" width="100%" height="100%">
<style type="text/css"><![CDATA[
  .stroke { fill:none; stroke:black; stroke-width:2 }
]]></style>
<path class="stroke" d="M 8.946819428571429 27.956203 L 28.46715257142857 27.956203" />
<path class="stroke" d="M 20.45880857142857 9.270073 L 20.45880857142857 90.14598" />
<path class="stroke" d="M 20.45880857142857 36.131386 C 17.20542 44.598537 13.20125057142857 52.48175 7.4452551428571425 56.861313" />
<path class="stroke" d="M 20.45880857142857 36.131386 C 24.212719714285715 37.299267 26.71532657142857 42.26277 27.96663 46.934303" />
<path class="stroke" d="M 39.178830250000004 9.854013 L 92.60948499999999 9.854013" />
<path class="stroke" d="M 38.9598535 9.854013 L 38.9598535 31.167881 C 38.9598535 74.67153 36.113137 81.386856 32.64851425 90.09901" />
<path class="stroke" d="M 51.606434875 34.6732668 L 85.08911125 34.6732668 C 77.470295125 61.910891899999996 64.6386133 75.217824 42.18316825 86.861386" />
<path class="stroke" d="M 50.804455225 40.910891899999996 C 53.790320425 53.8064501 64.241934025 64.4193552 67.7258041 69.161291 C 74.04031975 76.38709700000001 85.3629007 81.80644799999999 96.1163365 86.861386" />
</svg>
