<?xml version="1.0" standalone="no"?>
<!DOCTYPE svg PUBLIC "-//W3C//DTD SVG 1.1//EN" "http://www.w3.org/Graphics/SVG/1.1/DTD/svg11.dtd">
<svg xmlns="http://www.w3.org/2000/svg" version="1.1" width="100%" height="100%">
<style type="text/css"><![CDATA[
  .stroke { fill:none; stroke:black; stroke-width:2 }
]]></style>
<path class="stroke" d="M 10.57583111111111 16.16715216 L 33.93349333333333 16.16715216" />
<path class="stroke" d="M 22.51419111111111 16.16715216 L 22.51419111111111 78.96130912" />
<path class="stroke" d="M 10.83535911111111 46.15839081 L 33.673964444444444 46.15839081" />
<path class="stroke" d="M 9.27818311111111 83.6474426 L 35.7502 74.9" />
<path class="stroke" d="M 43.46277246 10.98744395 L 43.46277246 26.2477859" />
<path class="stroke" d="M 43.46277246 10.98744395 L 88.71824708 10.98744395 L 88.71824708 26.2477859" />
<path class="stroke" d="M 57.7855146 10.98744395 L 57.7855146 26.2477859" />
<path class="stroke" d="M 74.21453872000001 10.98744395 L 74.21453872000001 26.2477859" />
<path class="stroke" d="M 43.46277246 26.2549595 L 88.8356416 26.2549595" />
<path class="stroke" d="M 40.92846604 37.24 L 91.071529 37.24" />
<path class="stroke" d="M 52.251386478 47.813269735 L 52.251386478 63.88240789" />
<path class="stroke" d="M 52.251386478 47.813269735 L 79.8753272 47.813269735 L 79.8753272 63.72789736599999" />
<path class="stroke" d="M 52.251386478 62.6463199936 L 79.8753272 62.6463199936" />
<path class="stroke" d="M 66.194928 66.7679851972 C 59.63105 81.0313659442 51.507314 87.4966206016 39.8742168 92.5621007752" />
<path class="stroke" d="M 66.3899118 66.56800776724 L 66.3899118 92.36211927040002" />
<path class="stroke" d="M 89.201268 68.5674927532 C 86.471656 72.4333051036 83.352188 74.8994070034 78.867914 76.7656400644" />
<path class="stroke" d="M 69.899366 73.96631463087999 C 75.22851399999999 82.49771749240001 82.702304 88.22976290380001 92.125808 92.36211927040002" />
</svg>
