<?xml version="1.0" standalone="no"?>
<!DOCTYPE svg PUBLIC "-//W3C//DTD SVG 1.1//EN" "http://www.w3.org/Graphics/SVG/1.1/DTD/svg11.dtd">
<svg xmlns="http://www.w3.org/2000/svg" version="1.1" width="100%" height="100%">
<style type="text/css"><![CDATA[
  .stroke { fill:none; stroke:black; stroke-width:2 }
]]></style>
<path class="stroke" d="M 13.154171785714285 14.059406 C 16.654879285714284 16.138615 20.15558785714286 19.108912 23.01980357142857 22.673267" />
<path class="stroke" d="M 10.926448928571428 38.118813 C 14.108912142857141 39.90099 17.927864999999997 42.574257 20.473834285714286 46.138615" />
<path class="stroke" d="M 10.608203571428572 85.64356 C 11.321795357142857 87.422676 13.310014285714285 89.896904 15.629600357142856 89.896904 C 17.949189642857142 89.896904 21.110325 76.73267 23.33804892857143 69.60396" />
<path class="stroke" d="M 62.2271726 23.7666 C 65.5521096 27.0243 67.6581366 30.9179 69.5203046 35.7618" />
<path class="stroke" d="M 84.089875 18.7698 C 75.507301 46.3197 56.722843000000005 72.6078 36.481006 83.4385" />
<path class="stroke" d="M 43.3021896 40.1662 L 47.418609599999996 57.9666 C 51.534105600000004 72.7646 58.8090656 79.3781 73.5902166 79.6917 L 86.4854066 79.3772 C 87.9489456 79.3772 89.6485666 77.7979 89.40563159999999 75.2693 L 89.40563159999999 73.6772" />
<path class="stroke" d="M 34.794475 49.3503 C 34.226214999999996 58.5026 32.441894 64.1837 29.195574 69.8629" />
<path class="stroke" d="M 81.62547921999999 39.643837 C 88.2073961 43.260273 90.4857568 46.876713 93.017255 52.79452" />
</svg>
