<?xml version="1.0" standalone="no"?>
<!DOCTYPE svg PUBLIC "-//W3C//DTD SVG 1.1//EN" "http://www.w3.org/Graphics/SVG/1.1/DTD/svg11.dtd">
<svg xmlns="http://www.w3.org/2000/svg" version="1.1" width="100%" height="100%">
<style type="text/css"><![CDATA[
  .stroke { fill:none; stroke:black; stroke-width:2 }
]]></style>
<path class="stroke" d="M 13.59159574468085 13.560209 L 13.59159574468085 64.5111 C 13.47968085106383 77.7603 11.354255319148937 88.1704 6.208468085106383 94.795" />
<path class="stroke" d="M 31.042446808510636 8.534031 L 31.042446808510636 31.70344" />
<path class="stroke" d="M 13.591489361702127 32.018955 L 43.79489361702128 32.018955" />
<path class="stroke" d="M 13.927148936170212 55.04731 L 31.378 55.04731 L 31.378 91.64031" />
<path class="stroke" d="M 50.53211527 9.854013 L 93.9890478 9.854013" />
<path class="stroke" d="M 50.35401418 9.854013 L 50.35401418 31.167881 C 50.35401418 74.67153 48.038684759999995 81.386856 45.22079159 90.09901" />
<path class="stroke" d="M 60.639900365 34.6732668 L 87.87247715 34.6732668 C 81.67584003500001 61.910891899999996 71.239405484 75.217824 52.97564351 86.861386" />
<path class="stroke" d="M 59.987623583 40.910891899999996 C 62.416127278999994 53.8064501 70.916773007 64.4193552 73.750320668 69.161291 C 78.88612673 76.38709700000001 88.095159236 81.80644799999999 96.84128702 86.861386" />
</svg>
