<?xml version="1.0" standalone="no"?>
<!DOCTYPE svg PUBLIC "-//W3C//DTD SVG 1.1//EN" "http://www.w3.org/Graphics/SVG/1.1/DTD/svg11.dtd">
<svg xmlns="http://www.w3.org/2000/svg" version="1.1" width="100%" height="100%">
<style type="text/css"><![CDATA[
  .stroke { fill:none; stroke:black; stroke-width:2 }
]]></style>
<path class="stroke" d="M 13.154171785714285 14.059406 C 16.654879285714284 16.138615 20.15558785714286 19.108912 23.01980357142857 22.673267" />
<path class="stroke" d="M 10.926448928571428 38.118813 C 14.108912142857141 39.90099 17.927864999999997 42.574257 20.473834285714286 46.138615" />
<path class="stroke" d="M 10.608203571428572 85.64356 C 11.321795357142857 87.422676 13.310014285714285 89.896904 15.629600357142856 89.896904 C 17.949189642857142 89.896904 21.110325 76.73267 23.33804892857143 69.60396" />
<path class="stroke" d="M 64.3613125 4.6350365 L 64.3613125 44.6350325" />
<path class="stroke" d="M 64.3613125 18.357662 L 82.7554675 18.357662" />
<path class="stroke" d="M 47.937954250000004 19.233575 L 47.937954250000004 44.6350325" />
<path class="stroke" d="M 32.39050975 44.6350325 L 92.8284625 44.6350325" />
<path class="stroke" d="M 34.81860775 55.00311 L 43.33594 67.77915" />
<path class="stroke" d="M 33.75394375 94.18298999999999 L 48.6593275 81.12299999999999" />
<path class="stroke" d="M 89.75555500000002 54.71925 L 81.4510975 67.77915" />
<path class="stroke" d="M 76.97949249999999 80.55519000000001 L 91.8848425 94.46685" />
</svg>
