<?xml version="1.0" standalone="no"?>
<!DOCTYPE svg PUBLIC "-//W3C//DTD SVG 1.1//EN" "http://www.w3.org/Graphics/SVG/1.1/DTD/svg11.dtd">
<svg xmlns="http://www.w3.org/2000/svg" version="1.1" width="100%" height="100%">
<style type="text/css"><![CDATA[
  .stroke { fill:none; stroke:black; stroke-width:2 }
]]></style>
<path class="stroke" d="M 4.779867826086956 22.2397 L 29.028904347826085 22.2397" />
<path class="stroke" d="M 16.904430434782608 22.5552 L 16.904430434782608 68.9274" />
<path class="stroke" d="M 5.479360173913043 74.9211 L 29.028933913043474 63.2493" />
<path class="stroke" d="M 39.557663579999996 9.854013 L 84.7138644 9.854013" />
<path class="stroke" d="M 62.459851799999996 9.854013 C 61.5956206 14.817516 59.86715228 18.905107 57.422176 22.0621" />
<path class="stroke" d="M 41.466 22.3791 L 41.466 76.715324" />
<path class="stroke" d="M 41.466 22.3791 L 82.999018 22.3791 L 82.999018 76.423355" />
<path class="stroke" d="M 41.700654 40.77066 L 82.999018 40.77066" />
<path class="stroke" d="M 41.700654 59.79627 L 82.999018 59.79627" />
<path class="stroke" d="M 41.50218896 76.715324 L 83.2014524 76.715324" />
<path class="stroke" d="M 49.71240682 83.13868 C 45.82335606 86.9343 41.28613042 89.56204 35.88466988 89.85401" />
<path class="stroke" d="M 75.63941460000001 83.43065 C 80.1766432 84.59853 83.8496332 86.35036 88.1708003 90.72992" />
</svg>
