<?xml version="1.0" standalone="no"?>
<!DOCTYPE svg PUBLIC "-//W3C//DTD SVG 1.1//EN" "http://www.w3.org/Graphics/SVG/1.1/DTD/svg11.dtd">
<svg xmlns="http://www.w3.org/2000/svg" version="1.1" width="100%" height="100%">
<style type="text/css"><![CDATA[
  .stroke { fill:none; stroke:black; stroke-width:2 }
]]></style>
<path class="stroke" d="M 5.44165 5.59935 L 5.356164 47.5" />
<path class="stroke" d="M 5.44165 5.59935 L 45.03155 5.59935" />
<path class="stroke" d="M 23.1072635 5.5994 L 23.1072635 18.21765" />
<path class="stroke" d="M 5.44165 18.848555 L 38.2492 18.848555 L 38.2492 32.413255" />
<path class="stroke" d="M 5.44165 32.413255 L 38.2492 32.413255" />
<path class="stroke" d="M 23.264992 32.571 L 23.264992 45.347" />
<path class="stroke" d="M 5.44165 45.50475 L 45.347 45.50475" />
<path class="stroke" d="M 61.9306925 7.623762 L 86.732675 7.623762 C 81.0891075 27.0792085 71.584158 36.58416 54.950495000000004 44.90099" />
<path class="stroke" d="M 61.3366335 12.0792085 C 63.5483855 21.2903215 71.2903215 28.870968 73.870966 32.258065 C 78.548385 37.419355 86.93548200000001 41.29032 94.90099000000001 44.90099" />
<path class="stroke" d="M 47.226276 54.489051 C 41.38686 58.576642 34.08759 62.2262765 26.788319 65.437956 L 41.8179 72.1525" />
<path class="stroke" d="M 63.868607 62.9562035 C 55.1943 67.47065 39.1713 74.5348 23.86861 81.204376 L 72.62773 78.576641" />
<path class="stroke" d="M 68.540146 74.051095 C 72.33576 76.240875 74.9635 78.284672 75.83941 81.204376" />
<path class="stroke" d="M 49.85401 80.036495 L 49.835617 96.123287" />
<path class="stroke" d="M 21.824816 86.021895 C 20.364962 88.503645 18.029196 90.693428 14.233576 92.59124" />
<path class="stroke" d="M 75.83941 86.16788 C 79.63503 87.77372 81.9708 89.67152999999999 83.722626 92.59124" />
</svg>
