<?xml version="1.0" standalone="no"?>
<!DOCTYPE svg PUBLIC "-//W3C//DTD SVG 1.1//EN" "http://www.w3.org/Graphics/SVG/1.1/DTD/svg11.dtd">
<svg xmlns="http://www.w3.org/2000/svg" version="1.1" width="100%" height="100%">
<style type="text/css"><![CDATA[
  .stroke { fill:none; stroke:black; stroke-width:2 }
]]></style>
<path class="stroke" d="M 22.75504895348837 11.89781 C 22.042098139534883 30.875912 17.52673430232558 45.47445 13.249022093023257 55.693428 C 21.566796511627906 60.9489 28.696316046511626 70.0 34.16228069767442 81.386856" />
<path class="stroke" d="M 33.20285581395349 26.831684 C 31.51047558139535 53.564358 24.65625465116279 69.70802 13.011372906976744 79.34306" />
<path class="stroke" d="M 8.25835988372093 33.79562 L 34.653465000000004 29.80198" />
<path class="stroke" d="M 66.429012 6.466883 L 66.429012 15.615143" />
<path class="stroke" d="M 36.18296696 15.9306 L 96.460583 15.9306" />
<path class="stroke" d="M 53.34384 16.2461 L 58.921132 34.858" />
<path class="stroke" d="M 79.299712 15.9306 L 73.078868 35.1735" />
<path class="stroke" d="M 40.90222 35.1735 L 40.90222 94.4795" />
<path class="stroke" d="M 40.90222 35.1735 L 90.454296 35.1735 L 90.454296 88.4858 C 90.52576400000001 92.2713 89.09572399999999 94.1641 87.236604 93.8486 L 83.80444 93.8486" />
<path class="stroke" d="M 50.3899794048 57.660000000000004 L 81.61001863679999 57.660000000000004" />
<path class="stroke" d="M 66.0 47.01386856 L 66.0 69.9043776" />
<path class="stroke" d="M 57.21102457248 71.022992375 L 57.21102457248 86.50912325" />
<path class="stroke" d="M 57.21102457248 71.022992375 L 74.86997875200001 71.022992375 L 74.86997875200001 86.36021855" />
<path class="stroke" d="M 57.21102457248 85.31788208 L 74.86997875200001 85.31788208" />
</svg>
