<?xml version="1.0" standalone="no"?>
<!DOCTYPE svg PUBLIC "-//W3C//DTD SVG 1.1//EN" "http://www.w3.org/Graphics/SVG/1.1/DTD/svg11.dtd">
<svg xmlns="http://www.w3.org/2000/svg" version="1.1" width="100%" height="100%">
<style type="text/css"><![CDATA[
  .stroke { fill:none; stroke:black; stroke-width:2 }
]]></style>
<path class="stroke" d="M 10.036495 12.4116772 L 40.109485 12.4116772" />
<path class="stroke" d="M 25.07299 4.66861304 L 25.07299 47.179558400000005" />
<path class="stroke" d="M 25.07299 14.992699800000002 C 20.255475 26.68321032 14.4160575 32.908027360000006 6.8248165 36.096346" />
<path class="stroke" d="M 25.07299 14.992699800000002 C 33.00499 19.386536 38.99003 26.389027600000002 43.321167 35.7926998" />
<path class="stroke" d="M 60.036495 12.4116772 L 90.109485 12.4116772" />
<path class="stroke" d="M 75.07299 4.66861304 L 75.07299 47.179558400000005" />
<path class="stroke" d="M 75.07299 14.992699800000002 C 70.255475 26.68321032 64.4160575 32.908027360000006 56.8248165 36.096346" />
<path class="stroke" d="M 75.07299 14.992699800000002 C 79.59853749999999 26.8350342 85.72992500000001 33.05985124 93.321167 35.7926998" />
<path class="stroke" d="M 44.9527 47.6214528 C 44.6372 50.447952 42.1136 52.037904 38.6435 53.6278" />
<path class="stroke" d="M 18.45421 54.157728 L 18.45421 74.296504" />
<path class="stroke" d="M 18.45421 54.157728 L 80.59941 53.981048 L 80.59941 74.11982400000001" />
<path class="stroke" d="M 49.6845 54.157728 L 49.6845 74.296504" />
<path class="stroke" d="M 18.76963 63.87384 L 79.96843 63.87384" />
<path class="stroke" d="M 18.45421 74.296504 L 80.59941 74.11982400000001" />
<path class="stroke" d="M 41.1671 74.473184 C 40.9568 86.544656 28.1283 93.846496 6.78233 96.90852000000001" />
<path class="stroke" d="M 53.7855 74.473184 L 53.7855 94.258656 C 53.8252 95.85969600000001 55.1556 96.43912800000001 57.571 96.378592 L 88.8013 96.378592 C 91.325 96.486616 93.1901 96.025232 93.2177 94.435336 L 93.2177 90.372256" />
<path class="stroke" d="M 74.2902 78.71288799999999 C 71.6614 83.12932800000002 67.4553 87.015784 61.6719 90.902184 C 69.1377 89.488968 76.6036 88.252376 84.0694 87.899072" />
<path class="stroke" d="M 80.2839 84.01261600000001 C 83.6488 86.014728 85.121 88.193464 85.6467 90.372256" />
</svg>
