<?xml version="1.0" standalone="no"?>
<!DOCTYPE svg PUBLIC "-//W3C//DTD SVG 1.1//EN" "http://www.w3.org/Graphics/SVG/1.1/DTD/svg11.dtd">
<svg xmlns="http://www.w3.org/2000/svg" version="1.1" width="100%" height="100%">
<style type="text/css"><![CDATA[
  .stroke { fill:none; stroke:black; stroke-width:2 }
]]></style>
<path class="stroke" d="M 15.145985 12.4817505 C 14.8540135 19.48905 12.810219 27.66423 11.204378 30.875912" />
<path class="stroke" d="M 13.832115 24.160583 L 37.48175 24.160583" />
<path class="stroke" d="M 8.576642 48.425884 L 40.9854 48.425884" />
<path class="stroke" d="M 24.48905 25.036495 L 24.48905 37.299267 C 24.5135115 64.27026 10.7664225 86.35036 5.3649625 90.43795" />
<path class="stroke" d="M 24.5135115 49.35135 C 28.576641 69.41605 35.729925 83.13868 44.6350325 90.14598" />
<path class="stroke" d="M 91.088345 7.3911675 C 81.519445 10.125142499999999 70.531045 11.5972925 59.542595 11.8075925" />
<path class="stroke" d="M 53.391166 22.05995 L 96.76658499999999 22.05995" />
<path class="stroke" d="M 70.5836 11.334399999999999 C 70.3207 26.8444 66.1146 34.94115 53.706625 40.9874" />
<path class="stroke" d="M 80.9937 22.21765 C 83.51735 30.9453 87.93375 36.83385 96.13565 41.1451" />
<path class="stroke" d="M 65.5363 33.731865 L 65.5363 49.504765" />
<path class="stroke" d="M 65.5363 33.731865 L 84.93690000000001 33.731865 L 84.93690000000001 49.504765" />
<path class="stroke" d="M 65.5363 49.504765 L 84.93690000000001 49.504765" />
<path class="stroke" d="M 59.744524999999996 59.15985385 L 59.744524999999996 92.07955949999999" />
<path class="stroke" d="M 59.744524999999996 59.15985385 L 90.25547499999999 59.15985385 L 90.25547499999999 90.28393990000001 C 90.25547499999999 91.3613133 89.817515 91.9598518 88.503645 91.9598518 L 87.0437925 91.9598518" />
<path class="stroke" d="M 65.4963501 67.56335735 L 65.4963501 82.5029189" />
<path class="stroke" d="M 65.4963501 67.56335735 L 84.59124 67.56335735 L 84.59124 82.35926966" />
<path class="stroke" d="M 65.4963501 81.353721536 L 84.59124 81.353721536" />
</svg>
