<?xml version="1.0" standalone="no"?>
<!DOCTYPE svg PUBLIC "-//W3C//DTD SVG 1.1//EN" "http://www.w3.org/Graphics/SVG/1.1/DTD/svg11.dtd">
<svg xmlns="http://www.w3.org/2000/svg" version="1.1" width="100%" height="100%">
<style type="text/css"><![CDATA[
  .stroke { fill:none; stroke:black; stroke-width:2 }
]]></style>
<path class="stroke" d="M 24.46715288 10.8248165 L 24.46715288 47.613135" />
<path class="stroke" d="M 24.46715288 10.678830999999999 L 75.72554335999999 10.678830999999999 L 75.72554335999999 47.613135" />
<path class="stroke" d="M 50.0963468 10.8248165 L 50.0963468 44.9854" />
<path class="stroke" d="M 24.46715288 27.822279 L 75.3401456 27.822279" />
<path class="stroke" d="M 24.46715288 44.9854 L 75.72554335999999 44.9854" />
<path class="stroke" d="M 19.912407799999997 69.9182456 C 19.386860900000002 74.65985352000001 17.284669700000002 78.2569312 14.1313865 80.70948704" />
<path class="stroke" d="M 28.729832 64.49307200000001 L 33.541232 74.461296 C 38.351552 82.748176 46.854752 86.45173600000001 64.13142200000001 86.627352 L 76.93430000000001 86.627352 C 79.562039 86.5956168 80.965517 85.49118704 81.138677 84.30656640000001 L 81.138677 82.9985408" />
<path class="stroke" d="M 49.08029 55.3664216 C 53.021895799999996 56.837956000000005 55.912409600000004 59.29051072 58.2773675 62.07007128" />
<path class="stroke" d="M 77.45985499999999 58.8 C 81.40145000000001 60.9255472 83.766416 63.541604 85.868609 66.48467056" />
</svg>
