<?xml version="1.0" standalone="no"?>
<!DOCTYPE svg PUBLIC "-//W3C//DTD SVG 1.1//EN" "http://www.w3.org/Graphics/SVG/1.1/DTD/svg11.dtd">
<svg xmlns="http://www.w3.org/2000/svg" version="1.1" width="100%" height="100%">
<style type="text/css"><![CDATA[
  .stroke { fill:none; stroke:black; stroke-width:2 }
]]></style>
<path class="stroke" d="M 26.005770232558138 11.89781 C 25.19096930232558 30.875912 20.030553488372092 45.47445 15.141739534883722 55.693428 C 24.647767441860463 60.9489 32.79578976744186 70.0 39.04260651162791 81.386856" />
<path class="stroke" d="M 37.94612093023255 26.831684 C 36.01197209302326 53.564358 28.178576744186046 69.70802 14.870140465116279 79.34306" />
<path class="stroke" d="M 9.438125581395349 33.79562 L 39.60396 29.80198" />
<path class="stroke" d="M 73.43503484 6.0948895 C 67.09926786 7.9927005 58.41021648 10.474452 48.9970795 11.0583935" />
<path class="stroke" d="M 48.9970795 11.0583935 L 48.9970795 43.17518 C 48.9970795 44.19708 50.4452538 45.51095 51.89342872 45.36496 L 57.14306544 44.489048" />
<path class="stroke" d="M 49.35912354 24.051095 L 77.96058099999999 21.7153265" />
<path class="stroke" d="M 65.2890489 8.4306565 L 69.0905076 27.2627715 C 72.34890519999999 39.525547 82.8481712 43.75912 90.45108859999999 45.218975 C 93.16641952 45.656933 93.8905076 44.78102 93.8905076 42.88321 L 93.8905076 41.423355" />
<path class="stroke" d="M 53.34160364 56.9708025 L 53.34160364 93.75912" />
<path class="stroke" d="M 53.34160364 56.9708025 L 84.47737000000001 56.9708025 L 84.47737000000001 93.75912" />
<path class="stroke" d="M 53.5226269 74.3628215 L 84.2963486 74.3628215" />
<path class="stroke" d="M 53.34160364 92.15328199999999 L 84.47737000000001 92.15328199999999" />
</svg>
