<?xml version="1.0" standalone="no"?>
<!DOCTYPE svg PUBLIC "-//W3C//DTD SVG 1.1//EN" "http://www.w3.org/Graphics/SVG/1.1/DTD/svg11.dtd">
<svg xmlns="http://www.w3.org/2000/svg" version="1.1" width="100%" height="100%">
<style type="text/css"><![CDATA[
  .stroke { fill:none; stroke:black; stroke-width:2 }
]]></style>
<path class="stroke" d="M 11.313868 17.445253 C 15.401459 18.029196 19.48905 20.364962 22.408756 24.160583" />
<path class="stroke" d="M 9.270073 47.226276 C 13.357662 47.226276 18.321167 46.934303 23.86861 43.138683 C 16.27737 53.357662 14.233576 58.321167 15.109488 60.9489 C 15.69343 63.284668 20.948904 65.62044 22.116787 68.832115 C 23.576641 72.33576 18.129246 80.26506 11.021896 83.722626" />
<path class="stroke" d="M 11.021896 84.014595 C 39.692924 81.65476 40.51095 91.313866 90.43795 90.14598" />
<path class="stroke" d="M 31.8154543 15.503380995454549 L 93.63248469999999 15.503380995454549" />
<path class="stroke" d="M 37.41481747 25.259628863636365 L 37.41481747 49.40625168181818" />
<path class="stroke" d="M 37.41481747 25.25955154545455 L 88.48106976 25.25955154545455 L 88.48106976 49.40625168181818" />
<path class="stroke" d="M 53.988981499999994 7.942258163636365 L 53.988981499999994 48.91845127272728" />
<path class="stroke" d="M 71.45901004 7.698350227272729 L 71.45901004 49.162312818181825" />
<path class="stroke" d="M 37.86275647 36.96707063636364 L 88.2570676 36.96707063636364" />
<path class="stroke" d="M 37.41481747 49.40625168181818 L 88.2570676 49.40625168181818" />
<path class="stroke" d="M 44.56861062 58.073664016 L 44.56861062 77.144727808" />
<path class="stroke" d="M 44.56861062 58.073664016 L 80.224085 58.073664016 L 80.224085 77.144727808" />
<path class="stroke" d="M 44.775911449999995 67.0896866656 L 80.0167863 67.0896866656" />
<path class="stroke" d="M 44.56861062 76.3122613888 L 80.224085 76.3122613888" />
</svg>
