<?xml version="1.0" standalone="no"?>
<!DOCTYPE svg PUBLIC "-//W3C//DTD SVG 1.1//EN" "http://www.w3.org/Graphics/SVG/1.1/DTD/svg11.dtd">
<svg xmlns="http://www.w3.org/2000/svg" version="1.1" width="100%" height="100%">
<style type="text/css"><![CDATA[
  .stroke { fill:none; stroke:black; stroke-width:2 }
]]></style>
<path class="stroke" d="M 25.5 3.59859162 L 25.5 9.75" />
<path class="stroke" d="M 5.95 9.75 L 45.050000000000004 9.75" />
<path class="stroke" d="M 12.328466800000001 16.532299062499998 L 12.328466800000001 26.400911875000002" />
<path class="stroke" d="M 12.328466800000001 16.532299062499998 L 37.78832 16.532299062499998 L 37.78832 26.306021625000003" />
<path class="stroke" d="M 12.328466800000001 25.6417876 L 37.78832 25.6417876" />
<path class="stroke" d="M 5.610810300000001 34.419432079500005 L 40.345944 34.419432079500005 C 35.091888000000004 38.0348370545 32.027028 38.1381348855 26.4810795 39.067810587" />
<path class="stroke" d="M 26.3351337 39.584296557 C 26.189187 53.42613392999999 26.4810795 57.041538905 23.934304500000003 58.888574549999994 C 23.145985500000002 59.6325157025 22.357662 59.81850218500001 21.04379385 59.91149463000001" />
<path class="stroke" d="M 6.63243225 47.22829592 L 43.9945935 43.406295920000005" />
<path class="stroke" d="M 68.2445235 6.59489025 L 66.79926815 27.470800500000003 C 65.1934282 43.22262490000001 60.215585000000004 56.07790500000001 50.2591231 58.97444800000001" />
<path class="stroke" d="M 52.0255471 25.762771450000002 L 78.0401445 20.259122650000002 C 77.07664185 29.17882955 76.27372215 42.2737185 77.879561 54.2299225 C 78.521895 56.3175171 79.3248136 58.594887 83.33941100000001 58.594887 L 91.85036400000001 58.4051065 C 93.4562045 58.594887 94.4197055 56.88685600000001 94.4197055 54.9890445 L 94.4197055 51.762769500000005" />
<path class="stroke" d="M 59.5729925 31.6459845 C 62.945254250000005 32.2153273 66.4781017 33.92335505 69.850364 37.90875855" />
<path class="stroke" d="M 18.321167 78.554744 L 81.678825 78.554744" />
<path class="stroke" d="M 50.0 68.74452515 L 50.0 91.343063" />
<path class="stroke" d="M 9.854013 91.343063 L 89.85401 91.343063" />
</svg>
