<?xml version="1.0" standalone="no"?>
<!DOCTYPE svg PUBLIC "-//W3C//DTD SVG 1.1//EN" "http://www.w3.org/Graphics/SVG/1.1/DTD/svg11.dtd">
<svg xmlns="http://www.w3.org/2000/svg" version="1.1" width="100%" height="100%">
<style type="text/css"><![CDATA[
  .stroke { fill:none; stroke:black; stroke-width:2 }
]]></style>
<path class="stroke" d="M 10.437956 27.956203 L 33.211678 27.956203" />
<path class="stroke" d="M 23.86861 9.270073 L 23.86861 90.14598" />
<path class="stroke" d="M 23.86861 36.131386 C 20.07299 44.598537 15.401459 52.48175 8.686131 56.861313" />
<path class="stroke" d="M 23.86861 36.131386 C 28.248173 37.299267 31.167881 42.26277 32.627735 46.934303" />
<path class="stroke" d="M 67.7050464 6.78233 L 67.7050464 15.6151" />
<path class="stroke" d="M 39.20347005 15.93057 L 95.796554 15.93057" />
<path class="stroke" d="M 65.03949 22.23976 C 62.57885 29.49536 59.093095 34.85806 54.992115 39.58996 M 47.20037 32.96526 C 54.103629999999995 37.80236 59.161410000000004 46.74036 62.988935 57.25546" />
<path class="stroke" d="M 77.54731000000001 33.91161 C 70.23403 54.31131 57.384375000000006 66.82441 43.304465 71.13561" />
<path class="stroke" d="M 85.339055 50.3154 C 77.000465 73.5542 61.895375 89.5374 39.8186125 93.2177" />
<path class="stroke" d="M 73.65147 73.0284 C 80.89637 77.3396 86.090975 84.4901 91.490525 93.2177" />
</svg>
