<?xml version="1.0" standalone="no"?>
<!DOCTYPE svg PUBLIC "-//W3C//DTD SVG 1.1//EN" "http://www.w3.org/Graphics/SVG/1.1/DTD/svg11.dtd">
<svg xmlns="http://www.w3.org/2000/svg" version="1.1" width="100%" height="100%">
<style type="text/css"><![CDATA[
  .stroke { fill:none; stroke:black; stroke-width:2 }
]]></style>
<path class="stroke" d="M 50.14598 4.403284675 L 50.14598 10.505473825" />
<path class="stroke" d="M 12.4817505 10.6441591 L 12.4817505 17.301093625" />
<path class="stroke" d="M 12.4817505 10.6441591 L 87.81021 10.6441591 L 87.81021 17.301093625" />
<path class="stroke" d="M 17.483209940000002 23.908758499999998 L 82.51678059999999 23.908758499999998" />
<path class="stroke" d="M 36.817515799999995 16.97445105 L 36.817515799999995 31.397808949999998" />
<path class="stroke" d="M 63.182475600000004 16.97445105 L 63.182475600000004 31.397808949999998" />
<path class="stroke" d="M 23.0 39.28571516 L 23.0 72.31428484" />
<path class="stroke" d="M 22.6785731 38.8 L 76.678574 38.8 L 76.678574 72.31428484" />
<path class="stroke" d="M 23.321428700000002 50.21428756 L 76.357139 50.21428756" />
<path class="stroke" d="M 23.321428700000002 60.414287560000005 L 76.678574 60.414287560000005" />
<path class="stroke" d="M 22.6785731 70.12856968 L 76.357139 70.37143032" />
<path class="stroke" d="M 39.714287 70.8571448 C 37.6120976 82.76954800000001 26.481749 91.51240320000001 13.6058378 93.2992664" />
<path class="stroke" d="M 54.178574 71.1 L 54.0729887 88.1372232 C 54.0729887 91.7109428 57.2262782 93.497806 61.430657000000004 93.497806 L 83.24087 93.497806 C 85.868609 93.497806 87.4452515 92.70364420000001 87.4452515 91.115324 L 87.4452515 88.732842" />
</svg>
