<?xml version="1.0" standalone="no"?>
<!DOCTYPE svg PUBLIC "-//W3C//DTD SVG 1.1//EN" "http://www.w3.org/Graphics/SVG/1.1/DTD/svg11.dtd">
<svg xmlns="http://www.w3.org/2000/svg" version="1.1" width="100%" height="100%">
<style type="text/css"><![CDATA[
  .stroke { fill:none; stroke:black; stroke-width:2 }
]]></style>
<path class="stroke" d="M 50.0 5.782352346666671 L 50.0 15.666666666666666" />
<path class="stroke" d="M 7.5 15.666666666666666 L 92.5 15.666666666666666" />
<path class="stroke" d="M 47.226276 16.69014556 C 41.38686 22.659488425 27.4533 29.344402999999996 11.021896 34.1178828 C 35.547443 33.363138 56.861313 33.020073249999996 80.1967 33.0702575" />
<path class="stroke" d="M 68.832115 28.76605672 C 75.54744 30.069706999999998 81.386856 32.059488425000005 85.18248 34.73539935" />
<path class="stroke" d="M 6.15142 52.098580999999996 L 93.2177 52.098580999999996" />
<path class="stroke" d="M 21.92431 40.18690875 L 21.92431 65.4992215" />
<path class="stroke" d="M 49.684544 40.18690875 L 49.684544 65.313106" />
<path class="stroke" d="M 77.76021 40.18690875 L 77.76021 65.4992215" />
<path class="stroke" d="M 21.92431 65.4992215 L 77.76021 65.4992215" />
<path class="stroke" d="M 20.07299 74.54123995 L 80.21897 74.54123995" />
<path class="stroke" d="M 50.14598 70.14854009 L 50.14598 94.26532639999999" />
<path class="stroke" d="M 50.14598 76.00547392499999 C 40.51095 82.63759046999999 28.832115 86.16897706 13.649633 87.97773475" />
<path class="stroke" d="M 50.14598 76.00547392499999 C 59.197075 82.723721325 71.45985 86.255107915 86.642334 87.805473925" />
</svg>
