<?xml version="1.0" standalone="no"?>
<!DOCTYPE svg PUBLIC "-//W3C//DTD SVG 1.1//EN" "http://www.w3.org/Graphics/SVG/1.1/DTD/svg11.dtd">
<svg xmlns="http://www.w3.org/2000/svg" version="1.1" width="100%" height="100%">
<style type="text/css"><![CDATA[
  .stroke { fill:none; stroke:black; stroke-width:2 }
]]></style>
<path class="stroke" d="M 49.999996 5.0 C 52.376232 7.6732674 52.793365 10.037088 52.918915 12.702702" />
<path class="stroke" d="M 12.702702 13.675674 L 92.81081 13.351351" />
<path class="stroke" d="M 12.378378 13.999998 L 12.702702 39.62162 C 12.702702 61.30479 14.560343 79.686905 6.5405407 92.162155" />
<path class="stroke" d="M 37.4166416 16.579217805882354 C 40.780145216 18.75010713529412 43.470947648 21.73507891764706 45.489050047999996 24.584370988235293" />
<path class="stroke" d="M 73.06977728 16.579217805882354 C 71.697472256 19.265692735294117 68.86539776 22.413480729411766 66.00642176 24.7200507" />
<path class="stroke" d="M 26.3396216 24.818865085000002 L 85.6603712 24.818865085000002" />
<path class="stroke" d="M 29.96228 35.32733488 L 80.226416 35.32733488 L 80.226416 58.80377278" />
<path class="stroke" d="M 24.3018884 47.17733014 L 87.6981152 47.17733014" />
<path class="stroke" d="M 30.1886732 59.02737517 L 80.2264412 59.02737517" />
<path class="stroke" d="M 49.4339528 25.266034315 L 49.4339528 86.52835035999999" />
<path class="stroke" d="M 62.3395928 25.266034315 L 62.3395928 86.52835035999999" />
<path class="stroke" d="M 48.30190399999999 59.0273965 C 45.283015999999996 73.26225640000001 35.01884 82.8018856 24.3018848 86.3046982" />
<path class="stroke" d="M 63.471728 59.0273254 C 66.037664 72.81510850000001 75.849032 82.3547377 86.56601599999999 86.3046982" />
</svg>
