<?xml version="1.0" standalone="no"?>
<!DOCTYPE svg PUBLIC "-//W3C//DTD SVG 1.1//EN" "http://www.w3.org/Graphics/SVG/1.1/DTD/svg11.dtd">
<svg xmlns="http://www.w3.org/2000/svg" version="1.1" width="100%" height="100%">
<style type="text/css"><![CDATA[
  .stroke { fill:none; stroke:black; stroke-width:2 }
]]></style>
<path class="stroke" d="M 17.1925 6.7318679999999995 L 14.0379 34.353352 L 83.1 34.353352" />
<path class="stroke" d="M 17.1925 6.7318679999999995 L 87.2241 6.7318679999999995 L 83.09 34.353352" />
<path class="stroke" d="M 53.1546 6.7318679999999995 L 49.3691 34.353308" />
<path class="stroke" d="M 7.09779 21.028385840000002 L 94.164 21.028385840000002" />
<path class="stroke" d="M 27.080292 45.9124078 L 27.080292 85.15328199999999" />
<path class="stroke" d="M 27.372261 45.9124078 L 72.9197 45.9124078 L 72.9197 85.15328199999999" />
<path class="stroke" d="M 27.382198 59.306932 L 72.871284 59.306932" />
<path class="stroke" d="M 27.382198 72.49505020000001 L 72.871284 72.49505020000001" />
<path class="stroke" d="M 27.372261 84.9781 L 72.62773 84.9781" />
<path class="stroke" d="M 33.211678 89.18248 C 30.875912 92.16058 21.39527 94.178854 17.015707 94.879579" />
<path class="stroke" d="M 63.82199 89.225131 C 66.335075 90.73298199999999 75.75916 95.2565476 84.86911 95.0680636" />
</svg>
