<?xml version="1.0" standalone="no"?>
<!DOCTYPE svg PUBLIC "-//W3C//DTD SVG 1.1//EN" "http://www.w3.org/Graphics/SVG/1.1/DTD/svg11.dtd">
<svg xmlns="http://www.w3.org/2000/svg" version="1.1" width="100%" height="100%">
<style type="text/css"><![CDATA[
  .stroke { fill:none; stroke:black; stroke-width:2 }
]]></style>
<path class="stroke" d="M 8.003300000000001 33.069305 L 25.825083333333335 30.9901" />
<path class="stroke" d="M 19.389438333333334 9.60396 L 19.389438333333334 84.15842 C 19.389438333333334 87.42574 17.161715833333336 90.09901 14.191419166666668 90.09901" />
<path class="stroke" d="M 8.498349166666667 63.36634 L 24.09241 46.435642" />
<path class="stroke" d="M 62.734372 8.686131 L 62.734372 20.656933" />
<path class="stroke" d="M 35.675182 20.656933 L 35.675182 35.255474" />
<path class="stroke" d="M 35.675182 20.656933 L 89.5437925 20.656933 L 89.5437925 35.255474" />
<path class="stroke" d="M 53.850362499999996 30.583939 C 51.660582250000004 40.802917 45.96715225 50.437954 39.397809249999995 53.941605" />
<path class="stroke" d="M 70.30014249999999 28.832115 L 70.30014249999999 42.07301 C 70.4926975 47.226276 72.4279675 50.05671 75.9717175 49.95151 L 89.4485425 49.95161" />
<path class="stroke" d="M 41.5 65.0 L 83.5 65.0" />
<path class="stroke" d="M 62.026825 65.0 L 62.026825 90.72992" />
<path class="stroke" d="M 32.1715315 91.0 L 92.8284625 91.0" />
</svg>
