<?xml version="1.0" standalone="no"?>
<!DOCTYPE svg PUBLIC "-//W3C//DTD SVG 1.1//EN" "http://www.w3.org/Graphics/SVG/1.1/DTD/svg11.dtd">
<svg xmlns="http://www.w3.org/2000/svg" version="1.1" width="100%" height="100%">
<style type="text/css"><![CDATA[
  .stroke { fill:none; stroke:black; stroke-width:2 }
]]></style>
<path class="stroke" d="M 14.173250454545453 25.811516 C 13.7448825 33.979057 12.888147954545454 36.806282 12.03141340909091 41.83246" />
<path class="stroke" d="M 29.192618181818183 23.267326 C 27.9774975 28.613861 26.35733659090909 33.069305 24.129613636363636 36.336636" />
<path class="stroke" d="M 19.674166363636363 9.306931 L 19.674166363636363 57.72277 C 19.674166363636363 74.653465 13.64665909090909 85.6467 9.548154545454546 90.39604" />
<path class="stroke" d="M 19.471647954545453 63.36634 C 22.914490909090908 68.71287 26.154815454545457 75.24753 27.57245727272727 82.9703" />
<path class="stroke" d="M 43.56861062 4.87956175 L 43.56861062 30.631384" />
<path class="stroke" d="M 43.56861062 4.87956175 L 79.224085 4.87956175 L 79.224085 30.631384" />
<path class="stroke" d="M 43.775911449999995 17.05397505 L 79.0167863 17.05397505" />
<path class="stroke" d="M 43.56861062 29.507297399999995 L 79.224085 29.507297399999995" />
<path class="stroke" d="M 36.63882247 44.0883512 L 86.5851946 44.0883512" />
<path class="stroke" d="M 50.301262300000005 34.9551964 L 50.301262300000005 56.524923040000004" />
<path class="stroke" d="M 72.6987377 34.7608792 L 72.6987377 56.524898400000005" />
<path class="stroke" d="M 30.591482669999998 56.7192464 L 92.85647905 56.7192464" />
<path class="stroke" d="M 48.509485 57.496546 C 46.419032 61.625901999999996 41.640945 63.860595999999994 36.190843 65.0751016" />
<path class="stroke" d="M 72.698759 57.49649980000001 C 75.535706 61.577253400000004 79.49260699999999 63.6176302 85.01733 65.0750554" />
<path class="stroke" d="M 60.747462479999996 66.308363 L 60.747462479999996 92.3982205 C 60.81014412 94.7131275 59.74401948 95.90193749999999 57.54908856 95.77680899999999 L 56.04395388 95.77680899999999" />
<path class="stroke" d="M 44.191195703999995 70.8130961 C 47.514992543999995 72.6274296 49.709923464 75.0049901 51.90491402399999 78.1332026" />
<path class="stroke" d="M 37.606355232 93.33671399999999 C 43.06241328 89.5202055 47.95402643999999 86.82991299999999 54.538878839999995 84.139561" />
<path class="stroke" d="M 78.0562131 71.37619219999999 C 75.67305834 74.6296522 73.10185865999999 76.7568367 70.15433057999999 78.69635819999999" />
<path class="stroke" d="M 67.70860749599998 83.57647084999999 C 72.223892256 87.64323635 77.11550541599999 90.95923085 82.38338733599998 94.08756234999998" />
</svg>
