<?xml version="1.0" standalone="no"?>
<!DOCTYPE svg PUBLIC "-//W3C//DTD SVG 1.1//EN" "http://www.w3.org/Graphics/SVG/1.1/DTD/svg11.dtd">
<svg xmlns="http://www.w3.org/2000/svg" version="1.1" width="100%" height="100%">
<style type="text/css"><![CDATA[
  .stroke { fill:none; stroke:black; stroke-width:2 }
]]></style>
<path class="stroke" d="M 11.84150137142857 27.956203 L 33.31386782857143 27.956203" />
<path class="stroke" d="M 24.504689428571428 9.270073 L 24.504689428571428 90.14598" />
<path class="stroke" d="M 24.504689428571428 36.131386 C 20.925962000000002 44.598537 16.521375628571427 52.48175 10.189780657142856 56.861313" />
<path class="stroke" d="M 24.504689428571428 36.131386 C 28.633991685714285 37.299267 31.386859228571428 42.26277 32.763293000000004 46.934303" />
<path class="stroke" d="M 45.5841586 15.745545120000001 C 49.81980144 17.563366170000002 52.950496400000006 20.593069110000002 55.16039526 24.22871223" />
<path class="stroke" d="M 81.86336560000001 15.139603919999999 C 80.0217796 19.07821866 77.8118826 22.25940537 73.2079238 24.38019804" />
<path class="stroke" d="M 42.45346488 29.07623724 L 85.7306962 29.07623724" />
<path class="stroke" d="M 64.0 10.898019600000001 L 64.0 49.2237597" />
<path class="stroke" d="M 60.65109294 29.34087522 C 56.4495036 38.01386178 49.2673275 46.04257554 40.059406179999996 51.7990098" />
<path class="stroke" d="M 67.71094614 29.4897789 C 71.91881236 38.01386178 79.4693038 46.1940588 87.7564346 51.7990098" />
<path class="stroke" d="M 61.42178146 54.6 C 60.1326725 60.897029110000005 55.897030900000004 68.76831722 51.29306962 74.43564379 C 61.375181639999994 76.30291700000001 75.6759113 82.3379528 82.916789 89.92043702000001" />
<path class="stroke" d="M 75.6019794 60.2673271 C 70.99802184 78.21386380000001 61.42178146 84.98317220000001 47.25547338 89.4562026" />
<path class="stroke" d="M 39.109488060000004 62.84014479 L 88.7094862 62.84014479" />
</svg>
