<?xml version="1.0" standalone="no"?>
<!DOCTYPE svg PUBLIC "-//W3C//DTD SVG 1.1//EN" "http://www.w3.org/Graphics/SVG/1.1/DTD/svg11.dtd">
<svg xmlns="http://www.w3.org/2000/svg" version="1.1" width="100%" height="100%">
<style type="text/css"><![CDATA[
  .stroke { fill:none; stroke:black; stroke-width:2 }
]]></style>
<path class="stroke" d="M 21.656933040000002 10.729925 C 18.71386752 18.029196 14.7197064 23.86861 10.93576512 28.540146 C 13.87883136 31.45985 17.4525528 36.131386 20.81605584 40.218975" />
<path class="stroke" d="M 29.645254559999998 25.912407 C 24.599999999999998 34.67153 17.872991759999998 45.18248 9.46423344 56.277367 C 17.032116 54.525543 25.44087432 52.48175 33.008757599999996 50.437954" />
<path class="stroke" d="M 30.486129599999998 43.430653 C 32.58831864 46.642334 33.21897744 49.85401 34.48029072 55.40146" />
<path class="stroke" d="M 22.077372 54.233574 L 22.077372 89.56204" />
<path class="stroke" d="M 15.560582160000001 65.03649 C 14.299269599999999 70.87591 12.82773576 74.67153 9.884670239999998 78.75912" />
<path class="stroke" d="M 27.5430648 65.32846 C 29.85547224 68.540146 29.892971999999997 68.81081 31.060538399999995 71.72973" />
<path class="stroke" d="M 54.41637 7.09779 L 54.41637 13.7224" />
<path class="stroke" d="M 38.643574 14.35327 L 69.55837 14.35327" />
<path class="stroke" d="M 43.05987 14.6688 C 45.89897 21.5037 46.84547 28.9694 47.79177 35.489" />
<path class="stroke" d="M 65.457375 14.6688 C 63.35437 21.3985 62.19747 28.1283 61.67187 35.489" />
<path class="stroke" d="M 35.8044 36.11992 L 94.164 36.11992" />
<path class="stroke" d="M 76.8139 7.09779 L 76.8139 41.1672 C 77.2345 69.1377 81.1251 93.0074 92.5867 93.2176 L 92.5867 82.4922" />
<path class="stroke" d="M 90.3785 52.208157 C 84.7003 71.97686 77.4448 85.12096 64.511 93.21766" />
<path class="stroke" d="M 84.3849 12.77603 C 87.9602 16.24609 89.958 19.40059 91.9558 23.81709" />
<path class="stroke" d="M 43.39269924 48.27372225 L 43.39269924 81.383208" />
<path class="stroke" d="M 43.39269924 48.27372225 L 64.48467 48.27372225 L 64.48467 81.383208" />
<path class="stroke" d="M 43.5153279 63.92653935 L 64.3620426 63.92653935" />
<path class="stroke" d="M 43.39269924 79.9379538 L 64.48467 79.9379538" />
</svg>
