<?xml version="1.0" standalone="no"?>
<!DOCTYPE svg PUBLIC "-//W3C//DTD SVG 1.1//EN" "http://www.w3.org/Graphics/SVG/1.1/DTD/svg11.dtd">
<svg xmlns="http://www.w3.org/2000/svg" version="1.1" width="100%" height="100%">
<style type="text/css"><![CDATA[
  .stroke { fill:none; stroke:black; stroke-width:2 }
]]></style>
<path class="stroke" d="M 22.839923720930233 13.941605 C 26.506533139534888 17.153284 28.339840465116282 21.240875 29.256491511627907 25.912407" />
<path class="stroke" d="M 13.062297034883722 29.416058 L 39.95076976744186 27.66423 C 34.45085302325582 39.927006 21.61772058139535 50.729923 10.617891279069768 57.44525" />
<path class="stroke" d="M 28.339840465116282 45.18248 L 28.339840465116282 89.56204" />
<path class="stroke" d="M 31.700898837209305 44.014595 C 35.97860930232558 46.642334 38.11746453488372 50.14598 39.95076976744186 54.233574" />
<path class="stroke" d="M 50.589780160000004 7.5 L 89.410216 7.5" />
<path class="stroke" d="M 56.314744144 21.20802875 L 56.314744144 42.463502500000004" />
<path class="stroke" d="M 56.314744144 21.20802875 L 83.8113856 21.20802875 L 83.8113856 42.2591235" />
<path class="stroke" d="M 56.314744144 40.8284656 L 83.8113856 40.8284656" />
<path class="stroke" d="M 46.7883208 55.96131283 L 46.7883208 93.4853977" />
<path class="stroke" d="M 46.7883208 55.81240762 L 93.38685759999998 55.81240762 L 93.38685759999998 93.4853977" />
<path class="stroke" d="M 70.087588 55.96131283 L 70.087588 90.80510799999999" />
<path class="stroke" d="M 46.7883208 73.29872458 L 93.036496 73.29872458" />
<path class="stroke" d="M 46.7883208 90.80510799999999 L 93.38685759999998 90.80510799999999" />
</svg>
