<?xml version="1.0" standalone="no"?>
<!DOCTYPE svg PUBLIC "-//W3C//DTD SVG 1.1//EN" "http://www.w3.org/Graphics/SVG/1.1/DTD/svg11.dtd">
<svg xmlns="http://www.w3.org/2000/svg" version="1.1" width="100%" height="100%">
<style type="text/css"><![CDATA[
  .stroke { fill:none; stroke:black; stroke-width:2 }
]]></style>
<path class="stroke" d="M 23.89591 10.729925 L 23.89591 23.86861" />
<path class="stroke" d="M 7.2627735 23.86861 L 42.88321 23.86861" />
<path class="stroke" d="M 23.17518 39.343063 L 38.941605 39.343063 C 38.2116775 53.06569 37.627735 62.116783 36.45985 70.29197 C 35.0 79.63503 32.37226 88.10219 30.036495 88.10219 L 27.116787 88.10219" />
<path class="stroke" d="M 23.9051075 23.86861 L 22.883211 41.38686 C 21.861313 60.07299 18.065693 78.46715 12.372261 84.014595" />
<path class="stroke" d="M 60.2970295 6.647807857142857 C 59.1089105 12.164073571428572 57.3267325 17.892502142857143 54.950495000000004 21.711455714285716" />
<path class="stroke" d="M 58.366337 14.710042142857144 L 95.19802 14.710042142857144" />
<path class="stroke" d="M 65.145985 23.859122935000002 C 64.85401350000001 29.9554735 62.810219000000004 37.067880099999996 61.204378 39.86204344" />
<path class="stroke" d="M 63.832115 34.01970721 L 87.48175 34.01970721" />
<path class="stroke" d="M 58.576642 55.130519080000006 L 90.9854 55.130519080000006" />
<path class="stroke" d="M 74.48904999999999 34.78175065 L 74.48904999999999 45.45036229 C 74.51351149999999 68.9151262 60.7664225 88.12481319999999 55.3649625 91.6810165" />
<path class="stroke" d="M 74.51351149999999 55.9356745 C 78.576641 73.3919635 85.72992500000001 85.3306516 94.6350325 91.4270026" />
</svg>
