<?xml version="1.0" standalone="no"?>
<!DOCTYPE svg PUBLIC "-//W3C//DTD SVG 1.1//EN" "http://www.w3.org/Graphics/SVG/1.1/DTD/svg11.dtd">
<svg xmlns="http://www.w3.org/2000/svg" version="1.1" width="100%" height="100%">
<style type="text/css"><![CDATA[
  .stroke { fill:none; stroke:black; stroke-width:2 }
]]></style>
<path class="stroke" d="M 32.7050464 6.78233 L 32.7050464 15.6151" />
<path class="stroke" d="M 4.20347005 15.93057 L 60.796554 15.93057" />
<path class="stroke" d="M 30.03949 22.23976 C 27.578850000000003 29.49536 24.093094999999998 34.85806 19.992115000000002 39.58996 M 12.200370000000001 32.96526 C 19.10363 37.80236 24.16141 46.74036 27.988935 57.25546" />
<path class="stroke" d="M 42.54731 33.91161 C 35.234030000000004 54.31131 22.384375000000002 66.82441 8.304465 71.13561" />
<path class="stroke" d="M 50.339055 50.3154 C 42.000465000000005 73.5542 26.895374999999998 89.5374 4.8186124999999995 93.2177" />
<path class="stroke" d="M 38.65147 73.0284 C 45.896370000000005 77.3396 51.090975 84.4901 56.490525000000005 93.2177" />
<path class="stroke" d="M 72.41321 12.1451 L 72.41321 68.612" />
<path class="stroke" d="M 89.41635000000001 6.78233 L 89.41635000000001 84.0694 C 89.53207 89.6425 85.83068 92.3765 81.43530000000001 92.2713 L 77.61830000000002 92.2713" />
</svg>
