<?xml version="1.0" standalone="no"?>
<!DOCTYPE svg PUBLIC "-//W3C//DTD SVG 1.1//EN" "http://www.w3.org/Graphics/SVG/1.1/DTD/svg11.dtd">
<svg xmlns="http://www.w3.org/2000/svg" version="1.1" width="100%" height="100%">
<style type="text/css"><![CDATA[
  .stroke { fill:none; stroke:black; stroke-width:2 }
]]></style>
<path class="stroke" d="M 10.003300000000001 33.069305 L 27.825083333333335 30.9901" />
<path class="stroke" d="M 21.389438333333334 9.60396 L 21.389438333333334 84.15842 C 21.389438333333334 87.42574 19.161715833333336 90.09901 16.19141916666667 90.09901" />
<path class="stroke" d="M 10.498349166666667 63.36634 L 26.09241 46.435642" />
<path class="stroke" d="M 43.06350106 8.1824815 L 43.06350106 30.255472" />
<path class="stroke" d="M 43.06350106 8.1824815 L 79.723355 8.1824815 L 79.723355 30.255472" />
<path class="stroke" d="M 43.27664135 18.617692899999998 L 79.5102169 18.617692899999998" />
<path class="stroke" d="M 43.06350106 29.291969199999997 L 79.723355 29.291969199999997" />
<path class="stroke" d="M 29.490534410000002 41.2539457 L 93.97000142 41.2539457" />
<path class="stroke" d="M 37.089895 41.638822149999996 L 37.089895 88.20664854" />
<path class="stroke" d="M 37.32021 56.070925 L 52.288641 56.070925" />
<path class="stroke" d="M 37.32021 70.6955652 L 52.288641 70.6955652" />
<path class="stroke" d="M 29.9511009 89.938491 L 61.039443 84.165634" />
<path class="stroke" d="M 52.749198 41.44639277 L 52.749198 93.2097746" />
<path class="stroke" d="M 67.43034607749999 52.055841193999996 L 87.34633802500001 52.055841193999996 C 82.8145533225 72.23113921449999 75.182078874 82.08777391999999 61.825247485 90.71232663" />
<path class="stroke" d="M 66.9533167005 56.6761392145 C 68.7293535565 66.2280633955 74.94612816450001 74.089193816 77.018385698 77.601613405 C 80.774353155 82.953871135 87.50919204600001 86.96806183999999 93.90549496999999 90.71232663" />
</svg>
