<?xml version="1.0" standalone="no"?>
<!DOCTYPE svg PUBLIC "-//W3C//DTD SVG 1.1//EN" "http://www.w3.org/Graphics/SVG/1.1/DTD/svg11.dtd">
<svg xmlns="http://www.w3.org/2000/svg" version="1.1" width="100%" height="100%">
<style type="text/css"><![CDATA[
  .stroke { fill:none; stroke:black; stroke-width:2 }
]]></style>
<path class="stroke" d="M 8.003300000000001 33.069305 L 25.825083333333335 30.9901" />
<path class="stroke" d="M 19.389438333333334 9.60396 L 19.389438333333334 84.15842 C 19.389438333333334 87.42574 17.161715833333336 90.09901 14.191419166666668 90.09901" />
<path class="stroke" d="M 8.498349166666667 63.36634 L 24.09241 46.435642" />
<path class="stroke" d="M 43.335925 6.78234 C 40.81225 21.2934 37.342299999999994 29.8107 30.3233425 39.2744" />
<path class="stroke" d="M 41.916399999999996 18.13879 L 85.212925 18.13879 L 85.212925 58.51739 C 85.13409999999999 63.98539 84.10877500000001 71.03059 79.298125 71.13579 L 76.222375 71.13579" />
<path class="stroke" d="M 44.045725000000004 33.2807 L 71.25392500000001 33.2807 L 71.25392500000001 59.7791" />
<path class="stroke" d="M 40.7335 59.7791 L 71.25392500000001 59.7791" />
<path class="stroke" d="M 40.7335 59.7791 L 40.7335 85.9622 C 40.41805 90.3786 42.468475 92.5868 45.465325 92.5868 L 87.34232499999999 92.5868 C 90.65462500000001 92.692 92.31077499999999 89.6425 92.31077499999999 85.3313 L 92.31077499999999 79.0221" />
</svg>
