<?xml version="1.0" standalone="no"?>
<!DOCTYPE svg PUBLIC "-//W3C//DTD SVG 1.1//EN" "http://www.w3.org/Graphics/SVG/1.1/DTD/svg11.dtd">
<svg xmlns="http://www.w3.org/2000/svg" version="1.1" width="100%" height="100%">
<style type="text/css"><![CDATA[
  .stroke { fill:none; stroke:black; stroke-width:2 }
]]></style>
<path class="stroke" d="M 56.237625 9.306931 C 57.72277 12.574257 58.91089 15.544554 58.91089 19.108912" />
<path class="stroke" d="M 27.956203 19.197079 L 86.9343 19.197079" />
<path class="stroke" d="M 27.956203 19.197079 L 27.956203 36.131386 C 27.956203 56.861313 21.532845 72.62773 6.159601 93.8404" />
<path class="stroke" d="M 77.04261199999999 27.140375 C 64.70824099999999 30.373805 51.72078499999999 32.18765 38.733398 32.81855" />
<path class="stroke" d="M 38.298077 32.818625 L 38.298077 80.3738 M 31.11513836 82.50312500000001 L 54.18768335 77.061425" />
<path class="stroke" d="M 38.298077 54.585162499999996 L 88.361234 54.585162499999996" />
<path class="stroke" d="M 61.806031999999995 30.452675 L 61.806031999999995 58.13405 C 62.38646 83.607275 78.856484 93.7019 90.320213 93.623 L 90.320213 82.73975" />
<path class="stroke" d="M 33.078794939 91.25 L 63.771202025 91.25" />
</svg>
