<?xml version="1.0" standalone="no"?>
<!DOCTYPE svg PUBLIC "-//W3C//DTD SVG 1.1//EN" "http://www.w3.org/Graphics/SVG/1.1/DTD/svg11.dtd">
<svg xmlns="http://www.w3.org/2000/svg" version="1.1" width="100%" height="100%">
<style type="text/css"><![CDATA[
  .stroke { fill:none; stroke:black; stroke-width:2 }
]]></style>
<path class="stroke" d="M 28.90905135135135 15.109488 C 23.27480567567568 22.70073 17.37226048648649 27.956203 12.274608324324324 30.875912" />
<path class="stroke" d="M 30.518839243243246 35.547443 C 24.88459264864865 43.138683 16.835666972972973 49.85401 9.591635243243244 53.06569" />
<path class="stroke" d="M 22.46991356756757 45.47445 L 22.46991356756757 89.85401" />
<path class="stroke" d="M 46.798019530000005 9.306931 C 45.20594007 17.029703 42.817821550000005 25.049503 39.6336633 30.396038" />
<path class="stroke" d="M 44.21089158 20.594059 L 93.5653468 20.594059" />
<path class="stroke" d="M 49.57882974 30.576642 L 49.57882974 60.007296000000004" />
<path class="stroke" d="M 49.57882974 30.576642 L 83.22554500000001 30.576642 L 83.22554500000001 60.007296000000004" />
<path class="stroke" d="M 49.77445165 44.4902572 L 83.02992510000001 44.4902572" />
<path class="stroke" d="M 49.57882974 58.7226256 L 83.22554500000001 58.7226256" />
<path class="stroke" d="M 61.90291761 69.0072986 C 57.40364785 72.948905 49.77445165 77.0656925 41.94963354 79.69343" />
<path class="stroke" d="M 59.55547211 71.2846712 L 76.9656948 71.2846712 C 69.9233583 78.46715209999999 54.86058245 86.788319 39.79780995 91.343063" />
<path class="stroke" d="M 52.12189782 75.5766422 C 59.8 81.93548419999999 75.59634679 87.9270065 92.2240872 91.343063" />
</svg>
