<?xml version="1.0" standalone="no"?>
<!DOCTYPE svg PUBLIC "-//W3C//DTD SVG 1.1//EN" "http://www.w3.org/Graphics/SVG/1.1/DTD/svg11.dtd">
<svg xmlns="http://www.w3.org/2000/svg" version="1.1" width="100%" height="100%">
<style type="text/css"><![CDATA[
  .stroke { fill:none; stroke:black; stroke-width:2 }
]]></style>
<path class="stroke" d="M 20.770715441176474 11.605839 C 17.979818382352942 27.372261 12.183339705882354 41.970802 7.245597794117647 50.14598" />
<path class="stroke" d="M 16.477026470588235 30.583939 L 16.477026470588235 90.43795" />
<path class="stroke" d="M 61.00451074 9.789049819999999 L 61.00451074 16.87555627" />
<path class="stroke" d="M 38.34014512 17.098805829999996 L 83.65985332 17.098805829999996" />
<path class="stroke" d="M 44.79923776 17.318641 L 51.093428259999996 32.79926942" />
<path class="stroke" d="M 76.7192308 17.32212639 L 70.67882656 32.79926942" />
<path class="stroke" d="M 29.9138683 32.79926942 L 92.0861278 32.79926942" />
<path class="stroke" d="M 46.538683 41.713135529999995 L 46.538683 67.4182432" />
<path class="stroke" d="M 46.31094718 41.713135529999995 L 75.6890497 41.713135529999995 L 75.6890497 67.00364579999999" />
<path class="stroke" d="M 46.538683 53.817752999999996 L 75.6890497 53.817752999999996" />
<path class="stroke" d="M 46.99415854 64.9306517 L 75.6890497 64.9306517" />
<path class="stroke" d="M 35.607334 77.59935999999999 C 34.951276 82.58356 33.310936 85.86436 30.440146 89.52364" />
<path class="stroke" d="M 47.9101492 74.57097999999999 L 47.9101492 90.65932 C 47.9101492 92.36277999999999 49.3865332 93.4984 51.6010312 93.4984 L 78.17516320000001 93.4984 C 80.2256272 93.4984 82.0300792 92.17348 82.1120572 90.09147999999999 L 82.1120572 86.8738" />
<path class="stroke" d="M 57.260368 74.57099199999999 C 61.52533 77.473192 64.313986 80.56469200000001 66.856552 84.60251199999999" />
<path class="stroke" d="M 82.112026 74.76028 C 87.279214 78.29332 90.477994 81.8266 93.67669599999999 86.68456" />
</svg>
