<?xml version="1.0" standalone="no"?>
<!DOCTYPE svg PUBLIC "-//W3C//DTD SVG 1.1//EN" "http://www.w3.org/Graphics/SVG/1.1/DTD/svg11.dtd">
<svg xmlns="http://www.w3.org/2000/svg" version="1.1" width="100%" height="100%">
<style type="text/css"><![CDATA[
  .stroke { fill:none; stroke:black; stroke-width:2 }
]]></style>
<path class="stroke" d="M 6.133888888888889 18.7697 L 43.287777777777784 18.7697" />
<path class="stroke" d="M 10.6905 34.22717 L 38.38055555555555 34.22717" />
<path class="stroke" d="M 6.484396666666666 49.3692 L 43.638284444444444 49.3692" />
<path class="stroke" d="M 24.71077777777778 5.5205 L 24.71077777777778 95.4259" />
<path class="stroke" d="M 24.71085888888889 50.0 C 21.20574777777778 64.6162 14.896524444444445 79.2324 7.886435555555556 90.0631" />
<path class="stroke" d="M 24.36034888888889 54.73179 C 31.136794444444448 60.72559 36.16079555555556 67.66559 40.48379222222222 75.23659" />
<path class="stroke" d="M 80.9405935 9.60396 C 72.153285 13.941605 64.85401350000001 16.27737 57.554744 17.445253" />
<path class="stroke" d="M 56.678831 41.970802 L 82.08028999999999 34.37956" />
<path class="stroke" d="M 54.81072 67.0347 L 90.83941250000001 57.153282" />
<path class="stroke" d="M 69.08759 14.817516 L 69.08759 82.84671 C 69.08759 87.51824 71.131385 90.43795 72.883211 90.43795 L 91.131385 90.43795 C 93.46715 90.43795 94.92700500000001 85.76642 95.04950500000001 82.67327 L 94.92700500000001 78.75912" />
</svg>
