<?xml version="1.0" standalone="no"?>
<!DOCTYPE svg PUBLIC "-//W3C//DTD SVG 1.1//EN" "http://www.w3.org/Graphics/SVG/1.1/DTD/svg11.dtd">
<svg xmlns="http://www.w3.org/2000/svg" version="1.1" width="100%" height="100%">
<style type="text/css"><![CDATA[
  .stroke { fill:none; stroke:black; stroke-width:2 }
]]></style>
<path class="stroke" d="M 13.154171785714285 14.059406 C 16.654879285714284 16.138615 20.15558785714286 19.108912 23.01980357142857 22.673267" />
<path class="stroke" d="M 10.926448928571428 38.118813 C 14.108912142857141 39.90099 17.927864999999997 42.574257 20.473834285714286 46.138615" />
<path class="stroke" d="M 10.608203571428572 85.64356 C 11.321795357142857 87.422676 13.310014285714285 89.896904 15.629600357142856 89.896904 C 17.949189642857142 89.896904 21.110325 76.73267 23.33804892857143 69.60396" />
<path class="stroke" d="M 63.20981125 6.466873 L 63.20981125 16.246073" />
<path class="stroke" d="M 31.033125249999998 16.56153 L 94.676695 16.56153" />
<path class="stroke" d="M 80.00785 16.8769 C 72.59462500000001 38.6436 50.275975 43.3754 30.086755 47.7919" />
<path class="stroke" d="M 46.411675 16.877 C 54.6925 38.8538 71.01745 42.5342 94.4401 47.7918" />
<path class="stroke" d="M 46.88485 44.3218 L 46.88485 68.2965 C 46.88485 82.387 38.130849999999995 91.7455 29.8501525 94.164" />
<path class="stroke" d="M 47.358025 56.3091 L 78.3517 56.3091" />
<path class="stroke" d="M 47.121475000000004 72.3975 L 78.11507499999999 72.3975" />
<path class="stroke" d="M 78.58834 44.006355 L 78.58834 94.164055" />
</svg>
