<?xml version="1.0" standalone="no"?>
<!DOCTYPE svg PUBLIC "-//W3C//DTD SVG 1.1//EN" "http://www.w3.org/Graphics/SVG/1.1/DTD/svg11.dtd">
<svg xmlns="http://www.w3.org/2000/svg" version="1.1" width="100%" height="100%">
<style type="text/css"><![CDATA[
  .stroke { fill:none; stroke:black; stroke-width:2 }
]]></style>
<path class="stroke" d="M 50.14598 6.95255475 L 50.14598 16.587590249999998" />
<path class="stroke" d="M 12.4817505 16.806567 L 12.4817505 27.31751625" />
<path class="stroke" d="M 12.4817505 16.806567 L 87.81021 16.806567 L 87.81021 27.31751625" />
<path class="stroke" d="M 15.401459 35.806131016 L 84.8905 35.806131016" />
<path class="stroke" d="M 50.14598 27.706861316 L 50.14598 36.7439407 C 50.14598 43.30861316 34.812946 50.056202888 10.729925 51.5783948" />
<path class="stroke" d="M 50.14598 36.658685752 C 50.14598 43.3938684 65.80349 50.04072864 89.56204 51.5783948" />
<path class="stroke" d="M 10.145985 60.562189586 L 89.85401 60.562189586" />
<path class="stroke" d="M 71.16788 60.690072008 L 71.16788 90.74262470000001 C 71.16788 91.89357482 69.124084 92.91664208 65.62044 92.91664208 L 62.70073 92.91664208" />
<path class="stroke" d="M 26.3284668 67.81956181999999 L 26.3284668 78.45944467999999" />
<path class="stroke" d="M 26.3284668 67.81956181999999 L 51.78832 67.81956181999999 L 51.78832 78.357138392" />
<path class="stroke" d="M 26.3284668 77.6409919232 L 51.78832 77.6409919232" />
</svg>
