<?xml version="1.0" standalone="no"?>
<!DOCTYPE svg PUBLIC "-//W3C//DTD SVG 1.1//EN" "http://www.w3.org/Graphics/SVG/1.1/DTD/svg11.dtd">
<svg xmlns="http://www.w3.org/2000/svg" version="1.1" width="100%" height="100%">
<style type="text/css"><![CDATA[
  .stroke { fill:none; stroke:black; stroke-width:2 }
]]></style>
<path class="stroke" d="M 13.649633 8.2116775 L 13.649633 23.783455" />
<path class="stroke" d="M 13.649633 8.2116775 L 86.642334 8.2116775 L 86.642334 23.783455" />
<path class="stroke" d="M 36.75083 8.2116775 L 36.75083 23.783455" />
<path class="stroke" d="M 63.249256 8.2116775 L 63.249256 23.783455" />
<path class="stroke" d="M 13.649633 23.790775 L 86.83168 23.790775" />
<path class="stroke" d="M 27.64598375 34.6934294 C 32.0255475 35.7153272 36.405105 38.3722612 39.3248125 41.642335" />
<path class="stroke" d="M 12.31751625 44.00949 L 53.193425000000005 44.00949" />
<path class="stroke" d="M 20.346712500000002 53.9051086 L 45.1642325 53.9051086" />
<path class="stroke" d="M 20.346712500000002 63.91970619999999 L 45.1642325 63.91970619999999" />
<path class="stroke" d="M 18.886860000000002 73.116785 L 18.886860000000002 88.03649399999999" />
<path class="stroke" d="M 18.886860000000002 72.912406 L 47.354012499999996 72.912406 L 47.354012499999996 88.03649399999999" />
<path class="stroke" d="M 18.886860000000002 88.03649399999999 L 46.98905 88.03649399999999" />
<path class="stroke" d="M 72.41321 36.50157 L 72.41321 76.02839999999999" />
<path class="stroke" d="M 89.41635000000001 32.747631 L 89.41635000000001 86.84858 C 89.53207 90.74974999999999 85.83068 92.66354999999999 81.43530000000001 92.58990999999999 L 77.61830000000002 92.58990999999999" />
</svg>
