<?xml version="1.0" standalone="no"?>
<!DOCTYPE svg PUBLIC "-//W3C//DTD SVG 1.1//EN" "http://www.w3.org/Graphics/SVG/1.1/DTD/svg11.dtd">
<svg xmlns="http://www.w3.org/2000/svg" version="1.1" width="100%" height="100%">
<style type="text/css"><![CDATA[
  .stroke { fill:none; stroke:black; stroke-width:2 }
]]></style>
<path class="stroke" d="M 18.3503648 5.92846604 L 18.3503648 57.5197064" />
<path class="stroke" d="M 18.3503648 5.74744526 L 82.116784 5.74744526 L 82.116784 57.338685000000005" />
<path class="stroke" d="M 18.58394 53.718247080000005 L 82.116784 53.718247080000005" />
<path class="stroke" d="M 30.62481704 24.4433863416 L 69.53868 24.4433863416" />
<path class="stroke" d="M 50.0817488 13.093313871600001 L 50.0817488 25.757604569999998 C 50.0817488 34.957138716 41.49524975999999 44.4130076088 28.008758 46.54616148" />
<path class="stroke" d="M 50.0817488 25.638130855200004 C 50.0817488 35.076612839999996 58.8499544 44.391322464000005 72.15474239999999 46.54616148" />
<path class="stroke" d="M 17.4453 71.545728 C 16.6042 78.85588800000001 14.5012 83.667728 10.8207 89.034672" />
<path class="stroke" d="M 33.21814 67.104104 L 33.21814 90.700336 C 33.21814 93.19874399999999 35.11094 94.86432 37.95004 94.86432 L 72.01944 94.86432 C 74.64824 94.86432 76.96164 92.921104 77.06674 89.867504 L 77.06674 85.14824" />
<path class="stroke" d="M 45.2056 67.1041216 C 50.6735 71.36068159999999 54.2487 75.8948816 57.5084 81.8170176" />
<path class="stroke" d="M 77.0667 67.381744 C 83.6913 72.563536 87.7923 77.74568 91.8932 84.870688" />
</svg>
