<?xml version="1.0" standalone="no"?>
<!DOCTYPE svg PUBLIC "-//W3C//DTD SVG 1.1//EN" "http://www.w3.org/Graphics/SVG/1.1/DTD/svg11.dtd">
<svg xmlns="http://www.w3.org/2000/svg" version="1.1" width="100%" height="100%">
<style type="text/css"><![CDATA[
  .stroke { fill:none; stroke:black; stroke-width:2 }
]]></style>
<path class="stroke" d="M 20.770715441176474 7.6423356 C 17.979818382352942 13.948904400000002 12.183339705882354 19.7883208 7.245597794117647 23.058392" />
<path class="stroke" d="M 16.477026470588235 15.233575600000002 L 16.477026470588235 39.175180000000005" />
<path class="stroke" d="M 29.140375 13.914824000000001 L 95.623 13.914824000000001" />
<path class="stroke" d="M 64.86595 5.2082 L 64.86595 13.788640000000001 C 65.49685 26.40692 79.613575 40.7918 91.600975 40.918 L 91.600975 35.618320000000004" />
<path class="stroke" d="M 76.69555 6.217664 C 80.954275 7.22712 84.50319999999999 8.741320000000002 86.632525 10.76024" />
<path class="stroke" d="M 50.3155 45.5615128 L 50.3155 53.511032" />
<path class="stroke" d="M 6.15142 53.511032 L 93.2177 53.511032" />
<path class="stroke" d="M 50.3155 53.511032 C 40.2209 63.992664000000005 25.7098 71.647752 7.09779 76.476352" />
<path class="stroke" d="M 30.4416 67.996832 L 30.4416 92.728728 M 11.1987 94.848552 C 27.8128 94.318624 44.4269 93.258712 59.1482 89.372256" />
<path class="stroke" d="M 88.48578 62.8737672 C 79.96848 67.1135832 70.50478 70.11669520000001 60.09458 71.7066472" />
<path class="stroke" d="M 50.0 53.511032 C 56.8349 74.415384 71.2408 85.780192 90.694 94.141888" />
</svg>
