<?xml version="1.0" standalone="no"?>
<!DOCTYPE svg PUBLIC "-//W3C//DTD SVG 1.1//EN" "http://www.w3.org/Graphics/SVG/1.1/DTD/svg11.dtd">
<svg xmlns="http://www.w3.org/2000/svg" version="1.1" width="100%" height="100%">
<style type="text/css"><![CDATA[
  .stroke { fill:none; stroke:black; stroke-width:2 }
]]></style>
<path class="stroke" d="M 16.7410947 5.0 C 11.1356157 17.49315 8.459804100000001 24.088593 4.44520505 31.09589 C 8.299221150000001 36.351364 15.656163600000001 38.0 19.634246500000003 43.91781" />
<path class="stroke" d="M 25.963014 26.164383 C 18.549316500000003 50.82192 19.0917793 44.904114 12.40136865 65.287674 C 23.61232665 63.972603 15.836984900000001 64.9589 27.590410650000003 62.0" />
<path class="stroke" d="M 28.132876200000002 62.328766 C 28.4945188 70.87671 14.9328762 87.64384 9.5082185 91.58904" />
<path class="stroke" d="M 40.55598865 9.30599 L 59.47240015 9.30599 L 59.47240015 55.6782" />
<path class="stroke" d="M 40.87303265 33.2808 L 59.26104865 33.2808" />
<path class="stroke" d="M 40.76734015 55.6782 L 59.47240015 55.6782" />
<path class="stroke" d="M 40.55598865 9.30599 L 40.55598865 86.9085 M 35.69479695 90.3785 L 58.626964 77.7603" />
<path class="stroke" d="M 55.0339081 69.87385 C 58.0985551 73.02825 60.0007856 80.59935 60.634840100000005 88.80125" />
<path class="stroke" d="M 76.45049829999999 15.544554 L 92.1722761 15.544554 C 92.1722761 20.891088 91.17722560000001 31.881187 85.80395960000001 39.009903" />
<path class="stroke" d="M 85.60495218 39.009903 C 88.09356400000001 42.6393 93.1673266 50.29703 93.1673266 59.207924 L 93.1673266 63.069305 C 93.1673266 66.63367 91.5752458 68.71287 88.98811717999999 68.71287 L 81.02772390000001 68.41584" />
<path class="stroke" d="M 76.45049829999999 15.544554 L 76.45049829999999 90.09901" />
</svg>
