<?xml version="1.0" standalone="no"?>
<!DOCTYPE svg PUBLIC "-//W3C//DTD SVG 1.1//EN" "http://www.w3.org/Graphics/SVG/1.1/DTD/svg11.dtd">
<svg xmlns="http://www.w3.org/2000/svg" version="1.1" width="100%" height="100%">
<style type="text/css"><![CDATA[
  .stroke { fill:none; stroke:black; stroke-width:2 }
]]></style>
<path class="stroke" d="M 6.3722288 10.25237 L 31.735028 10.25237 C 27.655068 21.81909 24.458468 27.07669 20.126188 31.07259" />
<path class="stroke" d="M 17.097828000000003 23.1861 C 19.0746688 27.4974 20.799188 32.7551 21.261868000000003 38.3282" />
<path class="stroke" d="M 3.0914828 38.64354 L 36.908502 38.64354 C 35.9831816 46.63514 34.3007416 51.47214 31.86122 55.67824" />
<path class="stroke" d="M 21.387996 42.11357 L 21.387996 88.80127 C 21.345956 92.69187 20.420596000000003 94.68977 19.242876000000003 94.79497 L 16.845436000000003 94.79497" />
<path class="stroke" d="M 21.388 42.429 C 17.939 65.5626 12.09252 81.7561 2.839116 90.0631" />
<path class="stroke" d="M 61.8019816 4.950495 C 60.0198022 11.3366335 55.742575 18.91089 49.148514399999996 23.217821" />
<path class="stroke" d="M 55.5643564 17.8712865 L 85.683166 17.8712865" />
<path class="stroke" d="M 71.78218 18.019802 C 69.643564 30.643566 60.554456200000004 41.188118 46.29703 44.90099" />
<path class="stroke" d="M 55.5643564 21.7326735 C 59.4851476 30.79208 78.554452 45.049505 89.069308 45.049505" />
<path class="stroke" d="M 52.174304824 66.605839 L 81.0478798 65.437956 C 80.3296336 82.08028999999999 78.17489008 90.9854 77.45664191200001 92.88320999999999 C 76.59474105999999 94.489048 74.87094772 94.92700500000001 73.4344504 95.07299 L 71.99795308 94.92700500000001" />
<path class="stroke" d="M 66.39561796 55.218978 C 64.67182216 71.56934150000001 59.06948704 88.21167750000001 50.019561304 92.88320999999999" />
</svg>
