<?xml version="1.0" standalone="no"?>
<!DOCTYPE svg PUBLIC "-//W3C//DTD SVG 1.1//EN" "http://www.w3.org/Graphics/SVG/1.1/DTD/svg11.dtd">
<svg xmlns="http://www.w3.org/2000/svg" version="1.1" width="100%" height="100%">
<style type="text/css"><![CDATA[
  .stroke { fill:none; stroke:black; stroke-width:2 }
]]></style>
<path class="stroke" d="M 10.145985 16.66 L 89.85401 16.66" />
<path class="stroke" d="M 50.0 6.01386856 L 50.0 28.9043776" />
<path class="stroke" d="M 13.649633 34.41240658333333 L 13.649633 59.846309833333336" />
<path class="stroke" d="M 13.649633 34.41240658333333 L 86.642334 34.41240658333333 L 86.642334 59.846309833333336" />
<path class="stroke" d="M 36.75083 34.41240658333333 L 36.75083 59.846309833333336" />
<path class="stroke" d="M 63.249256 34.41240658333333 L 63.249256 59.846309833333336" />
<path class="stroke" d="M 13.649633 59.85826583333333 L 86.83168 59.85826583333333" />
<path class="stroke" d="M 17.4453 74.13248 C 16.6042 80.77808 14.5012 85.15248000000001 10.8207 90.03152" />
<path class="stroke" d="M 33.21814 70.09464 L 33.21814 91.54576 C 33.21814 93.81704 35.11094 95.33120000000001 37.95004 95.33120000000001 L 72.01944 95.33120000000001 C 74.64824 95.33120000000001 76.96164 93.56464 77.06674 90.78864 L 77.06674 86.4984" />
<path class="stroke" d="M 45.2056 70.094656 C 50.6735 73.964256 54.2487 78.086256 57.5084 83.470016" />
<path class="stroke" d="M 77.0667 70.34703999999999 C 83.6913 75.05776 87.7923 79.7688 91.8932 86.24607999999999" />
</svg>
