<?xml version="1.0" standalone="no"?>
<!DOCTYPE svg PUBLIC "-//W3C//DTD SVG 1.1//EN" "http://www.w3.org/Graphics/SVG/1.1/DTD/svg11.dtd">
<svg xmlns="http://www.w3.org/2000/svg" version="1.1" width="100%" height="100%">
<style type="text/css"><![CDATA[
  .stroke { fill:none; stroke:black; stroke-width:2 }
]]></style>
<path class="stroke" d="M 13.154171785714285 14.059406 C 16.654879285714284 16.138615 20.15558785714286 19.108912 23.01980357142857 22.673267" />
<path class="stroke" d="M 10.926448928571428 38.118813 C 14.108912142857141 39.90099 17.927864999999997 42.574257 20.473834285714286 46.138615" />
<path class="stroke" d="M 10.608203571428572 85.64356 C 11.321795357142857 87.422676 13.310014285714285 89.896904 15.629600357142856 89.896904 C 17.949189642857142 89.896904 21.110325 76.73267 23.33804892857143 69.60396" />
<path class="stroke" d="M 86.782177 7.70077 C 72.970297 11.16611688888889 51.80692975 12.783278666666666 39.331683999999996 12.783278666666666" />
<path class="stroke" d="M 40.668316000000004 18.78987988888889 C 44.00990125 22.024203444444446 46.017325 25.55785555555556 47.5742575 29.18591977777778" />
<path class="stroke" d="M 57.59901025 17.634763222222222 C 60.717823 20.176017555555557 62.7227725 23.410341111111112 64.0594075 27.568757222222224" />
<path class="stroke" d="M 85.6683175 16.248624 C 83.8861405 21.79317933333333 81.2128675 25.951595444444447 77.4257425 28.95489488888889" />
<path class="stroke" d="M 35.05522 47.334351999999996 L 89.944795 47.334351999999996" />
<path class="stroke" d="M 30.08674975 64.116698 L 94.2035275 64.116698" />
<path class="stroke" d="M 62.5 34.526816 L 62.5 64.11681 C 62.894349999999996 77.5132 48.6199 92.23454999999998 30.5599375 95.25238999999999" />
<path class="stroke" d="M 62.5 64.11674 C 62.736625000000004 77.66040999999998 73.383325 90.98322999999999 94.203475 95.47317" />
</svg>
