<?xml version="1.0" standalone="no"?>
<!DOCTYPE svg PUBLIC "-//W3C//DTD SVG 1.1//EN" "http://www.w3.org/Graphics/SVG/1.1/DTD/svg11.dtd">
<svg xmlns="http://www.w3.org/2000/svg" version="1.1" width="100%" height="100%">
<style type="text/css"><![CDATA[
  .stroke { fill:none; stroke:black; stroke-width:2 }
]]></style>
<path class="stroke" d="M 6.6806280000000005 20.157066 L 33.57068 20.157066" />
<path class="stroke" d="M 9.1970796 34.67153 L 9.080292 62.70073" />
<path class="stroke" d="M 9.080292 34.67153 L 30.919704000000003 34.67153 L 30.919704000000003 62.70073" />
<path class="stroke" d="M 9.080292 48.63624 L 30.802916 48.63624" />
<path class="stroke" d="M 9.080292 62.9927 L 30.919704000000003 62.9927" />
<path class="stroke" d="M 6.043795200000001 77.59124 L 33.9562 77.59124" />
<path class="stroke" d="M 20.074252 8.978102 L 20.074252 90.72992" />
<path class="stroke" d="M 70.087588 6.130634928 C 63.255472 15.677579694857144 55.5474442 23.16538005257143 45.9124078 27.658058472" />
<path class="stroke" d="M 70.087588 6.130634928 C 77.0948884 15.303188811428571 84.27736959999999 23.16538005257143 94.26276999999999 27.470864633142856" />
<path class="stroke" d="M 60.29489008 24.285714285714285 L 79.705108 24.285714285714285" />
<path class="stroke" d="M 51.871532720000005 36.748904780000004 L 51.871532720000005 88.81897000000001" />
<path class="stroke" d="M 51.871532720000005 36.748904780000004 L 66.17226114 36.748904780000004 L 66.17226114 89.89926639999999 C 66.17226114 90.9795554 65.26715166 92.7080252 64.0 92.49196740000001 L 62.91386726 92.49196740000001" />
<path class="stroke" d="M 51.871532720000005 51.2248166 L 66.17226114 51.2248166" />
<path class="stroke" d="M 51.871532720000005 66.13284476 L 65.99124036 66.13284476" />
<path class="stroke" d="M 76.919707 39.34160504 L 76.919707 64.40437792" />
<path class="stroke" d="M 87.9562 35.02043646 L 87.9562 88.81897000000001 C 87.9562 90.76349760000001 86.554744 92.49196740000001 85.328464 92.7080252 L 83.927008 92.7080252" />
</svg>
