<?xml version="1.0" standalone="no"?>
<!DOCTYPE svg PUBLIC "-//W3C//DTD SVG 1.1//EN" "http://www.w3.org/Graphics/SVG/1.1/DTD/svg11.dtd">
<svg xmlns="http://www.w3.org/2000/svg" version="1.1" width="100%" height="100%">
<style type="text/css"><![CDATA[
  .stroke { fill:none; stroke:black; stroke-width:2 }
]]></style>
<path class="stroke" d="M 24.05365 5.83596 C 23.84335 10.3575 22.05575 15.1945 19.16405 14.9842" />
<path class="stroke" d="M 12.69715 15.2997 L 12.69715 67.3502" />
<path class="stroke" d="M 12.69715 15.2997 L 36.5142 15.2997 L 36.5142 88.4858 C 36.63475 92.3456 35.6422 94.795 33.83285 94.4795 L 31.9401 94.4795" />
<path class="stroke" d="M 12.85485 31.703472 L 36.35645 31.703472" />
<path class="stroke" d="M 12.8548785 47.476357 L 36.51418 47.476357" />
<path class="stroke" d="M 3.07571 71.45113 L 36.35645 61.35643" />
<path class="stroke" d="M 46.6088 32.0189 C 38.82755 73.449 24.5794 85.5415 6.54575 92.9022" />
<path class="stroke" d="M 54.233574 30.29197 L 89.85401 30.29197" />
<path class="stroke" d="M 80.97649 9.270073 L 80.97649 84.8905 C 80.97649 87.51824 79.34306 90.14598 76.715324 90.14598 L 72.04379 90.14598" />
<path class="stroke" d="M 55.693428 40.51095 C 60.07299 42.846714 62.70073 46.642334 64.16058 51.021896" />
</svg>
