<?xml version="1.0" standalone="no"?>
<!DOCTYPE svg PUBLIC "-//W3C//DTD SVG 1.1//EN" "http://www.w3.org/Graphics/SVG/1.1/DTD/svg11.dtd">
<svg xmlns="http://www.w3.org/2000/svg" version="1.1" width="100%" height="100%">
<style type="text/css"><![CDATA[
  .stroke { fill:none; stroke:black; stroke-width:2 }
]]></style>
<path class="stroke" d="M 12.0729925 20.160000000000004 L 51.927005 20.160000000000004" />
<path class="stroke" d="M 32.0 9.51386856 L 32.0 32.404377600000004" />
<path class="stroke" d="M 21.140144460000002 34.813328193000004 L 21.140144460000002 58.843457184" />
<path class="stroke" d="M 21.140144460000002 34.813328193000004 L 42.734305 34.813328193000004 L 42.734305 58.843457184" />
<path class="stroke" d="M 21.26569285 46.173795003799995 L 42.6087579 46.173795003799995" />
<path class="stroke" d="M 21.140144460000002 57.7945238024 L 42.734305 57.7945238024" />
<path class="stroke" d="M 11.927006500000001 70.24060338999999 L 52.36496 70.24060338999999" />
<path class="stroke" d="M 31.961685 60.264164131 L 31.961685 90.425832106" />
<path class="stroke" d="M 61.43138662 17.868611700000002 L 61.400671599999995 59.073831000000006 C 57.49865737 81.181206 57.49865737 80.45637300000001 53.137583379999995 89.87919839999999" />
<path class="stroke" d="M 61.43138662 17.868611700000002 L 84.7306576 17.868611700000002 L 84.7306576 86.452551 C 84.7306576 88.554744 84.0649603 90.394155 82.40072788 90.394155 L 80.5700737 90.394155" />
<path class="stroke" d="M 61.43138662 37.6763193 L 84.7306576 37.6763193" />
<path class="stroke" d="M 61.43138662 58.5993024 L 84.7306576 58.5993024" />
</svg>
