<?xml version="1.0" standalone="no"?>
<!DOCTYPE svg PUBLIC "-//W3C//DTD SVG 1.1//EN" "http://www.w3.org/Graphics/SVG/1.1/DTD/svg11.dtd">
<svg xmlns="http://www.w3.org/2000/svg" version="1.1" width="100%" height="100%">
<style type="text/css"><![CDATA[
  .stroke { fill:none; stroke:black; stroke-width:2 }
]]></style>
<path class="stroke" d="M 8.69085 22.0316 L 2.3817 38.1199" />
<path class="stroke" d="M 20.6782 22.0316 L 27.6183 38.1199" />
<path class="stroke" d="M 14.6845 7.3123 L 14.6845 93.3186" />
<path class="stroke" d="M 43.5583915 8.7401457 L 43.5583915 33.756201600000004" />
<path class="stroke" d="M 43.5583915 8.7401457 L 81.222625 8.7401457 L 81.222625 33.756201600000004" />
<path class="stroke" d="M 43.77737125 20.56671862 L 81.0036475 20.56671862" />
<path class="stroke" d="M 43.5583915 32.66423176 L 81.222625 32.66423176" />
<path class="stroke" d="M 35.237224749999996 43.84306458333333 L 35.237224749999996 56.819545833333336" />
<path class="stroke" d="M 35.237224749999996 43.84306458333333 L 89.9817505 43.84306458333333 L 89.9817505 56.819545833333336" />
<path class="stroke" d="M 52.5631225 43.84306458333333 L 52.5631225 56.819545833333336" />
<path class="stroke" d="M 72.436942 43.84306458333333 L 72.436942 56.819545833333336" />
<path class="stroke" d="M 35.237224749999996 56.82564583333333 L 90.12376 56.82564583333333" />
<path class="stroke" d="M 42.89603875 68.03168292 L 80.0990125 68.03168292 C 71.63366125 80.87227761 57.376236999999996 87.14554559999999 32.4257425 92.6346534" />
<path class="stroke" d="M 42.00495025 70.97227761 C 45.32257825 77.05161219 56.93548225 82.05483888 60.806449 84.2903229 C 67.8225775 87.6967743 80.403223 90.2516112 92.351485 92.6346534" />
</svg>
