<?xml version="1.0" standalone="no"?>
<!DOCTYPE svg PUBLIC "-//W3C//DTD SVG 1.1//EN" "http://www.w3.org/Graphics/SVG/1.1/DTD/svg11.dtd">
<svg xmlns="http://www.w3.org/2000/svg" version="1.1" width="100%" height="100%">
<style type="text/css"><![CDATA[
  .stroke { fill:none; stroke:black; stroke-width:2 }
]]></style>
<path class="stroke" d="M 26.831684 10.16633687 C 30.69307 11.996039360000001 32.475246 13.82574262 35.445545 17.256434499999997" />
<path class="stroke" d="M 69.90099 10.16633687 C 67.52475 13.368317189999999 65.44554 15.65544588 61.881187 17.02772217" />
<path class="stroke" d="M 17.920792 20.00099016 L 82.376236 20.00099016" />
<path class="stroke" d="M 49.369083 20.229701719999998 L 49.369083 39.670298280000004" />
<path class="stroke" d="M 22.079208 30.06435578 L 77.32674 30.06435578" />
<path class="stroke" d="M 10.198019 39.670298280000004 L 89.207924 39.670298280000004" />
<path class="stroke" d="M 36.941625 41.22070252 C 32.594606999999996 54.37302478 23.080401000000002 66.92296372 12.828042 72.0935399" />
<path class="stroke" d="M 36.26788229 51.589780160000004 L 36.26788229 90.5503616" />
<path class="stroke" d="M 36.26788229 51.589780160000004 L 72.53065634000001 51.589780160000004 L 72.53065634000001 90.41021599999999" />
<path class="stroke" d="M 36.26788229 63.49095104 L 72.53065634000001 63.49095104" />
<path class="stroke" d="M 36.26788229 76.8540032 L 72.53065634000001 76.8540032" />
<path class="stroke" d="M 36.26788229 89.1489008 L 72.53065634000001 89.1489008" />
</svg>
