<?xml version="1.0" standalone="no"?>
<!DOCTYPE svg PUBLIC "-//W3C//DTD SVG 1.1//EN" "http://www.w3.org/Graphics/SVG/1.1/DTD/svg11.dtd">
<svg xmlns="http://www.w3.org/2000/svg" version="1.1" width="100%" height="100%">
<style type="text/css"><![CDATA[
  .stroke { fill:none; stroke:black; stroke-width:2 }
]]></style>
<path class="stroke" d="M 8.722300714285714 11.089109 L 31.543777380952378 11.290321 C 33.24884838095238 17.741934 28.133638904761906 33.225803 23.01843295238095 40.0" />
<path class="stroke" d="M 23.01843295238095 40.96774 C 27.281104285714285 44.51613 30.69124188095238 49.032257 32.39631288095238 54.19355 C 34.10138035714285 57.09677 34.10138035714285 65.161285 25.007679809523808 68.38709 L 19.608294476190476 69.354836" />
<path class="stroke" d="M 11.338990047619047 11.089109 L 11.338990047619047 90.09901" />
<path class="stroke" d="M 50.839168 21.485796 L 65.57728 21.485796" />
<path class="stroke" d="M 50.637241599999996 6.974762500000001 L 50.637241599999996 44.5583472 M 40.1388032 47.025226 L 64.164032 41.801235999999996" />
<path class="stroke" d="M 94.649856 17.422708 C 87.785472 21.389058000000002 81.52678399999999 23.03365 72.037824 23.227126" />
<path class="stroke" d="M 71.835904 6.9747602 L 71.835904 43.97791 C 71.76864 45.42902600000001 73.11456000000001 47.025226 75.268096 47.025226 L 91.82336000000001 46.880142 C 94.51520000000001 46.68662 95.79392 45.477418 95.86118400000001 43.832826000000004 L 95.86118400000001 39.624608" />
<path class="stroke" d="M 65.4773696 54.49415974 C 65.314464 57.1339373 61.419424 60.1967393 57.921887999999996 60.2983533" />
<path class="stroke" d="M 49.7810208 60.39488989 L 49.7810208 92.780293" />
<path class="stroke" d="M 49.7810208 60.29877395 L 86.59270016 60.29877395 L 86.59270016 92.780293" />
<path class="stroke" d="M 49.7810208 75.55330075 L 86.59270016 75.55330075" />
<path class="stroke" d="M 49.7810208 91.3710732 L 86.59270016 91.3710732" />
</svg>
