<?xml version="1.0" standalone="no"?>
<!DOCTYPE svg PUBLIC "-//W3C//DTD SVG 1.1//EN" "http://www.w3.org/Graphics/SVG/1.1/DTD/svg11.dtd">
<svg xmlns="http://www.w3.org/2000/svg" version="1.1" width="100%" height="100%">
<style type="text/css"><![CDATA[
  .stroke { fill:none; stroke:black; stroke-width:2 }
]]></style>
<path class="stroke" d="M 12.37153205 15.2026272 L 35.381748800000004 15.2026272" />
<path class="stroke" d="M 19.77294619 15.2026272 C 19.63020611 34.064316000000005 12.26350315 55.927001600000004 7.83430641 62.0" />
<path class="stroke" d="M 16.80072879 42.37956 L 16.80072879 74.145984" />
<path class="stroke" d="M 16.80072879 42.37956 L 32.6810189 42.37956 L 32.572990000000004 74.37956000000001" />
<path class="stroke" d="M 16.69270026 71.81021600000001 L 32.572990000000004 71.81021600000001" />
<path class="stroke" d="M 58.764231280000004 7.554744 L 58.764231280000004 15.437956 C 58.764231280000004 26.9708025 54.270802149999994 36.751825 46.7817517 42.44525" />
<path class="stroke" d="M 47.447445009999996 16.167883 L 72.9102154 13.6861305 L 72.9102154 35.437955 C 72.9102154 39.08759 75.24014398 41.131385 78.5686111 41.27737 L 87.72189682 41.27737 C 89.552551 41.131385 91.2167857 40.109485 91.38320859999999 38.065693 L 91.38320859999999 35.729925" />
<path class="stroke" d="M 45.783211449999996 73.5 L 91.2167857 73.5" />
<path class="stroke" d="M 68.5 54.489051 L 68.5 95.36496" />
</svg>
