<?xml version="1.0" standalone="no"?>
<!DOCTYPE svg PUBLIC "-//W3C//DTD SVG 1.1//EN" "http://www.w3.org/Graphics/SVG/1.1/DTD/svg11.dtd">
<svg xmlns="http://www.w3.org/2000/svg" version="1.1" width="100%" height="100%">
<style type="text/css"><![CDATA[
  .stroke { fill:none; stroke:black; stroke-width:2 }
]]></style>
<path class="stroke" d="M 49.562042 11.649633600000001 L 49.562042 20.291969599999998" />
<path class="stroke" d="M 17.737225 20.291969599999998 L 17.737225 29.401458400000003" />
<path class="stroke" d="M 17.737225 20.291969599999998 L 82.55474 20.291969599999998 L 82.55474 29.401458400000003" />
<path class="stroke" d="M 29.10802592 30.154743 L 72.08612400000001 30.154743" />
<path class="stroke" d="M 46.03065404 30.37664096 C 39.04671416 39.91824716 27.201900000000002 45.05574 14.432208000000001 48.971639999999994" />
<path class="stroke" d="M 37.43503608 39.2525548 C 53.8204348 49.90364624 57.043796480000005 80.08174980000001 51.1343016 86.960582 C 47.6423312 90.9547392 41.19561796 90.0671504 38.77809808000001 88.2919652" />
<path class="stroke" d="M 45.22481592 47.24087528 C 37.70364756 55.6729932 27.496348760000004 60.55474148 14.3343062 64.32700528000001" />
<path class="stroke" d="M 50.865689200000006 58.5576644 C 42.807296040000004 69.65255479999999 28.57080296 76.5313832 14.3343062 79.85985336" />
<path class="stroke" d="M 78.53284000000001 40.80583672 C 74.23503240000001 46.35328268 67.51970399999999 50.7912396 59.461309 53.232114120000006" />
<path class="stroke" d="M 54.626276600000004 49.90364624 C 60.80437560000001 66.989777 74.5036448 76.5313832 87.1284598 83.4102192" />
</svg>
