<?xml version="1.0" standalone="no"?>
<!DOCTYPE svg PUBLIC "-//W3C//DTD SVG 1.1//EN" "http://www.w3.org/Graphics/SVG/1.1/DTD/svg11.dtd">
<svg xmlns="http://www.w3.org/2000/svg" version="1.1" width="100%" height="100%">
<style type="text/css"><![CDATA[
  .stroke { fill:none; stroke:black; stroke-width:2 }
]]></style>
<path class="stroke" d="M 18.430655833333333 9.562042 C 21.350365 11.021896 24.27007 14.817516 26.216541666666668 19.48905" />
<path class="stroke" d="M 8.2116775 22.8707 L 35.46228333333334 22.8707" />
<path class="stroke" d="M 13.564475000000002 37.007298 L 30.109488333333335 37.007298" />
<path class="stroke" d="M 13.564475000000002 51.313866 L 30.109488333333335 51.313866" />
<path class="stroke" d="M 12.59124 64.45255 L 12.59124 85.76642" />
<path class="stroke" d="M 12.59124 64.16058 L 31.569341666666666 64.16058 L 31.569341666666666 85.76642" />
<path class="stroke" d="M 12.59124 85.76642 L 31.326033333333335 85.76642" />
<path class="stroke" d="M 56.423356600000005 24.948903599999998 L 83.576638 24.948903599999998" />
<path class="stroke" d="M 69.7372252 14.41459696 L 69.7372252 39.0802912" />
<path class="stroke" d="M 47.4890503 39.0802912 L 92.686126 39.0802912" />
<path class="stroke" d="M 51.959707936 55.101458609999995 L 87.90714964 55.101458609999995" />
<path class="stroke" d="M 77.12292063999999 45.61532823 L 77.12292063999999 87.88685939999999 C 77.12292063999999 89.38467119999999 76.59036280000001 90.38320859999999 75.392115184 90.38320859999999 L 71.79737188 90.38320859999999" />
<path class="stroke" d="M 59.282335599999996 61.42554591 C 60.879999999999995 62.92335713999999 62.344525168 65.08686054 63.542772328 68.74817288999999" />
</svg>
