<?xml version="1.0" standalone="no"?>
<!DOCTYPE svg PUBLIC "-//W3C//DTD SVG 1.1//EN" "http://www.w3.org/Graphics/SVG/1.1/DTD/svg11.dtd">
<svg xmlns="http://www.w3.org/2000/svg" version="1.1" width="100%" height="100%">
<style type="text/css"><![CDATA[
  .stroke { fill:none; stroke:black; stroke-width:2 }
]]></style>
<path class="stroke" d="M 24.48905 7.846715 L 24.48905 43.46715" />
<path class="stroke" d="M 24.635035 21.131385 L 34.562042 21.131385" />
<path class="stroke" d="M 6.9708025 43.75912 L 43.321167 43.75912" />
<path class="stroke" d="M 25.0026435 57.9927005 L 25.0026435 93.613135 C 25.0026435 94.6350325 24.1970785 95.218975 23.613138 95.218975 L 22.59124 95.218975" />
<path class="stroke" d="M 13.3941595 71.27737 C 12.6642325 76.38686 10.474452 80.7664225 7.408758 84.270073" />
<path class="stroke" d="M 35.29197 71.27737 C 38.2116775 74.343065 40.693428 78.4306565 42.153282 84.56204199999999" />
<path class="stroke" d="M 61.9306925 23.7227716 L 86.732675 23.7227716 C 81.0891075 58.7425753 71.584158 75.851488 54.950495000000004 90.821782" />
<path class="stroke" d="M 61.3366335 31.742575300000002 C 63.5483855 48.3225787 71.2903215 61.967742400000006 73.870966 68.064517 C 78.548385 77.35483900000001 86.93548200000001 84.322576 94.90099000000001 90.821782" />
</svg>
