<?xml version="1.0" standalone="no"?>
<!DOCTYPE svg PUBLIC "-//W3C//DTD SVG 1.1//EN" "http://www.w3.org/Graphics/SVG/1.1/DTD/svg11.dtd">
<svg xmlns="http://www.w3.org/2000/svg" version="1.1" width="100%" height="100%">
<style type="text/css"><![CDATA[
  .stroke { fill:none; stroke:black; stroke-width:2 }
]]></style>
<path class="stroke" d="M 13.649633 9.2116775 L 13.649633 24.783455" />
<path class="stroke" d="M 13.649633 9.2116775 L 86.642334 9.2116775 L 86.642334 24.783455" />
<path class="stroke" d="M 36.75083 9.2116775 L 36.75083 24.783455" />
<path class="stroke" d="M 63.249256 9.2116775 L 63.249256 24.783455" />
<path class="stroke" d="M 13.649633 24.790775 L 86.83168 24.790775" />
<path class="stroke" d="M 30.7571 31.4621403 C 27.8129 42.4905 20.1367 53.301213 6.78233 60.193968" />
<path class="stroke" d="M 27.9179 42.563088 L 90.0631 42.780713999999996 L 89.7476 67.159311 C 89.1167 78.187719 82.4922 90.95741100000001 71.1357 91.10251799999999 L 66.4038 91.10251799999999" />
<path class="stroke" d="M 31.69343 53.879781036 L 31.69343 69.533208252" />
<path class="stroke" d="M 31.69343 54.020802063 L 68.656934 54.020802063 L 68.656934 69.67423266" />
<path class="stroke" d="M 31.69343 67.738826544 L 68.656934 67.738826544" />
<path class="stroke" d="M 49.993994 44.854378796999995 L 49.993994 82.648247322" />
<path class="stroke" d="M 30.4671518 84.76357769999998 L 68.83211359999999 80.67393941999998" />
<path class="stroke" d="M 65.328464 76.16124144 C 68.30657 78.69963345 69.883208 81.520070412 70.93430000000001 84.76357769999998" />
</svg>
