<?xml version="1.0" standalone="no"?>
<!DOCTYPE svg PUBLIC "-//W3C//DTD SVG 1.1//EN" "http://www.w3.org/Graphics/SVG/1.1/DTD/svg11.dtd">
<svg xmlns="http://www.w3.org/2000/svg" version="1.1" width="100%" height="100%">
<style type="text/css"><![CDATA[
  .stroke { fill:none; stroke:black; stroke-width:2 }
]]></style>
<path class="stroke" d="M 20.770715441176474 11.605839 C 17.979818382352942 27.372261 12.183339705882354 41.970802 7.245597794117647 50.14598" />
<path class="stroke" d="M 16.477026470588235 30.583939 L 16.477026470588235 90.43795" />
<path class="stroke" d="M 45.867487999999994 8.99053 C 40.9884464 18.1388 35.3522856 24.448 28.2018936 28.8644" />
<path class="stroke" d="M 72.87067200000001 8.99054 C 77.66563200000002 16.877 83.21763200000001 23.1861 90.283872 27.6025" />
<path class="stroke" d="M 59.747600000000006 19.71604 C 50.15768 39.27444 40.82024 50.94644 24.921136 58.51734" />
<path class="stroke" d="M 59.747600000000006 19.71604 C 68.91696 39.37954 77.58144 50.84114 94.82648 58.51734" />
<path class="stroke" d="M 41.072544 60.09469 L 41.324944 91.64039" />
<path class="stroke" d="M 41.072544 60.09469 L 78.422624 60.09469 L 78.67502400000001 91.64039" />
<path class="stroke" d="M 41.324944 91.64039 L 78.67502400000001 91.64039" />
</svg>
