<?xml version="1.0" standalone="no"?>
<!DOCTYPE svg PUBLIC "-//W3C//DTD SVG 1.1//EN" "http://www.w3.org/Graphics/SVG/1.1/DTD/svg11.dtd">
<svg xmlns="http://www.w3.org/2000/svg" version="1.1" width="100%" height="100%">
<style type="text/css"><![CDATA[
  .stroke { fill:none; stroke:black; stroke-width:2 }
]]></style>
<path class="stroke" d="M 25.94635 3.85173492 C 25.57835 6.48896292 24.7371 8.70980352 22.47635 10.51417752" />
<path class="stroke" d="M 12.5394 10.5142059 L 12.5394 44.0346819 C 12.48685 52.1545992 10.22605 57.56784924 4.02206 61.5236886" />
<path class="stroke" d="M 12.5394 10.5142059 L 37.93375 10.5142059 L 37.93375 57.776010600000006 C 37.98635 60.274440600000005 37.09255 61.315461240000005 35.72555 61.315461240000005 L 33.3596 61.315461240000005" />
<path class="stroke" d="M 22.00315 17.8012494 C 24.89485 19.4668254 26.6824 22.1734854 28.3123 25.9210974" />
<path class="stroke" d="M 25.41096 39.4010958 L 25.41096 53.7221916" />
<path class="stroke" d="M 3.23344 32.79177 L 46.4511 32.79177" />
<path class="stroke" d="M 65.37855 5.3091522 L 65.37855 17.593092 C 65.2734 27.10092 59.64775 31.61202 53.23344 33.624624" />
<path class="stroke" d="M 65.5363 5.3091456 L 82.571 5.3091456 L 82.571 24.255462 C 82.41325 26.962056 83.6751 28.627698000000002 85.4101 28.627698000000002 L 96.361255 28.627698000000002" />
<path class="stroke" d="M 60.48895 35.0820426 L 86.8297 35.0820426 C 80.1525 50.974776600000006 67.9548 58.747662600000005 54.17981 62.14824660000001" />
<path class="stroke" d="M 64.27445 35.0820426 C 66.74555000000001 49.933758600000004 80.88855 60.82969860000001 96.4511 61.9400826" />
<path class="stroke" d="M 18.4542 69.11672 L 18.4542 92.77604" />
<path class="stroke" d="M 18.4542 69.11672 L 80.5994 69.11672 L 80.5994 92.68139" />
<path class="stroke" d="M 39.27444 69.21137 L 39.27444 92.77604" />
<path class="stroke" d="M 60.41014 69.2113571 L 60.41014 92.870678" />
<path class="stroke" d="M 7.09779 92.87066 L 92.9022 92.87066" />
</svg>
