<?xml version="1.0" standalone="no"?>
<!DOCTYPE svg PUBLIC "-//W3C//DTD SVG 1.1//EN" "http://www.w3.org/Graphics/SVG/1.1/DTD/svg11.dtd">
<svg xmlns="http://www.w3.org/2000/svg" version="1.1" width="100%" height="100%">
<style type="text/css"><![CDATA[
  .stroke { fill:none; stroke:black; stroke-width:2 }
]]></style>
<path class="stroke" d="M 26.65615 6.297885285714286 C 31.28285 9.324833142857143 34.96315 12.351604571428572 38.32805 17.13606792857143" />
<path class="stroke" d="M 73.97486 6.297877857142858 C 71.24086 10.691757142857144 68.50676 14.206957142857142 62.61826 17.72197142857143" />
<path class="stroke" d="M 8.044165 18.307788571428574 L 92.586716 18.307788571428574" />
<path class="stroke" d="M 13.406938 31.48943571428572 L 87.22394 31.48943571428572" />
<path class="stroke" d="M 13.406938 44.08520071428572 L 87.22394 44.08520071428572" />
<path class="stroke" d="M 50.630917 18.600678571428574 L 50.630917 58.7314" />
<path class="stroke" d="M 19.71609 44.37812785714286 C 25.28909 48.28382 29.28489 53.06813571428572 32.64979 58.7314" />
<path class="stroke" d="M 79.0221 44.37811857142857 C 76.2881 51.11544285714286 73.8695 55.216385714285714 68.2964 58.43852857142857" />
<path class="stroke" d="M 8.359622 59.02436428571429 L 92.90217 59.02436428571429" />
<path class="stroke" d="M 24.656933600000002 70.675912 L 24.656933600000002 90.109488" />
<path class="stroke" d="M 24.656933600000002 70.675912 L 75.57664 70.675912 L 75.57664 89.9226272" />
<path class="stroke" d="M 24.656933600000002 88.61459712 L 75.57664 88.61459712" />
</svg>
