<?xml version="1.0" standalone="no"?>
<!DOCTYPE svg PUBLIC "-//W3C//DTD SVG 1.1//EN" "http://www.w3.org/Graphics/SVG/1.1/DTD/svg11.dtd">
<svg xmlns="http://www.w3.org/2000/svg" version="1.1" width="100%" height="100%">
<style type="text/css"><![CDATA[
  .stroke { fill:none; stroke:black; stroke-width:2 }
]]></style>
<path class="stroke" d="M 10.437956 27.956203 L 33.211678 27.956203" />
<path class="stroke" d="M 23.86861 9.270073 L 23.86861 90.14598" />
<path class="stroke" d="M 23.86861 36.131386 C 20.07299 44.598537 15.401459 52.48175 8.686131 56.861313" />
<path class="stroke" d="M 23.86861 36.131386 C 28.248173 37.299267 31.167881 42.26277 32.627735 46.934303" />
<path class="stroke" d="M 42.330436750000004 8.5615108 L 60.682179250000004 8.5615108 L 60.682179250000004 51.223943999999996" />
<path class="stroke" d="M 42.63801675 30.618336 L 60.47713675 30.618336" />
<path class="stroke" d="M 42.53547925 51.223943999999996 L 60.682179250000004 51.223943999999996" />
<path class="stroke" d="M 42.330436750000004 8.5615108 L 42.330436750000004 79.95582 M 37.61435525 83.14822000000001 L 59.86198 71.53947600000001" />
<path class="stroke" d="M 56.3761795 64.28394200000001 C 59.3493445 67.18599 61.19479200000001 74.151402 61.8099195 81.69715" />
<path class="stroke" d="M 70.1193224135 6.8648643 L 94.0874453 6.78233" />
<path class="stroke" d="M 74.582188035 6.8648643 L 72.88937796799999 40.918915" />
<path class="stroke" d="M 67.96483713250001 41.24324 L 93.356995255 41.24324" />
<path class="stroke" d="M 91.20251377000001 6.8648643 L 86.4318623 40.918915 C 83.87173551000001 54.638405 76.20400341199999 73.940155 64.7243143535 86.34286 L 54.9225 95.0" />
<path class="stroke" d="M 84.8929425475 49.027023 L 84.86570102799999 80.37407 C 84.86570102799999 87.556114 83.595856465 92.17143 88.12467426500001 92.162155 L 95.146543535 92.17143 C 97.09877414 92.17143 96.610717675 87.02857 96.610717675 83.94286" />
</svg>
