<?xml version="1.0" standalone="no"?>
<!DOCTYPE svg PUBLIC "-//W3C//DTD SVG 1.1//EN" "http://www.w3.org/Graphics/SVG/1.1/DTD/svg11.dtd">
<svg xmlns="http://www.w3.org/2000/svg" version="1.1" width="100%" height="100%">
<style type="text/css"><![CDATA[
  .stroke { fill:none; stroke:black; stroke-width:2 }
]]></style>
<path class="stroke" d="M 18.62208409090909 25.811516 C 17.908137500000002 33.979057 16.480246590909093 36.806282 15.052355681818185 41.83246" />
<path class="stroke" d="M 43.65436363636364 23.267326 C 41.6291625 28.613861 38.92889431818182 33.069305 35.21602272727273 36.336636" />
<path class="stroke" d="M 27.790277272727277 9.306931 L 27.790277272727277 57.72277 C 27.790277272727277 74.653465 17.74443181818182 85.6467 10.91359090909091 90.39604" />
<path class="stroke" d="M 27.452746590909094 63.36634 C 33.19081818181819 68.71287 38.591359090909094 75.24753 40.95409545454545 82.9703" />
<path class="stroke" d="M 65.4963501 8.877736875 L 65.4963501 25.57846625" />
<path class="stroke" d="M 65.4963501 8.877736875 L 84.59124 8.877736875 L 84.59124 25.417882750000004" />
<path class="stroke" d="M 65.4963501 24.2937944 L 84.59124 24.2937944" />
<path class="stroke" d="M 55.622262575 34.115510562500006 L 55.622262575 52.48631287500001" />
<path class="stroke" d="M 55.622262575 34.115510562500006 L 69.94343 34.115510562500006 L 69.94343 52.30967102500001" />
<path class="stroke" d="M 55.622262575 51.07317384 L 69.94343 51.07317384" />
<path class="stroke" d="M 80.12226257500001 34.115510562500006 L 80.12226257500001 52.48631287500001" />
<path class="stroke" d="M 80.12226257500001 34.115510562500006 L 94.44343 34.115510562500006 L 94.44343 52.30967102500001" />
<path class="stroke" d="M 80.12226257500001 51.07317384 L 94.44343 51.07317384" />
<path class="stroke" d="M 60.036495 66.3087579 L 90.109485 66.3087579" />
<path class="stroke" d="M 75.07299 60.50145978 L 75.07299 92.38466880000001" />
<path class="stroke" d="M 75.07299 68.24452485 C 70.255475 77.01240774 64.4160575 81.68102052 56.8248165 84.0722595" />
<path class="stroke" d="M 75.07299 68.24452485 C 79.59853749999999 77.12627565 85.72992500000001 81.79488843 93.321167 83.84452485" />
</svg>
