<?xml version="1.0" standalone="no"?>
<!DOCTYPE svg PUBLIC "-//W3C//DTD SVG 1.1//EN" "http://www.w3.org/Graphics/SVG/1.1/DTD/svg11.dtd">
<svg xmlns="http://www.w3.org/2000/svg" version="1.1" width="100%" height="100%">
<style type="text/css"><![CDATA[
  .stroke { fill:none; stroke:black; stroke-width:2 }
]]></style>
<path class="stroke" d="M 9.60396 33.069305 L 30.9901 30.9901" />
<path class="stroke" d="M 23.267326 9.60396 L 23.267326 84.15842 C 23.267326 87.42574 20.594059 90.09901 17.029703 90.09901" />
<path class="stroke" d="M 10.198019 63.36634 L 28.910892 46.435642" />
<path class="stroke" d="M 39.7772275 24.329895 L 39.7772275 47.623764 C 39.7772275 75.84158 37.549505499999995 82.07921 34.8762385 88.019806" />
<path class="stroke" d="M 39.76804 24.455444 L 86.0438125 24.455444 L 86.0438125 27.57732 C 86.0438125 30.206184 85.8118525 32.061855 84.76804 34.381443" />
<path class="stroke" d="M 63.3910885 9.60396 L 63.3910885 42.27723" />
<path class="stroke" d="M 49.133665 42.27723 L 77.87128750000001 42.27723 C 74.72395 72.0821 57.82178125 88.91089 41.782177 89.80198" />
<path class="stroke" d="M 52.6047115 43.717278 C 52.621714749999995 55.470665 71.68847875 89.58115 85.589005 89.58115" />
</svg>
