<?xml version="1.0" standalone="no"?>
<!DOCTYPE svg PUBLIC "-//W3C//DTD SVG 1.1//EN" "http://www.w3.org/Graphics/SVG/1.1/DTD/svg11.dtd">
<svg xmlns="http://www.w3.org/2000/svg" version="1.1" width="100%" height="100%">
<style type="text/css"><![CDATA[
  .stroke { fill:none; stroke:black; stroke-width:2 }
]]></style>
<path class="stroke" d="M 24.76344 7.41325 C 20.24184 17.1925 13.82764 23.817 6.78234 28.2334" />
<path class="stroke" d="M 25.0789 30.44158 C 20.347 40.22088 14.0379 47.16098 6.78234 52.20818" />
<path class="stroke" d="M 17.82337 44.006344 L 17.82337 93.84854" />
<path class="stroke" d="M 73.81704 12.775985 L 90.69404 12.775985" />
<path class="stroke" d="M 69.87374 38.01264 L 94.16404 38.01264" />
<path class="stroke" d="M 82.80756 38.01264 L 82.80756 87.85484 C 83.18956 92.40424 81.39656 94.31324 78.07566 94.16404 L 75.55206 94.16404" />
<path class="stroke" d="M 36.41240845 24.644743759999997 L 58.587588749999995 24.644743759999997" />
<path class="stroke" d="M 47.5 10.3545249685 L 47.5 43.27306177" />
<path class="stroke" d="M 33.44890455 43.27306177 L 61.4489035 43.27306177" />
<path class="stroke" d="M 36.41240845 72.14474376 L 58.587588749999995 72.14474376" />
<path class="stroke" d="M 47.5 57.854524968499994 L 47.6065995 87.16035392799999" />
<path class="stroke" d="M 35.0279187 90.88705759 L 60.1852775 83.69984969" />
</svg>
