<?xml version="1.0" standalone="no"?>
<!DOCTYPE svg PUBLIC "-//W3C//DTD SVG 1.1//EN" "http://www.w3.org/Graphics/SVG/1.1/DTD/svg11.dtd">
<svg xmlns="http://www.w3.org/2000/svg" version="1.1" width="100%" height="100%">
<style type="text/css"><![CDATA[
  .stroke { fill:none; stroke:black; stroke-width:2 }
]]></style>
<path class="stroke" d="M 16.2461 5.205048 L 93.2177 5.205048" />
<path class="stroke" d="M 16.2461 5.205048 L 16.2461 33.78552 C 15.51 42.42906 11.9348 48.611999999999995 5.5205 53.280719999999995" />
<path class="stroke" d="M 30.12614 16.372211999999998 L 85.64664 16.372211999999998" />
<path class="stroke" d="M 16.561558 28.296504 L 92.586754 28.296504" />
<path class="stroke" d="M 31.0726 29.4321852 L 31.0726 53.848584 M 15.29969 56.309124 L 55.36279 50.441604" />
<path class="stroke" d="M 85.9622 32.460567 C 82.4921 37.255527 77.1293 40.7255676 69.8739 42.4921464" />
<path class="stroke" d="M 54.4164 28.485780000000002 C 57.0452 46.592999999999996 68.8223 52.96524 91.6404 55.93056" />
<path class="stroke" d="M 10.437956 69.88686055 L 89.270065 69.88686055" />
<path class="stroke" d="M 65.62044 64.06204364999999 L 65.62044 90.018247 C 65.62044 90.937956 64.45255 91.551093 61.824814 91.551093 L 53.941605 91.551093" />
<path class="stroke" d="M 26.49635 73.77007205 C 30.0 74.6897807 33.211678 76.0182477 35.839413 78.26642195" />
</svg>
