<?xml version="1.0" standalone="no"?>
<!DOCTYPE svg PUBLIC "-//W3C//DTD SVG 1.1//EN" "http://www.w3.org/Graphics/SVG/1.1/DTD/svg11.dtd">
<svg xmlns="http://www.w3.org/2000/svg" version="1.1" width="100%" height="100%">
<style type="text/css"><![CDATA[
  .stroke { fill:none; stroke:black; stroke-width:2 }
]]></style>
<path class="stroke" d="M 50.6309 6.290817105263159 L 50.6309 20.857565789473686" />
<path class="stroke" d="M 24.160583 8.40376447368421 C 28.248173 11.285055263157895 30.29197 13.974259868421052 32.919704 18.008066447368424" />
<path class="stroke" d="M 75.54744 8.40376447368421 C 73.795616 13.398001315789474 71.16788 15.318863157894738 67.37226 17.81598157894737" />
<path class="stroke" d="M 27.080292 26.08029066 L 27.080292 79.7094854" />
<path class="stroke" d="M 27.372261 26.08029066 L 72.9197 26.08029066 L 72.9197 79.7094854" />
<path class="stroke" d="M 27.382198 44.3861404 L 72.871284 44.3861404" />
<path class="stroke" d="M 27.382198 62.40990194 L 72.871284 62.40990194" />
<path class="stroke" d="M 27.372261 79.47006999999999 L 72.62773 79.47006999999999" />
<path class="stroke" d="M 33.211678 85.216056 C 30.875912 89.286126 27.080292 91.4408728 22.70073 92.3985344" />
<path class="stroke" d="M 67.9562 85.4554714 C 72.33576 86.413133 75.54744 88.5678798 78.17518 92.3985344" />
</svg>
