<?xml version="1.0" standalone="no"?>
<!DOCTYPE svg PUBLIC "-//W3C//DTD SVG 1.1//EN" "http://www.w3.org/Graphics/SVG/1.1/DTD/svg11.dtd">
<svg xmlns="http://www.w3.org/2000/svg" version="1.1" width="100%" height="100%">
<style type="text/css"><![CDATA[
  .stroke { fill:none; stroke:black; stroke-width:2 }
]]></style>
<path class="stroke" d="M 9.60396 33.069305 L 30.9901 30.9901" />
<path class="stroke" d="M 23.267326 9.60396 L 23.267326 84.15842 C 23.267326 87.42574 20.594059 90.09901 17.029703 90.09901" />
<path class="stroke" d="M 10.198019 63.36634 L 28.910892 46.435642" />
<path class="stroke" d="M 51.52997 8.04417 L 51.52997 26.6562 C 51.382760000000005 41.062 43.50685 47.897 34.526816 50.9464" />
<path class="stroke" d="M 51.750820000000004 8.04416 L 75.5994 8.04416 L 75.5994 36.7507 C 75.37854999999999 40.8516 77.14514 43.3753 79.57414 43.3753 L 94.905757 43.3753" />
<path class="stroke" d="M 44.68453 53.15461 L 81.56157999999999 53.15461 C 72.2135 77.23451 55.13672 89.01161 35.851734 94.16401" />
<path class="stroke" d="M 49.98423 53.15461 C 53.44377 75.65721 73.24396999999999 92.16621 95.03153999999999 93.84861" />
</svg>
