<?xml version="1.0" standalone="no"?>
<!DOCTYPE svg PUBLIC "-//W3C//DTD SVG 1.1//EN" "http://www.w3.org/Graphics/SVG/1.1/DTD/svg11.dtd">
<svg xmlns="http://www.w3.org/2000/svg" version="1.1" width="100%" height="100%">
<style type="text/css"><![CDATA[
  .stroke { fill:none; stroke:black; stroke-width:2 }
]]></style>
<path class="stroke" d="M 23.839414440000002 10.729925 C 20.07883072 18.029196 14.975180400000001 23.86861 10.140144320000001 28.540146 C 13.90072896 31.45985 18.467150800000002 36.131386 22.76496024 40.218975" />
<path class="stroke" d="M 34.04671416 25.912407 C 27.6 34.67153 19.00437836 45.18248 8.25985384 56.277367 C 17.929926 54.525543 28.674450520000004 52.48175 38.3445236 50.437954" />
<path class="stroke" d="M 35.1211656 43.430653 C 37.807296040000004 46.642334 38.61313784 49.85401 40.22481592 55.40146" />
<path class="stroke" d="M 24.376642 54.233574 L 24.376642 89.56204" />
<path class="stroke" d="M 16.04963276 65.03649 C 14.4379556 70.87591 12.55766236 74.67153 8.79707864 78.75912" />
<path class="stroke" d="M 31.3605828 65.32846 C 34.315325640000005 68.540146 34.363242 68.81081 35.855132399999995 71.72973" />
<path class="stroke" d="M 48.504716 10.110403999999999 L 48.504716 39.132540000000006" />
<path class="stroke" d="M 48.504716 10.110403999999999 L 85.981076 10.110403999999999 L 86.170376 39.132632" />
<path class="stroke" d="M 48.693985999999995 24.331304 L 85.981106 24.331304" />
<path class="stroke" d="M 48.504716 39.132540000000006 L 85.981076 39.132540000000006" />
<path class="stroke" d="M 46.0441658 52.7728004 L 46.0441658 80.9243404" />
<path class="stroke" d="M 46.0441658 52.7728004 L 89.009444 52.7728004 L 89.009444 80.92424840000001" />
<path class="stroke" d="M 46.2334658 66.9937004 L 89.009444 66.9937004" />
<path class="stroke" d="M 46.0441658 80.9243404 L 89.009444 80.9243404" />
<path class="stroke" d="M 67.43216 10.110472999999999 L 67.43216 85.2776056 C 67.43216 87.7928856 69.13561999999999 90.5983336 70.83908 90.2113816 L 90.90224 90.2113816 C 92.54264 90.2113816 94.37227999999999 88.76026560000001 94.30915999999999 85.2776056 L 94.30915999999999 80.34382959999999" />
</svg>
