<?xml version="1.0" standalone="no"?>
<!DOCTYPE svg PUBLIC "-//W3C//DTD SVG 1.1//EN" "http://www.w3.org/Graphics/SVG/1.1/DTD/svg11.dtd">
<svg xmlns="http://www.w3.org/2000/svg" version="1.1" width="100%" height="100%">
<style type="text/css"><![CDATA[
  .stroke { fill:none; stroke:black; stroke-width:2 }
]]></style>
<path class="stroke" d="M 52.48175 6.41021898 L 52.48175 27.210216900000002" />
<path class="stroke" d="M 52.48175 13.545984240000001 L 77.00729 13.545984240000001" />
<path class="stroke" d="M 30.583939 14.001458999999999 L 30.583939 27.210216900000002" />
<path class="stroke" d="M 9.854013 27.210216900000002 L 90.43795 27.210216900000002" />
<path class="stroke" d="M 13.999998 43.04864784 L 13.999998 73.7037768 C 13.999998 85.39243280000001 11.0810795 88.9210752 6.15142 93.817116" />
<path class="stroke" d="M 13.351351 42.82810752 L 93.13513 43.04864784" />
<path class="stroke" d="M 69.252335 35.401869680000004 L 69.252335 56.50093416 C 71.869156 82.9383196 73.0284 93.74551199999999 85.9622 93.602508 L 89.4321 93.602508 C 92.2713 93.709812 94.278 92.416248 94.164 89.955804 L 94.164 87.381732" />
<path class="stroke" d="M 85.6467 61.854872 C 74.816 79.08722800000001 67.623634 91.62458520000001 56.810806 92.6702654" />
<path class="stroke" d="M 80.5994 34.6119844 C 82.75675 35.77081048 84.17167 37.14669664 85.675674 38.63783736" />
<path class="stroke" d="M 17.16350268 54.548 L 60.836493000000004 54.548" />
<path class="stroke" d="M 39.00285498 59.795237177888005 L 39.00285498 89.90789761375999 C 39.00285498 90.77178523472 38.13284478 91.26543620960001 37.502189040000005 91.26543620960001 L 36.3985392 91.26543620960001" />
<path class="stroke" d="M 26.46569226 71.02577794112 C 25.677371100000002 75.34521815936 23.31240816 79.04759518736 20.001458640000003 82.00949723244801" />
<path class="stroke" d="M 50.1153276 71.02577794112 C 53.2686117 73.61744291744 55.94890224 77.07299466934401 57.52554456 82.256320817792" />
</svg>
