<?xml version="1.0" standalone="no"?>
<!DOCTYPE svg PUBLIC "-//W3C//DTD SVG 1.1//EN" "http://www.w3.org/Graphics/SVG/1.1/DTD/svg11.dtd">
<svg xmlns="http://www.w3.org/2000/svg" version="1.1" width="100%" height="100%">
<style type="text/css"><![CDATA[
  .stroke { fill:none; stroke:black; stroke-width:2 }
]]></style>
<path class="stroke" d="M 49.05361 5.52051 L 49.05361 13.09153" />
<path class="stroke" d="M 12.1451 13.72242 L 92.9022 13.72242" />
<path class="stroke" d="M 12.145143 14.037857 L 12.145143 61.04096 C 12.565743 75.34166 10.778143 84.91056 5.835963 94.479454" />
<path class="stroke" d="M 12.443892 24.114716 L 81.700386 24.18324 L 81.700386 33.93576" />
<path class="stroke" d="M 38.488987 14.037906 L 38.488987 33.93576" />
<path class="stroke" d="M 61.04105 14.037906 L 61.04105 33.93576" />
<path class="stroke" d="M 12.743143 33.690777 L 81.700386 33.93576" />
<path class="stroke" d="M 12.443892 42.967583 L 92.643394 42.967583 C 92.643394 45.960102 91.74564 50.149628 88.45387 53.74065" />
<path class="stroke" d="M 28.95624 55.0135584 C 28.283360000000002 58.4526564 26.60096 60.716408400000006 23.65656 63.2413116" />
<path class="stroke" d="M 41.574512 52.9239762 L 41.574512 64.02493079999999 C 41.574512 65.2003182 43.088752 65.983896 45.360032000000004 65.983896 L 72.61555200000001 65.983896 C 74.718592 65.983896 76.569312 65.0697012 76.653392 63.6331212 L 76.653392 61.41292200000001" />
<path class="stroke" d="M 51.16448 52.92398448 C 55.5388 54.92650248 58.39896 57.059637480000006 61.00672 59.845733280000005" />
<path class="stroke" d="M 76.65335999999999 53.0545932 C 81.95304 55.4923908 85.23384 57.930354 88.51456 61.282346399999994" />
<path class="stroke" d="M 49.5109464 72.086714712 C 44.138684 75.7129926 35.029196 79.5004371 25.6861296 81.9179556" />
<path class="stroke" d="M 46.7080264 74.181897504 L 67.496352 74.181897504 C 59.087592 80.789779932 41.102188 88.44525348 23.116788 92.63561796" />
<path class="stroke" d="M 37.8321168 78.130510824 C 47.0 83.98064546399999 65.8613096 89.49284598 85.715328 92.63561796" />
</svg>
