<?xml version="1.0" standalone="no"?>
<!DOCTYPE svg PUBLIC "-//W3C//DTD SVG 1.1//EN" "http://www.w3.org/Graphics/SVG/1.1/DTD/svg11.dtd">
<svg xmlns="http://www.w3.org/2000/svg" version="1.1" width="100%" height="100%">
<style type="text/css"><![CDATA[
  .stroke { fill:none; stroke:black; stroke-width:2 }
]]></style>
<path class="stroke" d="M 13.154171785714285 14.059406 C 16.654879285714284 16.138615 20.15558785714286 19.108912 23.01980357142857 22.673267" />
<path class="stroke" d="M 10.926448928571428 38.118813 C 14.108912142857141 39.90099 17.927864999999997 42.574257 20.473834285714286 46.138615" />
<path class="stroke" d="M 10.608203571428572 85.64356 C 11.321795357142857 87.422676 13.310014285714285 89.896904 15.629600357142856 89.896904 C 17.949189642857142 89.896904 21.110325 76.73267 23.33804892857143 69.60396" />
<path class="stroke" d="M 35.764975 3.3313405172413795 L 62.5 3.3313405172413795 C 56.11195 12.804137931034482 48.067825 17.65383620689655 30.3233425 22.775474137931035" />
<path class="stroke" d="M 36.9479185 9.72210775862069 C 39.3926935 10.900512931034482 41.1277435 12.21490948275862 42.86279425 13.665297413793102" />
<path class="stroke" d="M 83.32021 3.8752306034482755 L 73.619935 9.178196120689654" />
<path class="stroke" d="M 62.736549999999994 3.467310344827586 C 69.44005 13.257413793103447 79.45585 18.96823275862069 94.67665 23.047456896551722" />
<path class="stroke" d="M 91.8375325 9.993995689655172 L 82.6103575 15.025030172413791" />
<path class="stroke" d="M 37.445944749999995 34.77026875 L 86.094595 34.77026875" />
<path class="stroke" d="M 43.5583915 48.37591075 L 43.5583915 63.704376249999996" />
<path class="stroke" d="M 43.5583915 48.5948875 L 81.222625 48.5948875 L 81.222625 63.704376249999996" />
<path class="stroke" d="M 43.5583915 63.704376249999996 L 81.222625 63.704376249999996" />
<path class="stroke" d="M 48.81386725 69.835765 C 51.87955975 75.09123625 53.850362499999996 82.0985395 54.9452545 89.324815" />
<path class="stroke" d="M 74.653285 69.835765 C 73.7773675 76.62408625 71.80656400000001 83.4124075 68.52189849999999 89.76276999999999" />
<path class="stroke" d="M 32.60948875 90.20072499999999 L 92.3905075 90.20072499999999" />
</svg>
