<?xml version="1.0" standalone="no"?>
<!DOCTYPE svg PUBLIC "-//W3C//DTD SVG 1.1//EN" "http://www.w3.org/Graphics/SVG/1.1/DTD/svg11.dtd">
<svg xmlns="http://www.w3.org/2000/svg" version="1.1" width="100%" height="100%">
<style type="text/css"><![CDATA[
  .stroke { fill:none; stroke:black; stroke-width:2 }
]]></style>
<path class="stroke" d="M 44.3217 5.5430399999999995 C 39.8002 11.942314285714286 33.3859 18.88242857142857 24.7635 23.659285714285712 M 11.198757 25.01125714285714 C 31.493156 23.929714285714283 59.043056 21.225771428571427 78.07576 17.169857142857143" />
<path class="stroke" d="M 68.6121 9.869314285714285 C 76.7088 15.096942857142857 80.7045 18.431742857142854 85.3312 24.740914285714283" />
<path class="stroke" d="M 27.8248169 37.09489 L 27.8248169 61.38686" />
<path class="stroke" d="M 27.8248169 37.09489 L 72.37956 37.09489 L 72.37956 61.153284" />
<path class="stroke" d="M 27.8248169 59.518246399999995 L 72.37956 59.518246399999995" />
<path class="stroke" d="M 17.4453 75.7492 C 16.6042 81.97945 14.5012 86.08045 10.8207 90.65455" />
<path class="stroke" d="M 33.21814 71.963725 L 33.21814 92.07415 C 33.21814 94.203475 35.11094 95.623 37.95004 95.623 L 72.01944 95.623 C 74.64824 95.623 76.96164 93.96685 77.06674 91.36435 L 77.06674 87.34225" />
<path class="stroke" d="M 45.2056 71.96374 C 50.6735 75.59149 54.2487 79.455865 57.5084 84.50314" />
<path class="stroke" d="M 77.0667 72.20035 C 83.6913 76.61664999999999 87.7923 81.03325 91.8932 87.1057" />
</svg>
