<?xml version="1.0" standalone="no"?>
<!DOCTYPE svg PUBLIC "-//W3C//DTD SVG 1.1//EN" "http://www.w3.org/Graphics/SVG/1.1/DTD/svg11.dtd">
<svg xmlns="http://www.w3.org/2000/svg" version="1.1" width="100%" height="100%">
<style type="text/css"><![CDATA[
  .stroke { fill:none; stroke:black; stroke-width:2 }
]]></style>
<path class="stroke" d="M 30.446110625 5.83596 C 25.661524874999998 18.87483 15.632712375 32.54463 5.327741125 38.64353" />
<path class="stroke" d="M 7.811969375 8.04417 C 17.932936875 17.7182 26.397686874999998 33.0705 26.305636875 61.6719 L 26.305636875 77.4448 C 26.673661 85.6467 24.557561 96.0569 17.1967985 95.7414 L 12.639624375 95.7414" />
<path class="stroke" d="M 23.269325625 34.22716 C 23.361375625 49.47426 14.068438125 62.82856 5.327748124999999 67.03466" />
<path class="stroke" d="M 67.58539830000001 10.720802925000001 L 67.58539830000001 20.034670575" />
<path class="stroke" d="M 45.5518240425 20.2463481 L 45.5518240425 30.406932375" />
<path class="stroke" d="M 45.5518240425 20.2463481 L 89.61897285 20.2463481 L 89.61897285 30.406932375" />
<path class="stroke" d="M 41.7846714 43.903648020000006 L 93.02554225 43.903648020000006" />
<path class="stroke" d="M 77.65328600000001 31.58832086 L 77.65328600000001 86.4671508 C 77.65328600000001 88.4116784 76.8941575 89.7080252 75.1861291 89.7080252 L 70.06204325 89.7080252" />
<path class="stroke" d="M 52.2226275 52.113866619999996 C 54.5 54.05839348 56.5875907 56.86715228 58.295618450000006 61.62043498" />
</svg>
