<?xml version="1.0" standalone="no"?>
<!DOCTYPE svg PUBLIC "-//W3C//DTD SVG 1.1//EN" "http://www.w3.org/Graphics/SVG/1.1/DTD/svg11.dtd">
<svg xmlns="http://www.w3.org/2000/svg" version="1.1" width="100%" height="100%">
<style type="text/css"><![CDATA[
  .stroke { fill:none; stroke:black; stroke-width:2 }
]]></style>
<path class="stroke" d="M 27.28702 4.484824096385543 C 30.86222 5.954414457831325 33.49102 8.032149397590361 34.85802 9.95778795180723" />
<path class="stroke" d="M 71.45113 4.484824096385543 C 69.76863 6.96790843373494 67.45533 8.386848192771083 64.19553 9.957836144578314" />
<path class="stroke" d="M 16.24608 12.54227951807229 L 85.01578 12.54227951807229" />
<path class="stroke" d="M 8.044165 20.599730120481926 L 92.586716 20.599730120481926" />
<path class="stroke" d="M 51.2618 3.420621686746988 C 49.369 18.57267469879518 31.7035 29.620048192771083 8.04416 36.56265060240964" />
<path class="stroke" d="M 53.7855 12.694313253012048 C 59.674 22.981493975903614 73.7644 31.596385542168676 92.5868 36.56265060240964" />
<path class="stroke" d="M 28.248173 37.136634 L 28.248173 70.05547208000002" />
<path class="stroke" d="M 28.350513 37.080412280000004 L 76.59794 37.080412280000004" />
<path class="stroke" d="M 52.51272 37.186104 L 52.51272 70.05547208000002" />
<path class="stroke" d="M 28.248173 48.017518 L 72.04379 48.017518" />
<path class="stroke" d="M 28.540146 59.334304440000004 L 72.04379 59.334304440000004" />
<path class="stroke" d="M 28.248173 70.05547208000002 L 87.81021 70.05547208000002 C 87.81021 85.34306208000001 84.59853 91.497806 78.17518 91.497806" />
<path class="stroke" d="M 15.985401 77.7985396 C 15.109488 80.37955780000001 13.357662 83.357662 10.437956 84.9459856" />
<path class="stroke" d="M 29.708027 77.00437712 C 31.751823 78.9897772 33.211678 81.3722592 34.08759 85.1445252" />
<path class="stroke" d="M 48.10219 76.60729928 C 50.437954 78.9897772 52.189777 81.3722592 53.357662 84.1518204" />
<path class="stroke" d="M 67.37226 75.8131368 C 70.0 78.39415840000001 71.45985 79.7839424 72.62773 82.9605828" />
</svg>
