<?xml version="1.0" standalone="no"?>
<!DOCTYPE svg PUBLIC "-//W3C//DTD SVG 1.1//EN" "http://www.w3.org/Graphics/SVG/1.1/DTD/svg11.dtd">
<svg xmlns="http://www.w3.org/2000/svg" version="1.1" width="100%" height="100%">
<style type="text/css"><![CDATA[
  .stroke { fill:none; stroke:black; stroke-width:2 }
]]></style>
<path class="stroke" d="M 11.313868 17.445253 C 15.401459 18.029196 19.48905 20.364962 22.408756 24.160583" />
<path class="stroke" d="M 9.270073 47.226276 C 13.357662 47.226276 18.321167 46.934303 23.86861 43.138683 C 16.27737 53.357662 14.233576 58.321167 15.109488 60.9489 C 15.69343 63.284668 20.948904 65.62044 22.116787 68.832115 C 23.576641 72.33576 18.129246 80.26506 11.021896 83.722626" />
<path class="stroke" d="M 11.021896 84.014595 C 39.692924 81.65476 40.51095 91.313866 90.43795 90.14598" />
<path class="stroke" d="M 58.2992664 9.54160568 C 54.927486 31.045268 47.182942 49.24563199999999 30.85985402 62.27152879999999" />
<path class="stroke" d="M 31.29196962 24.391123999999998 L 90.924083 24.391123999999998" />
<path class="stroke" d="M 52.7184814824 40.152554006 L 52.7184814824 63.7583918 C 52.7184814824 68.99208026 52.7184814824 71.1877214 52.7184814824 76.265150372" />
<path class="stroke" d="M 52.7184814824 40.152554006 L 78.731913152 40.152554006 L 78.731913152 75.35897618 C 78.731913152 76.43810192000001 77.988667956 77.3823329 76.13056705759999 77.3823329 L 74.08665772399999 77.3823329" />
<path class="stroke" d="M 52.7184814824 50.320510574000004 L 78.731913152 50.320510574000004" />
<path class="stroke" d="M 52.7184814824 61.060975232000004 L 78.731913152 61.060975232000004" />
</svg>
