<?xml version="1.0" standalone="no"?>
<!DOCTYPE svg PUBLIC "-//W3C//DTD SVG 1.1//EN" "http://www.w3.org/Graphics/SVG/1.1/DTD/svg11.dtd">
<svg xmlns="http://www.w3.org/2000/svg" version="1.1" width="100%" height="100%">
<style type="text/css"><![CDATA[
  .stroke { fill:none; stroke:black; stroke-width:2 }
]]></style>
<path class="stroke" d="M 9.854013 5.839414999999999 L 9.854013 12.9926985" />
<path class="stroke" d="M 9.854013 5.5474435 L 90.14598 5.5474435 L 90.14598 13.138683499999999" />
<path class="stroke" d="M 37.007298 8.398539320000001 L 37.007298 20.889049040000003 C 37.007298 31.902187800000004 29.416058 42.78101944 10.437956 45.601457" />
<path class="stroke" d="M 54.233574 8.264233579999999 L 54.233574 39.9605828 C 54.233574 43.31824700000001 58.029198 45.3328446 62.116783 45.3328446 L 84.8905 45.3328446 C 88.10219 45.4671508 90.43795 44.3926966 90.43795 42.9153238 L 90.43795 40.36350324000001" />
<path class="stroke" d="M 20.07299 61.934305 L 80.21897 61.934305" />
<path class="stroke" d="M 50.14598 54.489051 L 50.14598 95.36496" />
<path class="stroke" d="M 50.14598 64.4160575 C 40.51095 75.656933 28.832115 81.642334 13.649633 84.70802499999999" />
<path class="stroke" d="M 50.14598 64.4160575 C 59.197075 75.8029175 71.45985 81.7883185 86.642334 84.4160575" />
</svg>
