<?xml version="1.0" standalone="no"?>
<!DOCTYPE svg PUBLIC "-//W3C//DTD SVG 1.1//EN" "http://www.w3.org/Graphics/SVG/1.1/DTD/svg11.dtd">
<svg xmlns="http://www.w3.org/2000/svg" version="1.1" width="100%" height="100%">
<style type="text/css"><![CDATA[
  .stroke { fill:none; stroke:black; stroke-width:2 }
]]></style>
<path class="stroke" d="M 56.237625 9.306931 C 57.72277 12.574257 58.91089 15.544554 58.91089 19.108912" />
<path class="stroke" d="M 27.956203 19.197079 L 86.9343 19.197079" />
<path class="stroke" d="M 27.956203 19.197079 L 27.956203 36.131386 C 27.956203 56.861313 21.532845 72.62773 6.159601 93.8404" />
<path class="stroke" d="M 35.52673216 35.60491244 L 87.04356480000001 35.60491244" />
<path class="stroke" d="M 49.998918399999994 27.896376581600002 L 49.998918399999994 51.911696336000006" />
<path class="stroke" d="M 72.20864639999999 27.8792645204 L 72.20864639999999 52.0078265624" />
<path class="stroke" d="M 49.998918399999994 52.200084644 L 72.00107904000001 52.200084644" />
<path class="stroke" d="M 46.249583488 61.04653436 L 75.45639808 61.04653436 C 68.810532992 76.22178263 57.617504460800006 83.6356448 38.029702912000005 90.12277220000001" />
<path class="stroke" d="M 45.5500196096 64.52178263 C 48.1545787648 71.70645077 57.2714825984 77.61935504000002 60.310449561599995 80.2612907 C 65.818578176 84.2870969 75.6952236032 87.30644960000001 85.075405824 90.12277220000001" />
</svg>
