<?xml version="1.0" standalone="no"?>
<!DOCTYPE svg PUBLIC "-//W3C//DTD SVG 1.1//EN" "http://www.w3.org/Graphics/SVG/1.1/DTD/svg11.dtd">
<svg xmlns="http://www.w3.org/2000/svg" version="1.1" width="100%" height="100%">
<style type="text/css"><![CDATA[
  .stroke { fill:none; stroke:black; stroke-width:2 }
]]></style>
<path class="stroke" d="M 13.154171785714285 14.059406 C 16.654879285714284 16.138615 20.15558785714286 19.108912 23.01980357142857 22.673267" />
<path class="stroke" d="M 10.926448928571428 38.118813 C 14.108912142857141 39.90099 17.927864999999997 42.574257 20.473834285714286 46.138615" />
<path class="stroke" d="M 10.608203571428572 85.64356 C 11.321795357142857 87.422676 13.310014285714285 89.896904 15.629600357142856 89.896904 C 17.949189642857142 89.896904 21.110325 76.73267 23.33804892857143 69.60396" />
<path class="stroke" d="M 35.89853867 14.9087585 L 91.1014533 14.9087585" />
<path class="stroke" d="M 52.3102169 7.97445105 L 52.3102169 22.397808949999998" />
<path class="stroke" d="M 74.6897758 7.97445105 L 74.6897758 22.397808949999998" />
<path class="stroke" d="M 45.06350106 31.15839385 L 45.06350106 58.381748800000004" />
<path class="stroke" d="M 45.06350106 31.15839385 L 81.723355 31.15839385 L 81.723355 58.381748800000004" />
<path class="stroke" d="M 45.27664135 44.028487909999996 L 81.5102169 44.028487909999996" />
<path class="stroke" d="M 45.06350106 57.19342868 L 81.723355 57.19342868" />
<path class="stroke" d="M 38.24306507 72.9525543 L 88.970065 72.9525543" />
<path class="stroke" d="M 63.6065654 63.24452555 L 63.6065654 74.07664125 C 63.6065654 81.9452555 52.413450579999996 90.0331199 34.83284525 91.857665" />
<path class="stroke" d="M 63.6065654 73.9744521 C 63.6065654 82.047445 75.0365477 90.014572 92.38028919999999 91.857665" />
</svg>
