<?xml version="1.0" standalone="no"?>
<!DOCTYPE svg PUBLIC "-//W3C//DTD SVG 1.1//EN" "http://www.w3.org/Graphics/SVG/1.1/DTD/svg11.dtd">
<svg xmlns="http://www.w3.org/2000/svg" version="1.1" width="100%" height="100%">
<style type="text/css"><![CDATA[
  .stroke { fill:none; stroke:black; stroke-width:2 }
]]></style>
<path class="stroke" d="M 9.60396 33.069305 L 30.9901 30.9901" />
<path class="stroke" d="M 23.267326 9.60396 L 23.267326 84.15842 C 23.267326 87.42574 20.594059 90.09901 17.029703 90.09901" />
<path class="stroke" d="M 10.198019 63.36634 L 28.910892 46.435642" />
<path class="stroke" d="M 65.0 5.22262755 L 65.0 12.1861314" />
<path class="stroke" d="M 45.481750899999994 12.58029135 L 84.92700500000001 12.58029135" />
<path class="stroke" d="M 48.7518233 18.229927500000002 C 52.839414500000004 22.9598532 55.9051086 29.135033999999997 57.5401441 35.178831" />
<path class="stroke" d="M 81.8613095 17.178831 C 76.956203 22.040145 72.8686125 29.529198 71.84671399999999 37.2810195" />
<path class="stroke" d="M 37.919707599999995 38.594889 L 91.67153299999998 38.594889" />
<path class="stroke" d="M 61.67326679999999 51.91584135 C 60.8415842 60.73762355 55.6435641 71.51980265 50.6534657 76.58415865 C 62.0364954 78.521895 78.1824805 84.784668 86.357665 92.6532837" />
<path class="stroke" d="M 78.099009 61.8811885 C 72.9009924 80.504953 62.0891081 87.529707 46.094889300000006 92.171531" />
<path class="stroke" d="M 36.8978091 64.55109365 L 92.897807 64.55109365" />
</svg>
