<?xml version="1.0" standalone="no"?>
<!DOCTYPE svg PUBLIC "-//W3C//DTD SVG 1.1//EN" "http://www.w3.org/Graphics/SVG/1.1/DTD/svg11.dtd">
<svg xmlns="http://www.w3.org/2000/svg" version="1.1" width="100%" height="100%">
<style type="text/css"><![CDATA[
  .stroke { fill:none; stroke:black; stroke-width:2 }
]]></style>
<path class="stroke" d="M 54.10092 6.46688 L 54.10092 14.66882" />
<path class="stroke" d="M 18.7697 14.98422 L 93.8486 14.98422" />
<path class="stroke" d="M 18.7697 15.2997 L 18.7697 59.7792 C 19.0852 71.2408 14.6687 79.2323 6.46688 87.5394" />
<path class="stroke" d="M 5.83596 25.07884 C 8.78023 28.65404 10.4627 32.22924 11.8297 36.43534" />
<path class="stroke" d="M 6.15141 58.20189 C 8.14931 57.04519 10.4627 54.62679 12.1451 52.20829" />
<path class="stroke" d="M 59.451091520000006 28.26204225 C 52.443795200000004 31.63430576 44.035035199999996 33.88248092 36.467152639999995 35.23138617" />
<path class="stroke" d="M 30.58102016 51.643062990000004 L 63.3751808 48.72043559" />
<path class="stroke" d="M 48.8 32.75839334 L 48.8 86.71459718000001" />
<path class="stroke" d="M 48.8 54.56569039 C 42.35328512 64.00802714 37.027736000000004 70.0780973 29.740145599999998 72.77591242" />
<path class="stroke" d="M 48.8 54.56569039 C 54.68613056 57.26350089 58.04963168 59.51167682 60.852550400000005 63.33357259" />
<path class="stroke" d="M 74.527412 29.351727 L 74.527412 72.83124" />
<path class="stroke" d="M 88.74821999999999 25.2223941 L 88.74821999999999 84.733438 C 88.845004 89.024725 85.749296 91.129905 82.07316 91.048901 L 78.88076000000001 91.048901" />
</svg>
