<?xml version="1.0" standalone="no"?>
<!DOCTYPE svg PUBLIC "-//W3C//DTD SVG 1.1//EN" "http://www.w3.org/Graphics/SVG/1.1/DTD/svg11.dtd">
<svg xmlns="http://www.w3.org/2000/svg" version="1.1" width="100%" height="100%">
<style type="text/css"><![CDATA[
  .stroke { fill:none; stroke:black; stroke-width:2 }
]]></style>
<path class="stroke" d="M 23.3211663 10.729925 C 19.6423344 18.029196 14.649633000000001 23.86861 9.9197064 28.540146 C 13.598539200000001 31.45985 18.065691 36.131386 22.2700698 40.218975" />
<path class="stroke" d="M 33.3065682 25.912407 C 27.0 34.67153 18.5912397 45.18248 8.0802918 56.277367 C 17.540145 54.525543 28.0510929 52.48175 37.510947 50.437954" />
<path class="stroke" d="M 34.357662 43.430653 C 36.9853983 46.642334 37.7737218 49.85401 39.3503634 55.40146" />
<path class="stroke" d="M 23.846715 54.233574 L 23.846715 89.56204" />
<path class="stroke" d="M 15.700727700000002 65.03649 C 14.124087 70.87591 12.2846697 74.67153 8.6058378 78.75912" />
<path class="stroke" d="M 30.678831 65.32846 C 33.5693403 68.540146 33.616215 68.81081 35.075672999999995 71.72973" />
<path class="stroke" d="M 52.1087585 24.3197077 L 52.1087585 90.15911899999999" />
<path class="stroke" d="M 52.1087585 24.3197077 L 86.89124149999999 24.3197077 L 86.89124149999999 86.5678798 C 86.89124149999999 88.7226266 86.39196709999999 89.91970359999999 84.8941553 89.91970359999999 L 83.22992345 89.91970359999999" />
<path class="stroke" d="M 71.821603559 9.854013 C 70.174013258 29.416058 63.73342856 42.846714 57.44262755 50.14598" />
<path class="stroke" d="M 69.42510713 32.043793 C 72.870073472 35.255474 76.91415814999999 41.094887 79.46043365 50.437954" />
</svg>
