<?xml version="1.0" standalone="no"?>
<!DOCTYPE svg PUBLIC "-//W3C//DTD SVG 1.1//EN" "http://www.w3.org/Graphics/SVG/1.1/DTD/svg11.dtd">
<svg xmlns="http://www.w3.org/2000/svg" version="1.1" width="100%" height="100%">
<style type="text/css"><![CDATA[
  .stroke { fill:none; stroke:black; stroke-width:2 }
]]></style>
<path class="stroke" d="M 20.7344878125 9.562042 C 24.019160625 11.021896 27.30382875 14.817516 29.493609375 19.48905" />
<path class="stroke" d="M 9.2381371875 22.8707 L 39.89506875 22.8707" />
<path class="stroke" d="M 15.260034375000002 37.007298 L 33.873174375 37.007298" />
<path class="stroke" d="M 15.260034375000002 51.313866 L 33.873174375 51.313866" />
<path class="stroke" d="M 14.165145 64.45255 L 14.165145 85.76642" />
<path class="stroke" d="M 14.165145 64.16058 L 35.515509375 64.16058 L 35.515509375 85.76642" />
<path class="stroke" d="M 14.165145 85.76642 L 35.2417875 85.76642" />
<path class="stroke" d="M 46.90852 9.93691 L 92.52364 9.93691" />
<path class="stroke" d="M 52.96534 19.0852 C 56.87698 24.1325 59.5018378 36.775917 60.952877799999996 44.031414" />
<path class="stroke" d="M 86.46688 20.0316 C 85.455496 28.952877 82.1409544 39.403347 78.481672 44.345547" />
<path class="stroke" d="M 43.9895284 55.026176 L 96.38743600000001 55.026176" />
<path class="stroke" d="M 70.18926400000001 10.2524 L 70.18926400000001 94.164" />
</svg>
