<?xml version="1.0" standalone="no"?>
<!DOCTYPE svg PUBLIC "-//W3C//DTD SVG 1.1//EN" "http://www.w3.org/Graphics/SVG/1.1/DTD/svg11.dtd">
<svg xmlns="http://www.w3.org/2000/svg" version="1.1" width="100%" height="100%">
<style type="text/css"><![CDATA[
  .stroke { fill:none; stroke:black; stroke-width:2 }
]]></style>
<path class="stroke" d="M 21.025528301886794 5.5205 L 21.025528301886794 16.877" />
<path class="stroke" d="M 6.294268867924528 17.1924 L 36.651396226415095 17.1924 C 29.86429245283019 37.2765 19.68622641509434 51.9978 5.49074716981132 60.7256" />
<path class="stroke" d="M 21.025528301886794 47.1609 L 21.025528301886794 94.795" />
<path class="stroke" d="M 39.238811320754714 39.2744 C 38.34594339622642 43.2702 36.649613207547176 46.6351 34.41761320754717 48.4228" />
<path class="stroke" d="M 21.29340566037736 46.5299 C 28.078641509433965 50.6309 32.1855283018868 55.6783 36.56029245283019 63.5646" />
<path class="stroke" d="M 61.430585199999996 8.99053 C 57.95426806 18.1388 53.93850349 24.448 48.84384919 28.8644" />
<path class="stroke" d="M 80.6703538 8.99054 C 84.0867628 16.877 88.0425628 23.1861 93.0772588 27.6025" />
<path class="stroke" d="M 71.320165 19.71604 C 64.487347 39.27444 57.834421 50.94644 46.5063094 58.51734" />
<path class="stroke" d="M 71.320165 19.71604 C 77.85333399999999 39.37954 84.026776 50.84114 96.31386699999999 58.51734" />
<path class="stroke" d="M 58.0141876 60.09469 L 58.1940226 91.64039" />
<path class="stroke" d="M 58.0141876 60.09469 L 84.6261196 60.09469 L 84.80595459999999 91.64039" />
<path class="stroke" d="M 58.1940226 91.64039 L 84.80595459999999 91.64039" />
</svg>
