<?xml version="1.0" standalone="no"?>
<!DOCTYPE svg PUBLIC "-//W3C//DTD SVG 1.1//EN" "http://www.w3.org/Graphics/SVG/1.1/DTD/svg11.dtd">
<svg xmlns="http://www.w3.org/2000/svg" version="1.1" width="100%" height="100%">
<style type="text/css"><![CDATA[
  .stroke { fill:none; stroke:black; stroke-width:2 }
]]></style>
<path class="stroke" d="M 9.8978088 19.319342624999997 L 9.8978088 57.947076" />
<path class="stroke" d="M 9.8978088 19.319342624999997 L 29.9854 19.319342624999997 L 29.9854 57.947076" />
<path class="stroke" d="M 10.014598 37.580962575 L 29.868612000000002 37.580962575" />
<path class="stroke" d="M 9.8978088 56.2609461 L 29.9854 56.2609461" />
<path class="stroke" d="M 52.197079 11.8211675 L 83.905108 11.0036494 C 83.204374 18.6678829 81.802918 23.164232799999997 79.87591 28.989051099999998 C 78.82481200000001 31.748174249999998 76.8978076 35.937956 73.218976 35.937956 L 71.2919692 35.937956" />
<path class="stroke" d="M 63.058391799999995 11.61678745 L 61.30657 17.8503634 C 58.503647799999996 25.821165399999998 53.423356600000005 30.93065475 49.043794 35.22262599999999" />
<path class="stroke" d="M 47.9927002 46.20802875 L 47.9927002 67.4635025" />
<path class="stroke" d="M 47.9927002 46.20802875 L 86.18248 46.20802875 L 86.18248 67.2591235" />
<path class="stroke" d="M 47.9927002 65.82846559999999 L 86.18248 65.82846559999999" />
<path class="stroke" d="M 18.613138 77.00729 C 18.029196 82.55474 15.69343 87.22627 11.89781 89.85401" />
<path class="stroke" d="M 35.255474 77.88321 C 38.46715 81.678825 40.218975 85.18248 41.67883 90.14598" />
<path class="stroke" d="M 59.197075 78.17518 C 62.408752 81.678825 63.868607 85.47445 65.32846 90.43795" />
<path class="stroke" d="M 81.386856 78.17518 C 84.8905 81.678825 86.9343 84.8905 88.68613 90.43795" />
</svg>
