<?xml version="1.0" standalone="no"?>
<!DOCTYPE svg PUBLIC "-//W3C//DTD SVG 1.1//EN" "http://www.w3.org/Graphics/SVG/1.1/DTD/svg11.dtd">
<svg xmlns="http://www.w3.org/2000/svg" version="1.1" width="100%" height="100%">
<style type="text/css"><![CDATA[
  .stroke { fill:none; stroke:black; stroke-width:2 }
]]></style>
<path class="stroke" d="M 28.766420899999996 10.729925 C 23.656934 15.109488 17.525546499999997 18.029196 12.0072988 19.781021" />
<path class="stroke" d="M 7.715327199999999 41.094887 L 31.627735999999995 37.299267" />
<path class="stroke" d="M 21.0 16.569342 L 21.0 86.642334" />
<path class="stroke" d="M 21.0 44.890507 C 16.2992704 57.153282 12.416057499999999 65.03649 7.102189499999999 68.540146" />
<path class="stroke" d="M 21.0 44.890507 C 25.291970199999998 48.394157 27.7445231 51.313866 29.788318 56.277367" />
<path class="stroke" d="M 35.7539434 18.7996629 L 95.8170412 18.7996629" />
<path class="stroke" d="M 42.6183088 30.723912300000002 L 42.6183088 61.7271573" />
<path class="stroke" d="M 42.6183088 30.723912300000002 L 88.95269280000001 30.723912300000002 L 88.95269280000001 61.7271573" />
<path class="stroke" d="M 42.8328012 45.430626000000004 L 88.5237012 45.430626000000004" />
<path class="stroke" d="M 42.6183088 61.7271573 L 88.95269280000001 61.7271573" />
<path class="stroke" d="M 65.78546 7.4716077 L 65.78546 61.528386" />
<path class="stroke" d="M 43.862804 74.13248 C 43.290856 80.77808 41.860816 85.15248000000001 39.358076 90.03152" />
<path class="stroke" d="M 54.5883352 70.09464 L 54.5883352 91.54576 C 54.5883352 93.81704 55.8754392 95.33120000000001 57.8060272 95.33120000000001 L 80.9732192 95.33120000000001 C 82.7608032 95.33120000000001 84.3339152 93.56464 84.4053832 90.78864 L 84.4053832 86.4984" />
<path class="stroke" d="M 62.739808 70.094656 C 66.45797999999999 73.964256 68.889116 78.086256 71.10571200000001 83.470016" />
<path class="stroke" d="M 84.40535600000001 70.34703999999999 C 88.91008400000001 75.05776 91.69876400000001 79.7688 94.487376 86.24607999999999" />
</svg>
