<?xml version="1.0" standalone="no"?>
<!DOCTYPE svg PUBLIC "-//W3C//DTD SVG 1.1//EN" "http://www.w3.org/Graphics/SVG/1.1/DTD/svg11.dtd">
<svg xmlns="http://www.w3.org/2000/svg" version="1.1" width="100%" height="100%">
<style type="text/css"><![CDATA[
  .stroke { fill:none; stroke:black; stroke-width:2 }
]]></style>
<path class="stroke" d="M 10.936948000000001 8.990532 L 10.936948000000001 40.53627" />
<path class="stroke" d="M 10.936948000000001 8.990532 L 33.990496 8.990532 L 33.990496 40.53627" />
<path class="stroke" d="M 10.936948000000001 40.53627 L 33.990496 40.53627" />
<path class="stroke" d="M 22.331253999999998 40.5363 L 22.331253999999998 89.1167" />
<path class="stroke" d="M 22.5962656 59.1483 L 35.845417600000005 59.1483" />
<path class="stroke" d="M 10.936948000000001 52.5236 L 10.936948000000001 92.2713" />
<path class="stroke" d="M 6.6971571999999995 93.8486 L 36.110403999999996 85.6467" />
<path class="stroke" d="M 69.0037184 8.08765632 L 69.0037184 41.094888159999996 C 69.0037184 42.251092 67.9372264 43.664231199999996 66.3021888 43.664231199999996 L 64.8306544 43.664231199999996" />
<path class="stroke" d="M 48.15328432 19.76934172 L 64.2656984 18.9219708 C 62.13686176 28.46439028 54.99823768 35.7081424 46.51824728 39.167880000000004" />
<path class="stroke" d="M 87.907476 15.81529492 C 83.8337168 19.11691984 79.15936096000001 20.78797472 73.9091364 22.13635428" />
<path class="stroke" d="M 71.82132144 18.88010348 C 75.61522232 27.95448572 82.2253408 36.0024584 91.1547424 39.167880000000004" />
<path class="stroke" d="M 54.85693232 58.1343062 L 54.85693232 90.5080256" />
<path class="stroke" d="M 54.85693232 58.1343062 L 82.97955999999999 58.1343062 L 82.97955999999999 90.5080256" />
<path class="stroke" d="M 55.0204372 73.43928292 L 82.81605680000001 73.43928292" />
<path class="stroke" d="M 54.85693232 89.09488816 L 82.97955999999999 89.09488816" />
</svg>
