<?xml version="1.0" standalone="no"?>
<!DOCTYPE svg PUBLIC "-//W3C//DTD SVG 1.1//EN" "http://www.w3.org/Graphics/SVG/1.1/DTD/svg11.dtd">
<svg xmlns="http://www.w3.org/2000/svg" version="1.1" width="100%" height="100%">
<style type="text/css"><![CDATA[
  .stroke { fill:none; stroke:black; stroke-width:2 }
]]></style>
<path class="stroke" d="M 25.111311885 6.84306507 C 22.076275815 11.39780955 17.595984285 14.47226262 13.982845635 17.20510845 C 17.45145963 19.2547437 21.353648085 21.759854100000002 25.111311885 24.83430483" />
<path class="stroke" d="M 35.5171509 14.8138683 C 27.712771515 24.37883007 18.029560725 31.666423499999997 8.635400235 37.018245300000004 C 20.197443915 35.4240852 30.747807585 34.85474175 41.153646599999995 34.85474175" />
<path class="stroke" d="M 38.263133700000004 30.983209799999997 C 40.208949 32.629314 42.551289 35.499987 43.032478499999996 38.0430639" />
<path class="stroke" d="M 74.61131188499999 6.84306507 C 71.576275815 11.39780955 67.09598428499999 14.47226262 63.482845635000004 17.20510845 C 66.95145963 19.2547437 70.853648085 21.759854100000002 74.61131188499999 24.83430483" />
<path class="stroke" d="M 85.0171509 14.8138683 C 77.212771515 24.37883007 67.52956072500001 31.666423499999997 58.135400235000006 37.018245300000004 C 69.69744391500001 35.4240852 80.247807585 34.85474175 90.6536466 34.85474175" />
<path class="stroke" d="M 87.7631337 30.983209799999997 C 89.708949 32.629314 92.051289 35.499987 92.5324785 38.0430639" />
<path class="stroke" d="M 5.0 50.49315 L 95.0 50.49315" />
<path class="stroke" d="M 49.835617 10.054794 L 49.835617 37.0137 C 47.863014 59.369865 77.0242 93.0074 89.7476 93.2176 L 89.7476 82.4922" />
<path class="stroke" d="M 86.328766 59.369865 C 81.5457 68.82226 66.4037 86.38276 44.9526 92.586754" />
<path class="stroke" d="M 78.10959 37.0137 C 82.38356 40.958904 81.72603 38.9863 84.0274 45.56164" />
<path class="stroke" d="M 20.672912 56.188659 C 19.517826 69.608004 12.38781 80.234774 3.1069218 85.04399699999999" />
<path class="stroke" d="M 18.999962 65.264167 C 22.266251999999998 72.788265 28.28093 80.428691 35.132064 85.04399699999999" />
</svg>
