<?xml version="1.0" standalone="no"?>
<!DOCTYPE svg PUBLIC "-//W3C//DTD SVG 1.1//EN" "http://www.w3.org/Graphics/SVG/1.1/DTD/svg11.dtd">
<svg xmlns="http://www.w3.org/2000/svg" version="1.1" width="100%" height="100%">
<style type="text/css"><![CDATA[
  .stroke { fill:none; stroke:black; stroke-width:2 }
]]></style>
<path class="stroke" d="M 47.004376400000005 10.398539320000001 C 46.810925999999995 12.9821514 42.185565999999994 15.979787400000001 38.032242 16.0792394" />
<path class="stroke" d="M 28.364962199999997 16.17372202 L 28.364962199999997 47.870074" />
<path class="stroke" d="M 28.364962199999997 16.0796511 L 72.07883144 16.0796511 L 72.07883144 47.870074" />
<path class="stroke" d="M 28.364962199999997 31.0096135 L 72.07883144 31.0096135" />
<path class="stroke" d="M 28.364962199999997 46.490837600000006 L 72.07883144 46.490837600000006" />
<path class="stroke" d="M 50.00664 47.83086656 L 50.00664 86.83941328 C 50.00664 88.205836 48.10219 89.8759096 45.18248 89.8759096 L 42.55474 89.8759096" />
<path class="stroke" d="M 12.773722 61.636494760000005 L 41.54589 60.635056399999996 C 37.744396 71.91246124 24.996853 80.4732592 9.854013 84.56204" />
<path class="stroke" d="M 83.76335 56.96353036 C 76.48878 60.86545072 68.141716 62.84033376 58.766315 64.43387324" />
<path class="stroke" d="M 55.038074 60.58557684 C 61.812897 71.30984676 73.61668 80.8210872 89.56204 84.56204" />
</svg>
