<?xml version="1.0" standalone="no"?>
<!DOCTYPE svg PUBLIC "-//W3C//DTD SVG 1.1//EN" "http://www.w3.org/Graphics/SVG/1.1/DTD/svg11.dtd">
<svg xmlns="http://www.w3.org/2000/svg" version="1.1" width="100%" height="100%">
<style type="text/css"><![CDATA[
  .stroke { fill:none; stroke:black; stroke-width:2 }
]]></style>
<path class="stroke" d="M 9.854013 8.343063999999998 L 9.854013 19.7883176" />
<path class="stroke" d="M 9.854013 7.8759096 L 90.14598 7.8759096 L 90.14598 20.0218936" />
<path class="stroke" d="M 26.204376 19.6569325 L 72.9197 19.6569325" />
<path class="stroke" d="M 44.598537 19.919706400000003 C 37.007298 31.218976899999998 24.1325 37.30285000000001 10.2524 41.9401" />
<path class="stroke" d="M 35.255474 30.430657 C 53.06569 43.043791600000006 56.569344 78.7810195 50.14598 86.92700500000001 C 46.35036 91.65692800000001 39.343063 90.605836 36.715324 88.503643" />
<path class="stroke" d="M 43.722626 39.8905102 C 35.547443 49.875913000000004 24.452553 55.656930700000004 10.145985 60.124085199999996" />
<path class="stroke" d="M 49.85401 53.291971000000004 C 41.094887 66.430657 25.620438 74.576638 10.145985 78.5182474" />
<path class="stroke" d="M 79.927 32.2700698 C 75.25547 38.8394137 67.9562 44.094889 59.197075 46.9853983" />
<path class="stroke" d="M 53.941605 43.043791600000006 C 60.65693 63.2773675 75.54744 74.576638 89.270065 82.722628" />
</svg>
