<?xml version="1.0" standalone="no"?>
<!DOCTYPE svg PUBLIC "-//W3C//DTD SVG 1.1//EN" "http://www.w3.org/Graphics/SVG/1.1/DTD/svg11.dtd">
<svg xmlns="http://www.w3.org/2000/svg" version="1.1" width="100%" height="100%">
<style type="text/css"><![CDATA[
  .stroke { fill:none; stroke:black; stroke-width:2 }
]]></style>
<path class="stroke" d="M 28.128888 16.603761 C 27.004199 24.945515999999998 20.061815 31.551346 11.0251607 34.540863" />
<path class="stroke" d="M 26.499962999999997 22.245293 C 29.680298 26.922435 35.536695 31.671889 42.207536 34.540863" />
<path class="stroke" d="M 28.128888 39.603761000000006 C 27.004199 47.945516000000005 20.061815 54.551346 11.0251607 57.540863" />
<path class="stroke" d="M 26.499962999999997 45.245293000000004 C 29.680298 49.92243500000001 35.536695 54.671889 42.207536 57.540863" />
<path class="stroke" d="M 74.128888 16.603761 C 73.004199 24.945515999999998 66.061815 31.551346 57.0251607 34.540863" />
<path class="stroke" d="M 72.499963 22.245293 C 75.680298 26.922435 81.53669500000001 31.671889 88.207536 34.540863" />
<path class="stroke" d="M 74.128888 39.603761000000006 C 73.004199 47.945516000000005 66.061815 54.551346 57.0251607 57.540863" />
<path class="stroke" d="M 72.499963 45.245293000000004 C 75.680298 49.92243500000001 81.53669500000001 54.671889 88.207536 57.540863" />
<path class="stroke" d="M 6.466878 70.0 L 94.47953 70.0" />
<path class="stroke" d="M 50.0 7.097792 L 50.0 93.84854" />
</svg>
