<?xml version="1.0" standalone="no"?>
<!DOCTYPE svg PUBLIC "-//W3C//DTD SVG 1.1//EN" "http://www.w3.org/Graphics/SVG/1.1/DTD/svg11.dtd">
<svg xmlns="http://www.w3.org/2000/svg" version="1.1" width="100%" height="100%">
<style type="text/css"><![CDATA[
  .stroke { fill:none; stroke:black; stroke-width:2 }
]]></style>
<path class="stroke" d="M 7.4556828571428575 27.956203 L 23.722627142857142 27.956203" />
<path class="stroke" d="M 17.049007142857143 9.270073 L 17.049007142857143 90.14598" />
<path class="stroke" d="M 17.049007142857143 36.131386 C 14.337850000000001 44.598537 11.001042142857143 52.48175 6.204379285714285 56.861313" />
<path class="stroke" d="M 17.049007142857143 36.131386 C 20.17726642857143 37.299267 22.262772142857145 42.26277 23.305525000000003 46.934303" />
<path class="stroke" d="M 32.1715315 10.0 L 92.8284625 10.0" />
<path class="stroke" d="M 39.6167875 31.88773693 L 39.6167875 91.1432071" />
<path class="stroke" d="M 39.6167875 31.88773693 L 85.3832125 31.88773693 L 85.3832125 87.91109182 C 85.3832125 89.85036394 84.7262725 90.92773324 82.7554675 90.92773324 L 80.56568875 90.92773324" />
<path class="stroke" d="M 65.554741525 18.868611700000002 C 63.38685955 36.4744522 54.912406000000004 48.5620426 46.63503625 55.131382" />
<path class="stroke" d="M 62.40145675000001 38.8394137 C 66.9343072 41.7299266 72.25547125 46.9853983 75.60583375 55.3941586" />
</svg>
