<?xml version="1.0" standalone="no"?>
<!DOCTYPE svg PUBLIC "-//W3C//DTD SVG 1.1//EN" "http://www.w3.org/Graphics/SVG/1.1/DTD/svg11.dtd">
<svg xmlns="http://www.w3.org/2000/svg" version="1.1" width="100%" height="100%">
<style type="text/css"><![CDATA[
  .stroke { fill:none; stroke:black; stroke-width:2 }
]]></style>
<path class="stroke" d="M 8.250825 11.089109 L 29.838708333333333 11.290321 C 31.451613333333338 17.741934 26.61290166666667 33.225803 21.774193333333333 40.0" />
<path class="stroke" d="M 21.774193333333333 40.96774 C 25.80645 44.51613 29.032255833333334 49.032257 30.645160833333332 54.19355 C 32.2580625 57.09677 32.2580625 65.161285 23.655913333333334 68.38709 L 18.54838666666667 69.354836" />
<path class="stroke" d="M 10.726071666666666 11.089109 L 10.726071666666666 90.09901" />
<path class="stroke" d="M 65.10218599999999 7.559560811999999 C 57.131384 17.774451358 48.1386849 25.786130796 36.8978091 30.593136538" />
<path class="stroke" d="M 65.10218599999999 7.559560811999999 C 73.2773698 17.37386646 81.6569312 25.786130796 93.306565 30.392845803999997" />
<path class="stroke" d="M 50.867518 28.977922 L 79.13246799999999 28.977922" />
<path class="stroke" d="M 40.047331 41.962137999999996 L 40.047331 62.675026" />
<path class="stroke" d="M 40.047331 41.962137999999996 L 90.394341 41.962137999999996 L 90.394341 62.675026" />
<path class="stroke" d="M 40.047331 62.675026 L 90.394341 62.675026" />
<path class="stroke" d="M 64.779178 29.596204 L 64.55832799999999 68.54894999999999 C 62.276468 82.563636 48.291238 90.086214 34.968467 92.97153" />
<path class="stroke" d="M 64.55837 68.858042 C 67.20822 81.73926 80.45747 90.29230799999999 94.81075999999999 93.28072" />
</svg>
