<?xml version="1.0" standalone="no"?>
<!DOCTYPE svg PUBLIC "-//W3C//DTD SVG 1.1//EN" "http://www.w3.org/Graphics/SVG/1.1/DTD/svg11.dtd">
<svg xmlns="http://www.w3.org/2000/svg" version="1.1" width="100%" height="100%">
<style type="text/css"><![CDATA[
  .stroke { fill:none; stroke:black; stroke-width:2 }
]]></style>
<path class="stroke" d="M 15.844525339999999 13.06569196 L 15.8181212 55.186582800000004 C 12.463758089999999 77.7852328 12.463758089999999 77.0442924 8.71476466 86.67651392" />
<path class="stroke" d="M 15.844525339999999 13.06569196 L 35.8737232 13.06569196 L 35.8737232 83.1737188 C 35.8737232 85.3226272 35.3014571 87.202914 33.87080116 87.202914 L 32.2970809 87.202914" />
<path class="stroke" d="M 15.844525339999999 33.313570840000004 L 35.8737232 33.313570840000004" />
<path class="stroke" d="M 15.844525339999999 54.70150912 L 35.8737232 54.70150912" />
<path class="stroke" d="M 48.38613835 9.306931 C 46.841583650000004 17.029703 44.52475225 25.049503 41.4356435 30.396038" />
<path class="stroke" d="M 45.8762381 20.594059 L 93.75742600000001 20.594059" />
<path class="stroke" d="M 51.0839393 30.576642 L 51.0839393 60.007296000000004" />
<path class="stroke" d="M 51.0839393 30.576642 L 83.726275 30.576642 L 83.726275 60.007296000000004" />
<path class="stroke" d="M 51.27372175 44.4902572 L 83.5364945 44.4902572" />
<path class="stroke" d="M 51.0839393 58.7226256 L 83.726275 58.7226256" />
<path class="stroke" d="M 63.04014395 69.0072986 C 58.67518075 72.948905 51.27372175 77.0656925 43.6824803 79.69343" />
<path class="stroke" d="M 60.76277145 71.2846712 L 77.65328600000001 71.2846712 C 70.8211685 78.46715209999999 56.20802775 86.788319 41.59489025 91.343063" />
<path class="stroke" d="M 53.551094899999995 75.5766422 C 61.0 81.93548419999999 76.32481405 87.9270065 92.456204 91.343063" />
</svg>
