<?xml version="1.0" standalone="no"?>
<!DOCTYPE svg PUBLIC "-//W3C//DTD SVG 1.1//EN" "http://www.w3.org/Graphics/SVG/1.1/DTD/svg11.dtd">
<svg xmlns="http://www.w3.org/2000/svg" version="1.1" width="100%" height="100%">
<style type="text/css"><![CDATA[
  .stroke { fill:none; stroke:black; stroke-width:2 }
]]></style>
<path class="stroke" d="M 25.94635 5.835962 C 25.57835 9.831762 24.7371 13.196672 22.47635 15.930572" />
<path class="stroke" d="M 12.5394 15.930615 L 12.5394 66.719215 C 12.48685 79.02212 10.22605 87.224014 4.02206 93.21771" />
<path class="stroke" d="M 12.5394 15.930615 L 37.93375 15.930615 L 37.93375 87.53941 C 37.98635 91.32491 37.09255 92.902214 35.72555 92.902214 L 33.3596 92.902214" />
<path class="stroke" d="M 22.00315 26.97159 C 24.89485 29.49519 26.6824 33.59619 28.3123 39.27439" />
<path class="stroke" d="M 25.41096 59.69863 L 25.41096 81.39726" />
<path class="stroke" d="M 3.23344 49.6845 L 46.4511 49.6845" />
<path class="stroke" d="M 70.09561790000001 9.562042 C 69.9403485 15.17859 66.2278885 21.69519 62.8942995 21.91139" />
<path class="stroke" d="M 55.13503545 22.116787 L 55.13503545 91.0219" />
<path class="stroke" d="M 55.13503545 21.912285 L 90.22116734 21.912285 L 90.22116734 91.0219" />
<path class="stroke" d="M 55.13503545 54.368725 L 90.22116734 54.368725" />
<path class="stroke" d="M 55.13503545 88.02356 L 90.22116734 88.02356" />
</svg>
