<?xml version="1.0" standalone="no"?>
<!DOCTYPE svg PUBLIC "-//W3C//DTD SVG 1.1//EN" "http://www.w3.org/Graphics/SVG/1.1/DTD/svg11.dtd">
<svg xmlns="http://www.w3.org/2000/svg" version="1.1" width="100%" height="100%">
<style type="text/css"><![CDATA[
  .stroke { fill:none; stroke:black; stroke-width:2 }
]]></style>
<path class="stroke" d="M 13.1182474 14.2026272 L 35.5065664 14.2026272" />
<path class="stroke" d="M 20.319623319999998 14.2026272 C 20.18074108 33.064316000000005 13.013138199999998 54.927001600000004 8.70364948 61.0" />
<path class="stroke" d="M 17.42773612 41.37956 L 17.42773612 73.145984" />
<path class="stroke" d="M 17.42773612 41.37956 L 32.8788292 41.37956 L 32.77372 73.37956000000001" />
<path class="stroke" d="M 17.32262728 70.81021600000001 L 32.77372 70.81021600000001" />
<path class="stroke" d="M 53.5474442 7.39050975 C 52.6715318 14.83576575 47.0656928 22.7189775 43.7372252 24.47080125" />
<path class="stroke" d="M 50.919707 18.777371249999998 L 50.919707 67.8284625" />
<path class="stroke" d="M 71.7664202 7.60948875 C 70.71532579999999 12.4270065 68.7883196 16.587590249999998 65.9854004 18.996348750000003" />
<path class="stroke" d="M 50.919707 18.57258 L 83.328464 18.57258" />
<path class="stroke" d="M 66.861314 18.996348750000003 L 66.861314 67.8284625" />
<path class="stroke" d="M 50.919707 35.843887499999994 L 81.051092 35.843887499999994" />
<path class="stroke" d="M 50.919707 51.843063 L 81.22627399999999 51.843063" />
<path class="stroke" d="M 50.919707 67.8284625 L 86.83211359999999 67.8284625" />
<path class="stroke" d="M 49.1678828 77.00729 C 48.8175176 82.55474 47.416058 87.22627 45.138686 89.85401" />
<path class="stroke" d="M 59.153284400000004 77.88321 C 61.08029 81.678825 62.131384999999995 85.18248 63.007298 90.14598" />
<path class="stroke" d="M 73.51824500000001 78.17518 C 75.4452512 81.678825 76.3211642 85.47445 77.19707600000001 90.43795" />
<path class="stroke" d="M 86.83211359999999 78.17518 C 88.93430000000001 81.678825 90.16058 84.8905 91.211678 90.43795" />
</svg>
