<?xml version="1.0" standalone="no"?>
<!DOCTYPE svg PUBLIC "-//W3C//DTD SVG 1.1//EN" "http://www.w3.org/Graphics/SVG/1.1/DTD/svg11.dtd">
<svg xmlns="http://www.w3.org/2000/svg" version="1.1" width="100%" height="100%">
<style type="text/css"><![CDATA[
  .stroke { fill:none; stroke:black; stroke-width:2 }
]]></style>
<path class="stroke" d="M 13.154171785714285 13.77821788 C 16.654879285714284 15.815842700000001 20.15558785714286 18.72673376 23.01980357142857 22.219801659999998" />
<path class="stroke" d="M 10.926448928571428 37.35643674 C 14.108912142857141 39.1029702 17.927864999999997 41.72277186 20.473834285714286 45.2158427" />
<path class="stroke" d="M 10.608203571428572 83.9306888 C 11.321795357142857 85.67422248 13.310014285714285 88.09896592 15.629600357142856 88.09896592 C 17.949189642857142 88.09896592 21.110325 75.1980166 23.33804892857143 68.2118808" />
<path class="stroke" d="M 46.31094718 10.145985 C 44.944525240000004 19.197079 40.84525474 25.036495 36.06277288 28.832115" />
<path class="stroke" d="M 43.5780994 19.781021 L 83.20437700000001 19.781021" />
<path class="stroke" d="M 46.31094718 33.16715261 C 45.400000000000006 49.08247997 41.7562027 63.15255298 39.023356480000004 70.99488772000001 C 54.73722556 72.60948340000002 75.46131388 75.8386795 87.5313841 86.6795572" />
<path class="stroke" d="M 46.31094718 33.16715261 L 79.56058048 33.16715261 C 78.87736600000001 50.46642093 75.91678551999999 73.53211334 70.22335492 84.37298630000001 C 68.40145432 87.14087454000001 65.44087384 88.2941592 62.70802606 88.2941592" />
<path class="stroke" d="M 62.70802606 33.397809699999996 C 62.2525513 49.31313627 60.65839276 61.99926832 56.78685886 73.07080389999999" />
<path class="stroke" d="M 29.9138683 54.387588300000004 L 92.3138644 54.387588300000004" />
</svg>
