<?xml version="1.0" standalone="no"?>
<!DOCTYPE svg PUBLIC "-//W3C//DTD SVG 1.1//EN" "http://www.w3.org/Graphics/SVG/1.1/DTD/svg11.dtd">
<svg xmlns="http://www.w3.org/2000/svg" version="1.1" width="100%" height="100%">
<style type="text/css"><![CDATA[
  .stroke { fill:none; stroke:black; stroke-width:2 }
]]></style>
<path class="stroke" d="M 12.372261 10.893430275 L 12.372261 44.37079920000001" />
<path class="stroke" d="M 12.372261 10.893430275 L 37.48175 10.893430275 L 37.48175 44.37079920000001" />
<path class="stroke" d="M 12.5182475 26.720167565 L 37.335765 26.720167565" />
<path class="stroke" d="M 12.372261 42.909486619999996 L 37.48175 42.909486619999996" />
<path class="stroke" d="M 19.92438272 52.170426035000006 L 19.9431968 83.9580930825" />
<path class="stroke" d="M 33.1167152 51.661821165499994 L 33.1167152 77.091958671" />
<path class="stroke" d="M 8.132494399999999 69.7489367575 C 10.454254399999998 72.45947413249999 12.1703504 75.9022607525 13.1292944 80.188390555" />
<path class="stroke" d="M 42.64876639999999 57.0021502505 C 41.8597232 60.56236732000001 40.5972608 65.648400545 36.9676688 66.665599455" />
<path class="stroke" d="M 5.248218703999999 90.824232135 L 46.1205488 71.497325991" />
<path class="stroke" d="M 59.1605835 9.854013 L 89.67152999999999 9.854013" />
<path class="stroke" d="M 74.635035 9.854013 C 74.051095 14.817516 72.883211 18.905107 71.2312 22.0621" />
<path class="stroke" d="M 60.45 22.3791 L 60.45 76.715324" />
<path class="stroke" d="M 60.45 22.3791 L 88.51285 22.3791 L 88.51285 76.423355" />
<path class="stroke" d="M 60.60855 40.77066 L 88.51285 40.77066" />
<path class="stroke" d="M 60.60855 59.79627 L 88.51285 59.79627" />
<path class="stroke" d="M 60.474452 76.715324 L 88.64963 76.715324" />
<path class="stroke" d="M 66.0218965 83.13868 C 63.3941595 86.9343 60.3284665 89.56204 56.678831 89.85401" />
<path class="stroke" d="M 83.540145 83.43065 C 86.60584 84.59853 89.08759 86.35036 92.00729749999999 90.72992" />
</svg>
