<?xml version="1.0" standalone="no"?>
<!DOCTYPE svg PUBLIC "-//W3C//DTD SVG 1.1//EN" "http://www.w3.org/Graphics/SVG/1.1/DTD/svg11.dtd">
<svg xmlns="http://www.w3.org/2000/svg" version="1.1" width="100%" height="100%">
<style type="text/css"><![CDATA[
  .stroke { fill:none; stroke:black; stroke-width:2 }
]]></style>
<path class="stroke" d="M 9.84150137142857 27.956203 L 31.31386782857143 27.956203" />
<path class="stroke" d="M 22.504689428571428 9.270073 L 22.504689428571428 90.14598" />
<path class="stroke" d="M 22.504689428571428 36.131386 C 18.925962000000002 44.598537 14.521375628571427 52.48175 8.189780657142856 56.861313" />
<path class="stroke" d="M 22.504689428571428 36.131386 C 26.633991685714285 37.299267 29.386859228571428 42.26277 30.763293 46.934303" />
<path class="stroke" d="M 36.4496349 18.759122400000003 L 63.35182210000001 18.759122400000003" />
<path class="stroke" d="M 50.00001428 6.35036442 L 50.00001428 33.4510936" />
<path class="stroke" d="M 38.93138602 33.4510936 L 60.9693418 33.4510936" />
<path class="stroke" d="M 36.914828 43.37535 L 36.914828 63.24915" />
<path class="stroke" d="M 36.914828 43.37535 L 63.192442 43.37535 L 63.192442 63.24915" />
<path class="stroke" d="M 36.914828 63.24915 L 63.192442 63.24915" />
<path class="stroke" d="M 40.025216 70.82017 C 41.598328 74.50057 42.742394000000004 79.44267 43.77919 84.70027" />
<path class="stroke" d="M 59.760244 70.82017 C 58.33017 74.18507 57.543648000000005 77.54997 56.649856 81.54577" />
<path class="stroke" d="M 35.7350144 94.164 L 64.050466 87.8549" />
<path class="stroke" d="M 70.70948736 30.29197 L 93.5065664 30.29197" />
<path class="stroke" d="M 87.8249536 9.270073 L 87.8249536 84.8905 C 87.8249536 87.51824 86.7795584 90.14598 85.09780735999999 90.14598 L 82.1080256 90.14598" />
<path class="stroke" d="M 71.64379392000001 40.51095 C 74.44671360000001 42.846714 76.1284672 46.642334 77.0627712 51.021896" />
</svg>
