<?xml version="1.0" standalone="no"?>
<!DOCTYPE svg PUBLIC "-//W3C//DTD SVG 1.1//EN" "http://www.w3.org/Graphics/SVG/1.1/DTD/svg11.dtd">
<svg xmlns="http://www.w3.org/2000/svg" version="1.1" width="100%" height="100%">
<style type="text/css"><![CDATA[
  .stroke { fill:none; stroke:black; stroke-width:2 }
]]></style>
<path class="stroke" d="M 12.1576632 13.74249584 L 42.0087552 13.74249584" />
<path class="stroke" d="M 21.75949776 13.74249584 C 21.57432144 31.661100200000003 12.0175176 52.43065152 6.271532639999999 58.2" />
<path class="stroke" d="M 17.90364816 39.560582 L 17.90364816 69.7386848" />
<path class="stroke" d="M 17.90364816 39.560582 L 38.5051056 39.560582 L 38.36496 69.960582" />
<path class="stroke" d="M 17.76350304 67.5197052 L 38.36496 67.5197052" />
<path class="stroke" d="M 67.72037008000001 10.800613210526315 L 67.72037008000001 28.863381578947365" />
<path class="stroke" d="M 52.6005250096 13.42066794736842 C 54.935356417600005 16.993468526315787 56.10277326400001 20.328082236842103 57.60373492480001 25.330002394736844" />
<path class="stroke" d="M 81.95269772799999 13.42066794736842 C 80.95205585920002 19.613521631578944 79.451093056 21.995390315789475 77.283034912 25.091817157894738" />
<path class="stroke" d="M 53.98832088 32.99634923 L 53.98832088 69.273719 C 53.98832088 77.3168333 53.98832088 80.69108700000001 53.98832088 88.49406225999999" />
<path class="stroke" d="M 53.98832088 32.99634923 L 81.7839424 32.99634923 L 81.7839424 87.1014569 C 81.7839424 88.7598536 80.9897772 90.2109445 79.00437712 90.2109445 L 76.8204388 90.2109445" />
<path class="stroke" d="M 53.98832088 48.62242967 L 81.7839424 48.62242967" />
<path class="stroke" d="M 53.98832088 65.12833856 L 81.7839424 65.12833856" />
</svg>
