<?xml version="1.0" standalone="no"?>
<!DOCTYPE svg PUBLIC "-//W3C//DTD SVG 1.1//EN" "http://www.w3.org/Graphics/SVG/1.1/DTD/svg11.dtd">
<svg xmlns="http://www.w3.org/2000/svg" version="1.1" width="100%" height="100%">
<style type="text/css"><![CDATA[
  .stroke { fill:none; stroke:black; stroke-width:2 }
]]></style>
<path class="stroke" d="M 11.313868 17.445253 C 15.401459 18.029196 19.48905 20.364962 22.408756 24.160583" />
<path class="stroke" d="M 9.270073 47.226276 C 13.357662 47.226276 18.321167 46.934303 23.86861 43.138683 C 16.27737 53.357662 14.233576 58.321167 15.109488 60.9489 C 15.69343 63.284668 20.948904 65.62044 22.116787 68.832115 C 23.576641 72.33576 18.129246 80.26506 11.021896 83.722626" />
<path class="stroke" d="M 11.021896 84.014595 C 39.692924 81.65476 40.51095 91.313866 90.43795 90.14598" />
<path class="stroke" d="M 59.087375 8.252376 C 57.192521 11.558364000000001 53.045303 14.712936 48.576325999999995 16.01262" />
<path class="stroke" d="M 35.7807745 16.763440000000003 L 35.7807745 74.07920800000001" />
<path class="stroke" d="M 35.7807745 16.763440000000003 L 77.0741145 16.763440000000003 L 77.0741145 37.962160000000004" />
<path class="stroke" d="M 36.04886449999999 37.962160000000004 L 77.0741145 37.962160000000004" />
<path class="stroke" d="M 35.7807745 53.8612 L 79.9702991 53.8612 L 79.9702991 74.07920800000001" />
<path class="stroke" d="M 35.7871274 74.07920800000001 L 79.9702991 74.07920800000001" />
</svg>
