<?xml version="1.0" standalone="no"?>
<!DOCTYPE svg PUBLIC "-//W3C//DTD SVG 1.1//EN" "http://www.w3.org/Graphics/SVG/1.1/DTD/svg11.dtd">
<svg xmlns="http://www.w3.org/2000/svg" version="1.1" width="100%" height="100%">
<style type="text/css"><![CDATA[
  .stroke { fill:none; stroke:black; stroke-width:2 }
]]></style>
<path class="stroke" d="M 16.81459832 9.854013 L 16.7865776 55.63759 C 13.22684532 80.20134 13.22684532 79.39597 9.24832168 89.865776" />
<path class="stroke" d="M 16.81459832 9.854013 L 38.0700736 9.854013 L 38.0700736 86.05839 C 38.0700736 88.39416 37.4627708 90.43795 35.944523679999996 90.43795 L 34.274453199999996 90.43795" />
<path class="stroke" d="M 16.81459832 31.862577 L 38.0700736 31.862577" />
<path class="stroke" d="M 16.81459832 55.110336 L 38.0700736 55.110336" />
<path class="stroke" d="M 56.37226 8.99054 C 59.653000000000006 13.6172 61.41952 18.244 62.99686 24.7634" />
<path class="stroke" d="M 82.30288 8.99053 C 80.72554 15.4048 78.95908 19.2955 75.67822000000001 24.4479" />
<path class="stroke" d="M 49.179829 25.0789 L 89.87381199999999 25.0789" />
<path class="stroke" d="M 44.2586752 50.9464 L 95.173504 50.9464" />
<path class="stroke" d="M 69.8107 25.3944 L 69.8107 50.9464 C 68.10723999999999 73.9748 59.589879999999994 87.224 45.962146 93.2177" />
<path class="stroke" d="M 69.81063999999999 50.9464 C 71.32486 72.8181 78.32806 86.8034 92.71294 92.9023" />
</svg>
