<?xml version="1.0" standalone="no"?>
<!DOCTYPE svg PUBLIC "-//W3C//DTD SVG 1.1//EN" "http://www.w3.org/Graphics/SVG/1.1/DTD/svg11.dtd">
<svg xmlns="http://www.w3.org/2000/svg" version="1.1" width="100%" height="100%">
<style type="text/css"><![CDATA[
  .stroke { fill:none; stroke:black; stroke-width:2 }
]]></style>
<path class="stroke" d="M 28.005770232558138 11.89781 C 27.19096930232558 30.875912 22.030553488372092 45.47445 17.141739534883722 55.693428 C 26.647767441860463 60.9489 34.79578976744186 70.0 41.04260651162791 81.386856" />
<path class="stroke" d="M 39.94612093023255 26.831684 C 38.01197209302326 53.564358 30.178576744186046 69.70802 16.87014046511628 79.34306" />
<path class="stroke" d="M 11.438125581395349 33.79562 L 41.60396 29.80198" />
<path class="stroke" d="M 48.7408758 9.562042 L 48.7408758 92.77372" />
<path class="stroke" d="M 48.7408758 9.270073 L 92.580289 9.270073 L 92.580289 92.48175" />
<path class="stroke" d="M 48.90145875 86.642334 L 92.580289 86.642334" />
<path class="stroke" d="M 57.179561715 39.42481668 L 83.93284249999999 39.42481668" />
<path class="stroke" d="M 70.5562023 21.118248180000002 L 70.5562023 41.5445235 C 70.5562023 56.3824818 64.65298421 71.63388324 55.381021125000004 75.074454" />
<path class="stroke" d="M 70.5562023 41.351823960000004 C 70.5562023 56.575182 76.58434365 71.59890720000001 85.7313854 75.074454" />
</svg>
