<?xml version="1.0" standalone="no"?>
<!DOCTYPE svg PUBLIC "-//W3C//DTD SVG 1.1//EN" "http://www.w3.org/Graphics/SVG/1.1/DTD/svg11.dtd">
<svg xmlns="http://www.w3.org/2000/svg" version="1.1" width="100%" height="100%">
<style type="text/css"><![CDATA[
  .stroke { fill:none; stroke:black; stroke-width:2 }
]]></style>
<path class="stroke" d="M 49.056784 3.548895 C 39.803408000000005 6.1777 32.493248 8.01785 19.353352 8.123" />
<path class="stroke" d="M 19.353352 8.12305 L 19.353352 46.29335" />
<path class="stroke" d="M 60.71608 7.8075715 L 82.64664800000001 7.8075715 L 82.64664800000001 46.29335" />
<path class="stroke" d="M 19.353352 27.05048 L 41.006280000000004 27.05048" />
<path class="stroke" d="M 60.993719999999996 27.050485 L 82.64664800000001 27.050485" />
<path class="stroke" d="M 19.353352 46.29335 L 82.64664800000001 46.29335" />
<path class="stroke" d="M 30.7571 53.233435 C 27.8129 61.225 20.1367 69.05885 6.78233 74.0536" />
<path class="stroke" d="M 27.9179 61.2776 L 90.0631 61.4353 L 89.7476 79.10095 C 89.1167 87.09255 82.4922 96.34595 71.1357 96.4511 L 66.4038 96.4511" />
<path class="stroke" d="M 14.8905104 78.87773375 C 14.4233568 80.9580275 12.554744 82.70985125 9.518248 83.69525375" />
<path class="stroke" d="M 28.2043792 79.20620375 C 30.773719999999997 80.629559375 32.175180000000005 81.94343 33.343064 83.8047425" />
<path class="stroke" d="M 47.35766 79.3156925 C 49.927001600000004 80.629559375 51.0948856 82.05291875 52.26276800000001 83.91423125" />
<path class="stroke" d="M 65.1094848 79.3156925 C 67.9124 80.629559375 69.54744 81.8339375 70.94890400000001 83.91423125" />
</svg>
