<?xml version="1.0" standalone="no"?>
<!DOCTYPE svg PUBLIC "-//W3C//DTD SVG 1.1//EN" "http://www.w3.org/Graphics/SVG/1.1/DTD/svg11.dtd">
<svg xmlns="http://www.w3.org/2000/svg" version="1.1" width="100%" height="100%">
<style type="text/css"><![CDATA[
  .stroke { fill:none; stroke:black; stroke-width:2 }
]]></style>
<path class="stroke" d="M 8.250825 7.207920850000001 L 29.838708333333333 7.338708650000001 C 31.451613333333338 11.5322571 26.61290166666667 21.59677195 21.774193333333333 26.0" />
<path class="stroke" d="M 21.774193333333333 26.629031 C 25.80645 28.935484499999998 29.032255833333334 31.87096705 30.645160833333332 35.2258075 C 32.2580625 37.1129005 32.2580625 42.35483525000001 23.655913333333334 44.4516085 L 18.54838666666667 45.08064340000001" />
<path class="stroke" d="M 10.726071666666666 7.207920850000001 L 10.726071666666666 58.56435650000001" />
<path class="stroke" d="M 60.8357628 5.8357663 C 57.509547 22.475505000000002 49.869659 36.55912 33.767153289999996 46.638683" />
<path class="stroke" d="M 34.19342949 17.326465 L 93.0197035 17.326465" />
<path class="stroke" d="M 55.3303938948 29.5228096475 L 55.3303938948 47.78923175 C 55.3303938948 51.839109725 55.3303938948 53.538117750000005 55.3303938948 57.467080645" />
<path class="stroke" d="M 55.3303938948 29.5228096475 L 80.992292704 29.5228096475 L 80.992292704 56.76587442500001 C 80.992292704 57.60091220000001 80.25909136199999 58.331567125 78.4260999352 58.331567125 L 76.409810998 58.331567125" />
<path class="stroke" d="M 55.3303938948 37.390871277500004 L 80.992292704 37.390871277500004" />
<path class="stroke" d="M 55.3303938948 45.701945120000005 L 80.992292704 45.701945120000005" />
<path class="stroke" d="M 18.321167 79.4583936 L 81.678825 79.4583936" />
<path class="stroke" d="M 50.0 68.99416016 L 50.0 93.0992672" />
<path class="stroke" d="M 9.854013 93.0992672 L 89.85401 93.0992672" />
</svg>
