<?xml version="1.0" standalone="no"?>
<!DOCTYPE svg PUBLIC "-//W3C//DTD SVG 1.1//EN" "http://www.w3.org/Graphics/SVG/1.1/DTD/svg11.dtd">
<svg xmlns="http://www.w3.org/2000/svg" version="1.1" width="100%" height="100%">
<style type="text/css"><![CDATA[
  .stroke { fill:none; stroke:black; stroke-width:2 }
]]></style>
<path class="stroke" d="M 13.154171785714285 14.059406 C 16.654879285714284 16.138615 20.15558785714286 19.108912 23.01980357142857 22.673267" />
<path class="stroke" d="M 10.926448928571428 38.118813 C 14.108912142857141 39.90099 17.927864999999997 42.574257 20.473834285714286 46.138615" />
<path class="stroke" d="M 10.608203571428572 85.64356 C 11.321795357142857 87.422676 13.310014285714285 89.896904 15.629600357142856 89.896904 C 17.949189642857142 89.896904 21.110325 76.73267 23.33804892857143 69.60396" />
<path class="stroke" d="M 45.632115999999996 7.846715 L 45.632115999999996 43.46715" />
<path class="stroke" d="M 45.7372252 21.131385 L 52.88467024 21.131385" />
<path class="stroke" d="M 33.0189778 43.75912 L 59.19124024 43.75912" />
<path class="stroke" d="M 46.00190332 57.9927005 L 46.00190332 93.613135 C 46.00190332 94.6350325 45.421896520000004 95.218975 45.00145936 95.218975 L 44.2656928 95.218975" />
<path class="stroke" d="M 37.64379484 71.27737 C 37.1182474 76.38686 35.54160544 80.7664225 33.33430576 84.270073" />
<path class="stroke" d="M 53.4102184 71.27737 C 55.5124078 74.343065 57.29926816 78.4306565 58.35036304 84.56204199999999" />
<path class="stroke" d="M 72.5900986 23.7227716 L 90.447526 23.7227716 C 86.38415739999999 58.7425753 79.54059376000001 75.851488 67.56435640000001 90.821782" />
<path class="stroke" d="M 72.16237612 31.742575300000002 C 73.75483756 48.3225787 79.32903148 61.967742400000006 81.18709551999999 68.064517 C 84.5548372 77.35483900000001 90.59354704 84.322576 96.3287128 90.821782" />
</svg>
