<?xml version="1.0" standalone="no"?>
<!DOCTYPE svg PUBLIC "-//W3C//DTD SVG 1.1//EN" "http://www.w3.org/Graphics/SVG/1.1/DTD/svg11.dtd">
<svg xmlns="http://www.w3.org/2000/svg" version="1.1" width="100%" height="100%">
<style type="text/css"><![CDATA[
  .stroke { fill:none; stroke:black; stroke-width:2 }
]]></style>
<path class="stroke" d="M 25.912407 10.729925 C 21.824816 18.029196 16.27737 23.86861 11.021896 28.540146 C 15.109488 31.45985 20.07299 36.131386 24.744522 40.218975" />
<path class="stroke" d="M 37.007298 25.912407 C 30.0 34.67153 20.656933 45.18248 8.978102 56.277367 C 19.48905 54.525543 31.167881 52.48175 41.67883 50.437954" />
<path class="stroke" d="M 38.17518 43.430653 C 41.094887 46.642334 41.970802 49.85401 43.722626 55.40146" />
<path class="stroke" d="M 26.49635 54.233574 L 26.49635 89.56204" />
<path class="stroke" d="M 17.445253 65.03649 C 15.69343 70.87591 13.649633 74.67153 9.562042 78.75912" />
<path class="stroke" d="M 34.08759 65.32846 C 37.299267 68.540146 37.35135 68.81081 38.97297 71.72973" />
<path class="stroke" d="M 49.37958127 17.958115 L 89.62041690000001 17.958115" />
<path class="stroke" d="M 54.09901036 29.20792 L 54.09901036 57.8534" />
<path class="stroke" d="M 54.09901036 29.20792 L 86.36282414 29.20792 L 86.36282414 58.167534" />
<path class="stroke" d="M 54.28019683 43.465347 L 85.979577 43.465347" />
<path class="stroke" d="M 54.28019683 57.72277 L 85.40471056 57.72277" />
<path class="stroke" d="M 69.8832447 9.790575 L 69.8832447 90.20942" />
<path class="stroke" d="M 69.692455 57.2556 C 63.88977937 72.33576 57.03797572 85.7412 49.37958127 88.95288" />
<path class="stroke" d="M 69.692455 57.2556 C 74.75401296 72.9197 82.71499425 86.39163 90.19528700000001 89.89529" />
</svg>
