<?xml version="1.0" standalone="no"?>
<!DOCTYPE svg PUBLIC "-//W3C//DTD SVG 1.1//EN" "http://www.w3.org/Graphics/SVG/1.1/DTD/svg11.dtd">
<svg xmlns="http://www.w3.org/2000/svg" version="1.1" width="100%" height="100%">
<style type="text/css"><![CDATA[
  .stroke { fill:none; stroke:black; stroke-width:2 }
]]></style>
<path class="stroke" d="M 27.918 5.5205 C 21.8192 17.8233 14.4585 30.7571 4.88959 40.5363" />
<path class="stroke" d="M 27.918 5.83596 C 34.0168 11.8296 38.2229 18.4543 42.7445 25.0789" />
<path class="stroke" d="M 12.1451 33.59624 L 40.2208 33.59624" />
<path class="stroke" d="M 6.782335 51.57724 L 44.006287 51.57724" />
<path class="stroke" d="M 27.287043 33.9117 L 27.287043 88.1703" />
<path class="stroke" d="M 6.46688 61.672 C 10.7781 65.878 14.143 70.3996 17.5079 75.2366" />
<path class="stroke" d="M 43.06 61.6719 C 40.7466 67.4553 37.4868 72.2923 33.2807 77.1294" />
<path class="stroke" d="M 8.04416 94.4795 L 42.7445 83.7539" />
<path class="stroke" d="M 53.24134135 22.8707 L 91.93219300000001 22.8707" />
<path class="stroke" d="M 63.8249215 8.04415 L 63.8249215 43.05994" />
<path class="stroke" d="M 81.17507850000001 7.7287 L 81.17507850000001 43.0599" />
<path class="stroke" d="M 48.55678235 43.3754 L 96.79023025000001 43.3754" />
<path class="stroke" d="M 58.6094871 59.55255435 L 58.6094871 94.1335728" />
<path class="stroke" d="M 58.6094871 59.55255435 L 86.22992500000001 59.55255435 L 86.22992500000001 94.1335728" />
<path class="stroke" d="M 58.77007225 75.90105220999999 L 86.06934150000001 75.90105220999999" />
<path class="stroke" d="M 58.6094871 92.62408507999999 L 86.22992500000001 92.62408507999999" />
</svg>
