<?xml version="1.0" standalone="no"?>
<!DOCTYPE svg PUBLIC "-//W3C//DTD SVG 1.1//EN" "http://www.w3.org/Graphics/SVG/1.1/DTD/svg11.dtd">
<svg xmlns="http://www.w3.org/2000/svg" version="1.1" width="100%" height="100%">
<style type="text/css"><![CDATA[
  .stroke { fill:none; stroke:black; stroke-width:2 }
]]></style>
<path class="stroke" d="M 27.918 5.5205 C 21.8192 17.8233 14.4585 30.7571 4.88959 40.5363" />
<path class="stroke" d="M 27.918 5.83596 C 34.0168 11.8296 38.2229 18.4543 42.7445 25.0789" />
<path class="stroke" d="M 12.1451 33.59624 L 40.2208 33.59624" />
<path class="stroke" d="M 6.782335 51.57724 L 44.006287 51.57724" />
<path class="stroke" d="M 27.287043 33.9117 L 27.287043 88.1703" />
<path class="stroke" d="M 6.46688 61.672 C 10.7781 65.878 14.143 70.3996 17.5079 75.2366" />
<path class="stroke" d="M 43.06 61.6719 C 40.7466 67.4553 37.4868 72.2923 33.2807 77.1294" />
<path class="stroke" d="M 8.04416 94.4795 L 42.7445 83.7539" />
<path class="stroke" d="M 54.35863885 17.958115 L 90.64135950000001 17.958115" />
<path class="stroke" d="M 58.6138618 29.20792 L 58.6138618 57.8534" />
<path class="stroke" d="M 58.6138618 29.20792 L 87.70418570000001 29.20792 L 87.70418570000001 58.167534" />
<path class="stroke" d="M 58.77722665 43.465347 L 87.35863499999999 43.465347" />
<path class="stroke" d="M 58.77722665 57.72277 L 86.84031279999999 57.72277" />
<path class="stroke" d="M 72.8455485 9.790575 L 72.8455485 90.20942" />
<path class="stroke" d="M 72.673525 57.2556 C 67.44160435 72.33576 61.2637486 85.7412 54.35863885 88.95288" />
<path class="stroke" d="M 72.673525 57.2556 C 77.2372248 72.9197 84.41515875 86.39163 91.159685 89.89529" />
</svg>
