<?xml version="1.0" standalone="no"?>
<!DOCTYPE svg PUBLIC "-//W3C//DTD SVG 1.1//EN" "http://www.w3.org/Graphics/SVG/1.1/DTD/svg11.dtd">
<svg xmlns="http://www.w3.org/2000/svg" version="1.1" width="100%" height="100%">
<style type="text/css"><![CDATA[
  .stroke { fill:none; stroke:black; stroke-width:2 }
]]></style>
<path class="stroke" d="M 50.6309 1.8422476000000003 L 50.6309 11.419534000000002" />
<path class="stroke" d="M 6.466877 11.627698000000002 L 6.466877 19.955776" />
<path class="stroke" d="M 6.466877 11.627698000000002 L 94.164055 11.627698000000002 L 94.164055 19.955776" />
<path class="stroke" d="M 18.47737146 32.981532058 L 83.79707 32.981532058" />
<path class="stroke" d="M 50.472895 16.558223886999997 L 50.12149667999999 16.79037418 C 46.41928976 35.754161679999996 35.362617779999994 42.558974109999994 9.71028004 54.398599929999996" />
<path class="stroke" d="M 58.55514096 33.040840042 C 66.28597919999999 40.933925164 72.61121476 47.898411598 88.4243046 54.86289679" />
<path class="stroke" d="M 19.50761334 37.60548052388235 C 23.22944088 39.77499385 25.51979788 40.64279861058823 28.66903664 43.53548272882353" />
<path class="stroke" d="M 81.6335096 38.32865179088235 C 79.3431432 40.06426273670588 79.62944464 41.36597035247058 71.3269078 44.25865399582353" />
<path class="stroke" d="M 24.744522 50.8801282183 L 24.744522 72.6926574304" />
<path class="stroke" d="M 24.744522 50.8801282183 L 74.9635 50.8801282183 L 74.9635 72.6926574304" />
<path class="stroke" d="M 25.036495 61.19220412378 L 74.67153 61.19220412378" />
<path class="stroke" d="M 24.744522 71.74052396344001 L 74.9635 71.74052396344001" />
<path class="stroke" d="M 50.005287 72.98479183194999 L 50.005287 94.4959722265 C 50.005287 95.11309612675 48.394157 95.4657390025 47.226276 95.4657390025 L 45.18248 95.4657390025" />
<path class="stroke" d="M 26.788319 81.007403743 C 25.328465 84.093024754 20.948904 86.73784254774999 14.817516 88.8536970847" />
<path class="stroke" d="M 70.58394 81.007403743 C 76.423355 82.8587769535 81.386856 85.32727346035 84.306564 89.0300171638" />
</svg>
