<?xml version="1.0" standalone="no"?>
<!DOCTYPE svg PUBLIC "-//W3C//DTD SVG 1.1//EN" "http://www.w3.org/Graphics/SVG/1.1/DTD/svg11.dtd">
<svg xmlns="http://www.w3.org/2000/svg" version="1.1" width="100%" height="100%">
<style type="text/css"><![CDATA[
  .stroke { fill:none; stroke:black; stroke-width:2 }
]]></style>
<path class="stroke" d="M 12.003300000000001 33.069305 L 29.825083333333335 30.9901" />
<path class="stroke" d="M 23.389438333333334 9.60396 L 23.389438333333334 84.15842 C 23.389438333333334 87.42574 21.161715833333336 90.09901 18.19141916666667 90.09901" />
<path class="stroke" d="M 12.498349166666667 63.36634 L 28.09241 46.435642" />
<path class="stroke" d="M 42.61577392 9.44652787 C 41.8600006336 15.024999999999999 41.596001848 24.222222656999996 31.432000512160002 35.42611479" />
<path class="stroke" d="M 41.9920012144 14.356111478999999 L 70.56896248 14.356111478999999 L 63.851473504 23.968325244" />
<path class="stroke" d="M 42.032116 24.939707809999998 L 42.032116 68.77912069999999" />
<path class="stroke" d="M 42.032116 24.939707809999998 L 85.967884 24.939707809999998 L 85.967884 66.38788094 C 85.967884 67.82262698 85.33722159999999 68.61970508 83.4452488 68.61970508 L 81.3430612 68.61970508" />
<path class="stroke" d="M 57.451678192 25.784612452399998 L 57.451678192 36.1625968328 C 57.451678192 45.313078646 53.625693232 54.3519687608 44.060729824 56.69538449" />
<path class="stroke" d="M 66.133721296 25.6730219006 L 66.133721296 52.008553796 C 66.133721296 54.79833478999999 68.046715792 56.472202622 70.106858632 56.472202622 L 81.584812 56.472202622 C 83.20350375999999 56.58379355599999 84.3807268 55.691062261999996 84.3807268 54.463558166 L 84.3807268 52.343328126799996" />
<path class="stroke" d="M 39.08905048 71.8029192 L 89.12116 71.8029192" />
<path class="stroke" d="M 64.1051056 60.7080292 L 64.1051056 73.08759 C 64.1051056 82.080292 53.06532111999999 91.3235656 35.725546 93.40876" />
<path class="stroke" d="M 64.1051056 72.9708024 C 64.1051056 82.19708 75.3785128 91.302368 92.4846688 93.40876" />
</svg>
