<?xml version="1.0" standalone="no"?>
<!DOCTYPE svg PUBLIC "-//W3C//DTD SVG 1.1//EN" "http://www.w3.org/Graphics/SVG/1.1/DTD/svg11.dtd">
<svg xmlns="http://www.w3.org/2000/svg" version="1.1" width="100%" height="100%">
<style type="text/css"><![CDATA[
  .stroke { fill:none; stroke:black; stroke-width:2 }
]]></style>
<path class="stroke" d="M 9.1605835 9.75426972 L 40.8394125 9.75426972" />
<path class="stroke" d="M 25.0 3.1650727257500004 L 25.0 18.343757315" />
<path class="stroke" d="M 4.9270065 18.343757315 L 44.927005 18.343757315" />
<path class="stroke" d="M 18.503649 20.355912187 L 18.503649 23.709342514 C 18.503649 26.666130855000002 14.708029 29.586860654000002 5.218978 30.344086825" />
<path class="stroke" d="M 27.116787 20.3198540155 L 27.116787 28.82963473 C 27.116787 29.731094575 29.014599 30.271970235 31.0583915 30.271970235 L 42.44525 30.271970235 C 44.051095 30.30802853 45.218975 30.019560935 45.218975 29.622918454999997 L 45.218975 28.937810108999997" />
<path class="stroke" d="M 9.1605835 47.184306 L 40.8394125 47.184306" />
<path class="stroke" d="M 25.0 36.556568912500005 L 25.0 61.038318249999996" />
<path class="stroke" d="M 4.9270065 61.038318249999996 L 44.927005 61.038318249999996" />
<path class="stroke" d="M 71.131385 6.59489025 L 69.8175165 27.470800500000003 C 68.357662 43.22262490000001 63.83235 56.07790500000001 54.781021 58.97444800000001" />
<path class="stroke" d="M 56.386860999999996 25.762771450000002 L 80.036495 20.259122650000002 C 79.1605835 29.17882955 78.4306565 42.2737185 79.89051 54.2299225 C 80.47445 56.3175171 81.204376 58.594887 84.85401 58.594887 L 92.59124 58.4051065 C 94.051095 58.594887 94.92700500000001 56.88685600000001 94.92700500000001 54.9890445 L 94.92700500000001 51.762769500000005" />
<path class="stroke" d="M 63.248175 31.6459845 C 66.3138675 32.2153273 69.525547 33.92335505 72.59124 37.90875855" />
<path class="stroke" d="M 24.744522 76.6240873 L 83.43065 75.8065692 C 81.9708 87.456203 77.59124 93.68978 76.131386 95.018247 C 74.379555 96.1423336 70.87591 96.4489035 67.9562 96.551093 L 65.03649 96.4489035" />
<path class="stroke" d="M 53.64963 68.6532846 C 50.14598 80.09853905 38.75912 91.74817425 20.364962 95.018247" />
</svg>
