<?xml version="1.0" standalone="no"?>
<!DOCTYPE svg PUBLIC "-//W3C//DTD SVG 1.1//EN" "http://www.w3.org/Graphics/SVG/1.1/DTD/svg11.dtd">
<svg xmlns="http://www.w3.org/2000/svg" version="1.1" width="100%" height="100%">
<style type="text/css"><![CDATA[
  .stroke { fill:none; stroke:black; stroke-width:2 }
]]></style>
<path class="stroke" d="M 8.250825 11.089109 L 29.838708333333333 11.290321 C 31.451613333333338 17.741934 26.61290166666667 33.225803 21.774193333333333 40.0" />
<path class="stroke" d="M 21.774193333333333 40.96774 C 25.80645 44.51613 29.032255833333334 49.032257 30.645160833333332 54.19355 C 32.2580625 57.09677 32.2580625 65.161285 23.655913333333334 68.38709 L 18.54838666666667 69.354836" />
<path class="stroke" d="M 10.726071666666666 11.089109 L 10.726071666666666 90.09901" />
<path class="stroke" d="M 65.0 5.13357653 L 65.0 9.31167884" />
<path class="stroke" d="M 45.481750899999994 9.548174809999999 L 84.92700500000001 9.548174809999999" />
<path class="stroke" d="M 48.7518233 12.9379565 C 52.839414500000004 15.77591192 55.9051086 19.4810204 57.5401441 23.1072986" />
<path class="stroke" d="M 81.8613095 12.3072986 C 76.956203 15.224087 72.8686125 19.7175188 71.84671399999999 24.368611700000002" />
<path class="stroke" d="M 37.919707599999995 25.1569334 L 91.67153299999998 25.1569334" />
<path class="stroke" d="M 49.796202244 42.820277129 L 49.796202244 64.142785952" />
<path class="stroke" d="M 49.796202244 42.820277129 L 80.028027 42.820277129 L 80.028027 64.142785952" />
<path class="stroke" d="M 49.97196999 52.900691341400005 L 79.85226105999999 52.900691341400005" />
<path class="stroke" d="M 49.796202244 63.2120422472 L 80.028027 63.2120422472" />
<path class="stroke" d="M 36.8978091 74.25574667000001 L 93.510944 74.25574667000001" />
<path class="stroke" d="M 64.946359 65.403413243 L 64.946359 92.166583418" />
</svg>
