<?xml version="1.0" standalone="no"?>
<!DOCTYPE svg PUBLIC "-//W3C//DTD SVG 1.1//EN" "http://www.w3.org/Graphics/SVG/1.1/DTD/svg11.dtd">
<svg xmlns="http://www.w3.org/2000/svg" version="1.1" width="100%" height="100%">
<style type="text/css"><![CDATA[
  .stroke { fill:none; stroke:black; stroke-width:2 }
]]></style>
<path class="stroke" d="M 6.0948895 9.80839375 L 43.905105 9.80839375" />
<path class="stroke" d="M 17.335765 5.246349375 L 17.335765 14.735400624999999" />
<path class="stroke" d="M 32.66423 5.246349375 L 32.66423 14.735400624999999" />
<path class="stroke" d="M 15.37855 14.92507625 C 13.90645 20.91875 10.06835 26.794137499999998 3.391165 30.5402" />
<path class="stroke" d="M 13.95895 20.958199999999998 L 45.03155 21.076475000000002 L 44.8738 34.3257125 C 44.55835 40.3194125 41.2461 47.2594625 35.56785 47.338325 L 33.2019 47.338325" />
<path class="stroke" d="M 17.08029175 28.28558375 L 17.08029175 37.3950725" />
<path class="stroke" d="M 17.08029175 28.28558375 L 32.9927 28.28558375 L 32.9927 37.3074815" />
<path class="stroke" d="M 17.08029175 36.6943424 L 32.9927 36.6943424" />
<path class="stroke" d="M 68.168318 4.950495 C 66.6831685 11.3366335 63.118812500000004 18.91089 57.623762 23.217821" />
<path class="stroke" d="M 62.970297 17.8712865 L 88.069305 17.8712865" />
<path class="stroke" d="M 76.48515 18.019802 C 74.70297 30.643566 67.1287135 41.188118 55.247525 44.90099" />
<path class="stroke" d="M 62.970297 21.7326735 C 66.237623 30.79208 82.12871 45.049505 90.89108999999999 45.049505" />
<path class="stroke" d="M 28.248173 55.247525 L 28.248173 79.452553" />
<path class="stroke" d="M 28.350513 55.206185500000004 L 76.59794 55.206185500000004" />
<path class="stroke" d="M 52.51272 55.2839 L 52.51272 79.452553" />
<path class="stroke" d="M 28.248173 63.248175 L 72.04379 63.248175" />
<path class="stroke" d="M 28.540146 71.56934150000001 L 72.04379 71.56934150000001" />
<path class="stroke" d="M 28.248173 79.452553 L 87.81021 79.452553 C 87.81021 90.693428 84.59853 95.218975 78.17518 95.218975" />
<path class="stroke" d="M 15.985401 85.145985 C 15.109488 87.0437925 13.357662 89.233575 10.437956 90.40146" />
<path class="stroke" d="M 29.708027 84.56204199999999 C 31.751823 86.021895 33.211678 87.77372 34.08759 90.54744500000001" />
<path class="stroke" d="M 48.10219 84.270073 C 50.437954 86.021895 52.189777 87.77372 53.357662 89.817515" />
<path class="stroke" d="M 67.37226 83.68612999999999 C 70.0 85.58394 71.45985 86.60584 72.62773 88.94160500000001" />
</svg>
