<?xml version="1.0" standalone="no"?>
<!DOCTYPE svg PUBLIC "-//W3C//DTD SVG 1.1//EN" "http://www.w3.org/Graphics/SVG/1.1/DTD/svg11.dtd">
<svg xmlns="http://www.w3.org/2000/svg" version="1.1" width="100%" height="100%">
<style type="text/css"><![CDATA[
  .stroke { fill:none; stroke:black; stroke-width:2 }
]]></style>
<path class="stroke" d="M 18.905107 9.854013 L 90.14598 9.854013" />
<path class="stroke" d="M 18.613138 9.854013 L 18.613138 31.167881 C 18.613138 74.67153 14.817516 81.386856 10.198019 90.09901" />
<path class="stroke" d="M 38.30072716 20.420496024000002 L 38.30072716 49.02709171200001" />
<path class="stroke" d="M 38.30072716 20.420496024000002 L 77.47153 20.420496024000002 L 77.47153 49.02709171200001" />
<path class="stroke" d="M 38.5284661 33.9445299984 L 77.24379340000002 33.9445299984" />
<path class="stroke" d="M 38.30072716 47.7783920832 L 77.47153 47.7783920832" />
<path class="stroke" d="M 40.35036358000001 60.9512402544 L 78.61021690000001 60.9512402544 C 74.28320980000001 65.0378972256 68.57815174 68.05857696 57.750114520000004 69.56894832" />
<path class="stroke" d="M 57.5048248 69.56894832 C 61.674626800000006 74.56405631999999 61.07445190000001 88.64969323200002 57.886127800000004 90.92005584 C 56.519708200000004 91.82820127200002 55.153280800000005 92.05523908800001 52.87590934 92.168757024" />
<path class="stroke" d="M 26.68613014 72.888235008 L 89.76933760000001 72.888235008" />
</svg>
