<?xml version="1.0" standalone="no"?>
<!DOCTYPE svg PUBLIC "-//W3C//DTD SVG 1.1//EN" "http://www.w3.org/Graphics/SVG/1.1/DTD/svg11.dtd">
<svg xmlns="http://www.w3.org/2000/svg" version="1.1" width="100%" height="100%">
<style type="text/css"><![CDATA[
  .stroke { fill:none; stroke:black; stroke-width:2 }
]]></style>
<path class="stroke" d="M 20.594059 25.643566 L 44.059406 25.643566" />
<path class="stroke" d="M 32.475246 9.60396 L 32.475246 41.38614" />
<path class="stroke" d="M 12.277227 41.482674 L 49.10891 41.482674" />
<path class="stroke" d="M 32.475246 44.950497 L 32.475246 82.67327" />
<path class="stroke" d="M 32.475246 59.50495 L 47.623764 59.50495" />
<path class="stroke" d="M 20.891088 59.50495 C 18.217821 72.871284 17.623762 79.10891 9.90099 90.09901" />
<path class="stroke" d="M 17.920792 73.762375 C 35.148514 91.58416 70.792076 89.80198 90.09901 89.80198" />
<path class="stroke" d="M 51.97634 21.386456 L 51.97634 71.335992 M 45.9037845 75.354916 L 61.692475 65.881725" />
<path class="stroke" d="M 51.976285000000004 21.099378299999998 L 93.7902 21.099378299999998" />
<path class="stroke" d="M 72.27607 5.3107236 L 72.27607 28.275975000000003 C 72.333875 59.183397 82.801805 84.636734 91.36118 84.828016 L 91.36118 75.067902" />
<path class="stroke" d="M 91.70817500000001 40.61990387 C 85.28863 64.0635996 70.88798 80.0436546 56.313838000000004 84.8281616" />
<path class="stroke" d="M 85.2886685 6.7460575 C 87.25502850000001 9.0425881 88.5273435 11.0520501 89.79965849999999 14.783960100000002" />
</svg>
