<?xml version="1.0" standalone="no"?>
<!DOCTYPE svg PUBLIC "-//W3C//DTD SVG 1.1//EN" "http://www.w3.org/Graphics/SVG/1.1/DTD/svg11.dtd">
<svg xmlns="http://www.w3.org/2000/svg" version="1.1" width="100%" height="100%">
<style type="text/css"><![CDATA[
  .stroke { fill:none; stroke:black; stroke-width:2 }
]]></style>
<path class="stroke" d="M 5.44165 6.943194 L 5.356164 58.9" />
<path class="stroke" d="M 5.44165 6.943194 L 45.03155 6.943194" />
<path class="stroke" d="M 23.1072635 6.943256 L 23.1072635 22.589886" />
<path class="stroke" d="M 5.44165 23.372208200000003 L 38.2492 23.372208200000003 L 38.2492 40.192436199999996" />
<path class="stroke" d="M 5.44165 40.192436199999996 L 38.2492 40.192436199999996" />
<path class="stroke" d="M 23.264992 40.38804 L 23.264992 56.23028" />
<path class="stroke" d="M 5.44165 56.42589 L 45.347 56.42589" />
<path class="stroke" d="M 53.94455422 13.518982058285715 C 52.56633618 24.736860014857147 50.4990097 36.38619235771429 47.7425742 44.152416340571435" />
<path class="stroke" d="M 51.70495092 29.91434170171429 L 94.4297032 29.91434170171429" />
<path class="stroke" d="M 57.2349481136 49.6 L 92.88504836 49.6" />
<path class="stroke" d="M 18.4542 66.391168 L 18.4542 91.627776" />
<path class="stroke" d="M 18.4542 66.391168 L 80.5994 66.391168 L 80.5994 91.526816" />
<path class="stroke" d="M 39.27444 66.492128 L 39.27444 91.627776" />
<path class="stroke" d="M 60.41014 66.49211424 L 60.41014 91.7287232" />
<path class="stroke" d="M 7.09779 91.728704 L 92.9022 91.728704" />
</svg>
