<?xml version="1.0" standalone="no"?>
<!DOCTYPE svg PUBLIC "-//W3C//DTD SVG 1.1//EN" "http://www.w3.org/Graphics/SVG/1.1/DTD/svg11.dtd">
<svg xmlns="http://www.w3.org/2000/svg" version="1.1" width="100%" height="100%">
<style type="text/css"><![CDATA[
  .stroke { fill:none; stroke:black; stroke-width:2 }
]]></style>
<path class="stroke" d="M 26.788319 6.437550694444444 C 24.452553 11.912002777777777 21.824816 15.35887986111111 16.861313 17.994727083333334" />
<path class="stroke" d="M 24.452553 12.520274999999998 L 47.226276 12.520274999999998" />
<path class="stroke" d="M 30.0 12.925790277777777 C 34.08759 16.169911111111112 35.547443 18.805758333333333 36.423355 23.6719375" />
<path class="stroke" d="M 65.32846 6.437550694444444 C 63.284668 13.128546527777779 60.07299 15.967152083333334 57.44525 17.994727083333334" />
<path class="stroke" d="M 62.9927 12.723032638888888 L 86.35036 12.723032638888888" />
<path class="stroke" d="M 72.62773 13.128546527777779 C 72.9197 17.589211805555557 71.16788 20.630574305555555 67.9562 23.6719375" />
<path class="stroke" d="M 50.14598 30.124525552 L 50.14598 38.140875088" />
<path class="stroke" d="M 12.4817505 38.323063744 L 12.4817505 47.06817352" />
<path class="stroke" d="M 12.4817505 38.323063744 L 87.81021 38.323063744 L 87.81021 47.06817352" />
<path class="stroke" d="M 28.5142136 47.555483200000005 L 28.5142136 92.26178224" />
<path class="stroke" d="M 28.5142136 47.555483200000005 L 71.2649656 47.555483200000005 L 71.2649656 64.09048480000001" />
<path class="stroke" d="M 28.791765599999998 64.09048480000001 L 71.2649656 64.09048480000001" />
<path class="stroke" d="M 28.5142136 76.491736 L 74.26336848000001 76.491736 L 74.26336848000001 92.26178224" />
<path class="stroke" d="M 28.52079072 92.26178224 L 74.26336848000001 92.26178224" />
</svg>
