<?xml version="1.0" standalone="no"?>
<!DOCTYPE svg PUBLIC "-//W3C//DTD SVG 1.1//EN" "http://www.w3.org/Graphics/SVG/1.1/DTD/svg11.dtd">
<svg xmlns="http://www.w3.org/2000/svg" version="1.1" width="100%" height="100%">
<style type="text/css"><![CDATA[
  .stroke { fill:none; stroke:black; stroke-width:2 }
]]></style>
<path class="stroke" d="M 8.21167824074074 34.485396050000006 L 8.21167824074074 87.697073 L 37.00324074074074 87.697073" />
<path class="stroke" d="M 17.12625 17.82846505 C 18.532035185185183 20.8065684 19.829683703703704 24.28102075 20.669740740740743 29.41171" />
<path class="stroke" d="M 38.21302962962963 17.82846505 C 37.56420555555556 22.2956205 36.3746962962963 26.0182482 34.75263518518519 29.244525199999998" />
<path class="stroke" d="M 14.747228148148148 39.66788055 L 40.91646296296297 39.66788055" />
<path class="stroke" d="M 27.77777777777778 11.163366 L 27.831844444444446 79.836634" />
<path class="stroke" d="M 25.777235925925925 41.9014587 C 23.55162962962963 53.732929999999996 19.056925925925924 65.76323500000001 13.665855555555556 72.17882759999999" />
<path class="stroke" d="M 29.994591481481482 42.1496315 C 31.812037037037037 53.822265 36.33411111111111 66.47154 41.78155925925926 72.42700125" />
<path class="stroke" d="M 76.07445111999999 10.145985 C 69.7678813 15.109488 63.77664016 17.153284 57.312408160000004 17.445253" />
<path class="stroke" d="M 57.312408160000004 17.445253 L 57.312408160000004 49.562042 C 57.312408160000004 58.613136 56.20875778 73.50365 52.89780988 84.59853" />
<path class="stroke" d="M 57.312408160000004 34.37956 L 90.7372234 34.37956" />
<path class="stroke" d="M 74.02481632 34.37956 L 74.02481632 90.14598" />
</svg>
