<?xml version="1.0" standalone="no"?>
<!DOCTYPE svg PUBLIC "-//W3C//DTD SVG 1.1//EN" "http://www.w3.org/Graphics/SVG/1.1/DTD/svg11.dtd">
<svg xmlns="http://www.w3.org/2000/svg" version="1.1" width="100%" height="100%">
<style type="text/css"><![CDATA[
  .stroke { fill:none; stroke:black; stroke-width:2 }
]]></style>
<path class="stroke" d="M 24.744522 4.87956175 L 24.744522 30.631384" />
<path class="stroke" d="M 24.744522 4.87956175 L 74.9635 4.87956175 L 74.9635 30.631384" />
<path class="stroke" d="M 25.036495 17.05397505 L 74.67153 17.05397505" />
<path class="stroke" d="M 24.744522 29.507297399999995 L 74.9635 29.507297399999995" />
<path class="stroke" d="M 14.984257 44.0883512 L 85.33126 44.0883512" />
<path class="stroke" d="M 34.22713 34.9551964 L 34.22713 56.524923040000004" />
<path class="stroke" d="M 65.77287 34.7608792 L 65.77287 56.524898400000005" />
<path class="stroke" d="M 6.466877 56.7192464 L 94.164055 56.7192464" />
<path class="stroke" d="M 31.7035 57.496546 C 28.7592 61.625901999999996 22.0295 63.860595999999994 14.3533 65.0751016" />
<path class="stroke" d="M 65.7729 57.49649980000001 C 69.7686 61.577253400000004 75.3417 63.6176302 83.123 65.0750554" />
<path class="stroke" d="M 48.940087999999996 66.308363 L 48.940087999999996 92.3982205 C 49.028372 94.7131275 47.526788 95.90193749999999 44.435336 95.77680899999999 L 42.315428 95.77680899999999" />
<path class="stroke" d="M 25.621402399999997 70.8130961 C 30.302806399999998 72.6274296 33.3942584 75.0049901 36.485794399999996 78.1332026" />
<path class="stroke" d="M 16.3469792 93.33671399999999 C 24.031568 89.5202055 30.921163999999997 86.82991299999999 40.195603999999996 84.139561" />
<path class="stroke" d="M 73.31860999999999 71.37619219999999 C 69.962054 74.6296522 66.34064599999999 76.7568367 62.18919799999999 78.69635819999999" />
<path class="stroke" d="M 58.744517599999995 83.57647084999999 C 65.10407359999999 87.64323635 71.9936696 90.95923085 79.41322159999999 94.08756234999998" />
</svg>
