<?xml version="1.0" standalone="no"?>
<!DOCTYPE svg PUBLIC "-//W3C//DTD SVG 1.1//EN" "http://www.w3.org/Graphics/SVG/1.1/DTD/svg11.dtd">
<svg xmlns="http://www.w3.org/2000/svg" version="1.1" width="100%" height="100%">
<style type="text/css"><![CDATA[
  .stroke { fill:none; stroke:black; stroke-width:2 }
]]></style>
<path class="stroke" d="M 25.25 6.151438666666671 L 25.25 16.666666666666668" />
<path class="stroke" d="M 7.1875 16.666666666666668 L 43.3125 16.666666666666668" />
<path class="stroke" d="M 24.0711673 17.755474000000003 C 21.589415499999998 24.10583875 15.667652499999999 31.217449999999996 8.6843058 36.29562 C 19.107663275 35.4927 28.166058025 35.1277375 38.0835975 35.181125" />
<path class="stroke" d="M 33.253648874999996 30.602188 C 36.107662 31.98905 38.589413799999996 34.105838750000004 40.202554 36.9525525" />
<path class="stroke" d="M 16.167883 44.109488060000004 L 16.167883 75.788318 C 16.167883 82.8118826 16.167883 85.758414 16.167883 92.57227972000001" />
<path class="stroke" d="M 16.167883 44.109488060000004 L 36.60584 44.109488060000004 L 36.60584 91.35620180000001 C 36.60584 92.8043792 36.021895 94.071529 34.562042 94.071529 L 32.956205 94.071529" />
<path class="stroke" d="M 16.167883 57.75479774 L 36.60584 57.75479774" />
<path class="stroke" d="M 16.167883 72.16840832 L 36.60584 72.16840832" />
<path class="stroke" d="M 68.168318 9.90099 C 66.6831685 22.673267 63.118812500000004 37.82178 57.623762 46.435642" />
<path class="stroke" d="M 62.970297 35.742573 L 88.069305 35.742573" />
<path class="stroke" d="M 76.48515 36.039604 C 74.70297 61.287132 67.1287135 82.376236 55.247525 89.80198" />
<path class="stroke" d="M 62.970297 43.465347 C 66.237623 61.58416 82.12871 90.09901 90.89108999999999 90.09901" />
</svg>
