<?xml version="1.0" standalone="no"?>
<!DOCTYPE svg PUBLIC "-//W3C//DTD SVG 1.1//EN" "http://www.w3.org/Graphics/SVG/1.1/DTD/svg11.dtd">
<svg xmlns="http://www.w3.org/2000/svg" version="1.1" width="100%" height="100%">
<style type="text/css"><![CDATA[
  .stroke { fill:none; stroke:black; stroke-width:2 }
]]></style>
<path class="stroke" d="M 23.45112 5.5205 C 18.328128 17.8233 12.14514 30.7571 4.1072556 40.5363" />
<path class="stroke" d="M 23.45112 5.83596 C 28.574112000000003 11.8296 32.107236 18.4543 35.90538 25.0789" />
<path class="stroke" d="M 10.201884 33.59624 L 33.785472 33.59624" />
<path class="stroke" d="M 5.6971614 51.57724 L 36.96528108 51.57724" />
<path class="stroke" d="M 22.92111612 33.9117 L 22.92111612 88.1703" />
<path class="stroke" d="M 5.432179199999999 61.672 C 9.053604 65.878 11.88012 70.3996 14.706636 75.2366" />
<path class="stroke" d="M 36.1704 61.6719 C 34.227144 67.4553 31.488912 72.2923 27.955788000000002 77.1294" />
<path class="stroke" d="M 6.7570944 94.4795 L 35.90538 83.7539" />
<path class="stroke" d="M 44.36121 20.34703 L 92.626165 20.34703" />
<path class="stroke" d="M 47.846975 35.48899 L 89.140315 35.48899" />
<path class="stroke" d="M 44.6293374 50.63089 L 92.3581124 50.63089" />
<path class="stroke" d="M 63.667175 6.78233 L 63.66726 50.6309 C 64.471615 77.9706 78.680555 94.043 85.65455 94.4795 C 87.08221 94.5688 88.516925 94.5542 89.944755 94.4795 C 92.538955 94.3438 94.59246999999999 92.4816 95.307575 89.1167 L 95.307575 84.0694" />
<path class="stroke" d="M 89.944755 64.1956 C 75.28650499999999 82.7024 58.215104999999994 89.8529 39.802915 93.5332" />
<path class="stroke" d="M 74.124674 6.78234 C 77.25284400000001 8.88539 78.772389 10.98846 80.559939 14.03789" />
</svg>
