<?xml version="1.0" standalone="no"?>
<!DOCTYPE svg PUBLIC "-//W3C//DTD SVG 1.1//EN" "http://www.w3.org/Graphics/SVG/1.1/DTD/svg11.dtd">
<svg xmlns="http://www.w3.org/2000/svg" version="1.1" width="100%" height="100%">
<style type="text/css"><![CDATA[
  .stroke { fill:none; stroke:black; stroke-width:2 }
]]></style>
<path class="stroke" d="M 56.237625 9.306931 C 57.72277 12.574257 58.91089 15.544554 58.91089 19.108912" />
<path class="stroke" d="M 27.956203 19.197079 L 86.9343 19.197079" />
<path class="stroke" d="M 27.956203 19.197079 L 27.956203 36.131386 C 27.956203 56.861313 21.532845 72.62773 6.159601 93.8404" />
<path class="stroke" d="M 46.99345088970588 26.203211564 C 44.84446015441176 30.554744036000002 40.381171573529414 34.583941352 36.579110301470585 36.84029048" />
<path class="stroke" d="M 43.68731038235294 31.441167164 L 43.68731038235294 47.960874200000006" />
<path class="stroke" d="M 55.794158839999994 31.36058372 L 79.30364660000001 31.36058372" />
<path class="stroke" d="M 73.4444834 25.558540148 L 73.4444834 46.429778 C 73.4444834 47.15503424 72.3664196 47.88029048 70.63211383999999 47.88029048 L 67.5489014 47.88029048" />
<path class="stroke" d="M 56.75766248 34.1810222 C 59.648173400000005 34.825693064 61.3824818 35.873284184 62.3459828 37.082043295999995" />
<path class="stroke" d="M 41.55839345 60.118977386 L 41.55839345 87.07430665999999" />
<path class="stroke" d="M 41.5099016 60.118977386 L 75.7627708 60.118977386 L 75.7627708 85.14028909999999 C 75.7627708 86.83255136 74.7992665 87.92043571999999 73.1934282 87.92043571999999 L 71.74817175000001 87.79956014" />
<path class="stroke" d="M 58.90145765 54.437810221999996 C 58.90145765 63.62437789999999 53.762773 67.25065565 47.5 70.030801442" />
<path class="stroke" d="M 57.4562045 63.019999999999996 C 62.5948875 63.987007123999994 66.930653 67.008903662 69.33941100000001 70.27255384399999" />
<path class="stroke" d="M 60.1861295 69.66817345999999 C 58.90145765 74.865838304 52.63868465 78.49211564 47.5 80.1843779" />
<path class="stroke" d="M 58.673536 73.65080792 C 63.07664185 74.865838304 67.2518255 76.920727718 69.6605835 80.54700463999998" />
</svg>
