<?xml version="1.0" standalone="no"?>
<!DOCTYPE svg PUBLIC "-//W3C//DTD SVG 1.1//EN" "http://www.w3.org/Graphics/SVG/1.1/DTD/svg11.dtd">
<svg xmlns="http://www.w3.org/2000/svg" version="1.1" width="100%" height="100%">
<style type="text/css"><![CDATA[
  .stroke { fill:none; stroke:black; stroke-width:2 }
]]></style>
<path class="stroke" d="M 13.886999999999999 8.990537 L 13.886999999999999 74.60566" />
<path class="stroke" d="M 13.886999999999999 8.990537 L 38.91786956521739 8.990537 L 38.91786956521739 74.60566" />
<path class="stroke" d="M 13.886999999999999 31.072573 L 38.57493478260869 31.072573" />
<path class="stroke" d="M 13.886999999999999 53.1546 L 38.57493478260869 53.1546" />
<path class="stroke" d="M 13.886999999999999 74.60566 L 38.91786956521739 74.60566" />
<path class="stroke" d="M 20.05891304347826 82.1766 C 17.773043478260867 87.4343 13.429782608695652 91.7455 7.02920652173913 95.1104" />
<path class="stroke" d="M 32.06011956521739 82.49213 C 35.374684782608696 85.43633 37.66055434782608 88.38063 38.91783695652173 92.58673" />
<path class="stroke" d="M 75.07299 9.952554750000001 L 75.07299 19.587590249999998" />
<path class="stroke" d="M 56.24087525 19.806567 L 56.24087525 30.31751625" />
<path class="stroke" d="M 56.24087525 19.806567 L 93.90510499999999 19.806567 L 93.90510499999999 30.31751625" />
<path class="stroke" d="M 54.3430655 42.840145989999996 L 95.8029175 42.840145989999996" />
<path class="stroke" d="M 75.07299 43.391970549999996 L 75.07299 91.58467042000001 C 75.07299 92.6883208 74.343065 94.1598496 73.321167 94.1598496 L 70.5474435 94.1598496" />
</svg>
