<?xml version="1.0" standalone="no"?>
<!DOCTYPE svg PUBLIC "-//W3C//DTD SVG 1.1//EN" "http://www.w3.org/Graphics/SVG/1.1/DTD/svg11.dtd">
<svg xmlns="http://www.w3.org/2000/svg" version="1.1" width="100%" height="100%">
<style type="text/css"><![CDATA[
  .stroke { fill:none; stroke:black; stroke-width:2 }
]]></style>
<path class="stroke" d="M 9.854013 9.343063999999998 L 9.854013 20.7883176" />
<path class="stroke" d="M 9.854013 8.8759096 L 90.14598 8.8759096 L 90.14598 21.0218936" />
<path class="stroke" d="M 37.007298 12.8686126 L 37.007298 21.0145972 C 37.007298 28.197079 29.416058 35.2919692 10.437956 37.131384999999995" />
<path class="stroke" d="M 54.233574 12.781021899999999 L 54.233574 33.452554 C 54.233574 35.642335 58.029198 36.956203 62.116783 36.956203 L 84.8905 36.956203 C 88.10219 37.043794 90.43795 36.343063 90.43795 35.379559 L 90.43795 33.7153282" />
<path class="stroke" d="M 20.07299 54.321166 L 80.21897 54.321166" />
<path class="stroke" d="M 50.14598 45.3868612 L 50.14598 94.437952" />
<path class="stroke" d="M 50.14598 57.299268999999995 C 40.51095 70.7883196 28.832115 77.9708008 13.649633 81.64963" />
<path class="stroke" d="M 50.14598 57.299268999999995 C 59.197075 70.963501 71.45985 78.14598219999999 86.642334 81.29926900000001" />
</svg>
