<?xml version="1.0" standalone="no"?>
<!DOCTYPE svg PUBLIC "-//W3C//DTD SVG 1.1//EN" "http://www.w3.org/Graphics/SVG/1.1/DTD/svg11.dtd">
<svg xmlns="http://www.w3.org/2000/svg" version="1.1" width="100%" height="100%">
<style type="text/css"><![CDATA[
  .stroke { fill:none; stroke:black; stroke-width:2 }
]]></style>
<path class="stroke" d="M 13.154171785714285 14.059406 C 16.654879285714284 16.138615 20.15558785714286 19.108912 23.01980357142857 22.673267" />
<path class="stroke" d="M 10.926448928571428 38.118813 C 14.108912142857141 39.90099 17.927864999999997 42.574257 20.473834285714286 46.138615" />
<path class="stroke" d="M 10.608203571428572 85.64356 C 11.321795357142857 87.422676 13.310014285714285 89.896904 15.629600357142856 89.896904 C 17.949189642857142 89.896904 21.110325 76.73267 23.33804892857143 69.60396" />
<path class="stroke" d="M 51.668795065 12.116058299999999 C 50.6943418525 24.29415925 45.627189152499994 35.71897545 36.0775536775 44.883941699999994" />
<path class="stroke" d="M 72.52885892500001 12.356735319999999 C 80.70747877 21.15547272 85.969518775 33.208027 89.0877683875 45.1350359" />
<path class="stroke" d="M 42.2045614675 56.40072925 L 42.2045614675 88.5875895" />
<path class="stroke" d="M 42.2045614675 56.40072925 L 83.735947 56.40072925 L 83.735947 88.2781013" />
<path class="stroke" d="M 42.2045614675 86.11167648 L 83.735947 86.11167648" />
</svg>
