<?xml version="1.0" standalone="no"?>
<!DOCTYPE svg PUBLIC "-//W3C//DTD SVG 1.1//EN" "http://www.w3.org/Graphics/SVG/1.1/DTD/svg11.dtd">
<svg xmlns="http://www.w3.org/2000/svg" version="1.1" width="100%" height="100%">
<style type="text/css"><![CDATA[
  .stroke { fill:none; stroke:black; stroke-width:2 }
]]></style>
<path class="stroke" d="M 15.5839405 6.087591 C 14.708029 11.518247399999998 12.0802915 15.021897 9.014598 17.299269" />
<path class="stroke" d="M 13.832115 11.868612599999999 L 39.233575 11.868612599999999" />
<path class="stroke" d="M 15.5839405 19.900291566 C 15.0 29.449487982 12.6642325 37.891531788 10.912408 42.596932632000005 C 20.985401 43.56569004000001 34.270073 45.5032077 42.0072975 52.007734320000004" />
<path class="stroke" d="M 15.5839405 19.900291566 L 36.897808 19.900291566 C 36.45985 30.279852557999998 34.562042 44.119268004 30.912407 50.623791780000005 C 29.744522 52.28452472400001 27.846714 52.97649551999999 26.0948885 52.97649551999999" />
<path class="stroke" d="M 26.0948885 20.038685819999998 C 25.8029175 29.587881762 24.781021 37.199560991999995 22.2992685 43.84248233999999" />
<path class="stroke" d="M 5.0729925 32.63255298 L 45.07299 32.63255298" />
<path class="stroke" d="M 68.168318 5.940594 C 66.6831685 13.6039602 63.118812500000004 22.693067999999997 57.623762 27.8613852" />
<path class="stroke" d="M 62.970297 21.4455438 L 88.069305 21.4455438" />
<path class="stroke" d="M 76.48515 21.623762399999997 C 74.70297 36.7722792 67.1287135 49.4257416 55.247525 53.881188" />
<path class="stroke" d="M 62.970297 26.0792082 C 66.237623 36.950495999999994 82.12871 54.059406 90.89108999999999 54.059406" />
<path class="stroke" d="M 47.226276 63.5912408 C 41.38686 66.8613136 34.08759 69.7810212 26.788319 72.3503648 L 41.8179 77.72200000000001" />
<path class="stroke" d="M 63.868607 70.3649628 C 55.1943 73.97652 39.1713 79.62784 23.86861 84.9635008 L 72.62773 82.86131280000001" />
<path class="stroke" d="M 68.540146 79.240876 C 72.33576 80.9927 74.9635 82.6277376 75.83941 84.9635008" />
<path class="stroke" d="M 49.85401 84.029196 L 49.835617 96.89862959999999" />
<path class="stroke" d="M 21.824816 88.817516 C 20.364962 90.802916 18.029196 92.55474240000001 14.233576 94.072992" />
<path class="stroke" d="M 75.83941 88.934304 C 79.63503 90.218976 81.9708 91.737224 83.722626 94.072992" />
</svg>
