<?xml version="1.0" standalone="no"?>
<!DOCTYPE svg PUBLIC "-//W3C//DTD SVG 1.1//EN" "http://www.w3.org/Graphics/SVG/1.1/DTD/svg11.dtd">
<svg xmlns="http://www.w3.org/2000/svg" version="1.1" width="100%" height="100%">
<style type="text/css"><![CDATA[
  .stroke { fill:none; stroke:black; stroke-width:2 }
]]></style>
<path class="stroke" d="M 25.912407 10.729925 C 21.824816 18.029196 16.27737 23.86861 11.021896 28.540146 C 15.109488 31.45985 20.07299 36.131386 24.744522 40.218975" />
<path class="stroke" d="M 37.007298 25.912407 C 30.0 34.67153 20.656933 45.18248 8.978102 56.277367 C 19.48905 54.525543 31.167881 52.48175 41.67883 50.437954" />
<path class="stroke" d="M 38.17518 43.430653 C 41.094887 46.642334 41.970802 49.85401 43.722626 55.40146" />
<path class="stroke" d="M 26.49635 54.233574 L 26.49635 89.56204" />
<path class="stroke" d="M 17.445253 65.03649 C 15.69343 70.87591 13.649633 74.67153 9.562042 78.75912" />
<path class="stroke" d="M 34.08759 65.32846 C 37.299267 68.540146 37.35135 68.81081 38.97297 71.72973" />
<path class="stroke" d="M 65.37855 6.46687 C 63.90645 22.45 60.06835 38.1177 53.391165 48.1072" />
<path class="stroke" d="M 63.95895 22.5552 L 95.03155000000001 22.8706 L 94.8738 58.2019 C 94.55834999999999 74.1851 91.2461 92.6919 85.56784999999999 92.9022 L 83.2019 92.9022" />
<path class="stroke" d="M 68.61829900000001 42.712923599999996 C 75.62146899999999 48.727659599999996 79.690849 56.7108556 82.151419 67.8107756" />
</svg>
