<?xml version="1.0" standalone="no"?>
<!DOCTYPE svg PUBLIC "-//W3C//DTD SVG 1.1//EN" "http://www.w3.org/Graphics/SVG/1.1/DTD/svg11.dtd">
<svg xmlns="http://www.w3.org/2000/svg" version="1.1" width="100%" height="100%">
<style type="text/css"><![CDATA[
  .stroke { fill:none; stroke:black; stroke-width:2 }
]]></style>
<path class="stroke" d="M 13.154171785714285 14.059406 C 16.654879285714284 16.138615 20.15558785714286 19.108912 23.01980357142857 22.673267" />
<path class="stroke" d="M 10.926448928571428 38.118813 C 14.108912142857141 39.90099 17.927864999999997 42.574257 20.473834285714286 46.138615" />
<path class="stroke" d="M 10.608203571428572 85.64356 C 11.321795357142857 87.422676 13.310014285714285 89.896904 15.629600357142856 89.896904 C 17.949189642857142 89.896904 21.110325 76.73267 23.33804892857143 69.60396" />
<path class="stroke" d="M 78.10246187199999 2.2369855949999997 C 81.800135632 3.2953477949999996 83.948768272 4.700083244999999 85.247949232 6.6532422449999995" />
<path class="stroke" d="M 31.9747636 15.2980863 L 95.5709848 15.2980863" />
<path class="stroke" d="M 39.2429152 26.8437881 L 39.2429152 56.862803099999994" />
<path class="stroke" d="M 39.2429152 26.8437881 L 88.30285119999999 26.8437881 L 88.30285119999999 56.862803099999994" />
<path class="stroke" d="M 39.4700248 41.083622 L 87.84862480000001 41.083622" />
<path class="stroke" d="M 39.2429152 56.862803099999994 L 88.30285119999999 56.862803099999994" />
<path class="stroke" d="M 63.772839999999995 4.3296519 L 63.772839999999995 56.670342" />
<path class="stroke" d="M 35.51532832 69.86423266 L 92.27444679999999 69.86423266" />
<path class="stroke" d="M 75.2467168 62.87445238 L 75.2467168 94.0218964 C 75.2467168 95.1255472 74.405836 95.8613116 72.51386608 95.8613116 L 66.8379556 95.8613116" />
<path class="stroke" d="M 47.077372 74.52408646 C 49.599999999999994 75.62773684 51.91240816 77.22189724 53.804377360000004 79.91970634" />
</svg>
