<?xml version="1.0" standalone="no"?>
<!DOCTYPE svg PUBLIC "-//W3C//DTD SVG 1.1//EN" "http://www.w3.org/Graphics/SVG/1.1/DTD/svg11.dtd">
<svg xmlns="http://www.w3.org/2000/svg" version="1.1" width="100%" height="100%">
<style type="text/css"><![CDATA[
  .stroke { fill:none; stroke:black; stroke-width:2 }
]]></style>
<path class="stroke" d="M 8.003300000000001 33.069305 L 25.825083333333335 30.9901" />
<path class="stroke" d="M 19.389438333333334 9.60396 L 19.389438333333334 84.15842 C 19.389438333333334 87.42574 17.161715833333336 90.09901 14.191419166666668 90.09901" />
<path class="stroke" d="M 8.498349166666667 63.36634 L 24.09241 46.435642" />
<path class="stroke" d="M 46.983210150000005 9.744525 L 84.50437779999999 8.576642 C 83.6751759 19.525547 82.0167863 25.948904 79.7364935 34.270073 C 78.4926942 38.2116775 76.21240566 44.19708 71.85912160000001 44.19708 L 69.57883021999999 44.19708" />
<path class="stroke" d="M 59.83576363 9.4525535 L 57.7627745 18.357662 C 54.445983229999996 29.744522 48.43430531 37.0437925 43.2518229 43.17518" />
<path class="stroke" d="M 42.00802857 58.8686125 L 42.00802857 89.233575" />
<path class="stroke" d="M 42.00802857 58.8686125 L 87.19926799999999 58.8686125 L 87.19926799999999 88.94160500000001" />
<path class="stroke" d="M 42.00802857 86.897808 L 87.19926799999999 86.897808" />
</svg>
