<?xml version="1.0" standalone="no"?>
<!DOCTYPE svg PUBLIC "-//W3C//DTD SVG 1.1//EN" "http://www.w3.org/Graphics/SVG/1.1/DTD/svg11.dtd">
<svg xmlns="http://www.w3.org/2000/svg" version="1.1" width="100%" height="100%">
<style type="text/css"><![CDATA[
  .stroke { fill:none; stroke:black; stroke-width:2 }
]]></style>
<path class="stroke" d="M 56.237625 9.306931 C 57.72277 12.574257 58.91089 15.544554 58.91089 19.108912" />
<path class="stroke" d="M 27.956203 19.197079 L 86.9343 19.197079" />
<path class="stroke" d="M 27.956203 19.197079 L 27.956203 36.131386 C 27.956203 56.861313 21.532845 72.62773 6.159601 93.8404" />
<path class="stroke" d="M 35.92992624 58.3817481 C 35.50948872 65.24014527 33.827735759999996 70.44306119999999 31.3051092 73.99050804000001" />
<path class="stroke" d="M 42.9838656 50.534622000000006 L 46.8329856 64.952946 C 50.68124159999999 76.93932600000001 57.4838016 82.296261 71.3051376 82.55027700000001 L 81.54744 82.55027700000001 C 83.6496312 82.50437430000001 84.7724136 80.90689554000001 84.9109416 79.19342639999999 L 84.9109416 77.3014608" />
<path class="stroke" d="M 59.264232 37.3335741 C 62.417516639999995 39.4620435 64.72992768 43.00948872 66.621894 47.02992453" />
<path class="stroke" d="M 81.967884 42.3 C 85.12116 45.3744522 87.0131328 49.1583915 88.6948872 53.41532706" />
</svg>
