<?xml version="1.0" standalone="no"?>
<!DOCTYPE svg PUBLIC "-//W3C//DTD SVG 1.1//EN" "http://www.w3.org/Graphics/SVG/1.1/DTD/svg11.dtd">
<svg xmlns="http://www.w3.org/2000/svg" version="1.1" width="100%" height="100%">
<style type="text/css"><![CDATA[
  .stroke { fill:none; stroke:black; stroke-width:2 }
]]></style>
<path class="stroke" d="M 50.14598 5.7372252 C 38.75912 14.6715318 25.912407 21.6788316 9.854013 25.8832098" />
<path class="stroke" d="M 50.14598 5.7372252 C 61.824814 14.321166 73.795616 21.6788316 90.43795 25.7080284" />
<path class="stroke" d="M 28.128888 28.279234459999998 C 27.004199 35.453143759999996 20.061815 41.13415756 11.0251607 43.705142179999996" />
<path class="stroke" d="M 26.499962999999997 33.13095198 C 29.680298 37.1532941 35.536695 41.23782454 42.207536 43.705142179999996" />
<path class="stroke" d="M 28.128888 48.059234460000006 C 27.004199 55.233143760000004 20.061815 60.91415756 11.0251607 63.485142180000004" />
<path class="stroke" d="M 26.499962999999997 52.91095198 C 29.680298 56.933294100000005 35.536695 61.01782454 42.207536 63.485142180000004" />
<path class="stroke" d="M 74.128888 28.279234459999998 C 73.004199 35.453143759999996 66.061815 41.13415756 57.0251607 43.705142179999996" />
<path class="stroke" d="M 72.499963 33.13095198 C 75.680298 37.1532941 81.53669500000001 41.23782454 88.207536 43.705142179999996" />
<path class="stroke" d="M 74.128888 48.059234460000006 C 73.004199 55.233143760000004 66.061815 60.91415756 57.0251607 63.485142180000004" />
<path class="stroke" d="M 72.499963 52.91095198 C 75.680298 56.933294100000005 81.53669500000001 61.01782454 88.207536 63.485142180000004" />
<path class="stroke" d="M 6.466878 74.19999999999999 L 94.47953 74.19999999999999" />
<path class="stroke" d="M 50.0 20.10410112 L 50.0 94.7097444" />
</svg>
