<?xml version="1.0" standalone="no"?>
<!DOCTYPE svg PUBLIC "-//W3C//DTD SVG 1.1//EN" "http://www.w3.org/Graphics/SVG/1.1/DTD/svg11.dtd">
<svg xmlns="http://www.w3.org/2000/svg" version="1.1" width="100%" height="100%">
<style type="text/css"><![CDATA[
  .stroke { fill:none; stroke:black; stroke-width:2 }
]]></style>
<path class="stroke" d="M 50.0 7.392605754000003 L 50.0 17.85" />
<path class="stroke" d="M 7.5 17.85 L 92.5 17.85" />
<path class="stroke" d="M 49.33722496 19.014065167200002 C 43.731385599999996 26.3982692985 30.355168 34.66765086 14.58102016 40.572546935999995 C 38.12554528 39.63891156 58.58686048 39.214533165 80.988832 39.276612150000005" />
<path class="stroke" d="M 70.0788304 33.952224206400004 C 76.52554239999999 35.56486733999999 82.13138176 38.0262692985 85.7751808 41.336428047" />
<path class="stroke" d="M 21.60879 47.775993 L 21.60879 72.41324300000001 C 21.92429 83.51730300000001 15.29959 89.76354300000001 7.72871 93.23348750000001" />
<path class="stroke" d="M 45.899143 49.51103950000001 L 45.899143 90.457434" />
<path class="stroke" d="M 70.82022 47.776026 L 70.82022 87.33444050000001 C 70.82022 91.151446 73.02842 93.23341600000002 75.23662 93.23341600000002 L 87.85482 93.23341600000002 C 90.69402 93.34902600000001 92.58672 90.68867600000002 92.58672 87.3343316 L 92.58672 82.12935600000002" />
</svg>
