<?xml version="1.0" standalone="no"?>
<!DOCTYPE svg PUBLIC "-//W3C//DTD SVG 1.1//EN" "http://www.w3.org/Graphics/SVG/1.1/DTD/svg11.dtd">
<svg xmlns="http://www.w3.org/2000/svg" version="1.1" width="100%" height="100%">
<style type="text/css"><![CDATA[
  .stroke { fill:none; stroke:black; stroke-width:2 }
]]></style>
<path class="stroke" d="M 11.313868 17.445253 C 15.401459 18.029196 19.48905 20.364962 22.408756 24.160583" />
<path class="stroke" d="M 9.270073 47.226276 C 13.357662 47.226276 18.321167 46.934303 23.86861 43.138683 C 16.27737 53.357662 14.233576 58.321167 15.109488 60.9489 C 15.69343 63.284668 20.948904 65.62044 22.116787 68.832115 C 23.576641 72.33576 18.129246 80.26506 11.021896 83.722626" />
<path class="stroke" d="M 11.021896 84.014595 C 39.692924 81.65476 40.51095 91.313866 90.43795 90.14598" />
<path class="stroke" d="M 35.826003183 13.6856172356 L 56.382829473 13.6856172356 L 56.382829473 31.522839754400003" />
<path class="stroke" d="M 35.826003183 31.522839754400003 L 56.382829473 31.522839754400003" />
<path class="stroke" d="M 35.826003183 13.6856172356 L 35.826003183 49.13707464800001 C 35.857594743 59.542089488 35.226033813 65.264907728 31.847271426 74.55515407400001" />
<path class="stroke" d="M 39.125302484100004 47.3988104988 L 39.125302484100004 78.801186522" />
<path class="stroke" d="M 39.125302484100004 47.5195887564 L 54.986706888 47.5195887564 L 54.986706888 78.921965152" />
<path class="stroke" d="M 39.430329582300004 77.71418257599998 L 54.9257013555 77.71418257599998" />
<path class="stroke" d="M 79.50001320000001 8.773503472000002 L 79.50001320000001 15.872545471999999" />
<path class="stroke" d="M 67.111998 16.36215336 L 91.99211700000001 16.36215336" />
<path class="stroke" d="M 71.06784 16.362145599999998 L 75.440076 38.8832952" />
<path class="stroke" d="M 87.41168400000001 16.606973599999996 L 83.039448 39.3728736" />
<path class="stroke" d="M 65.02996695 39.61767832 L 94.0741266 39.61767832" />
<path class="stroke" d="M 67.2161031 59.69085056 L 91.4716311 59.69085056" />
<path class="stroke" d="M 79.395885 39.617658144 L 79.395885 77.80570143999999" />
</svg>
