<?xml version="1.0" standalone="no"?>
<!DOCTYPE svg PUBLIC "-//W3C//DTD SVG 1.1//EN" "http://www.w3.org/Graphics/SVG/1.1/DTD/svg11.dtd">
<svg xmlns="http://www.w3.org/2000/svg" version="1.1" width="100%" height="100%">
<style type="text/css"><![CDATA[
  .stroke { fill:none; stroke:black; stroke-width:2 }
]]></style>
<path class="stroke" d="M 23.89591 10.729925 L 23.89591 23.86861" />
<path class="stroke" d="M 7.2627735 23.86861 L 42.88321 23.86861" />
<path class="stroke" d="M 23.17518 39.343063 L 38.941605 39.343063 C 38.2116775 53.06569 37.627735 62.116783 36.45985 70.29197 C 35.0 79.63503 32.37226 88.10219 30.036495 88.10219 L 27.116787 88.10219" />
<path class="stroke" d="M 23.9051075 23.86861 L 22.883211 41.38686 C 21.861313 60.07299 18.065693 78.46715 12.372261 84.014595" />
<path class="stroke" d="M 60.2970295 6.647807857142857 C 59.1089105 12.164073571428572 57.3267325 17.892502142857143 54.950495000000004 21.711455714285716" />
<path class="stroke" d="M 58.366337 14.710042142857144 L 95.19802 14.710042142857144" />
<path class="stroke" d="M 63.686130500000004 27.8832104 L 88.21167750000001 27.8832104 C 85.437955 36.2919696 81.7808665 42.507360000000006 74.839817 45.615120000000005" />
<path class="stroke" d="M 74.68258 45.615120000000005 C 77.35553 55.89312 76.9708025 84.87591200000001 74.92700500000001 89.54744 C 74.051095 91.41605200000001 73.17518 91.88320800000001 71.7153265 92.116784" />
<path class="stroke" d="M 54.9270065 52.444928 L 95.36496 52.444928" />
</svg>
