<?xml version="1.0" standalone="no"?>
<!DOCTYPE svg PUBLIC "-//W3C//DTD SVG 1.1//EN" "http://www.w3.org/Graphics/SVG/1.1/DTD/svg11.dtd">
<svg xmlns="http://www.w3.org/2000/svg" version="1.1" width="100%" height="100%">
<style type="text/css"><![CDATA[
  .stroke { fill:none; stroke:black; stroke-width:2 }
]]></style>
<path class="stroke" d="M 10.2970295 23.81708 L 39.70297 23.81708" />
<path class="stroke" d="M 25.0 9.90099 L 25.0 82.9703 C 25.0 86.83168 23.960395 90.09901 22.623762 90.09901 L 21.584158 90.09901" />
<path class="stroke" d="M 11.633663 36.930695 C 14.60396 39.30693 17.1287135 42.574257 19.653465 48.51485" />
<path class="stroke" d="M 10.594059 79.40594 C 14.60396 76.13861 18.3168315 69.60396 20.39604 60.990097" />
<path class="stroke" d="M 39.70297 34.257427 C 37.92079 42.87129 35.841585 48.51485 32.27723 52.9703" />
<path class="stroke" d="M 29.455445 53.564358 C 33.316835 60.39604 38.217823 74.0594 40.742573 84.75247" />
<path class="stroke" d="M 36.435642 9.306931 C 38.366335 10.79208 40.0 13.168318 41.633665 17.029703" />
<path class="stroke" d="M 68.168318 9.90099 C 66.6831685 22.673267 63.118812500000004 37.82178 57.623762 46.435642" />
<path class="stroke" d="M 62.970297 35.742573 L 88.069305 35.742573" />
<path class="stroke" d="M 76.48515 36.039604 C 74.70297 61.287132 67.1287135 82.376236 55.247525 89.80198" />
<path class="stroke" d="M 62.970297 43.465347 C 66.237623 61.58416 82.12871 90.09901 90.89108999999999 90.09901" />
</svg>
