<?xml version="1.0" standalone="no"?>
<!DOCTYPE svg PUBLIC "-//W3C//DTD SVG 1.1//EN" "http://www.w3.org/Graphics/SVG/1.1/DTD/svg11.dtd">
<svg xmlns="http://www.w3.org/2000/svg" version="1.1" width="100%" height="100%">
<style type="text/css"><![CDATA[
  .stroke { fill:none; stroke:black; stroke-width:2 }
]]></style>
<path class="stroke" d="M 42.113514 6.78233 L 42.113514 20.66248" />
<path class="stroke" d="M 56.62463 6.78234 L 56.62463 20.97789" />
<path class="stroke" d="M 14.984257 8.35962 C 19.505756 12.03994 22.134558 15.72034 24.763357 20.34704" />
<path class="stroke" d="M 83.75396 8.99053 C 81.01996 13.40694 77.024254 17.50784 72.71286 20.66244" />
<path class="stroke" d="M 6.151417 21.29334 L 94.164055 21.29334" />
<path class="stroke" d="M 26.34069 27.28695 C 32.22919 30.5467 35.27859 33.8063 38.01259 39.2743" />
<path class="stroke" d="M 74.29026 26.97163 C 68.71716 30.7572 65.667564 33.9118 62.618263 39.2745" />
<path class="stroke" d="M 8.359622 39.5899 L 92.90217 39.5899" />
<path class="stroke" d="M 18.1388 54.731823 L 82.8075 54.731823" />
<path class="stroke" d="M 8.044165 68.6121 L 92.586716 68.6121" />
<path class="stroke" d="M 50.149628 40.274315 C 50.44888 84.26434 23.5016 90.9044 7.09779 91.0095" />
<path class="stroke" d="M 50.6308 67.9811 C 59.1482 81.8612 73.0284 90.694 92.2713 91.6404" />
</svg>
