<?xml version="1.0" standalone="no"?>
<!DOCTYPE svg PUBLIC "-//W3C//DTD SVG 1.1//EN" "http://www.w3.org/Graphics/SVG/1.1/DTD/svg11.dtd">
<svg xmlns="http://www.w3.org/2000/svg" version="1.1" width="100%" height="100%">
<style type="text/css"><![CDATA[
  .stroke { fill:none; stroke:black; stroke-width:2 }
]]></style>
<path class="stroke" d="M 50.0 4.6423356 L 50.0 10.832116800000001" />
<path class="stroke" d="M 27.693429599999998 11.1824812 L 72.77372 11.1824812" />
<path class="stroke" d="M 31.430655200000004 16.20438 C 36.102188 20.4087584 39.605838399999996 25.897807999999998 41.4744504 31.270072" />
<path class="stroke" d="M 69.27006800000001 15.270071999999999 C 63.664232000000005 19.59124 58.992700000000006 26.248176 57.824816 33.138684000000005" />
<path class="stroke" d="M 19.0510944 34.306568 L 80.481752 34.306568" />
<path class="stroke" d="M 27.81605584 44.60072965 L 27.81605584 68.8810192" />
<path class="stroke" d="M 27.81605584 44.60072965 L 63.97371999999999 44.60072965 L 63.97371999999999 68.8810192" />
<path class="stroke" d="M 28.026276399999997 56.07946219 L 63.7635016 56.07946219" />
<path class="stroke" d="M 27.81605584 67.82116612 L 63.97371999999999 67.82116612" />
<path class="stroke" d="M 37.007298 72.039123592 L 37.007298 79.53342942399999 C 37.007298 86.14131268 29.416058 92.668611664 10.437956 94.36087420000001" />
<path class="stroke" d="M 54.233574 71.958540148 L 54.233574 90.97634968 C 54.233574 92.9909482 58.029198 94.19970676 62.116783 94.19970676 L 84.8905 94.19970676 C 88.10219 94.28029047999999 90.43795 93.63561795999999 90.43795 92.74919428000001 L 90.43795 91.218101944" />
</svg>
