<?xml version="1.0" standalone="no"?>
<!DOCTYPE svg PUBLIC "-//W3C//DTD SVG 1.1//EN" "http://www.w3.org/Graphics/SVG/1.1/DTD/svg11.dtd">
<svg xmlns="http://www.w3.org/2000/svg" version="1.1" width="100%" height="100%">
<style type="text/css"><![CDATA[
  .stroke { fill:none; stroke:black; stroke-width:2 }
]]></style>
<path class="stroke" d="M 10.036495 10.5021884 L 40.109485 10.5021884" />
<path class="stroke" d="M 25.07299 3.95036488 L 25.07299 39.92116480000001" />
<path class="stroke" d="M 25.07299 12.6861306 C 20.255475 22.57810104 14.4160575 27.84525392 6.8248165 30.543062" />
<path class="stroke" d="M 25.07299 12.6861306 C 33.00499 16.403992 38.99003 22.3291772 43.321167 30.2861306" />
<path class="stroke" d="M 60.036495 10.5021884 L 90.109485 10.5021884" />
<path class="stroke" d="M 75.07299 3.95036488 L 75.07299 39.92116480000001" />
<path class="stroke" d="M 75.07299 12.6861306 C 70.255475 22.57810104 64.4160575 27.84525392 56.8248165 30.543062" />
<path class="stroke" d="M 75.07299 12.6861306 C 79.59853749999999 22.7065674 85.72992500000001 27.97372028 93.321167 30.2861306" />
<path class="stroke" d="M 25.328465 46.01700324 L 87.51824 46.01700324" />
<path class="stroke" d="M 45.332287 46.01700324 C 44.946503 60.39904095 25.036495 77.06933871999999 13.065693 81.69999999999999" />
<path class="stroke" d="M 37.299267 66.7394145 L 37.299267 90.9613128" />
<path class="stroke" d="M 37.299267 66.7394145 L 80.21897 66.7394145 L 79.927 91.1394145" />
<path class="stroke" d="M 37.007298 89.1802897 L 79.927 89.1802897" />
</svg>
