<?xml version="1.0" standalone="no"?>
<!DOCTYPE svg PUBLIC "-//W3C//DTD SVG 1.1//EN" "http://www.w3.org/Graphics/SVG/1.1/DTD/svg11.dtd">
<svg xmlns="http://www.w3.org/2000/svg" version="1.1" width="100%" height="100%">
<style type="text/css"><![CDATA[
  .stroke { fill:none; stroke:black; stroke-width:2 }
]]></style>
<path class="stroke" d="M 69.5867526 2.2369855949999997 C 74.7224106 3.2953477949999996 77.7066226 4.700083244999999 79.5110406 6.6532422449999995" />
<path class="stroke" d="M 5.520505 15.2980863 L 93.84859 15.2980863" />
<path class="stroke" d="M 15.61516 26.8437881 L 15.61516 56.862803099999994" />
<path class="stroke" d="M 15.61516 26.8437881 L 83.75396 26.8437881 L 83.75396 56.862803099999994" />
<path class="stroke" d="M 15.93059 41.083622 L 83.12309 41.083622" />
<path class="stroke" d="M 15.61516 56.862803099999994 L 83.75396 56.862803099999994" />
<path class="stroke" d="M 49.6845 4.3296519 L 49.6845 56.670342" />
<path class="stroke" d="M 10.437956 69.86423266 L 89.270065 69.86423266" />
<path class="stroke" d="M 65.62044 62.87445238 L 65.62044 94.0218964 C 65.62044 95.1255472 64.45255 95.8613116 61.824814 95.8613116 L 53.941605 95.8613116" />
<path class="stroke" d="M 26.49635 74.52408646 C 30.0 75.62773684 33.211678 77.22189724 35.839413 79.91970634" />
</svg>
