<?xml version="1.0" standalone="no"?>
<!DOCTYPE svg PUBLIC "-//W3C//DTD SVG 1.1//EN" "http://www.w3.org/Graphics/SVG/1.1/DTD/svg11.dtd">
<svg xmlns="http://www.w3.org/2000/svg" version="1.1" width="100%" height="100%">
<style type="text/css"><![CDATA[
  .stroke { fill:none; stroke:black; stroke-width:2 }
]]></style>
<path class="stroke" d="M 31.5 4.41021882 L 31.5 10.29051096" />
<path class="stroke" d="M 13.933575809999999 10.62335714 L 49.4343045 10.62335714" />
<path class="stroke" d="M 16.87664097 15.394161 C 20.55547305 19.38832048 23.31459774 24.602917599999998 24.78612969 29.7065684" />
<path class="stroke" d="M 46.675178550000005 14.506568399999999 C 42.2605827 18.611677999999998 38.58175125 24.9357672 37.6620426 31.4817498" />
<path class="stroke" d="M 7.12773684 32.5912396 L 55.504379699999994 32.5912396" />
<path class="stroke" d="M 20.04817492 44.109488060000004 L 20.04817492 75.788318 C 20.04817492 82.8118826 20.04817492 85.758414 20.04817492 92.57227972000001" />
<path class="stroke" d="M 20.04817492 44.109488060000004 L 45.3912416 44.109488060000004 L 45.3912416 91.35620180000001 C 45.3912416 92.8043792 44.6671498 94.071529 42.85693208 94.071529 L 40.86569419999999 94.071529" />
<path class="stroke" d="M 20.04817492 57.75479774 L 45.3912416 57.75479774" />
<path class="stroke" d="M 20.04817492 72.16840832 L 45.3912416 72.16840832" />
</svg>
