<?xml version="1.0" standalone="no"?>
<!DOCTYPE svg PUBLIC "-//W3C//DTD SVG 1.1//EN" "http://www.w3.org/Graphics/SVG/1.1/DTD/svg11.dtd">
<svg xmlns="http://www.w3.org/2000/svg" version="1.1" width="100%" height="100%">
<style type="text/css"><![CDATA[
  .stroke { fill:none; stroke:black; stroke-width:2 }
]]></style>
<path class="stroke" d="M 50.31546 6.375399599999999 L 50.31546 21.201935" />
<path class="stroke" d="M 50.63092 11.416440999999999 L 72.520546 11.30575318" />
<path class="stroke" d="M 17.1924 21.794981 L 17.1924 53.523647 C 16.877 67.658239 13.7224 77.641415 6.78233 86.438499" />
<path class="stroke" d="M 17.1924 21.794981 L 92.2713 21.794981 L 92.2713 25.946397 C 92.1662 29.010514999999998 91.1146 30.592064999999998 88.8013 31.580474999999996" />
<path class="stroke" d="M 26.493149 39.42849364 L 69.89041 33.2476684" />
<path class="stroke" d="M 43.059944 26.243014 L 42.931507 43.44602638 C 42.602737 48.390682999999996 41.61644 48.390682999999996 45.56164 49.00876684 L 76.46575 49.00876684 C 78.438354 48.081642959999996 78.76712 45.60931324 78.76712 42.827941599999996 L 78.76712 39.11945359999999" />
<path class="stroke" d="M 35.3397076672 56.7517660128 L 35.3397076672 71.58481603199999" />
<path class="stroke" d="M 35.3397076672 56.692904659199996 L 81.19266787839999 56.692904659199996 L 81.19266787839999 71.58481603199999" />
<path class="stroke" d="M 58.266186592 56.7517660128 L 58.266186592 70.52531328" />
<path class="stroke" d="M 35.3397076672 63.6051428928 L 80.847912064 63.6051428928" />
<path class="stroke" d="M 35.3397076672 70.52531328 L 81.19266787839999 70.52531328" />
<path class="stroke" d="M 33.132444 78.19722432 L 33.132444 88.98587424" />
<path class="stroke" d="M 33.132444 78.19722432 L 84.091508 78.19722432 L 84.091508 88.94271384000001" />
<path class="stroke" d="M 50.2050408 78.24038472 L 50.2050408 88.98587424" />
<path class="stroke" d="M 67.53631479999999 78.24037883759999 L 67.53631479999999 89.029029168" />
<path class="stroke" d="M 23.8201878 89.02902096 L 94.17980399999999 89.02902096" />
</svg>
