<?xml version="1.0" standalone="no"?>
<!DOCTYPE svg PUBLIC "-//W3C//DTD SVG 1.1//EN" "http://www.w3.org/Graphics/SVG/1.1/DTD/svg11.dtd">
<svg xmlns="http://www.w3.org/2000/svg" version="1.1" width="100%" height="100%">
<style type="text/css"><![CDATA[
  .stroke { fill:none; stroke:black; stroke-width:2 }
]]></style>
<path class="stroke" d="M 9.90099 11.089109 L 35.80645 11.290321 C 37.741936 17.741934 31.935482 33.225803 26.129032 40.0" />
<path class="stroke" d="M 26.129032 40.96774 C 30.96774 44.51613 34.838707 49.032257 36.774193 54.19355 C 38.709675 57.09677 38.709675 65.161285 28.387096 68.38709 L 22.258064 69.354836" />
<path class="stroke" d="M 12.871286 11.089109 L 12.871286 90.09901" />
<path class="stroke" d="M 51.3430642 9.854013 L 94.087588 9.854013" />
<path class="stroke" d="M 51.1678828 9.854013 L 51.1678828 31.167881 C 51.1678828 74.67153 48.8905096 81.386856 46.1188114 90.09901" />
<path class="stroke" d="M 61.2851479 34.6732668 L 88.07128900000001 34.6732668 C 81.9762361 61.910891899999996 71.71089064 75.217824 53.7465346 86.861386" />
<path class="stroke" d="M 60.64356418 40.910891899999996 C 63.032256339999996 53.8064501 71.39354722 64.4193552 74.18064328 69.161291 C 79.23225579999999 76.38709700000001 88.29032056 81.80644799999999 96.8930692 86.861386" />
</svg>
