<?xml version="1.0" standalone="no"?>
<!DOCTYPE svg PUBLIC "-//W3C//DTD SVG 1.1//EN" "http://www.w3.org/Graphics/SVG/1.1/DTD/svg11.dtd">
<svg xmlns="http://www.w3.org/2000/svg" version="1.1" width="100%" height="100%">
<style type="text/css"><![CDATA[
  .stroke { fill:none; stroke:black; stroke-width:2 }
]]></style>
<path class="stroke" d="M 37.06617 5.583582 C 31.28267 15.993780000000001 20.45217 24.321839999999998 6.7823 30.00006" />
<path class="stroke" d="M 59.4634 5.394317999999999 C 67.455 18.32808 79.863 26.15142 93.5328 29.43216" />
<path class="stroke" d="M 26.2635906304 23.895218337499998 L 26.2635906304 54.351275724999994" />
<path class="stroke" d="M 26.2635906304 23.895218337499998 L 70.25821696 23.895218337499998 L 70.25821696 54.058429815000004" />
<path class="stroke" d="M 26.2635906304 52.008501423999995 L 70.25821696 52.008501423999995" />
<path class="stroke" d="M 39.52700608 56.545145207 L 39.52700608 68.316092954 C 39.52700608 78.69477915499999 32.23941567999999 88.94689549399999 14.02043776 91.604851325" />
<path class="stroke" d="M 56.064231039999996 56.4185766455 L 56.064231039999996 86.28894053 C 56.064231039999996 89.453174075 59.70803008 91.351713335 63.632111679999994 91.351713335 L 85.49488 91.351713335 C 88.57810239999999 91.47828233 90.820432 90.465726035 90.820432 89.073462755 L 90.820432 86.668649249" />
</svg>
