<?xml version="1.0" standalone="no"?>
<!DOCTYPE svg PUBLIC "-//W3C//DTD SVG 1.1//EN" "http://www.w3.org/Graphics/SVG/1.1/DTD/svg11.dtd">
<svg xmlns="http://www.w3.org/2000/svg" version="1.1" width="100%" height="100%">
<style type="text/css"><![CDATA[
  .stroke { fill:none; stroke:black; stroke-width:2 }
]]></style>
<path class="stroke" d="M 6.782337 8.67508 L 94.164055 8.67508" />
<path class="stroke" d="M 51.5773 8.67508 C 40.2208 21.714 24.1325 30.3365 10.2524 35.489" />
<path class="stroke" d="M 38.959 20.347 C 53.2597 30.8623 58.7276 76.3933 49.6845 91.6404 C 46.4248 96.4774 39.3796 93.1125 36.4354 92.2713" />
<path class="stroke" d="M 48.7382 35.8044 C 37.1714 46.8453 25.238094 52.142857 8.99054 59.7792" />
<path class="stroke" d="M 17.619047 45.0 C 24.523811 46.42857 29.761906 51.666668 30.952381 58.809525" />
<path class="stroke" d="M 52.5237 54.1009 C 44.2166 65.1421 24.5531 76.4984 8.67508 83.123" />
<path class="stroke" d="M 83.43847 22.23975 C 77.02417 30.44165 69.34807 37.38165 61.98737 42.74455" />
<path class="stroke" d="M 52.83908 50.31544 C 64.82648 63.144043 76.49848 75.97274 91.00948 84.06944" />
</svg>
