<?xml version="1.0" standalone="no"?>
<!DOCTYPE svg PUBLIC "-//W3C//DTD SVG 1.1//EN" "http://www.w3.org/Graphics/SVG/1.1/DTD/svg11.dtd">
<svg xmlns="http://www.w3.org/2000/svg" version="1.1" width="100%" height="100%">
<style type="text/css"><![CDATA[
  .stroke { fill:none; stroke:black; stroke-width:2 }
]]></style>
<path class="stroke" d="M 9.854013 16.671532 L 9.854013 22.3941588" />
<path class="stroke" d="M 9.854013 16.4379548 L 90.14598 16.4379548 L 90.14598 22.5109468" />
<path class="stroke" d="M 20.54416579 28.766562399999998 L 79.08991685000001 28.766562399999998" />
<path class="stroke" d="M 50.556791000000004 28.766562399999998 C 42.947936 38.93692 32.168775 45.66247 22.869108 49.68142" />
<path class="stroke" d="M 42.10253 37.87066 C 51.68399900000001 46.072594 55.347492 81.58677399999999 49.288615 93.479512 C 47.104616 97.25237200000001 42.384332 94.62775 40.41171800000001 93.971614" />
<path class="stroke" d="M 48.654594 49.927432 C 40.904838 58.539334000000004 32.909522980000006 62.67142846 22.0236618 68.62777600000001" />
<path class="stroke" d="M 27.804761489999997 57.1 C 32.43095337 58.2142846 35.94047702 62.300001040000005 36.73809527 67.8714295" />
<path class="stroke" d="M 51.190879 64.198702 C 45.625122000000005 72.810838 32.450577 81.66875200000001 21.8123036 86.83594000000001" />
<path class="stroke" d="M 71.9037749 39.347005 C 67.6061939 45.744487 62.46320690000001 51.157687 57.531537900000004 55.340748999999995" />
<path class="stroke" d="M 51.4021836 61.2460432 C 59.433741600000005 71.25235354 67.2539816 81.25873720000001 76.9763516 87.5741632" />
</svg>
