<?xml version="1.0" standalone="no"?>
<!DOCTYPE svg PUBLIC "-//W3C//DTD SVG 1.1//EN" "http://www.w3.org/Graphics/SVG/1.1/DTD/svg11.dtd">
<svg xmlns="http://www.w3.org/2000/svg" version="1.1" width="100%" height="100%">
<style type="text/css"><![CDATA[
  .stroke { fill:none; stroke:black; stroke-width:2 }
]]></style>
<path class="stroke" d="M 8.28079 8.990532 L 8.28079 40.53627" />
<path class="stroke" d="M 8.28079 8.990532 L 27.492079999999998 8.990532 L 27.492079999999998 40.53627" />
<path class="stroke" d="M 8.28079 40.53627 L 27.492079999999998 40.53627" />
<path class="stroke" d="M 17.776045 40.5363 L 17.776045 89.1167" />
<path class="stroke" d="M 17.996888 59.1483 L 29.037848 59.1483" />
<path class="stroke" d="M 8.28079 52.5236 L 8.28079 92.2713" />
<path class="stroke" d="M 4.747630999999999 93.8486 L 29.258669999999995 85.6467" />
<path class="stroke" d="M 47.0671508 9.601459859999999 L 47.0671508 20.85401318" />
<path class="stroke" d="M 29.204379279999998 21.09343104 L 64.5270074 21.09343104" />
<path class="stroke" d="M 37.5894741966 35.246817005 L 37.5894741966 59.64810087" />
<path class="stroke" d="M 37.5894741966 35.246817005 L 56.035137840000004 35.246817005 L 56.035137840000004 59.413473778" />
<path class="stroke" d="M 37.5894741966 57.771078508799995 L 56.035137840000004 57.771078508799995" />
<path class="stroke" d="M 47.00243202 58.45401441 L 47.00243202 87.6627707 C 47.00243202 88.50072664999999 46.26131222 88.9795595 45.72408696 88.9795595 L 44.783940799999996 88.9795595" />
<path class="stroke" d="M 36.322626740000004 69.3474434 C 35.6510939 73.5372252 33.63649584 77.12846644999999 30.816057360000002 80.00145986" />
<path class="stroke" d="M 56.4686124 69.3474434 C 59.1547433 71.86131329999999 61.43795376 75.21313832999999 62.78101944 80.24087443999998" />
<path class="stroke" d="M 68.45287915 30.75712 L 97.65773875 30.75712" />
<path class="stroke" d="M 81.5684914 5.0 C 81.5684914 14.657534 81.5684914 22.219177 81.5684914 30.438354 C 81.5684914 55.42466 68.17823695 87.6446 57.9100924 95.4259" />
<path class="stroke" d="M 81.4205467 38.9863 L 81.5684914 89.287674 C 81.5684914 93.561646 82.45616275 93.561646 84.231505 93.561646 L 87.37096600000001 93.870964 C 90.4193515 93.870964 92.5939765 91.927704 92.5967737 88.064514 L 92.5967737 80.64516" />
<path class="stroke" d="M 89.578313155 9.889586000000001 C 91.994406805 12.202946 93.39834290499999 15.273406000000001 94.247239555 19.542606" />
</svg>
