<?xml version="1.0" standalone="no"?>
<!DOCTYPE svg PUBLIC "-//W3C//DTD SVG 1.1//EN" "http://www.w3.org/Graphics/SVG/1.1/DTD/svg11.dtd">
<svg xmlns="http://www.w3.org/2000/svg" version="1.1" width="100%" height="100%">
<style type="text/css"><![CDATA[
  .stroke { fill:none; stroke:black; stroke-width:2 }
]]></style>
<path class="stroke" d="M 33.05577725 5.83596 C 27.861084149999996 18.87483 16.972659150000002 32.54463 5.78440465 38.64353" />
<path class="stroke" d="M 8.48156675 8.04417 C 19.47004575 17.7182 28.660345749999998 33.0705 28.560405749999997 61.6719 L 28.560405749999997 77.4448 C 28.959974799999998 85.6467 26.6624948 96.0569 18.670809799999997 95.7414 L 13.72302075 95.7414" />
<path class="stroke" d="M 25.26383925 34.22716 C 25.36377925 49.47426 15.27430425 62.82856 5.784412249999999 67.03466" />
<path class="stroke" d="M 89.14508799999999 7.41324 C 75.06096399999998 12.7761 57.708704 14.9842 42.223982 14.9842" />
<path class="stroke" d="M 41.9905046 14.9842 L 41.9905046 61.9874 C 41.757108599999995 73.6593 40.3563626 81.8612 32.8864326 93.8486" />
<path class="stroke" d="M 61.59935982 24.763357 L 61.59935982 85.33126" />
<path class="stroke" d="M 47.82647982 90.3785 C 56.61938256 86.9085 65.41220982 84.3848 74.9053716 83.123" />
<path class="stroke" d="M 70.70346512 72.39745 C 73.6603512 76.81386 75.68344164 82.49206 76.07253659999999 89.11676" />
<path class="stroke" d="M 82.1420018 11.829615 L 81.90853179999999 60.094616 C 82.0642278 74.50062 84.55417979999999 82.91271 93.3470078 93.53311" />
</svg>
