<?xml version="1.0" standalone="no"?>
<!DOCTYPE svg PUBLIC "-//W3C//DTD SVG 1.1//EN" "http://www.w3.org/Graphics/SVG/1.1/DTD/svg11.dtd">
<svg xmlns="http://www.w3.org/2000/svg" version="1.1" width="100%" height="100%">
<style type="text/css"><![CDATA[
  .stroke { fill:none; stroke:black; stroke-width:2 }
]]></style>
<path class="stroke" d="M 26.60891041 21.80396141 C 20.47821852 27.06435578 16.13564422 28.43663515 8.129196010000001 30.294158510000003" />
<path class="stroke" d="M 7.9353404 7.6237623 L 7.9353404 58.3980166 C 7.9353404 65.03069188 10.51584092 68.69010148000001 14.09207954 68.69010148000001 L 32.867327780000004 68.69010148000001 C 34.5277229 68.69010148000001 35.42178148 67.5465329 35.42178148 64.5732703 L 35.42178148 62.5148524" />
<path class="stroke" d="M 40.37445191 9.854013 L 84.9204338 9.854013" />
<path class="stroke" d="M 62.967151099999995 9.854013 C 62.1145987 14.817516 60.40948806 18.905107 57.997552 22.0621" />
<path class="stroke" d="M 42.257 22.3791 L 42.257 76.715324" />
<path class="stroke" d="M 42.257 22.3791 L 83.22876099999999 22.3791 L 83.22876099999999 76.423355" />
<path class="stroke" d="M 42.488483 40.77066 L 83.22876099999999 40.77066" />
<path class="stroke" d="M 42.488483 59.79627 L 83.22876099999999 59.79627" />
<path class="stroke" d="M 42.29269992 76.715324 L 83.4284598 76.715324" />
<path class="stroke" d="M 50.39196889 83.13868 C 46.55547287 86.9343 42.07956109 89.56204 36.75109326 89.85401" />
<path class="stroke" d="M 75.9686117 83.43065 C 80.4445264 84.59853 84.0678814 86.35036 88.33065435 90.72992" />
</svg>
