<?xml version="1.0" standalone="no"?>
<!DOCTYPE svg PUBLIC "-//W3C//DTD SVG 1.1//EN" "http://www.w3.org/Graphics/SVG/1.1/DTD/svg11.dtd">
<svg xmlns="http://www.w3.org/2000/svg" version="1.1" width="100%" height="100%">
<style type="text/css"><![CDATA[
  .stroke { fill:none; stroke:black; stroke-width:2 }
]]></style>
<path class="stroke" d="M 8.69085 22.0316 L 2.3817 38.1199" />
<path class="stroke" d="M 20.6782 22.0316 L 27.6183 38.1199" />
<path class="stroke" d="M 14.6845 7.3123 L 14.6845 93.3186" />
<path class="stroke" d="M 39.47664236 10.11824818 C 38.26496354 14.743064200000001 35.599267479999995 21.102188620000003 31.237225719999998 24.956203180000003" />
<path class="stroke" d="M 37.05328389 17.44087492 C 62.25620069 17.44087492 70.01094380999999 17.44087492 91.82116339999999 17.44087492 C 91.09415394999999 44.6116777 87.9457772 50.7035404 81.16103349999999 54.1563997 C 77.90435918 55.235420500000004 74.10490469999999 54.1563997 70.03405681999999 53.077382199999995" />
<path class="stroke" d="M 54.5014584 17.44087492 C 52.3204342 33.62773462 40.20364849 45.76788088000001 26.8751823 52.512409" />
<path class="stroke" d="M 71.22262180000001 17.44087492 C 69.04160590000001 37.0963468 58.3788283 51.9343018 47.231384649999995 57.9080245" />
<path class="stroke" d="M 31.479599 70.51576 C 30.781485999999997 77.57670999999999 29.035996 82.22451 25.981181 87.40849" />
<path class="stroke" d="M 44.5710562 66.225555 L 44.5710562 89.01737 C 44.5710562 91.430605 46.142080199999995 93.0394 48.4985332 93.0394 L 76.7761352 93.0394 C 78.9580392 93.0394 80.8781612 91.16243 80.96539419999999 88.21293 L 80.96539419999999 83.65455" />
<path class="stroke" d="M 54.520647999999994 66.225572 C 59.059005 70.33702199999999 62.026421 74.716647 64.731972 80.436892" />
<path class="stroke" d="M 80.965361 66.49373 C 86.46377899999999 71.49887 89.86760899999999 76.50434999999999 93.271356 83.38646" />
</svg>
