<?xml version="1.0" standalone="no"?>
<!DOCTYPE svg PUBLIC "-//W3C//DTD SVG 1.1//EN" "http://www.w3.org/Graphics/SVG/1.1/DTD/svg11.dtd">
<svg xmlns="http://www.w3.org/2000/svg" version="1.1" width="100%" height="100%">
<style type="text/css"><![CDATA[
  .stroke { fill:none; stroke:black; stroke-width:2 }
]]></style>
<path class="stroke" d="M 27.080292 10.11824818 C 25.620438 14.743064200000001 22.408756 21.102188620000003 17.153284 24.956203180000003" />
<path class="stroke" d="M 24.160583 17.44087492 C 54.525543 17.44087492 63.868607 17.44087492 90.14598 17.44087492 C 89.270065 44.6116777 85.47684 50.7035404 77.30245 54.1563997 C 73.378746 55.235420500000004 68.80109 54.1563997 63.896454 53.077382199999995" />
<path class="stroke" d="M 45.18248 17.44087492 C 42.55474 33.62773462 27.956203 45.76788088000001 11.89781 52.512409" />
<path class="stroke" d="M 65.32846 17.44087492 C 62.70073 37.0963468 49.85401 51.9343018 36.423355 57.9080245" />
<path class="stroke" d="M 25.39433 28.5678169 C 48.73823 32.3848609 62.30283 37.4511199 70.50473 44.495299900000006" />
<path class="stroke" d="M 17.4453 70.51576 C 16.6042 77.57670999999999 14.5012 82.22451 10.8207 87.40849" />
<path class="stroke" d="M 33.21814 66.225555 L 33.21814 89.01737 C 33.21814 91.430605 35.11094 93.0394 37.95004 93.0394 L 72.01944 93.0394 C 74.64824 93.0394 76.96164 91.16243 77.06674 88.21293 L 77.06674 83.65455" />
<path class="stroke" d="M 45.2056 66.225572 C 50.6735 70.33702199999999 54.2487 74.716647 57.5084 80.436892" />
<path class="stroke" d="M 77.0667 66.49373 C 83.6913 71.49887 87.7923 76.50434999999999 91.8932 83.38646" />
</svg>
