<?xml version="1.0" standalone="no"?>
<!DOCTYPE svg PUBLIC "-//W3C//DTD SVG 1.1//EN" "http://www.w3.org/Graphics/SVG/1.1/DTD/svg11.dtd">
<svg xmlns="http://www.w3.org/2000/svg" version="1.1" width="100%" height="100%">
<style type="text/css"><![CDATA[
  .stroke { fill:none; stroke:black; stroke-width:2 }
]]></style>
<path class="stroke" d="M 5.4963501 17.737225 L 5.4963501 78.46715" />
<path class="stroke" d="M 5.4963501 17.737225 L 24.59124 17.737225 L 24.59124 77.88321" />
<path class="stroke" d="M 5.4963501 73.795616 L 24.59124 73.795616" />
<path class="stroke" d="M 61.952552499999996 9.270073 C 55.16423125 23.284672 42.0255475 36.423355 32.39050975 39.927006" />
<path class="stroke" d="M 61.952552499999996 9.562042 C 69.1788295 23.576641 82.536493 37.007298 92.17152999999999 39.927006" />
<path class="stroke" d="M 60.419707 24.160583 C 61.952552499999996 26.788319 62.8284655 29.124084 63.266422 32.043793" />
<path class="stroke" d="M 51.1386145 34.37956 L 72.244525 34.37956 L 72.244525 58.905106" />
<path class="stroke" d="M 51.222625 46.642334 L 72.0255475 46.642334" />
<path class="stroke" d="M 51.222625 58.905106 L 72.244525 58.905106" />
<path class="stroke" d="M 51.222625 34.37956 L 51.222625 89.85401 C 54.9452545 89.270065 59.1058375 88.68613 64.58028999999999 84.8905" />
<path class="stroke" d="M 81.222625 64.45255 C 77.937955 70.0 74.43430749999999 73.50365 68.74087525 75.54744" />
<path class="stroke" d="M 61.5145975 65.32846 C 66.98904775 77.00729 75.09123625 86.642334 85.3832125 89.85401" />
</svg>
