<?xml version="1.0" standalone="no"?>
<!DOCTYPE svg PUBLIC "-//W3C//DTD SVG 1.1//EN" "http://www.w3.org/Graphics/SVG/1.1/DTD/svg11.dtd">
<svg xmlns="http://www.w3.org/2000/svg" version="1.1" width="100%" height="100%">
<style type="text/css"><![CDATA[
  .stroke { fill:none; stroke:black; stroke-width:2 }
]]></style>
<path class="stroke" d="M 12.630481351199998 3.4055471999999996 L 12.630481351199998 15.0656928" />
<path class="stroke" d="M 12.630481351199998 3.4055471999999996 L 41.50195488 3.4055471999999996 L 41.50195488 14.953576320000002" />
<path class="stroke" d="M 12.630481351199998 14.168758272 L 41.50195488 14.168758272" />
<path class="stroke" d="M 3.3217668000000002 21.970977599999998 L 50.848560000000006 21.970977599999998" />
<path class="stroke" d="M 18.653004000000003 21.970977599999998 L 15.075666 30.6927552 L 41.47950600000001 30.6927552 C 41.53626 38.354592 38.015784000000004 46.2889632 31.429026000000004 46.22839679999999 L 26.148258000000002 46.22839679999999" />
<path class="stroke" d="M 77.1451116 3.2555232 L 77.1451116 10.82652" />
<path class="stroke" d="M 77.2902232 5.8296719999999995 L 87.35945115999999 5.77315056" />
<path class="stroke" d="M 61.908504 11.129352 L 61.908504 27.331224 C 61.763419999999996 34.548888 60.312304 39.646679999999996 57.1198718 44.138808" />
<path class="stroke" d="M 61.908504 11.129352 L 96.44479799999999 11.129352 L 96.44479799999999 13.249224 C 96.39645200000001 14.81388 95.912716 15.62148 94.84859800000001 16.126199999999997" />
<path class="stroke" d="M 66.18684854 20.133698879999997 L 86.1495886 16.977532800000002" />
<path class="stroke" d="M 73.80757424000001 13.400687999999999 L 73.74849322 22.18520496 C 73.59725902 24.710136 73.14356240000001 24.710136 74.9583544 25.02575328 L 89.174245 25.02575328 C 90.08164284 24.552328319999997 90.2328752 23.28986208 90.2328752 21.869587199999998 L 90.2328752 19.9758912" />
<path class="stroke" d="M 76.496349956 29.742831849599998 L 76.496349956 33.7832402112 C 76.496349956 37.345751183999994 74.051970676 40.8648167232 67.941021832 41.777166959999995" />
<path class="stroke" d="M 82.043210828 29.6993868624 L 82.043210828 39.952466784 C 82.043210828 41.03859816 83.265401756 41.690276688000004 84.581604126 41.690276688000004 L 91.91474099999999 41.690276688000004 C 92.94890518 41.733721824 93.7010199 41.386159248000006 93.7010199 40.908261264 L 93.7010199 40.0828027872" />
<path class="stroke" d="M 49.27007 45.5620438 C 40.218975 53.9708032 22.70073 61.854012999999995 9.854013 63.956203599999995" />
<path class="stroke" d="M 49.27007 45.7372252 C 58.905106 54.1459846 76.715324 62.2043788 89.56204 63.956203599999995" />
<path class="stroke" d="M 47.226276 54.4963498 C 49.27007 56.0729914 50.437954 57.474450399999995 51.021896 59.226275799999996" />
<path class="stroke" d="M 34.851486 60.627736 L 62.9927 60.627736 L 62.9927 75.3430636" />
<path class="stroke" d="M 34.9635 67.9854004 L 62.70073 67.9854004" />
<path class="stroke" d="M 34.9635 75.3430636 L 62.9927 75.3430636" />
<path class="stroke" d="M 34.9635 60.627736 L 34.9635 93.912406 C 39.927006 93.562039 45.47445 93.211678 52.77372 90.93430000000001" />
<path class="stroke" d="M 74.9635 78.67152999999999 C 70.58394 82.0 65.91241 84.10219 58.321167 85.328464" />
<path class="stroke" d="M 48.68613 79.19707600000001 C 55.985397 86.204374 66.788315 91.9854004 80.51095 93.912406" />
</svg>
