<?xml version="1.0" standalone="no"?>
<!DOCTYPE svg PUBLIC "-//W3C//DTD SVG 1.1//EN" "http://www.w3.org/Graphics/SVG/1.1/DTD/svg11.dtd">
<svg xmlns="http://www.w3.org/2000/svg" version="1.1" width="100%" height="100%">
<style type="text/css"><![CDATA[
  .stroke { fill:none; stroke:black; stroke-width:2 }
]]></style>
<path class="stroke" d="M 41.59314 6.9400576 C 28.72242 9.6319776 16.98741 10.3049376 5.5362599999999995 10.2208576" />
<path class="stroke" d="M 5.2523675999999995 19.810688 L 41.8770126 19.810688" />
<path class="stroke" d="M 5.5362599999999995 29.400699200000005 L 5.82021 52.870616" />
<path class="stroke" d="M 5.5362599999999995 29.400699200000005 L 41.59296 29.400699200000005 L 41.87691 52.870616" />
<path class="stroke" d="M 6.10416 41.009488000000005 L 41.025330000000004 41.261888" />
<path class="stroke" d="M 5.82021 52.870616 L 41.87691 52.870616" />
<path class="stroke" d="M 23.70663 9.9685144 L 23.70663 72.807556" />
<path class="stroke" d="M 5.5362798 62.71296 L 41.876946000000004 62.71296" />
<path class="stroke" d="M 4.9684545 75.5836 L 41.5930644 71.04096" />
<path class="stroke" d="M 58.6094871 26.5693424 L 90.8868575 24.700729600000003 C 90.08394000000001 51.328464 87.675182 65.57664 86.87226230000002 68.613136 C 85.90875525 71.1824768 83.9817505 71.88320800000001 82.37591 72.116784 L 80.7700695 71.88320800000001" />
<path class="stroke" d="M 74.5072965 8.3503648 C 72.58028900000001 34.5109464 66.31751600000001 61.138684000000005 56.200729100000004 68.613136" />
<path class="stroke" d="M 18.613138 81.60583199999999 C 18.029196 86.043792 15.69343 89.78101600000001 11.89781 91.88320800000001" />
<path class="stroke" d="M 35.255474 82.306568 C 38.46715 85.34306000000001 40.218975 88.145984 41.67883 92.116784" />
<path class="stroke" d="M 59.197075 82.540144 C 62.408752 85.34306000000001 63.868607 88.37956000000001 65.32846 92.35036000000001" />
<path class="stroke" d="M 81.386856 82.540144 C 84.8905 85.34306000000001 86.9343 87.9124 88.68613 92.35036000000001" />
</svg>
