<?xml version="1.0" standalone="no"?>
<!DOCTYPE svg PUBLIC "-//W3C//DTD SVG 1.1//EN" "http://www.w3.org/Graphics/SVG/1.1/DTD/svg11.dtd">
<svg xmlns="http://www.w3.org/2000/svg" version="1.1" width="100%" height="100%">
<style type="text/css"><![CDATA[
  .stroke { fill:none; stroke:black; stroke-width:2 }
]]></style>
<path class="stroke" d="M 50.31546 6.78234 L 50.31546 22.55525" />
<path class="stroke" d="M 50.63092 12.14515 L 72.520546 12.027397" />
<path class="stroke" d="M 17.1924 23.18615 L 17.1924 56.94005 C 16.877 71.97685 13.7224 82.59725 6.78233 91.95585" />
<path class="stroke" d="M 17.1924 23.18615 L 92.2713 23.18615 L 92.2713 27.60255 C 92.1662 30.86225 91.1146 32.54475 88.8013 33.59625" />
<path class="stroke" d="M 26.493149 41.945206 L 69.89041 35.36986" />
<path class="stroke" d="M 43.059944 27.9181 L 42.931507 46.219177 C 42.602737 51.47945 41.61644 51.47945 45.56164 52.136986 L 76.46575 52.136986 C 78.438354 51.150684 78.76712 48.520546 78.76712 45.56164 L 78.76712 41.61644" />
<path class="stroke" d="M 48.9051086 61.96423302 L 48.9051086 70.38175044 C 48.9051086 77.80364829999999 43.5912406 85.13503484 30.3065692 87.0357645" />
<path class="stroke" d="M 60.963501799999996 61.87372263 L 60.963501799999996 83.2343058 C 60.963501799999996 85.4970795 63.6204386 86.85474310000001 66.4817481 86.85474310000001 L 82.42335 86.85474310000001 C 84.67153299999998 86.9452538 86.306565 86.22116510000001 86.306565 85.2255443 L 86.306565 83.50583914" />
</svg>
