<?xml version="1.0" standalone="no"?>
<!DOCTYPE svg PUBLIC "-//W3C//DTD SVG 1.1//EN" "http://www.w3.org/Graphics/SVG/1.1/DTD/svg11.dtd">
<svg xmlns="http://www.w3.org/2000/svg" version="1.1" width="100%" height="100%">
<style type="text/css"><![CDATA[
  .stroke { fill:none; stroke:black; stroke-width:2 }
]]></style>
<path class="stroke" d="M 8.08176 7.830185 L 19.717 17.452849999999998" />
<path class="stroke" d="M 8.08176 92.45282 L 22.2327 49.71695" />
<path class="stroke" d="M 57.609485 5.1912408800000005 L 57.609485 12.875911440000003" />
<path class="stroke" d="M 28.485401 13.03941632 L 86.07664249999999 13.03941632" />
<path class="stroke" d="M 31.235632250000002 21.66496333 L 31.235632250000002 49.3965502" />
<path class="stroke" d="M 31.235632250000002 21.66496333 L 83.66787500000001 21.66496333 L 83.66787500000001 49.562772100000004" />
<path class="stroke" d="M 31.3505735 47.968612 L 83.4488975 47.968612" />
<path class="stroke" d="M 46.09562012 29.2779340525 L 46.09562012 41.357116135" />
<path class="stroke" d="M 46.09562012 29.2779340525 L 69.00948799999999 29.2779340525 L 69.00948799999999 41.240970469000004" />
<path class="stroke" d="M 46.09562012 40.4279480224 L 69.00948799999999 40.4279480224" />
<path class="stroke" d="M 82.8154475 55.65141875 C 67.6734725 57.37592385 48.746097500000005 58.58304585 30.2918225 58.88484685" />
<path class="stroke" d="M 25.08674975 70.1372128 L 88.96688 70.1372128" />
<path class="stroke" d="M 56.7902 58.108846 L 56.7902 91.86595" />
<path class="stroke" d="M 56.790231500000004 70.1372538 C 48.74603375 76.8196798 39.0457565 82.5967438 25.559939749999998 87.4684868" />
<path class="stroke" d="M 56.790231500000004 70.1372538 C 64.75553 77.1645718 73.66718300000001 82.3812068 88.493705 87.33913179999999" />
</svg>
