<?xml version="1.0" standalone="no"?>
<!DOCTYPE svg PUBLIC "-//W3C//DTD SVG 1.1//EN" "http://www.w3.org/Graphics/SVG/1.1/DTD/svg11.dtd">
<svg xmlns="http://www.w3.org/2000/svg" version="1.1" width="100%" height="100%">
<style type="text/css"><![CDATA[
  .stroke { fill:none; stroke:black; stroke-width:2 }
]]></style>
<path class="stroke" d="M 8.08176 7.830185 L 19.717 17.452849999999998" />
<path class="stroke" d="M 8.08176 92.45282 L 22.2327 49.71695" />
<path class="stroke" d="M 57.609485 5.1912408800000005 L 57.609485 12.875911440000003" />
<path class="stroke" d="M 28.485401 13.03941632 L 86.07664249999999 13.03941632" />
<path class="stroke" d="M 31.235632250000002 21.66496333 L 31.235632250000002 49.3965502" />
<path class="stroke" d="M 31.235632250000002 21.66496333 L 83.66787500000001 21.66496333 L 83.66787500000001 49.562772100000004" />
<path class="stroke" d="M 31.3505735 47.968612 L 83.4488975 47.968612" />
<path class="stroke" d="M 46.09562012 29.2779340525 L 46.09562012 41.357116135" />
<path class="stroke" d="M 46.09562012 29.2779340525 L 69.00948799999999 29.2779340525 L 69.00948799999999 41.240970469000004" />
<path class="stroke" d="M 46.09562012 40.4279480224 L 69.00948799999999 40.4279480224" />
<path class="stroke" d="M 32.421125 57.720822 L 82.57887500000001 57.720822" />
<path class="stroke" d="M 25.32334625 69.6198707 L 90.1498325 69.6198707" />
<path class="stroke" d="M 57.7366025 69.749197 L 57.7366025 89.020509 C 57.7366025 90.40011799999999 55.8438275 91.262348 54.1876775 91.219257 L 51.1119275 91.219257" />
<path class="stroke" d="M 44.48735 74.793345 C 40.1498 79.665088 35.102525 83.631469 25.7965325 86.69244699999999" />
<path class="stroke" d="M 71.459075 74.922741 C 78.3203 77.983719 83.76185 81.820745 88.257125 86.69244699999999" />
</svg>
