<?xml version="1.0" standalone="no"?>
<!DOCTYPE svg PUBLIC "-//W3C//DTD SVG 1.1//EN" "http://www.w3.org/Graphics/SVG/1.1/DTD/svg11.dtd">
<svg xmlns="http://www.w3.org/2000/svg" version="1.1" width="100%" height="100%">
<style type="text/css"><![CDATA[
  .stroke { fill:none; stroke:black; stroke-width:2 }
]]></style>
<path class="stroke" d="M 54.10092 6.46688 L 54.10092 14.66882" />
<path class="stroke" d="M 18.7697 14.98422 L 93.8486 14.98422" />
<path class="stroke" d="M 18.7697 15.2997 L 18.7697 59.7792 C 19.0852 71.2408 14.6687 79.2323 6.46688 87.5394" />
<path class="stroke" d="M 5.83596 25.07884 C 8.78023 28.65404 10.4627 32.22924 11.8297 36.43534" />
<path class="stroke" d="M 6.15141 58.20189 C 8.14931 57.04519 10.4627 54.62679 12.1451 52.20829" />
<path class="stroke" d="M 39.71897663 32.87226135 L 77.2810159 32.87226135" />
<path class="stroke" d="M 58.13649486 22.93649486 L 58.13649486 46.2007292" />
<path class="stroke" d="M 27.359852914999998 46.2007292 L 89.8824743 46.2007292" />
<path class="stroke" d="M 31.003977958 59.30867048219999 L 86.6200308575 59.30867048219999" />
<path class="stroke" d="M 69.93522042000001 51.2970508946 L 69.93522042000001 86.99795458799998 C 69.93522042000001 88.26294862399999 69.111274025 89.10627477199999 67.257406277 89.10627477199999 L 61.6958023275 89.10627477199999" />
<path class="stroke" d="M 42.333174924999994 64.6497505282 C 44.805 65.91474408279998 47.070838828999996 67.7419555508 48.924705871499995 70.8341586478" />
</svg>
