<?xml version="1.0" standalone="no"?>
<!DOCTYPE svg PUBLIC "-//W3C//DTD SVG 1.1//EN" "http://www.w3.org/Graphics/SVG/1.1/DTD/svg11.dtd">
<svg xmlns="http://www.w3.org/2000/svg" version="1.1" width="100%" height="100%">
<style type="text/css"><![CDATA[
  .stroke { fill:none; stroke:black; stroke-width:2 }
]]></style>
<path class="stroke" d="M 12.2905755 24.5209402 C 11.819370750000001 32.28010414999999 10.87696275 34.9659679 9.93455475 39.740837" />
<path class="stroke" d="M 28.811880000000002 22.1039597 C 27.47524725 27.183167949999998 25.693070249999998 31.41583975 23.242575000000002 34.519804199999996" />
<path class="stroke" d="M 18.341583 8.841584450000001 L 18.341583 54.836631499999996 C 18.341583 70.92079174999999 11.711325 81.36436499999999 7.2029700000000005 85.876238" />
<path class="stroke" d="M 18.11881275 60.198023 C 21.90594 65.2772265 25.470297000000002 71.4851535 27.029702999999998 78.82178499999999" />
<path class="stroke" d="M 35.237224749999996 9.562042 L 35.237224749999996 90.14598" />
<path class="stroke" d="M 35.237224749999996 9.562042 L 53.631384999999995 9.562042 L 53.631384999999995 38.46715" />
<path class="stroke" d="M 35.237224749999996 22.408756 L 53.4124075 22.408756" />
<path class="stroke" d="M 35.237224749999996 36.131386 L 53.631384999999995 36.131386" />
<path class="stroke" d="M 71.80656400000001 9.854013 L 71.80656400000001 38.46715" />
<path class="stroke" d="M 71.80656400000001 9.854013 L 89.9817505 9.854013 L 89.9817505 85.47445 C 89.9817505 88.39416 88.229923 90.14598 86.25911875 89.85401" />
<path class="stroke" d="M 71.80656400000001 22.408756 L 89.9817505 22.408756" />
<path class="stroke" d="M 71.80656400000001 36.131386 L 89.9817505 36.131386" />
<path class="stroke" d="M 54.86094874 49.72992624 L 54.839933200000004 71.7060432 C 52.170133990000004 83.4966432 52.170133990000004 83.1100656 49.18624126 88.13557248" />
<path class="stroke" d="M 54.86094874 49.72992624 L 70.8025552 49.72992624 L 70.8025552 86.3080272 C 70.8025552 87.4291968 70.3470781 88.41021599999999 69.20839276 88.41021599999999 L 67.9558399 88.41021599999999" />
<path class="stroke" d="M 54.86094874 60.29403696 L 70.8025552 60.29403696" />
<path class="stroke" d="M 54.86094874 71.45296128 L 70.8025552 71.45296128" />
</svg>
