<?xml version="1.0" standalone="no"?>
<!DOCTYPE svg PUBLIC "-//W3C//DTD SVG 1.1//EN" "http://www.w3.org/Graphics/SVG/1.1/DTD/svg11.dtd">
<svg xmlns="http://www.w3.org/2000/svg" version="1.1" width="100%" height="100%">
<style type="text/css"><![CDATA[
  .stroke { fill:none; stroke:black; stroke-width:2 }
]]></style>
<path class="stroke" d="M 13.649633 9.562042 L 13.649633 90.14598" />
<path class="stroke" d="M 13.649633 9.562042 L 38.17518 9.562042 L 38.17518 38.46715" />
<path class="stroke" d="M 13.649633 22.408756 L 37.88321 22.408756" />
<path class="stroke" d="M 13.649633 36.131386 L 38.17518 36.131386" />
<path class="stroke" d="M 62.408752 9.854013 L 62.408752 38.46715" />
<path class="stroke" d="M 62.408752 9.854013 L 86.642334 9.854013 L 86.642334 85.47445 C 86.642334 88.39416 84.306564 90.14598 81.678825 89.85401" />
<path class="stroke" d="M 62.408752 22.408756 L 86.642334 22.408756" />
<path class="stroke" d="M 62.408752 36.131386 L 86.642334 36.131386" />
<path class="stroke" d="M 39.81459832 49.72992624 L 39.7865776 71.7060432 C 36.22684532 83.4966432 36.22684532 83.1100656 32.248321680000004 88.13557248" />
<path class="stroke" d="M 39.81459832 49.72992624 L 61.0700736 49.72992624 L 61.0700736 86.3080272 C 61.0700736 87.4291968 60.4627708 88.41021599999999 58.944523679999996 88.41021599999999 L 57.274453199999996 88.41021599999999" />
<path class="stroke" d="M 39.81459832 60.29403696 L 61.0700736 60.29403696" />
<path class="stroke" d="M 39.81459832 71.45296128 L 61.0700736 71.45296128" />
</svg>
