<?xml version="1.0" standalone="no"?>
<!DOCTYPE svg PUBLIC "-//W3C//DTD SVG 1.1//EN" "http://www.w3.org/Graphics/SVG/1.1/DTD/svg11.dtd">
<svg xmlns="http://www.w3.org/2000/svg" version="1.1" width="100%" height="100%">
<style type="text/css"><![CDATA[
  .stroke { fill:none; stroke:black; stroke-width:2 }
]]></style>
<path class="stroke" d="M 73.83562 6.1095886 C 51.80822 13.671232 38.0 15.643835 15.643835 15.643835" />
<path class="stroke" d="M 15.315069 38.0 L 15.315069 56.410957" />
<path class="stroke" d="M 15.315069 38.0 L 72.520546 38.0 L 72.19178 56.08219" />
<path class="stroke" d="M 44.57534 14.328768 L 44.57534 57.06849" />
<path class="stroke" d="M 14.657534 56.410957 L 72.19178 56.08219" />
<path class="stroke" d="M 38.328766 56.739723 C 38.328766 72.520546 31.09589 81.39726 14.986301 84.0274" />
<path class="stroke" d="M 52.136986 56.08219 L 52.136986 79.09589 C 52.136986 83.04109 52.79452 84.0274 57.06849 84.0274 C 67.266846 84.0274 77.4652 84.0274 87.9726 84.0274 C 87.9726 81.53205 87.9726 79.03671 87.9726 76.46575" />
<path class="stroke" d="M 66.27397 67.58904 C 70.21918 68.246574 74.16438 71.20548 75.479454 74.821915" />
</svg>
