<?xml version="1.0" standalone="no"?>
<!DOCTYPE svg PUBLIC "-//W3C//DTD SVG 1.1//EN" "http://www.w3.org/Graphics/SVG/1.1/DTD/svg11.dtd">
<svg xmlns="http://www.w3.org/2000/svg" version="1.1" width="100%" height="100%">
<style type="text/css"><![CDATA[
  .stroke { fill:none; stroke:black; stroke-width:2 }
]]></style>
<path class="stroke" d="M 44.3218 6.391165 C 38.7487 16.959 31.2828 23.7413 15.2996 28.94635" />
<path class="stroke" d="M 38.9589 15.3817 L 68.2965 15.3817 C 61.8822 32.469049999999996 41.2723 43.72035 7.7287 49.45115" />
<path class="stroke" d="M 54.7319 33.047399999999996 C 65.4574 40.408 80.2841 46.34905 92.2714 49.45105" />
<path class="stroke" d="M 30.52356 57.38952784 C 29.267014 60.55601928 25.497383 63.19476392 20.78534 66.00942248" />
<path class="stroke" d="M 82.19349 57.59729008 C 79.051094 61.07007128 75.25547 63.35912336 70.87591 65.32116568000001" />
<path class="stroke" d="M 48.7382 46.51824728 C 48.9485 52.00637216 48.8433 56.44185216 48.7382 63.296832880000004 C 49.0477 78.39688960000001 24.4658 91.175776 9.562042 91.645252" />
<path class="stroke" d="M 48.811882 65.17425696000001 C 52.102 76.3740632 74.2424 88.68702960000002 84.014595 90.9912364 C 86.35036 91.645252 88.10219 91.80875520000001 90.72992 91.972264" />
</svg>
