<?xml version="1.0" standalone="no"?>
<!DOCTYPE svg PUBLIC "-//W3C//DTD SVG 1.1//EN" "http://www.w3.org/Graphics/SVG/1.1/DTD/svg11.dtd">
<svg xmlns="http://www.w3.org/2000/svg" version="1.1" width="100%" height="100%">
<style type="text/css"><![CDATA[
  .stroke { fill:none; stroke:black; stroke-width:2 }
]]></style>
<path class="stroke" d="M 50.14598 3.89343066 L 50.14598 9.65693358" />
<path class="stroke" d="M 11.313868 9.77956224 L 88.10219 9.77956224" />
<path class="stroke" d="M 17.3284668 17.361328214999997 L 17.3284668 29.34941541" />
<path class="stroke" d="M 17.3284668 17.361328214999997 L 42.78832 17.361328214999997 L 42.78832 29.234145654" />
<path class="stroke" d="M 17.3284668 28.427254598399998 L 42.78832 28.427254598399998" />
<path class="stroke" d="M 57.3284668 17.361328214999997 L 57.3284668 29.34941541" />
<path class="stroke" d="M 57.3284668 17.361328214999997 L 82.78832 17.361328214999997 L 82.78832 29.234145654" />
<path class="stroke" d="M 57.3284668 28.427254598399998 L 82.78832 28.427254598399998" />
<path class="stroke" d="M 14.984257 43.66350806451613 L 85.33126 43.66350806451613" />
<path class="stroke" d="M 36.43533 34.097984677419355 L 36.43533 68.53374" />
<path class="stroke" d="M 62.93375 33.85885322580645 L 62.93375 68.53370967741935" />
<path class="stroke" d="M 14.668799 56.57683387096774 L 85.0158 56.57683387096774" />
<path class="stroke" d="M 6.782335 69.01204838709677 L 94.479515 69.01204838709677" />
<path class="stroke" d="M 47.79179 69.500061 C 40.79208 75.29801950000001 28.910892 79.4653443 16.732674 81.6396039" />
<path class="stroke" d="M 37.82178 75.8415844 L 37.82178 93.7792078 C 46.435642 92.8732663 52.07921 91.9673248 58.019806 89.79307130000001" />
<path class="stroke" d="M 78.514854 70.4059415 C 74.35644 74.02970323 68.71287 76.92871115 62.178215 78.3782206" />
<path class="stroke" d="M 55.940598 74.7544546 C 62.47525 82.3643571 75.24753 88.70593905999999 89.207924 91.9673248" />
</svg>
