<?xml version="1.0" standalone="no"?>
<!DOCTYPE svg PUBLIC "-//W3C//DTD SVG 1.1//EN" "http://www.w3.org/Graphics/SVG/1.1/DTD/svg11.dtd">
<svg xmlns="http://www.w3.org/2000/svg" version="1.1" width="100%" height="100%">
<style type="text/css"><![CDATA[
  .stroke { fill:none; stroke:black; stroke-width:2 }
]]></style>
<path class="stroke" d="M 10.267693518518518 11.8297 L 42.445910185185184 11.8297" />
<path class="stroke" d="M 9.71763888888889 30.09901 L 9.71763888888889 89.80198" />
<path class="stroke" d="M 9.71763888888889 30.1262 L 43.546018518518515 30.1262 L 43.546018518518515 89.80198" />
<path class="stroke" d="M 20.99376574074074 11.683168 L 20.99376574074074 40.79208 C 20.99376574074074 47.326733 20.718737037037037 54.455444 14.66813425925926 58.61386" />
<path class="stroke" d="M 31.444811111111115 11.980198 L 31.444811111111115 42.574257 C 31.444811111111115 48.811882 31.444811111111115 53.861385 35.84525 53.861385 L 38.320499999999996 53.861385" />
<path class="stroke" d="M 14.393105555555556 71.9802 L 39.145583333333335 71.9802" />
<path class="stroke" d="M 9.71763888888889 89.80198 L 43.546018518518515 89.80198" />
<path class="stroke" d="M 72.58028900000001 3.89343066 L 72.58028900000001 9.65693358" />
<path class="stroke" d="M 51.2226274 9.77956224 L 93.4562045 9.77956224" />
<path class="stroke" d="M 54.53065674 17.361328214999997 L 54.53065674 29.34941541" />
<path class="stroke" d="M 54.53065674 17.361328214999997 L 68.533576 17.361328214999997 L 68.533576 29.234145654" />
<path class="stroke" d="M 54.53065674 28.427254598399998 L 68.533576 28.427254598399998" />
<path class="stroke" d="M 76.53065674000001 17.361328214999997 L 76.53065674000001 29.34941541" />
<path class="stroke" d="M 76.53065674000001 17.361328214999997 L 90.53357600000001 17.361328214999997 L 90.53357600000001 29.234145654" />
<path class="stroke" d="M 76.53065674000001 28.427254598399998 L 90.53357600000001 28.427254598399998" />
<path class="stroke" d="M 53.24134135 43.66350806451613 L 91.93219300000001 43.66350806451613" />
<path class="stroke" d="M 65.0394315 34.097984677419355 L 65.0394315 68.53374" />
<path class="stroke" d="M 79.6135625 33.85885322580645 L 79.6135625 68.53370967741935" />
<path class="stroke" d="M 53.06783945 56.57683387096774 L 91.75869 56.57683387096774" />
<path class="stroke" d="M 48.73028425 69.01204838709677 L 96.96373325 69.01204838709677" />
<path class="stroke" d="M 71.2854845 69.500061 C 67.435644 75.29801950000001 60.9009906 79.4653443 54.2029707 81.6396039" />
<path class="stroke" d="M 65.801979 75.8415844 L 65.801979 93.7792078 C 70.53960310000001 92.8732663 73.64356550000001 91.9673248 76.9108933 89.79307130000001" />
<path class="stroke" d="M 88.18316970000001 70.4059415 C 85.89604200000001 74.02970323 82.7920785 76.92871115 79.19801825 78.3782206" />
<path class="stroke" d="M 75.7673289 74.7544546 C 79.3613875 82.3643571 86.38614150000001 88.70593905999999 94.06435820000002 91.9673248" />
</svg>
