<?xml version="1.0" standalone="no"?>
<!DOCTYPE svg PUBLIC "-//W3C//DTD SVG 1.1//EN" "http://www.w3.org/Graphics/SVG/1.1/DTD/svg11.dtd">
<svg xmlns="http://www.w3.org/2000/svg" version="1.1" width="100%" height="100%">
<style type="text/css"><![CDATA[
  .stroke { fill:none; stroke:black; stroke-width:2 }
]]></style>
<path class="stroke" d="M 18.430655833333333 9.562042 C 21.350365 11.021896 24.27007 14.817516 26.216541666666668 19.48905" />
<path class="stroke" d="M 8.2116775 22.8707 L 35.46228333333334 22.8707" />
<path class="stroke" d="M 13.564475000000002 37.007298 L 30.109488333333335 37.007298" />
<path class="stroke" d="M 13.564475000000002 51.313866 L 30.109488333333335 51.313866" />
<path class="stroke" d="M 12.59124 64.45255 L 12.59124 85.76642" />
<path class="stroke" d="M 12.59124 64.16058 L 31.569341666666666 64.16058 L 31.569341666666666 85.76642" />
<path class="stroke" d="M 12.59124 85.76642 L 31.326033333333335 85.76642" />
<path class="stroke" d="M 67.594887 3.89343066 L 67.594887 9.65693358" />
<path class="stroke" d="M 42.3540142 9.77956224 L 92.2664235 9.77956224" />
<path class="stroke" d="M 46.26350342 17.361328214999997 L 46.26350342 29.34941541" />
<path class="stroke" d="M 46.26350342 17.361328214999997 L 62.812408000000005 17.361328214999997 L 62.812408000000005 29.234145654" />
<path class="stroke" d="M 46.26350342 28.427254598399998 L 62.812408000000005 28.427254598399998" />
<path class="stroke" d="M 72.26350342 17.361328214999997 L 72.26350342 29.34941541" />
<path class="stroke" d="M 72.26350342 17.361328214999997 L 88.812408 17.361328214999997 L 88.812408 29.234145654" />
<path class="stroke" d="M 72.26350342 28.427254598399998 L 88.812408 28.427254598399998" />
<path class="stroke" d="M 44.73976705 43.66350806451613 L 90.465319 43.66350806451613" />
<path class="stroke" d="M 58.6829645 34.097984677419355 L 58.6829645 68.53374" />
<path class="stroke" d="M 75.9069375 33.85885322580645 L 75.9069375 68.53370967741935" />
<path class="stroke" d="M 44.53471935 56.57683387096774 L 90.26026999999999 56.57683387096774" />
<path class="stroke" d="M 39.40851775 69.01204838709677 L 96.41168475 69.01204838709677" />
<path class="stroke" d="M 66.0646635 69.500061 C 61.514852000000005 75.29801950000001 53.792079799999996 79.4653443 45.8762381 81.6396039" />
<path class="stroke" d="M 59.584157 75.8415844 L 59.584157 93.7792078 C 65.18316730000001 92.8732663 68.8514865 91.9673248 72.7128739 89.79307130000001" />
<path class="stroke" d="M 86.03465510000001 70.4059415 C 83.331686 74.02970323 79.6633655 76.92871115 75.41583975 78.3782206" />
<path class="stroke" d="M 71.36138869999999 74.7544546 C 75.6089125 82.3643571 83.9108945 88.70593905999999 92.9851506 91.9673248" />
</svg>
