<?xml version="1.0" standalone="no"?>
<!DOCTYPE svg PUBLIC "-//W3C//DTD SVG 1.1//EN" "http://www.w3.org/Graphics/SVG/1.1/DTD/svg11.dtd">
<svg xmlns="http://www.w3.org/2000/svg" version="1.1" width="100%" height="100%">
<style type="text/css"><![CDATA[
  .stroke { fill:none; stroke:black; stroke-width:2 }
]]></style>
<path class="stroke" d="M 10.0 7.5 L 90.0 7.5" />
<path class="stroke" d="M 20.0 15.0 L 20.0 22.5" />
<path class="stroke" d="M 20.0 15.0 L 80.0 15.0 L 80.0 22.5" />
<path class="stroke" d="M 20.0 22.5 L 80.0 22.5" />
<path class="stroke" d="M 50.0 3.75 L 50.0 30.0" />
<path class="stroke" d="M 10.0 30.0 L 10.0 37.5" />
<path class="stroke" d="M 10.0 30.0 L 90.0 30.0 L 90.0 37.5" />
<path class="stroke" d="M 18.7227716 37.7524748 L 81.8118815 37.7524748" />
<path class="stroke" d="M 45.4554473 37.7524748 C 41.712872 45.4752472 25.4059403 54.742576 14.178217100000001 57.118812000000005" />
<path class="stroke" d="M 39.841583 46.4257432 L 39.841583 59.138614000000004" />
<path class="stroke" d="M 39.841583 46.4257432 L 76.465346 46.4257432 L 76.465346 59.257424" />
<path class="stroke" d="M 39.841583 57.905108000000006 L 76.465346 57.905108000000006" />
<path class="stroke" d="M 10.7189775 70.8321168 L 10.7189775 83.7956176" />
<path class="stroke" d="M 10.7189775 70.9489044 L 44.60218950000001 70.9489044 L 44.60218950000001 83.912408" />
<path class="stroke" d="M 10.7189775 82.30958720000001 L 44.60218950000001 82.30958720000001" />
<path class="stroke" d="M 27.494494500000002 63.3576636 L 27.494494500000002 94.6569336" />
<path class="stroke" d="M 9.594889150000002 96.40876 L 44.7627708 93.021896" />
<path class="stroke" d="M 41.551092 89.284672 C 44.2810225 91.38686 45.726274000000004 93.7226256 46.689775000000004 96.40876" />
<path class="stroke" d="M 55.7189775 70.8321168 L 55.7189775 83.7956176" />
<path class="stroke" d="M 55.7189775 70.9489044 L 89.60218950000001 70.9489044 L 89.60218950000001 83.912408" />
<path class="stroke" d="M 55.7189775 82.30958720000001 L 89.60218950000001 82.30958720000001" />
<path class="stroke" d="M 72.4944945 63.3576636 L 72.4944945 94.6569336" />
<path class="stroke" d="M 54.59488915 96.40876 L 89.7627708 93.021896" />
<path class="stroke" d="M 86.551092 89.284672 C 89.2810225 91.38686 90.726274 93.7226256 91.689775 96.40876" />
</svg>
