<?xml version="1.0" standalone="no"?>
<!DOCTYPE svg PUBLIC "-//W3C//DTD SVG 1.1//EN" "http://www.w3.org/Graphics/SVG/1.1/DTD/svg11.dtd">
<svg xmlns="http://www.w3.org/2000/svg" version="1.1" width="100%" height="100%">
<style type="text/css"><![CDATA[
  .stroke { fill:none; stroke:black; stroke-width:2 }
]]></style>
<path class="stroke" d="M 17.737225 25.3649615 L 17.737225 45.07299 L 79.927 45.07299" />
<path class="stroke" d="M 24.4934304 10.1112 L 75.5065664 10.1112" />
<path class="stroke" d="M 50.0 4.4231240592 L 50.0 16.653196032" />
<path class="stroke" d="M 30.38977998 17.924379088 L 30.38977998 39.35269888" />
<path class="stroke" d="M 30.38977998 17.924379088 L 71.38248108 17.924379088 L 71.38248108 39.2756188" />
<path class="stroke" d="M 30.38977998 24.470023072 L 71.38248108 24.470023072" />
<path class="stroke" d="M 30.38977998 31.81970176 L 71.38248108 31.81970176" />
<path class="stroke" d="M 30.38977998 38.581895440000004 L 71.38248108 38.581895440000004" />
<path class="stroke" d="M 9.75547375 72.36496149999999 L 9.75547375 92.07299 L 43.95985000000001 92.07299" />
<path class="stroke" d="M 13.471386720000002 57.1112 L 41.52861152 57.1112" />
<path class="stroke" d="M 27.500000000000004 51.4231240592 L 27.500000000000004 63.653196032" />
<path class="stroke" d="M 16.714378989 64.924379088 L 16.714378989 86.35269887999999" />
<path class="stroke" d="M 16.714378989 64.924379088 L 39.26036459400001 64.924379088 L 39.26036459400001 86.27561879999999" />
<path class="stroke" d="M 16.714378989 71.470023072 L 39.26036459400001 71.470023072" />
<path class="stroke" d="M 16.714378989 78.81970176 L 39.26036459400001 78.81970176" />
<path class="stroke" d="M 16.714378989 85.58189544000001 L 39.26036459400001 85.58189544000001" />
<path class="stroke" d="M 50.642335 72.36496149999999 L 50.642335 92.07299 L 87.9562 92.07299" />
<path class="stroke" d="M 54.69605824 57.1112 L 85.30393984 57.1112" />
<path class="stroke" d="M 70.0 51.4231240592 L 70.0 63.653196032" />
<path class="stroke" d="M 58.233867988 64.924379088 L 58.233867988 86.35269887999999" />
<path class="stroke" d="M 58.233867988 64.924379088 L 82.829488648 64.924379088 L 82.829488648 86.27561879999999" />
<path class="stroke" d="M 58.233867988 71.470023072 L 82.829488648 71.470023072" />
<path class="stroke" d="M 58.233867988 78.81970176 L 82.829488648 78.81970176" />
<path class="stroke" d="M 58.233867988 85.58189544000001 L 82.829488648 85.58189544000001" />
</svg>
