<?xml version="1.0" standalone="no"?>
<!DOCTYPE svg PUBLIC "-//W3C//DTD SVG 1.1//EN" "http://www.w3.org/Graphics/SVG/1.1/DTD/svg11.dtd">
<svg xmlns="http://www.w3.org/2000/svg" version="1.1" width="100%" height="100%">
<style type="text/css"><![CDATA[
  .stroke { fill:none; stroke:black; stroke-width:2 }
]]></style>
<path class="stroke" d="M 8.08176 7.830185 L 19.717 17.452849999999998" />
<path class="stroke" d="M 8.08176 92.45282 L 22.2327 49.71695" />
<path class="stroke" d="M 38.29342878 10.49505 L 38.29342878 58.905106" />
<path class="stroke" d="M 38.381441179999996 10.412371 L 79.87422839999999 10.412371" />
<path class="stroke" d="M 59.1609392 10.5678 L 59.1609392 58.905106" />
<path class="stroke" d="M 38.29342878 26.49635 L 75.9576594 26.49635" />
<path class="stroke" d="M 38.54452556 43.138683 L 75.9576594 43.138683" />
<path class="stroke" d="M 38.29342878 58.905106 L 89.51678059999999 58.905106 C 89.51678059999999 81.386856 86.75473579999999 90.43795 81.2306548 90.43795" />
<path class="stroke" d="M 27.74744486 70.29197 C 26.994159680000003 74.087585 25.487589319999998 78.46715 22.976642159999997 80.80292" />
<path class="stroke" d="M 39.54890322 69.124084 C 41.30656778 72.04379 42.562043079999995 75.54744 43.3153274 81.09489" />
<path class="stroke" d="M 55.3678834 68.540146 C 57.376640439999996 72.04379 58.88320822 75.54744 59.88758932 79.63503" />
<path class="stroke" d="M 71.9401436 67.37226 C 74.19999999999999 71.16788 75.455471 73.21168 76.4598478 77.88321" />
</svg>
