<?xml version="1.0" standalone="no"?>
<!DOCTYPE svg PUBLIC "-//W3C//DTD SVG 1.1//EN" "http://www.w3.org/Graphics/SVG/1.1/DTD/svg11.dtd">
<svg xmlns="http://www.w3.org/2000/svg" version="1.1" width="100%" height="100%">
<style type="text/css"><![CDATA[
  .stroke { fill:none; stroke:black; stroke-width:2 }
]]></style>
<path class="stroke" d="M 10.7189775 27.080292 L 10.7189775 59.489044" />
<path class="stroke" d="M 10.7189775 27.372261 L 44.60218950000001 27.372261 L 44.60218950000001 59.78102" />
<path class="stroke" d="M 10.7189775 55.773968 L 44.60218950000001 55.773968" />
<path class="stroke" d="M 27.494494500000002 8.394159 L 27.494494500000002 86.642334" />
<path class="stroke" d="M 9.594889150000002 91.0219 L 44.7627708 82.55474" />
<path class="stroke" d="M 41.551092 73.21168 C 44.2810225 78.46715 45.726274000000004 84.306564 46.689775000000004 91.0219" />
<path class="stroke" d="M 55.7189775 27.080292 L 55.7189775 59.489044" />
<path class="stroke" d="M 55.7189775 27.372261 L 89.60218950000001 27.372261 L 89.60218950000001 59.78102" />
<path class="stroke" d="M 55.7189775 55.773968 L 89.60218950000001 55.773968" />
<path class="stroke" d="M 72.4944945 8.394159 L 72.4944945 86.642334" />
<path class="stroke" d="M 54.59488915 91.0219 L 89.7627708 82.55474" />
<path class="stroke" d="M 86.551092 73.21168 C 89.2810225 78.46715 90.726274 84.306564 91.689775 91.0219" />
</svg>
