<?xml version="1.0" standalone="no"?>
<!DOCTYPE svg PUBLIC "-//W3C//DTD SVG 1.1//EN" "http://www.w3.org/Graphics/SVG/1.1/DTD/svg11.dtd">
<svg xmlns="http://www.w3.org/2000/svg" version="1.1" width="100%" height="100%">
<style type="text/css"><![CDATA[
  .stroke { fill:none; stroke:black; stroke-width:2 }
]]></style>
<path class="stroke" d="M 27.747834210526314 3.706624 L 27.747834210526314 47.082012" />
<path class="stroke" d="M 9.152407894736841 8.7539 C 13.123342105263157 10.85695 16.51309210526316 12.96005 19.32175 16.00945" />
<path class="stroke" d="M 6.246882894736842 36.041 C 11.961157894736841 34.7792 17.384776315789473 33.0441 21.646210526315787 30.6782" />
<path class="stroke" d="M 88.89702868 5.5005500000000005 C 77.29504948 7.975797777777778 59.517820990000004 9.130913333333334 49.03861456 9.130913333333334" />
<path class="stroke" d="M 50.161385440000004 13.42134277777778 C 52.968317049999996 15.731573888888889 54.654553 18.255611111111115 55.9623763 20.84708555555556" />
<path class="stroke" d="M 64.38316861 12.596259444444444 C 67.00297132 14.411441111111111 68.6871289 16.721672222222224 69.8099023 19.691969444444446" />
<path class="stroke" d="M 87.9613867 11.606160000000001 C 86.46435801999999 15.566556666666667 84.21880870000001 18.536853888888892 81.0376237 20.682067777777778" />
<path class="stroke" d="M 43.57591228 32.06204325 L 93.24014095000001 32.06204325" />
<path class="stroke" d="M 78.3408772 27.90145975 L 78.3408772 46.441604999999996 C 78.3408772 47.09854 77.6051065 47.536495 75.94963282 47.536495 L 70.98321115 47.536495" />
<path class="stroke" d="M 53.6927005 34.83576575 C 55.9 35.4927005 57.92335714 36.4416055 59.578830190000005 38.04744425" />
<path class="stroke" d="M 6.15142 52.388038 L 93.8486 52.388038" />
<path class="stroke" d="M 13.4069 62.268148 L 13.4069 95.656132" />
<path class="stroke" d="M 13.4069 62.268148 L 86.9085 62.268148 L 86.9085 95.656132" />
<path class="stroke" d="M 40.2208 52.55838478 L 40.2208 66.18614824 C 39.677418 70.0387102 28.387096 77.18064544 13.870968 78.74838478000001" />
<path class="stroke" d="M 59.46373 52.388038 L 59.46373 76.066282 C 59.04313 78.053698 61.461628 79.53000399999999 64.82653 79.47325000000001 L 73.97473 79.47325000000001 C 76.39323 79.416442 79.44263 78.337576 79.337524 76.236652 L 79.337524 73.85179600000001" />
<path class="stroke" d="M 13.4069 86.28707800000001 L 86.9085 86.28707800000001" />
<path class="stroke" d="M 13.4069 95.656132 L 86.9085 95.656132" />
</svg>
