<?xml version="1.0" standalone="no"?>
<!DOCTYPE svg PUBLIC "-//W3C//DTD SVG 1.1//EN" "http://www.w3.org/Graphics/SVG/1.1/DTD/svg11.dtd">
<svg xmlns="http://www.w3.org/2000/svg" version="1.1" width="100%" height="100%">
<style type="text/css"><![CDATA[
  .stroke { fill:none; stroke:black; stroke-width:2 }
]]></style>
<path class="stroke" d="M 6.100824528301887 16.56149 L 44.49142924528302 16.56149" />
<path class="stroke" d="M 16.51688679245283 7.0978 L 16.51688679245283 30.12622" />
<path class="stroke" d="M 33.182641509433964 7.0978 L 33.182641509433964 30.12622" />
<path class="stroke" d="M 16.51688679245283 30.12622 L 33.182641509433964 30.12622" />
<path class="stroke" d="M 9.672075471698113 43.059975 L 9.672075471698113 64.82648" />
<path class="stroke" d="M 9.672075471698113 43.059975 L 39.72990566037736 43.059975 L 39.72990566037736 64.82648" />
<path class="stroke" d="M 9.672075471698113 64.82648 L 39.72990566037736 64.82648" />
<path class="stroke" d="M 5.803223584905661 79.653 L 44.19382547169811 79.653" />
<path class="stroke" d="M 24.849716981132072 30.441656 L 24.849716981132072 95.741356" />
<path class="stroke" d="M 66.167883 9.854013 L 66.14094 55.63759 C 62.7181205 80.20134 62.7181205 79.39597 58.892617 89.865776" />
<path class="stroke" d="M 66.167883 9.854013 L 86.60584 9.854013 L 86.60584 86.05839 C 86.60584 88.39416 86.021895 90.43795 84.56204199999999 90.43795 L 82.956205 90.43795" />
<path class="stroke" d="M 66.167883 31.862577 L 86.60584 31.862577" />
<path class="stroke" d="M 66.167883 55.110336 L 86.60584 55.110336" />
</svg>
