<?xml version="1.0" standalone="no"?>
<!DOCTYPE svg PUBLIC "-//W3C//DTD SVG 1.1//EN" "http://www.w3.org/Graphics/SVG/1.1/DTD/svg11.dtd">
<svg xmlns="http://www.w3.org/2000/svg" version="1.1" width="100%" height="100%">
<style type="text/css"><![CDATA[
  .stroke { fill:none; stroke:black; stroke-width:2 }
]]></style>
<path class="stroke" d="M 8.260072756000001 9.1921164 L 8.260072756000001 27.6540136" />
<path class="stroke" d="M 8.260072756000001 9.1921164 L 25.3181744 9.1921164 L 25.3181744 27.47649584" />
<path class="stroke" d="M 8.260072756000001 26.233867263999997 L 25.3181744 26.233867263999997" />
<path class="stroke" d="M 41.76007275600001 9.1921164 L 41.76007275600001 27.6540136" />
<path class="stroke" d="M 41.76007275600001 9.1921164 L 58.818174400000004 9.1921164 L 58.818174400000004 27.47649584" />
<path class="stroke" d="M 41.76007275600001 26.233867263999997 L 58.818174400000004 26.233867263999997" />
<path class="stroke" d="M 13.2097669 38.76973736 L 13.2097669 67.1293446" />
<path class="stroke" d="M 13.2097669 38.76973736 L 54.2129629 38.76973736 L 54.2129629 67.1293446" />
<path class="stroke" d="M 13.4211452 53.0472908 L 54.21295620000001 53.0472908" />
<path class="stroke" d="M 13.2097669 67.1293446 L 54.2129629 67.1293446" />
<path class="stroke" d="M 5.3895805 79.25552160000001 L 61.6104195 79.25552160000001" />
<path class="stroke" d="M 33.711385 39.1608842 L 33.711385 92.359606" />
<path class="stroke" d="M 68.8432392 7.5135136 L 89.6778288 7.5135136 C 87.109188 15.297297 84.8725624 25.963066 81.68648368000001 36.7027" />
<path class="stroke" d="M 81.9718888 37.675674 C 85.24051680000001 41.305073 91.0257424 50.29703 91.0257424 59.207924 L 91.0257424 63.069305 C 91.0257424 66.63367 89.36558368 76.918915 85.96756400000001 76.918915 L 77.4054016 75.945946" />
<path class="stroke" d="M 69.1286452 8.81081 L 68.8432392 92.48648" />
</svg>
