<?xml version="1.0" standalone="no"?>
<!DOCTYPE svg PUBLIC "-//W3C//DTD SVG 1.1//EN" "http://www.w3.org/Graphics/SVG/1.1/DTD/svg11.dtd">
<svg xmlns="http://www.w3.org/2000/svg" version="1.1" width="100%" height="100%">
<style type="text/css"><![CDATA[
  .stroke { fill:none; stroke:black; stroke-width:2 }
]]></style>
<path class="stroke" d="M 49.05361 5.52051 L 49.05361 13.09153" />
<path class="stroke" d="M 12.1451 13.72242 L 92.9022 13.72242" />
<path class="stroke" d="M 12.145143 14.037857 L 12.145143 61.04096 C 12.145143 76.387436 10.778143 84.91056 5.835963 94.479454" />
<path class="stroke" d="M 12.443892 24.114716 L 81.700386 24.18324 L 81.700386 33.66492" />
<path class="stroke" d="M 38.488987 14.037906 L 38.488987 33.350784" />
<path class="stroke" d="M 61.04105 14.037906 L 61.04105 33.66492" />
<path class="stroke" d="M 12.743143 33.690777 L 81.727745 33.690777" />
<path class="stroke" d="M 31.780822 62.146678 L 50.433745 62.146678" />
<path class="stroke" d="M 31.5252589 45.42744375 L 31.5252589 88.73026960000001 M 18.2381728 91.572543 L 48.645103000000006 85.553598" />
<path class="stroke" d="M 87.228724 57.465294 C 78.540988 62.035219 70.61983599999999 63.930075 58.610371 64.152993" />
<path class="stroke" d="M 58.35481600000001 45.4274411 L 58.35481600000001 88.06150500000001 C 58.269685 89.73344300000001 59.97311500000001 91.572543 62.69868400000001 91.572543 L 83.65144000000001 91.405381 C 87.05830000000002 91.18241 88.67668 89.789199 88.76181100000001 87.894343 L 88.76181100000001 83.045744" />
</svg>
