<?xml version="1.0" standalone="no"?>
<!DOCTYPE svg PUBLIC "-//W3C//DTD SVG 1.1//EN" "http://www.w3.org/Graphics/SVG/1.1/DTD/svg11.dtd">
<svg xmlns="http://www.w3.org/2000/svg" version="1.1" width="100%" height="100%">
<style type="text/css"><![CDATA[
  .stroke { fill:none; stroke:black; stroke-width:2 }
]]></style>
<path class="stroke" d="M 13.59264417857143 14.059406 C 17.210041928571428 16.138615 20.827440785714288 19.108912 23.78713035714286 22.673267" />
<path class="stroke" d="M 11.290663892857143 38.118813 C 14.579209214285715 39.90099 18.5254605 42.574257 21.15629542857143 46.138615" />
<path class="stroke" d="M 10.961810357142857 85.64356 C 11.699188535714287 87.422676 13.75368142857143 89.896904 16.150587035714285 89.896904 C 18.547495964285712 89.896904 21.8140025 76.73267 24.115983892857145 69.60396" />
<path class="stroke" d="M 37.537953259999995 8.086130899999999 L 37.537953259999995 50.7605792" />
<path class="stroke" d="M 37.537953259999995 8.086130899999999 L 79.21970499999999 8.086130899999999 L 79.21970499999999 50.7605792" />
<path class="stroke" d="M 37.78029085 28.260872939999995 L 78.9773699 28.260872939999995" />
<path class="stroke" d="M 37.537953259999995 48.897807119999996 L 79.21970499999999 48.897807119999996" />
<path class="stroke" d="M 37.465254888000004 73.1394152 L 79.53473980000001 73.1394152" />
<path class="stroke" d="M 58.5 57.116057745 L 58.5 94.0270029" />
<path class="stroke" d="M 31.843064632 94.0270029 L 84.96306264 94.0270029" />
</svg>
