<?xml version="1.0" standalone="no"?>
<!DOCTYPE svg PUBLIC "-//W3C//DTD SVG 1.1//EN" "http://www.w3.org/Graphics/SVG/1.1/DTD/svg11.dtd">
<svg xmlns="http://www.w3.org/2000/svg" version="1.1" width="100%" height="100%">
<style type="text/css"><![CDATA[
  .stroke { fill:none; stroke:black; stroke-width:2 }
]]></style>
<path class="stroke" d="M 25.94635 3.2097791000000004 C 25.57835 5.4074691 24.7371 7.2581696 22.47635 8.761814600000001" />
<path class="stroke" d="M 12.5394 8.76183825 L 12.5394 36.69556825000001 C 12.48685 43.462166 10.22605 47.9732077 4.02206 51.269740500000005" />
<path class="stroke" d="M 12.5394 8.76183825 L 37.93375 8.76183825 L 37.93375 48.14667550000001 C 37.98635 50.2287005 37.09255 51.096217700000004 35.72555 51.096217700000004 L 33.3596 51.096217700000004" />
<path class="stroke" d="M 22.00315 14.834374500000001 C 24.89485 16.2223545 26.6824 18.4779045 28.3123 21.6009145" />
<path class="stroke" d="M 25.41096 32.834246500000006 L 25.41096 44.76849300000001" />
<path class="stroke" d="M 3.23344 27.326475000000002 L 46.4511 27.326475000000002" />
<path class="stroke" d="M 65.37855 4.4242935 L 65.37855 14.66091 C 65.2734 22.5841 59.64775 26.34335 53.23344 28.02052" />
<path class="stroke" d="M 65.5363 4.424288000000001 L 82.571 4.424288000000001 L 82.571 20.212885000000004 C 82.41325 22.46838 83.6751 23.856415000000002 85.4101 23.856415000000002 L 96.361255 23.856415000000002" />
<path class="stroke" d="M 60.48895 29.235035500000002 L 86.8297 29.235035500000002 C 80.1525 42.478980500000006 67.9548 48.9563855 54.17981 51.790205500000006" />
<path class="stroke" d="M 64.27445 29.235035500000002 C 66.74555000000001 41.61146550000001 80.88855 50.691415500000005 96.4511 51.6167355" />
<path class="stroke" d="M 11.021896 63.5401396 L 88.68613 63.5401396" />
<path class="stroke" d="M 50.14598 56.7080272 L 50.14598 90.654796" />
<path class="stroke" d="M 47.226276 65.6423326 C 35.547443 75.102184 23.576641 82.197073 13.065693 86.138677" />
<path class="stroke" d="M 53.06569 65.6423326 C 64.16058 75.62773000000001 75.54744 81.93430000000001 86.642334 86.138677" />
</svg>
