<?xml version="1.0" standalone="no"?>
<!DOCTYPE svg PUBLIC "-//W3C//DTD SVG 1.1//EN" "http://www.w3.org/Graphics/SVG/1.1/DTD/svg11.dtd">
<svg xmlns="http://www.w3.org/2000/svg" version="1.1" width="100%" height="100%">
<style type="text/css"><![CDATA[
  .stroke { fill:none; stroke:black; stroke-width:2 }
]]></style>
<path class="stroke" d="M 18.891422229166665 9.562042 C 21.884124125 11.021896 24.876821749999998 14.817516 26.871955208333333 19.48905" />
<path class="stroke" d="M 8.4169694375 22.8707 L 36.34884041666667 22.8707" />
<path class="stroke" d="M 13.903586875 37.007298 L 30.862225541666664 37.007298" />
<path class="stroke" d="M 13.903586875 51.313866 L 30.862225541666664 51.313866" />
<path class="stroke" d="M 12.906021 64.45255 L 12.906021 85.76642" />
<path class="stroke" d="M 12.906021 64.16058 L 32.35857520833333 64.16058 L 32.35857520833333 85.76642" />
<path class="stroke" d="M 12.906021 85.76642 L 32.109184166666665 85.76642" />
<path class="stroke" d="M 49.620436760000004 9.854013 C 48.62773604 19.781021 42.27445184 30.29197 38.50218856 32.627735" />
<path class="stroke" d="M 46.6423346 25.036495 L 46.6423346 90.43795" />
<path class="stroke" d="M 70.26860956 10.145985 C 69.07736924 16.569342 66.89342888 22.116787 63.71678712 25.328465" />
<path class="stroke" d="M 46.6423346 24.76344 L 83.3722592 24.76344" />
<path class="stroke" d="M 64.70948920000001 25.328465 L 64.70948920000001 90.43795" />
<path class="stroke" d="M 46.6423346 47.79185 L 80.7912376 47.79185" />
<path class="stroke" d="M 46.6423346 69.124084 L 80.9897772 69.124084" />
<path class="stroke" d="M 46.6423346 90.43795 L 87.34306208000001 90.43795" />
</svg>
