<?xml version="1.0" standalone="no"?>
<!DOCTYPE svg PUBLIC "-//W3C//DTD SVG 1.1//EN" "http://www.w3.org/Graphics/SVG/1.1/DTD/svg11.dtd">
<svg xmlns="http://www.w3.org/2000/svg" version="1.1" width="100%" height="100%">
<style type="text/css"><![CDATA[
  .stroke { fill:none; stroke:black; stroke-width:2 }
]]></style>
<path class="stroke" d="M 49.999996 5.0 C 52.376232 7.6732674 52.793365 10.037088 52.918915 12.702702" />
<path class="stroke" d="M 12.702702 13.675674 L 92.81081 13.351351" />
<path class="stroke" d="M 12.378378 13.999998 L 12.702702 39.62162 C 12.702702 61.30479 14.560343 79.686905 6.5405407 92.162155" />
<path class="stroke" d="M 24.364922142857143 26.930692999999998 L 47.660538214285715 26.930692999999998" />
<path class="stroke" d="M 29.13861407142857 26.930692999999998 L 29.13861407142857 69.13861399999999" />
<path class="stroke" d="M 29.13861407142857 40.0297027 L 42.31400142857143 40.0297027" />
<path class="stroke" d="M 29.13861407142857 53.54455299999999 L 42.31400142857143 53.54455299999999" />
<path class="stroke" d="M 24.555869357142857 71.0098988 L 42.285715714285715 64.1388899" />
<path class="stroke" d="M 42.31400142857143 26.930692999999998 L 42.31400142857143 82.861386" />
<path class="stroke" d="M 51.18306552 31.662 L 85.61693232 31.662" />
<path class="stroke" d="M 68.4 24.209707992 L 68.4 40.23306432" />
<path class="stroke" d="M 52.696641455999995 44.088684608333324 L 52.696641455999995 61.89241688333333" />
<path class="stroke" d="M 52.696641455999995 44.088684608333324 L 84.229488288 44.088684608333324 L 84.229488288 61.89241688333333" />
<path class="stroke" d="M 62.676358560000004 44.088684608333324 L 62.676358560000004 61.89241688333333" />
<path class="stroke" d="M 74.123678592 44.088684608333324 L 74.123678592 61.89241688333333" />
<path class="stroke" d="M 52.696641455999995 61.90078608333333 L 84.31128575999999 61.90078608333333" />
<path class="stroke" d="M 54.3363696 71.892736 C 53.9730144 76.544656 53.064518400000004 79.60673600000001 51.474542400000004 83.022064" />
<path class="stroke" d="M 61.15023648 69.066248 L 61.15023648 84.082032 C 61.15023648 85.671928 61.96792608 86.73184 63.194417279999996 86.73184 L 77.91239808 86.73184 C 79.04803967999999 86.73184 80.04742848000001 85.49524799999999 80.09283167999999 83.552048 L 80.09283167999999 80.54888" />
<path class="stroke" d="M 66.3288192 69.06625919999999 C 68.690952 71.7749792 70.23543839999999 74.6603792 71.6436288 78.42901119999999" />
<path class="stroke" d="M 80.09281439999998 69.24292799999999 C 82.95464159999999 72.540432 84.72627359999998 75.83815999999999 86.4978624 80.372256" />
</svg>
