<?xml version="1.0" standalone="no"?>
<!DOCTYPE svg PUBLIC "-//W3C//DTD SVG 1.1//EN" "http://www.w3.org/Graphics/SVG/1.1/DTD/svg11.dtd">
<svg xmlns="http://www.w3.org/2000/svg" version="1.1" width="100%" height="100%">
<style type="text/css"><![CDATA[
  .stroke { fill:none; stroke:black; stroke-width:2 }
]]></style>
<path class="stroke" d="M 50.6309 2.839088000000004 L 50.6309 14.447920000000003" />
<path class="stroke" d="M 6.466877 14.70024 L 6.466877 24.794880000000006" />
<path class="stroke" d="M 6.466877 14.70024 L 94.164055 14.70024 L 94.164055 24.794880000000006" />
<path class="stroke" d="M 21.6934294 24.5 L 78.306565 24.5" />
<path class="stroke" d="M 49.303626881999996 26.76593059175 L 49.303626881999996 36.8643237725 C 49.303626881999996 37.15403171375 48.198391702 37.319579412500005 47.397225336 37.319579412500005 L 45.99518128 37.319579412500005" />
<path class="stroke" d="M 33.376786834 30.532134395 C 32.375326990000005 31.980674809999996 29.370948144 33.222280778750005 25.164815976 34.2155656955" />
<path class="stroke" d="M 63.420582839999994 30.532134395 C 67.42642153 31.401258927500002 70.83138321599999 32.56009111775 72.834302904 34.298338907" />
<path class="stroke" d="M 64.496825 34.8528512 C 58.723093399999996 38.8200368 46.0862762 42.60552319999999 32.4690404 44.165144" />
<path class="stroke" d="M 27.080292 50.12408676 L 27.080292 84.13284440000001" />
<path class="stroke" d="M 27.372261 50.12408676 L 72.9197 50.12408676 L 72.9197 84.13284440000001" />
<path class="stroke" d="M 27.382198 61.7326744 L 72.871284 61.7326744" />
<path class="stroke" d="M 27.382198 73.16237684000001 L 72.871284 73.16237684000001" />
<path class="stroke" d="M 27.372261 83.98102 L 72.62773 83.98102" />
<path class="stroke" d="M 33.211678 87.62481600000001 C 30.875912 90.205836 27.080292 91.57226080000001 22.70073 92.1795584" />
<path class="stroke" d="M 67.9562 87.7766404 C 72.33576 88.383938 75.54744 89.7503628 78.17518 92.1795584" />
</svg>
