<?xml version="1.0" standalone="no"?>
<!DOCTYPE svg PUBLIC "-//W3C//DTD SVG 1.1//EN" "http://www.w3.org/Graphics/SVG/1.1/DTD/svg11.dtd">
<svg xmlns="http://www.w3.org/2000/svg" version="1.1" width="100%" height="100%">
<style type="text/css"><![CDATA[
  .stroke { fill:none; stroke:black; stroke-width:2 }
]]></style>
<path class="stroke" d="M 8.4306558 15.864263617021276 L 33.4467126 15.864263617021276" />
<path class="stroke" d="M 21.0613116 9.15514659574468 L 21.0613116 39.06662265957447" />
<path class="stroke" d="M 9.534306599999999 27.32567170212766 L 32.4656892 27.32567170212766" />
<path class="stroke" d="M 4.2613137 39.06662265957447 L 37.86131159999999 39.06662265957447" />
<path class="stroke" d="M 16.604124 40.690852 C 15.689319 50.28076 13.402175999999999 58.35646 6.4495188 67.75708" />
<path class="stroke" d="M 16.0551888 47.88328 L 34.4431608 48.07258 C 31.7902698 67.37854 22.001551799999998 82.52055999999999 5.9006358 93.49846" />
<path class="stroke" d="M 12.212886000000001 58.67194 C 19.897422 74.50792 34.443213 93.18298 50.635653000000005 93.30915999999999 L 81.64828200000001 93.30915999999999" />
<path class="stroke" d="M 50.5946349 7.850158899999999 L 96.238166 7.850158899999999" />
<path class="stroke" d="M 73.332785 8.099396 C 72.329654 14.495868 70.323339 18.898538000000002 66.812354 22.802797" />
<path class="stroke" d="M 54.6072702 23.0520341 L 54.6072702 71.1498411" />
<path class="stroke" d="M 54.6072702 23.0520341 L 93.0615262 23.0520341 L 93.0615262 71.1498411" />
<path class="stroke" d="M 66.6451337 23.301287000000002 L 66.6451337 70.65135900000001" />
<path class="stroke" d="M 79.8533167 23.301287000000002 L 79.8533167 70.900604" />
<path class="stroke" d="M 66.6451337 39.0015969 L 79.8533167 39.0015969" />
<path class="stroke" d="M 66.6451337 54.7018752 L 79.8533167 54.7018752" />
<path class="stroke" d="M 54.6072702 71.1498411 L 93.0615262 71.1498411" />
</svg>
