<?xml version="1.0" standalone="no"?>
<!DOCTYPE svg PUBLIC "-//W3C//DTD SVG 1.1//EN" "http://www.w3.org/Graphics/SVG/1.1/DTD/svg11.dtd">
<svg xmlns="http://www.w3.org/2000/svg" version="1.1" width="100%" height="100%">
<style type="text/css"><![CDATA[
  .stroke { fill:none; stroke:black; stroke-width:2 }
]]></style>
<path class="stroke" d="M 50.14598 4.17153285 L 50.14598 10.346714550000002" />
<path class="stroke" d="M 11.313868 10.478102400000001 L 88.10219 10.478102400000001" />
<path class="stroke" d="M 27.8248169 18.3041604 L 27.8248169 27.0492696" />
<path class="stroke" d="M 27.8248169 18.3041604 L 72.37956 18.3041604 L 72.37956 26.96518224" />
<path class="stroke" d="M 27.8248169 26.376568704 L 72.37956 26.376568704" />
<path class="stroke" d="M 13.8686117 36.9233565 L 13.8686117 44.791968350000005" />
<path class="stroke" d="M 13.8686117 36.60218785000001 L 86.131382 36.60218785000001 L 86.131382 44.952551850000006" />
<path class="stroke" d="M 28.8248169 45.7297589275 L 28.8248169 55.076094385" />
<path class="stroke" d="M 28.8248169 45.7297589275 L 73.37956 45.7297589275 L 73.37956 54.986226019" />
<path class="stroke" d="M 28.8248169 54.3571453024 L 73.37956 54.3571453024" />
<path class="stroke" d="M 32.335766 63.9194154388 L 32.28188 81.66512988400001 C 25.436241 91.186039384 25.436241 90.873877972 17.785234 94.9319747776" />
<path class="stroke" d="M 32.335766 63.9194154388 L 73.21168 63.9194154388 L 73.21168 93.456231964 C 73.21168 94.36157641599999 72.04379 95.15374942 69.124084 95.15374942 L 65.91241 95.15374942" />
<path class="stroke" d="M 32.335766 72.4499348452 L 73.21168 72.4499348452" />
<path class="stroke" d="M 32.335766 81.4607662336 L 73.21168 81.4607662336" />
</svg>
