<?xml version="1.0" standalone="no"?>
<!DOCTYPE svg PUBLIC "-//W3C//DTD SVG 1.1//EN" "http://www.w3.org/Graphics/SVG/1.1/DTD/svg11.dtd">
<svg xmlns="http://www.w3.org/2000/svg" version="1.1" width="100%" height="100%">
<style type="text/css"><![CDATA[
  .stroke { fill:none; stroke:black; stroke-width:2 }
]]></style>
<path class="stroke" d="M 12.189779 10.985401 L 87.81021 10.985401" />
<path class="stroke" d="M 34.67153 5.875911299999999 L 34.67153 16.5036487" />
<path class="stroke" d="M 65.32846 5.875911299999999 L 65.32846 16.5036487" />
<path class="stroke" d="M 49.624083 17.54233577 L 49.624083 24.266422509999998" />
<path class="stroke" d="M 16.616787799999997 24.409489280000003 L 81.8868615 24.409489280000003" />
<path class="stroke" d="M 30.651094365 32.93119688 L 30.651094365 42.453649119999994" />
<path class="stroke" d="M 30.651094365 32.93119688 L 68.522626 32.93119688 L 68.522626 42.362087328" />
<path class="stroke" d="M 30.651094365 41.721152588799995 L 68.522626 41.721152588799995" />
<path class="stroke" d="M 19.48905 50.333576550000004 L 19.48905 68.8007285" />
<path class="stroke" d="M 19.48905 50.333576550000004 L 80.51095 50.333576550000004 L 80.51095 67.7934297 C 80.51095 68.3978099 79.63503 68.7335754 77.00729 68.7335754 L 74.087585 68.7335754" />
<path class="stroke" d="M 36.061313479999995 58.6845983 L 36.061313479999995 70.1018242" />
<path class="stroke" d="M 36.061313479999995 58.6845983 L 64.067152 58.6845983 L 64.067152 69.99204348" />
<path class="stroke" d="M 36.061313479999995 69.22357580799999 L 64.067152 69.22357580799999" />
<path class="stroke" d="M 20.07299 75.31059022299999 L 80.21897 75.31059022299999" />
<path class="stroke" d="M 50.14598 70.4815984786 L 50.14598 96.99371305599999" />
<path class="stroke" d="M 50.14598 76.9202548945 C 40.51095 84.2110867438 28.832115 88.0932178324 13.649633 90.081625015" />
<path class="stroke" d="M 50.14598 76.9202548945 C 59.197075 84.3057722905 71.45985 88.18790337909999 86.642334 89.89225489449998" />
</svg>
