<?xml version="1.0" standalone="no"?>
<!DOCTYPE svg PUBLIC "-//W3C//DTD SVG 1.1//EN" "http://www.w3.org/Graphics/SVG/1.1/DTD/svg11.dtd">
<svg xmlns="http://www.w3.org/2000/svg" version="1.1" width="100%" height="100%">
<style type="text/css"><![CDATA[
  .stroke { fill:none; stroke:black; stroke-width:2 }
]]></style>
<path class="stroke" d="M 10.83186 8.990537 L 10.83186 74.60566" />
<path class="stroke" d="M 10.83186 8.990537 L 30.355938260869564 8.990537 L 30.355938260869564 74.60566" />
<path class="stroke" d="M 10.83186 31.072573 L 30.088449130434782 31.072573" />
<path class="stroke" d="M 10.83186 53.1546 L 30.088449130434782 53.1546" />
<path class="stroke" d="M 10.83186 74.60566 L 30.355938260869564 74.60566" />
<path class="stroke" d="M 15.645952173913043 82.1766 C 13.862973913043477 87.4343 10.475230434782608 91.7455 5.482781086956522 95.1104" />
<path class="stroke" d="M 25.006893260869564 82.49213 C 27.592254130434785 85.43633 29.375232391304344 88.38063 30.355912826086954 92.58673" />
<path class="stroke" d="M 50.1594058 20.22630907142857 L 72.0920797 20.22630907142857" />
<path class="stroke" d="M 61.336634759999995 9.193776428571429 L 61.336634759999995 34.84441442857143" />
<path class="stroke" d="M 39.19306956 35.00446857142857 L 89.8069276 35.00446857142857" />
<path class="stroke" d="M 80.3168333 14.985856785714288 C 69.77227753 37.87836 53.95544494 52.22065178571429 37.084158689999995 58.84017285714286" />
<path class="stroke" d="M 51.5893996464 52.11021855 L 51.5893996464 89.6343024" />
<path class="stroke" d="M 51.5893996464 52.11021855 L 77.26134119999999 52.11021855 L 77.26134119999999 89.6343024" />
<path class="stroke" d="M 51.738656244 69.85007793 L 77.11208613599999 69.85007793" />
<path class="stroke" d="M 51.5893996464 87.99634764 L 77.26134119999999 87.99634764" />
</svg>
