<?xml version="1.0" standalone="no"?>
<!DOCTYPE svg PUBLIC "-//W3C//DTD SVG 1.1//EN" "http://www.w3.org/Graphics/SVG/1.1/DTD/svg11.dtd">
<svg xmlns="http://www.w3.org/2000/svg" version="1.1" width="100%" height="100%">
<style type="text/css"><![CDATA[
  .stroke { fill:none; stroke:black; stroke-width:2 }
]]></style>
<path class="stroke" d="M 20.100959999999997 5.5205 C 15.709823999999998 17.8233 10.410120000000001 30.7571 3.5205048 40.5363" />
<path class="stroke" d="M 20.100959999999997 5.83596 C 24.492096 11.8296 27.520488 18.4543 30.776040000000002 25.0789" />
<path class="stroke" d="M 8.744472 33.59624 L 28.958975999999996 33.59624" />
<path class="stroke" d="M 4.8832812 51.57724 L 31.684526639999998 51.57724" />
<path class="stroke" d="M 19.646670959999998 33.9117 L 19.646670959999998 88.1703" />
<path class="stroke" d="M 4.6561536 61.672 C 7.760232 65.878 10.18296 70.3996 12.605687999999999 75.2366" />
<path class="stroke" d="M 31.0032 61.6719 C 29.337552 67.4553 26.990496 72.2923 23.962104 77.1294" />
<path class="stroke" d="M 5.791795199999999 94.4795 L 30.776040000000002 83.7539" />
<path class="stroke" d="M 66.0992664 8.111313875 L 66.0992664 19.352188625" />
<path class="stroke" d="M 40.48759034 19.6076615 L 40.48759034 31.870435625" />
<path class="stroke" d="M 40.48759034 19.6076615 L 91.7109428 19.6076615 L 91.7109428 31.870435625" />
<path class="stroke" d="M 53.987364799999995 27.192424 C 49.84017944 34.51104 45.04944276 39.558400000000006 38.97160956 43.09152" />
<path class="stroke" d="M 76.9400712 27.192432 C 81.0157872 33.501599999999996 85.7349872 38.54888 91.7412912 42.082" />
<path class="stroke" d="M 65.78546 35.772832 C 57.634028 51.419551999999996 49.697204 60.757152000000005 36.1829656 66.813872" />
<path class="stroke" d="M 65.78546 35.772832 C 73.57941600000001 51.503631999999996 80.94422399999999 60.672912000000004 95.602508 66.813872" />
<path class="stroke" d="M 49.9116624 68.075752 L 50.1262024 93.312312" />
<path class="stroke" d="M 49.9116624 68.075752 L 81.6592304 68.075752 L 81.8737704 93.312312" />
<path class="stroke" d="M 50.1262024 93.312312 L 81.8737704 93.312312" />
</svg>
