<?xml version="1.0" standalone="no"?>
<!DOCTYPE svg PUBLIC "-//W3C//DTD SVG 1.1//EN" "http://www.w3.org/Graphics/SVG/1.1/DTD/svg11.dtd">
<svg xmlns="http://www.w3.org/2000/svg" version="1.1" width="100%" height="100%">
<style type="text/css"><![CDATA[
  .stroke { fill:none; stroke:black; stroke-width:2 }
]]></style>
<path class="stroke" d="M 13.407900545454545 25.811516 C 12.893859 33.979057 11.865777545454547 36.806282 10.837696090909093 41.83246" />
<path class="stroke" d="M 31.43114181818182 23.267326 C 29.972997 28.613861 28.02880390909091 33.069305 25.355536363636368 36.336636" />
<path class="stroke" d="M 20.008999636363637 9.306931 L 20.008999636363637 57.72277 C 20.008999636363637 74.653465 12.77599090909091 85.6467 7.857785454545455 90.39604" />
<path class="stroke" d="M 19.765977545454547 63.36634 C 23.897389090909094 68.71287 27.785778545454548 75.24753 29.486948727272726 82.9703" />
<path class="stroke" d="M 66.0992664 8.111313875 L 66.0992664 19.352188625" />
<path class="stroke" d="M 40.48759034 19.6076615 L 40.48759034 31.870435625" />
<path class="stroke" d="M 40.48759034 19.6076615 L 91.7109428 19.6076615 L 91.7109428 31.870435625" />
<path class="stroke" d="M 53.987364799999995 27.192424 C 49.84017944 34.51104 45.04944276 39.558400000000006 38.97160956 43.09152" />
<path class="stroke" d="M 76.9400712 27.192432 C 81.0157872 33.501599999999996 85.7349872 38.54888 91.7412912 42.082" />
<path class="stroke" d="M 65.78546 35.772832 C 57.634028 51.419551999999996 49.697204 60.757152000000005 36.1829656 66.813872" />
<path class="stroke" d="M 65.78546 35.772832 C 73.57941600000001 51.503631999999996 80.94422399999999 60.672912000000004 95.602508 66.813872" />
<path class="stroke" d="M 49.9116624 68.075752 L 50.1262024 93.312312" />
<path class="stroke" d="M 49.9116624 68.075752 L 81.6592304 68.075752 L 81.8737704 93.312312" />
<path class="stroke" d="M 50.1262024 93.312312 L 81.8737704 93.312312" />
</svg>
