<?xml version="1.0" standalone="no"?>
<!DOCTYPE svg PUBLIC "-//W3C//DTD SVG 1.1//EN" "http://www.w3.org/Graphics/SVG/1.1/DTD/svg11.dtd">
<svg xmlns="http://www.w3.org/2000/svg" version="1.1" width="100%" height="100%">
<style type="text/css"><![CDATA[
  .stroke { fill:none; stroke:black; stroke-width:2 }
]]></style>
<path class="stroke" d="M 20.29703 7.07029744 C 27.128712 8.38910879 32.17822 10.587128569999999 35.742573 13.22475201" />
<path class="stroke" d="M 78.81188 6.63069304 C 75.84158 9.48811942 72.27723 11.79603919 64.85149 13.334653479999998" />
<path class="stroke" d="M 15.247524 16.74158388 L 85.04951 16.74158388" />
<path class="stroke" d="M 50.0 3.5534652 L 50.0 31.358413900000002" />
<path class="stroke" d="M 44.598537 16.93357614 C 37.82178 23.22574286 26.237625 29.05049598 11.386139 33.2267326" />
<path class="stroke" d="M 55.985397 17.0416043 C 62.772278 23.22574286 74.95049 29.1603956 88.31683 33.2267326" />
<path class="stroke" d="M 15.1824812 37.004086964 L 15.1824812 59.665691159999994" />
<path class="stroke" d="M 15.1824812 36.914159896 L 85.08028639999999 36.914159896 L 85.08028639999999 59.665691159999994" />
<path class="stroke" d="M 50.131382 37.004086964 L 50.131382 58.0470064" />
<path class="stroke" d="M 15.1824812 47.474523864 L 84.554744 47.474523864" />
<path class="stroke" d="M 15.1824812 58.0470064 L 85.08028639999999 58.0470064" />
<path class="stroke" d="M 14.984257 71.7273073 L 85.33126 71.7273073" />
<path class="stroke" d="M 34.22713 63.73579685 L 34.22713 82.60930766" />
<path class="stroke" d="M 65.77287 63.5657693 L 65.77287 82.6092861" />
<path class="stroke" d="M 6.466877 82.7793406 L 94.164055 82.7793406" />
<path class="stroke" d="M 31.7035 86.896546 C 28.7592 91.02590199999999 22.0295 93.26059599999999 14.3533 94.47510159999999" />
<path class="stroke" d="M 65.7729 86.89649980000002 C 69.7686 90.9772534 75.3417 93.0176302 83.123 94.47505539999999" />
</svg>
