<?xml version="1.0" standalone="no"?>
<!DOCTYPE svg PUBLIC "-//W3C//DTD SVG 1.1//EN" "http://www.w3.org/Graphics/SVG/1.1/DTD/svg11.dtd">
<svg xmlns="http://www.w3.org/2000/svg" version="1.1" width="100%" height="100%">
<style type="text/css"><![CDATA[
  .stroke { fill:none; stroke:black; stroke-width:2 }
]]></style>
<path class="stroke" d="M 26.005770232558138 16.3029195 C 25.19096930232558 34.3321164 20.030553488372092 48.20072749999999 15.141739534883722 57.9087566 C 24.647767441860463 62.901455 32.79578976744186 71.5 39.04260651162791 82.3175132" />
<path class="stroke" d="M 37.94612093023255 30.4900998 C 36.01197209302326 55.8861401 28.178576744186046 71.222619 14.870140465116279 80.375907" />
<path class="stroke" d="M 9.438125581395349 37.105838999999996 L 39.60396 33.311881" />
<path class="stroke" d="M 50.543647464 6.27372225 L 50.543647464 39.383208" />
<path class="stroke" d="M 50.543647464 6.27372225 L 81.277662 6.27372225 L 81.277662 39.383208" />
<path class="stroke" d="M 50.72233494 21.92653935 L 81.09897636000001 21.92653935" />
<path class="stroke" d="M 50.543647464 37.937953799999995 L 81.277662 37.937953799999995" />
<path class="stroke" d="M 45.391529952 56.9708025 L 45.391529952 93.75912" />
<path class="stroke" d="M 45.391529952 56.9708025 L 86.370216 56.9708025 L 86.370216 93.75912" />
<path class="stroke" d="M 45.629779920000004 74.3628215 L 86.13196848000001 74.3628215" />
<path class="stroke" d="M 45.391529952 92.15328199999999 L 86.370216 92.15328199999999" />
</svg>
