<?xml version="1.0" standalone="no"?>
<!DOCTYPE svg PUBLIC "-//W3C//DTD SVG 1.1//EN" "http://www.w3.org/Graphics/SVG/1.1/DTD/svg11.dtd">
<svg xmlns="http://www.w3.org/2000/svg" version="1.1" width="100%" height="100%">
<style type="text/css"><![CDATA[
  .stroke { fill:none; stroke:black; stroke-width:2 }
]]></style>
<path class="stroke" d="M 33.20692427906977 7.8525546 C 32.2291631627907 20.378101920000002 26.036664186046508 30.013137 20.170087441860467 36.75766248 C 31.577320930232556 40.226274000000004 41.354947720930234 46.2 48.85112781395349 53.71532496" />
<path class="stroke" d="M 47.53534511627907 17.70891144 C 45.21436651162791 35.35247628 35.814292093023255 46.00729320000001 19.844168558139533 52.3664196" />
<path class="stroke" d="M 13.325750697674417 22.3051092 L 49.524752 19.6693068" />
<path class="stroke" d="M 58.79416016 17.13591165 L 58.79416016 53.209487100000004" />
<path class="stroke" d="M 58.79416016 17.13591165 L 89.34598399999999 17.13591165 L 89.34598399999999 52.86262674000001" />
<path class="stroke" d="M 58.79416016 50.434595904 L 89.34598399999999 50.434595904" />
<path class="stroke" d="M 17.4453 67.6656 C 16.6042 75.9726 14.5012 81.4406 10.8207 87.5394" />
<path class="stroke" d="M 33.21814 62.6183 L 33.21814 89.4322 C 33.21814 92.2713 35.11094 94.164 37.95004 94.164 L 72.01944 94.164 C 74.64824 94.164 76.96164 91.9558 77.06674 88.4858 L 77.06674 83.123" />
<path class="stroke" d="M 45.2056 62.61832 C 50.6735 67.45532 54.2487 72.60782 57.5084 79.33752" />
<path class="stroke" d="M 77.0667 62.9338 C 83.6913 68.8222 87.7923 74.711 91.8932 82.8076" />
</svg>
