<?xml version="1.0" standalone="no"?>
<!DOCTYPE svg PUBLIC "-//W3C//DTD SVG 1.1//EN" "http://www.w3.org/Graphics/SVG/1.1/DTD/svg11.dtd">
<svg xmlns="http://www.w3.org/2000/svg" version="1.1" width="100%" height="100%">
<style type="text/css"><![CDATA[
  .stroke { fill:none; stroke:black; stroke-width:2 }
]]></style>
<path class="stroke" d="M 15.785006142857144 14.059406 C 19.985855142857144 16.138615 24.186705428571432 19.108912 27.623764285714287 22.673267" />
<path class="stroke" d="M 13.111738714285716 38.118813 C 16.93069457142857 39.90099 21.513438 42.574257 24.568601142857144 46.138615" />
<path class="stroke" d="M 12.729844285714288 85.64356 C 13.58615442857143 87.422676 15.972017142857144 89.896904 18.75552042857143 89.896904 C 21.539027571428573 89.896904 25.332390000000004 76.73267 28.005658714285715 69.60396" />
<path class="stroke" d="M 41.80350268 17.8 L 85.476493 17.8" />
<path class="stroke" d="M 44.715035656 30.6 L 82.5649606 30.6" />
<path class="stroke" d="M 35.4669768352 43.800000000000004 L 92.53301752 43.800000000000004" />
<path class="stroke" d="M 56.5615 4.4007400000000025 C 52.548868 40.21561 43.766524000000004 74.39014 34.302808 88.47005000000001" />
<path class="stroke" d="M 35.51532832 64.1240865 L 92.27444679999999 64.1240865" />
<path class="stroke" d="M 75.2467168 55.8029195 L 75.2467168 92.88320999999999 C 75.2467168 94.19708 74.405836 95.07299 72.51386608 95.07299 L 66.8379556 95.07299" />
<path class="stroke" d="M 47.077372 69.6715315 C 49.599999999999994 70.985401 51.91240816 72.883211 53.804377360000004 76.0948885" />
</svg>
