<?xml version="1.0" standalone="no"?>
<!DOCTYPE svg PUBLIC "-//W3C//DTD SVG 1.1//EN" "http://www.w3.org/Graphics/SVG/1.1/DTD/svg11.dtd">
<svg xmlns="http://www.w3.org/2000/svg" version="1.1" width="100%" height="100%">
<style type="text/css"><![CDATA[
  .stroke { fill:none; stroke:black; stroke-width:2 }
]]></style>
<path class="stroke" d="M 13.154171785714285 14.059406 C 16.654879285714284 16.138615 20.15558785714286 19.108912 23.01980357142857 22.673267" />
<path class="stroke" d="M 10.926448928571428 38.118813 C 14.108912142857141 39.90099 17.927864999999997 42.574257 20.473834285714286 46.138615" />
<path class="stroke" d="M 10.608203571428572 85.64356 C 11.321795357142857 87.422676 13.310014285714285 89.896904 15.629600357142856 89.896904 C 17.949189642857142 89.896904 21.110325 76.73267 23.33804892857143 69.60396" />
<path class="stroke" d="M 30.575181999999998 19.34598496 L 57.424817999999995 19.34598496" />
<path class="stroke" d="M 43.9357644 12.899270079999999 L 43.8696764 38.686130559999995" />
<path class="stroke" d="M 32.5021884 29.15620096 L 55.75474256 29.15620096" />
<path class="stroke" d="M 26.3662828 38.83218304 L 61.5662828 38.83218304" />
<path class="stroke" d="M 35.45693316 48.216054400000004 L 35.45693316 77.08613056 C 35.45693316 81.5708032 35.3284668 85.7751808 34.6861306 90.54014079999999" />
<path class="stroke" d="M 35.45693316 48.216054400000004 L 52.671528800000004 48.216054400000004 L 52.671528800000004 86.055472 C 52.671528800000004 89.6992624 51.515327600000006 91.381024 50.359122 91.381024" />
<path class="stroke" d="M 35.58540128 58.30657024 L 52.543062 58.30657024" />
<path class="stroke" d="M 35.45693316 69.23795199999999 L 52.41459696 69.23795199999999" />
<path class="stroke" d="M 74.526814 6.15142 C 72.329122 19.0852 69.532094 28.2334 65.7760258 34.2271" />
<path class="stroke" d="M 73.088324 14.353272 L 86.753922 14.353272 C 85.794916 22.450071 83.996832 29.284971 81.11989 33.911774" />
<path class="stroke" d="M 70.451086 33.91169 L 91.548914 33.91169 L 91.548914 66.71929" />
<path class="stroke" d="M 64.817035 50.31548 L 97.54257799999999 50.31548" />
<path class="stroke" d="M 68.41326 66.71929 L 91.548914 66.71929" />
<path class="stroke" d="M 81.11989 33.9117 L 81.11989 88.1703 C 81.079914 92.1661 80.08097000000001 94.5846 78.842284 94.4795 L 76.205046 94.4795" />
</svg>
