<?xml version="1.0" standalone="no"?>
<!DOCTYPE svg PUBLIC "-//W3C//DTD SVG 1.1//EN" "http://www.w3.org/Graphics/SVG/1.1/DTD/svg11.dtd">
<svg xmlns="http://www.w3.org/2000/svg" version="1.1" width="100%" height="100%">
<style type="text/css"><![CDATA[
  .stroke { fill:none; stroke:black; stroke-width:2 }
]]></style>
<path class="stroke" d="M 12.189779 15.69343 L 87.81021 15.69343" />
<path class="stroke" d="M 34.67153 8.394159 L 34.67153 23.576641" />
<path class="stroke" d="M 65.32846 8.394159 L 65.32846 23.576641" />
<path class="stroke" d="M 10.961809821428572 34.68514856 C 13.879066071428571 36.2653474 16.796323214285717 38.52277312 19.183169642857145 41.23168292" />
<path class="stroke" d="M 9.105374107142858 52.970297880000004 C 11.757426785714285 54.3247524 14.939887500000001 56.35643532 17.06152857142857 59.0653474" />
<path class="stroke" d="M 8.840169642857143 89.0891056 C 9.434829464285714 90.44123376 11.091678571428572 92.32164704 13.024666964285714 92.32164704 C 14.957658035714285 92.32164704 17.5919375 82.3168292 19.448374107142858 76.8990096" />
<path class="stroke" d="M 29.140375 40.9022024 L 95.859625 40.9022024" />
<path class="stroke" d="M 39.55051 52.410069199999995 L 39.55051 95.3249132" />
<path class="stroke" d="M 39.55051 52.410069199999995 L 85.212985 52.410069199999995 L 85.212985 91.00948120000001 C 85.449535 93.5668052 83.793385 95.165089 81.427435 95.0851332 L 79.29811000000001 95.0851332" />
<path class="stroke" d="M 39.7870375 63.678232 L 84.9763375 63.438452" />
<path class="stroke" d="M 39.5504875 75.425856 L 84.9764125 75.425856" />
<path class="stroke" d="M 62.5 29.154570800000002 L 62.5 95.32493600000001" />
<path class="stroke" d="M 77.40535 29.154570800000002 C 80.4811 30.752896399999997 82.373875 33.310228 83.79339999999999 36.107256" />
</svg>
