<?xml version="1.0" standalone="no"?>
<!DOCTYPE svg PUBLIC "-//W3C//DTD SVG 1.1//EN" "http://www.w3.org/Graphics/SVG/1.1/DTD/svg11.dtd">
<svg xmlns="http://www.w3.org/2000/svg" version="1.1" width="100%" height="100%">
<style type="text/css"><![CDATA[
  .stroke { fill:none; stroke:black; stroke-width:2 }
]]></style>
<path class="stroke" d="M 10.437956 27.956203 L 33.211678 27.956203" />
<path class="stroke" d="M 23.86861 9.270073 L 23.86861 90.14598" />
<path class="stroke" d="M 23.86861 36.131386 C 20.07299 44.598537 15.401459 52.48175 8.686131 56.861313" />
<path class="stroke" d="M 23.86861 36.131386 C 28.248173 37.299267 31.167881 42.26277 32.627735 46.934303" />
<path class="stroke" d="M 42.899046 12.998206465517242 L 65.0 12.998206465517242 C 59.719212 21.523724137931033 53.069402 25.888452586206895 38.4006298 30.497926724137933" />
<path class="stroke" d="M 43.87694596 18.74989698275862 C 45.89795996 19.810461637931034 47.33226796 20.993418534482757 48.76657658 22.298767672413792" />
<path class="stroke" d="M 82.2113736 13.487707543103447 L 74.19247960000001 18.260376508620688" />
<path class="stroke" d="M 65.195548 13.120579310344826 C 70.737108 21.931672413793102 79.016836 27.07140948275862 91.599364 30.74271120689655" />
<path class="stroke" d="M 89.2523602 18.994596120689657 L 81.6245622 23.522527155172412" />
<path class="stroke" d="M 44.28864766 41.293241875 L 84.50486520000001 41.293241875" />
<path class="stroke" d="M 49.34160364 53.538319675000004 L 49.34160364 67.333938625" />
<path class="stroke" d="M 49.34160364 53.73539875 L 80.47737000000001 53.73539875 L 80.47737000000001 67.333938625" />
<path class="stroke" d="M 49.34160364 67.333938625 L 80.47737000000001 67.333938625" />
<path class="stroke" d="M 53.68613026 72.8521885 C 56.22043606 77.582112625 57.849633 83.88868555 58.75474372 90.3923335" />
<path class="stroke" d="M 75.0467156 72.8521885 C 74.3226238 78.96167762500001 72.69342624000001 85.07116675 69.97810276 90.786493" />
<path class="stroke" d="M 40.2905107 91.1806525 L 89.7094862 91.1806525" />
</svg>
