<?xml version="1.0" standalone="no"?>
<!DOCTYPE svg PUBLIC "-//W3C//DTD SVG 1.1//EN" "http://www.w3.org/Graphics/SVG/1.1/DTD/svg11.dtd">
<svg xmlns="http://www.w3.org/2000/svg" version="1.1" width="100%" height="100%">
<style type="text/css"><![CDATA[
  .stroke { fill:none; stroke:black; stroke-width:2 }
]]></style>
<path class="stroke" d="M 30.446110625 8.3690832 C 25.661524874999998 20.3648436 15.632712375 32.9410596 5.327741125 38.5520476" />
<path class="stroke" d="M 7.811969375 10.4006364 C 17.932936875 19.300744 26.397686874999998 33.42486 26.305636875 59.738148 L 26.305636875 74.249216 C 26.673661 81.794964 24.557561 91.372348 17.1967985 91.082088 L 12.639624375 91.082088" />
<path class="stroke" d="M 23.269325625 34.4889872 C 23.361375625 48.516319200000005 14.068438125 60.802275200000004 5.327748124999999 64.67188720000001" />
<path class="stroke" d="M 51.52997 6.46687 C 49.46903 22.45 44.09569 38.1177 34.747631 48.1072" />
<path class="stroke" d="M 49.54253 22.5552 L 93.04417000000001 22.8706 L 92.82332 58.2019 C 92.38168999999999 74.1851 87.74454 92.6919 79.79499 92.9022 L 76.48266000000001 92.9022" />
<path class="stroke" d="M 53.91240845 42.09489 L 53.91240845 66.38686" />
<path class="stroke" d="M 53.91240845 42.09489 L 76.18978 42.09489 L 76.18978 66.153284" />
<path class="stroke" d="M 53.91240845 64.5182464 L 76.18978 64.5182464" />
</svg>
