<?xml version="1.0" standalone="no"?>
<!DOCTYPE svg PUBLIC "-//W3C//DTD SVG 1.1//EN" "http://www.w3.org/Graphics/SVG/1.1/DTD/svg11.dtd">
<svg xmlns="http://www.w3.org/2000/svg" version="1.1" width="100%" height="100%">
<style type="text/css"><![CDATA[
  .stroke { fill:none; stroke:black; stroke-width:2 }
]]></style>
<path class="stroke" d="M 50.14598 6.02554745 L 50.14598 14.37591155" />
<path class="stroke" d="M 12.4817505 14.5656914 L 12.4817505 23.675180750000003" />
<path class="stroke" d="M 12.4817505 14.5656914 L 87.81021 14.5656914 L 87.81021 23.675180750000003" />
<path class="stroke" d="M 50.94438 23.8833 C 55.26248 25.51215 57.99758 27.45895 60.41598 29.8809" />
<path class="stroke" d="M 79.3375 21.384900000000002 C 68.1913 35.15985 43.7959 48.3039 17.5078 53.71925" />
<path class="stroke" d="M 26.36648 32.0831 L 31.71248 40.9833 C 37.05728 48.3823 46.50528 51.68905 65.70158 51.84585 L 82.44858 51.6886 C 84.34928 51.6886 86.55658 50.89895 86.24108 49.63465 L 86.24108 48.8386" />
<path class="stroke" d="M 15.3175 36.67515 C 14.5795 41.2513 12.2622 44.09185 8.0462 46.93145" />
<path class="stroke" d="M 76.136986 31.8219185 C 84.68493 33.6301365 87.64384 35.4383565 90.9315 38.39726" />
<path class="stroke" d="M 19.48905 64.99854016 L 19.48905 80.55474112" />
<path class="stroke" d="M 19.48905 65.13868528 L 81.09489 65.13868528 L 81.09489 80.6948896" />
<path class="stroke" d="M 19.48905 78.77150464 L 81.09489 78.77150464" />
<path class="stroke" d="M 49.98999 56.02919632 L 49.98999 93.58832032000001" />
<path class="stroke" d="M 17.445253 95.690512 L 81.386856 91.6262752" />
<path class="stroke" d="M 75.54744 87.1416064 C 80.51095 89.664232 83.13868 92.46715072 84.8905 95.690512" />
</svg>
