<?xml version="1.0" standalone="no"?>
<!DOCTYPE svg PUBLIC "-//W3C//DTD SVG 1.1//EN" "http://www.w3.org/Graphics/SVG/1.1/DTD/svg11.dtd">
<svg xmlns="http://www.w3.org/2000/svg" version="1.1" width="100%" height="100%">
<style type="text/css"><![CDATA[
  .stroke { fill:none; stroke:black; stroke-width:2 }
]]></style>
<path class="stroke" d="M 15.346533749999999 16.950495099999998 C 19.4306925 18.717822750000003 23.5148525 21.2425752 26.856437500000002 24.27227695" />
<path class="stroke" d="M 12.747523750000001 37.40099105 C 16.4603975 38.9158415 20.9158425 41.188118450000005 23.88614 44.21782275" />
<path class="stroke" d="M 12.3762375 77.79702599999999 C 13.20876125 79.3092746 15.52835 81.4123684 18.23453375 81.4123684 C 20.94072125 81.4123684 24.6287125 70.2227695 27.22772375 64.163366" />
<path class="stroke" d="M 45.1948879 11.605839 C 43.91605711 22.116787 40.505838749999995 32.627735 36.24306507 39.927006" />
<path class="stroke" d="M 41.997810560000005 26.204376 L 84.838684 26.204376 C 84.41240488 34.37956 82.2810195 39.927006 78.231381 45.47445" />
<path class="stroke" d="M 61.819706419999996 30.875912 C 61.819706419999996 62.408752 48.604112 79.653 32.19342949 90.14598" />
<path class="stroke" d="M 61.6065654 48.394157 C 66.50875848999999 63.868607 73.75546994999999 80.21897 91.0197035 90.14598" />
</svg>
