<?xml version="1.0" standalone="no"?>
<!DOCTYPE svg PUBLIC "-//W3C//DTD SVG 1.1//EN" "http://www.w3.org/Graphics/SVG/1.1/DTD/svg11.dtd">
<svg xmlns="http://www.w3.org/2000/svg" version="1.1" width="100%" height="100%">
<style type="text/css"><![CDATA[
  .stroke { fill:none; stroke:black; stroke-width:2 }
]]></style>
<path class="stroke" d="M 26.831684 8.531353416666667 C 30.69307 10.709570666666666 32.475246 12.887788833333332 35.445545 16.971945833333333" />
<path class="stroke" d="M 69.90099 8.531353416666667 C 67.52475 12.343234749999999 65.44554 15.066006999999999 61.881187 16.69966925" />
<path class="stroke" d="M 17.920792 20.239274 L 82.376236 20.239274" />
<path class="stroke" d="M 49.369083 20.511549666666664 L 49.369083 43.655117" />
<path class="stroke" d="M 22.079208 32.219471166666665 L 77.32674 32.219471166666665" />
<path class="stroke" d="M 10.198019 43.655117 L 89.207924 43.655117" />
<path class="stroke" d="M 15.346533749999999 54.153267354 C 19.4306925 55.107624285 23.5148525 56.470990608 26.856437500000002 58.107029553000004" />
<path class="stroke" d="M 12.747523750000001 65.19653516700001 C 16.4603975 66.01455441 20.9158425 67.24158396300001 23.88614 68.877624285" />
<path class="stroke" d="M 12.3762375 87.01039404 C 13.20876125 87.827008284 15.52835 88.962678936 18.23453375 88.962678936 C 20.94072125 88.962678936 24.6287125 82.92029553 27.22772375 79.64821764" />
<path class="stroke" d="M 45.1948879 51.26715306 C 43.91605711 56.94306498 40.505838749999995 62.61897690000001 36.24306507 66.56058324" />
<path class="stroke" d="M 41.997810560000005 59.15036304 L 84.838684 59.15036304 C 84.41240488 63.5649624 82.2810195 66.56058324 78.231381 69.556203" />
<path class="stroke" d="M 61.819706419999996 61.672992480000005 C 61.819706419999996 78.70072608000001 48.604112 88.01262 32.19342949 93.6788292" />
<path class="stroke" d="M 61.6065654 71.13284478 C 66.50875848999999 79.48904777999999 73.75546994999999 88.3182438 91.0197035 93.6788292" />
</svg>
