<?xml version="1.0" standalone="no"?>
<!DOCTYPE svg PUBLIC "-//W3C//DTD SVG 1.1//EN" "http://www.w3.org/Graphics/SVG/1.1/DTD/svg11.dtd">
<svg xmlns="http://www.w3.org/2000/svg" version="1.1" width="100%" height="100%">
<style type="text/css"><![CDATA[
  .stroke { fill:none; stroke:black; stroke-width:2 }
]]></style>
<path class="stroke" d="M 50.31546 6.78234 L 50.31546 22.55525" />
<path class="stroke" d="M 50.63092 12.14515 L 72.520546 12.027397" />
<path class="stroke" d="M 17.1924 23.18615 L 17.1924 56.94005 C 16.877 71.97685 13.7224 82.59725 6.78233 91.95585" />
<path class="stroke" d="M 17.1924 23.18615 L 92.2713 23.18615 L 92.2713 27.60255 C 92.1662 30.86225 91.1146 32.54475 88.8013 33.59625" />
<path class="stroke" d="M 26.493149 41.945206 L 69.89041 35.36986" />
<path class="stroke" d="M 43.059944 27.9181 L 42.931507 46.219177 C 42.602737 51.47945 41.61644 51.47945 45.56164 52.136986 L 76.46575 52.136986 C 78.438354 51.150684 78.76712 48.520546 78.76712 45.56164 L 78.76712 41.61644" />
<path class="stroke" d="M 34.573722304 59.54642293 L 34.573722304 74.9975167" />
<path class="stroke" d="M 34.573722304 59.485109019999996 L 75.580434688 59.485109019999996 L 75.580434688 74.9975167" />
<path class="stroke" d="M 55.077077440000004 59.54642293 L 55.077077440000004 73.893868" />
<path class="stroke" d="M 34.573722304 66.68535718 L 75.27211648 66.68535718" />
<path class="stroke" d="M 34.573722304 73.893868 L 75.580434688 73.893868" />
<path class="stroke" d="M 30.92992624 84.365663152 C 30.50948872 86.3571384784 28.827735760000003 87.867911104 26.3051092 88.8979845568" />
<path class="stroke" d="M 37.9838656 82.08709024000001 L 41.8329856 86.27374432 C 45.6812416 89.75423391999999 52.4838016 91.30972912 66.30513760000002 91.38348784 L 76.54744000000001 91.38348784 C 78.6496312 91.370159056 79.77241360000001 90.9062985568 79.9109416 90.408757888 L 79.9109416 89.85938713600001" />
<path class="stroke" d="M 54.264232 78.253897072 C 57.41751664 78.87194152000001 59.72992768 79.9020145024 61.621894 81.0694299376" />
<path class="stroke" d="M 76.967884 79.696 C 80.12116000000002 80.588729824 82.01313280000001 81.68747368 83.69488720000001 82.9235616352" />
</svg>
