<?xml version="1.0" standalone="no"?>
<!DOCTYPE svg PUBLIC "-//W3C//DTD SVG 1.1//EN" "http://www.w3.org/Graphics/SVG/1.1/DTD/svg11.dtd">
<svg xmlns="http://www.w3.org/2000/svg" version="1.1" width="100%" height="100%">
<style type="text/css"><![CDATA[
  .stroke { fill:none; stroke:black; stroke-width:2 }
]]></style>
<path class="stroke" d="M 15.346533749999999 12.678811912999999 C 19.4306925 13.792228332500002 23.5148525 15.382822376 26.856437500000002 17.291534478499997" />
<path class="stroke" d="M 12.747523750000001 25.562624361500003 C 16.4603975 26.516980144999998 20.9158425 27.948514623500003 23.88614 29.857228332500004" />
<path class="stroke" d="M 12.3762375 51.01212637999999 C 13.20876125 51.964842997999995 15.52835 53.289792092000006 18.23453375 53.289792092000006 C 20.94072125 53.289792092000006 24.6287125 46.240344785 27.22772375 42.422920579999996" />
<path class="stroke" d="M 45.1948879 9.31167857 C 43.91605711 15.933575809999999 40.505838749999995 22.55547305 36.24306507 27.15401378" />
<path class="stroke" d="M 41.997810560000005 18.50875688 L 84.838684 18.50875688 C 84.41240488 23.6591228 82.2810195 27.15401378 78.231381 30.6489035" />
<path class="stroke" d="M 61.819706419999996 21.45182456 C 61.819706419999996 41.31751376 48.604112 52.18139000000001 32.19342949 58.7919674" />
<path class="stroke" d="M 61.6065654 32.488318910000004 C 66.50875848999999 42.23722241 73.75546994999999 52.5379511 91.0197035 58.7919674" />
<path class="stroke" d="M 18.4542 69.253944 L 18.4542 93.701908" />
<path class="stroke" d="M 18.4542 69.253944 L 80.5994 69.253944 L 80.5994 93.604103" />
<path class="stroke" d="M 39.27444 69.351749 L 39.27444 93.701908" />
<path class="stroke" d="M 60.41014 69.35173567 L 60.41014 93.7997006" />
<path class="stroke" d="M 7.09779 93.79968199999999 L 92.9022 93.79968199999999" />
</svg>
