<?xml version="1.0" standalone="no"?>
<!DOCTYPE svg PUBLIC "-//W3C//DTD SVG 1.1//EN" "http://www.w3.org/Graphics/SVG/1.1/DTD/svg11.dtd">
<svg xmlns="http://www.w3.org/2000/svg" version="1.1" width="100%" height="100%">
<style type="text/css"><![CDATA[
  .stroke { fill:none; stroke:black; stroke-width:2 }
]]></style>
<path class="stroke" d="M 23.45112 5.5205 C 18.328128 17.8233 12.14514 30.7571 4.1072556 40.5363" />
<path class="stroke" d="M 23.45112 5.83596 C 28.574112000000003 11.8296 32.107236 18.4543 35.90538 25.0789" />
<path class="stroke" d="M 10.201884 33.59624 L 33.785472 33.59624" />
<path class="stroke" d="M 5.6971614 51.57724 L 36.96528108 51.57724" />
<path class="stroke" d="M 22.92111612 33.9117 L 22.92111612 88.1703" />
<path class="stroke" d="M 5.432179199999999 61.672 C 9.053604 65.878 11.88012 70.3996 14.706636 75.2366" />
<path class="stroke" d="M 36.1704 61.6719 C 34.227144 67.4553 31.488912 72.2923 27.955788000000002 77.1294" />
<path class="stroke" d="M 6.7570944 94.4795 L 35.90538 83.7539" />
<path class="stroke" d="M 54.376955 8.04416 L 54.376955 44.6373" />
<path class="stroke" d="M 54.376955 8.04416 L 81.238205 8.04416 L 81.238205 44.6373" />
<path class="stroke" d="M 67.49997400000001 25.3943 L 67.49997400000001 44.6373" />
<path class="stroke" d="M 67.49997400000001 25.3943 L 81.03316900000002 25.3943" />
<path class="stroke" d="M 43.919560000000004 45.2681 L 43.919560000000004 92.9022" />
<path class="stroke" d="M 43.919560000000004 45.2681 L 91.08044000000001 45.2681 L 91.08044000000001 86.9085 C 91.01205999999999 90.2734 89.30333999999999 92.3764 87.79963000000001 92.2713 L 84.92896999999999 92.2713" />
<path class="stroke" d="M 57.247634500000004 58.51736 L 57.247634500000004 81.86116" />
<path class="stroke" d="M 57.247634500000004 58.51736 L 77.7523395 58.51736 L 77.7523395 81.86116" />
<path class="stroke" d="M 57.247634500000004 81.86116 L 77.7523395 81.86116" />
</svg>
