<?xml version="1.0" standalone="no"?>
<!DOCTYPE svg PUBLIC "-//W3C//DTD SVG 1.1//EN" "http://www.w3.org/Graphics/SVG/1.1/DTD/svg11.dtd">
<svg xmlns="http://www.w3.org/2000/svg" version="1.1" width="100%" height="100%">
<style type="text/css"><![CDATA[
  .stroke { fill:none; stroke:black; stroke-width:2 }
]]></style>
<path class="stroke" d="M 35.433241699999996 7.4757491 C 31.019072 13.3743858 23.956403 18.913351759999998 13.6566752 24.38037992" />
<path class="stroke" d="M 64.56675200000001 7.4757491 C 68.980919 13.3743858 75.45504199999999 18.913351759999998 86.343323 24.38037992" />
<path class="stroke" d="M 49.85401 14.439415879999999 C 38.39237 26.720978359999997 25.9673 36.24904584 8.637602 41.7814666" />
<path class="stroke" d="M 49.85401 14.439415879999999 C 61.607628 26.720978359999997 74.03269 36.24904584 91.3624 41.7814666" />
<path class="stroke" d="M 34.14169 41.7814666 L 65.85831 41.7814666" />
<path class="stroke" d="M 21.389645 61.06802 L 78.61035 61.06802" />
<path class="stroke" d="M 50.02838 41.7814666 L 50.02838 91.560586" />
<path class="stroke" d="M 28.832115 71.251087 C 32.919704 74.544518 34.9635 78.3868526 37.469612 83.7791814" />
<path class="stroke" d="M 70.87591 71.5255388 C 67.66423 73.7211626 63.576637 77.56350284 61.918335 83.77178359999999" />
<path class="stroke" d="M 14.850136 91.560586 L 85.14986 91.560586" />
</svg>
