<?xml version="1.0" standalone="no"?>
<!DOCTYPE svg PUBLIC "-//W3C//DTD SVG 1.1//EN" "http://www.w3.org/Graphics/SVG/1.1/DTD/svg11.dtd">
<svg xmlns="http://www.w3.org/2000/svg" version="1.1" width="100%" height="100%">
<style type="text/css"><![CDATA[
  .stroke { fill:none; stroke:black; stroke-width:2 }
]]></style>
<path class="stroke" d="M 26.45112 5.5205 C 21.328128 17.8233 15.14514 30.7571 7.1072556 40.5363" />
<path class="stroke" d="M 26.45112 5.83596 C 31.574112000000003 11.8296 35.107236 18.4543 38.90538 25.0789" />
<path class="stroke" d="M 13.201884 33.59624 L 36.785472 33.59624" />
<path class="stroke" d="M 8.697161399999999 51.57724 L 39.96528108 51.57724" />
<path class="stroke" d="M 25.92111612 33.9117 L 25.92111612 88.1703" />
<path class="stroke" d="M 8.4321792 61.672 C 12.053604 65.878 14.88012 70.3996 17.706636 75.2366" />
<path class="stroke" d="M 39.1704 61.6719 C 37.227144 67.4553 34.488912 72.2923 30.955788000000002 77.1294" />
<path class="stroke" d="M 9.7570944 94.4795 L 38.90538 83.7539" />
<path class="stroke" d="M 54.030072399999995 5.796478235294118 C 56.739561424 8.544439411764706 58.907152272000005 12.322884705882352 60.532845871999996 15.929583529411765" />
<path class="stroke" d="M 82.75065391999999 5.796478235294118 C 81.645185984 9.197079411764706 79.36379263999999 13.181621176470589 77.06072864 16.10133" />
<path class="stroke" d="M 45.1069174 16.2264115 L 92.89307679999999 16.2264115" />
<path class="stroke" d="M 48.02517 29.528272 L 88.515724 29.528272 L 88.515724 59.245282" />
<path class="stroke" d="M 43.4654101 44.528266 L 94.5345928 44.528266" />
<path class="stroke" d="M 48.2075423 59.528323 L 88.5157443 59.528323" />
<path class="stroke" d="M 63.7106842 16.7924485 L 63.7106842 94.33968399999999" />
<path class="stroke" d="M 74.1068942 16.7924485 L 74.1068942 94.33968399999999" />
<path class="stroke" d="M 62.798756 59.52835 C 60.366873999999996 77.54716 52.09851 89.62264 43.4654072 94.05658" />
<path class="stroke" d="M 75.018892 59.528259999999996 C 77.08589599999999 76.98115 84.989498 89.05663 93.622624 94.05658" />
</svg>
