<?xml version="1.0" standalone="no"?>
<!DOCTYPE svg PUBLIC "-//W3C//DTD SVG 1.1//EN" "http://www.w3.org/Graphics/SVG/1.1/DTD/svg11.dtd">
<svg xmlns="http://www.w3.org/2000/svg" version="1.1" width="100%" height="100%">
<style type="text/css"><![CDATA[
  .stroke { fill:none; stroke:black; stroke-width:2 }
]]></style>
<path class="stroke" d="M 14.031116571428571 14.059406 C 17.76520457142857 16.138615 21.499293714285713 19.108912 24.554457142857142 22.673267" />
<path class="stroke" d="M 11.654878857142856 38.118813 C 15.049506285714283 39.90099 19.123056 42.574257 21.838756571428572 46.138615" />
<path class="stroke" d="M 11.315417142857143 85.64356 C 12.076581714285714 87.422676 14.19734857142857 89.896904 16.671573714285714 89.896904 C 19.145802285714282 89.896904 22.51768 76.73267 24.893918857142854 69.60396" />
<path class="stroke" d="M 59.889047600000005 8.978102 C 51.178201200000004 22.043594 41.735148 32.179836 28.56457752 38.06539" />
<path class="stroke" d="M 59.889047600000005 8.978102 C 68.82179728 22.043594 78.2648444 32.179836 91.435424 38.06539" />
<path class="stroke" d="M 47.9476844 38.06539 L 72.0523156 38.06539" />
<path class="stroke" d="M 38.2561302 58.583 L 81.743866 58.583" />
<path class="stroke" d="M 60.0215688 38.06539 L 60.0215688 91.0219" />
<path class="stroke" d="M 43.912407400000006 69.41605 C 47.01897504 72.9197 48.57226 77.00729 50.47690512 82.74381" />
<path class="stroke" d="M 75.8656916 69.70802 C 73.42481480000001 72.04379 70.31824412 76.131386 69.05793460000001 82.73594" />
<path class="stroke" d="M 33.28610336 91.0219 L 86.7138936 91.0219" />
</svg>
