<?xml version="1.0" standalone="no"?>
<!DOCTYPE svg PUBLIC "-//W3C//DTD SVG 1.1//EN" "http://www.w3.org/Graphics/SVG/1.1/DTD/svg11.dtd">
<svg xmlns="http://www.w3.org/2000/svg" version="1.1" width="100%" height="100%">
<style type="text/css"><![CDATA[
  .stroke { fill:none; stroke:black; stroke-width:2 }
]]></style>
<path class="stroke" d="M 49.05361 3.7539468 L 49.05361 8.9022404" />
<path class="stroke" d="M 12.1451 9.3312456 L 92.9022 9.3312456" />
<path class="stroke" d="M 12.145143 9.545742760000001 L 12.145143 41.5078528 C 12.145143 51.94345648 10.778143 57.73918080000001 5.835963 64.24602872000001" />
<path class="stroke" d="M 12.443892 16.39800688 L 81.700386 16.444603200000003 L 81.700386 22.892145600000003" />
<path class="stroke" d="M 38.488987 9.54577608 L 38.488987 22.67853312" />
<path class="stroke" d="M 61.04105 9.54577608 L 61.04105 22.892145600000003" />
<path class="stroke" d="M 12.743143 22.90972836 L 81.727745 22.90972836" />
<path class="stroke" d="M 31.780822 35.82548448 L 50.433745 35.82548448" />
<path class="stroke" d="M 31.5252589 28.103091 L 31.5252589 48.104094336 M 18.2381728 49.41690288000001 L 48.645103000000006 46.63683168" />
<path class="stroke" d="M 87.228724 33.663215040000004 C 78.540988 35.774003040000004 70.61983599999999 36.649212 58.610371 36.75217488" />
<path class="stroke" d="M 58.35481600000001 28.103089776 L 58.35481600000001 47.7952008 C 58.269685 48.567446880000006 59.97311500000001 49.41690288000001 62.69868400000001 49.41690288000001 L 83.65144000000001 49.33969296 C 87.05830000000002 49.2367056 88.67668 48.593199840000004 88.76181100000001 47.71799088000001 L 88.76181100000001 45.478487040000005" />
<path class="stroke" d="M 49.85401 55.39926998 C 38.39237 61.80136106 25.9673 66.76811964 8.637602 69.6520411" />
<path class="stroke" d="M 49.85401 55.39926998 C 61.607628 61.80136106 74.03269 66.76811964 91.3624 69.6520411" />
<path class="stroke" d="M 34.14169 69.6520411 L 65.85831 69.6520411" />
<path class="stroke" d="M 21.389645 79.70567 L 78.61035 79.70567" />
<path class="stroke" d="M 50.02838 69.6520411 L 50.02838 95.600731" />
<path class="stroke" d="M 28.832115 85.0138645 C 32.919704 86.730653 34.9635 88.7335721 37.469612 91.5444669" />
<path class="stroke" d="M 70.87591 85.1569298 C 67.66423 86.3014571 63.576637 88.30437914000001 61.918335 91.54061060000001" />
<path class="stroke" d="M 14.850136 95.600731 L 85.14986 95.600731" />
</svg>
