<?xml version="1.0" standalone="no"?>
<!DOCTYPE svg PUBLIC "-//W3C//DTD SVG 1.1//EN" "http://www.w3.org/Graphics/SVG/1.1/DTD/svg11.dtd">
<svg xmlns="http://www.w3.org/2000/svg" version="1.1" width="100%" height="100%">
<style type="text/css"><![CDATA[
  .stroke { fill:none; stroke:black; stroke-width:2 }
]]></style>
<path class="stroke" d="M 8.350785 10.884815640000001 L 41.96335 10.884815640000001" />
<path class="stroke" d="M 11.4963495 18.7226262 L 11.350365 33.8583942" />
<path class="stroke" d="M 11.350365 18.7226262 L 38.64963 18.7226262 L 38.64963 33.8583942" />
<path class="stroke" d="M 11.350365 26.263569600000004 L 38.503645 26.263569600000004" />
<path class="stroke" d="M 11.350365 34.016058 L 38.64963 34.016058" />
<path class="stroke" d="M 7.554744 41.899269600000004 L 42.44525 41.899269600000004" />
<path class="stroke" d="M 25.092815 4.84817508 L 25.092815 48.994156800000006" />
<path class="stroke" d="M 77.84671399999999 5.4788319 C 72.00729749999999 8.159123520000001 66.459852 9.26277336 60.474452 9.420436620000002" />
<path class="stroke" d="M 60.474452 9.420436620000002 L 60.474452 26.763502680000002 C 60.474452 31.65109344 59.4525535 39.691971 56.386860999999996 45.6832062" />
<path class="stroke" d="M 60.474452 18.5649624 L 91.423355 18.5649624" />
<path class="stroke" d="M 75.948904 18.5649624 L 75.948904 48.6788292" />
<path class="stroke" d="M 49.85401 49.9379561 C 38.39237 57.1239767 25.9673 62.6989098 8.637602 65.9359645" />
<path class="stroke" d="M 49.85401 49.9379561 C 61.607628 57.1239767 74.03269 62.6989098 91.3624 65.9359645" />
<path class="stroke" d="M 34.14169 65.9359645 L 65.85831 65.9359645" />
<path class="stroke" d="M 21.389645 77.22065 L 78.61035 77.22065" />
<path class="stroke" d="M 50.02838 65.9359645 L 50.02838 95.06204500000001" />
<path class="stroke" d="M 28.832115 83.17882750000001 C 32.919704 85.10583500000001 34.9635 87.3540095 37.469612 90.5090955" />
<path class="stroke" d="M 70.87591 83.33941100000001 C 67.66423 84.62408450000001 63.576637 86.87226230000002 61.918335 90.504767" />
<path class="stroke" d="M 14.850136 95.06204500000001 L 85.14986 95.06204500000001" />
</svg>
