<?xml version="1.0" standalone="no"?>
<!DOCTYPE svg PUBLIC "-//W3C//DTD SVG 1.1//EN" "http://www.w3.org/Graphics/SVG/1.1/DTD/svg11.dtd">
<svg xmlns="http://www.w3.org/2000/svg" version="1.1" width="100%" height="100%">
<style type="text/css"><![CDATA[
  .stroke { fill:none; stroke:black; stroke-width:2 }
]]></style>
<path class="stroke" d="M 40.272989259999996 6.97445125 C 33.1197076 9.821167200000001 24.5357651 11.7189774 16.81021832 12.85766365" />
<path class="stroke" d="M 10.80145808 26.71167655 L 44.2788304 24.24452355" />
<path class="stroke" d="M 29.4 10.770072299999999 L 29.4 56.3175171" />
<path class="stroke" d="M 29.4 29.17882955 C 22.81897856 37.1496333 17.3824805 42.2737185 9.943065299999999 44.551094899999995" />
<path class="stroke" d="M 29.4 29.17882955 C 35.40875828 31.45620205 38.84233234 33.3540129 41.703645200000004 36.58028855" />
<path class="stroke" d="M 58.1774868 21.560260825999997 C 57.511517420000004 24.721097817000004 55.51361299 27.355130413 53.0162302 30.164762796999998" />
<path class="stroke" d="M 85.5625497 21.767652062 C 83.89707982 25.234231867 81.8853991 27.519196353999998 79.56423230000001 29.477735026999998" />
<path class="stroke" d="M 67.831246 10.708393267000002 C 67.942705 16.186717924 67.886949 20.614277424 67.831246 27.457017107 C 67.995281 42.53010944 54.966874000000004 55.2861764 47.06788226 55.75481405" />
<path class="stroke" d="M 67.87029746 29.331088643999998 C 69.61406 40.51089523 81.348472 52.80187419 86.52773535 55.10196633500001 C 87.7656908 55.75481405 88.6941607 55.91802528 90.0868576 56.081242100000004" />
<path class="stroke" d="M 17.4453 72.51576 C 16.6042 79.57670999999999 14.5012 84.22451 10.8207 89.40849" />
<path class="stroke" d="M 33.21814 68.225555 L 33.21814 91.01737 C 33.21814 93.430605 35.11094 95.0394 37.95004 95.0394 L 72.01944 95.0394 C 74.64824 95.0394 76.96164 93.16243 77.06674 90.21293 L 77.06674 85.65455" />
<path class="stroke" d="M 45.2056 68.225572 C 50.6735 72.33702199999999 54.2487 76.716647 57.5084 82.436892" />
<path class="stroke" d="M 77.0667 68.49373 C 83.6913 73.49887 87.7923 78.50434999999999 91.8932 85.38646" />
</svg>
