<?xml version="1.0" standalone="no"?>
<!DOCTYPE svg PUBLIC "-//W3C//DTD SVG 1.1//EN" "http://www.w3.org/Graphics/SVG/1.1/DTD/svg11.dtd">
<svg xmlns="http://www.w3.org/2000/svg" version="1.1" width="100%" height="100%">
<style type="text/css"><![CDATA[
  .stroke { fill:none; stroke:black; stroke-width:2 }
]]></style>
<path class="stroke" d="M 50.14598 5.9503221360000005 C 38.75912 15.216474409714285 25.912407 22.484045345142857 9.854013 26.844586164000003" />
<path class="stroke" d="M 50.14598 5.9503221360000005 C 61.824814 14.853095022857143 73.795616 22.484045345142857 90.43795 26.662898026285713" />
<path class="stroke" d="M 33.8248168 23.57142857142857 L 66.17518000000001 23.57142857142857" />
<path class="stroke" d="M 13.0181676413 33.14379525 L 13.0181676413 50.7554735" />
<path class="stroke" d="M 13.0181676413 33.14379525 L 30.45180212 33.14379525 L 30.45180212 50.5861309" />
<path class="stroke" d="M 13.0181676413 49.40072864 L 30.45180212 49.40072864" />
<path class="stroke" d="M 40.408167641300004 33.14379525 L 40.408167641300004 50.7554735" />
<path class="stroke" d="M 40.408167641300004 33.14379525 L 57.84180212 33.14379525 L 57.84180212 50.5861309" />
<path class="stroke" d="M 40.408167641300004 49.40072864 L 57.84180212 49.40072864" />
<path class="stroke" d="M 67.95023332739999 33.14379525 L 67.95023332739999 50.7554735" />
<path class="stroke" d="M 67.95023332739999 33.14379525 L 85.91215976 33.14379525 L 85.91215976 50.5861309" />
<path class="stroke" d="M 67.95023332739999 49.40072864 L 85.91215976 49.40072864" />
<path class="stroke" d="M 15.6152 60.8659322 L 15.6152 97.219276" />
<path class="stroke" d="M 15.6152 60.8659322 L 84.0694 60.8659322 L 84.0694 94.235033 C 84.1745 95.817605 81.4406 96.993182 78.7066 96.947989 L 74.6057 96.947989" />
<path class="stroke" d="M 16.87697 78.4999957 L 83.12308 78.6356607" />
<path class="stroke" d="M 38.64348 61.00157785 L 38.64348 96.2697113" />
<path class="stroke" d="M 62.302814 61.00157871 L 62.302814 96.4053548" />
</svg>
