<?xml version="1.0" standalone="no"?>
<!DOCTYPE svg PUBLIC "-//W3C//DTD SVG 1.1//EN" "http://www.w3.org/Graphics/SVG/1.1/DTD/svg11.dtd">
<svg xmlns="http://www.w3.org/2000/svg" version="1.1" width="100%" height="100%">
<style type="text/css"><![CDATA[
  .stroke { fill:none; stroke:black; stroke-width:2 }
]]></style>
<path class="stroke" d="M 26.788319 7.725060833333334 C 24.452553 14.294403333333333 21.824816 18.430655833333333 16.861313 21.593672500000004" />
<path class="stroke" d="M 24.452553 15.024329999999999 L 47.226276 15.024329999999999" />
<path class="stroke" d="M 30.0 15.510948333333333 C 34.08759 19.403893333333336 35.547443 22.56691 36.423355 28.406325" />
<path class="stroke" d="M 65.32846 7.725060833333334 C 63.284668 15.754255833333335 60.07299 19.160582500000004 57.44525 21.593672500000004" />
<path class="stroke" d="M 62.9927 15.267639166666667 L 86.35036 15.267639166666667" />
<path class="stroke" d="M 72.62773 15.754255833333335 C 72.9197 21.107054166666668 71.16788 24.756689166666668 67.9562 28.406325" />
<path class="stroke" d="M 50.14598 29.462741602 C 38.75912 36.412355807285714 25.912407 41.86303400885714 9.854013 45.133439623" />
<path class="stroke" d="M 50.14598 29.462741602 C 61.824814 36.13982126714286 73.795616 41.86303400885714 90.43795 44.99717351971428" />
<path class="stroke" d="M 33.8248168 42.67857142857143 L 66.17518000000001 42.67857142857143" />
<path class="stroke" d="M 13.0181676413 49.8578464375 L 13.0181676413 63.066605125" />
<path class="stroke" d="M 13.0181676413 49.8578464375 L 30.45180212 49.8578464375 L 30.45180212 62.939598175" />
<path class="stroke" d="M 13.0181676413 62.050546479999994 L 30.45180212 62.050546479999994" />
<path class="stroke" d="M 40.408167641300004 49.8578464375 L 40.408167641300004 63.066605125" />
<path class="stroke" d="M 40.408167641300004 49.8578464375 L 57.84180212 49.8578464375 L 57.84180212 62.939598175" />
<path class="stroke" d="M 40.408167641300004 62.050546479999994 L 57.84180212 62.050546479999994" />
<path class="stroke" d="M 67.95023332739999 49.8578464375 L 67.95023332739999 63.066605125" />
<path class="stroke" d="M 67.95023332739999 49.8578464375 L 85.91215976 49.8578464375 L 85.91215976 62.939598175" />
<path class="stroke" d="M 67.95023332739999 62.050546479999994 L 85.91215976 62.050546479999994" />
<path class="stroke" d="M 15.6152 70.64944915000001 L 15.6152 97.914457" />
<path class="stroke" d="M 15.6152 70.64944915000001 L 84.0694 70.64944915000001 L 84.0694 95.67627475 C 84.1745 96.86320375 81.4406 97.7448865 78.7066 97.71099175 L 74.6057 97.71099175" />
<path class="stroke" d="M 16.87697 83.874996775 L 83.12308 83.976745525" />
<path class="stroke" d="M 38.64348 70.75118338749999 L 38.64348 97.202283475" />
<path class="stroke" d="M 62.302814 70.75118403249999 L 62.302814 97.3040161" />
</svg>
