<?xml version="1.0" standalone="no"?>
<!DOCTYPE svg PUBLIC "-//W3C//DTD SVG 1.1//EN" "http://www.w3.org/Graphics/SVG/1.1/DTD/svg11.dtd">
<svg xmlns="http://www.w3.org/2000/svg" version="1.1" width="100%" height="100%">
<style type="text/css"><![CDATA[
  .stroke { fill:none; stroke:black; stroke-width:2 }
]]></style>
<path class="stroke" d="M 23.659319999999997 5.5205 C 19.146207999999998 17.8233 13.699290000000001 30.7571 6.6182966 40.5363" />
<path class="stroke" d="M 23.659319999999997 5.83596 C 28.172432 11.8296 31.284946 18.4543 34.630930000000006 25.0789" />
<path class="stroke" d="M 11.987373999999999 33.59624 L 32.763391999999996 33.59624" />
<path class="stroke" d="M 8.0189279 51.57724 L 35.56465238 51.57724" />
<path class="stroke" d="M 23.19241182 33.9117 L 23.19241182 88.1703" />
<path class="stroke" d="M 7.7854912 61.672 C 10.975794 65.878 13.46582 70.3996 15.955846 75.2366" />
<path class="stroke" d="M 34.8644 61.6719 C 33.152484 67.4553 30.740232000000002 72.2923 27.627718 77.1294" />
<path class="stroke" d="M 8.9526784 94.4795 L 34.630930000000006 83.7539" />
<path class="stroke" d="M 67.09634679999999 5.9503221360000005 C 59.5810192 15.216474409714285 51.10218862000001 22.484045345142857 40.503648580000004 26.844586164000003" />
<path class="stroke" d="M 67.09634679999999 5.9503221360000005 C 74.80437724000001 14.853095022857143 82.70510655999999 22.484045345142857 93.689047 26.662898026285713" />
<path class="stroke" d="M 56.324379088 23.57142857142857 L 77.67561880000001 23.57142857142857" />
<path class="stroke" d="M 42.591990643258 33.14379525 L 42.591990643258 50.7554735" />
<path class="stroke" d="M 42.591990643258 33.14379525 L 54.0981893992 33.14379525 L 54.0981893992 50.5861309" />
<path class="stroke" d="M 42.591990643258 49.40072864 L 54.0981893992 49.40072864" />
<path class="stroke" d="M 60.669390643258005 33.14379525 L 60.669390643258005 50.7554735" />
<path class="stroke" d="M 60.669390643258005 33.14379525 L 72.17558939919999 33.14379525 L 72.17558939919999 50.5861309" />
<path class="stroke" d="M 60.669390643258005 49.40072864 L 72.17558939919999 49.40072864" />
<path class="stroke" d="M 78.84715399608399 33.14379525 L 78.84715399608399 50.7554735" />
<path class="stroke" d="M 78.84715399608399 33.14379525 L 90.7020254416 33.14379525 L 90.7020254416 50.5861309" />
<path class="stroke" d="M 78.84715399608399 49.40072864 L 90.7020254416 49.40072864" />
<path class="stroke" d="M 44.306032 60.8659322 L 44.306032 97.219276" />
<path class="stroke" d="M 44.306032 60.8659322 L 89.485804 60.8659322 L 89.485804 94.235033 C 89.55517 95.817605 87.75079600000001 96.993182 85.94635600000001 96.947989 L 83.239762 96.947989" />
<path class="stroke" d="M 45.1388002 78.4999957 L 88.86123280000001 78.6356607" />
<path class="stroke" d="M 59.5046968 61.00157785 L 59.5046968 96.2697113" />
<path class="stroke" d="M 75.11985724 61.00157871 L 75.11985724 96.4053548" />
</svg>
