<?xml version="1.0" standalone="no"?>
<!DOCTYPE svg PUBLIC "-//W3C//DTD SVG 1.1//EN" "http://www.w3.org/Graphics/SVG/1.1/DTD/svg11.dtd">
<svg xmlns="http://www.w3.org/2000/svg" version="1.1" width="100%" height="100%">
<style type="text/css"><![CDATA[
  .stroke { fill:none; stroke:black; stroke-width:2 }
]]></style>
<path class="stroke" d="M 50.14598 5.9503221360000005 C 38.75912 15.216474409714285 25.912407 22.484045345142857 9.854013 26.844586164000003" />
<path class="stroke" d="M 50.14598 5.9503221360000005 C 61.824814 14.853095022857143 73.795616 22.484045345142857 90.43795 26.662898026285713" />
<path class="stroke" d="M 33.8248168 23.57142857142857 L 66.17518000000001 23.57142857142857" />
<path class="stroke" d="M 15.972335452000001 35.4016054 L 15.972335452000001 56.2926996" />
<path class="stroke" d="M 15.972335452000001 35.4016054 L 38.6316048 35.4016054 L 38.6316048 56.091824239999994" />
<path class="stroke" d="M 15.972335452000001 54.685691903999995 L 38.6316048 54.685691903999995" />
<path class="stroke" d="M 60.472335452 35.4016054 L 60.472335452 56.2926996" />
<path class="stroke" d="M 60.472335452 35.4016054 L 83.1316048 35.4016054 L 83.1316048 56.091824239999994" />
<path class="stroke" d="M 60.472335452 54.685691903999995 L 83.1316048 54.685691903999995" />
<path class="stroke" d="M 32.8186 62.45502566037736 C 31.02044 74.6805396226415 21.730295 86.20960188679246 9.7429005 91.47114339622641" />
<path class="stroke" d="M 30.720715 71.508 C 35.11627 77.77544716981132 40.710345 82.65022641509434 46.60405 86.13219056603774" />
<path class="stroke" d="M 76.57256 62.45502566037736 C 74.374925 72.12699622641509 66.48318 80.40632830188679 56.19401499999999 86.13219056603774" />
<path class="stroke" d="M 72.676515 71.74016037735849 C 78.27078 79.6324358490566 84.164485 84.73944905660377 91.55690999999999 90.31056226415095" />
</svg>
