<?xml version="1.0" standalone="no"?>
<!DOCTYPE svg PUBLIC "-//W3C//DTD SVG 1.1//EN" "http://www.w3.org/Graphics/SVG/1.1/DTD/svg11.dtd">
<svg xmlns="http://www.w3.org/2000/svg" version="1.1" width="100%" height="100%">
<style type="text/css"><![CDATA[
  .stroke { fill:none; stroke:black; stroke-width:2 }
]]></style>
<path class="stroke" d="M 20.770715441176474 11.605839 C 17.979818382352942 27.372261 12.183339705882354 41.970802 7.245597794117647 50.14598" />
<path class="stroke" d="M 16.477026470588235 30.583939 L 16.477026470588235 90.43795" />
<path class="stroke" d="M 59.6182438 5.9503221360000005 C 50.3948872 15.216474409714285 39.98904967 22.484045345142857 26.98175053 26.844586164000003" />
<path class="stroke" d="M 59.6182438 5.9503221360000005 C 69.07809934000001 14.853095022857143 78.77444896 22.484045345142857 92.2547395 26.662898026285713" />
<path class="stroke" d="M 46.398101608000005 23.57142857142857 L 72.60189580000002 23.57142857142857" />
<path class="stroke" d="M 31.937591716120004 35.4016054 L 31.937591716120004 56.2926996" />
<path class="stroke" d="M 31.937591716120004 35.4016054 L 50.291599888 35.4016054 L 50.291599888 56.091824239999994" />
<path class="stroke" d="M 31.937591716120004 54.685691903999995 L 50.291599888 54.685691903999995" />
<path class="stroke" d="M 67.98259171612 35.4016054 L 67.98259171612 56.2926996" />
<path class="stroke" d="M 67.98259171612 35.4016054 L 86.33659988800001 35.4016054 L 86.33659988800001 56.091824239999994" />
<path class="stroke" d="M 67.98259171612 54.685691903999995 L 86.33659988800001 54.685691903999995" />
<path class="stroke" d="M 45.583066 62.45502566037736 C 44.1265564 74.6805396226415 36.601538950000005 86.20960188679246 26.891749405 91.47114339622641" />
<path class="stroke" d="M 43.883779149999995 71.508 C 47.4441787 77.77544716981132 51.97537945 82.65022641509434 56.749280500000005 86.13219056603774" />
<path class="stroke" d="M 81.0237736 62.45502566037736 C 79.24368925000002 72.12699622641509 72.8513758 80.40632830188679 64.51715214999999 86.13219056603774" />
<path class="stroke" d="M 77.86797715 71.74016037735849 C 82.3993318 79.6324358490566 87.17323285 84.73944905660377 93.16109709999999 90.31056226415095" />
</svg>
