<?xml version="1.0" standalone="no"?>
<!DOCTYPE svg PUBLIC "-//W3C//DTD SVG 1.1//EN" "http://www.w3.org/Graphics/SVG/1.1/DTD/svg11.dtd">
<svg xmlns="http://www.w3.org/2000/svg" version="1.1" width="100%" height="100%">
<style type="text/css"><![CDATA[
  .stroke { fill:none; stroke:black; stroke-width:2 }
]]></style>
<path class="stroke" d="M 33.087588 5.9503221360000005 C 26.255472 15.216474409714285 18.5474442 22.484045345142857 8.9124078 26.844586164000003" />
<path class="stroke" d="M 33.087588 5.9503221360000005 C 40.0948884 14.853095022857143 47.27736959999999 22.484045345142857 57.262769999999996 26.662898026285713" />
<path class="stroke" d="M 23.29489008 23.57142857142857 L 42.705108 23.57142857142857" />
<path class="stroke" d="M 12.5834012712 35.4016054 L 12.5834012712 56.2926996" />
<path class="stroke" d="M 12.5834012712 35.4016054 L 26.178962879999997 35.4016054 L 26.178962879999997 56.091824239999994" />
<path class="stroke" d="M 12.5834012712 54.685691903999995 L 26.178962879999997 54.685691903999995" />
<path class="stroke" d="M 39.2834012712 35.4016054 L 39.2834012712 56.2926996" />
<path class="stroke" d="M 39.2834012712 35.4016054 L 52.87896288 35.4016054 L 52.87896288 56.091824239999994" />
<path class="stroke" d="M 39.2834012712 54.685691903999995 L 52.87896288 54.685691903999995" />
<path class="stroke" d="M 22.69116 62.45502566037736 C 21.612264 74.6805396226415 16.038177 86.20960188679246 8.8457403 91.47114339622641" />
<path class="stroke" d="M 21.432429 71.508 C 24.069762 77.77544716981132 27.426206999999998 82.65022641509434 30.96243 86.13219056603774" />
<path class="stroke" d="M 48.943535999999995 62.45502566037736 C 47.624955 72.12699622641509 42.889908 80.40632830188679 36.71640899999999 86.13219056603774" />
<path class="stroke" d="M 46.605909 71.74016037735849 C 49.962468 79.6324358490566 53.498691 84.73944905660377 57.93414599999999 90.31056226415095" />
<path class="stroke" d="M 69.90531999999999 12.1451 L 69.90531999999999 68.612" />
<path class="stroke" d="M 88.4542 6.78233 L 88.4542 84.0694 C 88.58044 89.6425 84.54256 92.3765 79.7476 92.2713 L 75.5836 92.2713" />
</svg>
