<?xml version="1.0" standalone="no"?>
<!DOCTYPE svg PUBLIC "-//W3C//DTD SVG 1.1//EN" "http://www.w3.org/Graphics/SVG/1.1/DTD/svg11.dtd">
<svg xmlns="http://www.w3.org/2000/svg" version="1.1" width="100%" height="100%">
<style type="text/css"><![CDATA[
  .stroke { fill:none; stroke:black; stroke-width:2 }
]]></style>
<path class="stroke" d="M 28.5832086 5.9503221360000005 C 22.0926984 15.216474409714285 14.77007199 22.484045345142857 5.61678741 26.844586164000003" />
<path class="stroke" d="M 28.5832086 5.9503221360000005 C 35.24014398 14.853095022857143 42.06350111999999 22.484045345142857 51.5496315 26.662898026285713" />
<path class="stroke" d="M 19.280145576 23.57142857142857 L 37.7198526 23.57142857142857" />
<path class="stroke" d="M 9.10423120764 35.4016054 L 9.10423120764 56.2926996" />
<path class="stroke" d="M 9.10423120764 35.4016054 L 22.020014735999997 35.4016054 L 22.020014735999997 56.091824239999994" />
<path class="stroke" d="M 9.10423120764 54.685691903999995 L 22.020014735999997 54.685691903999995" />
<path class="stroke" d="M 34.46923120764 35.4016054 L 34.46923120764 56.2926996" />
<path class="stroke" d="M 34.46923120764 35.4016054 L 47.385014736 35.4016054 L 47.385014736 56.091824239999994" />
<path class="stroke" d="M 34.46923120764 54.685691903999995 L 47.385014736 54.685691903999995" />
<path class="stroke" d="M 18.706602 62.45502566037736 C 17.6816508 74.6805396226415 12.38626815 86.20960188679246 5.553453284999999 91.47114339622641" />
<path class="stroke" d="M 17.51080755 71.508 C 20.016273899999998 77.77544716981132 23.204896649999995 82.65022641509434 26.5643085 86.13219056603774" />
<path class="stroke" d="M 43.64635919999999 62.45502566037736 C 42.39370725 72.12699622641509 37.8954126 80.40632830188679 32.03058854999999 86.13219056603774" />
<path class="stroke" d="M 41.425613549999994 71.74016037735849 C 44.614344599999995 79.6324358490566 47.973756449999996 84.73944905660377 52.18743869999999 90.31056226415095" />
<path class="stroke" d="M 61.91751715 19.48905 L 88.8693418 17.153284 C 88.27371790000001 39.051094 87.0824803 51.897808 85.4445235 68.540146 C 84.5510902 76.423355 82.91313646 88.39416 79.78612960000001 88.39416 L 78.14817382 88.39416" />
<path class="stroke" d="M 71.14963303 18.905107 L 69.6605845 36.715324 C 67.27810063 59.489044 62.95985311 74.087585 59.2372249 86.35036" />
<path class="stroke" d="M 59.1334169245 42.5555556 C 66.09491785270001 56.000001600000004 80.14683694300001 66.111112 96.003583849 73.33333440000001" />
</svg>
