<?xml version="1.0" standalone="no"?>
<!DOCTYPE svg PUBLIC "-//W3C//DTD SVG 1.1//EN" "http://www.w3.org/Graphics/SVG/1.1/DTD/svg11.dtd">
<svg xmlns="http://www.w3.org/2000/svg" version="1.1" width="100%" height="100%">
<style type="text/css"><![CDATA[
  .stroke { fill:none; stroke:black; stroke-width:2 }
]]></style>
<path class="stroke" d="M 10.2524 9.621452 L 91.0095 9.621452" />
<path class="stroke" d="M 10.2524 9.62145 L 10.2524 91.3249 L 92.5868 91.3249" />
<path class="stroke" d="M 52.6182438 16.58174804472 C 43.3948872 23.716685295479998 32.98904967 29.31271491576 19.98175053 32.67033134628" />
<path class="stroke" d="M 52.6182438 16.58174804472 C 62.07809934000001 23.4368831676 71.77444896 29.31271491576 85.2547395 32.53043148024" />
<path class="stroke" d="M 39.398101608000005 30.15 L 65.60189580000002 30.15" />
<path class="stroke" d="M 24.937591716120004 39.259236158 L 24.937591716120004 55.345378692" />
<path class="stroke" d="M 24.937591716120004 39.259236158 L 43.291599888 39.259236158 L 43.291599888 55.190704664799995" />
<path class="stroke" d="M 24.937591716120004 54.10798276608 L 43.291599888 54.10798276608" />
<path class="stroke" d="M 60.982591716120005 39.259236158 L 60.982591716120005 55.345378692" />
<path class="stroke" d="M 60.982591716120005 39.259236158 L 79.33659988800001 39.259236158 L 79.33659988800001 55.190704664799995" />
<path class="stroke" d="M 60.982591716120005 54.10798276608 L 79.33659988800001 54.10798276608" />
<path class="stroke" d="M 38.583066 60.09036975849057 C 37.1265564 69.50401550943397 29.601538950000002 78.3813934528302 19.891749405 82.43278041509434" />
<path class="stroke" d="M 36.883779149999995 67.06116 C 40.4441787 71.88709432075471 44.97537945 75.64067433962265 49.749280500000005 78.32178673584906" />
<path class="stroke" d="M 74.0237736 60.09036975849057 C 72.24368925000002 67.53778709433962 65.8513758 73.91287279245283 57.517152149999994 78.32178673584906" />
<path class="stroke" d="M 70.86797715 67.23992349056604 C 75.3993318 73.31697560377359 80.17323285 77.2493757735849 86.16109709999999 81.53913294339623" />
</svg>
