<?xml version="1.0" standalone="no"?>
<!DOCTYPE svg PUBLIC "-//W3C//DTD SVG 1.1//EN" "http://www.w3.org/Graphics/SVG/1.1/DTD/svg11.dtd">
<svg xmlns="http://www.w3.org/2000/svg" version="1.1" width="100%" height="100%">
<style type="text/css"><![CDATA[
  .stroke { fill:none; stroke:black; stroke-width:2 }
]]></style>
<path class="stroke" d="M 15.094908 14.324085600000002 L 15.094908 77.7868608" />
<path class="stroke" d="M 4.4452548 40.788316800000004 L 4.4452548 80.6131348 M 4.4452548 77.7868608 L 25.46715 77.7868608" />
<path class="stroke" d="M 25.46715 40.5313832 L 25.46715 80.87006751999999" />
<path class="stroke" d="M 62.609485 5.9503221360000005 C 54.069340000000004 15.216474409714285 44.43430525 22.484045345142857 32.39050975 26.844586164000003" />
<path class="stroke" d="M 62.609485 5.9503221360000005 C 71.3686105 14.853095022857143 80.346712 22.484045345142857 92.8284625 26.662898026285713" />
<path class="stroke" d="M 50.3686126 23.57142857142857 L 74.63138500000001 23.57142857142857" />
<path class="stroke" d="M 36.979251589 35.4016054 L 36.979251589 56.2926996" />
<path class="stroke" d="M 36.979251589 35.4016054 L 53.9737036 35.4016054 L 53.9737036 56.091824239999994" />
<path class="stroke" d="M 36.979251589 54.685691903999995 L 53.9737036 54.685691903999995" />
<path class="stroke" d="M 70.354251589 35.4016054 L 70.354251589 56.2926996" />
<path class="stroke" d="M 70.354251589 35.4016054 L 87.34870360000001 35.4016054 L 87.34870360000001 56.091824239999994" />
<path class="stroke" d="M 70.354251589 54.685691903999995 L 87.34870360000001 54.685691903999995" />
<path class="stroke" d="M 49.61395 62.45502566037736 C 48.26533 74.6805396226415 41.29772125 86.20960188679246 32.307175375 91.47114339622641" />
<path class="stroke" d="M 48.04053625 71.508 C 51.337202500000004 77.77544716981132 55.53275875 82.65022641509434 59.9530375 86.13219056603774" />
<path class="stroke" d="M 82.42942 62.45502566037736 C 80.78119375 72.12699622641509 74.862385 80.40632830188679 67.14551125 86.13219056603774" />
<path class="stroke" d="M 79.50738625 71.74016037735849 C 83.703085 79.6324358490566 88.12336375 84.73944905660377 93.66768249999998 90.31056226415095" />
</svg>
