<?xml version="1.0" standalone="no"?>
<!DOCTYPE svg PUBLIC "-//W3C//DTD SVG 1.1//EN" "http://www.w3.org/Graphics/SVG/1.1/DTD/svg11.dtd">
<svg xmlns="http://www.w3.org/2000/svg" version="1.1" width="100%" height="100%">
<style type="text/css"><![CDATA[
  .stroke { fill:none; stroke:black; stroke-width:2 }
]]></style>
<path class="stroke" d="M 12.90802792 17.5956198 L 12.90802792 73.51386240000001" />
<path class="stroke" d="M 12.90802792 17.5956198 L 30.986859999999997 17.5956198 L 30.986859999999997 73.51386240000001" />
<path class="stroke" d="M 13.013138199999998 44.03148868 L 30.8817508 44.03148868" />
<path class="stroke" d="M 12.90802792 71.07298863999999 L 30.986859999999997 71.07298863999999" />
<path class="stroke" d="M 40.2813462592 9.58613786 L 58.245702515199994 9.58613786 L 58.245702515199994 42.253467179999994" />
<path class="stroke" d="M 43.3352868832 24.38415836 L 55.191762495999996 24.38415836" />
<path class="stroke" d="M 40.640634352 41.974257099999996 L 55.191762495999996 36.1108896" />
<path class="stroke" d="M 66.68895243520001 9.3069306 L 84.8329524352 9.3069306 L 84.8329524352 42.532672559999995" />
<path class="stroke" d="M 70.641112384 24.38415836 L 81.779012416 24.38415836" />
<path class="stroke" d="M 67.587168736 41.974257099999996 L 82.13829385599999 36.1108896" />
<path class="stroke" d="M 51.4578090664 47.22262689 C 50.5013127256 52.48394113 44.379736537599996 58.0547441 40.7450499184 59.29269955" />
<path class="stroke" d="M 48.588320044 55.26934235 L 48.588320044 89.9321135" />
<path class="stroke" d="M 71.35293085839999 47.37737205 C 70.2051357736 50.78175126 68.10084500319999 53.72189711 65.0400572368 55.424086450000004" />
<path class="stroke" d="M 48.588320044 55.1246232 L 83.97868268799999 55.1246232" />
<path class="stroke" d="M 65.99655488799999 55.424086450000004 L 65.99655488799999 89.9321135" />
<path class="stroke" d="M 48.588320044 67.3296805 L 81.491792464 67.3296805" />
<path class="stroke" d="M 48.588320044 78.63576452000001 L 81.68309120800001 78.63576452000001" />
<path class="stroke" d="M 48.588320044 89.9321135 L 87.8046680512 89.9321135" />
</svg>
