<?xml version="1.0" standalone="no"?>
<!DOCTYPE svg PUBLIC "-//W3C//DTD SVG 1.1//EN" "http://www.w3.org/Graphics/SVG/1.1/DTD/svg11.dtd">
<svg xmlns="http://www.w3.org/2000/svg" version="1.1" width="100%" height="100%">
<style type="text/css"><![CDATA[
  .stroke { fill:none; stroke:black; stroke-width:2 }
]]></style>
<path class="stroke" d="M 8.648592114285714 27.956203 L 27.518247485714287 27.956203" />
<path class="stroke" d="M 19.776848285714287 9.270073 L 19.776848285714287 90.14598" />
<path class="stroke" d="M 19.776848285714287 36.131386 C 16.631906 44.598537 12.761208885714286 52.48175 7.197079971428572 56.861313" />
<path class="stroke" d="M 19.776848285714287 36.131386 C 23.40562905714286 37.299267 25.824815685714288 42.26277 27.034409000000004 46.934303" />
<path class="stroke" d="M 63.6065654 5.9503221360000005 C 55.294157600000005 15.216474409714285 45.91605711 22.484045345142857 34.19342949 26.844586164000003" />
<path class="stroke" d="M 63.6065654 5.9503221360000005 C 72.13211422 14.853095022857143 80.87079968 22.484045345142857 93.0197035 26.662898026285713" />
<path class="stroke" d="M 51.692116264 23.57142857142857 L 75.30788140000001 23.57142857142857" />
<path class="stroke" d="M 38.65980487996 35.4016054 L 38.65980487996 56.2926996" />
<path class="stroke" d="M 38.65980487996 35.4016054 L 55.201071504 35.4016054 L 55.201071504 56.091824239999994" />
<path class="stroke" d="M 38.65980487996 54.685691903999995 L 55.201071504 54.685691903999995" />
<path class="stroke" d="M 71.14480487995999 35.4016054 L 71.14480487995999 56.2926996" />
<path class="stroke" d="M 71.14480487995999 35.4016054 L 87.68607150400001 35.4016054 L 87.68607150400001 56.091824239999994" />
<path class="stroke" d="M 71.14480487995999 54.685691903999995 L 87.68607150400001 54.685691903999995" />
<path class="stroke" d="M 50.957578 62.45502566037736 C 49.6449212 74.6805396226415 42.86311535 86.20960188679246 34.112317364999996 91.47114339622641" />
<path class="stroke" d="M 49.426121949999995 71.508 C 52.6348771 77.77544716981132 56.71855185 82.65022641509434 61.0209565 86.13219056603774" />
<path class="stroke" d="M 82.8979688 62.45502566037736 C 81.29369525 72.12699622641509 75.5327214 80.40632830188679 68.02163095 86.13219056603774" />
<path class="stroke" d="M 80.05385594999998 71.74016037735849 C 84.1376694 79.6324358490566 88.44007404999999 84.73944905660377 93.83654429999999 90.31056226415095" />
</svg>
