<?xml version="1.0" standalone="no"?>
<!DOCTYPE svg PUBLIC "-//W3C//DTD SVG 1.1//EN" "http://www.w3.org/Graphics/SVG/1.1/DTD/svg11.dtd">
<svg xmlns="http://www.w3.org/2000/svg" version="1.1" width="100%" height="100%">
<style type="text/css"><![CDATA[
  .stroke { fill:none; stroke:black; stroke-width:2 }
]]></style>
<path class="stroke" d="M 28.5832086 5.9503221360000005 C 22.0926984 15.216474409714285 14.77007199 22.484045345142857 5.61678741 26.844586164000003" />
<path class="stroke" d="M 28.5832086 5.9503221360000005 C 35.24014398 14.853095022857143 42.06350111999999 22.484045345142857 51.5496315 26.662898026285713" />
<path class="stroke" d="M 19.280145576 23.57142857142857 L 37.7198526 23.57142857142857" />
<path class="stroke" d="M 9.10423120764 35.4016054 L 9.10423120764 56.2926996" />
<path class="stroke" d="M 9.10423120764 35.4016054 L 22.020014735999997 35.4016054 L 22.020014735999997 56.091824239999994" />
<path class="stroke" d="M 9.10423120764 54.685691903999995 L 22.020014735999997 54.685691903999995" />
<path class="stroke" d="M 34.46923120764 35.4016054 L 34.46923120764 56.2926996" />
<path class="stroke" d="M 34.46923120764 35.4016054 L 47.385014736 35.4016054 L 47.385014736 56.091824239999994" />
<path class="stroke" d="M 34.46923120764 54.685691903999995 L 47.385014736 54.685691903999995" />
<path class="stroke" d="M 18.706602 62.45502566037736 C 17.6816508 74.6805396226415 12.38626815 86.20960188679246 5.553453284999999 91.47114339622641" />
<path class="stroke" d="M 17.51080755 71.508 C 20.016273899999998 77.77544716981132 23.204896649999995 82.65022641509434 26.5643085 86.13219056603774" />
<path class="stroke" d="M 43.64635919999999 62.45502566037736 C 42.39370725 72.12699622641509 37.8954126 80.40632830188679 32.03058854999999 86.13219056603774" />
<path class="stroke" d="M 41.425613549999994 71.74016037735849 C 44.614344599999995 79.6324358490566 47.973756449999996 84.73944905660377 52.18743869999999 90.31056226415095" />
<path class="stroke" d="M 66.0021881 11.605839 C 65.17883129 22.116787 62.98321125 32.627735 60.23868573 39.927006" />
<path class="stroke" d="M 63.94379584 26.204376 L 91.526276 26.204376 C 91.25182232 34.37956 89.8795605 39.927006 87.27225899999999 45.47445" />
<path class="stroke" d="M 76.70583837999999 30.875912 C 76.70583837999999 62.408752 68.197168 79.653 57.63138611 90.14598" />
<path class="stroke" d="M 76.5686106 48.394157 C 79.72481711 63.868607 84.39050805 80.21897 95.5058365 90.14598" />
</svg>
