<?xml version="1.0" standalone="no"?>
<!DOCTYPE svg PUBLIC "-//W3C//DTD SVG 1.1//EN" "http://www.w3.org/Graphics/SVG/1.1/DTD/svg11.dtd">
<svg xmlns="http://www.w3.org/2000/svg" version="1.1" width="100%" height="100%">
<style type="text/css"><![CDATA[
  .stroke { fill:none; stroke:black; stroke-width:2 }
]]></style>
<path class="stroke" d="M 9.646392642857142 14.059406 C 12.213578142857143 16.138615 14.780764428571429 19.108912 16.881189285714285 22.673267" />
<path class="stroke" d="M 8.012729214285715 38.118813 C 10.346535571428571 39.90099 13.147101 42.574257 15.014145142857142 46.138615" />
<path class="stroke" d="M 7.779349285714286 85.64356 C 8.302649928571428 87.422676 9.760677142857142 89.896904 11.461706928571427 89.896904 C 13.16273907142857 89.896904 15.480905 76.73267 17.114569214285712 69.60396" />
<path class="stroke" d="M 44.58028900000001 5.9503221360000005 C 38.317516000000005 15.216474409714285 31.25182385 22.484045345142857 22.41970715 26.844586164000003" />
<path class="stroke" d="M 44.58028900000001 5.9503221360000005 C 51.0036477 14.853095022857143 57.5875888 22.484045345142857 66.7408725 26.662898026285713" />
<path class="stroke" d="M 35.60364924 23.57142857142857 L 53.39634900000001 23.57142857142857" />
<path class="stroke" d="M 25.7847844986 35.4016054 L 25.7847844986 56.2926996" />
<path class="stroke" d="M 25.7847844986 35.4016054 L 38.24738264 35.4016054 L 38.24738264 56.091824239999994" />
<path class="stroke" d="M 25.7847844986 54.685691903999995 L 38.24738264 54.685691903999995" />
<path class="stroke" d="M 50.259784498600006 35.4016054 L 50.259784498600006 56.2926996" />
<path class="stroke" d="M 50.259784498600006 35.4016054 L 62.722382640000006 35.4016054 L 62.722382640000006 56.091824239999994" />
<path class="stroke" d="M 50.259784498600006 54.685691903999995 L 62.722382640000006 54.685691903999995" />
<path class="stroke" d="M 35.05023 62.45502566037736 C 34.061242 74.6805396226415 28.951662250000002 86.20960188679246 22.358595275 91.47114339622641" />
<path class="stroke" d="M 33.89639325 71.508 C 36.3139485 77.77544716981132 39.39068975 82.65022641509434 42.6322275 86.13219056603774" />
<path class="stroke" d="M 59.114908 62.45502566037736 C 57.906208750000005 72.12699622641509 53.565749000000004 80.40632830188679 47.906708249999994 86.13219056603774" />
<path class="stroke" d="M 56.97208325 71.74016037735849 C 60.048929 79.6324358490566 63.29046675 84.73944905660377 67.3563005 90.31056226415095" />
<path class="stroke" d="M 78.35445624 9.90099 C 77.34455458 22.673267 74.9207925 37.82178 71.18415816 46.435642" />
<path class="stroke" d="M 74.81980196 35.742573 L 91.8871274 35.742573" />
<path class="stroke" d="M 84.009902 36.039604 C 82.7980196 61.287132 77.64752518 82.376236 69.56831700000001 89.80198" />
<path class="stroke" d="M 74.81980196 43.465347 C 77.04158364 61.58416 87.84752280000001 90.09901 93.8059412 90.09901" />
</svg>
