<?xml version="1.0" standalone="no"?>
<!DOCTYPE svg PUBLIC "-//W3C//DTD SVG 1.1//EN" "http://www.w3.org/Graphics/SVG/1.1/DTD/svg11.dtd">
<svg xmlns="http://www.w3.org/2000/svg" version="1.1" width="100%" height="100%">
<style type="text/css"><![CDATA[
  .stroke { fill:none; stroke:black; stroke-width:2 }
]]></style>
<path class="stroke" d="M 26.788319 7.725060833333334 C 24.452553 14.294403333333333 21.824816 18.430655833333333 16.861313 21.593672500000004" />
<path class="stroke" d="M 24.452553 15.024329999999999 L 47.226276 15.024329999999999" />
<path class="stroke" d="M 30.0 15.510948333333333 C 34.08759 19.403893333333336 35.547443 22.56691 36.423355 28.406325" />
<path class="stroke" d="M 65.32846 7.725060833333334 C 63.284668 15.754255833333335 60.07299 19.160582500000004 57.44525 21.593672500000004" />
<path class="stroke" d="M 62.9927 15.267639166666667 L 86.35036 15.267639166666667" />
<path class="stroke" d="M 72.62773 15.754255833333335 C 72.9197 21.107054166666668 71.16788 24.756689166666668 67.9562 28.406325" />
<path class="stroke" d="M 50.14598 29.462741602 C 38.75912 36.412355807285714 25.912407 41.86303400885714 9.854013 45.133439623" />
<path class="stroke" d="M 50.14598 29.462741602 C 61.824814 36.13982126714286 73.795616 41.86303400885714 90.43795 44.99717351971428" />
<path class="stroke" d="M 33.8248168 42.67857142857143 L 66.17518000000001 42.67857142857143" />
<path class="stroke" d="M 15.972335452000001 51.55120405 L 15.972335452000001 67.2195247" />
<path class="stroke" d="M 15.972335452000001 51.55120405 L 38.6316048 51.55120405 L 38.6316048 67.06886818" />
<path class="stroke" d="M 15.972335452000001 66.01426892799999 L 38.6316048 66.01426892799999" />
<path class="stroke" d="M 60.472335452 51.55120405 L 60.472335452 67.2195247" />
<path class="stroke" d="M 60.472335452 51.55120405 L 83.1316048 51.55120405 L 83.1316048 67.06886818" />
<path class="stroke" d="M 60.472335452 66.01426892799999 L 83.1316048 66.01426892799999" />
<path class="stroke" d="M 32.8186 71.84126924528302 C 31.02044 81.01040471698113 21.730295 89.65720141509433 9.7429005 93.60335754716981" />
<path class="stroke" d="M 30.720715 78.631 C 35.11627 83.3315853773585 40.710345 86.98766981132076 46.60405 89.59914292452831" />
<path class="stroke" d="M 76.57256 71.84126924528302 C 74.374925 79.09524716981132 66.48318 85.30474622641509 56.19401499999999 89.59914292452831" />
<path class="stroke" d="M 72.676515 78.80512028301887 C 78.27078 84.72432688679245 84.164485 88.55458679245282 91.55690999999999 92.73292169811322" />
</svg>
