<?xml version="1.0" standalone="no"?>
<!DOCTYPE svg PUBLIC "-//W3C//DTD SVG 1.1//EN" "http://www.w3.org/Graphics/SVG/1.1/DTD/svg11.dtd">
<svg xmlns="http://www.w3.org/2000/svg" version="1.1" width="100%" height="100%">
<style type="text/css"><![CDATA[
  .stroke { fill:none; stroke:black; stroke-width:2 }
]]></style>
<path class="stroke" d="M 11.1549 7.41324 L 11.1549 57.8864" />
<path class="stroke" d="M 11.1549 7.09779 L 49.44792222222222 7.09779" />
<path class="stroke" d="M 29.135982777777777 7.09779 L 29.135982777777777 57.571" />
<path class="stroke" d="M 11.820955555555557 22.8707 L 44.120216666666664 22.8707" />
<path class="stroke" d="M 11.1549 40.5363 L 43.787188888888885 40.5363" />
<path class="stroke" d="M 11.1549 57.8864 L 49.44792222222222 57.8864 C 49.78095 70.8202 47.117044444444446 92.2713 39.45846111111111 92.5868 L 31.133927777777778 92.5868" />
<path class="stroke" d="M 8.4910525 68.92747 C 10.155969722222222 74.81597 10.155969722222222 80.38917 8.4910525 86.59307" />
<path class="stroke" d="M 17.481604444444447 67.98113 C 20.145615555555555 73.13363 20.81146 77.33953 20.81146 82.80753" />
<path class="stroke" d="M 26.139186666666667 66.71927 C 28.803092222222222 70.82017 30.134992222222223 74.29017 31.133864444444445 78.39107" />
<path class="stroke" d="M 34.796747777777775 65.45733 C 36.79470333333333 68.50673 38.126497777777786 71.55623 39.458397777777776 74.92113" />
<path class="stroke" d="M 74.0759096 5.9503221360000005 C 68.1547424 15.216474409714285 61.47445164 22.484045345142857 53.12408676 26.844586164000003" />
<path class="stroke" d="M 74.0759096 5.9503221360000005 C 80.14890328000001 14.853095022857143 86.37372031999999 22.484045345142857 95.02773400000001 26.662898026285713" />
<path class="stroke" d="M 65.588904736 23.57142857142857 L 82.41109360000002 23.57142857142857" />
<path class="stroke" d="M 56.30561443504 35.4016054 L 56.30561443504 56.2926996" />
<path class="stroke" d="M 56.30561443504 35.4016054 L 68.088434496 35.4016054 L 68.088434496 56.091824239999994" />
<path class="stroke" d="M 56.30561443504 54.685691903999995 L 68.088434496 54.685691903999995" />
<path class="stroke" d="M 79.44561443504 35.4016054 L 79.44561443504 56.2926996" />
<path class="stroke" d="M 79.44561443504 35.4016054 L 91.228434496 35.4016054 L 91.228434496 56.091824239999994" />
<path class="stroke" d="M 79.44561443504 54.685691903999995 L 91.228434496 54.685691903999995" />
<path class="stroke" d="M 65.065672 62.45502566037736 C 64.1306288 74.6805396226415 59.2997534 86.20960188679246 53.06630826 91.47114339622641" />
<path class="stroke" d="M 63.9747718 71.508 C 66.2604604 77.77544716981132 69.1693794 82.65022641509434 72.234106 86.13219056603774" />
<path class="stroke" d="M 87.8177312 62.45502566037736 C 86.674961 72.12699622641509 82.5712536 80.40632830188679 77.2208878 86.13219056603774" />
<path class="stroke" d="M 85.79178780000001 71.74016037735849 C 88.7008056 79.6324358490566 91.7655322 84.73944905660377 95.60959319999999 90.31056226415095" />
</svg>
