<?xml version="1.0" standalone="no"?>
<!DOCTYPE svg PUBLIC "-//W3C//DTD SVG 1.1//EN" "http://www.w3.org/Graphics/SVG/1.1/DTD/svg11.dtd">
<svg xmlns="http://www.w3.org/2000/svg" version="1.1" width="100%" height="100%">
<style type="text/css"><![CDATA[
  .stroke { fill:none; stroke:black; stroke-width:2 }
]]></style>
<path class="stroke" d="M 11.5167877 17.46934189 C 11.11386818 24.90875751 9.50218918 32.61386583 7.08467114 37.6620426" />
<path class="stroke" d="M 9.9051087 30.7540142 L 37.035036999999996 30.7540142" />
<path class="stroke" d="M 23.01134452 11.358392955000001 L 22.92438382 73.17397360000001" />
<path class="stroke" d="M 11.651093900000001 55.463499000000006 L 34.48321 55.463499000000006" />
<path class="stroke" d="M 5.60729834 82.0328418 L 37.896437600000006 65.6945198" />
<path class="stroke" d="M 46.291350082 9.68832017 L 46.291350082 45.7408723" />
<path class="stroke" d="M 46.291350082 9.54525438 L 82.13339130399999 9.54525438 L 82.13339130399999 45.7408723" />
<path class="stroke" d="M 64.21236977 9.68832017 L 64.21236977 43.165692" />
<path class="stroke" d="M 46.291350082 26.34583342 L 81.86390484 26.34583342" />
<path class="stroke" d="M 46.291350082 43.165692 L 82.13339130399999 43.165692" />
<path class="stroke" d="M 45.3460634518 59.602189339999995 L 82.429827735 58.36423336 C 81.50734852 76.0051074 78.739904556 85.444524 77.8174228134 87.4562026 C 76.7104408045 89.15839088 74.496487529 89.62262530000001 72.65152278 89.7773694 L 70.806558031 89.62262530000001" />
<path class="stroke" d="M 63.611201197 47.53211668 C 61.397244762 64.86350199 54.201887928 82.50437815000001 42.5786194878 87.4562026" />
</svg>
