<?xml version="1.0" standalone="no"?>
<!DOCTYPE svg PUBLIC "-//W3C//DTD SVG 1.1//EN" "http://www.w3.org/Graphics/SVG/1.1/DTD/svg11.dtd">
<svg xmlns="http://www.w3.org/2000/svg" version="1.1" width="100%" height="100%">
<style type="text/css"><![CDATA[
  .stroke { fill:none; stroke:black; stroke-width:2 }
]]></style>
<path class="stroke" d="M 10.437956 27.956203 L 33.211678 27.956203" />
<path class="stroke" d="M 23.86861 9.270073 L 23.86861 90.14598" />
<path class="stroke" d="M 23.86861 36.131386 C 20.07299 44.598537 15.401459 52.48175 8.686131 56.861313" />
<path class="stroke" d="M 23.86861 36.131386 C 28.248173 37.299267 31.167881 42.26277 32.627735 46.934303" />
<path class="stroke" d="M 51.33284586 10.264596875 L 79.0291926 10.264596875" />
<path class="stroke" d="M 42.10072966 21.213502083333335 C 42.10072966 26.992090625000003 41.91970764 30.945861458333336 41.01459816 35.20377083333334" />
<path class="stroke" d="M 42.281750439999996 21.213502083333335 L 88.2613088 21.213502083333335 C 88.0802874 27.296225000000003 87.5372232 30.3375875 86.8131376 33.37895104166667" />
<path class="stroke" d="M 65.10269556 10.264596875 L 65.10269556 48.281625000000005" />
<path class="stroke" d="M 50.78978104 28.512771875000002 C 53.505106999999995 29.425180208333337 55.3153272 30.945861458333336 57.125545540000005 34.29135833333334" />
<path class="stroke" d="M 50.970801820000005 39.15754166666667 C 53.14306544 39.7658125 54.9532844 41.59063125 56.94452476 45.848536458333335" />
<path class="stroke" d="M 71.788318 28.512771875000002 C 74.1416024 29.121044791666666 76.132844 30.641727083333336 78.6671498 33.98722395833334" />
<path class="stroke" d="M 71.788318 39.461677083333335 C 74.3226238 40.06994791666666 76.49489052 42.80717395833334 78.30510699999999 45.848536458333335" />
<path class="stroke" d="M 40.47365969138 56.40072925 L 40.47365969138 88.5875895" />
<path class="stroke" d="M 40.47365969138 56.40072925 L 52.194103112 56.40072925 L 52.194103112 88.2781013" />
<path class="stroke" d="M 40.47365969138 86.11167648 L 52.194103112 86.11167648" />
<path class="stroke" d="M 58.88765969138001 56.40072925 L 58.88765969138001 88.5875895" />
<path class="stroke" d="M 58.88765969138001 56.40072925 L 70.60810311200001 56.40072925 L 70.60810311200001 88.2781013" />
<path class="stroke" d="M 58.88765969138001 86.11167648 L 70.60810311200001 86.11167648" />
<path class="stroke" d="M 77.40389180324 56.40072925 L 77.40389180324 88.5875895" />
<path class="stroke" d="M 77.40389180324 56.40072925 L 89.47950017599999 56.40072925 L 89.47950017599999 88.2781013" />
<path class="stroke" d="M 77.40389180324 86.11167648 L 89.47950017599999 86.11167648" />
</svg>
