<?xml version="1.0" standalone="no"?>
<!DOCTYPE svg PUBLIC "-//W3C//DTD SVG 1.1//EN" "http://www.w3.org/Graphics/SVG/1.1/DTD/svg11.dtd">
<svg xmlns="http://www.w3.org/2000/svg" version="1.1" width="100%" height="100%">
<style type="text/css"><![CDATA[
  .stroke { fill:none; stroke:black; stroke-width:2 }
]]></style>
<path class="stroke" d="M 24.542599999999997 10.07886 C 20.273439999999997 21.397436 15.12095 33.296532 8.422713 42.293396" />
<path class="stroke" d="M 24.542599999999997 10.3690832 C 28.81176 15.883232 31.75603 21.977956 34.92115 28.072588000000003" />
<path class="stroke" d="M 13.50157 35.908540800000004 L 33.15456 35.908540800000004" />
<path class="stroke" d="M 9.7476345 52.45106080000001 L 35.8044009 52.45106080000001" />
<path class="stroke" d="M 24.1009301 36.198764000000004 L 24.1009301 86.116676" />
<path class="stroke" d="M 9.526816 61.73824 C 12.54467 65.60776000000001 14.9001 69.767632 17.25553 74.217672" />
<path class="stroke" d="M 35.141999999999996 61.738148 C 33.52262 67.058876 31.24076 71.508916 28.296490000000002 75.95904800000001" />
<path class="stroke" d="M 10.630911999999999 91.92114000000001 L 34.92115 82.053588" />
<path class="stroke" d="M 66.05766352 8.549050511999999 C 63.0211672 16.72832031 55.775716 25.8880756 47.23138592 32.42875856 C 59.98467036 31.394597599999997 71.06788276 30.924525899999995 83.202284 30.993289" />
<path class="stroke" d="M 77.29269980000001 25.095618144 C 80.78466879999999 26.8818964 83.82116512 29.60832031 85.7948896 33.27488762" />
<path class="stroke" d="M 55.82846545 43.270656248 C 55.25912265 46.2791235 53.551094899999995 51.543941352000004 50.70437895 54.55240796" />
<path class="stroke" d="M 54.879560350000006 50.039708048 L 81.638683 50.039708048" />
<path class="stroke" d="M 43.113137825 66.58627568 L 92.0766365 66.58627568" />
<path class="stroke" d="M 67.7846701 39.13401434 L 67.7846701 90.27795375999999" />
</svg>
