<?xml version="1.0" standalone="no"?>
<!DOCTYPE svg PUBLIC "-//W3C//DTD SVG 1.1//EN" "http://www.w3.org/Graphics/SVG/1.1/DTD/svg11.dtd">
<svg xmlns="http://www.w3.org/2000/svg" version="1.1" width="100%" height="100%">
<style type="text/css"><![CDATA[
  .stroke { fill:none; stroke:black; stroke-width:2 }
]]></style>
<path class="stroke" d="M 50.6309 9.992101 L 50.6309 15.070965" />
<path class="stroke" d="M 6.466877 15.181355 L 6.466877 19.597759999999997" />
<path class="stroke" d="M 6.466877 15.181355 L 94.164055 15.181355 L 94.164055 19.597759999999997" />
<path class="stroke" d="M 26.459999999999997 21.3958684914 L 26.459999999999997 25.9236934392" />
<path class="stroke" d="M 11.7042036804 26.1799849978 L 41.524815780000004 26.1799849978" />
<path class="stroke" d="M 14.1763784148 29.85350397 C 17.266597362 32.9290067696 19.5842621016 36.944246551999996 20.8203489396 40.874057668" />
<path class="stroke" d="M 39.207149982000004 29.170057668 C 35.498889468 32.33099206 32.40867105 37.200540744 31.636115783999998 42.240947346" />
<path class="stroke" d="M 5.9872989456 43.095254492 L 46.62367894799999 43.095254492" />
<path class="stroke" d="M 16.840466932800002 51.9643058062 L 16.840466932800002 76.35700486 C 16.840466932800002 81.76514960200001 16.840466932800002 84.03397878 16.840466932800002 89.2806553844" />
<path class="stroke" d="M 16.840466932800002 51.9643058062 L 38.128642944 51.9643058062 L 38.128642944 88.344275386 C 38.128642944 89.459371984 37.520405831999994 90.43507733 35.9998229472 90.43507733 L 34.327183127999994 90.43507733" />
<path class="stroke" d="M 16.840466932800002 62.4711942598 L 38.128642944 62.4711942598" />
<path class="stroke" d="M 16.840466932800002 73.5696744064 L 38.128642944 73.5696744064" />
<path class="stroke" d="M 55.36276 27.59462889 L 91.32496 27.59462889" />
<path class="stroke" d="M 55.36276 22.7365857 L 55.36276 36.33909 L 88.17036 36.33909 L 88.17036 47.512637" />
<path class="stroke" d="M 55.36276 47.512637 L 88.17036 47.512637" />
<path class="stroke" d="M 55.36276 47.512637 L 55.36276 86.61985899999999 C 55.36276 88.72503900000001 56.94006 90.830142 60.09466 90.749215 L 89.74756 90.749215 C 92.48166 90.749215 93.95366 89.291836 94.16396 86.862794 L 94.16396 83.704947" />
<path class="stroke" d="M 55.36276 57.714521000000005 L 83.43846 57.714521000000005" />
<path class="stroke" d="M 55.67822 67.91632800000001 L 83.75392 67.91632800000001" />
<path class="stroke" d="M 55.67822 77.87543099999999 L 83.75392 77.87543099999999" />
</svg>
