<?xml version="1.0" standalone="no"?>
<!DOCTYPE svg PUBLIC "-//W3C//DTD SVG 1.1//EN" "http://www.w3.org/Graphics/SVG/1.1/DTD/svg11.dtd">
<svg xmlns="http://www.w3.org/2000/svg" version="1.1" width="100%" height="100%">
<style type="text/css"><![CDATA[
  .stroke { fill:none; stroke:black; stroke-width:2 }
]]></style>
<path class="stroke" d="M 18.321167 18.02817472 L 81.678825 18.02817472" />
<path class="stroke" d="M 50.0 9.395182132 L 50.0 29.281895440000003" />
<path class="stroke" d="M 9.854013 29.281895440000003 L 89.85401 29.281895440000003" />
<path class="stroke" d="M 12.52700684 43.275182 L 45.472989000000005 43.275182" />
<path class="stroke" d="M 29.0 34.2824813875 L 29.1583764 52.7243646" />
<path class="stroke" d="M 10.47005064 55.06954425000001 L 47.846698 50.546701750000004" />
<path class="stroke" d="M 54.1605835 43.275182 L 85.83941250000001 43.275182" />
<path class="stroke" d="M 70.0 34.2824813875 L 70.0 54.99780775" />
<path class="stroke" d="M 49.9270065 54.99780775 L 89.92700500000001 54.99780775" />
<path class="stroke" d="M 9.562042 63.5 L 90.43795 63.5" />
<path class="stroke" d="M 37.007298 65.562444671 L 37.007298 74.400837962 C 37.007298 82.193830715 29.416058 89.891786582 10.437956 91.887552725" />
<path class="stroke" d="M 54.233574 65.4674087615 L 54.233574 87.89602109 C 54.233574 90.271933475 58.029198 91.697480255 62.116783 91.697480255 L 84.8905 91.697480255 C 88.10219 91.79251649 90.43795 91.032223355 90.43795 89.986821515 L 90.43795 88.18113109699999" />
</svg>
