<?xml version="1.0" standalone="no"?>
<!DOCTYPE svg PUBLIC "-//W3C//DTD SVG 1.1//EN" "http://www.w3.org/Graphics/SVG/1.1/DTD/svg11.dtd">
<svg xmlns="http://www.w3.org/2000/svg" version="1.1" width="100%" height="100%">
<style type="text/css"><![CDATA[
  .stroke { fill:none; stroke:black; stroke-width:2 }
]]></style>
<path class="stroke" d="M 9.60396 33.069305 L 30.9901 30.9901" />
<path class="stroke" d="M 23.267326 9.60396 L 23.267326 84.15842 C 23.267326 87.42574 20.594059 90.09901 17.029703 90.09901" />
<path class="stroke" d="M 10.198019 63.36634 L 28.910892 46.435642" />
<path class="stroke" d="M 42.27518189 18.02817472 L 84.72481275000001 18.02817472" />
<path class="stroke" d="M 63.5 9.395182132 L 63.5 29.281895440000003" />
<path class="stroke" d="M 36.60218871 29.281895440000003 L 90.2021867 29.281895440000003" />
<path class="stroke" d="M 38.3930945828 43.275182 L 60.46690263000001 43.275182" />
<path class="stroke" d="M 49.43 34.2824813875 L 49.536112188000004 52.7243646" />
<path class="stroke" d="M 37.0149339288 55.06954425000001 L 62.05728766000001 50.546701750000004" />
<path class="stroke" d="M 66.287590945 43.275182 L 87.51240637500001 43.275182" />
<path class="stroke" d="M 76.9 34.2824813875 L 76.9 54.99780775" />
<path class="stroke" d="M 63.451094355 54.99780775 L 90.25109335000002 54.99780775" />
<path class="stroke" d="M 36.40656814 63.5 L 90.5934265 63.5" />
<path class="stroke" d="M 54.794889659999996 65.562444671 L 54.794889659999996 74.400837962 C 54.794889659999996 82.193830715 49.70875886 89.891786582 36.993430520000004 91.887552725" />
<path class="stroke" d="M 66.33649458 65.4674087615 L 66.33649458 87.89602109 C 66.33649458 90.271933475 68.87956266 91.697480255 71.61824461 91.697480255 L 86.87663500000001 91.697480255 C 89.02846729999999 91.79251649 90.5934265 91.032223355 90.5934265 89.986821515 L 90.5934265 88.18113109699999" />
</svg>
