<?xml version="1.0" standalone="no"?>
<!DOCTYPE svg PUBLIC "-//W3C//DTD SVG 1.1//EN" "http://www.w3.org/Graphics/SVG/1.1/DTD/svg11.dtd">
<svg xmlns="http://www.w3.org/2000/svg" version="1.1" width="100%" height="100%">
<style type="text/css"><![CDATA[
  .stroke { fill:none; stroke:black; stroke-width:2 }
]]></style>
<path class="stroke" d="M 15.10291972 10.145985 L 34.615327300000004 10.145985 L 33.897076999999996 29.416058" />
<path class="stroke" d="M 16.8985385 29.416058 L 33.7773693 29.416058" />
<path class="stroke" d="M 16.77883121 29.416058 L 15.3423343 48.9781 L 36.051823799999994 48.9781 C 34.615327300000004 77.59124 30.305837799999995 89.270065 28.390508039999997 89.270065 L 27.31313833 89.270065" />
<path class="stroke" d="M 56.916405 7.883286599999999 L 56.916405 26.123075999999998 C 56.800740000000005 40.240759999999995 50.612525000000005 46.93906 43.556784 49.927471999999995" />
<path class="stroke" d="M 57.08993 7.8832768 L 75.8281 7.8832768 L 75.8281 36.015686 C 75.654575 40.034568 77.04261 42.507794000000004 78.95111 42.507794000000004 L 90.9973805 42.507794000000004" />
<path class="stroke" d="M 51.537845000000004 52.0915178 L 80.51267000000001 52.0915178 C 73.16775000000001 75.6898198 59.750280000000004 87.2313778 44.597791 92.2807298" />
<path class="stroke" d="M 55.701895 52.0915178 C 58.42010500000001 74.1440658 73.977405 90.32288580000001 91.09621 91.9716378" />
</svg>
