<?xml version="1.0" standalone="no"?>
<!DOCTYPE svg PUBLIC "-//W3C//DTD SVG 1.1//EN" "http://www.w3.org/Graphics/SVG/1.1/DTD/svg11.dtd">
<svg xmlns="http://www.w3.org/2000/svg" version="1.1" width="100%" height="100%">
<style type="text/css"><![CDATA[
  .stroke { fill:none; stroke:black; stroke-width:2 }
]]></style>
<path class="stroke" d="M 14.3533 4.663876724137931 L 50.0 4.663876724137931 C 41.4826 17.925793103448274 30.7571 24.71537068965517 7.09779 31.885663793103447" />
<path class="stroke" d="M 15.930558 13.610950862068965 C 19.190258 15.260718103448276 21.503658 17.100873275862067 23.817059 19.131416379310345" />
<path class="stroke" d="M 77.76028 5.425322844827586 L 64.82658 12.849474568965517" />
<path class="stroke" d="M 50.3154 4.854234482758621 C 59.2534 18.56037931034483 72.6078 26.555525862068965 92.9022 32.26643965517241" />
<path class="stroke" d="M 89.11671 13.991593965517241 L 76.81381 21.03504224137931" />
<path class="stroke" d="M 15.10291972 35.3051092 L 34.615327300000004 35.3051092 L 33.897076999999996 49.17956176" />
<path class="stroke" d="M 16.8985385 49.17956176 L 33.7773693 49.17956176" />
<path class="stroke" d="M 16.77883121 49.17956176 L 15.3423343 63.264232 L 36.051823799999994 63.264232 C 34.615327300000004 83.8656928 30.305837799999995 92.27444679999999 28.390508039999997 92.27444679999999 L 27.31313833 92.27444679999999" />
<path class="stroke" d="M 56.916405 33.675966351999996 L 56.916405 46.808614719999994 C 56.800740000000005 56.97334719999999 50.612525000000005 61.7961232 43.556784 63.947779839999995" />
<path class="stroke" d="M 57.08993 33.675959296 L 75.8281 33.675959296 L 75.8281 53.93129392 C 75.654575 56.824888959999996 77.04261 58.60561168 78.95111 58.60561168 L 90.9973805 58.60561168" />
<path class="stroke" d="M 51.537845000000004 65.505892816 L 80.51267000000001 65.505892816 C 73.16775000000001 82.49667025599999 59.750280000000004 90.806592016 44.597791 94.442125456" />
<path class="stroke" d="M 55.701895 65.505892816 C 58.42010500000001 81.383727376 73.977405 93.03247777600001 91.09621 94.219579216" />
</svg>
