<?xml version="1.0" standalone="no"?>
<!DOCTYPE svg PUBLIC "-//W3C//DTD SVG 1.1//EN" "http://www.w3.org/Graphics/SVG/1.1/DTD/svg11.dtd">
<svg xmlns="http://www.w3.org/2000/svg" version="1.1" width="100%" height="100%">
<style type="text/css"><![CDATA[
  .stroke { fill:none; stroke:black; stroke-width:2 }
]]></style>
<path class="stroke" d="M 13.154171785714285 14.059406 C 16.654879285714284 16.138615 20.15558785714286 19.108912 23.01980357142857 22.673267" />
<path class="stroke" d="M 10.926448928571428 38.118813 C 14.108912142857141 39.90099 17.927864999999997 42.574257 20.473834285714286 46.138615" />
<path class="stroke" d="M 10.608203571428572 85.64356 C 11.321795357142857 87.422676 13.310014285714285 89.896904 15.629600357142856 89.896904 C 17.949189642857142 89.896904 21.110325 76.73267 23.33804892857143 69.60396" />
<path class="stroke" d="M 59.204145008000005 10.07080263 L 59.204145008000005 54.9525501 C 59.204145008000005 56.240140950000004 57.941019088000004 56.9759085 57.025400384 56.9759085 L 55.42306432 56.9759085" />
<path class="stroke" d="M 41.002042096 26.809486200000002 C 39.85751656000001 33.2474436 36.423940736000006 38.76569235 31.616932544 43.18029197999999" />
<path class="stroke" d="M 75.33780895999999 26.809486200000002 C 79.91591032 30.6722619 83.80729510399999 35.82262719 86.096346176 43.54817292" />
<path class="stroke" d="M 76.5678 46.012672 C 69.96924960000001 63.644608 55.5271728 80.468992 39.9646176 87.40064000000001" />
</svg>
