<?xml version="1.0" standalone="no"?>
<!DOCTYPE svg PUBLIC "-//W3C//DTD SVG 1.1//EN" "http://www.w3.org/Graphics/SVG/1.1/DTD/svg11.dtd">
<svg xmlns="http://www.w3.org/2000/svg" version="1.1" width="100%" height="100%">
<style type="text/css"><![CDATA[
  .stroke { fill:none; stroke:black; stroke-width:2 }
]]></style>
<path class="stroke" d="M 13.154171785714285 14.059406 C 16.654879285714284 16.138615 20.15558785714286 19.108912 23.01980357142857 22.673267" />
<path class="stroke" d="M 10.926448928571428 38.118813 C 14.108912142857141 39.90099 17.927864999999997 42.574257 20.473834285714286 46.138615" />
<path class="stroke" d="M 10.608203571428572 85.64356 C 11.321795357142857 87.422676 13.310014285714285 89.896904 15.629600357142856 89.896904 C 17.949189642857142 89.896904 21.110325 76.73267 23.33804892857143 69.60396" />
<path class="stroke" d="M 32.3211672 37.007298 L 87.9124 37.007298" />
<path class="stroke" d="M 60.116784 9.270073 L 60.116784 40.218975 C 60.116784 62.70073 47.8503568 85.808914 28.58394 91.0219" />
<path class="stroke" d="M 60.116784 39.927006 C 60.116784 62.9927 72.642792 85.75592 91.649632 91.0219" />
<path class="stroke" d="M 53.078866 78.3564618 C 57.747645999999996 81.3638298 60.460566 85.3554278 62.100946 90.9053878" />
</svg>
