<?xml version="1.0" standalone="no"?>
<!DOCTYPE svg PUBLIC "-//W3C//DTD SVG 1.1//EN" "http://www.w3.org/Graphics/SVG/1.1/DTD/svg11.dtd">
<svg xmlns="http://www.w3.org/2000/svg" version="1.1" width="100%" height="100%">
<style type="text/css"><![CDATA[
  .stroke { fill:none; stroke:black; stroke-width:2 }
]]></style>
<path class="stroke" d="M 39.27446 3.5946364900000005 L 39.27446 31.34856879 C 39.27446 43.4421072 25.39436 48.346462200000005 8.04416 49.906941200000006" />
<path class="stroke" d="M 7.09779 12.957387 L 36.4353 12.957387" />
<path class="stroke" d="M 11.8297 23.992093 L 36.4353 23.992093" />
<path class="stroke" d="M 7.41325 35.695606000000005 L 36.1199 32.686107" />
<path class="stroke" d="M 61.9874 3.5946402 L 61.9874 49.739758" />
<path class="stroke" d="M 61.9874 13.124602000000001 L 93.2177 13.124602000000001" />
<path class="stroke" d="M 61.9874 24.159308 L 88.4858 24.159308" />
<path class="stroke" d="M 61.9874 35.862768 L 92.9022 35.862768" />
<path class="stroke" d="M 16.435644 57.0336632 L 45.247524 57.0336632 L 45.247524 88.8455447 C 45.247524 90.2178212 43.465347 90.8415842 40.79208 90.8415842 L 37.227722 90.8415842" />
<path class="stroke" d="M 12.561308 70.77275108 C 25.9673 67.6141688 35.122616 63.49427708 45.247524 57.0336632" />
<path class="stroke" d="M 12.561308 85.47275108 C 25.9673 82.3141688 35.122616 78.19427708 45.247524 71.7336632" />
<path class="stroke" d="M 59.435644 57.0336632 L 88.247524 57.0336632 L 88.247524 88.8455447 C 88.247524 90.2178212 86.465347 90.8415842 83.79208 90.8415842 L 80.227722 90.8415842" />
<path class="stroke" d="M 55.561308 70.77275108 C 68.9673 67.6141688 78.122616 63.49427708 88.247524 57.0336632" />
<path class="stroke" d="M 55.561308 85.47275108 C 68.9673 82.3141688 78.122616 78.19427708 88.247524 71.7336632" />
</svg>
