<?xml version="1.0" standalone="no"?>
<!DOCTYPE svg PUBLIC "-//W3C//DTD SVG 1.1//EN" "http://www.w3.org/Graphics/SVG/1.1/DTD/svg11.dtd">
<svg xmlns="http://www.w3.org/2000/svg" version="1.1" width="100%" height="100%">
<style type="text/css"><![CDATA[
  .stroke { fill:none; stroke:black; stroke-width:2 }
]]></style>
<path class="stroke" d="M 16.435644 8.0336632 L 45.247524 8.0336632 L 45.247524 39.8455447 C 45.247524 41.2178212 43.465347 41.8415842 40.79208 41.8415842 L 37.227722 41.8415842" />
<path class="stroke" d="M 12.561308 21.77275108 C 25.9673 18.614168799999998 35.122616 14.49427708 45.247524 8.0336632" />
<path class="stroke" d="M 12.561308 36.47275108 C 25.9673 33.314168800000004 35.122616 29.19427708 45.247524 22.7336632" />
<path class="stroke" d="M 59.435644 8.0336632 L 88.247524 8.0336632 L 88.247524 39.8455447 C 88.247524 41.2178212 86.465347 41.8415842 83.79208 41.8415842 L 80.227722 41.8415842" />
<path class="stroke" d="M 55.561308 21.77275108 C 68.9673 18.614168799999998 78.122616 14.49427708 88.247524 8.0336632" />
<path class="stroke" d="M 55.561308 36.47275108 C 68.9673 33.314168800000004 78.122616 29.19427708 88.247524 22.7336632" />
<path class="stroke" d="M 51.6416006 43.079269168 C 40.5963464 50.584086712 28.135034790000002 56.470218544000005 12.55839261 60.001896232" />
<path class="stroke" d="M 51.6416006 43.079269168 C 62.97006958 50.289779440000004 74.58174752 56.470218544000005 90.7248115 59.854743856" />
<path class="stroke" d="M 52.92724442 57.6978172093 C 42.460764 64.1948842207 34.5316057 67.1014667485 19.624795080000002 70.86292802829999" />
<path class="stroke" d="M 67.8340531 64.365860494 C 57.0504079 70.86292802829999 43.72942506 77.1890219038 25.01662156 81.1214557966" />
<path class="stroke" d="M 83.3751991 71.03390430159999 C 69.10271610000001 79.9246286812 52.61008061 87.96047326300001 22.796456459999998 93.43169100099999" />
</svg>
