<?xml version="1.0" standalone="no"?>
<!DOCTYPE svg PUBLIC "-//W3C//DTD SVG 1.1//EN" "http://www.w3.org/Graphics/SVG/1.1/DTD/svg11.dtd">
<svg xmlns="http://www.w3.org/2000/svg" version="1.1" width="100%" height="100%">
<style type="text/css"><![CDATA[
  .stroke { fill:none; stroke:black; stroke-width:2 }
]]></style>
<path class="stroke" d="M 11.66930724 8.0336632 L 32.12574204 8.0336632 L 32.12574204 39.8455447 C 32.12574204 41.2178212 30.86039637 41.8415842 28.962376799999998 41.8415842 L 26.43168262 41.8415842" />
<path class="stroke" d="M 8.91852868 21.77275108 C 18.436783000000002 18.614168799999998 24.93705736 14.49427708 32.12574204 8.0336632" />
<path class="stroke" d="M 8.91852868 36.47275108 C 18.436783000000002 33.314168800000004 24.93705736 29.19427708 32.12574204 22.7336632" />
<path class="stroke" d="M 42.19930724 8.0336632 L 62.65574203999999 8.0336632 L 62.65574203999999 39.8455447 C 62.65574203999999 41.2178212 61.39039636999999 41.8415842 59.492376799999995 41.8415842 L 56.96168262 41.8415842" />
<path class="stroke" d="M 39.448528679999995 21.77275108 C 48.96678299999999 18.614168799999998 55.46705735999999 14.49427708 62.65574203999999 8.0336632" />
<path class="stroke" d="M 39.448528679999995 36.47275108 C 48.96678299999999 33.314168800000004 55.46705735999999 29.19427708 62.65574203999999 22.7336632" />
<path class="stroke" d="M 36.665536425999996 43.079269168 C 28.823405944 50.584086712 19.9758747009 56.470218544000005 8.9164587531 60.001896232" />
<path class="stroke" d="M 36.665536425999996 43.079269168 C 44.7087494018 50.289779440000004 52.95304073919999 56.470218544000005 64.414616165 59.854743856" />
<path class="stroke" d="M 37.5783435382 57.6978172093 C 30.147142439999996 64.1948842207 24.517440046999997 67.1014667485 13.9336045068 70.86292802829999" />
<path class="stroke" d="M 48.162177701000005 64.365860494 C 40.505789609 70.86292802829999 31.047891792599998 77.1890219038 17.7618013076 81.1214557966" />
<path class="stroke" d="M 59.196391360999996 71.03390430159999 C 49.062928431 79.9246286812 37.3531572331 87.96047326300001 16.1854840866 93.43169100099999" />
<path class="stroke" d="M 64.2176648 30.1262 L 97.78232 30.1262" />
<path class="stroke" d="M 77.164052 5.83596 L 77.164052 30.1262 C 77.32388 58.0967 86.953726 92.6919 96.104088 93.2176 L 96.104088 82.4922" />
<path class="stroke" d="M 91.309134 41.4827 C 86.873812 66.9295 78.482614 83.8591 66.615138 91.9558" />
<path class="stroke" d="M 82.23243120000001 11.0810795 C 83.8307492 14.23564 83.82498612 15.754585 84.94378136 20.486485" />
</svg>
