<?xml version="1.0" standalone="no"?>
<!DOCTYPE svg PUBLIC "-//W3C//DTD SVG 1.1//EN" "http://www.w3.org/Graphics/SVG/1.1/DTD/svg11.dtd">
<svg xmlns="http://www.w3.org/2000/svg" version="1.1" width="100%" height="100%">
<style type="text/css"><![CDATA[
  .stroke { fill:none; stroke:black; stroke-width:2 }
]]></style>
<path class="stroke" d="M 9.60396 33.069305 L 30.9901 30.9901" />
<path class="stroke" d="M 23.267326 9.60396 L 23.267326 84.15842 C 23.267326 87.42574 20.594059 90.09901 17.029703 90.09901" />
<path class="stroke" d="M 10.198019 63.36634 L 28.910892 46.435642" />
<path class="stroke" d="M 41.5049508 9.60396 L 61.67326679999999 9.60396 L 61.67326679999999 85.346535 C 61.67326679999999 88.61386 60.4257429 90.09901 58.554456 90.09901 L 56.0594054 90.09901" />
<path class="stroke" d="M 38.7929156 42.316074 C 48.17711 34.79564 54.5858312 24.986374 61.67326679999999 9.60396" />
<path class="stroke" d="M 38.7929156 77.316074 C 48.17711 69.79564 54.5858312 59.986374 61.67326679999999 44.60396" />
<path class="stroke" d="M 71.6049508 9.60396 L 91.77326679999999 9.60396 L 91.77326679999999 85.346535 C 91.77326679999999 88.61386 90.52574289999998 90.09901 88.654456 90.09901 L 86.1594054 90.09901" />
<path class="stroke" d="M 68.8929156 42.316074 C 78.27711 34.79564 84.6858312 24.986374 91.77326679999999 9.60396" />
<path class="stroke" d="M 68.8929156 77.316074 C 78.27711 69.79564 84.6858312 59.986374 91.77326679999999 44.60396" />
</svg>
