<?xml version="1.0" standalone="no"?>
<!DOCTYPE svg PUBLIC "-//W3C//DTD SVG 1.1//EN" "http://www.w3.org/Graphics/SVG/1.1/DTD/svg11.dtd">
<svg xmlns="http://www.w3.org/2000/svg" version="1.1" width="100%" height="100%">
<style type="text/css"><![CDATA[
  .stroke { fill:none; stroke:black; stroke-width:2 }
]]></style>
<path class="stroke" d="M 24.744522 5.2978099 L 24.744522 33.256931200000004" />
<path class="stroke" d="M 24.744522 5.2978099 L 74.9635 5.2978099 L 74.9635 33.256931200000004" />
<path class="stroke" d="M 25.036495 18.51574434 L 74.67153 18.51574434" />
<path class="stroke" d="M 24.744522 32.036494319999996 L 74.9635 32.036494319999996" />
<path class="stroke" d="M 16.435644 43.762376 L 45.247524 43.762376 L 45.247524 89.207921 C 45.247524 91.168316 43.465347 92.059406 40.79208 92.059406 L 37.227722 92.059406" />
<path class="stroke" d="M 12.561308 63.389644399999995 C 25.9673 58.877384 35.122616 52.9918244 45.247524 43.762376" />
<path class="stroke" d="M 12.561308 84.38964440000001 C 25.9673 79.877384 35.122616 73.9918244 45.247524 64.762376" />
<path class="stroke" d="M 59.435644 43.762376 L 88.247524 43.762376 L 88.247524 89.207921 C 88.247524 91.168316 86.465347 92.059406 83.79208 92.059406 L 80.227722 92.059406" />
<path class="stroke" d="M 55.561308 63.389644399999995 C 68.9673 58.877384 78.122616 52.9918244 88.247524 43.762376" />
<path class="stroke" d="M 55.561308 84.38964440000001 C 68.9673 79.877384 78.122616 73.9918244 88.247524 64.762376" />
</svg>
