<?xml version="1.0" standalone="no"?>
<!DOCTYPE svg PUBLIC "-//W3C//DTD SVG 1.1//EN" "http://www.w3.org/Graphics/SVG/1.1/DTD/svg11.dtd">
<svg xmlns="http://www.w3.org/2000/svg" version="1.1" width="100%" height="100%">
<style type="text/css"><![CDATA[
  .stroke { fill:none; stroke:black; stroke-width:2 }
]]></style>
<path class="stroke" d="M 9.60396 33.069305 L 30.9901 30.9901" />
<path class="stroke" d="M 23.267326 9.60396 L 23.267326 84.15842 C 23.267326 87.42574 20.594059 90.09901 17.029703 90.09901" />
<path class="stroke" d="M 10.198019 63.36634 L 28.910892 46.435642" />
<path class="stroke" d="M 43.5583915 5.2978099 L 43.5583915 33.256931200000004" />
<path class="stroke" d="M 43.5583915 5.2978099 L 81.222625 5.2978099 L 81.222625 33.256931200000004" />
<path class="stroke" d="M 43.77737125 18.51574434 L 81.0036475 18.51574434" />
<path class="stroke" d="M 43.5583915 32.036494319999996 L 81.222625 32.036494319999996" />
<path class="stroke" d="M 37.326733000000004 43.762376 L 58.935643 43.762376 L 58.935643 89.207921 C 58.935643 91.168316 57.59901025 92.059406 55.59406 92.059406 L 52.9207915 92.059406" />
<path class="stroke" d="M 34.420981 63.389644399999995 C 44.475475 58.877384 51.341962 52.9918244 58.935643 43.762376" />
<path class="stroke" d="M 34.420981 84.38964440000001 C 44.475475 79.877384 51.341962 73.9918244 58.935643 64.762376" />
<path class="stroke" d="M 69.576733 43.762376 L 91.185643 43.762376 L 91.185643 89.207921 C 91.185643 91.168316 89.84901024999999 92.059406 87.84406 92.059406 L 85.1707915 92.059406" />
<path class="stroke" d="M 66.670981 63.389644399999995 C 76.72547499999999 58.877384 83.591962 52.9918244 91.185643 43.762376" />
<path class="stroke" d="M 66.670981 84.38964440000001 C 76.72547499999999 79.877384 83.591962 73.9918244 91.185643 64.762376" />
</svg>
