<?xml version="1.0" standalone="no"?>
<!DOCTYPE svg PUBLIC "-//W3C//DTD SVG 1.1//EN" "http://www.w3.org/Graphics/SVG/1.1/DTD/svg11.dtd">
<svg xmlns="http://www.w3.org/2000/svg" version="1.1" width="100%" height="100%">
<style type="text/css"><![CDATA[
  .stroke { fill:none; stroke:black; stroke-width:2 }
]]></style>
<path class="stroke" d="M 26.240875 6.87372263 L 26.240875 31.67372015" />
<path class="stroke" d="M 26.240875 15.381750440000001 L 38.503645 15.381750440000001" />
<path class="stroke" d="M 15.2919695 15.924816499999999 L 15.2919695 31.67372015" />
<path class="stroke" d="M 4.9270065 31.67372015 L 45.218975 31.67372015" />
<path class="stroke" d="M 8.343848 40.7145131 L 8.343848 92.862797 L 41.65616 92.862797" />
<path class="stroke" d="M 41.65616 40.3296519 L 41.65616 92.862797" />
<path class="stroke" d="M 16.257226000000003 50.0812032475 C 17.411094480000003 51.68412358 18.476204384 53.5541964625 19.165723200000002 56.3157145" />
<path class="stroke" d="M 33.56525472 50.0812032475 C 33.032699920000006 52.485583975 32.05635072 54.48923359 30.724962960000006 56.22572974" />
<path class="stroke" d="M 14.304524864 61.835947472499996 L 35.7842328 61.835947472499996" />
<path class="stroke" d="M 25.0 46.4938117 L 25.044377920000002 83.45618830000001" />
<path class="stroke" d="M 23.357955248 63.038138065 C 21.531177600000003 69.40625349999999 17.8419248 75.88138824999999 13.416934240000002 79.33448662" />
<path class="stroke" d="M 26.819560688 63.171713425 C 28.311320000000002 69.45433675000001 32.0230384 76.26262299999999 36.49430384 79.4680624375" />
<path class="stroke" d="M 75.07299 10.5182462 C 69.37956 26.897808300000005 62.9562035 39.7445246 54.9270065 47.4525513" />
<path class="stroke" d="M 75.07299 10.5182462 C 80.912407 26.255471 86.897808 39.7445246 95.218975 47.1313854" />
<path class="stroke" d="M 65.29489008 41.25 L 84.705108 41.25" />
<path class="stroke" d="M 60.33119 54.5804832 L 90.14194 54.5804832 L 90.14194 81.28071768 C 90.08933999999999 84.9568592 88.93269000000001 87.18187920000001 87.14509000000001 87.08518720000001 L 83.51733999999999 87.08518720000001" />
<path class="stroke" d="M 74.21137 54.870688 L 74.21137 94.34071200000001" />
</svg>
