<?xml version="1.0" standalone="no"?>
<!DOCTYPE svg PUBLIC "-//W3C//DTD SVG 1.1//EN" "http://www.w3.org/Graphics/SVG/1.1/DTD/svg11.dtd">
<svg xmlns="http://www.w3.org/2000/svg" version="1.1" width="100%" height="100%">
<style type="text/css"><![CDATA[
  .stroke { fill:none; stroke:black; stroke-width:2 }
]]></style>
<path class="stroke" d="M 9.60396 33.069305 L 30.9901 30.9901" />
<path class="stroke" d="M 23.267326 9.60396 L 23.267326 84.15842 C 23.267326 87.42574 20.594059 90.09901 17.029703 90.09901" />
<path class="stroke" d="M 10.198019 63.36634 L 28.910892 46.435642" />
<path class="stroke" d="M 37.326733000000004 8.0336632 L 58.935643 8.0336632 L 58.935643 39.8455447 C 58.935643 41.2178212 57.59901025 41.8415842 55.59406 41.8415842 L 52.9207915 41.8415842" />
<path class="stroke" d="M 34.420981 21.77275108 C 44.475475 18.614168799999998 51.341962 14.49427708 58.935643 8.0336632" />
<path class="stroke" d="M 34.420981 36.47275108 C 44.475475 33.314168800000004 51.341962 29.19427708 58.935643 22.7336632" />
<path class="stroke" d="M 69.576733 8.0336632 L 91.185643 8.0336632 L 91.185643 39.8455447 C 91.185643 41.2178212 89.84901024999999 41.8415842 87.84406 41.8415842 L 85.1707915 41.8415842" />
<path class="stroke" d="M 66.670981 21.77275108 C 76.72547499999999 18.614168799999998 83.591962 14.49427708 91.185643 8.0336632" />
<path class="stroke" d="M 66.670981 36.47275108 C 76.72547499999999 33.314168800000004 83.591962 29.19427708 91.185643 22.7336632" />
<path class="stroke" d="M 63.731200449999996 43.079269168 C 55.4472598 50.584086712 46.1012760925 56.470218544000005 34.4187944575 60.001896232" />
<path class="stroke" d="M 63.731200449999996 43.079269168 C 72.22755218500001 50.289779440000004 80.93631063999999 56.470218544000005 93.043608625 59.854743856" />
<path class="stroke" d="M 64.695433315 57.6978172093 C 56.845573 64.1948842207 50.898704275 67.1014667485 39.71859631 70.86292802829999" />
<path class="stroke" d="M 75.875539825 64.365860494 C 67.787805925 70.86292802829999 57.797068795 77.1890219038 43.762466169999996 81.1214557966" />
<path class="stroke" d="M 87.531399325 71.03390430159999 C 76.827037075 79.9246286812 64.4575604575 87.96047326300001 42.097342345 93.43169100099999" />
</svg>
