<?xml version="1.0" standalone="no"?>
<!DOCTYPE svg PUBLIC "-//W3C//DTD SVG 1.1//EN" "http://www.w3.org/Graphics/SVG/1.1/DTD/svg11.dtd">
<svg xmlns="http://www.w3.org/2000/svg" version="1.1" width="100%" height="100%">
<style type="text/css"><![CDATA[
  .stroke { fill:none; stroke:black; stroke-width:2 }
]]></style>
<path class="stroke" d="M 10.437956 27.956203 L 33.211678 27.956203" />
<path class="stroke" d="M 23.86861 9.270073 L 23.86861 90.14598" />
<path class="stroke" d="M 23.86861 36.131386 C 20.07299 44.598537 15.401459 52.48175 8.686131 56.861313" />
<path class="stroke" d="M 23.86861 36.131386 C 28.248173 37.299267 31.167881 42.26277 32.627735 46.934303" />
<path class="stroke" d="M 41.5049508 9.60396 L 61.67326679999999 9.60396 L 61.67326679999999 85.346535 C 61.67326679999999 88.61386 60.4257429 90.09901 58.554456 90.09901 L 56.0594054 90.09901" />
<path class="stroke" d="M 38.7929156 42.316074 C 48.17711 34.79564 54.5858312 24.986374 61.67326679999999 9.60396" />
<path class="stroke" d="M 38.7929156 77.316074 C 48.17711 69.79564 54.5858312 59.986374 61.67326679999999 44.60396" />
<path class="stroke" d="M 71.6049508 9.60396 L 91.77326679999999 9.60396 L 91.77326679999999 85.346535 C 91.77326679999999 88.61386 90.52574289999998 90.09901 88.654456 90.09901 L 86.1594054 90.09901" />
<path class="stroke" d="M 68.8929156 42.316074 C 78.27711 34.79564 84.6858312 24.986374 91.77326679999999 9.60396" />
<path class="stroke" d="M 68.8929156 77.316074 C 78.27711 69.79564 84.6858312 59.986374 91.77326679999999 44.60396" />
</svg>
