<?xml version="1.0" standalone="no"?>
<!DOCTYPE svg PUBLIC "-//W3C//DTD SVG 1.1//EN" "http://www.w3.org/Graphics/SVG/1.1/DTD/svg11.dtd">
<svg xmlns="http://www.w3.org/2000/svg" version="1.1" width="100%" height="100%">
<style type="text/css"><![CDATA[
  .stroke { fill:none; stroke:black; stroke-width:2 }
]]></style>
<path class="stroke" d="M 9.84150137142857 27.956203 L 31.31386782857143 27.956203" />
<path class="stroke" d="M 22.504689428571428 9.270073 L 22.504689428571428 90.14598" />
<path class="stroke" d="M 22.504689428571428 36.131386 C 18.925962000000002 44.598537 14.521375628571427 52.48175 8.189780657142856 56.861313" />
<path class="stroke" d="M 22.504689428571428 36.131386 C 26.633991685714285 37.299267 29.386859228571428 42.26277 30.763293 46.934303" />
<path class="stroke" d="M 43.5583915 5.2978099 L 43.5583915 33.256931200000004" />
<path class="stroke" d="M 43.5583915 5.2978099 L 81.222625 5.2978099 L 81.222625 33.256931200000004" />
<path class="stroke" d="M 43.77737125 18.51574434 L 81.0036475 18.51574434" />
<path class="stroke" d="M 43.5583915 32.036494319999996 L 81.222625 32.036494319999996" />
<path class="stroke" d="M 37.326733000000004 43.762376 L 58.935643 43.762376 L 58.935643 89.207921 C 58.935643 91.168316 57.59901025 92.059406 55.59406 92.059406 L 52.9207915 92.059406" />
<path class="stroke" d="M 34.420981 63.389644399999995 C 44.475475 58.877384 51.341962 52.9918244 58.935643 43.762376" />
<path class="stroke" d="M 34.420981 84.38964440000001 C 44.475475 79.877384 51.341962 73.9918244 58.935643 64.762376" />
<path class="stroke" d="M 69.576733 43.762376 L 91.185643 43.762376 L 91.185643 89.207921 C 91.185643 91.168316 89.84901024999999 92.059406 87.84406 92.059406 L 85.1707915 92.059406" />
<path class="stroke" d="M 66.670981 63.389644399999995 C 76.72547499999999 58.877384 83.591962 52.9918244 91.185643 43.762376" />
<path class="stroke" d="M 66.670981 84.38964440000001 C 76.72547499999999 79.877384 83.591962 73.9918244 91.185643 64.762376" />
</svg>
