<?xml version="1.0" standalone="no"?>
<!DOCTYPE svg PUBLIC "-//W3C//DTD SVG 1.1//EN" "http://www.w3.org/Graphics/SVG/1.1/DTD/svg11.dtd">
<svg xmlns="http://www.w3.org/2000/svg" version="1.1" width="100%" height="100%">
<style type="text/css"><![CDATA[
  .stroke { fill:none; stroke:black; stroke-width:2 }
]]></style>
<path class="stroke" d="M 9.84150137142857 27.956203 L 31.31386782857143 27.956203" />
<path class="stroke" d="M 22.504689428571428 9.270073 L 22.504689428571428 90.14598" />
<path class="stroke" d="M 22.504689428571428 36.131386 C 18.925962000000002 44.598537 14.521375628571427 52.48175 8.189780657142856 56.861313" />
<path class="stroke" d="M 22.504689428571428 36.131386 C 26.633991685714285 37.299267 29.386859228571428 42.26277 30.763293 46.934303" />
<path class="stroke" d="M 37.326733000000004 8.0336632 L 58.935643 8.0336632 L 58.935643 39.8455447 C 58.935643 41.2178212 57.59901025 41.8415842 55.59406 41.8415842 L 52.9207915 41.8415842" />
<path class="stroke" d="M 34.420981 21.77275108 C 44.475475 18.614168799999998 51.341962 14.49427708 58.935643 8.0336632" />
<path class="stroke" d="M 34.420981 36.47275108 C 44.475475 33.314168800000004 51.341962 29.19427708 58.935643 22.7336632" />
<path class="stroke" d="M 69.576733 8.0336632 L 91.185643 8.0336632 L 91.185643 39.8455447 C 91.185643 41.2178212 89.84901024999999 41.8415842 87.84406 41.8415842 L 85.1707915 41.8415842" />
<path class="stroke" d="M 66.670981 21.77275108 C 76.72547499999999 18.614168799999998 83.591962 14.49427708 91.185643 8.0336632" />
<path class="stroke" d="M 66.670981 36.47275108 C 76.72547499999999 33.314168800000004 83.591962 29.19427708 91.185643 22.7336632" />
<path class="stroke" d="M 63.731200449999996 43.079269168 C 55.4472598 50.584086712 46.1012760925 56.470218544000005 34.4187944575 60.001896232" />
<path class="stroke" d="M 63.731200449999996 43.079269168 C 72.22755218500001 50.289779440000004 80.93631063999999 56.470218544000005 93.043608625 59.854743856" />
<path class="stroke" d="M 64.695433315 57.6978172093 C 56.845573 64.1948842207 50.898704275 67.1014667485 39.71859631 70.86292802829999" />
<path class="stroke" d="M 75.875539825 64.365860494 C 67.787805925 70.86292802829999 57.797068795 77.1890219038 43.762466169999996 81.1214557966" />
<path class="stroke" d="M 87.531399325 71.03390430159999 C 76.827037075 79.9246286812 64.4575604575 87.96047326300001 42.097342345 93.43169100099999" />
</svg>
