<?xml version="1.0" standalone="no"?>
<!DOCTYPE svg PUBLIC "-//W3C//DTD SVG 1.1//EN" "http://www.w3.org/Graphics/SVG/1.1/DTD/svg11.dtd">
<svg xmlns="http://www.w3.org/2000/svg" version="1.1" width="100%" height="100%">
<style type="text/css"><![CDATA[
  .stroke { fill:none; stroke:black; stroke-width:2 }
]]></style>
<path class="stroke" d="M 50.14598 5.911094034 C 38.75912 13.013867781000002 25.912407 18.584671122 9.854013 21.927151791" />
<path class="stroke" d="M 50.14598 5.911094034 C 61.824814 12.735326970000001 73.795616 18.584671122 90.43795 21.787882577999998" />
<path class="stroke" d="M 35.44233512 19.35 L 64.557662 19.35" />
<path class="stroke" d="M 30.9927002 26.4110581125 L 30.9927002 39.802006575" />
<path class="stroke" d="M 30.9927002 26.4110581125 L 69.18248 26.4110581125 L 69.18248 39.673247804999995" />
<path class="stroke" d="M 30.9927002 38.771933327999996 L 69.18248 38.771933327999996" />
<path class="stroke" d="M 16.435644 48.4742572 L 45.247524 48.4742572 L 45.247524 91.64752494999999 C 45.247524 93.5099002 43.465347 94.35643569999999 40.79208 94.35643569999999 L 37.227722 94.35643569999999" />
<path class="stroke" d="M 12.561308 67.12016218 C 25.9673 62.833514799999996 35.122616 57.24223318 45.247524 48.4742572" />
<path class="stroke" d="M 12.561308 87.07016218 C 25.9673 82.7835148 35.122616 77.19223317999999 45.247524 68.4242572" />
<path class="stroke" d="M 59.435644 48.4742572 L 88.247524 48.4742572 L 88.247524 91.64752494999999 C 88.247524 93.5099002 86.465347 94.35643569999999 83.79208 94.35643569999999 L 80.227722 94.35643569999999" />
<path class="stroke" d="M 55.561308 67.12016218 C 68.9673 62.833514799999996 78.122616 57.24223318 88.247524 48.4742572" />
<path class="stroke" d="M 55.561308 87.07016218 C 68.9673 82.7835148 78.122616 77.19223317999999 88.247524 68.4242572" />
</svg>
