<?xml version="1.0" standalone="no"?>
<!DOCTYPE svg PUBLIC "-//W3C//DTD SVG 1.1//EN" "http://www.w3.org/Graphics/SVG/1.1/DTD/svg11.dtd">
<svg xmlns="http://www.w3.org/2000/svg" version="1.1" width="100%" height="100%">
<style type="text/css"><![CDATA[
  .stroke { fill:none; stroke:black; stroke-width:2 }
]]></style>
<path class="stroke" d="M 27.580289000000004 5.911094034 C 21.317516000000005 13.013867781000002 14.251823850000003 18.584671122 5.419707150000001 21.927151791" />
<path class="stroke" d="M 27.580289000000004 5.911094034 C 34.0036477 12.735326970000001 40.5875888 18.584671122 49.7408725 21.787882577999998" />
<path class="stroke" d="M 19.493284316000004 19.35 L 35.506714099999996 19.35" />
<path class="stroke" d="M 17.045985110000004 26.4110581125 L 17.045985110000004 39.802006575" />
<path class="stroke" d="M 17.045985110000004 26.4110581125 L 38.050364 26.4110581125 L 38.050364 39.673247804999995" />
<path class="stroke" d="M 17.045985110000004 38.771933327999996 L 38.050364 38.771933327999996" />
<path class="stroke" d="M 9.039604200000001 48.4742572 L 24.8861382 48.4742572 L 24.8861382 91.64752494999999 C 24.8861382 93.5099002 23.905940850000004 94.35643569999999 22.435644 94.35643569999999 L 20.4752471 94.35643569999999" />
<path class="stroke" d="M 6.908719400000001 67.12016218 C 14.282015000000001 62.833514799999996 19.3174388 57.24223318 24.8861382 48.4742572" />
<path class="stroke" d="M 6.908719400000001 87.07016218 C 14.282015000000001 82.7835148 19.3174388 77.19223317999999 24.8861382 68.4242572" />
<path class="stroke" d="M 32.689604200000005 48.4742572 L 48.5361382 48.4742572 L 48.5361382 91.64752494999999 C 48.5361382 93.5099002 47.55594085 94.35643569999999 46.085644 94.35643569999999 L 44.1252471 94.35643569999999" />
<path class="stroke" d="M 30.5587194 67.12016218 C 37.932015 62.833514799999996 42.9674388 57.24223318 48.5361382 48.4742572" />
<path class="stroke" d="M 30.5587194 87.07016218 C 37.932015 82.7835148 42.9674388 77.19223317999999 48.5361382 68.4242572" />
<path class="stroke" d="M 63.832115 11.605839 C 62.9562035 22.116787 60.6204375 32.627735 57.7007295 39.927006" />
<path class="stroke" d="M 61.642336 26.204376 L 90.9854 26.204376 C 90.693428 34.37956 89.233575 39.927006 86.45985 45.47445" />
<path class="stroke" d="M 75.218977 30.875912 C 75.218977 62.408752 66.16720000000001 79.653 54.9270065 90.14598" />
<path class="stroke" d="M 75.07299 48.394157 C 78.4306565 63.868607 83.3941575 80.21897 95.218975 90.14598" />
</svg>
