<?xml version="1.0" standalone="no"?>
<!DOCTYPE svg PUBLIC "-//W3C//DTD SVG 1.1//EN" "http://www.w3.org/Graphics/SVG/1.1/DTD/svg11.dtd">
<svg xmlns="http://www.w3.org/2000/svg" version="1.1" width="100%" height="100%">
<style type="text/css"><![CDATA[
  .stroke { fill:none; stroke:black; stroke-width:2 }
]]></style>
<path class="stroke" d="M 50.14598 7.6496336000000005 C 38.75912 19.562042400000003 25.912407 28.9051088 9.854013 34.5109464" />
<path class="stroke" d="M 50.14598 7.6496336000000005 C 61.824814 19.094888 73.795616 28.9051088 90.43795 34.2773712" />
<path class="stroke" d="M 16.435644 43.9544552 L 45.247524 43.9544552 L 45.247524 90.9148517 C 45.247524 92.9405932 43.465347 93.8613862 40.79208 93.8613862 L 37.227722 93.8613862" />
<path class="stroke" d="M 12.561308 64.23596588 C 25.9673 59.573296799999994 35.122616 53.49155188 45.247524 43.9544552" />
<path class="stroke" d="M 12.561308 85.93596588 C 25.9673 81.2732968 35.122616 75.19155187999999 45.247524 65.6544552" />
<path class="stroke" d="M 59.435644 43.9544552 L 88.247524 43.9544552 L 88.247524 90.9148517 C 88.247524 92.9405932 86.465347 93.8613862 83.79208 93.8613862 L 80.227722 93.8613862" />
<path class="stroke" d="M 55.561308 64.23596588 C 68.9673 59.573296799999994 78.122616 53.49155188 88.247524 43.9544552" />
<path class="stroke" d="M 55.561308 85.93596588 C 68.9673 81.2732968 78.122616 75.19155187999999 88.247524 65.6544552" />
</svg>
