<?xml version="1.0" standalone="no"?>
<!DOCTYPE svg PUBLIC "-//W3C//DTD SVG 1.1//EN" "http://www.w3.org/Graphics/SVG/1.1/DTD/svg11.dtd">
<svg xmlns="http://www.w3.org/2000/svg" version="1.1" width="100%" height="100%">
<style type="text/css"><![CDATA[
  .stroke { fill:none; stroke:black; stroke-width:2 }
]]></style>
<path class="stroke" d="M 9.20792025 14.059406 C 11.6584155 16.138615 14.108911500000001 19.108912 16.1138625 22.673267" />
<path class="stroke" d="M 7.64851425 38.118813 C 9.8762385 39.90099 12.549505499999999 42.574257 14.331684 46.138615" />
<path class="stroke" d="M 7.4257425 85.64356 C 7.925256750000001 87.422676 9.31701 89.896904 10.94072025 89.896904 C 12.564432749999998 89.896904 14.7772275 76.73267 16.33663425 69.60396" />
<path class="stroke" d="M 24.200379418 20.160000000000004 L 52.799618788000004 20.160000000000004" />
<path class="stroke" d="M 38.5 9.51386856 L 38.5 32.404377600000004" />
<path class="stroke" d="M 30.706967664496 34.813328193000004 L 30.706967664496 58.843457184" />
<path class="stroke" d="M 30.706967664496 34.813328193000004 L 46.202937268 34.813328193000004 L 46.202937268 58.843457184" />
<path class="stroke" d="M 30.79706118916 46.173795003799995 L 46.11284466904 46.173795003799995" />
<path class="stroke" d="M 30.706967664496 57.7945238024 L 46.202937268 57.7945238024" />
<path class="stroke" d="M 24.0956198644 70.24060338999999 L 53.11389529600001 70.24060338999999" />
<path class="stroke" d="M 38.472505156 60.264164131 L 38.472505156 90.425832106" />
<path class="stroke" d="M 74.44604135200001 9.190655584 C 69.294625888 20.388319856000003 63.4827729268 29.170802272 56.2179554812 34.440289616" />
<path class="stroke" d="M 74.44604135200001 9.190655584 C 79.7295458536 19.94919472 85.1451366784 29.170802272 92.67412858 34.22072892799999" />
<path class="stroke" d="M 59.195485345600005 43.317187888 L 72.2299798576 43.317187888 L 72.2299798576 87.459960598 C 72.2299798576 89.36415760799999 71.4237229828 90.22970302799999 70.214336992 90.22970302799999 L 68.6018214328 90.22970302799999" />
<path class="stroke" d="M 57.442735739199996 62.38180792719999 C 63.50760652 57.998898991999994 67.6494714784 52.2820587672 72.2299798576 43.317187888" />
<path class="stroke" d="M 57.442735739199996 82.7798079272 C 63.50760652 78.39689899199999 67.6494714784 72.6800587672 72.2299798576 63.715187887999996" />
<path class="stroke" d="M 78.6486853456 43.317187888 L 91.6831798576 43.317187888 L 91.6831798576 87.459960598 C 91.6831798576 89.36415760799999 90.8769229828 90.22970302799999 89.667536992 90.22970302799999 L 88.05502143279999 90.22970302799999" />
<path class="stroke" d="M 76.89593573920001 62.38180792719999 C 82.96080652 57.998898991999994 87.1026714784 52.2820587672 91.6831798576 43.317187888" />
<path class="stroke" d="M 76.89593573920001 82.7798079272 C 82.96080652 78.39689899199999 87.1026714784 72.6800587672 91.6831798576 63.715187887999996" />
</svg>
