<?xml version="1.0" standalone="no"?>
<!DOCTYPE svg PUBLIC "-//W3C//DTD SVG 1.1//EN" "http://www.w3.org/Graphics/SVG/1.1/DTD/svg11.dtd">
<svg xmlns="http://www.w3.org/2000/svg" version="1.1" width="100%" height="100%">
<style type="text/css"><![CDATA[
  .stroke { fill:none; stroke:black; stroke-width:2 }
]]></style>
<path class="stroke" d="M 20.7299256 10.729925 C 17.4598528 18.029196 13.021896000000002 23.86861 8.8175168 28.540146 C 12.087590400000002 31.45985 16.058392 36.131386 19.7956176 40.218975" />
<path class="stroke" d="M 29.6058384 25.912407 C 24.0 34.67153 16.5255464 45.18248 7.1824816 56.277367 C 15.591239999999999 54.525543 24.934304800000003 52.48175 33.343064 50.437954" />
<path class="stroke" d="M 30.540143999999998 43.430653 C 32.8759096 46.642334 33.5766416 49.85401 34.9781008 55.40146" />
<path class="stroke" d="M 21.19708 54.233574 L 21.19708 89.56204" />
<path class="stroke" d="M 13.956202400000002 65.03649 C 12.554744 70.87591 10.9197064 74.67153 7.6496336000000005 78.75912" />
<path class="stroke" d="M 27.270072 65.32846 C 29.8394136 68.540146 29.881079999999997 68.81081 31.178376 71.72973" />
<path class="stroke" d="M 42.34059436 10.390970144 L 62.220791559999995 10.390970144 L 62.220791559999995 39.657901124 C 62.220791559999995 40.920395504000005 60.99108943 41.494257464 59.146535199999995 41.494257464 L 56.68712818 41.494257464" />
<path class="stroke" d="M 39.66730252 23.0309309936 C 48.917437 20.125035296 55.23460504 16.334734913600002 62.220791559999995 10.390970144" />
<path class="stroke" d="M 39.66730252 36.5549309936 C 48.917437 33.64903529600001 55.23460504 29.8587349136 62.220791559999995 23.914970143999998" />
<path class="stroke" d="M 72.01059436 10.390970144 L 91.89079156 10.390970144 L 91.89079156 39.657901124 C 91.89079156 40.920395504000005 90.66108942999999 41.494257464 88.8165352 41.494257464 L 86.35712817999999 41.494257464" />
<path class="stroke" d="M 69.33730252 23.0309309936 C 78.587437 20.125035296 84.90460503999999 16.334734913600002 91.89079156 10.390970144" />
<path class="stroke" d="M 69.33730252 36.5549309936 C 78.587437 33.64903529600001 84.90460503999999 29.8587349136 91.89079156 23.914970143999998" />
<path class="stroke" d="M 66.63270441399999 42.632927634560005 C 59.011479015999996 49.53735977504 50.413174005100004 54.952601060480006 39.6652909009 58.20174453344" />
<path class="stroke" d="M 66.63270441399999 42.632927634560005 C 74.4493480102 49.266597084800004 82.4614057888 54.952601060480006 93.600119935 58.06636434752" />
<path class="stroke" d="M 67.5197986498 56.081991832556 C 60.29792716 62.05929348304401 54.826807933 64.73334940862 44.5411086052 68.193893786036" />
<path class="stroke" d="M 77.805496639 62.216591654480006 C 70.364781451 68.193893786036 61.173303291399996 74.013900151496 48.2614688764 77.631739332872" />
<path class="stroke" d="M 88.528887379 68.351191957472 C 78.680874109 76.530658386704 67.3009556209 83.92363540196001 46.7295549574 88.95715572092" />
</svg>
