<?xml version="1.0" standalone="no"?>
<!DOCTYPE svg PUBLIC "-//W3C//DTD SVG 1.1//EN" "http://www.w3.org/Graphics/SVG/1.1/DTD/svg11.dtd">
<svg xmlns="http://www.w3.org/2000/svg" version="1.1" width="100%" height="100%">
<style type="text/css"><![CDATA[
  .stroke { fill:none; stroke:black; stroke-width:2 }
]]></style>
<path class="stroke" d="M 43.17623792 8.835643200000002 L 62.76831632 8.835643200000002 L 62.76831632 78.5188122 C 62.76831632 81.52475120000001 61.55643596 82.89108920000001 59.7386144 82.89108920000001 L 57.31485096 82.89108920000001" />
<path class="stroke" d="M 40.54168944 38.93078808 C 49.657764 32.0119888 55.88337888 22.987464080000002 62.76831632 8.835643200000002" />
<path class="stroke" d="M 40.54168944 71.13078808 C 49.657764 64.21198880000001 55.88337888 55.18746408 62.76831632 41.0356432" />
<path class="stroke" d="M 72.41623792000001 8.835643200000002 L 92.00831632 8.835643200000002 L 92.00831632 78.5188122 C 92.00831632 81.52475120000001 90.79643596 82.89108920000001 88.9786144 82.89108920000001 L 86.55485096000001 82.89108920000001" />
<path class="stroke" d="M 69.78168944000001 38.93078808 C 78.897764 32.0119888 85.12337887999999 22.987464080000002 92.00831632 8.835643200000002" />
<path class="stroke" d="M 69.78168944000001 71.13078808 C 78.897764 64.21198880000001 85.12337887999999 55.18746408 92.00831632 41.0356432" />
<path class="stroke" d="M 7.3297005 23.40855216 L 37.41144 23.40855216" />
<path class="stroke" d="M 22.370571 7.4269750409999995 L 22.370571 44.8525866" />
<path class="stroke" d="M 6.348774 45.1341 L 34.79564 44.8525866 C 30.217983 72.7632114 18.446865 81.3267012 6.46688 92.257088" />
<path class="stroke" d="M 9.618528 45.16975429 C 20.081743 92.14999999999999 25.9673 91.79318549999999 93.5331 91.95115" />
</svg>
