<?xml version="1.0" standalone="no"?>
<!DOCTYPE svg PUBLIC "-//W3C//DTD SVG 1.1//EN" "http://www.w3.org/Graphics/SVG/1.1/DTD/svg11.dtd">
<svg xmlns="http://www.w3.org/2000/svg" version="1.1" width="100%" height="100%">
<style type="text/css"><![CDATA[
  .stroke { fill:none; stroke:black; stroke-width:2 }
]]></style>
<path class="stroke" d="M 16.435644 7.881188 L 45.247524 7.881188 L 45.247524 30.6039605 C 45.247524 31.584158 43.465347 32.029703 40.79208 32.029703 L 37.227722 32.029703" />
<path class="stroke" d="M 12.561308 17.694822199999997 C 25.9673 15.438692 35.122616 12.4959122 45.247524 7.881188" />
<path class="stroke" d="M 12.561308 28.1948222 C 25.9673 25.938692 35.122616 22.9959122 45.247524 18.381188" />
<path class="stroke" d="M 59.435644 7.881188 L 88.247524 7.881188 L 88.247524 30.6039605 C 88.247524 31.584158 86.465347 32.029703 83.79208 32.029703 L 80.227722 32.029703" />
<path class="stroke" d="M 55.561308 17.694822199999997 C 68.9673 15.438692 78.122616 12.4959122 88.247524 7.881188" />
<path class="stroke" d="M 55.561308 28.1948222 C 68.9673 25.938692 78.122616 22.9959122 88.247524 18.381188" />
<path class="stroke" d="M 32.919704 39.0437952 L 32.919704 45.3503648 C 32.919704 54.57664200000001 25.036495 62.40146 11.89781 66.9562" />
<path class="stroke" d="M 13.065693 45.9343064 L 57.73722 43.9489044 L 57.73722 61.350364 C 57.73722 64.270072 61.824814 65.90510800000001 67.66423 66.021896 L 83.722626 66.021896 C 86.9343 65.90510800000001 89.85401 65.08758800000001 90.14598 63.452554400000004 L 90.14598 61.58394" />
<path class="stroke" d="M 10.145985 78.57 L 89.85401 78.57" />
<path class="stroke" d="M 50.0 66.78321162 L 50.0 92.12627520000001" />
</svg>
