<?xml version="1.0" standalone="no"?>
<!DOCTYPE svg PUBLIC "-//W3C//DTD SVG 1.1//EN" "http://www.w3.org/Graphics/SVG/1.1/DTD/svg11.dtd">
<svg xmlns="http://www.w3.org/2000/svg" version="1.1" width="100%" height="100%">
<style type="text/css"><![CDATA[
  .stroke { fill:none; stroke:black; stroke-width:2 }
]]></style>
<path class="stroke" d="M 17.5 11.605839 L 17.5 27.080292" />
<path class="stroke" d="M 7.740875449999999 27.956203 L 27.4635025 27.956203" />
<path class="stroke" d="M 9.375911649999999 40.51095 C 11.41970725 51.021896 12.9525543 64.74452 13.77007205 78.17518" />
<path class="stroke" d="M 25.93065475 38.17518 C 23.4781015 48.9781 21.43430625 65.62044 20.923357 82.84671" />
<path class="stroke" d="M 3.9598537999999994 85.76642 L 30.835766499999995 85.76642" />
<path class="stroke" d="M 41.5049508 9.60396 L 61.67326679999999 9.60396 L 61.67326679999999 85.346535 C 61.67326679999999 88.61386 60.4257429 90.09901 58.554456 90.09901 L 56.0594054 90.09901" />
<path class="stroke" d="M 38.7929156 42.316074 C 48.17711 34.79564 54.5858312 24.986374 61.67326679999999 9.60396" />
<path class="stroke" d="M 38.7929156 77.316074 C 48.17711 69.79564 54.5858312 59.986374 61.67326679999999 44.60396" />
<path class="stroke" d="M 71.6049508 9.60396 L 91.77326679999999 9.60396 L 91.77326679999999 85.346535 C 91.77326679999999 88.61386 90.52574289999998 90.09901 88.654456 90.09901 L 86.1594054 90.09901" />
<path class="stroke" d="M 68.8929156 42.316074 C 78.27711 34.79564 84.6858312 24.986374 91.77326679999999 9.60396" />
<path class="stroke" d="M 68.8929156 77.316074 C 78.27711 69.79564 84.6858312 59.986374 91.77326679999999 44.60396" />
</svg>
