<?xml version="1.0" standalone="no"?>
<!DOCTYPE svg PUBLIC "-//W3C//DTD SVG 1.1//EN" "http://www.w3.org/Graphics/SVG/1.1/DTD/svg11.dtd">
<svg xmlns="http://www.w3.org/2000/svg" version="1.1" width="100%" height="100%">
<style type="text/css"><![CDATA[
  .stroke { fill:none; stroke:black; stroke-width:2 }
]]></style>
<path class="stroke" d="M 28.7065685 7.397765467843137 C 32.56058306 8.51710165372549 35.64379418 10.056188370196079 37.95620318 11.525317024313726" />
<path class="stroke" d="M 69.5591198 7.397765467843137 C 67.98668696 8.782943680392158 64.7416016 10.405980359215686 61.4656916 11.595275086666668" />
<path class="stroke" d="M 9.562042 12.572333333333333 L 90.43795 12.572333333333333" />
<path class="stroke" d="M 19.78588786666667 19.331985246600002 L 19.78588786666667 43.804915900000005" />
<path class="stroke" d="M 19.78588786666667 19.331985246600002 L 43.62043523333334 19.331985246600002 L 43.62043523333334 44.312655207999995 C 43.62043523333334 44.820391038 42.11191943333334 45.632771844 40.0 45.531224678 L 38.18977876666667 45.531224678" />
<path class="stroke" d="M 19.78588786666667 26.135663801999996 L 43.62043523333334 26.135663801999996" />
<path class="stroke" d="M 19.78588786666667 33.1424370372 L 43.318733933333334 33.1424370372" />
<path class="stroke" d="M 61.532845 20.550554368799997 L 61.532845 32.33005762239999" />
<path class="stroke" d="M 79.927 18.5196051362 L 79.927 43.804915900000005 C 79.927 44.718843872 77.59124 45.531224678 75.54744 45.632771844 L 73.21168 45.632771844" />
<path class="stroke" d="M 16.435644 54.5138612 L 45.247524 54.5138612 L 45.247524 90.11287145 C 45.247524 91.6485142 43.465347 92.3465347 40.79208 92.3465347 L 37.227722 92.3465347" />
<path class="stroke" d="M 12.561308 69.88855477999999 C 25.9673 66.3539508 35.122616 61.74359578 45.247524 54.5138612" />
<path class="stroke" d="M 12.561308 86.33855478 C 25.9673 82.8039508 35.122616 78.19359578 45.247524 70.9638612" />
<path class="stroke" d="M 59.435644 54.5138612 L 88.247524 54.5138612 L 88.247524 90.11287145 C 88.247524 91.6485142 86.465347 92.3465347 83.79208 92.3465347 L 80.227722 92.3465347" />
<path class="stroke" d="M 55.561308 69.88855477999999 C 68.9673 66.3539508 78.122616 61.74359578 88.247524 54.5138612" />
<path class="stroke" d="M 55.561308 86.33855478 C 68.9673 82.8039508 78.122616 78.19359578 88.247524 70.9638612" />
</svg>
