<?xml version="1.0" standalone="no"?>
<!DOCTYPE svg PUBLIC "-//W3C//DTD SVG 1.1//EN" "http://www.w3.org/Graphics/SVG/1.1/DTD/svg11.dtd">
<svg xmlns="http://www.w3.org/2000/svg" version="1.1" width="100%" height="100%">
<style type="text/css"><![CDATA[
  .stroke { fill:none; stroke:black; stroke-width:2 }
]]></style>
<path class="stroke" d="M 11.8043796 11.496349799999999 L 41.865694 11.496349799999999" />
<path class="stroke" d="M 11.8043796 23.5839384 L 42.1693428 23.5839384 L 42.1693428 41.1897798" />
<path class="stroke" d="M 11.8043796 41.1897798 L 42.0175184 41.1897798" />
<path class="stroke" d="M 11.8043796 23.5839384 L 11.8043796 58.007295000000006 C 11.8043796 70.620435 9.47326692 77.07920399999999 5.1485148 81.62376300000001" />
<path class="stroke" d="M 16.09952032 56.045743 L 16.09952032 94.08994" />
<path class="stroke" d="M 16.09952032 56.045743 L 45.644353040000006 56.045743 L 45.644353040000006 90.966895 C 45.689714200000004 92.623075 44.50976296 93.85333 43.32976856 93.80603500000001 L 41.55982012 93.80603500000001" />
<path class="stroke" d="M 16.644100251999998 74.4999955 L 45.235921328 74.6419705" />
<path class="stroke" d="M 26.038525968 56.18769775 L 26.038525968 93.0962095" />
<path class="stroke" d="M 36.2498945224 56.18769865 L 36.2498945224 93.238162" />
<path class="stroke" d="M 56.546534879999996 9.60396 L 71.52871248 9.60396 L 71.52871248 85.346535 C 71.52871248 88.61386 70.60198044 90.09901 69.2118816 90.09901 L 67.35841544 90.09901" />
<path class="stroke" d="M 54.53188016 42.316074 C 61.502996 34.79564 66.26376032 24.986374 71.52871248 9.60396" />
<path class="stroke" d="M 54.53188016 77.316074 C 61.502996 69.79564 66.26376032 59.986374 71.52871248 44.60396" />
<path class="stroke" d="M 78.90653488000001 9.60396 L 93.88871248000001 9.60396 L 93.88871248000001 85.346535 C 93.88871248000001 88.61386 92.96198043999999 90.09901 91.5718816 90.09901 L 89.71841544 90.09901" />
<path class="stroke" d="M 76.89188016 42.316074 C 83.862996 34.79564 88.62376032 24.986374 93.88871248000001 9.60396" />
<path class="stroke" d="M 76.89188016 77.316074 C 83.862996 69.79564 88.62376032 59.986374 93.88871248000001 44.60396" />
</svg>
