<?xml version="1.0" standalone="no"?>
<!DOCTYPE svg PUBLIC "-//W3C//DTD SVG 1.1//EN" "http://www.w3.org/Graphics/SVG/1.1/DTD/svg11.dtd">
<svg xmlns="http://www.w3.org/2000/svg" version="1.1" width="100%" height="100%">
<style type="text/css"><![CDATA[
  .stroke { fill:none; stroke:black; stroke-width:2 }
]]></style>
<path class="stroke" d="M 5.433772 9.621452 L 48.235035 9.621452" />
<path class="stroke" d="M 5.433772 9.62145 L 5.433772 91.3249 L 49.071004 91.3249" />
<path class="stroke" d="M 20.312152957000002 21.23649537 C 20.0738458187 26.421897 18.4057007478 32.471530200000004 17.095013323600003 34.84817488" />
<path class="stroke" d="M 19.239772263000003 29.878831419999997 L 38.54260435 29.878831419999997" />
<path class="stroke" d="M 14.950255200399999 47.83515416 L 41.40228348 47.83515416" />
<path class="stroke" d="M 27.93796261 30.5270063 L 27.93796261 39.60145758 C 27.957928086300004 59.55999239999999 16.7375540445 75.89926639999999 12.3288823925 78.924083" />
<path class="stroke" d="M 27.957928086300004 48.519999 C 31.2742543842 63.367877 37.112764785 73.5226232 44.38111352650001 78.7080252" />
<path class="stroke" d="M 66.7981 9.09968168 L 66.7981 32.2593152 C 66.95585 40.9861064 60.8044 47.5551968 53.548895 47.651093599999996" />
<path class="stroke" d="M 66.7981 8.95583648 L 83.2019 8.95583648 L 83.2019 43.047956 C 82.9916 45.972831199999995 84.5163 47.8908584 86.82965 47.794916 L 93.13875 47.794916 C 96.03045 47.794916 96.8717 45.493392799999995 96.76655 43.047956 L 96.76655 40.8902096" />
<path class="stroke" d="M 61.9306925 54.911682768 L 86.732675 54.911682768 C 81.0891075 75.612277844 71.584158 85.72554624 54.950495000000004 94.57465336" />
<path class="stroke" d="M 61.3366335 59.652277844000004 C 63.5483855 69.452902076 71.2903215 77.51870995200001 73.870966 81.12258116 C 78.548385 86.61419372 86.93548200000001 90.73290048 94.90099000000001 94.57465336" />
</svg>
