<?xml version="1.0" standalone="no"?>
<!DOCTYPE svg PUBLIC "-//W3C//DTD SVG 1.1//EN" "http://www.w3.org/Graphics/SVG/1.1/DTD/svg11.dtd">
<svg xmlns="http://www.w3.org/2000/svg" version="1.1" width="100%" height="100%">
<style type="text/css"><![CDATA[
  .stroke { fill:none; stroke:black; stroke-width:2 }
]]></style>
<path class="stroke" d="M 5.433772 7.522082439999999 L 48.235035 7.522082439999999" />
<path class="stroke" d="M 5.433772 7.5220815 L 5.433772 45.922703 L 49.071004 45.922703" />
<path class="stroke" d="M 20.312152957000002 12.981152823899999 C 20.0738458187 15.418291589999999 18.4057007478 18.261619194 17.095013323600003 19.3786421936" />
<path class="stroke" d="M 19.239772263000003 17.043050767399997 L 38.54260435 17.043050767399997" />
<path class="stroke" d="M 14.950255200399999 25.482522455199998 L 41.40228348 25.482522455199998" />
<path class="stroke" d="M 27.93796261 17.347692961 L 27.93796261 21.6126850626 C 27.957928086300004 30.993196427999994 16.7375540445 38.672655207999995 12.3288823925 40.09431901" />
<path class="stroke" d="M 27.957928086300004 25.804399529999998 C 31.2742543842 32.78290219 37.112764785 37.555632904 44.38111352650001 39.992771843999996" />
<path class="stroke" d="M 66.7981 7.2768503896 L 66.7981 18.161878144 C 66.95585 22.263470008 60.8044 25.350942496 53.548895 25.396013991999997" />
<path class="stroke" d="M 66.7981 7.2092431456 L 83.2019 7.2092431456 L 83.2019 23.232539319999997 C 82.9916 24.607230663999996 84.5163 25.508703448 86.82965 25.46361052 L 93.13875 25.46361052 C 96.03045 25.46361052 96.8717 24.381894615999997 96.76655 23.232539319999997 L 96.76655 22.218398511999997" />
<path class="stroke" d="M 61.9306925 28.80849090096 L 86.732675 28.80849090096 C 81.0891075 38.53777058668 71.584158 43.2910067328 54.950495000000004 47.450087079199996" />
<path class="stroke" d="M 61.3366335 31.03657058668 C 63.5483855 35.64286397572 71.2903215 39.43379367744 73.870966 41.127613145199994 C 78.548385 43.7086710484 86.93548200000001 45.6444632256 94.90099000000001 47.450087079199996" />
<path class="stroke" d="M 16.435644 54.5138612 L 45.247524 54.5138612 L 45.247524 90.11287145 C 45.247524 91.6485142 43.465347 92.3465347 40.79208 92.3465347 L 37.227722 92.3465347" />
<path class="stroke" d="M 12.561308 69.88855477999999 C 25.9673 66.3539508 35.122616 61.74359578 45.247524 54.5138612" />
<path class="stroke" d="M 12.561308 86.33855478 C 25.9673 82.8039508 35.122616 78.19359578 45.247524 70.9638612" />
<path class="stroke" d="M 59.435644 54.5138612 L 88.247524 54.5138612 L 88.247524 90.11287145 C 88.247524 91.6485142 86.465347 92.3465347 83.79208 92.3465347 L 80.227722 92.3465347" />
<path class="stroke" d="M 55.561308 69.88855477999999 C 68.9673 66.3539508 78.122616 61.74359578 88.247524 54.5138612" />
<path class="stroke" d="M 55.561308 86.33855478 C 68.9673 82.8039508 78.122616 78.19359578 88.247524 70.9638612" />
</svg>
