<?xml version="1.0" standalone="no"?>
<!DOCTYPE svg PUBLIC "-//W3C//DTD SVG 1.1//EN" "http://www.w3.org/Graphics/SVG/1.1/DTD/svg11.dtd">
<svg xmlns="http://www.w3.org/2000/svg" version="1.1" width="100%" height="100%">
<style type="text/css"><![CDATA[
  .stroke { fill:none; stroke:black; stroke-width:2 }
]]></style>
<path class="stroke" d="M 14.22773704 9.854013 L 14.2040272 55.63759 C 11.19194604 80.20134 11.19194604 79.39597 7.82550296 89.865776" />
<path class="stroke" d="M 14.22773704 9.854013 L 32.2131392 9.854013 L 32.2131392 86.05839 C 32.2131392 88.39416 31.699267600000002 90.43795 30.414596959999997 90.43795 L 29.0014604 90.43795" />
<path class="stroke" d="M 14.22773704 31.862577 L 32.2131392 31.862577" />
<path class="stroke" d="M 14.22773704 55.110336 L 32.2131392 55.110336" />
<path class="stroke" d="M 45.6831686 7.631980039999999 L 64.4108906 7.631980039999999 L 64.4108906 37.853267464999995 C 64.4108906 39.15693014 63.25247555 39.74950499 61.514852000000005 39.74950499 L 59.1980193 39.74950499" />
<path class="stroke" d="M 43.164850200000004 20.684113525999997 C 51.878745 17.683460359999998 57.8297004 13.769563225999999 64.4108906 7.631980039999999" />
<path class="stroke" d="M 43.164850200000004 34.649113526 C 51.878745 31.64846036 57.8297004 27.734563226 64.4108906 21.59698004" />
<path class="stroke" d="M 73.6331686 7.631980039999999 L 92.3608906 7.631980039999999 L 92.3608906 37.853267464999995 C 92.3608906 39.15693014 91.20247555 39.74950499 89.46485200000001 39.74950499 L 87.1480193 39.74950499" />
<path class="stroke" d="M 71.1148502 20.684113525999997 C 79.828745 17.683460359999998 85.7797004 13.769563225999999 92.3608906 7.631980039999999" />
<path class="stroke" d="M 71.1148502 34.649113526 C 79.828745 31.64846036 85.7797004 27.734563226 92.3608906 21.59698004" />
<path class="stroke" d="M 68.56704039 40.9253057096 C 61.38762516 48.0548823764 53.2877726135 53.6467076168 43.1629551965 57.0018014204" />
<path class="stroke" d="M 68.56704039 40.9253057096 C 75.93054522700001 47.775290468 83.478135888 53.6467076168 93.971127475 56.8620066632" />
<path class="stroke" d="M 69.402708873 54.812926348835 C 62.599496599999995 60.985140009665 57.445543705000006 63.746393411075 47.756116802 67.31978162688499" />
<path class="stroke" d="M 79.092134515 61.1475674693 C 72.082765135 67.31978162688499 63.424126289 73.32957080861 51.260804014 77.06538300677" />
<path class="stroke" d="M 89.193879415 67.48220908651999 C 79.916765465 75.92839724714 69.1965523965 83.56244959985001 49.817696698999995 88.76010645094999" />
</svg>
