<?xml version="1.0" standalone="no"?>
<!DOCTYPE svg PUBLIC "-//W3C//DTD SVG 1.1//EN" "http://www.w3.org/Graphics/SVG/1.1/DTD/svg11.dtd">
<svg xmlns="http://www.w3.org/2000/svg" version="1.1" width="100%" height="100%">
<style type="text/css"><![CDATA[
  .stroke { fill:none; stroke:black; stroke-width:2 }
]]></style>
<path class="stroke" d="M 12.189779 11.7700725 L 87.81021 11.7700725" />
<path class="stroke" d="M 34.67153 6.29561925 L 34.67153 17.68248075" />
<path class="stroke" d="M 65.32846 6.29561925 L 65.32846 17.68248075" />
<path class="stroke" d="M 33.211678 22.590620405 C 31.751823 26.852955737499997 24.160583 30.8516414075 9.854013 34.059379594999996" />
<path class="stroke" d="M 64.46271 22.674857361999997 C 76.715324 25.754415452 84.59853 29.97280945 89.270065 34.147262565" />
<path class="stroke" d="M 51.25328356 31.668904704 C 46.5233566 37.358831519999995 35.237173 43.7308352 21.92773576 48.28087552 C 41.79342883 47.561459199999994 59.057663530000006 47.2344528 77.95932700000002 47.282287999999994" />
<path class="stroke" d="M 68.75401315 43.179560448000004 C 74.19342639999999 44.4221888 78.92335336 46.31883152 81.9978088 48.869487039999996" />
<path class="stroke" d="M 16.435644 57.321782 L 45.247524 57.321782 L 45.247524 91.40594075 C 45.247524 92.876237 43.465347 93.5445545 40.79208 93.5445545 L 37.227722 93.5445545" />
<path class="stroke" d="M 12.561308 72.04223329999999 C 25.9673 68.658038 35.122616 64.2438683 45.247524 57.321782" />
<path class="stroke" d="M 12.561308 87.79223329999999 C 25.9673 84.408038 35.122616 79.9938683 45.247524 73.071782" />
<path class="stroke" d="M 59.435644 57.321782 L 88.247524 57.321782 L 88.247524 91.40594075 C 88.247524 92.876237 86.465347 93.5445545 83.79208 93.5445545 L 80.227722 93.5445545" />
<path class="stroke" d="M 55.561308 72.04223329999999 C 68.9673 68.658038 78.122616 64.2438683 88.247524 57.321782" />
<path class="stroke" d="M 55.561308 87.79223329999999 C 68.9673 84.408038 78.122616 79.9938683 88.247524 73.071782" />
</svg>
