<?xml version="1.0" standalone="no"?>
<!DOCTYPE svg PUBLIC "-//W3C//DTD SVG 1.1//EN" "http://www.w3.org/Graphics/SVG/1.1/DTD/svg11.dtd">
<svg xmlns="http://www.w3.org/2000/svg" version="1.1" width="100%" height="100%">
<style type="text/css"><![CDATA[
  .stroke { fill:none; stroke:black; stroke-width:2 }
]]></style>
<path class="stroke" d="M 12.189779 10.2007295 L 87.81021 10.2007295" />
<path class="stroke" d="M 34.67153 5.45620335 L 34.67153 15.324816649999999" />
<path class="stroke" d="M 65.32846 5.45620335 L 65.32846 15.324816649999999" />
<path class="stroke" d="M 16.435644 20.6495048 L 45.247524 20.6495048 L 45.247524 49.4316833 C 45.247524 50.6732668 43.465347 51.2376238 40.79208 51.2376238 L 37.227722 51.2376238" />
<path class="stroke" d="M 12.561308 33.080108120000006 C 25.9673 30.222343199999997 35.122616 26.494822120000002 45.247524 20.6495048" />
<path class="stroke" d="M 12.561308 46.38010812 C 25.9673 43.5223432 35.122616 39.79482212 45.247524 33.9495048" />
<path class="stroke" d="M 59.435644 20.6495048 L 88.247524 20.6495048 L 88.247524 49.4316833 C 88.247524 50.6732668 86.465347 51.2376238 83.79208 51.2376238 L 80.227722 51.2376238" />
<path class="stroke" d="M 55.561308 33.080108120000006 C 68.9673 30.222343199999997 78.122616 26.494822120000002 88.247524 20.6495048" />
<path class="stroke" d="M 55.561308 46.38010812 C 68.9673 43.5223432 78.122616 39.79482212 88.247524 33.9495048" />
<path class="stroke" d="M 50.14598 53.017809472 C 38.75912 59.212262048 25.912407 64.070656576 9.854013 66.985692128" />
<path class="stroke" d="M 50.14598 53.017809472 C 61.824814 58.96934176 73.795616 64.070656576 90.43795 66.864233024" />
<path class="stroke" d="M 51.471386 65.0839126172 C 40.6812 70.4465711028 32.50681 72.845655094 17.138964 75.9503532932" />
<path class="stroke" d="M 66.83923 70.587694376 C 55.72207 75.9503532932 41.989098 81.1718910952 22.697548 84.4177095464" />
<path class="stroke" d="M 82.86103 76.0914765664 C 68.14713 83.4298522448 51.144413 90.062612852 20.408718 94.57853860399999" />
</svg>
