<?xml version="1.0" standalone="no"?>
<!DOCTYPE svg PUBLIC "-//W3C//DTD SVG 1.1//EN" "http://www.w3.org/Graphics/SVG/1.1/DTD/svg11.dtd">
<svg xmlns="http://www.w3.org/2000/svg" version="1.1" width="100%" height="100%">
<style type="text/css"><![CDATA[
  .stroke { fill:none; stroke:black; stroke-width:2 }
]]></style>
<path class="stroke" d="M 14.017018867924529 5.5205 L 14.017018867924529 16.877" />
<path class="stroke" d="M 4.196179245283019 17.1924 L 24.434264150943395 17.1924 C 19.90952830188679 37.2765 13.124150943396225 51.9978 3.660498113207547 60.7256" />
<path class="stroke" d="M 14.017018867924529 47.1609 L 14.017018867924529 94.795" />
<path class="stroke" d="M 26.15920754716981 39.2744 C 25.56396226415094 43.2702 24.433075471698114 46.6351 22.94507547169811 48.4228" />
<path class="stroke" d="M 14.195603773584907 46.5299 C 18.71909433962264 50.6309 21.45701886792453 55.6783 24.37352830188679 63.5646" />
<path class="stroke" d="M 37.326733000000004 7.5138612 L 58.935643 7.5138612 L 58.935643 43.11287145 C 58.935643 44.6485142 57.59901025 45.3465347 55.59406 45.3465347 L 52.9207915 45.3465347" />
<path class="stroke" d="M 34.420981 22.88855478 C 44.475475 19.3539508 51.341962 14.74359578 58.935643 7.5138612" />
<path class="stroke" d="M 34.420981 39.338554779999996 C 44.475475 35.8039508 51.341962 31.19359578 58.935643 23.9638612" />
<path class="stroke" d="M 69.576733 7.5138612 L 91.185643 7.5138612 L 91.185643 43.11287145 C 91.185643 44.6485142 89.84901024999999 45.3465347 87.84406 45.3465347 L 85.1707915 45.3465347" />
<path class="stroke" d="M 66.670981 22.88855478 C 76.72547499999999 19.3539508 83.591962 14.74359578 91.185643 7.5138612" />
<path class="stroke" d="M 66.670981 39.338554779999996 C 76.72547499999999 35.8039508 83.591962 31.19359578 91.185643 23.9638612" />
<path class="stroke" d="M 59.5437925 54.39853932 C 59.352887499999994 56.9821514 54.7883875 59.9797874 50.6897125 60.0792394" />
<path class="stroke" d="M 41.14963375 60.17372202 L 41.14963375 91.870074" />
<path class="stroke" d="M 41.14963375 60.0796511 L 84.2883205 60.0796511 L 84.2883205 91.870074" />
<path class="stroke" d="M 41.14963375 75.0096135 L 84.2883205 75.0096135" />
<path class="stroke" d="M 41.14963375 90.4908376 L 84.2883205 90.4908376" />
</svg>
