<?xml version="1.0" standalone="no"?>
<!DOCTYPE svg PUBLIC "-//W3C//DTD SVG 1.1//EN" "http://www.w3.org/Graphics/SVG/1.1/DTD/svg11.dtd">
<svg xmlns="http://www.w3.org/2000/svg" version="1.1" width="100%" height="100%">
<style type="text/css"><![CDATA[
  .stroke { fill:none; stroke:black; stroke-width:2 }
]]></style>
<path class="stroke" d="M 10.267693518518518 11.8297 L 42.445910185185184 11.8297" />
<path class="stroke" d="M 9.71763888888889 30.09901 L 9.71763888888889 89.80198" />
<path class="stroke" d="M 9.71763888888889 30.1262 L 43.546018518518515 30.1262 L 43.546018518518515 89.80198" />
<path class="stroke" d="M 20.99376574074074 11.683168 L 20.99376574074074 40.79208 C 20.99376574074074 47.326733 20.718737037037037 54.455444 14.66813425925926 58.61386" />
<path class="stroke" d="M 31.444811111111115 11.980198 L 31.444811111111115 42.574257 C 31.444811111111115 48.811882 31.444811111111115 53.861385 35.84525 53.861385 L 38.320499999999996 53.861385" />
<path class="stroke" d="M 14.393105555555556 71.9802 L 39.145583333333335 71.9802" />
<path class="stroke" d="M 9.71763888888889 89.80198 L 43.546018518518515 89.80198" />
<path class="stroke" d="M 54.0396042 8.0336632 L 69.8861382 8.0336632 L 69.8861382 39.8455447 C 69.8861382 41.2178212 68.90594085000001 41.8415842 67.435644 41.8415842 L 65.4752471 41.8415842" />
<path class="stroke" d="M 51.9087194 21.77275108 C 59.282015 18.614168799999998 64.3174388 14.49427708 69.8861382 8.0336632" />
<path class="stroke" d="M 51.9087194 36.47275108 C 59.282015 33.314168800000004 64.3174388 29.19427708 69.8861382 22.7336632" />
<path class="stroke" d="M 77.6896042 8.0336632 L 93.53613820000001 8.0336632 L 93.53613820000001 39.8455447 C 93.53613820000001 41.2178212 92.55594085 41.8415842 91.085644 41.8415842 L 89.1252471 41.8415842" />
<path class="stroke" d="M 75.5587194 21.77275108 C 82.932015 18.614168799999998 87.9674388 14.49427708 93.53613820000001 8.0336632" />
<path class="stroke" d="M 75.5587194 36.47275108 C 82.932015 33.314168800000004 87.9674388 29.19427708 93.53613820000001 22.7336632" />
<path class="stroke" d="M 73.40288033 43.079269168 C 67.32799052 50.584086712 60.474269134500005 56.470218544000005 51.9071159355 60.001896232" />
<path class="stroke" d="M 73.40288033 43.079269168 C 79.63353826900001 50.289779440000004 86.019961136 56.470218544000005 94.898646325 59.854743856" />
<path class="stroke" d="M 74.109984431 57.6978172093 C 68.3534202 64.1948842207 63.992383135 67.1014667485 55.793637294 70.86292802829999" />
<path class="stroke" d="M 82.308729205 64.365860494 C 76.377724345 70.86292802829999 69.051183783 77.1890219038 58.759141858 81.1214557966" />
<path class="stroke" d="M 90.856359505 71.03390430159999 C 83.006493855 79.9246286812 73.9355443355 87.96047326300001 57.538051053000004 93.43169100099999" />
</svg>
