<?xml version="1.0" standalone="no"?>
<!DOCTYPE svg PUBLIC "-//W3C//DTD SVG 1.1//EN" "http://www.w3.org/Graphics/SVG/1.1/DTD/svg11.dtd">
<svg xmlns="http://www.w3.org/2000/svg" version="1.1" width="100%" height="100%">
<style type="text/css"><![CDATA[
  .stroke { fill:none; stroke:black; stroke-width:2 }
]]></style>
<path class="stroke" d="M 24.56784 5.5205 C 19.200896 17.8233 12.72348 30.7571 4.3028392 40.5363" />
<path class="stroke" d="M 24.56784 5.83596 C 29.934784000000004 11.8296 33.636152 18.4543 37.61516 25.0789" />
<path class="stroke" d="M 10.687688 33.59624 L 35.394304 33.59624" />
<path class="stroke" d="M 5.9684548 51.57724 L 38.72553256 51.57724" />
<path class="stroke" d="M 24.01259784 33.9117 L 24.01259784 88.1703" />
<path class="stroke" d="M 5.6908544 61.672 C 9.484728 65.878 12.44584 70.3996 15.406951999999999 75.2366" />
<path class="stroke" d="M 37.8928 61.6719 C 35.857008 67.4553 32.988384 72.2923 29.287016 77.1294" />
<path class="stroke" d="M 7.0788608 94.4795 L 37.61516 83.7539" />
<path class="stroke" d="M 48.19009928 8.0336632 L 66.05346488 8.0336632 L 66.05346488 39.8455447 C 66.05346488 41.2178212 64.94851514 41.8415842 63.2910896 41.8415842 L 61.081187639999996 41.8415842" />
<path class="stroke" d="M 45.78801096 21.77275108 C 54.099726000000004 18.614168799999998 59.776021920000005 14.49427708 66.05346488 8.0336632" />
<path class="stroke" d="M 45.78801096 36.47275108 C 54.099726000000004 33.314168800000004 59.776021920000005 29.19427708 66.05346488 22.7336632" />
<path class="stroke" d="M 74.85009928 8.0336632 L 92.71346488 8.0336632 L 92.71346488 39.8455447 C 92.71346488 41.2178212 91.60851514 41.8415842 89.95108959999999 41.8415842 L 87.74118763999999 41.8415842" />
<path class="stroke" d="M 72.44801096 21.77275108 C 80.759726 18.614168799999998 86.43602192 14.49427708 92.71346488 8.0336632" />
<path class="stroke" d="M 72.44801096 36.47275108 C 80.759726 33.314168800000004 86.43602192 29.19427708 92.71346488 22.7336632" />
<path class="stroke" d="M 70.017792372 43.079269168 C 63.169734768 50.584086712 55.443721569800005 56.470218544000005 45.7862034182 60.001896232" />
<path class="stroke" d="M 70.017792372 43.079269168 C 77.0414431396 50.289779440000004 84.2406834624 56.470218544000005 94.24938313 59.854743856" />
<path class="stroke" d="M 70.8148915404 57.6978172093 C 64.32567368 64.1948842207 59.409595534000005 67.1014667485 50.1673729496 70.86292802829999" />
<path class="stroke" d="M 80.057112922 64.365860494 C 73.371252898 70.86292802829999 65.1122435372 77.1890219038 53.510305367200004 81.1214557966" />
<path class="stroke" d="M 89.692623442 71.03390430159999 C 80.84368398200002 79.9246286812 70.6182499782 87.96047326300001 52.1338030052 93.43169100099999" />
</svg>
