<?xml version="1.0" standalone="no"?>
<!DOCTYPE svg PUBLIC "-//W3C//DTD SVG 1.1//EN" "http://www.w3.org/Graphics/SVG/1.1/DTD/svg11.dtd">
<svg xmlns="http://www.w3.org/2000/svg" version="1.1" width="100%" height="100%">
<style type="text/css"><![CDATA[
  .stroke { fill:none; stroke:black; stroke-width:2 }
]]></style>
<path class="stroke" d="M 16.605839 6.558029149999999 C 15.8759115 12.647079625 12.0802915 18.359487725 4.9270065 22.941970849999997" />
<path class="stroke" d="M 32.231355 6.678367659999999 C 38.357662 11.07773636 42.299265 17.1040135 44.6350325 23.06751795" />
<path class="stroke" d="M 25.62664178 19.52700672 C 23.2616783 27.6554736 17.6185865 36.758336 10.96386788 43.258393600000005 C 20.896714415 42.230655999999996 29.528831765000003 41.763504 38.97966350000001 41.83184" />
<path class="stroke" d="M 34.377006575 35.97080064 C 37.096713199999996 37.745984 39.46167668 40.455473600000005 40.9989044 44.0992672" />
<path class="stroke" d="M 8.217822 54.80198 L 22.623762 54.80198 L 22.623762 92.67326750000001 C 22.623762 94.30693 21.7326735 95.04950500000001 20.39604 95.04950500000001 L 18.613861 95.04950500000001" />
<path class="stroke" d="M 6.280654 71.15803700000001 C 12.98365 67.39782 17.561308 62.493187 22.623762 54.80198" />
<path class="stroke" d="M 6.280654 88.65803700000001 C 12.98365 84.89782 17.561308 79.993187 22.623762 72.30198" />
<path class="stroke" d="M 29.717822 54.80198 L 44.123762 54.80198 L 44.123762 92.67326750000001 C 44.123762 94.30693 43.2326735 95.04950500000001 41.89604 95.04950500000001 L 40.113861 95.04950500000001" />
<path class="stroke" d="M 27.780654 71.15803700000001 C 34.48365 67.39782 39.061308 62.493187 44.123762 54.80198" />
<path class="stroke" d="M 27.780654 88.65803700000001 C 34.48365 84.89782 39.061308 79.993187 44.123762 72.30198" />
<path class="stroke" d="M 64.89790550000001 9.4764385 C 64.5767385 12.980087 64.45482770000001 14.994076 63.170156399999996 17.329842" />
<path class="stroke" d="M 57.12303675 17.015707 L 57.12303675 66.96335" />
<path class="stroke" d="M 56.95026085 17.43295 L 82.90996000000001 17.43295 L 82.90996000000001 43.333332" />
<path class="stroke" d="M 57.468585250000004 30.583939 L 82.7413795 30.583939" />
<path class="stroke" d="M 57.2958121 43.430653 L 82.90996000000001 43.430653" />
<path class="stroke" d="M 57.468585250000004 55.10949 L 91.332462 55.10949" />
<path class="stroke" d="M 57.2958121 66.20438 L 91.59195199999999 66.20438 L 90.580458 80.57471 C 90.24329700000001 85.01916 89.3160905 90.22988 87.37739275000001 90.22988 C 86.28160575 90.22988 85.7758582 90.22988 85.017241 90.22988" />
<path class="stroke" d="M 55.17816085 74.137924 C 55.0095776 76.74329 54.1666663 80.881226 53.15517175 83.48659" />
<path class="stroke" d="M 63.1858226 74.137924 C 63.860152850000006 76.28352 64.45019065 79.042145 64.534482 82.26054" />
<path class="stroke" d="M 73.3007648 74.597694 C 74.227968 76.74329 74.8180047 79.042145 75.23946365 81.800766" />
<path class="stroke" d="M 82.488506 74.44444 C 83.6685805 75.82375 84.5957815 77.816086 85.354402 80.72797" />
</svg>
