<?xml version="1.0" standalone="no"?>
<!DOCTYPE svg PUBLIC "-//W3C//DTD SVG 1.1//EN" "http://www.w3.org/Graphics/SVG/1.1/DTD/svg11.dtd">
<svg xmlns="http://www.w3.org/2000/svg" version="1.1" width="100%" height="100%">
<style type="text/css"><![CDATA[
  .stroke { fill:none; stroke:black; stroke-width:2 }
]]></style>
<path class="stroke" d="M 54.10092 6.46688 L 54.10092 14.66882" />
<path class="stroke" d="M 18.7697 14.98422 L 93.8486 14.98422" />
<path class="stroke" d="M 18.7697 15.2997 L 18.7697 59.7792 C 19.0852 71.2408 14.6687 79.2323 6.46688 87.5394" />
<path class="stroke" d="M 5.83596 25.07884 C 8.78023 28.65404 10.4627 32.22924 11.8297 36.43534" />
<path class="stroke" d="M 6.15141 58.20189 C 8.14931 57.04519 10.4627 54.62679 12.1451 52.20829" />
<path class="stroke" d="M 60.116784 23.816203216 C 51.007296000000004 33.465254344 40.7299256 41.033138128000004 27.8832104 45.573866584" />
<path class="stroke" d="M 60.116784 23.816203216 C 69.4598512 33.08685928 79.03649279999999 41.033138128000004 92.35036000000001 45.384670672" />
<path class="stroke" d="M 61.177108800000006 42.6114792691 C 52.544959999999996 50.9648511409 46.005448 54.7018858195 33.7111712 59.5380503221" />
<path class="stroke" d="M 73.471384 51.184677778 C 64.577656 59.5380503221 53.5912784 67.67159959060001 38.1580384 72.7275860242" />
<path class="stroke" d="M 86.288824 59.757876959200004 C 74.51770400000001 71.1888083044 60.9155304 81.52060848100001 36.3269744 88.55503128699999" />
</svg>
