<?xml version="1.0" standalone="no"?>
<!DOCTYPE svg PUBLIC "-//W3C//DTD SVG 1.1//EN" "http://www.w3.org/Graphics/SVG/1.1/DTD/svg11.dtd">
<svg xmlns="http://www.w3.org/2000/svg" version="1.1" width="100%" height="100%">
<style type="text/css"><![CDATA[
  .stroke { fill:none; stroke:black; stroke-width:2 }
]]></style>
<path class="stroke" d="M 16.126823854166666 9.562042 C 18.681569375 11.021896 21.23631125 14.817516 22.93947395833333 19.48905" />
<path class="stroke" d="M 7.1852178124999995 22.8707 L 31.029497916666667 22.8707" />
<path class="stroke" d="M 11.868915625 37.007298 L 26.345802291666665 37.007298" />
<path class="stroke" d="M 11.868915625 51.313866 L 26.345802291666665 51.313866" />
<path class="stroke" d="M 11.017335 64.45255 L 11.017335 85.76642" />
<path class="stroke" d="M 11.017335 64.16058 L 27.623173958333332 64.16058 L 27.623173958333332 85.76642" />
<path class="stroke" d="M 11.017335 85.76642 L 27.410279166666665 85.76642" />
<path class="stroke" d="M 41.5049508 8.0336632 L 61.67326679999999 8.0336632 L 61.67326679999999 39.8455447 C 61.67326679999999 41.2178212 60.4257429 41.8415842 58.554456 41.8415842 L 56.0594054 41.8415842" />
<path class="stroke" d="M 38.178217599999996 15.768316839999999 C 42.960395 16.76633596 47.3267332 18.512871099999998 50.445544 20.8831684" />
<path class="stroke" d="M 38.5940589 32.6099002 L 51.69307 26.12277214" />
<path class="stroke" d="M 72.9009924 8.0336632 L 92.23762299999999 8.0336632 L 92.23762299999999 39.471286479999996 C 92.23762299999999 40.8435634 91.19801799999999 41.7168316 88.910894 41.7168316 L 86.831684 41.7168316" />
<path class="stroke" d="M 70.8217831 15.39405904 C 75.39604299999999 16.2673264 78.93069299999999 18.01386154 81.84158 20.758415799999998" />
<path class="stroke" d="M 70.8217831 32.360395 L 83.712869 25.873268200000002" />
<path class="stroke" d="M 65.10218599999999 43.079269168 C 57.131384 50.584086712 48.1386849 56.470218544000005 36.8978091 60.001896232" />
<path class="stroke" d="M 65.10218599999999 43.079269168 C 73.2773698 50.289779440000004 81.6569312 56.470218544000005 93.306565 59.854743856" />
<path class="stroke" d="M 66.02997020000001 57.6978172093 C 58.476839999999996 64.1948842207 52.754767 67.1014667485 41.9972748 70.86292802829999" />
<path class="stroke" d="M 76.78746100000001 64.365860494 C 69.005449 70.86292802829999 59.3923686 77.1890219038 45.8882836 81.1214557966" />
<path class="stroke" d="M 88.002721 71.03390430159999 C 77.702991 79.9246286812 65.8010891 87.96047326300001 44.2861026 93.43169100099999" />
</svg>
