<?xml version="1.0" standalone="no"?>
<!DOCTYPE svg PUBLIC "-//W3C//DTD SVG 1.1//EN" "http://www.w3.org/Graphics/SVG/1.1/DTD/svg11.dtd">
<svg xmlns="http://www.w3.org/2000/svg" version="1.1" width="100%" height="100%">
<style type="text/css"><![CDATA[
  .stroke { fill:none; stroke:black; stroke-width:2 }
]]></style>
<path class="stroke" d="M 47.5036484 5.18029112 C 42.248174 17.11897685 29.70797 30.488805999999997 14.9197064 40.0357656 C 36.992698700000005 38.526275999999996 56.1751817 37.840146499999996 77.17703 37.940515" />
<path class="stroke" d="M 66.9489035 29.332113439999997 C 72.992696 31.939413999999996 78.24817039999999 35.91897685 81.664232 41.27079869999999" />
<path class="stroke" d="M 21.8905104 55.510948 C 19.554744 68.21167750000001 13.98132 82.4349 7.4087584 92.59124 C 17.2189772 90.9854 25.7445252 90.25547499999999 35.078680000000006 90.36225" />
<path class="stroke" d="M 30.532846000000003 81.204376 C 33.218976 83.9781 35.5547424 88.21167750000001 37.072992 93.90510499999999" />
<path class="stroke" d="M 76.94598488 55.510948 C 74.7270068 68.21167750000001 69.432254 82.4349 63.18832048 92.59124 C 72.50802834 90.9854 80.60729893999999 90.25547499999999 89.47474600000001 90.36225" />
<path class="stroke" d="M 85.1562037 81.204376 C 87.7080272 83.9781 89.92700528 88.21167750000001 91.3693424 93.90510499999999" />
</svg>
