<?xml version="1.0" standalone="no"?>
<!DOCTYPE svg PUBLIC "-//W3C//DTD SVG 1.1//EN" "http://www.w3.org/Graphics/SVG/1.1/DTD/svg11.dtd">
<svg xmlns="http://www.w3.org/2000/svg" version="1.1" width="100%" height="100%">
<style type="text/css"><![CDATA[
  .stroke { fill:none; stroke:black; stroke-width:2 }
]]></style>
<path class="stroke" d="M 47.5036484 5.7094960696 C 42.248174 9.6492623605 29.70797 14.06130598 14.9197064 17.211802648 C 36.992698700000005 16.713671079999997 56.1751817 16.487248344999998 77.17703 16.52036995" />
<path class="stroke" d="M 66.9489035 13.6795974352 C 72.992696 14.54000662 78.24817039999999 15.8532623605 81.664232 17.619363571" />
<path class="stroke" d="M 21.8905104 22.31861284 C 19.554744 26.509853575000005 13.98132 31.203517 7.4087584 34.555109200000004 C 17.2189772 34.025182 25.7445252 33.78430675 35.078680000000006 33.8195425" />
<path class="stroke" d="M 30.532846000000003 30.79744408 C 33.218976 31.712773000000002 35.5547424 33.109853575 37.072992 34.988684649999996" />
<path class="stroke" d="M 76.94598488 22.31861284 C 74.7270068 26.509853575000005 69.432254 31.203517 63.18832048 34.555109200000004 C 72.50802834 34.025182 80.60729893999999 33.78430675 89.47474600000001 33.8195425" />
<path class="stroke" d="M 85.1562037 30.79744408 C 87.7080272 31.712773000000002 89.92700528 33.109853575 91.3693424 34.988684649999996" />
<path class="stroke" d="M 50.14598 31.333721536000002 C 38.75912 40.387152224000005 25.912407 47.487882688 9.854013 51.748319264" />
<path class="stroke" d="M 50.14598 31.333721536000002 C 61.824814 40.03211488 73.795616 47.487882688 90.43795 51.570802111999996" />
<path class="stroke" d="M 51.471386 48.968795363599995 C 40.6812 56.806526996399995 32.50681 60.312880522 17.138964 64.85051635159999" />
<path class="stroke" d="M 66.83923 57.012784088 C 55.72207 64.85051635159999 41.989098 72.4819946776 22.697548 77.22588318319998" />
<path class="stroke" d="M 82.86103 65.0567734432 C 68.14713 75.7820917424 51.144413 85.476126476 20.408718 92.076325652" />
</svg>
