<?xml version="1.0" standalone="no"?>
<!DOCTYPE svg PUBLIC "-//W3C//DTD SVG 1.1//EN" "http://www.w3.org/Graphics/SVG/1.1/DTD/svg11.dtd">
<svg xmlns="http://www.w3.org/2000/svg" version="1.1" width="100%" height="100%">
<style type="text/css"><![CDATA[
  .stroke { fill:none; stroke:black; stroke-width:2 }
]]></style>
<path class="stroke" d="M 10.662984999999999 22.0316 L 5.82597 38.1199" />
<path class="stroke" d="M 19.85328666666667 22.0316 L 25.174030000000002 38.1199" />
<path class="stroke" d="M 15.258116666666668 7.3123 L 15.258116666666668 93.3186" />
<path class="stroke" d="M 60.6277363 5.7094960696 C 56.6861305 9.6492623605 47.2809775 14.06130598 36.1897798 17.211802648 C 52.744524025000004 16.713671079999997 67.13138627500001 16.487248344999998 82.8827725 16.52036995" />
<path class="stroke" d="M 75.211677625 13.6795974352 C 79.74452199999999 14.54000662 83.6861278 15.8532623605 86.248174 17.619363571" />
<path class="stroke" d="M 41.4178828 22.31861284 C 39.666058 26.509853575000005 35.48599 31.203517 30.5565688 34.555109200000004 C 37.9142329 34.025182 44.3083939 33.78430675 51.30901 33.8195425" />
<path class="stroke" d="M 47.899634500000005 30.79744408 C 49.914232 31.712773000000002 51.6660568 33.109853575 52.804744 34.988684649999996" />
<path class="stroke" d="M 82.70948866 22.31861284 C 81.04525509999999 26.509853575000005 77.0741905 31.203517 72.39124036 34.555109200000004 C 79.381021255 34.025182 85.455474205 33.78430675 92.10605950000001 33.8195425" />
<path class="stroke" d="M 88.86715277500001 30.79744408 C 90.7810204 31.712773000000002 92.44525396 33.109853575 93.5270068 34.988684649999996" />
<path class="stroke" d="M 62.609485 31.333721536000002 C 54.069340000000004 40.387152224000005 44.43430525 47.487882688 32.39050975 51.748319264" />
<path class="stroke" d="M 62.609485 31.333721536000002 C 71.3686105 40.03211488 80.346712 47.487882688 92.8284625 51.570802111999996" />
<path class="stroke" d="M 63.603539500000004 48.968795363599995 C 55.5109 56.806526996399995 49.3801075 60.312880522 37.854223000000005 64.85051635159999" />
<path class="stroke" d="M 75.1294225 57.012784088 C 66.7915525 64.85051635159999 56.491823499999995 72.4819946776 42.023161 77.22588318319998" />
<path class="stroke" d="M 87.14577249999999 65.0567734432 C 76.1103475 75.7820917424 63.358309750000004 85.476126476 40.3065385 92.076325652" />
</svg>
