<?xml version="1.0" standalone="no"?>
<!DOCTYPE svg PUBLIC "-//W3C//DTD SVG 1.1//EN" "http://www.w3.org/Graphics/SVG/1.1/DTD/svg11.dtd">
<svg xmlns="http://www.w3.org/2000/svg" version="1.1" width="100%" height="100%">
<style type="text/css"><![CDATA[
  .stroke { fill:none; stroke:black; stroke-width:2 }
]]></style>
<path class="stroke" d="M 6.271407407407407 10.8833 L 31.881896296296294 10.8833" />
<path class="stroke" d="M 17.861546666666666 10.8833 C 17.487679999999997 29.9159 14.68365037037037 42.3239 8.140788148148147 54.7319" />
<path class="stroke" d="M 16.552983703703703 30.1262 L 30.947235555555554 30.1263 C 27.45769481481481 58.202 21.53799111111111 76.4986 9.449362962962962 94.4795" />
<path class="stroke" d="M 16.92681481481481 45.89907 C 19.10779259259259 48.52787 20.727881481481482 51.78757 21.787259259259258 55.678272" />
<path class="stroke" d="M 65.6007262 9.649633600000001 C 57.7437928 21.562042400000003 48.87956083 30.9051088 37.79926897 36.5109464" />
<path class="stroke" d="M 65.6007262 9.649633600000001 C 73.65912166 21.094888 81.91897503999999 30.9051088 93.4021855 36.2773712" />
<path class="stroke" d="M 66.51525634000001 32.85367811 C 59.07002799999999 43.16648289 53.4296989 47.78010595 42.82588516 53.75067941" />
<path class="stroke" d="M 77.1190687 43.4378738 C 69.4482283 53.75067941 59.97247761999999 63.792098259999996 46.66130812 70.03405681999999" />
<path class="stroke" d="M 88.1741107 54.02207032 C 78.0215197 68.13433124 66.28964497 80.88964010000001 45.08201542 89.57411269999999" />
</svg>
