<?xml version="1.0" standalone="no"?>
<!DOCTYPE svg PUBLIC "-//W3C//DTD SVG 1.1//EN" "http://www.w3.org/Graphics/SVG/1.1/DTD/svg11.dtd">
<svg xmlns="http://www.w3.org/2000/svg" version="1.1" width="100%" height="100%">
<style type="text/css"><![CDATA[
  .stroke { fill:none; stroke:black; stroke-width:2 }
]]></style>
<path class="stroke" d="M 7.1861311599999995 13.649633 L 7.1861311599999995 87.22627" />
<path class="stroke" d="M 7.1861311599999995 13.357662 L 35.92189552 13.357662 L 35.92189552 87.22627" />
<path class="stroke" d="M 21.5540126 13.649633 L 21.5540126 81.9708" />
<path class="stroke" d="M 7.1861311599999995 47.644558 L 35.7058392 47.644558" />
<path class="stroke" d="M 7.1861311599999995 81.9708 L 35.92189552 81.9708" />
<path class="stroke" d="M 70.087588 9.649633600000001 C 63.255472 21.562042400000003 55.5474442 30.9051088 45.9124078 36.5109464" />
<path class="stroke" d="M 70.087588 9.649633600000001 C 77.0948884 21.094888 84.27736959999999 30.9051088 94.26276999999999 36.2773712" />
<path class="stroke" d="M 70.8828316 32.85367811 C 64.40872 43.16648289 59.504086 47.78010595 50.283378400000004 53.75067941" />
<path class="stroke" d="M 80.103538 43.4378738 C 73.433242 53.75067941 65.1934588 63.792098259999996 53.6185288 70.03405681999999" />
<path class="stroke" d="M 89.716618 54.02207032 C 80.888278 68.13433124 70.6866478 80.88964010000001 52.2452308 89.57411269999999" />
</svg>
