<?xml version="1.0" standalone="no"?>
<!DOCTYPE svg PUBLIC "-//W3C//DTD SVG 1.1//EN" "http://www.w3.org/Graphics/SVG/1.1/DTD/svg11.dtd">
<svg xmlns="http://www.w3.org/2000/svg" version="1.1" width="100%" height="100%">
<style type="text/css"><![CDATA[
  .stroke { fill:none; stroke:black; stroke-width:2 }
]]></style>
<path class="stroke" d="M 27.28702 9.30601 C 30.86222 12.35541 33.49102 16.66671 34.85802 20.66241" />
<path class="stroke" d="M 71.45113 9.30601 C 69.76863 14.45841 67.45533 17.40271 64.19553 20.66251" />
<path class="stroke" d="M 16.24608 26.02523 L 85.01578 26.02523" />
<path class="stroke" d="M 8.044165 42.74444 L 92.586716 42.74444" />
<path class="stroke" d="M 51.2618 7.09779 C 49.369 38.5383 31.7035 61.4616 8.04416 75.8675" />
<path class="stroke" d="M 53.7855 26.3407 C 59.674 47.6866 73.7644 65.5625 92.5868 75.8675" />
<path class="stroke" d="M 35.980198 59.407921 L 57.128714 59.407921 L 57.128714 70.8851476" />
<path class="stroke" d="M 36.0990096 70.925056 L 57.128714 70.925056" />
<path class="stroke" d="M 36.0990096 70.8851476 L 36.0990096 89.0990104 C 36.0990096 90.9702952 37.40594 92.8415842 39.4257432 92.8415842 L 62.118812000000005 92.8415842 C 63.900988000000005 92.8415842 65.44554400000001 91.4693056 65.44554400000001 89.7227734 L 65.44554400000001 87.4772308" />
</svg>
