<?xml version="1.0" standalone="no"?>
<!DOCTYPE svg PUBLIC "-//W3C//DTD SVG 1.1//EN" "http://www.w3.org/Graphics/SVG/1.1/DTD/svg11.dtd">
<svg xmlns="http://www.w3.org/2000/svg" version="1.1" width="100%" height="100%">
<style type="text/css"><![CDATA[
  .stroke { fill:none; stroke:black; stroke-width:2 }
]]></style>
<path class="stroke" d="M 17.287656603773584 7.2444749999999996 L 17.287656603773584 18.03315" />
<path class="stroke" d="M 5.175287735849056 18.33278 L 30.13559245283019 18.33278 C 24.555084905660372 37.412675 16.186452830188678 51.397909999999996 4.514614339622641 59.689319999999995" />
<path class="stroke" d="M 17.287656603773584 46.802854999999994 L 17.287656603773584 92.05525" />
<path class="stroke" d="M 32.26302264150943 39.31068 C 31.528886792452827 43.10669 30.13412641509434 46.303345 28.298926415094336 48.00166" />
<path class="stroke" d="M 17.507911320754715 46.203405 C 23.086883018867923 50.099354999999996 26.463656603773586 54.894385 30.060684905660374 62.38637" />
<path class="stroke" d="M 66.0992664 9.649633600000001 C 58.356201600000006 21.562042400000003 49.620436760000004 30.9051088 38.700728840000004 36.5109464" />
<path class="stroke" d="M 66.0992664 9.649633600000001 C 74.04087352 21.094888 82.18101888000001 30.9051088 93.497806 36.2773712" />
<path class="stroke" d="M 67.00054248000001 32.85367811 C 59.663216 43.16648289 54.1046308 47.78010595 43.65449552 53.75067941" />
<path class="stroke" d="M 77.4506764 43.4378738 C 69.8910076 53.75067941 60.55258664 63.792098259999996 47.43433264 70.03405681999999" />
<path class="stroke" d="M 88.3455004 54.02207032 C 78.3400484 68.13433124 66.77820084000001 80.88964010000001 45.87792824 89.57411269999999" />
</svg>
