<?xml version="1.0" standalone="no"?>
<!DOCTYPE svg PUBLIC "-//W3C//DTD SVG 1.1//EN" "http://www.w3.org/Graphics/SVG/1.1/DTD/svg11.dtd">
<svg xmlns="http://www.w3.org/2000/svg" version="1.1" width="100%" height="100%">
<style type="text/css"><![CDATA[
  .stroke { fill:none; stroke:black; stroke-width:2 }
]]></style>
<path class="stroke" d="M 20.594059 25.643566 L 44.059406 25.643566" />
<path class="stroke" d="M 32.475246 9.60396 L 32.475246 41.38614" />
<path class="stroke" d="M 12.277227 41.482674 L 49.10891 41.482674" />
<path class="stroke" d="M 32.475246 44.950497 L 32.475246 82.67327" />
<path class="stroke" d="M 32.475246 59.50495 L 47.623764 59.50495" />
<path class="stroke" d="M 20.891088 59.50495 C 18.217821 72.871284 17.623762 79.10891 9.90099 90.09901" />
<path class="stroke" d="M 17.920792 73.762375 C 35.148514 91.58416 70.792076 89.80198 90.09901 89.80198" />
<path class="stroke" d="M 71.565691 13.009195888 C 66.441604 22.896495192 60.66058315 30.651240303999998 53.43430585 35.304085512" />
<path class="stroke" d="M 71.565691 13.009195888 C 76.8211663 22.50875704 82.2080272 30.651240303999998 89.6970775 35.110218096" />
<path class="stroke" d="M 72.1621237 32.2685528313 C 67.30654 40.8281807987 63.6280645 44.6574879385 56.7125338 49.61306391029999" />
<path class="stroke" d="M 79.0776535 41.053435254 C 74.0749315 49.61306391029999 67.8950941 57.9474415558 59.2138966 63.12826716059999" />
<path class="stroke" d="M 86.2874635 49.838318365599996 C 79.66620850000001 61.55149492919999 72.01498585 72.13840128300001 58.1839231 79.34651354099998" />
</svg>
