<?xml version="1.0" standalone="no"?>
<!DOCTYPE svg PUBLIC "-//W3C//DTD SVG 1.1//EN" "http://www.w3.org/Graphics/SVG/1.1/DTD/svg11.dtd">
<svg xmlns="http://www.w3.org/2000/svg" version="1.1" width="100%" height="100%">
<style type="text/css"><![CDATA[
  .stroke { fill:none; stroke:black; stroke-width:2 }
]]></style>
<path class="stroke" d="M 6.1795809 21.1492127 L 31.052878999999997 21.1492127" />
<path class="stroke" d="M 8.507298630000001 34.9379535 L 8.3992701 61.565693499999995" />
<path class="stroke" d="M 8.3992701 34.9379535 L 28.6007262 34.9379535 L 28.6007262 61.565693499999995" />
<path class="stroke" d="M 8.3992701 48.204428 L 28.4926973 48.204428" />
<path class="stroke" d="M 8.3992701 61.843064999999996 L 28.6007262 61.843064999999996" />
<path class="stroke" d="M 5.59051056 75.71167799999999 L 31.409485 75.71167799999999" />
<path class="stroke" d="M 18.5686831 10.529196899999999 L 18.5686831 88.19342400000001" />
<path class="stroke" d="M 66.0992664 9.649633600000001 C 58.356201600000006 21.562042400000003 49.620436760000004 30.9051088 38.700728840000004 36.5109464" />
<path class="stroke" d="M 66.0992664 9.649633600000001 C 74.04087352 21.094888 82.18101888000001 30.9051088 93.497806 36.2773712" />
<path class="stroke" d="M 67.00054248000001 32.85367811 C 59.663216 43.16648289 54.1046308 47.78010595 43.65449552 53.75067941" />
<path class="stroke" d="M 77.4506764 43.4378738 C 69.8910076 53.75067941 60.55258664 63.792098259999996 47.43433264 70.03405681999999" />
<path class="stroke" d="M 88.3455004 54.02207032 C 78.3400484 68.13433124 66.77820084000001 80.88964010000001 45.87792824 89.57411269999999" />
</svg>
