<?xml version="1.0" standalone="no"?>
<!DOCTYPE svg PUBLIC "-//W3C//DTD SVG 1.1//EN" "http://www.w3.org/Graphics/SVG/1.1/DTD/svg11.dtd">
<svg xmlns="http://www.w3.org/2000/svg" version="1.1" width="100%" height="100%">
<style type="text/css"><![CDATA[
  .stroke { fill:none; stroke:black; stroke-width:2 }
]]></style>
<path class="stroke" d="M 22.20526814814815 8.462153 L 43.46197392592592 8.462153" />
<path class="stroke" d="M 31.82508373333333 8.462153 C 31.514774399999997 16.265518999999998 29.187429807407405 21.352799 23.756854162962963 26.440079" />
<path class="stroke" d="M 30.73897647407407 16.351742 L 42.68620551111111 16.351782999999998 C 39.78988669629629 27.86282 34.87653262222222 35.364425999999995 24.842971259259258 42.736595" />
<path class="stroke" d="M 31.049256296296292 22.8186187 C 32.859467851851846 23.8964267 34.20414162962963 25.2329037 35.083425185185185 26.828091519999997" />
<path class="stroke" d="M 71.44860274599999 7.956349776 C 64.927348024 12.840437384000001 57.5700354889 16.671094607999997 48.3733932451 18.969488024" />
<path class="stroke" d="M 71.44860274599999 7.956349776 C 78.1370709778 12.64890408 84.99274928319998 16.671094607999997 94.523813965 18.873722192" />
<path class="stroke" d="M 72.2076627622 17.4700080251 C 66.02812323999999 21.6982579849 61.34665008699999 23.589843439499997 52.545484682799994 26.037778558099998" />
<path class="stroke" d="M 81.008827021 21.809528257999997 C 74.642029489 26.037778558099998 66.7771564246 30.1547602866 55.728885739599995 32.71396329619999" />
<path class="stroke" d="M 90.18451188099999 26.1490488312 C 81.757861351 31.935075808399997 72.0204053251 37.164752441000005 54.418072798599994 40.72538620699999" />
<path class="stroke" d="M 49.27007 42.840145989999996 C 40.218975 51.66934336 22.70073 59.94671365 9.854013 62.15401378" />
<path class="stroke" d="M 49.27007 43.02408646 C 58.905106 51.853283829999995 76.715324 60.314597739999996 89.56204 62.15401378" />
<path class="stroke" d="M 47.226276 52.22116729 C 49.27007 53.87664097 50.437954 55.348172919999996 51.021896 57.18758959" />
<path class="stroke" d="M 34.851486 58.6591228 L 62.9927 58.6591228 L 62.9927 74.11021678" />
<path class="stroke" d="M 34.9635 66.38467041999999 L 62.70073 66.38467041999999" />
<path class="stroke" d="M 34.9635 74.11021678 L 62.9927 74.11021678" />
<path class="stroke" d="M 34.9635 58.6591228 L 34.9635 93.6080263 C 39.927006 93.24014095000001 45.47445 92.87226190000001 52.77372 90.481015" />
<path class="stroke" d="M 74.9635 77.6051065 C 70.58394 81.1 65.91241 83.3072995 58.321167 84.59488719999999" />
<path class="stroke" d="M 48.68613 78.1569298 C 55.985397 85.51459270000001 66.788315 91.58467042000001 80.51095 93.6080263" />
</svg>
