<?xml version="1.0" standalone="no"?>
<!DOCTYPE svg PUBLIC "-//W3C//DTD SVG 1.1//EN" "http://www.w3.org/Graphics/SVG/1.1/DTD/svg11.dtd">
<svg xmlns="http://www.w3.org/2000/svg" version="1.1" width="100%" height="100%">
<style type="text/css"><![CDATA[
  .stroke { fill:none; stroke:black; stroke-width:2 }
]]></style>
<path class="stroke" d="M 18.6496335 9.562042 C 14.708029 19.48905 12.2262765 24.160583 8.138685 28.832115" />
<path class="stroke" d="M 16.167883 16.27737 L 30.18248 16.27737 C 29.744522 22.992699 27.9926985 27.372261 25.218977 32.919704" />
<path class="stroke" d="M 14.1240865 34.257427 L 14.1240865 69.124084" />
<path class="stroke" d="M 14.1240865 34.37956 L 35.729925 34.08759 L 35.729925 69.124084" />
<path class="stroke" d="M 25.07299 34.08759 L 25.07299 69.124084" />
<path class="stroke" d="M 14.1240865 51.313866 L 35.729925 51.313866" />
<path class="stroke" d="M 14.1240865 69.124084 L 35.729925 69.124084" />
<path class="stroke" d="M 9.8905105 77.59124 C 9.4525535 81.678825 8.576642 85.47445 7.408758 88.978096" />
<path class="stroke" d="M 17.043795 78.17518 C 18.2116775 81.09489 18.941605 85.47445 19.37956 89.85401" />
<path class="stroke" d="M 27.116787 77.88321 C 28.722625 81.09489 29.674452 85.18248 30.47445 89.85401" />
<path class="stroke" d="M 37.77372 78.46715 C 38.941605 80.51095 40.255475 86.05839 40.9854 90.43795" />
<path class="stroke" d="M 67.452262008 5.7094960696 C 64.19386788 9.6492623605 56.4189414 14.06130598 47.250217968 17.211802648 C 60.935473194000004 16.713671079999997 72.82861265400001 16.487248344999998 85.8497586 16.52036995" />
<path class="stroke" d="M 79.50832016999999 13.6795974352 C 83.25547151999999 14.54000662 86.51386564799999 15.8532623605 88.63182384 17.619363571" />
<path class="stroke" d="M 51.572116448 22.31861284 C 50.12394128 26.509853575000005 46.6684184 31.203517 42.593430208 34.555109200000004 C 48.675765864 34.025182 53.961605624 33.78430675 59.7487816 33.8195425" />
<path class="stroke" d="M 56.93036452 30.79744408 C 58.595765119999996 31.712773000000002 60.043940288 33.109853575 60.98525504 34.988684649999996" />
<path class="stroke" d="M 85.7065106256 22.31861284 C 84.330744216 26.509853575000005 81.04799747999999 31.203517 77.17675869760001 34.555109200000004 C 82.9549775708 34.025182 87.97652534279999 33.78430675 93.47434252000001 33.8195425" />
<path class="stroke" d="M 90.796846294 30.79744408 C 92.37897686400001 31.712773000000002 93.7547432736 33.109853575 94.64899228799999 34.988684649999996" />
<path class="stroke" d="M 69.0905076 31.333721536000002 C 62.0306544 40.387152224000005 54.06569234 47.487882688 44.109488060000004 51.748319264" />
<path class="stroke" d="M 69.0905076 31.333721536000002 C 76.33138468 40.03211488 83.75328192 47.487882688 94.071529 51.570802111999996" />
<path class="stroke" d="M 69.91225932 48.968795363599995 C 63.222344 56.806526996399995 58.1542222 60.312880522 48.62615768 64.85051635159999" />
<path class="stroke" d="M 79.4403226 57.012784088 C 72.54768340000001 64.85051635159999 64.03324076 72.4819946776 52.07247976 77.22588318319998" />
<path class="stroke" d="M 89.3738386 65.0567734432 C 80.25122060000001 75.7820917424 69.70953606 85.476126476 50.65340516 92.076325652" />
</svg>
