<?xml version="1.0" standalone="no"?>
<!DOCTYPE svg PUBLIC "-//W3C//DTD SVG 1.1//EN" "http://www.w3.org/Graphics/SVG/1.1/DTD/svg11.dtd">
<svg xmlns="http://www.w3.org/2000/svg" version="1.1" width="100%" height="100%">
<style type="text/css"><![CDATA[
  .stroke { fill:none; stroke:black; stroke-width:2 }
]]></style>
<path class="stroke" d="M 16.435644 3.8415840000000006 L 45.247524 3.8415840000000006 L 45.247524 34.138614000000004 C 45.247524 35.445544000000005 43.465347 36.039604000000004 40.79208 36.039604000000004 L 37.227722 36.039604000000004" />
<path class="stroke" d="M 11.683168 11.2079208 C 18.51485 12.1584152 24.752476 13.821781999999999 29.20792 16.079208" />
<path class="stroke" d="M 12.277227 27.247524 L 30.9901 21.069306800000003" />
<path class="stroke" d="M 61.287132 3.8415840000000006 L 88.91089 3.8415840000000006 L 88.91089 33.782177600000004 C 88.91089 35.089108 87.42574 35.920792 84.15842 35.920792 L 81.18812 35.920792" />
<path class="stroke" d="M 58.316833 10.851484800000001 C 64.85149 11.683168000000002 69.90099 13.3465348 74.0594 15.960396000000001" />
<path class="stroke" d="M 58.316833 27.009900000000002 L 76.73267 20.831684000000003" />
<path class="stroke" d="M 50.0 40.390487632 L 50.0 48.34" />
<path class="stroke" d="M 7.5 48.34 L 92.5 48.34" />
<path class="stroke" d="M 31.388 52.68418758490566 C 29.4952 59.59630509433963 19.7161 66.11465952830189 7.09779 69.0894541509434" />
<path class="stroke" d="M 29.1797 57.8026 C 33.8066 61.34611820754717 39.6951 64.10224339622641 45.899 66.07089235849057" />
<path class="stroke" d="M 77.4448 52.68418758490566 C 75.1315 58.15257094339623 66.8244 62.8335779245283 55.9937 66.07089235849057" />
<path class="stroke" d="M 73.3437 57.933859905660384 C 79.2324 62.39603103773585 85.4363 65.28345773584905 93.2178 68.43327943396227" />
<path class="stroke" d="M 7.09779 75.83244274 L 93.84861 75.83244274" />
<path class="stroke" d="M 50.63091 70.695063325 L 50.63091 96.47537994999999" />
</svg>
