<?xml version="1.0" standalone="no"?>
<!DOCTYPE svg PUBLIC "-//W3C//DTD SVG 1.1//EN" "http://www.w3.org/Graphics/SVG/1.1/DTD/svg11.dtd">
<svg xmlns="http://www.w3.org/2000/svg" version="1.1" width="100%" height="100%">
<style type="text/css"><![CDATA[
  .stroke { fill:none; stroke:black; stroke-width:2 }
]]></style>
<path class="stroke" d="M 13.55203056 6.782335 L 13.55203056 31.703514" />
<path class="stroke" d="M 13.55203056 6.782335 L 34.7508 6.782335 L 34.7508 31.703514" />
<path class="stroke" d="M 24.0 18.769756 L 24.0 32.018955" />
<path class="stroke" d="M 24.0 18.769756 L 34.447967999999996 18.769756" />
<path class="stroke" d="M 3.7097808 32.96529 L 3.7097808 46.21449" />
<path class="stroke" d="M 3.7097808 32.96529 L 44.8958832 32.96529 L 44.8958832 45.58359" />
<path class="stroke" d="M 13.40064 45.268127 L 13.40064 94.47953" />
<path class="stroke" d="M 13.40064 45.268127 L 34.7508 45.268127 L 34.7508 88.485825 C 34.7508 92.271225 33.539424 94.164024 32.479487999999996 94.164024 L 31.116719999999997 94.164024" />
<path class="stroke" d="M 13.40064 59.4637 L 34.7508 59.4637" />
<path class="stroke" d="M 13.40064 73.34389 L 34.59936 73.34389" />
<path class="stroke" d="M 71.18296448 6.78233 L 71.18296448 15.6151" />
<path class="stroke" d="M 45.75078866 15.93057 L 96.24923279999999 15.93057" />
<path class="stroke" d="M 68.804468 22.23976 C 66.60882 29.49536 63.498453999999995 34.85806 59.839118 39.58996 M 52.886483999999996 32.96526 C 59.046316 37.80236 63.559411999999995 46.74036 66.97474199999999 57.25546" />
<path class="stroke" d="M 79.965292 33.91161 C 73.439596 54.31131 61.973749999999995 66.82441 49.410137999999996 71.13561" />
<path class="stroke" d="M 86.917926 50.3154 C 79.477338 73.5542 65.99895 89.5374 46.299685 93.2177" />
<path class="stroke" d="M 76.489004 73.0284 C 82.95368400000001 77.3396 87.58887 84.4901 92.40692999999999 93.2177" />
</svg>
