<?xml version="1.0" standalone="no"?>
<!DOCTYPE svg PUBLIC "-//W3C//DTD SVG 1.1//EN" "http://www.w3.org/Graphics/SVG/1.1/DTD/svg11.dtd">
<svg xmlns="http://www.w3.org/2000/svg" version="1.1" width="100%" height="100%">
<style type="text/css"><![CDATA[
  .stroke { fill:none; stroke:black; stroke-width:2 }
]]></style>
<path class="stroke" d="M 6.3738162 15.3028176 L 36.846999499999995 15.3028176" />
<path class="stroke" d="M 15.20661955 6.337542399999999 L 15.20661955 31.687712" />
<path class="stroke" d="M 28.01420525 6.337542399999999 L 28.01420525 31.687712" />
<path class="stroke" d="M 15.20661955 31.687712 L 28.01420525 31.687712" />
<path class="stroke" d="M 11.4526753 45.290239400000004 L 11.4526753 63.8390914" />
<path class="stroke" d="M 11.4526753 45.290239400000004 L 32.099385999999996 45.290239400000004 L 32.099385999999996 63.8390914" />
<path class="stroke" d="M 11.4526753 63.8390914 L 32.099385999999996 63.8390914" />
<path class="stroke" d="M 6.15299805 78.05994 L 36.846989 78.05994" />
<path class="stroke" d="M 21.610425 31.996803999999997 L 21.610425 93.517382" />
<path class="stroke" d="M 51.60154405882353 11.605839 C 48.69901111764706 27.372261 42.67067329411765 41.970802 37.53542170588236 50.14598" />
<path class="stroke" d="M 47.13610752941176 30.583939 L 47.13610752941176 90.43795" />
<path class="stroke" d="M 56.9810718 12.4606 L 93.151434 12.4606" />
<path class="stroke" d="M 61.4858112 27.2871 L 61.4858112 55.6782" />
<path class="stroke" d="M 61.4858112 27.2871 L 88.9116852 27.2871 L 88.9116852 55.6782" />
<path class="stroke" d="M 61.4858196 41.48266 L 88.6467156 41.48266" />
<path class="stroke" d="M 61.4858112 55.6782 L 88.9116852 55.6782" />
<path class="stroke" d="M 75.264978 12.4606 L 75.264978 61.3564 C 75.353346 79.4426 66.697188 89.327 57.3785514 93.5331" />
<path class="stroke" d="M 66.123048 63.5647 C 73.454274 82.0715 82.50792 93.9538 92.886456 94.1641" />
</svg>
