<?xml version="1.0" standalone="no"?>
<!DOCTYPE svg PUBLIC "-//W3C//DTD SVG 1.1//EN" "http://www.w3.org/Graphics/SVG/1.1/DTD/svg11.dtd">
<svg xmlns="http://www.w3.org/2000/svg" version="1.1" width="100%" height="100%">
<style type="text/css"><![CDATA[
  .stroke { fill:none; stroke:black; stroke-width:2 }
]]></style>
<path class="stroke" d="M 13.154171785714285 14.059406 C 16.654879285714284 16.138615 20.15558785714286 19.108912 23.01980357142857 22.673267" />
<path class="stroke" d="M 10.926448928571428 38.118813 C 14.108912142857141 39.90099 17.927864999999997 42.574257 20.473834285714286 46.138615" />
<path class="stroke" d="M 10.608203571428572 85.64356 C 11.321795357142857 87.422676 13.310014285714285 89.896904 15.629600357142856 89.896904 C 17.949189642857142 89.896904 21.110325 76.73267 23.33804892857143 69.60396" />
<path class="stroke" d="M 43.028318784 15.688174839999999 L 43.028318784 45.70744192" />
<path class="stroke" d="M 43.028318784 15.688174839999999 L 76.775472 15.688174839999999 L 76.775472 45.70744192" />
<path class="stroke" d="M 43.22452464 29.880062344 L 76.57926816 29.880062344" />
<path class="stroke" d="M 43.028318784 44.397078111999996 L 76.775472 44.397078111999996" />
<path class="stroke" d="M 34.76336 58.33201999999999 L 34.76336 91.84938999999999" />
<path class="stroke" d="M 34.76336 58.33201999999999 L 84.47952000000001 58.33201999999999 L 84.47952000000001 91.71530249999999" />
<path class="stroke" d="M 51.419551999999996 58.4661075 L 51.419551999999996 91.84938999999999" />
<path class="stroke" d="M 68.328112 58.466089225 L 68.328112 91.9834605" />
<path class="stroke" d="M 25.678232 91.983435 L 94.32176 91.983435" />
</svg>
