<?xml version="1.0" standalone="no"?>
<!DOCTYPE svg PUBLIC "-//W3C//DTD SVG 1.1//EN" "http://www.w3.org/Graphics/SVG/1.1/DTD/svg11.dtd">
<svg xmlns="http://www.w3.org/2000/svg" version="1.1" width="100%" height="100%">
<style type="text/css"><![CDATA[
  .stroke { fill:none; stroke:black; stroke-width:2 }
]]></style>
<path class="stroke" d="M 28.7065685 7.672697199215686 C 32.56058306 9.625581608627451 35.64379418 12.31079673098039 37.95620318 14.873957361568626" />
<path class="stroke" d="M 69.5591198 7.672697199215686 C 67.98668696 10.089391101960786 64.7416016 12.921072116078431 61.4656916 14.996011853333334" />
<path class="stroke" d="M 9.562042 16.700666666666667 L 90.43795 16.700666666666667" />
<path class="stroke" d="M 19.78588786666667 28.494101919600002 L 19.78588786666667 71.1915554" />
<path class="stroke" d="M 19.78588786666667 28.494101919600002 L 43.62043523333334 28.494101919600002 L 43.62043523333334 72.07739844799998 C 43.62043523333334 72.96323542799999 42.11191943333334 74.380580664 40.0 74.203413268 L 38.18977876666667 74.203413268" />
<path class="stroke" d="M 19.78588786666667 40.364349612 L 43.62043523333334 40.364349612" />
<path class="stroke" d="M 19.78588786666667 52.588932703199994 L 43.318733933333334 52.588932703199994" />
<path class="stroke" d="M 61.532845 30.620116132799996 L 61.532845 51.17158989439999" />
<path class="stroke" d="M 79.927 27.076757897199997 L 79.927 71.1915554 C 79.927 72.786068032 77.59124 74.203413268 75.54744 74.380580664 L 73.21168 74.380580664" />
<path class="stroke" d="M 18.613138 85.2846656 C 18.029196 88.8350336 15.69343 91.8248128 11.89781 93.5065664" />
<path class="stroke" d="M 35.255474 85.8452544 C 38.46715 88.274448 40.218975 90.51678720000001 41.67883 93.6934272" />
<path class="stroke" d="M 59.197075 86.03211519999999 C 62.408752 88.274448 63.868607 90.703648 65.32846 93.88028800000001" />
<path class="stroke" d="M 81.386856 86.03211519999999 C 84.8905 88.274448 86.9343 90.32992 88.68613 93.88028800000001" />
</svg>
