<?xml version="1.0" standalone="no"?>
<!DOCTYPE svg PUBLIC "-//W3C//DTD SVG 1.1//EN" "http://www.w3.org/Graphics/SVG/1.1/DTD/svg11.dtd">
<svg xmlns="http://www.w3.org/2000/svg" version="1.1" width="100%" height="100%">
<style type="text/css"><![CDATA[
  .stroke { fill:none; stroke:black; stroke-width:2 }
]]></style>
<path class="stroke" d="M 12.66301718181818 25.811516 C 12.177533500000001 33.979057 11.206567681818182 36.806282 10.235601863636363 41.83246" />
<path class="stroke" d="M 29.684967272727274 23.267326 C 28.307830499999998 28.613861 26.471648136363637 33.069305 23.946895454545455 36.336636" />
<path class="stroke" d="M 18.897388545454543 9.306931 L 18.897388545454543 57.72277 C 18.897388545454543 74.653465 12.066213636363637 85.6467 7.4212418181818185 90.39604" />
<path class="stroke" d="M 18.66786768181818 63.36634 C 22.569756363636365 68.71287 26.242124181818184 75.24753 27.848784909090906 82.9703" />
<path class="stroke" d="M 33.8154543 8.044168 L 95.85643999999999 8.044168" />
<path class="stroke" d="M 39.534913259999996 19.625937 L 90.31496809999999 19.625937 L 90.31496809999999 35.785538" />
<path class="stroke" d="M 39.32244434 35.486286 L 90.73990309999999 35.486286" />
<path class="stroke" d="M 39.6387962 19.40065 L 39.6387962 61.67185 C 39.5641042 75.86745 38.5936052 82.17665 35.1592642 90.37855" />
<path class="stroke" d="M 52.5551289232 45.3782176 L 66.4655045872 45.3782176 L 66.4655045872 87.7940596 C 66.4655045872 89.62376160000001 65.60506953160001 90.45544560000002 64.314416224 90.45544560000002 L 62.5935441816 90.45544560000002" />
<path class="stroke" d="M 50.2606335104 55.69108912 C 53.558969579999996 57.02178128 56.5704954128 59.3504948 58.721583776 62.5108912" />
<path class="stroke" d="M 50.547445195600005 78.1465336 L 59.582020279999995 69.49702952000001" />
<path class="stroke" d="M 74.2094273296 45.3782176 L 87.54617769199999 45.3782176 L 87.54617769199999 87.29504864 C 87.54617769199999 89.1247512 86.829147272 90.28910880000001 85.25168517600001 90.28910880000001 L 83.817624336 90.28910880000001" />
<path class="stroke" d="M 72.77536697240001 55.19207872 C 75.93029937200001 56.35643520000001 78.368197972 58.68514872 80.37587832 62.34455440000001" />
<path class="stroke" d="M 72.77536697240001 77.81386 L 81.66653307600001 69.1643576" />
</svg>
