<?xml version="1.0" standalone="no"?>
<!DOCTYPE svg PUBLIC "-//W3C//DTD SVG 1.1//EN" "http://www.w3.org/Graphics/SVG/1.1/DTD/svg11.dtd">
<svg xmlns="http://www.w3.org/2000/svg" version="1.1" width="100%" height="100%">
<style type="text/css"><![CDATA[
  .stroke { fill:none; stroke:black; stroke-width:2 }
]]></style>
<path class="stroke" d="M 9.039604200000001 7.5138612 L 24.8861382 7.5138612 L 24.8861382 43.11287145 C 24.8861382 44.6485142 23.905940850000004 45.3465347 22.435644 45.3465347 L 20.4752471 45.3465347" />
<path class="stroke" d="M 6.425742400000001 16.16930694 C 10.1831675 17.28613786 13.613861800000002 19.240593849999996 16.064356000000004 21.893069399999998" />
<path class="stroke" d="M 6.7524748500000005 35.0158407 L 17.044555000000003 27.75643549" />
<path class="stroke" d="M 33.7079226 7.5138612 L 48.9009895 7.5138612 L 48.9009895 42.69405868 C 48.9009895 44.229701899999995 48.084157000000005 45.2069306 46.28713100000001 45.2069306 L 44.653466 45.2069306" />
<path class="stroke" d="M 32.074258150000006 15.75049464 C 35.6683195 16.727722399999998 38.4455445 18.682178389999997 40.73267 21.7534653" />
<path class="stroke" d="M 32.074258150000006 34.7366325 L 42.202968500000004 27.4772287" />
<path class="stroke" d="M 25.332114500000003 54.39853932 C 25.192117500000002 56.9821514 21.8448175 59.9797874 18.839122500000002 60.0792394" />
<path class="stroke" d="M 11.84306475 60.17372202 L 11.84306475 91.870074" />
<path class="stroke" d="M 11.84306475 60.0796511 L 43.4781017 60.0796511 L 43.4781017 91.870074" />
<path class="stroke" d="M 11.84306475 75.0096135 L 43.4781017 75.0096135" />
<path class="stroke" d="M 11.84306475 90.4908376 L 43.4781017 90.4908376" />
<path class="stroke" d="M 62.2646417776 12.30802776 L 87.5848144 12.30802776" />
<path class="stroke" d="M 57.774364792 38.36350324000001 L 91.825633072 38.36350324000001" />
<path class="stroke" d="M 69.76350304 40.83284562 L 69.76350304 57.39634764 C 69.76350304 72.0007273 66.11970784 86.42700403999999 57.01021888 90.1671495" />
<path class="stroke" d="M 78.03211551999999 40.65474453 L 78.03211551999999 82.68685980000001 C 78.03211551999999 87.1394145 79.85401504000001 89.8109461 81.81605583999999 89.8109461 L 92.74744 89.8109461 C 94.28905119999999 89.9890478 95.41021599999999 88.5642281 95.41021599999999 86.6051033 L 95.41021599999999 83.22116734" />
</svg>
