<?xml version="1.0" standalone="no"?>
<!DOCTYPE svg PUBLIC "-//W3C//DTD SVG 1.1//EN" "http://www.w3.org/Graphics/SVG/1.1/DTD/svg11.dtd">
<svg xmlns="http://www.w3.org/2000/svg" version="1.1" width="100%" height="100%">
<style type="text/css"><![CDATA[
  .stroke { fill:none; stroke:black; stroke-width:2 }
]]></style>
<path class="stroke" d="M 11.011881480000001 8.0336632 L 30.315841080000002 8.0336632 L 30.315841080000002 39.8455447 C 30.315841080000002 41.2178212 29.12178249 41.8415842 27.3306936 41.8415842 L 24.94257374 41.8415842" />
<path class="stroke" d="M 8.41607636 21.77275108 C 17.398091 18.614168799999998 23.532152720000003 14.49427708 30.315841080000002 8.0336632" />
<path class="stroke" d="M 8.41607636 36.47275108 C 17.398091 33.314168800000004 23.532152720000003 29.19427708 30.315841080000002 22.7336632" />
<path class="stroke" d="M 39.82188148 8.0336632 L 59.12584108 8.0336632 L 59.12584108 39.8455447 C 59.12584108 41.2178212 57.931782489999996 41.8415842 56.140693600000006 41.8415842 L 53.75257374 41.8415842" />
<path class="stroke" d="M 37.22607636 21.77275108 C 46.208090999999996 18.614168799999998 52.34215272 14.49427708 59.12584108 8.0336632" />
<path class="stroke" d="M 37.22607636 36.47275108 C 46.208090999999996 33.314168800000004 52.34215272 29.19427708 59.12584108 22.7336632" />
<path class="stroke" d="M 34.599872402 43.079269168 C 27.199552088000004 50.584086712 18.850473309300003 56.470218544000005 8.4141230487 60.001896232" />
<path class="stroke" d="M 34.599872402 43.079269168 C 42.189946618600004 50.289779440000004 49.969770838399995 56.470218544000005 60.785623705000006 59.854743856" />
<path class="stroke" d="M 35.4612537614 57.6978172093 C 28.44871188 64.1948842207 23.136175819 67.1014667485 13.148612703600001 70.86292802829999" />
<path class="stroke" d="M 45.448815577000005 64.365860494 C 38.22377329300001 70.86292802829999 29.2987147902 77.1890219038 16.761136445200002 81.1214557966" />
<path class="stroke" d="M 55.861383397000004 71.03390430159999 C 46.298819787000006 79.9246286812 35.2487540087 87.96047326300001 15.2736258282 93.43169100099999" />
<path class="stroke" d="M 65.38248012 33.211678 L 92.37809899999999 30.875912 C 91.706568 64.16058 89.6919704 81.9708 89.02043756 85.76642 C 88.2145953 88.978096 86.60291860000001 89.85401 85.259852 90.14598 L 83.91678540000001 89.85401" />
<path class="stroke" d="M 78.6788298 10.437956 C 77.06715080000001 43.138683 71.8291952 76.423355 63.36788252 85.76642" />
</svg>
