<?xml version="1.0" standalone="no"?>
<!DOCTYPE svg PUBLIC "-//W3C//DTD SVG 1.1//EN" "http://www.w3.org/Graphics/SVG/1.1/DTD/svg11.dtd">
<svg xmlns="http://www.w3.org/2000/svg" version="1.1" width="100%" height="100%">
<style type="text/css"><![CDATA[
  .stroke { fill:none; stroke:black; stroke-width:2 }
]]></style>
<path class="stroke" d="M 50.6309 12.2760098 L 50.6309 18.515757" />
<path class="stroke" d="M 6.466877 18.651379000000002 L 6.466877 24.077248" />
<path class="stroke" d="M 6.466877 18.651379000000002 L 94.164055 18.651379000000002 L 94.164055 24.077248" />
<path class="stroke" d="M 16.435644 27.346593928 L 45.247524 27.346593928 L 45.247524 52.477980313 C 45.247524 53.562078748000005 43.465347 54.054851518 40.79208 54.054851518 L 37.227722 54.054851518" />
<path class="stroke" d="M 12.561308 38.200473353199996 C 25.9673 35.705193351999995 35.122616 32.4504788932 45.247524 27.346593928" />
<path class="stroke" d="M 12.561308 49.8134733532 C 25.9673 47.31819335200001 35.122616 44.0634788932 45.247524 38.959593928000004" />
<path class="stroke" d="M 59.435644 27.346593928 L 88.247524 27.346593928 L 88.247524 52.477980313 C 88.247524 53.562078748000005 86.465347 54.054851518 83.79208 54.054851518 L 80.227722 54.054851518" />
<path class="stroke" d="M 55.561308 38.200473353199996 C 68.9673 35.705193351999995 78.122616 32.4504788932 88.247524 27.346593928" />
<path class="stroke" d="M 55.561308 49.8134733532 C 68.9673 47.31819335200001 78.122616 44.0634788932 88.247524 38.959593928000004" />
<path class="stroke" d="M 51.6416006 55.03262264272001 C 40.5963464 60.961428502480004 28.135034790000002 65.61147264976 12.55839261 68.40149802328" />
<path class="stroke" d="M 51.6416006 55.03262264272001 C 62.97006958 60.7289257576 74.58174752 65.61147264976 90.7248115 68.28524764624001" />
<path class="stroke" d="M 52.92724442 66.581275595347 C 42.460764 71.713958534353 34.5316057 74.010158731315 19.624795080000002 76.981713142357" />
<path class="stroke" d="M 67.8340531 71.84902979026 C 57.0504079 76.981713142357 43.72942506 81.979327304002 25.01662156 85.085950079314" />
<path class="stroke" d="M 83.3751991 77.116784398264 C 69.10271610000001 84.140456658148 52.61008061 90.48877387777002 22.796456459999998 94.81103589079" />
</svg>
