<?xml version="1.0" standalone="no"?>
<!DOCTYPE svg PUBLIC "-//W3C//DTD SVG 1.1//EN" "http://www.w3.org/Graphics/SVG/1.1/DTD/svg11.dtd">
<svg xmlns="http://www.w3.org/2000/svg" version="1.1" width="100%" height="100%">
<style type="text/css"><![CDATA[
  .stroke { fill:none; stroke:black; stroke-width:2 }
]]></style>
<path class="stroke" d="M 49.999996 5.0 C 52.376232 7.6732674 52.793365 10.037088 52.918915 12.702702" />
<path class="stroke" d="M 12.702702 13.675674 L 92.81081 13.351351" />
<path class="stroke" d="M 12.378378 13.999998 L 12.702702 39.62162 C 12.702702 61.30479 14.560343 79.686905 6.5405407 92.162155" />
<path class="stroke" d="M 30.49108944 26.025247399999998 L 52.38811824 26.025247399999998 L 52.38811824 49.884158525 C 52.38811824 50.9133659 51.03366372 51.38118815 49.0019808 51.38118815 L 46.29306872 51.38118815" />
<path class="stroke" d="M 27.54659408 36.32956331 C 37.735148 33.9606266 44.693188160000005 30.87070781 52.38811824 26.025247399999998" />
<path class="stroke" d="M 27.54659408 47.35456331 C 37.735148 44.9856266 44.693188160000005 41.89570781 52.38811824 37.0502474" />
<path class="stroke" d="M 63.17108944 26.025247399999998 L 85.06811824 26.025247399999998 L 85.06811824 49.884158525 C 85.06811824 50.9133659 83.71366372 51.38118815 81.68198079999999 51.38118815 L 78.97306872 51.38118815" />
<path class="stroke" d="M 60.22659408 36.32956331 C 70.41514799999999 33.9606266 77.37318816 30.87070781 85.06811824 26.025247399999998" />
<path class="stroke" d="M 60.22659408 47.35456331 C 70.41514799999999 44.9856266 77.37318816 41.89570781 85.06811824 37.0502474" />
<path class="stroke" d="M 57.247616455999996 52.309451876000004 C 48.853223264 57.938065034000005 39.3826264404 62.352663908000004 27.544378383599998 65.001422174" />
<path class="stroke" d="M 57.247616455999996 52.309451876000004 C 65.8572528808 57.71733458 74.68212811519999 62.352663908000004 86.95085674 64.89105789199999" />
<path class="stroke" d="M 58.2247057592 63.273362906974995 C 50.27018064 68.146163165525 44.244020332000005 70.326100061375 32.9148442608 73.147196021225" />
<path class="stroke" d="M 69.55388035600001 68.2743953705 C 61.358310004 73.147196021225 51.2343630456 77.89176642785 37.0126323856 80.84109184745" />
<path class="stroke" d="M 81.36515131600001 73.27542822619999 C 70.51806423600001 79.9434715109 57.9836612636 85.97035494725 35.3253069096 90.07376825074999" />
</svg>
