<?xml version="1.0" standalone="no"?>
<!DOCTYPE svg PUBLIC "-//W3C//DTD SVG 1.1//EN" "http://www.w3.org/Graphics/SVG/1.1/DTD/svg11.dtd">
<svg xmlns="http://www.w3.org/2000/svg" version="1.1" width="100%" height="100%">
<style type="text/css"><![CDATA[
  .stroke { fill:none; stroke:black; stroke-width:2 }
]]></style>
<path class="stroke" d="M 82.376236 5.5005500000000005 C 63.960396 7.975797777777778 35.742573 9.130913333333334 19.108912 9.130913333333334" />
<path class="stroke" d="M 20.891088 13.42134277777778 C 25.346535 15.731573888888889 28.0231 18.255611111111115 30.09901 20.84708555555556" />
<path class="stroke" d="M 43.465347 12.596259444444444 C 47.623764 14.411441111111111 50.29703 16.721672222222224 52.07921 19.691969444444446" />
<path class="stroke" d="M 80.89109 11.606160000000001 C 78.514854 15.566556666666667 74.95049 18.536853888888892 69.90099 20.682067777777778" />
<path class="stroke" d="M 9.854013 23.343064 L 9.854013 34.7883176" />
<path class="stroke" d="M 9.854013 22.8759096 L 90.14598 22.8759096 L 90.14598 35.0218936" />
<path class="stroke" d="M 27.2871 31.9511009 C 25.7098 44.232890999999995 18.1389 56.054145999999996 6.15142 65.572543" />
<path class="stroke" d="M 23.5015 46.91951 L 46.5299 46.91951 C 40.0105 70.638743 27.1819 82.61359 7.41325 95.509478" />
<path class="stroke" d="M 16.87687 56.8217629 L 37.06617 67.6451809" />
<path class="stroke" d="M 55.362743 47.1498615 L 93.53314 47.1498615" />
<path class="stroke" d="M 60.72553 47.38014 L 60.72553 72.481044" />
<path class="stroke" d="M 50.000084 72.481044 L 93.84859 72.481044" />
<path class="stroke" d="M 79.0221 32.1813867 L 79.0221 95.04892099999999" />
</svg>
