<?xml version="1.0" standalone="no"?>
<!DOCTYPE svg PUBLIC "-//W3C//DTD SVG 1.1//EN" "http://www.w3.org/Graphics/SVG/1.1/DTD/svg11.dtd">
<svg xmlns="http://www.w3.org/2000/svg" version="1.1" width="100%" height="100%">
<style type="text/css"><![CDATA[
  .stroke { fill:none; stroke:black; stroke-width:2 }
]]></style>
<path class="stroke" d="M 6.15144 9.621452 L 54.6057 9.621452" />
<path class="stroke" d="M 6.15144 9.62145 L 6.15144 91.3249 L 55.55208 91.3249" />
<path class="stroke" d="M 22.94671509 21.20802875 L 22.94671509 42.463502500000004" />
<path class="stroke" d="M 22.94671509 21.20802875 L 40.132115999999996 21.20802875 L 40.132115999999996 42.2591235" />
<path class="stroke" d="M 22.94671509 40.8284656 L 40.132115999999996 40.8284656" />
<path class="stroke" d="M 14.060036317499998 53.328831625 L 14.060036317499998 76.70985275000001" />
<path class="stroke" d="M 14.060036317499998 53.328831625 L 26.949086999999995 53.328831625 L 26.949086999999995 76.48503585" />
<path class="stroke" d="M 14.060036317499998 74.91131216 L 26.949086999999995 74.91131216" />
<path class="stroke" d="M 36.1100363175 53.328831625 L 36.1100363175 76.70985275000001" />
<path class="stroke" d="M 36.1100363175 53.328831625 L 48.999086999999996 53.328831625 L 48.999086999999996 76.48503585" />
<path class="stroke" d="M 36.1100363175 74.91131216 L 48.999086999999996 74.91131216" />
<path class="stroke" d="M 68.840695 8.04417 L 68.840695 26.6562 C 68.74606 41.062 63.682975 47.897 57.910096 50.9464" />
<path class="stroke" d="M 68.98267 8.04416 L 84.3139 8.04416 L 84.3139 36.7507 C 84.171925 40.8516 85.30759 43.3753 86.86909 43.3753 L 96.72512950000001 43.3753" />
<path class="stroke" d="M 64.440055 53.15461 L 88.14673 53.15461 C 82.13725 77.23451 71.15932000000001 89.01161 58.761829 94.16401" />
<path class="stroke" d="M 67.847005 53.15461 C 70.070995 75.65721 82.799695 92.16621 96.80599000000001 93.84861" />
</svg>
