<?xml version="1.0" standalone="no"?>
<!DOCTYPE svg PUBLIC "-//W3C//DTD SVG 1.1//EN" "http://www.w3.org/Graphics/SVG/1.1/DTD/svg11.dtd">
<svg xmlns="http://www.w3.org/2000/svg" version="1.1" width="100%" height="100%">
<style type="text/css"><![CDATA[
  .stroke { fill:none; stroke:black; stroke-width:2 }
]]></style>
<path class="stroke" d="M 24.094029911764707 11.605839 C 20.856589323529413 27.372261 14.132674058823527 41.970802 8.40489344117647 50.14598" />
<path class="stroke" d="M 19.113350705882354 30.583939 L 19.113350705882354 90.43795" />
<path class="stroke" d="M 84.98898369999999 7.3911675 C 71.0183897 10.125142499999999 54.9753257 11.5972925 38.9321887 11.8075925" />
<path class="stroke" d="M 29.95110236 22.05995 L 93.27921409999999 22.05995" />
<path class="stroke" d="M 55.052056 11.334399999999999 C 54.668222 26.8444 48.527316 34.94115 30.4116725 40.9874" />
<path class="stroke" d="M 70.250802 22.21765 C 73.93533099999999 30.9453 80.383275 36.83385 92.358049 41.1451" />
<path class="stroke" d="M 47.682998 33.731865 L 47.682998 49.504765" />
<path class="stroke" d="M 47.682998 33.731865 L 76.007874 33.731865 L 76.007874 49.504765" />
<path class="stroke" d="M 47.682998 49.504765 L 76.007874 49.504765" />
<path class="stroke" d="M 39.2270065 59.15985385 L 39.2270065 92.07955949999999" />
<path class="stroke" d="M 39.2270065 59.15985385 L 83.77299349999998 59.15985385 L 83.77299349999998 90.28393990000001 C 83.77299349999998 91.3613133 83.13357189999999 91.9598518 81.2153217 91.9598518 L 79.08393705 91.9598518" />
<path class="stroke" d="M 47.624671146 67.56335735 L 47.624671146 82.5029189" />
<path class="stroke" d="M 47.624671146 67.56335735 L 75.5032104 67.56335735 L 75.5032104 82.35926966" />
<path class="stroke" d="M 47.624671146 81.353721536 L 75.5032104 81.353721536" />
</svg>
