<?xml version="1.0" standalone="no"?>
<!DOCTYPE svg PUBLIC "-//W3C//DTD SVG 1.1//EN" "http://www.w3.org/Graphics/SVG/1.1/DTD/svg11.dtd">
<svg xmlns="http://www.w3.org/2000/svg" version="1.1" width="100%" height="100%">
<style type="text/css"><![CDATA[
  .stroke { fill:none; stroke:black; stroke-width:2 }
]]></style>
<path class="stroke" d="M 12.189779 12.554744 L 87.81021 12.554744" />
<path class="stroke" d="M 34.67153 6.715327200000001 L 34.67153 18.8613128" />
<path class="stroke" d="M 65.32846 6.715327200000001 L 65.32846 18.8613128" />
<path class="stroke" d="M 82.17669 23.134669025 C 63.03889 25.403868275 41.06209 26.625752775 19.08519 26.800301775" />
<path class="stroke" d="M 6.782332 35.3097585 L 93.53317 35.3097585" />
<path class="stroke" d="M 41.1672 26.407552 C 40.6414 39.280851999999996 32.2292 46.0011545 7.41325 51.019542" />
<path class="stroke" d="M 61.9874 35.4406495 C 67.0347 42.684599 75.8675 47.572095499999996 92.2713 51.150433" />
<path class="stroke" d="M 31.0726 44.997447949999994 L 31.0726 58.088954949999994" />
<path class="stroke" d="M 31.0726 44.997447949999994 L 69.8738 44.997447949999994 L 69.8738 58.088954949999994" />
<path class="stroke" d="M 31.0726 58.088954949999994 L 69.8738 58.088954949999994" />
<path class="stroke" d="M 19.48905 66.1026786955 L 19.48905 93.42603438499998" />
<path class="stroke" d="M 19.48905 66.1026786955 L 80.51095 66.1026786955 L 80.51095 91.935670117 C 80.51095 92.829890039 79.63503 93.326676994 77.00729 93.326676994 L 74.087585 93.326676994" />
<path class="stroke" d="M 30.9927002 73.0775866005 L 30.9927002 85.477422687" />
<path class="stroke" d="M 30.9927002 73.0775866005 L 69.18248 73.0775866005 L 69.18248 85.35819381779999" />
<path class="stroke" d="M 30.9927002 84.52358887487999 L 69.18248 84.52358887487999" />
</svg>
