<?xml version="1.0" standalone="no"?>
<!DOCTYPE svg PUBLIC "-//W3C//DTD SVG 1.1//EN" "http://www.w3.org/Graphics/SVG/1.1/DTD/svg11.dtd">
<svg xmlns="http://www.w3.org/2000/svg" version="1.1" width="100%" height="100%">
<style type="text/css"><![CDATA[
  .stroke { fill:none; stroke:black; stroke-width:2 }
]]></style>
<path class="stroke" d="M 20.154471930232557 11.89781 C 19.523001209302326 30.875912 15.52367895348837 45.47445 11.734848139534884 55.693428 C 19.10201976744186 60.9489 25.41673706976744 70.0 30.258020046511625 81.386856" />
<path class="stroke" d="M 29.40824372093023 26.831684 C 27.909278372093024 53.564358 21.838396976744185 69.70802 11.524358860465115 79.34306" />
<path class="stroke" d="M 7.314547325581395 33.79562 L 30.693069 29.80198" />
<path class="stroke" d="M 85.8801492 7.3911675 C 72.8664452 10.125142499999999 57.922221199999996 11.5972925 42.977929200000005 11.8075925" />
<path class="stroke" d="M 34.61198576 22.05995 L 93.6025556 22.05995" />
<path class="stroke" d="M 57.993696 11.334399999999999 C 57.636151999999996 26.8444 51.915856000000005 34.94115 35.04101 40.9874" />
<path class="stroke" d="M 72.151432 22.21765 C 75.583596 30.9453 81.5899 36.83385 92.744484 41.1451" />
<path class="stroke" d="M 51.129368 33.731865 L 51.129368 49.504765" />
<path class="stroke" d="M 51.129368 33.731865 L 77.514184 33.731865 L 77.514184 49.504765" />
<path class="stroke" d="M 51.129368 49.504765 L 77.514184 49.504765" />
<path class="stroke" d="M 43.252554 59.15985385 L 43.252554 92.07955949999999" />
<path class="stroke" d="M 43.252554 59.15985385 L 84.747446 59.15985385 L 84.747446 90.28393990000001 C 84.747446 91.3613133 84.1518204 91.9598518 82.36495719999999 91.9598518 L 80.37955780000001 91.9598518" />
<path class="stroke" d="M 51.075036136 67.56335735 L 51.075036136 82.5029189" />
<path class="stroke" d="M 51.075036136 67.56335735 L 77.0440864 67.56335735 L 77.0440864 82.35926966" />
<path class="stroke" d="M 51.075036136 81.353721536 L 77.0440864 81.353721536" />
</svg>
