<?xml version="1.0" standalone="no"?>
<!DOCTYPE svg PUBLIC "-//W3C//DTD SVG 1.1//EN" "http://www.w3.org/Graphics/SVG/1.1/DTD/svg11.dtd">
<svg xmlns="http://www.w3.org/2000/svg" version="1.1" width="100%" height="100%">
<style type="text/css"><![CDATA[
  .stroke { fill:none; stroke:black; stroke-width:2 }
]]></style>
<path class="stroke" d="M 5.433772 4.42586792 L 48.235035 4.42586792" />
<path class="stroke" d="M 5.433772 4.425867 L 5.433772 42.009454 L 49.071004 42.009454" />
<path class="stroke" d="M 20.312152957000002 9.7687878702 C 20.0738458187 12.15407262 18.4057007478 14.936903892000002 17.095013323600003 16.0301604448" />
<path class="stroke" d="M 19.239772263000003 13.7442624532 L 38.54260435 13.7442624532" />
<path class="stroke" d="M 14.950255200399999 22.004170913600003 L 41.40228348 22.004170913600003" />
<path class="stroke" d="M 27.93796261 14.042422898 L 27.93796261 18.216670486800002 C 27.957928086300004 27.397596503999996 16.7375540445 34.913662544 12.3288823925 36.30507818" />
<path class="stroke" d="M 27.957928086300004 22.31919954 C 31.2742543842 29.149223420000002 37.112764785 33.820406672 44.38111352650001 36.205691592" />
<path class="stroke" d="M 66.7981 4.1858535728 L 66.7981 14.839284992000001 C 66.95585 18.853608944 60.8044 21.875390528 53.548895 21.919503056" />
<path class="stroke" d="M 66.7981 4.1196847808 L 83.2019 4.1196847808 L 83.2019 19.80205976 C 82.9916 21.147502352 84.5163 22.029794864 86.82965 21.98566136 L 93.13875 21.98566136 C 96.03045 21.98566136 96.8717 20.926960687999998 96.76655 19.80205976 L 96.76655 18.809496416" />
<path class="stroke" d="M 61.9306925 25.25937407328 L 86.732675 25.25937407328 C 81.0891075 34.78164780824 71.584158 39.4337512704 54.950495000000004 43.5043405456" />
<path class="stroke" d="M 61.3366335 27.440047808240003 C 63.5483855 31.948334954960004 71.2903215 35.658606577920004 73.870966 37.3163873336 C 78.548385 39.8425291112 86.93548200000001 41.7371342208 94.90099000000001 43.5043405456" />
<path class="stroke" d="M 6.15142 52.033147 L 93.8486 52.033147" />
<path class="stroke" d="M 13.4069 61.364362 L 13.4069 92.897458" />
<path class="stroke" d="M 13.4069 61.364362 L 86.9085 61.364362 L 86.9085 92.897458" />
<path class="stroke" d="M 40.2208 52.19403007 L 40.2208 65.06469556 C 39.677418 68.7032263 28.387096 75.44838736 13.870968 76.92903007" />
<path class="stroke" d="M 59.46373 52.033147 L 59.46373 74.395933 C 59.04313 76.272937 61.461628 77.667226 64.82653 77.613625 L 73.97473 77.613625 C 76.39323 77.559973 79.44263 76.541044 79.337524 74.556838 L 79.337524 72.304474" />
<path class="stroke" d="M 13.4069 84.048907 L 86.9085 84.048907" />
<path class="stroke" d="M 13.4069 92.897458 L 86.9085 92.897458" />
</svg>
