<?xml version="1.0" standalone="no"?>
<!DOCTYPE svg PUBLIC "-//W3C//DTD SVG 1.1//EN" "http://www.w3.org/Graphics/SVG/1.1/DTD/svg11.dtd">
<svg xmlns="http://www.w3.org/2000/svg" version="1.1" width="100%" height="100%">
<style type="text/css"><![CDATA[
  .stroke { fill:none; stroke:black; stroke-width:2 }
]]></style>
<path class="stroke" d="M 11.946819428571429 27.956203 L 31.46715257142857 27.956203" />
<path class="stroke" d="M 23.45880857142857 9.270073 L 23.45880857142857 90.14598" />
<path class="stroke" d="M 23.45880857142857 36.131386 C 20.20542 44.598537 16.20125057142857 52.48175 10.445255142857143 56.861313" />
<path class="stroke" d="M 23.45880857142857 36.131386 C 27.212719714285715 37.299267 29.71532657142857 42.26277 30.96663 46.934303" />
<path class="stroke" d="M 40.566038 24.528269 L 40.566038 37.421368" />
<path class="stroke" d="M 40.56601 24.2138 L 93.8365 24.2138 L 93.8365 37.4214" />
<path class="stroke" d="M 59.496809999999996 6.2893 L 59.496809999999996 42.7673 C 59.350089999999994 65.1992 46.21592 92.6625 34.182388 94.0252" />
<path class="stroke" d="M 67.20124799999999 42.76727 L 67.20124799999999 86.16347 C 66.907738 90.56597 69.475898 94.02517 72.264138 93.71067 L 89.654028 94.02517 C 92.44226799999998 94.12997 95.01042799999999 91.09017 94.716918 86.47797 L 94.716918 77.672966" />
</svg>
