<?xml version="1.0" standalone="no"?>
<!DOCTYPE svg PUBLIC "-//W3C//DTD SVG 1.1//EN" "http://www.w3.org/Graphics/SVG/1.1/DTD/svg11.dtd">
<svg xmlns="http://www.w3.org/2000/svg" version="1.1" width="100%" height="100%">
<style type="text/css"><![CDATA[
  .stroke { fill:none; stroke:black; stroke-width:2 }
]]></style>
<path class="stroke" d="M 50.312496 5.35644745 L 50.312496 12.738442016666667" />
<path class="stroke" d="M 14.233576 12.738442016666667 L 14.233576 21.740875633333335" />
<path class="stroke" d="M 14.233576 12.738442016666667 L 86.05839 12.738442016666667 L 86.05839 21.740875633333335" />
<path class="stroke" d="M 38.46715 18.860095716666667 C 35.547443 25.161798816666668 27.956203 31.103404966666666 19.197079 33.26398975" />
<path class="stroke" d="M 60.40019 17.77980425 L 60.40019 25.945022833333333 C 60.65693 29.1228702 63.23729 30.868304500000004 67.96229 30.803431166666666 L 85.93139 30.803492833333337" />
<path class="stroke" d="M 29.8107 38.3895872 L 29.8107 62.906991000000005" />
<path class="stroke" d="M 29.8107 38.3895872 L 71.1357 38.3895872 L 71.1357 62.906991000000005" />
<path class="stroke" d="M 49.99996 50.014181 L 49.99996 62.906991000000005" />
<path class="stroke" d="M 49.99996 50.014181 L 70.82026 50.014181" />
<path class="stroke" d="M 13.7224 63.329627 L 13.7224 95.244474" />
<path class="stroke" d="M 13.7224 63.329627 L 86.2776 63.329627 L 86.2776 91.22869500000002 C 86.1724 93.48317800000001 83.5436 94.892188 81.2302 94.821771 L 76.8138 94.821771" />
<path class="stroke" d="M 34.22713 72.2066312 L 34.22713 87.8469772" />
<path class="stroke" d="M 34.22713 72.2066312 L 65.77283 72.2066312 L 65.77283 87.8469772" />
<path class="stroke" d="M 34.22713 87.8469772 L 65.77283 87.8469772" />
</svg>
