<?xml version="1.0" standalone="no"?>
<!DOCTYPE svg PUBLIC "-//W3C//DTD SVG 1.1//EN" "http://www.w3.org/Graphics/SVG/1.1/DTD/svg11.dtd">
<svg xmlns="http://www.w3.org/2000/svg" version="1.1" width="100%" height="100%">
<style type="text/css"><![CDATA[
  .stroke { fill:none; stroke:black; stroke-width:2 }
]]></style>
<path class="stroke" d="M 49.85401 6.02408646 L 49.85401 11.54233521" />
<path class="stroke" d="M 19.781021 11.54233521 L 80.21897 11.54233521" />
<path class="stroke" d="M 30.875912 18.34817292 L 30.875912 28.09707831" />
<path class="stroke" d="M 30.875912 18.34817292 L 69.124084 18.34817292 L 69.124084 28.09707831" />
<path class="stroke" d="M 30.875912 28.09707831 L 69.124084 28.09707831" />
<path class="stroke" d="M 18.905107 34.35109209 L 18.905107 56.4240852" />
<path class="stroke" d="M 18.905107 34.35109209 L 80.80292 34.35109209 L 80.80292 53.6649624 C 81.09489 55.6883208 78.46715 57.15984960000001 76.131386 57.15984960000001 L 74.379555 57.15984960000001" />
<path class="stroke" d="M 36.131386 41.0435613 L 36.131386 51.457659750000005" />
<path class="stroke" d="M 36.131386 41.15692980000001 L 63.868607 41.15692980000001 L 63.868607 51.457659750000005" />
<path class="stroke" d="M 36.131386 51.457659750000005 L 63.868607 51.457659750000005" />
<path class="stroke" d="M 77.003144 61.26340625 C 60.851704000000005 62.73554475 40.662504 63.76601475 20.977944 64.02364975" />
<path class="stroke" d="M 15.4258664 73.629328 L 83.564672 73.629328" />
<path class="stroke" d="M 49.24288000000001 63.36121 L 49.24288000000001 92.17824999999999" />
<path class="stroke" d="M 49.24291360000001 73.629363 C 40.662436 79.333873 30.315473600000004 84.265513 15.930602400000001 88.424318" />
<path class="stroke" d="M 49.24291360000001 73.629363 C 57.739232 79.628293 67.2449952 84.081518 83.059952 88.313893" />
</svg>
