<?xml version="1.0" standalone="no"?>
<!DOCTYPE svg PUBLIC "-//W3C//DTD SVG 1.1//EN" "http://www.w3.org/Graphics/SVG/1.1/DTD/svg11.dtd">
<svg xmlns="http://www.w3.org/2000/svg" version="1.1" width="100%" height="100%">
<style type="text/css"><![CDATA[
  .stroke { fill:none; stroke:black; stroke-width:2 }
]]></style>
<path class="stroke" d="M 9.0022 7.41324 L 9.0022 57.8864" />
<path class="stroke" d="M 9.0022 7.09779 L 39.90534074074074 7.09779" />
<path class="stroke" d="M 23.513249259259258 7.09779 L 23.513249259259258 57.571" />
<path class="stroke" d="M 9.53971851851852 22.8707 L 35.60578888888889 22.8707" />
<path class="stroke" d="M 9.0022 40.5363 L 35.337029629629626 40.5363" />
<path class="stroke" d="M 9.0022 57.8864 L 39.90534074074074 57.8864 C 40.174099999999996 70.8202 38.02428148148148 92.2713 31.843670370370372 92.5868 L 25.125625925925927 92.5868" />
<path class="stroke" d="M 6.852428333333333 68.92747 C 8.19604574074074 74.81597 8.19604574074074 80.38917 6.852428333333333 86.59307" />
<path class="stroke" d="M 14.107961481481484 67.98113 C 16.257865185185185 73.13363 16.795213333333333 77.33953 16.795213333333333 82.80753" />
<path class="stroke" d="M 21.09478222222222 66.71927 C 23.24460074074074 70.82017 24.31946740740741 74.29017 25.125574814814815 78.39107" />
<path class="stroke" d="M 28.081585925925925 65.45733 C 29.69397111111111 68.50673 30.768752592592595 71.55623 31.843619259259256 74.92113" />
<path class="stroke" d="M 88.9495478 7.3911675 C 77.0841118 10.125142499999999 63.458495799999994 11.5972925 49.8328178 11.8075925" />
<path class="stroke" d="M 42.20504584 22.05995 L 95.99056540000001 22.05995" />
<path class="stroke" d="M 63.523664 11.334399999999999 C 63.19766799999999 26.8444 57.982104 34.94115 42.596215 40.9874" />
<path class="stroke" d="M 76.432188 22.21765 C 79.561514 30.9453 85.03785 36.83385 95.20820599999999 41.1451" />
<path class="stroke" d="M 57.265012 33.731865 L 57.265012 49.504765" />
<path class="stroke" d="M 57.265012 33.731865 L 81.321756 33.731865 L 81.321756 49.504765" />
<path class="stroke" d="M 57.265012 49.504765 L 81.321756 49.504765" />
<path class="stroke" d="M 50.083211 59.15985385 L 50.083211 92.07955949999999" />
<path class="stroke" d="M 50.083211 59.15985385 L 87.916789 59.15985385 L 87.916789 90.28393990000001 C 87.916789 91.3613133 87.37371859999999 91.9598518 85.7445198 91.9598518 L 83.9343027 91.9598518" />
<path class="stroke" d="M 57.215474123999996 67.56335735 L 57.215474123999996 82.5029189" />
<path class="stroke" d="M 57.215474123999996 67.56335735 L 80.89313759999999 67.56335735 L 80.89313759999999 82.35926966" />
<path class="stroke" d="M 57.215474123999996 81.353721536 L 80.89313759999999 81.353721536" />
</svg>
