<?xml version="1.0" standalone="no"?>
<!DOCTYPE svg PUBLIC "-//W3C//DTD SVG 1.1//EN" "http://www.w3.org/Graphics/SVG/1.1/DTD/svg11.dtd">
<svg xmlns="http://www.w3.org/2000/svg" version="1.1" width="100%" height="100%">
<style type="text/css"><![CDATA[
  .stroke { fill:none; stroke:black; stroke-width:2 }
]]></style>
<path class="stroke" d="M 13.90437938 12.854013 L 13.8812084 58.63759 C 10.937583629999999 83.20134 10.937583629999999 82.39597 7.647650619999999 92.865776" />
<path class="stroke" d="M 13.90437938 12.854013 L 31.4810224 12.854013 L 31.4810224 89.05839 C 31.4810224 91.39416 30.9788297 93.43795 29.72335612 93.43795 L 28.342336299999996 93.43795" />
<path class="stroke" d="M 13.90437938 34.862577 L 31.4810224 34.862577" />
<path class="stroke" d="M 13.90437938 58.110336 L 31.4810224 58.110336" />
<path class="stroke" d="M 41.094525425 18.759122400000003 L 65.227369825 18.759122400000003" />
<path class="stroke" d="M 53.25001281 6.35036442 L 53.25001281 33.4510936" />
<path class="stroke" d="M 43.320802165 33.4510936 L 63.09014485 33.4510936" />
<path class="stroke" d="M 41.511831 43.37535 L 41.511831 63.24915" />
<path class="stroke" d="M 41.511831 43.37535 L 65.0843965 43.37535 L 65.0843965 63.24915" />
<path class="stroke" d="M 41.511831 63.24915 L 65.0843965 63.24915" />
<path class="stroke" d="M 44.302032 70.82017 C 45.713206 74.50057 46.7395005 79.44267 47.6695675 84.70027" />
<path class="stroke" d="M 62.00551299999999 70.82017 C 60.722652499999995 74.18507 60.017096 77.54997 59.215312 81.54577" />
<path class="stroke" d="M 40.4534688 94.164 L 65.8540945 87.8549" />
<path class="stroke" d="M 90.65145765 9.854013 C 86.10985210000001 20.948904 79.52007273 29.124084 74.71131341 30.0" />
<path class="stroke" d="M 93.23394145 34.37956 C 88.0275457 49.22649 83.4820392 55.46259 75.6482057 58.21079" />
<path class="stroke" d="M 95.7671647 60.953674 C 89.98297085 79.264305 82.102553785 88.68613 73.73175162 89.56204" />
</svg>
