<?xml version="1.0" standalone="no"?>
<!DOCTYPE svg PUBLIC "-//W3C//DTD SVG 1.1//EN" "http://www.w3.org/Graphics/SVG/1.1/DTD/svg11.dtd">
<svg xmlns="http://www.w3.org/2000/svg" version="1.1" width="100%" height="100%">
<style type="text/css"><![CDATA[
  .stroke { fill:none; stroke:black; stroke-width:2 }
]]></style>
<path class="stroke" d="M 12.888283 9.945503 L 12.888283 90.05449" />
<path class="stroke" d="M 12.888283 10.145985 L 86.78474 10.145985 L 86.78474 85.80381 C 86.78474 88.092636 84.82288 90.05449 82.207085 90.05449 L 80.24523 90.05449" />
<path class="stroke" d="M 40.7554735 11.25109428 L 40.7554735 20.483210160000002 C 40.7554735 28.623356200000003 35.0620435 36.66423176 20.828467 38.748903" />
<path class="stroke" d="M 53.675180499999996 11.15182482 L 53.675180499999996 34.5795612 C 53.675180499999996 37.061313 56.5218985 38.5503634 59.58758725 38.5503634 L 76.66787500000001 38.5503634 C 79.07664249999999 38.6496332 80.8284625 37.8554714 80.8284625 36.763500199999996 L 80.8284625 34.877371960000005" />
<path class="stroke" d="M 34.1605835 46.69124025 L 34.1605835 76.4489035" />
<path class="stroke" d="M 34.1605835 46.69124025 L 65.9854 46.69124025 L 65.9854 76.1627729" />
<path class="stroke" d="M 34.1605835 74.15985183999999 L 65.9854 74.15985183999999" />
</svg>
