<?xml version="1.0" standalone="no"?>
<!DOCTYPE svg PUBLIC "-//W3C//DTD SVG 1.1//EN" "http://www.w3.org/Graphics/SVG/1.1/DTD/svg11.dtd">
<svg xmlns="http://www.w3.org/2000/svg" version="1.1" width="100%" height="100%">
<style type="text/css"><![CDATA[
  .stroke { fill:none; stroke:black; stroke-width:2 }
]]></style>
<path class="stroke" d="M 14.152783909090909 25.811516 C 13.6101845 33.979057 12.52498740909091 36.806282 11.439790318181819 41.83246" />
<path class="stroke" d="M 33.177316363636365 23.267326 C 31.638163499999997 28.613861 29.58595968181818 33.069305 26.764177272727274 36.336636" />
<path class="stroke" d="M 21.120610727272727 9.306931 L 21.120610727272727 57.72277 C 21.120610727272727 74.653465 13.485768181818182 85.6467 8.294329090909091 90.39604" />
<path class="stroke" d="M 20.86408740909091 63.36634 C 25.22502181818182 68.71287 29.32943290909091 75.24753 31.12511254545454 82.9703" />
<path class="stroke" d="M 39.990735459999996 12.34877282 L 39.990735459999996 87.6512206" />
<path class="stroke" d="M 39.990735459999996 12.5372259 L 85.8065388 12.5372259 L 85.8065388 83.65558139999999 C 85.8065388 85.80707783999999 84.5901856 87.6512206 82.96839270000001 87.6512206 L 81.75204260000001 87.6512206" />
<path class="stroke" d="M 57.26839357 13.5760286232 L 57.26839357 22.2542175504 C 57.26839357 29.905954828000002 53.738466970000005 37.4643778544 44.91364954 39.42396882" />
<path class="stroke" d="M 65.27861191 13.4827153308 L 65.27861191 35.504787528 C 65.27861191 37.83763422 67.04357707 39.237341596 68.944304095 39.237341596 L 79.53408250000001 39.237341596 C 81.02751835 39.330655207999996 82.11364675 38.584143116 82.11364675 37.557690187999995 L 82.11364675 35.7847296424" />
<path class="stroke" d="M 53.17956177 46.889765835 L 53.17956177 74.86196928999999" />
<path class="stroke" d="M 53.17956177 46.889765835 L 72.91094799999999 46.889765835 L 72.91094799999999 74.593006526" />
<path class="stroke" d="M 53.17956177 72.71026072959998 L 72.91094799999999 72.71026072959998" />
</svg>
