<?xml version="1.0" standalone="no"?>
<!DOCTYPE svg PUBLIC "-//W3C//DTD SVG 1.1//EN" "http://www.w3.org/Graphics/SVG/1.1/DTD/svg11.dtd">
<svg xmlns="http://www.w3.org/2000/svg" version="1.1" width="100%" height="100%">
<style type="text/css"><![CDATA[
  .stroke { fill:none; stroke:black; stroke-width:2 }
]]></style>
<path class="stroke" d="M 50.3155 4.829652 L 50.3155 10.50788" />
<path class="stroke" d="M 6.15142 10.50788 L 93.2177 10.50788" />
<path class="stroke" d="M 50.3155 10.50788 C 40.2209 17.99476 25.7098 23.462680000000002 7.09779 26.911680000000004" />
<path class="stroke" d="M 30.4416 20.85488 L 30.4416 38.52052 M 11.1987 40.03468 C 27.8128 39.65616 44.4269 38.89908 59.1482 36.123039999999996" />
<path class="stroke" d="M 88.48578 17.195548000000002 C 79.96848 20.223988000000002 70.50478 22.369068 60.09458 23.504748000000003" />
<path class="stroke" d="M 50.0 10.50788 C 56.8349 25.43956 71.2408 33.55728 90.694 39.52992" />
<path class="stroke" d="M 12.888283 48.56948168 L 12.888283 93.4305144" />
<path class="stroke" d="M 12.888283 48.6817516 L 86.78474 48.6817516 L 86.78474 91.05013360000001 C 86.78474 92.33187616000001 84.82288 93.4305144 82.207085 93.4305144 L 80.24523 93.4305144" />
<path class="stroke" d="M 40.7554735 49.3006127968 L 40.7554735 54.4705976896 C 40.7554735 59.02907947200001 35.0620435 63.5319697856 20.828467 64.69938568" />
<path class="stroke" d="M 53.675180499999996 49.2450218992 L 53.675180499999996 62.36455427200001 C 53.675180499999996 63.75433528 56.5218985 64.588203504 59.58758725 64.588203504 L 76.66787500000001 64.588203504 C 79.07664249999999 64.643794592 80.8284625 64.199063984 80.8284625 63.587560112 L 80.8284625 62.531328297600005" />
<path class="stroke" d="M 34.1605835 69.14709454 L 34.1605835 85.81138596" />
<path class="stroke" d="M 34.1605835 69.14709454 L 65.9854 69.14709454 L 65.9854 85.65115282400001" />
<path class="stroke" d="M 34.1605835 84.5295170304 L 65.9854 84.5295170304" />
</svg>
