<?xml version="1.0" standalone="no"?>
<!DOCTYPE svg PUBLIC "-//W3C//DTD SVG 1.1//EN" "http://www.w3.org/Graphics/SVG/1.1/DTD/svg11.dtd">
<svg xmlns="http://www.w3.org/2000/svg" version="1.1" width="100%" height="100%">
<style type="text/css"><![CDATA[
  .stroke { fill:none; stroke:black; stroke-width:2 }
]]></style>
<path class="stroke" d="M 15.930572 7.8186139 L 79.33757 7.8186139 C 69.13767 13.254972299999999 61.14617 15.726044299999998 50.31547 17.6041173" />
<path class="stroke" d="M 42.74457 13.897466999999999 C 47.686672 15.923777999999999 51.99797 18.394897 53.15467 21.014254" />
<path class="stroke" d="M 7.728707 21.1624638 L 92.271255 21.1624638 C 89.957954 24.918515799999998 85.751854 27.1919058 79.65305 29.1687728" />
<path class="stroke" d="M 53.46999 22.7933779 L 53.46999 44.7365969 C 53.36489 46.56517889999999 51.05149 47.504191899999995 48.10719 47.5536359 L 42.11359 47.5536359" />
<path class="stroke" d="M 53.47 22.94163 C 44.8475 33.814422 30.2313 41.425367 7.09779 45.329657" />
<path class="stroke" d="M 12.888283 54.87329647 L 12.888283 94.1267001" />
<path class="stroke" d="M 12.888283 54.97153265 L 86.78474 54.97153265 L 86.78474 92.0438669 C 86.78474 93.16539164 84.82288 94.1267001 82.207085 94.1267001 L 80.24523 94.1267001" />
<path class="stroke" d="M 40.7554735 55.5130361972 L 40.7554735 60.0367729784 C 40.7554735 64.025444538 35.0620435 67.9654735624 20.828467 68.98696247" />
<path class="stroke" d="M 53.675180499999996 55.4643941618 L 53.675180499999996 66.943984988 C 53.675180499999996 68.16004337 56.5218985 68.889678066 59.58758725 68.889678066 L 76.66787500000001 68.889678066 C 79.07664249999999 68.938320268 80.8284625 68.549180986 80.8284625 68.01411509799999 L 80.8284625 67.0899122604" />
<path class="stroke" d="M 34.1605835 72.8787077225 L 34.1605835 87.45996271499999" />
<path class="stroke" d="M 34.1605835 72.8787077225 L 65.9854 72.8787077225 L 65.9854 87.319758721" />
<path class="stroke" d="M 34.1605835 86.3383274016 L 65.9854 86.3383274016" />
</svg>
