<?xml version="1.0" standalone="no"?>
<!DOCTYPE svg PUBLIC "-//W3C//DTD SVG 1.1//EN" "http://www.w3.org/Graphics/SVG/1.1/DTD/svg11.dtd">
<svg xmlns="http://www.w3.org/2000/svg" version="1.1" width="100%" height="100%">
<style type="text/css"><![CDATA[
  .stroke { fill:none; stroke:black; stroke-width:2 }
]]></style>
<path class="stroke" d="M 8.761814600000001 7.8186139 L 43.6356635 7.8186139 C 38.0257185 13.254972299999999 33.630393500000004 15.726044299999998 27.6735085 17.6041173" />
<path class="stroke" d="M 23.509513500000004 13.897466999999999 C 26.227669600000002 15.923777999999999 28.598883500000003 18.394897 29.235068500000004 21.014254" />
<path class="stroke" d="M 4.25078885 21.1624638 L 50.749190250000005 21.1624638 C 49.4768747 24.918515799999998 47.1635197 27.1919058 43.8091775 29.1687728" />
<path class="stroke" d="M 29.408494500000003 22.7933779 L 29.408494500000003 44.7365969 C 29.350689500000005 46.56517889999999 28.078319500000003 47.504191899999995 26.458954500000004 47.5536359 L 23.162474500000002 47.5536359" />
<path class="stroke" d="M 29.4085 22.94163 C 24.666125 33.814422 16.627215000000003 41.425367 3.9037845000000004 45.329657" />
<path class="stroke" d="M 7.08855565 54.87329647 L 7.08855565 94.1267001" />
<path class="stroke" d="M 7.08855565 54.97153265 L 47.731607000000004 54.97153265 L 47.731607000000004 92.0438669 C 47.731607000000004 93.16539164 46.652584000000004 94.1267001 45.21389675000001 94.1267001 L 44.134876500000004 94.1267001" />
<path class="stroke" d="M 22.415510425 55.5130361972 L 22.415510425 60.0367729784 C 22.415510425 64.025444538 19.284123925000003 67.9654735624 11.45565685 68.98696247" />
<path class="stroke" d="M 29.521349275 55.4643941618 L 29.521349275 66.943984988 C 29.521349275 68.16004337 31.087044175000003 68.889678066 32.773172987500004 68.889678066 L 42.16733125000001 68.889678066 C 43.492153375 68.938320268 44.455654375 68.549180986 44.455654375 68.01411509799999 L 44.455654375 67.0899122604" />
<path class="stroke" d="M 18.788320925 72.8787077225 L 18.788320925 87.45996271499999" />
<path class="stroke" d="M 18.788320925 72.8787077225 L 36.29197 72.8787077225 L 36.29197 87.319758721" />
<path class="stroke" d="M 18.788320925 86.3383274016 L 36.29197 86.3383274016" />
<path class="stroke" d="M 64.89790550000001 9.4764385 C 64.5767385 12.980087 64.45482770000001 14.994076 63.170156399999996 17.329842" />
<path class="stroke" d="M 57.12303675 17.015707 L 57.12303675 66.96335" />
<path class="stroke" d="M 56.95026085 17.43295 L 82.90996000000001 17.43295 L 82.90996000000001 43.333332" />
<path class="stroke" d="M 57.468585250000004 30.583939 L 82.7413795 30.583939" />
<path class="stroke" d="M 57.2958121 43.430653 L 82.90996000000001 43.430653" />
<path class="stroke" d="M 57.468585250000004 55.10949 L 91.332462 55.10949" />
<path class="stroke" d="M 57.2958121 66.20438 L 91.59195199999999 66.20438 L 90.580458 80.57471 C 90.24329700000001 85.01916 89.3160905 90.22988 87.37739275000001 90.22988 C 86.28160575 90.22988 85.7758582 90.22988 85.017241 90.22988" />
<path class="stroke" d="M 55.17816085 74.137924 C 55.0095776 76.74329 54.1666663 80.881226 53.15517175 83.48659" />
<path class="stroke" d="M 63.1858226 74.137924 C 63.860152850000006 76.28352 64.45019065 79.042145 64.534482 82.26054" />
<path class="stroke" d="M 73.3007648 74.597694 C 74.227968 76.74329 74.8180047 79.042145 75.23946365 81.800766" />
<path class="stroke" d="M 82.488506 74.44444 C 83.6685805 75.82375 84.5957815 77.816086 85.354402 80.72797" />
</svg>
