<?xml version="1.0" standalone="no"?>
<!DOCTYPE svg PUBLIC "-//W3C//DTD SVG 1.1//EN" "http://www.w3.org/Graphics/SVG/1.1/DTD/svg11.dtd">
<svg xmlns="http://www.w3.org/2000/svg" version="1.1" width="100%" height="100%">
<style type="text/css"><![CDATA[
  .stroke { fill:none; stroke:black; stroke-width:2 }
]]></style>
<path class="stroke" d="M 16.126823854166666 9.562042 C 18.681569375 11.021896 21.23631125 14.817516 22.93947395833333 19.48905" />
<path class="stroke" d="M 7.1852178124999995 22.8707 L 31.029497916666667 22.8707" />
<path class="stroke" d="M 11.868915625 37.007298 L 26.345802291666665 37.007298" />
<path class="stroke" d="M 11.868915625 51.313866 L 26.345802291666665 51.313866" />
<path class="stroke" d="M 11.017335 64.45255 L 11.017335 85.76642" />
<path class="stroke" d="M 11.017335 64.16058 L 27.623173958333332 64.16058 L 27.623173958333332 85.76642" />
<path class="stroke" d="M 11.017335 85.76642 L 27.410279166666665 85.76642" />
<path class="stroke" d="M 43.67348324 7.8186139 L 86.1561719 7.8186139 C 79.3222389 13.254972299999999 73.96793389999999 15.726044299999998 66.7113649 17.6041173" />
<path class="stroke" d="M 61.63886190000001 13.897466999999999 C 64.95007024 15.923777999999999 67.8386399 18.394897 68.61362890000001 21.014254" />
<path class="stroke" d="M 38.17823369 21.1624638 L 94.82174085 21.1624638 C 93.27182918 24.918515799999998 90.45374218 27.1919058 86.3675435 29.1687728" />
<path class="stroke" d="M 68.82489330000001 22.7933779 L 68.82489330000001 44.7365969 C 68.75447630000001 46.56517889999999 67.20449830000001 47.504191899999995 65.2318173 47.5536359 L 61.2161053 47.5536359" />
<path class="stroke" d="M 68.8249 22.94163 C 63.047825 33.814422 53.254971 41.425367 37.7555193 45.329657" />
<path class="stroke" d="M 41.63514961 54.87329647 L 41.63514961 94.1267001" />
<path class="stroke" d="M 41.63514961 54.97153265 L 91.1457758 54.97153265 L 91.1457758 92.0438669 C 91.1457758 93.16539164 89.8313296 94.1267001 88.07874695000001 94.1267001 L 86.7643041 94.1267001" />
<path class="stroke" d="M 60.306167245 55.5130361972 L 60.306167245 60.0367729784 C 60.306167245 64.025444538 56.491569145 67.9654735624 46.95507289 68.98696247" />
<path class="stroke" d="M 68.962370935 55.4643941618 L 68.962370935 66.943984988 C 68.962370935 68.16004337 70.869671995 68.889678066 72.9236834575 68.889678066 L 84.36747625000001 68.889678066 C 85.981350475 68.938320268 87.15506987500001 68.549180986 87.15506987500001 68.01411509799999 L 87.15506987500001 67.0899122604" />
<path class="stroke" d="M 55.887590945 72.8787077225 L 55.887590945 87.45996271499999" />
<path class="stroke" d="M 55.887590945 72.8787077225 L 77.210218 72.8787077225 L 77.210218 87.319758721" />
<path class="stroke" d="M 55.887590945 86.3383274016 L 77.210218 86.3383274016" />
</svg>
