<?xml version="1.0" standalone="no"?>
<!DOCTYPE svg PUBLIC "-//W3C//DTD SVG 1.1//EN" "http://www.w3.org/Graphics/SVG/1.1/DTD/svg11.dtd">
<svg xmlns="http://www.w3.org/2000/svg" version="1.1" width="100%" height="100%">
<style type="text/css"><![CDATA[
  .stroke { fill:none; stroke:black; stroke-width:2 }
]]></style>
<path class="stroke" d="M 50.253088000000005 7.278831800000001 L 50.253088000000005 17.3751824" />
<path class="stroke" d="M 21.8540128 11.4890504 L 21.8540128 17.824816900000002 M 21.8540128 17.3751824 L 77.9124 17.3751824" />
<path class="stroke" d="M 77.9124 11.448174600000002 L 77.9124 17.86569256" />
<path class="stroke" d="M 49.85401 24.93649486 L 49.85401 32.20656861" />
<path class="stroke" d="M 19.781021 32.20656861 L 80.21897 32.20656861" />
<path class="stroke" d="M 30.875912 41.172989720000004 L 30.875912 54.01678571" />
<path class="stroke" d="M 30.875912 41.172989720000004 L 69.124084 41.172989720000004 L 69.124084 54.01678571" />
<path class="stroke" d="M 30.875912 54.01678571 L 69.124084 54.01678571" />
<path class="stroke" d="M 18.905107 62.25620069 L 18.905107 91.33649319999999" />
<path class="stroke" d="M 18.905107 62.25620069 L 80.80292 62.25620069 L 80.80292 87.70145839999999 C 81.09489 90.3671528 78.46715 92.3058336 76.131386 92.3058336 L 74.379555 92.3058336" />
<path class="stroke" d="M 36.131386 71.07326330000001 L 36.131386 84.79342475" />
<path class="stroke" d="M 36.131386 71.22262180000001 L 63.868607 71.22262180000001 L 63.868607 84.79342475" />
<path class="stroke" d="M 36.131386 84.79342475 L 63.868607 84.79342475" />
</svg>
