<?xml version="1.0" standalone="no"?>
<!DOCTYPE svg PUBLIC "-//W3C//DTD SVG 1.1//EN" "http://www.w3.org/Graphics/SVG/1.1/DTD/svg11.dtd">
<svg xmlns="http://www.w3.org/2000/svg" version="1.1" width="100%" height="100%">
<style type="text/css"><![CDATA[
  .stroke { fill:none; stroke:black; stroke-width:2 }
]]></style>
<path class="stroke" d="M 8.607954255319148 13.7224 C 11.1249 16.98216 12.433691489361703 19.92646 13.44054255319149 23.50156" />
<path class="stroke" d="M 34.884871276595746 13.72239 C 34.0794670212766 17.1924 32.36793510638298 20.347 29.750371276595747 23.1862" />
<path class="stroke" d="M 5.587621276595745 33.91172 L 39.11327234042554 33.91172" />
<path class="stroke" d="M 22.19947659574468 5.8359594 L 22.19947659574468 94.164" />
<path class="stroke" d="M 22.19940957446809 41.798 C 21.091930851063832 54.942 14.245898936170214 66.8245 6.493710638297873 73.343796" />
<path class="stroke" d="M 22.501541489361703 44.32176 C 28.54216914893617 47.37116 32.77063723404256 51.68236 36.09297765957447 57.25546" />
<path class="stroke" d="M 47.6678825 10.145985 L 47.6678825 90.43795" />
<path class="stroke" d="M 47.6678825 10.145985 L 87.3321175 10.145985 L 87.3321175 86.05839 C 87.3321175 88.68613 86.7627695 90.14598 85.0547385 90.14598 L 83.15693025 90.14598" />
<path class="stroke" d="M 58.920682830720004 25.759999999999998 L 76.07931547199999 25.759999999999998" />
<path class="stroke" d="M 57.616204104 40.72572208 L 57.616204104 66.76671392" />
<path class="stroke" d="M 57.616204104 40.72572208 L 77.47488959999998 40.72572208 L 77.47488959999998 66.51632044800002" />
<path class="stroke" d="M 57.616204104 64.7635601408 L 77.47488959999998 64.7635601408" />
</svg>
