<?xml version="1.0" standalone="no"?>
<!DOCTYPE svg PUBLIC "-//W3C//DTD SVG 1.1//EN" "http://www.w3.org/Graphics/SVG/1.1/DTD/svg11.dtd">
<svg xmlns="http://www.w3.org/2000/svg" version="1.1" width="100%" height="100%">
<style type="text/css"><![CDATA[
  .stroke { fill:none; stroke:black; stroke-width:2 }
]]></style>
<path class="stroke" d="M 50.253088000000005 6.1160581 L 50.253088000000005 15.4912408" />
<path class="stroke" d="M 21.8540128 10.0255468 L 21.8540128 15.90875855 M 21.8540128 15.4912408 L 77.9124 15.4912408" />
<path class="stroke" d="M 77.9124 9.9875907 L 77.9124 15.94671452" />
<path class="stroke" d="M 25.912407 19.138685459999998 C 24.452553 23.308028819999997 15.109488 27.7226274 9.562042 28.703648700000002" />
<path class="stroke" d="M 21.532845 25.5153279 L 21.532845 52.983939" />
<path class="stroke" d="M 56.277367 19.2613137 C 54.525543 21.95912364 51.313866 24.289050539999998 46.642334 25.6379553" />
<path class="stroke" d="M 21.532845 25.4006448 L 75.54744 25.4006448" />
<path class="stroke" d="M 48.10219 25.6379553 L 48.10219 52.983939" />
<path class="stroke" d="M 21.532845 35.072576999999995 L 71.75182 35.072576999999995" />
<path class="stroke" d="M 21.532845 44.03211528 L 72.04379 44.03211528" />
<path class="stroke" d="M 21.532845 52.983939 L 81.386856 52.983939" />
<path class="stroke" d="M 12.243868849999998 61.9782012 L 12.243868849999998 94.021796" />
<path class="stroke" d="M 12.243868849999998 62.058394 L 82.445503 62.058394 L 82.445503 92.32152400000001 C 82.445503 93.2370544 80.58173599999999 94.021796 78.09673075 94.021796 L 76.2329685 94.021796" />
<path class="stroke" d="M 38.717699825 62.500437712 L 38.717699825 66.193284064 C 38.717699825 69.44934248 33.308941325 72.66569270400001 19.787043649999998 73.4995612" />
<path class="stroke" d="M 50.991421474999996 62.460729928 L 50.991421474999996 71.83182448 C 50.991421474999996 72.8245252 53.695803575 73.42014536 56.608207887499994 73.42014536 L 72.83448125000001 73.42014536 C 75.12281037499999 73.45985328 76.78703937499999 73.14218856 76.78703937499999 72.70540008 L 76.78703937499999 71.950948784" />
<path class="stroke" d="M 32.452554325 76.67649610000001 L 32.452554325 88.5795614" />
<path class="stroke" d="M 32.452554325 76.67649610000001 L 62.68613 76.67649610000001 L 62.68613 88.46510916" />
<path class="stroke" d="M 32.452554325 87.663940736 L 62.68613 87.663940736" />
</svg>
