<?xml version="1.0" standalone="no"?>
<!DOCTYPE svg PUBLIC "-//W3C//DTD SVG 1.1//EN" "http://www.w3.org/Graphics/SVG/1.1/DTD/svg11.dtd">
<svg xmlns="http://www.w3.org/2000/svg" version="1.1" width="100%" height="100%">
<style type="text/css"><![CDATA[
  .stroke { fill:none; stroke:black; stroke-width:2 }
]]></style>
<path class="stroke" d="M 7.363036000000001 33.069305 L 23.75907666666667 30.9901" />
<path class="stroke" d="M 17.838283266666668 9.60396 L 17.838283266666668 84.15842 C 17.838283266666668 87.42574 15.788778566666668 90.09901 13.056105633333335 90.09901" />
<path class="stroke" d="M 7.818481233333334 63.36634 L 22.1650172 46.435642" />
<path class="stroke" d="M 61.197408640000006 5.932576357 L 61.197408640000006 15.026503576" />
<path class="stroke" d="M 39.046129984000004 9.724780396 L 39.046129984000004 15.4314957935 M 39.046129984000004 15.026503576 L 82.77167200000001 15.026503576" />
<path class="stroke" d="M 82.77167200000001 9.687962979 L 82.77167200000001 15.4683130844" />
<path class="stroke" d="M 42.211677460000004 18.5645248962 C 41.07299134 22.608787955399997 33.78540064 26.890948578 29.458392760000002 27.842539239" />
<path class="stroke" d="M 38.795619099999996 24.749868062999997 L 38.795619099999996 51.39442083" />
<path class="stroke" d="M 65.89634626 18.683474289 C 64.52992354 21.3003499308 62.02481548 23.560379023799996 58.38102052 24.868816641000002" />
<path class="stroke" d="M 38.795619099999996 24.638625455999996 L 80.9270032 24.638625455999996" />
<path class="stroke" d="M 59.519708200000004 24.868816641000002 L 59.519708200000004 51.39442083" />
<path class="stroke" d="M 38.795619099999996 34.02039969 L 77.9664196 34.02039969" />
<path class="stroke" d="M 38.795619099999996 42.7111518216 L 78.19415620000001 42.7111518216" />
<path class="stroke" d="M 38.795619099999996 51.39442083 L 85.48174768 51.39442083" />
<path class="stroke" d="M 31.550217703 60.118855163999996 L 31.550217703 91.20114211999999" />
<path class="stroke" d="M 31.550217703 60.19664218 L 86.30749234000001 60.19664218 L 86.30749234000001 89.55187828000001 C 86.30749234000001 90.43994276800001 84.85375407999999 91.20114211999999 82.91544998500001 91.20114211999999 L 81.46171543 91.20114211999999" />
<path class="stroke" d="M 52.1998058635 60.62542458064 L 52.1998058635 64.20748554208 C 52.1998058635 67.3658622056 47.9809742335 70.48572192288 37.433894046999995 71.294574364" />
<path class="stroke" d="M 61.7733087505 60.58690803016 L 61.7733087505 69.67686974559999 C 61.7733087505 70.639789444 63.8827267885 71.21754099920001 66.15440215224999 71.21754099920001 L 78.810895375 71.21754099920001 C 80.59579209249999 71.2560576816 81.8938907125 70.9479229032 81.8938907125 70.5242380776 L 81.8938907125 69.79242032048" />
<path class="stroke" d="M 47.3129923735 74.376201217 L 47.3129923735 85.922174558" />
<path class="stroke" d="M 47.3129923735 74.376201217 L 70.8951814 74.376201217 L 70.8951814 85.8111558852" />
<path class="stroke" d="M 47.3129923735 85.03402251392 L 70.8951814 85.03402251392" />
</svg>
