<?xml version="1.0" standalone="no"?>
<!DOCTYPE svg PUBLIC "-//W3C//DTD SVG 1.1//EN" "http://www.w3.org/Graphics/SVG/1.1/DTD/svg11.dtd">
<svg xmlns="http://www.w3.org/2000/svg" version="1.1" width="100%" height="100%">
<style type="text/css"><![CDATA[
  .stroke { fill:none; stroke:black; stroke-width:2 }
]]></style>
<path class="stroke" d="M 12.529795214999998 9.27117110117647 C 14.3832258534 12.414838687058822 15.865970110200001 16.73738010352941 16.978028620200003 20.863443557647056" />
<path class="stroke" d="M 32.176158521999994 9.27117110117647 C 31.419961274399995 13.161458847058823 29.859370223999992 17.71977462588235 28.283955323999997 21.05992152" />
<path class="stroke" d="M 8.830656339999999 23.403501967999997 L 37.43795376 23.403501967999997 L 37.43795376 36.070363604" />
<path class="stroke" d="M 7.35328446 36.070363604 L 37.43795376 36.070363604" />
<path class="stroke" d="M 7.4875902000000005 36.288757163999996 L 5.74160523 47.645254447999996 L 40.527007399999995 47.645254447999996 C 40.527007399999995 56.381019288000005 39.04963 60.74890095999999 37.43795376 63.588029207999995 C 36.728815 64.59700640799998 36.094889 66.42714848 34.617516200000004 66.64554204 L 32.871531000000004 66.64554204" />
<path class="stroke" d="M 22.932844600000003 23.403501967999997 L 22.932844600000003 80.59489380800001" />
<path class="stroke" d="M 21.89715 48.090710888 C 18.820798800000002 57.776153732000004 12.087668400000002 67.01799816799999 4.832152799999999 70.82563905999999" />
<path class="stroke" d="M 53.4099473 9.4764385 C 52.9836711 12.980087 52.82186222 14.994076 51.11675304 17.329842" />
<path class="stroke" d="M 43.090576049999996 17.015707 L 43.090576049999996 66.96335" />
<path class="stroke" d="M 42.861255310000004 17.43295 L 77.316856 17.43295 L 77.316856 43.333332" />
<path class="stroke" d="M 43.54921315 30.583939 L 77.0931037 30.583939" />
<path class="stroke" d="M 43.31989606 43.430653 L 77.316856 43.430653" />
<path class="stroke" d="M 43.54921315 55.10949 L 88.4958132 55.10949" />
<path class="stroke" d="M 43.31989606 66.20438 L 88.84022719999999 66.20438 L 87.4976988 80.57471 C 87.05019419999999 85.01916 85.8195383 90.22988 83.24635765 90.22988 C 81.79194945 90.22988 81.12068452 90.22988 80.1137926 90.22988" />
<path class="stroke" d="M 40.509195309999996 74.137924 C 40.28543936 76.74329 39.16666618 80.881226 37.82413705 83.48659" />
<path class="stroke" d="M 51.13754636 74.137924 C 52.032566509999995 76.28352 52.81570759 79.042145 52.927585199999996 82.26054" />
<path class="stroke" d="M 64.56283328 74.597694 C 65.79348479999999 76.74329 66.57662442 79.042145 67.13601539 81.800766" />
<path class="stroke" d="M 76.7574716 74.44444 C 78.3237523 75.82375 79.55440089999999 77.816086 80.5612972 80.72797" />
</svg>
