<?xml version="1.0" standalone="no"?>
<!DOCTYPE svg PUBLIC "-//W3C//DTD SVG 1.1//EN" "http://www.w3.org/Graphics/SVG/1.1/DTD/svg11.dtd">
<svg xmlns="http://www.w3.org/2000/svg" version="1.1" width="100%" height="100%">
<style type="text/css"><![CDATA[
  .stroke { fill:none; stroke:black; stroke-width:2 }
]]></style>
<path class="stroke" d="M 54.10092 6.46688 L 54.10092 14.66882" />
<path class="stroke" d="M 18.7697 14.98422 L 93.8486 14.98422" />
<path class="stroke" d="M 18.7697 15.2997 L 18.7697 59.7792 C 19.0852 71.2408 14.6687 79.2323 6.46688 87.5394" />
<path class="stroke" d="M 5.83596 25.07884 C 8.78023 28.65404 10.4627 32.22924 11.8297 36.43534" />
<path class="stroke" d="M 6.15141 58.20189 C 8.14931 57.04519 10.4627 54.62679 12.1451 52.20829" />
<path class="stroke" d="M 45.314744144 23.83585739375 L 45.314744144 36.6954190125" />
<path class="stroke" d="M 45.314744144 23.83585739375 L 72.8113856 23.83585739375 L 72.8113856 36.571769717500004" />
<path class="stroke" d="M 45.314744144 35.706221688 L 72.8113856 35.706221688" />
<path class="stroke" d="M 31.096058108 43.268943133125006 L 31.096058108 57.414460913750005" />
<path class="stroke" d="M 31.096058108 43.268943133125006 L 51.718539199999995 43.268943133125006 L 51.718539199999995 57.27844668925" />
<path class="stroke" d="M 31.096058108 56.3263438568 L 51.718539199999995 56.3263438568" />
<path class="stroke" d="M 66.376058108 43.268943133125006 L 66.376058108 57.414460913750005" />
<path class="stroke" d="M 66.376058108 43.268943133125006 L 86.9985392 43.268943133125006 L 86.9985392 57.27844668925" />
<path class="stroke" d="M 66.376058108 56.3263438568 L 86.9985392 56.3263438568" />
<path class="stroke" d="M 59.2277792 60.620780203 L 59.2277792 86.719846504" />
<path class="stroke" d="M 33.66861152 71.50419528399999 L 33.66861152 87.8821516865 M 33.66861152 86.719846504 L 84.12116 86.719846504" />
<path class="stroke" d="M 84.12116 71.398531341 L 84.12116 87.9878152676" />
</svg>
