<?xml version="1.0" standalone="no"?>
<!DOCTYPE svg PUBLIC "-//W3C//DTD SVG 1.1//EN" "http://www.w3.org/Graphics/SVG/1.1/DTD/svg11.dtd">
<svg xmlns="http://www.w3.org/2000/svg" version="1.1" width="100%" height="100%">
<style type="text/css"><![CDATA[
  .stroke { fill:none; stroke:black; stroke-width:2 }
]]></style>
<path class="stroke" d="M 20.770715441176474 11.605839 C 17.979818382352942 27.372261 12.183339705882354 41.970802 7.245597794117647 50.14598" />
<path class="stroke" d="M 16.477026470588235 30.583939 L 16.477026470588235 90.43795" />
<path class="stroke" d="M 30.894348 13.6593068 L 93.077315 13.6593068" />
<path class="stroke" d="M 30.894348 13.659305 L 30.894348 87.19241 L 94.291836 87.19241" />
<path class="stroke" d="M 52.4482843655 24.087225875 L 52.4482843655 43.217152250000005" />
<path class="stroke" d="M 52.4482843655 24.087225875 L 74.5028822 24.087225875 L 74.5028822 43.03321115" />
<path class="stroke" d="M 52.4482843655 41.74561904 L 74.5028822 41.74561904" />
<path class="stroke" d="M 41.043713274125 52.9959484625 L 41.043713274125 74.03886747500002" />
<path class="stroke" d="M 41.043713274125 52.9959484625 L 57.584661649999994 52.9959484625 L 57.584661649999994 73.836532265" />
<path class="stroke" d="M 41.043713274125 72.420180944 L 57.584661649999994 72.420180944" />
<path class="stroke" d="M 69.341213274125 52.9959484625 L 69.341213274125 74.03886747500002" />
<path class="stroke" d="M 69.341213274125 52.9959484625 L 85.88216165 52.9959484625 L 85.88216165 73.836532265" />
<path class="stroke" d="M 69.341213274125 72.420180944 L 85.88216165 72.420180944" />
</svg>
