<?xml version="1.0" standalone="no"?>
<!DOCTYPE svg PUBLIC "-//W3C//DTD SVG 1.1//EN" "http://www.w3.org/Graphics/SVG/1.1/DTD/svg11.dtd">
<svg xmlns="http://www.w3.org/2000/svg" version="1.1" width="100%" height="100%">
<style type="text/css"><![CDATA[
  .stroke { fill:none; stroke:black; stroke-width:2 }
]]></style>
<path class="stroke" d="M 7.397080079999999 21.85036375 L 7.397080079999999 79.5437925" />
<path class="stroke" d="M 7.397080079999999 21.85036375 L 22.672991999999997 21.85036375 L 22.672991999999997 78.98904950000001" />
<path class="stroke" d="M 7.397080079999999 75.10583519999999 L 22.672991999999997 75.10583519999999" />
<path class="stroke" d="M 32.6893 13.6593068 L 93.257125 13.6593068" />
<path class="stroke" d="M 32.6893 13.659305 L 32.6893 87.19241 L 94.4401 87.19241" />
<path class="stroke" d="M 53.6833938625 24.087225875 L 53.6833938625 43.217152250000005" />
<path class="stroke" d="M 53.6833938625 24.087225875 L 75.165145 24.087225875 L 75.165145 43.03321115" />
<path class="stroke" d="M 53.6833938625 41.74561904 L 75.165145 41.74561904" />
<path class="stroke" d="M 42.575045396875 52.9959484625 L 42.575045396875 74.03886747500002" />
<path class="stroke" d="M 42.575045396875 52.9959484625 L 58.68635875 52.9959484625 L 58.68635875 73.836532265" />
<path class="stroke" d="M 42.575045396875 72.420180944 L 58.68635875 72.420180944" />
<path class="stroke" d="M 70.137545396875 52.9959484625 L 70.137545396875 74.03886747500002" />
<path class="stroke" d="M 70.137545396875 52.9959484625 L 86.24885875 52.9959484625 L 86.24885875 73.836532265" />
<path class="stroke" d="M 70.137545396875 72.420180944 L 86.24885875 72.420180944" />
</svg>
