<?xml version="1.0" standalone="no"?>
<!DOCTYPE svg PUBLIC "-//W3C//DTD SVG 1.1//EN" "http://www.w3.org/Graphics/SVG/1.1/DTD/svg11.dtd">
<svg xmlns="http://www.w3.org/2000/svg" version="1.1" width="100%" height="100%">
<style type="text/css"><![CDATA[
  .stroke { fill:none; stroke:black; stroke-width:2 }
]]></style>
<path class="stroke" d="M 9.03065674 17.737225 L 9.03065674 78.46715" />
<path class="stroke" d="M 9.03065674 17.737225 L 23.033576 17.737225 L 23.033576 77.88321" />
<path class="stroke" d="M 9.03065674 73.795616 L 23.033576 73.795616" />
<path class="stroke" d="M 47.554452152 8.877736875 L 47.554452152 25.57846625" />
<path class="stroke" d="M 47.554452152 8.877736875 L 76.57868479999999 8.877736875 L 76.57868479999999 25.417882750000004" />
<path class="stroke" d="M 47.554452152 24.2937944 L 76.57868479999999 24.2937944" />
<path class="stroke" d="M 32.545839114 34.115510562500006 L 32.545839114 52.48631287500001" />
<path class="stroke" d="M 32.545839114 34.115510562500006 L 54.314013599999996 34.115510562500006 L 54.314013599999996 52.30967102500001" />
<path class="stroke" d="M 32.545839114 51.07317384 L 54.314013599999996 51.07317384" />
<path class="stroke" d="M 69.785839114 34.115510562500006 L 69.785839114 52.48631287500001" />
<path class="stroke" d="M 69.785839114 34.115510562500006 L 91.5540136 34.115510562500006 L 91.5540136 52.30967102500001" />
<path class="stroke" d="M 69.785839114 51.07317384 L 91.5540136 51.07317384" />
<path class="stroke" d="M 39.2554724 66.3087579 L 84.9664172 66.3087579" />
<path class="stroke" d="M 62.1109448 60.50145978 L 62.1109448 92.38466880000001" />
<path class="stroke" d="M 62.1109448 68.24452485 C 54.788322 77.01240774 45.912407400000006 81.68102052 34.373721079999996 84.0722595" />
<path class="stroke" d="M 62.1109448 68.24452485 C 68.989777 77.12627565 78.30948599999999 81.79488843 89.84817384 83.84452485" />
</svg>
