<?xml version="1.0" standalone="no"?>
<!DOCTYPE svg PUBLIC "-//W3C//DTD SVG 1.1//EN" "http://www.w3.org/Graphics/SVG/1.1/DTD/svg11.dtd">
<svg xmlns="http://www.w3.org/2000/svg" version="1.1" width="100%" height="100%">
<style type="text/css"><![CDATA[
  .stroke { fill:none; stroke:black; stroke-width:2 }
]]></style>
<path class="stroke" d="M 15.401459 12.582481320000001 L 84.8905 12.582481320000001" />
<path class="stroke" d="M 49.43925 3.59065398 L 49.065422 3.7177572000000003 C 45.126904 14.100507200000001 33.364487 17.8261694 6.074766 24.3084122" />
<path class="stroke" d="M 58.037384 12.61495268 C 66.26168 16.936448560000002 72.990654 20.749532920000004 89.81309 24.562616600000005" />
<path class="stroke" d="M 18.20192 26.31230352 L 82.80760000000001 26.31230352" />
<path class="stroke" d="M 18.20192 26.312302 L 18.20192 88.406924 L 84.06944 88.406924" />
<path class="stroke" d="M 40.59562012000001 35.11810185 L 40.59562012000001 51.272261900000004" />
<path class="stroke" d="M 40.59562012000001 35.11810185 L 63.509488000000005 35.11810185 L 63.509488000000005 51.11693386" />
<path class="stroke" d="M 40.59562012000001 50.029633856000004 L 63.509488000000005 50.029633856000004" />
<path class="stroke" d="M 28.74671509 59.529912035 L 28.74671509 77.29948809000001" />
<path class="stroke" d="M 28.74671509 59.529912035 L 45.932116 59.529912035 L 45.932116 77.12862724600001" />
<path class="stroke" d="M 28.74671509 75.93259724159999 L 45.932116 75.93259724159999" />
<path class="stroke" d="M 58.14671509 59.529912035 L 58.14671509 77.29948809000001" />
<path class="stroke" d="M 58.14671509 59.529912035 L 75.332116 59.529912035 L 75.332116 77.12862724600001" />
<path class="stroke" d="M 58.14671509 75.93259724159999 L 75.332116 75.93259724159999" />
</svg>
