<?xml version="1.0" standalone="no"?>
<!DOCTYPE svg PUBLIC "-//W3C//DTD SVG 1.1//EN" "http://www.w3.org/Graphics/SVG/1.1/DTD/svg11.dtd">
<svg xmlns="http://www.w3.org/2000/svg" version="1.1" width="100%" height="100%">
<style type="text/css"><![CDATA[
  .stroke { fill:none; stroke:black; stroke-width:2 }
]]></style>
<path class="stroke" d="M 22.75504895348837 11.89781 C 22.042098139534883 30.875912 17.52673430232558 45.47445 13.249022093023257 55.693428 C 21.566796511627906 60.9489 28.696316046511626 70.0 34.16228069767442 81.386856" />
<path class="stroke" d="M 33.20285581395349 26.831684 C 31.51047558139535 53.564358 24.65625465116279 69.70802 13.011372906976744 79.34306" />
<path class="stroke" d="M 8.25835988372093 33.79562 L 34.653465000000004 29.80198" />
<path class="stroke" d="M 41.66406 9.621452 L 94.156175 9.621452" />
<path class="stroke" d="M 41.66406 9.62145 L 41.66406 91.3249 L 95.18142 91.3249" />
<path class="stroke" d="M 59.8589413475 21.20802875 L 59.8589413475 42.463502500000004" />
<path class="stroke" d="M 59.8589413475 21.20802875 L 78.476459 21.20802875 L 78.476459 42.2591235" />
<path class="stroke" d="M 59.8589413475 40.8284656 L 78.476459 40.8284656" />
<path class="stroke" d="M 50.231706010625 53.328831625 L 50.231706010625 76.70985275000001" />
<path class="stroke" d="M 50.231706010625 53.328831625 L 64.19484425 53.328831625 L 64.19484425 76.48503585" />
<path class="stroke" d="M 50.231706010625 74.91131216 L 64.19484425 74.91131216" />
<path class="stroke" d="M 74.11920601062499 53.328831625 L 74.11920601062499 76.70985275000001" />
<path class="stroke" d="M 74.11920601062499 53.328831625 L 88.08234425 53.328831625 L 88.08234425 76.48503585" />
<path class="stroke" d="M 74.11920601062499 74.91131216 L 88.08234425 74.91131216" />
</svg>
