<?xml version="1.0" standalone="no"?>
<!DOCTYPE svg PUBLIC "-//W3C//DTD SVG 1.1//EN" "http://www.w3.org/Graphics/SVG/1.1/DTD/svg11.dtd">
<svg xmlns="http://www.w3.org/2000/svg" version="1.1" width="100%" height="100%">
<style type="text/css"><![CDATA[
  .stroke { fill:none; stroke:black; stroke-width:2 }
]]></style>
<path class="stroke" d="M 18.5980716 15.137954100000002 L 18.5980716 82.2065688" />
<path class="stroke" d="M 7.59342996 43.105834800000004 L 7.59342996 85.19342655 M 7.59342996 82.2065688 L 29.316055000000002 82.2065688" />
<path class="stroke" d="M 29.316055000000002 42.8343027 L 29.316055000000002 85.46495772" />
<path class="stroke" d="M 38.074156 9.621452 L 93.796555 9.621452" />
<path class="stroke" d="M 38.074156 9.62145 L 38.074156 91.3249 L 94.884892 91.3249" />
<path class="stroke" d="M 57.3887223535 21.20802875 L 57.3887223535 42.463502500000004" />
<path class="stroke" d="M 57.3887223535 21.20802875 L 77.15193339999999 21.20802875 L 77.15193339999999 42.2591235" />
<path class="stroke" d="M 57.3887223535 40.8284656 L 77.15193339999999 40.8284656" />
<path class="stroke" d="M 47.169041765125 53.328831625 L 47.169041765125 76.70985275000001" />
<path class="stroke" d="M 47.169041765125 53.328831625 L 61.99145005 53.328831625 L 61.99145005 76.48503585" />
<path class="stroke" d="M 47.169041765125 74.91131216 L 61.99145005 74.91131216" />
<path class="stroke" d="M 72.52654176512499 53.328831625 L 72.52654176512499 76.70985275000001" />
<path class="stroke" d="M 72.52654176512499 53.328831625 L 87.34895004999998 53.328831625 L 87.34895004999998 76.48503585" />
<path class="stroke" d="M 72.52654176512499 74.91131216 L 87.34895004999998 74.91131216" />
</svg>
