<?xml version="1.0" standalone="no"?>
<!DOCTYPE svg PUBLIC "-//W3C//DTD SVG 1.1//EN" "http://www.w3.org/Graphics/SVG/1.1/DTD/svg11.dtd">
<svg xmlns="http://www.w3.org/2000/svg" version="1.1" width="100%" height="100%">
<style type="text/css"><![CDATA[
  .stroke { fill:none; stroke:black; stroke-width:2 }
]]></style>
<path class="stroke" d="M 26.788319 6.437550694444444 C 24.452553 11.912002777777777 21.824816 15.35887986111111 16.861313 17.994727083333334" />
<path class="stroke" d="M 24.452553 12.520274999999998 L 47.226276 12.520274999999998" />
<path class="stroke" d="M 30.0 12.925790277777777 C 34.08759 16.169911111111112 35.547443 18.805758333333333 36.423355 23.6719375" />
<path class="stroke" d="M 65.32846 6.437550694444444 C 63.284668 13.128546527777779 60.07299 15.967152083333334 57.44525 17.994727083333334" />
<path class="stroke" d="M 62.9927 12.723032638888888 L 86.35036 12.723032638888888" />
<path class="stroke" d="M 72.62773 13.128546527777779 C 72.9197 17.589211805555557 71.16788 20.630574305555555 67.9562 23.6719375" />
<path class="stroke" d="M 28.248173 32.8712875 L 28.248173 69.1788295" />
<path class="stroke" d="M 28.350513 32.80927825 L 76.59794 32.80927825" />
<path class="stroke" d="M 52.51272 32.92585 L 52.51272 69.1788295" />
<path class="stroke" d="M 28.248173 44.8722625 L 72.04379 44.8722625" />
<path class="stroke" d="M 28.540146 57.35401225 L 72.04379 57.35401225" />
<path class="stroke" d="M 28.248173 69.1788295 L 87.81021 69.1788295 C 87.81021 86.040142 84.59853 92.8284625 78.17518 92.8284625" />
<path class="stroke" d="M 15.985401 77.71897750000001 C 15.109488 80.56568875 13.357662 83.8503625 10.437956 85.60219000000001" />
<path class="stroke" d="M 29.708027 76.843063 C 31.751823 79.0328425 33.211678 81.66058 34.08759 85.8211675" />
<path class="stroke" d="M 48.10219 76.4051095 C 50.437954 79.0328425 52.189777 81.66058 53.357662 84.7262725" />
<path class="stroke" d="M 67.37226 75.529195 C 70.0 78.37591 71.45985 79.90876 72.62773 83.4124075" />
</svg>
