<?xml version="1.0" standalone="no"?>
<!DOCTYPE svg PUBLIC "-//W3C//DTD SVG 1.1//EN" "http://www.w3.org/Graphics/SVG/1.1/DTD/svg11.dtd">
<svg xmlns="http://www.w3.org/2000/svg" version="1.1" width="100%" height="100%">
<style type="text/css"><![CDATA[
  .stroke { fill:none; stroke:black; stroke-width:2 }
]]></style>
<path class="stroke" d="M 7.242375 22.0316 L 1.98475 38.1199" />
<path class="stroke" d="M 17.231833333333334 22.0316 L 23.01525 38.1199" />
<path class="stroke" d="M 12.237083333333334 7.3123 L 12.237083333333334 93.3186" />
<path class="stroke" d="M 46.864379154000005 4.43430625 L 46.864379154000005 19.6167875" />
<path class="stroke" d="M 46.864379154000005 4.43430625 L 76.2705096 4.43430625 L 76.2705096 19.4708025" />
<path class="stroke" d="M 46.864379154000005 18.448904 L 76.2705096 18.448904" />
<path class="stroke" d="M 31.658284365500002 27.377736875 L 31.658284365500002 44.078466250000005" />
<path class="stroke" d="M 31.658284365500002 27.377736875 L 53.712882199999996 27.377736875 L 53.712882199999996 43.917882750000004" />
<path class="stroke" d="M 31.658284365500002 42.793794399999996 L 53.712882199999996 42.793794399999996" />
<path class="stroke" d="M 69.3882843655 27.377736875 L 69.3882843655 44.078466250000005" />
<path class="stroke" d="M 69.3882843655 27.377736875 L 91.4428822 27.377736875 L 91.4428822 43.917882750000004" />
<path class="stroke" d="M 69.3882843655 42.793794399999996 L 91.4428822 42.793794399999996" />
<path class="stroke" d="M 38.4562023 61.934305 L 84.76860690000001 61.934305" />
<path class="stroke" d="M 61.612404600000005 54.489051 L 61.612404600000005 95.36496" />
<path class="stroke" d="M 61.612404600000005 64.4160575 C 54.1934315 75.656933 45.20072855 81.642334 33.510217409999996 84.70802499999999" />
<path class="stroke" d="M 61.612404600000005 64.4160575 C 68.58174775 75.8029175 78.0240845 81.7883185 89.71459718000001 84.4160575" />
</svg>
