<?xml version="1.0" standalone="no"?>
<!DOCTYPE svg PUBLIC "-//W3C//DTD SVG 1.1//EN" "http://www.w3.org/Graphics/SVG/1.1/DTD/svg11.dtd">
<svg xmlns="http://www.w3.org/2000/svg" version="1.1" width="100%" height="100%">
<style type="text/css"><![CDATA[
  .stroke { fill:none; stroke:black; stroke-width:2 }
]]></style>
<path class="stroke" d="M 9.245046742857141 27.956203 L 29.416057657142854 27.956203" />
<path class="stroke" d="M 21.140768857142856 9.270073 L 21.140768857142856 90.14598" />
<path class="stroke" d="M 21.140768857142856 36.131386 C 17.778934 44.598537 13.641292257142856 52.48175 7.693430314285713 56.861313" />
<path class="stroke" d="M 21.140768857142856 36.131386 C 25.019810371428573 37.299267 27.605837457142858 42.26277 28.898851 46.934303" />
<path class="stroke" d="M 38.074156 9.621452 L 93.796555 9.621452" />
<path class="stroke" d="M 38.074156 9.62145 L 38.074156 91.3249 L 94.884892 91.3249" />
<path class="stroke" d="M 57.3887223535 21.20802875 L 57.3887223535 42.463502500000004" />
<path class="stroke" d="M 57.3887223535 21.20802875 L 77.15193339999999 21.20802875 L 77.15193339999999 42.2591235" />
<path class="stroke" d="M 57.3887223535 40.8284656 L 77.15193339999999 40.8284656" />
<path class="stroke" d="M 47.169041765125 53.328831625 L 47.169041765125 76.70985275000001" />
<path class="stroke" d="M 47.169041765125 53.328831625 L 61.99145005 53.328831625 L 61.99145005 76.48503585" />
<path class="stroke" d="M 47.169041765125 74.91131216 L 61.99145005 74.91131216" />
<path class="stroke" d="M 72.52654176512499 53.328831625 L 72.52654176512499 76.70985275000001" />
<path class="stroke" d="M 72.52654176512499 53.328831625 L 87.34895004999998 53.328831625 L 87.34895004999998 76.48503585" />
<path class="stroke" d="M 72.52654176512499 74.91131216 L 87.34895004999998 74.91131216" />
</svg>
