<?xml version="1.0" standalone="no"?>
<!DOCTYPE svg PUBLIC "-//W3C//DTD SVG 1.1//EN" "http://www.w3.org/Graphics/SVG/1.1/DTD/svg11.dtd">
<svg xmlns="http://www.w3.org/2000/svg" version="1.1" width="100%" height="100%">
<style type="text/css"><![CDATA[
  .stroke { fill:none; stroke:black; stroke-width:2 }
]]></style>
<path class="stroke" d="M 6.15144 9.621452 L 54.6057 9.621452" />
<path class="stroke" d="M 6.15144 9.62145 L 6.15144 91.3249 L 55.55208 91.3249" />
<path class="stroke" d="M 22.94671509 21.20802875 L 22.94671509 42.463502500000004" />
<path class="stroke" d="M 22.94671509 21.20802875 L 40.132115999999996 21.20802875 L 40.132115999999996 42.2591235" />
<path class="stroke" d="M 22.94671509 40.8284656 L 40.132115999999996 40.8284656" />
<path class="stroke" d="M 14.060036317499998 53.328831625 L 14.060036317499998 76.70985275000001" />
<path class="stroke" d="M 14.060036317499998 53.328831625 L 26.949086999999995 53.328831625 L 26.949086999999995 76.48503585" />
<path class="stroke" d="M 14.060036317499998 74.91131216 L 26.949086999999995 74.91131216" />
<path class="stroke" d="M 36.1100363175 53.328831625 L 36.1100363175 76.70985275000001" />
<path class="stroke" d="M 36.1100363175 53.328831625 L 48.999086999999996 53.328831625 L 48.999086999999996 76.48503585" />
<path class="stroke" d="M 36.1100363175 74.91131216 L 48.999086999999996 74.91131216" />
<path class="stroke" d="M 67.4489035 11.605839 C 66.66058315000001 22.116787 64.55839375 32.627735 61.93065655 39.927006" />
<path class="stroke" d="M 65.4781024 26.204376 L 91.88686 26.204376 C 91.6240852 34.37956 90.3102175 39.927006 87.813865 45.47445" />
<path class="stroke" d="M 77.6970793 30.875912 C 77.6970793 62.408752 69.55048000000001 79.653 59.43430585 90.14598" />
<path class="stroke" d="M 77.565691 48.394157 C 80.58759085 63.868607 85.05474175 80.21897 95.6970775 90.14598" />
</svg>
