<?xml version="1.0" standalone="no"?>
<!DOCTYPE svg PUBLIC "-//W3C//DTD SVG 1.1//EN" "http://www.w3.org/Graphics/SVG/1.1/DTD/svg11.dtd">
<svg xmlns="http://www.w3.org/2000/svg" version="1.1" width="100%" height="100%">
<style type="text/css"><![CDATA[
  .stroke { fill:none; stroke:black; stroke-width:2 }
]]></style>
<path class="stroke" d="M 12.189779 14.124087 L 87.81021 14.124087" />
<path class="stroke" d="M 34.67153 7.5547431000000005 L 34.67153 21.218976899999998" />
<path class="stroke" d="M 65.32846 7.5547431000000005 L 65.32846 21.218976899999998" />
<path class="stroke" d="M 21.369634768 24.68847417 L 21.369634768 38.121933580000004" />
<path class="stroke" d="M 21.369634768 24.68847417 L 40.7191232 24.68847417 L 40.7191232 37.992766052" />
<path class="stroke" d="M 21.369634768 37.0885902592 L 40.7191232 37.0885902592" />
<path class="stroke" d="M 59.369634768000004 24.68847417 L 59.369634768000004 38.121933580000004" />
<path class="stroke" d="M 59.369634768000004 24.68847417 L 78.7191232 24.68847417 L 78.7191232 37.992766052" />
<path class="stroke" d="M 59.369634768000004 37.0885902592 L 78.7191232 37.0885902592" />
<path class="stroke" d="M 31.560291152 49.363 L 68.43970519999999 49.363" />
<path class="stroke" d="M 16.6750792 61.020122444049996 L 83.56464 61.020122444049996" />
<path class="stroke" d="M 38.252376 61.020122444049996 L 33.217604 72.7215076006 L 70.37856400000001 72.7215076006 C 70.45844 83.000846001 65.503696 93.6458243121 56.233444 93.56456670540001 L 48.801252 93.56456670540001" />
</svg>
