<?xml version="1.0" standalone="no"?>
<!DOCTYPE svg PUBLIC "-//W3C//DTD SVG 1.1//EN" "http://www.w3.org/Graphics/SVG/1.1/DTD/svg11.dtd">
<svg xmlns="http://www.w3.org/2000/svg" version="1.1" width="100%" height="100%">
<style type="text/css"><![CDATA[
  .stroke { fill:none; stroke:black; stroke-width:2 }
]]></style>
<path class="stroke" d="M 12.189779 11.7700725 L 87.81021 11.7700725" />
<path class="stroke" d="M 34.67153 6.29561925 L 34.67153 17.68248075" />
<path class="stroke" d="M 65.32846 6.29561925 L 65.32846 17.68248075" />
<path class="stroke" d="M 32.89343018 22.01532825 L 32.89343018 32.3394155" />
<path class="stroke" d="M 32.89343018 22.01532825 L 67.26423199999999 22.01532825 L 67.26423199999999 32.2401457" />
<path class="stroke" d="M 32.89343018 31.545254720000003 L 67.26423199999999 31.545254720000003" />
<path class="stroke" d="M 15.120072635 37.616861075 L 15.120072635 48.973357050000004" />
<path class="stroke" d="M 15.120072635 37.616861075 L 40.898174 37.616861075 L 40.898174 48.864160270000006" />
<path class="stroke" d="M 15.120072635 48.099780192 L 40.898174 48.099780192" />
<path class="stroke" d="M 59.220072635 37.616861075 L 59.220072635 48.973357050000004" />
<path class="stroke" d="M 59.220072635 37.616861075 L 84.998174 37.616861075 L 84.998174 48.864160270000006" />
<path class="stroke" d="M 59.220072635 48.099780192 L 84.998174 48.099780192" />
<path class="stroke" d="M 25.7372252 54.7 L 74.26276999999999 54.7" />
<path class="stroke" d="M 6.15142 65.051119495 L 94.164 65.051119495" />
<path class="stroke" d="M 34.5426 65.051119495 L 27.9179 75.44154274 L 76.8139 75.44154274 C 76.919 84.56923789999999 70.3996 94.02160859 58.2019 93.94945466 L 48.4227 93.94945466" />
</svg>
