<?xml version="1.0" standalone="no"?>
<!DOCTYPE svg PUBLIC "-//W3C//DTD SVG 1.1//EN" "http://www.w3.org/Graphics/SVG/1.1/DTD/svg11.dtd">
<svg xmlns="http://www.w3.org/2000/svg" version="1.1" width="100%" height="100%">
<style type="text/css"><![CDATA[
  .stroke { fill:none; stroke:black; stroke-width:2 }
]]></style>
<path class="stroke" d="M 11.299269200000001 14.970297500000001 L 11.299269200000001 60.959850700000004" />
<path class="stroke" d="M 11.3402052 14.89175245 L 30.639176 14.89175245" />
<path class="stroke" d="M 21.005088 15.03941 L 21.005088 60.959850700000004" />
<path class="stroke" d="M 11.299269200000001 30.171532499999998 L 28.817516 30.171532499999998" />
<path class="stroke" d="M 11.4160584 45.981748849999995 L 28.817516 45.981748849999995" />
<path class="stroke" d="M 11.299269200000001 60.959850700000004 L 35.124084 60.959850700000004 C 35.124084 82.3175132 33.839412 90.91605249999999 31.270072 90.91605249999999" />
<path class="stroke" d="M 6.3941604000000005 71.7773715 C 6.043795200000001 75.38320575 5.3430648000000005 79.5437925 4.1751824 81.762774" />
<path class="stroke" d="M 11.8832108 70.6678798 C 12.700729200000001 73.44160049999999 13.2846712 76.770068 13.635036 82.04014550000001" />
<path class="stroke" d="M 19.240876 70.1131387 C 20.175181600000002 73.44160049999999 20.8759108 76.770068 21.3430648 80.6532785" />
<path class="stroke" d="M 26.948904 69.003647 C 28.0 72.60948599999999 28.583940000000002 74.551096 29.051092 78.98904950000001" />
<path class="stroke" d="M 43.459012 13.6593068 L 94.335985 13.6593068" />
<path class="stroke" d="M 43.459012 13.659305 L 43.459012 87.19241 L 95.329684 87.19241" />
<path class="stroke" d="M 61.0940508445 24.087225875 L 61.0940508445 43.217152250000005" />
<path class="stroke" d="M 61.0940508445 24.087225875 L 79.1387218 24.087225875 L 79.1387218 43.03321115" />
<path class="stroke" d="M 61.0940508445 41.74561904 L 79.1387218 41.74561904" />
<path class="stroke" d="M 51.763038133375 52.9959484625 L 51.763038133375 74.03886747500002" />
<path class="stroke" d="M 51.763038133375 52.9959484625 L 65.29654135 52.9959484625 L 65.29654135 73.836532265" />
<path class="stroke" d="M 51.763038133375 72.420180944 L 65.29654135 72.420180944" />
<path class="stroke" d="M 74.91553813337501 52.9959484625 L 74.91553813337501 74.03886747500002" />
<path class="stroke" d="M 74.91553813337501 52.9959484625 L 88.44904134999999 52.9959484625 L 88.44904134999999 73.836532265" />
<path class="stroke" d="M 74.91553813337501 72.420180944 L 88.44904134999999 72.420180944" />
</svg>
