<?xml version="1.0" standalone="no"?>
<!DOCTYPE svg PUBLIC "-//W3C//DTD SVG 1.1//EN" "http://www.w3.org/Graphics/SVG/1.1/DTD/svg11.dtd">
<svg xmlns="http://www.w3.org/2000/svg" version="1.1" width="100%" height="100%">
<style type="text/css"><![CDATA[
  .stroke { fill:none; stroke:black; stroke-width:2 }
]]></style>
<path class="stroke" d="M 29.4138659 9.562042 L 29.4138659 18.321167" />
<path class="stroke" d="M 11.670802389999999 18.321167 L 47.329192299999995 18.321167" />
<path class="stroke" d="M 18.216788079999997 29.124084 L 18.216788079999997 44.598537" />
<path class="stroke" d="M 18.216788079999997 29.124084 L 40.783209559999996 29.124084 L 40.783209559999996 44.598537" />
<path class="stroke" d="M 18.216788079999997 44.598537 L 40.783209559999996 44.598537" />
<path class="stroke" d="M 11.15401313 54.525543 L 11.15401313 89.56204" />
<path class="stroke" d="M 11.15401313 54.525543 L 47.6737228 54.525543 L 47.6737228 85.18248 C 47.8459851 88.39416 46.295618499999996 90.72992 44.91751774 90.72992 L 43.88393745 90.72992" />
<path class="stroke" d="M 21.31751774 65.14851 L 21.31751774 81.678825" />
<path class="stroke" d="M 21.31751774 65.32846 L 37.68247813 65.32846 L 37.68247813 81.678825" />
<path class="stroke" d="M 21.31751774 81.678825 L 37.68247813 81.678825" />
<path class="stroke" d="M 65.4963501 8.877736875 L 65.4963501 25.57846625" />
<path class="stroke" d="M 65.4963501 8.877736875 L 84.59124 8.877736875 L 84.59124 25.417882750000004" />
<path class="stroke" d="M 65.4963501 24.2937944 L 84.59124 24.2937944" />
<path class="stroke" d="M 55.622262575 34.115510562500006 L 55.622262575 52.48631287500001" />
<path class="stroke" d="M 55.622262575 34.115510562500006 L 69.94343 34.115510562500006 L 69.94343 52.30967102500001" />
<path class="stroke" d="M 55.622262575 51.07317384 L 69.94343 51.07317384" />
<path class="stroke" d="M 80.12226257500001 34.115510562500006 L 80.12226257500001 52.48631287500001" />
<path class="stroke" d="M 80.12226257500001 34.115510562500006 L 94.44343 34.115510562500006 L 94.44343 52.30967102500001" />
<path class="stroke" d="M 80.12226257500001 51.07317384 L 94.44343 51.07317384" />
<path class="stroke" d="M 60.036495 66.3087579 L 90.109485 66.3087579" />
<path class="stroke" d="M 75.07299 60.50145978 L 75.07299 92.38466880000001" />
<path class="stroke" d="M 75.07299 68.24452485 C 70.255475 77.01240774 64.4160575 81.68102052 56.8248165 84.0722595" />
<path class="stroke" d="M 75.07299 68.24452485 C 79.59853749999999 77.12627565 85.72992500000001 81.79488843 93.321167 83.84452485" />
</svg>
