<?xml version="1.0" standalone="no"?>
<!DOCTYPE svg PUBLIC "-//W3C//DTD SVG 1.1//EN" "http://www.w3.org/Graphics/SVG/1.1/DTD/svg11.dtd">
<svg xmlns="http://www.w3.org/2000/svg" version="1.1" width="100%" height="100%">
<style type="text/css"><![CDATA[
  .stroke { fill:none; stroke:black; stroke-width:2 }
]]></style>
<path class="stroke" d="M 24.1325 6.330177466666667 C 28.3386 8.980050799999999 31.2828 12.218680133333333 33.5962 16.046281066666666" />
<path class="stroke" d="M 75.8676 6.624611466666667 C 72.9233 10.354052800000002 69.6636 13.788999466666667 65.142 16.04626706666667" />
<path class="stroke" d="M 13.0915 23.112544 L 84.3849 23.112544" />
<path class="stroke" d="M 6.15142 40.18924 L 92.9022 40.18924" />
<path class="stroke" d="M 50.0 6.624604 C 44.97382 37.57766133333334 28.8644 61.38804000000001 6.46688 66.39332" />
<path class="stroke" d="M 55.65445 23.797557466666667 C 60.366493 39.63001466666667 70.1892 60.406546666666664 92.5867 65.80438666666667" />
<path class="stroke" d="M 32.10437754 68.28102154 L 65.5554705 67.27664216 C 64.723356 81.5890494 62.2270068 89.247444 61.39489002 90.87956059999999 C 60.396346349999995 92.26058128 58.3992687 92.6372243 56.73503399999999 92.76277139999999 L 55.0707993 92.6372243" />
<path class="stroke" d="M 48.5802891 58.48832108 C 46.5832086 72.54963369000001 40.0926984 86.86204265 29.608028339999997 90.87956059999999" />
</svg>
