<?xml version="1.0" standalone="no"?>
<!DOCTYPE svg PUBLIC "-//W3C//DTD SVG 1.1//EN" "http://www.w3.org/Graphics/SVG/1.1/DTD/svg11.dtd">
<svg xmlns="http://www.w3.org/2000/svg" version="1.1" width="100%" height="100%">
<style type="text/css"><![CDATA[
  .stroke { fill:none; stroke:black; stroke-width:2 }
]]></style>
<path class="stroke" d="M 33.05577725 5.83596 C 27.861084149999996 18.87483 16.972659150000002 32.54463 5.78440465 38.64353" />
<path class="stroke" d="M 8.48156675 8.04417 C 19.47004575 17.7182 28.660345749999998 33.0705 28.560405749999997 61.6719 L 28.560405749999997 77.4448 C 28.959974799999998 85.6467 26.6624948 96.0569 18.670809799999997 95.7414 L 13.72302075 95.7414" />
<path class="stroke" d="M 25.26383925 34.22716 C 25.36377925 49.47426 15.27430425 62.82856 5.784412249999999 67.03466" />
<path class="stroke" d="M 61.832798 7.0978 L 61.832798 15.9306" />
<path class="stroke" d="M 43.8580611 16.246 L 79.34069184 16.246 L 79.34069184 54.7318" />
<path class="stroke" d="M 43.85802854 36.4353 L 79.3406578 36.4353" />
<path class="stroke" d="M 43.8580611 54.7318 L 79.34069184 54.7318" />
<path class="stroke" d="M 43.8580611 16.246 L 43.8580611 91.0094 M 33.3533282 93.5331 C 43.157788 91.9557 51.328053999999995 89.4322 60.198803999999996 84.0695" />
<path class="stroke" d="M 84.476317 58.51731 C 79.729735 66.82431 74.282891 72.29231 67.902241 76.49851" />
<path class="stroke" d="M 52.495329999999996 54.7318 C 55.841166 76.0778 71.792828 93.9537 94.047292 94.164" />
</svg>
