<?xml version="1.0" standalone="no"?>
<!DOCTYPE svg PUBLIC "-//W3C//DTD SVG 1.1//EN" "http://www.w3.org/Graphics/SVG/1.1/DTD/svg11.dtd">
<svg xmlns="http://www.w3.org/2000/svg" version="1.1" width="100%" height="100%">
<style type="text/css"><![CDATA[
  .stroke { fill:none; stroke:black; stroke-width:2 }
]]></style>
<path class="stroke" d="M 18.62208409090909 25.811516 C 17.908137500000002 33.979057 16.480246590909093 36.806282 15.052355681818185 41.83246" />
<path class="stroke" d="M 43.65436363636364 23.267326 C 41.6291625 28.613861 38.92889431818182 33.069305 35.21602272727273 36.336636" />
<path class="stroke" d="M 27.790277272727277 9.306931 L 27.790277272727277 57.72277 C 27.790277272727277 74.653465 17.74443181818182 85.6467 10.91359090909091 90.39604" />
<path class="stroke" d="M 27.452746590909094 63.36634 C 33.19081818181819 68.71287 38.591359090909094 75.24753 40.95409545454545 82.9703" />
<path class="stroke" d="M 67.635034 4.781021 C 67.48231 7.589295 63.830709999999996 10.847595 60.55177 10.955695" />
<path class="stroke" d="M 52.919707 11.0583935 L 52.919707 45.51095" />
<path class="stroke" d="M 52.919707 10.9561425 L 87.4306564 10.9561425 L 87.4306564 45.51095" />
<path class="stroke" d="M 52.919707 27.1843625 L 87.4306564 27.1843625" />
<path class="stroke" d="M 52.919707 44.01178 L 87.4306564 44.01178" />
<path class="stroke" d="M 52.043794 58.284671 L 87.9562 58.284671" />
<path class="stroke" d="M 70.186876 58.284671 L 70.186876 93.90510499999999" />
<path class="stroke" d="M 54.846713199999996 75.656933 L 85.328464 75.656933" />
<path class="stroke" d="M 46.6131376 93.90510499999999 L 93.562039 93.90510499999999" />
</svg>
