<?xml version="1.0" standalone="no"?>
<!DOCTYPE svg PUBLIC "-//W3C//DTD SVG 1.1//EN" "http://www.w3.org/Graphics/SVG/1.1/DTD/svg11.dtd">
<svg xmlns="http://www.w3.org/2000/svg" version="1.1" width="100%" height="100%">
<style type="text/css"><![CDATA[
  .stroke { fill:none; stroke:black; stroke-width:2 }
]]></style>
<path class="stroke" d="M 23.263201294117646 11.605839 C 20.137396588235294 27.372261 13.645340470588234 41.970802 8.115069529411764 50.14598" />
<path class="stroke" d="M 18.454269647058823 30.583939 L 18.454269647058823 90.43795" />
<path class="stroke" d="M 56.58829 12.9006358 C 48.599867 16.742869 40.163505 18.664003 32.175082 19.487371000000003" />
<path class="stroke" d="M 28.8154543 34.0331359 L 90.85643999999999 34.0331359" />
<path class="stroke" d="M 45.1656325 17.29186336 L 45.1656325 83.98266775 C 45.016319499999994 87.00156862 43.299184499999996 88.92270088 41.3580445 88.92270088 L 37.550456499999996 88.92270088" />
<path class="stroke" d="M 30.1592997 59.8312111 C 37.0278894 55.8059821 46.584134399999996 53.153004100000004 55.692440399999995 52.421073099999994" />
<path class="stroke" d="M 65.77135899999999 12.6261769 L 65.77135899999999 41.443213 C 66.069985 65.777548 78.68718199999999 88.190923 87.720796 88.37379700000001 L 87.720796 79.042699" />
<path class="stroke" d="M 88.168735 45.83441359 C 81.897447 66.8753662 71.370632 83.25076198 56.140350999999995 88.6482472" />
<path class="stroke" d="M 76.7460846 16.468453599999997 C 79.2844766 18.664037800000003 80.92691959999999 20.585171799999998 82.56936259999999 24.1530418" />
</svg>
