<?xml version="1.0" standalone="no"?>
<!DOCTYPE svg PUBLIC "-//W3C//DTD SVG 1.1//EN" "http://www.w3.org/Graphics/SVG/1.1/DTD/svg11.dtd">
<svg xmlns="http://www.w3.org/2000/svg" version="1.1" width="100%" height="100%">
<style type="text/css"><![CDATA[
  .stroke { fill:none; stroke:black; stroke-width:2 }
]]></style>
<path class="stroke" d="M 21.57253 6.78234 C 16.284419 11.1987 10.699784999999999 13.4069 5.411674 14.3533" />
<path class="stroke" d="M 3.1876951 31.07257 L 44.257079999999995 31.07257" />
<path class="stroke" d="M 14.011052499999998 11.829728 L 14.011052499999998 88.485825 C 13.912211499999998 91.955826 12.7755165 94.164024 11.4905365 94.164024 L 8.970020499999999 94.164024" />
<path class="stroke" d="M 4.077282899999999 60.72553 C 8.6240958 56.09883 14.9500608 53.04943 20.9795028 52.20813" />
<path class="stroke" d="M 27.651463 6.46687 L 27.651463 39.5899 C 27.849145 67.5604 36.201373999999994 93.3229 42.181372 93.5331 L 42.181372 82.8077" />
<path class="stroke" d="M 42.477895 44.637257 C 38.326479 68.82226 31.358023999999997 87.644554 21.276006999999996 93.84856" />
<path class="stroke" d="M 34.9164222 10.88328 C 36.5967662 13.40694 37.6840172 15.61514 38.771268199999994 19.71614" />
<path class="stroke" d="M 61.706806 9.4764385 C 61.356442 12.980087 61.223448399999995 14.994076 59.8219888 17.329842" />
<path class="stroke" d="M 53.225131 17.015707 L 53.225131 66.96335" />
<path class="stroke" d="M 53.0366482 17.43295 L 81.35632 17.43295 L 81.35632 43.333332" />
<path class="stroke" d="M 53.602092999999996 30.583939 L 81.172414 30.583939" />
<path class="stroke" d="M 53.4136132 43.430653 L 81.35632 43.430653" />
<path class="stroke" d="M 53.602092999999996 55.10949 L 90.544504 55.10949" />
<path class="stroke" d="M 53.4136132 66.20438 L 90.827584 66.20438 L 89.72413599999999 80.57471 C 89.356324 85.01916 88.344826 90.22988 86.229883 90.22988 C 85.034479 90.22988 84.4827544 90.22988 83.655172 90.22988" />
<path class="stroke" d="M 51.1034482 74.137924 C 50.9195392 76.74329 49.999999599999995 80.881226 48.896551 83.48659" />
<path class="stroke" d="M 59.8390792 74.137924 C 60.5747122 76.28352 61.2183898 79.042145 61.310344 82.26054" />
<path class="stroke" d="M 70.8735616 74.597694 C 71.88505599999999 76.74329 72.5287324 79.042145 72.9885058 81.800766" />
<path class="stroke" d="M 80.896552 74.44444 C 82.18390600000001 75.82375 83.195398 77.816086 84.02298400000001 80.72797" />
</svg>
