<?xml version="1.0" standalone="no"?>
<!DOCTYPE svg PUBLIC "-//W3C//DTD SVG 1.1//EN" "http://www.w3.org/Graphics/SVG/1.1/DTD/svg11.dtd">
<svg xmlns="http://www.w3.org/2000/svg" version="1.1" width="100%" height="100%">
<style type="text/css"><![CDATA[
  .stroke { fill:none; stroke:black; stroke-width:2 }
]]></style>
<path class="stroke" d="M 11.929092571428571 27.956203 L 37.95620342857143 27.956203" />
<path class="stroke" d="M 27.278411428571427 9.270073 L 27.278411428571427 90.14598" />
<path class="stroke" d="M 27.278411428571427 36.131386 C 22.940559999999998 44.598537 17.601667428571428 52.48175 9.927006857142857 56.861313" />
<path class="stroke" d="M 27.278411428571427 36.131386 C 32.283626285714284 37.299267 35.620435428571426 42.26277 37.28884 46.934303" />
<path class="stroke" d="M 54.7459251456 9.576642 L 54.7459251456 39.007296000000004" />
<path class="stroke" d="M 54.7459251456 9.576642 L 81.1008448 9.576642 L 81.1008448 39.007296000000004" />
<path class="stroke" d="M 54.899152576 23.490257200000002 L 80.947618944 23.490257200000002" />
<path class="stroke" d="M 54.7459251456 37.7226256 L 81.1008448 37.7226256" />
<path class="stroke" d="M 42.11970688 45.75 L 93.88028800000001 45.75" />
<path class="stroke" d="M 52.64 45.92484277464 C 52.22486336 50.9196971496 49.94162112 60.5871563808 40.808648704 66.0653833944" />
<path class="stroke" d="M 51.46277312 53.4373131216 C 70.89634752 53.4373131216 76.87590847999999 53.4373131216 93.6934272 53.4373131216 C 93.1328416 73.889517396 87.9007296 81.1420725648 82.668608 85.78370676 C 80.23941375999999 87.5243180928 77.9970816 87.959472168 75.56788096 88.104522864" />
<path class="stroke" d="M 64.9167872 53.4373131216 C 63.2350336 65.62160387760001 53.89196992 74.75982306240002 43.6145984 79.83661332" />
<path class="stroke" d="M 77.8102144 53.4373131216 C 76.1284672 68.232522864 67.9065664 79.401456264 59.3109472 83.89804026" />
</svg>
