<?xml version="1.0" standalone="no"?>
<!DOCTYPE svg PUBLIC "-//W3C//DTD SVG 1.1//EN" "http://www.w3.org/Graphics/SVG/1.1/DTD/svg11.dtd">
<svg xmlns="http://www.w3.org/2000/svg" version="1.1" width="100%" height="100%">
<style type="text/css"><![CDATA[
  .stroke { fill:none; stroke:black; stroke-width:2 }
]]></style>
<path class="stroke" d="M 11.7883205 9.562042 L 11.7883205 90.72992" />
<path class="stroke" d="M 11.7883205 9.562042 L 38.065693 9.562042 L 38.065693 90.43795" />
<path class="stroke" d="M 11.7883205 34.356148 L 38.065693 34.356148" />
<path class="stroke" d="M 11.7883205 62.19584 L 38.065693 62.19584" />
<path class="stroke" d="M 11.7883205 87.81021 L 38.065693 87.81021" />
<path class="stroke" d="M 68.5 6.24963492 L 68.5 10.58248176" />
<path class="stroke" d="M 50.93357581 10.82773684 L 86.4343045 10.82773684" />
<path class="stroke" d="M 53.87664097 14.343066000000002 C 57.55547305 17.28613088 60.314597739999996 21.1284656 61.786129689999996 24.889050400000002" />
<path class="stroke" d="M 83.67517855 13.689050400000001 C 79.2605827 16.713868 75.58175125 21.3737232 74.6620426 26.197078800000003" />
<path class="stroke" d="M 44.12773684 27.014597600000002 L 92.50437969999999 27.014597600000002" />
<path class="stroke" d="M 51.66934336 38.178217599999996 L 51.66934336 68.9853996" />
<path class="stroke" d="M 51.853283829999995 38.280789999999996 L 85.33065411999999 38.280789999999996 L 85.33065411999999 68.78102200000001" />
<path class="stroke" d="M 51.66934336 54.1797899 L 84.96277318 54.1797899" />
<path class="stroke" d="M 51.66934336 68.97474 L 85.33065411999999 68.97474" />
<path class="stroke" d="M 68.301235 38.178217599999996 L 68.301235 93.306565" />
<path class="stroke" d="M 50.38175125 80.839411 L 86.6182456 80.839411" />
<path class="stroke" d="M 43.20802819 93.306565 L 94.1598496 93.306565" />
</svg>
