<?xml version="1.0" standalone="no"?>
<!DOCTYPE svg PUBLIC "-//W3C//DTD SVG 1.1//EN" "http://www.w3.org/Graphics/SVG/1.1/DTD/svg11.dtd">
<svg xmlns="http://www.w3.org/2000/svg" version="1.1" width="100%" height="100%">
<style type="text/css"><![CDATA[
  .stroke { fill:none; stroke:black; stroke-width:2 }
]]></style>
<path class="stroke" d="M 13.4077365 11.943194 L 13.33849284 63.9" />
<path class="stroke" d="M 13.4077365 11.943194 L 45.475555500000006 11.943194" />
<path class="stroke" d="M 22.321914480000004 21.4365968 L 22.321914480000004 50.7217016" />
<path class="stroke" d="M 31.31808552 11.9387238 L 31.31808552 28.2434032 L 41.45170230000001 28.2434032 L 41.45170230000001 45.3395746" />
<path class="stroke" d="M 31.5248931 45.1812762 L 37.65648375 45.249727299999996 L 41.1414885 45.1812762" />
<path class="stroke" d="M 31.5248931 45.0229778 L 31.5248931 61.169358800000005" />
<path class="stroke" d="M 13.4077365 61.42589 L 45.73107 61.42589" />
<path class="stroke" d="M 55.554950475000005 11.506931000000002 L 76.96782292500001 11.506931000000002 L 76.96782292500001 28.449503599999996" />
<path class="stroke" d="M 55.67524722 28.508416 L 76.96782292500001 28.508416" />
<path class="stroke" d="M 55.564053255000005 11.87026929 L 55.67524722 55.3366344 C 55.67524722 58.099007199999996 56.99851425 60.861386200000005 59.04356499 60.861386200000005 L 82.02029715 60.861386200000005 C 83.82475035000002 60.861386200000005 85.3886133 58.8356416 85.3886133 56.257427400000005 L 85.3886133 52.9425788" />
<path class="stroke" d="M 18.613138 77.00729 C 18.029196 82.55474 15.69343 87.22627 11.89781 89.85401" />
<path class="stroke" d="M 35.255474 77.88321 C 38.46715 81.678825 40.218975 85.18248 41.67883 90.14598" />
<path class="stroke" d="M 59.197075 78.17518 C 62.408752 81.678825 63.868607 85.47445 65.32846 90.43795" />
<path class="stroke" d="M 81.386856 78.17518 C 84.8905 81.678825 86.9343 84.8905 88.68613 90.43795" />
</svg>
