<?xml version="1.0" standalone="no"?>
<!DOCTYPE svg PUBLIC "-//W3C//DTD SVG 1.1//EN" "http://www.w3.org/Graphics/SVG/1.1/DTD/svg11.dtd">
<svg xmlns="http://www.w3.org/2000/svg" version="1.1" width="100%" height="100%">
<style type="text/css"><![CDATA[
  .stroke { fill:none; stroke:black; stroke-width:2 }
]]></style>
<path class="stroke" d="M 8.003300000000001 33.069305 L 25.825083333333335 30.9901" />
<path class="stroke" d="M 19.389438333333334 9.60396 L 19.389438333333334 84.15842 C 19.389438333333334 87.42574 17.161715833333336 90.09901 14.191419166666668 90.09901" />
<path class="stroke" d="M 8.498349166666667 63.36634 L 24.09241 46.435642" />
<path class="stroke" d="M 63.597806600000006 7.229489055999999 L 63.597806600000006 15.862480863999998" />
<path class="stroke" d="M 38.362772835 16.058684032 L 38.362772835 25.47649456" />
<path class="stroke" d="M 38.362772835 16.058684032 L 88.8328407 16.058684032 L 88.8328407 25.47649456" />
<path class="stroke" d="M 35.8123036 32.1545752 L 91.18768299999999 32.1545752" />
<path class="stroke" d="M 63.711385 32.381728 L 63.5 90.4967692" />
<path class="stroke" d="M 63.711385 58.047352 L 85.48109199999999 58.047352" />
<path class="stroke" d="M 45.957390000000004 56.457376000000004 C 45.605104 76.67187999999999 41.237106 84.167224 34.3328029 92.343832" />
<path class="stroke" d="M 45.957390000000004 56.457376000000004 C 46.591478 92.57099199999999 64.79677294000001 90.961288 74.0903215 91.8903184 L 92.455859 92.116744" />
</svg>
