<?xml version="1.0" standalone="no"?>
<!DOCTYPE svg PUBLIC "-//W3C//DTD SVG 1.1//EN" "http://www.w3.org/Graphics/SVG/1.1/DTD/svg11.dtd">
<svg xmlns="http://www.w3.org/2000/svg" version="1.1" width="100%" height="100%">
<style type="text/css"><![CDATA[
  .stroke { fill:none; stroke:black; stroke-width:2 }
]]></style>
<path class="stroke" d="M 25.89276 7.29968 C 20.891744 19.110367999999998 14.85597 31.526816 7.0094638 40.914848" />
<path class="stroke" d="M 25.89276 7.6025216 C 30.893776000000003 13.356416 34.342777999999996 19.716127999999998 38.050489999999996 26.075744" />
<path class="stroke" d="M 12.958981999999999 34.2523904 L 35.981055999999995 34.2523904" />
<path class="stroke" d="M 8.5615147 51.5141504 L 39.08515534 51.5141504" />
<path class="stroke" d="M 25.37537526 34.555232000000004 L 25.37537526 86.64348799999999" />
<path class="stroke" d="M 8.3028416 61.205119999999994 C 11.838042 65.24288 14.59726 69.583616 17.356478 74.22713599999999" />
<path class="stroke" d="M 38.3092 61.205024 C 36.412212 66.757088 33.739176 71.40060799999999 30.290174 76.044224" />
<path class="stroke" d="M 9.596211199999999 92.70032 L 38.050489999999996 82.403744" />
<path class="stroke" d="M 52.9817495 11.605839 C 51.84306455 22.116787 48.80656875 32.627735 45.01094835 39.927006" />
<path class="stroke" d="M 50.1350368 26.204376 L 88.28102 26.204376 C 87.9014564 34.37956 86.0036475 39.927006 82.397805 45.47445" />
<path class="stroke" d="M 67.7846701 30.875912 C 67.7846701 62.408752 56.017360000000004 79.653 41.40510845 90.14598" />
<path class="stroke" d="M 67.594887 48.394157 C 71.95985345 63.868607 78.41240475000001 80.21897 93.78466750000001 90.14598" />
</svg>
