<?xml version="1.0" standalone="no"?>
<!DOCTYPE svg PUBLIC "-//W3C//DTD SVG 1.1//EN" "http://www.w3.org/Graphics/SVG/1.1/DTD/svg11.dtd">
<svg xmlns="http://www.w3.org/2000/svg" version="1.1" width="100%" height="100%">
<style type="text/css"><![CDATA[
  .stroke { fill:none; stroke:black; stroke-width:2 }
]]></style>
<path class="stroke" d="M 24.925188 1.6 L 24.925188 11.73865344" />
<path class="stroke" d="M 15.416668 2.1333337599999997 C 14.3055575 4.17777824 12.6388895 6.75555616 8.194445 9.155556800000001" />
<path class="stroke" d="M 35.13889 2.4 C 36.944445 3.2 41.250005 5.33333376 43.750005 9.06666752" />
<path class="stroke" d="M 4.968455 11.861184000000002 L 4.968455 30.536288" />
<path class="stroke" d="M 5.1262 11.861184000000002 L 45.347 11.861184000000002 L 45.347 28.820192000000002 C 45.5047 29.997888 44.40065 30.569920000000003 42.98105 30.536288 L 41.40375 30.536288" />
<path class="stroke" d="M 24.7755625 11.73865344 L 24.84225 29.728703999999997" />
<path class="stroke" d="M 19.239403 16.71820544 C 18.341646 19.2079808 16.546135 22.5596032 12.057358 24.5705728" />
<path class="stroke" d="M 31.2094765 16.909726720000002 C 33.00499 17.96309312 36.446385 20.8359104 37.04489 24.5705728" />
<path class="stroke" d="M 68.168318 3.1683168 C 66.6831685 7.25544544 63.118812500000004 12.1029696 57.623762 14.859405440000002" />
<path class="stroke" d="M 62.970297 11.43762336 L 88.069305 11.43762336" />
<path class="stroke" d="M 76.48515 11.53267328 C 74.70297 19.61188224 67.1287135 26.36039552 55.247525 28.7366336" />
<path class="stroke" d="M 62.970297 13.908911040000001 C 66.237623 19.7069312 82.12871 28.831683200000004 90.89108999999999 28.831683200000004" />
<path class="stroke" d="M 14.03783752 38.45729656 L 14.03783752 49.91891788" />
<path class="stroke" d="M 14.35567406 38.45729656 L 75.3805367 38.45729656 L 75.3805367 50.120000000000005" />
<path class="stroke" d="M 14.67351158 50.120000000000005 L 36.92216052 50.32107964" />
<path class="stroke" d="M 52.49621468 50.120000000000005 L 75.3805367 50.120000000000005" />
<path class="stroke" d="M 52.1783752 38.85945894 L 52.1783752 90.3362132" />
<path class="stroke" d="M 39.14702316 38.658378432 L 39.14702316 89.73296808 C 40.736214679999996 91.3416176 41.054052199999994 91.94486520000001 45.503781399999994 91.94486520000001 L 87.77621468 91.94486520000001 C 90.9545938 91.14053609999999 91.90810439999998 89.5318872 93.1 86.71675239999999" />
<path class="stroke" d="M 27.1424083 57.598950880000004 L 7.363243327999999 60.9783762" />
<path class="stroke" d="M 7.363243327999999 61.17945894 L 7.363243327999999 84.50486520000001" />
<path class="stroke" d="M 8.6345938 73.0432414 L 37.5578336 73.0432414" />
<path class="stroke" d="M 7.363243327999999 84.7059436 L 37.875674059999994 84.907022" />
<path class="stroke" d="M 53.13189266 59.771890920000004 L 83.32647959999998 59.771890920000004 L 83.32647959999998 84.7059436" />
<path class="stroke" d="M 53.13189266 72.44 L 82.372969 72.44" />
<path class="stroke" d="M 52.49621468 84.7059436 L 83.00864599999998 84.7059436" />
</svg>
