<?xml version="1.0" standalone="no"?>
<!DOCTYPE svg PUBLIC "-//W3C//DTD SVG 1.1//EN" "http://www.w3.org/Graphics/SVG/1.1/DTD/svg11.dtd">
<svg xmlns="http://www.w3.org/2000/svg" version="1.1" width="100%" height="100%">
<style type="text/css"><![CDATA[
  .stroke { fill:none; stroke:black; stroke-width:2 }
]]></style>
<path class="stroke" d="M 25.45244962962963 7.189188 C 16.983982666666666 21.783783 13.314314055555556 27.945946 6.821821092592593 35.72973" />
<path class="stroke" d="M 25.42170814814815 9.306931 C 31.098098333333336 13.351351 33.6386372037037 15.297297 37.30830755555555 20.16216" />
<path class="stroke" d="M 20.371369277777777 23.081081 L 33.40216888888889 22.984291" />
<path class="stroke" d="M 17.266265537037036 32.486485 L 35.0500472037037 32.486485 L 35.0500472037037 58.10811" />
<path class="stroke" d="M 18.39539440740741 44.81081 L 33.6386372037037 44.81081" />
<path class="stroke" d="M 18.182984 57.72277 L 33.92091833333333 57.783783" />
<path class="stroke" d="M 17.266265537037036 31.837837 L 17.548546666666667 88.918915" />
<path class="stroke" d="M 18.39539440740741 69.13513 L 36.46145981481481 69.13513" />
<path class="stroke" d="M 18.39539440740741 81.13513 L 35.896894074074076 81.13513" />
<path class="stroke" d="M 53.34160364 8.7401457 L 53.34160364 33.756201600000004" />
<path class="stroke" d="M 53.34160364 8.7401457 L 84.47737000000001 8.7401457 L 84.47737000000001 33.756201600000004" />
<path class="stroke" d="M 53.5226269 20.56671862 L 84.2963486 20.56671862" />
<path class="stroke" d="M 53.34160364 32.66423176 L 84.47737000000001 32.66423176" />
<path class="stroke" d="M 46.46277246 43.84306458333333 L 46.46277246 56.819545833333336" />
<path class="stroke" d="M 46.46277246 43.84306458333333 L 91.71824708 43.84306458333333 L 91.71824708 56.819545833333336" />
<path class="stroke" d="M 60.7855146 43.84306458333333 L 60.7855146 56.819545833333336" />
<path class="stroke" d="M 77.21453872000001 43.84306458333333 L 77.21453872000001 56.819545833333336" />
<path class="stroke" d="M 46.46277246 56.82564583333333 L 91.8356416 56.82564583333333" />
<path class="stroke" d="M 52.7940587 68.03168292 L 83.548517 68.03168292 C 76.5504933 80.87227761 64.76435592 87.14554559999999 44.1386138 92.6346534" />
<path class="stroke" d="M 52.05742554 70.97227761 C 54.799998020000004 77.05161219 64.39999866 82.05483888 67.59999784 84.2903229 C 73.39999739999999 87.6967743 83.79999767999999 90.2516112 93.67722760000001 92.6346534" />
</svg>
