<?xml version="1.0" standalone="no"?>
<!DOCTYPE svg PUBLIC "-//W3C//DTD SVG 1.1//EN" "http://www.w3.org/Graphics/SVG/1.1/DTD/svg11.dtd">
<svg xmlns="http://www.w3.org/2000/svg" version="1.1" width="100%" height="100%">
<style type="text/css"><![CDATA[
  .stroke { fill:none; stroke:black; stroke-width:2 }
]]></style>
<path class="stroke" d="M 9.638685749999999 17.1240864 L 84.80656175 17.1240864" />
<path class="stroke" d="M 47.5000399 8.36496312 L 47.5000399 27.494889599999997" />
<path class="stroke" d="M 16.57299035 27.494889599999997 L 78.1496315 27.494889599999997" />
<path class="stroke" d="M 7.189188 35.837837 L 92.162155 35.837837 L 79.83784 43.297295" />
<path class="stroke" d="M 26.16633693 45.4158416 L 70.6168319 45.4158416" />
<path class="stroke" d="M 48.039443 45.4752472 L 48.039443 57.0" />
<path class="stroke" d="M 19.44455387 57.0 L 77.7722773 57.0" />
<path class="stroke" d="M 9.37080116 65.56 L 88.629191 65.56" />
<path class="stroke" d="M 14.014536238849999 72.506989472 L 14.014536238849999 87.19877292800001" />
<path class="stroke" d="M 14.014536238849999 72.506989472 L 32.571586739999994 72.506989472 L 32.571586739999994 87.0575061632" />
<path class="stroke" d="M 14.014536238849999 86.06863542272 L 32.571586739999994 86.06863542272" />
<path class="stroke" d="M 37.424268490559996 74.335473824 L 84.70461418439999 74.335473824" />
<path class="stroke" d="M 70.5205150944 69.542481632 L 70.5205150944 90.90072896000001 C 70.5205150944 91.65751808 69.82006138799998 92.16204224 68.24405044464 92.16204224 L 63.5160170148 92.16204224" />
<path class="stroke" d="M 47.055450875999995 77.530802144 C 49.1568 78.287590976 51.08303599728 79.380729536 52.65904634088 81.230655776" />
</svg>
