<?xml version="1.0" standalone="no"?>
<!DOCTYPE svg PUBLIC "-//W3C//DTD SVG 1.1//EN" "http://www.w3.org/Graphics/SVG/1.1/DTD/svg11.dtd">
<svg xmlns="http://www.w3.org/2000/svg" version="1.1" width="100%" height="100%">
<style type="text/css"><![CDATA[
  .stroke { fill:none; stroke:black; stroke-width:2 }
]]></style>
<path class="stroke" d="M 10.753978 8.5410054 L 10.753978 38.5094565" />
<path class="stroke" d="M 10.753978 8.5410054 L 31.063056 8.5410054 L 31.063056 38.5094565" />
<path class="stroke" d="M 10.753978 38.5094565 L 31.063056 38.5094565" />
<path class="stroke" d="M 20.791819 38.509485 L 20.791819 84.66086499999999" />
<path class="stroke" d="M 21.0252816 56.190884999999994 L 32.69715360000001 56.190884999999994" />
<path class="stroke" d="M 10.753978 49.89742 L 10.753978 87.65773499999999" />
<path class="stroke" d="M 7.0189242 89.15617 L 32.930594 81.36436499999999" />
<path class="stroke" d="M 38.361532595 17.1240864 L 87.972330755 17.1240864" />
<path class="stroke" d="M 63.350026334 8.36496312 L 63.350026334 27.494889599999997" />
<path class="stroke" d="M 42.938173631 27.494889599999997 L 83.57875679 27.494889599999997" />
<path class="stroke" d="M 36.74486408 35.837837 L 92.82702230000001 35.837837 L 84.6929744 43.297295" />
<path class="stroke" d="M 49.2697823738 45.4158416 L 78.607109054 45.4158416" />
<path class="stroke" d="M 63.706032379999996 45.4752472 L 63.706032379999996 57.0" />
<path class="stroke" d="M 44.8334055542 57.0 L 83.329703018 57.0" />
<path class="stroke" d="M 38.1847287656 65.56 L 90.49526606 65.56" />
<path class="stroke" d="M 41.249593917641 72.506989472 L 41.249593917641 87.19877292800001" />
<path class="stroke" d="M 41.249593917641 72.506989472 L 53.4972472484 72.506989472 L 53.4972472484 87.0575061632" />
<path class="stroke" d="M 41.249593917641 86.06863542272 L 53.4972472484 86.06863542272" />
<path class="stroke" d="M 56.7000172037696 74.335473824 L 87.905045361704 74.335473824" />
<path class="stroke" d="M 78.54353996230401 69.542481632 L 78.54353996230401 90.90072896000001 C 78.54353996230401 91.65751808 78.08124051607999 92.16204224 77.0410732934624 92.16204224 L 73.920571229768 92.16204224" />
<path class="stroke" d="M 63.056597578159995 77.530802144 C 64.443488 78.287590976 65.7148037582048 79.380729536 66.75497058498081 81.230655776" />
</svg>
