<?xml version="1.0" standalone="no"?>
<!DOCTYPE svg PUBLIC "-//W3C//DTD SVG 1.1//EN" "http://www.w3.org/Graphics/SVG/1.1/DTD/svg11.dtd">
<svg xmlns="http://www.w3.org/2000/svg" version="1.1" width="100%" height="100%">
<style type="text/css"><![CDATA[
  .stroke { fill:none; stroke:black; stroke-width:2 }
]]></style>
<path class="stroke" d="M 10.28079 11.18138412 L 10.28079 39.8880057" />
<path class="stroke" d="M 10.28079 11.18138412 L 29.492079999999998 11.18138412 L 29.492079999999998 39.8880057" />
<path class="stroke" d="M 10.28079 39.8880057 L 29.492079999999998 39.8880057" />
<path class="stroke" d="M 19.776045 39.888033 L 19.776045 84.096197" />
<path class="stroke" d="M 19.996888 56.824953 L 31.037848 56.824953" />
<path class="stroke" d="M 10.28079 50.796476000000006 L 10.28079 86.966883" />
<path class="stroke" d="M 6.747630999999999 88.40222600000001 L 31.258669999999995 80.938497" />
<path class="stroke" d="M 35.02043646 16.4781015 L 90.9795554 16.4781015" />
<path class="stroke" d="M 51.6569322 8.813866950000001 L 51.6569322 24.75547305" />
<path class="stroke" d="M 74.34306040000001 8.813866950000001 L 74.34306040000001 24.75547305" />
<path class="stroke" d="M 48.053465200000005 34.58557343857143 L 70.9128718 34.58557343857143" />
<path class="stroke" d="M 59.70297144 25.53889667142857 L 59.70297144 46.572419831428576" />
<path class="stroke" d="M 36.62376264 46.70366422857143 L 89.37623439999999 46.70366422857143" />
<path class="stroke" d="M 79.48515019999999 30.288402564285718 C 68.49504981999999 49.0602552 52.00990036 60.82093446428571 34.42574286 66.24894174285714" />
<path class="stroke" d="M 66.83999764 51.6263304 C 69.71999772 53.60192992571429 69.95999304 53.60192688 72.11999532 56.81227572857143" />
<path class="stroke" d="M 49.5438813216 60.730379211 L 49.5438813216 91.50012796799999" />
<path class="stroke" d="M 49.5438813216 60.730379211 L 76.30055279999999 60.730379211 L 76.30055279999999 91.50012796799999" />
<path class="stroke" d="M 49.699444536 75.27706390259999 L 76.14499118399999 75.27706390259999" />
<path class="stroke" d="M 49.5438813216 90.15700506479999 L 76.30055279999999 90.15700506479999" />
</svg>
