<?xml version="1.0" standalone="no"?>
<!DOCTYPE svg PUBLIC "-//W3C//DTD SVG 1.1//EN" "http://www.w3.org/Graphics/SVG/1.1/DTD/svg11.dtd">
<svg xmlns="http://www.w3.org/2000/svg" version="1.1" width="100%" height="100%">
<style type="text/css"><![CDATA[
  .stroke { fill:none; stroke:black; stroke-width:2 }
]]></style>
<path class="stroke" d="M 16.727349725 17.307695172000003 L 53.83935079999999 17.307695172000003" />
<path class="stroke" d="M 26.555415349999997 7.028074436 L 26.555415349999997 67.36498892" />
<path class="stroke" d="M 43.86456139999999 7.0280765612 L 43.86456139999999 67.5884537" />
<path class="stroke" d="M 26.70211355 33.6210279 L 43.71785855 33.6210279" />
<path class="stroke" d="M 26.848802449999997 49.93431104 L 43.71788645 49.93431104" />
<path class="stroke" d="M 15.7005344 68.03541867999999 L 55.45289150000001 68.03541867999999" />
<path class="stroke" d="M 26.65617 78.837434 C 24.830704 84.182358 20.65829 87.07488400000001 15.899046 88.6469064" />
<path class="stroke" d="M 47.779198 78.83737420000001 C 52.477837 81.99275708 50.06486520000001 80.24723993 53.483241400000004 83.5443219" />
<path class="stroke" d="M 64.13795598 20.474451180000003 L 64.10939640000001 59.8483274 C 60.48120773 80.9731524 60.48120773 80.2805342 56.42617402 89.28456736" />
<path class="stroke" d="M 64.13795598 20.474451180000003 L 85.8021904 20.474451180000003 L 85.8021904 86.0102154 C 85.8021904 88.0189776 85.1832087 89.776637 83.63576452000001 89.776637 L 81.9335773 89.776637" />
<path class="stroke" d="M 64.13795598 39.40181622 L 85.8021904 39.40181622" />
<path class="stroke" d="M 64.13795598 59.394888959999996 L 85.8021904 59.394888959999996" />
</svg>
