<?xml version="1.0" standalone="no"?>
<!DOCTYPE svg PUBLIC "-//W3C//DTD SVG 1.1//EN" "http://www.w3.org/Graphics/SVG/1.1/DTD/svg11.dtd">
<svg xmlns="http://www.w3.org/2000/svg" version="1.1" width="100%" height="100%">
<style type="text/css"><![CDATA[
  .stroke { fill:none; stroke:black; stroke-width:2 }
]]></style>
<path class="stroke" d="M 8.0924318 11.405405 L 35.034053 11.405405" />
<path class="stroke" d="M 5.05675643 29.891891 L 37.94324045 29.891891" />
<path class="stroke" d="M 21.499998440000002 31.513512 L 21.499998440000002 93.13513" />
<path class="stroke" d="M 10.87513484 45.13513 C 10.87513484 72.37837 10.622162509999999 84.05405 8.21891894 88.59459" />
<path class="stroke" d="M 33.136757599999996 46.108105 C 33.136757599999996 54.216213 33.136757599999996 68.16216 33.136757599999996 80.48648" />
<path class="stroke" d="M 44.458393560000005 40.51095 L 88.1372232 40.51095" />
<path class="stroke" d="M 65.99999728 13.675674 L 65.99999728 44.486485 C 63.3535114 67.83784 54.3113508 85.02702 39.97621572 90.86486" />
<path class="stroke" d="M 65.9007268 44.30657 C 70.26860956 70.0 77.01897840000001 85.47445 92.50510528000001 90.43795" />
<path class="stroke" d="M 85.4075638 49.027023 L 83.64324328000001 54.216217 C 77.24756380000001 76.59459 69.52864647999999 83.4054 54.3113508 91.189186" />
<path class="stroke" d="M 82.18101888000001 17.737225 C 85.55620160000001 19.197079 87.9386836 22.992699 89.12992460000001 27.080292" />
</svg>
