<?xml version="1.0" standalone="no"?>
<!DOCTYPE svg PUBLIC "-//W3C//DTD SVG 1.1//EN" "http://www.w3.org/Graphics/SVG/1.1/DTD/svg11.dtd">
<svg xmlns="http://www.w3.org/2000/svg" version="1.1" width="100%" height="100%">
<style type="text/css"><![CDATA[
  .stroke { fill:none; stroke:black; stroke-width:2 }
]]></style>
<path class="stroke" d="M 10.717296600000001 11.405405 L 40.422160999999996 11.405405" />
<path class="stroke" d="M 7.37026991 29.891891 L 43.62972665 29.891891" />
<path class="stroke" d="M 25.49999828 31.513512 L 25.49999828 93.13513" />
<path class="stroke" d="M 13.78540508 45.13513 C 13.78540508 72.37837 13.50648687 84.05405 10.85675678 88.59459" />
<path class="stroke" d="M 38.3302712 46.108105 C 38.3302712 54.216213 38.3302712 68.16216 38.3302712 80.48648" />
<path class="stroke" d="M 54.0732673 10.49505 L 82.6237639 10.49505 L 82.6237639 37.82178" />
<path class="stroke" d="M 54.233662960000004 37.9168 L 82.6237639 37.9168" />
<path class="stroke" d="M 54.08540434 11.0810795 L 54.233662960000004 81.18812 C 54.233662960000004 85.64356 55.998019 90.09901 58.72475332 90.09901 L 89.3603962 90.09901 C 91.76633380000001 90.09901 93.8514844 86.83168 93.8514844 82.67327 L 93.8514844 77.32674" />
</svg>
