<?xml version="1.0" standalone="no"?>
<!DOCTYPE svg PUBLIC "-//W3C//DTD SVG 1.1//EN" "http://www.w3.org/Graphics/SVG/1.1/DTD/svg11.dtd">
<svg xmlns="http://www.w3.org/2000/svg" version="1.1" width="100%" height="100%">
<style type="text/css"><![CDATA[
  .stroke { fill:none; stroke:black; stroke-width:2 }
]]></style>
<path class="stroke" d="M 20.50107998 8.518017750000002 C 18.23538696 13.116557499999999 13.04648933 19.168770333333335 8.231891419999998 21.382882" />
<path class="stroke" d="M 17.66972855 13.436936416666668 L 45.80948772 13.517031" />
<path class="stroke" d="M 25.22 13.626125416666666 C 29.1849623 16.351186916666666 29.718472 15.403399166666667 30.568106639999996 19.490989083333336" />
<path class="stroke" d="M 63.3686062 8.407542583333335 C 61.38612796 14.027979083333335 58.2708003 16.41240775 55.7218925 18.115570750000003" />
<path class="stroke" d="M 61.102919 13.687347416666666 L 86.5659428 13.815314416666666" />
<path class="stroke" d="M 70.4488981 14.027979083333335 C 72.72378090000001 16.84234191666667 72.4091808 16.274774333333333 74.61134754999999 19.112611666666666" />
<path class="stroke" d="M 5.2432423 36.547566509999996 L 94.164 29.954266" />
<path class="stroke" d="M 39.62162 24.41459406 L 39.9054 29.954266 C 40.326 41.981581 65.6677 56.857517 89.7476 57.083568 L 89.7476 52.471646" />
<path class="stroke" d="M 79.189186 38.36053982 C 67.51728 49.3026664 39.06803 52.729766399999995 7.837837 56.21134998" />
<path class="stroke" d="M 50.32432 23.01999914 C 56.162163 23.856756779999998 57.459457 24.41459406 60.702698 25.948648300000002" />
<path class="stroke" d="M 5.2432423 73.1837828 L 94.164 67.05048" />
<path class="stroke" d="M 39.62162 61.8972968 L 39.9054 67.05048 C 40.326 78.23868 65.6677 92.07676000000001 89.7476 92.28704 L 89.7476 87.99688" />
<path class="stroke" d="M 79.189186 74.8702696 C 67.51728 85.048992 39.06803 88.236992 7.837837 91.4756744" />
<path class="stroke" d="M 50.32432 60.5999992 C 56.162163 61.3783784 57.459457 61.8972968 60.702698 63.324324000000004" />
</svg>
