<?xml version="1.0" standalone="no"?>
<!DOCTYPE svg PUBLIC "-//W3C//DTD SVG 1.1//EN" "http://www.w3.org/Graphics/SVG/1.1/DTD/svg11.dtd">
<svg xmlns="http://www.w3.org/2000/svg" version="1.1" width="100%" height="100%">
<style type="text/css"><![CDATA[
  .stroke { fill:none; stroke:black; stroke-width:2 }
]]></style>
<path class="stroke" d="M 9.562042 8.0 L 90.43795 8.0" />
<path class="stroke" d="M 30.757086 18.643533599999998 C 26.656185 24.164064 19.715984 29.684585999999996 8.044165 34.277621999999994 C 18.033686 39.224004 26.130384 47.482673999999996 29.810684 54.283944" />
<path class="stroke" d="M 59.7792 18.643533599999998 C 55.6783 24.164064 48.7381 29.684585999999996 37.06628 34.277621999999994 C 47.0558 39.224004 55.1525 47.482673999999996 58.8328 54.283944" />
<path class="stroke" d="M 88.4858 18.643533599999998 C 84.3849 24.164064 77.4447 29.684585999999996 65.77288 34.277621999999994 C 75.7624 39.224004 83.8591 47.482673999999996 87.5394 54.283944" />
<path class="stroke" d="M 14.058434782608694 65.785468 L 85.37913043478261 65.785468" />
<path class="stroke" d="M 49.71891304347826 65.924288 L 49.71891304347826 86.328056" />
<path class="stroke" d="M 16.115765217391303 88.965284 L 85.37921739130434 83.829692" />
</svg>
