<?xml version="1.0" standalone="no"?>
<!DOCTYPE svg PUBLIC "-//W3C//DTD SVG 1.1//EN" "http://www.w3.org/Graphics/SVG/1.1/DTD/svg11.dtd">
<svg xmlns="http://www.w3.org/2000/svg" version="1.1" width="100%" height="100%">
<style type="text/css"><![CDATA[
  .stroke { fill:none; stroke:black; stroke-width:2 }
]]></style>
<path class="stroke" d="M 8.398539320000001 7.52 L 45.601457 7.52" />
<path class="stroke" d="M 18.14825956 17.524921583999998 C 16.261845100000002 22.71422016 13.06935264 27.903510839999996 7.7003159 32.220964679999994 C 12.29549556 36.870563759999996 16.01997664 44.63371356 17.71291464 51.026907359999996" />
<path class="stroke" d="M 31.498432 17.524921583999998 C 29.612018000000003 22.71422016 26.419526 27.903510839999996 21.0504888 32.220964679999994 C 25.645668 36.870563759999996 29.370150000000002 44.63371356 31.063088 51.026907359999996" />
<path class="stroke" d="M 44.703468 17.524921583999998 C 42.817054000000006 22.71422016 39.624562 27.903510839999996 34.2555248 32.220964679999994 C 38.850704 36.870563759999996 42.575186 44.63371356 44.268124 51.026907359999996" />
<path class="stroke" d="M 10.46688 61.83833991999999 L 43.2744 61.83833991999999" />
<path class="stroke" d="M 26.8707 61.96883072 L 26.8707 81.14837264" />
<path class="stroke" d="M 11.413252 83.62736695999999 L 43.27444 78.79991048" />
<path class="stroke" d="M 51.0839393 33.211678 L 89.2299225 30.875912 C 88.28102 64.16058 85.43430599999999 81.9708 84.4854009 85.76642 C 83.34671075 88.978096 81.06934150000001 89.85401 79.17152999999999 90.14598 L 77.2737185 89.85401" />
<path class="stroke" d="M 69.87225950000001 10.437956 C 67.594887 43.138683 60.193428000000004 76.423355 48.2372253 85.76642" />
</svg>
