<?xml version="1.0" standalone="no"?>
<!DOCTYPE svg PUBLIC "-//W3C//DTD SVG 1.1//EN" "http://www.w3.org/Graphics/SVG/1.1/DTD/svg11.dtd">
<svg xmlns="http://www.w3.org/2000/svg" version="1.1" width="100%" height="100%">
<style type="text/css"><![CDATA[
  .stroke { fill:none; stroke:black; stroke-width:2 }
]]></style>
<path class="stroke" d="M 13.581021719999999 9.854013 L 13.5583896 55.63759 C 10.683221219999998 80.20134 10.683221219999998 79.39597 7.469798279999999 89.865776" />
<path class="stroke" d="M 13.581021719999999 9.854013 L 30.7489056 9.854013 L 30.7489056 86.05839 C 30.7489056 88.39416 30.2583918 90.43795 29.032115279999996 90.43795 L 27.683212199999996 90.43795" />
<path class="stroke" d="M 13.581021719999999 31.862577 L 30.7489056 31.862577" />
<path class="stroke" d="M 13.581021719999999 55.110336 L 30.7489056 55.110336" />
<path class="stroke" d="M 43.02408646 8.0 L 93.9759085 8.0" />
<path class="stroke" d="M 56.37696418 18.643533599999998 C 53.79339655 24.164064 49.42106992 29.684585999999996 42.06782395 34.277621999999994 C 48.36122218 39.224004 53.46214192 47.482673999999996 55.780730919999996 54.283944" />
<path class="stroke" d="M 74.66089600000001 18.643533599999998 C 72.07732899999999 24.164064 67.705003 29.684585999999996 60.3517564 34.277621999999994 C 66.64515399999999 39.224004 71.746075 47.482673999999996 74.064664 54.283944" />
<path class="stroke" d="M 92.746054 18.643533599999998 C 90.162487 24.164064 85.790161 29.684585999999996 78.4369144 34.277621999999994 C 84.730312 39.224004 89.831233 47.482673999999996 92.149822 54.283944" />
<path class="stroke" d="M 49.22574283 65.71485152 L 87.58712890000001 65.71485152" />
<path class="stroke" d="M 68.102533 65.84554384 L 68.102533 91.2" />
<path class="stroke" d="M 43.42475197 91.2 L 93.7623763 91.2" />
</svg>
