<?xml version="1.0" standalone="no"?>
<!DOCTYPE svg PUBLIC "-//W3C//DTD SVG 1.1//EN" "http://www.w3.org/Graphics/SVG/1.1/DTD/svg11.dtd">
<svg xmlns="http://www.w3.org/2000/svg" version="1.1" width="100%" height="100%">
<style type="text/css"><![CDATA[
  .stroke { fill:none; stroke:black; stroke-width:2 }
]]></style>
<path class="stroke" d="M 10.437956 9.562042 L 10.437956 92.77372" />
<path class="stroke" d="M 10.437956 9.270073 L 90.14598 9.270073 L 90.14598 92.48175" />
<path class="stroke" d="M 10.729925 86.642334 L 90.14598 86.642334" />
<path class="stroke" d="M 18.2018912 30.839125600000003 L 81.79808 30.839125600000003" />
<path class="stroke" d="M 57.722432 17.9684528 L 57.722432 30.839112 C 58.025264 49.859052 69.457424 77.24503200000001 78.618272 77.387968 L 78.618272 70.094696" />
<path class="stroke" d="M 79.07252 44.353334759999996 C 72.712904 60.79913680000001 61.810663999999996 72.7402768 46.365871999999996 76.95899272" />
<path class="stroke" d="M 73.167224 18.8264972 C 75.741368 20.542586 77.40694400000001 22.044162 79.07252 24.832842" />
<path class="stroke" d="M 26.476496095999998 42.606855094 L 26.476496095999998 60.694655956000005" />
<path class="stroke" d="M 26.476496095999998 42.606855094 L 44.807590399999995 42.606855094 L 44.807590399999995 60.5207352664" />
<path class="stroke" d="M 26.476496095999998 59.30328626944 L 44.807590399999995 59.30328626944" />
<path class="stroke" d="M 23.953868096 72.072 L 46.63079456 67.86144008976001" />
</svg>
