<?xml version="1.0" standalone="no"?>
<!DOCTYPE svg PUBLIC "-//W3C//DTD SVG 1.1//EN" "http://www.w3.org/Graphics/SVG/1.1/DTD/svg11.dtd">
<svg xmlns="http://www.w3.org/2000/svg" version="1.1" width="100%" height="100%">
<style type="text/css"><![CDATA[
  .stroke { fill:none; stroke:black; stroke-width:2 }
]]></style>
<path class="stroke" d="M 50.2657424 5.4182477 L 50.2657424 20.5627736" />
<path class="stroke" d="M 14.038196948 11.5976132 L 14.038196948 21.2230766 M 13.96550948 20.57305415 L 86.7588032 20.542876099999997" />
<path class="stroke" d="M 86.7588032 11.4889823 L 86.7588032 21.357724400000002" />
<path class="stroke" d="M 28.706332874999998 29.3186104 C 24.195152025 38.9673742 14.739414525 49.0830262 5.023298775 53.5962122" />
<path class="stroke" d="M 7.365571125 30.952685799999998 C 16.908197625 38.111468 24.889247625 49.472170000000006 24.802457625 70.63720599999999 L 24.802457625 82.309152 C 25.149451799999998 88.378558 23.1542718 96.082106 16.214124299999998 95.848636 L 11.917360125 95.848636" />
<path class="stroke" d="M 21.939649874999997 50.3280984 C 22.026439874999998 61.6109524 13.264527375 71.4931344 5.023305375 74.6056484" />
<path class="stroke" d="M 46.6744515 32.5080289 C 48.6598526 33.15620304 50.843795 34.45255428 52.829196780000004 37.0452538" />
<path class="stroke" d="M 36.35036442 43.152902260000005 L 63.4510936 43.152902260000005" />
<path class="stroke" d="M 43.6580956 53.02048257999999 L 55.8795316 53.02048257999999" />
<path class="stroke" d="M 43.01657 62.87116796 L 56.553738 62.87116796" />
<path class="stroke" d="M 42.909674 73.2294741 L 42.909674 93.5193639" />
<path class="stroke" d="M 42.90964 72.9968366 L 56.660634 72.9968366 L 56.660634 93.295044" />
<path class="stroke" d="M 42.9100004 90.968003 L 56.5540644 90.96807700000001" />
<path class="stroke" d="M 73.04598511 54.978103000000004 L 94.24306419999999 54.978103000000004" />
<path class="stroke" d="M 83.4518233 35.3167877 L 83.4518233 57.5708003 C 82.1992687 76.8 77.9084569 88.1372403 70.73357644 92.1401408" />
<path class="stroke" d="M 83.4518233 57.7868618 C 85.57153111 76.8 88.8474454 88.251093 96.36277168 91.924083" />
<path class="stroke" d="M 91.35255328 38.1255465 C 92.9905096 39.205838459999995 94.1467141 42.01459726 94.72481635 45.039416079999995" />
</svg>
