<?xml version="1.0" standalone="no"?>
<!DOCTYPE svg PUBLIC "-//W3C//DTD SVG 1.1//EN" "http://www.w3.org/Graphics/SVG/1.1/DTD/svg11.dtd">
<svg xmlns="http://www.w3.org/2000/svg" version="1.1" width="100%" height="100%">
<style type="text/css"><![CDATA[
  .stroke { fill:none; stroke:black; stroke-width:2 }
]]></style>
<path class="stroke" d="M 26.129358000000003 5.83596 C 25.935882000000003 10.3575 24.29129 15.1945 21.630926 14.9842" />
<path class="stroke" d="M 15.681378 15.2997 L 15.96 54.216217" />
<path class="stroke" d="M 15.681378 15.2997 L 37.593064000000005 15.2997 L 37.593064000000005 88.4858 C 37.70397 92.3456 36.790824 94.795 35.126222 94.4795 L 33.384892 94.4795" />
<path class="stroke" d="M 16.10918812 28.270267 L 37.2940502 28.270267" />
<path class="stroke" d="M 16.25837762 40.918915 L 37.443242 40.918915" />
<path class="stroke" d="M 9.2464863 56.810806 L 37.741621 49.999996" />
<path class="stroke" d="M 44.156755700000005 46.43243 C 31.92324108 62.97297 23.12108036 70.43243 10.29081004 81.78378" />
<path class="stroke" d="M 52.433772 9.621452 L 95.23503500000001 9.621452" />
<path class="stroke" d="M 52.433772 9.62145 L 52.433772 91.3249 L 96.071004 91.3249" />
<path class="stroke" d="M 90.632537472 23.8992698 C 86.68648056 42.634096 72.16080024 68.80444 59.7702913608 78.497806" />
<path class="stroke" d="M 65.3410942248 29.85547276 C 72.48180216 36.270248 83.59677984000001 55.647800000000004 89.65582463999999 70.949568" />
</svg>
