<?xml version="1.0" standalone="no"?>
<!DOCTYPE svg PUBLIC "-//W3C//DTD SVG 1.1//EN" "http://www.w3.org/Graphics/SVG/1.1/DTD/svg11.dtd">
<svg xmlns="http://www.w3.org/2000/svg" version="1.1" width="100%" height="100%">
<style type="text/css"><![CDATA[
  .stroke { fill:none; stroke:black; stroke-width:2 }
]]></style>
<path class="stroke" d="M 16.126823854166666 9.562042 C 18.681569375 11.021896 21.23631125 14.817516 22.93947395833333 19.48905" />
<path class="stroke" d="M 7.1852178124999995 22.8707 L 31.029497916666667 22.8707" />
<path class="stroke" d="M 11.868915625 37.007298 L 26.345802291666665 37.007298" />
<path class="stroke" d="M 11.868915625 51.313866 L 26.345802291666665 51.313866" />
<path class="stroke" d="M 11.017335 64.45255 L 11.017335 85.76642" />
<path class="stroke" d="M 11.017335 64.16058 L 27.623173958333332 64.16058 L 27.623173958333332 85.76642" />
<path class="stroke" d="M 11.017335 85.76642 L 27.410279166666665 85.76642" />
<path class="stroke" d="M 38.588325 27.28706 L 96.20660000000001 27.28706" />
<path class="stroke" d="M 76.72713999999999 5.5205 L 76.72713999999999 26.9716 C 77.27392 58.5173 83.35701 94.4795 93.74609000000001 94.795 L 93.74609000000001 81.5458" />
<path class="stroke" d="M 83.903777 8.359617 C 87.594672 10.883257 89.850172 14.668757 91.695587 19.716057" />
<path class="stroke" d="M 42.43278956521739 47.79176 L 70.24786086956522 47.79176" />
<path class="stroke" d="M 56.340376086956525 48.044160000000005 L 56.340376086956525 85.14192" />
<path class="stroke" d="M 43.23514843478261 89.93688 L 70.2478947826087 80.59944" />
</svg>
