<?xml version="1.0" standalone="no"?>
<!DOCTYPE svg PUBLIC "-//W3C//DTD SVG 1.1//EN" "http://www.w3.org/Graphics/SVG/1.1/DTD/svg11.dtd">
<svg xmlns="http://www.w3.org/2000/svg" version="1.1" width="100%" height="100%">
<style type="text/css"><![CDATA[
  .stroke { fill:none; stroke:black; stroke-width:2 }
]]></style>
<path class="stroke" d="M 16.16718 5.563339964 C 13.117779 11.224289440000002 9.5951785 15.128422400000003 5.1261835 17.861290720000003" />
<path class="stroke" d="M 28.3014335 3.76017241964 C 32.7453 7.1087298464 34.78071 8.7374473368 38.779905 14.0636359136" />
<path class="stroke" d="M 24.282295 10.333072022 C 18.288595 22.435814892400003 13.01265 31.525657072000005 3.07571 36.210529992000005" />
<path class="stroke" d="M 24.138755 13.1754054432 C 31.4593275 17.616554701200002 33.4689 20.1035948204 38.636365 28.0976634848" />
<path class="stroke" d="M 13.17034 37.18659417200001 L 13.32809 56.70707333200001" />
<path class="stroke" d="M 13.17034 37.18659417200001 L 36.51414 37.18659417200001 L 36.67189 56.70707333200001" />
<path class="stroke" d="M 13.32809 56.70707333200001 L 36.67189 56.70707333200001" />
<path class="stroke" d="M 53.7051072 7.89197052 C 52.58394048 15.03941516 49.59416 22.186859800000004 45.856933760000004 27.150364080000003" />
<path class="stroke" d="M 50.90219008 17.81897568 L 88.46131199999999 17.81897568 C 88.08758784 23.3781008 86.218976 27.150364080000003 82.668608 30.922626" />
<path class="stroke" d="M 68.28029056 20.99562016 C 68.28029056 42.43795136 56.694016000000005 54.16404000000001 42.30656832 61.2992664" />
<path class="stroke" d="M 68.09342720000001 32.908026760000006 C 72.39124032000001 43.43065276 78.7445216 54.548899600000006 93.88028800000001 61.2992664" />
<path class="stroke" d="M 17.4453 74.659296 C 16.6042 80.14191600000001 14.5012 83.75079600000001 10.8207 87.776004" />
<path class="stroke" d="M 33.21814 71.328078 L 33.21814 89.025252 C 33.21814 90.899058 35.11094 92.14824 37.95004 92.14824 L 72.01944 92.14824 C 74.64824 92.14824 76.96164 90.69082800000001 77.06674 88.40062800000001 L 77.06674 84.86118" />
<path class="stroke" d="M 45.2056 71.3280912 C 50.6735 74.5205112 54.2487 77.9211612 57.5084 82.3627632" />
<path class="stroke" d="M 77.0667 71.53630799999999 C 83.6913 75.422652 87.7923 79.30926 91.8932 84.65301600000001" />
</svg>
