<?xml version="1.0" standalone="no"?>
<!DOCTYPE svg PUBLIC "-//W3C//DTD SVG 1.1//EN" "http://www.w3.org/Graphics/SVG/1.1/DTD/svg11.dtd">
<svg xmlns="http://www.w3.org/2000/svg" version="1.1" width="100%" height="100%">
<style type="text/css"><![CDATA[
  .stroke { fill:none; stroke:black; stroke-width:2 }
]]></style>
<path class="stroke" d="M 26.459999999999997 6.5579269155999995 L 26.459999999999997 9.9684963568" />
<path class="stroke" d="M 11.7042036804 10.1615471412 L 41.524815780000004 10.1615471412" />
<path class="stroke" d="M 14.1763784148 12.92861338 C 17.266597362 15.2452258784 19.5842621016 18.269692208 20.8203489396 21.229809672" />
<path class="stroke" d="M 39.207149982000004 12.413809672 C 35.498889468 14.794773239999998 32.40867105 18.462744976 31.636115783999998 22.259414883999998" />
<path class="stroke" d="M 5.9872989456 22.902918967999998 L 46.62367894799999 22.902918967999998" />
<path class="stroke" d="M 16.840466932800002 29.5835030748 L 16.840466932800002 47.95722444 C 16.840466932800002 52.030891908 16.840466932800002 53.739880119999995 16.840466932800002 57.691922237600004" />
<path class="stroke" d="M 16.840466932800002 29.5835030748 L 38.128642944 29.5835030748 L 38.128642944 56.986597044 C 38.128642944 57.826539935999996 37.520405831999994 58.56148681999999 35.9998229472 58.56148681999999 L 34.327183127999994 58.56148681999999" />
<path class="stroke" d="M 16.840466932800002 37.4977826892 L 38.128642944 37.4977826892" />
<path class="stroke" d="M 16.840466932800002 45.857676825599995 L 38.128642944 45.857676825599995" />
<path class="stroke" d="M 55.36276 11.22712306 L 91.32496 11.22712306" />
<path class="stroke" d="M 55.36276 7.5678178 L 55.36276 17.81386 L 88.17036 17.81386 L 88.17036 26.230297999999998" />
<path class="stroke" d="M 55.36276 26.230297999999998 L 88.17036 26.230297999999998" />
<path class="stroke" d="M 55.36276 26.230297999999998 L 55.36276 55.68768599999999 C 55.36276 57.273406 56.94006 58.85906799999999 60.09466 58.798109999999994 L 89.74756 58.798109999999994 C 92.48166 58.798109999999994 93.95366 57.700343999999994 94.16396 55.870675999999996 L 94.16396 53.492038" />
<path class="stroke" d="M 55.36276 33.914834 L 83.43846 33.914834" />
<path class="stroke" d="M 55.67822 41.599312000000005 L 83.75392 41.599312000000005" />
<path class="stroke" d="M 55.67822 49.100974 L 83.75392 49.100974" />
<path class="stroke" d="M 13.855022900000002 66.73540678 L 89.9459303 66.73540678" />
<path class="stroke" d="M 28.53923465 66.73540678 L 28.53923465 88.9354053" />
<path class="stroke" d="M 30.141148490000003 74.06459285 L 73.6598075 74.06459285" />
<path class="stroke" d="M 30.40813196 81.18133972 L 73.39281845000001 81.18133972" />
<path class="stroke" d="M 15.72392207 90.3162675 L 90.74688350000001 85.9612417" />
<path class="stroke" d="M 74.9947295 67.05406706 L 74.9947295 96.5832535" />
</svg>
