<?xml version="1.0" standalone="no"?>
<!DOCTYPE svg PUBLIC "-//W3C//DTD SVG 1.1//EN" "http://www.w3.org/Graphics/SVG/1.1/DTD/svg11.dtd">
<svg xmlns="http://www.w3.org/2000/svg" version="1.1" width="100%" height="100%">
<style type="text/css"><![CDATA[
  .stroke { fill:none; stroke:black; stroke-width:2 }
]]></style>
<path class="stroke" d="M 13.407900545454545 24.5209402 C 12.893859 32.28010414999999 11.865777545454547 34.9659679 10.837696090909093 39.740837" />
<path class="stroke" d="M 31.43114181818182 22.1039597 C 29.972997 27.183167949999998 28.02880390909091 31.41583975 25.355536363636368 34.519804199999996" />
<path class="stroke" d="M 20.008999636363637 8.841584450000001 L 20.008999636363637 54.836631499999996 C 20.008999636363637 70.92079174999999 12.77599090909091 81.36436499999999 7.857785454545455 85.876238" />
<path class="stroke" d="M 19.765977545454547 60.198023 C 23.897389090909094 65.2772265 27.785778545454548 71.4851535 29.486948727272726 78.82178499999999" />
<path class="stroke" d="M 37.477909 13.139728996551725 L 60.42216159 12.940932046344827 C 54.20446032 33.243031833103444 49.452683 43.83570175862069 32.1813867 54.81239617241379" />
<path class="stroke" d="M 38.62930734 26.83642134827586 C 41.00888834 29.3619793137931 42.69767034 32.178994003448274 44.38645307 35.28746541724138" />
<path class="stroke" d="M 83.7650044 14.305394229310345 L 76.04810578 22.82801378793103" />
<path class="stroke" d="M 66.81459054999999 13.240539766551723 C 73.3393269 34.22268947689655 80.003694 46.65271644827586 94.81860599999999 55.39530962068965" />
<path class="stroke" d="M 92.0551983 27.419131562068962 L 83.0740813 38.201644665517236" />
<path class="stroke" d="M 55.18983695 38.912702455 L 70.10439592099999 38.912702455" />
<path class="stroke" d="M 50.288972387 52.402971924999996 L 50.502051941000005 69.09432491499999" />
<path class="stroke" d="M 50.715134123 51.71702596 L 75.00637606999999 51.71702596 L 75.00637606999999 69.09432491499999" />
<path class="stroke" d="M 51.141295201999995 68.86567508499999 L 75.21946088 68.86567508499999" />
<path class="stroke" d="M 55.615997372 75.26783507500001 C 58.301543345 80.20797805 59.785024379 82.68873909999999 58.59913478 88.75810525" />
<path class="stroke" d="M 72.37465745 75.15890199999998 C 71.549107385 81.35994099999999 71.13633071 83.35314238 68.866069838 89.33272255" />
<path class="stroke" d="M 37.315912145 90.78868149999998 L 89.68408457000001 90.78868149999998" />
</svg>
