<?xml version="1.0" standalone="no"?>
<!DOCTYPE svg PUBLIC "-//W3C//DTD SVG 1.1//EN" "http://www.w3.org/Graphics/SVG/1.1/DTD/svg11.dtd">
<svg xmlns="http://www.w3.org/2000/svg" version="1.1" width="100%" height="100%">
<style type="text/css"><![CDATA[
  .stroke { fill:none; stroke:black; stroke-width:2 }
]]></style>
<path class="stroke" d="M 29.56890256 9.37080116 C 24.194304640000002 23.96350194 18.130656104 35.40875828 10.551094136 42.27590934" />
<path class="stroke" d="M 28.957989656 12.988516240000001 C 35.73310928 21.147368059999998 34.261707808 18.8733741 40.88219976 29.86889668" />
<path class="stroke" d="M 19.873430819499998 38.01891842 C 26.216727289999998 38.01891842 34.837108081 37.78864838 39.716565669999994 38.01891842" />
<path class="stroke" d="M 9.983267575 57.3297029 L 49.75569297 57.3297029" />
<path class="stroke" d="M 29.868208969999998 39.10583896 L 29.868208969999998 72.51386371999999" />
<path class="stroke" d="M 19.218812338 72.51386371999999 L 19.218812338 92.97029710000001" />
<path class="stroke" d="M 19.218812338 72.51386371999999 L 40.669109755 72.51386371999999 L 40.669109755 92.97029710000001" />
<path class="stroke" d="M 19.218812338 92.97029710000001 L 40.52014921 92.97029710000001" />
<path class="stroke" d="M 70.087588 10.4160584 L 70.087588 20.693429599999998" />
<path class="stroke" d="M 47.4890503 20.927004800000002 L 47.4890503 32.138684" />
<path class="stroke" d="M 47.4890503 20.927004800000002 L 92.686126 20.927004800000002 L 92.686126 32.138684" />
<path class="stroke" d="M 57.10852816 32.76344 L 57.10852816 90.07920800000001" />
<path class="stroke" d="M 57.10852816 32.76344 L 82.75897936 32.76344 L 82.75897936 53.962160000000004" />
<path class="stroke" d="M 57.27505936 53.962160000000004 L 82.75897936 53.962160000000004" />
<path class="stroke" d="M 57.10852816 69.8612 L 84.558021088 69.8612 L 84.558021088 90.07920800000001" />
<path class="stroke" d="M 57.112474432 90.07920800000001 L 84.558021088 90.07920800000001" />
</svg>
