<?xml version="1.0" standalone="no"?>
<!DOCTYPE svg PUBLIC "-//W3C//DTD SVG 1.1//EN" "http://www.w3.org/Graphics/SVG/1.1/DTD/svg11.dtd">
<svg xmlns="http://www.w3.org/2000/svg" version="1.1" width="100%" height="100%">
<style type="text/css"><![CDATA[
  .stroke { fill:none; stroke:black; stroke-width:2 }
]]></style>
<path class="stroke" d="M 52.756251600000006 6.092700300000001 L 52.756251600000006 19.7948904" />
<path class="stroke" d="M 17.822547057 11.6835548 L 17.822547057 20.3923074 M 17.752455570000002 19.804191850000002 L 87.94598880000001 19.7768879" />
<path class="stroke" d="M 87.94598880000001 11.585269700000001 L 87.94598880000001 20.514131600000002" />
<path class="stroke" d="M 24.6971576 28.031552519999998 C 29.744525600000003 30.34066452 33.025245600000005 32.309144520000004 36.053645599999996 34.84541688" />
<path class="stroke" d="M 44.634136 27.0094632 C 49.429096 29.20506 52.205016 31.059924 55.738136 33.936899999999994" />
<path class="stroke" d="M 85.012592 26.6687664 C 81.731872 29.6971584 77.441632 32.3848824 72.141952 35.072570400000004" />
<path class="stroke" d="M 18.905107 36.969925889600006 L 90.14598 36.969925889600006" />
<path class="stroke" d="M 18.613138 36.969925889600006 L 18.613138 51.872582395200006 C 18.613138 82.29033377600001 14.817516 86.98568971520001 10.198019 93.077227792" />
<path class="stroke" d="M 26.454256 44.706951597439996 L 54.971632 44.706951597439996" />
<path class="stroke" d="M 40.839141600000005 44.898861168272 L 40.839141600000005 53.34218151867201" />
<path class="stroke" d="M 22.9211336 53.53406310752001 L 58.2523648 53.53406310752001" />
<path class="stroke" d="M 31.249200000000002 53.72600431016001 L 31.249200000000002 92.10481916767999" />
<path class="stroke" d="M 31.5016 65.81524030736 L 49.67192 65.81524030736" />
<path class="stroke" d="M 31.5016 78.0964783376 L 49.67192 78.0964783376" />
<path class="stroke" d="M 23.425864 93.639922976 L 57.74768 88.2668954048" />
<path class="stroke" d="M 49.92424 53.725969028528006 L 49.92424 95.75077131272" />
<path class="stroke" d="M 71.006733664 44.49321182096 C 69.747326888 52.262639009168 66.72475299999999 61.47754006112 62.064950176 66.71738677116801" />
<path class="stroke" d="M 66.598811856 60.212750126192 L 87.88277064 60.212750126192" />
<path class="stroke" d="M 78.05940720000001 60.393435271616 C 76.54811856 75.75160754412799 70.125149048 88.58019386374401 60.0499012 93.09730364192" />
<path class="stroke" d="M 66.598811856 64.910544441488 C 69.369504304 75.93229086464001 82.84514607999999 93.27798817904001 90.27564432 93.27798817904001" />
</svg>
