<?xml version="1.0" standalone="no"?>
<!DOCTYPE svg PUBLIC "-//W3C//DTD SVG 1.1//EN" "http://www.w3.org/Graphics/SVG/1.1/DTD/svg11.dtd">
<svg xmlns="http://www.w3.org/2000/svg" version="1.1" width="100%" height="100%">
<style type="text/css"><![CDATA[
  .stroke { fill:none; stroke:black; stroke-width:2 }
]]></style>
<path class="stroke" d="M 49.6845 8.26531383 C 38.46715 19.50875688 27.911108 28.7559183 14.18848 33.906281699999994" />
<path class="stroke" d="M 49.6845 8.26531383 C 60.36496 19.32481641 70.248405 28.1901279 84.55497 33.70837602" />
<path class="stroke" d="M 35.2356 29.2576629 L 64.45026 29.2576629" />
<path class="stroke" d="M 22.670155 38.85392685 L 75.13089 38.85392685 C 71.33527 46.7634162 60.65693 54.457659750000005 52.48175 59.240140950000004" />
<path class="stroke" d="M 15.88889016 76.82500104 C 15.400001759999999 80.4 13.99439624 83.22146864999999 10.755556239999999 85.60000104" />
<path class="stroke" d="M 29.33333568 66.64166775 L 29.2319632 91.878558 C 29.2319632 92.985807 30.8976272 93.72396 33.3960352 93.72396 L 63.377107200000005 93.72396 C 65.6904512 93.72396 67.7262432 92.862762 67.8187312 91.509462 L 67.8187312 89.41797" />
<path class="stroke" d="M 43.266667840000004 62.85000078 C 49.8666696 64.47500052 51.8870264 65.64208449 54.7555624 68.2666671" />
<path class="stroke" d="M 68.93333568 77.80000104 C 74.76297840000001 80.09647587 77.791208 82.11732756 81.40000880000001 85.2750039" />
</svg>
