<?xml version="1.0" standalone="no"?>
<!DOCTYPE svg PUBLIC "-//W3C//DTD SVG 1.1//EN" "http://www.w3.org/Graphics/SVG/1.1/DTD/svg11.dtd">
<svg xmlns="http://www.w3.org/2000/svg" version="1.1" width="100%" height="100%">
<style type="text/css"><![CDATA[
  .stroke { fill:none; stroke:black; stroke-width:2 }
]]></style>
<path class="stroke" d="M 13.154171785714285 14.059406 C 16.654879285714284 16.138615 20.15558785714286 19.108912 23.01980357142857 22.673267" />
<path class="stroke" d="M 10.926448928571428 38.118813 C 14.108912142857141 39.90099 17.927864999999997 42.574257 20.473834285714286 46.138615" />
<path class="stroke" d="M 10.608203571428572 85.64356 C 11.321795357142857 87.422676 13.310014285714285 89.896904 15.629600357142856 89.896904 C 17.949189642857142 89.896904 21.110325 76.73267 23.33804892857143 69.60396" />
<path class="stroke" d="M 34.712554204 10.464962749999998 L 34.712554204 46.295618499999996" />
<path class="stroke" d="M 34.712554204 10.464962749999998 L 73.66612959999999 10.464962749999998 L 73.66612959999999 45.951093900000004" />
<path class="stroke" d="M 34.712554204 43.53941344 L 73.66612959999999 43.53941344" />
<path class="stroke" d="M 46.4562033 48.87664142 L 46.4562033 62.72481524 C 46.4562033 74.9350343 40.0036493 86.99634764 23.8722626 90.1233545" />
<path class="stroke" d="M 61.0985379 48.72773723 L 61.0985379 83.8693418 C 61.0985379 87.5919695 64.3248183 89.8255451 67.79926555 89.8255451 L 87.156925 89.8255451 C 89.8868615 89.9744498 91.8722575 88.7832071 91.8722575 87.1452503 L 91.8722575 84.31605794000001" />
</svg>
