<?xml version="1.0" standalone="no"?>
<!DOCTYPE svg PUBLIC "-//W3C//DTD SVG 1.1//EN" "http://www.w3.org/Graphics/SVG/1.1/DTD/svg11.dtd">
<svg xmlns="http://www.w3.org/2000/svg" version="1.1" width="100%" height="100%">
<style type="text/css"><![CDATA[
  .stroke { fill:none; stroke:black; stroke-width:2 }
]]></style>
<path class="stroke" d="M 17.107562400000003 11.394159 L 17.107562400000003 61.87591199999999" />
<path class="stroke" d="M 5.03795544 32.445251999999996 L 5.03795544 64.1240845 M 5.03795544 61.87591199999999 L 28.862770000000005 61.87591199999999" />
<path class="stroke" d="M 28.862770000000005 32.240873 L 28.862770000000005 64.3284628" />
<path class="stroke" d="M 46.3895284 9.4764385 C 45.8990188 12.980087 45.712827759999996 14.994076 43.750784319999994 17.329842" />
<path class="stroke" d="M 34.5151834 17.015707 L 34.5151834 66.96335" />
<path class="stroke" d="M 34.25130748 17.43295 L 73.89884799999999 17.43295 L 73.89884799999999 43.333332" />
<path class="stroke" d="M 35.0429302 30.583939 L 73.6413796 30.583939" />
<path class="stroke" d="M 34.77905848 43.430653 L 73.89884799999999 43.430653" />
<path class="stroke" d="M 35.0429302 55.10949 L 86.7623056 55.10949" />
<path class="stroke" d="M 34.77905848 66.20438 L 87.15861759999999 66.20438 L 85.6137904 80.57471 C 85.0988536 85.01916 83.68275639999999 90.22988 80.7218362 90.22988 C 79.0482706 90.22988 78.27585615999999 90.22988 77.11724079999999 90.22988" />
<path class="stroke" d="M 31.54482748 74.137924 C 31.28735488 76.74329 29.999999439999996 80.881226 28.455171399999998 83.48659" />
<path class="stroke" d="M 43.77471088 74.137924 C 44.80459708 76.28352 45.705745719999996 79.042145 45.834481600000004 82.26054" />
<path class="stroke" d="M 59.22298624 74.597694 C 60.639078399999995 76.74329 61.54022536 79.042145 62.18390812 81.800766" />
<path class="stroke" d="M 73.2551728 74.44444 C 75.0574684 75.82375 76.47355719999999 77.816086 77.6321776 80.72797" />
</svg>
