<?xml version="1.0" standalone="no"?>
<!DOCTYPE svg PUBLIC "-//W3C//DTD SVG 1.1//EN" "http://www.w3.org/Graphics/SVG/1.1/DTD/svg11.dtd">
<svg xmlns="http://www.w3.org/2000/svg" version="1.1" width="100%" height="100%">
<style type="text/css"><![CDATA[
  .stroke { fill:none; stroke:black; stroke-width:2 }
]]></style>
<path class="stroke" d="M 24.776040000000002 5.5205 C 20.018976 17.8233 14.27763 30.7571 6.8138802 40.5363" />
<path class="stroke" d="M 24.776040000000002 5.83596 C 29.533104000000005 11.8296 32.813862 18.4543 36.34071 25.0789" />
<path class="stroke" d="M 12.473177999999999 33.59624 L 34.372224 33.59624" />
<path class="stroke" d="M 8.290221299999999 51.57724 L 37.32490386 51.57724" />
<path class="stroke" d="M 24.28389354 33.9117 L 24.28389354 88.1703" />
<path class="stroke" d="M 8.0441664 61.672 C 11.406918000000001 65.878 14.031540000000001 70.3996 16.656162000000002 75.2366" />
<path class="stroke" d="M 36.586800000000004 61.6719 C 34.782348 67.4553 32.239704 72.2923 28.958946000000005 77.1294" />
<path class="stroke" d="M 9.274444800000001 94.4795 L 36.34071 83.7539" />
<path class="stroke" d="M 45.6674633 22.44019 L 89.1459295 22.44019" />
<path class="stroke" d="M 47.610442 37.38167 L 47.610442 93.84857" />
<path class="stroke" d="M 47.610442 37.38167 L 87.184587 37.38167 L 87.184587 88.17037 C 87.38959700000001 91.53527 85.95426700000002 93.638275 83.903777 93.53307 L 82.058362 93.53307" />
<path class="stroke" d="M 47.8154325 52.2082 L 86.9794925 51.8927" />
<path class="stroke" d="M 47.6104225 67.6656 L 86.9795575 67.6656" />
<path class="stroke" d="M 67.5 6.78233 L 67.5 93.8486" />
<path class="stroke" d="M 78.696172 6.9377995 C 81.3618181 9.040859 82.87740099999999 12.157021 84.107656 15.83732" />
</svg>
