<?xml version="1.0" standalone="no"?>
<!DOCTYPE svg PUBLIC "-//W3C//DTD SVG 1.1//EN" "http://www.w3.org/Graphics/SVG/1.1/DTD/svg11.dtd">
<svg xmlns="http://www.w3.org/2000/svg" version="1.1" width="100%" height="100%">
<style type="text/css"><![CDATA[
  .stroke { fill:none; stroke:black; stroke-width:2 }
]]></style>
<path class="stroke" d="M 19.7518232 10.985401 L 80.248168 10.985401" />
<path class="stroke" d="M 37.737224 5.875911299999999 L 37.737224 16.5036487" />
<path class="stroke" d="M 62.26276800000001 5.875911299999999 L 62.26276800000001 16.5036487" />
<path class="stroke" d="M 18.613138 22.843065160000002 L 18.613138 92.44306342" />
<path class="stroke" d="M 18.905107 22.843065160000002 L 81.678825 22.843065160000002 L 81.678825 92.95108948" />
<path class="stroke" d="M 18.613138 88.8868549 L 81.678825 88.8868549" />
<path class="stroke" d="M 34.87299272 34.451532232000005 L 65.127002 34.451532232000005" />
<path class="stroke" d="M 50.2049498 28.355181232 L 50.2049498 41.963706615999996" />
<path class="stroke" d="M 27.93576572 42.18257008 L 71.8715288 42.18257008" />
<path class="stroke" d="M 33.341926040000004 50.30610808 L 33.341926040000004 62.714144128" />
<path class="stroke" d="M 33.341926040000004 50.306138008 L 66.86240269999999 50.306138008 L 66.86240269999999 62.714173360000004" />
<path class="stroke" d="M 33.341926040000004 62.7141664 L 66.86240269999999 62.7141664" />
<path class="stroke" d="M 45.8477618 65.54291015199999 C 42.5810192 71.4360556 36.9927002 75.70350304 30.82627664 78.5484622" />
<path class="stroke" d="M 49.325546 65.5429192 L 49.325546 84.23839096" />
<path class="stroke" d="M 72.25693316 63.30758992 C 69.75182000000001 67.37182624 67.24671476 69.81036246400001 62.814593 72.4521112" />
<path class="stroke" d="M 52.0233554 67.57503736000001 C 58.575182 71.4360556 64.5489014 76.10992528 68.4029186 80.17415812" />
</svg>
