<?xml version="1.0" standalone="no"?>
<!DOCTYPE svg PUBLIC "-//W3C//DTD SVG 1.1//EN" "http://www.w3.org/Graphics/SVG/1.1/DTD/svg11.dtd">
<svg xmlns="http://www.w3.org/2000/svg" version="1.1" width="100%" height="100%">
<style type="text/css"><![CDATA[
  .stroke { fill:none; stroke:black; stroke-width:2 }
]]></style>
<path class="stroke" d="M 12.189779 13.3394155 L 87.81021 13.3394155" />
<path class="stroke" d="M 34.67153 7.13503515 L 34.67153 20.040144849999997" />
<path class="stroke" d="M 65.32846 7.13503515 L 65.32846 20.040144849999997" />
<path class="stroke" d="M 20.189290999999997 27.1135768 L 20.189290999999997 52.7665636" />
<path class="stroke" d="M 20.189290999999997 27.1135768 L 78.958931 27.1135768 L 78.958931 52.7665636" />
<path class="stroke" d="M 20.757056000000002 40.299667240000005 L 78.391166 40.299667240000005" />
<path class="stroke" d="M 20.189290999999997 52.7665636 L 78.958931 52.7665636" />
<path class="stroke" d="M 12.523658000000001 63.075728 L 12.523658000000001 92.32493600000001" />
<path class="stroke" d="M 12.523658000000001 63.075728 L 87.19241 63.075728 L 87.19241 87.769724 C 87.28708999999999 90.327048 85.3943 91.92532800000001 83.21765 91.845452 L 78.95903 91.845452" />
<path class="stroke" d="M 49.432190000000006 27.5930608 L 49.432190000000006 77.9400968" />
<path class="stroke" d="M 27.57101 83.93369240000001 C 40.63091 79.1387764 55.39424 76.7412804 69.02204 75.7823124" />
<path class="stroke" d="M 64.19561000000002 70.26813240000001 C 68.6435 74.1040804 71.10419 78.1797324 72.14513 82.7350204" />
</svg>
