<?xml version="1.0" standalone="no"?>
<!DOCTYPE svg PUBLIC "-//W3C//DTD SVG 1.1//EN" "http://www.w3.org/Graphics/SVG/1.1/DTD/svg11.dtd">
<svg xmlns="http://www.w3.org/2000/svg" version="1.1" width="100%" height="100%">
<style type="text/css"><![CDATA[
  .stroke { fill:none; stroke:black; stroke-width:2 }
]]></style>
<path class="stroke" d="M 11.313868 17.445253 C 15.401459 18.029196 19.48905 20.364962 22.408756 24.160583" />
<path class="stroke" d="M 9.270073 47.226276 C 13.357662 47.226276 18.321167 46.934303 23.86861 43.138683 C 16.27737 53.357662 14.233576 58.321167 15.109488 60.9489 C 15.69343 63.284668 20.948904 65.62044 22.116787 68.832115 C 23.576641 72.33576 18.129246 80.26506 11.021896 83.722626" />
<path class="stroke" d="M 11.021896 84.014595 C 39.692924 81.65476 40.51095 91.313866 90.43795 90.14598" />
<path class="stroke" d="M 37.65474309 15.271349935 L 91.34524909999999 15.271349935" />
<path class="stroke" d="M 53.6167863 10.493977065500001 L 53.6167863 20.430911534499998" />
<path class="stroke" d="M 75.3832066 10.493977065500001 L 75.3832066 20.430911534499998" />
<path class="stroke" d="M 43.33439661 25.877454136 L 43.33439661 45.630253972" />
<path class="stroke" d="M 43.33439661 25.877454136 L 85.06084101 25.877454136 L 85.06084101 45.630253972" />
<path class="stroke" d="M 43.73750976 36.0307437748 L 84.65772786 36.0307437748" />
<path class="stroke" d="M 43.33439661 45.630253972 L 85.06084101 45.630253972" />
<path class="stroke" d="M 37.89179718 53.56831056 L 37.89179718 76.09020072000001" />
<path class="stroke" d="M 37.89179718 53.56831056 L 90.90661109999999 53.56831056 L 90.90661109999999 72.58268748 C 90.97383389999999 74.55182696 89.629953 75.78250256000001 88.0845315 75.72099804 L 85.06091129999999 75.72099804" />
<path class="stroke" d="M 64.09685490000001 26.246656816 L 64.09685490000001 65.013874536" />
<path class="stroke" d="M 48.575417099999996 69.628943148 C 57.8479461 65.936857828 68.3299104 64.09078590799999 78.0056484 63.352380548" />
<path class="stroke" d="M 74.57888310000001 59.10646194800001 C 77.736885 62.060141908 79.48397489999999 65.198393948 80.2230423 68.70596570800001" />
</svg>
