<?xml version="1.0" standalone="no"?>
<!DOCTYPE svg PUBLIC "-//W3C//DTD SVG 1.1//EN" "http://www.w3.org/Graphics/SVG/1.1/DTD/svg11.dtd">
<svg xmlns="http://www.w3.org/2000/svg" version="1.1" width="100%" height="100%">
<style type="text/css"><![CDATA[
  .stroke { fill:none; stroke:black; stroke-width:2 }
]]></style>
<path class="stroke" d="M 15.057913714285712 18.864864 C 17.858478857142856 20.944073 18.60437914285714 20.81402 20.895750857142854 24.378376" />
<path class="stroke" d="M 8.741159142857143 38.118813 C 11.287129714285713 39.90099 12.743146285714285 40.5978 14.779921714285713 44.16216" />
<path class="stroke" d="M 8.486562857142857 85.64356 C 9.057436285714285 87.422676 10.648011428571428 89.896904 12.503680285714285 89.896904 C 13.389959999999999 74.32432 18.55758857142857 62.966553 20.339767714285713 55.837837" />
<path class="stroke" d="M 36.07891868 13.17837787 C 36.00732964 40.408378000000006 36.96107996 77.68648150000001 32.55026948 89.9459395" />
<path class="stroke" d="M 53.94270160000001 13.4702692 L 53.94270160000001 35.6020918" />
<path class="stroke" d="M 36.00732964 35.6540533 L 53.950784760000005 35.6540533" />
<path class="stroke" d="M 70.6125616 13.83246097 L 70.82617680000001 35.884816 L 88.56756380000002 35.945944" />
<path class="stroke" d="M 89.44972440000001 13.4702692 L 89.6702654 89.9459395" />
<path class="stroke" d="M 36.43455528 51.7081066 L 88.56756380000002 51.7081066" />
<path class="stroke" d="M 35.580104 67.762159 L 53.94270160000001 67.762159 L 53.94270160000001 89.9459395" />
<path class="stroke" d="M 69.38053624 66.8864815 L 88.3470228 66.8864815" />
<path class="stroke" d="M 68.718918 66.8864815 L 68.718918 89.9459395" />
</svg>
