<?xml version="1.0" standalone="no"?>
<!DOCTYPE svg PUBLIC "-//W3C//DTD SVG 1.1//EN" "http://www.w3.org/Graphics/SVG/1.1/DTD/svg11.dtd">
<svg xmlns="http://www.w3.org/2000/svg" version="1.1" width="100%" height="100%">
<style type="text/css"><![CDATA[
  .stroke { fill:none; stroke:black; stroke-width:2 }
]]></style>
<path class="stroke" d="M 8.003300000000001 33.069305 L 25.825083333333335 30.9901" />
<path class="stroke" d="M 19.389438333333334 9.60396 L 19.389438333333334 84.15842 C 19.389438333333334 87.42574 17.161715833333336 90.09901 14.191419166666668 90.09901" />
<path class="stroke" d="M 8.498349166666667 63.36634 L 24.09241 46.435642" />
<path class="stroke" d="M 62.5 4.227158000000003 L 62.5 20.0" />
<path class="stroke" d="M 30.625 20.0 L 94.375 20.0" />
<path class="stroke" d="M 50.19715 36.293371 L 50.19715 71.84544 C 50.433775000000004 85.24183 41.206599999999995 95.32596 30.3233425 95.47317" />
<path class="stroke" d="M 50.19715 36.072556 L 74.80285 36.072556 L 74.80285 88.40695 C 74.4874 92.89688999999998 76.77445 95.84123 80.244475 95.69395 L 89.708125 95.69395 C 94.045675 95.69395 95.30754999999999 92.16091 95.149825 88.40695 L 95.149825 85.09461999999999" />
</svg>
