<?xml version="1.0" standalone="no"?>
<!DOCTYPE svg PUBLIC "-//W3C//DTD SVG 1.1//EN" "http://www.w3.org/Graphics/SVG/1.1/DTD/svg11.dtd">
<svg xmlns="http://www.w3.org/2000/svg" version="1.1" width="100%" height="100%">
<style type="text/css"><![CDATA[
  .stroke { fill:none; stroke:black; stroke-width:2 }
]]></style>
<path class="stroke" d="M 18.58467108 8.978102 C 16.6576638 17.153284 14.2489047 24.452553 11.84014527 30.875912 L 16.799907 44.305" />
<path class="stroke" d="M 24.07664031 25.912407 C 21.214119 34.9413 15.926529000000002 49.0696 10.8766413 62.408752 L 26.9671509 57.153282" />
<path class="stroke" d="M 25.61824818 48.10219 C 26.870800799999998 52.48175 27.737955 56.569344 28.027005300000003 62.408752" />
<path class="stroke" d="M 19.4518233 60.07299 L 19.44575361 92.246574" />
<path class="stroke" d="M 10.202189279999999 72.04379 C 9.72043746 77.00729 8.949634679999999 81.386856 7.69708008 85.18248" />
<path class="stroke" d="M 28.027005300000003 72.33576 C 29.279559900000002 75.54744 30.050364000000002 79.34306 30.62846658 85.18248" />
<path class="stroke" d="M 36.8476437 20.157066 L 64.40994699999999 20.157066" />
<path class="stroke" d="M 39.42700659 34.67153 L 39.3072993 62.70073" />
<path class="stroke" d="M 39.3072993 34.67153 L 61.692696600000005 34.67153 L 61.692696600000005 62.70073" />
<path class="stroke" d="M 39.3072993 48.63624 L 61.5729889 48.63624" />
<path class="stroke" d="M 39.3072993 62.9927 L 61.692696600000005 62.9927" />
<path class="stroke" d="M 36.19489008 77.59124 L 64.805105 77.59124" />
<path class="stroke" d="M 50.5761083 8.978102 L 50.5761083 90.72992" />
<path class="stroke" d="M 80.05693384 8.978102 C 78.0715324 17.153284 75.5897806 24.452553 73.10802846 30.875912 L 78.218086 44.305" />
<path class="stroke" d="M 85.71532638 25.912407 C 82.766062 34.9413 77.318242 49.0696 72.1153274 62.408752 L 88.6934282 57.153282" />
<path class="stroke" d="M 87.30364964 48.10219 C 88.5941584 52.48175 89.48759 56.569344 89.7853994 62.408752" />
<path class="stroke" d="M 80.9503634 60.07299 L 80.94410978 92.246574" />
<path class="stroke" d="M 71.42043744 72.04379 C 70.92408707999999 77.00729 70.12992664 81.386856 68.83941584 85.18248" />
<path class="stroke" d="M 89.7853994 72.33576 C 91.07591020000001 75.54744 91.870072 79.34306 92.46569284 85.18248" />
</svg>
