<?xml version="1.0" standalone="no"?>
<!DOCTYPE svg PUBLIC "-//W3C//DTD SVG 1.1//EN" "http://www.w3.org/Graphics/SVG/1.1/DTD/svg11.dtd">
<svg xmlns="http://www.w3.org/2000/svg" version="1.1" width="100%" height="100%">
<style type="text/css"><![CDATA[
  .stroke { fill:none; stroke:black; stroke-width:2 }
]]></style>
<path class="stroke" d="M 18.58467108 6.464233439999999 C 16.6576638 12.35036448 14.2489047 17.60583816 11.84014527 22.23065664 L 16.799907 31.8996" />
<path class="stroke" d="M 24.07664031 18.656933040000002 C 21.214119 25.157735999999996 15.926529000000002 35.330112 10.8766413 44.93430144 L 26.9671509 41.150363039999995" />
<path class="stroke" d="M 25.61824818 34.6335768 C 26.870800799999998 37.78686 27.737955 40.729927679999996 28.027005300000003 44.93430144" />
<path class="stroke" d="M 19.4518233 43.2525528 L 19.44575361 66.41753328" />
<path class="stroke" d="M 10.202189279999999 51.8715288 C 9.72043746 55.445248799999995 8.949634679999999 58.598536319999994 7.69708008 61.3313856" />
<path class="stroke" d="M 28.027005300000003 52.081747199999995 C 29.279559900000002 54.3941568 30.050364000000002 57.1270032 30.62846658 61.3313856" />
<path class="stroke" d="M 36.8476437 14.51308752 L 64.40994699999999 14.51308752" />
<path class="stroke" d="M 39.42700659 24.963501599999997 L 39.3072993 45.1445256" />
<path class="stroke" d="M 39.3072993 24.963501599999997 L 61.692696600000005 24.963501599999997 L 61.692696600000005 45.1445256" />
<path class="stroke" d="M 39.3072993 35.0180928 L 61.5729889 35.0180928" />
<path class="stroke" d="M 39.3072993 45.354744 L 61.692696600000005 45.354744" />
<path class="stroke" d="M 36.19489008 55.8656928 L 64.805105 55.8656928" />
<path class="stroke" d="M 50.5761083 6.464233439999999 L 50.5761083 65.3255424" />
<path class="stroke" d="M 80.05693384 6.464233439999999 C 78.0715324 12.35036448 75.5897806 17.60583816 73.10802846 22.23065664 L 78.218086 31.8996" />
<path class="stroke" d="M 85.71532638 18.656933040000002 C 82.766062 25.157735999999996 77.318242 35.330112 72.1153274 44.93430144 L 88.6934282 41.150363039999995" />
<path class="stroke" d="M 87.30364964 34.6335768 C 88.5941584 37.78686 89.48759 40.729927679999996 89.7853994 44.93430144" />
<path class="stroke" d="M 80.9503634 43.2525528 L 80.94410978 66.41753328" />
<path class="stroke" d="M 71.42043744 51.8715288 C 70.92408707999999 55.445248799999995 70.12992664 58.598536319999994 68.83941584 61.3313856" />
<path class="stroke" d="M 89.7853994 52.081747199999995 C 91.07591020000001 54.3941568 91.870072 57.1270032 92.46569284 61.3313856" />
<path class="stroke" d="M 21.4890503 72.85328425 L 21.4890503 92.8941595" />
<path class="stroke" d="M 21.4890503 72.85328425 L 78.77372 72.85328425 L 78.77372 92.70145930000001" />
<path class="stroke" d="M 21.4890503 91.35255328 L 78.77372 91.35255328" />
</svg>
