<?xml version="1.0" standalone="no"?>
<!DOCTYPE svg PUBLIC "-//W3C//DTD SVG 1.1//EN" "http://www.w3.org/Graphics/SVG/1.1/DTD/svg11.dtd">
<svg xmlns="http://www.w3.org/2000/svg" version="1.1" width="100%" height="100%">
<style type="text/css"><![CDATA[
  .stroke { fill:none; stroke:black; stroke-width:2 }
]]></style>
<path class="stroke" d="M 50.14598 8.22335612 C 38.75912 21.02919558 25.912407 31.07299196 9.854013 37.09926738" />
<path class="stroke" d="M 50.14598 8.22335612 C 61.824814 20.5270046 73.795616 31.07299196 90.43795 36.848174039999996" />
<path class="stroke" d="M 37.8686126 28.0 L 62.131384999999995 28.0" />
<path class="stroke" d="M 16.01081088 41.58162136 L 16.01081088 60.32984140000001" />
<path class="stroke" d="M 16.01081088 41.3675673 L 83.98918400000001 41.3675673 L 83.98918400000001 60.46806168" />
<path class="stroke" d="M 49.999996800000005 41.438918954 L 49.999996800000005 60.1329722" />
<path class="stroke" d="M 28.724322400000002 45.14918866 C 35.729728 49.0735128 36.508104 49.64432414 39.6216184 55.2097286" />
<path class="stroke" d="M 71.016208 45.00648632 C 64.529724 48.930810460000004 64.529724 49.14486452 61.156756800000004 55.0670256" />
<path class="stroke" d="M 16.07329864 60.53717248 L 83.675392 60.53717248" />
<path class="stroke" d="M 24.744522 68.15839385 L 24.744522 95.3817488" />
<path class="stroke" d="M 24.744522 68.15839385 L 74.9635 68.15839385 L 74.9635 95.3817488" />
<path class="stroke" d="M 25.036495 81.02848791 L 74.67153 81.02848791" />
<path class="stroke" d="M 24.744522 94.19342868 L 74.9635 94.19342868" />
</svg>
