<?xml version="1.0" standalone="no"?>
<!DOCTYPE svg PUBLIC "-//W3C//DTD SVG 1.1//EN" "http://www.w3.org/Graphics/SVG/1.1/DTD/svg11.dtd">
<svg xmlns="http://www.w3.org/2000/svg" version="1.1" width="100%" height="100%">
<style type="text/css"><![CDATA[
  .stroke { fill:none; stroke:black; stroke-width:2 }
]]></style>
<path class="stroke" d="M 9.84150137142857 27.956203 L 31.31386782857143 27.956203" />
<path class="stroke" d="M 22.504689428571428 9.270073 L 22.504689428571428 90.14598" />
<path class="stroke" d="M 22.504689428571428 36.131386 C 18.925962000000002 44.598537 14.521375628571427 52.48175 8.189780657142856 56.861313" />
<path class="stroke" d="M 22.504689428571428 36.131386 C 26.633991685714285 37.299267 29.386859228571428 42.26277 30.763293 46.934303" />
<path class="stroke" d="M 63.1080252 9.5654876304 C 54.6817488 21.3468599336 45.17518118 30.5871526032 33.29196962 36.1313259896" />
<path class="stroke" d="M 63.1080252 9.5654876304 C 71.75036236 20.884844232000003 80.60875583999999 30.5871526032 92.924083 35.900320116799996" />
<path class="stroke" d="M 54.022773324 27.76 L 71.9772249 27.76" />
<path class="stroke" d="M 37.8480000512 40.255091651200004 L 37.8480000512 57.503454088000005" />
<path class="stroke" d="M 37.8480000512 40.058161915999996 L 88.15199616000001 40.058161915999996 L 88.15199616000001 57.6306167456" />
<path class="stroke" d="M 62.999997632 40.123805437680005 L 62.999997632 57.322334424" />
<path class="stroke" d="M 47.255998575999996 43.537253567200004 C 52.439998720000006 47.147631776000004 53.01599696 47.672778208800004 55.319997616 52.792950312" />
<path class="stroke" d="M 78.55199392 43.4059674144 C 73.75199576 47.0163456232 73.75199576 47.213275358400004 71.256000032 52.661663552" />
<path class="stroke" d="M 37.8942409936 57.69419868160001 L 87.91979008 57.69419868160001" />
<path class="stroke" d="M 44.310946279999996 64.705722342 L 44.310946279999996 89.751208896" />
<path class="stroke" d="M 44.310946279999996 64.705722342 L 81.47299 64.705722342 L 81.47299 89.751208896" />
<path class="stroke" d="M 44.5270063 76.5462088772 L 81.2569322 76.5462088772" />
<path class="stroke" d="M 44.310946279999996 88.65795438560001 L 81.47299 88.65795438560001" />
</svg>
