<?xml version="1.0" standalone="no"?>
<!DOCTYPE svg PUBLIC "-//W3C//DTD SVG 1.1//EN" "http://www.w3.org/Graphics/SVG/1.1/DTD/svg11.dtd">
<svg xmlns="http://www.w3.org/2000/svg" version="1.1" width="100%" height="100%">
<style type="text/css"><![CDATA[
  .stroke { fill:none; stroke:black; stroke-width:2 }
]]></style>
<path class="stroke" d="M 12.2978377 7.189188 L 51.333513100000005 7.189188 C 51.66432460000001 79.51351 50.175672850000005 81.45946 43.8902671 92.81081 C 42.6894211 90.56324 40.6615591 86.36972 39.424324600000006 84.05405" />
<path class="stroke" d="M 11.80162147 32.81081 L 49.1832409 32.81081" />
<path class="stroke" d="M 11.63621521 58.756752 L 49.514052400000004 58.756752" />
<path class="stroke" d="M 25.3648639 7.837837 C 25.53027067 80.48648 18.74864869 85.02702 8.32810786 92.81081" />
<path class="stroke" d="M 64.59459 7.5135136 L 88.27026 7.5135136 C 85.35135 15.297297 82.80973 25.963066 79.189186 36.7027" />
<path class="stroke" d="M 79.51351 37.675674 C 83.22786 41.305073 89.80198 50.29703 89.80198 59.207924 L 89.80198 63.069305 C 89.80198 66.63367 87.915436 76.918915 84.05405 76.918915 L 74.32432 75.945946" />
<path class="stroke" d="M 64.918915 8.81081 L 64.59459 92.48648" />
</svg>
