<?xml version="1.0" standalone="no"?>
<!DOCTYPE svg PUBLIC "-//W3C//DTD SVG 1.1//EN" "http://www.w3.org/Graphics/SVG/1.1/DTD/svg11.dtd">
<svg xmlns="http://www.w3.org/2000/svg" version="1.1" width="100%" height="100%">
<style type="text/css"><![CDATA[
  .stroke { fill:none; stroke:black; stroke-width:2 }
]]></style>
<path class="stroke" d="M 7.779349285714286 11.089109 L 28.133639285714285 11.290321 C 29.654378285714287 17.741934 25.09216442857143 33.225803 20.529953714285714 40.0" />
<path class="stroke" d="M 20.529953714285714 40.96774 C 24.331795714285715 44.51613 27.373269785714285 49.032257 28.894008785714284 54.19355 C 30.41474464285714 57.09677 30.41474464285714 65.161285 22.304146857142857 68.38709 L 17.48847885714286 69.354836" />
<path class="stroke" d="M 10.113153285714285 11.089109 L 10.113153285714285 90.09901" />
<path class="stroke" d="M 65.1125443 9.562042 L 65.1125443 16.861313" />
<path class="stroke" d="M 44.04452383 16.861313 L 85.94817069999999 16.861313" />
<path class="stroke" d="M 50.69270074 17.153284 C 53.91605782 22.992699 56.53503562 30.29197 57.5423335 38.17518" />
<path class="stroke" d="M 78.09123729999999 17.153284 C 76.6810222 24.744522 74.66642092000001 31.751823 71.84598174999999 38.17518" />
<path class="stroke" d="M 41.8284667 38.17518 L 89.574445 38.17518" />
<path class="stroke" d="M 41.920285 38.17518 L 41.920285 61.240875 C 41.920285 74.67153 40.418246769999996 83.722626 37.39635037 90.14598" />
<path class="stroke" d="M 56.892627085 49.32627661 C 56.469561588999994 54.14963399 54.777298638999994 59.14525367 52.238904696999995 62.4182474" />
<path class="stroke" d="M 55.200364135 57.9394158 L 83.68678885 57.9394158" />
<path class="stroke" d="M 68.961911746 45.364232795 L 68.961911746 90.84160359999998" />
<path class="stroke" d="M 57.033648595 73.959851 L 81.00737049999998 73.959851" />
<path class="stroke" d="M 50.687663257 91.18612819999998 L 87.07130991999999 91.18612819999998" />
</svg>
