<?xml version="1.0" standalone="no"?>
<!DOCTYPE svg PUBLIC "-//W3C//DTD SVG 1.1//EN" "http://www.w3.org/Graphics/SVG/1.1/DTD/svg11.dtd">
<svg xmlns="http://www.w3.org/2000/svg" version="1.1" width="100%" height="100%">
<style type="text/css"><![CDATA[
  .stroke { fill:none; stroke:black; stroke-width:2 }
]]></style>
<path class="stroke" d="M 50.0 8.697183240000003 L 50.0 21.0" />
<path class="stroke" d="M 7.5 21.0 L 92.5 21.0" />
<path class="stroke" d="M 49.33722496 22.369488432 C 43.731385599999996 31.05678741 30.355168 40.7854716 14.58102016 47.73240815999999 C 38.12554528 46.634013599999996 58.58686048 46.134744899999994 80.988832 46.207779" />
<path class="stroke" d="M 70.0788304 39.943793184 C 76.52554239999999 41.84102039999999 82.13138176 44.73678741 85.7751808 48.631091819999995" />
<path class="stroke" d="M 37.007298 48.45036394 L 37.007298 63.92773468 C 37.007298 77.5744501 29.416058 91.05474147999999 10.437956 94.5496315" />
<path class="stroke" d="M 54.233574 48.28394161 L 54.233574 87.5598526 C 54.233574 91.7204365 58.029198 94.2167857 62.116783 94.2167857 L 84.8905 94.2167857 C 88.10219 94.38320859999999 90.43795 93.0518197 90.43795 91.22116209999999 L 90.43795 88.05912358" />
</svg>
