<?xml version="1.0" standalone="no"?>
<!DOCTYPE svg PUBLIC "-//W3C//DTD SVG 1.1//EN" "http://www.w3.org/Graphics/SVG/1.1/DTD/svg11.dtd">
<svg xmlns="http://www.w3.org/2000/svg" version="1.1" width="100%" height="100%">
<style type="text/css"><![CDATA[
  .stroke { fill:none; stroke:black; stroke-width:2 }
]]></style>
<path class="stroke" d="M 12.189779 13.3394155 L 87.81021 13.3394155" />
<path class="stroke" d="M 34.67153 7.13503515 L 34.67153 20.040144849999997" />
<path class="stroke" d="M 65.32846 7.13503515 L 65.32846 20.040144849999997" />
<path class="stroke" d="M 7.779349285714286 29.760396110000002 L 28.133639285714285 29.91935359 C 29.654378285714287 35.01612786 25.09216442857143 47.24838437 20.529953714285714 52.6" />
<path class="stroke" d="M 20.529953714285714 53.3645146 C 24.331795714285715 56.1677427 27.373269785714285 59.735483030000005 28.894008785714284 63.8129045 C 30.41474464285714 66.10644830000001 30.41474464285714 72.47741515000001 22.304146857142857 75.0258011 L 17.48847885714286 75.79032044000002" />
<path class="stroke" d="M 10.113153285714285 29.760396110000002 L 10.113153285714285 92.1782179" />
<path class="stroke" d="M 65.1125443 28.55401318 L 65.1125443 34.32043727" />
<path class="stroke" d="M 44.04452383 34.32043727 L 85.94817069999999 34.32043727" />
<path class="stroke" d="M 50.69270074 34.55109436 C 53.91605782 39.16423221 56.53503562 44.930656299999995 57.5423335 51.158392199999994" />
<path class="stroke" d="M 78.09123729999999 34.55109436 C 76.6810222 40.54817238 74.66642092000001 46.083940170000005 71.84598174999999 51.158392199999994" />
<path class="stroke" d="M 41.8284667 51.158392199999994 L 89.574445 51.158392199999994" />
<path class="stroke" d="M 41.920285 51.158392199999994 L 41.920285 69.38029125 C 41.920285 79.9905087 40.418246769999996 87.14087454000001 37.39635037 92.2153242" />
<path class="stroke" d="M 56.892627085 59.9677585219 C 56.469561588999994 63.7782108521 54.777298638999994 67.7247503993 52.238904696999995 70.31041544600001" />
<path class="stroke" d="M 55.200364135 66.772138482 L 83.68678885 66.772138482" />
<path class="stroke" d="M 68.961911746 56.83774390805 L 68.961911746 92.764866844" />
<path class="stroke" d="M 57.033648595 79.42828229 L 81.00737049999998 79.42828229" />
<path class="stroke" d="M 50.687663257 93.03704127799999 L 87.07130991999999 93.03704127799999" />
</svg>
