<?xml version="1.0" standalone="no"?>
<!DOCTYPE svg PUBLIC "-//W3C//DTD SVG 1.1//EN" "http://www.w3.org/Graphics/SVG/1.1/DTD/svg11.dtd">
<svg xmlns="http://www.w3.org/2000/svg" version="1.1" width="100%" height="100%">
<style type="text/css"><![CDATA[
  .stroke { fill:none; stroke:black; stroke-width:2 }
]]></style>
<path class="stroke" d="M 8.486562857142857 11.089109 L 30.691242857142853 11.290321 C 32.350230857142854 17.741934 27.373270285714284 33.225803 22.396313142857142 40.0" />
<path class="stroke" d="M 22.396313142857142 40.96774 C 26.54377714285714 44.51613 29.861748857142857 49.032257 31.520736857142854 54.19355 C 33.179721428571426 57.09677 33.179721428571426 65.161285 24.33179657142857 68.38709 L 19.078340571428573 69.354836" />
<path class="stroke" d="M 11.032530857142856 11.089109 L 11.032530857142856 90.09901" />
<path class="stroke" d="M 67.594887 7.86797445875 L 67.594887 18.77162296625" />
<path class="stroke" d="M 43.113137825 19.019431654999998 L 43.113137825 30.91432255625" />
<path class="stroke" d="M 43.113137825 19.019431654999998 L 92.0766365 19.019431654999998 L 92.0766365 30.91432255625" />
<path class="stroke" d="M 77.70049439499999 44.85049600749999 C 69.35990194 49.820543934999996 63.451981090000004 51.1170806125 52.559487595 52.872078332499996" />
<path class="stroke" d="M 52.2957538 31.452970224999998 L 52.2957538 79.42474945 C 52.2957538 85.69133551 55.80643474 89.14876471000001 60.67178263 89.14876471000001 L 86.21485291 89.14876471000001 C 88.47376255 89.14876471000001 89.69009806000001 88.06831517500001 89.69009806000001 85.25916122499999 L 89.69009806000001 83.31435729999998" />
</svg>
