<?xml version="1.0" standalone="no"?>
<!DOCTYPE svg PUBLIC "-//W3C//DTD SVG 1.1//EN" "http://www.w3.org/Graphics/SVG/1.1/DTD/svg11.dtd">
<svg xmlns="http://www.w3.org/2000/svg" version="1.1" width="100%" height="100%">
<style type="text/css"><![CDATA[
  .stroke { fill:none; stroke:black; stroke-width:2 }
]]></style>
<path class="stroke" d="M 14.525547 25.3248169 L 42.146595 25.3248169" />
<path class="stroke" d="M 30.0 8.46350243 L 29.584415 51.41999832" />
<path class="stroke" d="M 30.0 27.34817208 C 25.620438 35.21678591 19.197079 43.53503585 10.145985 49.38029065" />
<path class="stroke" d="M 30.0 29.14671498 C 35.547443 32.069342379999995 38.46715 34.767149800000006 41.38686 38.58904942" />
<path class="stroke" d="M 49.685863 25.3248169 L 81.386856 25.3248169" />
<path class="stroke" d="M 64.74452 8.46350243 L 64.80519 50.6999975" />
<path class="stroke" d="M 64.16058 28.247444299999998 C 60.65693 37.0153265 51.605835 45.55839488 42.846714 51.17882739" />
<path class="stroke" d="M 64.16058 28.0226274 C 69.41605 37.6897772 75.682434 40.75955930000001 84.44156 46.379997200000005" />
<path class="stroke" d="M 29.208244 59.2602518 L 28.911673999999998 79.806029 C 28.812786 85.71137 19.224974 90.878558 6.968455 92.600954" />
<path class="stroke" d="M 29.20815 59.1372224 L 65.681372 59.1372224 L 65.681372 89.771309 C 65.879054 91.862801 68.74548999999999 92.600954 72.204972 92.723999 L 81.99056 92.723999 C 85.450042 92.723999 89.206094 91.739756 88.81072999999999 90.140405 L 88.81072999999999 87.433766" />
<path class="stroke" d="M 38.400598 69.59463170000001 C 47.19768199999999 71.48106014 52.436395999999995 74.47477853 56.785494 78.5757077" />
</svg>
