<?xml version="1.0" standalone="no"?>
<!DOCTYPE svg PUBLIC "-//W3C//DTD SVG 1.1//EN" "http://www.w3.org/Graphics/SVG/1.1/DTD/svg11.dtd">
<svg xmlns="http://www.w3.org/2000/svg" version="1.1" width="100%" height="100%">
<style type="text/css"><![CDATA[
  .stroke { fill:none; stroke:black; stroke-width:2 }
]]></style>
<path class="stroke" d="M 10.961809821428572 14.059406 C 13.879066071428571 16.138615 16.796323214285717 19.108912 19.183169642857145 22.673267" />
<path class="stroke" d="M 9.105374107142858 38.118813 C 11.757426785714285 39.90099 14.939887500000001 42.574257 17.06152857142857 46.138615" />
<path class="stroke" d="M 8.840169642857143 85.64356 C 9.434829464285714 87.422676 11.091678571428572 89.896904 13.024666964285714 89.896904 C 14.957658035714285 89.896904 17.5919375 76.73267 19.448374107142858 69.60396" />
<path class="stroke" d="M 37.09343104 11.683168 L 37.09343104 55.693428" />
<path class="stroke" d="M 37.33284562 11.8297 L 80.90656568 11.8297 L 80.90656568 55.40146" />
<path class="stroke" d="M 37.09343104 34.542557 L 80.42773652 34.542557" />
<path class="stroke" d="M 37.09343104 55.6782 L 80.90656568 55.6782" />
<path class="stroke" d="M 58.74129 11.683168 L 58.74129 90.43795" />
<path class="stroke" d="M 35.4175175 72.62773 L 82.5824784 72.62773" />
<path class="stroke" d="M 26.08029066 90.43795 L 92.3985344 90.43795" />
</svg>
