<?xml version="1.0" standalone="no"?>
<!DOCTYPE svg PUBLIC "-//W3C//DTD SVG 1.1//EN" "http://www.w3.org/Graphics/SVG/1.1/DTD/svg11.dtd">
<svg xmlns="http://www.w3.org/2000/svg" version="1.1" width="100%" height="100%">
<style type="text/css"><![CDATA[
  .stroke { fill:none; stroke:black; stroke-width:2 }
]]></style>
<path class="stroke" d="M 42.5599954 14.059458000000001 C 28.5362146 19.6054047 19.373286 19.35324 6.5552019999999995 21.719160000000002" />
<path class="stroke" d="M 10.473186680000001 31.088340000000002 L 10.473186680000001 60.89904 L 39.9306216 60.89904" />
<path class="stroke" d="M 39.9306216 31.940099999999997 L 39.9306216 60.89904" />
<path class="stroke" d="M 25.274488 6.104097 L 25.274488 78.78546 C 25.129358000000003 82.57095000000001 26.435344 84.93687000000001 27.88646 85.03155000000001 L 43.12304 85.03155000000001 C 44.767632 84.93687000000001 45.83175 83.13876 45.880142 79.63722 L 45.880142 74.81070000000001" />
<path class="stroke" d="M 53.44306519 9.854013 L 88.2255442 9.854013" />
<path class="stroke" d="M 71.08393989999999 9.854013 C 70.4182483 14.817516 69.08686054 18.905107 67.203568 22.0621" />
<path class="stroke" d="M 54.913 22.3791 L 54.913 76.715324" />
<path class="stroke" d="M 54.913 22.3791 L 86.904649 22.3791 L 86.904649 76.423355" />
<path class="stroke" d="M 55.093747 40.77066 L 86.904649 40.77066" />
<path class="stroke" d="M 55.093747 59.79627 L 86.904649 59.79627" />
<path class="stroke" d="M 54.94087528 76.715324 L 87.06057820000001 76.715324" />
<path class="stroke" d="M 61.26496201 83.13868 C 58.26934183 86.9343 50.01058447 94.70803 45.85 95.0" />
<path class="stroke" d="M 81.2357653 83.43065 C 84.7306576 84.59853 87.5598526 86.35036 90.88831915 90.72992" />
</svg>
