<?xml version="1.0" standalone="no"?>
<!DOCTYPE svg PUBLIC "-//W3C//DTD SVG 1.1//EN" "http://www.w3.org/Graphics/SVG/1.1/DTD/svg11.dtd">
<svg xmlns="http://www.w3.org/2000/svg" version="1.1" width="100%" height="100%">
<style type="text/css"><![CDATA[
  .stroke { fill:none; stroke:black; stroke-width:2 }
]]></style>
<path class="stroke" d="M 6.58029175 16.318247 L 6.58029175 72.189778" />
<path class="stroke" d="M 6.58029175 16.318247 L 22.4927 16.318247 L 22.4927 71.65255320000001" />
<path class="stroke" d="M 6.58029175 67.89196672 L 22.4927 67.89196672" />
<path class="stroke" d="M 56.91999655 14.059458000000001 C 46.40216095 19.6054047 39.5299645 19.35324 29.9164015 21.719160000000002" />
<path class="stroke" d="M 32.85489001 31.088340000000002 L 32.85489001 60.89904 L 54.9479662 60.89904" />
<path class="stroke" d="M 54.9479662 31.940099999999997 L 54.9479662 60.89904" />
<path class="stroke" d="M 43.955866 6.104097 L 43.955866 78.78546 C 43.847018500000004 82.57095000000001 44.826508000000004 84.93687000000001 45.914845 85.03155000000001 L 57.34228 85.03155000000001 C 58.575724 84.93687000000001 59.3738125 83.13876 59.4101065 79.63722 L 59.4101065 74.81070000000001" />
<path class="stroke" d="M 65.0822988925 9.854013 L 91.16915815 9.854013" />
<path class="stroke" d="M 78.31295492499999 9.854013 C 77.813686225 14.817516 76.81514540500001 18.905107 75.402676 22.0621" />
<path class="stroke" d="M 66.18475 22.3791 L 66.18475 76.715324" />
<path class="stroke" d="M 66.18475 22.3791 L 90.17848675 22.3791 L 90.17848675 76.423355" />
<path class="stroke" d="M 66.32031025 40.77066 L 90.17848675 40.77066" />
<path class="stroke" d="M 66.32031025 59.79627 L 90.17848675 59.79627" />
<path class="stroke" d="M 66.20565646 76.715324 L 90.29543365 76.715324" />
<path class="stroke" d="M 70.9487215075 83.13868 C 68.7020063725 86.9343 62.5079383525 94.70803 59.3875 95.0" />
<path class="stroke" d="M 85.92682397499999 83.43065 C 88.54799320000001 84.59853 90.66988945 86.35036 93.1662393625 90.72992" />
</svg>
