<?xml version="1.0" standalone="no"?>
<!DOCTYPE svg PUBLIC "-//W3C//DTD SVG 1.1//EN" "http://www.w3.org/Graphics/SVG/1.1/DTD/svg11.dtd">
<svg xmlns="http://www.w3.org/2000/svg" version="1.1" width="100%" height="100%">
<style type="text/css"><![CDATA[
  .stroke { fill:none; stroke:black; stroke-width:2 }
]]></style>
<path class="stroke" d="M 8.799242127659573 13.7224 C 11.372119999999999 16.98216 12.709995744680851 19.92646 13.739221276595744 23.50156" />
<path class="stroke" d="M 35.66009063829787 13.72239 C 34.8367885106383 17.1924 33.08722255319149 20.347 30.411490638297874 23.1862" />
<path class="stroke" d="M 5.711790638297872 33.91172 L 39.98245617021277 33.91172" />
<path class="stroke" d="M 22.69279829787234 5.8359594 L 22.69279829787234 94.164" />
<path class="stroke" d="M 22.692729787234043 41.798 C 21.560640425531915 54.942 14.562474468085105 66.8245 6.638015319148936 73.343796" />
<path class="stroke" d="M 23.00157574468085 44.32176 C 29.176439574468084 47.37116 33.49887361702128 51.68236 36.895043829787234 57.25546" />
<path class="stroke" d="M 77.1287122 9.60396 C 66.58394200000001 13.941605 57.8248162 16.27737 49.0656928 17.445253" />
<path class="stroke" d="M 48.0145972 41.970802 L 78.496348 34.37956" />
<path class="stroke" d="M 45.772864 67.0347 L 89.007295 57.153282" />
<path class="stroke" d="M 62.905108 14.817516 L 62.905108 82.84671 C 62.905108 87.51824 65.357662 90.43795 67.4598532 90.43795 L 89.357662 90.43795 C 92.16058 90.43795 93.912406 85.76642 94.059406 82.67327 L 93.912406 78.75912" />
</svg>
