<?xml version="1.0" standalone="no"?>
<!DOCTYPE svg PUBLIC "-//W3C//DTD SVG 1.1//EN" "http://www.w3.org/Graphics/SVG/1.1/DTD/svg11.dtd">
<svg xmlns="http://www.w3.org/2000/svg" version="1.1" width="100%" height="100%">
<style type="text/css"><![CDATA[
  .stroke { fill:none; stroke:black; stroke-width:2 }
]]></style>
<path class="stroke" d="M 8.034090638297872 13.447952 C 10.383239999999999 16.6425168 11.604778723404255 19.5279308 12.544506382978723 23.0315288" />
<path class="stroke" d="M 32.55921319148936 13.4479422 C 31.807502553191487 16.848551999999998 30.21007276595745 19.940060000000003 27.76701319148936 22.722476" />
<path class="stroke" d="M 5.215113191489362 33.2334856 L 36.50572085106383 33.2334856" />
<path class="stroke" d="M 20.7195114893617 5.719240212 L 20.7195114893617 92.28072" />
<path class="stroke" d="M 20.719448936170213 40.96204 C 19.685802127659574 53.84316 13.296172340425532 65.48801 6.060796595744681 71.87692007999999" />
<path class="stroke" d="M 21.001438723404252 43.4353248 C 26.639357872340426 46.4237368 30.585928085106385 50.6487128 33.68677914893617 56.1103508" />
<path class="stroke" d="M 43.66642169 9.854013 L 91.3978066 9.854013" />
<path class="stroke" d="M 43.47080246 9.854013 L 43.47080246 31.167881 C 43.47080246 74.67153 40.92773572 81.386856 37.83267273 90.09901" />
<path class="stroke" d="M 51.740657216 17.74851456 L 51.740657216 58.237953759999996" />
<path class="stroke" d="M 51.916714522999996 17.883324 L 83.959340372 17.883324 L 83.959340372 57.969343200000004" />
<path class="stroke" d="M 51.740657216 38.779152440000004 L 83.607225758 38.779152440000004" />
<path class="stroke" d="M 51.740657216 58.223943999999996 L 83.959340372 58.223943999999996" />
<path class="stroke" d="M 67.6597535 17.74851456 L 67.6597535 90.202914" />
<path class="stroke" d="M 50.508247625 73.8175116 L 85.19174936 73.8175116" />
<path class="stroke" d="M 43.641969839000005 90.202914 L 92.41014176000002 90.202914" />
</svg>
