<?xml version="1.0" standalone="no"?>
<!DOCTYPE svg PUBLIC "-//W3C//DTD SVG 1.1//EN" "http://www.w3.org/Graphics/SVG/1.1/DTD/svg11.dtd">
<svg xmlns="http://www.w3.org/2000/svg" version="1.1" width="100%" height="100%">
<style type="text/css"><![CDATA[
  .stroke { fill:none; stroke:black; stroke-width:2 }
]]></style>
<path class="stroke" d="M 50.25504 6.92043722 L 50.25504 38.643063" />
<path class="stroke" d="M 17.153284 9.913138329999999 L 17.153284 22.0036476 M 17.153284 20.92627666 L 81.9708 20.92627666" />
<path class="stroke" d="M 82.26277 9.913138329999999 L 82.26277 22.123356939999997" />
<path class="stroke" d="M 14.525547 28.467881029999997 L 14.525547 39.840144099999996 M 14.525547 38.7627707 L 85.18248 38.7627707" />
<path class="stroke" d="M 85.18248 28.22846645 L 85.18248 39.959851799999996" />
<path class="stroke" d="M 19.739735 50.987384 L 79.260265 50.987384" />
<path class="stroke" d="M 11.317037549999998 66.0788604 L 88.24446789999999 66.0788604" />
<path class="stroke" d="M 49.7807683 66.242884 L 49.7807683 90.684548 C 49.7807683 92.434296 47.5346753 93.527856 45.5693773 93.473204 L 41.9194873 93.473204" />
<path class="stroke" d="M 34.058322000000004 72.64034000000001 C 28.911096 78.819136 22.921663000000002 83.84966800000001 11.878551900000001 87.73188400000001" />
<path class="stroke" d="M 66.064769 72.804452 C 74.206756 76.686668 80.664062 81.55314 85.998455 87.73188400000001" />
</svg>
