<?xml version="1.0" standalone="no"?>
<!DOCTYPE svg PUBLIC "-//W3C//DTD SVG 1.1//EN" "http://www.w3.org/Graphics/SVG/1.1/DTD/svg11.dtd">
<svg xmlns="http://www.w3.org/2000/svg" version="1.1" width="100%" height="100%">
<style type="text/css"><![CDATA[
  .stroke { fill:none; stroke:black; stroke-width:2 }
]]></style>
<path class="stroke" d="M 27.999974 5.9668677 C 26.140870000000003 9.9447989 24.117758 11.168774 21.438458 12.3927588" />
<path class="stroke" d="M 15.533124800000001 12.3927394 L 15.533124800000001 39.626265399999994" />
<path class="stroke" d="M 15.533124800000001 12.3927394 L 41.123052799999996 12.3927394 L 41.123052799999996 39.626265399999994" />
<path class="stroke" d="M 15.697143200000001 21.5725575 L 40.7949952 21.5725575" />
<path class="stroke" d="M 15.697143200000001 30.752394999999996 L 40.959003200000005 30.752394999999996" />
<path class="stroke" d="M 15.533124800000001 39.626265399999994 L 41.123052799999996 39.626265399999994" />
<path class="stroke" d="M 10.2839016 47.276053999999995 L 10.2839016 66.247605" />
<path class="stroke" d="M 10.2839016 47.276053999999995 L 46.372265600000006 47.276053999999995 L 46.372265600000006 66.247605" />
<path class="stroke" d="M 28.3280524 47.58201819 L 28.3280524 65.6356611" />
<path class="stroke" d="M 10.611979999999999 57.067816 L 46.044156 57.067816" />
<path class="stroke" d="M 10.2839016 66.247605 L 46.372265600000006 66.247605" />
<path class="stroke" d="M 5.6908534 78.4874045 L 50.4732092 78.4874045" />
<path class="stroke" d="M 21.139266640000002 78.36177980000001 C 21.3032736 90.80552665 17.0094308 92.35913199999999 10.4479148 92.56312299999999" />
<path class="stroke" d="M 35.1874348 78.6664859 L 35.217652 92.25718499999999" />
<path class="stroke" d="M 54.651350545 11.0810795 L 94.34864665 11.0810795" />
<path class="stroke" d="M 54.20098969 44.059406 L 94.7990098 44.059406" />
<path class="stroke" d="M 74.3485147 10.79208 L 74.3485147 90.09901" />
</svg>
