<?xml version="1.0" standalone="no"?>
<!DOCTYPE svg PUBLIC "-//W3C//DTD SVG 1.1//EN" "http://www.w3.org/Graphics/SVG/1.1/DTD/svg11.dtd">
<svg xmlns="http://www.w3.org/2000/svg" version="1.1" width="100%" height="100%">
<style type="text/css"><![CDATA[
  .stroke { fill:none; stroke:black; stroke-width:2 }
]]></style>
<path class="stroke" d="M 9.7921824 13.040693707 L 9.7921824 47.14296406" />
<path class="stroke" d="M 9.7921824 13.040693707 L 45.3284384 13.040693707 L 45.3284384 47.14296406" />
<path class="stroke" d="M 9.7921824 29.648095220000002 L 45.3284384 29.648095220000002" />
<path class="stroke" d="M 9.7921824 47.14296406 L 45.3284384 47.14296406" />
<path class="stroke" d="M 9.83783696 59.29350928 L 47.97837744 59.582159419999996" />
<path class="stroke" d="M 27.646696000000006 13.309966500000002 L 27.646696000000006 91.09289600000001" />
<path class="stroke" d="M 27.748446320000003 61.277014900000005 C 21.928569600000003 75.35271556000001 19.2821608 80.07620899999999 10.019458960000001 88.15837554000001" />
<path class="stroke" d="M 27.748446320000003 61.277014900000005 C 35.6281072 67.3756776 36.6727088 68.04007150000001 43.801077600000006 78.6329672" />
<path class="stroke" d="M 66.876881567 9.97153265 C 65.376472981 18.69853947 61.7985763134 23.27664083 56.9511017512 27.425546779999998" />
<path class="stroke" d="M 66.53063434399999 12.9759113 L 81.188472981 12.9759113 C 79.80348013599999 25.851822600000002 68.8389554888 42.30437914 53.7194523066 49.0284649" />
<path class="stroke" d="M 64.683978535 22.41824707 C 68.2892311485 24.3459742 71.14727702889999 26.85328313 73.6864292604 31.43138645" />
<path class="stroke" d="M 69.773049082 50.97153265 C 67.936728126 59.69853947 63.557809816399995 64.27664083 57.6250797552 68.42554677999999" />
<path class="stroke" d="M 69.349283824 53.9759113 L 87.288728126 53.9759113 C 85.59366225599999 66.8518226 72.1743932848 83.30437914000001 53.6699267036 90.0284649" />
<path class="stroke" d="M 67.08919761 63.41824707 C 71.501596331 65.3459742 74.9995032294 67.85328313 78.10712237839999 72.43138645" />
</svg>
