<?xml version="1.0" standalone="no"?>
<!DOCTYPE svg PUBLIC "-//W3C//DTD SVG 1.1//EN" "http://www.w3.org/Graphics/SVG/1.1/DTD/svg11.dtd">
<svg xmlns="http://www.w3.org/2000/svg" version="1.1" width="100%" height="100%">
<style type="text/css"><![CDATA[
  .stroke { fill:none; stroke:black; stroke-width:2 }
]]></style>
<path class="stroke" d="M 22.129358000000003 5.83596 C 21.935882000000003 10.3575 20.29129 15.1945 17.630926 14.9842" />
<path class="stroke" d="M 11.681378 15.2997 L 11.96 54.216217" />
<path class="stroke" d="M 11.681378 15.2997 L 33.593064000000005 15.2997 L 33.593064000000005 88.4858 C 33.70397 92.3456 32.790824 94.795 31.126222000000002 94.4795 L 29.384892 94.4795" />
<path class="stroke" d="M 12.10918812 28.270267 L 33.2940502 28.270267" />
<path class="stroke" d="M 12.258377620000001 40.918915 L 33.443242 40.918915" />
<path class="stroke" d="M 5.2464863 56.810806 L 33.741621 49.999996" />
<path class="stroke" d="M 40.156755700000005 46.43243 C 27.92324108 62.97297 19.12108036 70.43243 6.29081004 81.78378" />
<path class="stroke" d="M 56.0990104 10.858086166666668 C 58.415842 13.630362666666668 59.4851476 16.402640333333334 61.267327 21.600658333333335" />
<path class="stroke" d="M 81.940594 10.858086166666668 C 80.51485 15.709571500000001 79.267324 19.174918 77.1287122 21.254124500000003" />
<path class="stroke" d="M 50.7524752 25.759076000000004 L 89.42574160000001 25.759076000000004" />
<path class="stroke" d="M 69.6214498 26.105608666666665 L 69.6214498 55.561058" />
<path class="stroke" d="M 53.2475248 41.006599666666666 L 86.39604399999999 41.006599666666666" />
<path class="stroke" d="M 46.1188114 55.561058 L 93.5247544 55.561058" />
<path class="stroke" d="M 49.2408754 73.17299218 L 90.93430000000001 73.17299218" />
<path class="stroke" d="M 70.087588 61.80072993 L 70.087588 74.48977975 C 70.087588 83.7072993 60.8877676 93.18165474 46.437955 95.318979" />
<path class="stroke" d="M 70.087588 74.37007246 C 70.087588 83.827007 79.48209399999999 93.1599272 93.737224 95.318979" />
</svg>
