<?xml version="1.0" standalone="no"?>
<!DOCTYPE svg PUBLIC "-//W3C//DTD SVG 1.1//EN" "http://www.w3.org/Graphics/SVG/1.1/DTD/svg11.dtd">
<svg xmlns="http://www.w3.org/2000/svg" version="1.1" width="100%" height="100%">
<style type="text/css"><![CDATA[
  .stroke { fill:none; stroke:black; stroke-width:2 }
]]></style>
<path class="stroke" d="M 28.7065685 8.175585550588236 C 32.56058306 9.747419343529412 35.64379418 11.908690051764706 37.95620318 13.97172177882353" />
<path class="stroke" d="M 69.5591198 8.175585550588236 C 67.98668696 10.120729423529413 64.7416016 12.399887312941178 61.4656916 14.069960760000003" />
<path class="stroke" d="M 9.562042 15.442 L 90.43795 15.442" />
<path class="stroke" d="M 17.875133685333335 24.934277154800004 L 18.085116618666667 61.426398416" />
<path class="stroke" d="M 17.875133685333335 24.934277154800004 L 44.57419624 24.835999841600003 L 44.36057549066666 59.36719656799999 C 44.36057549066666 60.080192192 42.71604949066666 61.09379313200001 41.36987182666667 60.951194984 L 39.233657088 60.792797095999994" />
<path class="stroke" d="M 25.932075426666668 33.514826816 L 37.312180856 37.3504288412" />
<path class="stroke" d="M 25.51825492 45.942179468000006 L 37.312180856 49.470932960000006" />
<path class="stroke" d="M 55.87580968 25.3833506984 L 55.87580968 47.1695692052" />
<path class="stroke" d="M 79.19627212 24.002533520000004 L 79.19627212 58.369527236 C 79.19627212 61.284586592000004 75.0994370656 61.898280728 72.89344440640002 61.898280728" />
<path class="stroke" d="M 8.162161 70.028648672 L 92.48648 70.11621599 C 91.318596 76.02862172 86.64864 83.16378401 81.78378 87.98 C 80.03196 90.10846670000001 75.91517 92.7086477 69.78378 92.7086477 L 60.702698 91.9205393" />
<path class="stroke" d="M 34.43243 70.90432412 L 31.513512 76.6837832 C 26.841976 82.8326876 15.4614315 89.5728326 8.162161 92.88378185" />
</svg>
