<?xml version="1.0" standalone="no"?>
<!DOCTYPE svg PUBLIC "-//W3C//DTD SVG 1.1//EN" "http://www.w3.org/Graphics/SVG/1.1/DTD/svg11.dtd">
<svg xmlns="http://www.w3.org/2000/svg" version="1.1" width="100%" height="100%">
<style type="text/css"><![CDATA[
  .stroke { fill:none; stroke:black; stroke-width:2 }
]]></style>
<path class="stroke" d="M 7.5918917200000005 19.189188 L 44.892431 18.864864" />
<path class="stroke" d="M 10.61674058 33.91163 L 10.61674058 63.56463" />
<path class="stroke" d="M 10.61674058 33.91163 L 43.052051580000004 33.91163 L 43.052051580000004 56.62463 C 43.052051580000004 60.09463 41.71449270000001 62.30283 40.20976705 62.30283 L 39.0394237 62.30283" />
<path class="stroke" d="M 26.834408800000002 5.5205 L 26.834408800000002 94.795" />
<path class="stroke" d="M 26.843782909999998 49.027023 C 22.3839458 67.17143 18.764859880000003 80.48649 6.388647560000001 92.81081" />
<path class="stroke" d="M 27.531349260000002 54.86486 C 31.656756900000005 60.378372 37.3291879 68.81081 39.90756635 79.189186" />
<path class="stroke" d="M 52.38054104 19.513512 L 88.88648520000001 19.513512" />
<path class="stroke" d="M 51.83567504 34.108105 L 52.01729592 61.35135" />
<path class="stroke" d="M 52.19891848 33.783783 L 85.4356728 34.108105 L 85.4356728 58.432426 C 85.4356728 61.902428 84.66449120000001 63.62162 83.0745924 63.62162 L 81.076756 63.62162" />
<path class="stroke" d="M 68.3533376 5.5205 L 68.3533376 94.795" />
<path class="stroke" d="M 68.35336000000001 49.3691 C 64.52576 68.0862 58.048408 87.7498 43.7981104 94.795" />
<path class="stroke" d="M 68.35336000000001 49.3691 C 71.768688 67.2449 78.363808 87.0137 92.201856 94.7949" />
</svg>
