<?xml version="1.0" standalone="no"?>
<!DOCTYPE svg PUBLIC "-//W3C//DTD SVG 1.1//EN" "http://www.w3.org/Graphics/SVG/1.1/DTD/svg11.dtd">
<svg xmlns="http://www.w3.org/2000/svg" version="1.1" width="100%" height="100%">
<style type="text/css"><![CDATA[
  .stroke { fill:none; stroke:black; stroke-width:2 }
]]></style>
<path class="stroke" d="M 11.313868 17.445253 C 15.401459 18.029196 19.48905 20.364962 22.408756 24.160583" />
<path class="stroke" d="M 9.270073 47.226276 C 13.357662 47.226276 18.321167 46.934303 23.86861 43.138683 C 16.27737 53.357662 14.233576 58.321167 15.109488 60.9489 C 15.69343 63.284668 20.948904 65.62044 22.116787 68.832115 C 23.576641 72.33576 18.129246 80.26506 11.021896 83.722626" />
<path class="stroke" d="M 11.021896 84.014595 C 39.692924 81.65476 40.51095 91.313866 90.43795 90.14598" />
<path class="stroke" d="M 36.90802792 32.237225620000004 L 58.035033999999996 30.39197048 C 57.509488 56.686858199999996 55.9328464 70.756932 55.407298960000006 73.7554718 C 54.7766398 76.29269584 53.5153276 76.9846679 52.464231999999996 77.2153242 L 51.4131364 76.9846679" />
<path class="stroke" d="M 47.3138668 14.24598524 C 46.0525528 40.07955957 41.9532832 66.37445045000001 35.33138632 73.7554718" />
<path class="stroke" d="M 70.59562012 20.01240775 L 70.59562012 67.9890485" />
<path class="stroke" d="M 70.59562012 20.01240775 L 93.50948799999999 20.01240775 L 93.50948799999999 67.52773590000001" />
<path class="stroke" d="M 70.59562012 64.29853664000001 L 93.50948799999999 64.29853664000001" />
</svg>
