<?xml version="1.0" standalone="no"?>
<!DOCTYPE svg PUBLIC "-//W3C//DTD SVG 1.1//EN" "http://www.w3.org/Graphics/SVG/1.1/DTD/svg11.dtd">
<svg xmlns="http://www.w3.org/2000/svg" version="1.1" width="100%" height="100%">
<style type="text/css"><![CDATA[
  .stroke { fill:none; stroke:black; stroke-width:2 }
]]></style>
<path class="stroke" d="M 10.43140017857143 5.0495049000000005 L 48.610326517857146 5.0495049000000005" />
<path class="stroke" d="M 18.254950839285716 5.0495049000000005 L 18.254950839285716 35.8009902" />
<path class="stroke" d="M 18.254950839285716 14.59306911 L 39.847946785714285 14.59306911" />
<path class="stroke" d="M 18.254950839285716 24.439602899999997 L 39.847946785714285 24.439602899999997" />
<path class="stroke" d="M 10.744341446428573 37.16435484 L 39.801589642857145 32.15833407" />
<path class="stroke" d="M 39.847946785714285 5.0495049000000005 L 39.847946785714285 45.7990098" />
<path class="stroke" d="M 49.65555691 12.367500765 L 80.9366355 12.46217793 C 74.95445395 27.345594502500003 64.87920747999999 34.6168824 47.2475247 40.97925735" />
<path class="stroke" d="M 53.04166702 13.00500051 C 56.361288630000004 22.917095947500002 64.56774079 28.71629052 67.30322396 31.307419725000003 C 72.2612881 35.25580657500001 81.15161092 38.2170948 89.5950494 40.97925735" />
<path class="stroke" d="M 72.2951354 48.775675365 C 61.80648254 51.094593725 46.2324274 53.23513405 35.10810734 53.591891000000004" />
<path class="stroke" d="M 52.271349099999995 52.6999989 L 51.953510599999994 95.867564" />
<path class="stroke" d="M 29.70486166 51.9864861 C 23.34810734 57.15945995 18.89837716 59.83513515 9.04540424 63.9378365" />
<path class="stroke" d="M 40.8291876 67.50540325 C 29.38702708 75.5324305 25.57297292 78.9216207 9.99891778 86.056752" />
<path class="stroke" d="M 85.644323 63.2243215 C 83.101615 65.186485 77.6983752 68.0405395 73.248646 69.6459455" />
<path class="stroke" d="M 61.48864404 53.05675585 C 71.02378139999999 73.391891 75.1556672 80.34864300000001 95.1 93.7270245" />
</svg>
