<?xml version="1.0" standalone="no"?>
<!DOCTYPE svg PUBLIC "-//W3C//DTD SVG 1.1//EN" "http://www.w3.org/Graphics/SVG/1.1/DTD/svg11.dtd">
<svg xmlns="http://www.w3.org/2000/svg" version="1.1" width="100%" height="100%">
<style type="text/css"><![CDATA[
  .stroke { fill:none; stroke:black; stroke-width:2 }
]]></style>
<path class="stroke" d="M 39.59 8.04416 L 7.09779 12.776" />
<path class="stroke" d="M 6.78233 31.072584 L 39.9053 31.072584" />
<path class="stroke" d="M 23.5015 11.829685 L 23.5015 94.164085" />
<path class="stroke" d="M 6.15142 71.4511 C 13.0915 58.4122 19.7161 45.0578 23.5016 31.0726 C 26.8665 41.2723 32.124 50.8413 39.2744 59.4638" />
<path class="stroke" d="M 56.2481752 9.270073 C 55.3722628 16.27737 49.455496600000004 41.518322 43.80104638 47.486908" />
<path class="stroke" d="M 54.4963498 20.364962 C 72.71532579999999 20.364962 78.3211642 20.364962 94.087588 20.364962 C 93.562039 61.532845 88.656934 76.131386 83.75182000000001 85.47445 C 81.4744504 88.978096 79.372264 89.85401 77.0948884 90.14598" />
<path class="stroke" d="M 70.38918819999999 21.459457 C 67.08107799999999 45.459457 65.524321 59.72973 56.9621602 72.7027" />
</svg>
