<?xml version="1.0" standalone="no"?>
<!DOCTYPE svg PUBLIC "-//W3C//DTD SVG 1.1//EN" "http://www.w3.org/Graphics/SVG/1.1/DTD/svg11.dtd">
<svg xmlns="http://www.w3.org/2000/svg" version="1.1" width="100%" height="100%">
<style type="text/css"><![CDATA[
  .stroke { fill:none; stroke:black; stroke-width:2 }
]]></style>
<path class="stroke" d="M 39.59 9.3785472 L 7.09779 11.36592" />
<path class="stroke" d="M 6.78233 19.050485279999997 L 39.9053 19.050485279999997" />
<path class="stroke" d="M 23.5015 10.9684677 L 23.5015 45.5489157" />
<path class="stroke" d="M 6.15142 36.009462 C 13.0915 30.533123999999997 19.7161 24.924276 23.5016 19.050492 C 26.8665 23.334366 32.124 27.353346 39.2744 30.974795999999998" />
<path class="stroke" d="M 56.2481752 9.89343066 C 55.3722628 12.8364954 49.455496600000004 23.43769524 43.80104638 25.94450136" />
<path class="stroke" d="M 54.4963498 14.55328404 C 72.71532579999999 14.55328404 78.3211642 14.55328404 94.087588 14.55328404 C 93.562039 31.8437949 88.656934 37.97518212 83.75182000000001 41.899269000000004 C 81.4744504 43.370800319999994 79.372264 43.7386842 77.0948884 43.86131159999999" />
<path class="stroke" d="M 70.38918819999999 15.01297194 C 67.08107799999999 25.092971939999998 65.524321 31.0864866 56.9621602 36.535134" />
<path class="stroke" d="M 50.14598 43.0661594448 C 38.75912 52.51269962320001 25.912407 59.9217512784 9.854013 64.3671804952" />
<path class="stroke" d="M 50.14598 43.0661594448 C 61.824814 52.142246184 73.795616 59.9217512784 90.43795 64.1819553616" />
<path class="stroke" d="M 52.808104 58.64345861699999 L 52.808104 92.110784768 L 45.636124599999995 91.70837399" />
<path class="stroke" d="M 20.8664915 64.210471117 C 28.3272253 66.22251177 34.8926715 68.63696192 38.772249200000005 71.45382114" />
<path class="stroke" d="M 43.845550349999996 73.734134791 C 36.981674 77.892354731 26.53664725 80.97748823 12.8088993 82.85539152999999" />
<path class="stroke" d="M 80.5523505 63.137382540999994 C 77.5680642 66.490784768 72.494764 69.44178006 66.227747 71.051413778" />
<path class="stroke" d="M 62.97567185 73.73848464 C 77.26963119999999 76.55099486499999 82.64135775 78.831307235 93.1702695 83.2940529" />
</svg>
