<?xml version="1.0" standalone="no"?>
<!DOCTYPE svg PUBLIC "-//W3C//DTD SVG 1.1//EN" "http://www.w3.org/Graphics/SVG/1.1/DTD/svg11.dtd">
<svg xmlns="http://www.w3.org/2000/svg" version="1.1" width="100%" height="100%">
<style type="text/css"><![CDATA[
  .stroke { fill:none; stroke:black; stroke-width:2 }
]]></style>
<path class="stroke" d="M 19.3445238 11.03211528 C 19.237616999999997 15.7500156 16.681497 21.2239596 14.386238999999998 21.4055676" />
<path class="stroke" d="M 9.043794899999998 21.57810108 L 9.043794899999998 79.458396" />
<path class="stroke" d="M 9.043794899999998 21.4063194 L 33.201459480000004 21.4063194 L 33.201459480000004 79.458396" />
<path class="stroke" d="M 9.043794899999998 48.669729 L 33.201459480000004 48.669729" />
<path class="stroke" d="M 9.043794899999998 76.9397904 L 33.201459480000004 76.9397904" />
<path class="stroke" d="M 53.376961 9.93691 C 53.376961 20.8728 50.95743 28.0231 47.235002 34.2271" />
<path class="stroke" d="M 53.190875 22.555246 L 91.159322 22.555246" />
<path class="stroke" d="M 70.686145 6.15142 L 70.686145 45.8991" />
<path class="stroke" d="M 45.18769492 46.52997 L 95.99841939999999 46.52997" />
<path class="stroke" d="M 55.547590824 62.98175125 L 55.547590824 90.3102175" />
<path class="stroke" d="M 55.547590824 62.98175125 L 85.59021759999999 62.98175125 L 85.59021759999999 90.04744450000001" />
<path class="stroke" d="M 55.547590824 88.2080272 L 85.59021759999999 88.2080272" />
</svg>
