<?xml version="1.0" standalone="no"?>
<!DOCTYPE svg PUBLIC "-//W3C//DTD SVG 1.1//EN" "http://www.w3.org/Graphics/SVG/1.1/DTD/svg11.dtd">
<svg xmlns="http://www.w3.org/2000/svg" version="1.1" width="100%" height="100%">
<style type="text/css"><![CDATA[
  .stroke { fill:none; stroke:black; stroke-width:2 }
]]></style>
<path class="stroke" d="M 18.430655833333333 9.562042 C 21.350365 11.021896 24.27007 14.817516 26.216541666666668 19.48905" />
<path class="stroke" d="M 8.2116775 22.8707 L 35.46228333333334 22.8707" />
<path class="stroke" d="M 13.564475000000002 37.007298 L 30.109488333333335 37.007298" />
<path class="stroke" d="M 13.564475000000002 51.313866 L 30.109488333333335 51.313866" />
<path class="stroke" d="M 12.59124 64.45255 L 12.59124 85.76642" />
<path class="stroke" d="M 12.59124 64.16058 L 31.569341666666666 64.16058 L 31.569341666666666 85.76642" />
<path class="stroke" d="M 12.59124 85.76642 L 31.326033333333335 85.76642" />
<path class="stroke" d="M 70.18927359999999 6.78233 L 70.18927359999999 15.6151" />
<path class="stroke" d="M 43.8801262 15.93057 L 96.119896 15.93057" />
<path class="stroke" d="M 67.72876 22.23976 C 65.4574 29.49536 62.239779999999996 34.85806 58.454260000000005 39.58996 M 51.26188 32.96526 C 57.634119999999996 37.80236 62.30284 46.74036 65.83594 57.25546" />
<path class="stroke" d="M 79.27444 33.91161 C 72.52372 54.31131 60.662499999999994 66.82441 47.66566 71.13561" />
<path class="stroke" d="M 86.46682 50.3154 C 78.76966 73.5542 64.8265 89.5374 44.44795 93.2177" />
<path class="stroke" d="M 75.67828 73.0284 C 82.36588 77.3396 87.1609 84.4901 92.1451 93.2177" />
</svg>
