<?xml version="1.0" standalone="no"?>
<!DOCTYPE svg PUBLIC "-//W3C//DTD SVG 1.1//EN" "http://www.w3.org/Graphics/SVG/1.1/DTD/svg11.dtd">
<svg xmlns="http://www.w3.org/2000/svg" version="1.1" width="100%" height="100%">
<style type="text/css"><![CDATA[
  .stroke { fill:none; stroke:black; stroke-width:2 }
]]></style>
<path class="stroke" d="M 11.9306925 9.90099 C 13.861385 13.762377 15.49505 18.811882 16.5346525 24.158417" />
<path class="stroke" d="M 36.28713 10.198019 C 35.544555 16.138615 34.20792 20.891088 32.27723 24.158417" />
<path class="stroke" d="M 11.039604 29.80198 L 38.811882 29.80198" />
<path class="stroke" d="M 12.376238 47.0297 L 37.623765 47.0297" />
<path class="stroke" d="M 11.5405405 68.48648 L 37.408375 62.251305" />
<path class="stroke" d="M 24.837837 29.891891 C 24.675675 86.64864 17.216215 86.97297 10.7297285 94.43243" />
<path class="stroke" d="M 49.8613864 9.60396 L 67.1485144 9.60396 L 67.1485144 85.346535 C 67.1485144 88.61386 66.0792082 90.09901 64.475248 90.09901 L 62.336633199999994 90.09901" />
<path class="stroke" d="M 47.0099008 28.019802 C 51.10891 30.396038 54.851485600000004 34.554455 57.524752 40.19802" />
<path class="stroke" d="M 47.3663362 68.11881 L 58.59406 52.673267" />
<path class="stroke" d="M 76.7722792 9.60396 L 93.34653399999999 9.60396 L 93.34653399999999 84.455444 C 93.34653399999999 87.72277 92.455444 89.80198 90.495052 89.80198 L 88.712872 89.80198" />
<path class="stroke" d="M 74.9900998 27.128712 C 78.910894 29.20792 81.940594 33.366337 84.43564 39.90099" />
<path class="stroke" d="M 74.9900998 67.52475 L 86.039602 52.07921" />
</svg>
