<?xml version="1.0" standalone="no"?>
<!DOCTYPE svg PUBLIC "-//W3C//DTD SVG 1.1//EN" "http://www.w3.org/Graphics/SVG/1.1/DTD/svg11.dtd">
<svg xmlns="http://www.w3.org/2000/svg" version="1.1" width="100%" height="100%">
<style type="text/css"><![CDATA[
  .stroke { fill:none; stroke:black; stroke-width:2 }
]]></style>
<path class="stroke" d="M 23.97 8.370205956 L 23.97 17.549999999999997" />
<path class="stroke" d="M 5.593 17.549999999999997 L 42.347 17.549999999999997" />
<path class="stroke" d="M 11.588758792 27.6712770625 L 11.588758792 42.398283875" />
<path class="stroke" d="M 11.588758792 27.6712770625 L 35.521020799999995 27.6712770625 L 35.521020799999995 42.256678425000004" />
<path class="stroke" d="M 11.588758792 41.265436879999996 L 35.521020799999995 41.265436879999996" />
<path class="stroke" d="M 5.274161682000001 54.3643832571 L 37.92518736 54.3643832571 C 32.98637472 59.7596799121 30.10540632 59.913832059899995 24.89221473 61.30119426059999" />
<path class="stroke" d="M 24.755025678 62.0719502466 C 24.61783578 82.72823063399998 24.89221473 88.123527289 22.498246230000003 90.87987279 C 21.75722637 91.9900618945 21.01620228 92.267610953 19.781166219 92.406384294" />
<path class="stroke" d="M 6.234486315 73.479149296 L 41.354917889999996 67.77554929600001" />
<path class="stroke" d="M 54.16237792 9.90099 C 52.02376264 22.673267 46.891090000000005 37.82178 38.978217279999996 46.435642" />
<path class="stroke" d="M 46.67722768 35.742573 L 82.8197992 35.742573" />
<path class="stroke" d="M 66.138616 36.039604 C 62.598915999999996 58.10811 59.7967552 64.27026 49.52216152 74.32432" />
<path class="stroke" d="M 46.67722768 43.465347 C 51.382177119999994 61.58416 74.2653424 90.09901 86.8831696 90.09901" />
</svg>
