<?xml version="1.0" standalone="no"?>
<!DOCTYPE svg PUBLIC "-//W3C//DTD SVG 1.1//EN" "http://www.w3.org/Graphics/SVG/1.1/DTD/svg11.dtd">
<svg xmlns="http://www.w3.org/2000/svg" version="1.1" width="100%" height="100%">
<style type="text/css"><![CDATA[
  .stroke { fill:none; stroke:black; stroke-width:2 }
]]></style>
<path class="stroke" d="M 45.347 7.689282 C 44.455304 10.168773 42.503672 12.534702 40.400624 13.509465" />
<path class="stroke" d="M 13.649633 16.39050975 L 13.649633 30.405109500000002" />
<path class="stroke" d="M 13.649633 16.39050975 L 86.642334 16.39050975 L 86.642334 30.405109500000002" />
<path class="stroke" d="M 36.75083 16.39050975 L 36.75083 30.405109500000002" />
<path class="stroke" d="M 63.249256 16.39050975 L 63.249256 30.405109500000002" />
<path class="stroke" d="M 13.649633 30.4116975 L 86.83168 30.4116975" />
<path class="stroke" d="M 18.321167 43.855882752 L 81.678825 43.855882752" />
<path class="stroke" d="M 50.0 35.2752113312 L 50.0 55.04139910399999" />
<path class="stroke" d="M 9.854013 55.04139910399999 L 89.85401 55.04139910399999" />
<path class="stroke" d="M 33.036648 56.30324619648 C 38.714947 58.5240650112 39.310123 61.3770741504 41.518322 64.3974035328" />
<path class="stroke" d="M 65.39267 56.1705548544 C 59.924873 58.3913866368 59.224396 61.376005056000004 56.910995 64.6627843584" />
<path class="stroke" d="M 23.298428 65.019566208 L 75.75916 65.019566208" />
<path class="stroke" d="M 11.198699 78.34448255999999 L 87.5394 78.34448255999999" />
<path class="stroke" d="M 49.36907 65.15280383999999 L 49.36907 93.93463296" />
</svg>
