<?xml version="1.0" standalone="no"?>
<!DOCTYPE svg PUBLIC "-//W3C//DTD SVG 1.1//EN" "http://www.w3.org/Graphics/SVG/1.1/DTD/svg11.dtd">
<svg xmlns="http://www.w3.org/2000/svg" version="1.1" width="100%" height="100%">
<style type="text/css"><![CDATA[
  .stroke { fill:none; stroke:black; stroke-width:2 }
]]></style>
<path class="stroke" d="M 32.4326692 7.6 L 32.4326692 24.07531184" />
<path class="stroke" d="M 12.768139 9.0189292 C 16.12774 11.588868 18.777610000000003 15.143016000000001 20.149839999999998 19.681368" />
<path class="stroke" d="M 50.102515 9.0189292 C 48.25711 13.77604 46.1278 17.056772000000002 42.720805000000006 19.845428" />
<path class="stroke" d="M 14.4716095 24.274424000000003 L 14.4716095 54.621468" />
<path class="stroke" d="M 14.613579999999999 24.274424000000003 L 50.8123 24.274424000000003 L 50.8123 51.832812000000004 C 50.95423 53.746567999999996 49.960585 54.676120000000004 48.682945000000004 54.621468 L 47.263375 54.621468" />
<path class="stroke" d="M 32.29800625 24.07531184 L 32.358025 53.309143999999996" />
<path class="stroke" d="M 27.3154627 32.167083840000004 C 26.5074814 36.2129688 24.8915215 41.6593552 20.8516222 44.9271808" />
<path class="stroke" d="M 38.08852885 32.478305920000004 C 39.704491000000004 34.19002632 42.8017465 38.858354399999996 43.340401 44.9271808" />
<path class="stroke" d="M 71.35148620000001 10.148514800000001 C 70.01485165 16.79009884 66.80693125 24.667325599999998 61.8613858 29.14653384" />
<path class="stroke" d="M 66.6732673 23.586137960000002 L 89.2623745 23.586137960000002" />
<path class="stroke" d="M 78.836635 23.740594079999997 C 77.23267299999999 36.86930864 70.41584215 47.83564272 59.722772500000005 51.6970296" />
<path class="stroke" d="M 66.6732673 27.601980440000002 C 69.6138607 37.0237632 83.915839 51.851485200000006 91.801981 51.851485200000006" />
<path class="stroke" d="M 23.576641 62.01605764 L 23.576641 96.10656639999999" />
<path class="stroke" d="M 23.576641 62.01605764 L 76.131386 62.01605764 L 76.131386 95.98393899999999" />
<path class="stroke" d="M 23.576641 72.42958216 L 76.131386 72.42958216" />
<path class="stroke" d="M 23.576641 84.1222528 L 76.131386 84.1222528" />
<path class="stroke" d="M 23.576641 94.8802882 L 76.131386 94.8802882" />
</svg>
