<?xml version="1.0" standalone="no"?>
<!DOCTYPE svg PUBLIC "-//W3C//DTD SVG 1.1//EN" "http://www.w3.org/Graphics/SVG/1.1/DTD/svg11.dtd">
<svg xmlns="http://www.w3.org/2000/svg" version="1.1" width="100%" height="100%">
<style type="text/css"><![CDATA[
  .stroke { fill:none; stroke:black; stroke-width:2 }
]]></style>
<path class="stroke" d="M 14.960604255319149 17.339790190000002 L 14.960604255319149 63.705101 C 14.86211914893617 75.76187300000001 12.991744680851063 85.23506400000001 8.463451914893618 91.26345" />
<path class="stroke" d="M 30.317353191489364 12.76596821 L 30.317353191489364 33.8501304" />
<path class="stroke" d="M 14.960510638297873 34.13724905 L 41.53950638297872 34.13724905" />
<path class="stroke" d="M 15.255891063829786 55.0930521 L 30.61264 55.0930521 L 30.61264 88.3926821" />
<path class="stroke" d="M 43.859303488 24.670265152 L 88.05869128 24.670265152" />
<path class="stroke" d="M 65.4820264 11.8601904544 L 65.4820264 39.046038591999995" />
<path class="stroke" d="M 77.88329920000001 11.8601859424 L 77.88329920000001 39.046038591999995" />
<path class="stroke" d="M 65.4820264 39.046038591999995 L 77.88329920000001 39.046038591999995" />
<path class="stroke" d="M 53.5577392 11.860187296 L 53.5577392 51.00213472 L 84.8788696 51.00213472" />
<path class="stroke" d="M 43.6131376 61.10948224 L 90.211678 61.10948224" />
<path class="stroke" d="M 67.087588 53.82189568 L 67.087588 90.0317824" />
<path class="stroke" d="M 65.3357656 63.35182144 C 58.328465800000004 73.4423296 51.1459846 81.0102112 44.8394158 85.21458879999999" />
<path class="stroke" d="M 68.839414 63.35182144 C 75.496348 74.00291200000001 82.328464 80.72992 88.9854004 85.21458879999999" />
</svg>
