<?xml version="1.0" standalone="no"?>
<!DOCTYPE svg PUBLIC "-//W3C//DTD SVG 1.1//EN" "http://www.w3.org/Graphics/SVG/1.1/DTD/svg11.dtd">
<svg xmlns="http://www.w3.org/2000/svg" version="1.1" width="100%" height="100%">
<style type="text/css"><![CDATA[
  .stroke { fill:none; stroke:black; stroke-width:2 }
]]></style>
<path class="stroke" d="M 5.580291750000001 20.905108 L 49.09853575 20.905108" />
<path class="stroke" d="M 27.500023100000003 9.9562039 L 27.500023100000003 33.868612" />
<path class="stroke" d="M 9.594889150000002 33.868612 L 45.24452350000001 33.868612" />
<path class="stroke" d="M 13.448904150000002 43.851091999999994 L 41.87226230000001 43.851091999999994 L 41.87226230000001 57.468612400000005" />
<path class="stroke" d="M 27.580289000000004 44.108025600000005 L 27.580289000000004 57.2116744" />
<path class="stroke" d="M 13.288320650000001 57.72554512 L 41.87226230000001 57.72554512" />
<path class="stroke" d="M 13.288320650000001 43.851091999999994 L 13.288320650000001 61.32262696 C 13.288320650000001 69.2875888 11.36131315 80.33576000000001 7.346714100000001 88.8145952" />
<path class="stroke" d="M 63.301263000000006 6.5157777 L 63.301263000000006 21.591522 C 63.189804 33.26022 57.226615 38.79657 50.4274464 41.266584" />
<path class="stroke" d="M 63.468478000000005 6.5157696000000005 L 81.52526 6.5157696000000005 L 81.52526 29.768067000000002 C 81.358045 33.089796 82.695606 35.133993000000004 84.534706 35.133993000000004 L 96.1429303 35.133993000000004" />
<path class="stroke" d="M 58.118287 43.0552341 L 86.039482 43.0552341 C 78.96165 62.5599531 66.032088 72.09940410000002 51.430598599999996 76.2728481" />
<path class="stroke" d="M 62.130917 43.0552341 C 64.750283 61.282340100000006 79.741863 74.6546301 96.238166 76.0173741" />
</svg>
