<?xml version="1.0" standalone="no"?>
<!DOCTYPE svg PUBLIC "-//W3C//DTD SVG 1.1//EN" "http://www.w3.org/Graphics/SVG/1.1/DTD/svg11.dtd">
<svg xmlns="http://www.w3.org/2000/svg" version="1.1" width="100%" height="100%">
<style type="text/css"><![CDATA[
  .stroke { fill:none; stroke:black; stroke-width:2 }
]]></style>
<path class="stroke" d="M 5.580291750000001 12.124962639999998 L 49.09853575 12.124962639999998" />
<path class="stroke" d="M 27.500023100000003 5.774598262 L 27.500023100000003 19.643794959999997" />
<path class="stroke" d="M 9.594889150000002 19.643794959999997 L 45.24452350000001 19.643794959999997" />
<path class="stroke" d="M 13.448904150000002 25.433633359999995 L 41.87226230000001 25.433633359999995 L 41.87226230000001 33.331795192" />
<path class="stroke" d="M 27.580289000000004 25.582654848 L 27.580289000000004 33.182771152" />
<path class="stroke" d="M 13.288320650000001 33.4808161696 L 41.87226230000001 33.4808161696" />
<path class="stroke" d="M 13.288320650000001 25.433633359999995 L 13.288320650000001 35.5671236368 C 13.288320650000001 40.186801503999995 11.36131315 46.594740800000004 7.346714100000001 51.512465215999995" />
<path class="stroke" d="M 63.301263000000006 3.779151066 L 63.301263000000006 12.52308276 C 63.189804 19.290927599999996 57.226615 22.5020106 50.4274464 23.93461872" />
<path class="stroke" d="M 63.468478000000005 3.779146368 L 81.52526 3.779146368 L 81.52526 17.26547886 C 81.358045 19.192081679999998 82.695606 20.37771594 84.534706 20.37771594 L 96.1429303 20.37771594" />
<path class="stroke" d="M 58.118287 24.972035778 L 86.039482 24.972035778 C 78.96165 36.284772798 66.032088 41.81765437800001 51.430598599999996 44.238251898" />
<path class="stroke" d="M 62.130917 24.972035778 C 64.750283 35.543757258 79.741863 43.299685458 96.238166 44.090076978" />
<path class="stroke" d="M 76.8406833 50.649053125 C 60.4873503 51.721611175 40.045785300000006 52.472382175 20.1151683 52.660087675" />
<path class="stroke" d="M 14.49368973 59.6585104 L 83.4842304 59.6585104" />
<path class="stroke" d="M 48.733416000000005 52.177453 L 48.733416000000005 73.172725" />
<path class="stroke" d="M 48.73345002000001 59.658535900000004 C 40.04571645 63.814678900000004 29.569417020000003 67.4077309 15.004734930000001 70.4377174" />
<path class="stroke" d="M 48.73345002000001 59.658535900000004 C 57.3359724 64.0291849 66.96055764000002 67.2736774 82.97320140000001 70.3572649" />
<path class="stroke" d="M 29.043062820000003 78.055109275 L 29.043062820000003 96.8171512" />
<path class="stroke" d="M 29.043062820000003 78.055109275 L 69.72043500000001 78.055109275 L 69.72043500000001 96.8171512" />
<path class="stroke" d="M 29.27956095 86.925038965 L 69.4839393 86.925038965" />
<path class="stroke" d="M 29.043062820000003 95.99817382 L 69.72043500000001 95.99817382" />
</svg>
