<?xml version="1.0" standalone="no"?>
<!DOCTYPE svg PUBLIC "-//W3C//DTD SVG 1.1//EN" "http://www.w3.org/Graphics/SVG/1.1/DTD/svg11.dtd">
<svg xmlns="http://www.w3.org/2000/svg" version="1.1" width="100%" height="100%">
<style type="text/css"><![CDATA[
  .stroke { fill:none; stroke:black; stroke-width:2 }
]]></style>
<path class="stroke" d="M 26.0 7.837837 C 25.684498 12.885158 25.027027 13.027025 23.729729 14.648647" />
<path class="stroke" d="M 7.905758 17.643978 L 7.5135136 53.567566" />
<path class="stroke" d="M 7.837837 17.891891 L 45.783783 17.891891 L 45.783783 53.24324" />
<path class="stroke" d="M 26.648647 17.958115 L 26.648647 54.08377" />
<path class="stroke" d="M 7.905758 35.72973 L 45.602093 35.72973" />
<path class="stroke" d="M 7.277487 53.76963 L 45.602093 53.76963" />
<path class="stroke" d="M 21.135134 59.72973 C 18.540539 76.918915 16.594593 82.1081 6.78233 94.4795" />
<path class="stroke" d="M 30.216213 53.76963 L 30.216213 88.27026 C 29.891891 91.189186 30.540539 92.48648 33.13513 93.45946 L 88.8013 93.5332 C 91.325 93.7261 93.1901 92.9022 93.2177 90.0631 L 93.2177 82.8076" />
<path class="stroke" d="M 44.486485 62.0 C 42.54054 68.48648 41.567566 71.4054 37.999996 80.162155 C 44.16216 77.89189 48.92514 75.76935 53.14136 75.44502" />
<path class="stroke" d="M 49.999996 71.72973 C 53.364902 75.304924 52.59459 74.97297 54.86486 78.86486" />
<path class="stroke" d="M 65.48175 14.912407799999999 C 68.4014585 16.7518242 70.883211 20.1678804 73.07299 24.897807" />
<path class="stroke" d="M 63.145984999999996 32.7810195 C 65.627737 34.620435 68.1094875 37.7737218 70.4452535 42.5036484" />
<path class="stroke" d="M 57.4525535 64.051092 L 93.07299 50.124085199999996" />
<path class="stroke" d="M 80.08028999999999 8.6058378 L 80.08028999999999 80.868609" />
</svg>
