<?xml version="1.0" standalone="no"?>
<!DOCTYPE svg PUBLIC "-//W3C//DTD SVG 1.1//EN" "http://www.w3.org/Graphics/SVG/1.1/DTD/svg11.dtd">
<svg xmlns="http://www.w3.org/2000/svg" version="1.1" width="100%" height="100%">
<style type="text/css"><![CDATA[
  .stroke { fill:none; stroke:black; stroke-width:2 }
]]></style>
<path class="stroke" d="M 49.85401 6.310947720000001 L 49.85401 12.09197022" />
<path class="stroke" d="M 19.781021 12.09197022 L 80.21897 12.09197022" />
<path class="stroke" d="M 30.875912 19.22189544 L 30.875912 29.43503442" />
<path class="stroke" d="M 30.875912 19.22189544 L 69.124084 19.22189544 L 69.124084 29.43503442" />
<path class="stroke" d="M 30.875912 29.43503442 L 69.124084 29.43503442" />
<path class="stroke" d="M 10.104712 33.62198796 L 6.649214 45.2324598" />
<path class="stroke" d="M 10.104712 35.98685838 L 89.89529 35.98685838 L 89.89529 46.061776200000004" />
<path class="stroke" d="M 31.189186 42.20432436 L 31.151833 53.73298260000001" />
<path class="stroke" d="M 31.513512 42.4183716 L 68.81081 42.4183716 L 68.81081 53.73298260000001" />
<path class="stroke" d="M 31.46597 53.73298260000001 L 68.84817 53.73298260000001" />
<path class="stroke" d="M 24.007298799999997 61.10072974 L 24.007298799999997 90.65401" />
<path class="stroke" d="M 24.007298799999997 61.10072974 L 77.0583881 61.10072974 L 77.0583881 91.2671512 C 77.0583881 91.8802882 73.7007239 92.8613116 69.0 92.7386842 L 64.9707979 92.7386842" />
<path class="stroke" d="M 24.007298799999997 69.3167878 L 77.0583881 69.3167878" />
<path class="stroke" d="M 24.007298799999997 77.77810108 L 76.38685939999999 77.77810108" />
</svg>
