<?xml version="1.0" standalone="no"?>
<!DOCTYPE svg PUBLIC "-//W3C//DTD SVG 1.1//EN" "http://www.w3.org/Graphics/SVG/1.1/DTD/svg11.dtd">
<svg xmlns="http://www.w3.org/2000/svg" version="1.1" width="100%" height="100%">
<style type="text/css"><![CDATA[
  .stroke { fill:none; stroke:black; stroke-width:2 }
]]></style>
<path class="stroke" d="M 5.755414893617022 12.883324000000002 L 42.918995744680856 12.883324000000002 C 36.67024468085106 22.170355999999998 33.381406382978724 24.201900000000002 25.159414893617022 26.813872" />
<path class="stroke" d="M 25.159414893617022 26.813872 L 25.159414893617022 81.375392" />
<path class="stroke" d="M 25.159414893617022 44.8076 L 39.63015744680851 44.8076" />
<path class="stroke" d="M 12.00416595744681 32.90854540000001 L 12.00416595744681 85.72868940000001" />
<path class="stroke" d="M 5.755414893617022 88.050452 L 39.95908297872341 77.312304" />
<path class="stroke" d="M 71.5 7.392605754000003 L 71.5 17.85" />
<path class="stroke" d="M 49.825 17.85 L 93.17500000000001 17.85" />
<path class="stroke" d="M 71.1619847296 19.014065167200002 C 68.303006656 26.3982692985 61.48113568 34.66765086 53.4363202816 40.572546935999995 C 65.4440280928 39.63891156 75.8792988448 39.214533165 87.30430432 39.276612150000005" />
<path class="stroke" d="M 81.740203504 33.952224206400004 C 85.028026624 35.56486733999999 87.88700469759999 38.0262692985 89.74534220800001 41.336428047" />
<path class="stroke" d="M 57.0204829 47.775993 L 57.0204829 72.41324300000001 C 57.1813879 83.51730300000001 53.8027909 89.76354300000001 49.9416421 93.23348750000001" />
<path class="stroke" d="M 69.40856293 49.51103950000001 L 69.40856293 90.457434" />
<path class="stroke" d="M 82.1183122 47.776026 L 82.1183122 87.33444050000001 C 82.1183122 91.151446 83.24449419999999 93.23341600000002 84.37067619999999 93.23341600000002 L 90.80595819999999 93.23341600000002 C 92.25395019999999 93.34902600000001 93.2192272 90.68867600000002 93.2192272 87.3343316 L 93.2192272 82.12935600000002" />
</svg>
