<?xml version="1.0" standalone="no"?>
<!DOCTYPE svg PUBLIC "-//W3C//DTD SVG 1.1//EN" "http://www.w3.org/Graphics/SVG/1.1/DTD/svg11.dtd">
<svg xmlns="http://www.w3.org/2000/svg" version="1.1" width="100%" height="100%">
<style type="text/css"><![CDATA[
  .stroke { fill:none; stroke:black; stroke-width:2 }
]]></style>
<path class="stroke" d="M 52.06204071 4.63138611 C 47.34087349 10.120437149999999 40.37153111000001 13.825547259999999 34.75109321 17.11897685 C 40.14671498 19.589050099999998 46.21678591 22.6080293 52.06204071 26.31313659" />
<path class="stroke" d="M 68.2489014 14.237225899999999 C 56.10875569 25.764231109999997 41.04598335 34.5467155 26.43284481 40.9963469 C 44.41824609 39.07517959999999 60.82992291 38.389047749999996 77.0167836 38.389047749999996" />
<path class="stroke" d="M 72.5204302 33.723355399999996 C 75.547254 35.707122 79.190894 39.166650999999995 79.93941099999999 42.2313847" />
<path class="stroke" d="M 32.335766 47.71532754 L 32.335766 77.35036199999999 C 32.335766 83.92079340000001 32.335766 86.67722599999999 32.335766 93.05148747999999" />
<path class="stroke" d="M 32.335766 47.71532754 L 73.21168 47.71532754 L 73.21168 91.9138662 C 73.21168 93.2686128 72.04379 94.454011 69.124084 94.454011 L 65.91241 94.454011" />
<path class="stroke" d="M 32.335766 60.48029466 L 73.21168 60.48029466" />
<path class="stroke" d="M 32.335766 73.96399488 L 73.21168 73.96399488" />
</svg>
