<?xml version="1.0" standalone="no"?>
<!DOCTYPE svg PUBLIC "-//W3C//DTD SVG 1.1//EN" "http://www.w3.org/Graphics/SVG/1.1/DTD/svg11.dtd">
<svg xmlns="http://www.w3.org/2000/svg" version="1.1" width="100%" height="100%">
<style type="text/css"><![CDATA[
  .stroke { fill:none; stroke:black; stroke-width:2 }
]]></style>
<path class="stroke" d="M 22.08064318 8.709677 L 22.08064318 44.193546 C 22.08064318 69.354836 19.21612834 78.064514 10.383870179999999 88.38709" />
<path class="stroke" d="M 45.757844833099995 7.307189082300001 C 42.8779328289 12.4120065495 38.6266339771 15.8577589518 35.198166858099995 18.920648470499998 C 38.4894961378 21.217816593 42.1922394051 24.025467249 45.757844833099995 27.4712170287" />
<path class="stroke" d="M 55.631829853999996 16.240620087 C 48.2263409709 26.9607349323 39.0380498435 35.128445415 30.1240353341 41.126602617 C 41.0951301149 39.339917027999995 51.1062529751 38.701814407499995 60.980237996 38.701814407499995" />
<path class="stroke" d="M 58.237462422 34.362720522 C 60.08382494 36.20762346 62.306445339999996 39.42498543 62.76304070999999 42.275187771" />
<path class="stroke" d="M 33.724817259999995 47.3752546122 L 33.724817259999995 74.93583665999999 C 33.724817259999995 81.04633786200002 33.724817259999995 83.60982018 33.724817259999995 89.5378833564" />
<path class="stroke" d="M 33.724817259999995 47.3752546122 L 58.6591248 47.3752546122 L 58.6591248 88.47989556600001 C 58.6591248 89.739809904 57.9467119 90.84223023 56.165691239999994 90.84223023 L 54.20657009999999 90.84223023" />
<path class="stroke" d="M 33.724817259999995 59.2466740338 L 58.6591248 59.2466740338" />
<path class="stroke" d="M 33.724817259999995 71.7865152384 L 58.6591248 71.7865152384" />
<path class="stroke" d="M 71.684544 9.60396 L 71.684544 74.0594 C 71.684544 84.15842 74.01980224 89.80198 77.25148544 89.80198 L 94.550496 89.80198 C 95.88118912 89.80198 96.8316832 86.83168 96.8316832 83.26733 L 96.8316832 78.514854" />
</svg>
