<?xml version="1.0" standalone="no"?>
<!DOCTYPE svg PUBLIC "-//W3C//DTD SVG 1.1//EN" "http://www.w3.org/Graphics/SVG/1.1/DTD/svg11.dtd">
<svg xmlns="http://www.w3.org/2000/svg" version="1.1" width="100%" height="100%">
<style type="text/css"><![CDATA[
  .stroke { fill:none; stroke:black; stroke-width:2 }
]]></style>
<path class="stroke" d="M 50.14598 6.11824818 L 50.14598 15.175181340000002" />
<path class="stroke" d="M 11.313868 15.367883520000001 L 88.10219 15.367883520000001" />
<path class="stroke" d="M 27.8248169 26.84610192 L 27.8248169 39.67226208" />
<path class="stroke" d="M 27.8248169 26.84610192 L 72.37956 26.84610192 L 72.37956 39.548933952000006" />
<path class="stroke" d="M 27.8248169 38.6856340992 L 72.37956 38.6856340992" />
<path class="stroke" d="M 9.854013 50.839415 L 9.854013 57.9926985" />
<path class="stroke" d="M 9.854013 50.5474435 L 90.14598 50.5474435 L 90.14598 58.1386835" />
<path class="stroke" d="M 42.04671416 62.92043722 L 42.04671416 74.05328284 C 42.04671416 83.8693413 35.06277336 93.56569123999999 17.60291952 96.07955949999999" />
<path class="stroke" d="M 57.89488808 62.80072993 L 57.89488808 91.0518238 C 57.89488808 94.0445245 61.38686216 95.8401441 65.14744035999999 95.8401441 L 86.09926 95.8401441 C 89.05401479999999 95.9598518 91.202914 95.00218609999999 91.202914 93.6853973 L 91.202914 91.41094853999999" />
</svg>
