<?xml version="1.0" standalone="no"?>
<!DOCTYPE svg PUBLIC "-//W3C//DTD SVG 1.1//EN" "http://www.w3.org/Graphics/SVG/1.1/DTD/svg11.dtd">
<svg xmlns="http://www.w3.org/2000/svg" version="1.1" width="100%" height="100%">
<style type="text/css"><![CDATA[
  .stroke { fill:none; stroke:black; stroke-width:2 }
]]></style>
<path class="stroke" d="M 24.1325 5.878021933333334 C 28.3386 8.3386186 31.2828 11.345917266666667 33.5962 14.900118133333333" />
<path class="stroke" d="M 75.8676 6.151424933333334 C 72.9233 9.6144776 69.6636 12.804070933333334 65.142 14.900105133333334" />
<path class="stroke" d="M 13.0915 21.461648 L 84.3849 21.461648" />
<path class="stroke" d="M 6.15142 37.31858 L 92.9022 37.31858" />
<path class="stroke" d="M 50.0 6.1514180000000005 C 44.97382 34.89354266666667 28.8644 57.00318000000001 6.46688 61.65094" />
<path class="stroke" d="M 55.65445 22.097731933333332 C 60.366493 36.79929933333333 70.1892 56.091793333333335 92.5867 61.10407333333333" />
<path class="stroke" d="M 63.2491 51.638775 L 35.4889 54.241275" />
<path class="stroke" d="M 23.186 64.88804999999999 C 42.7444 64.88804999999999 55.9936 64.88804999999999 75.552 64.88804999999999" />
<path class="stroke" d="M 8.359622 75.53467500000001 L 90.69404 75.53467500000001" />
<path class="stroke" d="M 49.68456 52.821825 L 49.68456 88.783875 C 49.73716 90.9921 47.26606 92.2539 44.794956 92.33279999999999 L 41.16726 92.33279999999999" />
</svg>
