<?xml version="1.0" standalone="no"?>
<!DOCTYPE svg PUBLIC "-//W3C//DTD SVG 1.1//EN" "http://www.w3.org/Graphics/SVG/1.1/DTD/svg11.dtd">
<svg xmlns="http://www.w3.org/2000/svg" version="1.1" width="100%" height="100%">
<style type="text/css"><![CDATA[
  .stroke { fill:none; stroke:black; stroke-width:2 }
]]></style>
<path class="stroke" d="M 10.036495 6.95912364 L 39.9635 6.95912364" />
<path class="stroke" d="M 25.15573 6.95912364 L 25.0821915 33.9106824" />
<path class="stroke" d="M 12.372261 21.551823719999998 L 37.77372 21.551823719999998" />
<path class="stroke" d="M 5.510948 36.880288199999995 L 43.9863 31.4252043" />
<path class="stroke" d="M 60.036495 6.95912364 L 89.96350000000001 6.95912364" />
<path class="stroke" d="M 75.15573 6.95912364 L 75.15573 36.880288199999995" />
<path class="stroke" d="M 62.372261 21.551823719999998 L 87.77372 21.551823719999998" />
<path class="stroke" d="M 55.510948 36.880288199999995 L 94.6350325 36.880288199999995" />
<path class="stroke" d="M 18.406908 45.63882 L 79.08834 45.63882 L 79.08834 64.89745500000001" />
<path class="stroke" d="M 48.6151224 45.812301 L 48.6151224 64.723985" />
<path class="stroke" d="M 18.141972 64.89745500000001 L 79.08834 64.89745500000001" />
<path class="stroke" d="M 18.141972 45.6388255 L 18.141972 87.2791605 C 18.141972 89.88170550000001 19.996859999999998 91.44321049999999 23.706636 91.44321049999999 L 80.41327199999999 91.44321049999999 C 84.123048 91.6745405 86.24295599999999 89.9973705 85.977936 87.4526855 L 85.977936 82.4211205" />
</svg>
