<?xml version="1.0" standalone="no"?>
<!DOCTYPE svg PUBLIC "-//W3C//DTD SVG 1.1//EN" "http://www.w3.org/Graphics/SVG/1.1/DTD/svg11.dtd">
<svg xmlns="http://www.w3.org/2000/svg" version="1.1" width="100%" height="100%">
<style type="text/css"><![CDATA[
  .stroke { fill:none; stroke:black; stroke-width:2 }
]]></style>
<path class="stroke" d="M 10.036495 8.45036442 L 39.9635 8.45036442" />
<path class="stroke" d="M 25.15573 8.45036442 L 25.0821915 41.17725720000001" />
<path class="stroke" d="M 12.372261 26.170071659999998 L 37.77372 26.170071659999998" />
<path class="stroke" d="M 5.510948 44.7832071 L 43.9863 38.159176650000006" />
<path class="stroke" d="M 60.036495 8.45036442 L 89.96350000000001 8.45036442" />
<path class="stroke" d="M 75.15573 8.45036442 L 75.15573 44.7832071" />
<path class="stroke" d="M 62.372261 26.170071659999998 L 87.77372 26.170071659999998" />
<path class="stroke" d="M 55.510948 44.7832071 L 94.6350325 44.7832071" />
<path class="stroke" d="M 23.86758 66.10567 L 44.593050000000005 66.10567" />
<path class="stroke" d="M 23.583621 51.91009375 L 23.583621 88.67664400000001 M 8.820191999999999 91.08989500000001 L 42.60567 85.97946999999999" />
<path class="stroke" d="M 85.47636 62.13091 C 75.82332 66.011035 67.02204 67.61987500000001 53.67819 67.809145" />
<path class="stroke" d="M 53.39424 51.9100915 L 53.39424 88.108825 C 53.29965 89.528395 55.192350000000005 91.08989500000001 58.22076 91.08989500000001 L 81.50160000000001 90.947965 C 85.287 90.75865 87.0852 89.57573500000001 87.17979000000001 87.966895 L 87.17979000000001 83.85016" />
</svg>
