<?xml version="1.0" standalone="no"?>
<!DOCTYPE svg PUBLIC "-//W3C//DTD SVG 1.1//EN" "http://www.w3.org/Graphics/SVG/1.1/DTD/svg11.dtd">
<svg xmlns="http://www.w3.org/2000/svg" version="1.1" width="100%" height="100%">
<style type="text/css"><![CDATA[
  .stroke { fill:none; stroke:black; stroke-width:2 }
]]></style>
<path class="stroke" d="M 5.7160896 9.100673793103446 L 42.283902 9.100673793103446" />
<path class="stroke" d="M 9.160896 22.817619396551724 L 9.160896 41.01900043103448" />
<path class="stroke" d="M 9.160896 22.817619396551724 L 38.574126 22.817619396551724 L 38.574126 41.01900043103448" />
<path class="stroke" d="M 18.5678334 9.364430172413792 L 18.5678334 40.49139568965517" />
<path class="stroke" d="M 28.9022148 9.36450125 L 28.9022148 40.227643491379304" />
<path class="stroke" d="M 9.160896 41.01900043103448 L 38.574126 41.01900043103448" />
<path class="stroke" d="M 9.955829999999999 54.084387 L 38.04417 54.084387" />
<path class="stroke" d="M 5.9810739 68.16009095 L 42.2839062 68.16009095" />
<path class="stroke" d="M 24.1324974 68.3130745 L 24.1324974 91.10962649999999 C 24.1324974 92.74160300000001 23.0725434 93.761558 22.1450994 93.71058449999998 L 20.4226794 93.71058449999998" />
<path class="stroke" d="M 16.712916 74.27993249999999 C 14.283888 80.04284799999999 11.457414 84.73478649999998 6.2460582 88.35569949999999" />
<path class="stroke" d="M 31.817082 74.4329985 C 34.08 76.83972661 36.33492372 79.0086243 37.6216206 82.03053805" />
<path class="stroke" d="M 90.61196799999999 7.41324 C 78.431104 12.7761 63.423744 14.9842 50.031552 14.9842" />
<path class="stroke" d="M 49.8296256 14.9842 L 49.8296256 61.9874 C 49.6277696 73.6593 48.4163136 81.8612 41.9558336 93.8486" />
<path class="stroke" d="M 66.78863552 24.763357 L 66.78863552 85.33126" />
<path class="stroke" d="M 54.876955519999996 90.3785 C 62.48162816 86.9085 70.08623552 84.3848 78.2965376 83.123" />
<path class="stroke" d="M 74.66245632 72.39745 C 77.21976319999999 76.81386 78.96946304 82.49206 79.3059776 89.11676" />
<path class="stroke" d="M 84.5552448 11.829615 L 84.3533248 60.094616 C 84.4879808 74.50062 86.6414528 82.91271 94.2460608 93.53311" />
</svg>
