<?xml version="1.0" standalone="no"?>
<!DOCTYPE svg PUBLIC "-//W3C//DTD SVG 1.1//EN" "http://www.w3.org/Graphics/SVG/1.1/DTD/svg11.dtd">
<svg xmlns="http://www.w3.org/2000/svg" version="1.1" width="100%" height="100%">
<style type="text/css"><![CDATA[
  .stroke { fill:none; stroke:black; stroke-width:2 }
]]></style>
<path class="stroke" d="M 18.454268 5.25 L 28.233467 11.899999999999999" />
<path class="stroke" d="M 38.6435 5.25 L 48.4227 11.899999999999999" />
<path class="stroke" d="M 80.2839 5.25 L 69.5583 11.899999999999999" />
<path class="stroke" d="M 7.5 14.463690499999998 L 7.5 23.296501199999998" />
<path class="stroke" d="M 7.5 14.463690499999998 L 92.5 14.463690499999998 L 92.5 23.296501199999998" />
<path class="stroke" d="M 36.17801 20.33926588 C 35.59407 23.42247656 35.372414 25.194786880000002 33.036648 27.25026096" />
<path class="stroke" d="M 22.041885 26.973822159999997 L 22.041885 70.92774800000001" />
<path class="stroke" d="M 21.727747 27.340996000000004 L 68.9272 27.340996000000004 L 68.9272 50.13333216" />
<path class="stroke" d="M 22.670155 38.91386632 L 68.62069 38.91386632" />
<path class="stroke" d="M 22.356022 50.21897464 L 68.9272 50.21897464" />
<path class="stroke" d="M 22.670155 60.4963512 L 84.24084 60.4963512" />
<path class="stroke" d="M 22.356022 70.2598544 L 84.71264 70.2598544 L 82.87356 82.9057448 C 82.26054 86.8168608 80.57471 91.4022944 77.049805 91.4022944 C 75.057465 91.4022944 74.137924 91.4022944 72.75862 91.4022944" />
<path class="stroke" d="M 18.505747 77.24137312 C 18.199232 79.5340952 16.666666 83.17547888 14.827585 85.4681992" />
<path class="stroke" d="M 33.065132 77.24137312 C 34.291187 79.1294976 35.363983 81.5570876 35.51724 84.3892752" />
<path class="stroke" d="M 51.455936 77.64597072000001 C 53.14176 79.5340952 54.214554 81.5570876 54.980843 83.98467407999999" />
<path class="stroke" d="M 68.16092 77.5111072 C 70.30651 78.7249 71.99233 80.47815568 73.37164 83.0406136" />
</svg>
