<?xml version="1.0" standalone="no"?>
<!DOCTYPE svg PUBLIC "-//W3C//DTD SVG 1.1//EN" "http://www.w3.org/Graphics/SVG/1.1/DTD/svg11.dtd">
<svg xmlns="http://www.w3.org/2000/svg" version="1.1" width="100%" height="100%">
<style type="text/css"><![CDATA[
  .stroke { fill:none; stroke:black; stroke-width:2 }
]]></style>
<path class="stroke" d="M 49.6845 6.5664520728 L 49.6845 28.195181031999997" />
<path class="stroke" d="M 49.85401 16.362071876 L 75.83941 16.362071876" />
<path class="stroke" d="M 9.854013 30.037079639999998 L 9.854013 34.443502276" />
<path class="stroke" d="M 9.854013 29.857225196 L 90.14598 29.857225196 L 90.14598 34.533429036" />
<path class="stroke" d="M 25.7372252 38.76 L 74.26276999999999 38.76" />
<path class="stroke" d="M 33.814713 46.5754767 C 28.91008 50.3291546 21.06267 53.853951120000005 9.618528 57.33296904" />
<path class="stroke" d="M 66.18528 46.5754767 C 71.08991 50.3291546 78.28338 53.853951120000005 90.38147 57.33296904" />
<path class="stroke" d="M 50.14598 52.589780160000004 C 38.75912 59.73722544 25.912407 65.34306527999999 9.854013 68.70656783999999" />
<path class="stroke" d="M 48.851673 54.36172224 C 63.20574 58.35789456 60.088364 57.2441016 74.11483 62.62966368" />
<path class="stroke" d="M 27.040144849999997 67.44233512 L 27.040144849999997 96.66277120000001" />
<path class="stroke" d="M 27.040144849999997 67.44233512 L 71.7116781 67.44233512 L 71.7116781 96.557662" />
<path class="stroke" d="M 27.040144849999997 76.36821327999999 L 71.7116781 76.36821327999999" />
<path class="stroke" d="M 27.040144849999997 86.3905024 L 71.7116781 86.3905024" />
<path class="stroke" d="M 27.040144849999997 95.6116756 L 71.7116781 95.6116756" />
</svg>
