<?xml version="1.0" standalone="no"?>
<!DOCTYPE svg PUBLIC "-//W3C//DTD SVG 1.1//EN" "http://www.w3.org/Graphics/SVG/1.1/DTD/svg11.dtd">
<svg xmlns="http://www.w3.org/2000/svg" version="1.1" width="100%" height="100%">
<style type="text/css"><![CDATA[
  .stroke { fill:none; stroke:black; stroke-width:2 }
]]></style>
<path class="stroke" d="M 13.154171785714285 14.059406 C 16.654879285714284 16.138615 20.15558785714286 19.108912 23.01980357142857 22.673267" />
<path class="stroke" d="M 10.926448928571428 38.118813 C 14.108912142857141 39.90099 17.927864999999997 42.574257 20.473834285714286 46.138615" />
<path class="stroke" d="M 10.608203571428572 85.64356 C 11.321795357142857 87.422676 13.310014285714285 89.896904 15.629600357142856 89.896904 C 17.949189642857142 89.896904 21.110325 76.73267 23.33804892857143 69.60396" />
<path class="stroke" d="M 47.10495016 34.03564288 L 80.68119039999999 34.03564288" />
<path class="stroke" d="M 64.0 15.98248048 L 64.0 54.56633632" />
<path class="stroke" d="M 35.34257368 54.56633632 L 92.8712872 54.56633632" />
<path class="stroke" d="M 63.5422474144 57.62919632 C 60.304875184 68.2978091 52.58010951999999 80.245316 43.4705391424 88.7766416 C 57.0675023992 87.427736 68.8839119272 86.81459899999999 81.82105048 86.90429" />
<path class="stroke" d="M 75.520524556 79.21167584 C 79.243500736 81.54160399999999 82.4808729664 85.0978091 84.585166912 89.8802882" />
</svg>
