<?xml version="1.0" standalone="no"?>
<!DOCTYPE svg PUBLIC "-//W3C//DTD SVG 1.1//EN" "http://www.w3.org/Graphics/SVG/1.1/DTD/svg11.dtd">
<svg xmlns="http://www.w3.org/2000/svg" version="1.1" width="100%" height="100%">
<style type="text/css"><![CDATA[
  .stroke { fill:none; stroke:black; stroke-width:2 }
]]></style>
<path class="stroke" d="M 10.9010809 14.523781869999999 C 12.857285260000001 18.771955069999997 12.943464680000002 18.895192599999998 13.725944949999999 24.27621619" />
<path class="stroke" d="M 34.803781140000005 15.1529714 C 34.216922780000004 20.81720589 33.28270158 21.130269509999998 32.413511920000005 23.647024719999997" />
<path class="stroke" d="M 7.20702652 38.4329714 L 36.97675462 38.4329714" />
<path class="stroke" d="M 6.77243169 58.25243238 L 37.62864921 52.58973049" />
<path class="stroke" d="M 23.0697281 11.06324285 C 22.63513461 65.4881047 25.67729306 72.72378090000001 13.725944949999999 90.0264857" />
<path class="stroke" d="M 48.09926848 9.854013 L 93.6934272 9.854013" />
<path class="stroke" d="M 47.91240832 9.854013 L 47.91240832 31.167881 C 47.91240832 74.67153 45.48321024 81.386856 42.52673216 90.09901" />
<path class="stroke" d="M 58.70415776 34.6732668 L 87.2760416 34.6732668 C 80.77465184 61.910891899999996 69.824950016 75.217824 50.66297024 86.861386" />
<path class="stroke" d="M 58.019801791999996 40.910891899999996 C 60.567740095999994 53.8064501 69.48645036799999 64.4193552 72.45935283200001 69.161291 C 77.84773952 76.38709700000001 87.50967526400001 81.80644799999999 96.68594048 86.861386" />
</svg>
