<?xml version="1.0" standalone="no"?>
<!DOCTYPE svg PUBLIC "-//W3C//DTD SVG 1.1//EN" "http://www.w3.org/Graphics/SVG/1.1/DTD/svg11.dtd">
<svg xmlns="http://www.w3.org/2000/svg" version="1.1" width="100%" height="100%">
<style type="text/css"><![CDATA[
  .stroke { fill:none; stroke:black; stroke-width:2 }
]]></style>
<path class="stroke" d="M 15.401459 23.68467072 L 84.8905 23.68467072" />
<path class="stroke" d="M 49.43925 6.75887808 L 49.065422 6.9981312 C 45.126904 26.5421312 33.364487 33.5551424 6.074766 45.7570112" />
<path class="stroke" d="M 58.037384 23.745793279999997 C 66.26168 31.88037376 72.990654 39.057944320000004 89.81309 46.235513600000004" />
<path class="stroke" d="M 32.5948782 38.24703144 L 32.5948782 70.575786" />
<path class="stroke" d="M 32.5948782 38.409081119999996 L 65.56215799999998 38.54594546" />
<path class="stroke" d="M 32.86114 48.362772 L 64.21763999999999 48.362772" />
<path class="stroke" d="M 32.86114 58.974771 L 63.33438 58.974771" />
<path class="stroke" d="M 19.611987999999997 70.8675144 L 76.58355999999999 70.8675144" />
<path class="stroke" d="M 38.6024 71.233448 C 35.51092 78.125124 29.76966 82.821268 19.611987999999997 88.9811 C 36.0999 86.35863 51.26274 85.199732 66.86742 84.58992" />
<path class="stroke" d="M 58.03468 78.735052 C 64.36492 81.479496 68.04524 84.223998 71.72556 87.517354" />
</svg>
