<?xml version="1.0" standalone="no"?>
<!DOCTYPE svg PUBLIC "-//W3C//DTD SVG 1.1//EN" "http://www.w3.org/Graphics/SVG/1.1/DTD/svg11.dtd">
<svg xmlns="http://www.w3.org/2000/svg" version="1.1" width="100%" height="100%">
<style type="text/css"><![CDATA[
  .stroke { fill:none; stroke:black; stroke-width:2 }
]]></style>
<path class="stroke" d="M 26.763419200000005 10.729925 L 26.763419200000005 23.86861" />
<path class="stroke" d="M 8.13430632 23.86861 L 48.029195200000004 23.86861" />
<path class="stroke" d="M 25.956201600000004 39.343063 L 43.61459760000001 39.343063 C 42.7970788 53.06569 42.14306320000001 62.116783 40.835032000000005 70.29197 C 39.2 79.63503 36.2569312 88.10219 33.6408744 88.10219 L 30.37080144 88.10219" />
<path class="stroke" d="M 26.773720400000002 23.86861 L 25.629196320000002 41.38686 C 24.48467056 60.07299 20.233576160000002 78.46715 13.856932320000002 84.014595" />
<path class="stroke" d="M 74.0759096 8.6058378 C 68.1547424 22.007297700000002 61.47445164 32.5182474 53.12408676 38.824814700000005" />
<path class="stroke" d="M 74.0759096 8.6058378 C 80.14890328000001 21.481749 86.37372031999999 32.5182474 95.02773400000001 38.5620426" />
<path class="stroke" d="M 62.0130156192 51.65405408 C 73.42715560319999 51.34270256 84.47701449600001 59.12648576 88.848385344 63.7967552" />
<path class="stroke" d="M 59.3416214496 77.8075664 C 71.9700312384 77.1848624 84.47701449600001 82.9448624 90.305510832 88.0821584" />
</svg>
