<?xml version="1.0" standalone="no"?>
<!DOCTYPE svg PUBLIC "-//W3C//DTD SVG 1.1//EN" "http://www.w3.org/Graphics/SVG/1.1/DTD/svg11.dtd">
<svg xmlns="http://www.w3.org/2000/svg" version="1.1" width="100%" height="100%">
<style type="text/css"><![CDATA[
  .stroke { fill:none; stroke:black; stroke-width:2 }
]]></style>
<path class="stroke" d="M 26.50447769230769 6.78234 L 13.09749176923077 13.7224" />
<path class="stroke" d="M 12.891263461538461 14.037843 L 12.891263461538461 73.34394 M 5.053378807692308 78.39113 L 29.348776461538463 63.295456" />
<path class="stroke" d="M 29.392110769230772 19.4006 L 29.598399230769232 67.0347 C 29.460895384615384 82.9127 21.89798769230769 92.7971 12.272522307692308 94.795" />
<path class="stroke" d="M 39.7965241 10.2129301 L 61.8186151 10.2129301 L 61.8186151 56.121418" />
<path class="stroke" d="M 40.1656201 33.947992 L 61.572564099999994 33.947992" />
<path class="stroke" d="M 40.0425751 56.121418 L 61.8186151 56.121418" />
<path class="stroke" d="M 39.7965241 10.2129301 L 39.7965241 87.039415 M 34.1372263 90.474715 L 60.834376000000006 77.982697" />
<path class="stroke" d="M 56.6514154 70.1751115 C 60.2192134 73.2979675 62.43375040000001 80.7933565 63.1719034 88.9132375" />
<path class="stroke" d="M 71.282332 9.27602875 L 93.73975300000001 9.27602875 L 93.73975300000001 62.99210314 C 93.73975300000001 67.36433319999999 92.149822 69.5504512 90.162424 69.5504512 L 86.78392299999999 69.5504512" />
<path class="stroke" d="M 71.282332 9.27602875 L 71.282332 93.5977591" />
</svg>
