<?xml version="1.0" standalone="no"?>
<!DOCTYPE svg PUBLIC "-//W3C//DTD SVG 1.1//EN" "http://www.w3.org/Graphics/SVG/1.1/DTD/svg11.dtd">
<svg xmlns="http://www.w3.org/2000/svg" version="1.1" width="100%" height="100%">
<style type="text/css"><![CDATA[
  .stroke { fill:none; stroke:black; stroke-width:2 }
]]></style>
<path class="stroke" d="M 67.06714880000001 6.73941595 C 60.449024 14.178244000000001 36.087296 24.569410000000005 15.30656832 28.418246500000002" />
<path class="stroke" d="M 24.64963392 9.10437889 C 36.625664 11.651422 55.267136 19.34545 65.429056 25.421152" />
<path class="stroke" d="M 46.35036 28.09270058 C 41.7939 48.316383 31.3283 65.433392 9.270073 77.6839378" />
<path class="stroke" d="M 9.854013 42.058319 L 90.43795 42.058319" />
<path class="stroke" d="M 38.80875876 56.8815686485 L 38.80875876 79.08229705 C 38.80875876 84.00445643500001 38.80875876 86.06940465000001 38.80875876 90.844605707" />
<path class="stroke" d="M 38.80875876 56.8815686485 L 73.9620448 56.8815686485 L 73.9620448 89.992370455 C 73.9620448 91.00726252000001 72.9576594 91.895289275 70.44671224 91.895289275 L 67.6846726 91.895289275" />
<path class="stroke" d="M 38.80875876 66.4442897065 L 73.9620448 66.4442897065" />
<path class="stroke" d="M 38.80875876 76.54544099200001 L 73.9620448 76.54544099200001" />
</svg>
