<?xml version="1.0" standalone="no"?>
<!DOCTYPE svg PUBLIC "-//W3C//DTD SVG 1.1//EN" "http://www.w3.org/Graphics/SVG/1.1/DTD/svg11.dtd">
<svg xmlns="http://www.w3.org/2000/svg" version="1.1" width="100%" height="100%">
<style type="text/css"><![CDATA[
  .stroke { fill:none; stroke:black; stroke-width:2 }
]]></style>
<path class="stroke" d="M 42.113514 5.651941666666667 L 42.113514 17.218733333333333" />
<path class="stroke" d="M 56.62463 5.65195 L 56.62463 17.481575" />
<path class="stroke" d="M 14.984257 6.96635 C 19.505756 10.033283333333333 22.134558 13.100283333333334 24.763357 16.95586666666667" />
<path class="stroke" d="M 83.75396 7.492108333333333 C 81.01996 11.172450000000001 77.024254 14.58986666666667 72.71286 17.218700000000002" />
<path class="stroke" d="M 6.151417 17.74445 L 94.164055 17.74445" />
<path class="stroke" d="M 26.831684 20.06600686666667 C 30.69307 22.125412266666665 32.475246 24.184818533333335 35.445545 28.046203333333334" />
<path class="stroke" d="M 69.90099 20.06600686666667 C 67.52475 23.669967399999997 65.44554 26.244224799999998 61.881187 27.788778200000003" />
<path class="stroke" d="M 17.920792 31.135313600000003 L 82.376236 31.135313600000003" />
<path class="stroke" d="M 49.369083 31.392737866666668 L 49.369083 53.2739288" />
<path class="stroke" d="M 22.079208 42.462045466666666 L 77.32674 42.462045466666666" />
<path class="stroke" d="M 10.43140017857143 54.0495049 L 89.58203892857142 54.15513457" />
<path class="stroke" d="M 18.254950839285716 54.0495049 L 18.254950839285716 84.8009902" />
<path class="stroke" d="M 18.254950839285716 63.59306911 L 39.847946785714285 63.59306911" />
<path class="stroke" d="M 18.254950839285716 73.4396029 L 39.847946785714285 73.4396029" />
<path class="stroke" d="M 10.744341446428573 86.16435484 L 39.801589642857145 81.15833407" />
<path class="stroke" d="M 39.847946785714285 54.0495049 L 39.847946785714285 94.7990098" />
<path class="stroke" d="M 49.65555691 61.367500765 L 80.9366355 61.462177929999996 C 74.95445395 76.3455945025 64.87920747999999 83.61688240000001 47.2475247 89.97925735" />
<path class="stroke" d="M 53.04166702 62.00500051 C 56.361288630000004 71.9170959475 64.56774079 77.71629052 67.30322396 80.307419725 C 72.2612881 84.25580657500001 81.15161092 87.2170948 89.5950494 89.97925735" />
</svg>
