<?xml version="1.0" standalone="no"?>
<!DOCTYPE svg PUBLIC "-//W3C//DTD SVG 1.1//EN" "http://www.w3.org/Graphics/SVG/1.1/DTD/svg11.dtd">
<svg xmlns="http://www.w3.org/2000/svg" version="1.1" width="100%" height="100%">
<style type="text/css"><![CDATA[
  .stroke { fill:none; stroke:black; stroke-width:2 }
]]></style>
<path class="stroke" d="M 14.525547 24.295619900000002 L 42.146595 24.295619900000002" />
<path class="stroke" d="M 30.0 9.62408653 L 29.584415 47.00181672" />
<path class="stroke" d="M 30.0 26.056201680000004 C 25.620438 32.90291761 19.197079 40.14087535 10.145985 45.22700615" />
<path class="stroke" d="M 30.0 27.62116758 C 35.547443 30.16423298 38.46715 32.511675800000006 41.38686 35.83722482" />
<path class="stroke" d="M 49.685863 24.295619900000002 L 81.386856 24.295619900000002" />
<path class="stroke" d="M 64.74452 9.62408653 L 64.80519 46.3753225" />
<path class="stroke" d="M 64.16058 26.8386853 C 60.65693 34.467881500000004 51.605835 41.901460480000004 42.846714 46.79196669" />
<path class="stroke" d="M 64.16058 26.6430654 C 69.41605 35.0547412 75.682434 37.725850300000005 84.44156 42.61636120000001" />
<path class="stroke" d="M 26.831684 56.05346556 L 26.831684 68.2792086" />
<path class="stroke" d="M 26.831684 56.05346556 L 72.871284 56.05346556 L 72.871284 68.2792086" />
<path class="stroke" d="M 26.831684 68.2792086 L 72.57426 68.2792086" />
<path class="stroke" d="M 51.2618 68.48102 C 47.6865 71.263387 46.3197 73.582018 45.5836 76.51893100000001" />
<path class="stroke" d="M 23.861385 77.5940596 L 23.861385 92.0029702" />
<path class="stroke" d="M 23.564358 77.5940596 L 76.73267 77.5940596 L 76.73267 92.0029702" />
<path class="stroke" d="M 23.861385 92.0029702 L 76.73267 92.0029702" />
</svg>
