<?xml version="1.0" standalone="no"?>
<!DOCTYPE svg PUBLIC "-//W3C//DTD SVG 1.1//EN" "http://www.w3.org/Graphics/SVG/1.1/DTD/svg11.dtd">
<svg xmlns="http://www.w3.org/2000/svg" version="1.1" width="100%" height="100%">
<style type="text/css"><![CDATA[
  .stroke { fill:none; stroke:black; stroke-width:2 }
]]></style>
<path class="stroke" d="M 12.189779 8.6313865 L 87.81021 8.6313865" />
<path class="stroke" d="M 34.67153 4.61678745 L 34.67153 12.96715255" />
<path class="stroke" d="M 65.32846 4.61678745 L 65.32846 12.96715255" />
<path class="stroke" d="M 24.744522 21.7401457 L 24.744522 46.756201600000004" />
<path class="stroke" d="M 24.744522 21.7401457 L 74.9635 21.7401457 L 74.9635 46.756201600000004" />
<path class="stroke" d="M 25.036495 33.56671862 L 74.67153 33.56671862" />
<path class="stroke" d="M 24.744522 45.66423176 L 74.9635 45.66423176" />
<path class="stroke" d="M 15.401459 59.58248132 L 84.8905 59.58248132" />
<path class="stroke" d="M 49.43925 50.59065398 L 49.065422 50.7177572 C 45.126904 61.1005072 33.364487 64.8261694 6.074766 71.30841219999999" />
<path class="stroke" d="M 58.037384 59.61495268 C 66.26168 63.93644856 72.990654 67.74953292000001 89.81309 71.56261660000001" />
<path class="stroke" d="M 24.18978 75.16569226 L 24.18978 89.3291959" />
<path class="stroke" d="M 24.18978 75.16569226 L 76.27736800000001 75.16569226 L 76.27736800000001 88.55839180000001 C 76.27736800000001 90.0036466 74.17517600000001 90.8708008 71.839408 90.96715090000001 L 69.737224 90.96715090000001" />
<path class="stroke" d="M 50.116784 70.25182429 L 50.116784 96.7481734" />
</svg>
