<?xml version="1.0" standalone="no"?>
<!DOCTYPE svg PUBLIC "-//W3C//DTD SVG 1.1//EN" "http://www.w3.org/Graphics/SVG/1.1/DTD/svg11.dtd">
<svg xmlns="http://www.w3.org/2000/svg" version="1.1" width="100%" height="100%">
<style type="text/css"><![CDATA[
  .stroke { fill:none; stroke:black; stroke-width:2 }
]]></style>
<path class="stroke" d="M 49.999996 5.0 C 52.376232 7.6732674 52.793365 10.037088 52.918915 12.702702" />
<path class="stroke" d="M 12.702702 13.675674 L 92.81081 13.351351" />
<path class="stroke" d="M 12.378378 13.999998 L 12.702702 39.62162 C 12.702702 61.30479 14.560343 79.686905 6.5405407 92.162155" />
<path class="stroke" d="M 23.0729923 35.165364517 L 47.9319355 35.165364517" />
<path class="stroke" d="M 37.0 22.9879918199 L 36.6259735 54.011507877599996" />
<path class="stroke" d="M 37.0 36.6266473944 C 33.0583942 42.3094216163 27.2773711 48.3169265405 19.131386499999998 52.5384151045" />
<path class="stroke" d="M 37.0 37.9255690914 C 41.992698700000005 40.0363133734 44.620435 41.984690914000005 47.248174 44.7448966006" />
<path class="stroke" d="M 54.7172767 35.165364517 L 83.24817039999999 35.165364517" />
<path class="stroke" d="M 68.270068 22.9879918199 L 68.324671 53.491517675" />
<path class="stroke" d="M 67.74452199999999 37.276108799 C 64.591237 43.608341645 56.4452515 49.7782121984 48.5620426 53.8373323527" />
<path class="stroke" d="M 67.74452199999999 37.113744282 C 72.474445 44.095435196 78.1141906 46.312455749 85.997404 50.371579796000006" />
<path class="stroke" d="M 34.148515599999996 61.524376414799995 L 34.148515599999996 71.67174313800001" />
<path class="stroke" d="M 34.148515599999996 61.524376414799995 L 75.5841556 61.524376414799995 L 75.5841556 71.67174313800001" />
<path class="stroke" d="M 34.148515599999996 71.67174313800001 L 75.316834 71.67174313800001" />
<path class="stroke" d="M 56.13562 71.8392466 C 52.91785 74.14861120999998 51.68773 76.07307494 51.02524 78.51071273" />
<path class="stroke" d="M 31.4752465 79.403069468 L 31.4752465 91.36246526599999" />
<path class="stroke" d="M 31.2079222 79.403069468 L 79.059403 79.403069468 L 79.059403 91.36246526599999" />
<path class="stroke" d="M 31.4752465 91.36246526599999 L 79.059403 91.36246526599999" />
</svg>
