<?xml version="1.0" standalone="no"?>
<!DOCTYPE svg PUBLIC "-//W3C//DTD SVG 1.1//EN" "http://www.w3.org/Graphics/SVG/1.1/DTD/svg11.dtd">
<svg xmlns="http://www.w3.org/2000/svg" version="1.1" width="100%" height="100%">
<style type="text/css"><![CDATA[
  .stroke { fill:none; stroke:black; stroke-width:2 }
]]></style>
<path class="stroke" d="M 13.09144 8.04416 L 13.09144 41.167202" />
<path class="stroke" d="M 13.09144 8.04416 L 40.85174 8.04416 L 40.85174 41.167202" />
<path class="stroke" d="M 13.7224 24.763386 L 40.8517 24.763386" />
<path class="stroke" d="M 13.09144 41.167202 L 40.85174 41.167202" />
<path class="stroke" d="M 6.46688 52.83911 L 47.1609 52.52365" />
<path class="stroke" d="M 26.6562 53.31229 L 26.6562 91.32499" />
<path class="stroke" d="M 26.9716 72.3975 L 43.2178 72.3975" />
<path class="stroke" d="M 15.6151 67.3501 C 15.4048 81.8612 12.6709 88.4858 6.46687 93.5331" />
<path class="stroke" d="M 15.6151 67.3501 C 15.6151 90.694 26.6561 93.2177 30.4416 93.2177 L 93.8486 93.2177" />
<path class="stroke" d="M 79.22772228 24.06930805 C 72.95445616 29.8762369 68.51089175999999 31.39109075 60.31824708 33.441603549999996" />
<path class="stroke" d="M 60.119883200000004 8.415841499999999 L 60.119883200000004 64.46534299999999 C 60.119883200000004 71.7871274 62.760395360000004 75.8267354 66.41980232 75.8267354 L 85.63168424 75.8267354 C 87.33069320000001 75.8267354 88.24554384000001 74.5643545 88.24554384000001 71.2821815 L 88.24554384000001 69.009902" />
</svg>
