<?xml version="1.0" standalone="no"?>
<!DOCTYPE svg PUBLIC "-//W3C//DTD SVG 1.1//EN" "http://www.w3.org/Graphics/SVG/1.1/DTD/svg11.dtd">
<svg xmlns="http://www.w3.org/2000/svg" version="1.1" width="100%" height="100%">
<style type="text/css"><![CDATA[
  .stroke { fill:none; stroke:black; stroke-width:2 }
]]></style>
<path class="stroke" d="M 7.6877441375 15.806859144999999 L 37.018196599999996 15.806859144999999" />
<path class="stroke" d="M 15.455086324999998 5.192033384999999 L 15.455086324999998 67.49645595" />
<path class="stroke" d="M 29.134895299999997 5.1920355795 L 29.134895299999997 67.72720762499999" />
<path class="stroke" d="M 15.571025225 32.652148374999996 L 29.018952725 32.652148374999996" />
<path class="stroke" d="M 15.686956774999997 49.497386399999996 L 29.018974775 49.497386399999996" />
<path class="stroke" d="M 6.8762288 68.18874754999999 L 38.293414250000005 68.18874754999999" />
<path class="stroke" d="M 15.534714999999998 79.3430025 C 14.092008 84.86221749999999 10.794455 87.849065 7.033117 89.472349" />
<path class="stroke" d="M 32.228721 79.34294075000001 C 35.9421615 82.60121655 34.0351354 80.7987803625 36.7367553 84.20337587499999" />
<path class="stroke" d="M 72.08685964 10.145985 C 64.72919485 15.109488 60.65669908 16.877844 53.11509571 17.169813" />
<path class="stroke" d="M 52.50377395 17.169813 L 52.50377395 50.808628 C 52.50377395 71.50944 45.66675628 83.456985 40.15 90.91644" />
<path class="stroke" d="M 52.50377395 34.63612 L 89.1934273 34.37956" />
<path class="stroke" d="M 69.69561904 34.37956 L 69.69561904 90.14598" />
</svg>
