<?xml version="1.0" standalone="no"?>
<!DOCTYPE svg PUBLIC "-//W3C//DTD SVG 1.1//EN" "http://www.w3.org/Graphics/SVG/1.1/DTD/svg11.dtd">
<svg xmlns="http://www.w3.org/2000/svg" version="1.1" width="100%" height="100%">
<style type="text/css"><![CDATA[
  .stroke { fill:none; stroke:black; stroke-width:2 }
]]></style>
<path class="stroke" d="M 45.0 5.45474433 L 45.0 12.72773724" />
<path class="stroke" d="M 14.9351337 13.28702549 L 75.356757 13.28702549" />
<path class="stroke" d="M 24.109487100000003 19.0401465 C 29.364961500000003 23.980291119999997 33.3065682 30.429924399999997 35.408756700000005 36.7423346" />
<path class="stroke" d="M 66.6788265 17.9423346 C 60.37226100000001 23.019706999999997 55.1167875 30.8416068 53.802918 38.9379537" />
<path class="stroke" d="M 6.782337 41.5520512 L 86.64864 41.6389184" />
<path class="stroke" d="M 51.5773 41.5520512 C 40.2208 49.89696 24.1325 55.41536 10.2524 58.712959999999995" />
<path class="stroke" d="M 38.959 49.02208 C 53.2597 55.751872000000006 58.7276 84.891712 49.6845 94.649856 C 46.4248 97.745536 39.3796 95.592 36.4354 95.053632" />
<path class="stroke" d="M 48.7382 58.914816 C 37.1714 65.980992 25.2892 69.817152 8.99054 74.258688" />
<path class="stroke" d="M 52.5237 70.624576 C 44.2166 77.690944 24.5531 84.958976 8.67508 89.19872000000001" />
<path class="stroke" d="M 80.162155 52.22486336 C 73.747856 57.47408 69.34807 59.924256 61.98737 63.356511999999995" />
<path class="stroke" d="M 52.83908 68.20188160000001 C 60.188683 68.72452864 70.617775 72.71643072 75.39084 79.48895040000001" />
</svg>
