<?xml version="1.0" standalone="no"?>
<!DOCTYPE svg PUBLIC "-//W3C//DTD SVG 1.1//EN" "http://www.w3.org/Graphics/SVG/1.1/DTD/svg11.dtd">
<svg xmlns="http://www.w3.org/2000/svg" version="1.1" width="100%" height="100%">
<style type="text/css"><![CDATA[
  .stroke { fill:none; stroke:black; stroke-width:2 }
]]></style>
<path class="stroke" d="M 26.099999999999998 5.0183647836 L 26.099999999999998 11.7095182608" />
<path class="stroke" d="M 8.662377546 12.2240634508 L 43.70691906 12.2240634508" />
<path class="stroke" d="M 13.983502518 17.51693478 C 17.03167767 22.061867830399997 19.317809556 27.995530448 20.537078886 33.802947832" />
<path class="stroke" d="M 38.67371937 16.506947831999998 C 35.015911380000006 21.178130439999997 31.967736749999997 28.374278256000004 31.205692439999996 35.822917404" />
<path class="stroke" d="M 3.93375546 38.227887104000004 L 50.256211199999996 38.307804928" />
<path class="stroke" d="M 29.914834 38.227887104000004 C 23.328063999999998 45.9052032 13.996849999999998 50.982131200000005 5.9463919999999995 54.015923199999996" />
<path class="stroke" d="M 22.59622 45.10031360000001 C 30.890625999999997 51.291722240000006 34.062008 78.10037504 28.817009999999996 87.07786752 C 26.926383999999995 89.92589312000001 22.840168000000002 87.94464 21.132531999999998 87.44934144" />
<path class="stroke" d="M 28.268155999999998 54.201630720000004 C 21.559412 60.70251264 14.667736 64.23177984 5.214513199999999 68.31799296000001" />
<path class="stroke" d="M 30.463745999999997 64.97460992 C 25.645628 71.47566848000001 14.240798 78.16225792000002 5.031546399999999 82.06282240000002" />
<path class="stroke" d="M 46.49404989999999 48.046874291200005 C 42.773756479999996 52.8761536 40.2218806 55.13031552 35.952674599999995 58.28799104" />
<path class="stroke" d="M 30.6466664 62.74573107200001 C 34.90943614 63.226566348800006 40.95830949999999 66.89911626240001 43.72668719999999 73.129834368" />
<path class="stroke" d="M 61.25687571 8.436659 L 61.25687571 31.72507 C 61.25513831 37.11739 59.60404402 39.16442 55.5900266 44.663074" />
<path class="stroke" d="M 61.25687571 7.7897587 L 80.8547207 7.7897587 L 80.8547207 38.194073 C 80.8547207 46.927227 82.03531319999999 44.016174 94.7857195 44.016174" />
<path class="stroke" d="M 53.93719856 53.07278 L 93.3690012 53.07278 C 83.6202892 77.15269 53.21400799999999 89.01161 33.1025226 94.16401" />
<path class="stroke" d="M 56.770621289999994 53.71968 C 60.37842729 76.22229 78.9657727 85.41779 91.24393762 89.9461" />
</svg>
