<?xml version="1.0" standalone="no"?>
<!DOCTYPE svg PUBLIC "-//W3C//DTD SVG 1.1//EN" "http://www.w3.org/Graphics/SVG/1.1/DTD/svg11.dtd">
<svg xmlns="http://www.w3.org/2000/svg" version="1.1" width="100%" height="100%">
<style type="text/css"><![CDATA[
  .stroke { fill:none; stroke:black; stroke-width:2 }
]]></style>
<path class="stroke" d="M 30.6313854 10.145985 C 24.20802725 15.109488 18.105837200000003 17.153284 11.5218972 17.445253" />
<path class="stroke" d="M 11.5218972 17.445253 L 11.5218972 49.562042 C 11.5218972 58.613136 10.39780885 73.50365 7.0255471 84.59853" />
<path class="stroke" d="M 11.5218972 34.37956 L 45.5656905 34.37956" />
<path class="stroke" d="M 28.5437944 34.37956 L 28.5437944 90.14598" />
<path class="stroke" d="M 58.0452534 11.605839 C 57.029196060000004 22.116787 54.3197075 32.627735 50.93284622 39.927006" />
<path class="stroke" d="M 55.505109759999996 26.204376 L 89.54306399999999 26.204376 C 89.20437648 34.37956 87.510947 39.927006 84.29342600000001 45.47445" />
<path class="stroke" d="M 71.25401332 30.875912 C 71.25401332 62.408752 60.753952 79.653 47.71532754 90.14598" />
<path class="stroke" d="M 71.0846684 48.394157 C 74.97956153999999 63.868607 80.73722269999999 80.21897 94.454011 90.14598" />
</svg>
