<?xml version="1.0" standalone="no"?>
<!DOCTYPE svg PUBLIC "-//W3C//DTD SVG 1.1//EN" "http://www.w3.org/Graphics/SVG/1.1/DTD/svg11.dtd">
<svg xmlns="http://www.w3.org/2000/svg" version="1.1" width="100%" height="100%">
<style type="text/css"><![CDATA[
  .stroke { fill:none; stroke:black; stroke-width:2 }
]]></style>
<path class="stroke" d="M 25.3649615 7.25182429 C 22.2992685 11.10583885 17.7737215 13.70729914 14.1240865 16.019707150000002 C 17.627737 17.7540139 21.5693415 19.873722700000002 25.3649615 22.47518101" />
<path class="stroke" d="M 35.87591 13.9963501 C 27.9926985 22.08977929 18.2116775 28.2562045 8.7226265 32.7846691 C 20.4014585 31.4357644 31.0583915 30.95401225 41.56934 30.95401225" />
<path class="stroke" d="M 38.64963 27.6781006 C 40.6151 29.070958 42.9811 31.499989 43.46715 33.651823300000004" />
<path class="stroke" d="M 75.36496149999999 7.25182429 C 72.2992685 11.10583885 67.7737215 13.70729914 64.1240865 16.019707150000002 C 67.627737 17.7540139 71.56934150000001 19.873722700000002 75.36496149999999 22.47518101" />
<path class="stroke" d="M 85.87591 13.9963501 C 77.9926985 22.08977929 68.21167750000001 28.2562045 58.722626500000004 32.7846691 C 70.4014585 31.4357644 81.0583915 30.95401225 91.56934 30.95401225" />
<path class="stroke" d="M 88.64963 27.6781006 C 90.6151 29.070958 92.9811 31.499989 93.46715 33.651823300000004" />
<path class="stroke" d="M 5.0 50.49315 L 95.0 50.49315" />
<path class="stroke" d="M 49.835617 10.054794 L 49.835617 37.0137 C 47.863014 59.369865 77.0242 93.0074 89.7476 93.2176 L 89.7476 82.4922" />
<path class="stroke" d="M 86.328766 59.369865 C 81.5457 68.82226 66.4037 86.38276 44.9526 92.586754" />
<path class="stroke" d="M 78.10959 37.0137 C 82.38356 40.958904 81.72603 38.9863 84.0274 45.56164" />
<path class="stroke" d="M 11.20437928 58.18686054 L 11.20437928 86.1459826" />
<path class="stroke" d="M 11.20437928 58.07591156 L 46.92992416 58.07591156 L 46.92992416 86.1459826" />
<path class="stroke" d="M 29.0671508 58.18686054 L 29.0671508 84.148904" />
<path class="stroke" d="M 11.20437928 71.10493204 L 46.6613136 71.10493204" />
<path class="stroke" d="M 11.20437928 84.148904 L 46.92992416 84.148904" />
</svg>
