<?xml version="1.0" standalone="no"?>
<!DOCTYPE svg PUBLIC "-//W3C//DTD SVG 1.1//EN" "http://www.w3.org/Graphics/SVG/1.1/DTD/svg11.dtd">
<svg xmlns="http://www.w3.org/2000/svg" version="1.1" width="100%" height="100%">
<style type="text/css"><![CDATA[
  .stroke { fill:none; stroke:black; stroke-width:2 }
]]></style>
<path class="stroke" d="M 12.46376 8.990532 L 12.46376 40.53627" />
<path class="stroke" d="M 12.46376 8.990532 L 34.419520000000006 8.990532 L 34.419520000000006 40.53627" />
<path class="stroke" d="M 12.46376 40.53627 L 34.419520000000006 40.53627" />
<path class="stroke" d="M 23.31548 40.5363 L 23.31548 89.1167" />
<path class="stroke" d="M 23.567872 59.1483 L 36.186112 59.1483" />
<path class="stroke" d="M 12.46376 52.5236 L 12.46376 92.2713" />
<path class="stroke" d="M 8.425864 93.8486 L 36.43848 85.6467" />
<path class="stroke" d="M 54.3218957 10.13914234375 L 81.53941344 10.13914234375 C 76.8883219 18.761404374999998 73.6153264 20.996805156249998 67.93065457 23.870892499999997" />
<path class="stroke" d="M 65.1744501 19.719433125 C 67.24160477999999 22.91286375 68.61970672 25.786951093749998 69.48102057999999 29.938410468750003" />
<path class="stroke" d="M 52.77153205 31.88467024 L 52.77153205 70.56496096000001 C 52.77153205 77.2919656 51.73795648 82.54744 48.981751419999995 87.38248048" />
<path class="stroke" d="M 52.77153205 31.88467024 L 86.5350343 31.88467024 L 86.5350343 87.17225919999998 C 86.5350343 88.4335768 85.84598510000001 89.9051056 84.46788079999999 89.9051056 L 83.26204116 89.9051056" />
<path class="stroke" d="M 52.77153205 48.280760799999996 L 86.5350343 48.280760799999996" />
<path class="stroke" d="M 52.77153205 65.31545679999999 L 86.5350343 65.31545679999999" />
<path class="stroke" d="M 69.36120633 32.3051092 L 69.36120633 86.7518224" />
</svg>
