<?xml version="1.0" standalone="no"?>
<!DOCTYPE svg PUBLIC "-//W3C//DTD SVG 1.1//EN" "http://www.w3.org/Graphics/SVG/1.1/DTD/svg11.dtd">
<svg xmlns="http://www.w3.org/2000/svg" version="1.1" width="100%" height="100%">
<style type="text/css"><![CDATA[
  .stroke { fill:none; stroke:black; stroke-width:2 }
]]></style>
<path class="stroke" d="M 6.7354721679999985 28.364963 L 6.7354721679999985 72.510944" />
<path class="stroke" d="M 6.7354721679999985 28.364963 L 39.076494 28.364963 L 39.076494 72.510944" />
<path class="stroke" d="M 6.923502779999998 49.235385799999996 L 38.88846532 49.235385799999996" />
<path class="stroke" d="M 6.7354721679999985 70.5839384 L 39.076494 70.5839384" />
<path class="stroke" d="M 23.0 9.854013 L 23.0 89.85401" />
<path class="stroke" d="M 57.574304823999995 9.576642 L 57.574304823999995 39.007296000000004" />
<path class="stroke" d="M 57.574304823999995 9.576642 L 82.28204199999999 9.576642 L 82.28204199999999 39.007296000000004" />
<path class="stroke" d="M 57.71795554 23.490257200000002 L 82.13839276 23.490257200000002" />
<path class="stroke" d="M 57.574304823999995 37.7226256 L 82.28204199999999 37.7226256" />
<path class="stroke" d="M 45.7372252 45.75 L 94.26276999999999 45.75" />
<path class="stroke" d="M 55.6 45.92484277464 C 55.2108094 50.9196971496 53.0702698 60.5871563808 44.50810816 66.0653833944" />
<path class="stroke" d="M 54.4963498 53.4373131216 C 72.71532579999999 53.4373131216 78.3211642 53.4373131216 94.087588 53.4373131216 C 93.562039 73.889517396 88.656934 81.1420725648 83.75182000000001 85.78370676 C 81.4744504 87.5243180928 79.372264 87.959472168 77.0948884 88.104522864" />
<path class="stroke" d="M 67.109488 53.4373131216 C 65.532844 65.62160387760001 56.7737218 74.75982306240002 47.138686 79.83661332" />
<path class="stroke" d="M 79.19707600000001 53.4373131216 C 77.62043800000001 68.232522864 69.912406 79.401456264 61.854012999999995 83.89804026" />
</svg>
