<?xml version="1.0" standalone="no"?>
<!DOCTYPE svg PUBLIC "-//W3C//DTD SVG 1.1//EN" "http://www.w3.org/Graphics/SVG/1.1/DTD/svg11.dtd">
<svg xmlns="http://www.w3.org/2000/svg" version="1.1" width="100%" height="100%">
<style type="text/css"><![CDATA[
  .stroke { fill:none; stroke:black; stroke-width:2 }
]]></style>
<path class="stroke" d="M 7.09779 9.3205024 L 93.84861 9.3205024" />
<path class="stroke" d="M 50.63091 3.490852 L 50.63091 32.745112" />
<path class="stroke" d="M 18.321167 16.728846490000002 L 18.321167 27.44160526" />
<path class="stroke" d="M 18.321167 16.728846490000002 L 81.9708 16.728846490000002 L 81.9708 27.338598244" />
<path class="stroke" d="M 18.321167 26.6175466624 L 81.9708 26.6175466624" />
<path class="stroke" d="M 9.854013 33.973984707999996 L 9.854013 38.6608160572" />
<path class="stroke" d="M 9.854013 33.7826849812 L 90.14598 33.7826849812 L 90.14598 38.7564654292" />
<path class="stroke" d="M 31.7035 41.13882000000001 C 28.7592 45.96534 22.0295 48.57732 14.3533 49.996872" />
<path class="stroke" d="M 65.7729 41.138766000000004 C 69.7686 45.908478 75.3417 48.29333400000001 83.123 49.996818" />
<path class="stroke" d="M 14.984257 56.66451612903226 L 85.33126 56.66451612903226" />
<path class="stroke" d="M 36.43533 50.15181935483871 L 36.43533 73.59744" />
<path class="stroke" d="M 62.93375 49.9890064516129 L 62.93375 73.5974193548387" />
<path class="stroke" d="M 14.668799 65.45656774193549 L 85.0158 65.45656774193549" />
<path class="stroke" d="M 6.782335 73.92309677419354 L 94.479515 73.92309677419354" />
<path class="stroke" d="M 50.0 78.876976 C 38.5384 84.78232 24.2376 88.719232 7.4132 90.23344" />
<path class="stroke" d="M 28.8643 86.75084799999999 L 28.8643 94.473184 M 17.5079 97.047328 L 49.0536 90.38488000000001" />
<path class="stroke" d="M 82.80749 79.1798416 C 78.496284 82.4100976 73.238686 84.2776336 66.403786 85.9936816" />
<path class="stroke" d="M 50.3154 79.02841599999999 C 60.6204 88.164016 74.0799 93.21136 93.2177 97.350112" />
</svg>
