<?xml version="1.0" standalone="no"?>
<!DOCTYPE svg PUBLIC "-//W3C//DTD SVG 1.1//EN" "http://www.w3.org/Graphics/SVG/1.1/DTD/svg11.dtd">
<svg xmlns="http://www.w3.org/2000/svg" version="1.1" width="100%" height="100%">
<style type="text/css"><![CDATA[
  .stroke { fill:none; stroke:black; stroke-width:2 }
]]></style>
<path class="stroke" d="M 13.999998 19.189188 L 13.999998 64.27026 C 13.999998 81.45946 11.0810795 86.64864 6.15142 93.8487" />
<path class="stroke" d="M 13.351351 18.864864 L 93.13513 19.189188" />
<path class="stroke" d="M 69.252335 7.943926 L 69.252335 38.971962 C 71.869156 77.85047 73.0284 93.7434 85.9622 93.5331 L 89.4321 93.5331 C 92.2713 93.6909 94.278 91.7886 94.164 88.1703 L 94.164 84.3849" />
<path class="stroke" d="M 85.6467 46.8454 C 74.816 72.1871 67.623634 90.62439 56.810806 92.162155" />
<path class="stroke" d="M 80.5994 6.78233 C 82.75675 8.486486 84.17167 10.509848 85.675674 12.702702" />
<path class="stroke" d="M 41.427736 27.492700499999998 L 41.427736 52.427004999999994" />
<path class="stroke" d="M 41.591239200000004 36.7919695 L 52.70948704 36.7919695" />
<path class="stroke" d="M 21.807298799999998 52.631384 L 62.51970704000001 52.631384" />
<path class="stroke" d="M 42.002960720000004 62.59489034999999 L 42.002960720000004 87.5291945 C 42.002960720000004 88.24452274999999 41.100727920000004 88.6532825 40.446714560000004 88.6532825 L 39.302188799999996 88.6532825" />
<path class="stroke" d="M 29.001458640000003 71.894159 C 28.183940400000004 75.47080199999999 25.73138624 78.53649575 22.29780896 80.98905109999998" />
<path class="stroke" d="M 53.527006400000005 71.894159 C 56.7970788 74.0401455 59.57663936 76.90145955 61.21167584 81.19342939999999" />
</svg>
