<?xml version="1.0" standalone="no"?>
<!DOCTYPE svg PUBLIC "-//W3C//DTD SVG 1.1//EN" "http://www.w3.org/Graphics/SVG/1.1/DTD/svg11.dtd">
<svg xmlns="http://www.w3.org/2000/svg" version="1.1" width="100%" height="100%">
<style type="text/css"><![CDATA[
  .stroke { fill:none; stroke:black; stroke-width:2 }
]]></style>
<path class="stroke" d="M 22.565691 9.562042 L 22.565691 42.26277" />
<path class="stroke" d="M 9.68978025 15.985401 C 11.9233575 20.364962 13.2372261 24.452553 14.1569325 31.167881" />
<path class="stroke" d="M 34.1277345 16.569342 C 33.47079975 22.992699 32.025546 27.080292 29.923355700000002 30.875912" />
<path class="stroke" d="M 7.58759085 42.1136 L 37.412406 42.1136" />
<path class="stroke" d="M 18.361312650000002 47.518246 C 17.0474445 66.20438 12.4489035 82.26277 7.324816500000001 87.51824" />
<path class="stroke" d="M 25.418916 47.72973 L 25.418916 86.32432 L 34.4675655 78.86486" />
<path class="stroke" d="M 43.5990492448 9.58613786 L 60.5653857088 9.58613786 L 60.5653857088 42.253467179999994" />
<path class="stroke" d="M 46.483326500800004 24.38415836 L 57.681109024 24.38415836" />
<path class="stroke" d="M 43.938376888 41.974257099999996 L 57.681109024 36.1108896" />
<path class="stroke" d="M 68.5395661888 9.3069306 L 85.6755661888 9.3069306 L 85.6755661888 42.532672559999995" />
<path class="stroke" d="M 72.27216169600001 24.38415836 L 82.79128950399999 24.38415836" />
<path class="stroke" d="M 69.38788158400001 41.974257099999996 L 83.130610864 36.1108896" />
<path class="stroke" d="M 54.1545974516 47.22262689 C 53.2512397964 52.48394113 47.4697511744 58.0547441 44.0369915896 59.29269955" />
<path class="stroke" d="M 51.444524486 55.26934235 L 51.444524486 89.9321135" />
<path class="stroke" d="M 72.94443469960001 47.37737205 C 71.8604060084 50.78175126 69.8730202808 53.72189711 66.9822762792 55.424086450000004" />
<path class="stroke" d="M 51.444524486 55.1246232 L 84.86875587200001 55.1246232" />
<path class="stroke" d="M 67.88563517200001 55.424086450000004 L 67.88563517200001 89.9321135" />
<path class="stroke" d="M 51.444524486 67.3296805 L 82.520026216 67.3296805" />
<path class="stroke" d="M 51.444524486 78.63576452000001 L 82.700697252 78.63576452000001" />
<path class="stroke" d="M 51.444524486 89.9321135 L 88.4821864928 89.9321135" />
</svg>
