<?xml version="1.0" standalone="no"?>
<!DOCTYPE svg PUBLIC "-//W3C//DTD SVG 1.1//EN" "http://www.w3.org/Graphics/SVG/1.1/DTD/svg11.dtd">
<svg xmlns="http://www.w3.org/2000/svg" version="1.1" width="100%" height="100%">
<style type="text/css"><![CDATA[
  .stroke { fill:none; stroke:black; stroke-width:2 }
]]></style>
<path class="stroke" d="M 19.405941 16.09764448275862 L 80.59406 16.09764448275862" />
<path class="stroke" d="M 25.049503 27.876407655172414 L 74.95049 27.876407655172414" />
<path class="stroke" d="M 13.465347 40.36189896551724 L 86.53465 40.36189896551724" />
<path class="stroke" d="M 49.70297 7.8525093103448285 C 49.5794 35.485351724137935 32.1241 54.58320344827586 9.60396 64.15500241379311" />
<path class="stroke" d="M 55.33693 27.72655551724138 C 61.64613 44.57270724137931 70.5047 53.832610344827586 89.80198 64.62615027586207" />
<path class="stroke" d="M 64.99218508000001 53.797574589999996 C 54.270028419999996 54.955412035 43.8737668 55.92683224 33.75660553 56.1070081" />
<path class="stroke" d="M 23.44345414 70.2935302 L 74.003659 70.2935302" />
<path class="stroke" d="M 49.676632000000005 55.354906 L 49.676632000000005 97.34545" />
<path class="stroke" d="M 49.67666854 70.31707180000001 C 40.345399150000006 78.62935780000001 29.093077540000003 85.81546180000001 13.449530110000001 91.8754348" />
<path class="stroke" d="M 49.67666854 70.31707180000001 C 58.9164148 79.05836980000001 69.25393228000001 85.5473548 86.4526978 91.71452980000001" />
</svg>
