<?xml version="1.0" standalone="no"?>
<!DOCTYPE svg PUBLIC "-//W3C//DTD SVG 1.1//EN" "http://www.w3.org/Graphics/SVG/1.1/DTD/svg11.dtd">
<svg xmlns="http://www.w3.org/2000/svg" version="1.1" width="100%" height="100%">
<style type="text/css"><![CDATA[
  .stroke { fill:none; stroke:black; stroke-width:2 }
]]></style>
<path class="stroke" d="M 11.605839 38.46715 L 30.29197 35.839413" />
<path class="stroke" d="M 21.824816 15.401459 L 21.824816 71.16788" />
<path class="stroke" d="M 9.270073 74.9635 L 31.751823 68.24817" />
<path class="stroke" d="M 36.001599999999996 24.7634 L 36.001599999999996 73.6593 C 35.9227 83.5436 34.424275 87.7498 30.5599375 92.9022" />
<path class="stroke" d="M 36.23815 24.76342 L 95.623 24.76342" />
<path class="stroke" d="M 36.238172500000005 45.2681 L 54.2191975 45.2681 L 54.2191975 66.4038 C 54.2191975 74.3954 53.9826475 82.7024 48.3043975 82.8076 L 44.9921725 82.8076" />
<path class="stroke" d="M 65.102575 5.83596 L 65.102575 24.7634 C 65.1814 71.0304 84.187675 93.0074 93.73022499999999 93.2176 L 93.73022499999999 82.4922" />
<path class="stroke" d="M 88.761775 47.476357 C 82.137175 71.661354 69.834325 87.01366 53.746 93.21766" />
<path class="stroke" d="M 83.7934075 6.78233 C 86.4748075 9.30599 88.20978249999999 11.51419 89.94475750000001 15.61519" />
</svg>
