<?xml version="1.0" standalone="no"?>
<!DOCTYPE svg PUBLIC "-//W3C//DTD SVG 1.1//EN" "http://www.w3.org/Graphics/SVG/1.1/DTD/svg11.dtd">
<svg xmlns="http://www.w3.org/2000/svg" version="1.1" width="100%" height="100%">
<style type="text/css"><![CDATA[
  .stroke { fill:none; stroke:black; stroke-width:2 }
]]></style>
<path class="stroke" d="M 30.6924306 6.78234 L 30.6924306 22.55525" />
<path class="stroke" d="M 30.8848612 12.14515 L 44.23753306 12.027397" />
<path class="stroke" d="M 10.487364 23.18615 L 10.487364 56.94005 C 10.29497 71.97685 8.370664 82.59725 4.1372213 91.95585" />
<path class="stroke" d="M 10.487364 23.18615 L 56.285492999999995 23.18615 L 56.285492999999995 27.60255 C 56.221382 30.86225 55.579905999999994 32.54475 54.168793 33.59625" />
<path class="stroke" d="M 16.16082089 41.945206 L 42.6331501 35.36986" />
<path class="stroke" d="M 26.266565840000002 27.9181 L 26.18821927 46.219177 C 25.987669569999998 51.47945 25.386028399999997 51.47945 27.792600399999998 52.136986 L 46.6441075 52.136986 C 47.84739594 51.150684 48.0479432 48.520546 48.0479432 45.56164 L 48.0479432 41.61644" />
<path class="stroke" d="M 28.65567493 62.6513512 L 28.65567493 72.52702645 C 28.65567493 80.9065875 30.38756687 86.3756735 20.28978084 90.6532825" />
<path class="stroke" d="M 43.0881045 62.7648646 L 43.0881045 86.602701 C 43.0881045 89.1574455 43.20258698 90.34864809999999 46.84053763 90.34864809999999 L 86.55254500000001 90.4489035 C 89.4109491 90.551093 91.48977550000001 89.7335735 91.48977550000001 88.6094855 L 91.48977550000001 86.6678829" />
<path class="stroke" d="M 83.7773693 13.08029066 C 77.6722602 22.178101279999996 68.81386825999999 28.88174888 62.34963442 29.599999999999998" />
<path class="stroke" d="M 87.2489049 33.1912392 C 80.2501434 45.365721799999996 74.1397904 50.479323799999996 63.6090634 52.7328478" />
<path class="stroke" d="M 90.6542214 54.98201268 C 82.87874769999999 69.9967301 72.28540017 77.7226266 61.03284644 78.4408728" />
</svg>
