<?xml version="1.0" standalone="no"?>
<!DOCTYPE svg PUBLIC "-//W3C//DTD SVG 1.1//EN" "http://www.w3.org/Graphics/SVG/1.1/DTD/svg11.dtd">
<svg xmlns="http://www.w3.org/2000/svg" version="1.1" width="100%" height="100%">
<style type="text/css"><![CDATA[
  .stroke { fill:none; stroke:black; stroke-width:2 }
]]></style>
<path class="stroke" d="M 6.709776 9.30599 L 45.92745599999999 9.30599 L 45.92745599999999 87.8548 C 45.92745599999999 91.6404 44.71608 93.8486 43.504704 93.8486 L 41.38488 93.8486" />
<path class="stroke" d="M 12.9079702944 26.25 L 35.81202744 26.25" />
<path class="stroke" d="M 16.285699044959998 41.32883162500001 L 16.285699044959998 64.70985275000001" />
<path class="stroke" d="M 16.285699044959998 41.32883162500001 L 32.508717503999996 41.32883162500001 L 32.508717503999996 64.48503585" />
<path class="stroke" d="M 16.285699044959998 62.91131216000001 L 32.508717503999996 62.91131216000001" />
<path class="stroke" d="M 58.53571498 9.6428585 L 58.53571498 56.785713" />
<path class="stroke" d="M 58.53571498 10.0 L 88.042861 10.0 L 88.042861 56.785713" />
<path class="stroke" d="M 58.7285722 26.785717 L 87.85 26.785717" />
<path class="stroke" d="M 58.7285722 41.785717 L 88.042861 41.785717" />
<path class="stroke" d="M 58.7285722 56.785713 L 88.042861 56.785713" />
<path class="stroke" d="M 66.51999784 62.0 C 63.5427019 75.62162 61.265944180000005 80.81081 54.96108022 88.918915" />
<path class="stroke" d="M 75.44379322 60.36496 L 75.44379322 82.55474 C 75.44379322 87.81021 77.33576692 90.43795 79.85839419999999 90.43795 L 92.944522 90.43795 C 94.5211654 90.43795 95.46715090000001 89.270065 95.46715090000001 86.9343 L 95.46715090000001 83.43065" />
</svg>
