<?xml version="1.0" standalone="no"?>
<!DOCTYPE svg PUBLIC "-//W3C//DTD SVG 1.1//EN" "http://www.w3.org/Graphics/SVG/1.1/DTD/svg11.dtd">
<svg xmlns="http://www.w3.org/2000/svg" version="1.1" width="100%" height="100%">
<style type="text/css"><![CDATA[
  .stroke { fill:none; stroke:black; stroke-width:2 }
]]></style>
<path class="stroke" d="M 10.87327659574468 13.560209 L 10.87327659574468 64.5111 C 10.783744680851063 77.7603 9.083404255319149 88.1704 4.966774468085107 94.795" />
<path class="stroke" d="M 24.833957446808512 8.534031 L 24.833957446808512 31.70344" />
<path class="stroke" d="M 10.873191489361702 32.018955 L 35.035914893617026 32.018955" />
<path class="stroke" d="M 11.14171914893617 55.04731 L 25.1024 55.04731 L 25.1024 91.64031" />
<path class="stroke" d="M 77.1884775 3.8515629599999994 C 74.84108778000001 9.504802439999999 69.70341654 14.899120559999997 64.16714268 17.1215802" />
<path class="stroke" d="M 44.86861278 17.624232648 L 44.86861278 51.17517912" />
<path class="stroke" d="M 44.86861278 17.491093872 L 90.30218615999999 17.491093872 L 90.30218615999999 51.17517912" />
<path class="stroke" d="M 67.58539830000001 17.624232648 L 67.58539830000001 48.77868479999999" />
<path class="stroke" d="M 44.86861278 33.125918448 L 89.9605836 33.125918448" />
<path class="stroke" d="M 44.86861278 48.77868479999999 L 90.30218615999999 48.77868479999999" />
<path class="stroke" d="M 57.10986835200001 55.937173 C 56.39929272 58.1361255 53.734631272499996 62.062826 51.0699726525 63.0052355" />
<path class="stroke" d="M 42.54306297615 71.48691 L 90.506933235 71.48691" />
<path class="stroke" d="M 77.89421350500001 54.052356 L 77.89421350500001 94.57591500000001" />
</svg>
