<?xml version="1.0" standalone="no"?>
<!DOCTYPE svg PUBLIC "-//W3C//DTD SVG 1.1//EN" "http://www.w3.org/Graphics/SVG/1.1/DTD/svg11.dtd">
<svg xmlns="http://www.w3.org/2000/svg" version="1.1" width="100%" height="100%">
<style type="text/css"><![CDATA[
  .stroke { fill:none; stroke:black; stroke-width:2 }
]]></style>
<path class="stroke" d="M 5.418268518518519 9.903803 L 47.83564074074074 9.903803" />
<path class="stroke" d="M 24.614436666666666 9.903803 C 23.99522 27.223469 19.351045925925924 38.514749 8.51443037037037 49.806029" />
<path class="stroke" d="M 22.44712925925926 27.414842 L 46.28760888888889 27.414933 C 40.508057037037034 52.96382 30.70354777777778 69.613726 10.681757407407408 85.97634500000001" />
<path class="stroke" d="M 23.06628703703704 41.768153700000006 C 26.678531481481482 44.1603617 29.361803703703707 47.1266887 31.116398148148146 50.667227520000004" />
<path class="stroke" d="M 73.2908606464 9.959853200000001 C 70.450568704 21.39050975 63.67328512 34.191410000000005 55.6810502144 43.332116 C 67.61027627520001 41.88686 77.9773426432 41.229927499999995 89.32767488 41.326025" />
<path class="stroke" d="M 83.79994073600001 33.0839384 C 87.066274816 35.58029 89.9065667584 39.39050975 91.752758272 44.5145945" />
<path class="stroke" d="M 61.0243500032 56.223357 L 61.0243500032 87.802918" />
<path class="stroke" d="M 61.0243500032 56.223357 L 87.09523967999999 56.223357 L 87.09523967999999 87.49926920000001" />
<path class="stroke" d="M 61.0243500032 85.37372031999999 L 87.09523967999999 85.37372031999999" />
</svg>
