<?xml version="1.0" standalone="no"?>
<!DOCTYPE svg PUBLIC "-//W3C//DTD SVG 1.1//EN" "http://www.w3.org/Graphics/SVG/1.1/DTD/svg11.dtd">
<svg xmlns="http://www.w3.org/2000/svg" version="1.1" width="100%" height="100%">
<style type="text/css"><![CDATA[
  .stroke { fill:none; stroke:black; stroke-width:2 }
]]></style>
<path class="stroke" d="M 48.17259 4.0 L 48.17259 16.365481600000003" />
<path class="stroke" d="M 18.454268 6.0 L 28.233467 13.600000000000001" />
<path class="stroke" d="M 80.2839 6.0 L 69.5583 13.600000000000001" />
<path class="stroke" d="M 7.5 16.529932 L 7.5 26.6245728" />
<path class="stroke" d="M 7.5 16.529932 L 92.5 16.529932 L 92.5 26.6245728" />
<path class="stroke" d="M 24.02335694 27.1927005 L 24.02335694 38.124087" />
<path class="stroke" d="M 24.02335694 27.1927005 L 76.216056 27.1927005 L 76.216056 38.0189778" />
<path class="stroke" d="M 24.02335694 37.28321088 L 76.216056 37.28321088" />
<path class="stroke" d="M 61.881187 48.8118617164 C 47.623764 50.5252473112 37.524754 50.972218306 18.905107 51.5772402004" />
<path class="stroke" d="M 18.45428 44.193168292 L 18.45428 60.731068263999994 C 18.45428 62.8914253552 24.455444 64.0833473392 32.772278 64.0833473392 L 76.435646 64.0833473392 C 80.29703 64.0833473392 82.376236 63.710870716 82.376236 62.742436612 L 82.376236 62.071980495999995" />
<path class="stroke" d="M 21.208755079999996 73.70655453399999 L 21.208755079999996 92.15957459199998" />
<path class="stroke" d="M 21.208755079999996 73.70655453399999 L 78.45839 73.70655453399999 L 78.45839 92.15957459199998" />
<path class="stroke" d="M 21.541604299999996 82.43039126439999 L 78.1255442 82.43039126439999" />
<path class="stroke" d="M 21.208755079999996 91.35408625119999 L 78.45839 91.35408625119999" />
</svg>
