<?xml version="1.0" standalone="no"?>
<!DOCTYPE svg PUBLIC "-//W3C//DTD SVG 1.1//EN" "http://www.w3.org/Graphics/SVG/1.1/DTD/svg11.dtd">
<svg xmlns="http://www.w3.org/2000/svg" version="1.1" width="100%" height="100%">
<style type="text/css"><![CDATA[
  .stroke { fill:none; stroke:black; stroke-width:2 }
]]></style>
<path class="stroke" d="M 9.89207843 7.8722330000000005 L 87.97227790000001 7.8722330000000005" />
<path class="stroke" d="M 31.826485699999996 1.8905756200000001 L 31.826485699999996 20.525945200000002" />
<path class="stroke" d="M 65.4881047 1.87729703 L 65.4881047 20.60054018" />
<path class="stroke" d="M 31.826485699999996 20.7497283 L 65.17351042 20.7497283" />
<path class="stroke" d="M 37.8392989288 33.0983131925 L 37.8392989288 65.24266249499999" />
<path class="stroke" d="M 37.8392989288 33.0983131925 L 62.43351712 33.0983131925 L 62.43351712 64.933583053" />
<path class="stroke" d="M 37.8392989288 62.77001954880001 L 62.43351712 62.77001954880001" />
<path class="stroke" d="M 11.17786624 41.3356431 L 24.27040913777778 41.3356431" />
<path class="stroke" d="M 24.27040913777778 21.4346532 L 24.27040913777778 64.0227744" />
<path class="stroke" d="M 11.007833066666667 73.7742559 L 28.861299093333333 60.83861280000001" />
<path class="stroke" d="M 86.1285145324 33.972278110000005 C 82.06229749280001 38.54950438 79.18205984080001 39.74356565 73.8717365164 41.35985221" />
<path class="stroke" d="M 73.743160656 21.633663300000002 L 73.743160656 65.8138586 C 73.743160656 71.58514748 75.4546926288 74.76930908 77.82665368560001 74.76930908 L 90.27944623920001 74.76930908 C 91.38071295600001 74.76930908 91.97370250720002 73.7742559 91.97370250720002 71.1871313 L 91.97370250720002 69.3960404" />
<path class="stroke" d="M 18.613138 85.0547385 C 18.029196 88.66058100000001 15.69343 91.69707550000001 11.89781 93.4051065" />
<path class="stroke" d="M 35.255474 85.6240865 C 38.46715 88.09123625000001 40.218975 90.368612 41.67883 93.594887" />
<path class="stroke" d="M 59.197075 85.813867 C 62.408752 88.09123625000001 63.868607 90.5583925 65.32846 93.78466750000001" />
<path class="stroke" d="M 81.386856 85.813867 C 84.8905 88.09123625000001 86.9343 90.178825 88.68613 93.78466750000001" />
</svg>
