<?xml version="1.0" standalone="no"?>
<!DOCTYPE svg PUBLIC "-//W3C//DTD SVG 1.1//EN" "http://www.w3.org/Graphics/SVG/1.1/DTD/svg11.dtd">
<svg xmlns="http://www.w3.org/2000/svg" version="1.1" width="100%" height="100%">
<style type="text/css"><![CDATA[
  .stroke { fill:none; stroke:black; stroke-width:2 }
]]></style>
<path class="stroke" d="M 50.52674999999999 6.48613092 L 50.52674999999999 27.4379548" />
<path class="stroke" d="M 50.781015 15.9751814 L 89.75911500000001 15.9751814" />
<path class="stroke" d="M 10.437956 30.36277234 L 10.437956 94.4357644" />
<path class="stroke" d="M 10.437956 30.13795621 L 90.14598 30.13795621 L 90.14598 94.2109475" />
<path class="stroke" d="M 10.729925 89.71459718000001 L 90.14598 89.71459718000001" />
<path class="stroke" d="M 72.32583488 38.82432409 C 64.78117260799999 52.87544374 44.90444049919999 71.5824049 21.214398540799998 78.8524294" />
<path class="stroke" d="M 20.7411456896 40.14756652 C 34.3938017408 44.95864795 66.1836651776 66.21826723000001 77.768256896 77.69459374" />
<path class="stroke" d="M 48.673944344 38.647111075 C 51.867389864 40.121878075 53.723027144 42.079296325 54.845047064 44.800911325" />
<path class="stroke" d="M 22.266941252000002 55.601795518 C 25.637800412000004 57.135553198 27.596528652 59.171268178000005 28.780883012 62.001747777999995" />
<path class="stroke" d="M 75.45495362 58.02711107499999 C 78.11615822 59.50187807499999 79.66252262 61.459296325 80.59753922 64.180911325" />
<path class="stroke" d="M 51.713944344 74.596479961 C 54.907389864 76.189228321 56.763027144 78.303240031 57.885047064 81.242584231" />
</svg>
