<?xml version="1.0" standalone="no"?>
<!DOCTYPE svg PUBLIC "-//W3C//DTD SVG 1.1//EN" "http://www.w3.org/Graphics/SVG/1.1/DTD/svg11.dtd">
<svg xmlns="http://www.w3.org/2000/svg" version="1.1" width="100%" height="100%">
<style type="text/css"><![CDATA[
  .stroke { fill:none; stroke:black; stroke-width:2 }
]]></style>
<path class="stroke" d="M 20.770715441176474 8.71386848 C 17.979818382352942 13.759123520000001 12.183339705882354 18.430656640000002 7.245597794117647 21.0467136" />
<path class="stroke" d="M 16.477026470588235 14.78686048 L 16.477026470588235 33.940144000000004" />
<path class="stroke" d="M 29.140375 13.7318592 L 95.623 13.7318592" />
<path class="stroke" d="M 64.86595 6.76656 L 64.86595 13.630912 C 65.49685 23.725536 79.613575 35.23344 91.600975 35.3344 L 91.600975 31.094656" />
<path class="stroke" d="M 76.69555 7.5741312 C 80.954275 8.381696 84.50319999999999 9.593056 86.632525 11.208192" />
<path class="stroke" d="M 24.88759168 36.1336632 L 24.88759168 59.239049699999995" />
<path class="stroke" d="M 25.162042539999998 36.2105925 L 75.11240455999999 36.2105925 L 75.11240455999999 59.085766500000005" />
<path class="stroke" d="M 24.88759168 48.134842425 L 74.56350284 48.134842425" />
<path class="stroke" d="M 24.88759168 59.231055 L 75.11240455999999 59.231055" />
<path class="stroke" d="M 49.70343 36.1336632 L 49.70343 77.47992375" />
<path class="stroke" d="M 22.966422499999997 68.12955825 L 77.03357279999999 68.12955825" />
<path class="stroke" d="M 12.26277222 77.47992375 L 88.2861248 77.47992375" />
<path class="stroke" d="M 18.613138 83.905103 C 18.029196 87.78831799999999 15.69343 91.058389 11.89781 92.897807" />
<path class="stroke" d="M 35.255474 84.518247 C 38.46715 87.17517749999999 40.218975 89.627736 41.67883 93.10218599999999" />
<path class="stroke" d="M 59.197075 84.72262599999999 C 62.408752 87.17517749999999 63.868607 89.832115 65.32846 93.306565" />
<path class="stroke" d="M 81.386856 84.72262599999999 C 84.8905 87.17517749999999 86.9343 89.42335 88.68613 93.306565" />
</svg>
