<?xml version="1.0" standalone="no"?>
<!DOCTYPE svg PUBLIC "-//W3C//DTD SVG 1.1//EN" "http://www.w3.org/Graphics/SVG/1.1/DTD/svg11.dtd">
<svg xmlns="http://www.w3.org/2000/svg" version="1.1" width="100%" height="100%">
<style type="text/css"><![CDATA[
  .stroke { fill:none; stroke:black; stroke-width:2 }
]]></style>
<path class="stroke" d="M 26.02513 17.153 L 14.03783 21.096125" />
<path class="stroke" d="M 14.03783 21.096125 L 14.03783 91.67975" />
<path class="stroke" d="M 14.35333 43.17825 L 26.02523 43.17825" />
<path class="stroke" d="M 14.66873 66.8375 L 26.02523 66.8375" />
<path class="stroke" d="M 74.9211 17.153 L 88.1703 21.096249999999998 L 88.1703 91.67975" />
<path class="stroke" d="M 74.9212 43.5725 L 87.5394 43.5725" />
<path class="stroke" d="M 74.9212 68.41487500000001 L 87.5394 68.41487500000001" />
<path class="stroke" d="M 6.151415 92.07412500000001 L 95.11041 92.07412500000001" />
<path class="stroke" d="M 31.686910599999997 23.53664742 L 70.67748599999999 23.53664742" />
<path class="stroke" d="M 35.33576542 36.164231099999995 L 35.1664234 60.5496351" />
<path class="stroke" d="M 35.1664234 36.164231099999995 L 66.83357079999999 36.164231099999995 L 66.83357079999999 60.5496351" />
<path class="stroke" d="M 35.1664234 48.3135288 L 66.6642282 48.3135288" />
<path class="stroke" d="M 35.1664234 60.803649 L 66.83357079999999 60.803649" />
<path class="stroke" d="M 30.76350304 73.5043788 L 71.23649 73.5043788" />
<path class="stroke" d="M 51.1076654 13.81094874 L 51.1076654 84.9350304" />
</svg>
