<?xml version="1.0" standalone="no"?>
<!DOCTYPE svg PUBLIC "-//W3C//DTD SVG 1.1//EN" "http://www.w3.org/Graphics/SVG/1.1/DTD/svg11.dtd">
<svg xmlns="http://www.w3.org/2000/svg" version="1.1" width="100%" height="100%">
<style type="text/css"><![CDATA[
  .stroke { fill:none; stroke:black; stroke-width:2 }
]]></style>
<path class="stroke" d="M 9.60396 33.069305 L 30.9901 30.9901" />
<path class="stroke" d="M 23.267326 9.60396 L 23.267326 84.15842 C 23.267326 87.42574 20.594059 90.09901 17.029703 90.09901" />
<path class="stroke" d="M 10.198019 63.36634 L 28.910892 46.435642" />
<path class="stroke" d="M 48.162445 5.835962 C 47.904844999999995 9.831762 47.31597 13.196672 45.733445 15.930572" />
<path class="stroke" d="M 38.77758 15.930615 L 38.77758 66.719215 C 38.740795 79.02212 37.158235 87.224014 32.815442 93.21771" />
<path class="stroke" d="M 38.77758 15.930615 L 56.553625 15.930615 L 56.553625 87.53941 C 56.590445 91.32491 55.964785 92.902214 55.007885 92.902214 L 53.35172 92.902214" />
<path class="stroke" d="M 45.402205 26.97159 C 47.426395 29.49519 48.677679999999995 33.59619 49.81861 39.27439" />
<path class="stroke" d="M 47.787672 59.69863 L 47.787672 81.39726" />
<path class="stroke" d="M 32.263408 49.6845 L 62.515769999999996 49.6845" />
<path class="stroke" d="M 75.764985 8.04417 L 75.764985 26.6562 C 75.69138 41.062 71.753425 47.897 67.263408 50.9464" />
<path class="stroke" d="M 75.87540999999999 8.04416 L 87.7997 8.04416 L 87.7997 36.7507 C 87.68927500000001 40.8516 88.57257 43.3753 89.78707 43.3753 L 97.4528785 43.3753" />
<path class="stroke" d="M 72.342265 53.15461 L 90.78079 53.15461 C 86.10675 77.23451 77.56836 89.01161 67.925867 94.16401" />
<path class="stroke" d="M 74.992115 53.15461 C 76.721885 75.65721 86.621985 92.16621 97.51576999999999 93.84861" />
</svg>
