<?xml version="1.0" standalone="no"?>
<!DOCTYPE svg PUBLIC "-//W3C//DTD SVG 1.1//EN" "http://www.w3.org/Graphics/SVG/1.1/DTD/svg11.dtd">
<svg xmlns="http://www.w3.org/2000/svg" version="1.1" width="100%" height="100%">
<style type="text/css"><![CDATA[
  .stroke { fill:none; stroke:black; stroke-width:2 }
]]></style>
<path class="stroke" d="M 8.94817403 19.6532841 L 52.051819699999996 19.6532841" />
<path class="stroke" d="M 21.762772099999996 13.30291833 L 21.762772099999996 26.511677669999997" />
<path class="stroke" d="M 39.2372222 13.30291833 L 39.2372222 26.511677669999997" />
<path class="stroke" d="M 13.777602199999999 28.779179376000002 L 13.777602199999999 45.24610785600001" />
<path class="stroke" d="M 13.777602199999999 28.779179376000002 L 47.761800199999996 28.779179376000002 L 47.761800199999996 45.24610785600001" />
<path class="stroke" d="M 13.777602199999999 45.24610785600001 L 47.761800199999996 45.24610785600001" />
<path class="stroke" d="M 10.361207449999998 56.663083056000005 L 50.8186076 56.663083056000005" />
<path class="stroke" d="M 7.1246060899999994 68.08010976 L 50.83513418 68.13210096" />
<path class="stroke" d="M 30.679834999999997 28.998735359999998 L 30.679834999999997 65.6650176 C 30.799649 77.81383680000002 17.793388999999998 89.0845824 6.225552499999999 89.37732" />
<path class="stroke" d="M 30.679834999999997 65.6650176 C 30.679834999999997 77.66753760000002 40.6675688 80.99869799999999 46.76810495 83.48172672" />
<path class="stroke" d="M 61.6620419 11.605839 C 60.733575710000004 22.116787 58.25766375 32.627735 55.16277327 39.927006" />
<path class="stroke" d="M 59.34087616 26.204376 L 90.444524 26.204376 C 90.13503367999999 34.37956 88.5875895 39.927006 85.64744100000001 45.47445" />
<path class="stroke" d="M 73.73211562 30.875912 C 73.73211562 62.408752 64.137232 79.653 52.22262689 90.14598" />
<path class="stroke" d="M 73.57736940000001 48.394157 C 77.13649589 63.868607 82.39780695 80.21897 94.9321135 90.14598" />
</svg>
