<?xml version="1.0" standalone="no"?>
<!DOCTYPE svg PUBLIC "-//W3C//DTD SVG 1.1//EN" "http://www.w3.org/Graphics/SVG/1.1/DTD/svg11.dtd">
<svg xmlns="http://www.w3.org/2000/svg" version="1.1" width="100%" height="100%">
<style type="text/css"><![CDATA[
  .stroke { fill:none; stroke:black; stroke-width:2 }
]]></style>
<path class="stroke" d="M 8.700379418 16.358999999999998 L 37.299618788000004 16.358999999999998" />
<path class="stroke" d="M 23.0 6.967591194 L 23.0 27.160290240000002" />
<path class="stroke" d="M 4.53284598 28.427188675 L 4.53284598 35.9023699325" />
<path class="stroke" d="M 4.53284598 28.122078457500002 L 41.4671508 28.122078457500002 L 41.4671508 36.054924257500005" />
<path class="stroke" d="M 18.900989680000002 42.7604005335 L 35.1547433 42.7604005335 C 32.6029186 48.85149547899999 29.23839718 53.3537689 22.852631640000002 55.60495255" />
<path class="stroke" d="M 22.707973600000003 55.60495255 C 25.167087600000002 63.0500788 24.813138300000002 84.044488755 22.932844600000003 87.42842685 C 22.1270074 88.7820026675 21.3211656 89.12039879499999 19.97810038 89.28959540999999" />
<path class="stroke" d="M 5.92079156 65.852871115 L 41.445544600000005 57.934950518" />
<path class="stroke" d="M 49.45945832 31.189186 L 88.732842 30.875912 C 87.740144 64.16058 85.2975636 75.39357 84.3048622 79.189186 C 83.1136144 82.40086 79.67404792 84.41073 77.68864648000002 84.7027 L 74.82161959999999 81.13513" />
<path class="stroke" d="M 65.77945832 7.189188 C 64.676754 68.48648 58.2182976 83.46774 45.7102688 92.81081" />
</svg>
