<?xml version="1.0" standalone="no"?>
<!DOCTYPE svg PUBLIC "-//W3C//DTD SVG 1.1//EN" "http://www.w3.org/Graphics/SVG/1.1/DTD/svg11.dtd">
<svg xmlns="http://www.w3.org/2000/svg" version="1.1" width="100%" height="100%">
<style type="text/css"><![CDATA[
  .stroke { fill:none; stroke:black; stroke-width:2 }
]]></style>
<path class="stroke" d="M 16.18613833 34.03564288 L 44.632675199999994 34.03564288" />
<path class="stroke" d="M 30.5 15.98248048 L 30.5 54.56633632" />
<path class="stroke" d="M 6.22079159 54.56633632 L 54.960396100000004 54.56633632" />
<path class="stroke" d="M 30.1121818372 57.62919632 C 27.369408141999997 68.2978091 20.82481501 80.245316 13.1069845512 88.7766416 C 24.626633977100003 87.427736 34.6377587161 86.81459899999999 45.59838999000001 86.90429" />
<path class="stroke" d="M 40.260444415500004 79.21167584 C 43.414632568 81.54160399999999 46.157406263199995 85.0978091 47.940210856 89.8802882" />
<path class="stroke" d="M 59.1216207 38.75837554 L 90.8868575 38.47956168 C 90.08394000000001 68.1029162 88.10832350000001 78.1002773 87.30540325000001 81.47837554 C 86.341894 84.33676539999999 83.55989170000001 86.12554970000001 81.9540523 86.385403 L 79.6351335 83.21026570000001" />
<path class="stroke" d="M 72.32162070000001 17.39837732 C 71.4297275 71.9529672 66.20597599999999 85.2862886 56.089188 93.6016209" />
</svg>
