<?xml version="1.0" standalone="no"?>
<!DOCTYPE svg PUBLIC "-//W3C//DTD SVG 1.1//EN" "http://www.w3.org/Graphics/SVG/1.1/DTD/svg11.dtd">
<svg xmlns="http://www.w3.org/2000/svg" version="1.1" width="100%" height="100%">
<style type="text/css"><![CDATA[
  .stroke { fill:none; stroke:black; stroke-width:2 }
]]></style>
<path class="stroke" d="M 7.6277362 23.86861 L 30.4832086 23.86861" />
<path class="stroke" d="M 19.0554724 8.978102 L 19.0554724 90.72992" />
<path class="stroke" d="M 19.0554724 28.832115 C 15.394161 51.313866 10.956203700000001 63.284668 5.18686054 69.41605" />
<path class="stroke" d="M 19.0554724 28.832115 C 25.0837924 37.2818 29.632422799999997 50.74813 32.92408692 68.832115" />
<path class="stroke" d="M 59.1340512 14.624865002 C 53.1405384 29.128646579999998 49.85837732 32.7545932 42.43783716 43.911349980000004" />
<path class="stroke" d="M 42.15243204 15.74053982 C 47.57513372 22.15567542 52.85513548 30.802160139999998 58.8486496 43.911349980000004" />
<path class="stroke" d="M 59.4194572 58.69405338 C 54.139457199999995 71.52432199999998 48.288648280000004 79.0551356 40.44 88.2594533" />
<path class="stroke" d="M 43.00864828 58.9729746 C 49.71567432 76.5448644 52.9978354 80.170805 59.847564 88.2594533" />
<path class="stroke" d="M 67.2299259 23.86861 L 91.8897777 23.86861" />
<path class="stroke" d="M 79.5598518 8.978102 L 79.5598518 90.72992" />
<path class="stroke" d="M 79.5598518 28.832115 C 75.6094895 51.313866 70.82116715000001 63.284668 64.59634953 69.41605" />
<path class="stroke" d="M 79.5598518 28.832115 C 83.27080075 51.605835 88.2985385 63.576637 94.52335694 68.832115" />
</svg>
