<?xml version="1.0" standalone="no"?>
<!DOCTYPE svg PUBLIC "-//W3C//DTD SVG 1.1//EN" "http://www.w3.org/Graphics/SVG/1.1/DTD/svg11.dtd">
<svg xmlns="http://www.w3.org/2000/svg" version="1.1" width="100%" height="100%">
<style type="text/css"><![CDATA[
  .stroke { fill:none; stroke:black; stroke-width:2 }
]]></style>
<path class="stroke" d="M 7.6277362 12.160582999999999 L 30.4832086 12.160582999999999" />
<path class="stroke" d="M 19.0554724 7.693430599999999 L 19.0554724 32.218976" />
<path class="stroke" d="M 19.0554724 13.6496345 C 15.394161 20.394159799999997 10.956203700000001 23.9854004 5.18686054 25.824814999999997" />
<path class="stroke" d="M 19.0554724 13.6496345 C 25.0837924 16.18454 29.632422799999997 20.224439 32.92408692 25.6496345" />
<path class="stroke" d="M 59.1340512 9.387459500599999 C 53.1405384 13.738593973999999 49.85837732 14.82637796 42.43783716 18.173404994000002" />
<path class="stroke" d="M 42.15243204 9.722161946 C 47.57513372 11.646702626 52.85513548 14.240648041999998 58.8486496 18.173404994000002" />
<path class="stroke" d="M 59.4194572 22.608216014 C 54.139457199999995 26.457296599999996 48.288648280000004 28.716540679999998 40.44 31.47783599" />
<path class="stroke" d="M 43.00864828 22.69189238 C 49.71567432 27.96345932 52.9978354 29.0512415 59.847564 31.47783599" />
<path class="stroke" d="M 67.2299259 12.160582999999999 L 91.8897777 12.160582999999999" />
<path class="stroke" d="M 79.5598518 7.693430599999999 L 79.5598518 32.218976" />
<path class="stroke" d="M 79.5598518 13.6496345 C 75.6094895 20.394159799999997 70.82116715000001 23.9854004 64.59634953 25.824814999999997" />
<path class="stroke" d="M 79.5598518 13.6496345 C 83.27080075 20.481750499999997 88.2985385 24.0729911 94.52335694 25.6496345" />
<path class="stroke" d="M 13.649633 39.84306458333333 L 13.649633 52.819545833333336" />
<path class="stroke" d="M 13.649633 39.84306458333333 L 86.642334 39.84306458333333 L 86.642334 52.819545833333336" />
<path class="stroke" d="M 36.75083 39.84306458333333 L 36.75083 52.819545833333336" />
<path class="stroke" d="M 63.249256 39.84306458333333 L 63.249256 52.819545833333336" />
<path class="stroke" d="M 13.649633 52.82564583333333 L 86.83168 52.82564583333333" />
<path class="stroke" d="M 11.277595 62.5362762 L 39.511045 62.5362762 L 39.511045 80.157716" />
<path class="stroke" d="M 11.750795 71.646704 L 39.195595 71.646704" />
<path class="stroke" d="M 11.593045 80.157716 L 39.511045 80.157716" />
<path class="stroke" d="M 11.277595 62.5362762 L 11.277595 92.02523 M 4.022085 93.34383 L 38.2492 88.548914" />
<path class="stroke" d="M 32.88643 85.552063 C 37.46053 86.75073499999999 40.29968 89.627753 41.24603 92.744475" />
<path class="stroke" d="M 55.218978 69.73430574 L 94.6350325 69.73430574" />
<path class="stroke" d="M 82.81022 63.41021882 L 82.81022 91.5912396 C 82.81022 92.5897808 82.226275 93.2554724 80.912407 93.2554724 L 76.9708025 93.2554724" />
<path class="stroke" d="M 63.248175 73.95036394 C 65.0 74.94890476 66.605839 76.39124036 67.9197065 78.83211526" />
</svg>
