<?xml version="1.0" standalone="no"?>
<!DOCTYPE svg PUBLIC "-//W3C//DTD SVG 1.1//EN" "http://www.w3.org/Graphics/SVG/1.1/DTD/svg11.dtd">
<svg xmlns="http://www.w3.org/2000/svg" version="1.1" width="100%" height="100%">
<style type="text/css"><![CDATA[
  .stroke { fill:none; stroke:black; stroke-width:2 }
]]></style>
<path class="stroke" d="M 10.732985 17.643978 L 87.382195 17.643978" />
<path class="stroke" d="M 50.14598 9.270073 L 50.14598 58.167534 C 50.14598 80.64925 34.812946 85.808914 10.729925 91.0219" />
<path class="stroke" d="M 50.314133 58.481674 C 50.314133 81.54731 65.80349 85.75592 89.56204 91.0219" />
<path class="stroke" d="M 34.5583752 27.466486571 C 27.8837814 36.40486359 24.22864747 38.6394586 15.964864109999999 45.515134290000006" />
<path class="stroke" d="M 15.64702659 28.15405361 C 21.68594437 32.10756741 27.56594633 37.43621497 34.2405416 45.515134290000006" />
<path class="stroke" d="M 34.8762137 54.62540499 C 28.9962137 62.532430999999995 22.48054013 67.17351380000001 13.74 72.84594215" />
<path class="stroke" d="M 16.60054013 54.79729830000001 C 24.06972822 65.62648619999999 27.72486215 67.8610775 35.352968999999995 72.84594215" />
<path class="stroke" d="M 83.6129696 28.204864943 C 76.5297272 36.46864747 72.65080956 38.534593799999996 63.88108028 44.89135057" />
<path class="stroke" d="M 63.54378332 28.84054013 C 69.95243076 32.49567553 76.19243284000001 37.422161009999996 83.2756768 44.89135057" />
<path class="stroke" d="M 83.9502676 53.31405367 C 77.7102676 60.624323 70.79567524000001 64.9151354 61.519999999999996 70.15945595" />
<path class="stroke" d="M 64.55567524 53.4729739 C 72.48216056 63.484864599999995 76.36107820000001 65.55080749999999 84.456212 70.15945595" />
</svg>
