<?xml version="1.0" standalone="no"?>
<!DOCTYPE svg PUBLIC "-//W3C//DTD SVG 1.1//EN" "http://www.w3.org/Graphics/SVG/1.1/DTD/svg11.dtd">
<svg xmlns="http://www.w3.org/2000/svg" version="1.1" width="100%" height="100%">
<style type="text/css"><![CDATA[
  .stroke { fill:none; stroke:black; stroke-width:2 }
]]></style>
<path class="stroke" d="M 27.5409 8.119279836 C 21.951786000000002 11.72983828 16.362734000000003 14.318584950000002 9.603804 15.88542886" />
<path class="stroke" d="M 9.603804 15.88542886 L 9.87567524 52.9996028585 M 9.67459436 53.63193931100001 L 26.96756554 53.63193931100001" />
<path class="stroke" d="M 45.8051077 6.5737142818 C 45.6956555 9.847600111 43.0786755 13.646126251000002 40.7287685 13.772149231000002" />
<path class="stroke" d="M 35.259123349999996 13.8918751423 L 35.259123349999996 54.05666551" />
<path class="stroke" d="M 35.259123349999996 13.772670926500002 L 59.99197042 13.772670926500002 L 59.99197042 54.05666551" />
<path class="stroke" d="M 35.259123349999996 32.6915298025 L 59.99197042 32.6915298025" />
<path class="stroke" d="M 35.259123349999996 52.308933124 L 59.99197042 52.308933124" />
<path class="stroke" d="M 69.797297 15.395945552999999 L 91.2837825 15.395945552999999 L 91.2837825 54.79194227" />
<path class="stroke" d="M 69.8783784 55.096159119999996 L 91.2027025 55.096159119999996" />
<path class="stroke" d="M 39.52700608 62.92043722 L 39.52700608 74.05328284 C 39.52700608 83.8693413 32.23941567999999 93.56569123999999 14.02043776 96.07955949999999" />
<path class="stroke" d="M 56.064231039999996 62.80072993 L 56.064231039999996 91.0518238 C 56.064231039999996 94.0445245 59.70803008 95.8401441 63.632111679999994 95.8401441 L 85.49488 95.8401441 C 88.57810239999999 95.9598518 90.820432 95.00218609999999 90.820432 93.6853973 L 90.820432 91.41094853999999" />
</svg>
