<?xml version="1.0" standalone="no"?>
<!DOCTYPE svg PUBLIC "-//W3C//DTD SVG 1.1//EN" "http://www.w3.org/Graphics/SVG/1.1/DTD/svg11.dtd">
<svg xmlns="http://www.w3.org/2000/svg" version="1.1" width="100%" height="100%">
<style type="text/css"><![CDATA[
  .stroke { fill:none; stroke:black; stroke-width:2 }
]]></style>
<path class="stroke" d="M 10.145985 15.1240864 L 89.270065 15.1240864" />
<path class="stroke" d="M 50.000042 6.3649631200000005 L 50.000042 25.494889599999997" />
<path class="stroke" d="M 17.445253 25.494889599999997 L 82.26277 25.494889599999997" />
<path class="stroke" d="M 20.03159 34.373823 L 20.03159 47.086737" />
<path class="stroke" d="M 20.03159 34.373823 L 80.59929 34.373823 L 80.59929 47.086737" />
<path class="stroke" d="M 20.03159 47.086737 L 80.59929 47.086737" />
<path class="stroke" d="M 28.864372 47.184542 L 38.958973 59.897487" />
<path class="stroke" d="M 71.76657 47.184542 L 62.30287 59.799682" />
<path class="stroke" d="M 7.09779 59.897487 L 92.2713 59.897487" />
<path class="stroke" d="M 15.91891788 74.98053952000001 L 51.727002999999996 74.88029184 C 50.821895999999995 85.5313856 48.5948374 89.1259424 47.6897273 90.34053952000001 C 46.6035896 91.3682752 43.46751428 92.0114336 41.65729532 92.10486399999999 L 39.0432414 90.9632416" />
<path class="stroke" d="M 30.79891788 67.30054016 C 29.793511 86.9156736 23.9049184 91.70967680000001 12.5005392 94.6994592" />
<path class="stroke" d="M 63.77513474 71.7312430368 L 63.77513474 92.50875499200001" />
<path class="stroke" d="M 63.77513474 71.8111564704 L 92.4454032 71.8111564704 L 92.4454032 92.588668672" />
<path class="stroke" d="M 64.32648622 91.789534336 L 92.3351327 91.789534336" />
</svg>
