<?xml version="1.0" standalone="no"?>
<!DOCTYPE svg PUBLIC "-//W3C//DTD SVG 1.1//EN" "http://www.w3.org/Graphics/SVG/1.1/DTD/svg11.dtd">
<svg xmlns="http://www.w3.org/2000/svg" version="1.1" width="100%" height="100%">
<style type="text/css"><![CDATA[
  .stroke { fill:none; stroke:black; stroke-width:2 }
]]></style>
<path class="stroke" d="M 7.29189154 10.245566969999999 L 42.9805402 10.245566969999999" />
<path class="stroke" d="M 9.4984468 21.09548064 L 40.1040988 21.09548064" />
<path class="stroke" d="M 7.29189154 35.5389708 L 42.8443216 29.671945620000002" />
<path class="stroke" d="M 25.0000063 4.990127304 L 25.0000063 39.990777492" />
<path class="stroke" d="M 51.84054013 10.245566969999999 L 93.4772969 10.245566969999999" />
<path class="stroke" d="M 54.4148546 21.09548064 L 90.12144860000001 21.09548064" />
<path class="stroke" d="M 51.99945889 32.27951259 L 93.15945595 32.27951259" />
<path class="stroke" d="M 72.50000735 4.990127304 L 72.50000735 39.990777492" />
<path class="stroke" d="M 15.966843 45.49554667 L 85.313863 45.49554667 L 85.313863 62.234961340000005" />
<path class="stroke" d="M 15.686137 53.586252337000005 L 85.313863 53.586252337000005" />
<path class="stroke" d="M 15.966843 62.234961340000005 L 85.313863 62.234961340000005" />
<path class="stroke" d="M 17.4453 74.659296 C 16.6042 80.14191600000001 14.5012 83.75079600000001 10.8207 87.776004" />
<path class="stroke" d="M 33.21814 71.328078 L 33.21814 89.025252 C 33.21814 90.899058 35.11094 92.14824 37.95004 92.14824 L 72.01944 92.14824 C 74.64824 92.14824 76.96164 90.69082800000001 77.06674 88.40062800000001 L 77.06674 84.86118" />
<path class="stroke" d="M 45.2056 71.3280912 C 50.6735 74.5205112 54.2487 77.9211612 57.5084 82.3627632" />
<path class="stroke" d="M 77.0667 71.53630799999999 C 83.6913 75.422652 87.7923 79.30926 91.8932 84.65301600000001" />
</svg>
