<?xml version="1.0" standalone="no"?>
<!DOCTYPE svg PUBLIC "-//W3C//DTD SVG 1.1//EN" "http://www.w3.org/Graphics/SVG/1.1/DTD/svg11.dtd">
<svg xmlns="http://www.w3.org/2000/svg" version="1.1" width="100%" height="100%">
<style type="text/css"><![CDATA[
  .stroke { fill:none; stroke:black; stroke-width:2 }
]]></style>
<path class="stroke" d="M 11.838754607142857 14.059406 C 14.989391357142857 16.138615 18.14002907142857 19.108912 20.717823214285715 22.673267" />
<path class="stroke" d="M 9.833804035714286 38.118813 C 12.698020928571427 39.90099 16.1350785 42.574257 18.426450857142857 46.138615" />
<path class="stroke" d="M 9.547383214285714 85.64356 C 10.189615821428571 87.422676 11.979012857142857 89.896904 14.06664032142857 89.896904 C 16.15427067857143 89.896904 18.9992925 76.73267 21.004244035714287 69.60396" />
<path class="stroke" d="M 35.015836234 23.2496346 L 35.015836234 61.5094848" />
<path class="stroke" d="M 35.015836234 23.2496346 L 80.0622595 23.2496346 L 80.0622595 61.5094848" />
<path class="stroke" d="M 35.277736015 41.33733436 L 79.80036240999999 41.33733436" />
<path class="stroke" d="M 35.015836234 59.839413279999995 L 80.0622595 59.839413279999995" />
<path class="stroke" d="M 54.77796760576 7.837837 C 55.0644102976 90.86486 69.529792864 92.162155 92.15880764799999 92.162155 L 92.588473408 79.189186" />
<path class="stroke" d="M 80.55315999999999 68.757128 C 73.16991712 78.675092 57.01040415999999 88.138808 39.59716672 92.03786" />
</svg>
