<?xml version="1.0" standalone="no"?>
<!DOCTYPE svg PUBLIC "-//W3C//DTD SVG 1.1//EN" "http://www.w3.org/Graphics/SVG/1.1/DTD/svg11.dtd">
<svg xmlns="http://www.w3.org/2000/svg" version="1.1" width="100%" height="100%">
<style type="text/css"><![CDATA[
  .stroke { fill:none; stroke:black; stroke-width:2 }
]]></style>
<path class="stroke" d="M 11.313868 17.445253 C 15.401459 18.029196 19.48905 20.364962 22.408756 24.160583" />
<path class="stroke" d="M 9.270073 47.226276 C 13.357662 47.226276 18.321167 46.934303 23.86861 43.138683 C 16.27737 53.357662 14.233576 58.321167 15.109488 60.9489 C 15.69343 63.284668 20.948904 65.62044 22.116787 68.832115 C 23.576641 72.33576 18.129246 80.26506 11.021896 83.722626" />
<path class="stroke" d="M 11.021896 84.014595 C 39.692924 81.65476 40.51095 91.313866 90.43795 90.14598" />
<path class="stroke" d="M 41.228998180999994 12.361493929607844 C 42.87080838356 15.253265074313726 44.18425632068 19.229449005490196 45.16934255468 23.024898400784313" />
<path class="stroke" d="M 58.6321850348 12.361493929607844 C 57.962328644959996 15.940059900980394 56.57992228159999 20.133126018039217 55.184384621599996 23.205632936666667" />
<path class="stroke" d="M 33.073429892 25.729833333333335 L 67.52656669999999 25.729833333333335" />
<path class="stroke" d="M 38.779186562 35.4070881 L 38.779186562 60.0616488 L 62.672816420000004 60.0616488" />
<path class="stroke" d="M 62.672816420000004 35.4070881 L 62.672816420000004 60.0616488" />
<path class="stroke" d="M 50.726 27.585648319999997 L 50.726 60.911813499999994 C 50.726 70.71697809999999 45.2699837 73.5508245 40.28428844 75.5345062" />
<path class="stroke" d="M 78.38127723699999 8.58759001 L 78.36406066 43.840944300000004 C 76.17687899949999 62.755031800000005 76.17687899949999 62.13489690000001 73.732382263 70.19664752" />
<path class="stroke" d="M 78.38127723699999 8.58759001 L 91.44113175999999 8.58759001 L 91.44113175999999 67.2649603 C 91.44113175999999 69.0635032 91.06799090499999 70.6372215 90.135144838 70.6372215 L 89.109014995 70.6372215" />
<path class="stroke" d="M 78.38127723699999 25.534184290000002 L 91.44113175999999 25.534184290000002" />
<path class="stroke" d="M 78.38127723699999 43.43495872 L 91.44113175999999 43.43495872" />
</svg>
