<?xml version="1.0" standalone="no"?>
<!DOCTYPE svg PUBLIC "-//W3C//DTD SVG 1.1//EN" "http://www.w3.org/Graphics/SVG/1.1/DTD/svg11.dtd">
<svg xmlns="http://www.w3.org/2000/svg" version="1.1" width="100%" height="100%">
<style type="text/css"><![CDATA[
  .stroke { fill:none; stroke:black; stroke-width:2 }
]]></style>
<path class="stroke" d="M 18.321167 13.693941274999998 L 18.321167 29.42299185" />
<path class="stroke" d="M 18.321167 13.693941274999998 L 81.9708 13.693941274999998 L 81.9708 29.271751390000002" />
<path class="stroke" d="M 18.321167 28.213064543999995 L 81.9708 28.213064543999995" />
<path class="stroke" d="M 18.321167 40.293941274999995 L 18.321167 56.022991850000004" />
<path class="stroke" d="M 18.321167 40.293941274999995 L 81.9708 40.293941274999995 L 81.9708 55.87175139" />
<path class="stroke" d="M 18.321167 54.81306454399999 L 81.9708 54.81306454399999" />
<path class="stroke" d="M 50.0 6.8978091 L 50.0 62.897807" />
<path class="stroke" d="M 17.4453 75.7492 C 16.6042 81.97945 14.5012 86.08045 10.8207 90.65455" />
<path class="stroke" d="M 33.21814 71.963725 L 33.21814 92.07415 C 33.21814 94.203475 35.11094 95.623 37.95004 95.623 L 72.01944 95.623 C 74.64824 95.623 76.96164 93.96685 77.06674 91.36435 L 77.06674 87.34225" />
<path class="stroke" d="M 45.2056 71.96374 C 50.6735 75.59149 54.2487 79.455865 57.5084 84.50314" />
<path class="stroke" d="M 77.0667 72.20035 C 83.6913 76.61664999999999 87.7923 81.03325 91.8932 87.1057" />
</svg>
