<?xml version="1.0" standalone="no"?>
<!DOCTYPE svg PUBLIC "-//W3C//DTD SVG 1.1//EN" "http://www.w3.org/Graphics/SVG/1.1/DTD/svg11.dtd">
<svg xmlns="http://www.w3.org/2000/svg" version="1.1" width="100%" height="100%">
<style type="text/css"><![CDATA[
  .stroke { fill:none; stroke:black; stroke-width:2 }
]]></style>
<path class="stroke" d="M 6.953513536 11.348647970000002 L 7.03783762 79.9140488" />
<path class="stroke" d="M 7.03783762 11.348647970000002 L 29.1308106 11.348647970000002 L 29.1308106 79.9140488" />
<path class="stroke" d="M 7.37513484 44.711888630000004 L 28.7935126 44.711888630000004" />
<path class="stroke" d="M 7.5437835799999995 77.54972846 L 28.9445024 77.54972846" />
<path class="stroke" d="M 41.40510845 8.0102172 L 41.40510845 20.027733479999995" />
<path class="stroke" d="M 41.40510845 7.519705080000001 L 93.594887 7.519705080000001 L 93.594887 20.27298828" />
<path class="stroke" d="M 52.725545370000006 21.11021855 L 52.725545370000006 58.6343024" />
<path class="stroke" d="M 52.725545370000006 21.11021855 L 82.1036475 21.11021855 L 82.1036475 58.6343024" />
<path class="stroke" d="M 52.896349575 38.85007793 L 81.93284505 38.85007793" />
<path class="stroke" d="M 52.725545370000006 56.996347639999996 L 82.1036475 56.996347639999996" />
<path class="stroke" d="M 67.5 57.97399798000001 L 67.5 70.75" />
<path class="stroke" d="M 39.875 70.75 L 95.125 70.75" />
<path class="stroke" d="M 57.400380912 76.229454835 C 54.339889920000005 81.77953573 49.44310608 86.99119915600001 42.301961472 92.135175652" />
<path class="stroke" d="M 77.59961472 76.229454835 C 80.66010384 81.77953573 85.14882911999999 86.99119915600001 92.69803728 92.135175652" />
</svg>
