<?xml version="1.0" standalone="no"?>
<!DOCTYPE svg PUBLIC "-//W3C//DTD SVG 1.1//EN" "http://www.w3.org/Graphics/SVG/1.1/DTD/svg11.dtd">
<svg xmlns="http://www.w3.org/2000/svg" version="1.1" width="100%" height="100%">
<style type="text/css"><![CDATA[
  .stroke { fill:none; stroke:black; stroke-width:2 }
]]></style>
<path class="stroke" d="M 6.844376666666666 10.444872 L 6.844376666666666 77.182936" />
<path class="stroke" d="M 6.844377006666666 10.44486942 L 31.513246666666667 10.44486942 L 31.513201333333335 77.182936" />
<path class="stroke" d="M 6.844377006666666 31.605687999999997 L 31.513246666666667 31.605687999999997" />
<path class="stroke" d="M 6.844377006666666 54.123067999999996 L 31.513246666666667 54.123067999999996" />
<path class="stroke" d="M 6.844377006666666 77.183022 L 31.513246666666667 77.183022" />
<path class="stroke" d="M 43.20802819 8.0102172 L 43.20802819 20.027733479999995" />
<path class="stroke" d="M 43.20802819 7.519705080000001 L 93.7919674 7.519705080000001 L 93.7919674 20.27298828" />
<path class="stroke" d="M 54.180143974 21.11021855 L 54.180143974 58.6343024" />
<path class="stroke" d="M 54.180143974 21.11021855 L 82.6543045 21.11021855 L 82.6543045 58.6343024" />
<path class="stroke" d="M 54.345692665 38.85007793 L 82.48875751 38.85007793" />
<path class="stroke" d="M 54.180143974 56.996347639999996 L 82.6543045 56.996347639999996" />
<path class="stroke" d="M 68.5 57.97399798000001 L 68.5 70.75" />
<path class="stroke" d="M 41.725 70.75 L 95.275 70.75" />
<path class="stroke" d="M 58.7111384224 76.229454835 C 55.744816384 81.77953573 50.998702816 86.99119915600001 44.0772857344 92.135175652" />
<path class="stroke" d="M 78.28885734400001 76.229454835 C 81.25517756800001 81.77953573 85.605788224 86.99119915600001 92.92271305599999 92.135175652" />
</svg>
