<?xml version="1.0" standalone="no"?>
<!DOCTYPE svg PUBLIC "-//W3C//DTD SVG 1.1//EN" "http://www.w3.org/Graphics/SVG/1.1/DTD/svg11.dtd">
<svg xmlns="http://www.w3.org/2000/svg" version="1.1" width="100%" height="100%">
<style type="text/css"><![CDATA[
  .stroke { fill:none; stroke:black; stroke-width:2 }
]]></style>
<path class="stroke" d="M 29.432166 8.0788692 L 29.432166 15.044207600000002" />
<path class="stroke" d="M 7.287059999999999 15.6246264 L 55.741319999999995 15.6246264" />
<path class="stroke" d="M 7.287085799999999 15.91482844 L 7.287085799999999 59.1576832 C 7.287085799999999 73.27644112 6.4668858 81.1177152 3.5015777999999997 89.92109768" />
<path class="stroke" d="M 7.4663352 25.185538720000004 L 49.020231599999995 25.248580800000003 L 49.020231599999995 33.97172640000001" />
<path class="stroke" d="M 23.0933922 15.91487352 L 23.0933922 33.682721279999996" />
<path class="stroke" d="M 36.624629999999996 15.91487352 L 36.624629999999996 33.97172640000001" />
<path class="stroke" d="M 7.645885799999999 33.99551484 L 49.036646999999995 33.99551484" />
<path class="stroke" d="M 19.0684932 60.174943760000005 L 30.260247 60.174943760000005" />
<path class="stroke" d="M 18.91515534 44.793248250000005 L 18.91515534 84.63184803200002 M 10.94290368 87.24673956 L 29.187061800000002 81.70931016" />
<path class="stroke" d="M 52.3372344 55.86807048 C 47.124592799999995 60.07240148 42.371901599999994 61.81566900000001 35.1662226 62.020753559999996" />
<path class="stroke" d="M 35.0128896 44.793245812 L 35.0128896 84.01658460000002 C 34.961811 85.55476756000002 35.983869000000006 87.24673956 37.6192104 87.24673956 L 50.190864000000005 87.09295052 C 52.23498000000001 86.8878172 53.206008000000004 85.60606308 53.2570866 83.86279556000001 L 53.2570866 79.40208448" />
<path class="stroke" d="M 60.6406147525 20.5583576 L 94.04141572 20.5583576" />
<path class="stroke" d="M 69.485873815 10.1104088 L 69.485873815 71.43533599999999" />
<path class="stroke" d="M 85.06410525999999 10.11041096 L 85.06410525999999 71.66246" />
<path class="stroke" d="M 69.617902195 37.13882 L 84.932072695 37.13882" />
<path class="stroke" d="M 69.749922205 53.719232 L 84.932097805 53.719232" />
<path class="stroke" d="M 59.71648096 72.116744 L 95.49360235 72.116744" />
<path class="stroke" d="M 69.266575 78.75712000000001 C 67.94164 84.47744 64.913275 87.57312 61.458985 89.255552" />
<path class="stroke" d="M 84.59780500000001 78.757056 C 86.39587 84.41004799999999 88.90376499999999 87.23654400000001 92.40535 89.255488" />
</svg>
