<?xml version="1.0" standalone="no"?>
<!DOCTYPE svg PUBLIC "-//W3C//DTD SVG 1.1//EN" "http://www.w3.org/Graphics/SVG/1.1/DTD/svg11.dtd">
<svg xmlns="http://www.w3.org/2000/svg" version="1.1" width="100%" height="100%">
<style type="text/css"><![CDATA[
  .stroke { fill:none; stroke:black; stroke-width:2 }
]]></style>
<path class="stroke" d="M 14.525547 18.7226274 L 42.146595 18.7226274" />
<path class="stroke" d="M 30.0 9.525546779999999 L 29.584415 32.95636272" />
<path class="stroke" d="M 30.0 19.826275680000002 C 25.620438 24.11824686 19.197079 28.6554741 10.145985 31.8437949" />
<path class="stroke" d="M 30.0 20.80729908 C 35.547443 22.40145948 38.46715 23.8729908 41.38686 25.957663319999998" />
<path class="stroke" d="M 49.685863 18.7226274 L 81.386856 18.7226274" />
<path class="stroke" d="M 64.74452 9.525546779999999 L 64.80519 32.563635" />
<path class="stroke" d="M 64.16058 20.3167878 C 60.65693 25.099269 51.605835 29.75912448 42.846714 32.824814939999996" />
<path class="stroke" d="M 64.16058 20.1941604 C 69.41605 25.4671512 75.682434 27.1415778 84.44156 30.2072712" />
<path class="stroke" d="M 49.05361 38.5883315 L 49.05361 43.5094945" />
<path class="stroke" d="M 12.1451 43.919573 L 92.9022 43.919573" />
<path class="stroke" d="M 12.145143 44.12460705 L 12.145143 74.676624 C 12.565743 83.97207900000001 10.778143 90.19186400000001 5.835963 96.4116451" />
<path class="stroke" d="M 13.351351 54.008106 L 81.45946 54.008106 L 81.45946 64.3378345" />
<path class="stroke" d="M 38.488987 44.1246389 L 38.648647 63.2837815" />
<path class="stroke" d="M 61.04105 44.1246389 L 61.35135 63.2837815" />
<path class="stroke" d="M 14.972971 64.1270265 L 79.51351 64.1270265" />
<path class="stroke" d="M 31.780822 76.604095 L 50.433745 76.604095" />
<path class="stroke" d="M 31.5252589 66.351734375 L 31.5252589 92.905354 M 18.2381728 94.6482575 L 48.645103000000006 90.957395" />
<path class="stroke" d="M 87.228724 73.733435 C 78.540988 76.5357475 70.61983599999999 77.6976875 58.610371 77.8343825" />
<path class="stroke" d="M 58.35481600000001 66.35173275 L 58.35481600000001 92.4952625 C 58.269685 93.52050750000001 59.97311500000001 94.6482575 62.69868400000001 94.6482575 L 83.65144000000001 94.54575249999999 C 87.05830000000002 94.409025 88.67668 93.5546975 88.76181100000001 92.3927575 L 88.76181100000001 89.41955999999999" />
</svg>
