<?xml version="1.0" standalone="no"?>
<!DOCTYPE svg PUBLIC "-//W3C//DTD SVG 1.1//EN" "http://www.w3.org/Graphics/SVG/1.1/DTD/svg11.dtd">
<svg xmlns="http://www.w3.org/2000/svg" version="1.1" width="100%" height="100%">
<style type="text/css"><![CDATA[
  .stroke { fill:none; stroke:black; stroke-width:2 }
]]></style>
<path class="stroke" d="M 49.05361 5.52051 L 49.05361 13.09153" />
<path class="stroke" d="M 12.1451 13.72242 L 92.9022 13.72242" />
<path class="stroke" d="M 12.145143 14.037857 L 12.145143 61.04096 C 12.145143 76.387436 10.778143 84.91056 5.835963 94.479454" />
<path class="stroke" d="M 12.443892 24.114716 L 81.700386 24.18324 L 81.700386 33.66492" />
<path class="stroke" d="M 38.488987 14.037906 L 38.488987 33.350784" />
<path class="stroke" d="M 61.04105 14.037906 L 61.04105 33.66492" />
<path class="stroke" d="M 12.743143 33.690777 L 81.727745 33.690777" />
<path class="stroke" d="M 31.780822 52.684536 L 50.433745 52.684536" />
<path class="stroke" d="M 31.5252589 41.328075 L 31.5252589 70.7413152 M 18.2381728 72.67191600000001 L 48.645103000000006 68.583576" />
<path class="stroke" d="M 87.228724 49.504728 C 78.540988 52.608828 70.61983599999999 53.8959 58.610371 54.047315999999995" />
<path class="stroke" d="M 58.35481600000001 41.3280732 L 58.35481600000001 70.28706 C 58.269685 71.42271600000001 59.97311500000001 72.67191600000001 62.69868400000001 72.67191600000001 L 83.65144000000001 72.55837199999999 C 87.05830000000002 72.40692 88.67668 71.460588 88.76181100000001 70.173516 L 88.76181100000001 66.880128" />
<path class="stroke" d="M 23.221896979999997 82.19926960000001 L 82.77809549999999 82.19926960000001" />
<path class="stroke" d="M 53.0 73.370072635 L 53.0 93.70875670000001" />
<path class="stroke" d="M 15.26277222 93.70875670000001 L 90.4627694 93.70875670000001" />
</svg>
