<?xml version="1.0" standalone="no"?>
<!DOCTYPE svg PUBLIC "-//W3C//DTD SVG 1.1//EN" "http://www.w3.org/Graphics/SVG/1.1/DTD/svg11.dtd">
<svg xmlns="http://www.w3.org/2000/svg" version="1.1" width="100%" height="100%">
<style type="text/css"><![CDATA[
  .stroke { fill:none; stroke:black; stroke-width:2 }
]]></style>
<path class="stroke" d="M 15.913245 11.187694599999999 L 94.80596 11.187694599999999" />
<path class="stroke" d="M 58.307594 2.263405 L 58.307594 11.058355999999998 C 59.056262000000004 23.992092999999997 75.808109 38.736595 90.033157 38.86595 L 90.033157 33.433778" />
<path class="stroke" d="M 72.345386 3.2981055999999995 C 77.399073 4.3327979999999995 81.610464 5.884853 84.137263 7.9542459999999995" />
<path class="stroke" d="M 34.3691095 26.675915185 C 33.8143665 29.51387047 33.6037933 31.14520156 31.3848156 33.03717202" />
<path class="stroke" d="M 20.93979075 32.78272267 L 20.93979075 73.24031350000001" />
<path class="stroke" d="M 20.64135965 33.120689500000005 L 65.48084 33.120689500000005 L 65.48084 54.099998920000004" />
<path class="stroke" d="M 21.53664725 43.772990590000006 L 65.18965549999999 43.772990590000006" />
<path class="stroke" d="M 21.238220899999998 54.17882893 L 65.48084 54.17882893" />
<path class="stroke" d="M 21.53664725 63.6386869 L 80.028798 63.6386869" />
<path class="stroke" d="M 21.238220899999998 72.6255478 L 80.47700799999998 72.6255478 L 78.72988199999999 84.2655151 C 78.147513 87.8655196 76.54597449999999 92.0862028 73.19731475 92.0862028 C 71.30459174999999 92.0862028 70.4310278 92.0862028 69.12068899999998 92.0862028" />
<path class="stroke" d="M 17.580459649999998 79.05171844 C 17.2892704 81.1620649 15.833332699999998 84.51379306 14.086205749999998 86.62413790000001" />
<path class="stroke" d="M 31.411875399999996 79.05171844 C 32.57662765 80.78965120000001 33.59578385 83.02413745000001 33.741378 85.63103740000001" />
<path class="stroke" d="M 48.8831392 79.42413214000001 C 50.484671999999996 81.1620649 51.5038263 83.02413745000001 52.23180085 85.25862046" />
<path class="stroke" d="M 64.752874 79.2999964 C 66.7911845 80.4172375 68.3927135 82.03102966 69.703058 84.3896557" />
</svg>
