<?xml version="1.0" standalone="no"?>
<!DOCTYPE svg PUBLIC "-//W3C//DTD SVG 1.1//EN" "http://www.w3.org/Graphics/SVG/1.1/DTD/svg11.dtd">
<svg xmlns="http://www.w3.org/2000/svg" version="1.1" width="100%" height="100%">
<style type="text/css"><![CDATA[
  .stroke { fill:none; stroke:black; stroke-width:2 }
]]></style>
<path class="stroke" d="M 7.7634248 12.89432553 L 7.7634248 57.96376722" />
<path class="stroke" d="M 7.7634248 12.89432553 L 38.1040988 12.89432553 L 38.1040988 57.96376722" />
<path class="stroke" d="M 7.8958927999999995 34.42425213 L 37.839120799999996 34.42425213" />
<path class="stroke" d="M 7.7634248 57.96376722 L 38.1040988 57.96376722" />
<path class="stroke" d="M 23.00001764 13.4684509 L 23.00001764 91.26345" />
<path class="stroke" d="M 57.1335075 9.4764385 C 56.695552500000005 12.980087 56.5293105 14.994076 54.777485999999996 17.329842" />
<path class="stroke" d="M 46.53141375 17.015707 L 46.53141375 66.96335" />
<path class="stroke" d="M 46.29581025 17.43295 L 81.6954 17.43295 L 81.6954 43.333332" />
<path class="stroke" d="M 47.00261625 30.583939 L 81.4655175 30.583939" />
<path class="stroke" d="M 46.7670165 43.430653 L 81.6954 43.430653" />
<path class="stroke" d="M 47.00261625 55.10949 L 93.18063000000001 55.10949" />
<path class="stroke" d="M 46.7670165 66.20438 L 93.53448 66.20438 L 92.15517 80.57471 C 91.69540500000001 85.01916 90.4310325 90.22988 87.78735375000001 90.22988 C 86.29309875 90.22988 85.603443 90.22988 84.56896499999999 90.22988" />
<path class="stroke" d="M 43.87931025 74.137924 C 43.649423999999996 76.74329 42.4999995 80.881226 41.12068875 83.48659" />
<path class="stroke" d="M 54.798849 74.137924 C 55.71839025 76.28352 56.52298725 79.042145 56.63793 82.26054" />
<path class="stroke" d="M 68.59195199999999 74.597694 C 69.85632 76.74329 70.6609155 79.042145 71.23563225000001 81.800766" />
<path class="stroke" d="M 81.12069 74.44444 C 82.7298825 75.82375 83.9942475 77.816086 85.02873 80.72797" />
</svg>
