<?xml version="1.0" standalone="no"?>
<!DOCTYPE svg PUBLIC "-//W3C//DTD SVG 1.1//EN" "http://www.w3.org/Graphics/SVG/1.1/DTD/svg11.dtd">
<svg xmlns="http://www.w3.org/2000/svg" version="1.1" width="100%" height="100%">
<style type="text/css"><![CDATA[
  .stroke { fill:none; stroke:black; stroke-width:2 }
]]></style>
<path class="stroke" d="M 19.992115000000002 5.9747602 C 18.958334200000003 14.5 18.597224750000002 28.55555622 4.6944451449999995 45.6777834" />
<path class="stroke" d="M 19.13889055 13.47777834 L 58.2277475 13.47777834 L 49.039263 28.16754024" />
<path class="stroke" d="M 18.905107 28.48904988 L 90.14598 28.48904988" />
<path class="stroke" d="M 18.613138 28.48904988 L 18.613138 44.687589560000006 C 18.613138 77.7503628 14.817516 82.85401056 10.198019 89.4752476" />
<path class="stroke" d="M 36.44004222 39.66405751 L 74.0806371 39.66405751 L 74.0806371 59.80284151 C 74.04549255 61.40271808 72.69488910000001 62.49996751 69.63225120000001 62.49996751 L 63.1306827 62.49996751" />
<path class="stroke" d="M 36.43993323 39.84383551 L 36.43993323 84.25709379999999 C 36.5418981 86.26184649999999 38.835243 87.3596608 41.91491169 87.3138898 L 76.13360235 87.3138898 C 79.4415024 87.3138898 82.0649295 86.2350508 81.9509247 84.25709379999999 L 81.9509247 80.84068479999999" />
</svg>
