<?xml version="1.0" standalone="no"?>
<!DOCTYPE svg PUBLIC "-//W3C//DTD SVG 1.1//EN" "http://www.w3.org/Graphics/SVG/1.1/DTD/svg11.dtd">
<svg xmlns="http://www.w3.org/2000/svg" version="1.1" width="100%" height="100%">
<style type="text/css"><![CDATA[
  .stroke { fill:none; stroke:black; stroke-width:2 }
]]></style>
<path class="stroke" d="M 26.8164209 10.677866571747998 L 26.8164209 15.199142495723999" />
<path class="stroke" d="M 9.14780994 15.295340591871998 L 44.08649645 15.295340591871998" />
<path class="stroke" d="M 17.44176252055 20.982171072609 L 17.44176252055 30.786606929566" />
<path class="stroke" d="M 17.44176252055 20.982171072609 L 35.68692982 20.982171072609 L 35.68692982 30.6923337640004" />
<path class="stroke" d="M 17.44176252055 30.032419344835834 L 35.68692982 30.032419344835834" />
<path class="stroke" d="M 26.752405585 30.306822989938 L 26.752405585 42.04290126726 C 26.752405585 42.37959196796999 26.019341435 42.57198700709999 25.48795558 42.57198700709999 L 24.5580284 42.57198700709999" />
<path class="stroke" d="M 16.188685145 34.683802758119995 C 15.524451575 36.367257085359995 13.53175132 37.81021781960999 10.74196978 38.964586571747994" />
<path class="stroke" d="M 36.115692700000004 34.683802758119995 C 38.772626525 35.69387568393999 41.03101948 37.04063898099399 42.35948662 39.06078334999199" />
<path class="stroke" d="M 51.2984699642 17.885481472000002 L 92.58434789750001 17.885481472000002" />
<path class="stroke" d="M 66.9637064693 8.587396676000001 C 66.9637064693 11.41211439 66.9637064693 14.94302086 66.9637064693 17.76776096 C 66.914881757 27.026610559999998 62.1811550411 39.11020026 51.5912752952 42.01340329" />
<path class="stroke" d="M 66.7048704737 26.629613505 L 66.7048704737 39.7482893116 C 66.7048704737 41.571302175999996 70.8556165823 41.409477513 72.93567890300001 41.409477513 L 81.975256268 41.4332566684 C 85.119157847 41.4332566684 87.361921097 40.7082263624 87.36480594260001 39.2668701734 L 87.36480594260001 36.49870919600001" />
<path class="stroke" d="M 77.06187713825001 10.0998045366 C 79.77035313575 10.9629191526 81.34418585075 12.1085077786 82.29581129825002 13.7013462986" />
<path class="stroke" d="M 36.17801 43.87539187 C 35.59407 46.047653940000004 35.372414 47.29632712 33.036648 48.74450204" />
<path class="stroke" d="M 22.041885 48.54973834 L 22.041885 79.517277" />
<path class="stroke" d="M 21.727747 48.808429000000004 L 68.9272 48.808429000000004 L 68.9272 64.86666584" />
<path class="stroke" d="M 22.670155 56.96204218 L 68.62069 56.96204218" />
<path class="stroke" d="M 22.356022 64.92700486 L 68.9272 64.92700486" />
<path class="stroke" d="M 22.670155 72.1678838 L 84.24084 72.1678838" />
<path class="stroke" d="M 22.356022 79.0467156 L 84.71264 79.0467156 L 82.87356 87.9563202 C 82.26054 90.7118792 80.57471 93.9425256 77.049805 93.9425256 C 75.057465 93.9425256 74.137924 93.9425256 72.75862 93.9425256" />
<path class="stroke" d="M 18.505747 83.96551288 C 18.199232 85.5808398 16.666666 88.14636012 14.827585 89.76168580000001" />
<path class="stroke" d="M 33.065132 83.96551288 C 34.291187 85.29578240000001 35.363983 87.0061299 35.51724 89.0015348" />
<path class="stroke" d="M 51.455936 84.25057028 C 53.14176 85.5808398 54.214554 87.0061299 54.980843 88.71647492" />
<path class="stroke" d="M 68.16092 84.15555280000001 C 70.30651 85.01072500000001 71.99233 86.24597331999999 73.37164 88.0513414" />
</svg>
