<?xml version="1.0" standalone="no"?>
<!DOCTYPE svg PUBLIC "-//W3C//DTD SVG 1.1//EN" "http://www.w3.org/Graphics/SVG/1.1/DTD/svg11.dtd">
<svg xmlns="http://www.w3.org/2000/svg" version="1.1" width="100%" height="100%">
<style type="text/css"><![CDATA[
  .stroke { fill:none; stroke:black; stroke-width:2 }
]]></style>
<path class="stroke" d="M 11.8297 3.86592876 L 11.8297 17.4305961" />
<path class="stroke" d="M 11.8297 3.86592876 L 39.2744 3.86592876 L 39.2744 17.4305961" />
<path class="stroke" d="M 11.8297 17.4305961 L 39.2744 17.4305961" />
<path class="stroke" d="M 25.39435 17.430608999999997 L 25.39435 38.320181" />
<path class="stroke" d="M 25.70984 25.433768999999998 L 41.48264 25.433768999999998" />
<path class="stroke" d="M 11.8297 22.585148 L 11.8297 39.676659" />
<path class="stroke" d="M 6.78233 40.354898 L 41.7981 36.828081" />
<path class="stroke" d="M 68.72627565 5.510904475599999 C 65.03284525000001 9.239664130000001 58.77007225 13.134145105 52.3467141 15.619984780000001" />
<path class="stroke" d="M 66.79926815 7.6652989552 L 81.091242 7.6652989552 C 75.3102195 14.459925886599999 62.945254250000005 22.331749774 50.58029175 26.640537597999998" />
<path class="stroke" d="M 60.6970803 11.7255035212 C 67.0 17.7409680532 79.96715035 23.408948149 93.61678800000001 26.640537597999998" />
<path class="stroke" d="M 61.5421530175 25.3621530375 L 61.5421530175 37.113393525" />
<path class="stroke" d="M 61.5421530175 25.3621530375 L 80.79616700000001 25.3621530375 L 80.79616700000001 37.000401135000004" />
<path class="stroke" d="M 61.5421530175 36.209451696 L 80.79616700000001 36.209451696" />
<path class="stroke" d="M 36.17801 42.970156255 C 35.59407 45.17745481 35.372414 46.44626788 33.036648 47.91780046" />
<path class="stroke" d="M 22.041885 47.71989541 L 22.041885 79.18691050000001" />
<path class="stroke" d="M 21.727747 47.9827585 L 68.9272 47.9827585 L 68.9272 64.29999916" />
<path class="stroke" d="M 22.670155 56.26788157 L 68.62069 56.26788157" />
<path class="stroke" d="M 22.356022 64.36131139 L 68.9272 64.36131139" />
<path class="stroke" d="M 22.670155 71.71897870000001 L 84.24084 71.71897870000001" />
<path class="stroke" d="M 22.356022 78.70875939999999 L 84.71264 78.70875939999999 L 82.87356 87.7620673 C 82.26054 90.5620708 80.57471 93.8448244 77.049805 93.8448244 C 75.057465 93.8448244 74.137924 93.8448244 72.75862 93.8448244" />
<path class="stroke" d="M 18.505747 83.70689211999999 C 18.199232 85.3482727 16.666666 87.95517238 14.827585 89.5965517" />
<path class="stroke" d="M 33.065132 83.70689211999999 C 34.291187 85.05861759999999 35.363983 86.79655135 35.51724 88.8241402" />
<path class="stroke" d="M 51.455936 83.99654722 C 53.14176 85.3482727 54.214554 86.79655135 54.980843 88.53448258" />
<path class="stroke" d="M 68.16092 83.8999972 C 70.30651 84.7689625 71.99233 86.02413418 73.37164 87.8586211" />
</svg>
