<?xml version="1.0" standalone="no"?>
<!DOCTYPE svg PUBLIC "-//W3C//DTD SVG 1.1//EN" "http://www.w3.org/Graphics/SVG/1.1/DTD/svg11.dtd">
<svg xmlns="http://www.w3.org/2000/svg" version="1.1" width="100%" height="100%">
<style type="text/css"><![CDATA[
  .stroke { fill:none; stroke:black; stroke-width:2 }
]]></style>
<path class="stroke" d="M 11.234671224 15.74 L 25.145327400000003 15.74" />
<path class="stroke" d="M 6.3738150000000005 27.831224600000002 L 44.49052 27.831224600000002" />
<path class="stroke" d="M 31.604108 8.023655000000002 L 31.604108 27.544156 C 31.965823999999998 56.250743 35.990021999999996 88.97634500000001 42.862798000000005 89.26345 L 42.862798000000005 77.206678" />
<path class="stroke" d="M 36.3517294 10.607251470000001 C 38.7933984 12.90376387 40.285498399999994 16.34856887 41.5063114 20.94161187" />
<path class="stroke" d="M 19.732977599999998 38.2601751866 L 19.732977599999998 83.396170673" />
<path class="stroke" d="M 19.732977599999998 53.7447858008 L 26.482406207999997 53.7447858008" />
<path class="stroke" d="M 13.706700012799999 54.73316603 L 13.706700012799999 83.396170673" />
<path class="stroke" d="M 8.0018243776 83.396170673 L 30.17852384 83.396170673" />
<path class="stroke" d="M 62.345025899999996 9.4764385 C 62.000501299999996 12.980087 61.86972426 14.994076 60.49162232 17.329842" />
<path class="stroke" d="M 54.00471215 17.015707 L 54.00471215 66.96335" />
<path class="stroke" d="M 53.81937073 17.43295 L 81.667048 17.43295 L 81.667048 43.333332" />
<path class="stroke" d="M 54.37539145 30.583939 L 81.4862071 30.583939" />
<path class="stroke" d="M 54.19005298 43.430653 L 81.667048 43.430653" />
<path class="stroke" d="M 54.37539145 55.10949 L 90.7020956 55.10949" />
<path class="stroke" d="M 54.19005298 66.20438 L 90.9804576 66.20438 L 89.8954004 80.57471 C 89.5337186 85.01916 88.53907889999999 90.22988 86.45938495 90.22988 C 85.28390435 90.22988 84.74137515999999 90.22988 83.9275858 90.22988" />
<path class="stroke" d="M 51.91839073 74.137924 C 51.73754688 76.74329 50.83333294 80.881226 49.74827515 83.48659" />
<path class="stroke" d="M 60.50842788 74.137924 C 61.23180033 76.28352 61.86474997 79.042145 61.9551716 82.26054" />
<path class="stroke" d="M 71.35900224 74.597694 C 72.3536384 76.74329 72.98658686 79.042145 73.43869737 81.800766" />
<path class="stroke" d="M 81.2149428 74.44444 C 82.4808409 75.82375 83.47547469999999 77.816086 84.28926759999999 80.72797" />
</svg>
