<?xml version="1.0" standalone="no"?>
<!DOCTYPE svg PUBLIC "-//W3C//DTD SVG 1.1//EN" "http://www.w3.org/Graphics/SVG/1.1/DTD/svg11.dtd">
<svg xmlns="http://www.w3.org/2000/svg" version="1.1" width="100%" height="100%">
<style type="text/css"><![CDATA[
  .stroke { fill:none; stroke:black; stroke-width:2 }
]]></style>
<path class="stroke" d="M 14.894160600000001 9.854013 L 14.894160600000001 75.25547" />
<path class="stroke" d="M 15.054743550000001 9.854013 L 40.105835000000006 9.854013 L 40.105835000000006 75.25547" />
<path class="stroke" d="M 15.060208900000001 32.17822 L 40.0792062 32.17822" />
<path class="stroke" d="M 15.060208900000001 54.158417 L 40.0792062 54.158417" />
<path class="stroke" d="M 15.054743550000001 74.9635 L 39.945251500000005 74.9635" />
<path class="stroke" d="M 18.266422900000002 81.9708 C 16.981751600000003 86.9343 14.894160600000001 89.56204 12.485401500000002 90.72992" />
<path class="stroke" d="M 37.37591 82.26277 C 39.784667999999996 83.43065 41.551092 86.05839 42.996349 90.72992" />
<path class="stroke" d="M 59.16496352 9.854013 L 59.16496352 75.25547" />
<path class="stroke" d="M 59.328466160000005 9.854013 L 84.83503200000001 9.854013 L 84.83503200000001 75.25547" />
<path class="stroke" d="M 59.33403088 32.17822 L 84.80791904 32.17822" />
<path class="stroke" d="M 59.33403088 54.158417 L 84.80791904 54.158417" />
<path class="stroke" d="M 59.328466160000005 74.9635 L 84.6715288 74.9635" />
<path class="stroke" d="M 62.59853968 81.9708 C 61.29051072 86.9343 59.16496352 89.56204 56.7124088 90.72992" />
<path class="stroke" d="M 82.05547200000001 82.26277 C 84.5080256 83.43065 86.30656640000001 86.05839 87.7781008 90.72992" />
</svg>
