<?xml version="1.0" standalone="no"?>
<!DOCTYPE svg PUBLIC "-//W3C//DTD SVG 1.1//EN" "http://www.w3.org/Graphics/SVG/1.1/DTD/svg11.dtd">
<svg xmlns="http://www.w3.org/2000/svg" version="1.1" width="100%" height="100%">
<style type="text/css"><![CDATA[
  .stroke { fill:none; stroke:black; stroke-width:2 }
]]></style>
<path class="stroke" d="M 17.851569358000003 8.729926240000001 L 17.851569358000003 40.1226256" />
<path class="stroke" d="M 18.000911501500003 8.729926240000001 L 41.29842655000001 8.729926240000001 L 41.29842655000001 40.1226256" />
<path class="stroke" d="M 18.005994277 19.445545600000003 L 41.273661766000004 19.445545600000003" />
<path class="stroke" d="M 18.005994277 29.99604016 L 41.273661766000004 29.99604016" />
<path class="stroke" d="M 18.000911501500003 39.982479999999995 L 41.149083895000004 39.982479999999995" />
<path class="stroke" d="M 20.987773297000004 43.345983999999994 C 19.793028988000003 45.728463999999995 17.851569358000003 46.989779199999994 15.611423395000003 47.5503616" />
<path class="stroke" d="M 38.7595963 43.4861296 C 40.99974124 44.046712 42.64251556 45.3080272 43.986604570000004 47.5503616" />
<path class="stroke" d="M 59.0234160736 8.729926240000001 L 59.0234160736 40.1226256" />
<path class="stroke" d="M 59.175473528800005 8.729926240000001 L 82.89657976000001 8.729926240000001 L 82.89657976000001 40.1226256" />
<path class="stroke" d="M 59.1806487184 19.445545600000003 L 82.8713647072 19.445545600000003" />
<path class="stroke" d="M 59.1806487184 29.99604016 L 82.8713647072 29.99604016" />
<path class="stroke" d="M 59.175473528800005 39.982479999999995 L 82.74452178400001 39.982479999999995" />
<path class="stroke" d="M 62.216641902400006 43.345983999999994 C 61.0001749696 45.728463999999995 59.0234160736 46.989779199999994 56.742540184 47.5503616" />
<path class="stroke" d="M 80.31158896000001 43.4861296 C 82.592463808 44.046712 84.26510675200001 45.3080272 85.63363374400001 47.5503616" />
<path class="stroke" d="M 45.247524 52.79009878 C 44.059406 61.45148494 36.633663 72.03762442 29.504951 77.00990122 C 45.766422 78.912406 68.832115 85.0613104 80.51095 92.78686036" />
<path class="stroke" d="M 68.71287 62.5742578 C 61.287132 80.8594084 45.841583 87.7564396 22.992699 92.3138668" />
<path class="stroke" d="M 9.854013 65.19561922 L 89.85401 65.19561922" />
</svg>
