<?xml version="1.0" standalone="no"?>
<!DOCTYPE svg PUBLIC "-//W3C//DTD SVG 1.1//EN" "http://www.w3.org/Graphics/SVG/1.1/DTD/svg11.dtd">
<svg xmlns="http://www.w3.org/2000/svg" version="1.1" width="100%" height="100%">
<style type="text/css"><![CDATA[
  .stroke { fill:none; stroke:black; stroke-width:2 }
]]></style>
<path class="stroke" d="M 10.639847453320002 8.3807291904 L 10.639847453320002 38.517720575999995" />
<path class="stroke" d="M 10.720492210810002 8.3807291904 L 23.301150337000006 8.3807291904 L 23.301150337000006 38.517720575999995" />
<path class="stroke" d="M 10.72323690958 18.667723776000003 L 23.287777353640003 18.667723776000003" />
<path class="stroke" d="M 10.72323690958 28.7961985536 L 23.287777353640003 28.7961985536" />
<path class="stroke" d="M 10.720492210810002 38.38318079999999 L 23.220505303300005 38.38318079999999" />
<path class="stroke" d="M 12.333397580380003 41.61214463999999 C 11.688235653520003 43.89932543999999 10.639847453320002 45.11018803199999 9.430168633300003 45.648347136" />
<path class="stroke" d="M 21.930182002000002 41.746684415999994 C 23.1398602696 42.284843519999995 24.026958402400002 43.49570611199999 24.752766467800004 45.648347136" />
<path class="stroke" d="M 32.872644679744 8.3807291904 L 32.872644679744 38.517720575999995" />
<path class="stroke" d="M 32.954755705552 8.3807291904 L 45.764153070400006 8.3807291904 L 45.764153070400006 38.517720575999995" />
<path class="stroke" d="M 32.957550307936 18.667723776000003 L 45.750536941888 18.667723776000003" />
<path class="stroke" d="M 32.957550307936 28.7961985536 L 45.750536941888 28.7961985536" />
<path class="stroke" d="M 32.954755705552 38.38318079999999 L 45.68204176336001 38.38318079999999" />
<path class="stroke" d="M 34.596986627296005 41.61214463999999 C 33.940094483584005 43.89932543999999 32.872644679744 45.11018803199999 31.64097169936 45.648347136" />
<path class="stroke" d="M 44.36825803840001 41.746684415999994 C 45.59993045632 42.284843519999995 46.503157646080005 43.49570611199999 47.242162221760005 45.648347136" />
<path class="stroke" d="M 25.43366296 50.6784948288 C 24.792079240000003 58.9934255424 20.78217802 69.1561194432 16.93267354 73.9295051712 C 25.713867880000002 75.75590976 38.1693421 81.658857984 44.475913 89.0753859456" />
<path class="stroke" d="M 38.1049498 60.071287487999996 C 34.09505128 77.62503206400001 25.754454820000003 84.24618201599999 13.416057460000001 88.621312128" />
<path class="stroke" d="M 6.321167020000001 62.5877944512 L 49.5211654 62.5877944512" />
<path class="stroke" d="M 64.2596856 9.4764385 C 63.9326792 12.980087 63.80855184 14.994076 62.500522880000005 17.329842" />
<path class="stroke" d="M 56.3434556 17.015707 L 56.3434556 66.96335" />
<path class="stroke" d="M 56.167538320000006 17.43295 L 82.599232 17.43295 L 82.599232 43.333332" />
<path class="stroke" d="M 56.695286800000005 30.583939 L 82.4275864 30.583939" />
<path class="stroke" d="M 56.51937232 43.430653 L 82.599232 43.430653" />
<path class="stroke" d="M 56.695286800000005 55.10949 L 91.1748704 55.10949" />
<path class="stroke" d="M 56.51937232 66.20438 L 91.4390784 66.20438 L 90.40919360000001 80.57471 C 90.0659024 85.01916 89.12183759999999 90.22988 87.1478908 90.22988 C 86.0321804 90.22988 85.51723744 90.22988 84.7448272 90.22988" />
<path class="stroke" d="M 54.36321832 74.137924 C 54.19156992 76.74329 53.33333296 80.881226 52.3034476 83.48659" />
<path class="stroke" d="M 62.516473919999996 74.137924 C 63.20306472 76.28352 63.80383048 79.042145 63.8896544 82.26054" />
<path class="stroke" d="M 72.81532416 74.597694 C 73.7593856 76.74329 74.36015024 79.042145 74.78927208 81.800766" />
<path class="stroke" d="M 82.1701152 74.44444 C 83.37164560000001 75.82375 84.31570479999999 77.816086 85.08811840000001 80.72797" />
</svg>
