<?xml version="1.0" standalone="no"?>
<!DOCTYPE svg PUBLIC "-//W3C//DTD SVG 1.1//EN" "http://www.w3.org/Graphics/SVG/1.1/DTD/svg11.dtd">
<svg xmlns="http://www.w3.org/2000/svg" version="1.1" width="100%" height="100%">
<style type="text/css"><![CDATA[
  .stroke { fill:none; stroke:black; stroke-width:2 }
]]></style>
<path class="stroke" d="M 9.5843210424 9.854013 L 9.568349232 55.63759 C 7.5393018324 80.20134 7.5393018324 79.39597 5.2715433576 89.865776" />
<path class="stroke" d="M 9.5843210424 9.854013 L 21.699941951999996 9.854013 L 21.699941951999996 86.05839 C 21.699941951999996 88.39416 21.353779355999997 90.43795 20.4883784976 90.43795 L 19.536438324 90.43795" />
<path class="stroke" d="M 9.5843210424 31.862577 L 21.699941951999996 31.862577" />
<path class="stroke" d="M 9.5843210424 55.110336 L 21.699941951999996 55.110336" />
<path class="stroke" d="M 31.2406130088 9.854013 L 31.224080783999998 55.63759 C 29.1238387388 80.20134 29.1238387388 79.39597 26.7765097912 89.865776" />
<path class="stroke" d="M 31.2406130088 9.854013 L 43.781343424 9.854013 L 43.781343424 86.05839 C 43.781343424 88.39416 43.423034772 90.43795 42.527268971199994 90.43795 L 41.541927388 90.43795" />
<path class="stroke" d="M 31.2406130088 31.862577 L 43.781343424 31.862577" />
<path class="stroke" d="M 31.2406130088 55.110336 L 43.781343424 55.110336" />
<path class="stroke" d="M 62.9832458 9.4764385 C 62.6445606 12.980087 62.51600012 14.994076 61.161255839999995 17.329842" />
<path class="stroke" d="M 54.7842933 17.015707 L 54.7842933 66.96335" />
<path class="stroke" d="M 54.602093260000004 17.43295 L 81.977776 17.43295 L 81.977776 43.333332" />
<path class="stroke" d="M 55.1486899 30.583939 L 81.8000002 30.583939" />
<path class="stroke" d="M 54.96649276 43.430653 L 81.977776 43.430653" />
<path class="stroke" d="M 55.1486899 55.10949 L 90.8596872 55.10949" />
<path class="stroke" d="M 54.96649276 66.20438 L 91.13333119999999 66.20438 L 90.0666648 80.57471 C 89.7111132 85.01916 88.7333318 90.22988 86.6888869 90.22988 C 85.5333297 90.22988 84.99999592 90.22988 84.19999959999998 90.22988" />
<path class="stroke" d="M 52.733333259999995 74.137924 C 52.55555456 76.74329 51.66666628 80.881226 50.5999993 83.48659" />
<path class="stroke" d="M 61.17777656 74.137924 C 61.888888460000004 76.28352 62.51111014 79.042145 62.5999992 82.26054" />
<path class="stroke" d="M 71.84444288 74.597694 C 72.8222208 76.74329 73.44444132 79.042145 73.88888894 81.800766" />
<path class="stroke" d="M 81.53333359999999 74.44444 C 82.7777758 75.82375 83.7555514 77.816086 84.5555512 80.72797" />
</svg>
