<?xml version="1.0" standalone="no"?>
<!DOCTYPE svg PUBLIC "-//W3C//DTD SVG 1.1//EN" "http://www.w3.org/Graphics/SVG/1.1/DTD/svg11.dtd">
<svg xmlns="http://www.w3.org/2000/svg" version="1.1" width="100%" height="100%">
<style type="text/css"><![CDATA[
  .stroke { fill:none; stroke:black; stroke-width:2 }
]]></style>
<path class="stroke" d="M 7.61358 8.46687776 L 43.954275 8.46687776" />
<path class="stroke" d="M 7.61358 8.466876 L 7.61358 80.365912 L 44.66406 80.365912" />
<path class="stroke" d="M 40.04649408 21.031357424 C 36.6960684 37.51800448 24.3629436 60.5479072 13.842700212 69.07806928" />
<path class="stroke" d="M 18.572627172000004 26.2728160288 C 24.635492400000004 31.917818240000003 34.072737599999996 48.970064 39.2172096 62.43561984" />
<path class="stroke" d="M 59.7921463 9.4764385 C 59.4242641 12.980087 59.28462082 14.994076 57.81308824 17.329842" />
<path class="stroke" d="M 50.88638755 17.015707 L 50.88638755 66.96335" />
<path class="stroke" d="M 50.68848061 17.43295 L 80.424136 17.43295 L 80.424136 43.333332" />
<path class="stroke" d="M 51.28219765 30.583939 L 80.2310347 30.583939" />
<path class="stroke" d="M 51.08429386 43.430653 L 80.424136 43.430653" />
<path class="stroke" d="M 51.28219765 55.10949 L 90.07172920000001 55.10949" />
<path class="stroke" d="M 51.08429386 66.20438 L 90.3689632 66.20438 L 89.2103428 80.57471 C 88.8241402 85.01916 87.7620673 90.22988 85.54137715 90.22988 C 84.28620294999999 90.22988 83.70689211999999 90.22988 82.83793059999999 90.22988" />
<path class="stroke" d="M 48.65862061 74.137924 C 48.46551616 76.74329 47.49999958 80.881226 46.34137855 83.48659" />
<path class="stroke" d="M 57.831033160000004 74.137924 C 58.603447810000006 76.28352 59.27930929 79.042145 59.3758612 82.26054" />
<path class="stroke" d="M 69.41723968 74.597694 C 70.4793088 76.74329 71.15516902 79.042145 71.63793109 81.800766" />
<path class="stroke" d="M 79.9413796 74.44444 C 81.2931013 75.82375 82.3551679 77.816086 83.2241332 80.72797" />
</svg>
