<?xml version="1.0" standalone="no"?>
<!DOCTYPE svg PUBLIC "-//W3C//DTD SVG 1.1//EN" "http://www.w3.org/Graphics/SVG/1.1/DTD/svg11.dtd">
<svg xmlns="http://www.w3.org/2000/svg" version="1.1" width="100%" height="100%">
<style type="text/css"><![CDATA[
  .stroke { fill:none; stroke:black; stroke-width:2 }
]]></style>
<path class="stroke" d="M 27.4178216 16.181047257142854 L 55.8376244 16.181047257142854" />
<path class="stroke" d="M 41.900991520000005 7.355021142857143 L 41.900991520000005 27.875531542857146" />
<path class="stroke" d="M 13.207921120000002 28.003574857142855 L 78.7920752 28.003574857142855" />
<path class="stroke" d="M 66.49505160000001 11.98868542857143 C 52.83168356 30.302687999999996 32.33663288 41.77652142857143 10.475247880000001 47.07213828571429" />
<path class="stroke" d="M 70.08821280000001 40.291810000000005 C 60.124060799999995 43.98264 48.7087008 45.828120000000006 36.422744800000004 46.443149999999996" />
<path class="stroke" d="M 35.5520936 37.83115050000001 L 35.5520936 54.440019400000004 C 35.4554016 58.40430440000001 37.970681600000006 60.31803310000001 42.5174136 60.386410500000004 L 70.0883416 60.386410500000004 C 75.9894976 60.4547905 78.1178256 58.2676055 77.9242576 54.2350744 L 77.9242576 52.184518749999995" />
<path class="stroke" d="M 24.744522 68.15839385 L 24.744522 95.3817488" />
<path class="stroke" d="M 24.744522 68.15839385 L 74.9635 68.15839385 L 74.9635 95.3817488" />
<path class="stroke" d="M 25.036495 81.02848791 L 74.67153 81.02848791" />
<path class="stroke" d="M 24.744522 94.19342868 L 74.9635 94.19342868" />
</svg>
