<?xml version="1.0" standalone="no"?>
<!DOCTYPE svg PUBLIC "-//W3C//DTD SVG 1.1//EN" "http://www.w3.org/Graphics/SVG/1.1/DTD/svg11.dtd">
<svg xmlns="http://www.w3.org/2000/svg" version="1.1" width="100%" height="100%">
<style type="text/css"><![CDATA[
  .stroke { fill:none; stroke:black; stroke-width:2 }
]]></style>
<path class="stroke" d="M 22.006567529999998 9.562042 C 17.355474219999998 19.48905 14.42700627 24.160583 9.6036483 28.832115" />
<path class="stroke" d="M 19.07810194 16.27737 L 35.6153264 16.27737 C 35.09853596 22.992699 33.03138423 27.372261 29.758392859999997 32.919704" />
<path class="stroke" d="M 16.66642207 34.257427 L 16.66642207 69.124084" />
<path class="stroke" d="M 16.66642207 34.37956 L 42.1613115 34.08759 L 42.1613115 69.124084" />
<path class="stroke" d="M 29.5861282 34.08759 L 29.5861282 69.124084" />
<path class="stroke" d="M 16.66642207 51.313866 L 42.1613115 51.313866" />
<path class="stroke" d="M 16.66642207 69.124084 L 42.1613115 69.124084" />
<path class="stroke" d="M 11.670802389999999 77.59124 C 11.15401313 81.678825 10.12043756 85.47445 8.742334439999999 88.978096" />
<path class="stroke" d="M 20.1116781 78.17518 C 21.48977945 81.09489 22.3510939 85.47445 22.867880800000002 89.85401" />
<path class="stroke" d="M 31.997808659999997 77.88321 C 33.8926975 81.09489 35.015853359999994 85.18248 35.959851 89.85401" />
<path class="stroke" d="M 44.57298959999999 78.46715 C 45.951093900000004 80.51095 47.50146049999999 86.05839 48.36277199999999 90.43795" />
<path class="stroke" d="M 57.902336528 15.371994894285711 L 74.385822152 15.371994894285711" />
<path class="stroke" d="M 66.3025750816 6.987270085714285 L 66.3025750816 26.481754965714288" />
<path class="stroke" d="M 49.6605942496 26.60339611428571 L 87.699403616 26.60339611428571" />
<path class="stroke" d="M 80.56712992800001 11.389251157142857 C 72.6423764648 28.787553599999995 60.7552470704 39.68769535714286 48.0756437704 44.718531371428575" />
<path class="stroke" d="M 82.651163424 38.2772195 C 76.871955264 41.783508000000005 70.251046464 43.536714 63.125191984 44.12099249999999" />
<path class="stroke" d="M 62.620214288 35.939592975000004 L 62.620214288 51.71801843 C 62.564132928 55.484089180000005 64.02299532800001 57.30213144500001 66.66009988799999 57.367089975 L 82.651238128 57.367089975 C 86.07390860800001 57.432050974999996 87.308338848 55.354225225 87.196069408 51.52332068 L 87.196069408 49.575292812499995" />
<path class="stroke" d="M 56.35182276 64.7504741575 L 56.35182276 90.61266135999999" />
<path class="stroke" d="M 56.35182276 64.7504741575 L 85.47882999999999 64.7504741575 L 85.47882999999999 90.61266135999999" />
<path class="stroke" d="M 56.5211671 76.97706351449999 L 85.3094874 76.97706351449999" />
<path class="stroke" d="M 56.35182276 89.483757246 L 85.47882999999999 89.483757246" />
</svg>
