<?xml version="1.0" standalone="no"?>
<!DOCTYPE svg PUBLIC "-//W3C//DTD SVG 1.1//EN" "http://www.w3.org/Graphics/SVG/1.1/DTD/svg11.dtd">
<svg xmlns="http://www.w3.org/2000/svg" version="1.1" width="100%" height="100%">
<style type="text/css"><![CDATA[
  .stroke { fill:none; stroke:black; stroke-width:2 }
]]></style>
<path class="stroke" d="M 12.53469945 10.2791788 L 86.75870160000001 10.2791788" />
<path class="stroke" d="M 32.1908307 5.0552044 L 32.1908307 35.717667999999996" />
<path class="stroke" d="M 66.8091228 5.05520548 L 66.8091228 35.83123" />
<path class="stroke" d="M 32.4842271 18.56941 L 66.5157171 18.56941" />
<path class="stroke" d="M 32.7776049 26.859616 L 66.5157729 26.859616" />
<path class="stroke" d="M 10.4810688 36.058372 L 89.98578300000001 36.058372" />
<path class="stroke" d="M 31.7035 39.37856000000001 C 28.7592 42.23872 22.0295 43.78656 14.3533 44.627776" />
<path class="stroke" d="M 65.7729 39.378528 C 69.7686 42.205023999999995 75.3417 43.618272000000005 83.123 44.627744" />
<path class="stroke" d="M 25.328465 55.751642000000004 L 87.51824 55.751642000000004" />
<path class="stroke" d="M 45.332287 55.751642000000004 C 44.946503 67.5401975 25.036495 81.204376 13.065693 85.0" />
<path class="stroke" d="M 37.299267 72.737225 L 37.299267 92.59124" />
<path class="stroke" d="M 37.299267 72.737225 L 80.21897 72.737225 L 79.927 92.737225" />
<path class="stroke" d="M 37.007298 91.131385 L 79.927 91.131385" />
</svg>
