<?xml version="1.0" standalone="no"?>
<!DOCTYPE svg PUBLIC "-//W3C//DTD SVG 1.1//EN" "http://www.w3.org/Graphics/SVG/1.1/DTD/svg11.dtd">
<svg xmlns="http://www.w3.org/2000/svg" version="1.1" width="100%" height="100%">
<style type="text/css"><![CDATA[
  .stroke { fill:none; stroke:black; stroke-width:2 }
]]></style>
<path class="stroke" d="M 23.49853821 9.562042 C 18.53211654 19.48905 15.40510839 24.160583 10.2547431 28.832115" />
<path class="stroke" d="M 20.37153258 16.27737 L 38.0299248 16.27737 C 37.47809772 22.992699 35.270800109999996 27.372261 31.77591102 32.919704" />
<path class="stroke" d="M 17.796348990000002 34.257427 L 17.796348990000002 69.124084" />
<path class="stroke" d="M 17.796348990000002 34.37956 L 45.0197055 34.08759 L 45.0197055 69.124084" />
<path class="stroke" d="M 31.5919674 34.08759 L 31.5919674 69.124084" />
<path class="stroke" d="M 17.796348990000002 51.313866 L 45.0197055 51.313866" />
<path class="stroke" d="M 17.796348990000002 69.124084 L 45.0197055 69.124084" />
<path class="stroke" d="M 12.462043229999999 77.59124 C 11.910217410000001 81.678825 10.80656892 85.47445 9.335035079999999 88.978096" />
<path class="stroke" d="M 21.4751817 78.17518 C 22.94671365 81.09489 23.8664223 85.47445 24.418245600000002 89.85401" />
<path class="stroke" d="M 34.16715162 77.88321 C 36.1905075 81.09489 37.38980952 85.18248 38.397807 89.85401" />
<path class="stroke" d="M 47.594887199999995 78.46715 C 49.066422300000006 80.51095 50.721898499999995 86.05839 51.641604 90.43795" />
<path class="stroke" d="M 79.41584098 15.45940652 C 71.71683256 18.46534616 66.26336716 19.2495058 56.20875778 20.31094772" />
<path class="stroke" d="M 55.9653112 7.3564356 L 55.9653112 36.370295199999994 C 55.9653112 40.16039536 59.20593976 42.251486560000004 63.69703012 42.251486560000004 L 87.27524884 42.251486560000004 C 89.3603962 42.251486560000004 90.48316744 41.5980188 90.48316744 39.8990116 L 90.48316744 38.7227728" />
<path class="stroke" d="M 57.4527277432 59.1343062 L 57.4527277432 91.5080256" />
<path class="stroke" d="M 57.4527277432 59.1343062 L 88.36753060000001 59.1343062 L 88.36753060000001 91.5080256" />
<path class="stroke" d="M 57.632466322 74.43928292 L 88.187793868 74.43928292" />
<path class="stroke" d="M 57.4527277432 90.09488816 L 88.36753060000001 90.09488816" />
</svg>
