<?xml version="1.0" standalone="no"?>
<!DOCTYPE svg PUBLIC "-//W3C//DTD SVG 1.1//EN" "http://www.w3.org/Graphics/SVG/1.1/DTD/svg11.dtd">
<svg xmlns="http://www.w3.org/2000/svg" version="1.1" width="100%" height="100%">
<style type="text/css"><![CDATA[
  .stroke { fill:none; stroke:black; stroke-width:2 }
]]></style>
<path class="stroke" d="M 24.24452355 9.562042 C 19.1204377 19.48905 15.894159450000002 24.160583 10.580290500000002 28.832115" />
<path class="stroke" d="M 21.018247900000002 16.27737 L 39.237224000000005 16.27737 C 38.6678786 22.992699 36.39050805 27.372261 32.7846701 32.919704" />
<path class="stroke" d="M 18.36131245 34.257427 L 18.36131245 69.124084" />
<path class="stroke" d="M 18.36131245 34.37956 L 46.4489025 34.08759 L 46.4489025 69.124084" />
<path class="stroke" d="M 32.594887 34.08759 L 32.594887 69.124084" />
<path class="stroke" d="M 18.36131245 51.313866 L 46.4489025 51.313866" />
<path class="stroke" d="M 18.36131245 69.124084 L 46.4489025 69.124084" />
<path class="stroke" d="M 12.85766365 77.59124 C 12.28831955 81.678825 11.1496346 85.47445 9.6313854 88.978096" />
<path class="stroke" d="M 22.1569335 78.17518 C 23.675180750000003 81.09489 24.6240865 85.47445 25.193428000000004 89.85401" />
<path class="stroke" d="M 35.2518231 77.88321 C 37.3394125 81.09489 38.5767876 85.18248 39.616785 89.85401" />
<path class="stroke" d="M 49.105836 78.46715 C 50.624086500000004 80.51095 50.744811 78.290596 51.6937135 82.67016" />
<path class="stroke" d="M 63.12108084117647 11.605839 C 61.08930778235294 27.372261 56.86947130588235 41.970802 53.274795194117644 50.14598" />
<path class="stroke" d="M 59.99527527058824 30.583939 L 59.99527527058824 90.43795" />
<path class="stroke" d="M 71.441750176 30.29197 L 93.66890224 30.29197" />
<path class="stroke" d="M 88.12932975999999 9.270073 L 88.12932975999999 84.8905 C 88.12932975999999 87.51824 87.11006943999999 90.14598 85.470362176 90.14598 L 82.55532496000001 90.14598" />
<path class="stroke" d="M 72.35269907200001 40.51095 C 75.08554576 42.846714 76.72525552 46.642334 77.63620191999999 51.021896" />
</svg>
