<?xml version="1.0" standalone="no"?>
<!DOCTYPE svg PUBLIC "-//W3C//DTD SVG 1.1//EN" "http://www.w3.org/Graphics/SVG/1.1/DTD/svg11.dtd">
<svg xmlns="http://www.w3.org/2000/svg" version="1.1" width="100%" height="100%">
<style type="text/css"><![CDATA[
  .stroke { fill:none; stroke:black; stroke-width:2 }
]]></style>
<path class="stroke" d="M 23.12554554 9.562042 C 18.23795596 19.48905 15.160582860000002 24.160583 10.0919694 28.832115" />
<path class="stroke" d="M 20.04817492 16.27737 L 37.4262752 16.27737 C 36.88320728 22.992699 34.71094614 27.372261 31.271531479999997 32.919704" />
<path class="stroke" d="M 17.51386726 34.257427 L 17.51386726 69.124084" />
<path class="stroke" d="M 17.51386726 34.37956 L 44.305107 34.08759 L 44.305107 69.124084" />
<path class="stroke" d="M 31.090507600000002 34.08759 L 31.090507600000002 69.124084" />
<path class="stroke" d="M 17.51386726 51.313866 L 44.305107 51.313866" />
<path class="stroke" d="M 17.51386726 69.124084 L 44.305107 69.124084" />
<path class="stroke" d="M 12.264233019999999 77.59124 C 11.72116634 81.678825 10.635036079999999 85.47445 9.18685992 88.978096" />
<path class="stroke" d="M 21.1343058 78.17518 C 22.5824801 81.09489 23.4875902 85.47445 24.030654400000003 89.85401" />
<path class="stroke" d="M 33.62481588 77.88321 C 35.616055 81.09489 36.79632048 85.18248 37.788318000000004 89.85401" />
<path class="stroke" d="M 46.8394128 78.46715 C 48.287590200000004 80.51095 48.4027428 78.290596 49.3078498 82.67016" />
<path class="stroke" d="M 54.040948732000004 7.873773389999999 L 54.040948732000004 23.68784586" />
<path class="stroke" d="M 54.040948732000004 7.873773389999999 L 66.5162768 7.873773389999999 L 66.5162768 23.535787884" />
<path class="stroke" d="M 54.040948732000004 22.471378406399996 L 66.5162768 22.471378406399996" />
<path class="stroke" d="M 78.540948732 7.873773389999999 L 78.540948732 23.68784586" />
<path class="stroke" d="M 78.540948732 7.873773389999999 L 91.0162768 7.873773389999999 L 91.0162768 23.535787884" />
<path class="stroke" d="M 78.540948732 22.471378406399996 L 91.0162768 22.471378406399996" />
<path class="stroke" d="M 60.611240348 36.92100000000001 L 84.3887573 36.92100000000001" />
<path class="stroke" d="M 51.0141958 50.643941611349995 L 94.14036 50.643941611349995" />
<path class="stroke" d="M 64.925874 50.643941611349995 L 61.679771 64.4189899602 L 85.638811 64.4189899602 C 85.69031 76.519983267 82.49580399999999 89.05141343070001 76.51893100000001 88.95575574180002 L 71.727123 88.95575574180002" />
</svg>
