<?xml version="1.0" standalone="no"?>
<!DOCTYPE svg PUBLIC "-//W3C//DTD SVG 1.1//EN" "http://www.w3.org/Graphics/SVG/1.1/DTD/svg11.dtd">
<svg xmlns="http://www.w3.org/2000/svg" version="1.1" width="100%" height="100%">
<style type="text/css"><![CDATA[
  .stroke { fill:none; stroke:black; stroke-width:2 }
]]></style>
<path class="stroke" d="M 19.76861151 9.562042 C 15.590510740000001 19.48905 12.959853090000001 24.160583 8.627006100000001 28.832115" />
<path class="stroke" d="M 17.13795598 16.27737 L 31.993428800000004 16.27737 C 31.52919332 22.992699 29.67226041 27.372261 26.732115620000002 32.919704" />
<path class="stroke" d="M 14.97153169 34.257427 L 14.97153169 69.124084" />
<path class="stroke" d="M 14.97153169 34.37956 L 37.873720500000005 34.08759 L 37.873720500000005 69.124084" />
<path class="stroke" d="M 26.577369400000002 34.08759 L 26.577369400000002 69.124084" />
<path class="stroke" d="M 14.97153169 51.313866 L 37.873720500000005 51.313866" />
<path class="stroke" d="M 14.97153169 69.124084 L 37.873720500000005 69.124084" />
<path class="stroke" d="M 10.48394113 77.59124 C 10.019706710000001 81.678825 9.09124052 85.47445 7.85328348 88.978096" />
<path class="stroke" d="M 18.0664227 78.17518 C 19.30437815 81.09489 20.0781013 85.47445 20.542333600000003 89.85401" />
<path class="stroke" d="M 28.74379422 77.88321 C 30.445982500000003 81.09489 31.45491912 85.18248 32.302917 89.85401" />
<path class="stroke" d="M 40.040143199999996 78.46715 C 41.2781013 80.51095 41.3765382 78.290596 42.1502587 82.67016" />
<path class="stroke" d="M 62.371983233799995 10.729925 C 57.865415788 15.109488 52.457532013 18.029196 47.5904375416 19.781021" />
<path class="stroke" d="M 43.8049185904 41.094887 L 64.895663152 37.299267" />
<path class="stroke" d="M 55.522 16.569342 L 55.522 86.642334" />
<path class="stroke" d="M 55.522 44.890507 C 51.3759564928 57.153282 47.950962715 65.03649 43.264131139 68.540146" />
<path class="stroke" d="M 55.522 44.890507 C 59.3075177164 48.394157 61.4706693742 51.313866 63.273296476 56.277367" />
<path class="stroke" d="M 73.651816684 33.169632039999996 C 73.23225597460001 38.032458180000006 71.9735761837 42.08481602 70.400225026 46.40732738" />
<path class="stroke" d="M 90.904406311 33.48869548 C 89.85516028660001 38.82189518 88.58780143300001 42.337225159999996 87.125466349 45.35036158" />
<path class="stroke" d="M 79.73368497999999 16.474451180000003 C 79.80390415 24.90264296 79.76877787000001 31.714272960000002 79.73368497999999 42.24156478 C 79.83702703 65.4309376 71.62913062000001 85.055656 66.6527658238 85.776637" />
<path class="stroke" d="M 79.7582873998 45.124751759999995 C 80.8568578 62.3244542 88.24953736 81.2336526 91.51247327050001 84.7722559 C 92.292385204 85.776637 92.877321241 86.0277312 93.754720288 86.278834" />
</svg>
