<?xml version="1.0" standalone="no"?>
<!DOCTYPE svg PUBLIC "-//W3C//DTD SVG 1.1//EN" "http://www.w3.org/Graphics/SVG/1.1/DTD/svg11.dtd">
<svg xmlns="http://www.w3.org/2000/svg" version="1.1" width="100%" height="100%">
<style type="text/css"><![CDATA[
  .stroke { fill:none; stroke:black; stroke-width:2 }
]]></style>
<path class="stroke" d="M 20.51459685 9.562042 C 16.178831900000002 19.48905 13.448904150000002 24.160583 8.952553500000002 28.832115" />
<path class="stroke" d="M 17.784671300000003 16.27737 L 33.200728000000005 16.27737 C 32.718974200000005 22.992699 30.79196835 27.372261 27.740874700000003 32.919704" />
<path class="stroke" d="M 15.536495150000002 34.257427 L 15.536495150000002 69.124084" />
<path class="stroke" d="M 15.536495150000002 34.37956 L 39.30291750000001 34.08759 L 39.30291750000001 69.124084" />
<path class="stroke" d="M 27.580289000000004 34.08759 L 27.580289000000004 69.124084" />
<path class="stroke" d="M 15.536495150000002 51.313866 L 39.30291750000001 51.313866" />
<path class="stroke" d="M 15.536495150000002 69.124084 L 39.30291750000001 69.124084" />
<path class="stroke" d="M 10.87956155 77.59124 C 10.39780885 81.678825 9.4343062 85.47445 8.1496338 88.978096" />
<path class="stroke" d="M 18.7481745 78.17518 C 20.03284525 81.09489 20.8357655 85.47445 21.317516000000005 89.85401" />
<path class="stroke" d="M 29.828465700000002 77.88321 C 31.594887500000002 81.09489 32.6418972 85.18248 33.521895 89.85401" />
<path class="stroke" d="M 41.551092 78.46715 C 42.83576550000001 80.51095 42.937917 78.290596 43.740834500000005 82.67016" />
<path class="stroke" d="M 47.720825 11.91519725 L 47.678082 63.662499999999994" />
<path class="stroke" d="M 47.720825 11.91519725 L 67.515775 11.91519725" />
<path class="stroke" d="M 56.55363175 11.915258999999999 L 56.55363175 27.498797749999998" />
<path class="stroke" d="M 47.720825 28.277965425 L 64.1246 28.277965425 L 64.1246 45.030369924999995" />
<path class="stroke" d="M 47.720825 45.030369924999995 L 64.1246 45.030369924999995" />
<path class="stroke" d="M 56.632496 45.225184999999996 L 56.632496 61.003545" />
<path class="stroke" d="M 47.720825 61.19836625 L 67.6735 61.19836625" />
<path class="stroke" d="M 75.96534625 14.41534607 L 88.3663375 14.41534607 C 85.54455375 38.4428224975 80.792079 50.181437599999995 72.4752475 60.45272265" />
<path class="stroke" d="M 75.66831675 19.917822497499998 C 76.77419275 31.293547052500003 80.64516075 40.655645480000004 81.935483 44.838710275 C 84.2741925 51.21290342500001 88.467741 55.9935452 92.450495 60.45272265" />
<path class="stroke" d="M 54.1605835 79.62700679999999 L 85.83941250000001 79.62700679999999" />
<path class="stroke" d="M 70.0 70.3072988925 L 70.0 91.77590984999999" />
<path class="stroke" d="M 49.9270065 91.77590984999999 L 89.92700500000001 91.77590984999999" />
</svg>
