<?xml version="1.0" standalone="no"?>
<!DOCTYPE svg PUBLIC "-//W3C//DTD SVG 1.1//EN" "http://www.w3.org/Graphics/SVG/1.1/DTD/svg11.dtd">
<svg xmlns="http://www.w3.org/2000/svg" version="1.1" width="100%" height="100%">
<style type="text/css"><![CDATA[
  .stroke { fill:none; stroke:black; stroke-width:2 }
]]></style>
<path class="stroke" d="M 24.617516220000002 9.562042 C 19.41459828 19.48905 16.13868498 24.160583 10.743064200000001 28.832115" />
<path class="stroke" d="M 21.34160556 16.27737 L 39.8408736 16.27737 C 39.26276904 22.992699 36.95036202 27.372261 33.28904964 32.919704" />
<path class="stroke" d="M 18.64379418 34.257427 L 18.64379418 69.124084" />
<path class="stroke" d="M 18.64379418 34.37956 L 47.163501000000004 34.08759 L 47.163501000000004 69.124084" />
<path class="stroke" d="M 33.0963468 34.08759 L 33.0963468 69.124084" />
<path class="stroke" d="M 18.64379418 51.313866 L 47.163501000000004 51.313866" />
<path class="stroke" d="M 18.64379418 69.124084 L 47.163501000000004 69.124084" />
<path class="stroke" d="M 13.05547386 77.59124 C 12.477370620000002 81.678825 11.32116744 85.47445 9.77956056 88.978096" />
<path class="stroke" d="M 22.4978094 78.17518 C 24.0394143 81.09489 25.0029186 85.47445 25.581019200000004 89.85401" />
<path class="stroke" d="M 35.79415884 77.88321 C 37.913865 81.09489 39.17027664 85.18248 40.226274000000004 89.85401" />
<path class="stroke" d="M 49.8613104 78.46715 C 51.40291860000001 80.51095 51.5255004 78.290596 52.48900140000001 82.67016" />
<path class="stroke" d="M 73.5 9.678831933333333 L 73.5 23.71666666666667" />
<path class="stroke" d="M 55.93649589 23.71666666666667 L 91.2182445 23.71666666666667" />
<path class="stroke" d="M 64.44744312 34.827735759999996 C 62.59051074 39.87299176 58.87664068 43.86715072 55.16277327 45.338684560000004" />
<path class="stroke" d="M 81.77883320000001 34.40729896 C 85.8021904 36.92992624 89.0518218 40.92408664 91.52773535 46.17956176" />
<path class="stroke" d="M 80.386131 47.651092 C 76.82700451 63.207296799999995 66.61386794 85.9109416 52.06788226 90.3255424" />
<path class="stroke" d="M 65.99488889 50.38394128 C 69.24452506 62.78686 84.4094882 83.1781024 95.0868576 90.115324" />
</svg>
