<?xml version="1.0" standalone="no"?>
<!DOCTYPE svg PUBLIC "-//W3C//DTD SVG 1.1//EN" "http://www.w3.org/Graphics/SVG/1.1/DTD/svg11.dtd">
<svg xmlns="http://www.w3.org/2000/svg" version="1.1" width="100%" height="100%">
<style type="text/css"><![CDATA[
  .stroke { fill:none; stroke:black; stroke-width:2 }
]]></style>
<path class="stroke" d="M 23.12554554 9.562042 C 18.23795596 19.48905 15.160582860000002 24.160583 10.0919694 28.832115" />
<path class="stroke" d="M 20.04817492 16.27737 L 37.4262752 16.27737 C 36.88320728 22.992699 34.71094614 27.372261 31.271531479999997 32.919704" />
<path class="stroke" d="M 17.51386726 34.257427 L 17.51386726 69.124084" />
<path class="stroke" d="M 17.51386726 34.37956 L 44.305107 34.08759 L 44.305107 69.124084" />
<path class="stroke" d="M 31.090507600000002 34.08759 L 31.090507600000002 69.124084" />
<path class="stroke" d="M 17.51386726 51.313866 L 44.305107 51.313866" />
<path class="stroke" d="M 17.51386726 69.124084 L 44.305107 69.124084" />
<path class="stroke" d="M 12.264233019999999 77.59124 C 11.72116634 81.678825 10.635036079999999 85.47445 9.18685992 88.978096" />
<path class="stroke" d="M 21.1343058 78.17518 C 22.5824801 81.09489 23.4875902 85.47445 24.030654400000003 89.85401" />
<path class="stroke" d="M 33.62481588 77.88321 C 35.616055 81.09489 36.79632048 85.18248 37.788318000000004 89.85401" />
<path class="stroke" d="M 46.8394128 78.46715 C 48.287590200000004 80.51095 49.916788999999994 86.05839 50.821895999999995 90.43795" />
<path class="stroke" d="M 60.036495 15.071050436170212 L 89.817515 15.071050436170212" />
<path class="stroke" d="M 75.07299 8.697389265957446 L 75.07299 37.113291526595745" />
<path class="stroke" d="M 61.350365 25.959388117021277 L 88.64963 25.959388117021277" />
<path class="stroke" d="M 55.0729925 37.113291526595745 L 95.07299 37.113291526595745" />
<path class="stroke" d="M 66.167883 47.042334915999994 L 66.14094 71.39919788 C 65.732985 82.10387311999999 66.417125 83.55299856 62.5916235 89.12293215999999" />
<path class="stroke" d="M 66.167883 47.042334915999994 L 86.60584 47.042334915999994 L 86.60584 87.58306348 C 86.60584 88.82569312 86.021895 89.9129894 84.56204199999999 89.9129894 L 82.956205 89.9129894" />
<path class="stroke" d="M 66.167883 58.750890964 L 86.60584 58.750890964" />
<path class="stroke" d="M 66.167883 71.118698752 L 86.60584 71.118698752" />
</svg>
