<?xml version="1.0" standalone="no"?>
<!DOCTYPE svg PUBLIC "-//W3C//DTD SVG 1.1//EN" "http://www.w3.org/Graphics/SVG/1.1/DTD/svg11.dtd">
<svg xmlns="http://www.w3.org/2000/svg" version="1.1" width="100%" height="100%">
<style type="text/css"><![CDATA[
  .stroke { fill:none; stroke:black; stroke-width:2 }
]]></style>
<path class="stroke" d="M 22.3795602 9.562042 C 17.649634799999998 19.48905 14.6715318 24.160583 9.766422 28.832115" />
<path class="stroke" d="M 19.4014596 16.27737 L 36.218976 16.27737 C 35.6934264 22.992699 33.5912382 27.372261 30.262772399999996 32.919704" />
<path class="stroke" d="M 16.9489038 34.257427 L 16.9489038 69.124084" />
<path class="stroke" d="M 16.9489038 34.37956 L 42.87591 34.08759 L 42.87591 69.124084" />
<path class="stroke" d="M 30.087588 34.08759 L 30.087588 69.124084" />
<path class="stroke" d="M 16.9489038 51.313866 L 42.87591 51.313866" />
<path class="stroke" d="M 16.9489038 69.124084 L 42.87591 69.124084" />
<path class="stroke" d="M 11.868612599999999 77.59124 C 11.3430642 81.678825 10.291970399999999 85.47445 8.8905096 88.978096" />
<path class="stroke" d="M 20.452554 78.17518 C 21.854013 81.09489 22.729926 85.47445 23.255472 89.85401" />
<path class="stroke" d="M 32.540144399999996 77.88321 C 34.46715 81.09489 35.609342399999996 85.18248 36.56934 89.85401" />
<path class="stroke" d="M 45.328464 78.46715 C 46.729926 80.51095 48.306569999999994 86.05839 49.18248 90.43795" />
<path class="stroke" d="M 59.4376342816 12.4698888125 L 83.881893856 12.4698888125" />
<path class="stroke" d="M 51.2895472096 23.637772124999998 C 51.2895472096 29.531932437500004 51.129780678399996 33.5647786875 50.3309485696 37.90784625" />
<path class="stroke" d="M 51.4493126464 23.637772124999998 L 92.029980928 23.637772124999998 C 91.870214944 29.8421495 91.39091699199999 32.94433925 90.75185305599999 36.046530062500004" />
<path class="stroke" d="M 71.5906371136 12.4698888125 L 71.5906371136 51.2472575" />
<path class="stroke" d="M 58.9583357824 31.0830273125 C 61.35482991999999 32.013683812500005 62.952495232 33.5647786875 64.5501589024 36.977185500000004" />
<path class="stroke" d="M 59.1181012192 41.9406925 C 61.0352990464 42.561128749999995 62.632963264 44.422443875 64.3903934656 48.7655071875" />
<path class="stroke" d="M 77.49123807999999 31.0830273125 C 79.56820134399999 31.7034656875 81.32563264 33.254561625 83.562361888 36.6669684375" />
<path class="stroke" d="M 77.49123807999999 42.250910624999996 C 79.72796732799999 42.87134687499999 81.64516789119999 45.6633174375 83.24282991999999 48.7655071875" />
<path class="stroke" d="M 57.345285759999996 58.850177 L 85.76977215999999 58.850177 L 85.76977215999999 89.891154" />
<path class="stroke" d="M 57.23022784 73.85329469999999 L 85.76977215999999 73.85329469999999" />
<path class="stroke" d="M 57.345285759999996 89.891154 L 85.76977215999999 89.891154" />
</svg>
