<?xml version="1.0" standalone="no"?>
<!DOCTYPE svg PUBLIC "-//W3C//DTD SVG 1.1//EN" "http://www.w3.org/Graphics/SVG/1.1/DTD/svg11.dtd">
<svg xmlns="http://www.w3.org/2000/svg" version="1.1" width="100%" height="100%">
<style type="text/css"><![CDATA[
  .stroke { fill:none; stroke:black; stroke-width:2 }
]]></style>
<path class="stroke" d="M 21.63357486 9.562042 C 17.061313639999998 19.48905 14.18248074 24.160583 9.4408746 28.832115" />
<path class="stroke" d="M 18.754744279999997 16.27737 L 35.0116768 16.27737 C 34.50364552 22.992699 32.471530259999994 27.372261 29.254013319999995 32.919704" />
<path class="stroke" d="M 16.38394034 34.257427 L 16.38394034 69.124084" />
<path class="stroke" d="M 16.38394034 34.37956 L 41.446712999999995 34.08759 L 41.446712999999995 69.124084" />
<path class="stroke" d="M 29.084668399999998 34.08759 L 29.084668399999998 69.124084" />
<path class="stroke" d="M 16.38394034 51.313866 L 41.446712999999995 51.313866" />
<path class="stroke" d="M 16.38394034 69.124084 L 41.446712999999995 69.124084" />
<path class="stroke" d="M 11.472992179999999 77.59124 C 10.96496206 81.678825 9.948904719999998 85.47445 8.59415928 88.978096" />
<path class="stroke" d="M 19.7708022 78.17518 C 21.1255459 81.09489 21.9722618 85.47445 22.4802896 89.85401" />
<path class="stroke" d="M 31.455472919999995 77.88321 C 33.318245 81.09489 34.42236431999999 85.18248 35.350362 89.85401" />
<path class="stroke" d="M 43.817515199999995 78.46715 C 45.1722618 80.51095 46.69635099999999 86.05839 47.543063999999994 90.43795" />
<path class="stroke" d="M 70.54697440000001 6.46688 C 68.5936864 13.9327 65.8227088 22.0295 62.097832 27.6025 M 56.237863024 29.1798 C 65.005043392 27.918 76.90660019200001 24.7634 85.12872832000001 20.0315" />
<path class="stroke" d="M 81.04042720000001 11.5142 C 84.53820160000001 17.6131 86.264344 21.5037 88.26307840000001 28.8644" />
<path class="stroke" d="M 54.31678786 44.8991381748 L 91.84087 44.8991381748" />
<path class="stroke" d="M 72.697195 34.2517567422 L 72.49532788 34.402261908 C 70.36852816000001 46.696659408 64.01682298 51.108281766000005 49.28037364 58.78401985799999" />
<path class="stroke" d="M 77.34018736 44.9375880852 C 81.7813072 50.0547476184 85.41495316000001 54.5698880988 94.4990686 59.085027774" />
<path class="stroke" d="M 72.1268755336 57.0227736306 C 66.64977712 63.0091704294 62.500456756000005 65.687295237 54.6997381264 69.1531052286" />
<path class="stroke" d="M 79.927593148 63.166707948 C 74.284522732 69.1531052286 67.3136661448 74.9819673996 57.521275364800005 78.60531153720001" />
<path class="stroke" d="M 88.060258828 69.3106427472 C 80.59148318800001 77.5025551704 71.9609040388 84.906781446 56.3594652568 89.947960842" />
</svg>
