<?xml version="1.0" standalone="no"?>
<!DOCTYPE svg PUBLIC "-//W3C//DTD SVG 1.1//EN" "http://www.w3.org/Graphics/SVG/1.1/DTD/svg11.dtd">
<svg xmlns="http://www.w3.org/2000/svg" version="1.1" width="100%" height="100%">
<style type="text/css"><![CDATA[
  .stroke { fill:none; stroke:black; stroke-width:2 }
]]></style>
<path class="stroke" d="M 9.60396 13.9207915 L 30.9901 13.29703" />
<path class="stroke" d="M 23.267326 6.881188 L 23.267326 29.247526 C 23.267326 30.227722 20.594059 31.029703 17.029703 31.029703" />
<path class="stroke" d="M 10.198019 23.009902 L 28.910892 17.9306926" />
<path class="stroke" d="M 68.9853996 7.0437955 C 60.810216499999996 8.5328464 53.043792800000006 9.145985199999998 44.6642328 9.2335759" />
<path class="stroke" d="M 44.6642328 9.2335759 L 44.6642328 18.8686126 C 44.6642328 21.583940799999997 43.2335749 26.051094999999997 38.9416054 29.379558999999997" />
<path class="stroke" d="M 44.6642328 14.313868 L 87.99269699999999 14.313868" />
<path class="stroke" d="M 66.32846559999999 14.313868 L 66.32846559999999 31.043794" />
<path class="stroke" d="M 40.218975 43.087591 C 46.05839 43.6131376 52.48175 44.6642332 58.321167 46.766422" />
<path class="stroke" d="M 9.854013 51.7185694 L 89.56204 51.7185694" />
<path class="stroke" d="M 31.34734 59.719310199999995 L 67.29274 59.719310199999995" />
<path class="stroke" d="M 29.4605 67.7063524 L 69.2757 67.7063524" />
<path class="stroke" d="M 29.1461 76.104979 L 29.1461 92.556241" />
<path class="stroke" d="M 29.146 75.916354 L 69.5901 75.916354 L 69.5901 92.37436" />
<path class="stroke" d="M 29.14706 90.48757 L 69.27666 90.48763" />
</svg>
