<?xml version="1.0" standalone="no"?>
<!DOCTYPE svg PUBLIC "-//W3C//DTD SVG 1.1//EN" "http://www.w3.org/Graphics/SVG/1.1/DTD/svg11.dtd">
<svg xmlns="http://www.w3.org/2000/svg" version="1.1" width="100%" height="100%">
<style type="text/css"><![CDATA[
  .stroke { fill:none; stroke:black; stroke-width:2 }
]]></style>
<path class="stroke" d="M 21.63357486 9.562042 C 17.061313639999998 19.48905 14.18248074 24.160583 9.4408746 28.832115" />
<path class="stroke" d="M 18.754744279999997 16.27737 L 35.0116768 16.27737 C 34.50364552 22.992699 32.471530259999994 27.372261 29.254013319999995 32.919704" />
<path class="stroke" d="M 16.38394034 34.257427 L 16.38394034 69.124084" />
<path class="stroke" d="M 16.38394034 34.37956 L 41.446712999999995 34.08759 L 41.446712999999995 69.124084" />
<path class="stroke" d="M 29.084668399999998 34.08759 L 29.084668399999998 69.124084" />
<path class="stroke" d="M 16.38394034 51.313866 L 41.446712999999995 51.313866" />
<path class="stroke" d="M 16.38394034 69.124084 L 41.446712999999995 69.124084" />
<path class="stroke" d="M 11.472992179999999 77.59124 C 10.96496206 81.678825 9.948904719999998 85.47445 8.59415928 88.978096" />
<path class="stroke" d="M 19.7708022 78.17518 C 21.1255459 81.09489 21.9722618 85.47445 22.4802896 89.85401" />
<path class="stroke" d="M 31.455472919999995 77.88321 C 33.318245 81.09489 34.42236431999999 85.18248 35.350362 89.85401" />
<path class="stroke" d="M 43.817515199999995 78.46715 C 45.1722618 80.51095 46.69635099999999 86.05839 47.543063999999994 90.43795" />
<path class="stroke" d="M 70.31385499999999 10.35474352 L 70.31385499999999 55.4817488" />
<path class="stroke" d="M 70.4138659 30.792698400000003 L 85.7452519 30.792698400000003" />
<path class="stroke" d="M 56.777116397499995 55.5781015 L 56.777116397499995 88.37226100000001" />
<path class="stroke" d="M 56.777116397499995 55.5781015 L 84.942079 55.5781015 L 84.942079 88.0569334" />
<path class="stroke" d="M 56.777116397499995 85.84963264000001 L 84.942079 85.84963264000001" />
</svg>
