<?xml version="1.0" standalone="no"?>
<!DOCTYPE svg PUBLIC "-//W3C//DTD SVG 1.1//EN" "http://www.w3.org/Graphics/SVG/1.1/DTD/svg11.dtd">
<svg xmlns="http://www.w3.org/2000/svg" version="1.1" width="100%" height="100%">
<style type="text/css"><![CDATA[
  .stroke { fill:none; stroke:black; stroke-width:2 }
]]></style>
<path class="stroke" d="M 20.51459685 9.562042 C 16.178831900000002 19.48905 13.448904150000002 24.160583 8.952553500000002 28.832115" />
<path class="stroke" d="M 17.784671300000003 16.27737 L 33.200728000000005 16.27737 C 32.718974200000005 22.992699 30.79196835 27.372261 27.740874700000003 32.919704" />
<path class="stroke" d="M 15.536495150000002 34.257427 L 15.536495150000002 69.124084" />
<path class="stroke" d="M 15.536495150000002 34.37956 L 39.30291750000001 34.08759 L 39.30291750000001 69.124084" />
<path class="stroke" d="M 27.580289000000004 34.08759 L 27.580289000000004 69.124084" />
<path class="stroke" d="M 15.536495150000002 51.313866 L 39.30291750000001 51.313866" />
<path class="stroke" d="M 15.536495150000002 69.124084 L 39.30291750000001 69.124084" />
<path class="stroke" d="M 10.87956155 77.59124 C 10.39780885 81.678825 9.4343062 85.47445 8.1496338 88.978096" />
<path class="stroke" d="M 18.7481745 78.17518 C 20.03284525 81.09489 20.8357655 85.47445 21.317516000000005 89.85401" />
<path class="stroke" d="M 29.828465700000002 77.88321 C 31.594887500000002 81.09489 32.6418972 85.18248 33.521895 89.85401" />
<path class="stroke" d="M 41.551092 78.46715 C 42.83576550000001 80.51095 44.2810225 86.05839 45.083940000000005 90.43795" />
<path class="stroke" d="M 69.4197052 8.978102 C 66.82252299999999 34.5777 60.857130999999995 56.2448 48.28394161 71.75182" />
<path class="stroke" d="M 48.61678741 26.6561 L 94.5496315 26.6561" />
<path class="stroke" d="M 65.12099249319999 45.41970715 L 65.12099249319999 73.521895 C 65.12099249319999 79.7524765 65.12099249319999 82.366335 65.12099249319999 88.4108933" />
<path class="stroke" d="M 65.12099249319999 45.41970715 L 85.15836553599999 45.41970715 L 85.15836553599999 87.3321145 C 85.15836553599999 88.61678800000001 84.585865858 89.7408725 83.15462597679999 89.7408725 L 81.580263382 89.7408725" />
<path class="stroke" d="M 65.12099249319999 57.52441735000001 L 85.15836553599999 57.52441735000001" />
<path class="stroke" d="M 65.12099249319999 70.3106848 L 85.15836553599999 70.3106848" />
</svg>
