<?xml version="1.0" standalone="no"?>
<!DOCTYPE svg PUBLIC "-//W3C//DTD SVG 1.1//EN" "http://www.w3.org/Graphics/SVG/1.1/DTD/svg11.dtd">
<svg xmlns="http://www.w3.org/2000/svg" version="1.1" width="100%" height="100%">
<style type="text/css"><![CDATA[
  .stroke { fill:none; stroke:black; stroke-width:2 }
]]></style>
<path class="stroke" d="M 22.3795602 9.562042 C 17.649634799999998 19.48905 14.6715318 24.160583 9.766422 28.832115" />
<path class="stroke" d="M 19.4014596 16.27737 L 36.218976 16.27737 C 35.6934264 22.992699 33.5912382 27.372261 30.262772399999996 32.919704" />
<path class="stroke" d="M 16.9489038 34.257427 L 16.9489038 69.124084" />
<path class="stroke" d="M 16.9489038 34.37956 L 42.87591 34.08759 L 42.87591 69.124084" />
<path class="stroke" d="M 30.087588 34.08759 L 30.087588 69.124084" />
<path class="stroke" d="M 16.9489038 51.313866 L 42.87591 51.313866" />
<path class="stroke" d="M 16.9489038 69.124084 L 42.87591 69.124084" />
<path class="stroke" d="M 11.868612599999999 77.59124 C 11.3430642 81.678825 10.291970399999999 85.47445 8.8905096 88.978096" />
<path class="stroke" d="M 20.452554 78.17518 C 21.854013 81.09489 22.729926 85.47445 23.255472 89.85401" />
<path class="stroke" d="M 32.540144399999996 77.88321 C 34.46715 81.09489 35.609342399999996 85.18248 36.56934 89.85401" />
<path class="stroke" d="M 45.328464 78.46715 C 46.729926 80.51095 46.841364 78.290596 47.717273999999996 82.67016" />
<path class="stroke" d="M 53.44306519 26.220145119999998 L 89.55693025 26.220145119999998" />
<path class="stroke" d="M 71.5 10.065984747 L 71.5 47.27824373999999" />
<path class="stroke" d="M 48.61678741 47.27824373999999 L 94.2167857 47.27824373999999" />
<path class="stroke" d="M 53.44306519 69.061678 L 89.55693025 69.061678" />
<path class="stroke" d="M 71.5 53.5288314875 L 71.5 89.30984974999998" />
<path class="stroke" d="M 48.61678741 89.30984974999998 L 94.2167857 89.30984974999998" />
</svg>
