<?xml version="1.0" standalone="no"?>
<!DOCTYPE svg PUBLIC "-//W3C//DTD SVG 1.1//EN" "http://www.w3.org/Graphics/SVG/1.1/DTD/svg11.dtd">
<svg xmlns="http://www.w3.org/2000/svg" version="1.1" width="100%" height="100%">
<style type="text/css"><![CDATA[
  .stroke { fill:none; stroke:black; stroke-width:2 }
]]></style>
<path class="stroke" d="M 22.3795602 9.562042 C 17.649634799999998 19.48905 14.6715318 24.160583 9.766422 28.832115" />
<path class="stroke" d="M 19.4014596 16.27737 L 36.218976 16.27737 C 35.6934264 22.992699 33.5912382 27.372261 30.262772399999996 32.919704" />
<path class="stroke" d="M 16.9489038 34.257427 L 16.9489038 69.124084" />
<path class="stroke" d="M 16.9489038 34.37956 L 42.87591 34.08759 L 42.87591 69.124084" />
<path class="stroke" d="M 30.087588 34.08759 L 30.087588 69.124084" />
<path class="stroke" d="M 16.9489038 51.313866 L 42.87591 51.313866" />
<path class="stroke" d="M 16.9489038 69.124084 L 42.87591 69.124084" />
<path class="stroke" d="M 11.868612599999999 77.59124 C 11.3430642 81.678825 10.291970399999999 85.47445 8.8905096 88.978096" />
<path class="stroke" d="M 20.452554 78.17518 C 21.854013 81.09489 22.729926 85.47445 23.255472 89.85401" />
<path class="stroke" d="M 32.540144399999996 77.88321 C 34.46715 81.09489 35.609342399999996 85.18248 36.56934 89.85401" />
<path class="stroke" d="M 45.328464 78.46715 C 46.729926 80.51095 48.306569999999994 86.05839 49.18248 90.43795" />
<path class="stroke" d="M 55.04598475 10.769594708367649 C 58.02408691 12.556662560455884 60.406568230000005 15.01387999635294 62.193429730000005 17.359406408764706" />
<path class="stroke" d="M 86.6138653 10.769594708367649 C 85.39880356 12.981090668455883 82.8912376 15.572337791588236 80.3598526 17.47109743225" />
<path class="stroke" d="M 49.1372242 18.675725815 L 93.862786 18.675725815" />
<path class="stroke" d="M 52.837519 27.98772949 L 52.837519 59.45590441" />
<path class="stroke" d="M 52.837519 27.98772949 L 90.323335 27.98772949 L 90.323335 59.45590441" />
<path class="stroke" d="M 66.512608 18.83627765515 L 66.512608 31.680444716200004 C 66.23548318 35.3114843635 60.47741896 42.042758327200005 53.07419368 43.52035265515" />
<path class="stroke" d="M 76.3265023 18.675725815 L 76.3265023 40.992470785 C 76.1119963 42.865610365 77.34543028 44.257028770000005 79.0615303 44.203538125 L 83.72711229999999 44.203538125 C 84.9605473 44.14999658500001 86.5157413 43.13316538 86.46213724 41.15304451 L 86.46213724 38.90531773" />
<path class="stroke" d="M 52.837519 50.625571015 L 90.323335 50.625571015" />
<path class="stroke" d="M 52.837519 59.45590441 L 90.323335 59.45590441" />
<path class="stroke" d="M 51.32335756 70.27884599379999 L 91.52773315 70.27884599379999" />
<path class="stroke" d="M 79.4664244 64.7768903734 L 79.4664244 89.29437845199999 C 79.4664244 90.163109296 78.8708005 90.742260988 77.53065514000001 90.742260988 L 73.51021855 90.742260988" />
<path class="stroke" d="M 59.5131385 73.9468166278 C 61.3 74.8155471412 62.937955779999996 76.07037911319999 64.27810063 78.1939402762" />
</svg>
