<?xml version="1.0" standalone="no"?>
<!DOCTYPE svg PUBLIC "-//W3C//DTD SVG 1.1//EN" "http://www.w3.org/Graphics/SVG/1.1/DTD/svg11.dtd">
<svg xmlns="http://www.w3.org/2000/svg" version="1.1" width="100%" height="100%">
<style type="text/css"><![CDATA[
  .stroke { fill:none; stroke:black; stroke-width:2 }
]]></style>
<path class="stroke" d="M 22.006567529999998 9.562042 C 17.355474219999998 19.48905 14.42700627 24.160583 9.6036483 28.832115" />
<path class="stroke" d="M 19.07810194 16.27737 L 35.6153264 16.27737 C 35.09853596 22.992699 33.03138423 27.372261 29.758392859999997 32.919704" />
<path class="stroke" d="M 16.66642207 34.257427 L 16.66642207 69.124084" />
<path class="stroke" d="M 16.66642207 34.37956 L 42.1613115 34.08759 L 42.1613115 69.124084" />
<path class="stroke" d="M 29.5861282 34.08759 L 29.5861282 69.124084" />
<path class="stroke" d="M 16.66642207 51.313866 L 42.1613115 51.313866" />
<path class="stroke" d="M 16.66642207 69.124084 L 42.1613115 69.124084" />
<path class="stroke" d="M 11.670802389999999 77.59124 C 11.15401313 81.678825 10.12043756 85.47445 8.742334439999999 88.978096" />
<path class="stroke" d="M 20.1116781 78.17518 C 21.48977945 81.09489 22.3510939 85.47445 22.867880800000002 89.85401" />
<path class="stroke" d="M 31.997808659999997 77.88321 C 33.8926975 81.09489 35.015853359999994 85.18248 35.959851 89.85401" />
<path class="stroke" d="M 44.57298959999999 78.46715 C 45.951093900000004 80.51095 47.50146049999999 86.05839 48.36277199999999 90.43795" />
<path class="stroke" d="M 54.55310884 13.649633 L 67.88029142559999 11.605839 L 66.1494885232 31.167881" />
<path class="stroke" d="M 54.7261892488 32.919704 L 66.3225677464 31.167881" />
<path class="stroke" d="M 54.899268472 32.627735 L 52.9953863464 51.313866 L 67.3610490136 48.68613 L 66.3225677464 70.87591 C 65.630246704 84.014595 63.726362800000004 88.10219 61.8224806744 88.10219 L 59.5724371384 88.10219" />
<path class="stroke" d="M 54.0338682064 60.65693 C 56.8031535616 61.532845 58.5339540928 63.284668 60.4378391824 65.62044" />
<path class="stroke" d="M 53.3415459784 81.678825 C 55.9377509248 80.21897 58.014714052 78.46715 61.130159039199995 74.9635" />
<path class="stroke" d="M 78.68615986 13.649633 L 93.55109428239999 11.605839 L 91.6205833528 31.167881" />
<path class="stroke" d="M 78.8792110852 32.919704 L 91.8136332556 31.167881" />
<path class="stroke" d="M 79.072260988 32.627735 L 76.9487001556 51.313866 L 92.97193928440001 48.68613 L 91.8136332556 70.87591 C 91.041429016 84.014595 88.91786619999999 88.10219 86.79430536759999 88.10219 L 84.2846414236 88.10219" />
<path class="stroke" d="M 78.1070068456 60.65693 C 81.1958251264 61.532845 83.1263334112 63.284668 85.24989754959999 65.62044" />
<path class="stroke" d="M 77.3348012836 81.678825 C 80.2305683392 80.21897 82.547181058 78.46715 86.0221004668 74.9635" />
</svg>
