<?xml version="1.0" standalone="no"?>
<!DOCTYPE svg PUBLIC "-//W3C//DTD SVG 1.1//EN" "http://www.w3.org/Graphics/SVG/1.1/DTD/svg11.dtd">
<svg xmlns="http://www.w3.org/2000/svg" version="1.1" width="100%" height="100%">
<style type="text/css"><![CDATA[
  .stroke { fill:none; stroke:black; stroke-width:2 }
]]></style>
<path class="stroke" d="M 22.006567529999998 9.17956032 C 17.355474219999998 18.709487999999997 14.42700627 23.19415968 9.6036483 27.6788304" />
<path class="stroke" d="M 19.07810194 15.6262752 L 35.6153264 15.6262752 C 35.09853596 22.07299104 33.03138423 26.27737056 29.758392859999997 31.60291584" />
<path class="stroke" d="M 16.66642207 32.88712992 L 16.66642207 66.35912064" />
<path class="stroke" d="M 16.66642207 33.0043776 L 42.1613115 32.7240864 L 42.1613115 66.35912064" />
<path class="stroke" d="M 29.5861282 32.7240864 L 29.5861282 66.35912064" />
<path class="stroke" d="M 16.66642207 49.26131135999999 L 42.1613115 49.26131135999999" />
<path class="stroke" d="M 16.66642207 66.35912064 L 42.1613115 66.35912064" />
<path class="stroke" d="M 11.670802389999999 74.4875904 C 11.15401313 78.411672 10.12043756 82.055472 8.742334439999999 85.41897216" />
<path class="stroke" d="M 20.1116781 75.04817279999999 C 21.48977945 77.85109440000001 22.3510939 82.055472 22.867880800000002 86.2598496" />
<path class="stroke" d="M 31.997808659999997 74.7678816 C 33.8926975 77.85109440000001 35.015853359999994 81.7751808 35.959851 86.2598496" />
<path class="stroke" d="M 44.57298959999999 75.328464 C 45.951093900000004 77.29051199999999 46.0606746 75.15897215999999 46.9219861 79.3633536" />
<path class="stroke" d="M 55.3784734 10.272478 L 55.3784734 65.85831 C 54.81934501 77.9564 50.90544913 85.47684 47.5506805 88.41962" />
<path class="stroke" d="M 55.3784734 10.272478 L 88.89124149999999 10.145985 L 88.89124149999999 86.05839 C 88.89124149999999 88.68613 88.39196709999999 90.14598 86.8941553 90.14598 L 85.22992345 90.14598" />
<path class="stroke" d="M 64.69494868359999 30.048816895999998 L 80.58504930999999 30.048816895999998" />
<path class="stroke" d="M 72.64 18.4335177776 L 72.64 45.190186592" />
<path class="stroke" d="M 62.57138646039999 45.190186592 L 82.635385708 45.190186592" />
<path class="stroke" d="M 64.69494868359999 58.78026232 L 64.69494868359999 80.35153168" />
<path class="stroke" d="M 64.69494868359999 58.78026232 L 80.65827664 58.78026232 L 80.65827664 80.144116192" />
<path class="stroke" d="M 64.69494868359999 78.6922028032 L 80.65827664 78.6922028032" />
</svg>
