<?xml version="1.0" standalone="no"?>
<!DOCTYPE svg PUBLIC "-//W3C//DTD SVG 1.1//EN" "http://www.w3.org/Graphics/SVG/1.1/DTD/svg11.dtd">
<svg xmlns="http://www.w3.org/2000/svg" version="1.1" width="100%" height="100%">
<style type="text/css"><![CDATA[
  .stroke { fill:none; stroke:black; stroke-width:2 }
]]></style>
<path class="stroke" d="M 23.12554554 9.562042 C 18.23795596 19.48905 15.160582860000002 24.160583 10.0919694 28.832115" />
<path class="stroke" d="M 20.04817492 16.27737 L 37.4262752 16.27737 C 36.88320728 22.992699 34.71094614 27.372261 31.271531479999997 32.919704" />
<path class="stroke" d="M 17.51386726 34.257427 L 17.51386726 69.124084" />
<path class="stroke" d="M 17.51386726 34.37956 L 44.305107 34.08759 L 44.305107 69.124084" />
<path class="stroke" d="M 31.090507600000002 34.08759 L 31.090507600000002 69.124084" />
<path class="stroke" d="M 17.51386726 51.313866 L 44.305107 51.313866" />
<path class="stroke" d="M 17.51386726 69.124084 L 44.305107 69.124084" />
<path class="stroke" d="M 12.264233019999999 77.59124 C 11.72116634 81.678825 10.635036079999999 85.47445 9.18685992 88.978096" />
<path class="stroke" d="M 21.1343058 78.17518 C 22.5824801 81.09489 23.4875902 85.47445 24.030654400000003 89.85401" />
<path class="stroke" d="M 33.62481588 77.88321 C 35.616055 81.09489 36.79632048 85.18248 37.788318000000004 89.85401" />
<path class="stroke" d="M 46.8394128 78.46715 C 48.287590200000004 80.51095 48.4027428 78.290596 49.3078498 82.67016" />
<path class="stroke" d="M 57.10437754 12.040934044 L 57.10437754 35.05570547200001" />
<path class="stroke" d="M 57.10437754 12.040934044 L 85.729195 12.040934044 L 85.729195 35.05570547200001" />
<path class="stroke" d="M 57.270802149999994 22.9213811304 L 85.56277209999999 22.9213811304" />
<path class="stroke" d="M 57.10437754 34.0510932192 L 85.729195 34.0510932192" />
<path class="stroke" d="M 50.78029081 44.33561941666667 L 50.78029081 56.27398216666667" />
<path class="stroke" d="M 50.78029081 44.33561941666667 L 92.38613038 44.33561941666667 L 92.38613038 56.27398216666667" />
<path class="stroke" d="M 63.9479731 44.33561941666667 L 63.9479731 56.27398216666667" />
<path class="stroke" d="M 79.05207592 44.33561941666667 L 79.05207592 56.27398216666667" />
<path class="stroke" d="M 50.78029081 56.27959416666667 L 92.49405759999999 56.27959416666667" />
<path class="stroke" d="M 56.60098945 66.58914828639999 L 84.8752495 66.58914828639999 C 78.44158254999999 78.4024954012 67.60594012 84.173901952 48.6435643 89.223881128" />
<path class="stroke" d="M 55.92376219 69.29449540120001 C 58.44515947 74.8874832148 67.27096651 79.49045176960001 70.21290124 81.54709706800001 C 75.54515889999999 84.681032356 85.10644948 87.03148230400001 94.1871286 89.223881128" />
</svg>
