<?xml version="1.0" standalone="no"?>
<!DOCTYPE svg PUBLIC "-//W3C//DTD SVG 1.1//EN" "http://www.w3.org/Graphics/SVG/1.1/DTD/svg11.dtd">
<svg xmlns="http://www.w3.org/2000/svg" version="1.1" width="100%" height="100%">
<style type="text/css"><![CDATA[
  .stroke { fill:none; stroke:black; stroke-width:2 }
]]></style>
<path class="stroke" d="M 17.1240865 10.49505 L 17.1240865 58.905106" />
<path class="stroke" d="M 17.1752565 10.412371 L 41.29897 10.412371" />
<path class="stroke" d="M 29.25636 10.5678 L 29.25636 58.905106" />
<path class="stroke" d="M 17.1240865 26.49635 L 39.021895 26.49635" />
<path class="stroke" d="M 17.270073 43.138683 L 39.021895 43.138683" />
<path class="stroke" d="M 17.1240865 58.905106 L 46.905105 58.905106 C 46.905105 81.386856 45.299265 90.43795 42.08759 90.43795" />
<path class="stroke" d="M 10.9927005 70.29197 C 10.554744 74.087585 9.678830999999999 78.46715 8.218978 80.80292" />
<path class="stroke" d="M 17.8540135 69.124084 C 18.8759115 72.04379 19.605839 75.54744 20.043795 81.09489" />
<path class="stroke" d="M 27.051095 68.540146 C 28.218977 72.04379 29.0948885 75.54744 29.678831 79.63503" />
<path class="stroke" d="M 36.68613 67.37226 C 38.0 71.16788 38.729925 73.21168 39.313865 77.88321" />
<path class="stroke" d="M 72.1514208 6.375399599999999 L 72.1514208 21.201935" />
<path class="stroke" d="M 72.3028416 11.416440999999999 L 82.80986207999999 11.30575318" />
<path class="stroke" d="M 56.252352 21.794981 L 56.252352 53.523647 C 56.10096 67.658239 54.586752 77.641415 51.2555184 86.438499" />
<path class="stroke" d="M 56.252352 21.794981 L 92.290224 21.794981 L 92.290224 25.946397 C 92.239776 29.010514999999998 91.735008 30.592064999999998 90.624624 31.580474999999996" />
<path class="stroke" d="M 60.71671152 39.42849364 L 81.5473968 33.2476684" />
<path class="stroke" d="M 68.66877312 26.243014 L 68.60712336 43.44602638 C 68.44931376 48.390682999999996 67.9758912 48.390682999999996 69.8695872 49.00876684 L 84.70356 49.00876684 C 85.65040992 48.081642959999996 85.8082176 45.60931324 85.8082176 42.827941599999996 L 85.8082176 39.11945359999999" />
<path class="stroke" d="M 64.96305968025601 56.7517660128 L 64.96305968025601 71.58481603199999" />
<path class="stroke" d="M 64.96305968025601 56.692904659199996 L 86.972480581632 56.692904659199996 L 86.972480581632 71.58481603199999" />
<path class="stroke" d="M 75.96776956416 56.7517660128 L 75.96776956416 70.52531328" />
<path class="stroke" d="M 64.96305968025601 63.6051428928 L 86.80699779072 63.6051428928" />
<path class="stroke" d="M 64.96305968025601 70.52531328 L 86.972480581632 70.52531328" />
<path class="stroke" d="M 63.90357312 78.19722432 L 63.90357312 88.98587424" />
<path class="stroke" d="M 63.90357312 78.19722432 L 88.36392384 78.19722432 L 88.36392384 88.94271384000001" />
<path class="stroke" d="M 72.098419584 78.24038472 L 72.098419584 88.98587424" />
<path class="stroke" d="M 80.417431104 78.24037883759999 L 80.417431104 89.029029168" />
<path class="stroke" d="M 59.433690143999996 89.02902096 L 93.20630591999999 89.02902096" />
</svg>
