<?xml version="1.0" standalone="no"?>
<!DOCTYPE svg PUBLIC "-//W3C//DTD SVG 1.1//EN" "http://www.w3.org/Graphics/SVG/1.1/DTD/svg11.dtd">
<svg xmlns="http://www.w3.org/2000/svg" version="1.1" width="100%" height="100%">
<style type="text/css"><![CDATA[
  .stroke { fill:none; stroke:black; stroke-width:2 }
]]></style>
<path class="stroke" d="M 17.40656823 10.49505 L 17.40656823 58.905106" />
<path class="stroke" d="M 17.458761629999998 10.412371 L 42.064949399999996 10.412371" />
<path class="stroke" d="M 29.7814872 10.5678 L 29.7814872 58.905106" />
<path class="stroke" d="M 17.40656823 26.49635 L 39.7423329 26.49635" />
<path class="stroke" d="M 17.55547446 43.138683 L 39.7423329 43.138683" />
<path class="stroke" d="M 17.40656823 58.905106 L 47.7832071 58.905106 C 47.7832071 81.386856 46.1452503 90.43795 42.8693418 90.43795" />
<path class="stroke" d="M 11.15255451 70.29197 C 10.705838880000002 74.087585 9.81240762 78.46715 8.32335756 80.80292" />
<path class="stroke" d="M 18.151093770000003 69.124084 C 19.193429730000002 72.04379 19.93795578 75.54744 20.3846709 81.09489" />
<path class="stroke" d="M 27.532116900000002 68.540146 C 28.72335654 72.04379 29.61678627 75.54744 30.21240762 79.63503" />
<path class="stroke" d="M 37.359852599999996 67.37226 C 38.7 71.16788 39.4445235 73.21168 40.0401423 77.88321" />
<path class="stroke" d="M 91.208973 7.46918 C 81.429472 15.4826 71.842821 17.4957 62.1784715 17.2844" />
<path class="stroke" d="M 62.1784715 17.286 L 62.1784715 90.0983" />
<path class="stroke" d="M 62.3362 43.5704 L 91.7067 43.5704" />
<path class="stroke" d="M 80.41059 43.885857 L 80.41059 89.94326" />
<path class="stroke" d="M 53.8643525 90.694046 L 96.608855 90.694046" />
</svg>
