<?xml version="1.0" standalone="no"?>
<!DOCTYPE svg PUBLIC "-//W3C//DTD SVG 1.1//EN" "http://www.w3.org/Graphics/SVG/1.1/DTD/svg11.dtd">
<svg xmlns="http://www.w3.org/2000/svg" version="1.1" width="100%" height="100%">
<style type="text/css"><![CDATA[
  .stroke { fill:none; stroke:black; stroke-width:2 }
]]></style>
<path class="stroke" d="M 14.97153169 10.49505 L 14.97153169 58.905106" />
<path class="stroke" d="M 15.02577189 10.412371 L 40.5969082 10.412371" />
<path class="stroke" d="M 27.8317416 10.5678 L 27.8317416 58.905106" />
<path class="stroke" d="M 14.97153169 26.49635 L 38.1832087 26.49635" />
<path class="stroke" d="M 15.126277380000001 43.138683 L 38.1832087 43.138683" />
<path class="stroke" d="M 14.97153169 58.905106 L 46.539411300000005 58.905106 C 46.539411300000005 81.386856 44.8372209 90.43795 41.4328454 90.43795" />
<path class="stroke" d="M 8.47226253 70.29197 C 8.008028640000001 74.087585 7.07956086 78.46715 5.532116680000001 80.80292" />
<path class="stroke" d="M 15.745254310000002 69.124084 C 16.82846619 72.04379 17.60218934 75.54744 18.0664227 81.09489" />
<path class="stroke" d="M 25.494160700000002 68.540146 C 26.732115620000002 72.04379 27.66058181 75.54744 28.27956086 79.63503" />
<path class="stroke" d="M 35.7072978 67.37226 C 37.1 71.16788 37.873720500000005 73.21168 38.4926969 77.88321" />
<path class="stroke" d="M 80.7767528 6.5405407 C 73.06108057 17.891891 62.97134995 26.324322 51.298917599999996 32.81081" />
<path class="stroke" d="M 52.28810763 7.837837 C 64.75188993 12.378378 78.99621160000001 21.459461 88.2945941 31.837837" />
<path class="stroke" d="M 82.1616175 36.05405 C 76.02864578 54.216217 69.10432349999999 83.08108 51.10108057 93.45946" />
<path class="stroke" d="M 60.39945758 38.32432 C 65.34540346 64.27026 76.22648403 83.08108 90.0751353 90.540535" />
</svg>
