<?xml version="1.0" standalone="no"?>
<!DOCTYPE svg PUBLIC "-//W3C//DTD SVG 1.1//EN" "http://www.w3.org/Graphics/SVG/1.1/DTD/svg11.dtd">
<svg xmlns="http://www.w3.org/2000/svg" version="1.1" width="100%" height="100%">
<style type="text/css"><![CDATA[
  .stroke { fill:none; stroke:black; stroke-width:2 }
]]></style>
<path class="stroke" d="M 18.81897688 10.49505 L 18.81897688 58.905106" />
<path class="stroke" d="M 18.87628728 10.412371 L 45.8948464 10.412371" />
<path class="stroke" d="M 32.4071232 10.5678 L 32.4071232 58.905106" />
<path class="stroke" d="M 18.81897688 26.49635 L 43.3445224 26.49635" />
<path class="stroke" d="M 18.98248176 43.138683 L 43.3445224 43.138683" />
<path class="stroke" d="M 18.81897688 58.905106 L 52.1737176 58.905106 C 52.1737176 81.386856 50.375176800000006 90.43795 46.778100800000004 90.43795" />
<path class="stroke" d="M 11.95182456 70.29197 C 11.46131328 74.087585 10.48029072 78.46715 8.84525536 80.80292" />
<path class="stroke" d="M 19.636495120000003 69.124084 C 20.781020880000003 72.04379 21.598539680000002 75.54744 22.0890504 81.09489" />
<path class="stroke" d="M 29.937226400000004 68.540146 C 31.24525424 72.04379 32.226275120000004 75.54744 32.880290720000005 79.63503" />
<path class="stroke" d="M 40.7284656 67.37226 C 42.2 71.16788 43.01751600000001 73.21168 43.671528800000004 77.88321" />
<path class="stroke" d="M 59.0725524 9.0510942 L 59.139152960000004 69.58603900000001 C 59.045255 79.3868564 58.134306 84.84670750000001 56.00875868 89.98539600000001" />
<path class="stroke" d="M 74.37955996 10.978101700000002 L 74.37955996 83.24086700000001" />
<path class="stroke" d="M 90.731832 9.0510942 L 90.731832 94.160578" />
</svg>
