<?xml version="1.0" standalone="no"?>
<!DOCTYPE svg PUBLIC "-//W3C//DTD SVG 1.1//EN" "http://www.w3.org/Graphics/SVG/1.1/DTD/svg11.dtd">
<svg xmlns="http://www.w3.org/2000/svg" version="1.1" width="100%" height="100%">
<style type="text/css"><![CDATA[
  .stroke { fill:none; stroke:black; stroke-width:2 }
]]></style>
<path class="stroke" d="M 17.689049960000002 10.49505 L 17.689049960000002 58.905106" />
<path class="stroke" d="M 17.74226676 10.412371 L 42.830928799999995 10.412371" />
<path class="stroke" d="M 30.3066144 10.5678 L 30.3066144 58.905106" />
<path class="stroke" d="M 17.689049960000002 26.49635 L 40.4627708 26.49635" />
<path class="stroke" d="M 17.840875920000002 43.138683 L 40.4627708 43.138683" />
<path class="stroke" d="M 17.689049960000002 58.905106 L 48.6613092 58.905106 C 48.6613092 81.386856 46.9912356 90.43795 43.6510936 90.43795" />
<path class="stroke" d="M 11.31240852 70.29197 C 10.85693376 74.087585 9.94598424 78.46715 8.42773712 80.80292" />
<path class="stroke" d="M 18.44817404 69.124084 C 19.510947960000003 72.04379 20.27007256 75.54744 20.7255468 81.09489" />
<path class="stroke" d="M 28.0131388 68.540146 C 29.22773608 72.04379 30.13868404 75.54744 30.74598424 79.63503" />
<path class="stroke" d="M 38.0335752 67.37226 C 39.4 71.16788 40.159122 73.21168 40.7664196 77.88321" />
<path class="stroke" d="M 52.510948 45.766422 L 80.68612999999999 32.335766 C 82.29196999999999 32.335766 82.72992500000001 36.131386 82.72992500000001 39.343063 L 82.72992500000001 51.021896 C 82.145985 53.357662 81.70802499999999 55.10949 80.540145 55.10949 L 79.51824500000001 55.10949" />
<path class="stroke" d="M 68.56934150000001 11.021896 L 68.56934150000001 67.08029" />
<path class="stroke" d="M 55.350785 19.842932 L 55.438486 80.51095 C 55.438486 86.642334 57.474452 89.56204 59.810219000000004 89.56204 L 88.715325 89.56204 C 90.17518 89.56204 91.19708 87.51824 91.19708 85.47445 L 91.19708 81.386856" />
</svg>
