<?xml version="1.0" standalone="no"?>
<!DOCTYPE svg PUBLIC "-//W3C//DTD SVG 1.1//EN" "http://www.w3.org/Graphics/SVG/1.1/DTD/svg11.dtd">
<svg xmlns="http://www.w3.org/2000/svg" version="1.1" width="100%" height="100%">
<style type="text/css"><![CDATA[
  .stroke { fill:none; stroke:black; stroke-width:2 }
]]></style>
<path class="stroke" d="M 17.1240865 10.49505 L 17.1240865 58.905106" />
<path class="stroke" d="M 17.1752565 10.412371 L 41.29897 10.412371" />
<path class="stroke" d="M 29.25636 10.5678 L 29.25636 58.905106" />
<path class="stroke" d="M 17.1240865 26.49635 L 39.021895 26.49635" />
<path class="stroke" d="M 17.270073 43.138683 L 39.021895 43.138683" />
<path class="stroke" d="M 17.1240865 58.905106 L 46.905105 58.905106 C 46.905105 81.386856 45.299265 90.43795 42.08759 90.43795" />
<path class="stroke" d="M 10.9927005 70.29197 C 10.554744 74.087585 9.678830999999999 78.46715 8.218978 80.80292" />
<path class="stroke" d="M 17.8540135 69.124084 C 18.8759115 72.04379 19.605839 75.54744 20.043795 81.09489" />
<path class="stroke" d="M 27.051095 68.540146 C 28.218977 72.04379 29.0948885 75.54744 29.678831 79.63503" />
<path class="stroke" d="M 36.68613 67.37226 C 38.0 71.16788 38.729925 73.21168 39.313865 77.88321" />
<path class="stroke" d="M 60.084856579000004 8.449378499999998 C 62.337244549 11.656478499999999 63.801265848999996 14.390478499999999 65.152689349 17.913079" />
<path class="stroke" d="M 68.98173319 7.0298099999999994 C 71.12148409 10.07925 72.36023839 12.655449999999998 73.93689319 16.651249999999997" />
<path class="stroke" d="M 87.00061918 6.55662 C 85.53659788 10.76272 83.62207828 14.495669999999999 81.25709608 18.228569999999998" />
<path class="stroke" d="M 59.0551957 22.449395812 L 59.0551957 58.081870069999994" />
<path class="stroke" d="M 59.0551957 22.449395812 L 90.2665837 22.449395812 L 90.2665837 58.081870069999994" />
<path class="stroke" d="M 59.2160956 40.38845085999999 L 90.2665786 40.38845085999999" />
<path class="stroke" d="M 59.0551957 58.081870069999994 L 90.2665837 58.081870069999994" />
<path class="stroke" d="M 53.1025165 73.31782471999999 L 95.89748349999999 73.31782471999999" />
<path class="stroke" d="M 74.660905 22.94085289 L 74.660905 89.78247269999999" />
</svg>
