<?xml version="1.0" standalone="no"?>
<!DOCTYPE svg PUBLIC "-//W3C//DTD SVG 1.1//EN" "http://www.w3.org/Graphics/SVG/1.1/DTD/svg11.dtd">
<svg xmlns="http://www.w3.org/2000/svg" version="1.1" width="100%" height="100%">
<style type="text/css"><![CDATA[
  .stroke { fill:none; stroke:black; stroke-width:2 }
]]></style>
<path class="stroke" d="M 11.1350349 14.6240873 L 37.5437925 13.806569199999998 C 36.88686 25.456203 34.916058 31.689779999999995 34.2591237 33.018246999999995 C 33.47079975 34.1423336 31.894159500000004 34.4489035 30.580289999999998 34.551092999999995 L 29.266420500000002 34.4489035" />
<path class="stroke" d="M 24.142333500000003 6.653284599999999 C 22.565691 18.09853905 17.441604 29.748174249999998 9.1642329 33.018246999999995" />
<path class="stroke" d="M 53.24452515 9.20802875 L 53.24452515 30.4635025" />
<path class="stroke" d="M 53.24452515 9.20802875 L 81.88686 9.20802875 L 81.88686 30.2591235" />
<path class="stroke" d="M 53.24452515 28.828465599999998 L 81.88686 28.828465599999998" />
<path class="stroke" d="M 28.248173 42.716832000000004 L 28.248173 73.69926784" />
<path class="stroke" d="M 28.350513 42.66391744 L 76.59794 42.66391744" />
<path class="stroke" d="M 52.51272 42.763392 L 52.51272 73.69926784" />
<path class="stroke" d="M 28.248173 52.957664 L 72.04379 52.957664" />
<path class="stroke" d="M 28.540146 63.60875712 L 72.04379 63.60875712" />
<path class="stroke" d="M 28.248173 73.69926784 L 87.81021 73.69926784 C 87.81021 88.08758784 84.59853 93.88028800000001 78.17518 93.88028800000001" />
<path class="stroke" d="M 15.985401 80.9868608 C 15.109488 83.41605440000001 13.357662 86.218976 10.437956 87.7138688" />
<path class="stroke" d="M 29.708027 80.23941375999999 C 31.751823 82.1080256 33.211678 84.3503616 34.08759 87.9007296" />
<path class="stroke" d="M 48.10219 79.86569344 C 50.437954 82.1080256 52.189777 84.3503616 53.357662 86.9664192" />
<path class="stroke" d="M 67.37226 79.1182464 C 70.0 81.5474432 71.45985 82.8554752 72.62773 85.8452544" />
</svg>
