<?xml version="1.0" standalone="no"?>
<!DOCTYPE svg PUBLIC "-//W3C//DTD SVG 1.1//EN" "http://www.w3.org/Graphics/SVG/1.1/DTD/svg11.dtd">
<svg xmlns="http://www.w3.org/2000/svg" version="1.1" width="100%" height="100%">
<style type="text/css"><![CDATA[
  .stroke { fill:none; stroke:black; stroke-width:2 }
]]></style>
<path class="stroke" d="M 25.16318377777778 9.306931 C 21.17601972222222 17.680412 14.580946648148148 26.030926 8.617528333333333 30.69307" />
<path class="stroke" d="M 25.42170814814815 9.306931 C 29.65540112962963 14.123711 33.96239148148148 17.216494 39.07693496296296 19.536081" />
<path class="stroke" d="M 26.021379407407405 19.999998 C 28.040278333333333 22.319588 28.713248703703705 24.639175 29.25162151851852 27.731956" />
<path class="stroke" d="M 18.080373425925927 29.896904 L 37.865596999999994 29.896904 L 37.865596999999994 57.72277" />
<path class="stroke" d="M 18.44151011111111 43.81443 L 37.2299777037037 43.81443" />
<path class="stroke" d="M 18.182984 57.72277 L 37.83095016666667 57.72277" />
<path class="stroke" d="M 18.080373425925927 29.896904 L 18.080373425925927 89.896904 C 25.213820185185185 87.57732 31.160590925925924 83.55427 36.4097337037037 79.842926" />
<path class="stroke" d="M 32.88564237037037 74.12371 C 35.442917592592586 76.90721 37.865596999999994 82.16495 38.94234437037037 85.87628" />
<path class="stroke" d="M 51.46496275 7.245597794117647 C 54.910218189999995 10.680549264705883 57.666422069999996 15.403605882352942 59.73357557 19.911979411764708" />
<path class="stroke" d="M 87.98466769999999 7.245597794117647 C 86.57900803999999 11.496349264705882 83.6780984 16.477026470588235 80.7496334 20.126662500000002" />
<path class="stroke" d="M 53.70437855 24.86496315 L 87.64014546 24.86496315" />
<path class="stroke" d="M 48.19196961 45.46350105 L 90.74087276 45.46350105" />
<path class="stroke" d="M 60.594890019999994 26.60218805 L 60.594890019999994 49.93065395 C 60.594890019999994 79.95985175 56.97737228 84.42700125 50.77591178 88.6459839" />
<path class="stroke" d="M 81.094158 26.60218805 L 81.094158 91.3759085" />
</svg>
