<?xml version="1.0" standalone="no"?>
<!DOCTYPE svg PUBLIC "-//W3C//DTD SVG 1.1//EN" "http://www.w3.org/Graphics/SVG/1.1/DTD/svg11.dtd">
<svg xmlns="http://www.w3.org/2000/svg" version="1.1" width="100%" height="100%">
<style type="text/css"><![CDATA[
  .stroke { fill:none; stroke:black; stroke-width:2 }
]]></style>
<path class="stroke" d="M 29.44627888888889 9.306931 C 24.780448611111115 17.680412 17.062809907407406 26.030926 10.084341666666667 30.69307" />
<path class="stroke" d="M 29.748807407407412 9.306931 C 34.70312898148149 14.123711 39.74322407407408 17.216494 45.72832814814815 19.536081" />
<path class="stroke" d="M 30.450550370370372 19.999998 C 32.81309166666667 22.319588 33.60061018518519 24.639175 34.23062092592593 27.731956" />
<path class="stroke" d="M 21.1578837962963 29.896904 L 44.310805 29.896904 L 44.310805 57.72277" />
<path class="stroke" d="M 21.580490555555556 43.81443 L 43.566995185185185 43.81443" />
<path class="stroke" d="M 21.27796 57.72277 L 44.27026083333334 57.72277" />
<path class="stroke" d="M 21.1578837962963 29.896904 L 21.1578837962963 89.896904 C 29.50553425925926 87.57732 36.4645212962963 83.55427 42.607135185185186 79.842926" />
<path class="stroke" d="M 38.48319851851852 74.12371 C 41.47575462962963 76.90721 44.310805 82.16495 45.570828518518525 85.87628" />
<path class="stroke" d="M 70.3573424608 9.959853200000001 C 67.783327888 21.39050975 61.64141464 34.191410000000005 54.3984517568 43.332116 C 65.2093128744 41.88686 74.6044667704 41.229927499999995 84.89070536 41.326025" />
<path class="stroke" d="M 79.881196292 33.0839384 C 82.841311552 35.58029 85.4153261248 39.39050975 87.088437184 44.5145945" />
<path class="stroke" d="M 59.240817190399994 56.223357 L 59.240817190399994 87.802918" />
<path class="stroke" d="M 59.240817190399994 56.223357 L 82.86756095999999 56.223357 L 82.86756095999999 87.49926920000001" />
<path class="stroke" d="M 59.240817190399994 85.37372031999999 L 82.86756095999999 85.37372031999999" />
</svg>
