<?xml version="1.0" standalone="no"?>
<!DOCTYPE svg PUBLIC "-//W3C//DTD SVG 1.1//EN" "http://www.w3.org/Graphics/SVG/1.1/DTD/svg11.dtd">
<svg xmlns="http://www.w3.org/2000/svg" version="1.1" width="100%" height="100%">
<style type="text/css"><![CDATA[
  .stroke { fill:none; stroke:black; stroke-width:2 }
]]></style>
<path class="stroke" d="M 28.05243955555556 9.306931 C 23.13210944444445 17.680412 14.99350862962963 26.030926 7.634396666666667 30.69307" />
<path class="stroke" d="M 28.371469629629633 9.306931 C 33.59602692592593 14.123711 38.9110362962963 17.216494 45.2226005925926 19.536081" />
<path class="stroke" d="M 29.111489481481485 19.999998 C 31.602896666666673 22.319588 32.43337074074075 24.639175 33.09774570370371 27.731956" />
<path class="stroke" d="M 19.31195018518519 29.896904 L 43.727758 29.896904 L 43.727758 57.72277" />
<path class="stroke" d="M 19.757608222222224 43.81443 L 42.943376740740746 43.81443" />
<path class="stroke" d="M 19.438576 57.72277 L 43.68500233333334 57.72277" />
<path class="stroke" d="M 19.31195018518519 29.896904 L 19.31195018518519 89.896904 C 28.114927037037038 87.57732 35.45349518518519 83.55427 41.931160740740744 79.842926" />
<path class="stroke" d="M 37.58228207407408 74.12371 C 40.73806851851852 76.90721 43.727758 82.16495 45.05651007407408 85.87628" />
<path class="stroke" d="M 55.7189775 27.080292 L 55.7189775 59.489044" />
<path class="stroke" d="M 55.7189775 27.372261 L 89.60218950000001 27.372261 L 89.60218950000001 59.78102" />
<path class="stroke" d="M 55.7189775 55.773968 L 89.60218950000001 55.773968" />
<path class="stroke" d="M 72.4944945 8.394159 L 72.4944945 86.642334" />
<path class="stroke" d="M 54.59488915 91.0219 L 89.7627708 82.55474" />
<path class="stroke" d="M 86.551092 73.21168 C 89.2810225 78.46715 90.726274 84.306564 91.689775 91.0219" />
</svg>
