<?xml version="1.0" standalone="no"?>
<!DOCTYPE svg PUBLIC "-//W3C//DTD SVG 1.1//EN" "http://www.w3.org/Graphics/SVG/1.1/DTD/svg11.dtd">
<svg xmlns="http://www.w3.org/2000/svg" version="1.1" width="100%" height="100%">
<style type="text/css"><![CDATA[
  .stroke { fill:none; stroke:black; stroke-width:2 }
]]></style>
<path class="stroke" d="M 16.7410947 6.2 C 11.1356157 11.696985999999999 8.459804100000001 14.59898092 4.44520505 17.682191600000003 C 8.299221150000001 19.994600159999997 15.656163600000001 20.72 19.634246500000003 23.3238364" />
<path class="stroke" d="M 25.963014 15.51232852 C 18.549316500000003 26.3616448 19.0917793 23.757810160000002 12.40136865 32.72657656 C 23.61232665 32.147945320000005 15.836984900000001 32.581916 27.590410650000003 31.28" />
<path class="stroke" d="M 28.132876200000002 31.42465704 C 28.4945188 35.1857524 14.9328762 42.5632896 9.5082185 44.2991776" />
<path class="stroke" d="M 40.55598865 8.0946356 L 59.47240015 8.0946356 L 59.47240015 28.498407999999998" />
<path class="stroke" d="M 40.87303265 18.643552 L 59.26104865 18.643552" />
<path class="stroke" d="M 40.76734015 28.498407999999998 L 59.47240015 28.498407999999998" />
<path class="stroke" d="M 40.55598865 8.0946356 L 40.55598865 42.239740000000005 M 35.69479695 43.76654 L 58.626964 38.214532" />
<path class="stroke" d="M 55.0339081 34.744494 C 58.0985551 36.13243 60.0007856 39.463714 60.634840100000005 43.07255" />
<path class="stroke" d="M 76.45049829999999 10.83960376 L 92.1722761 10.83960376 C 92.1722761 13.19207872 91.17722560000001 18.02772228 85.80395960000001 21.16435732" />
<path class="stroke" d="M 85.60495218 21.16435732 C 88.09356400000001 22.761292 93.1673266 26.1306932 93.1673266 30.05148656 L 93.1673266 31.7504942 C 93.1673266 33.3188148 91.5752458 34.2336628 88.98811717999999 34.2336628 L 81.02772390000001 34.1029696" />
<path class="stroke" d="M 76.45049829999999 10.83960376 L 76.45049829999999 43.6435644" />
<path class="stroke" d="M 49.27007 48.28394161 C 40.218975 56.27226304 22.70073 63.76131235 9.854013 65.75839342" />
<path class="stroke" d="M 49.27007 48.45036394 C 58.905106 56.43868537 76.715324 64.09415985999999 89.56204 65.75839342" />
<path class="stroke" d="M 47.226276 56.77153231 C 49.27007 58.26934183 50.437954 59.600727879999994 51.021896 61.26496201" />
<path class="stroke" d="M 34.851486 62.5963492 L 62.9927 62.5963492 L 62.9927 76.57591042" />
<path class="stroke" d="M 34.9635 69.58613038 L 62.70073 69.58613038" />
<path class="stroke" d="M 34.9635 76.57591042 L 62.9927 76.57591042" />
<path class="stroke" d="M 34.9635 62.5963492 L 34.9635 94.2167857 C 39.927006 93.88393705 45.47445 93.5510941 52.77372 91.387585" />
<path class="stroke" d="M 74.9635 79.7379535 C 70.58394 82.9 65.91241 84.89708049999999 58.321167 86.06204079999999" />
<path class="stroke" d="M 48.68613 80.23722219999999 C 55.985397 86.8941553 66.788315 92.38613038 80.51095 94.2167857" />
</svg>
