<?xml version="1.0" standalone="no"?>
<!DOCTYPE svg PUBLIC "-//W3C//DTD SVG 1.1//EN" "http://www.w3.org/Graphics/SVG/1.1/DTD/svg11.dtd">
<svg xmlns="http://www.w3.org/2000/svg" version="1.1" width="100%" height="100%">
<style type="text/css"><![CDATA[
  .stroke { fill:none; stroke:black; stroke-width:2 }
]]></style>
<path class="stroke" d="M 13.154171785714285 14.059406 C 16.654879285714284 16.138615 20.15558785714286 19.108912 23.01980357142857 22.673267" />
<path class="stroke" d="M 10.926448928571428 38.118813 C 14.108912142857141 39.90099 17.927864999999997 42.574257 20.473834285714286 46.138615" />
<path class="stroke" d="M 10.608203571428572 85.64356 C 11.321795357142857 87.422676 13.310014285714285 89.896904 15.629600357142856 89.896904 C 17.949189642857142 89.896904 21.110325 76.73267 23.33804892857143 69.60396" />
<path class="stroke" d="M 63.4999708 7.410096380000001 L 63.4999708 13.35960758" />
<path class="stroke" d="M 31.7208224 13.504750000000001 L 95.04892099999999 13.504750000000001" />
<path class="stroke" d="M 54.2886702 13.64981468 L 54.2886702 29.17665422 C 54.36539539 36.2870573 50.06671666 44.99365900000001 38.62929566 47.31546530000001" />
<path class="stroke" d="M 72.4810878 13.6498662 L 72.4810878 44.9937142 C 72.3275688 46.3480462 71.0226208 47.412210200000004 69.25711580000001 47.3154722 L 66.0331438 47.3154722" />
<path class="stroke" d="M 46.91956183 21.340731780000002 C 43.31175656 26.12933178 39.24339356 30.04728932 32.41166666 33.0946044" />
<path class="stroke" d="M 79.619933 21.340666 C 86.221396 24.678196 89.829129 28.596246 93.897492 33.239762" />
<path class="stroke" d="M 46.76861316 54.6671531 L 81.5102169 54.6671531 L 80.231381 63.53138668" />
<path class="stroke" d="M 49.965690499999994 63.53138668 L 80.01824289999999 63.53138668" />
<path class="stroke" d="M 49.752553129999995 63.53138668 L 47.1948879 72.529926 L 84.0678814 72.529926 C 81.5102169 85.6919704 73.8372234 91.0642299 70.42700212 91.0642299 L 68.50875848999999 91.0642299" />
</svg>
