<?xml version="1.0" standalone="no"?>
<!DOCTYPE svg PUBLIC "-//W3C//DTD SVG 1.1//EN" "http://www.w3.org/Graphics/SVG/1.1/DTD/svg11.dtd">
<svg xmlns="http://www.w3.org/2000/svg" version="1.1" width="100%" height="100%">
<style type="text/css"><![CDATA[
  .stroke { fill:none; stroke:black; stroke-width:2 }
]]></style>
<path class="stroke" d="M 31.204521600000003 7.242700289999999 L 31.204521600000003 26.9857651" />
<path class="stroke" d="M 31.288056128000004 16.18430555 L 44.093661248000004 16.18430555" />
<path class="stroke" d="M 22.697574592000002 24.912744199 C 20.827093056000002 39.399575520199996 16.3667149184 46.9992237778 10.3236198912 53.886407654799996" />
<path class="stroke" d="M 22.265926144 29.900012758 L 40.539093056 29.900012758 C 38.812494336 51.274025516 25.1435903488 78.58526937239999 6.2948902015999995 89.747251734" />
<path class="stroke" d="M 19.96379616 45.5742901362 C 24.458277536 48.774317171999996 28.021255046400004 52.9364499958 31.186684390400004 60.536101507" />
<path class="stroke" d="M 55.51111244 15.85000198 L 86.201982 16.09504876 C 81.75783580000001 39.90432205 80.07135048 50.17891726 64.7243232 69.12270190000001" />
<path class="stroke" d="M 58.83333368 17.500001320000003 C 62.090320919999996 43.15483657 70.14193436 58.16451664 72.82580464 64.8709687 C 77.6903204 75.0903229 86.41290128 82.7548336 94.69702960000001 89.9039602" />
</svg>
