<?xml version="1.0" standalone="no"?>
<!DOCTYPE svg PUBLIC "-//W3C//DTD SVG 1.1//EN" "http://www.w3.org/Graphics/SVG/1.1/DTD/svg11.dtd">
<svg xmlns="http://www.w3.org/2000/svg" version="1.1" width="100%" height="100%">
<style type="text/css"><![CDATA[
  .stroke { fill:none; stroke:black; stroke-width:2 }
]]></style>
<path class="stroke" d="M 31.204521600000003 8.5489231421 L 31.204521600000003 18.223024899" />
<path class="stroke" d="M 31.288056128000004 12.9303097195 L 44.093661248000004 12.9303097195" />
<path class="stroke" d="M 22.697574592000002 17.20724465751 C 20.827093056000002 24.305792004898 16.3667149184 28.029619651121997 10.3236198912 31.404339750851996" />
<path class="stroke" d="M 22.265926144 19.65100625142 L 40.539093056 19.65100625142 C 38.812494336 30.12427250284 25.1435903488 43.50678199247599 6.2948902015999995 48.97615334966" />
<path class="stroke" d="M 19.96379616 27.331402166738 C 24.458277536 28.899415414279996 28.021255046400004 30.938860497942 31.186684390400004 34.662689738430004" />
<path class="stroke" d="M 55.51111244 12.7665009702 L 86.201982 12.886573892400001 C 81.75783580000001 24.553117804499998 80.07135048 29.5876694574 64.7243232 38.870123931" />
<path class="stroke" d="M 58.83333368 13.575000646800001 C 62.090320919999996 26.1458699193 70.14193436 33.5006131536 72.82580464 36.786774663 C 77.6903204 41.794258221 86.41290128 45.549868464 94.69702960000001 49.052940498" />
<path class="stroke" d="M 49.27007 37.39635037 C 40.218975 47.06642368 22.70073 56.13211495 9.854013 58.549634139999995" />
<path class="stroke" d="M 49.27007 37.597808979999996 C 58.905106 47.26788229 76.715324 56.53503562 89.56204 58.549634139999995" />
<path class="stroke" d="M 47.226276 47.670802269999996 C 49.27007 49.48394011 50.437954 51.09561796 51.021896 53.11021717" />
<path class="stroke" d="M 34.851486 54.72189639999999 L 62.9927 54.72189639999999 L 62.9927 71.64452313999999" />
<path class="stroke" d="M 34.9635 63.18321046 L 62.70073 63.18321046" />
<path class="stroke" d="M 34.9635 71.64452313999999 L 62.9927 71.64452313999999" />
<path class="stroke" d="M 34.9635 54.72189639999999 L 34.9635 92.9992669 C 39.927006 92.59634485 45.47445 92.1934297 52.77372 89.574445" />
<path class="stroke" d="M 74.9635 75.4722595 C 70.58394 79.3 65.91241 81.71751849999998 58.321167 83.1277336" />
<path class="stroke" d="M 48.68613 76.07663740000001 C 55.985397 84.1350301 66.788315 90.78321045999999 80.51095 92.9992669" />
</svg>
