<?xml version="1.0" standalone="no"?>
<!DOCTYPE svg PUBLIC "-//W3C//DTD SVG 1.1//EN" "http://www.w3.org/Graphics/SVG/1.1/DTD/svg11.dtd">
<svg xmlns="http://www.w3.org/2000/svg" version="1.1" width="100%" height="100%">
<style type="text/css"><![CDATA[
  .stroke { fill:none; stroke:black; stroke-width:2 }
]]></style>
<path class="stroke" d="M 27.304731333333333 9.306931 C 22.978234166666667 17.680412 15.821878277777776 26.030926 9.350935 30.69307" />
<path class="stroke" d="M 27.585257777777777 9.306931 C 32.17926505555556 14.123711 36.85280777777778 17.216494 42.40263155555555 19.536081" />
<path class="stroke" d="M 28.235964888888887 19.999998 C 30.426685 22.319588 31.156929444444447 24.639175 31.741121222222223 27.731956" />
<path class="stroke" d="M 19.619128611111112 29.896904 L 41.088201 29.896904 L 41.088201 57.72277" />
<path class="stroke" d="M 20.01100033333333 43.81443 L 40.398486444444444 43.81443" />
<path class="stroke" d="M 19.730472 57.72277 L 41.0506055 57.72277" />
<path class="stroke" d="M 19.619128611111112 29.896904 L 19.619128611111112 89.896904 C 27.35967722222222 87.57732 33.81255611111111 83.55427 39.50843444444444 79.842926" />
<path class="stroke" d="M 35.68442044444444 74.12371 C 38.45933611111111 76.90721 41.088201 82.16495 42.256586444444444 85.87628" />
<path class="stroke" d="M 46.7883208 10.252375 L 93.38685759999998 10.252375" />
<path class="stroke" d="M 59.226275799999996 10.437956 L 59.226275799999996 71.16788" />
<path class="stroke" d="M 59.401459599999995 30.162327 L 80.423356 30.162327" />
<path class="stroke" d="M 59.401459599999995 49.192394 L 80.423356 49.192394" />
<path class="stroke" d="M 50.8175176 73.50365 L 85.328464 64.16058" />
<path class="stroke" d="M 80.59853799999999 10.729925 L 80.59853799999999 91.313866" />
</svg>
