<?xml version="1.0" standalone="no"?>
<!DOCTYPE svg PUBLIC "-//W3C//DTD SVG 1.1//EN" "http://www.w3.org/Graphics/SVG/1.1/DTD/svg11.dtd">
<svg xmlns="http://www.w3.org/2000/svg" version="1.1" width="100%" height="100%">
<style type="text/css"><![CDATA[
  .stroke { fill:none; stroke:black; stroke-width:2 }
]]></style>
<path class="stroke" d="M 13.628345985500001 9.31881152 L 37.552338305000006 9.31881152 C 32.1085530945 27.99604016 22.9400788068 37.1207936 6.895247477 45.1049504" />
<path class="stroke" d="M 13.055316674100002 13.59604016 C 15.188772653300001 22.43870864 22.6566441189 29.71612928 25.145933803600002 32.967742400000006 C 29.657772171000005 37.9225808 37.74796593720001 41.6387072 45.431494954 45.1049504" />
<path class="stroke" d="M 9.71021851 65.850364 L 43.28977725000001 65.850364" />
<path class="stroke" d="M 26.5 47.864962775 L 26.6614221 84.7487292" />
<path class="stroke" d="M 7.61370546 89.4390885 L 45.709134500000005 80.3934035" />
<path class="stroke" d="M 52.62627686 9.854013 L 88.0189748 9.854013" />
<path class="stroke" d="M 70.57664059999999 9.854013 C 69.89927019999999 14.817516 68.54452476 18.905107 66.628192 22.0621" />
<path class="stroke" d="M 54.122 22.3791 L 54.122 76.715324" />
<path class="stroke" d="M 54.122 22.3791 L 86.674906 22.3791 L 86.674906 76.423355" />
<path class="stroke" d="M 54.305918 40.77066 L 86.674906 40.77066" />
<path class="stroke" d="M 54.305918 59.79627 L 86.674906 59.79627" />
<path class="stroke" d="M 54.150364319999994 76.715324 L 86.83357079999999 76.715324" />
<path class="stroke" d="M 60.58539994 83.13868 C 57.53722502 86.9343 53.981021139999996 89.56204 49.74744396 89.85401" />
<path class="stroke" d="M 80.90656820000001 83.43065 C 84.4627744 84.59853 87.3416044 86.35036 90.7284651 90.72992" />
</svg>
