<?xml version="1.0" standalone="no"?>
<!DOCTYPE svg PUBLIC "-//W3C//DTD SVG 1.1//EN" "http://www.w3.org/Graphics/SVG/1.1/DTD/svg11.dtd">
<svg xmlns="http://www.w3.org/2000/svg" version="1.1" width="100%" height="100%">
<style type="text/css"><![CDATA[
  .stroke { fill:none; stroke:black; stroke-width:2 }
]]></style>
<path class="stroke" d="M 10.301240724 11.535116469999998 L 10.301240724 26.66901378" />
<path class="stroke" d="M 10.301240724 11.535116469999998 L 21.2489776 11.535116469999998 L 21.2489776 26.523495932" />
<path class="stroke" d="M 10.301240724 25.504867507199997 L 21.2489776 25.504867507199997" />
<path class="stroke" d="M 31.801240724 11.535116469999998 L 31.801240724 26.66901378" />
<path class="stroke" d="M 31.801240724 11.535116469999998 L 42.748977599999996 11.535116469999998 L 42.748977599999996 26.523495932" />
<path class="stroke" d="M 31.801240724 25.504867507199997 L 42.748977599999996 25.504867507199997" />
<path class="stroke" d="M 16.067006836 39.333000000000006 L 36.932991099999995 39.333000000000006" />
<path class="stroke" d="M 7.6451106 52.46570756355 L 45.49052 52.46570756355" />
<path class="stroke" d="M 19.853318 52.46570756355 L 17.004697 65.64828071459999 L 38.029977 65.64828071459999 C 38.07517 77.228801191 35.271828 89.2212451111 30.026817 89.12970173140002 L 25.821761 89.12970173140002" />
<path class="stroke" d="M 54.25985352 9.854013 L 88.43211360000001 9.854013" />
<path class="stroke" d="M 71.5912392 9.854013 C 70.9372264 14.817516 69.62919632 18.905107 67.778944 22.0621" />
<path class="stroke" d="M 55.704 22.3791 L 55.704 76.715324" />
<path class="stroke" d="M 55.704 22.3791 L 87.134392 22.3791 L 87.134392 76.423355" />
<path class="stroke" d="M 55.881576 40.77066 L 87.134392 40.77066" />
<path class="stroke" d="M 55.881576 59.79627 L 87.134392 59.79627" />
<path class="stroke" d="M 55.73138624 76.715324 L 87.2875856 76.715324" />
<path class="stroke" d="M 61.94452408 83.13868 C 59.00145864 86.9343 55.56788248 89.56204 51.48029072 89.85401" />
<path class="stroke" d="M 81.56496240000001 83.43065 C 84.9985408 84.59853 87.7781008 86.35036 91.04817320000001 90.72992" />
</svg>
