<?xml version="1.0" standalone="no"?>
<!DOCTYPE svg PUBLIC "-//W3C//DTD SVG 1.1//EN" "http://www.w3.org/Graphics/SVG/1.1/DTD/svg11.dtd">
<svg xmlns="http://www.w3.org/2000/svg" version="1.1" width="100%" height="100%">
<style type="text/css"><![CDATA[
  .stroke { fill:none; stroke:black; stroke-width:2 }
]]></style>
<path class="stroke" d="M 14.9452551 12.722576550999998 C 14.288320350000001 24.5353344725 10.87226235 35.6174061865 4.43430585 44.507423448999994" />
<path class="stroke" d="M 29.008219500000003 12.956033260399998 C 34.521895799999996 21.4908085384 38.0693385 33.18178619 40.17152925 44.750984822999996" />
<path class="stroke" d="M 23.063977602 37.882393036799996 C 20.93551047 53.651618784 15.85672785 71.31117184 9.867481092 83.92128358400001 C 18.807042973500003 81.92747263999999 26.575948588500005 81.02119775999999 35.08169715000001 81.1537696" />
<path class="stroke" d="M 30.939305917500004 69.7833532416 C 33.38704188 73.22720896 35.515509011999995 78.483618784 36.899013960000005 85.552578368" />
<path class="stroke" d="M 53.44306519 13.45985248 L 88.2255442 13.45985248" />
<path class="stroke" d="M 71.08393989999999 13.45985248 C 70.4182483 18.22481536 69.08686054 22.14890272 67.203568 25.179616" />
<path class="stroke" d="M 54.913 25.483936 L 54.913 77.64671104" />
<path class="stroke" d="M 54.913 25.483936 L 86.904649 25.483936 L 86.904649 77.3664208" />
<path class="stroke" d="M 55.093747 43.139833599999996 L 86.904649 43.139833599999996" />
<path class="stroke" d="M 55.093747 61.4044192 L 86.904649 61.4044192" />
<path class="stroke" d="M 54.94087528 77.64671104 L 87.06057820000001 77.64671104" />
<path class="stroke" d="M 61.26496201 83.81313279999999 C 58.26934183 87.45692799999999 54.77445181 89.97955839999999 50.61386734 90.2598496" />
<path class="stroke" d="M 81.2357653 84.093424 C 84.7306576 85.21458879999999 87.5598526 86.89634559999999 90.88831915 91.1007232" />
</svg>
