<?xml version="1.0" standalone="no"?>
<!DOCTYPE svg PUBLIC "-//W3C//DTD SVG 1.1//EN" "http://www.w3.org/Graphics/SVG/1.1/DTD/svg11.dtd">
<svg xmlns="http://www.w3.org/2000/svg" version="1.1" width="100%" height="100%">
<style type="text/css"><![CDATA[
  .stroke { fill:none; stroke:black; stroke-width:2 }
]]></style>
<path class="stroke" d="M 10.2455444 24.329895 L 10.2455444 47.623764 C 10.2455444 75.84158 8.70099048 82.07921 6.84752536 88.019806" />
<path class="stroke" d="M 10.2391744 24.455444 L 42.323710000000005 24.455444 L 42.323710000000005 27.57732 C 42.323710000000005 30.206184 42.1628844 32.061855 41.4391744 34.381443" />
<path class="stroke" d="M 26.61782136 9.60396 L 26.61782136 42.27723" />
<path class="stroke" d="M 13.577779800000002 42.222225 L 36.657426 42.27723 C 34.475272 72.0821 22.756435 88.91089 11.63564272 89.80198" />
<path class="stroke" d="M 16.03333472 54.72223 C 25.855557 58.8889 34.8111088 70.27778 40.73333472 80.833336" />
<path class="stroke" d="M 49.35912354 9.55839261 L 87.1926972 9.55839261" />
<path class="stroke" d="M 68.54744339999999 9.55839261 C 67.8233578 14.372990519999998 66.37518164 18.33795379 64.326688 21.400237" />
<path class="stroke" d="M 50.958 21.707727000000002 L 50.958 74.41386428" />
<path class="stroke" d="M 50.958 21.707727000000002 L 85.755934 21.707727000000002 L 85.755934 74.13065435" />
<path class="stroke" d="M 51.154602 39.5475402 L 85.755934 39.5475402" />
<path class="stroke" d="M 51.154602 58.002381899999996 L 85.755934 58.002381899999996" />
<path class="stroke" d="M 50.98832048 74.41386428 L 85.9255412 74.41386428" />
<path class="stroke" d="M 57.867151660000005 80.6445196 C 54.608757780000005 84.32627099999999 45.62554802 91.86678909999999 41.1 92.14999999999999" />
<path class="stroke" d="M 79.5897798 80.9277305 C 83.3912416 82.0605741 86.4686116 83.75984919999999 90.0890489 88.0080224" />
</svg>
