<?xml version="1.0" standalone="no"?>
<!DOCTYPE svg PUBLIC "-//W3C//DTD SVG 1.1//EN" "http://www.w3.org/Graphics/SVG/1.1/DTD/svg11.dtd">
<svg xmlns="http://www.w3.org/2000/svg" version="1.1" width="100%" height="100%">
<style type="text/css"><![CDATA[
  .stroke { fill:none; stroke:black; stroke-width:2 }
]]></style>
<path class="stroke" d="M 9.94971005 24.509482 L 42.2673082 24.509482" />
<path class="stroke" d="M 13.33018171 33.77046675 C 15.583898569999999 38.251615799999996 16.75577714 41.8365377 18.062891999999998 48.7076027" />
<path class="stroke" d="M 38.886803 33.1729785 C 37.714881 39.5460554 36.543002 43.82808635 34.55975599999999 48.408796349999996" />
<path class="stroke" d="M 7.5157316 56.17606 L 43.889939000000005 56.17606" />
<path class="stroke" d="M 26.44651686 9.871074499999999 C 26.423984 31.928259999999998 26.672911 43.12705 25.263371 56.101389999999995 C 23.378982 71.92810499999999 17.13890843 83.41142 7.5157234299999995 91.72639" />
<path class="stroke" d="M 27.257883 56.77361 C 35.7722227 71.08333649999999 36.72777945 73.98611849999999 41.02777945 82.95833649999999" />
<path class="stroke" d="M 50.17591187 9.854013 L 87.3992666 9.854013" />
<path class="stroke" d="M 69.05474269999999 9.854013 C 68.3423359 14.817516 66.91751742 18.905107 64.902064 22.0621" />
<path class="stroke" d="M 51.748999999999995 22.3791 L 51.748999999999995 76.715324" />
<path class="stroke" d="M 51.748999999999995 22.3791 L 85.98567700000001 22.3791 L 85.98567700000001 76.423355" />
<path class="stroke" d="M 51.942431 40.77066 L 85.98567700000001 40.77066" />
<path class="stroke" d="M 51.942431 59.79627 L 85.98567700000001 59.79627" />
<path class="stroke" d="M 51.77883144 76.715324 L 86.1525486 76.715324" />
<path class="stroke" d="M 58.54671373 83.13868 C 55.34087459 86.9343 46.50255531 94.70803 42.05 95.0" />
<path class="stroke" d="M 79.9189769 83.43065 C 83.6591248 84.59853 86.68685980000001 86.35036 90.24890295 90.72992" />
</svg>
