<?xml version="1.0" standalone="no"?>
<!DOCTYPE svg PUBLIC "-//W3C//DTD SVG 1.1//EN" "http://www.w3.org/Graphics/SVG/1.1/DTD/svg11.dtd">
<svg xmlns="http://www.w3.org/2000/svg" version="1.1" width="100%" height="100%">
<style type="text/css"><![CDATA[
  .stroke { fill:none; stroke:black; stroke-width:2 }
]]></style>
<path class="stroke" d="M 81.54573 7.23501009 C 63.77493 13.79336409 32.43953 19.4148471 11.19873 19.7271261" />
<path class="stroke" d="M 22.55523 2.2381695600000002 L 22.55523 28.5756801 C 22.45013 29.859611100000002 24.86863 30.623001420000005 27.91803 30.657716100000002 L 82.80763 30.657716100000002 C 86.06733 30.6924321 88.69613 29.7902121 88.80123 28.5757131 L 88.80123 26.181398100000003" />
<path class="stroke" d="M 83.75393 42.7507875 C 63.56463 45.1903313 38.32813 46.8979673 13.72243 47.3249053" />
<path class="stroke" d="M 6.782333 63.242886399999996 L 91.95584 63.242886399999996" />
<path class="stroke" d="M 49.0536 46.227148 L 49.0536 93.9811" />
<path class="stroke" d="M 49.053642 63.2429444 C 38.328045 72.6961324 25.394342 80.8685644 7.413253 87.7602984" />
<path class="stroke" d="M 49.053642 63.2429444 C 59.67404 73.1840284 71.556244 80.5636584 91.32494 87.57730839999999" />
</svg>
