<?xml version="1.0" standalone="no"?>
<!DOCTYPE svg PUBLIC "-//W3C//DTD SVG 1.1//EN" "http://www.w3.org/Graphics/SVG/1.1/DTD/svg11.dtd">
<svg xmlns="http://www.w3.org/2000/svg" version="1.1" width="100%" height="100%">
<style type="text/css"><![CDATA[
  .stroke { fill:none; stroke:black; stroke-width:2 }
]]></style>
<path class="stroke" d="M 37.4337493 12.8009094846 C 30.147721299999997 18.9657622446 17.300207299999997 24.249956274 8.5914793 24.543498533999998" />
<path class="stroke" d="M 13.2476443 8.1038793864 L 13.2476443 32.861139294 C 13.2045533 34.068034434 14.1961383 34.7856213348 15.4463923 34.818253134 L 37.9511283 34.818253134 C 39.287605299999996 34.850886173999996 40.36541329999999 34.002799374 40.4085043 32.861170314 L 40.4085043 30.610514214000002" />
<path class="stroke" d="M 38.3391113 46.18574025 C 30.0614983 48.478911421999996 19.7145333 50.08408926199999 9.6261963 50.485410982" />
<path class="stroke" d="M 6.78075653 65.448313216 L 41.70189439999999 65.448313216" />
<path class="stroke" d="M 24.111976 49.453519119999996 L 24.111976 94.34223399999999" />
<path class="stroke" d="M 24.11199322 65.448367736 C 19.71449845 74.33436445599999 14.411680220000001 82.016450536 7.03943373 88.49468049599999" />
<path class="stroke" d="M 24.11199322 65.448367736 C 28.4663564 74.792986696 33.33806004 81.72983889599999 41.443225399999996 88.322669896" />
<path class="stroke" d="M 52.62627686 9.854013 L 88.0189748 9.854013" />
<path class="stroke" d="M 70.57664059999999 9.854013 C 69.89927019999999 14.817516 68.54452476 18.905107 66.628192 22.0621" />
<path class="stroke" d="M 54.122 22.3791 L 54.122 76.715324" />
<path class="stroke" d="M 54.122 22.3791 L 86.674906 22.3791 L 86.674906 76.423355" />
<path class="stroke" d="M 54.305918 40.77066 L 86.674906 40.77066" />
<path class="stroke" d="M 54.305918 59.79627 L 86.674906 59.79627" />
<path class="stroke" d="M 54.150364319999994 76.715324 L 86.83357079999999 76.715324" />
<path class="stroke" d="M 60.58539994 83.13868 C 57.53722502 86.9343 49.133577179999996 94.70803 44.9 95.0" />
<path class="stroke" d="M 80.90656820000001 83.43065 C 84.4627744 84.59853 87.3416044 86.35036 90.7284651 90.72992" />
</svg>
