<?xml version="1.0" standalone="no"?>
<!DOCTYPE svg PUBLIC "-//W3C//DTD SVG 1.1//EN" "http://www.w3.org/Graphics/SVG/1.1/DTD/svg11.dtd">
<svg xmlns="http://www.w3.org/2000/svg" version="1.1" width="100%" height="100%">
<style type="text/css"><![CDATA[
  .stroke { fill:none; stroke:black; stroke-width:2 }
]]></style>
<path class="stroke" d="M 10.334539963000001 16.809984 L 46.665457758 16.809984" />
<path class="stroke" d="M 28.5 7.932935430144 L 28.5 27.019695882240004" />
<path class="stroke" d="M 17.296495784 29.72187950592 L 17.296495784 65.25392977919999" />
<path class="stroke" d="M 17.296495784 29.72187950592 L 39.579707664000004 29.72187950592 L 39.579707664000004 65.126116992" />
<path class="stroke" d="M 17.296495784 40.57574734848 L 39.579707664000004 40.57574734848" />
<path class="stroke" d="M 17.296495784 52.7628509184 L 39.579707664000004 52.7628509184" />
<path class="stroke" d="M 17.296495784 63.975797529599994 L 39.579707664000004 63.975797529599994" />
<path class="stroke" d="M 7.06788226 76.8 L 49.9321135 76.8" />
<path class="stroke" d="M 18.802855 77.0226144 C 17.242376 84.14441279999998 13.675635 87.9985344 9.607249000000001 90.09316224" />
<path class="stroke" d="M 36.859637000000006 77.02253472 C 38.977358 84.06050975999999 41.931101000000005 87.57949728 46.05519 90.09308255999998" />
<path class="stroke" d="M 59.1605835 9.36131235 L 89.67152999999999 9.36131235" />
<path class="stroke" d="M 74.635035 9.36131235 C 74.051095 14.076640199999998 72.883211 17.95985165 71.2312 20.958995" />
<path class="stroke" d="M 60.45 21.260145 L 60.45 72.87955779999999" />
<path class="stroke" d="M 60.45 21.260145 L 88.51285 21.260145 L 88.51285 72.60218725" />
<path class="stroke" d="M 60.60855 38.732127 L 88.51285 38.732127" />
<path class="stroke" d="M 60.60855 56.806456499999996 L 88.51285 56.806456499999996" />
<path class="stroke" d="M 60.474452 72.87955779999999 L 88.64963 72.87955779999999" />
<path class="stroke" d="M 66.0218965 78.98174599999999 C 63.3941595 82.58758499999999 56.1496355 89.97262849999998 52.5 90.25" />
<path class="stroke" d="M 83.540145 79.2591175 C 86.60584 80.36860349999999 89.08759 82.03284199999999 92.00729749999999 86.19342400000001" />
</svg>
