<?xml version="1.0" standalone="no"?>
<!DOCTYPE svg PUBLIC "-//W3C//DTD SVG 1.1//EN" "http://www.w3.org/Graphics/SVG/1.1/DTD/svg11.dtd">
<svg xmlns="http://www.w3.org/2000/svg" version="1.1" width="100%" height="100%">
<style type="text/css"><![CDATA[
  .stroke { fill:none; stroke:black; stroke-width:2 }
]]></style>
<path class="stroke" d="M 7.25551936 15.3028176 L 49.047313599999995 15.3028176" />
<path class="stroke" d="M 19.36907824 6.337542399999999 L 19.36907824 31.687712" />
<path class="stroke" d="M 36.9337672 6.337542399999999 L 36.9337672 31.687712" />
<path class="stroke" d="M 19.36907824 31.687712 L 36.9337672 31.687712" />
<path class="stroke" d="M 14.22081184 45.290239400000004 L 14.22081184 63.8390914" />
<path class="stroke" d="M 14.22081184 45.290239400000004 L 42.53630079999999 45.290239400000004 L 42.53630079999999 63.8390914" />
<path class="stroke" d="M 14.22081184 63.8390914 L 42.53630079999999 63.8390914" />
<path class="stroke" d="M 6.95268304 78.05994 L 49.0472992 78.05994" />
<path class="stroke" d="M 28.15144 31.996803999999997 L 28.15144 93.517382" />
<path class="stroke" d="M 62.608834 6.46687 C 61.018966 22.45 56.873818 38.1177 49.6624582 48.1072" />
<path class="stroke" d="M 61.075666 22.5552 L 94.634074 22.8706 L 94.463704 58.2019 C 94.123018 74.1851 90.545788 92.6919 84.413278 92.9022 L 81.85805200000001 92.9022" />
<path class="stroke" d="M 61.555547125000004 38.51386698 C 62.887809745 40.82627664 64.117591246 43.5240867 64.9137133 47.507916" />
<path class="stroke" d="M 81.53948818 38.51386698 C 80.924597605 41.9824818 79.79729968000001 44.87299272 78.26007236500001 47.378101920000006" />
<path class="stroke" d="M 59.300948116 55.47153078 L 84.10153195000001 55.47153078" />
<path class="stroke" d="M 71.65 33.3386136 L 71.70123898 86.6613864" />
<path class="stroke" d="M 69.75408648700001 57.20583852 C 67.64487940000001 66.392628 63.385248700000005 75.733806 58.27613131 80.71532496" />
<path class="stroke" d="M 73.750874347 57.3985374 C 75.4732675 66.461994 79.7588371 76.283784 84.92138371000001 80.90802450000001" />
</svg>
