<?xml version="1.0" standalone="no"?>
<!DOCTYPE svg PUBLIC "-//W3C//DTD SVG 1.1//EN" "http://www.w3.org/Graphics/SVG/1.1/DTD/svg11.dtd">
<svg xmlns="http://www.w3.org/2000/svg" version="1.1" width="100%" height="100%">
<style type="text/css"><![CDATA[
  .stroke { fill:none; stroke:black; stroke-width:2 }
]]></style>
<path class="stroke" d="M 7.98422608 20.5851544 L 46.2933708 20.5851544" />
<path class="stroke" d="M 19.08832172 12.6261856 L 19.08832172 35.130928" />
<path class="stroke" d="M 35.1892866 12.6261856 L 35.1892866 35.130928" />
<path class="stroke" d="M 19.08832172 35.130928 L 35.1892866 35.130928" />
<path class="stroke" d="M 14.369077520000001 47.206641100000006 L 14.369077520000001 63.6734791" />
<path class="stroke" d="M 14.369077520000001 47.206641100000006 L 40.3249424 47.206641100000006 L 40.3249424 63.6734791" />
<path class="stroke" d="M 14.369077520000001 63.6734791 L 40.3249424 63.6734791" />
<path class="stroke" d="M 7.70662612 76.29811000000001 L 46.2933576 76.29811000000001" />
<path class="stroke" d="M 27.13882 35.405326 L 27.13882 90.020533" />
<path class="stroke" d="M 55.197079 19.48905 L 86.905108 17.153284 C 86.204374 39.051094 84.802918 51.897808 82.87591 68.540146 C 81.82481200000001 76.423355 79.8978076 88.39416 76.218976 88.39416 L 74.2919692 88.39416" />
<path class="stroke" d="M 66.0583918 18.905107 L 64.30657 36.715324 C 61.503647799999996 59.489044 56.423356600000005 74.087585 52.043794 86.35036" />
<path class="stroke" d="M 55.4656186 43.3785446 C 65.2700566 45.9232406 70.9671886 49.3007466 74.41198659999999 53.996866600000004" />
</svg>
