<?xml version="1.0" standalone="no"?>
<!DOCTYPE svg PUBLIC "-//W3C//DTD SVG 1.1//EN" "http://www.w3.org/Graphics/SVG/1.1/DTD/svg11.dtd">
<svg xmlns="http://www.w3.org/2000/svg" version="1.1" width="100%" height="100%">
<style type="text/css"><![CDATA[
  .stroke { fill:none; stroke:black; stroke-width:2 }
]]></style>
<path class="stroke" d="M 6.91640276 15.61512 L 44.3548851 15.61512" />
<path class="stroke" d="M 17.76813259 6.46688 L 17.76813259 32.3344" />
<path class="stroke" d="M 33.503166449999995 6.46688 L 33.503166449999995 32.3344" />
<path class="stroke" d="M 17.76813259 32.3344 L 33.503166449999995 32.3344" />
<path class="stroke" d="M 13.15614394 46.21453 L 13.15614394 65.14193" />
<path class="stroke" d="M 13.15614394 46.21453 L 38.5221028 46.21453 L 38.5221028 65.14193" />
<path class="stroke" d="M 13.15614394 65.14193 L 38.5221028 65.14193" />
<path class="stroke" d="M 6.64511189 79.653 L 44.3548722 79.653" />
<path class="stroke" d="M 25.635665 32.6498 L 25.635665 95.4259" />
<path class="stroke" d="M 56.935303 6.78234 C 55.017309999999995 21.2934 52.380148 29.8107 47.0457403 39.2744" />
<path class="stroke" d="M 55.856464 18.13879 L 88.76182299999999 18.13879 L 88.76182299999999 58.51739 C 88.70191599999998 63.98539 87.922669 71.03059 84.26657499999999 71.13579 L 81.92900499999999 71.13579" />
<path class="stroke" d="M 57.474751 33.2807 L 78.152983 33.2807 L 78.152983 59.7791" />
<path class="stroke" d="M 54.95746 59.7791 L 78.152983 59.7791" />
<path class="stroke" d="M 54.95746 59.7791 L 54.95746 85.9622 C 54.717718 90.3786 56.276041 92.5868 58.553647 92.5868 L 90.380167 92.5868 C 92.897515 92.692 94.15618899999998 89.6425 94.15618899999998 85.3313 L 94.15618899999998 79.0221" />
</svg>
