<?xml version="1.0" standalone="no"?>
<!DOCTYPE svg PUBLIC "-//W3C//DTD SVG 1.1//EN" "http://www.w3.org/Graphics/SVG/1.1/DTD/svg11.dtd">
<svg xmlns="http://www.w3.org/2000/svg" version="1.1" width="100%" height="100%">
<style type="text/css"><![CDATA[
  .stroke { fill:none; stroke:black; stroke-width:2 }
]]></style>
<path class="stroke" d="M 9.18769604 19.2097592 L 50.108827899999994 19.2097592" />
<path class="stroke" d="M 21.048889109999998 10.8848608 L 21.048889109999998 34.42430400000001" />
<path class="stroke" d="M 38.24764705 10.8848608 L 38.24764705 34.42430400000001" />
<path class="stroke" d="M 21.048889109999998 34.42430400000001 L 38.24764705 34.42430400000001" />
<path class="stroke" d="M 16.00787826 47.055222300000004 L 16.00787826 64.27915630000001" />
<path class="stroke" d="M 16.00787826 47.055222300000004 L 43.733461199999994 47.055222300000004 L 43.733461199999994 64.27915630000001" />
<path class="stroke" d="M 16.00787826 64.27915630000001 L 43.733461199999994 64.27915630000001" />
<path class="stroke" d="M 8.89116881 77.48423000000001 L 50.1088138 77.48423000000001" />
<path class="stroke" d="M 29.648284999999998 34.711318 L 29.648284999999998 91.837569" />
<path class="stroke" d="M 74.59986348 10.800613210526315 L 74.59986348 28.863381578947365" />
<path class="stroke" d="M 56.1447584676 13.42066794736842 C 58.99462621559999 16.993468526315787 60.419561484 20.328082236842103 62.251617628800005 25.330002394736844" />
<path class="stroke" d="M 91.97167516799999 13.42066794736842 C 90.7503034752 19.613521631578944 88.918245936 21.995390315789475 86.27193967199999 25.091817157894738" />
<path class="stroke" d="M 57.83868578 32.99634923 L 57.83868578 69.273719 C 57.83868578 77.3168333 57.83868578 80.69108700000001 57.83868578 88.49406225999999" />
<path class="stroke" d="M 57.83868578 32.99634923 L 91.7656944 32.99634923 L 91.7656944 87.1014569 C 91.7656944 88.7598536 90.79634569999999 90.2109445 88.37298971999999 90.2109445 L 85.70730029999999 90.2109445" />
<path class="stroke" d="M 57.83868578 48.62242967 L 91.7656944 48.62242967" />
<path class="stroke" d="M 57.83868578 65.12833856 L 91.7656944 65.12833856" />
</svg>
