<?xml version="1.0" standalone="no"?>
<!DOCTYPE svg PUBLIC "-//W3C//DTD SVG 1.1//EN" "http://www.w3.org/Graphics/SVG/1.1/DTD/svg11.dtd">
<svg xmlns="http://www.w3.org/2000/svg" version="1.1" width="100%" height="100%">
<style type="text/css"><![CDATA[
  .stroke { fill:none; stroke:black; stroke-width:2 }
]]></style>
<path class="stroke" d="M 8.7129328 14.5220616 L 43.539428 14.5220616" />
<path class="stroke" d="M 18.8075652 6.0141984 L 18.8075652 30.070992000000004" />
<path class="stroke" d="M 33.444806 6.0141984 L 33.444806 30.070992000000004" />
<path class="stroke" d="M 18.8075652 30.070992000000004 L 33.444806 30.070992000000004" />
<path class="stroke" d="M 14.517343200000001 42.9795129 L 14.517343200000001 60.581994900000005" />
<path class="stroke" d="M 14.517343200000001 42.9795129 L 38.113583999999996 42.9795129 L 38.113583999999996 60.581994900000005" />
<path class="stroke" d="M 14.517343200000001 60.581994900000005 L 38.113583999999996 60.581994900000005" />
<path class="stroke" d="M 8.4605692 74.07729 L 43.539416 74.07729" />
<path class="stroke" d="M 26.1262 30.364314 L 26.1262 88.746087" />
<path class="stroke" d="M 72.58028900000001 6.95255475 L 72.58028900000001 16.587590249999998" />
<path class="stroke" d="M 51.864962775 16.806567 L 51.864962775 27.31751625" />
<path class="stroke" d="M 51.864962775 16.806567 L 93.2956155 16.806567 L 93.2956155 27.31751625" />
<path class="stroke" d="M 69.8861382 30.059405599999998 C 69.2326733 42.891088800000006 65.14851465 58.574258400000005 61.22772305 65.94059440000001 C 70.17153210000001 68.75912 82.85766325 77.868608 89.2810225 89.3138672" />
<path class="stroke" d="M 82.7920785 44.554456 C 78.7079226 71.64356800000002 70.21287065 81.861392 57.64598445 88.613136" />
<path class="stroke" d="M 50.41970715 48.4379544 L 94.4197055 48.4379544" />
</svg>
