<?xml version="1.0" standalone="no"?>
<!DOCTYPE svg PUBLIC "-//W3C//DTD SVG 1.1//EN" "http://www.w3.org/Graphics/SVG/1.1/DTD/svg11.dtd">
<svg xmlns="http://www.w3.org/2000/svg" version="1.1" width="100%" height="100%">
<style type="text/css"><![CDATA[
  .stroke { fill:none; stroke:black; stroke-width:2 }
]]></style>
<path class="stroke" d="M 7.6671531 20.160000000000004 L 44.3328446 20.160000000000004" />
<path class="stroke" d="M 26.0 9.51386856 L 26.0 32.404377600000004" />
<path class="stroke" d="M 16.008932903199998 34.813328193000004 L 16.008932903199998 58.843457184" />
<path class="stroke" d="M 16.008932903199998 34.813328193000004 L 35.8755606 34.813328193000004 L 35.8755606 58.843457184" />
<path class="stroke" d="M 16.124437422 46.173795003799995 L 35.760057268000004 46.173795003799995" />
<path class="stroke" d="M 16.008932903199998 57.7945238024 L 35.8755606 57.7945238024" />
<path class="stroke" d="M 7.53284598 70.24060338999999 L 44.73576320000001 70.24060338999999" />
<path class="stroke" d="M 25.9647502 60.264164131 L 25.9647502 90.425832106" />
<path class="stroke" d="M 68.5861282 8.6058378 C 61.8678808 22.007297700000002 54.28832013 32.5182474 44.81386767 38.824814700000005" />
<path class="stroke" d="M 68.5861282 8.6058378 C 75.47664026000001 21.481749 82.53941344 32.5182474 92.3583905 38.5620426" />
<path class="stroke" d="M 59.628465000000006 38.26131308 C 63.07372103 39.77372212 66.00218898 42.58247944 68.5861282 46.471530200000004" />
<path class="stroke" d="M 56.8722623 52.9532827 C 59.80072966 54.46569099999999 62.729195250000004 57.05839348 65.48539912999999 60.947444239999996" />
<path class="stroke" d="M 50.154013129999996 78.66423119999999 L 92.18612819999998 67.21313672" />
<path class="stroke" d="M 76.8547422 33.07591108 L 76.8547422 92.49196740000001" />
</svg>
