<?xml version="1.0" standalone="no"?>
<!DOCTYPE svg PUBLIC "-//W3C//DTD SVG 1.1//EN" "http://www.w3.org/Graphics/SVG/1.1/DTD/svg11.dtd">
<svg xmlns="http://www.w3.org/2000/svg" version="1.1" width="100%" height="100%">
<style type="text/css"><![CDATA[
  .stroke { fill:none; stroke:black; stroke-width:2 }
]]></style>
<path class="stroke" d="M 6.6671531 20.160000000000004 L 43.3328446 20.160000000000004" />
<path class="stroke" d="M 25.0 9.51386856 L 25.0 32.404377600000004" />
<path class="stroke" d="M 15.0089329032 34.813328193000004 L 15.0089329032 58.843457184" />
<path class="stroke" d="M 15.0089329032 34.813328193000004 L 34.8755606 34.813328193000004 L 34.8755606 58.843457184" />
<path class="stroke" d="M 15.124437422 46.173795003799995 L 34.760057268000004 46.173795003799995" />
<path class="stroke" d="M 15.0089329032 57.7945238024 L 34.8755606 57.7945238024" />
<path class="stroke" d="M 6.53284598 70.24060338999999 L 43.73576320000001 70.24060338999999" />
<path class="stroke" d="M 24.9647502 60.264164131 L 24.9647502 90.425832106" />
<path class="stroke" d="M 71.0846684 9.26715192 C 64.48028959999999 20.58394028 57.029196060000004 29.45985336 47.71532754 34.78539908" />
<path class="stroke" d="M 71.0846684 9.26715192 C 77.85839211999999 20.140143600000002 84.80145728 29.45985336 94.454011 34.563502639999996" />
<path class="stroke" d="M 51.53267352 43.75673243999999 L 68.24356392 43.75673243999999 L 68.24356392 88.369109115 C 68.24356392 90.29356354 67.20990126 91.16831689 65.6594064 91.16831689 L 63.59207876 91.16831689" />
<path class="stroke" d="M 48.77623744 54.603663378 C 52.738613 56.00326638199999 56.35643608 58.452573994999995 58.9405936 61.77663378" />
<path class="stroke" d="M 49.12079166 78.22197908999999 L 59.974258 69.124554263" />
<path class="stroke" d="M 77.54653655999999 43.75673243999999 L 93.5683162 43.75673243999999 L 93.5683162 87.844256516 C 93.5683162 89.76871152999999 92.70692919999999 90.99336622 90.8118836 90.99336622 L 89.0891096 90.99336622" />
<path class="stroke" d="M 75.82376314 54.078811368 C 79.6138642 55.30346488 82.54257419999999 57.752772492999995 84.954452 61.601683109999996" />
<path class="stroke" d="M 75.82376314 77.87207774999999 L 86.5049486 68.77465469" />
</svg>
