<?xml version="1.0" standalone="no"?>
<!DOCTYPE svg PUBLIC "-//W3C//DTD SVG 1.1//EN" "http://www.w3.org/Graphics/SVG/1.1/DTD/svg11.dtd">
<svg xmlns="http://www.w3.org/2000/svg" version="1.1" width="100%" height="100%">
<style type="text/css"><![CDATA[
  .stroke { fill:none; stroke:black; stroke-width:2 }
]]></style>
<path class="stroke" d="M 20.770715441176474 11.605839 C 17.979818382352942 27.372261 12.183339705882354 41.970802 7.245597794117647 50.14598" />
<path class="stroke" d="M 16.477026470588235 30.583939 L 16.477026470588235 90.43795" />
<path class="stroke" d="M 26.5 29.9124078 L 26.5 77.912406" />
<path class="stroke" d="M 42.47631 8.675077 L 81.56151 8.675077 L 81.56151 27.287058" />
<path class="stroke" d="M 36.293371 27.6025 L 94.14826599999999 27.6025" />
<path class="stroke" d="M 51.204379 38.113137825 C 50.7956189 42.6678825 47.9343066 47.9817495 45.686129199999996 50.0693428" />
<path class="stroke" d="M 49.364960999999994 45.70437895 L 82.47444999999999 45.70437895" />
<path class="stroke" d="M 42.0072988 61.4768246 L 87.37956 61.4768246" />
<path class="stroke" d="M 64.28467 46.27372175 L 64.28467 54.24452355 C 64.3189161 71.775669 45.0729915 86.127734 37.5109475 88.78466750000001" />
<path class="stroke" d="M 64.3189161 62.0783775 C 70.0072974 75.12043249999999 80.021895 84.040142 92.4890455 88.594887" />
</svg>
