<?xml version="1.0" standalone="no"?>
<!DOCTYPE svg PUBLIC "-//W3C//DTD SVG 1.1//EN" "http://www.w3.org/Graphics/SVG/1.1/DTD/svg11.dtd">
<svg xmlns="http://www.w3.org/2000/svg" version="1.1" width="100%" height="100%">
<style type="text/css"><![CDATA[
  .stroke { fill:none; stroke:black; stroke-width:2 }
]]></style>
<path class="stroke" d="M 27.956203 8.622261375 L 72.62773 8.622261375" />
<path class="stroke" d="M 13.065693 17.81934175 C 13.065693 22.673356125 12.773722 25.994523625 11.313868 29.5711675" />
<path class="stroke" d="M 13.357662 17.81934175 L 87.51824 17.81934175 C 87.22627 22.928829 86.35036 25.4835735 85.18248 28.038318875" />
<path class="stroke" d="M 50.165638 8.622261375 L 50.165638 40.556565" />
<path class="stroke" d="M 27.080292 23.950728375 C 31.45985 24.717151375 34.37956 25.994523625 37.299267 28.804741000000003" />
<path class="stroke" d="M 27.372261 32.892335 C 30.875912 33.403282499999996 33.79562 34.93613025 37.007298 38.512770625" />
<path class="stroke" d="M 60.9489 23.950728375 C 64.74452 24.461677625 67.9562 25.73905075 72.04379 28.549268125" />
<path class="stroke" d="M 60.9489 33.147808749999996 C 65.03649 33.658756249999996 68.540146 35.958026125 71.45985 38.512770625" />
<path class="stroke" d="M 16.3679284 46.1509435 L 45.660412 46.1509435 L 45.660412 60.160395" />
<path class="stroke" d="M 16.622641 60.1603895 L 45.660412 60.1603895" />
<path class="stroke" d="M 16.1132077 46.1509435 L 16.1132077 93.540885" />
<path class="stroke" d="M 16.3679284 72.094361 L 43.113205 72.094361" />
<path class="stroke" d="M 16.3679284 83.85531900000001 L 43.113205 83.85531900000001" />
<path class="stroke" d="M 57.122641 46.1509435 L 83.61320500000001 46.1509435 L 83.61320500000001 60.160340000000005" />
<path class="stroke" d="M 57.886795000000006 60.160351000000006 L 83.61320500000001 60.160351000000006" />
<path class="stroke" d="M 52.537798 71.92137500000001 L 83.35846000000001 71.92137500000001 C 79.367914 84.028305 62.896159000000004 91.11951 43.877359000000006 93.71386000000001" />
<path class="stroke" d="M 55.594333 72.094295 C 55.933966 81.433955 71.301853 91.119455 83.35846000000001 93.36791" />
</svg>
