<?xml version="1.0" standalone="no"?>
<!DOCTYPE svg PUBLIC "-//W3C//DTD SVG 1.1//EN" "http://www.w3.org/Graphics/SVG/1.1/DTD/svg11.dtd">
<svg xmlns="http://www.w3.org/2000/svg" version="1.1" width="100%" height="100%">
<style type="text/css"><![CDATA[
  .stroke { fill:none; stroke:black; stroke-width:2 }
]]></style>
<path class="stroke" d="M 27.956203 10.675180749999999 L 72.62773 10.675180749999999" />
<path class="stroke" d="M 13.065693 22.062042166666664 C 13.065693 28.07177425 12.773722 32.183695916666665 11.313868 36.61192166666666" />
<path class="stroke" d="M 13.357662 22.062042166666664 L 87.51824 22.062042166666664 C 87.22627 28.388074 86.35036 31.551090999999996 85.18248 34.714109083333334" />
<path class="stroke" d="M 50.165638 10.675180749999999 L 50.165638 50.21289" />
<path class="stroke" d="M 27.080292 29.65328275 C 31.45985 30.602187416666666 34.37956 32.183695916666665 37.299267 35.66301266666667" />
<path class="stroke" d="M 27.372261 40.72384333333333 C 30.875912 41.356444999999994 33.79562 43.2542565 37.007298 47.68247791666666" />
<path class="stroke" d="M 60.9489 29.65328275 C 64.74452 30.28588658333333 67.9562 31.867396166666666 72.04379 35.34671291666667" />
<path class="stroke" d="M 60.9489 41.040144166666664 C 65.03649 41.67274583333333 68.540146 44.51946091666667 71.45985 47.68247791666666" />
<path class="stroke" d="M 10.437956 61.35328446 L 88.978096 61.35328446" />
<path class="stroke" d="M 49.85401 61.4875902 L 49.85401 94.92992416" />
<path class="stroke" d="M 53.06569 69.0087581 C 61.240875 69.27737188 68.832115 71.15766282 72.62773 73.70948844" />
</svg>
