<?xml version="1.0" standalone="no"?>
<!DOCTYPE svg PUBLIC "-//W3C//DTD SVG 1.1//EN" "http://www.w3.org/Graphics/SVG/1.1/DTD/svg11.dtd">
<svg xmlns="http://www.w3.org/2000/svg" version="1.1" width="100%" height="100%">
<style type="text/css"><![CDATA[
  .stroke { fill:none; stroke:black; stroke-width:2 }
]]></style>
<path class="stroke" d="M 13.649633 9.562042 L 13.649633 90.14598" />
<path class="stroke" d="M 13.649633 9.562042 L 38.17518 9.562042 L 38.17518 38.46715" />
<path class="stroke" d="M 13.649633 22.408756 L 37.88321 22.408756" />
<path class="stroke" d="M 13.649633 36.131386 L 38.17518 36.131386" />
<path class="stroke" d="M 62.408752 9.854013 L 62.408752 38.46715" />
<path class="stroke" d="M 62.408752 9.854013 L 86.642334 9.854013 L 86.642334 85.47445 C 86.642334 88.39416 84.306564 90.14598 81.678825 89.85401" />
<path class="stroke" d="M 62.408752 22.408756 L 86.642334 22.408756" />
<path class="stroke" d="M 62.408752 36.131386 L 86.642334 36.131386" />
<path class="stroke" d="M 50.594887 41.275531647600005 C 43.193428000000004 51.2194148934 34.84306455 59.0185395708 24.40510845 63.6980125074" />
<path class="stroke" d="M 50.594887 41.275531647600005 C 58.1861291 50.829457758000004 65.96715040000001 59.0185395708 76.78466750000001 63.5030356092" />
<path class="stroke" d="M 41.037517828000006 60.09 L 59.962480299999996 60.09" />
<path class="stroke" d="M 38.14525513 69.9754813575 L 38.14525513 88.722809205" />
<path class="stroke" d="M 38.14525513 69.9754813575 L 62.968612 69.9754813575 L 62.968612 88.54254692699999" />
<path class="stroke" d="M 38.14525513 87.28070665919999 L 62.968612 87.28070665919999" />
</svg>
