<?xml version="1.0" standalone="no"?>
<!DOCTYPE svg PUBLIC "-//W3C//DTD SVG 1.1//EN" "http://www.w3.org/Graphics/SVG/1.1/DTD/svg11.dtd">
<svg xmlns="http://www.w3.org/2000/svg" version="1.1" width="100%" height="100%">
<style type="text/css"><![CDATA[
  .stroke { fill:none; stroke:black; stroke-width:2 }
]]></style>
<path class="stroke" d="M 13.649633 9.562042 L 13.649633 90.14598" />
<path class="stroke" d="M 13.649633 9.562042 L 38.17518 9.562042 L 38.17518 38.46715" />
<path class="stroke" d="M 13.649633 22.408756 L 37.88321 22.408756" />
<path class="stroke" d="M 13.649633 36.131386 L 38.17518 36.131386" />
<path class="stroke" d="M 62.408752 9.854013 L 62.408752 38.46715" />
<path class="stroke" d="M 62.408752 9.854013 L 86.642334 9.854013 L 86.642334 85.47445 C 86.642334 88.39416 84.306564 90.14598 81.678825 89.85401" />
<path class="stroke" d="M 62.408752 22.408756 L 86.642334 22.408756" />
<path class="stroke" d="M 62.408752 36.131386 L 86.642334 36.131386" />
<path class="stroke" d="M 28.55555648 65.89166792 C 28.20000128 70.2 27.177742719999998 73.60023145 24.82222272 76.46666791999999" />
<path class="stroke" d="M 38.33333504 53.61944575 L 38.259609600000005 84.03313399999999 C 38.259609600000005 85.367511 39.4710016 86.25708 41.2880256 86.25708 L 63.0924416 86.25708 C 64.7748736 86.25708 66.2554496 85.21922599999999 66.3227136 83.588326 L 66.3227136 81.06781000000001" />
<path class="stroke" d="M 48.46666752 49.05000094 C 53.266668800000005 51.00833396 54.7360192 52.41481977 56.8222272 55.5777783" />
<path class="stroke" d="M 67.13333504 67.06666792 C 71.3730752 69.83421451 73.575424 72.26959987999999 76.2000064 76.0750047" />
</svg>
