<?xml version="1.0" standalone="no"?>
<!DOCTYPE svg PUBLIC "-//W3C//DTD SVG 1.1//EN" "http://www.w3.org/Graphics/SVG/1.1/DTD/svg11.dtd">
<svg xmlns="http://www.w3.org/2000/svg" version="1.1" width="100%" height="100%">
<style type="text/css"><![CDATA[
  .stroke { fill:none; stroke:black; stroke-width:2 }
]]></style>
<path class="stroke" d="M 27.68456 5.5205 C 22.073664 17.8233 15.301820000000001 30.7571 6.4984228 40.5363" />
<path class="stroke" d="M 27.68456 5.83596 C 33.295456 11.8296 37.165068000000005 18.4543 41.324940000000005 25.0789" />
<path class="stroke" d="M 13.173492 33.59624 L 39.003136 33.59624" />
<path class="stroke" d="M 8.239748200000001 51.57724 L 42.48578404 51.57724" />
<path class="stroke" d="M 27.104079560000002 33.9117 L 27.104079560000002 88.1703" />
<path class="stroke" d="M 7.9495296 61.672 C 11.915852000000001 65.878 15.011560000000001 70.3996 18.107268 75.2366" />
<path class="stroke" d="M 41.6152 61.6719 C 39.486872000000005 67.4553 36.487856 72.2923 32.618244000000004 77.1294" />
<path class="stroke" d="M 9.400627199999999 94.4795 L 41.324940000000005 83.7539" />
<path class="stroke" d="M 49.27777823 25.277779 L 96.0277845 25.277779" />
<path class="stroke" d="M 57.68055635 33.611115 C 57.3750022 42.777782 56.15277845 47.77778 52.18055635 53.888893" />
<path class="stroke" d="M 57.06944585 46.388893 C 60.5833348 48.333336 61.65277845 50.000004 62.8750022 52.777782" />
<path class="stroke" d="M 86.25000550000001 33.333336 C 86.0972265 44.166668 85.180558 48.888893 81.8194475 54.44445" />
<path class="stroke" d="M 86.40277900000001 46.388893 C 88.6944475 48.888893 90.375 51.11111 91.90277900000001 55.833336" />
<path class="stroke" d="M 72.5000022 7.2222233 C 72.32722465 66.335075 59.54188395 80.78534 51.26388895 92.50001" />
<path class="stroke" d="M 72.19444585 26.944447 C 71.8088997 66.02094 87.35863499999999 83.29842 93.73611325 92.22223" />
</svg>
