<?xml version="1.0" standalone="no"?>
<!DOCTYPE svg PUBLIC "-//W3C//DTD SVG 1.1//EN" "http://www.w3.org/Graphics/SVG/1.1/DTD/svg11.dtd">
<svg xmlns="http://www.w3.org/2000/svg" version="1.1" width="100%" height="100%">
<style type="text/css"><![CDATA[
  .stroke { fill:none; stroke:black; stroke-width:2 }
]]></style>
<path class="stroke" d="M 26.89276 5.41009 C 21.891744 17.466834 15.85597 30.141958 8.009463799999999 39.725573999999995" />
<path class="stroke" d="M 26.89276 5.7192408 C 31.893776000000003 11.593008 35.342777999999996 18.085214 39.050489999999996 24.577322" />
<path class="stroke" d="M 13.958981999999999 32.9243152 L 36.981055999999995 32.9243152" />
<path class="stroke" d="M 9.5615147 50.545695200000004 L 40.08515534 50.545695200000004" />
<path class="stroke" d="M 26.37537526 33.233466 L 26.37537526 86.406894" />
<path class="stroke" d="M 9.3028416 60.438559999999995 C 12.838042 64.56044 15.59726 68.991608 18.356478 73.73186799999999" />
<path class="stroke" d="M 39.3092 60.438462 C 37.412212 66.10619399999999 34.739176 70.846454 31.290174 75.58681200000001" />
<path class="stroke" d="M 10.596211199999999 92.58991 L 39.050489999999996 82.078822" />
<path class="stroke" d="M 86.5536457 8.244475 C 72.7881147 13.239195 63.2024287 14.338059999999999 53.2823127 14.238215" />
<path class="stroke" d="M 46.09306092 25.626140499999998 L 93.5757323 25.626140499999998" />
<path class="stroke" d="M 54.954256 37.0142503 L 54.954256 68.1813715" />
<path class="stroke" d="M 54.954256 37.0142503 L 84.71450012 37.0142503 L 84.71450012 68.1813715" />
<path class="stroke" d="M 55.28866321 52.597818499999995 L 84.71452980000001 52.597818499999995" />
<path class="stroke" d="M 54.954256 68.1813715 L 84.71450012 68.1813715" />
<path class="stroke" d="M 69.8344088 13.33917585 L 69.8344088 92.455838" />
<path class="stroke" d="M 49.93848705 80.1687945 L 89.3958714 80.1687945" />
<path class="stroke" d="M 45.92586765 92.75552499999999 L 93.4085173 92.75552499999999" />
</svg>
