<?xml version="1.0" standalone="no"?>
<!DOCTYPE svg PUBLIC "-//W3C//DTD SVG 1.1//EN" "http://www.w3.org/Graphics/SVG/1.1/DTD/svg11.dtd">
<svg xmlns="http://www.w3.org/2000/svg" version="1.1" width="100%" height="100%">
<style type="text/css"><![CDATA[
  .stroke { fill:none; stroke:black; stroke-width:2 }
]]></style>
<path class="stroke" d="M 28.1262 5.5205 C 22.63728 17.8233 16.01265 30.7571 7.400631000000001 40.5363" />
<path class="stroke" d="M 28.1262 5.83596 C 33.615120000000005 11.8296 37.40061 18.4543 41.47005 25.0789" />
<path class="stroke" d="M 13.93059 33.59624 L 39.19872 33.59624" />
<path class="stroke" d="M 9.104101499999999 51.57724 L 42.6056583 51.57724" />
<path class="stroke" d="M 27.5583387 33.9117 L 27.5583387 88.1703" />
<path class="stroke" d="M 8.820191999999999 61.672 C 12.70029 65.878 15.728700000000002 70.3996 18.757109999999997 75.2366" />
<path class="stroke" d="M 41.754000000000005 61.6719 C 39.67194 67.4553 36.73812 72.2923 32.95263 77.1294" />
<path class="stroke" d="M 10.239744 94.4795 L 41.47005 83.7539" />
<path class="stroke" d="M 56.040144500000004 15.864263617021276 L 88.7992665 15.864263617021276" />
<path class="stroke" d="M 72.58028900000001 9.15514659574468 L 72.58028900000001 39.06662265957447" />
<path class="stroke" d="M 57.4854015 27.32567170212766 L 87.514593 27.32567170212766" />
<path class="stroke" d="M 50.58029175 39.06662265957447 L 94.580289 39.06662265957447" />
<path class="stroke" d="M 62.7846713 49.51824728 L 62.755034 75.1570504 C 62.3062835 86.42512959999999 63.058837499999996 87.95052480000001 58.85078585 93.8136128" />
<path class="stroke" d="M 62.7846713 49.51824728 L 85.266424 49.51824728 L 85.266424 92.19269840000001 C 85.266424 93.5007296 84.62408450000001 94.645252 83.0182462 94.645252 L 81.2518255 94.645252" />
<path class="stroke" d="M 62.7846713 61.843043120000004 L 85.266424 61.843043120000004" />
<path class="stroke" d="M 62.7846713 74.86178816 L 85.266424 74.86178816" />
</svg>
