<?xml version="1.0" standalone="no"?>
<!DOCTYPE svg PUBLIC "-//W3C//DTD SVG 1.1//EN" "http://www.w3.org/Graphics/SVG/1.1/DTD/svg11.dtd">
<svg xmlns="http://www.w3.org/2000/svg" version="1.1" width="100%" height="100%">
<style type="text/css"><![CDATA[
  .stroke { fill:none; stroke:black; stroke-width:2 }
]]></style>
<path class="stroke" d="M 20.7344878125 9.562042 C 24.019160625 11.021896 27.30382875 14.817516 29.493609375 19.48905" />
<path class="stroke" d="M 9.2381371875 22.8707 L 39.89506875 22.8707" />
<path class="stroke" d="M 15.260034375000002 37.007298 L 33.873174375 37.007298" />
<path class="stroke" d="M 15.260034375000002 51.313866 L 33.873174375 51.313866" />
<path class="stroke" d="M 14.165145 64.45255 L 14.165145 85.76642" />
<path class="stroke" d="M 14.165145 64.16058 L 35.515509375 64.16058 L 35.515509375 85.76642" />
<path class="stroke" d="M 14.165145 85.76642 L 35.2417875 85.76642" />
<path class="stroke" d="M 54.040144500000004 15.864263617021276 L 86.7992665 15.864263617021276" />
<path class="stroke" d="M 70.58028900000001 9.15514659574468 L 70.58028900000001 39.06662265957447" />
<path class="stroke" d="M 55.4854015 27.32567170212766 L 85.514593 27.32567170212766" />
<path class="stroke" d="M 48.58029175 39.06662265957447 L 92.580289 39.06662265957447" />
<path class="stroke" d="M 60.7846713 49.51824728 L 60.755034 75.1570504 C 60.3062835 86.42512959999999 61.058837499999996 87.95052480000001 56.85078585 93.8136128" />
<path class="stroke" d="M 60.7846713 49.51824728 L 83.266424 49.51824728 L 83.266424 92.19269840000001 C 83.266424 93.5007296 82.62408450000001 94.645252 81.0182462 94.645252 L 79.2518255 94.645252" />
<path class="stroke" d="M 60.7846713 61.843043120000004 L 83.266424 61.843043120000004" />
<path class="stroke" d="M 60.7846713 74.86178816 L 83.266424 74.86178816" />
</svg>
