<?xml version="1.0" standalone="no"?>
<!DOCTYPE svg PUBLIC "-//W3C//DTD SVG 1.1//EN" "http://www.w3.org/Graphics/SVG/1.1/DTD/svg11.dtd">
<svg xmlns="http://www.w3.org/2000/svg" version="1.1" width="100%" height="100%">
<style type="text/css"><![CDATA[
  .stroke { fill:none; stroke:black; stroke-width:2 }
]]></style>
<path class="stroke" d="M 27.00948 12.582015 C 21.764512 22.793339 15.43431 33.528393 7.2050474 41.645129" />
<path class="stroke" d="M 27.00948 12.8438468 C 32.254448000000004 17.818568 35.871694000000005 23.317069 39.76027 28.815487" />
<path class="stroke" d="M 13.444785999999999 35.8848792 L 37.589887999999995 35.8848792" />
<path class="stroke" d="M 8.8328081 50.8091092 L 40.84540682 50.8091092" />
<path class="stroke" d="M 26.46685698 36.146710999999996 L 26.46685698 81.181349" />
<path class="stroke" d="M 8.5615168 59.18776 C 12.269166 62.67874 15.162980000000001 66.431668 18.056794 70.446378" />
<path class="stroke" d="M 40.031600000000005 59.187677 C 38.042076 63.98789899999999 35.238648000000005 68.00260899999999 31.621402000000003 72.017402" />
<path class="stroke" d="M 9.9179776 86.417985 L 39.76027 77.515737" />
<path class="stroke" d="M 51.80366482 14.972971 L 91.19633289999999 14.972971" />
<path class="stroke" d="M 73.91313717999999 15.401459 L 73.91313717999999 84.8905" />
<path class="stroke" d="M 74.07955951 46.934303 L 86.72773468 46.934303" />
<path class="stroke" d="M 59.93357539 51.021896 L 59.93357539 85.18248" />
<path class="stroke" d="M 48.783211449999996 85.47445 L 94.5496315 85.47445" />
</svg>
