<?xml version="1.0" standalone="no"?>
<!DOCTYPE svg PUBLIC "-//W3C//DTD SVG 1.1//EN" "http://www.w3.org/Graphics/SVG/1.1/DTD/svg11.dtd">
<svg xmlns="http://www.w3.org/2000/svg" version="1.1" width="100%" height="100%">
<style type="text/css"><![CDATA[
  .stroke { fill:none; stroke:black; stroke-width:2 }
]]></style>
<path class="stroke" d="M 28.00948 5.29968 C 22.764512 17.110367999999998 16.43431 29.526816 8.2050474 38.914848" />
<path class="stroke" d="M 28.00948 5.6025216 C 33.254448000000004 11.356416 36.871694000000005 17.716127999999998 40.76027 24.075744" />
<path class="stroke" d="M 14.444785999999999 32.2523904 L 38.589887999999995 32.2523904" />
<path class="stroke" d="M 9.8328081 49.5141504 L 41.84540682 49.5141504" />
<path class="stroke" d="M 27.46685698 32.555232000000004 L 27.46685698 84.64348799999999" />
<path class="stroke" d="M 9.5615168 59.205119999999994 C 13.269166 63.24288 16.16298 67.583616 19.056794 72.22713599999999" />
<path class="stroke" d="M 41.031600000000005 59.205024 C 39.042076 64.757088 36.238648000000005 69.40060799999999 32.621402 74.044224" />
<path class="stroke" d="M 10.9179776 90.70032 L 40.76027 80.403744" />
<path class="stroke" d="M 48.56204344 17.445253 C 50.93284622 18.029196 53.303649 20.364962 54.99707848 24.160583" />
<path class="stroke" d="M 47.376642340000004 47.226276 C 49.74744396 47.226276 52.62627686 46.934303 55.8437938 43.138683 C 51.4408746 53.357662 50.25547408 58.321167 50.76350304 60.9489 C 51.1021894 63.284668 54.150364319999994 65.62044 54.82773646 68.832115 C 55.67445178 72.33576 52.51496268 80.26506 48.39269968 83.722626" />
<path class="stroke" d="M 48.39269968 84.014595 C 65.02189591999999 81.65476 65.496351 91.313866 94.454011 90.14598" />
<path class="stroke" d="M 76.2706775 8.252376 C 75.17166218 11.558364000000001 72.76627574 14.712936 70.17426907999999 16.01262" />
<path class="stroke" d="M 62.752849209999994 16.763440000000003 L 62.752849209999994 74.07920800000001" />
<path class="stroke" d="M 62.752849209999994 16.763440000000003 L 86.70298641 16.763440000000003 L 86.70298641 37.962160000000004" />
<path class="stroke" d="M 62.90834140999999 37.962160000000004 L 86.70298641 37.962160000000004" />
<path class="stroke" d="M 62.752849209999994 53.8612 L 88.38277347799999 53.8612 L 88.38277347799999 74.07920800000001" />
<path class="stroke" d="M 62.756533892 74.07920800000001 L 88.38277347799999 74.07920800000001" />
</svg>
