<?xml version="1.0" standalone="no"?>
<!DOCTYPE svg PUBLIC "-//W3C//DTD SVG 1.1//EN" "http://www.w3.org/Graphics/SVG/1.1/DTD/svg11.dtd">
<svg xmlns="http://www.w3.org/2000/svg" version="1.1" width="100%" height="100%">
<style type="text/css"><![CDATA[
  .stroke { fill:none; stroke:black; stroke-width:2 }
]]></style>
<path class="stroke" d="M 27.00948 5.5205 C 21.764512 17.8233 15.43431 30.7571 7.2050474 40.5363" />
<path class="stroke" d="M 27.00948 5.83596 C 32.254448000000004 11.8296 35.871694000000005 18.4543 39.76027 25.0789" />
<path class="stroke" d="M 13.444785999999999 33.59624 L 37.589887999999995 33.59624" />
<path class="stroke" d="M 8.8328081 51.57724 L 40.84540682 51.57724" />
<path class="stroke" d="M 26.46685698 33.9117 L 26.46685698 88.1703" />
<path class="stroke" d="M 8.5615168 61.672 C 12.269166 65.878 15.162980000000001 70.3996 18.056794 75.2366" />
<path class="stroke" d="M 40.031600000000005 61.6719 C 38.042076 67.4553 35.238648000000005 72.2923 31.621402000000003 77.1294" />
<path class="stroke" d="M 9.9179776 94.4795 L 39.76027 83.7539" />
<path class="stroke" d="M 69.86350199 6.545254379999999 C 66.30437815 12.9832115 60.26934235 19.70729775 54.07956086 23.999268999999998" />
<path class="stroke" d="M 68.00656749000001 10.26496296 L 81.77883320000001 10.26496296 C 76.2080297 21.996348429999998 64.29269955000001 35.5875877 52.37737205 43.0270029" />
<path class="stroke" d="M 62.126277380000005 17.27518226 C 68.2 27.661290859999998 80.69561761 37.44744395 93.8489048 43.0270029" />
<path class="stroke" d="M 57.4495224 51.16403012 L 89.21607940000001 51.16403012" />
<path class="stroke" d="M 53.9385162 67.11607616 L 92.55993420000001 67.11607616" />
<path class="stroke" d="M 51.9321853 83.62462892 L 94.90061030000001 83.62462892" />
<path class="stroke" d="M 73.50000795 43.558992176 L 73.50000795 94.75397304799999" />
</svg>
