<?xml version="1.0" standalone="no"?>
<!DOCTYPE svg PUBLIC "-//W3C//DTD SVG 1.1//EN" "http://www.w3.org/Graphics/SVG/1.1/DTD/svg11.dtd">
<svg xmlns="http://www.w3.org/2000/svg" version="1.1" width="100%" height="100%">
<style type="text/css"><![CDATA[
  .stroke { fill:none; stroke:black; stroke-width:2 }
]]></style>
<path class="stroke" d="M 24.334400000000002 5.354885 C 19.45536 17.288601 13.5668 29.834387 5.911672 39.32021099999999" />
<path class="stroke" d="M 24.334400000000002 5.6608811999999995 C 29.213440000000006 11.474711999999998 32.578320000000005 17.900671 36.195600000000006 24.326533" />
<path class="stroke" d="M 11.71608 32.5883528 L 34.17664 32.5883528" />
<path class="stroke" d="M 7.425868 50.0299228 L 37.2050296 50.0299228" />
<path class="stroke" d="M 23.829634400000003 32.894349000000005 L 23.829634400000003 85.52519099999999" />
<path class="stroke" d="M 7.173504 59.821839999999995 C 10.622480000000001 63.90166 13.314400000000001 68.28761200000001 16.006320000000002 72.979502" />
<path class="stroke" d="M 36.448 59.821743 C 34.597280000000005 65.431641 31.989440000000002 70.123531 28.624560000000002 74.815518" />
<path class="stroke" d="M 8.435328 91.645115 L 36.195600000000006 81.241283" />
<path class="stroke" d="M 48.2226274 17.445253 C 50.47080245 18.029196 52.7189775 20.364962 54.3248158 24.160583" />
<path class="stroke" d="M 47.09854015 47.226276 C 49.3467141 47.226276 52.07664185 46.934303 55.1277355 43.138683 C 50.9525535 53.357662 49.8284668 58.321167 50.310218400000004 60.9489 C 50.6313865 63.284668 53.5218972 65.62044 54.16423285 68.832115 C 54.96715255 72.33576 51.9710853 80.26506 48.0620428 83.722626" />
<path class="stroke" d="M 48.0620428 84.014595 C 63.8311082 81.65476 64.2810225 91.313866 91.7408725 90.14598" />
<path class="stroke" d="M 64.013030875 10.2176838 L 64.013030875 20.8233178" />
<path class="stroke" d="M 64.013030875 10.2176838 L 88.997207125 10.2176838 L 88.997207125 20.8233178" />
<path class="stroke" d="M 64.013030875 20.8233178 L 88.997207125 20.8233178" />
<path class="stroke" d="M 76.6352359375 4.52681 L 76.6352359375 29.359607999999998" />
<path class="stroke" d="M 58.9380908125 29.618318 L 94.07216327500001 29.618318" />
<path class="stroke" d="M 65.834787625 38.5361419 L 65.834787625 76.72277233" />
<path class="stroke" d="M 65.834787625 38.5361419 L 85.87420262500001 38.5361419 L 85.87420262500001 52.6597891" />
<path class="stroke" d="M 65.964890125 52.6597891 L 85.87420262500001 52.6597891" />
<path class="stroke" d="M 65.834787625 63.2525245 L 87.279703975 63.2525245 L 87.279703975 76.72277233" />
<path class="stroke" d="M 65.83787065 76.72277233 L 87.279703975 76.72277233" />
</svg>
