<?xml version="1.0" standalone="no"?>
<!DOCTYPE svg PUBLIC "-//W3C//DTD SVG 1.1//EN" "http://www.w3.org/Graphics/SVG/1.1/DTD/svg11.dtd">
<svg xmlns="http://www.w3.org/2000/svg" version="1.1" width="100%" height="100%">
<style type="text/css"><![CDATA[
  .stroke { fill:none; stroke:black; stroke-width:2 }
]]></style>
<path class="stroke" d="M 31.47636 8.134065 C 25.255584 19.575669 17.74767 31.604103000000002 7.9873818000000005 40.698759" />
<path class="stroke" d="M 31.47636 8.427442800000001 C 37.69713600000001 14.001528 41.987358 20.162499 46.59939 26.323377" />
<path class="stroke" d="M 15.388002 34.244503200000004 L 44.025216 34.244503200000004" />
<path class="stroke" d="M 9.917981699999999 50.9668332 L 47.886412740000004 50.9668332" />
<path class="stroke" d="M 30.832783860000003 34.537881000000006 L 30.832783860000003 84.998379" />
<path class="stroke" d="M 9.5962176 60.35496 C 13.993662 64.26654 17.42586 68.47162800000001 20.858058 72.970038" />
<path class="stroke" d="M 46.921200000000006 60.354867000000006 C 44.561532 65.733429 41.236536 70.23183900000001 36.946314 74.73034200000001" />
<path class="stroke" d="M 11.2050432 90.86593500000001 L 46.59939 80.89112700000001" />
<path class="stroke" d="M 48.69051074 16.528467159999998 L 93.46715090000001 16.528467159999998" />
<path class="stroke" d="M 71.0788292 17.3343062 L 71.0788292 87.71094728000001 C 71.0788292 89.3226272 70.2905102 91.47152640000002 69.18686036 91.47152640000002 L 66.19123898000001 91.47152640000002" />
</svg>
