<?xml version="1.0" standalone="no"?>
<!DOCTYPE svg PUBLIC "-//W3C//DTD SVG 1.1//EN" "http://www.w3.org/Graphics/SVG/1.1/DTD/svg11.dtd">
<svg xmlns="http://www.w3.org/2000/svg" version="1.1" width="100%" height="100%">
<style type="text/css"><![CDATA[
  .stroke { fill:none; stroke:black; stroke-width:2 }
]]></style>
<path class="stroke" d="M 25.21768 8.802835 C 20.582591999999998 19.506270999999998 14.98846 30.758677000000002 7.7160884 39.266580999999995" />
<path class="stroke" d="M 25.21768 9.0772852 C 29.852768000000005 14.291751999999999 33.049404 20.055241 36.485820000000004 25.818643" />
<path class="stroke" d="M 13.230276 33.2287288 L 34.567808 33.2287288" />
<path class="stroke" d="M 9.1545746 48.8721988 L 37.44477812 48.8721988" />
<path class="stroke" d="M 24.738152680000002 33.503179 L 24.738152680000002 80.708161" />
<path class="stroke" d="M 8.914828799999999 57.65464 C 12.191356 61.31386 14.74868 65.247652 17.306004 69.45584199999999" />
<path class="stroke" d="M 36.7256 57.654553 C 34.967416 62.686111 32.489968000000005 66.894301 29.293332000000003 71.10257800000001" />
<path class="stroke" d="M 10.1135616 86.197165 L 36.485820000000004 76.865893" />
<path class="stroke" d="M 49.070071819999995 17.262773 L 92.92992179999999 17.262773" />
<path class="stroke" d="M 62.10948739999999 9.2335749 L 62.10948739999999 25.9343051" />
<path class="stroke" d="M 79.8905068 9.2335749 L 79.8905068 25.9343051" />
<path class="stroke" d="M 50.805839096 39.008757779999996 L 50.805839096 87.5693382" />
<path class="stroke" d="M 50.805839096 38.81605692 L 91.34656611199999 38.81605692 L 91.34656611199999 87.5693382" />
<path class="stroke" d="M 71.07620156 39.008757779999996 L 71.07620156 84.100728" />
<path class="stroke" d="M 50.805839096 61.44540828 L 91.04175151999999 61.44540828" />
<path class="stroke" d="M 50.805839096 84.100728 L 91.34656611199999 84.100728" />
</svg>
