<?xml version="1.0" standalone="no"?>
<!DOCTYPE svg PUBLIC "-//W3C//DTD SVG 1.1//EN" "http://www.w3.org/Graphics/SVG/1.1/DTD/svg11.dtd">
<svg xmlns="http://www.w3.org/2000/svg" version="1.1" width="100%" height="100%">
<style type="text/css"><![CDATA[
  .stroke { fill:none; stroke:black; stroke-width:2 }
]]></style>
<path class="stroke" d="M 26.89276 7.2444749999999996 C 21.891744 18.932135 15.85597 31.219245 8.009463799999999 40.509485" />
<path class="stroke" d="M 26.89276 7.544162 C 31.893776000000003 13.238119999999999 35.342777999999996 19.531585 39.050489999999996 25.824955" />
<path class="stroke" d="M 13.958981999999999 33.916427999999996 L 36.981055999999995 33.916427999999996" />
<path class="stroke" d="M 9.5615147 50.998378 L 40.08515534 50.998378" />
<path class="stroke" d="M 26.37537526 34.216115 L 26.37537526 85.76178499999999" />
<path class="stroke" d="M 9.3028416 60.58839999999999 C 12.838042 64.5841 15.59726 68.87962 18.356478 73.47476999999999" />
<path class="stroke" d="M 39.3092 60.588305 C 37.412212 66.082535 34.739176 70.677685 31.290174 75.27293" />
<path class="stroke" d="M 10.596211199999999 91.75552499999999 L 39.050489999999996 81.566205" />
<path class="stroke" d="M 50.4112096128 6.7616784249999995 L 50.4112096128 42.4463464" />
<path class="stroke" d="M 50.4112096128 6.7616784249999995 L 79.6587424 6.7616784249999995 L 79.6587424 42.4463464" />
<path class="stroke" d="M 50.581254688 23.631936855 L 79.488699072 23.631936855" />
<path class="stroke" d="M 50.4112096128 40.888683539999995 L 79.6587424 40.888683539999995" />
<path class="stroke" d="M 58.3232 42.77070756829 C 57.957879756800004 48.5246430731 55.948626585599996 59.661291458799994 47.911610859519996 65.9720590109" />
<path class="stroke" d="M 57.287240345600004 51.424867752599994 C 74.3887858176 51.424867752599994 79.6507994624 51.424867752599994 94.450215936 51.424867752599994 C 93.95690060800001 74.98524719349999 89.352642048 83.3399922078 84.74837504 88.68702773499999 C 82.6106841088 90.69216434079999 80.637431808 91.193449923 78.49973524480001 91.36054435399998" />
<path class="stroke" d="M 69.12677273599999 51.424867752599994 C 67.646829568 65.46083715609998 59.424933529600004 75.9878154964 50.380846592 81.836138895" />
<path class="stroke" d="M 80.47298867200001 51.424867752599994 C 78.99305113599999 68.468544354 71.75777843200001 81.33484987899999 64.19363353600001 86.5147915475" />
</svg>
