<?xml version="1.0" standalone="no"?>
<!DOCTYPE svg PUBLIC "-//W3C//DTD SVG 1.1//EN" "http://www.w3.org/Graphics/SVG/1.1/DTD/svg11.dtd">
<svg xmlns="http://www.w3.org/2000/svg" version="1.1" width="100%" height="100%">
<style type="text/css"><![CDATA[
  .stroke { fill:none; stroke:black; stroke-width:2 }
]]></style>
<path class="stroke" d="M 27.68456 5.5205 C 22.073664 17.8233 15.301820000000001 30.7571 6.4984228 40.5363" />
<path class="stroke" d="M 27.68456 5.83596 C 33.295456 11.8296 37.165068000000005 18.4543 41.324940000000005 25.0789" />
<path class="stroke" d="M 13.173492 33.59624 L 39.003136 33.59624" />
<path class="stroke" d="M 8.239748200000001 51.57724 L 42.48578404 51.57724" />
<path class="stroke" d="M 27.104079560000002 33.9117 L 27.104079560000002 88.1703" />
<path class="stroke" d="M 7.9495296 61.672 C 11.915852000000001 65.878 15.011560000000001 70.3996 18.107268 75.2366" />
<path class="stroke" d="M 41.6152 61.6719 C 39.486872000000005 67.4553 36.487856 72.2923 32.618244000000004 77.1294" />
<path class="stroke" d="M 9.400627199999999 94.4795 L 41.324940000000005 83.7539" />
<path class="stroke" d="M 88.68151138 5.601884999999999 C 78.31524032 11.61195 68.15339026000001 13.121775 57.90917979 12.9633" />
<path class="stroke" d="M 57.90917979 12.964500000000001 L 57.90917979 67.573725" />
<path class="stroke" d="M 58.076372 32.6778 L 89.209102 32.6778" />
<path class="stroke" d="M 77.23522539999999 32.914392750000005 L 77.23522539999999 67.45744499999999" />
<path class="stroke" d="M 49.09621365 68.0205345 L 94.4053863 68.0205345" />
<path class="stroke" d="M 61.802855 76.183 C 60.242376 85.121 56.675635 89.958 52.607249 92.5868" />
<path class="stroke" d="M 79.859637 76.1829 C 81.97735800000001 85.0157 84.93110100000001 89.4321 89.05519000000001 92.5867" />
</svg>
