<?xml version="1.0" standalone="no"?>
<!DOCTYPE svg PUBLIC "-//W3C//DTD SVG 1.1//EN" "http://www.w3.org/Graphics/SVG/1.1/DTD/svg11.dtd">
<svg xmlns="http://www.w3.org/2000/svg" version="1.1" width="100%" height="100%">
<style type="text/css"><![CDATA[
  .stroke { fill:none; stroke:black; stroke-width:2 }
]]></style>
<path class="stroke" d="M 25.21768 10.858039999999999 C 20.582591999999998 21.684504 14.98846 33.066248 7.7160884 41.671943999999996" />
<path class="stroke" d="M 25.21768 11.1356448 C 29.852768000000005 16.410048 33.049404 22.239784 36.485820000000004 28.069432000000003" />
<path class="stroke" d="M 13.230276 35.5646912 L 34.567808 35.5646912" />
<path class="stroke" d="M 9.1545746 51.3879712 L 37.44477812 51.3879712" />
<path class="stroke" d="M 24.738152680000002 35.842296000000005 L 24.738152680000002 83.58986399999999" />
<path class="stroke" d="M 8.914828799999999 60.271359999999994 C 12.191356 63.97264 14.74868 67.951648 17.306004 72.208208" />
<path class="stroke" d="M 36.7256 60.271272 C 34.967416 65.36066399999999 32.489968000000005 69.617224 29.293332000000003 73.873872" />
<path class="stroke" d="M 10.1135616 89.14196 L 36.485820000000004 79.703432" />
<path class="stroke" d="M 59.3856326968 10.729925 C 54.521401168 15.109488 48.684320268 18.029196 43.4309484576 19.781021" />
<path class="stroke" d="M 39.3449914944 41.094887 L 62.109604672 37.299267" />
<path class="stroke" d="M 51.992000000000004 16.569342 L 51.992000000000004 86.642334" />
<path class="stroke" d="M 51.992000000000004 44.890507 C 47.5169054208 57.153282 43.82008674 65.03649 38.761284404 68.540146" />
<path class="stroke" d="M 51.992000000000004 44.890507 C 56.0779556304 48.394157 58.412785991199996 51.313866 60.35847873600001 56.277367" />
<path class="stroke" d="M 71.560691024 33.169632039999996 C 71.1078318456 38.032458180000006 69.74925683320001 42.08481602 68.051036536 46.40732738" />
<path class="stroke" d="M 90.182533796 33.48869548 C 89.05001427760001 38.82189518 87.682071388 42.337225159999996 86.10367796400001 45.35036158" />
<path class="stroke" d="M 78.12524728 16.474451180000003 C 78.20103940000001 24.90264296 78.16312532 31.714272960000002 78.12524728 42.24156478 C 78.23679108000002 65.4309376 69.37747432 85.055656 64.0061599368 85.776637" />
<path class="stroke" d="M 78.15180227280001 45.124751759999995 C 79.3375608 62.3244542 87.31696096 81.2336526 90.838860038 84.7722559 C 91.680669744 85.776637 92.312029276 86.0277312 93.25906316800001 86.278834" />
</svg>
