<?xml version="1.0" standalone="no"?>
<!DOCTYPE svg PUBLIC "-//W3C//DTD SVG 1.1//EN" "http://www.w3.org/Graphics/SVG/1.1/DTD/svg11.dtd">
<svg xmlns="http://www.w3.org/2000/svg" version="1.1" width="100%" height="100%">
<style type="text/css"><![CDATA[
  .stroke { fill:none; stroke:black; stroke-width:2 }
]]></style>
<path class="stroke" d="M 27.45112 8.134065 C 22.328128 19.575669 16.145139999999998 31.604103000000002 8.1072556 40.698759" />
<path class="stroke" d="M 27.45112 8.427442800000001 C 32.574112 14.001528 36.107236 20.162499 39.90538 26.323377" />
<path class="stroke" d="M 14.201884 34.244503200000004 L 37.785472 34.244503200000004" />
<path class="stroke" d="M 9.697161399999999 50.9668332 L 40.96528108 50.9668332" />
<path class="stroke" d="M 26.92111612 34.537881000000006 L 26.92111612 84.998379" />
<path class="stroke" d="M 9.4321792 60.35496 C 13.053604 64.26654 15.88012 68.47162800000001 18.706636 72.970038" />
<path class="stroke" d="M 40.1704 60.354867000000006 C 38.227144 65.733429 35.488912 70.23183900000001 31.955788000000002 74.73034200000001" />
<path class="stroke" d="M 10.7570944 90.86593500000001 L 39.90538 80.89112700000001" />
<path class="stroke" d="M 45.22079159 14.059406 L 54.64257526 14.059406 C 53.55544485 28.316833 50.83762401 36.930695 46.67029677 46.138615" />
<path class="stroke" d="M 46.67029677 46.138615 L 54.64257526 46.138615 C 53.079409999999996 64.1955 50.513689 77.4448 44.8584156 90.09901" />
<path class="stroke" d="M 45.22079159 64.55446 C 51.0188117 66.33663 59.71584156 84.15842 71.311883 86.237625 C 79.4653443 88.019806 83.27029859999999 89.50495 93.7792078 89.50495" />
<path class="stroke" d="M 66.7972774225 17.033662 L 89.49108775 17.033662 L 89.49108775 43.267324" />
<path class="stroke" d="M 58.915593692499996 29.87722632 L 95.47029707499999 29.87722632" />
<path class="stroke" d="M 65.1665836375 43.267324 L 89.49108775 43.267324" />
<path class="stroke" d="M 65.030693785 56.6574272 L 89.355196525 56.6574272" />
<path class="stroke" d="M 60.9539602375 70.32079432 L 93.16015082499999 70.32079432" />
<path class="stroke" d="M 77.125 8.835643200000002 L 77.125 82.89108920000001" />
</svg>
