<?xml version="1.0" standalone="no"?>
<!DOCTYPE svg PUBLIC "-//W3C//DTD SVG 1.1//EN" "http://www.w3.org/Graphics/SVG/1.1/DTD/svg11.dtd">
<svg xmlns="http://www.w3.org/2000/svg" version="1.1" width="100%" height="100%">
<style type="text/css"><![CDATA[
  .stroke { fill:none; stroke:black; stroke-width:2 }
]]></style>
<path class="stroke" d="M 9.60396 21.49504825 L 30.9901 20.143565000000002" />
<path class="stroke" d="M 23.267326 6.242574 L 23.267326 54.70297300000001 C 23.267326 56.826731 20.594059 58.56435650000001 17.029703 58.56435650000001" />
<path class="stroke" d="M 10.198019 41.188121 L 28.910892 30.1831673" />
<path class="stroke" d="M 68.9853996 6.59489025 C 60.810216499999996 9.821167200000001 53.043792800000006 11.1496346 44.6642328 11.339414450000001" />
<path class="stroke" d="M 44.6642328 11.339414450000001 L 44.6642328 32.2153273 C 44.6642328 38.0985384 43.2335749 47.7773725 38.9416054 54.9890445" />
<path class="stroke" d="M 44.6642328 22.346714 L 87.99269699999999 22.346714" />
<path class="stroke" d="M 66.32846559999999 22.346714 L 66.32846559999999 58.594887" />
<path class="stroke" d="M 24.656933600000002 71.20802875 L 24.656933600000002 92.4635025" />
<path class="stroke" d="M 24.656933600000002 71.20802875 L 75.57664 71.20802875 L 75.57664 92.2591235" />
<path class="stroke" d="M 24.656933600000002 90.8284656 L 75.57664 90.8284656" />
</svg>
