<?xml version="1.0" standalone="no"?>
<!DOCTYPE svg PUBLIC "-//W3C//DTD SVG 1.1//EN" "http://www.w3.org/Graphics/SVG/1.1/DTD/svg11.dtd">
<svg xmlns="http://www.w3.org/2000/svg" version="1.1" width="100%" height="100%">
<style type="text/css"><![CDATA[
  .stroke { fill:none; stroke:black; stroke-width:2 }
]]></style>
<path class="stroke" d="M 29.00948 8.18927 C 23.764512 19.753902 17.43431 31.911673999999998 9.2050474 41.104122" />
<path class="stroke" d="M 29.00948 8.4858024 C 34.254448000000004 14.119824 37.871694000000005 20.347042 41.76027 26.574165999999998" />
<path class="stroke" d="M 15.444785999999999 34.5804656 L 39.589887999999995 34.5804656" />
<path class="stroke" d="M 10.8328081 51.4826056 L 42.84540682 51.4826056" />
<path class="stroke" d="M 28.46685698 34.876998 L 28.46685698 85.88008199999999" />
<path class="stroke" d="M 10.5615168 60.97167999999999 C 14.269166 64.92532 17.16298 69.175624 20.056794 73.722404" />
<path class="stroke" d="M 42.031600000000005 60.971585999999995 C 40.042076 66.40798199999999 37.238648000000005 70.95476199999999 33.621402 75.501636" />
<path class="stroke" d="M 11.9179776 91.81072999999999 L 41.76027 81.728666" />
<path class="stroke" d="M 56.28832013 9.854013 C 55.42700627 19.781021 49.91459792 30.29197 46.64160478 32.627735" />
<path class="stroke" d="M 53.70437855 25.036495 L 53.70437855 90.43795" />
<path class="stroke" d="M 74.20364653 10.145985 C 73.17007036999999 16.569342 71.27518094 22.116787 68.51897706 25.328465" />
<path class="stroke" d="M 53.70437855 24.76344 L 85.5729896 24.76344" />
<path class="stroke" d="M 69.38029209999999 25.328465 L 69.38029209999999 90.43795" />
<path class="stroke" d="M 53.70437855 47.79185 L 83.3335738 47.79185" />
<path class="stroke" d="M 53.70437855 69.124084 L 83.5058361 69.124084" />
<path class="stroke" d="M 53.70437855 90.43795 L 89.01824504 90.43795" />
</svg>
