<?xml version="1.0" standalone="no"?>
<!DOCTYPE svg PUBLIC "-//W3C//DTD SVG 1.1//EN" "http://www.w3.org/Graphics/SVG/1.1/DTD/svg11.dtd">
<svg xmlns="http://www.w3.org/2000/svg" version="1.1" width="100%" height="100%">
<style type="text/css"><![CDATA[
  .stroke { fill:none; stroke:black; stroke-width:2 }
]]></style>
<path class="stroke" d="M 26.334400000000002 5.29968 C 21.45536 17.110367999999998 15.5668 29.526816 7.911672 38.914848" />
<path class="stroke" d="M 26.334400000000002 5.6025216 C 31.213440000000006 11.356416 34.578320000000005 17.716127999999998 38.195600000000006 24.075744" />
<path class="stroke" d="M 13.71608 32.2523904 L 36.17664 32.2523904" />
<path class="stroke" d="M 9.425868000000001 49.5141504 L 39.2050296 49.5141504" />
<path class="stroke" d="M 25.829634400000003 32.555232000000004 L 25.829634400000003 84.64348799999999" />
<path class="stroke" d="M 9.173504000000001 59.205119999999994 C 12.622480000000001 63.24288 15.314400000000001 67.583616 18.006320000000002 72.22713599999999" />
<path class="stroke" d="M 38.448 59.205024 C 36.597280000000005 64.757088 33.98944 69.40060799999999 30.624560000000002 74.044224" />
<path class="stroke" d="M 10.435328 90.70032 L 38.195600000000006 80.403744" />
<path class="stroke" d="M 53.07544858 8.044167 L 91.37893534 8.044167 L 91.37893534 23.186256" />
<path class="stroke" d="M 53.07544858 23.186256 L 91.37893534 23.186256" />
<path class="stroke" d="M 52.919116516 8.044167 L 52.919116516 58.20186 C 52.971253636 72.92316 52.085269516 81.01996 49.948643751999995 94.164055" />
<path class="stroke" d="M 55.59914930032 42.369200000000006 L 93.07084834912 42.369200000000006" />
<path class="stroke" d="M 74.33500000000001 25.122467067200002 L 74.33500000000001 62.20509171200001" />
<path class="stroke" d="M 63.786075326331996 64.0172476475 L 63.786075326331996 89.10477966500001" />
<path class="stroke" d="M 63.786075326331996 64.0172476475 L 84.98114851679999 64.0172476475 L 84.98114851679999 88.86355405100001" />
<path class="stroke" d="M 63.786075326331996 87.17496896960002 L 84.98114851679999 87.17496896960002" />
</svg>
