<?xml version="1.0" standalone="no"?>
<!DOCTYPE svg PUBLIC "-//W3C//DTD SVG 1.1//EN" "http://www.w3.org/Graphics/SVG/1.1/DTD/svg11.dtd">
<svg xmlns="http://www.w3.org/2000/svg" version="1.1" width="100%" height="100%">
<style type="text/css"><![CDATA[
  .stroke { fill:none; stroke:black; stroke-width:2 }
]]></style>
<path class="stroke" d="M 24.334400000000002 5.5205 C 19.45536 17.8233 13.5668 30.7571 5.911672 40.5363" />
<path class="stroke" d="M 24.334400000000002 5.83596 C 29.213440000000006 11.8296 32.578320000000005 18.4543 36.195600000000006 25.0789" />
<path class="stroke" d="M 11.71608 33.59624 L 34.17664 33.59624" />
<path class="stroke" d="M 7.425868 51.57724 L 37.2050296 51.57724" />
<path class="stroke" d="M 23.829634400000003 33.9117 L 23.829634400000003 88.1703" />
<path class="stroke" d="M 7.173504 61.672 C 10.622480000000001 65.878 13.314400000000001 70.3996 16.006320000000002 75.2366" />
<path class="stroke" d="M 36.448 61.6719 C 34.597280000000005 67.4553 31.989440000000002 72.2923 28.624560000000002 77.1294" />
<path class="stroke" d="M 8.435328 94.4795 L 36.195600000000006 83.7539" />
<path class="stroke" d="M 67.859613 6.466883 L 67.859613 15.615143" />
<path class="stroke" d="M 42.50631054 15.9306 L 93.03313574999999 15.9306" />
<path class="stroke" d="M 56.89116 16.2461 L 61.566243 34.858" />
<path class="stroke" d="M 78.64828800000001 15.9306 L 73.433757 35.1735" />
<path class="stroke" d="M 46.462154999999996 35.1735 L 46.462154999999996 94.4795" />
<path class="stroke" d="M 46.462154999999996 35.1735 L 87.998454 35.1735 L 87.998454 88.4858 C 88.05836099999999 92.2713 86.85965099999999 94.1641 85.30127099999999 93.8486 L 82.42430999999999 93.8486" />
<path class="stroke" d="M 54.4151297952 57.660000000000004 L 80.58486856319999 57.660000000000004" />
<path class="stroke" d="M 67.5 47.01386856 L 67.5 69.9043776" />
<path class="stroke" d="M 60.13277059752 71.022992375 L 60.13277059752 86.50912325" />
<path class="stroke" d="M 60.13277059752 71.022992375 L 74.935129248 71.022992375 L 74.935129248 86.36021855" />
<path class="stroke" d="M 60.13277059752 85.31788208 L 74.935129248 85.31788208" />
</svg>
