<?xml version="1.0" standalone="no"?>
<!DOCTYPE svg PUBLIC "-//W3C//DTD SVG 1.1//EN" "http://www.w3.org/Graphics/SVG/1.1/DTD/svg11.dtd">
<svg xmlns="http://www.w3.org/2000/svg" version="1.1" width="100%" height="100%">
<style type="text/css"><![CDATA[
  .stroke { fill:none; stroke:black; stroke-width:2 }
]]></style>
<path class="stroke" d="M 23.542599999999997 13.692425 C 19.273439999999997 24.149805 14.12095 35.143535 7.422713 43.455855" />
<path class="stroke" d="M 23.542599999999997 13.960566 C 27.81176 19.05516 30.75603 24.686155 33.92115 30.317065" />
<path class="stroke" d="M 12.50157 37.556804 L 32.15456 37.556804" />
<path class="stroke" d="M 8.7476345 52.840654 L 34.8044009 52.840654" />
<path class="stroke" d="M 23.1009301 37.824945 L 23.1009301 83.944755" />
<path class="stroke" d="M 8.526816 61.4212 C 11.54467 64.99629999999999 13.9001 68.83966000000001 16.25553 72.95111" />
<path class="stroke" d="M 34.141999999999996 61.421115 C 32.52262 66.33700499999999 30.24076 70.448455 27.296490000000002 74.55999" />
<path class="stroke" d="M 9.630911999999999 89.307575 L 33.92115 80.190815" />
<path class="stroke" d="M 45.4819012512 12.87227653 L 45.4819012512 80.57723122" />
<path class="stroke" d="M 45.672950304000004 12.87227653 L 62.4853061856 12.87227653 L 62.4853061856 75.66732532" />
<path class="stroke" d="M 45.672950304000004 34.3264687 L 62.4853061856 34.3264687" />
<path class="stroke" d="M 45.4819012512 57.1056787 L 62.4853061856 57.1056787" />
<path class="stroke" d="M 39.368316768 82.6445548 L 64.3958025024 75.1504966" />
<path class="stroke" d="M 68.06887443880001 38.8905102 L 92.44709201 36.7883208 C 91.84067032 66.74452199999999 90.021401096 82.77372 89.4149777444 86.189778 C 88.687267147 89.08028639999999 87.23185301400001 89.868609 86.01900548 90.131382 L 84.80615794600001 89.868609" />
<path class="stroke" d="M 80.07605630200001 18.3941604 C 78.620640092 47.824814700000005 73.890538448 77.7810195 66.2496052148 86.189778" />
</svg>
