<?xml version="1.0" standalone="no"?>
<!DOCTYPE svg PUBLIC "-//W3C//DTD SVG 1.1//EN" "http://www.w3.org/Graphics/SVG/1.1/DTD/svg11.dtd">
<svg xmlns="http://www.w3.org/2000/svg" version="1.1" width="100%" height="100%">
<style type="text/css"><![CDATA[
  .stroke { fill:none; stroke:black; stroke-width:2 }
]]></style>
<path class="stroke" d="M 24.776040000000002 7.354885 C 20.018976 19.288601 14.27763 31.834387 6.8138802 41.32021099999999" />
<path class="stroke" d="M 24.776040000000002 7.6608811999999995 C 29.533104000000005 13.474711999999998 32.813862 19.900671 36.34071 26.326533" />
<path class="stroke" d="M 12.473177999999999 34.5883528 L 34.372224 34.5883528" />
<path class="stroke" d="M 8.290221299999999 52.0299228 L 37.32490386 52.0299228" />
<path class="stroke" d="M 24.28389354 34.894349000000005 L 24.28389354 87.52519099999999" />
<path class="stroke" d="M 8.0441664 61.821839999999995 C 11.406918000000001 65.90165999999999 14.031540000000001 70.28761200000001 16.656162000000002 74.979502" />
<path class="stroke" d="M 36.586800000000004 61.821743 C 34.782348 67.431641 32.239704 72.123531 28.958946000000005 76.815518" />
<path class="stroke" d="M 9.274444800000001 93.645115 L 36.34071 83.241283" />
<path class="stroke" d="M 61.60092 7.41325 L 61.60092 60.0947 C 61.600975000000005 83.8591 51.88484 93.428 43.9037845 93.5331" />
<path class="stroke" d="M 47.0268165 23.81703 C 50.496871 30.02103 52.405371 35.27863 54.313871000000006 44.32173" />
<path class="stroke" d="M 45.1182945 68.612 C 49.282317 63.775 52.925847000000005 60.8307 57.957412000000005 57.8864" />
<path class="stroke" d="M 72.531565 7.09779 L 72.531565 88.1703 C 72.35804 92.1045 73.7051 94.4052 75.307525 94.4795 L 89.014185 94.4795 C 90.98060000000001 94.5843 92.426165 92.1662 92.31072 88.1703 L 92.31072 82.1766" />
<path class="stroke" d="M 87.62615550000001 26.34072 C 84.79233550000001 33.91162 82.4789805 38.64352 78.95111550000001 43.05992" />
<path class="stroke" d="M 76.00157000000002 55.3628 C 80.10776 58.307 83.69348500000001 60.9359 87.279155 67.0347" />
</svg>
