<?xml version="1.0" standalone="no"?>
<!DOCTYPE svg PUBLIC "-//W3C//DTD SVG 1.1//EN" "http://www.w3.org/Graphics/SVG/1.1/DTD/svg11.dtd">
<svg xmlns="http://www.w3.org/2000/svg" version="1.1" width="100%" height="100%">
<style type="text/css"><![CDATA[
  .stroke { fill:none; stroke:black; stroke-width:2 }
]]></style>
<path class="stroke" d="M 12.093429568 15.864263617021276 L 36.108844096 15.864263617021276" />
<path class="stroke" d="M 24.218859136 9.15514659574468 L 24.218859136 39.06662265957447" />
<path class="stroke" d="M 13.152934336 27.32567170212766 L 35.167061632 27.32567170212766" />
<path class="stroke" d="M 8.090861151999999 39.06662265957447 L 40.34685913599999 39.06662265957447" />
<path class="stroke" d="M 19.939959039999998 40.690852 C 19.061746239999998 50.28076 16.86608896 58.35646 10.191538048 67.75708" />
<path class="stroke" d="M 19.412981248 47.88328 L 37.065434368 48.07258 C 34.518659008 67.37854 25.121489727999997 82.52055999999999 9.664610368 93.49846" />
<path class="stroke" d="M 15.72437056 58.67194 C 23.101525119999998 74.50792 37.06548448 93.18298 52.610226880000006 93.30915999999999 L 82.38235072 93.30915999999999" />
<path class="stroke" d="M 58.916405 8.7555143 C 57.297095 22.9805 53.075185000000005 36.924753 45.730281500000004 45.815408" />
<path class="stroke" d="M 57.354845 23.074127999999998 L 91.534705 23.354834 L 91.36118 54.799691 C 91.014185 69.02473900000001 87.37071 85.49579100000001 81.12463500000001 85.682958 L 78.52209 85.682958" />
<path class="stroke" d="M 57.8436128125 37.277341612200004 C 59.2005469625 39.3353862096 60.453102195 41.736437163 61.26396725000001 45.28204524" />
<path class="stroke" d="M 78.19762685 37.277341612200004 C 77.57134941250001 40.364408802 76.42317560000001 42.9369635208 74.85748111250001 45.166510708800004" />
<path class="stroke" d="M 55.54726197 52.369662394200006 L 80.807115875 52.369662394200006" />
<path class="stroke" d="M 68.125 32.671366104 L 68.17718785 80.128633896" />
<path class="stroke" d="M 66.1939769775 53.9131962828 C 64.0457105 62.08943892 59.707197750000006 70.40308734 54.503467075 74.83663921440001" />
<path class="stroke" d="M 70.2647794275 54.084698286000005 C 72.01906875 62.15117466 76.38400075000001 70.89256775999999 81.642150075 75.00814180500001" />
</svg>
