<?xml version="1.0" standalone="no"?>
<!DOCTYPE svg PUBLIC "-//W3C//DTD SVG 1.1//EN" "http://www.w3.org/Graphics/SVG/1.1/DTD/svg11.dtd">
<svg xmlns="http://www.w3.org/2000/svg" version="1.1" width="100%" height="100%">
<style type="text/css"><![CDATA[
  .stroke { fill:none; stroke:black; stroke-width:2 }
]]></style>
<path class="stroke" d="M 4.8296532 11.8297 L 45.170356000000005 11.8297" />
<path class="stroke" d="M 8.167174 30.1262 L 8.167174 91.9558" />
<path class="stroke" d="M 8.167174 30.1262 L 41.97791 30.1262 L 41.97791 91.9558" />
<path class="stroke" d="M 20.501568 12.145157 L 20.501568 37.381756 C 20.251612280000003 44.51613 15.05806416 57.741936 8.38064528 60.645157" />
<path class="stroke" d="M 29.3533158 11.8297 L 29.3533158 55.6783 C 29.1598398 59.3587 30.27234888 62.0926 31.820203800000005 61.9875 L 36.0283758 61.9875 C 37.1408858 61.8823 38.5436098 59.8844 38.49526104 55.9938 L 38.49526104 51.5774" />
<path class="stroke" d="M 8.167174 74.6057 L 41.97791 74.6057" />
<path class="stroke" d="M 8.167174 91.9558 L 41.97791 91.9558" />
<path class="stroke" d="M 73.5 8.370205956 L 73.5 17.549999999999997" />
<path class="stroke" d="M 50.975 17.549999999999997 L 96.025 17.549999999999997" />
<path class="stroke" d="M 60.068174808 27.6712770625 L 60.068174808 42.398283875" />
<path class="stroke" d="M 60.068174808 27.6712770625 L 87.0556192 27.6712770625 L 87.0556192 42.256678425000004" />
<path class="stroke" d="M 60.068174808 41.265436879999996 L 87.0556192 41.265436879999996" />
<path class="stroke" d="M 61.50729833 54.243612378899996 L 87.50437815000001 54.243612378899996 C 84.56423230000001 59.239466438600004 80.68771849000001 62.93218526 73.33020602 64.77858316999999" />
<path class="stroke" d="M 73.16353480000001 64.77858316999999 C 75.9968618 70.88499991999998 75.58905065 88.104401217 73.4226253 90.87987279 C 72.49416070000001 91.9900618945 71.5656908 92.267610953 70.01824609 92.406384294" />
<path class="stroke" d="M 52.22262689 68.836342848 L 95.0868576 68.836342848" />
</svg>
