<?xml version="1.0" standalone="no"?>
<!DOCTYPE svg PUBLIC "-//W3C//DTD SVG 1.1//EN" "http://www.w3.org/Graphics/SVG/1.1/DTD/svg11.dtd">
<svg xmlns="http://www.w3.org/2000/svg" version="1.1" width="100%" height="100%">
<style type="text/css"><![CDATA[
  .stroke { fill:none; stroke:black; stroke-width:2 }
]]></style>
<path class="stroke" d="M 6.6451106 11.593106 L 44.354898 11.593106" />
<path class="stroke" d="M 9.764967 29.523676000000002 L 9.764967 90.11668399999999" />
<path class="stroke" d="M 9.764967 29.523676000000002 L 41.370655 29.523676000000002 L 41.370655 90.11668399999999" />
<path class="stroke" d="M 21.294943999999997 11.902253859999998 L 21.294943999999997 36.634120880000005 C 21.06128974 43.6258074 16.20645128 56.58709728 9.96451624 59.432253859999996" />
<path class="stroke" d="M 29.569403899999998 11.593106 L 29.569403899999998 54.564734 C 29.3885459 58.171526 30.42850004 60.850747999999996 31.875407900000003 60.747749999999996 L 35.80913389999999 60.747749999999996 C 36.8490889 60.644654 38.1603309 58.686712 38.11513532 54.873924 L 38.11513532 50.545852" />
<path class="stroke" d="M 9.764967 73.113586 L 41.370655 73.113586" />
<path class="stroke" d="M 9.764967 90.11668399999999 L 41.370655 90.11668399999999" />
<path class="stroke" d="M 55.452844672 11.931620076 L 55.452844672 43.657865088" />
<path class="stroke" d="M 55.452844672 11.931620076 L 84.378976 11.931620076 L 84.378976 43.657865088" />
<path class="stroke" d="M 55.621021119999995 26.9304972616 L 84.21080128 26.9304972616" />
<path class="stroke" d="M 55.452844672 42.2729903968 L 84.378976 42.2729903968" />
<path class="stroke" d="M 56.22014524 49.96348832939999 C 55.736641816 54.5301449946 53.802627016 59.2598961018 50.901605368 62.358699996" />
<path class="stroke" d="M 54.28613044 58.118233331999996 L 86.84204439999999 58.118233331999996" />
<path class="stroke" d="M 70.013613424 46.2123058293 L 70.013613424 89.26935554399999" />
<path class="stroke" d="M 56.38131268 73.28605553999999 L 83.779852 73.28605553999999" />
<path class="stroke" d="M 49.128758008 89.59554442799998 L 90.71006848 89.59554442799998" />
</svg>
