<?xml version="1.0" standalone="no"?>
<!DOCTYPE svg PUBLIC "-//W3C//DTD SVG 1.1//EN" "http://www.w3.org/Graphics/SVG/1.1/DTD/svg11.dtd">
<svg xmlns="http://www.w3.org/2000/svg" version="1.1" width="100%" height="100%">
<style type="text/css"><![CDATA[
  .stroke { fill:none; stroke:black; stroke-width:2 }
]]></style>
<path class="stroke" d="M 6.152996999999999 11.593106 L 36.84701 11.593106" />
<path class="stroke" d="M 8.692415 29.523676000000002 L 8.692415 90.11668399999999" />
<path class="stroke" d="M 8.692415 29.523676000000002 L 34.417975 29.523676000000002 L 34.417975 90.11668399999999" />
<path class="stroke" d="M 18.07728 11.902253859999998 L 18.07728 36.634120880000005 C 17.8870963 43.6258074 13.9354836 56.58709728 8.8548388 59.432253859999996" />
<path class="stroke" d="M 24.812305499999997 11.593106 L 24.812305499999997 54.564734 C 24.6650955 58.171526 25.511569799999997 60.850747999999996 26.6892855 60.747749999999996 L 29.891155499999996 60.747749999999996 C 30.737630499999998 60.644654 31.804920499999998 58.686712 31.7681334 54.873924 L 31.7681334 50.545852" />
<path class="stroke" d="M 8.692415 73.113586 L 34.417975 73.113586" />
<path class="stroke" d="M 8.692415 90.11668399999999 L 34.417975 90.11668399999999" />
<path class="stroke" d="M 40.43307897856 29.127600000000005 L 69.32691920895999 29.127600000000005" />
<path class="stroke" d="M 54.879999999999995 9.325795521600002 L 54.879999999999995 51.90214233600001" />
<path class="stroke" d="M 46.745889408256005 53.9827658175 L 46.745889408256005 82.78696924500001" />
<path class="stroke" d="M 46.745889408256005 53.9827658175 L 63.0890783744 53.9827658175 L 63.0890783744 82.510006503" />
<path class="stroke" d="M 46.745889408256005 80.57126066880001 L 63.0890783744 80.57126066880001" />
<path class="stroke" d="M 76.182189632 9.854013 L 76.16322176 55.63759 C 73.753556832 80.20134 73.753556832 79.39597 71.060402368 89.865776" />
<path class="stroke" d="M 76.182189632 9.854013 L 90.57051136000001 9.854013 L 90.57051136000001 86.05839 C 90.57051136000001 88.39416 90.15941408 90.43795 89.13167756799999 90.43795 L 88.00116832 90.43795" />
<path class="stroke" d="M 76.182189632 31.862577 L 90.57051136000001 31.862577" />
<path class="stroke" d="M 76.182189632 55.110336 L 90.57051136000001 55.110336" />
</svg>
