<?xml version="1.0" standalone="no"?>
<!DOCTYPE svg PUBLIC "-//W3C//DTD SVG 1.1//EN" "http://www.w3.org/Graphics/SVG/1.1/DTD/svg11.dtd">
<svg xmlns="http://www.w3.org/2000/svg" version="1.1" width="100%" height="100%">
<style type="text/css"><![CDATA[
  .stroke { fill:none; stroke:black; stroke-width:2 }
]]></style>
<path class="stroke" d="M 10.961809821428572 14.059406 C 13.879066071428571 16.138615 16.796323214285717 19.108912 19.183169642857145 22.673267" />
<path class="stroke" d="M 9.105374107142858 38.118813 C 11.757426785714285 39.90099 14.939887500000001 42.574257 17.06152857142857 46.138615" />
<path class="stroke" d="M 8.840169642857143 85.64356 C 9.434829464285714 87.422676 11.091678571428572 89.896904 13.024666964285714 89.896904 C 14.957658035714285 89.896904 17.5919375 76.73267 19.448374107142858 69.60396" />
<path class="stroke" d="M 79.0425625 5.4038016 C 72.18764949999999 10.693382399999999 57.1844785 15.740697599999999 41.017297 17.820192" />
<path class="stroke" d="M 36.55109425 27.87372198 L 88.66787500000001 27.87372198" />
<path class="stroke" d="M 62.0794375 14.385980969999999 L 61.799066499999995 14.576635799999998 C 58.845178000000004 30.150760799999997 50.02336525 35.7392541 29.5560745 45.462618299999995" />
<path class="stroke" d="M 68.52803800000001 27.92242902 C 74.69626 34.404672839999996 79.7429905 40.124299380000004 92.3598175 45.8439249" />
<path class="stroke" d="M 58.4779 50.31543 L 58.4779 86.90853 C 58.399 90.79913 56.19085 92.79703 53.982625 92.90223 L 50.670325 92.90223" />
<path class="stroke" d="M 45.70189 67.0347 C 44.04574 74.5005 40.73344 82.5972 34.5820225 87.5394" />
<path class="stroke" d="M 70.780795 66.71924 C 75.51262 73.34384 78.11512 79.65304 80.007895 87.53944" />
<path class="stroke" d="M 82.1372125 64.19556 C 86.15938750000001 69.453156 88.9984375 75.02626 91.36438749999999 82.17676" />
</svg>
