<?xml version="1.0" standalone="no"?>
<!DOCTYPE svg PUBLIC "-//W3C//DTD SVG 1.1//EN" "http://www.w3.org/Graphics/SVG/1.1/DTD/svg11.dtd">
<svg xmlns="http://www.w3.org/2000/svg" version="1.1" width="100%" height="100%">
<style type="text/css"><![CDATA[
  .stroke { fill:none; stroke:black; stroke-width:2 }
]]></style>
<path class="stroke" d="M 4.8296532 11.8297 L 45.170356000000005 11.8297" />
<path class="stroke" d="M 8.167174 30.1262 L 8.167174 91.9558" />
<path class="stroke" d="M 8.167174 30.1262 L 41.97791 30.1262 L 41.97791 91.9558" />
<path class="stroke" d="M 20.501568 12.145157 L 20.501568 37.381756 C 20.251612280000003 44.51613 15.05806416 57.741936 8.38064528 60.645157" />
<path class="stroke" d="M 29.3533158 11.8297 L 29.3533158 55.6783 C 29.1598398 59.3587 30.27234888 62.0926 31.820203800000005 61.9875 L 36.0283758 61.9875 C 37.1408858 61.8823 38.5436098 59.8844 38.49526104 55.9938 L 38.49526104 51.5774" />
<path class="stroke" d="M 8.167174 74.6057 L 41.97791 74.6057" />
<path class="stroke" d="M 8.167174 91.9558 L 41.97791 91.9558" />
<path class="stroke" d="M 48.94963492 28.248173 L 93.88393705 28.248173" />
<path class="stroke" d="M 80.40365080000001 11.605839 L 80.40365080000001 85.76642 C 80.40365080000001 88.39416 79.7379535 90.14598 78.24014398 90.14598 L 73.74671485 90.14598" />
<path class="stroke" d="M 58.1029195 39.343063 C 60.099999999999994 41.970802 61.930656459999994 45.766422 63.42846541 52.189777" />
</svg>
