<?xml version="1.0" standalone="no"?>
<!DOCTYPE svg PUBLIC "-//W3C//DTD SVG 1.1//EN" "http://www.w3.org/Graphics/SVG/1.1/DTD/svg11.dtd">
<svg xmlns="http://www.w3.org/2000/svg" version="1.1" width="100%" height="100%">
<style type="text/css"><![CDATA[
  .stroke { fill:none; stroke:black; stroke-width:2 }
]]></style>
<path class="stroke" d="M 4.768139 11.8297 L 44.23187 11.8297" />
<path class="stroke" d="M 8.033104999999999 30.1262 L 8.033104999999999 91.9558" />
<path class="stroke" d="M 8.033104999999999 30.1262 L 41.108825 30.1262 L 41.108825 91.9558" />
<path class="stroke" d="M 20.09936 12.145157 L 20.09936 37.381756 C 19.854838100000002 44.51613 14.774193200000001 57.741936 8.2419356 60.645157" />
<path class="stroke" d="M 28.7586785 11.8297 L 28.7586785 55.6783 C 28.569408499999998 59.3587 29.6577326 62.0926 31.171938500000003 61.9875 L 35.2886285 61.9875 C 36.3769535 61.8823 37.7491835 59.8844 37.7018858 55.9938 L 37.7018858 51.5774" />
<path class="stroke" d="M 8.033104999999999 74.6057 L 41.108825 74.6057" />
<path class="stroke" d="M 8.033104999999999 91.9558 L 41.108825 91.9558" />
<path class="stroke" d="M 59.453136994000005 11.529087247499998 L 59.453136994000005 41.65871928000001" />
<path class="stroke" d="M 59.453136994000005 11.529087247499998 L 83.4075895 11.529087247499998 L 83.4075895 41.65871928000001" />
<path class="stroke" d="M 59.592408115 25.7731508085 L 83.26831981000001 25.7731508085" />
<path class="stroke" d="M 59.453136994000005 40.343537958 L 83.4075895 40.343537958" />
<path class="stroke" d="M 49.5977924 54.02129405 L 93.402197 54.02129405" />
<path class="stroke" d="M 71.667215 54.164842 L 71.5 90.890319425" />
<path class="stroke" d="M 71.667215 70.3840905 L 88.88802799999999 70.3840905" />
<path class="stroke" d="M 57.62301 69.379314 C 57.344336 82.15375750000001 53.889054 86.89039849999999 48.4274411 92.0575605" />
<path class="stroke" d="M 57.62301 69.379314 C 58.124602 92.201113 72.52580546 91.1838695 79.8774185 91.77096510000001 L 94.405381 91.9140535" />
</svg>
