<?xml version="1.0" standalone="no"?>
<!DOCTYPE svg PUBLIC "-//W3C//DTD SVG 1.1//EN" "http://www.w3.org/Graphics/SVG/1.1/DTD/svg11.dtd">
<svg xmlns="http://www.w3.org/2000/svg" version="1.1" width="100%" height="100%">
<style type="text/css"><![CDATA[
  .stroke { fill:none; stroke:black; stroke-width:2 }
]]></style>
<path class="stroke" d="M 9.46376 8.990532 L 9.46376 40.53627" />
<path class="stroke" d="M 9.46376 8.990532 L 31.419520000000002 8.990532 L 31.419520000000002 40.53627" />
<path class="stroke" d="M 9.46376 40.53627 L 31.419520000000002 40.53627" />
<path class="stroke" d="M 20.31548 40.5363 L 20.31548 89.1167" />
<path class="stroke" d="M 20.567872 59.1483 L 33.186112 59.1483" />
<path class="stroke" d="M 9.46376 52.5236 L 9.46376 92.2713" />
<path class="stroke" d="M 5.425864000000001 93.8486 L 33.43848 85.6467" />
<path class="stroke" d="M 49.595032450000005 5.9747602 C 48.943750546000004 14.5 48.7162515925 28.55555622 39.95750044135 45.6777834" />
<path class="stroke" d="M 49.0575010465 13.47777834 L 73.683480925 13.47777834 L 67.89473569 28.16754024" />
<path class="stroke" d="M 48.91021741 28.48904988 L 93.7919674 28.48904988" />
<path class="stroke" d="M 48.72627694 28.48904988 L 48.72627694 44.687589560000006 C 48.72627694 77.7503628 46.33503508 82.85401056 43.42475197 89.4752476" />
<path class="stroke" d="M 59.9572265986 39.66405751 L 83.670801373 39.66405751 L 83.670801373 59.80284151 C 83.6486603065 61.40271808 82.797780133 62.49996751 80.86831825600001 62.49996751 L 76.772330101 62.49996751" />
<path class="stroke" d="M 59.957157934899996 39.84383551 L 59.957157934899996 84.25709379999999 C 60.021395803 86.26184649999999 61.46620309 87.3596608 63.4063943647 87.3138898 L 84.9641694805 87.3138898 C 87.048146512 87.3138898 88.700905585 86.2350508 88.629082561 84.25709379999999 L 88.629082561 80.84068479999999" />
</svg>
