<?xml version="1.0" standalone="no"?>
<!DOCTYPE svg PUBLIC "-//W3C//DTD SVG 1.1//EN" "http://www.w3.org/Graphics/SVG/1.1/DTD/svg11.dtd">
<svg xmlns="http://www.w3.org/2000/svg" version="1.1" width="100%" height="100%">
<style type="text/css"><![CDATA[
  .stroke { fill:none; stroke:black; stroke-width:2 }
]]></style>
<path class="stroke" d="M 13.722452 8.990532 L 13.722452 40.53627" />
<path class="stroke" d="M 13.722452 8.990532 L 45.558304 8.990532 L 45.558304 40.53627" />
<path class="stroke" d="M 13.722452 40.53627 L 45.558304 40.53627" />
<path class="stroke" d="M 29.457445999999997 40.5363 L 29.457445999999997 89.1167" />
<path class="stroke" d="M 29.823414399999997 59.1483 L 48.1198624 59.1483" />
<path class="stroke" d="M 13.722452 52.5236 L 13.722452 92.2713" />
<path class="stroke" d="M 7.8675028 93.8486 L 48.48579599999999 85.6467" />
<path class="stroke" d="M 55.149101767299996 26.68467072 L 89.52533034999999 26.68467072" />
<path class="stroke" d="M 71.987596975 9.758878079999999 L 71.8026642634 9.9981312 C 69.85427940880001 29.5421312 64.0354117189 36.5551424 50.535186740200004 48.7570112" />
<path class="stroke" d="M 76.2410938648 26.745793279999997 C 80.309653096 34.88037376 83.6384765338 42.057944320000004 91.960535623 49.235513600000004" />
<path class="stroke" d="M 62.09574848752 39.4 L 80.904249652 39.4" />
<path class="stroke" d="M 54.504290392 53.49514144 L 88.6179664 53.49514144" />
<path class="stroke" d="M 65.50871176 53.49514144 L 62.940978040000005 67.64380288000001 L 81.89306764 67.64380288000001 C 81.9338044 80.0730048 79.40688496000001 92.94431807999999 74.67905644 92.84606592 L 70.88863852 92.84606592" />
</svg>
