<?xml version="1.0" standalone="no"?>
<!DOCTYPE svg PUBLIC "-//W3C//DTD SVG 1.1//EN" "http://www.w3.org/Graphics/SVG/1.1/DTD/svg11.dtd">
<svg xmlns="http://www.w3.org/2000/svg" version="1.1" width="100%" height="100%">
<style type="text/css"><![CDATA[
  .stroke { fill:none; stroke:black; stroke-width:2 }
]]></style>
<path class="stroke" d="M 13.119918 8.990532 L 13.119918 40.53627" />
<path class="stroke" d="M 13.119918 8.990532 L 38.917936 8.990532 L 38.917936 40.53627" />
<path class="stroke" d="M 13.119918 40.53627 L 38.917936 40.53627" />
<path class="stroke" d="M 25.870689 40.5363 L 25.870689 89.1167" />
<path class="stroke" d="M 26.167249599999998 59.1483 L 40.9936816 59.1483" />
<path class="stroke" d="M 13.119918 52.5236 L 13.119918 92.2713" />
<path class="stroke" d="M 8.3753902 93.8486 L 41.290214 85.6467" />
<path class="stroke" d="M 54.040144500000004 17.450689978723403 L 86.7992665 17.450689978723403" />
<path class="stroke" d="M 70.58028900000001 10.070661255319148 L 70.58028900000001 42.973284925531914" />
<path class="stroke" d="M 55.4854015 30.058238872340425 L 85.514593 30.058238872340425" />
<path class="stroke" d="M 48.58029175 42.973284925531914 L 92.580289 42.973284925531914" />
<path class="stroke" d="M 57.8941606 54.377736434999996 L 57.8941606 86.75145765" />
<path class="stroke" d="M 58.05474355 54.377736434999996 L 83.10583500000001 54.377736434999996 L 83.10583500000001 86.75145765" />
<path class="stroke" d="M 58.0602089 65.4282189 L 83.0792062 65.4282189" />
<path class="stroke" d="M 58.0602089 76.308416415 L 83.0792062 76.308416415" />
<path class="stroke" d="M 58.05474355 86.6069325 L 82.94525150000001 86.6069325" />
<path class="stroke" d="M 61.2664229 90.075546 C 59.9817516 92.5324785 54.7673985 94.19755455 52.35863885 94.77565267499999" />
<path class="stroke" d="M 78.10209449999999 90.11073307499998 C 79.48429125000001 91.35471015 84.66753800000001 95.08665177 89.6780105 94.93115247" />
</svg>
