<?xml version="1.0" standalone="no"?>
<!DOCTYPE svg PUBLIC "-//W3C//DTD SVG 1.1//EN" "http://www.w3.org/Graphics/SVG/1.1/DTD/svg11.dtd">
<svg xmlns="http://www.w3.org/2000/svg" version="1.1" width="100%" height="100%">
<style type="text/css"><![CDATA[
  .stroke { fill:none; stroke:black; stroke-width:2 }
]]></style>
<path class="stroke" d="M 10.646730000000002 8.63091072 L 10.646730000000002 38.914819200000004" />
<path class="stroke" d="M 10.646730000000002 8.63091072 L 35.34696 8.63091072 L 35.34696 38.914819200000004" />
<path class="stroke" d="M 10.646730000000002 38.914819200000004 L 35.34696 38.914819200000004" />
<path class="stroke" d="M 22.854915 38.914848 L 22.854915 85.552032" />
<path class="stroke" d="M 23.138856 56.782368 L 37.334376000000006 56.782368" />
<path class="stroke" d="M 10.646730000000002 50.422655999999996 L 10.646730000000002 88.58044799999999" />
<path class="stroke" d="M 6.104097 90.094656 L 37.61829 82.22083199999999" />
<path class="stroke" d="M 68.99997732 6.6246024 L 68.99997732 17.9811264" />
<path class="stroke" d="M 48.04732878 17.9811264 L 90.4637364 17.9811264" />
<path class="stroke" d="M 58.779180780000004 17.9811264 L 64.23026424 36.9086064" />
<path class="stroke" d="M 78.70977239999999 17.9811264 L 73.25868624 37.2870876" />
<path class="stroke" d="M 46.17350178 37.2870876 L 46.17350178 49.400603999999994" />
<path class="stroke" d="M 46.343850180000004 37.2870876 L 92.1672204 37.2870876 L 92.1672204 50.1576876" />
<path class="stroke" d="M 51.5781015 56.36204188 L 51.5781015 79.5386842" />
<path class="stroke" d="M 51.5781015 56.36204188 L 86.7372234 56.36204188 L 86.7372234 78.2773684 C 86.7372234 80.6423308 85.3182438 82.0613104 83.74160040000001 82.2189742 L 82.3226262 82.2189742" />
<path class="stroke" d="M 69.0788292 48.321167020000004 L 69.0788292 91.6788292" />
</svg>
