<?xml version="1.0" standalone="no"?>
<!DOCTYPE svg PUBLIC "-//W3C//DTD SVG 1.1//EN" "http://www.w3.org/Graphics/SVG/1.1/DTD/svg11.dtd">
<svg xmlns="http://www.w3.org/2000/svg" version="1.1" width="100%" height="100%">
<style type="text/css"><![CDATA[
  .stroke { fill:none; stroke:black; stroke-width:2 }
]]></style>
<path class="stroke" d="M 9.700354 8.990532 L 9.700354 40.53627" />
<path class="stroke" d="M 9.700354 8.990532 L 32.205008 8.990532 L 32.205008 40.53627" />
<path class="stroke" d="M 9.700354 40.53627 L 32.205008 40.53627" />
<path class="stroke" d="M 20.823366999999998 40.5363 L 20.823366999999998 89.1167" />
<path class="stroke" d="M 21.0820688 59.1483 L 34.0157648 59.1483" />
<path class="stroke" d="M 9.700354 52.5236 L 9.700354 92.2713" />
<path class="stroke" d="M 5.5615106 93.8486 L 34.27444199999999 85.6467" />
<path class="stroke" d="M 54.54342982 8.3735400125 C 50.864597425 10.02390476 47.36970676 10.70346693 43.598904759999996 10.8005466225" />
<path class="stroke" d="M 43.598904759999996 10.8005466225 L 43.598904759999996 21.479378965 C 43.598904759999996 24.48886772 42.955108705 29.439963624999994 41.02372243 33.129011225" />
<path class="stroke" d="M 43.598904759999996 16.431203699999998 L 63.09671365 16.431203699999998" />
<path class="stroke" d="M 53.34780952 16.431203699999998 L 53.34780952 34.97353835" />
<path class="stroke" d="M 86.04342982 8.3735400125 C 82.364597425 10.02390476 78.86970676 10.70346693 75.09890476 10.8005466225" />
<path class="stroke" d="M 75.09890476 10.8005466225 L 75.09890476 21.479378965 C 75.09890476 24.48886772 74.455108705 29.439963624999994 72.52372242999999 33.129011225" />
<path class="stroke" d="M 75.09890476 16.431203699999998 L 94.59671365 16.431203699999998" />
<path class="stroke" d="M 84.84780952 16.431203699999998 L 84.84780952 34.97353835" />
<path class="stroke" d="M 54.06058396 44.334853027499996 L 54.06058396 84.720252725" />
<path class="stroke" d="M 54.24452443 44.334853027499996 L 82.939411 44.334853027499996 L 82.939411 84.720252725" />
<path class="stroke" d="M 54.25078474 58.12005085 L 82.90890892 58.12005085" />
<path class="stroke" d="M 54.25078474 71.6928224975 L 82.90890892 71.6928224975" />
<path class="stroke" d="M 54.24452443 84.53996124999999 L 82.75546990000001 84.53996124999999" />
<path class="stroke" d="M 57.92335714 88.866969 C 56.45182456 91.93193025 54.06058396 93.5545597 51.3014599 94.2757256" />
<path class="stroke" d="M 79.812406 89.04726047499999 C 82.5715288 89.76842637499999 84.59488719999999 91.391055825 86.2503634 94.2757256" />
</svg>
