<?xml version="1.0" standalone="no"?>
<!DOCTYPE svg PUBLIC "-//W3C//DTD SVG 1.1//EN" "http://www.w3.org/Graphics/SVG/1.1/DTD/svg11.dtd">
<svg xmlns="http://www.w3.org/2000/svg" version="1.1" width="100%" height="100%">
<style type="text/css"><![CDATA[
  .stroke { fill:none; stroke:black; stroke-width:2 }
]]></style>
<path class="stroke" d="M 10.56131388 9.854013 L 10.56131388 75.25547" />
<path class="stroke" d="M 10.675181790000002 9.854013 L 28.438683000000005 9.854013 L 28.438683000000005 75.25547" />
<path class="stroke" d="M 10.67905722 32.17822 L 28.41980076 32.17822" />
<path class="stroke" d="M 10.67905722 54.158417 L 28.41980076 54.158417" />
<path class="stroke" d="M 10.675181790000002 74.9635 L 28.3248147 74.9635" />
<path class="stroke" d="M 12.95255442 81.9708 C 12.04160568 86.9343 10.56131388 89.56204 8.8532847 90.72992" />
<path class="stroke" d="M 26.502917999999998 82.26277 C 28.210946399999997 83.43065 29.463501599999997 86.05839 30.4883202 90.72992" />
<path class="stroke" d="M 44.397504 10.241325999999999 L 93.65932799999999 10.241325999999999" />
<path class="stroke" d="M 44.397504 10.241325999999999 L 44.397504 55.493739999999995 C 43.9264 69.179345 41.638272 78.969 37.53312 86.36113999999999" />
<path class="stroke" d="M 53.2807296 27.922668999999996 L 88.8138496 27.922668999999996" />
<path class="stroke" d="M 44.59939712 46.802797999999996 L 93.25552256 46.802797999999996" />
<path class="stroke" d="M 53.886464000000004 48.6009599 L 53.886464000000004 87.260258 M 43.7918016 91.15611299999999 L 69.4321856 81.865873" />
<path class="stroke" d="M 89.01580799999999 53.39589775 C 86.79494399999999 60.98791775 83.362752 66.4821487 78.71929600000001 69.2792318" />
<path class="stroke" d="M 68.826496 47.102485 C 70.508928 75.77225 78.046272 85.86163 92.649856 90.55672" />
</svg>
