<?xml version="1.0" standalone="no"?>
<!DOCTYPE svg PUBLIC "-//W3C//DTD SVG 1.1//EN" "http://www.w3.org/Graphics/SVG/1.1/DTD/svg11.dtd">
<svg xmlns="http://www.w3.org/2000/svg" version="1.1" width="100%" height="100%">
<style type="text/css"><![CDATA[
  .stroke { fill:none; stroke:black; stroke-width:2 }
]]></style>
<path class="stroke" d="M 13.81094892 9.854013 L 13.81094892 75.25547" />
<path class="stroke" d="M 13.959853110000001 9.854013 L 37.189047 9.854013 L 37.189047 75.25547" />
<path class="stroke" d="M 13.96492098 32.17822 L 37.16435484 32.17822" />
<path class="stroke" d="M 13.96492098 54.158417 L 37.16435484 54.158417" />
<path class="stroke" d="M 13.959853110000001 74.9635 L 37.0401423 74.9635" />
<path class="stroke" d="M 16.93795578 81.9708 C 15.74671512 86.9343 13.81094892 89.56204 11.5773723 90.72992" />
<path class="stroke" d="M 34.657661999999995 82.26277 C 36.8912376 83.43065 38.529194399999994 86.05839 39.8693418 90.72992" />
<path class="stroke" d="M 67.58904931 12.81605692 C 63.76131235 21.487591000000002 57.270802149999994 30.5445235 50.61386734 36.325546" />
<path class="stroke" d="M 65.59196881 17.82627664 L 80.40365080000001 17.82627664 C 74.4124093 33.62773462 61.59780895 51.9343018 48.783211449999996 61.9547386" />
<path class="stroke" d="M 59.26788322 27.26861284 C 65.8 41.25806524 79.23868309 54.4394143 93.38467119999999 61.9547386" />
<path class="stroke" d="M 60.1436858545 58.98175125 L 60.1436858545 86.3102175" />
<path class="stroke" d="M 60.1436858545 58.98175125 L 80.0978458 58.98175125 L 80.0978458 86.04744450000001" />
<path class="stroke" d="M 60.1436858545 84.2080272 L 80.0978458 84.2080272" />
</svg>
