<?xml version="1.0" standalone="no"?>
<!DOCTYPE svg PUBLIC "-//W3C//DTD SVG 1.1//EN" "http://www.w3.org/Graphics/SVG/1.1/DTD/svg11.dtd">
<svg xmlns="http://www.w3.org/2000/svg" version="1.1" width="100%" height="100%">
<style type="text/css"><![CDATA[
  .stroke { fill:none; stroke:black; stroke-width:2 }
]]></style>
<path class="stroke" d="M 12.1861314 9.16423209 L 12.1861314 69.9875871" />
<path class="stroke" d="M 12.31751745 9.16423209 L 32.81386500000001 9.16423209 L 32.81386500000001 69.9875871" />
<path class="stroke" d="M 12.3219891 29.925744600000005 L 32.7920778 29.925744600000005" />
<path class="stroke" d="M 12.3219891 50.367327810000006 L 32.7920778 50.367327810000006" />
<path class="stroke" d="M 12.31751745 69.716055 L 32.6824785 69.716055" />
<path class="stroke" d="M 14.9452551 76.232844 C 13.8941604 80.848899 12.1861314 83.2926972 10.2153285 84.37882560000001" />
<path class="stroke" d="M 30.580289999999998 76.5043761 C 32.551092 77.59050450000001 33.996348 80.03430270000001 35.178831 84.37882560000001" />
<path class="stroke" d="M 41.36121 19.9400894 L 89.626165 19.9400894" />
<path class="stroke" d="M 44.846975 34.7792102 L 86.140315 34.7792102" />
<path class="stroke" d="M 41.6293374 49.6182722 L 89.3581124 49.6182722" />
<path class="stroke" d="M 60.667175 6.6466834 L 60.66726 49.618281999999994 C 61.471615 76.41118800000001 75.680555 92.16214000000001 82.65455 92.58991 C 84.08221 92.67742399999999 85.516925 92.66311599999999 86.944755 92.58991 C 89.538955 92.456924 91.59246999999999 90.631968 92.307575 87.33436599999999 L 92.307575 82.388012" />
<path class="stroke" d="M 86.944755 62.911688 C 72.28650499999999 81.048352 55.215104999999994 88.055842 36.802915 91.66253599999999" />
<path class="stroke" d="M 71.124674 6.6466932 C 74.25284400000001 8.707682199999999 75.772389 10.7686908 77.559939 13.757132200000001" />
</svg>
