<?xml version="1.0" standalone="no"?>
<!DOCTYPE svg PUBLIC "-//W3C//DTD SVG 1.1//EN" "http://www.w3.org/Graphics/SVG/1.1/DTD/svg11.dtd">
<svg xmlns="http://www.w3.org/2000/svg" version="1.1" width="100%" height="100%">
<style type="text/css"><![CDATA[
  .stroke { fill:none; stroke:black; stroke-width:2 }
]]></style>
<path class="stroke" d="M 36.1751005 6.78231 C 30.044690500000005 17.92845 21.6587855 23.08105 12.7523605 24.44795" />
<path class="stroke" d="M 22.4685175 27.287025 C 24.0299675 29.810724 25.070952500000004 32.018925 25.938467500000005 34.858025" />
<path class="stroke" d="M 32.184531500000006 20.031557 C 33.572621500000004 22.239758 34.440081500000005 24.132557 35.4811215 26.656258" />
<path class="stroke" d="M 43.982625500000005 20.66235 C 36.2907105 37.17145 22.1793055 45.47845 8.067829000000001 46.84545" />
<path class="stroke" d="M 28.887908500000005 40.22091 C 32.6471035 47.89701 36.2498785 52.95311 36.5220735 71.76651 C 36.7791985 89.24191 34.2087185 94.26911 31.1435135 94.16401 L 27.1530435 94.16401" />
<path class="stroke" d="M 32.5316035 50.31541 C 26.574608500000004 58.83271 18.3622285 64.82651 9.976323500000001 68.29651" />
<path class="stroke" d="M 35.828083500000005 64.19551 C 28.193973500000002 76.49851 18.4779485 83.75401 7.5473255 88.17041" />
<path class="stroke" d="M 60.608834 6.46687 C 59.018966 22.45 54.873818 38.1177 47.6624582 48.1072" />
<path class="stroke" d="M 59.075666 22.5552 L 92.634074 22.8706 L 92.463704 58.2019 C 92.123018 74.1851 88.545788 92.6919 82.413278 92.9022 L 79.85805200000001 92.9022" />
<path class="stroke" d="M 64.10776292 42.712923599999996 C 71.67118651999999 48.727659599999996 76.06611692 56.7108556 78.72353251999999 67.8107756" />
</svg>
