<?xml version="1.0" standalone="no"?>
<!DOCTYPE svg PUBLIC "-//W3C//DTD SVG 1.1//EN" "http://www.w3.org/Graphics/SVG/1.1/DTD/svg11.dtd">
<svg xmlns="http://www.w3.org/2000/svg" version="1.1" width="100%" height="100%">
<style type="text/css"><![CDATA[
  .stroke { fill:none; stroke:black; stroke-width:2 }
]]></style>
<path class="stroke" d="M 34.8596423 6.78231 C 28.952156300000002 17.92845 20.8711933 23.08105 12.2886383 24.44795" />
<path class="stroke" d="M 21.6514805 27.287025 C 23.1561505 29.810724 24.159281500000002 32.018925 24.995250500000004 34.858025" />
<path class="stroke" d="M 31.014184900000004 20.031557 C 32.351798900000006 22.239758 33.1877149 24.132557 34.1908989 26.656258" />
<path class="stroke" d="M 42.383257300000004 20.66235 C 34.9710483 37.17145 21.3727853 45.47845 7.7744534000000005 46.84545" />
<path class="stroke" d="M 27.837439100000005 40.22091 C 31.459936100000004 47.89701 34.9317011 52.95311 35.1939981 71.76651 C 35.4417731 89.24191 32.9647651 94.26911 30.0110221 94.16401 L 26.1656601 94.16401" />
<path class="stroke" d="M 31.3486361 50.31541 C 25.6082591 58.83271 17.6945111 64.82651 9.613548100000001 68.29651" />
<path class="stroke" d="M 34.5252441 64.19551 C 27.168738100000002 76.49851 17.8060231 83.75401 7.2728773 88.17041" />
<path class="stroke" d="M 67.09561790000001 7.163502680000001 C 66.9403485 10.1964386 63.2278885 13.7154026 59.8942995 13.832150600000002" />
<path class="stroke" d="M 52.13503545 13.94306498 L 52.13503545 51.15182600000001" />
<path class="stroke" d="M 52.13503545 13.832633900000001 L 87.22116734 13.832633900000001 L 87.22116734 51.15182600000001" />
<path class="stroke" d="M 52.13503545 31.3591115 L 87.22116734 31.3591115" />
<path class="stroke" d="M 52.13503545 49.532722400000004 L 87.22116734 49.532722400000004" />
<path class="stroke" d="M 65.0567949774 52.68540058 L 65.0567949774 65.99050876 C 65.0567949774 77.7218957 61.2133501654 89.31021636 51.6047371228 92.3145955" />
<path class="stroke" d="M 73.7784585162 52.54233577 L 73.7784585162 86.3058382 C 73.7784585162 89.8824805 75.70018294740001 92.0284649 77.7697272329 92.0284649 L 89.30006015000001 92.0284649 C 90.926138797 92.1715302 92.108734085 91.0270029 92.108734085 89.4532797 L 92.108734085 86.73503606" />
</svg>
