<?xml version="1.0" standalone="no"?>
<!DOCTYPE svg PUBLIC "-//W3C//DTD SVG 1.1//EN" "http://www.w3.org/Graphics/SVG/1.1/DTD/svg11.dtd">
<svg xmlns="http://www.w3.org/2000/svg" version="1.1" width="100%" height="100%">
<style type="text/css"><![CDATA[
  .stroke { fill:none; stroke:black; stroke-width:2 }
]]></style>
<path class="stroke" d="M 8.851832100000001 20.157066 L 44.481151 20.157066" />
<path class="stroke" d="M 12.186130470000002 34.67153 L 12.031386900000001 62.70073" />
<path class="stroke" d="M 12.031386900000001 34.67153 L 40.9686078 34.67153 L 40.9686078 62.70073" />
<path class="stroke" d="M 12.031386900000001 48.63624 L 40.8138637 48.63624" />
<path class="stroke" d="M 12.031386900000001 62.9927 L 40.9686078 62.9927" />
<path class="stroke" d="M 8.008028640000001 77.59124 L 44.991965 77.59124" />
<path class="stroke" d="M 26.5983839 8.978102 L 26.5983839 90.72992" />
<path class="stroke" d="M 57.2499777739 7.675911999999999 L 57.2499777739 27.109488000000002" />
<path class="stroke" d="M 57.2499777739 7.675911999999999 L 80.90854636 7.675911999999999 L 80.90854636 26.9226272" />
<path class="stroke" d="M 57.2499777739 25.61459712 L 80.90854636 25.61459712" />
<path class="stroke" d="M 51.43140017857143 36.930693 L 89.61032651785715 36.930693" />
<path class="stroke" d="M 59.25495083928571 36.930693 L 59.25495083928571 79.13861399999999" />
<path class="stroke" d="M 59.25495083928571 50.0297027 L 80.84794678571429 50.0297027" />
<path class="stroke" d="M 59.25495083928571 63.54455299999999 L 80.84794678571429 63.54455299999999" />
<path class="stroke" d="M 51.74434144642857 81.0098988 L 80.80158964285715 74.1388899" />
<path class="stroke" d="M 80.84794678571429 36.930693 L 80.84794678571429 92.861386" />
</svg>
