<?xml version="1.0" standalone="no"?>
<!DOCTYPE svg PUBLIC "-//W3C//DTD SVG 1.1//EN" "http://www.w3.org/Graphics/SVG/1.1/DTD/svg11.dtd">
<svg xmlns="http://www.w3.org/2000/svg" version="1.1" width="100%" height="100%">
<style type="text/css"><![CDATA[
  .stroke { fill:none; stroke:black; stroke-width:2 }
]]></style>
<path class="stroke" d="M 8.350785 20.157066 L 41.96335 20.157066" />
<path class="stroke" d="M 11.4963495 34.67153 L 11.350365 62.70073" />
<path class="stroke" d="M 11.350365 34.67153 L 38.64963 34.67153 L 38.64963 62.70073" />
<path class="stroke" d="M 11.350365 48.63624 L 38.503645 48.63624" />
<path class="stroke" d="M 11.350365 62.9927 L 38.64963 62.9927" />
<path class="stroke" d="M 7.554744 77.59124 L 42.44525 77.59124" />
<path class="stroke" d="M 25.092815 8.978102 L 25.092815 90.72992" />
<path class="stroke" d="M 53.060291152 11.9 L 89.93970519999999 11.9" />
<path class="stroke" d="M 58.4990069368 24.51138645 L 58.4990069368 44.066422300000006" />
<path class="stroke" d="M 58.4990069368 24.51138645 L 84.62081632 24.51138645 L 84.62081632 43.878393620000004" />
<path class="stroke" d="M 58.4990069368 42.562188352 L 84.62081632 42.562188352" />
<path class="stroke" d="M 49.44890476 56.4844078036 L 49.44890476 91.006565884" />
<path class="stroke" d="M 49.44890476 56.347415010400006 L 93.71751472 56.347415010400006 L 93.71751472 91.006565884" />
<path class="stroke" d="M 71.5832086 56.4844078036 L 71.5832086 88.54069935999999" />
<path class="stroke" d="M 49.44890476 72.4348266136 L 93.38467119999999 72.4348266136" />
<path class="stroke" d="M 49.44890476 88.54069935999999 L 93.71751472 88.54069935999999" />
</svg>
