<?xml version="1.0" standalone="no"?>
<!DOCTYPE svg PUBLIC "-//W3C//DTD SVG 1.1//EN" "http://www.w3.org/Graphics/SVG/1.1/DTD/svg11.dtd">
<svg xmlns="http://www.w3.org/2000/svg" version="1.1" width="100%" height="100%">
<style type="text/css"><![CDATA[
  .stroke { fill:none; stroke:black; stroke-width:2 }
]]></style>
<path class="stroke" d="M 8.6848164 20.157066 L 43.641884 20.157066" />
<path class="stroke" d="M 11.956203480000001 34.67153 L 11.8043796 62.70073" />
<path class="stroke" d="M 11.8043796 34.67153 L 40.195615200000006 34.67153 L 40.195615200000006 62.70073" />
<path class="stroke" d="M 11.8043796 48.63624 L 40.043790800000004 48.63624" />
<path class="stroke" d="M 11.8043796 62.9927 L 40.195615200000006 62.9927" />
<path class="stroke" d="M 7.85693376 77.59124 L 44.143060000000006 77.59124" />
<path class="stroke" d="M 26.0965276 8.978102 L 26.0965276 90.72992" />
<path class="stroke" d="M 49.8468892 23.0937786 L 89.980858 23.0937786" />
<path class="stroke" d="M 51.640408 37.1387698 L 51.640408 90.21765579999999" />
<path class="stroke" d="M 51.640408 37.1387698 L 88.170388 37.1387698 L 88.170388 84.8801478 C 88.35962799999999 88.0431538 87.034708 90.0199785 85.141948 89.92108579999999 L 83.438488 89.92108579999999" />
<path class="stroke" d="M 51.82963 51.075708 L 87.98107 50.779137999999996" />
<path class="stroke" d="M 51.64039 65.60566399999999 L 87.98113 65.60566399999999" />
<path class="stroke" d="M 70.0 8.3753902 L 70.0 90.217684" />
<path class="stroke" d="M 80.33492799999999 8.521531529999999 C 82.7955244 10.49840746 84.194524 13.42759974 85.33014399999999 16.8870808" />
</svg>
