<?xml version="1.0" standalone="no"?>
<!DOCTYPE svg PUBLIC "-//W3C//DTD SVG 1.1//EN" "http://www.w3.org/Graphics/SVG/1.1/DTD/svg11.dtd">
<svg xmlns="http://www.w3.org/2000/svg" version="1.1" width="100%" height="100%">
<style type="text/css"><![CDATA[
  .stroke { fill:none; stroke:black; stroke-width:2 }
]]></style>
<path class="stroke" d="M 10.437956 27.956203 L 33.211678 27.956203" />
<path class="stroke" d="M 23.86861 9.270073 L 23.86861 90.14598" />
<path class="stroke" d="M 23.86861 36.131386 C 20.07299 44.598537 15.401459 52.48175 8.686131 56.861313" />
<path class="stroke" d="M 23.86861 36.131386 C 28.248173 37.299267 31.167881 42.26277 32.627735 46.934303" />
<path class="stroke" d="M 57.49208 7.41325 L 57.49208 60.0947 C 57.49215 83.8591 45.12616 93.428 34.968453 93.5331" />
<path class="stroke" d="M 38.943221 23.81703 C 43.359654 30.02103 45.788653999999994 35.27863 48.217653999999996 44.32173" />
<path class="stroke" d="M 36.514193 68.612 C 41.813857999999996 63.775 46.451077999999995 60.8307 52.854887999999995 57.8864" />
<path class="stroke" d="M 71.40381 7.09779 L 71.40381 88.1703 C 71.18296 92.1045 72.8974 94.4052 74.93684999999999 94.4795 L 92.38168999999999 94.4795 C 94.88439999999999 94.5843 96.72421 92.1662 96.57728 88.1703 L 96.57728 82.1766" />
<path class="stroke" d="M 90.615107 26.34072 C 87.008427 33.91162 84.064157 38.64352 79.574147 43.05992" />
<path class="stroke" d="M 75.82018 55.3628 C 81.04623999999998 58.307 85.60989000000001 60.9359 90.17347000000001 67.0347" />
</svg>
