<?xml version="1.0" standalone="no"?>
<!DOCTYPE svg PUBLIC "-//W3C//DTD SVG 1.1//EN" "http://www.w3.org/Graphics/SVG/1.1/DTD/svg11.dtd">
<svg xmlns="http://www.w3.org/2000/svg" version="1.1" width="100%" height="100%">
<style type="text/css"><![CDATA[
  .stroke { fill:none; stroke:black; stroke-width:2 }
]]></style>
<path class="stroke" d="M 16.70157 13.683244980000001 L 83.9267 13.683244980000001" />
<path class="stroke" d="M 22.992699 21.3759109 L 22.70073 36.231386900000004" />
<path class="stroke" d="M 22.70073 21.3759109 L 77.29926 21.3759109 L 77.29926 36.231386900000004" />
<path class="stroke" d="M 22.70073 28.777207200000003 L 77.00729 28.777207200000003" />
<path class="stroke" d="M 22.70073 36.386131 L 77.29926 36.386131" />
<path class="stroke" d="M 15.109488 44.1233572 L 84.8905 44.1233572" />
<path class="stroke" d="M 50.18563 7.7583940600000005 L 50.18563 51.08685760000001" />
<path class="stroke" d="M 9.018847800000001 55.68324498 L 45.320418000000004 55.68324498" />
<path class="stroke" d="M 12.416057460000001 63.3759109 L 12.258394200000001 78.2313869" />
<path class="stroke" d="M 12.258394200000001 63.3759109 L 41.7416004 63.3759109 L 41.7416004 78.2313869" />
<path class="stroke" d="M 12.258394200000001 70.7772072 L 41.5839366 70.7772072" />
<path class="stroke" d="M 12.258394200000001 78.386131 L 41.7416004 78.386131" />
<path class="stroke" d="M 8.159123520000001 86.1233572 L 45.84087 86.1233572" />
<path class="stroke" d="M 27.100240200000005 49.75839406 L 27.100240200000005 93.0868576" />
<path class="stroke" d="M 55.0188478 55.68324498 L 91.320418 55.68324498" />
<path class="stroke" d="M 58.416057460000005 63.3759109 L 58.2583942 78.2313869" />
<path class="stroke" d="M 58.2583942 63.3759109 L 87.74160040000001 63.3759109 L 87.74160040000001 78.2313869" />
<path class="stroke" d="M 58.2583942 70.7772072 L 87.5839366 70.7772072" />
<path class="stroke" d="M 58.2583942 78.386131 L 87.74160040000001 78.386131" />
<path class="stroke" d="M 54.15912352 86.1233572 L 91.84087 86.1233572" />
<path class="stroke" d="M 73.1002402 49.75839406 L 73.1002402 93.0868576" />
</svg>
