<?xml version="1.0" standalone="no"?>
<!DOCTYPE svg PUBLIC "-//W3C//DTD SVG 1.1//EN" "http://www.w3.org/Graphics/SVG/1.1/DTD/svg11.dtd">
<svg xmlns="http://www.w3.org/2000/svg" version="1.1" width="100%" height="100%">
<style type="text/css"><![CDATA[
  .stroke { fill:none; stroke:black; stroke-width:2 }
]]></style>
<path class="stroke" d="M 12.121095346 10.963878833245 L 40.77606532600001 10.963878833245 L 40.77606532600001 20.105455374130003" />
<path class="stroke" d="M 12.121095346 20.105455374130003 L 40.77606532600001 20.105455374130003" />
<path class="stroke" d="M 12.121095346 10.963878833245 L 12.121095346 29.132750757100002 C 12.165132066000002 34.465320862599995 11.284774406 37.398265210599995 6.574984412 42.159516462925" />
<path class="stroke" d="M 16.7201186142 28.241890380635 L 16.7201186142 44.33560809252499" />
<path class="stroke" d="M 16.7201186142 28.303789237654996 L 38.829955056 28.303789237654996 L 38.829955056 44.397507140399995" />
<path class="stroke" d="M 17.145307902600003 43.77851857019999 L 38.744917041 43.77851857019999" />
<path class="stroke" d="M 73.0000184 8.446420529400001 L 73.0000184 12.0846795544" />
<path class="stroke" d="M 55.731876 12.335603596999999 L 90.413254 12.335603596999999" />
<path class="stroke" d="M 61.246080000000006 12.33559962 L 67.34071200000001 23.877688789999997" />
<path class="stroke" d="M 84.02840800000001 12.461073969999998 L 77.933776 24.12859772" />
<path class="stroke" d="M 52.829650900000004 24.254060139 L 93.3154492 24.254060139" />
<path class="stroke" d="M 55.876992200000004 34.541560911999994 L 89.68772820000001 34.541560911999994" />
<path class="stroke" d="M 72.85487 24.2540497988 L 72.85487 43.825421987999995" />
<path class="stroke" d="M 40.218975 48.58029175 C 46.05839 49.0620428 52.48175 50.0255471 58.321167 51.9525535" />
<path class="stroke" d="M 9.854013 56.49202195 L 89.56204 56.49202195" />
<path class="stroke" d="M 31.34734 63.82603435 L 67.29274 63.82603435" />
<path class="stroke" d="M 29.4605 71.1474897 L 69.2757 71.1474897" />
<path class="stroke" d="M 29.1461 78.84623075 L 29.1461 93.92655425000001" />
<path class="stroke" d="M 29.146 78.6733245 L 69.5901 78.6733245 L 69.5901 93.75983" />
<path class="stroke" d="M 29.14706 92.0302725 L 69.27666 92.0303275" />
</svg>
