<?xml version="1.0" standalone="no"?>
<!DOCTYPE svg PUBLIC "-//W3C//DTD SVG 1.1//EN" "http://www.w3.org/Graphics/SVG/1.1/DTD/svg11.dtd">
<svg xmlns="http://www.w3.org/2000/svg" version="1.1" width="100%" height="100%">
<style type="text/css"><![CDATA[
  .stroke { fill:none; stroke:black; stroke-width:2 }
]]></style>
<path class="stroke" d="M 22.57755339583333 9.562042 C 26.154197125 11.021896 29.730835749999997 14.817516 32.115263541666664 19.48905" />
<path class="stroke" d="M 10.059304937499999 22.8707 L 43.44129708333333 22.8707" />
<path class="stroke" d="M 16.616481875 37.007298 L 36.88412320833333 37.007298" />
<path class="stroke" d="M 16.616481875 51.313866 L 36.88412320833333 51.313866" />
<path class="stroke" d="M 15.424268999999999 64.45255 L 15.424268999999999 85.76642" />
<path class="stroke" d="M 15.424268999999999 64.16058 L 38.67244354166666 64.16058 L 38.67244354166666 85.76642" />
<path class="stroke" d="M 15.424268999999999 85.76642 L 38.37439083333333 85.76642" />
<path class="stroke" d="M 64.3801289 5.806383374999999 C 72.0836159 8.553498375 76.5599339 12.199669624999999 79.2665609 17.269344625" />
<path class="stroke" d="M 56.040144500000004 27.629743665 L 88.95985000000002 27.629743665" />
<path class="stroke" d="M 72.671303 27.629743665 L 72.671303 85.15674457499999" />
<path class="stroke" d="M 58.6094871 55.685946795 L 86.551092 55.685946795" />
<path class="stroke" d="M 51.0620428 85.15674457499999 L 94.09853575 85.15674457499999" />
</svg>
