<?xml version="1.0" standalone="no"?>
<!DOCTYPE svg PUBLIC "-//W3C//DTD SVG 1.1//EN" "http://www.w3.org/Graphics/SVG/1.1/DTD/svg11.dtd">
<svg xmlns="http://www.w3.org/2000/svg" version="1.1" width="100%" height="100%">
<style type="text/css"><![CDATA[
  .stroke { fill:none; stroke:black; stroke-width:2 }
]]></style>
<path class="stroke" d="M 18.891422229166665 9.562042 C 21.884124125 11.021896 24.876821749999998 14.817516 26.871955208333333 19.48905" />
<path class="stroke" d="M 8.4169694375 22.8707 L 36.34884041666667 22.8707" />
<path class="stroke" d="M 13.903586875 37.007298 L 30.862225541666664 37.007298" />
<path class="stroke" d="M 13.903586875 51.313866 L 30.862225541666664 51.313866" />
<path class="stroke" d="M 12.906021 64.45255 L 12.906021 85.76642" />
<path class="stroke" d="M 12.906021 64.16058 L 32.35857520833333 64.16058 L 32.35857520833333 85.76642" />
<path class="stroke" d="M 12.906021 85.76642 L 32.109184166666665 85.76642" />
<path class="stroke" d="M 41.5452338368 21.5315262 L 90.164560408 21.5315262" />
<path class="stroke" d="M 65.33022904 8.18769839 L 65.33022904 36.506290199999995" />
<path class="stroke" d="M 78.97162912000002 8.18769369 L 78.97162912000002 36.506290199999995" />
<path class="stroke" d="M 65.33022904 36.506290199999995 L 78.97162912000002 36.506290199999995" />
<path class="stroke" d="M 52.21351312 8.1876951 L 52.21351312 48.960557 L 86.66675656 48.960557" />
<path class="stroke" d="M 41.27445136 59.489044 L 92.5328458 59.489044" />
<path class="stroke" d="M 67.09634679999999 51.897808 L 67.09634679999999 89.61644" />
<path class="stroke" d="M 65.16934216 61.824814 C 57.46131238 72.33576 49.56058306 80.21897 42.62335738 84.59853" />
<path class="stroke" d="M 69.0233554 61.824814 C 76.3459828 72.9197 83.86131040000001 79.927 91.18394044000001 84.59853" />
</svg>
