<?xml version="1.0" standalone="no"?>
<!DOCTYPE svg PUBLIC "-//W3C//DTD SVG 1.1//EN" "http://www.w3.org/Graphics/SVG/1.1/DTD/svg11.dtd">
<svg xmlns="http://www.w3.org/2000/svg" version="1.1" width="100%" height="100%">
<style type="text/css"><![CDATA[
  .stroke { fill:none; stroke:black; stroke-width:2 }
]]></style>
<path class="stroke" d="M 20.7344878125 9.562042 C 24.019160625 11.021896 27.30382875 14.817516 29.493609375 19.48905" />
<path class="stroke" d="M 9.2381371875 22.8707 L 39.89506875 22.8707" />
<path class="stroke" d="M 15.260034375000002 37.007298 L 33.873174375 37.007298" />
<path class="stroke" d="M 15.260034375000002 51.313866 L 33.873174375 51.313866" />
<path class="stroke" d="M 14.165145 64.45255 L 14.165145 85.76642" />
<path class="stroke" d="M 14.165145 64.16058 L 35.515509375 64.16058 L 35.515509375 85.76642" />
<path class="stroke" d="M 14.165145 85.76642 L 35.2417875 85.76642" />
<path class="stroke" d="M 46.9210216192 7.823955457800001 L 46.9210216192 34.797150582" />
<path class="stroke" d="M 46.9210216192 7.7169188892000005 L 82.2116468224 7.7169188892000005 L 82.2116468224 34.797150582" />
<path class="stroke" d="M 64.566333312 7.823955457800001 L 64.566333312 32.87049528" />
<path class="stroke" d="M 46.9210216192 20.2864949628 L 81.94630630399999 20.2864949628" />
<path class="stroke" d="M 46.9210216192 32.87049528 L 82.2116468224 32.87049528" />
<path class="stroke" d="M 51.0400581056 48.056641554399995 L 51.0400581056 73.03182231999999 C 51.0400581056 78.56911002399998 51.0400581056 80.89211735999999 51.0400581056 86.2640811728" />
<path class="stroke" d="M 51.0400581056 48.056641554399995 L 78.901081088 48.056641554399995 L 78.901081088 85.305341032 C 78.901081088 86.447065408 78.105047264 87.44606996 76.1149756544 87.44606996 L 73.92589865599999 87.44606996" />
<path class="stroke" d="M 51.0400581056 58.8144276376 L 78.901081088 58.8144276376" />
<path class="stroke" d="M 51.0400581056 70.1779322368 L 78.901081088 70.1779322368" />
</svg>
