<?xml version="1.0" standalone="no"?>
<!DOCTYPE svg PUBLIC "-//W3C//DTD SVG 1.1//EN" "http://www.w3.org/Graphics/SVG/1.1/DTD/svg11.dtd">
<svg xmlns="http://www.w3.org/2000/svg" version="1.1" width="100%" height="100%">
<style type="text/css"><![CDATA[
  .stroke { fill:none; stroke:black; stroke-width:2 }
]]></style>
<path class="stroke" d="M 17.048356645833334 9.562042 C 19.749087625 11.021896 22.44981475 14.817516 24.250301041666667 19.48905" />
<path class="stroke" d="M 7.595801687500001 22.8707 L 32.80261208333334 22.8707" />
<path class="stroke" d="M 12.547139375000002 37.007298 L 27.851276708333334 37.007298" />
<path class="stroke" d="M 12.547139375000002 51.313866 L 27.851276708333334 51.313866" />
<path class="stroke" d="M 11.646897000000001 64.45255 L 11.646897000000001 85.76642" />
<path class="stroke" d="M 11.646897000000001 64.16058 L 29.201641041666665 64.16058 L 29.201641041666665 85.76642" />
<path class="stroke" d="M 11.646897000000001 85.76642 L 28.976580833333333 85.76642" />
<path class="stroke" d="M 61.1356544 9.90062971 L 61.1356544 55.458971410000004 C 61.1356544 75.3106288 52.252390399999996 83.3611738 41.1482624 85.9227148" />
<path class="stroke" d="M 40.5425856 25.269673 L 59.318591999999995 25.269673" />
<path class="stroke" d="M 43.571008 43.383247 L 59.318591999999995 43.383247" />
<path class="stroke" d="M 41.84648576 68.09783638 L 59.69729472 62.454591820000005" />
<path class="stroke" d="M 75.671936 9.9006358 L 75.671936 85.64828200000001" />
<path class="stroke" d="M 75.671936 25.544158 L 95.65932799999999 25.544158" />
<path class="stroke" d="M 75.671936 43.657731999999996 L 92.630912 43.657731999999996" />
<path class="stroke" d="M 75.671936 62.869071999999996 L 95.45740799999999 62.869071999999996" />
</svg>
