<?xml version="1.0" standalone="no"?>
<!DOCTYPE svg PUBLIC "-//W3C//DTD SVG 1.1//EN" "http://www.w3.org/Graphics/SVG/1.1/DTD/svg11.dtd">
<svg xmlns="http://www.w3.org/2000/svg" version="1.1" width="100%" height="100%">
<style type="text/css"><![CDATA[
  .stroke { fill:none; stroke:black; stroke-width:2 }
]]></style>
<path class="stroke" d="M 21.19525420833333 9.562042 C 24.55291975 11.021896 27.910580500000002 14.817516 30.149022916666667 19.48905" />
<path class="stroke" d="M 9.443429125 22.8707 L 40.78162583333334 22.8707" />
<path class="stroke" d="M 15.599146250000002 37.007298 L 34.625911583333334 37.007298" />
<path class="stroke" d="M 15.599146250000002 51.313866 L 34.625911583333334 51.313866" />
<path class="stroke" d="M 14.479926 64.45255 L 14.479926 85.76642" />
<path class="stroke" d="M 14.479926 64.16058 L 36.30474291666667 64.16058 L 36.30474291666667 85.76642" />
<path class="stroke" d="M 14.479926 85.76642 L 36.02493833333333 85.76642" />
<path class="stroke" d="M 68.14623610000001 9.562042 L 68.14623610000001 16.861313" />
<path class="stroke" d="M 48.91021741 16.861313 L 87.1700689 16.861313" />
<path class="stroke" d="M 54.980291980000004 17.153284 C 57.92335714 22.992699 60.314597739999996 30.29197 61.23430449999999 38.17518" />
<path class="stroke" d="M 79.99634710000001 17.153284 C 78.70875939999999 24.744522 76.86934084 31.751823 74.29415725 38.17518" />
<path class="stroke" d="M 46.8868609 38.17518 L 90.481015 38.17518" />
<path class="stroke" d="M 46.970695 38.17518 L 46.970695 61.240875 C 46.970695 74.67153 45.599268789999996 83.722626 42.840145989999996 90.14598" />
<path class="stroke" d="M 81.05861013399999 45.61678741 C 74.86713607600001 51.94087528 65.8834302988 56.600727879999994 59.3277511996 57.099999999999994" />
<path class="stroke" d="M 84.579255262 59.5963492 C 77.48148689199999 68.0590993 71.28469475200001 71.6136763 60.604996492 73.18015030000001" />
<path class="stroke" d="M 88.03274453200001 74.74359418 C 80.147276326 85.18065385 69.4040716846 90.5510941 57.992335487199995 91.05036279999999" />
</svg>
