<?xml version="1.0" standalone="no"?>
<!DOCTYPE svg PUBLIC "-//W3C//DTD SVG 1.1//EN" "http://www.w3.org/Graphics/SVG/1.1/DTD/svg11.dtd">
<svg xmlns="http://www.w3.org/2000/svg" version="1.1" width="100%" height="100%">
<style type="text/css"><![CDATA[
  .stroke { fill:none; stroke:black; stroke-width:2 }
]]></style>
<path class="stroke" d="M 15.666057458333333 9.562042 C 18.147810250000003 11.021896 20.629559500000003 14.817516 22.284060416666666 19.48905" />
<path class="stroke" d="M 6.979925875 22.8707 L 30.142940833333338 22.8707" />
<path class="stroke" d="M 11.529803750000001 37.007298 L 25.593065083333332 37.007298" />
<path class="stroke" d="M 11.529803750000001 51.313866 L 25.593065083333332 51.313866" />
<path class="stroke" d="M 10.702554000000001 64.45255 L 10.702554000000001 85.76642" />
<path class="stroke" d="M 10.702554000000001 64.16058 L 26.833940416666668 64.16058 L 26.833940416666668 85.76642" />
<path class="stroke" d="M 10.702554000000001 85.76642 L 26.627128333333335 85.76642" />
<path class="stroke" d="M 34.614922130357144 9.90099 L 92.39488841785713 10.108107" />
<path class="stroke" d="M 40.326114112678574 9.90099 L 40.326114112678574 70.19802" />
<path class="stroke" d="M 40.326114112678574 28.613861 L 56.08900115357143 28.613861" />
<path class="stroke" d="M 40.326114112678574 47.92079 L 56.08900115357143 47.92079" />
<path class="stroke" d="M 34.84336925589286 72.871284 L 56.055160439285714 63.055557" />
<path class="stroke" d="M 56.08900115357143 9.90099 L 56.08900115357143 89.80198" />
<path class="stroke" d="M 63.2485565443 24.2500015 L 86.08374391499999 24.435643 C 81.7167513835 53.618812750000004 74.3618214604 67.87624 61.490693031 80.351485" />
<path class="stroke" d="M 65.72041692459999 25.500001 C 68.14374069990001 44.93548225 74.13445077669999 56.306452 76.1313534908 61.3870975 C 79.750740313 69.12903250000001 86.2406759716 74.93548 92.404386062 80.351485" />
</svg>
