<?xml version="1.0" standalone="no"?>
<!DOCTYPE svg PUBLIC "-//W3C//DTD SVG 1.1//EN" "http://www.w3.org/Graphics/SVG/1.1/DTD/svg11.dtd">
<svg xmlns="http://www.w3.org/2000/svg" version="1.1" width="100%" height="100%">
<style type="text/css"><![CDATA[
  .stroke { fill:none; stroke:black; stroke-width:2 }
]]></style>
<path class="stroke" d="M 16.587590249999998 9.562042 C 19.2153285 11.021896 21.843063 14.817516 23.5948875 19.48905" />
<path class="stroke" d="M 7.39050975 22.8707 L 31.916055 22.8707" />
<path class="stroke" d="M 12.2080275 37.007298 L 27.0985395 37.007298" />
<path class="stroke" d="M 12.2080275 51.313866 L 27.0985395 51.313866" />
<path class="stroke" d="M 11.332116000000001 64.45255 L 11.332116000000001 85.76642" />
<path class="stroke" d="M 11.332116000000001 64.16058 L 28.4124075 64.16058 L 28.4124075 85.76642" />
<path class="stroke" d="M 11.332116000000001 85.76642 L 28.19343 85.76642" />
<path class="stroke" d="M 65.5919674 10.221897816 L 65.5919674 20.396495303999995" />
<path class="stroke" d="M 41.863502815000004 20.627734752 L 41.863502815000004 31.727297159999996" />
<path class="stroke" d="M 41.863502815000004 20.627734752 L 89.3204323 20.627734752 L 89.3204323 31.727297159999996" />
<path class="stroke" d="M 81.23509105 28.315488 C 68.33370535 33.463871999999995 54.48824575 36.492192 41.39805724 37.703520000000005" />
<path class="stroke" d="M 40.45401925 54.056736 L 93.3183871 54.056736" />
<path class="stroke" d="M 61.22216077 34.977984 L 61.22216077 85.552032 C 61.15925842 88.984224 62.60673067 91.204992 64.43179657 91.305984 L 85.38869302 91.305984 C 87.40258567000001 91.205088 88.85005792000001 88.98432 88.78715557 85.552128 L 88.78715557 80.40384" />
</svg>
