<?xml version="1.0" standalone="no"?>
<!DOCTYPE svg PUBLIC "-//W3C//DTD SVG 1.1//EN" "http://www.w3.org/Graphics/SVG/1.1/DTD/svg11.dtd">
<svg xmlns="http://www.w3.org/2000/svg" version="1.1" width="100%" height="100%">
<style type="text/css"><![CDATA[
  .stroke { fill:none; stroke:black; stroke-width:2 }
]]></style>
<path class="stroke" d="M 11.313868 17.445253 C 15.401459 18.029196 19.48905 20.364962 22.408756 24.160583" />
<path class="stroke" d="M 9.270073 47.226276 C 13.357662 47.226276 18.321167 46.934303 23.86861 43.138683 C 16.27737 53.357662 14.233576 58.321167 15.109488 60.9489 C 15.69343 63.284668 20.948904 65.62044 22.116787 68.832115 C 23.576641 72.33576 18.129246 80.26506 11.021896 83.722626" />
<path class="stroke" d="M 11.021896 84.014595 C 39.692924 81.65476 40.51095 91.313866 90.43795 90.14598" />
<path class="stroke" d="M 45.5323415 12.3693415 L 45.5323415 22.6175158" />
<path class="stroke" d="M 34.720802775 22.6175158 L 57.874086500000004 22.6175158" />
<path class="stroke" d="M 45.063867 34.68758914 L 55.31204325 34.68758914 C 54.837590375000005 45.3912382 54.45802775 52.45109074 53.6989025 58.82773660000001 C 52.75 66.1153234 51.041968999999995 72.7197082 49.52372175 72.7197082 L 47.62591155 72.7197082" />
<path class="stroke" d="M 45.538319875 22.6175158 L 44.87408715 36.2817508 C 44.20985345 50.8569322 41.74270045 65.20437700000001 38.04196965 69.5313841" />
<path class="stroke" d="M 69.193069175 9.18529012857143 C 68.42079182500001 13.487977385714286 67.262376125 17.95615167142857 65.71782175000001 20.93493545714286" />
<path class="stroke" d="M 67.93811905000001 15.473832871428574 L 91.878713 15.473832871428574" />
<path class="stroke" d="M 71.395984825 25.748904112 L 87.337590375 25.748904112 C 85.53467075 32.307736288 83.157563225 37.155740800000004 78.64588105 39.5797936" />
<path class="stroke" d="M 78.543677 39.5797936 C 80.2810945 47.596633600000004 80.03102162500001 70.20321136000001 78.70255325000001 73.8470032 C 78.13321175 75.30452056000001 77.563867 75.66890224000001 76.614962225 75.85109152" />
<path class="stroke" d="M 65.702554225 44.90704384 L 91.987224 44.90704384" />
</svg>
