<?xml version="1.0" standalone="no"?>
<!DOCTYPE svg PUBLIC "-//W3C//DTD SVG 1.1//EN" "http://www.w3.org/Graphics/SVG/1.1/DTD/svg11.dtd">
<svg xmlns="http://www.w3.org/2000/svg" version="1.1" width="100%" height="100%">
<style type="text/css"><![CDATA[
  .stroke { fill:none; stroke:black; stroke-width:2 }
]]></style>
<path class="stroke" d="M 21.656020604166663 9.562042 C 25.086678875 11.021896 28.51733225 14.817516 30.80443645833333 19.48905" />
<path class="stroke" d="M 9.6487210625 22.8707 L 41.668182916666666 22.8707" />
<path class="stroke" d="M 15.938258125 37.007298 L 35.37864879166666 37.007298" />
<path class="stroke" d="M 15.938258125 51.313866 L 35.37864879166666 51.313866" />
<path class="stroke" d="M 14.794707 64.45255 L 14.794707 85.76642" />
<path class="stroke" d="M 14.794707 64.16058 L 37.09397645833333 64.16058 L 37.09397645833333 85.76642" />
<path class="stroke" d="M 14.794707 85.76642 L 36.80808916666666 85.76642" />
<path class="stroke" d="M 71.5832086 10.381295626250001 L 71.5832086 20.61049164875" />
<path class="stroke" d="M 50.114597785 20.842971965 L 50.114597785 32.00209641875" />
<path class="stroke" d="M 50.114597785 20.842971965 L 93.0518197 20.842971965 L 93.0518197 32.00209641875" />
<path class="stroke" d="M 80.445048931 45.0762385225 C 73.130990932 49.738860805 67.950198802 50.9551993375 58.398319891 52.6016404975" />
<path class="stroke" d="M 58.16704564 32.507425675 L 58.16704564 77.51187834999999 C 58.16704564 83.39084053 61.245642772 86.63440813000001 65.51217861399999 86.63440813000001 L 87.911486398 86.63440813000001 C 89.89237639000001 86.63440813000001 90.959009068 85.620790525 90.959009068 82.985398675 L 90.959009068 81.1608919" />
</svg>
