<?xml version="1.0" standalone="no"?>
<!DOCTYPE svg PUBLIC "-//W3C//DTD SVG 1.1//EN" "http://www.w3.org/Graphics/SVG/1.1/DTD/svg11.dtd">
<svg xmlns="http://www.w3.org/2000/svg" version="1.1" width="100%" height="100%">
<style type="text/css"><![CDATA[
  .stroke { fill:none; stroke:black; stroke-width:2 }
]]></style>
<path class="stroke" d="M 18.430655833333333 9.562042 C 21.350365 11.021896 24.27007 14.817516 26.216541666666668 19.48905" />
<path class="stroke" d="M 8.2116775 22.8707 L 35.46228333333334 22.8707" />
<path class="stroke" d="M 13.564475000000002 37.007298 L 30.109488333333335 37.007298" />
<path class="stroke" d="M 13.564475000000002 51.313866 L 30.109488333333335 51.313866" />
<path class="stroke" d="M 12.59124 64.45255 L 12.59124 85.76642" />
<path class="stroke" d="M 12.59124 64.16058 L 31.569341666666666 64.16058 L 31.569341666666666 85.76642" />
<path class="stroke" d="M 12.59124 85.76642 L 31.326033333333335 85.76642" />
<path class="stroke" d="M 67.594887 8.6058378 C 60.193428000000004 22.007297700000002 51.84306455 32.5182474 41.40510845 38.824814700000005" />
<path class="stroke" d="M 67.594887 8.6058378 C 75.1861291 21.481749 82.96715040000001 32.5182474 93.78466750000001 38.5620426" />
<path class="stroke" d="M 50.481115 38.864660148000006 L 83.083685 38.864637828" />
<path class="stroke" d="M 66.88484 39.040655580000006 L 66.88484 85.33506978" />
<path class="stroke" d="M 50.27604 60.6917754 L 82.87861000000001 60.691753080000005" />
<path class="stroke" d="M 43.5094568 85.5113364 L 92.31074050000001 85.5113364" />
</svg>
