<?xml version="1.0" standalone="no"?>
<!DOCTYPE svg PUBLIC "-//W3C//DTD SVG 1.1//EN" "http://www.w3.org/Graphics/SVG/1.1/DTD/svg11.dtd">
<svg xmlns="http://www.w3.org/2000/svg" version="1.1" width="100%" height="100%">
<style type="text/css"><![CDATA[
  .stroke { fill:none; stroke:black; stroke-width:2 }
]]></style>
<path class="stroke" d="M 19.812955020833332 9.562042 C 22.951642375000002 11.021896 26.09032525 14.817516 28.18278229166667 19.48905" />
<path class="stroke" d="M 8.827553312500001 22.8707 L 38.121954583333334 22.8707" />
<path class="stroke" d="M 14.581810625000001 37.007298 L 32.36769995833333 37.007298" />
<path class="stroke" d="M 14.581810625000001 51.313866 L 32.36769995833333 51.313866" />
<path class="stroke" d="M 13.535583 64.45255 L 13.535583 85.76642" />
<path class="stroke" d="M 13.535583 64.16058 L 33.937042291666664 64.16058 L 33.937042291666664 85.76642" />
<path class="stroke" d="M 13.535583 85.76642 L 33.67548583333333 85.76642" />
<path class="stroke" d="M 68.99997648 8.962142159999999 L 68.99997648 19.18301376" />
<path class="stroke" d="M 47.27130392 19.18301376 L 91.2586896 19.18301376" />
<path class="stroke" d="M 58.40063192 19.18301376 L 64.05360736 36.21774576" />
<path class="stroke" d="M 79.06939360000001 19.18301376 L 73.41641536 36.55837884" />
<path class="stroke" d="M 45.32807592 36.55837884 L 45.32807592 47.460543599999994" />
<path class="stroke" d="M 45.50473352 36.55837884 L 93.02526560000001 36.55837884 L 93.02526560000001 48.14191884" />
<path class="stroke" d="M 50.932846 53.725837692 L 50.932846 74.58481578000001" />
<path class="stroke" d="M 50.932846 53.725837692 L 87.3941576 53.725837692 L 87.3941576 73.44963156 C 87.3941576 75.57809772 85.9226232 76.85517936 84.2875856 76.99707678 L 82.81605680000001 76.99707678" />
<path class="stroke" d="M 69.0817488 46.489050318000004 L 69.0817488 85.51094628" />
</svg>
