<?xml version="1.0" standalone="no"?>
<!DOCTYPE svg PUBLIC "-//W3C//DTD SVG 1.1//EN" "http://www.w3.org/Graphics/SVG/1.1/DTD/svg11.dtd">
<svg xmlns="http://www.w3.org/2000/svg" version="1.1" width="100%" height="100%">
<style type="text/css"><![CDATA[
  .stroke { fill:none; stroke:black; stroke-width:2 }
]]></style>
<path class="stroke" d="M 20.273721416666664 9.562042 C 23.4854015 11.021896 26.697077 14.817516 28.83819583333333 19.48905" />
<path class="stroke" d="M 9.03284525 22.8707 L 39.00851166666667 22.8707" />
<path class="stroke" d="M 14.9209225 37.007298 L 33.12043716666666 37.007298" />
<path class="stroke" d="M 14.9209225 51.313866 L 33.12043716666666 51.313866" />
<path class="stroke" d="M 13.850364 64.45255 L 13.850364 85.76642" />
<path class="stroke" d="M 13.850364 64.16058 L 34.72627583333333 64.16058 L 34.72627583333333 85.76642" />
<path class="stroke" d="M 13.850364 85.76642 L 34.45863666666666 85.76642" />
<path class="stroke" d="M 75.60395968 17.2226539984 C 66.47920896 19.9881184672 60.01584256 20.709545336 48.09926848 21.686071902400002" />
<path class="stroke" d="M 47.8107392 9.767920752 L 47.8107392 36.460671583999996 C 47.8107392 39.947563731200006 51.65148416 41.8713676352 56.97425792 41.8713676352 L 84.91881344000001 41.8713676352 C 87.39009920000001 41.8713676352 88.72079104 41.270177296 88.72079104 39.707090672 L 88.72079104 38.624950976" />
<path class="stroke" d="M 49.5736032512 57.403561704 L 49.5736032512 87.187383552" />
<path class="stroke" d="M 49.5736032512 57.403561704 L 86.2133696 57.403561704 L 86.2133696 87.187383552" />
<path class="stroke" d="M 49.786626752 71.4841402864 L 86.000348288 71.4841402864" />
<path class="stroke" d="M 49.5736032512 85.8872971072 L 86.2133696 85.8872971072" />
</svg>
