<?xml version="1.0" standalone="no"?>
<!DOCTYPE svg PUBLIC "-//W3C//DTD SVG 1.1//EN" "http://www.w3.org/Graphics/SVG/1.1/DTD/svg11.dtd">
<svg xmlns="http://www.w3.org/2000/svg" version="1.1" width="100%" height="100%">
<style type="text/css"><![CDATA[
  .stroke { fill:none; stroke:black; stroke-width:2 }
]]></style>
<path class="stroke" d="M 18.891422229166665 9.562042 C 21.884124125 11.021896 24.876821749999998 14.817516 26.871955208333333 19.48905" />
<path class="stroke" d="M 8.4169694375 22.8707 L 36.34884041666667 22.8707" />
<path class="stroke" d="M 13.903586875 37.007298 L 30.862225541666664 37.007298" />
<path class="stroke" d="M 13.903586875 51.313866 L 30.862225541666664 51.313866" />
<path class="stroke" d="M 12.906021 64.45255 L 12.906021 85.76642" />
<path class="stroke" d="M 12.906021 64.16058 L 32.35857520833333 64.16058 L 32.35857520833333 85.76642" />
<path class="stroke" d="M 12.906021 85.76642 L 32.109184166666665 85.76642" />
<path class="stroke" d="M 47.81075 26.4037592 L 84.18925 26.4037592 L 84.18925 52.220759199999996" />
<path class="stroke" d="M 38.8138804 52.498425600000004 L 92.990522 52.498425600000004" />
<path class="stroke" d="M 66.19561 11.6908544 L 66.19561 52.498408000000005 C 65.022074 72.393272 54.85178 85.625656 41.1608842 89.419512" />
<path class="stroke" d="M 66.195548 52.498408000000005 C 70.36802399999999 71.282888 76.88751 85.625656 91.621438 89.14196" />
</svg>
