<?xml version="1.0" standalone="no"?>
<!DOCTYPE svg PUBLIC "-//W3C//DTD SVG 1.1//EN" "http://www.w3.org/Graphics/SVG/1.1/DTD/svg11.dtd">
<svg xmlns="http://www.w3.org/2000/svg" version="1.1" width="100%" height="100%">
<style type="text/css"><![CDATA[
  .stroke { fill:none; stroke:black; stroke-width:2 }
]]></style>
<path class="stroke" d="M 20.7344878125 9.562042 C 24.019160625 11.021896 27.30382875 14.817516 29.493609375 19.48905" />
<path class="stroke" d="M 9.2381371875 22.8707 L 39.89506875 22.8707" />
<path class="stroke" d="M 15.260034375000002 37.007298 L 33.873174375 37.007298" />
<path class="stroke" d="M 15.260034375000002 51.313866 L 33.873174375 51.313866" />
<path class="stroke" d="M 14.165145 64.45255 L 14.165145 85.76642" />
<path class="stroke" d="M 14.165145 64.16058 L 35.515509375 64.16058 L 35.515509375 85.76642" />
<path class="stroke" d="M 14.165145 85.76642 L 35.2417875 85.76642" />
<path class="stroke" d="M 49.85287909 13.220122 L 82.000001 13.220122 L 82.000001 64.87421599999999 C 82.111142 77.58493 86.72224800000001 88.132056 91.83335600000001 87.861672 L 91.83335600000001 75.42134200000001" />
<path class="stroke" d="M 48.85392608 46.21779998 L 69.49895195 38.1130886" />
<path class="stroke" d="M 63.00575871 14.06910884 C 63.00575871 71.24749539999999 53.0297293 80.68107964 46.15405361 86.5383728" />
</svg>
