<?xml version="1.0" standalone="no"?>
<!DOCTYPE svg PUBLIC "-//W3C//DTD SVG 1.1//EN" "http://www.w3.org/Graphics/SVG/1.1/DTD/svg11.dtd">
<svg xmlns="http://www.w3.org/2000/svg" version="1.1" width="100%" height="100%">
<style type="text/css"><![CDATA[
  .stroke { fill:none; stroke:black; stroke-width:2 }
]]></style>
<path class="stroke" d="M 16.587590249999998 9.562042 C 19.2153285 11.021896 21.843063 14.817516 23.5948875 19.48905" />
<path class="stroke" d="M 7.39050975 22.8707 L 31.916055 22.8707" />
<path class="stroke" d="M 12.2080275 37.007298 L 27.0985395 37.007298" />
<path class="stroke" d="M 12.2080275 51.313866 L 27.0985395 51.313866" />
<path class="stroke" d="M 11.332116000000001 64.45255 L 11.332116000000001 85.76642" />
<path class="stroke" d="M 11.332116000000001 64.16058 L 28.4124075 64.16058 L 28.4124075 85.76642" />
<path class="stroke" d="M 11.332116000000001 85.76642 L 28.19343 85.76642" />
<path class="stroke" d="M 39.451591019999995 17.4006112 L 60.913414845 17.4006112" />
<path class="stroke" d="M 37.50891915225 27.4700188 L 61.0137092775 27.410908" />
<path class="stroke" d="M 50.1825 9.7160896 L 50.1825 27.470086000000002 C 50.22820007999999 37.229088399999995 44.7553809 44.34072999999999 37.6939355625 46.151433999999995" />
<path class="stroke" d="M 50.1825 27.470043999999998 C 55.25534377499999 32.12363392 57.26620183949999 35.003634399999996 60.28248746999999 40.89454348" />
<path class="stroke" d="M 66.7451183016 17.4006112 L 89.92388803259999 17.4006112" />
<path class="stroke" d="M 64.64703268443 27.4700188 L 91.7222655927 27.4700188" />
<path class="stroke" d="M 78.33449999999999 9.7160896 L 78.33449999999999 27.470086000000002 C 78.501026118 35.50792 72.473211372 44.34072999999999 64.8468504075 46.151433999999995" />
<path class="stroke" d="M 78.33449999999999 27.470043999999998 C 78.434422005 35.596245999999994 82.93031048099999 43.589938 91.72224342300001 46.283902" />
<path class="stroke" d="M 48.685401479999996 53.13868546 L 48.685401479999996 80.6072974" />
<path class="stroke" d="M 48.88686009 53.13868546 L 80.314593 53.13868546 L 80.314593 80.6072974" />
<path class="stroke" d="M 48.89371662 62.5148524 L 80.28118595999999 62.5148524" />
<path class="stroke" d="M 48.89371662 71.74653513999999 L 80.28118595999999 71.74653513999999" />
<path class="stroke" d="M 48.88686009 80.48467000000001 L 80.11313369999999 80.48467000000001" />
<path class="stroke" d="M 52.91605782 83.427736 C 51.30437928 85.512406 44.7627363 86.92519779999999 41.74083783 87.41570529999998" />
<path class="stroke" d="M 74.03717309999999 83.4575917 C 75.77120174999999 84.51308739999999 82.27382039999999 87.67958331999999 88.5596859 87.54764451999999" />
</svg>
