<?xml version="1.0" standalone="no"?>
<!DOCTYPE svg PUBLIC "-//W3C//DTD SVG 1.1//EN" "http://www.w3.org/Graphics/SVG/1.1/DTD/svg11.dtd">
<svg xmlns="http://www.w3.org/2000/svg" version="1.1" width="100%" height="100%">
<style type="text/css"><![CDATA[
  .stroke { fill:none; stroke:black; stroke-width:2 }
]]></style>
<path class="stroke" d="M 21.19525420833333 9.562042 C 24.55291975 11.021896 27.910580500000002 14.817516 30.149022916666667 19.48905" />
<path class="stroke" d="M 9.443429125 22.8707 L 40.78162583333334 22.8707" />
<path class="stroke" d="M 15.599146250000002 37.007298 L 34.625911583333334 37.007298" />
<path class="stroke" d="M 15.599146250000002 51.313866 L 34.625911583333334 51.313866" />
<path class="stroke" d="M 14.479926 64.45255 L 14.479926 85.76642" />
<path class="stroke" d="M 14.479926 64.16058 L 36.30474291666667 64.16058 L 36.30474291666667 85.76642" />
<path class="stroke" d="M 14.479926 85.76642 L 36.02493833333333 85.76642" />
<path class="stroke" d="M 70.087588 9.313416064199998 L 70.087588 20.228392784599997" />
<path class="stroke" d="M 46.7883208 20.460628108799998 L 92.861314 20.460628108799998" />
<path class="stroke" d="M 57.725401125999994 34.18941249485 L 57.725401125999994 57.8586578439" />
<path class="stroke" d="M 57.725401125999994 34.18941249485 L 81.7849624 34.18941249485 L 81.7849624 57.631069564659995" />
<path class="stroke" d="M 57.725401125999994 56.03794615353599 L 81.7849624 56.03794615353599" />
<path class="stroke" d="M 70.0031722 56.700393977699996 L 70.0031722 85.03288757899999 C 70.0031722 85.84570485049998 69.03649419999999 86.310172715 68.3357656 86.310172715 L 67.109488 86.310172715" />
<path class="stroke" d="M 56.0729914 67.267020098 C 55.197079 71.331108444 52.5693424 74.81461245649999 48.8905096 77.6014160642" />
<path class="stroke" d="M 82.350364 67.267020098 C 85.85401300000001 69.70547390099999 88.83211359999999 72.95674418009999 90.5839384 77.83364820679998" />
</svg>
