<?xml version="1.0" standalone="no"?>
<!DOCTYPE svg PUBLIC "-//W3C//DTD SVG 1.1//EN" "http://www.w3.org/Graphics/SVG/1.1/DTD/svg11.dtd">
<svg xmlns="http://www.w3.org/2000/svg" version="1.1" width="100%" height="100%">
<style type="text/css"><![CDATA[
  .stroke { fill:none; stroke:black; stroke-width:2 }
]]></style>
<path class="stroke" d="M 17.509123041666665 9.562042 C 20.282846749999997 11.021896 23.0565665 14.817516 24.90571458333333 19.48905" />
<path class="stroke" d="M 7.801093625 22.8707 L 33.689169166666666 22.8707" />
<path class="stroke" d="M 12.88625125 37.007298 L 28.604013916666666 37.007298" />
<path class="stroke" d="M 12.88625125 51.313866 L 28.604013916666666 51.313866" />
<path class="stroke" d="M 11.961678 64.45255 L 11.961678 85.76642" />
<path class="stroke" d="M 11.961678 64.16058 L 29.99087458333333 64.16058 L 29.99087458333333 85.76642" />
<path class="stroke" d="M 11.961678 85.76642 L 29.759731666666664 85.76642" />
<path class="stroke" d="M 42.3540142 17.445253 C 45.01094835 18.029196 47.6678825 20.364962 49.5656914 24.160583" />
<path class="stroke" d="M 41.02554745 47.226276 C 43.6824803 47.226276 46.90875855 46.934303 50.5145965 43.138683 C 45.580290500000004 53.357662 44.251824400000004 58.321167 44.821167200000005 60.9489 C 45.2007295 63.284668 48.6167876 65.62044 49.37591155 68.832115 C 50.32481665 72.33576 46.7840099 80.26506 42.1642324 83.722626" />
<path class="stroke" d="M 42.1642324 84.014595 C 60.8004006 81.65476 61.3321175 91.313866 93.78466750000001 90.14598" />
<path class="stroke" d="M 62.864598125 17.956202400000002 C 64.591605225 20.7591232 66.18576643 24.029196 67.2177765 28.85808" />
<path class="stroke" d="M 88.76970689999999 17.956202400000002 C 87.97262652500001 22.160584 86.5113144 25.664233600000003 84.51861232499999 28.700729600000003" />
<path class="stroke" d="M 59.941969779999994 38.5109464 L 92.09087475000001 38.5109464" />
<path class="stroke" d="M 75.95 11.683168000000002 L 76.0164209 76.316832" />
<path class="stroke" d="M 73.49233433500001 40.6131376 C 70.758177 51.74864 65.2364335 63.07128 58.613503550000004 69.1094848" />
<path class="stroke" d="M 78.67335563500001 40.846712000000004 C 80.90608750000001 51.83272 86.4614555 63.73792 93.15364555 69.34306000000001" />
</svg>
