<?xml version="1.0" standalone="no"?>
<!DOCTYPE svg PUBLIC "-//W3C//DTD SVG 1.1//EN" "http://www.w3.org/Graphics/SVG/1.1/DTD/svg11.dtd">
<svg xmlns="http://www.w3.org/2000/svg" version="1.1" width="100%" height="100%">
<style type="text/css"><![CDATA[
  .stroke { fill:none; stroke:black; stroke-width:2 }
]]></style>
<path class="stroke" d="M 17.969889437499997 9.562042 C 20.816605875 11.021896 23.66331825 14.817516 25.561128125 19.48905" />
<path class="stroke" d="M 8.0063855625 22.8707 L 34.57572625 22.8707" />
<path class="stroke" d="M 13.225363125000001 37.007298 L 29.356751125 37.007298" />
<path class="stroke" d="M 13.225363125000001 51.313866 L 29.356751125 51.313866" />
<path class="stroke" d="M 12.276459000000001 64.45255 L 12.276459000000001 85.76642" />
<path class="stroke" d="M 12.276459000000001 64.16058 L 30.780108124999998 64.16058 L 30.780108124999998 85.76642" />
<path class="stroke" d="M 12.276459000000001 85.76642 L 30.542882499999997 85.76642" />
<path class="stroke" d="M 45.23036662 17.958115 L 88.76963140000001 17.958115" />
<path class="stroke" d="M 50.33663416 29.20792 L 50.33663416 57.8534" />
<path class="stroke" d="M 50.33663416 29.20792 L 85.24502284 29.20792 L 85.24502284 58.167534" />
<path class="stroke" d="M 50.53267198 43.465347 L 84.83036200000001 43.465347" />
<path class="stroke" d="M 50.53267198 57.72277 L 84.20837536 57.72277" />
<path class="stroke" d="M 67.4146582 9.790575 L 67.4146582 90.20942" />
<path class="stroke" d="M 67.20823 57.2556 C 60.92992522 72.33576 53.51649832 85.7412 45.23036662 88.95288" />
<path class="stroke" d="M 67.20823 57.2556 C 72.68466975999999 72.9197 81.2981905 86.39163 89.391622 89.89529" />
</svg>
