<?xml version="1.0" standalone="no"?>
<!DOCTYPE svg PUBLIC "-//W3C//DTD SVG 1.1//EN" "http://www.w3.org/Graphics/SVG/1.1/DTD/svg11.dtd">
<svg xmlns="http://www.w3.org/2000/svg" version="1.1" width="100%" height="100%">
<style type="text/css"><![CDATA[
  .stroke { fill:none; stroke:black; stroke-width:2 }
]]></style>
<path class="stroke" d="M 14.251823850000003 9.854013 C 13.448904150000002 19.781021 8.310218400000002 30.29197 5.2591231 32.627735" />
<path class="stroke" d="M 11.84306475 25.036495 L 11.84306475 90.43795" />
<path class="stroke" d="M 30.952551850000003 10.145985 C 29.98904865 16.569342 28.2226263 22.116787 25.6532837 25.328465" />
<path class="stroke" d="M 11.84306475 24.76344 L 41.551092 24.76344" />
<path class="stroke" d="M 26.456204500000002 25.328465 L 26.456204500000002 90.43795" />
<path class="stroke" d="M 11.84306475 47.79185 L 39.463501 47.79185" />
<path class="stroke" d="M 11.84306475 69.124084 L 39.6240845 69.124084" />
<path class="stroke" d="M 11.84306475 90.43795 L 44.7627708 90.43795" />
<path class="stroke" d="M 59.25182385 9.854013 C 58.448904150000004 19.781021 53.310218400000004 30.29197 50.2591231 32.627735" />
<path class="stroke" d="M 56.843064749999996 25.036495 L 56.843064749999996 90.43795" />
<path class="stroke" d="M 75.95255185 10.145985 C 74.98904865 16.569342 73.2226263 22.116787 70.6532837 25.328465" />
<path class="stroke" d="M 56.843064749999996 24.76344 L 86.551092 24.76344" />
<path class="stroke" d="M 71.4562045 25.328465 L 71.4562045 90.43795" />
<path class="stroke" d="M 56.843064749999996 47.79185 L 84.46350100000001 47.79185" />
<path class="stroke" d="M 56.843064749999996 69.124084 L 84.62408450000001 69.124084" />
<path class="stroke" d="M 56.843064749999996 90.43795 L 89.7627708 90.43795" />
</svg>
