<?xml version="1.0" standalone="no"?>
<!DOCTYPE svg PUBLIC "-//W3C//DTD SVG 1.1//EN" "http://www.w3.org/Graphics/SVG/1.1/DTD/svg11.dtd">
<svg xmlns="http://www.w3.org/2000/svg" version="1.1" width="100%" height="100%">
<style type="text/css"><![CDATA[
  .stroke { fill:none; stroke:black; stroke-width:2 }
]]></style>
<path class="stroke" d="M 14.251823850000003 7.04014533 C 13.448904150000002 11.110218609999999 8.310218400000002 15.419707699999998 5.2591231 16.377371349999997" />
<path class="stroke" d="M 11.84306475 13.26496295 L 11.84306475 40.079559499999995" />
<path class="stroke" d="M 30.952551850000003 7.159853849999999 C 29.98904865 9.79343022 28.2226263 12.06788267 25.6532837 13.38467065" />
<path class="stroke" d="M 11.84306475 13.1530104 L 41.551092 13.1530104" />
<path class="stroke" d="M 26.456204500000002 13.38467065 L 26.456204500000002 40.079559499999995" />
<path class="stroke" d="M 11.84306475 22.594658499999998 L 39.463501 22.594658499999998" />
<path class="stroke" d="M 11.84306475 31.340874439999997 L 39.6240845 31.340874439999997" />
<path class="stroke" d="M 11.84306475 40.079559499999995 L 44.7627708 40.079559499999995" />
<path class="stroke" d="M 59.25182385 7.04014533 C 58.448904150000004 11.110218609999999 53.310218400000004 15.419707699999998 50.2591231 16.377371349999997" />
<path class="stroke" d="M 56.843064749999996 13.26496295 L 56.843064749999996 40.079559499999995" />
<path class="stroke" d="M 75.95255185 7.159853849999999 C 74.98904865 9.79343022 73.2226263 12.06788267 70.6532837 13.38467065" />
<path class="stroke" d="M 56.843064749999996 13.1530104 L 86.551092 13.1530104" />
<path class="stroke" d="M 71.4562045 13.38467065 L 71.4562045 40.079559499999995" />
<path class="stroke" d="M 56.843064749999996 22.594658499999998 L 84.46350100000001 22.594658499999998" />
<path class="stroke" d="M 56.843064749999996 31.340874439999997 L 84.62408450000001 31.340874439999997" />
<path class="stroke" d="M 56.843064749999996 40.079559499999995 L 89.7627708 40.079559499999995" />
<path class="stroke" d="M 40.610216 46.087591 C 46.216054400000004 46.6131376 52.382479999999994 47.6642332 57.98832032 49.766422" />
<path class="stroke" d="M 11.45985248 54.7185694 L 87.97955839999999 54.7185694" />
<path class="stroke" d="M 32.0934464 62.719310199999995 L 66.6010304 62.719310199999995" />
<path class="stroke" d="M 30.282079999999997 70.7063524 L 68.504672 70.7063524" />
<path class="stroke" d="M 29.980256 79.104979 L 29.980256 95.556241" />
<path class="stroke" d="M 29.98016 78.916354 L 68.80649600000001 78.916354 L 68.80649600000001 95.37436" />
<path class="stroke" d="M 29.9811776 93.48757 L 68.5055936 93.48763" />
</svg>
