<?xml version="1.0" standalone="no"?>
<!DOCTYPE svg PUBLIC "-//W3C//DTD SVG 1.1//EN" "http://www.w3.org/Graphics/SVG/1.1/DTD/svg11.dtd">
<svg xmlns="http://www.w3.org/2000/svg" version="1.1" width="100%" height="100%">
<style type="text/css"><![CDATA[
  .stroke { fill:none; stroke:black; stroke-width:2 }
]]></style>
<path class="stroke" d="M 19.352188625 9.562042 C 22.41788325 11.021896 25.4835735 14.817516 27.52736875 19.48905" />
<path class="stroke" d="M 8.622261375 22.8707 L 37.235397500000005 22.8707" />
<path class="stroke" d="M 14.24269875 37.007298 L 31.61496275 37.007298" />
<path class="stroke" d="M 14.24269875 51.313866 L 31.61496275 51.313866" />
<path class="stroke" d="M 13.220802 64.45255 L 13.220802 85.76642" />
<path class="stroke" d="M 13.220802 64.16058 L 33.147808749999996 64.16058 L 33.147808749999996 85.76642" />
<path class="stroke" d="M 13.220802 85.76642 L 32.892335 85.76642" />
<path class="stroke" d="M 67.5 9.98266532 L 67.5 18.5" />
<path class="stroke" d="M 42.425 18.5 L 92.57499999999999 18.5" />
<path class="stroke" d="M 52.547590824 27.890875625 L 52.547590824 41.55510875" />
<path class="stroke" d="M 52.547590824 27.890875625 L 82.59021759999999 27.890875625 L 82.59021759999999 41.423722250000004" />
<path class="stroke" d="M 52.547590824 40.5040136 L 82.59021759999999 40.5040136" />
<path class="stroke" d="M 54.14963399 52.545619733 L 83.08977945 52.545619733 C 79.81678690000001 57.18094824200001 75.50142247 60.607182200000004 67.31098406 62.320334900000006" />
<path class="stroke" d="M 67.12544439999999 62.320334900000006 C 70.2795254 67.98608239999999 69.82554695 83.96284649000002 67.4138659 86.5380263 C 66.38029209999999 87.56809866500001 65.3467124 87.82561841 63.624085269999995 87.95437718000001" />
<path class="stroke" d="M 43.81386767 66.08526656000001 L 91.5306528 66.08526656000001" />
</svg>
