<?xml version="1.0" standalone="no"?>
<!DOCTYPE svg PUBLIC "-//W3C//DTD SVG 1.1//EN" "http://www.w3.org/Graphics/SVG/1.1/DTD/svg11.dtd">
<svg xmlns="http://www.w3.org/2000/svg" version="1.1" width="100%" height="100%">
<style type="text/css"><![CDATA[
  .stroke { fill:none; stroke:black; stroke-width:2 }
]]></style>
<path class="stroke" d="M 21.19525420833333 9.562042 C 24.55291975 11.021896 27.910580500000002 14.817516 30.149022916666667 19.48905" />
<path class="stroke" d="M 9.443429125 22.8707 L 40.78162583333334 22.8707" />
<path class="stroke" d="M 15.599146250000002 37.007298 L 34.625911583333334 37.007298" />
<path class="stroke" d="M 15.599146250000002 51.313866 L 34.625911583333334 51.313866" />
<path class="stroke" d="M 14.479926 64.45255 L 14.479926 85.76642" />
<path class="stroke" d="M 14.479926 64.16058 L 36.30474291666667 64.16058 L 36.30474291666667 85.76642" />
<path class="stroke" d="M 14.479926 85.76642 L 36.02493833333333 85.76642" />
<path class="stroke" d="M 58.916405 8.820183 C 57.297095 23.205 53.075185000000005 37.305930000000004 45.730281500000004 46.29648" />
<path class="stroke" d="M 57.354845 23.29968 L 91.534705 23.58354 L 91.36118 55.381710000000005 C 91.014185 69.76659000000001 87.37071 86.42271000000001 81.12463500000001 86.61198 L 78.52209 86.61198" />
<path class="stroke" d="M 61.301787131 38.97372225 L 61.301787131 72.083208" />
<path class="stroke" d="M 61.301787131 38.97372225 L 78.15025425 38.97372225 L 78.15025425 72.083208" />
<path class="stroke" d="M 61.3997440725 54.626539349999994 L 78.052298315 54.626539349999994" />
<path class="stroke" d="M 61.301787131 70.63795379999999 L 78.15025425 70.63795379999999" />
</svg>
