<?xml version="1.0" standalone="no"?>
<!DOCTYPE svg PUBLIC "-//W3C//DTD SVG 1.1//EN" "http://www.w3.org/Graphics/SVG/1.1/DTD/svg11.dtd">
<svg xmlns="http://www.w3.org/2000/svg" version="1.1" width="100%" height="100%">
<style type="text/css"><![CDATA[
  .stroke { fill:none; stroke:black; stroke-width:2 }
]]></style>
<path class="stroke" d="M 15.058394 13.4 L 46.941604000000005 13.4" />
<path class="stroke" d="M 31.0 5.7956204 L 31.0 22.145984000000002" />
<path class="stroke" d="M 5.83596 24.76342 L 94.164 24.76342" />
<path class="stroke" d="M 60.7256 5.83596 L 60.7256 24.7634 C 61.1462 52.7339 77.0242 93.0074 89.7476 93.2176 L 89.7476 82.4922" />
<path class="stroke" d="M 90.3785 44.637257 C 81.5457 68.82226 66.4037 86.38276 44.9526 92.586754" />
<path class="stroke" d="M 82.1767 7.09779 C 85.7519 9.62145 88.0652 11.82965 90.3785 15.93065" />
<path class="stroke" d="M 16.80656827 35.61678741 C 15.916057330000001 41.27518197 10.21678768 47.266422899999995 6.83284562 48.59780895" />
<path class="stroke" d="M 14.135035449999998 44.270802149999994 L 14.135035449999998 81.5496315" />
<path class="stroke" d="M 35.32919387 35.783211449999996 C 34.26058123 39.44452494 32.30145826 42.606568589999995 29.45182374 44.43722505" />
<path class="stroke" d="M 14.135035449999998 44.1151608 L 47.083938399999994 44.1151608" />
<path class="stroke" d="M 30.3423359 44.43722505 L 30.3423359 81.5496315" />
<path class="stroke" d="M 14.135035449999998 57.2413545 L 44.7686102 57.2413545" />
<path class="stroke" d="M 14.135035449999998 69.40072788 L 44.9467119 69.40072788" />
<path class="stroke" d="M 14.135035449999998 81.5496315 L 50.645982159999996 81.5496315" />
</svg>
