<?xml version="1.0" standalone="no"?>
<!DOCTYPE svg PUBLIC "-//W3C//DTD SVG 1.1//EN" "http://www.w3.org/Graphics/SVG/1.1/DTD/svg11.dtd">
<svg xmlns="http://www.w3.org/2000/svg" version="1.1" width="100%" height="100%">
<style type="text/css"><![CDATA[
  .stroke { fill:none; stroke:black; stroke-width:2 }
]]></style>
<path class="stroke" d="M 15.058394 13.4 L 46.941604000000005 13.4" />
<path class="stroke" d="M 31.0 5.7956204 L 31.0 22.145984000000002" />
<path class="stroke" d="M 5.83596 24.76342 L 94.164 24.76342" />
<path class="stroke" d="M 60.7256 5.83596 L 60.7256 24.7634 C 61.1462 52.7339 77.0242 93.0074 89.7476 93.2176 L 89.7476 82.4922" />
<path class="stroke" d="M 90.3785 44.637257 C 81.5457 68.82226 66.4037 86.38276 44.9526 92.586754" />
<path class="stroke" d="M 82.1767 7.09779 C 85.7519 9.62145 88.0652 11.82965 90.3785 15.93065" />
<path class="stroke" d="M 12.198539848000001 35.003503112000004 L 12.198539848000001 54.42773527999999" />
<path class="stroke" d="M 12.198539848000001 34.926422768 L 49.943354656 34.926422768 L 49.943354656 54.42773527999999" />
<path class="stroke" d="M 31.070946280000005 35.003503112000004 L 31.070946280000005 53.0402912" />
<path class="stroke" d="M 12.198539848000001 43.978163312 L 49.65956176 43.978163312" />
<path class="stroke" d="M 12.198539848000001 53.0402912 L 49.943354656 53.0402912" />
<path class="stroke" d="M 12.09149878 64.7662634 L 50.0788804 64.7662634" />
<path class="stroke" d="M 22.482650200000002 57.9163973 L 22.482650200000002 74.09369228" />
<path class="stroke" d="M 39.5173498 57.7706594 L 39.5173498 74.0936738" />
<path class="stroke" d="M 7.49211358 74.2394348 L 54.848589700000005 74.2394348" />
<path class="stroke" d="M 21.11989 77.76846800000001 C 19.529968 81.30791599999999 15.89593 83.223368 11.750782000000001 84.26437279999999" />
<path class="stroke" d="M 39.517366 77.7684284 C 41.67504400000001 81.2662172 44.684518000000004 83.01511160000001 48.88642000000001 84.2643332" />
</svg>
