<?xml version="1.0" standalone="no"?>
<!DOCTYPE svg PUBLIC "-//W3C//DTD SVG 1.1//EN" "http://www.w3.org/Graphics/SVG/1.1/DTD/svg11.dtd">
<svg xmlns="http://www.w3.org/2000/svg" version="1.1" width="100%" height="100%">
<style type="text/css"><![CDATA[
  .stroke { fill:none; stroke:black; stroke-width:2 }
]]></style>
<path class="stroke" d="M 13.154171785714285 6.748514879999999 C 16.654879285714284 7.7465352 20.15558785714286 9.17227776 23.01980357142857 10.883168159999999" />
<path class="stroke" d="M 10.926448928571428 18.29703024 C 14.108912142857141 19.152475199999998 17.927864999999997 20.43564336 20.473834285714286 22.1465352" />
<path class="stroke" d="M 10.608203571428572 41.108908799999995 C 11.321795357142857 41.96288448 13.310014285714285 43.15051392 15.629600357142856 43.15051392 C 17.949189642857142 43.15051392 21.110325 36.831681599999996 23.33804892857143 33.4099008" />
<path class="stroke" d="M 59.204145008000005 4.8339852624 L 59.204145008000005 26.377224048000002 C 59.204145008000005 26.995267656 57.941019088000004 27.34843608 57.025400384 27.34843608 L 55.42306432 27.34843608" />
<path class="stroke" d="M 41.002042096 12.868553376000001 C 39.85751656000001 15.958772927999998 36.423940736000006 18.607532328 31.616932544 20.726540150399995" />
<path class="stroke" d="M 75.33780895999999 12.868553376000001 C 79.91591032 14.722685711999999 83.80729510399999 17.1948610512 86.096346176 20.903123001599997" />
<path class="stroke" d="M 76.5678 22.08608256 C 69.96924960000001 30.549411839999998 55.5271728 38.62511616 39.9646176 41.9523072" />
<path class="stroke" d="M 50.3155 48.3328063 L 50.3155 55.572547" />
<path class="stroke" d="M 6.15142 55.572547 L 93.2177 55.572547" />
<path class="stroke" d="M 50.3155 55.572547 C 40.2209 65.118319 25.7098 72.089917 7.09779 76.487392" />
<path class="stroke" d="M 30.4416 68.764972 L 30.4416 91.288663 M 11.1987 93.219217 C 27.8128 92.736604 44.4269 91.771327 59.1482 88.231876" />
<path class="stroke" d="M 88.48578 64.0993237 C 79.96848 67.9605847 70.50478 70.6955617 60.09458 72.1435537" />
<path class="stroke" d="M 50.0 55.572547 C 56.8349 74.610439 71.2408 84.960532 90.694 92.575648" />
</svg>
