<?xml version="1.0" standalone="no"?>
<!DOCTYPE svg PUBLIC "-//W3C//DTD SVG 1.1//EN" "http://www.w3.org/Graphics/SVG/1.1/DTD/svg11.dtd">
<svg xmlns="http://www.w3.org/2000/svg" version="1.1" width="100%" height="100%">
<style type="text/css"><![CDATA[
  .stroke { fill:none; stroke:black; stroke-width:2 }
]]></style>
<path class="stroke" d="M 10.5678 7.41324 L 10.5678 57.8864" />
<path class="stroke" d="M 10.5678 7.09779 L 46.8454 7.09779" />
<path class="stroke" d="M 27.60251 7.09779 L 27.60251 57.571" />
<path class="stroke" d="M 11.1988 22.8707 L 41.7981 22.8707" />
<path class="stroke" d="M 10.5678 40.5363 L 41.4826 40.5363" />
<path class="stroke" d="M 10.5678 57.8864 L 46.8454 57.8864 C 47.1609 70.8202 44.6372 92.2713 37.3817 92.5868 L 29.4953 92.5868" />
<path class="stroke" d="M 8.044155 68.92747 C 9.621445 74.81597 9.621445 80.38917 8.044155 86.59307" />
<path class="stroke" d="M 16.56152 67.98113 C 19.08532 73.13363 19.71612 77.33953 19.71612 82.80753" />
<path class="stroke" d="M 24.76344 66.71927 C 27.28714 70.82017 28.54894 74.29017 29.49524 78.39107" />
<path class="stroke" d="M 32.96534 65.45733 C 34.85814 68.50673 36.11984 71.55623 37.38164 74.92113" />
<path class="stroke" d="M 64.9762371 6.0990096000000005 L 87.794061 6.0990096000000005 C 82.6019789 21.663366800000002 73.85742536000001 29.267328 58.5544554 35.920792" />
<path class="stroke" d="M 64.42970282 9.6633668 C 66.46451466 17.0322572 73.58709578 23.0967744 75.96128872 25.806452000000004 C 80.26451420000001 29.935484000000002 87.98064344 33.032256000000004 95.3089108 35.920792" />
<path class="stroke" d="M 62.964963 54.06058396 L 62.964963 74.47809772" />
<path class="stroke" d="M 62.964963 54.24452443 L 91.30364940000001 54.24452443 L 91.30364940000001 74.6620426" />
<path class="stroke" d="M 62.964963 72.13759984000001 L 91.30364940000001 72.13759984000001" />
<path class="stroke" d="M 76.9953954 42.28832017 L 76.9953954 91.58467042000001" />
<path class="stroke" d="M 62.024816380000004 94.343797 L 91.43795376 89.0094862" />
<path class="stroke" d="M 88.75182240000001 83.1233584 C 91.03503699999999 86.4343045 92.2437928 90.11313532 93.04963000000001 94.343797" />
</svg>
