<?xml version="1.0" standalone="no"?>
<!DOCTYPE svg PUBLIC "-//W3C//DTD SVG 1.1//EN" "http://www.w3.org/Graphics/SVG/1.1/DTD/svg11.dtd">
<svg xmlns="http://www.w3.org/2000/svg" version="1.1" width="100%" height="100%">
<style type="text/css"><![CDATA[
  .stroke { fill:none; stroke:black; stroke-width:2 }
]]></style>
<path class="stroke" d="M 20.32919539 7.39050975 L 20.32919539 21.405109500000002" />
<path class="stroke" d="M 20.32919539 7.39050975 L 80.91313722 7.39050975 L 80.91313722 21.405109500000002" />
<path class="stroke" d="M 39.5031889 7.39050975 L 39.5031889 21.405109500000002" />
<path class="stroke" d="M 61.49688248 7.39050975 L 61.49688248 21.405109500000002" />
<path class="stroke" d="M 20.32919539 21.4116975 L 81.0702944 21.4116975" />
<path class="stroke" d="M 28.248173 31.976238000000002 L 28.248173 68.76788056000001" />
<path class="stroke" d="M 28.350513 31.91340196 L 76.59794 31.91340196" />
<path class="stroke" d="M 52.51272 32.031528 L 52.51272 68.76788056000001" />
<path class="stroke" d="M 28.248173 44.137226 L 72.04379 44.137226" />
<path class="stroke" d="M 28.540146 56.78539908 L 72.04379 56.78539908" />
<path class="stroke" d="M 28.248173 68.76788056000001 L 87.81021 68.76788056000001 C 87.81021 85.85401056 84.59853 92.732842 78.17518 92.732842" />
<path class="stroke" d="M 15.985401 77.4218972 C 15.109488 80.3065646 13.357662 83.635034 10.437956 85.4102192" />
<path class="stroke" d="M 29.708027 76.53430384 C 31.751823 78.7532804 33.211678 81.4160544 34.08759 85.6321164" />
<path class="stroke" d="M 48.10219 76.09051095999999 C 50.437954 78.7532804 52.189777 81.4160544 53.357662 84.5226228" />
<path class="stroke" d="M 67.37226 75.2029176 C 70.0 78.08758879999999 71.45985 79.6408768 72.62773 83.1912396" />
</svg>
