<?xml version="1.0" standalone="no"?>
<!DOCTYPE svg PUBLIC "-//W3C//DTD SVG 1.1//EN" "http://www.w3.org/Graphics/SVG/1.1/DTD/svg11.dtd">
<svg xmlns="http://www.w3.org/2000/svg" version="1.1" width="100%" height="100%">
<style type="text/css"><![CDATA[
  .stroke { fill:none; stroke:black; stroke-width:2 }
]]></style>
<path class="stroke" d="M 13.649633 7.937954916666667 L 13.649633 22.990673166666667" />
<path class="stroke" d="M 13.649633 7.937954916666667 L 86.642334 7.937954916666667 L 86.642334 22.990673166666667" />
<path class="stroke" d="M 36.75083 7.937954916666667 L 36.75083 22.990673166666667" />
<path class="stroke" d="M 63.249256 7.937954916666667 L 63.249256 22.990673166666667" />
<path class="stroke" d="M 13.649633 22.997749166666665 L 86.83168 22.997749166666665" />
<path class="stroke" d="M 15.194233037 43.176597967999996 L 53.905762075 43.176597967999996" />
<path class="stroke" d="M 34.55 32.4965397133 L 34.55 57.098814586" />
<path class="stroke" d="M 10.020801942999999 57.098814586 L 58.90080011 57.098814586" />
<path class="stroke" d="M 15.194233037 78.676597968 L 53.905762075 78.676597968" />
<path class="stroke" d="M 34.55 67.9965397133 L 34.73609227 89.8987908304" />
<path class="stroke" d="M 12.777309502000001 92.684011462 L 56.69487015 87.31251924200001" />
<path class="stroke" d="M 69.43429069700001 33.99634923 L 69.43429069700001 90.5890484" />
<path class="stroke" d="M 69.43429069700001 55.97007107 C 75.28835873 61.981749699999995 82.226522512 66.54233388 89.381503216 68.82262526" />
</svg>
