<?xml version="1.0" standalone="no"?>
<!DOCTYPE svg PUBLIC "-//W3C//DTD SVG 1.1//EN" "http://www.w3.org/Graphics/SVG/1.1/DTD/svg11.dtd">
<svg xmlns="http://www.w3.org/2000/svg" version="1.1" width="100%" height="100%">
<style type="text/css"><![CDATA[
  .stroke { fill:none; stroke:black; stroke-width:2 }
]]></style>
<path class="stroke" d="M 9.159853499999999 25.18467156 L 9.159853499999999 55.324810920000004" />
<path class="stroke" d="M 9.159853499999999 25.456202730000005 L 38.114598300000004 25.456202730000005 L 38.114598300000004 55.5963486" />
<path class="stroke" d="M 9.159853499999999 51.86979024000001 L 38.114598300000004 51.86979024000001" />
<path class="stroke" d="M 23.4952953 7.80656787 L 23.4952953 80.57737062000001" />
<path class="stroke" d="M 8.19926891 84.650367 L 38.251822319999995 76.7759082" />
<path class="stroke" d="M 35.5072968 68.0868624 C 37.840146499999996 72.9744495 39.07517959999999 78.40510452 39.898535 84.650367" />
<path class="stroke" d="M 47.20875778 9.854013 L 85.6788292 9.854013" />
<path class="stroke" d="M 47.05109452 9.854013 L 47.05109452 31.167881 C 47.05109452 74.67153 45.001458639999996 81.386856 42.506930260000004 90.09901" />
<path class="stroke" d="M 53.72992624 27.8430648 L 91.8496312 27.8430648" />
<path class="stroke" d="M 70.1270056 43.726276999999996 L 85.12262559999999 43.726276999999996 C 84.42189567999999 69.04014145 81.0583912 77.72627359999998 79.65693135999999 81.6970775 C 78.255472 84.67518 76.01313615999999 90.135036 74.3313856 88.894155 L 72.78978015999999 87.6532825" />
<path class="stroke" d="M 71.38832031999999 27.8430648 C 71.10802720000001 48.937955099999996 62.8394152 74.996349 54.85109392 86.1642321" />
</svg>
