<?xml version="1.0" standalone="no"?>
<!DOCTYPE svg PUBLIC "-//W3C//DTD SVG 1.1//EN" "http://www.w3.org/Graphics/SVG/1.1/DTD/svg11.dtd">
<svg xmlns="http://www.w3.org/2000/svg" version="1.1" width="100%" height="100%">
<style type="text/css"><![CDATA[
  .stroke { fill:none; stroke:black; stroke-width:2 }
]]></style>
<path class="stroke" d="M 8.7700725 27.080292 L 8.7700725 59.489044" />
<path class="stroke" d="M 8.7700725 27.372261 L 36.492700500000005 27.372261 L 36.492700500000005 59.78102" />
<path class="stroke" d="M 8.7700725 55.773968 L 36.492700500000005 55.773968" />
<path class="stroke" d="M 22.4954955 8.394159 L 22.4954955 86.642334" />
<path class="stroke" d="M 7.850363850000001 91.0219 L 36.624085199999996 82.55474" />
<path class="stroke" d="M 33.996348 73.21168 C 36.229927499999995 78.46715 37.412406 84.306564 38.200725000000006 91.0219" />
<path class="stroke" d="M 66.78546 6.78234 C 60.709758 11.1987 54.29337 13.4069 48.217668 14.3533" />
<path class="stroke" d="M 45.6624582 31.07257 L 92.84856 31.07257" />
<path class="stroke" d="M 58.097805 11.829728 L 58.097805 88.485825 C 57.984243 91.955826 56.678253 94.164024 55.201893 94.164024 L 52.305981 94.164024" />
<path class="stroke" d="M 46.6845378 60.72553 C 51.9085356 56.09883 59.1766656 53.04943 66.1041096 52.20813" />
<path class="stroke" d="M 73.769766 6.46687 L 73.769766 39.5899 C 73.99689000000001 67.5604 83.593068 93.3229 90.463704 93.5331 L 90.463704 82.8077" />
<path class="stroke" d="M 90.80439000000001 44.637257 C 86.034678 68.82226 78.028368 87.644554 66.444774 93.84856" />
<path class="stroke" d="M 82.1167404 10.88328 C 84.0473484 13.40694 85.2965304 15.61514 86.5457124 19.71614" />
</svg>
