<?xml version="1.0" standalone="no"?>
<!DOCTYPE svg PUBLIC "-//W3C//DTD SVG 1.1//EN" "http://www.w3.org/Graphics/SVG/1.1/DTD/svg11.dtd">
<svg xmlns="http://www.w3.org/2000/svg" version="1.1" width="100%" height="100%">
<style type="text/css"><![CDATA[
  .stroke { fill:none; stroke:black; stroke-width:2 }
]]></style>
<path class="stroke" d="M 9.744525 25.18467156 L 9.744525 55.324810920000004" />
<path class="stroke" d="M 9.744525 25.456202730000005 L 40.547445 25.456202730000005 L 40.547445 55.5963486" />
<path class="stroke" d="M 9.744525 51.86979024000001 L 40.547445 51.86979024000001" />
<path class="stroke" d="M 24.994995 7.80656787 L 24.994995 80.57737062000001" />
<path class="stroke" d="M 8.7226265 84.650367 L 40.693428 76.7759082" />
<path class="stroke" d="M 37.77372 68.0868624 C 40.255475 72.9744495 41.56934 78.40510452 42.44525 84.650367" />
<path class="stroke" d="M 51.475707998000004 8.894082631578947 C 54.213905138 12.269977368421053 55.993695738 15.147872105263158 57.63660273799999 18.855872631578947" />
<path class="stroke" d="M 62.29151878 7.3998 C 64.89278458 10.609736842105264 66.39872118 13.321526315789473 68.31543878 17.527631578947368" />
<path class="stroke" d="M 84.19683115999999 6.901705263157894 C 82.41704056 11.32917894736842 80.08958536 15.2586 77.21450896 19.18796842105263" />
<path class="stroke" d="M 50.2239634 23.63094296 L 50.2239634 61.1388106" />
<path class="stroke" d="M 50.2239634 23.63094296 L 88.1672194 23.63094296 L 88.1672194 61.1388106" />
<path class="stroke" d="M 50.4195672 42.5141588 L 88.16721319999999 42.5141588" />
<path class="stroke" d="M 50.2239634 61.1388106 L 88.1672194 61.1388106" />
<path class="stroke" d="M 42.987373 77.1766576 L 95.01262700000001 77.1766576" />
<path class="stroke" d="M 69.19561 24.1482662 L 69.19561 94.50786599999999" />
</svg>
