<?xml version="1.0" standalone="no"?>
<!DOCTYPE svg PUBLIC "-//W3C//DTD SVG 1.1//EN" "http://www.w3.org/Graphics/SVG/1.1/DTD/svg11.dtd">
<svg xmlns="http://www.w3.org/2000/svg" version="1.1" width="100%" height="100%">
<style type="text/css"><![CDATA[
  .stroke { fill:none; stroke:black; stroke-width:2 }
]]></style>
<path class="stroke" d="M 9.744525 25.18467156 L 9.744525 55.324810920000004" />
<path class="stroke" d="M 9.744525 25.456202730000005 L 40.547445 25.456202730000005 L 40.547445 55.5963486" />
<path class="stroke" d="M 9.744525 51.86979024000001 L 40.547445 51.86979024000001" />
<path class="stroke" d="M 24.994995 7.80656787 L 24.994995 80.57737062000001" />
<path class="stroke" d="M 8.7226265 84.650367 L 40.693428 76.7759082" />
<path class="stroke" d="M 37.77372 68.0868624 C 40.255475 72.9744495 41.56934 78.40510452 42.44525 84.650367" />
<path class="stroke" d="M 48.1056931312 10.005838520000001 L 48.1056931312 42.3795588" />
<path class="stroke" d="M 48.1056931312 9.87737128 L 86.0369020864 9.87737128 L 86.0369020864 42.3795588" />
<path class="stroke" d="M 67.071296632 10.005838520000001 L 67.071296632 40.067152" />
<path class="stroke" d="M 48.1056931312 24.96360552 L 85.751707744 24.96360552" />
<path class="stroke" d="M 48.1056931312 40.067152 L 86.0369020864 40.067152" />
<path class="stroke" d="M 65.352407944 43.3868612 C 61.88379484 48.2919704 57.54802846 52.6715318 53.212261486 56.5255472 L 62.139832600000005 64.583" />
<path class="stroke" d="M 75.237952558 53.5474442 C 70.0854142 58.96478 60.5677522 67.44176 51.47795434 75.4452512 L 80.44087162 72.2919692" />
<path class="stroke" d="M 78.012846724 66.861314 C 80.26744144 69.48904999999999 81.82831900000001 71.9416064 82.34860954000001 75.4452512" />
<path class="stroke" d="M 66.91328194 74.04379399999999 L 66.902356498 93.34794439999999" />
<path class="stroke" d="M 50.263940704 81.22627399999999 C 49.396787428 84.204374 48.009342423999996 86.83211359999999 45.754744144 89.109488" />
<path class="stroke" d="M 82.34860954000001 81.401456 C 84.60320782 83.328464 85.99065519999999 85.605836 87.031239844 89.109488" />
</svg>
