<?xml version="1.0" standalone="no"?>
<!DOCTYPE svg PUBLIC "-//W3C//DTD SVG 1.1//EN" "http://www.w3.org/Graphics/SVG/1.1/DTD/svg11.dtd">
<svg xmlns="http://www.w3.org/2000/svg" version="1.1" width="100%" height="100%">
<style type="text/css"><![CDATA[
  .stroke { fill:none; stroke:black; stroke-width:2 }
]]></style>
<path class="stroke" d="M 10.134306 24.91386864 L 10.134306 54.729920480000004" />
<path class="stroke" d="M 10.134306 25.18248012 L 42.1693428 25.18248012 L 42.1693428 54.9985384" />
<path class="stroke" d="M 10.134306 51.31205056 L 42.1693428 51.31205056" />
<path class="stroke" d="M 25.9947948 7.72262628 L 25.9947948 79.71094728000001" />
<path class="stroke" d="M 9.07153156 83.740148 L 42.321165119999996 75.9503608" />
<path class="stroke" d="M 39.2846688 67.3547456 C 41.865694 72.189778 43.2321136 77.56203888 44.143060000000006 83.740148" />
<path class="stroke" d="M 69.1444714 10.800613210526315 L 69.1444714 28.863381578947365" />
<path class="stroke" d="M 54.691678318 13.42066794736842 C 56.923502458 16.993468526315787 58.03941562 20.328082236842103 59.474158384000006 25.330002394736844" />
<path class="stroke" d="M 82.74890223999999 13.42066794736842 C 81.792406336 19.613521631578944 80.35766248 21.995390315789475 78.28525395999999 25.091817157894738" />
<path class="stroke" d="M 56.018247900000006 32.99634923 L 56.018247900000006 69.273719 C 56.018247900000006 77.3168333 56.018247900000006 80.69108700000001 56.018247900000006 88.49406225999999" />
<path class="stroke" d="M 56.018247900000006 32.99634923 L 82.587592 32.99634923 L 82.587592 87.1014569 C 82.587592 88.7598536 81.8284635 90.2109445 79.9306546 90.2109445 L 77.84306649999999 90.2109445" />
<path class="stroke" d="M 56.018247900000006 48.62242967 L 82.587592 48.62242967" />
<path class="stroke" d="M 56.018247900000006 65.12833856 L 82.587592 65.12833856" />
</svg>
