<?xml version="1.0" standalone="no"?>
<!DOCTYPE svg PUBLIC "-//W3C//DTD SVG 1.1//EN" "http://www.w3.org/Graphics/SVG/1.1/DTD/svg11.dtd">
<svg xmlns="http://www.w3.org/2000/svg" version="1.1" width="100%" height="100%">
<style type="text/css"><![CDATA[
  .stroke { fill:none; stroke:black; stroke-width:2 }
]]></style>
<path class="stroke" d="M 8.964963 27.080292 L 8.964963 59.489044" />
<path class="stroke" d="M 8.964963 27.372261 L 37.303649400000005 27.372261 L 37.303649400000005 59.78102" />
<path class="stroke" d="M 8.964963 55.773968 L 37.303649400000005 55.773968" />
<path class="stroke" d="M 22.9953954 8.394159 L 22.9953954 86.642334" />
<path class="stroke" d="M 8.02481638 91.0219 L 37.43795376 82.55474" />
<path class="stroke" d="M 34.7518224 73.21168 C 37.035036999999996 78.46715 38.2437928 84.306564 39.04963 91.0219" />
<path class="stroke" d="M 48.1666692 12.0188681 L 67.333356 12.0188681 L 67.333356 35.707577" />
<path class="stroke" d="M 48.333333 35.7075677 L 67.333356 35.7075677" />
<path class="stroke" d="M 48.0000001 12.0188681 L 48.0000001 92.150951" />
<path class="stroke" d="M 48.1666692 55.8868286 L 65.666665 55.8868286" />
<path class="stroke" d="M 48.1666692 75.7735394 L 65.666665 75.7735394" />
<path class="stroke" d="M 74.833333 12.0188681 L 92.166665 12.0188681 L 92.166665 35.707484" />
<path class="stroke" d="M 75.333335 35.7075026 L 92.166665 35.7075026" />
<path class="stroke" d="M 71.83337399999999 55.594325000000005 L 91.99998 55.594325000000005 C 89.388882 76.066043 78.61106699999999 88.05662600000001 66.166667 92.443436" />
<path class="stroke" d="M 73.83332899999999 55.886717000000004 C 74.055558 71.679233 84.11108899999999 88.056533 91.99998 91.85846599999999" />
</svg>
