<?xml version="1.0" standalone="no"?>
<!DOCTYPE svg PUBLIC "-//W3C//DTD SVG 1.1//EN" "http://www.w3.org/Graphics/SVG/1.1/DTD/svg11.dtd">
<svg xmlns="http://www.w3.org/2000/svg" version="1.1" width="100%" height="100%">
<style type="text/css"><![CDATA[
  .stroke { fill:none; stroke:black; stroke-width:2 }
]]></style>
<path class="stroke" d="M 9.5496345 25.18467156 L 9.5496345 55.324810920000004" />
<path class="stroke" d="M 9.5496345 25.456202730000005 L 39.736496100000004 25.456202730000005 L 39.736496100000004 55.5963486" />
<path class="stroke" d="M 9.5496345 51.86979024000001 L 39.736496100000004 51.86979024000001" />
<path class="stroke" d="M 24.4950951 7.80656787 L 24.4950951 80.57737062000001" />
<path class="stroke" d="M 8.54817397 84.650367 L 39.879559439999994 76.7759082" />
<path class="stroke" d="M 37.0182456 68.0868624 C 39.4503655 72.9744495 40.73795319999999 78.40510452 41.596345 84.650367" />
<path class="stroke" d="M 44.38801032 8.752712707894737 C 47.92116792 13.765916392105265 50.21767192 18.03959007631579 52.33755192 23.545970857894737" />
<path class="stroke" d="M 58.343895200000006 6.533702999999999 C 61.7003672 11.300459210526316 63.643511200000006 15.32746657894737 66.11669520000001 21.573532894736843" />
<path class="stroke" d="M 86.6088144 5.794032315789473 C 84.3123104 12.368830736842106 81.30914240000001 18.204021 77.59936640000001 24.039133105263158" />
<path class="stroke" d="M 47.981112 31.287734774999997 L 47.981112 80.554221 C 47.922424 86.8584915 45.398336 92.46228749999999 41.9937096 95.2641855" />
<path class="stroke" d="M 48.157232 31.054248225 L 84.081736 31.054248225 L 84.081736 80.78773724999999 C 84.02304800000002 89.7382035 87.310248 95.65332975 92.35848000000001 95.73114375 L 92.35848000000001 85.69105875" />
<path class="stroke" d="M 47.981112 46.231119 L 83.90567200000001 46.231119" />
<path class="stroke" d="M 47.981112 64.44338175 L 84.081736 64.44338175" />
<path class="stroke" d="M 65.94336960000001 31.054248225 L 65.94336960000001 93.8632365" />
</svg>
