<?xml version="1.0" standalone="no"?>
<!DOCTYPE svg PUBLIC "-//W3C//DTD SVG 1.1//EN" "http://www.w3.org/Graphics/SVG/1.1/DTD/svg11.dtd">
<svg xmlns="http://www.w3.org/2000/svg" version="1.1" width="100%" height="100%">
<style type="text/css"><![CDATA[
  .stroke { fill:none; stroke:black; stroke-width:2 }
]]></style>
<path class="stroke" d="M 9.5496345 25.99708032 L 9.5496345 57.10948224" />
<path class="stroke" d="M 9.5496345 26.27737056 L 39.736496100000004 26.27737056 L 39.736496100000004 57.3897792" />
<path class="stroke" d="M 9.5496345 53.54300928 L 39.736496100000004 53.54300928" />
<path class="stroke" d="M 24.4950951 8.05839264 L 24.4950951 83.17664064" />
<path class="stroke" d="M 8.54817397 87.381024 L 39.879559439999994 79.25255039999999" />
<path class="stroke" d="M 37.0182456 70.2832128 C 39.4503655 75.328464 40.73795319999999 80.93430144 41.596345 87.381024" />
<path class="stroke" d="M 64.8832098 6.61204269 C 60.854012999999995 13.11569325 54.021896999999996 19.908392625 47.0145972 24.2441595" />
<path class="stroke" d="M 62.781019799999996 10.369707479999999 L 78.372264 10.369707479999999 C 72.06569400000001 22.220800965 58.576640999999995 35.95072635 45.087591 43.466053949999996" />
<path class="stroke" d="M 56.124087599999996 17.45145963 C 63.0 27.94354893 77.14598219999999 37.829560725 92.036496 43.466053949999996" />
<path class="stroke" d="M 50.829648 51.68611206 L 86.791788 51.68611206" />
<path class="stroke" d="M 46.854924 67.80093408 L 90.57728399999999 67.80093408" />
<path class="stroke" d="M 44.583606 84.47794146 L 93.22710599999999 84.47794146" />
<path class="stroke" d="M 69.000009 44.003471688 L 69.000009 95.72085032399998" />
</svg>
