<?xml version="1.0" standalone="no"?>
<!DOCTYPE svg PUBLIC "-//W3C//DTD SVG 1.1//EN" "http://www.w3.org/Graphics/SVG/1.1/DTD/svg11.dtd">
<svg xmlns="http://www.w3.org/2000/svg" version="1.1" width="100%" height="100%">
<style type="text/css"><![CDATA[
  .stroke { fill:none; stroke:black; stroke-width:2 }
]]></style>
<path class="stroke" d="M 9.744525 24.3722628 L 9.744525 53.5401396" />
<path class="stroke" d="M 9.744525 24.6350349 L 40.547445 24.6350349 L 40.547445 53.802918" />
<path class="stroke" d="M 9.744525 50.1965712 L 40.547445 50.1965712" />
<path class="stroke" d="M 24.994995 7.5547431000000005 L 24.994995 77.9781006" />
<path class="stroke" d="M 8.7226265 81.91971000000001 L 40.693428 74.299266" />
<path class="stroke" d="M 37.77372 65.890512 C 40.255475 70.620435 41.56934 75.87590759999999 42.44525 81.91971000000001" />
<path class="stroke" d="M 56.83069356 7.957426005000001 C 59.1089113 9.98910864 60.16039514 12.02079213 61.912871550000006 15.830196749999999" />
<path class="stroke" d="M 82.2415841 7.957426005000001 C 80.8396025 11.512871685 79.61286859999998 14.052475620000001 77.50990033 15.576236955" />
<path class="stroke" d="M 51.573267279999996 18.87772284 L 89.60197923999999 18.87772284" />
<path class="stroke" d="M 70.12775897 19.131681779999997 L 70.12775897 40.71831822" />
<path class="stroke" d="M 54.02673272 30.05197947 L 86.62277660000001 30.05197947" />
<path class="stroke" d="M 47.01683121 40.71831822 L 93.63267515999999 40.71831822" />
<path class="stroke" d="M 68.08041 50.7216115 C 61.442143 52.819382499999996 54.431645 53.8682775 47.793378 54.3178175" />
<path class="stroke" d="M 45.0015747 62.25947074999999 L 96.55676 62.25947074999999" />
<path class="stroke" d="M 58.588342499999996 53.1191208 L 58.588342499999996 89.530766875 C 58.464265499999996 91.17901735 57.0373505 92.22791139999998 55.4242905 92.22791139999998 L 52.2602385 92.22791139999998" />
<path class="stroke" d="M 46.118291299999996 76.34462674999999 C 51.8259926 74.14694424999999 59.7670976 72.69847924999999 67.3359716 72.29886174999999" />
<path class="stroke" d="M 75.711411 50.57176325 L 75.711411 66.3052025 C 75.959565 79.59119 86.444278 91.8283775 93.95108400000001 91.92822249999999 L 93.95108400000001 86.8336575" />
<path class="stroke" d="M 94.32331500000001 68.702697075 C 89.111963 80.1905735 80.364328 89.13116314999999 67.708179 92.078066" />
<path class="stroke" d="M 84.83125340000001 52.669557999999995 C 86.9406214 53.8682965 88.3054684 54.917191499999994 89.67031539999999 56.865166499999994" />
</svg>
