<?xml version="1.0" standalone="no"?>
<!DOCTYPE svg PUBLIC "-//W3C//DTD SVG 1.1//EN" "http://www.w3.org/Graphics/SVG/1.1/DTD/svg11.dtd">
<svg xmlns="http://www.w3.org/2000/svg" version="1.1" width="100%" height="100%">
<style type="text/css"><![CDATA[
  .stroke { fill:none; stroke:black; stroke-width:2 }
]]></style>
<path class="stroke" d="M 8.7700725 27.080292 L 8.7700725 59.489044" />
<path class="stroke" d="M 8.7700725 27.372261 L 36.492700500000005 27.372261 L 36.492700500000005 59.78102" />
<path class="stroke" d="M 8.7700725 55.773968 L 36.492700500000005 55.773968" />
<path class="stroke" d="M 22.4954955 8.394159 L 22.4954955 86.642334" />
<path class="stroke" d="M 7.850363850000001 91.0219 L 36.624085199999996 82.55474" />
<path class="stroke" d="M 33.996348 73.21168 C 36.229927499999995 78.46715 37.412406 84.306564 38.200725000000006 91.0219" />
<path class="stroke" d="M 48.154558800000004 7.574126 L 48.154558800000004 38.48901" />
<path class="stroke" d="M 48.154558800000004 7.574126 L 84.38170679999999 7.574126 L 84.5646968 38.489108" />
<path class="stroke" d="M 48.337519799999995 22.722476 L 84.3817358 22.722476" />
<path class="stroke" d="M 48.154558800000004 38.48901 L 84.38170679999999 38.48901" />
<path class="stroke" d="M 45.77602694 53.0188526 L 45.77602694 83.0063626" />
<path class="stroke" d="M 45.77602694 53.0188526 L 87.3091292 53.0188526 L 87.3091292 83.00626460000001" />
<path class="stroke" d="M 45.95901694 68.1672026 L 87.3091292 68.1672026" />
<path class="stroke" d="M 45.77602694 83.0063626 L 87.3091292 83.0063626" />
<path class="stroke" d="M 66.451088 7.5741995 L 66.451088 87.6435364 C 66.451088 90.32285639999999 68.097766 93.3112684 69.744444 92.89908039999999 L 89.138832 92.89908039999999 C 90.72455199999999 92.89908039999999 92.49320399999999 91.3533264 92.432188 87.6435364 L 92.432188 82.38799239999999" />
</svg>
