<?xml version="1.0" standalone="no"?>
<!DOCTYPE svg PUBLIC "-//W3C//DTD SVG 1.1//EN" "http://www.w3.org/Graphics/SVG/1.1/DTD/svg11.dtd">
<svg xmlns="http://www.w3.org/2000/svg" version="1.1" width="100%" height="100%">
<style type="text/css"><![CDATA[
  .stroke { fill:none; stroke:black; stroke-width:2 }
]]></style>
<path class="stroke" d="M 11.742189456 14.698218591999998 L 35.057807600000004 14.698218591999998" />
<path class="stroke" d="M 23.400000000000002 7.4909778101999995 L 23.400000000000002 24.093370283999995" />
<path class="stroke" d="M 8.626276784 24.093370283999995 L 38.066275680000004 24.093370283999995" />
<path class="stroke" d="M 13.416413920000002 25.3162786036 C 15.50602832 27.328895539599998 16.43471312 30.066029996799998 17.24733072 32.80320311679999" />
<path class="stroke" d="M 33.38357504 25.4370351604 C 31.37142464 27.449663580399996 30.287922240000004 29.8245547804 29.43659104 32.8031981404" />
<path class="stroke" d="M 7.96025088 32.923981876 L 38.83974912 32.923981876" />
<path class="stroke" d="M 9.121121232 44.99968731999999 L 37.2144992 44.99968731999999" />
<path class="stroke" d="M 23.167817760000002 33.044728479999996 L 23.167817760000002 59.12826112" />
<path class="stroke" d="M 65.12904904000001 8.884671299999999 L 63.678538216 27.5124066 C 62.066858848 41.56788068 57.07091440000001 53.038745999999996 47.078247184 55.6233536" />
<path class="stroke" d="M 48.851094544 25.988319139999998 L 74.96029048 21.077370979999998 C 73.993284184 29.03649406 73.187444776 40.7211642 74.79912304 51.389776999999995 C 75.4437928 53.25255372 76.249631104 55.284668399999994 80.27882704000001 55.284668399999994 L 88.82072896 55.1153258 C 90.43240888 55.284668399999994 91.39941352000001 53.7605792 91.39941352000001 52.067147399999996 L 91.39941352000001 49.188317399999995" />
<path class="stroke" d="M 56.4259852 31.237955399999997 C 59.81050972 31.745984359999998 63.356203888 33.27007066 66.74072896 36.82627686" />
<path class="stroke" d="M 19.48905 68.29051096 L 19.48905 80.60583672" />
<path class="stroke" d="M 19.48905 68.40145918 L 81.09489 68.40145918 L 81.09489 80.7167876" />
<path class="stroke" d="M 19.48905 79.19410784 L 81.09489 79.19410784" />
<path class="stroke" d="M 49.98999 61.18978042 L 49.98999 90.92408692000001" />
<path class="stroke" d="M 17.445253 92.588322 L 81.386856 89.3708012" />
<path class="stroke" d="M 75.54744 85.8204384 C 80.51095 87.81751700000001 83.13868 90.03649432 84.8905 92.588322" />
</svg>
