<?xml version="1.0" standalone="no"?>
<!DOCTYPE svg PUBLIC "-//W3C//DTD SVG 1.1//EN" "http://www.w3.org/Graphics/SVG/1.1/DTD/svg11.dtd">
<svg xmlns="http://www.w3.org/2000/svg" version="1.1" width="100%" height="100%">
<style type="text/css"><![CDATA[
  .stroke { fill:none; stroke:black; stroke-width:2 }
]]></style>
<path class="stroke" d="M 14.444447 8.10000108 L 73.46535 8.23366296 C 62.178215 29.24554518 43.168316 39.5108928 9.90099 48.4930692" />
<path class="stroke" d="M 20.833334 9.000000720000001 C 27.096771 22.993547220000004 42.580643 31.180645440000003 47.741932 34.8387102 C 57.09677 40.412903400000005 73.870964 44.593545600000006 89.80198 48.4930692" />
<path class="stroke" d="M 41.8249227 13.836432906 C 46.2602637 15.273029466000002 48.8375377 17.179785126000002 50.395898700000004 19.830958326000005" />
<path class="stroke" d="M 14.140375 19.240707600000004 C 13.137217 23.703791400000004 10.941631000000001 27.9624636 8.575702 29.717037" />
<path class="stroke" d="M 19.48905 57.16496352 L 19.48905 75.31386464" />
<path class="stroke" d="M 19.48905 57.328466160000005 L 81.09489 57.328466160000005 L 81.09489 75.4773712" />
<path class="stroke" d="M 19.48905 73.23342208 L 81.09489 73.23342208" />
<path class="stroke" d="M 49.98999 46.70072904 L 49.98999 90.51970704000001" />
<path class="stroke" d="M 17.445253 92.972264 L 81.386856 88.23065439999999" />
<path class="stroke" d="M 75.54744 82.9985408 C 80.51095 85.94160400000001 83.13868 89.21167584 84.8905 92.972264" />
</svg>
