<?xml version="1.0" standalone="no"?>
<!DOCTYPE svg PUBLIC "-//W3C//DTD SVG 1.1//EN" "http://www.w3.org/Graphics/SVG/1.1/DTD/svg11.dtd">
<svg xmlns="http://www.w3.org/2000/svg" version="1.1" width="100%" height="100%">
<style type="text/css"><![CDATA[
  .stroke { fill:none; stroke:black; stroke-width:2 }
]]></style>
<path class="stroke" d="M 9.724186607142856 9.90099 L 45.31471116071428 9.90099" />
<path class="stroke" d="M 17.017327053571428 9.90099 L 17.017327053571428 70.19802" />
<path class="stroke" d="M 17.017327053571428 28.613861 L 37.14639107142857 28.613861" />
<path class="stroke" d="M 17.017327053571428 47.92079 L 37.14639107142857 47.92079" />
<path class="stroke" d="M 10.015911517857143 72.871284 L 37.10317678571428 63.055557" />
<path class="stroke" d="M 37.14639107142857 9.90099 L 37.14639107142857 89.80198" />
<path class="stroke" d="M 50.301887 23.05657286 L 50.301887 35.17608592" />
<path class="stroke" d="M 50.301865 22.760972 L 92.15725 22.760972 L 92.15725 35.17611599999999" />
<path class="stroke" d="M 65.176065 5.911942 L 65.176065 40.201262 C 65.06078500000001 61.287248 54.741080000000004 87.10274999999999 45.286162 88.38368799999999" />
<path class="stroke" d="M 71.22955200000001 40.201233800000004 L 71.22955200000001 80.9936618 C 70.99893700000001 85.13201179999999 73.016777 88.3836598 75.207537 88.08802979999999 L 88.87102200000001 88.3836598 C 91.061782 88.48217179999999 93.079622 85.62475979999999 92.849007 81.2892918 L 92.849007 73.01258804" />
</svg>
