<?xml version="1.0" standalone="no"?>
<!DOCTYPE svg PUBLIC "-//W3C//DTD SVG 1.1//EN" "http://www.w3.org/Graphics/SVG/1.1/DTD/svg11.dtd">
<svg xmlns="http://www.w3.org/2000/svg" version="1.1" width="100%" height="100%">
<style type="text/css"><![CDATA[
  .stroke { fill:none; stroke:black; stroke-width:2 }
]]></style>
<path class="stroke" d="M 9.016973035714285 9.90099 L 42.01909580357143 9.90099" />
<path class="stroke" d="M 15.779703267857144 9.90099 L 15.779703267857144 70.19802" />
<path class="stroke" d="M 15.779703267857144 28.613861 L 34.44483535714286 28.613861" />
<path class="stroke" d="M 15.779703267857144 47.92079 L 34.44483535714286 47.92079" />
<path class="stroke" d="M 9.287481589285715 72.871284 L 34.40476392857143 63.055557" />
<path class="stroke" d="M 34.44483535714286 9.90099 L 34.44483535714286 89.80198" />
<path class="stroke" d="M 51.2340372 15.22551667 L 51.2340372 44.1121765" />
<path class="stroke" d="M 51.44728816 15.225535289999998 L 89.1924928 15.22552157 L 89.0572928 44.205942900000004" />
<path class="stroke" d="M 70.0 7.913499999999999 L 70.0 42.0665" />
<path class="stroke" d="M 51.44728816 28.9629102 L 89.1924928 28.962895500000002" />
<path class="stroke" d="M 51.44728816 42.1708406 L 89.1924928 42.2806594" />
<path class="stroke" d="M 47.686751016 54.3296525 L 92.9956272 54.3296525" />
<path class="stroke" d="M 62.30253048 54.3296525 L 58.892134920000004 67.95743 L 84.06379572 67.95743 C 84.1179012 79.92905 80.76171408 92.326505 74.48233812000001 92.23187 L 69.44800596 92.23187" />
</svg>
