<?xml version="1.0" standalone="no"?>
<!DOCTYPE svg PUBLIC "-//W3C//DTD SVG 1.1//EN" "http://www.w3.org/Graphics/SVG/1.1/DTD/svg11.dtd">
<svg xmlns="http://www.w3.org/2000/svg" version="1.1" width="100%" height="100%">
<style type="text/css"><![CDATA[
  .stroke { fill:none; stroke:black; stroke-width:2 }
]]></style>
<path class="stroke" d="M 33.211678 7.476153230999999 C 31.751823 14.4176707725 24.160583 20.929816006499998 9.854013 26.153846768999994" />
<path class="stroke" d="M 64.46271 7.613339132399998 C 76.715324 12.628619450399999 84.59853 19.49857539 89.270065 26.296970462999997" />
<path class="stroke" d="M 51.25328356 22.2607876608 C 46.5233566 31.527239903999998 35.237173 41.904503039999994 21.92773576 49.314568704 C 41.79342883 48.14294783999999 59.057663530000006 47.610394559999996 77.95932700000002 47.6882976" />
<path class="stroke" d="M 68.75401315 41.0067127296 C 74.19342639999999 43.030421759999996 78.92335336 46.119239904000004 81.9978088 50.273164607999995" />
<path class="stroke" d="M 17.4453 66.312288 C 16.6042 74.453148 14.5012 79.811788 10.8207 85.788612" />
<path class="stroke" d="M 33.21814 61.365933999999996 L 33.21814 87.64355599999999 C 33.21814 90.425874 35.11094 92.28072 37.95004 92.28072 L 72.01944 92.28072 C 74.64824 92.28072 76.96164 90.11668399999999 77.06674 86.716084 L 77.06674 81.46054000000001" />
<path class="stroke" d="M 45.2056 61.3659536 C 50.6735 66.1062136 54.2487 71.1556636 57.5084 77.7507696" />
<path class="stroke" d="M 77.0667 61.675124 C 83.6913 67.44575599999999 87.7923 73.21678 91.8932 81.15144799999999" />
</svg>
