<?xml version="1.0" standalone="no"?>
<!DOCTYPE svg PUBLIC "-//W3C//DTD SVG 1.1//EN" "http://www.w3.org/Graphics/SVG/1.1/DTD/svg11.dtd">
<svg xmlns="http://www.w3.org/2000/svg" version="1.1" width="100%" height="100%">
<style type="text/css"><![CDATA[
  .stroke { fill:none; stroke:black; stroke-width:2 }
]]></style>
<path class="stroke" d="M 25.3649615 7.63138611 C 22.2992685 13.120437149999999 17.7737215 16.82554726 14.1240865 20.11897685 C 17.627737 22.589050099999998 21.5693415 25.6080293 25.3649615 29.31313659" />
<path class="stroke" d="M 35.87591 17.2372259 C 27.9926985 28.764231109999997 18.2116775 37.5467155 8.7226265 43.9963469 C 20.4014585 42.07517959999999 31.0583915 41.389047749999996 41.56934 41.389047749999996" />
<path class="stroke" d="M 38.64963 36.723355399999996 C 40.6151 38.707122 42.9811 42.166650999999995 43.46715 45.2313847" />
<path class="stroke" d="M 75.36496149999999 7.63138611 C 72.2992685 13.120437149999999 67.7737215 16.82554726 64.1240865 20.11897685 C 67.627737 22.589050099999998 71.56934150000001 25.6080293 75.36496149999999 29.31313659" />
<path class="stroke" d="M 85.87591 17.2372259 C 77.9926985 28.764231109999997 68.21167750000001 37.5467155 58.722626500000004 43.9963469 C 70.4014585 42.07517959999999 81.0583915 41.389047749999996 91.56934 41.389047749999996" />
<path class="stroke" d="M 88.64963 36.723355399999996 C 90.6151 38.707122 92.9811 42.166650999999995 93.46715 45.2313847" />
<path class="stroke" d="M 7.68108026 61.81081004 L 7.68108026 74.3427009 L 35.332969 74.3427009" />
<path class="stroke" d="M 36.92216052 53.30702648 C 36.92216052 84.63675570000001 33.4259429 87.76972599999999 21.983781399999998 92.8421598" />
<path class="stroke" d="M 90.3189119 61.96 L 90.3189119 75.5362146" />
<path class="stroke" d="M 62.984854799999994 73.7459452 L 90.3189119 73.7459452" />
<path class="stroke" d="M 62.0313491 53.008648722000004 L 62.0313491 92.54378080000001" />
</svg>
