<?xml version="1.0" standalone="no"?>
<!DOCTYPE svg PUBLIC "-//W3C//DTD SVG 1.1//EN" "http://www.w3.org/Graphics/SVG/1.1/DTD/svg11.dtd">
<svg xmlns="http://www.w3.org/2000/svg" version="1.1" width="100%" height="100%">
<style type="text/css"><![CDATA[
  .stroke { fill:none; stroke:black; stroke-width:2 }
]]></style>
<path class="stroke" d="M 11.929092571428571 18.17153195 L 37.95620342857143 18.17153195" />
<path class="stroke" d="M 27.278411428571427 10.6831686 L 27.278411428571427 58.594887" />
<path class="stroke" d="M 27.278411428571427 23.485400900000002 C 22.940559999999998 28.989049050000002 17.601667428571428 34.1131375 9.927006857142857 36.959853450000004" />
<path class="stroke" d="M 27.278411428571427 23.485400900000002 C 32.283626285714284 24.24452355 35.620435428571426 27.470800500000003 37.28884 30.50729695" />
<path class="stroke" d="M 52.38175101 17.599342202000003 L 52.38175101 56.64109152" />
<path class="stroke" d="M 52.38175101 17.599342202000003 L 84.44014546 17.599342202000003 L 84.44014546 56.50065395" />
<path class="stroke" d="M 52.38175101 29.525307187999996 L 84.44014546 29.525307187999996" />
<path class="stroke" d="M 52.38175101 42.91619904 L 84.44014546 42.91619904" />
<path class="stroke" d="M 52.38175101 55.23671101 L 84.44014546 55.23671101" />
<path class="stroke" d="M 17.4453 74.13248 C 16.6042 80.77808 14.5012 85.15248000000001 10.8207 90.03152" />
<path class="stroke" d="M 33.21814 70.09464 L 33.21814 91.54576 C 33.21814 93.81704 35.11094 95.33120000000001 37.95004 95.33120000000001 L 72.01944 95.33120000000001 C 74.64824 95.33120000000001 76.96164 93.56464 77.06674 90.78864 L 77.06674 86.4984" />
<path class="stroke" d="M 45.2056 70.094656 C 50.6735 73.964256 54.2487 78.086256 57.5084 83.470016" />
<path class="stroke" d="M 77.0667 70.34703999999999 C 83.6913 75.05776 87.7923 79.7688 91.8932 86.24607999999999" />
</svg>
