<?xml version="1.0" standalone="no"?>
<!DOCTYPE svg PUBLIC "-//W3C//DTD SVG 1.1//EN" "http://www.w3.org/Graphics/SVG/1.1/DTD/svg11.dtd">
<svg xmlns="http://www.w3.org/2000/svg" version="1.1" width="100%" height="100%">
<style type="text/css"><![CDATA[
  .stroke { fill:none; stroke:black; stroke-width:2 }
]]></style>
<path class="stroke" d="M 8.840169642857143 9.90099 L 41.19519196428572 9.90099" />
<path class="stroke" d="M 15.470297321428573 9.90099 L 15.470297321428573 70.19802" />
<path class="stroke" d="M 15.470297321428573 28.613861 L 33.76944642857143 28.613861" />
<path class="stroke" d="M 15.470297321428573 47.92079 L 33.76944642857143 47.92079" />
<path class="stroke" d="M 9.105374107142858 72.871284 L 33.73016071428572 63.055557" />
<path class="stroke" d="M 33.76944642857143 9.90099 L 33.76944642857143 89.80198" />
<path class="stroke" d="M 55.950728825 11.097189082300002 C 54.264597675000005 16.2020065495 51.775546825 19.6477589518 49.768247575000004 22.7106484705 C 51.69525535 25.007816592999998 53.863137825 27.815467249 55.950728825 31.2612170287" />
<path class="stroke" d="M 61.731750500000004 20.030620087 C 57.395984175 30.7507349323 52.016422625000004 38.918445415 46.797444575 44.916602617 C 53.220802175 43.129917027999994 59.082115325000004 42.4918144075 64.863137 42.4918144075" />
<path class="stroke" d="M 63.2572965 38.152720521999996 C 64.338305 39.99762346 65.639605 43.21498543 65.9069325 46.065187771000005" />
<path class="stroke" d="M 83.450728825 11.097189082300002 C 81.764597675 16.2020065495 79.27554682499999 19.6477589518 77.268247575 22.7106484705 C 79.19525535 25.007816592999998 81.36313782500001 27.815467249 83.450728825 31.2612170287" />
<path class="stroke" d="M 89.2317505 20.030620087 C 84.895984175 30.7507349323 79.516422625 38.918445415 74.29744457500001 44.916602617 C 80.720802175 43.129917027999994 86.582115325 42.4918144075 92.363137 42.4918144075" />
<path class="stroke" d="M 90.7572965 38.152720521999996 C 91.838305 39.99762346 93.139605 43.21498543 93.40693250000001 46.065187771000005" />
<path class="stroke" d="M 46.224594143 61.4840533372 L 46.224594143 73.138711837 L 61.43313295 73.138711837" />
<path class="stroke" d="M 62.307188286 53.5755346264 C 62.307188286 82.71218280100001 60.384268595 85.62584518 54.09107977 90.343208614" />
<path class="stroke" d="M 91.675401545 61.622800000000005 L 91.675401545 74.248679578" />
<path class="stroke" d="M 76.64167014 72.583729036 L 91.675401545 72.583729036" />
<path class="stroke" d="M 76.11724200500001 53.298043311460006 L 76.11724200500001 90.065716144" />
</svg>
