<?xml version="1.0" standalone="no"?>
<!DOCTYPE svg PUBLIC "-//W3C//DTD SVG 1.1//EN" "http://www.w3.org/Graphics/SVG/1.1/DTD/svg11.dtd">
<svg xmlns="http://www.w3.org/2000/svg" version="1.1" width="100%" height="100%">
<style type="text/css"><![CDATA[
  .stroke { fill:none; stroke:black; stroke-width:2 }
]]></style>
<path class="stroke" d="M 28.389568999999998 5.835962 C 28.043649 9.831762 27.252874 13.196672 25.127768999999997 15.930572" />
<path class="stroke" d="M 15.787036 15.930615 L 15.787036 66.719215 C 15.737639 79.02212 13.612487 87.224014 7.780736399999999 93.21771" />
<path class="stroke" d="M 15.787036 15.930615 L 39.657725 15.930615 L 39.657725 87.53941 C 39.707169 91.32491 38.866997 92.902214 37.58201699999999 92.902214 L 35.358024 92.902214" />
<path class="stroke" d="M 24.682961 26.97159 C 27.401159 29.49519 29.081456 33.59619 30.613561999999998 39.27439" />
<path class="stroke" d="M 27.886302399999998 59.69863 L 27.886302399999998 81.39726" />
<path class="stroke" d="M 7.0394336 49.6845 L 47.664033999999994 49.6845" />
<path class="stroke" d="M 71.0 7.381726400000005 L 71.0 20.0" />
<path class="stroke" d="M 48.9 20.0 L 93.1 20.0" />
<path class="stroke" d="M 71.37955996 24.27737092 C 68.19123924 34.087589799999996 63.48467036 40.709488719999996 59.689049960000006 46.595618200000004 C 63.33284648 51.0102172 67.43211516 56.4058396 71.37955996 63.027733479999995" />
<path class="stroke" d="M 82.3109464 41.4452548 C 74.11240644 62.046710919999995 63.940144599999996 77.743066 54.07153156 89.2700668 C 66.21751684 85.8364912 77.30072716000001 84.610213 88.23211359999999 84.610213" />
<path class="stroke" d="M 85.1956152 76.2715288 C 87.23970399999999 79.81698399999999 89.700344 85.99997199999999 90.205836 91.4773684" />
</svg>
