<?xml version="1.0" standalone="no"?>
<!DOCTYPE svg PUBLIC "-//W3C//DTD SVG 1.1//EN" "http://www.w3.org/Graphics/SVG/1.1/DTD/svg11.dtd">
<svg xmlns="http://www.w3.org/2000/svg" version="1.1" width="100%" height="100%">
<style type="text/css"><![CDATA[
  .stroke { fill:none; stroke:black; stroke-width:2 }
]]></style>
<path class="stroke" d="M 23.613138 8.978102 C 20.69343 17.153284 17.043795 24.452553 13.3941595 30.875912 L 20.90895 44.305" />
<path class="stroke" d="M 31.9343035 25.912407 C 27.59715 34.9413 19.58565 49.0696 11.934305 62.408752 L 36.313865 57.153282" />
<path class="stroke" d="M 34.270073 48.10219 C 36.16788 52.48175 37.48175 56.569344 37.919705 62.408752" />
<path class="stroke" d="M 24.927005 60.07299 L 24.9178085 92.246574" />
<path class="stroke" d="M 10.912408 72.04379 C 10.182481 77.00729 9.014598 81.386856 7.116788 85.18248" />
<path class="stroke" d="M 37.919705 72.33576 C 39.817515 75.54744 40.9854 79.34306 41.861313 85.18248" />
<path class="stroke" d="M 69.9130569434 10.07080263 L 69.9130569434 54.9525501 C 69.9130569434 56.240140950000004 68.9815015774 56.9759085 68.3062327832 56.9759085 L 67.124509936 56.9759085" />
<path class="stroke" d="M 56.4890060458 26.809486200000002 C 55.644918463 33.2474436 53.1126562928 38.76569235 49.5674877512 43.18029197999999" />
<path class="stroke" d="M 81.81163410799999 26.809486200000002 C 85.18798386099999 30.6722619 88.0578801392 35.82262719 89.7460553048 43.54817292" />
<path class="stroke" d="M 82.71875250000001 46.012672 C 77.85232158 63.644608 67.20128994 80.468992 55.72390548 87.40064000000001" />
</svg>
