<?xml version="1.0" standalone="no"?>
<!DOCTYPE svg PUBLIC "-//W3C//DTD SVG 1.1//EN" "http://www.w3.org/Graphics/SVG/1.1/DTD/svg11.dtd">
<svg xmlns="http://www.w3.org/2000/svg" version="1.1" width="100%" height="100%">
<style type="text/css"><![CDATA[
  .stroke { fill:none; stroke:black; stroke-width:2 }
]]></style>
<path class="stroke" d="M 22.66861248 8.978102 C 19.865692799999998 17.153284 16.3620432 24.452553 12.85839312 30.875912 L 20.072592 44.305" />
<path class="stroke" d="M 30.656931359999998 25.912407 C 26.493264 34.9413 18.802224 49.0696 11.4569328 62.408752 L 34.8613104 57.153282" />
<path class="stroke" d="M 32.899270079999994 48.10219 C 34.7211648 52.48175 35.982479999999995 56.569344 36.4029168 62.408752" />
<path class="stroke" d="M 23.929924800000002 60.07299 L 23.921096159999998 92.246574" />
<path class="stroke" d="M 10.47591168 72.04379 C 9.775181759999999 77.00729 8.65401408 81.386856 6.83211648 85.18248" />
<path class="stroke" d="M 36.4029168 72.33576 C 38.2248144 75.54744 39.345983999999994 79.34306 40.18686048 85.18248" />
<path class="stroke" d="M 89.60197923999999 13.720572 C 78.73663364000001 16.29482968888889 62.08811807 17.496149866666666 52.274258079999996 17.496149866666666" />
<path class="stroke" d="M 53.32574192 21.958196488888888 C 55.95445565 24.360836844444442 57.533629 26.985835555555557 58.7584159 29.680968977777777" />
<path class="stroke" d="M 66.64455473 21.100109822222223 C 69.09802076 22.987898755555555 70.6752477 25.39053911111111 71.7267339 28.47964822222222" />
<path class="stroke" d="M 88.7257431 20.0704064 C 87.32376386 24.189218933333333 85.22078909999999 27.278328044444443 82.2415841 29.509350488888888" />
<path class="stroke" d="M 48.7087582564 33.7598523 L 48.7087582564 45.348171570000005" />
<path class="stroke" d="M 48.7087582564 33.286858470000006 L 92.29123794399999 33.286858470000006 L 92.29123794399999 45.584667270000004" />
<path class="stroke" d="M 57.9949202345 45.84356392 L 82.28598189499999 45.84356392 C 76.75867188550001 68.41188186 67.44952434519999 79.43762559999999 51.158514803 89.0851484" />
<path class="stroke" d="M 57.413098849899995 51.01188186 C 59.5792887587 61.69677294 67.1617408771 70.49032288000001 69.6892241004 74.4193554 C 74.27028826899999 80.4064518 82.48461107079999 84.89677119999999 90.286029606 89.0851484" />
</svg>
