<?xml version="1.0" standalone="no"?>
<!DOCTYPE svg PUBLIC "-//W3C//DTD SVG 1.1//EN" "http://www.w3.org/Graphics/SVG/1.1/DTD/svg11.dtd">
<svg xmlns="http://www.w3.org/2000/svg" version="1.1" width="100%" height="100%">
<style type="text/css"><![CDATA[
  .stroke { fill:none; stroke:black; stroke-width:2 }
]]></style>
<path class="stroke" d="M 22.196349719999997 8.978102 C 19.451824199999997 17.153284 16.0211673 24.452553 12.59050993 30.875912 L 19.654412999999998 44.305" />
<path class="stroke" d="M 30.018245289999996 25.912407 C 25.941321 34.9413 18.410511 49.0696 11.2182467 62.408752 L 34.1350331 57.153282" />
<path class="stroke" d="M 32.21386861999999 48.10219 C 33.9978072 52.48175 35.232845 56.569344 35.644522699999996 62.408752" />
<path class="stroke" d="M 23.4313847 60.07299 L 23.422739989999997 92.246574" />
<path class="stroke" d="M 10.25766352 72.04379 C 9.571532139999999 77.00729 8.47372212 81.386856 6.689780719999999 85.18248" />
<path class="stroke" d="M 35.644522699999996 72.33576 C 37.4284641 75.54744 38.526275999999996 79.34306 39.34963422 85.18248" />
<path class="stroke" d="M 68.0 7.381726400000005 L 68.0 20.0" />
<path class="stroke" d="M 42.5 20.0 L 93.5 20.0" />
<path class="stroke" d="M 68.4379538 24.27737092 C 64.75912220000001 34.087589799999996 59.328465800000004 40.709488719999996 54.9489038 46.595618200000004 C 59.153284400000004 51.0102172 63.8832098 56.4058396 68.4379538 63.027733479999995" />
<path class="stroke" d="M 81.051092 41.4452548 C 71.59123819999999 62.046710919999995 59.854012999999995 77.743066 48.467151799999996 89.2700668 C 62.4817502 85.8364912 75.27006979999999 84.610213 87.883208 84.610213" />
<path class="stroke" d="M 84.37955600000001 76.2715288 C 86.73812 79.81698399999999 89.57731999999999 85.99997199999999 90.16058 91.4773684" />
</svg>
