<?xml version="1.0" standalone="no"?>
<!DOCTYPE svg PUBLIC "-//W3C//DTD SVG 1.1//EN" "http://www.w3.org/Graphics/SVG/1.1/DTD/svg11.dtd">
<svg xmlns="http://www.w3.org/2000/svg" version="1.1" width="100%" height="100%">
<style type="text/css"><![CDATA[
  .stroke { fill:none; stroke:black; stroke-width:2 }
]]></style>
<path class="stroke" d="M 22.66861248 8.978102 C 19.865692799999998 17.153284 16.3620432 24.452553 12.85839312 30.875912 L 20.072592 44.305" />
<path class="stroke" d="M 30.656931359999998 25.912407 C 26.493264 34.9413 18.802224 49.0696 11.4569328 62.408752 L 34.8613104 57.153282" />
<path class="stroke" d="M 32.899270079999994 48.10219 C 34.7211648 52.48175 35.982479999999995 56.569344 36.4029168 62.408752" />
<path class="stroke" d="M 23.929924800000002 60.07299 L 23.921096159999998 92.246574" />
<path class="stroke" d="M 10.47591168 72.04379 C 9.775181759999999 77.00729 8.65401408 81.386856 6.83211648 85.18248" />
<path class="stroke" d="M 36.4029168 72.33576 C 38.2248144 75.54744 39.345983999999994 79.34306 40.18686048 85.18248" />
<path class="stroke" d="M 53.710218510000004 18.5167921392 L 87.28977725000001 18.5167921392" />
<path class="stroke" d="M 70.5 8.03490030527 L 70.5 32.1806847134" />
<path class="stroke" d="M 49.22262689 32.1806847134 L 91.62262530000001 32.1806847134" />
<path class="stroke" d="M 63.61386794 35.38155877132 L 63.61386794 40.71609255304 C 63.61386794 45.4196604678 59.59051074 50.06586756344 49.53211668 51.270439657000004" />
<path class="stroke" d="M 72.74379422 35.32419854158 L 72.74379422 48.8612958628 C 72.74379422 50.295310447 74.75547494 51.1557188046 76.92189499 51.1557188046 L 88.991965 51.1557188046 C 90.6941607 51.2130792308 91.9321135 50.7541938566 91.9321135 50.1232272038 L 91.9321135 49.03337792724" />
<path class="stroke" d="M 66.86350199 56.27810114 C 63.304378150000005 62.4532845 57.26934235 68.90291825 51.07956086 73.01970699999998" />
<path class="stroke" d="M 65.00656749000001 59.845984879999996 L 78.77883320000001 59.845984879999996 C 73.2080297 71.09853829000001 61.29269955 84.13503309999999 49.37737205 91.27079869999999" />
<path class="stroke" d="M 59.126277380000005 66.57007277999999 C 65.2 76.53225858 77.69561761 85.91897685 90.8489048 91.27079869999999" />
</svg>
