<?xml version="1.0" standalone="no"?>
<!DOCTYPE svg PUBLIC "-//W3C//DTD SVG 1.1//EN" "http://www.w3.org/Graphics/SVG/1.1/DTD/svg11.dtd">
<svg xmlns="http://www.w3.org/2000/svg" version="1.1" width="100%" height="100%">
<style type="text/css"><![CDATA[
  .stroke { fill:none; stroke:black; stroke-width:2 }
]]></style>
<path class="stroke" d="M 22.66861248 8.978102 C 19.865692799999998 17.153284 16.3620432 24.452553 12.85839312 30.875912 L 20.072592 44.305" />
<path class="stroke" d="M 30.656931359999998 25.912407 C 26.493264 34.9413 18.802224 49.0696 11.4569328 62.408752 L 34.8613104 57.153282" />
<path class="stroke" d="M 32.899270079999994 48.10219 C 34.7211648 52.48175 35.982479999999995 56.569344 36.4029168 62.408752" />
<path class="stroke" d="M 23.929924800000002 60.07299 L 23.921096159999998 92.246574" />
<path class="stroke" d="M 10.47591168 72.04379 C 9.775181759999999 77.00729 8.65401408 81.386856 6.83211648 85.18248" />
<path class="stroke" d="M 36.4029168 72.33576 C 38.2248144 75.54744 39.345983999999994 79.34306 40.18686048 85.18248" />
<path class="stroke" d="M 50.47080245 18.914744048 L 88.689775 18.914744048" />
<path class="stroke" d="M 69.58028900000001 8.485547448 L 69.58028900000001 20.122334600000002 C 69.58028900000001 28.57547448 61.1471203 37.264151664 47.90145875 39.2242344" />
<path class="stroke" d="M 69.58028900000001 20.012554256 C 69.58028900000001 28.685255199999997 78.19191950000001 37.24422592 91.259122 39.2242344" />
<path class="stroke" d="M 47.58029175 50.792408508 L 91.4197055 50.792408508" />
<path class="stroke" d="M 81.142334 50.957079024 L 81.142334 89.6548866 C 81.142334 91.13693195999998 80.0182462 92.45430624 78.091242 92.45430624 L 76.4854015 92.45430624" />
<path class="stroke" d="M 56.48065674 60.13751796 L 56.48065674 73.83818903999999" />
<path class="stroke" d="M 56.48065674 60.13751796 L 70.483576 60.13751796 L 70.483576 73.706452176" />
<path class="stroke" d="M 56.48065674 72.7842909696 L 70.483576 72.7842909696" />
</svg>
