<?xml version="1.0" standalone="no"?>
<!DOCTYPE svg PUBLIC "-//W3C//DTD SVG 1.1//EN" "http://www.w3.org/Graphics/SVG/1.1/DTD/svg11.dtd">
<svg xmlns="http://www.w3.org/2000/svg" version="1.1" width="100%" height="100%">
<style type="text/css"><![CDATA[
  .stroke { fill:none; stroke:black; stroke-width:2 }
]]></style>
<path class="stroke" d="M 22.66861248 8.978102 C 19.865692799999998 17.153284 16.3620432 24.452553 12.85839312 30.875912 L 20.072592 44.305" />
<path class="stroke" d="M 30.656931359999998 25.912407 C 26.493264 34.9413 18.802224 49.0696 11.4569328 62.408752 L 34.8613104 57.153282" />
<path class="stroke" d="M 32.899270079999994 48.10219 C 34.7211648 52.48175 35.982479999999995 56.569344 36.4029168 62.408752" />
<path class="stroke" d="M 23.929924800000002 60.07299 L 23.921096159999998 92.246574" />
<path class="stroke" d="M 10.47591168 72.04379 C 9.775181759999999 77.00729 8.65401408 81.386856 6.83211648 85.18248" />
<path class="stroke" d="M 36.4029168 72.33576 C 38.2248144 75.54744 39.345983999999994 79.34306 40.18686048 85.18248" />
<path class="stroke" d="M 52.6513855 31.072483 L 52.6513855 90.02485" />
<path class="stroke" d="M 52.8769394 31.072521 L 92.79975200000001 31.072493 L 92.65675200000001 90.21621" />
<path class="stroke" d="M 72.5 16.15 L 72.5 85.85" />
<path class="stroke" d="M 52.8769394 59.10798 L 92.79975200000001 59.10795" />
<path class="stroke" d="M 52.8769394 86.06294 L 92.79975200000001 86.28706" />
</svg>
