<?xml version="1.0" standalone="no"?>
<!DOCTYPE svg PUBLIC "-//W3C//DTD SVG 1.1//EN" "http://www.w3.org/Graphics/SVG/1.1/DTD/svg11.dtd">
<svg xmlns="http://www.w3.org/2000/svg" version="1.1" width="100%" height="100%">
<style type="text/css"><![CDATA[
  .stroke { fill:none; stroke:black; stroke-width:2 }
]]></style>
<path class="stroke" d="M 22.66861248 8.978102 C 19.865692799999998 17.153284 16.3620432 24.452553 12.85839312 30.875912 L 20.072592 44.305" />
<path class="stroke" d="M 30.656931359999998 25.912407 C 26.493264 34.9413 18.802224 49.0696 11.4569328 62.408752 L 34.8613104 57.153282" />
<path class="stroke" d="M 32.899270079999994 48.10219 C 34.7211648 52.48175 35.982479999999995 56.569344 36.4029168 62.408752" />
<path class="stroke" d="M 23.929924800000002 60.07299 L 23.921096159999998 92.246574" />
<path class="stroke" d="M 10.47591168 72.04379 C 9.775181759999999 77.00729 8.65401408 81.386856 6.83211648 85.18248" />
<path class="stroke" d="M 36.4029168 72.33576 C 38.2248144 75.54744 39.345983999999994 79.34306 40.18686048 85.18248" />
<path class="stroke" d="M 52.503159600000004 16.5975136 L 87.8238996 16.5975136 L 87.8238996 39.94974559999999" />
<path class="stroke" d="M 46.94339552 28.7169994 L 93.2201164 28.7169994" />
<path class="stroke" d="M 52.176116 40.2452816 L 87.823884 40.2452816" />
<path class="stroke" d="M 70.0000156 8.0251554 L 70.0000156 93.452816" />
<path class="stroke" d="M 60.51572 47.04397918 L 65.09432000000001 56.2074733" />
<path class="stroke" d="M 79.157252 47.339579099999995 L 74.74214 55.911909099999995" />
<path class="stroke" d="M 54.6289066 61.2327462 L 85.3710492 61.2327462" />
<path class="stroke" d="M 69.836512 61.823978 C 66.62057200000001 73.35223199999999 61.44236 81.628932 55.283012 86.654078" />
<path class="stroke" d="M 70.0 62.11942 C 73.270436 72.36683 77.35852 82.90986999999998 84.716988 86.654078" />
<path class="stroke" d="M 50.8679 48.522038 L 50.8679 69.509512 C 50.922396 76.89941599999999 49.66878 85.471746 47.1069168 91.38368799999999" />
<path class="stroke" d="M 89.459128 48.817574 L 89.459128 91.974854" />
</svg>
