<?xml version="1.0" standalone="no"?>
<!DOCTYPE svg PUBLIC "-//W3C//DTD SVG 1.1//EN" "http://www.w3.org/Graphics/SVG/1.1/DTD/svg11.dtd">
<svg xmlns="http://www.w3.org/2000/svg" version="1.1" width="100%" height="100%">
<style type="text/css"><![CDATA[
  .stroke { fill:none; stroke:black; stroke-width:2 }
]]></style>
<path class="stroke" d="M 22.66861248 8.978102 C 19.865692799999998 17.153284 16.3620432 24.452553 12.85839312 30.875912 L 20.072592 44.305" />
<path class="stroke" d="M 30.656931359999998 25.912407 C 26.493264 34.9413 18.802224 49.0696 11.4569328 62.408752 L 34.8613104 57.153282" />
<path class="stroke" d="M 32.899270079999994 48.10219 C 34.7211648 52.48175 35.982479999999995 56.569344 36.4029168 62.408752" />
<path class="stroke" d="M 23.929924800000002 60.07299 L 23.921096159999998 92.246574" />
<path class="stroke" d="M 10.47591168 72.04379 C 9.775181759999999 77.00729 8.65401408 81.386856 6.83211648 85.18248" />
<path class="stroke" d="M 36.4029168 72.33576 C 38.2248144 75.54744 39.345983999999994 79.34306 40.18686048 85.18248" />
<path class="stroke" d="M 60.301263000000006 6.46687 C 58.740837 22.45 54.672451 38.1177 47.5946349 48.1072" />
<path class="stroke" d="M 58.796487 22.5552 L 91.73344300000001 22.8706 L 91.566228 58.2019 C 91.231851 74.1851 87.720866 92.6919 81.701921 92.9022 L 79.19401400000001 92.9022" />
<path class="stroke" d="M 62.599903962599996 39.9708025 L 62.599903962599996 76.75912" />
<path class="stroke" d="M 62.599903962599996 39.9708025 L 78.83569955 39.9708025 L 78.83569955 76.75912" />
<path class="stroke" d="M 62.6942988335 57.362821499999995 L 78.741305649 57.362821499999995" />
<path class="stroke" d="M 62.599903962599996 75.15328199999999 L 78.83569955 75.15328199999999" />
</svg>
