<?xml version="1.0" standalone="no"?>
<!DOCTYPE svg PUBLIC "-//W3C//DTD SVG 1.1//EN" "http://www.w3.org/Graphics/SVG/1.1/DTD/svg11.dtd">
<svg xmlns="http://www.w3.org/2000/svg" version="1.1" width="100%" height="100%">
<style type="text/css"><![CDATA[
  .stroke { fill:none; stroke:black; stroke-width:2 }
]]></style>
<path class="stroke" d="M 23.284672 8.89306912 L 23.284672 34.85912252" />
<path class="stroke" d="M 23.576641 8.979523 L 76.715324 8.979523 L 76.715324 34.6868614" />
<path class="stroke" d="M 23.284672 22.38010863 L 76.131386 22.38010863" />
<path class="stroke" d="M 23.284672 34.850137999999994 L 76.715324 34.850137999999994" />
<path class="stroke" d="M 49.6845 8.89306912 L 49.6845 55.3583905" />
<path class="stroke" d="M 21.240875 44.850360699999996 L 78.75912 44.850360699999996" />
<path class="stroke" d="M 9.854013 55.3583905 L 90.72992 55.3583905" />
<path class="stroke" d="M 42.04671416 58.4343063 L 42.04671416 62.5072986 C 42.04671416 66.0985395 35.06277336 69.64598459999999 17.60291952 70.5656925" />
<path class="stroke" d="M 57.89488808 58.39051095 L 57.89488808 68.726277 C 57.89488808 69.8211675 61.38686216 70.4781015 65.14744035999999 70.4781015 L 86.09926 70.4781015 C 89.05401479999999 70.521897 91.202914 70.1715315 91.202914 69.6897795 L 91.202914 68.8576641" />
<path class="stroke" d="M 22.93941529 77.813868 L 78.06057775000001 77.813868" />
<path class="stroke" d="M 50.5 66.368612675 L 50.5 92.7335735" />
<path class="stroke" d="M 15.57299131 92.7335735 L 85.1729887 92.7335735" />
</svg>
