<?xml version="1.0" standalone="no"?>
<!DOCTYPE svg PUBLIC "-//W3C//DTD SVG 1.1//EN" "http://www.w3.org/Graphics/SVG/1.1/DTD/svg11.dtd">
<svg xmlns="http://www.w3.org/2000/svg" version="1.1" width="100%" height="100%">
<style type="text/css"><![CDATA[
  .stroke { fill:none; stroke:black; stroke-width:2 }
]]></style>
<path class="stroke" d="M 49.999996 5.0 C 52.376232 7.6732674 52.793365 10.037088 52.918915 12.702702" />
<path class="stroke" d="M 12.702702 13.675674 L 92.81081 13.351351" />
<path class="stroke" d="M 12.378378 13.999998 L 12.702702 39.62162 C 12.702702 61.30479 14.560343 79.686905 6.5405407 92.162155" />
<path class="stroke" d="M 31.72335808 22.3812473696 L 31.72335808 43.9330716916" />
<path class="stroke" d="M 31.983210489999998 22.45300409 L 79.27663835999999 22.45300409 L 79.27663835999999 43.790094962" />
<path class="stroke" d="M 31.72335808 33.575490162899996 L 78.75693354 33.575490162899996" />
<path class="stroke" d="M 31.72335808 43.92561454 L 79.27663835999999 43.92561454" />
<path class="stroke" d="M 55.219205 22.3812473696 L 55.219205 60.947464114999995" />
<path class="stroke" d="M 29.90437875 52.225799380999995 L 81.0956168 52.225799380999995" />
<path class="stroke" d="M 19.77007157 60.947464114999995 L 91.74962880000001 60.947464114999995" />
<path class="stroke" d="M 48.421575602400004 63.500474229 L 48.421575602400004 66.881057838 C 48.421575602400004 69.86178778499999 42.205868290400005 72.80616721799998 26.666598372800003 73.56952477499999" />
<path class="stroke" d="M 62.5264503912 63.4641240885 L 62.5264503912 72.04280990999999 C 62.5264503912 72.951569025 65.63430732239999 73.496824245 68.98122192039999 73.496824245 L 87.6283414 73.496824245 C 90.258073172 73.53317451 92.17059346 73.24237114499999 92.17059346 72.842516985 L 92.17059346 72.15186120299998" />
<path class="stroke" d="M 31.4160796081 79.58551044 L 80.47391419750001 79.58551044" />
<path class="stroke" d="M 55.945 70.08594852024999 L 55.945 91.968866005" />
<path class="stroke" d="M 24.859962265900002 91.968866005 L 86.80395994300001 91.968866005" />
</svg>
