<?xml version="1.0" standalone="no"?>
<!DOCTYPE svg PUBLIC "-//W3C//DTD SVG 1.1//EN" "http://www.w3.org/Graphics/SVG/1.1/DTD/svg11.dtd">
<svg xmlns="http://www.w3.org/2000/svg" version="1.1" width="100%" height="100%">
<style type="text/css"><![CDATA[
  .stroke { fill:none; stroke:black; stroke-width:2 }
]]></style>
<path class="stroke" d="M 19.5291966 8.978102 C 17.485400999999996 17.153284 14.9306565 24.452553 12.375911649999999 30.875912 L 17.636265 44.305" />
<path class="stroke" d="M 25.35401245 25.912407 C 22.318005 34.9413 16.709955 49.0696 11.354013499999999 62.408752 L 28.4197055 57.153282" />
<path class="stroke" d="M 26.989051099999998 48.10219 C 28.317515999999998 52.48175 29.237225 56.569344 29.5437935 62.408752" />
<path class="stroke" d="M 20.4489035 60.07299 L 20.44246595 92.246574" />
<path class="stroke" d="M 10.638685599999999 72.04379 C 10.1277367 77.00729 9.310218599999999 81.386856 7.981751599999999 85.18248" />
<path class="stroke" d="M 29.5437935 72.33576 C 30.8722605 75.54744 31.689779999999995 79.34306 32.3029191 85.18248" />
<path class="stroke" d="M 65.99999752 5.0 C 67.47326384 7.6732674 67.7318863 10.037088 67.80972729999999 12.702702" />
<path class="stroke" d="M 42.87567524 13.675674 L 92.54270220000001 13.351351" />
<path class="stroke" d="M 42.67459436 13.999998 L 42.87567524 39.62162 C 42.87567524 61.30479 44.027412659999996 79.686905 39.055135234 92.162155" />
<path class="stroke" d="M 54.6684820096 22.3812473696 L 54.6684820096 43.9330716916" />
<path class="stroke" d="M 54.8295905038 22.45300409 L 84.1515157832 22.45300409 L 84.1515157832 43.790094962" />
<path class="stroke" d="M 54.6684820096 33.575490162899996 L 83.8292987948 33.575490162899996" />
<path class="stroke" d="M 54.6684820096 43.92561454 L 84.1515157832 43.92561454" />
<path class="stroke" d="M 69.23590709999999 22.3812473696 L 69.23590709999999 60.947464114999995" />
<path class="stroke" d="M 53.540714824999995 52.225799380999995 L 85.279282416 52.225799380999995" />
<path class="stroke" d="M 47.2574443734 60.947464114999995 L 91.884769856 60.947464114999995" />
<path class="stroke" d="M 65.02137687348801 63.500474229 L 65.02137687348801 66.881057838 C 65.02137687348801 69.86178778499999 61.167638340048 72.80616721799998 51.533290991136 73.56952477499999" />
<path class="stroke" d="M 73.766399242544 63.4641240885 L 73.766399242544 72.04280990999999 C 73.766399242544 72.951569025 75.693270539888 73.496824245 77.768357590648 73.496824245 L 89.329571668 73.496824245 C 90.96000536663999 73.53317451 92.1457679452 73.24237114499999 92.1457679452 72.842516985 L 92.1457679452 72.15186120299998" />
<path class="stroke" d="M 54.477969357022 79.58551044 L 84.89382680245001 79.58551044" />
<path class="stroke" d="M 69.6859 70.08594852024999 L 69.6859 91.968866005" />
<path class="stroke" d="M 50.413176604858 91.968866005 L 88.81845516466001 91.968866005" />
</svg>
