<?xml version="1.0" standalone="no"?>
<!DOCTYPE svg PUBLIC "-//W3C//DTD SVG 1.1//EN" "http://www.w3.org/Graphics/SVG/1.1/DTD/svg11.dtd">
<svg xmlns="http://www.w3.org/2000/svg" version="1.1" width="100%" height="100%">
<style type="text/css"><![CDATA[
  .stroke { fill:none; stroke:black; stroke-width:2 }
]]></style>
<path class="stroke" d="M 23.14087524 8.978102 C 20.2795614 17.153284 16.7029191 24.452553 13.12627631 30.875912 L 20.490771 44.305" />
<path class="stroke" d="M 31.295617429999997 25.912407 C 27.045206999999998 34.9413 19.193937000000002 49.0696 11.6956189 62.408752 L 35.5875877 57.153282" />
<path class="stroke" d="M 33.584671539999995 48.10219 C 35.4445224 52.48175 36.732115 56.569344 37.1613109 62.408752" />
<path class="stroke" d="M 24.4284649 60.07299 L 24.41945233 92.246574" />
<path class="stroke" d="M 10.69415984 72.04379 C 9.978831379999999 77.00729 8.83430604 81.386856 6.97445224 85.18248" />
<path class="stroke" d="M 37.1613109 72.33576 C 39.0211647 75.54744 40.165692 79.34306 41.02408674 85.18248" />
<path class="stroke" d="M 49.9940592 27.28503 L 93.14513600000001 27.28503" />
<path class="stroke" d="M 69.30099048 7.821783 C 67.386936 41.4959 59.655524 69.4523 49.2915392 84.7614" />
<path class="stroke" d="M 76.9670943696 44.28248072 C 74.750452056 58.76131235 69.46127268000001 74.975786 63.223911721600004 86.55401359999999 C 72.5338093628 84.723356 80.6245544148 83.89124149999999 89.48266732 84.01296500000001" />
<path class="stroke" d="M 85.168670854 73.57298864 C 87.717808224 76.73503399999998 89.9344505376 81.56131235 91.37526940800001 88.0518197" />
</svg>
