<?xml version="1.0" standalone="no"?>
<!DOCTYPE svg PUBLIC "-//W3C//DTD SVG 1.1//EN" "http://www.w3.org/Graphics/SVG/1.1/DTD/svg11.dtd">
<svg xmlns="http://www.w3.org/2000/svg" version="1.1" width="100%" height="100%">
<style type="text/css"><![CDATA[
  .stroke { fill:none; stroke:black; stroke-width:2 }
]]></style>
<path class="stroke" d="M 22.66861248 8.978102 C 19.865692799999998 17.153284 16.3620432 24.452553 12.85839312 30.875912 L 20.072592 44.305" />
<path class="stroke" d="M 30.656931359999998 25.912407 C 26.493264 34.9413 18.802224 49.0696 11.4569328 62.408752 L 34.8613104 57.153282" />
<path class="stroke" d="M 32.899270079999994 48.10219 C 34.7211648 52.48175 35.982479999999995 56.569344 36.4029168 62.408752" />
<path class="stroke" d="M 23.929924800000002 60.07299 L 23.921096159999998 92.246574" />
<path class="stroke" d="M 10.47591168 72.04379 C 9.775181759999999 77.00729 8.65401408 81.386856 6.83211648 85.18248" />
<path class="stroke" d="M 36.4029168 72.33576 C 38.2248144 75.54744 39.345983999999994 79.34306 40.18686048 85.18248" />
<path class="stroke" d="M 70.5715302 11.0321532895 L 70.5715302 19.5302546005" />
<path class="stroke" d="M 52.116057745 19.723392094 L 52.116057745 28.9940493325" />
<path class="stroke" d="M 52.116057745 19.723392094 L 89.0270029 19.723392094 L 89.0270029 28.9940493325" />
<path class="stroke" d="M 55.7536215 38.6945454 L 85.24637849999999 38.6945454" />
<path class="stroke" d="M 51.580127595 57.18160399 L 89.69810151 57.18160399" />
<path class="stroke" d="M 70.63912227 57.3825329 L 70.63912227 87.3235713 C 70.63912227 89.4670126 69.52617057 90.8066236 68.55235437 90.7396749 L 66.74381337 90.7396749" />
<path class="stroke" d="M 62.8485618 65.2194165 C 60.2980824 72.7884416 57.3302847 78.95084329999999 51.858361110000004 83.7065579" />
<path class="stroke" d="M 78.7079361 65.4204537 C 82.7423364 70.1761683 85.94196779999999 76.13759650000001 88.5851895 83.7065579" />
</svg>
