<?xml version="1.0" standalone="no"?>
<!DOCTYPE svg PUBLIC "-//W3C//DTD SVG 1.1//EN" "http://www.w3.org/Graphics/SVG/1.1/DTD/svg11.dtd">
<svg xmlns="http://www.w3.org/2000/svg" version="1.1" width="100%" height="100%">
<style type="text/css"><![CDATA[
  .stroke { fill:none; stroke:black; stroke-width:2 }
]]></style>
<path class="stroke" d="M 13.5401455 38.46715 L 35.34063166666667 35.839413" />
<path class="stroke" d="M 25.462285333333334 15.401459 L 25.462285333333334 71.16788" />
<path class="stroke" d="M 10.815085166666668 74.9635 L 37.04379350000001 68.24817" />
<path class="stroke" d="M 58.714525 6.46688 C 58.4779 11.5142 56.5852 14.3534 53.982625 17.1925" />
<path class="stroke" d="M 38.8406575 18.1388 L 38.8406575 54.1009" />
<path class="stroke" d="M 38.8406575 18.1388 L 85.4495575 17.8233 L 85.4495575 53.7854" />
<path class="stroke" d="M 62.263374999999996 18.1388 L 62.263374999999996 54.1009" />
<path class="stroke" d="M 39.0772225 35.489 L 84.9763225 35.489" />
<path class="stroke" d="M 38.8406575 54.1009 L 85.4495575 53.7854" />
<path class="stroke" d="M 55.875325 54.4164 C 55.717600000000004 75.9726 46.096225000000004 89.0116 30.0867475 94.4795" />
<path class="stroke" d="M 65.339125 54.4164 L 65.339125 89.7476 C 65.3689 92.6066 66.36670000000001 93.6413 68.17824999999999 93.5332 L 91.600975 93.5332 C 93.49375 93.7261 94.892575 92.9022 94.913275 90.0631 L 94.913275 82.8076" />
<path class="stroke" d="M 80.71764999999999 61.9873 C 78.74605 69.8738 75.591475 76.8139 71.25392500000001 83.7539 C 76.853275 81.2303 82.4527 79.0221 88.05205000000001 78.3912" />
<path class="stroke" d="M 85.212925 71.4511 C 87.7366 75.0263 88.84075 78.9169 89.235025 82.8076" />
</svg>
