<?xml version="1.0" standalone="no"?>
<!DOCTYPE svg PUBLIC "-//W3C//DTD SVG 1.1//EN" "http://www.w3.org/Graphics/SVG/1.1/DTD/svg11.dtd">
<svg xmlns="http://www.w3.org/2000/svg" version="1.1" width="100%" height="100%">
<style type="text/css"><![CDATA[
  .stroke { fill:none; stroke:black; stroke-width:2 }
]]></style>
<path class="stroke" d="M 22.196349719999997 8.978102 C 19.451824199999997 17.153284 16.0211673 24.452553 12.59050993 30.875912 L 19.654412999999998 44.305" />
<path class="stroke" d="M 30.018245289999996 25.912407 C 25.941321 34.9413 18.410511 49.0696 11.2182467 62.408752 L 34.1350331 57.153282" />
<path class="stroke" d="M 32.21386861999999 48.10219 C 33.9978072 52.48175 35.232845 56.569344 35.644522699999996 62.408752" />
<path class="stroke" d="M 23.4313847 60.07299 L 23.422739989999997 92.246574" />
<path class="stroke" d="M 10.25766352 72.04379 C 9.571532139999999 77.00729 8.47372212 81.386856 6.689780719999999 85.18248" />
<path class="stroke" d="M 35.644522699999996 72.33576 C 37.4284641 75.54744 38.526275999999996 79.34306 39.34963422 85.18248" />
<path class="stroke" d="M 64.8154638 6.6466863400000005 L 64.8154638 57.96527814 C 64.8154638 80.3269152 57.4590108 89.3953452 48.2634048 92.28075919999999" />
<path class="stroke" d="M 47.7618287 23.958942 L 63.310709 23.958942" />
<path class="stroke" d="M 50.269741 44.36273799999999 L 63.310709 44.36273799999999" />
<path class="stroke" d="M 47.9290225 66.003196 L 63.143547 60.438462" />
<path class="stroke" d="M 76.853322 6.6466932 L 76.853322 91.97162800000001" />
<path class="stroke" d="M 76.853322 24.268132 L 93.405381 24.268132" />
<path class="stroke" d="M 76.853322 44.671927999999994 L 90.897474 44.671927999999994" />
<path class="stroke" d="M 76.853322 66.312288 L 93.238166 66.312288" />
</svg>
