<?xml version="1.0" standalone="no"?>
<!DOCTYPE svg PUBLIC "-//W3C//DTD SVG 1.1//EN" "http://www.w3.org/Graphics/SVG/1.1/DTD/svg11.dtd">
<svg xmlns="http://www.w3.org/2000/svg" version="1.1" width="100%" height="100%">
<style type="text/css"><![CDATA[
  .stroke { fill:none; stroke:black; stroke-width:2 }
]]></style>
<path class="stroke" d="M 25.9744518 8.978102 C 22.762773000000003 17.153284 18.7481745 24.452553 14.733575450000002 30.875912 L 22.999845000000004 44.305" />
<path class="stroke" d="M 35.12773385 25.912407 C 30.356865000000003 34.9413 21.544215 49.0696 13.127735500000002 62.408752 L 39.945251500000005 57.153282" />
<path class="stroke" d="M 37.697080299999996 48.10219 C 39.784667999999996 52.48175 41.229925 56.569344 41.711675500000005 62.408752" />
<path class="stroke" d="M 27.419705500000003 60.07299 L 27.40958935 92.246574" />
<path class="stroke" d="M 12.0036488 72.04379 C 11.2007291 77.00729 9.9160578 81.386856 7.8284668 85.18248" />
<path class="stroke" d="M 41.711675500000005 72.33576 C 43.7992665 75.54744 45.083940000000005 79.34306 46.04744430000001 85.18248" />
<path class="stroke" d="M 62.994592 11.729729 C 60.8540536 18.216215 56.9621602 24.378376 51.9027022 29.24324" />
<path class="stroke" d="M 79.3405396 13.351351 C 81.091888 19.513512 85.5675676 27.62162 88.291888 30.864864" />
<path class="stroke" d="M 55.197079 39.343063 L 84.802918 39.343063" />
<path class="stroke" d="M 49.0656928 59.78102 L 90.93430000000001 59.78102" />
<path class="stroke" d="M 70.087588 9.854013 L 70.087588 90.14598" />
</svg>
