<?xml version="1.0" standalone="no"?>
<!DOCTYPE svg PUBLIC "-//W3C//DTD SVG 1.1//EN" "http://www.w3.org/Graphics/SVG/1.1/DTD/svg11.dtd">
<svg xmlns="http://www.w3.org/2000/svg" version="1.1" width="100%" height="100%">
<style type="text/css"><![CDATA[
  .stroke { fill:none; stroke:black; stroke-width:2 }
]]></style>
<path class="stroke" d="M 20.30729868 8.978102 C 17.796349799999998 17.153284 14.657663699999999 24.452553 11.518977170000001 30.875912 L 17.981697 44.305" />
<path class="stroke" d="M 27.463501009999998 25.912407 C 23.733549 34.9413 16.843659000000002 49.0696 10.2635023 62.408752 L 31.2299239 57.153282" />
<path class="stroke" d="M 29.472262779999998 48.10219 C 31.104376799999997 52.48175 32.234305 56.569344 32.6109463 62.408752" />
<path class="stroke" d="M 21.4372243 60.07299 L 21.42931531 92.246574" />
<path class="stroke" d="M 9.38467088 72.04379 C 8.75693366 77.00729 7.752554279999999 81.386856 6.120437679999999 85.18248" />
<path class="stroke" d="M 32.6109463 72.33576 C 34.2430629 75.54744 35.247444 79.34306 36.00072918 85.18248" />
<path class="stroke" d="M 42.2681376 28.029980600000002 L 91.73184 28.029980600000002" />
<path class="stroke" d="M 73.006336 10.427442800000001 L 73.006336 28.029962 C 73.241872 54.042527 82.13355200000001 91.49688200000001 89.258656 91.692368 L 89.258656 81.717746" />
<path class="stroke" d="M 89.61196000000001 46.51264901 C 84.665592 69.0047018 76.186072 85.33596680000001 64.173456 91.10568122000001" />
<path class="stroke" d="M 85.01895200000001 11.6009447 C 87.02106400000001 13.9479485 88.31651200000002 16.001574500000004 89.61196000000001 19.815504500000003" />
<path class="stroke" d="M 54.778100800000004 37.909780916 C 53.502292000000004 52.1943566 50.571924 64.2845984 44.39562044 72.93751556" />
<path class="stroke" d="M 44.55912364 47.7741038 L 67.122626 47.7741038" />
</svg>
