<?xml version="1.0" standalone="no"?>
<!DOCTYPE svg PUBLIC "-//W3C//DTD SVG 1.1//EN" "http://www.w3.org/Graphics/SVG/1.1/DTD/svg11.dtd">
<svg xmlns="http://www.w3.org/2000/svg" version="1.1" width="100%" height="100%">
<style type="text/css"><![CDATA[
  .stroke { fill:none; stroke:black; stroke-width:2 }
]]></style>
<path class="stroke" d="M 21.2518242 8.978102 C 18.624087 17.153284 15.3394155 24.452553 12.054743550000001 30.875912 L 18.818055 44.305" />
<path class="stroke" d="M 28.74087315 25.912407 C 24.837435 34.9413 17.627085 49.0696 10.7408745 62.408752 L 32.6824785 57.153282" />
<path class="stroke" d="M 30.843065699999997 48.10219 C 32.551092 52.48175 33.733575 56.569344 34.1277345 62.408752" />
<path class="stroke" d="M 22.434304500000003 60.07299 L 22.42602765 92.246574" />
<path class="stroke" d="M 9.8211672 72.04379 C 9.1642329 77.00729 8.1131382 81.386856 6.4051092 85.18248" />
<path class="stroke" d="M 34.1277345 72.33576 C 35.8357635 75.54744 36.88686 79.34306 37.6751817 85.18248" />
<path class="stroke" d="M 68.5919674 7.27021177344 C 61.418245600000006 18.59176509696 53.32481641 27.471415403519998 43.20802819 32.799203458559994" />
<path class="stroke" d="M 68.5919674 7.27021177344 C 75.94963282 18.147781555199998 83.49123807999999 27.471415403519998 93.9759085 32.57721358847999" />
<path class="stroke" d="M 58.309634584 28.799999999999997 L 78.69036340000001 28.799999999999997" />
<path class="stroke" d="M 46.837576 40.957478592 L 46.837576 92.08887935999999" />
<path class="stroke" d="M 46.837576 40.957478592 L 89.963722 40.957478592 L 89.963722 87.89150688 C 90.029935 90.1174128 88.307578 91.77087551999999 86.585158 91.70731104 L 84.00159099999999 91.70731104" />
<path class="stroke" d="M 47.632491099999996 65.759993952 L 89.3675404 65.950808352" />
<path class="stroke" d="M 61.345392399999994 41.148265776 L 61.345392399999994 90.753305568" />
<path class="stroke" d="M 76.25077282000001 41.148266985599996 L 76.25077282000001 90.944089728" />
</svg>
