<?xml version="1.0" standalone="no"?>
<!DOCTYPE svg PUBLIC "-//W3C//DTD SVG 1.1//EN" "http://www.w3.org/Graphics/SVG/1.1/DTD/svg11.dtd">
<svg xmlns="http://www.w3.org/2000/svg" version="1.1" width="100%" height="100%">
<style type="text/css"><![CDATA[
  .stroke { fill:none; stroke:black; stroke-width:2 }
]]></style>
<path class="stroke" d="M 7.933245749999999 14.67539168 L 39.865182499999996 14.67539168" />
<path class="stroke" d="M 10.921532025000001 21.6423344 L 10.78284675 35.0963504" />
<path class="stroke" d="M 10.78284675 21.6423344 L 36.7171485 21.6423344 L 36.7171485 35.0963504" />
<path class="stroke" d="M 10.78284675 28.3453952 L 36.57846275 28.3453952" />
<path class="stroke" d="M 10.78284675 35.236496 L 36.7171485 35.236496" />
<path class="stroke" d="M 7.1770068 42.2437952 L 40.322987499999996 42.2437952" />
<path class="stroke" d="M 23.83817425 9.30948896 L 23.83817425 48.5503616" />
<path class="stroke" d="M 63.458195 7.071418112 L 63.458195 18.77312768 C 63.608057499999994 23.182453759999998 57.764179999999996 26.50157312 50.87145025 26.550026239999998" />
<path class="stroke" d="M 63.458195 6.998738432 L 79.041805 6.998738432 L 79.041805 24.2242304 C 78.84202 25.702062079999997 80.290485 26.67117056 82.4881675 26.6226944 L 88.4818125 26.6226944 C 91.2289275 26.6226944 92.028115 25.459819519999996 91.92822249999999 24.2242304 L 91.92822249999999 23.13400064" />
<path class="stroke" d="M 58.834157874999995 30.2185344512 L 82.39604125 30.2185344512 C 77.034652125 40.677782489600006 68.0049501 45.787644416 52.20297025 50.258772224000005" />
<path class="stroke" d="M 58.269801824999995 32.6137824896 C 60.370966225 37.5656768384 67.725805425 41.6410323968 70.17741769999999 43.461935744 C 74.62096575 46.236645248 82.5887079 48.317676032 90.1559405 50.258772224000005" />
<path class="stroke" d="M 43.92043668 51.489051 C 38.4897798 55.576642 31.7014587 59.2262765 24.913136670000004 62.437956 L 38.890647 69.1525" />
<path class="stroke" d="M 59.39780451 59.9562035 C 51.330699 64.47065 36.429309 71.5348 22.1978073 78.204376 L 67.54378890000001 75.576641" />
<path class="stroke" d="M 63.74233578 71.051095 C 67.2722568 73.240875 69.716055 75.284672 70.5306513 78.204376" />
<path class="stroke" d="M 46.364229300000005 77.036495 L 46.34712381 93.123287" />
<path class="stroke" d="M 20.29707888 83.021895 C 18.93941466 85.503645 16.76715228 87.693428 13.23722568 89.59124" />
<path class="stroke" d="M 70.5306513 83.16788 C 74.0605779 84.77372 76.232844 86.67152999999999 77.86204218 89.59124" />
</svg>
