<?xml version="1.0" standalone="no"?>
<!DOCTYPE svg PUBLIC "-//W3C//DTD SVG 1.1//EN" "http://www.w3.org/Graphics/SVG/1.1/DTD/svg11.dtd">
<svg xmlns="http://www.w3.org/2000/svg" version="1.1" width="100%" height="100%">
<style type="text/css"><![CDATA[
  .stroke { fill:none; stroke:black; stroke-width:2 }
]]></style>
<path class="stroke" d="M 6.46688 8.819209655172413 L 93.5331 8.819209655172413" />
<path class="stroke" d="M 14.6688 22.111919827586206 L 14.6688 39.750371551724136" />
<path class="stroke" d="M 14.6688 22.111919827586206 L 84.7003 22.111919827586206 L 84.7003 39.750371551724136" />
<path class="stroke" d="M 37.06627 9.074808620689655 L 37.06627 39.23908448275862" />
<path class="stroke" d="M 61.67194 9.0748775 L 61.67194 38.98348956896551" />
<path class="stroke" d="M 14.6688 39.750371551724136 L 84.7003 39.750371551724136" />
<path class="stroke" d="M 21.240875 49.64160433 C 25.036495 51.77883144 28.540146 54.27226195 30.8083 57.954285999999996" />
<path class="stroke" d="M 78.17518 49.64160433 C 76.423355 52.847445300000004 73.21168 55.51897812 68.832115 57.834306319999996" />
<path class="stroke" d="M 14.817516 65.31459663 L 85.47445 65.31459663" />
<path class="stroke" d="M 50.0 44.8584156 L 50.14598 94.1415844" />
<path class="stroke" d="M 44.598537 66.91751742 C 38.5894 75.408338 26.4537 84.04185100000001 11.89781 88.64598215999999" />
<path class="stroke" d="M 55.985397 67.09561790000001 C 60.8925 75.472449 73.1021 84.550164 87.81021 88.82408325" />
</svg>
