<?xml version="1.0" standalone="no"?>
<!DOCTYPE svg PUBLIC "-//W3C//DTD SVG 1.1//EN" "http://www.w3.org/Graphics/SVG/1.1/DTD/svg11.dtd">
<svg xmlns="http://www.w3.org/2000/svg" version="1.1" width="100%" height="100%">
<style type="text/css"><![CDATA[
  .stroke { fill:none; stroke:black; stroke-width:2 }
]]></style>
<path class="stroke" d="M 8.607954255319148 13.7224 C 11.1249 16.98216 12.433691489361703 19.92646 13.44054255319149 23.50156" />
<path class="stroke" d="M 34.884871276595746 13.72239 C 34.0794670212766 17.1924 32.36793510638298 20.347 29.750371276595747 23.1862" />
<path class="stroke" d="M 5.587621276595745 33.91172 L 39.11327234042554 33.91172" />
<path class="stroke" d="M 22.19947659574468 5.8359594 L 22.19947659574468 94.164" />
<path class="stroke" d="M 22.19940957446809 41.798 C 21.091930851063832 54.942 14.245898936170214 66.8245 6.493710638297873 73.343796" />
<path class="stroke" d="M 22.501541489361703 44.32176 C 28.54216914893617 47.37116 32.77063723404256 51.68236 36.09297765957447 57.25546" />
<path class="stroke" d="M 67.99999776 5.0 C 69.33068992 7.6732674 69.5642844 10.037088 69.6345924 12.702702" />
<path class="stroke" d="M 47.11351312 13.675674 L 91.9740536 13.351351" />
<path class="stroke" d="M 46.93189168 13.999998 L 47.11351312 39.62162 C 47.11351312 61.30479 48.15379208 79.686905 43.662702792 92.162155" />
<path class="stroke" d="M 58.519750816000005 30.9542195 L 84.05892769600001 30.9542195 L 84.05892769600001 57.7681495" />
<path class="stroke" d="M 52.379181304 44.36123550000001 L 90.059928856 44.36123550000001" />
<path class="stroke" d="M 58.519750816000005 57.7681495 L 84.05892769600001 57.7681495" />
<path class="stroke" d="M 72.47560079120001 21.5694035 L 72.47560079120001 89.140315 C 72.47560079120001 92.7155 71.35911768080001 94.94998 69.5448781936 95.0394 L 67.45148607600001 95.0394" />
<path class="stroke" d="M 57.124169048 64.7397764 C 59.357050328 66.8849214 61.31086568800001 69.83442310000001 62.846037928 73.320268" />
<path class="stroke" d="M 55.449468272000004 89.676665 C 59.357098992000005 87.978365 62.706509392 84.671355 65.916342592 78.414845" />
<path class="stroke" d="M 86.710549424 64.739773 C 85.26841390400001 68.583133 83.686789664 71.085703 81.40736790400001 72.783833" />
<path class="stroke" d="M 78.47652984000001 78.414675 C 82.15154664 80.38098000000001 85.2684316 83.419985 88.52480528000001 89.94484" />
</svg>
