<?xml version="1.0" standalone="no"?>
<!DOCTYPE svg PUBLIC "-//W3C//DTD SVG 1.1//EN" "http://www.w3.org/Graphics/SVG/1.1/DTD/svg11.dtd">
<svg xmlns="http://www.w3.org/2000/svg" version="1.1" width="100%" height="100%">
<style type="text/css"><![CDATA[
  .stroke { fill:none; stroke:black; stroke-width:2 }
]]></style>
<path class="stroke" d="M 9.077651276595745 15.899056 C 11.14714 18.9632304 12.22325744680851 21.7308724 13.051112765957448 25.0914664" />
<path class="stroke" d="M 30.683116382978724 15.8990466 C 30.02089510638298 19.160856 28.6136355319149 22.12618 26.461416382978726 24.795028" />
<path class="stroke" d="M 6.594266382978724 34.8770168 L 34.159801702127666 34.8770168" />
<path class="stroke" d="M 20.252902978723405 8.485801836 L 20.252902978723405 91.51415999999999" />
<path class="stroke" d="M 20.25284787234043 42.29012 C 19.34225425531915 54.64548 13.713294680851064 65.81503000000001 7.3392731914893625 71.94316823999999" />
<path class="stroke" d="M 20.501267446808512 44.662454399999994 C 25.468005744680852 47.5288904 28.94474617021277 51.5814184 31.676448297872344 56.8201324" />
<path class="stroke" d="M 39.502345837600004 29.127600000000005 L 68.84765232160001 29.127600000000005" />
<path class="stroke" d="M 54.175 9.325795521600002 L 54.175 51.90214233600001" />
<path class="stroke" d="M 45.91379393026 53.9827658175 L 45.91379393026 82.78696924500001" />
<path class="stroke" d="M 45.91379393026 53.9827658175 L 62.512345224 53.9827658175 L 62.512345224 82.510006503" />
<path class="stroke" d="M 45.91379393026 80.57126066880001 L 62.512345224 80.57126066880001" />
<path class="stroke" d="M 75.810036345 9.854013 L 75.7907721 55.63759 C 73.3434561575 80.20134 73.3434561575 79.39597 70.608221155 89.865776" />
<path class="stroke" d="M 75.810036345 9.854013 L 90.42317560000001 9.854013 L 90.42317560000001 86.05839 C 90.42317560000001 88.39416 90.00565492500002 90.43795 88.96186003 90.43795 L 87.81368657499999 90.43795" />
<path class="stroke" d="M 75.810036345 31.862577 L 90.42317560000001 31.862577" />
<path class="stroke" d="M 75.810036345 55.110336 L 90.42317560000001 55.110336" />
</svg>
