<?xml version="1.0" standalone="no"?>
<!DOCTYPE svg PUBLIC "-//W3C//DTD SVG 1.1//EN" "http://www.w3.org/Graphics/SVG/1.1/DTD/svg11.dtd">
<svg xmlns="http://www.w3.org/2000/svg" version="1.1" width="100%" height="100%">
<style type="text/css"><![CDATA[
  .stroke { fill:none; stroke:black; stroke-width:2 }
]]></style>
<path class="stroke" d="M 7.651514893617021 13.7224 C 9.8888 16.98216 11.052170212765958 19.92646 11.947148936170214 23.50156" />
<path class="stroke" d="M 31.008774468085107 13.72239 C 30.292859574468086 17.1924 28.77149787234043 20.347 26.444774468085107 23.1862" />
<path class="stroke" d="M 4.966774468085107 33.91172 L 34.76735319148936 33.91172" />
<path class="stroke" d="M 19.732868085106382 5.8359594 L 19.732868085106382 94.164" />
<path class="stroke" d="M 19.7328085106383 41.798 C 18.748382978723406 54.942 12.663021276595744 66.8245 5.772187234042554 73.343796" />
<path class="stroke" d="M 20.001370212765956 44.32176 C 25.370817021276597 47.37116 29.12945531914894 51.68236 32.08264680851064 57.25546" />
<path class="stroke" d="M 40.069398 17.90540863636364 L 92.309142 17.90540863636364" />
<path class="stroke" d="M 44.8012542 29.950159090909093 L 44.8012542 59.76080454545455" />
<path class="stroke" d="M 44.8012542 29.950063636363637 L 87.9558336 29.950063636363637 L 87.9558336 59.76080454545455" />
<path class="stroke" d="M 58.807590000000005 8.570689090909092 L 58.807590000000005 59.15858181818182" />
<path class="stroke" d="M 73.57099439999999 8.269568181818183 L 73.57099439999999 59.45964545454546" />
<path class="stroke" d="M 45.1797942 44.40379090909091 L 87.766536 44.40379090909091" />
<path class="stroke" d="M 44.8012542 59.76080454545455 L 87.766536 59.76080454545455" />
<path class="stroke" d="M 50.846713199999996 70.4613136 L 50.846713199999996 94.0058368" />
<path class="stroke" d="M 50.846713199999996 70.4613136 L 80.9781 70.4613136 L 80.9781 94.0058368" />
<path class="stroke" d="M 51.021896999999996 81.59220576 L 80.802918 81.59220576" />
<path class="stroke" d="M 50.846713199999996 92.97810048 L 80.9781 92.97810048" />
</svg>
