<?xml version="1.0" standalone="no"?>
<!DOCTYPE svg PUBLIC "-//W3C//DTD SVG 1.1//EN" "http://www.w3.org/Graphics/SVG/1.1/DTD/svg11.dtd">
<svg xmlns="http://www.w3.org/2000/svg" version="1.1" width="100%" height="100%">
<style type="text/css"><![CDATA[
  .stroke { fill:none; stroke:black; stroke-width:2 }
]]></style>
<path class="stroke" d="M 10.32954510638298 13.7224 C 13.34988 16.98216 14.920429787234044 19.92646 16.12865106382979 23.50156" />
<path class="stroke" d="M 41.8618455319149 13.72239 C 40.89536042553192 17.1924 38.84152212765958 20.347 35.700445531914895 23.1862" />
<path class="stroke" d="M 6.705145531914894 33.91172 L 46.935926808510644 33.91172" />
<path class="stroke" d="M 26.63937191489362 5.8359594 L 26.63937191489362 94.164" />
<path class="stroke" d="M 26.639291489361707 41.798 C 25.3103170212766 54.942 17.095078723404256 66.8245 7.792452765957448 73.343796" />
<path class="stroke" d="M 27.001849787234043 44.32176 C 34.25060297872341 47.37116 39.32476468085107 51.68236 43.311573191489366 57.25546" />
<path class="stroke" d="M 70.3321145 9.562042 C 70.1921175 15.17859 66.8448175 21.69519 63.8391225 21.91139" />
<path class="stroke" d="M 56.843064749999996 22.116787 L 56.843064749999996 91.0219" />
<path class="stroke" d="M 56.843064749999996 21.912285 L 88.4781017 21.912285 L 88.4781017 91.0219" />
<path class="stroke" d="M 56.843064749999996 54.368725 L 88.4781017 54.368725" />
<path class="stroke" d="M 56.843064749999996 88.02356 L 88.4781017 88.02356" />
</svg>
