<?xml version="1.0" standalone="no"?>
<!DOCTYPE svg PUBLIC "-//W3C//DTD SVG 1.1//EN" "http://www.w3.org/Graphics/SVG/1.1/DTD/svg11.dtd">
<svg xmlns="http://www.w3.org/2000/svg" version="1.1" width="100%" height="100%">
<style type="text/css"><![CDATA[
  .stroke { fill:none; stroke:black; stroke-width:2 }
]]></style>
<path class="stroke" d="M 6.267349725 20.5583576 L 43.379350800000005 20.5583576" />
<path class="stroke" d="M 16.09541535 10.1104088 L 16.09541535 71.43533599999999" />
<path class="stroke" d="M 33.4045614 10.11041096 L 33.4045614 71.66246" />
<path class="stroke" d="M 16.24211355 37.13882 L 33.25785855 37.13882" />
<path class="stroke" d="M 16.38880245 53.719232 L 33.25788645 53.719232" />
<path class="stroke" d="M 5.2405344 72.116744 L 44.992891500000006 72.116744" />
<path class="stroke" d="M 15.85175 78.75712000000001 C 14.3796 84.47744 11.01475 87.57312 7.17665 89.255552" />
<path class="stroke" d="M 32.88645 78.757056 C 34.8843 84.41004799999999 37.67085 87.23654400000001 41.5615 89.255488" />
<path class="stroke" d="M 52.6247523 24.329895 L 52.6247523 47.623764 C 52.6247523 75.84158 50.87227766 82.07921 48.76930762 88.019806" />
<path class="stroke" d="M 52.6175248 24.455444 L 89.0211325 24.455444 L 89.0211325 27.57732 C 89.0211325 30.206184 88.8386573 32.061855 88.01752479999999 34.381443" />
<path class="stroke" d="M 71.20098962 9.60396 L 71.20098962 42.27723" />
<path class="stroke" d="M 59.9851498 42.27723 L 82.59207950000001 42.27723 C 80.116174 72.0821 66.81980125 88.91089 54.20197924 89.80198" />
<path class="stroke" d="M 62.71570638 43.717278 C 62.72908227 55.470665 77.72826995 89.58115 88.6633506 89.58115" />
</svg>
