<?xml version="1.0" standalone="no"?>
<!DOCTYPE svg PUBLIC "-//W3C//DTD SVG 1.1//EN" "http://www.w3.org/Graphics/SVG/1.1/DTD/svg11.dtd">
<svg xmlns="http://www.w3.org/2000/svg" version="1.1" width="100%" height="100%">
<style type="text/css"><![CDATA[
  .stroke { fill:none; stroke:black; stroke-width:2 }
]]></style>
<path class="stroke" d="M 21.135134 6.5690687500000005 C 18.799368 12.043520833333332 13.449989 19.24853611111111 8.486486 21.884383333333332" />
<path class="stroke" d="M 18.216215 12.424924305555557 L 47.226276 12.520274999999998" />
<path class="stroke" d="M 26.0 12.650149305555553 C 30.08759 15.894270138888889 30.6376 14.765951388888888 31.513512 19.63212986111111" />
<path class="stroke" d="M 65.32846 6.437550694444444 C 63.284668 13.128546527777779 60.07299 15.967152083333334 57.44525 17.994727083333334" />
<path class="stroke" d="M 62.9927 12.723032638888888 L 89.24324 12.875374305555555" />
<path class="stroke" d="M 72.62773 13.128546527777779 C 74.97297 16.47897847222222 74.64864 15.803302777777777 76.918915 19.181680555555555" />
<path class="stroke" d="M 8.1420027305 36.446686080000006 L 44.511763784 36.446686080000006" />
<path class="stroke" d="M 17.773507043 28.088327040000003 L 17.773507043 77.1482688" />
<path class="stroke" d="M 34.736470172 28.088328768 L 34.736470172 77.32996800000001" />
<path class="stroke" d="M 17.917271278999998 49.711056 L 34.592701379 49.711056" />
<path class="stroke" d="M 18.061026401 62.9753856 L 34.592728721 62.9753856" />
<path class="stroke" d="M 7.135723712 77.6933952 L 46.093033670000004 77.6933952" />
<path class="stroke" d="M 17.534715 83.00569600000001 C 16.092008 87.581952 12.794455 90.058496 9.033117 91.4044416" />
<path class="stroke" d="M 34.228721 83.0056448 C 36.186614000000006 87.5280384 38.917433 89.78923520000001 42.730270000000004 91.4043904" />
<path class="stroke" d="M 53.57225725399999 39.463916 L 53.57225725399999 58.0990112 C 53.57225725399999 80.67326399999999 51.8548321068 85.663368 49.7939214676 90.4158448" />
<path class="stroke" d="M 53.565174303999996 39.5643552 L 89.24070984999999 39.5643552 L 89.24070984999999 42.061856000000006 C 89.24070984999999 44.1649472 89.061884154 45.649484 88.25717430399999 47.505154399999995" />
<path class="stroke" d="M 71.7769698276 27.683168000000002 L 71.7769698276 53.821784" />
<path class="stroke" d="M 60.785446804 53.821784 L 82.94023791000001 53.821784 C 80.51385052 77.66568000000001 67.483405225 91.128712 55.1179396552 91.841584" />
<path class="stroke" d="M 63.461392252399996 54.9738224 C 63.4745006246 64.376532 78.173704551 91.66492 88.890083588 91.66492" />
</svg>
