<?xml version="1.0" standalone="no"?>
<!DOCTYPE svg PUBLIC "-//W3C//DTD SVG 1.1//EN" "http://www.w3.org/Graphics/SVG/1.1/DTD/svg11.dtd">
<svg xmlns="http://www.w3.org/2000/svg" version="1.1" width="100%" height="100%">
<style type="text/css"><![CDATA[
  .stroke { fill:none; stroke:black; stroke-width:2 }
]]></style>
<path class="stroke" d="M 21.135134 7.357357 C 18.799368 13.488743333333332 13.449989 21.558360444444443 8.486486 24.51050933333333" />
<path class="stroke" d="M 18.216215 13.915915222222223 L 47.226276 14.022708" />
<path class="stroke" d="M 26.0 14.168167222222221 C 30.08759 17.801582555555555 30.6376 16.537865555555555 31.513512 21.987985444444444" />
<path class="stroke" d="M 65.32846 7.210056777777778 C 63.284668 14.703972111111112 60.07299 17.883210333333334 57.44525 20.154094333333337" />
<path class="stroke" d="M 62.9927 14.249796555555555 L 89.24324 14.420419222222222" />
<path class="stroke" d="M 72.62773 14.703972111111112 C 74.97297 18.45645588888889 74.64864 17.699699111111112 76.918915 21.48348222222222" />
<path class="stroke" d="M 72.04379 30.141605679999998 C 59.78102 32.64671374 39.051094 34.01313802 27.080292 34.2408754" />
<path class="stroke" d="M 10.49505 53.1227722 L 89.80198 53.1227722" />
<path class="stroke" d="M 50.14598 33.10218928 L 50.14598 69.80396296" />
<path class="stroke" d="M 28.910892 69.80396296 L 28.910892 92.2772278" />
<path class="stroke" d="M 28.910892 69.80396296 L 71.68317 69.80396296 L 71.68317 92.2772278" />
<path class="stroke" d="M 28.910892 92.2772278 L 71.38614 92.2772278" />
</svg>
