<?xml version="1.0" standalone="no"?>
<!DOCTYPE svg PUBLIC "-//W3C//DTD SVG 1.1//EN" "http://www.w3.org/Graphics/SVG/1.1/DTD/svg11.dtd">
<svg xmlns="http://www.w3.org/2000/svg" version="1.1" width="100%" height="100%">
<style type="text/css"><![CDATA[
  .stroke { fill:none; stroke:black; stroke-width:2 }
]]></style>
<path class="stroke" d="M 21.135134 5.7807805000000005 C 18.799368 10.598298333333332 13.449989 16.93871177777778 8.486486 19.258257333333333" />
<path class="stroke" d="M 18.216215 10.93393338888889 L 47.226276 11.017842" />
<path class="stroke" d="M 26.0 11.132131388888888 C 30.08759 13.986957722222224 30.6376 12.994037222222223 31.513512 17.27627427777778" />
<path class="stroke" d="M 65.32846 5.665044611111112 C 63.284668 11.553120944444446 60.07299 14.051093833333336 57.44525 15.835359833333335" />
<path class="stroke" d="M 62.9927 11.196268722222223 L 89.24324 11.33032938888889" />
<path class="stroke" d="M 72.62773 11.553120944444446 C 74.97297 14.501501055555556 74.64864 13.906906444444445 76.918915 16.87987888888889" />
<path class="stroke" d="M 22.0197081 25.427006835999997 L 78.0956215 25.427006835999997" />
<path class="stroke" d="M 22.0197081 35.338829488 L 78.66204330000001 35.338829488 L 78.66204330000001 49.77561943599999" />
<path class="stroke" d="M 22.0197081 49.77561943599999 L 78.3788324 49.77561943599999" />
<path class="stroke" d="M 22.0197081 35.338829488 L 22.0197081 63.565981900000004 C 22.0197081 73.9087567 17.67128637 79.20494727999998 9.6039603 82.93148566" />
<path class="stroke" d="M 30.03179752 61.95750926 L 30.03179752 93.1537508" />
<path class="stroke" d="M 30.03179752 61.95750926 L 85.14427394 61.95750926 L 85.14427394 90.5928539 C 85.22888995 91.95092149999999 83.02782705999999 92.9597306 80.82668365999999 92.9209487 L 77.52504907 92.9209487" />
<path class="stroke" d="M 31.047648546999994 77.08999631 L 84.382391708 77.20641581" />
<path class="stroke" d="M 48.57186574799999 62.073912154999995 L 48.57186574799999 92.33889178999999" />
<path class="stroke" d="M 67.6199955514 62.073912893 L 67.6199955514 92.45529284" />
</svg>
