<?xml version="1.0" standalone="no"?>
<!DOCTYPE svg PUBLIC "-//W3C//DTD SVG 1.1//EN" "http://www.w3.org/Graphics/SVG/1.1/DTD/svg11.dtd">
<svg xmlns="http://www.w3.org/2000/svg" version="1.1" width="100%" height="100%">
<style type="text/css"><![CDATA[
  .stroke { fill:none; stroke:black; stroke-width:2 }
]]></style>
<path class="stroke" d="M 21.135134 6.5690687500000005 C 18.799368 12.043520833333332 13.449989 19.24853611111111 8.486486 21.884383333333332" />
<path class="stroke" d="M 18.216215 12.424924305555557 L 47.226276 12.520274999999998" />
<path class="stroke" d="M 26.0 12.650149305555553 C 30.08759 15.894270138888889 30.6376 14.765951388888888 31.513512 19.63212986111111" />
<path class="stroke" d="M 65.32846 6.437550694444444 C 63.284668 13.128546527777779 60.07299 15.967152083333334 57.44525 17.994727083333334" />
<path class="stroke" d="M 62.9927 12.723032638888888 L 89.24324 12.875374305555555" />
<path class="stroke" d="M 72.62773 13.128546527777779 C 74.97297 16.47897847222222 74.64864 15.803302777777777 76.918915 19.181680555555555" />
<path class="stroke" d="M 36.812357 27.651412999999998 C 36.506322 52.103533 25.184579 72.669309 10.496848700000001 88.134066" />
<path class="stroke" d="M 16.922701 27.408516499999998 L 70.471551 27.408516499999998 C 68.431544 36.881710999999996 65.167688 42.954316000000006 59.455843 49.99843 L 80.26341000000001 49.99843 C 78.121456 70.321271 50.275957 85.54317 19.064655 92.50628" />
<path class="stroke" d="M 36.50622499999999 34.938462 C 43.646103999999994 69.511539 63.637707 92.911146 87.301245 92.263345 L 93.42116899999999 92.263345" />
</svg>
