<?xml version="1.0" standalone="no"?>
<!DOCTYPE svg PUBLIC "-//W3C//DTD SVG 1.1//EN" "http://www.w3.org/Graphics/SVG/1.1/DTD/svg11.dtd">
<svg xmlns="http://www.w3.org/2000/svg" version="1.1" width="100%" height="100%">
<style type="text/css"><![CDATA[
  .stroke { fill:none; stroke:black; stroke-width:2 }
]]></style>
<path class="stroke" d="M 21.135134 6.831831500000001 C 18.799368 12.525261666666665 13.449989 20.018477555555556 8.486486 22.759758666666666" />
<path class="stroke" d="M 18.216215 12.921921277777779 L 47.226276 13.021085999999999" />
<path class="stroke" d="M 26.0 13.156155277777776 C 30.08759 16.530040944444444 30.6376 15.356589444444444 31.513512 20.417415055555555" />
<path class="stroke" d="M 65.32846 6.695052722222222 C 63.284668 13.65368838888889 60.07299 16.60583816666667 57.44525 18.714516166666666" />
<path class="stroke" d="M 62.9927 13.231953944444443 L 89.24324 13.390389277777777" />
<path class="stroke" d="M 72.62773 13.65368838888889 C 74.97297 17.13813761111111 74.64864 16.43543488888889 76.918915 19.94894777777778" />
<path class="stroke" d="M 12.53469945 38.829935352 L 86.75870160000001 38.829935352" />
<path class="stroke" d="M 32.1908307 30.785014776 L 32.1908307 78.00520872" />
<path class="stroke" d="M 66.8091228 30.7850164392 L 66.8091228 78.1800942" />
<path class="stroke" d="M 32.4842271 51.596891400000004 L 66.5157171 51.596891400000004" />
<path class="stroke" d="M 32.7776049 64.36380864 L 66.5157729 64.36380864" />
<path class="stroke" d="M 10.4810688 78.52989288 L 89.98578300000001 78.52989288" />
<path class="stroke" d="M 31.7035 83.64298240000002 C 28.7592 88.0476288 22.0295 90.4313024 14.3533 91.72677503999999" />
<path class="stroke" d="M 65.7729 83.64293312000001 C 69.7686 87.99573695999999 75.3417 90.17213888 83.123 91.72672576000001" />
</svg>
