<?xml version="1.0" standalone="no"?>
<!DOCTYPE svg PUBLIC "-//W3C//DTD SVG 1.1//EN" "http://www.w3.org/Graphics/SVG/1.1/DTD/svg11.dtd">
<svg xmlns="http://www.w3.org/2000/svg" version="1.1" width="100%" height="100%">
<style type="text/css"><![CDATA[
  .stroke { fill:none; stroke:black; stroke-width:2 }
]]></style>
<path class="stroke" d="M 24.021620600000002 4.46696675 C 21.919431200000002 8.189594166666666 17.104990100000002 13.089004555555555 12.637837399999999 14.881380666666665" />
<path class="stroke" d="M 21.3945935 8.448948527777778 L 47.5036484 8.513786999999999" />
<path class="stroke" d="M 28.400000000000002 8.602101527777776 C 32.078831 10.808103694444444 32.573840000000004 10.040846944444445 33.3621608 13.349848305555556" />
<path class="stroke" d="M 63.79561400000001 4.377534472222222 C 61.9562012 8.92741163888889 59.065691 10.857663416666668 56.700725000000006 12.236414416666667" />
<path class="stroke" d="M 61.69343 8.651662194444445 L 85.318916 8.755254527777778" />
<path class="stroke" d="M 70.364957 8.92741163888889 C 72.475673 11.20570536111111 72.18377600000001 10.746245888888888 74.2270235 13.043542777777777" />
<path class="stroke" d="M 23.576641 19.15547386 L 23.576641 45.9408736" />
<path class="stroke" d="M 23.576641 19.15547386 L 76.131386 19.15547386 L 76.131386 45.8445235" />
<path class="stroke" d="M 23.576641 27.337528839999997 L 76.131386 27.337528839999997" />
<path class="stroke" d="M 23.576641 36.5246272 L 76.131386 36.5246272" />
<path class="stroke" d="M 23.576641 44.9773693 L 76.131386 44.9773693" />
<path class="stroke" d="M 18.8613131 56.9525543 L 81.40145000000001 56.9525543" />
<path class="stroke" d="M 49.495325 47.69626145 L 49.1588798 47.827103 C 45.61421360000001 58.515228 35.0280383 62.3504685 10.4672894 69.0233655" />
<path class="stroke" d="M 57.2336456 56.9859807 C 64.635512 61.434579400000004 70.6915886 65.3598133 85.831781 69.28504649999999" />
<path class="stroke" d="M 47.226276 61.77080284 C 41.38686 65.20437928 34.08759 68.27007226 26.788319 70.96788304 L 41.8179 76.60810000000001" />
<path class="stroke" d="M 63.868607 68.88321094 C 55.1943 72.675346 39.1713 78.60923199999999 23.86861 84.21167584 L 72.62773 82.00437844" />
<path class="stroke" d="M 68.540146 78.2029198 C 72.33576 80.042335 74.9635 81.75912448 75.83941 84.21167584" />
<path class="stroke" d="M 49.85401 83.2306558 L 49.835617 96.74356108" />
<path class="stroke" d="M 21.824816 88.2583918 C 20.364962 90.3430618 18.029196 92.18247951999999 14.233576 93.7766416" />
<path class="stroke" d="M 75.83941 88.3810192 C 79.63503 89.72992479999999 81.9708 91.3240852 83.722626 93.7766416" />
</svg>
