<?xml version="1.0" standalone="no"?>
<!DOCTYPE svg PUBLIC "-//W3C//DTD SVG 1.1//EN" "http://www.w3.org/Graphics/SVG/1.1/DTD/svg11.dtd">
<svg xmlns="http://www.w3.org/2000/svg" version="1.1" width="100%" height="100%">
<style type="text/css"><![CDATA[
  .stroke { fill:none; stroke:black; stroke-width:2 }
]]></style>
<path class="stroke" d="M 21.135134 6.5690687500000005 C 18.799368 12.043520833333332 13.449989 19.24853611111111 8.486486 21.884383333333332" />
<path class="stroke" d="M 18.216215 12.424924305555557 L 47.226276 12.520274999999998" />
<path class="stroke" d="M 26.0 12.650149305555553 C 30.08759 15.894270138888889 30.6376 14.765951388888888 31.513512 19.63212986111111" />
<path class="stroke" d="M 65.32846 6.437550694444444 C 63.284668 13.128546527777779 60.07299 15.967152083333334 57.44525 17.994727083333334" />
<path class="stroke" d="M 62.9927 12.723032638888888 L 89.24324 12.875374305555555" />
<path class="stroke" d="M 72.62773 13.128546527777779 C 74.97297 16.47897847222222 74.64864 15.803302777777777 76.918915 19.181680555555555" />
<path class="stroke" d="M 29.80198 31.39462580142857 L 60.69307 31.39462580142857" />
<path class="stroke" d="M 45.544556 21.90664772857143 L 45.544556 43.966196408571435" />
<path class="stroke" d="M 14.356436 44.10384297142856 L 85.64356 44.10384297142856" />
<path class="stroke" d="M 72.27723 26.88783683571429 C 57.425743 46.5753896 35.148514 58.909760535714284 11.386139 64.60254865714286" />
<path class="stroke" d="M 31.81605584 58.814787953 L 31.81605584 91.085500064" />
<path class="stroke" d="M 31.81605584 58.814787953 L 67.97371999999999 58.814787953 L 67.97371999999999 91.085500064" />
<path class="stroke" d="M 32.0262764 74.0710670198 L 67.7635016 74.0710670198" />
<path class="stroke" d="M 31.81605584 89.67685897039999 L 67.97371999999999 89.67685897039999" />
</svg>
