<?xml version="1.0" standalone="no"?>
<!DOCTYPE svg PUBLIC "-//W3C//DTD SVG 1.1//EN" "http://www.w3.org/Graphics/SVG/1.1/DTD/svg11.dtd">
<svg xmlns="http://www.w3.org/2000/svg" version="1.1" width="100%" height="100%">
<style type="text/css"><![CDATA[
  .stroke { fill:none; stroke:black; stroke-width:2 }
]]></style>
<path class="stroke" d="M 12.189779 10.985401 L 87.81021 10.985401" />
<path class="stroke" d="M 34.67153 5.875911299999999 L 34.67153 16.5036487" />
<path class="stroke" d="M 65.32846 5.875911299999999 L 65.32846 16.5036487" />
<path class="stroke" d="M 24.744522 24.1824815 L 24.744522 46.255472" />
<path class="stroke" d="M 24.744522 24.1824815 L 74.9635 24.1824815 L 74.9635 46.255472" />
<path class="stroke" d="M 25.036495 34.617692899999994 L 74.67153 34.617692899999994" />
<path class="stroke" d="M 24.744522 45.2919692 L 74.9635 45.2919692" />
<path class="stroke" d="M 15.401459 63.32262728 L 84.8905 63.32262728" />
<path class="stroke" d="M 49.43925 53.80186892 L 49.065422 53.9364488 C 45.126904 64.9299488 33.364487 68.8747676 6.074766 75.7383188" />
<path class="stroke" d="M 58.037384 63.357008719999996 C 66.26168 67.93271024 72.990654 71.97009368 89.81309 76.0074764" />
<path class="stroke" d="M 27.568610619999998 78.96715306 L 69.2357615 78.33649624 C 68.19926799999999 87.3233566 65.0897804 92.132116 64.05328406000001 93.1569334 C 62.809484049999995 94.02408592 60.321896100000004 94.2605827 58.248901999999994 94.3394146 L 56.1759079 94.2605827" />
<path class="stroke" d="M 48.091237299999996 72.81824812 C 45.6036458 81.64744441 37.5189752 90.63430585 24.45912302 93.1569334" />
</svg>
