<?xml version="1.0" standalone="no"?>
<!DOCTYPE svg PUBLIC "-//W3C//DTD SVG 1.1//EN" "http://www.w3.org/Graphics/SVG/1.1/DTD/svg11.dtd">
<svg xmlns="http://www.w3.org/2000/svg" version="1.1" width="100%" height="100%">
<style type="text/css"><![CDATA[
  .stroke { fill:none; stroke:black; stroke-width:2 }
]]></style>
<path class="stroke" d="M 24.665224586397063 11.605839 C 21.35103432904412 27.372261 14.467715900735294 41.970802 8.604147380514705 50.14598" />
<path class="stroke" d="M 19.56646893382353 30.583939 L 19.56646893382353 90.43795" />
<path class="stroke" d="M 31.46875 29.9124078 L 31.46875 77.912406" />
<path class="stroke" d="M 57.34554612 9.608910845 C 55.355445790000005 15.554405788499999 50.57920875000001 22.606038589999997 43.215841080000004 26.615791351" />
<path class="stroke" d="M 50.380197980000005 21.6381677315 L 84.01286870000001 21.6381677315" />
<path class="stroke" d="M 68.49010100000001 21.776435661999997 C 66.10197980000001 33.529159946 55.952476090000005 43.346137858 40.0316835 46.802821689999995" />
<path class="stroke" d="M 50.380197980000005 25.2331190285 C 54.75841482 33.667426479999996 76.0524714 46.941089155 87.7940606 46.941089155" />
<path class="stroke" d="M 46.4489033 60.98758975 L 86.7467099 60.98758975" />
<path class="stroke" d="M 66.59780660000001 53.91459845 L 66.59780660000001 92.74671199999999" />
<path class="stroke" d="M 66.59780660000001 63.345254624999995 C 60.1423365 74.02408634999999 52.317517050000006 79.7102173 42.145254109999996 82.62262374999999" />
<path class="stroke" d="M 66.59780660000001 63.345254624999995 C 72.66204025 74.162771625 80.8780995 79.848902575 91.05036378 82.345254625" />
</svg>
