<?xml version="1.0" standalone="no"?>
<!DOCTYPE svg PUBLIC "-//W3C//DTD SVG 1.1//EN" "http://www.w3.org/Graphics/SVG/1.1/DTD/svg11.dtd">
<svg xmlns="http://www.w3.org/2000/svg" version="1.1" width="100%" height="100%">
<style type="text/css"><![CDATA[
  .stroke { fill:none; stroke:black; stroke-width:2 }
]]></style>
<path class="stroke" d="M 21.135134 6.5690687500000005 C 18.799368 12.043520833333332 13.449989 19.24853611111111 8.486486 21.884383333333332" />
<path class="stroke" d="M 18.216215 12.424924305555557 L 47.226276 12.520274999999998" />
<path class="stroke" d="M 26.0 12.650149305555553 C 30.08759 15.894270138888889 30.6376 14.765951388888888 31.513512 19.63212986111111" />
<path class="stroke" d="M 65.32846 6.437550694444444 C 63.284668 13.128546527777779 60.07299 15.967152083333334 57.44525 17.994727083333334" />
<path class="stroke" d="M 62.9927 12.723032638888888 L 89.24324 12.875374305555555" />
<path class="stroke" d="M 72.62773 13.128546527777779 C 74.97297 16.47897847222222 74.64864 15.803302777777777 76.918915 19.181680555555555" />
<path class="stroke" d="M 24.665224586397063 28.40072959 C 21.35103432904412 41.17153141 14.467715900735294 52.996349620000004 8.604147380514705 59.6182438" />
<path class="stroke" d="M 19.56646893382353 43.772990590000006 L 19.56646893382353 92.2547395" />
<path class="stroke" d="M 31.46875 43.229050318000006 L 31.46875 82.10904886" />
<path class="stroke" d="M 57.34554612 26.783217784450002 C 55.355445790000005 31.599068688685 50.57920875000001 37.310891257899996 43.215841080000004 40.55879099431" />
<path class="stroke" d="M 50.380197980000005 36.526915862515 L 84.01286870000001 36.526915862515" />
<path class="stroke" d="M 68.49010100000001 36.63891288622 C 66.10197980000001 46.15861955626001 55.952476090000005 54.11037166498 40.0316835 56.9102855689" />
<path class="stroke" d="M 50.380197980000005 39.438826413084996 C 54.75841482 46.2706154488 76.0524714 57.02228221555 87.7940606 57.02228221555" />
<path class="stroke" d="M 46.4489033 68.39994769750001 L 86.7467099 68.39994769750001" />
<path class="stroke" d="M 66.59780660000001 62.6708247445 L 66.59780660000001 94.12483671999999" />
<path class="stroke" d="M 66.59780660000001 70.30965624625 C 60.1423365 78.9595099435 52.317517050000006 83.565276013 42.145254109999996 85.9243252375" />
<path class="stroke" d="M 66.59780660000001 70.30965624625 C 72.66204025 79.07184501625001 80.8780995 83.67761108575 91.05036378 85.69965624625" />
</svg>
