<?xml version="1.0" standalone="no"?>
<!DOCTYPE svg PUBLIC "-//W3C//DTD SVG 1.1//EN" "http://www.w3.org/Graphics/SVG/1.1/DTD/svg11.dtd">
<svg xmlns="http://www.w3.org/2000/svg" version="1.1" width="100%" height="100%">
<style type="text/css"><![CDATA[
  .stroke { fill:none; stroke:black; stroke-width:2 }
]]></style>
<path class="stroke" d="M 21.135134 6.5690687500000005 C 18.799368 12.043520833333332 13.449989 19.24853611111111 8.486486 21.884383333333332" />
<path class="stroke" d="M 18.216215 12.424924305555557 L 47.226276 12.520274999999998" />
<path class="stroke" d="M 26.0 12.650149305555553 C 30.08759 15.894270138888889 30.6376 14.765951388888888 31.513512 19.63212986111111" />
<path class="stroke" d="M 65.32846 6.437550694444444 C 63.284668 13.128546527777779 60.07299 15.967152083333334 57.44525 17.994727083333334" />
<path class="stroke" d="M 62.9927 12.723032638888888 L 89.24324 12.875374305555555" />
<path class="stroke" d="M 72.62773 13.128546527777779 C 74.97297 16.47897847222222 74.64864 15.803302777777777 76.918915 19.181680555555555" />
<path class="stroke" d="M 50.0 25.870218877 L 50.0 29.630510956000002" />
<path class="stroke" d="M 22.116787 29.843357329 L 78.46715 29.843357329" />
<path class="stroke" d="M 26.788319 32.89416085 C 32.627735 35.448320728 37.007298 38.78291836 39.343063 42.04656874" />
<path class="stroke" d="M 74.087585 32.32656874 C 67.08029 34.9516783 61.240875 38.99576692 59.78102 43.18175053" />
<path class="stroke" d="M 11.313868 43.89124006 L 88.10219 43.89124006" />
<path class="stroke" d="M 28.540146 53.498901565000004 L 28.540146 76.39175215" />
<path class="stroke" d="M 28.540146 53.498901565000004 L 71.75182 53.498901565000004 L 71.75182 76.39175215" />
<path class="stroke" d="M 28.540146 64.94532463000002 L 71.75182 64.94532463000002" />
<path class="stroke" d="M 28.540146 76.39175215 L 71.75182 76.39175215" />
<path class="stroke" d="M 50.14598 53.498901565000004 L 50.14598 82.63525645 C 50.14598 87.05773495000001 52.77372 91.48021345000001 57.153282 91.48021345000001 L 82.26277 91.48021345000001 C 85.18248 91.48021345000001 86.9343 89.39905129 86.9343 86.53743550000002 L 86.9343 83.15554699000002" />
</svg>
