<?xml version="1.0" standalone="no"?>
<!DOCTYPE svg PUBLIC "-//W3C//DTD SVG 1.1//EN" "http://www.w3.org/Graphics/SVG/1.1/DTD/svg11.dtd">
<svg xmlns="http://www.w3.org/2000/svg" version="1.1" width="100%" height="100%">
<style type="text/css"><![CDATA[
  .stroke { fill:none; stroke:black; stroke-width:2 }
]]></style>
<path class="stroke" d="M 21.135134 6.831831500000001 C 18.799368 12.525261666666665 13.449989 20.018477555555556 8.486486 22.759758666666666" />
<path class="stroke" d="M 18.216215 12.921921277777779 L 47.226276 13.021085999999999" />
<path class="stroke" d="M 26.0 13.156155277777776 C 30.08759 16.530040944444444 30.6376 15.356589444444444 31.513512 20.417415055555555" />
<path class="stroke" d="M 65.32846 6.695052722222222 C 63.284668 13.65368838888889 60.07299 16.60583816666667 57.44525 18.714516166666666" />
<path class="stroke" d="M 62.9927 13.231953944444443 L 89.24324 13.390389277777777" />
<path class="stroke" d="M 72.62773 13.65368838888889 C 74.97297 17.13813761111111 74.64864 16.43543488888889 76.918915 19.94894777777778" />
<path class="stroke" d="M 28.7065685 28.39198876509804 C 32.56058306 30.27342618392157 35.64379418 32.86040172862745 37.95620318 35.32978818980392" />
<path class="stroke" d="M 69.5591198 28.39198876509804 C 67.98668696 30.720267037254903 64.7416016 33.448349965490195 61.4656916 35.44737727333334" />
<path class="stroke" d="M 9.562042 37.089666666666666 L 90.43795 37.089666666666666" />
<path class="stroke" d="M 19.78588786666667 48.45163477620001 L 19.78588786666667 89.5869863" />
<path class="stroke" d="M 19.78588786666667 48.45163477620001 L 43.62043523333334 48.45163477620001 L 43.62043523333334 90.440420456 C 43.62043523333334 91.293848766 42.11191943333334 92.65933990799999 40.0 92.48865424600001 L 38.18977876666667 92.48865424600001" />
<path class="stroke" d="M 19.78588786666667 59.887605113999996 L 43.62043523333334 59.887605113999996" />
<path class="stroke" d="M 19.78588786666667 71.66494736039999 L 43.318733933333334 71.66494736039999" />
<path class="stroke" d="M 61.532845 50.4998679816 L 61.532845 70.2994585568" />
<path class="stroke" d="M 79.927 47.0861448034 L 79.927 89.5869863 C 79.927 91.12316310400001 77.59124 92.48865424600001 75.54744 92.65933990799999 L 73.21168 92.65933990799999" />
</svg>
