<?xml version="1.0" standalone="no"?>
<!DOCTYPE svg PUBLIC "-//W3C//DTD SVG 1.1//EN" "http://www.w3.org/Graphics/SVG/1.1/DTD/svg11.dtd">
<svg xmlns="http://www.w3.org/2000/svg" version="1.1" width="100%" height="100%">
<style type="text/css"><![CDATA[
  .stroke { fill:none; stroke:black; stroke-width:2 }
]]></style>
<path class="stroke" d="M 21.135134 6.831831500000001 C 18.799368 12.525261666666665 13.449989 20.018477555555556 8.486486 22.759758666666666" />
<path class="stroke" d="M 18.216215 12.921921277777779 L 47.226276 13.021085999999999" />
<path class="stroke" d="M 26.0 13.156155277777776 C 30.08759 16.530040944444444 30.6376 15.356589444444444 31.513512 20.417415055555555" />
<path class="stroke" d="M 65.32846 6.695052722222222 C 63.284668 13.65368838888889 60.07299 16.60583816666667 57.44525 18.714516166666666" />
<path class="stroke" d="M 62.9927 13.231953944444443 L 89.24324 13.390389277777777" />
<path class="stroke" d="M 72.62773 13.65368838888889 C 74.97297 17.13813761111111 74.64864 16.43543488888889 76.918915 19.94894777777778" />
<path class="stroke" d="M 12.646682 31.9794925 L 82.91169199999999 31.9794925 L 82.91169199999999 90.8911 C 82.91169199999999 93.7303 80.74131 95.38645 78.570928 95.38645 L 74.77291000000001 95.38645" />
<path class="stroke" d="M 23.751780110800002 44.6875 L 64.78821583 44.6875" />
<path class="stroke" d="M 29.803544122219996 55.99662371875 L 29.803544122219996 73.53238956250001" />
<path class="stroke" d="M 29.803544122219996 55.99662371875 L 58.869785527999994 55.99662371875 L 58.869785527999994 73.3637768875" />
<path class="stroke" d="M 29.803544122219996 72.18348412 L 58.869785527999994 72.18348412" />
</svg>
