<?xml version="1.0" standalone="no"?>
<!DOCTYPE svg PUBLIC "-//W3C//DTD SVG 1.1//EN" "http://www.w3.org/Graphics/SVG/1.1/DTD/svg11.dtd">
<svg xmlns="http://www.w3.org/2000/svg" version="1.1" width="100%" height="100%">
<style type="text/css"><![CDATA[
  .stroke { fill:none; stroke:black; stroke-width:2 }
]]></style>
<path class="stroke" d="M 21.135134 6.5690687500000005 C 18.799368 12.043520833333332 13.449989 19.24853611111111 8.486486 21.884383333333332" />
<path class="stroke" d="M 18.216215 12.424924305555557 L 47.226276 12.520274999999998" />
<path class="stroke" d="M 26.0 12.650149305555553 C 30.08759 15.894270138888889 30.6376 14.765951388888888 31.513512 19.63212986111111" />
<path class="stroke" d="M 65.32846 6.437550694444444 C 63.284668 13.128546527777779 60.07299 15.967152083333334 57.44525 17.994727083333334" />
<path class="stroke" d="M 62.9927 12.723032638888888 L 89.24324 12.875374305555555" />
<path class="stroke" d="M 72.62773 13.128546527777779 C 74.97297 16.47897847222222 74.64864 15.803302777777777 76.918915 19.181680555555555" />
<path class="stroke" d="M 13.154171785714285 31.2475248 C 16.654879285714284 32.910892000000004 20.15558785714286 35.2871296 23.01980357142857 38.1386136" />
<path class="stroke" d="M 10.926448928571428 50.495050400000004 C 14.108912142857141 51.920792000000006 17.927864999999997 54.059405600000005 20.473834285714286 56.910892000000004" />
<path class="stroke" d="M 10.608203571428572 88.514848 C 11.321795357142857 89.9381408 13.310014285714285 91.9175232 15.629600357142856 91.9175232 C 17.949189642857142 91.9175232 21.110325 81.386136 23.33804892857143 75.683168" />
<path class="stroke" d="M 58.7554705 27.6496336 C 58.513657499999994 32.142872 52.7319575 37.356152 47.540302499999996 37.529112" />
<path class="stroke" d="M 35.456202749999996 37.6934296 L 35.456202749999996 92.81752" />
<path class="stroke" d="M 35.456202749999996 37.529828 L 90.0985393 37.529828 L 90.0985393 92.81752" />
<path class="stroke" d="M 35.456202749999996 63.49498 L 90.0985393 63.49498" />
<path class="stroke" d="M 35.456202749999996 90.41884800000001 L 90.0985393 90.41884800000001" />
</svg>
