<?xml version="1.0" standalone="no"?>
<!DOCTYPE svg PUBLIC "-//W3C//DTD SVG 1.1//EN" "http://www.w3.org/Graphics/SVG/1.1/DTD/svg11.dtd">
<svg xmlns="http://www.w3.org/2000/svg" version="1.1" width="100%" height="100%">
<style type="text/css"><![CDATA[
  .stroke { fill:none; stroke:black; stroke-width:2 }
]]></style>
<path class="stroke" d="M 21.135134 6.5690687500000005 C 18.799368 12.043520833333332 13.449989 19.24853611111111 8.486486 21.884383333333332" />
<path class="stroke" d="M 18.216215 12.424924305555557 L 47.226276 12.520274999999998" />
<path class="stroke" d="M 26.0 12.650149305555553 C 30.08759 15.894270138888889 30.6376 14.765951388888888 31.513512 19.63212986111111" />
<path class="stroke" d="M 65.32846 6.437550694444444 C 63.284668 13.128546527777779 60.07299 15.967152083333334 57.44525 17.994727083333334" />
<path class="stroke" d="M 62.9927 12.723032638888888 L 89.24324 12.875374305555555" />
<path class="stroke" d="M 72.62773 13.128546527777779 C 74.97297 16.47897847222222 74.64864 15.803302777777777 76.918915 19.181680555555555" />
<path class="stroke" d="M 19.48905 27.191678689999996 L 19.48905 55.6150343" />
<path class="stroke" d="M 19.48905 27.191678689999996 L 80.51095 27.191678689999996 L 80.51095 54.06467006 C 80.51095 54.99489002 79.63503 55.51167691999999 77.00729 55.51167691999999 L 74.087585 55.51167691999999" />
<path class="stroke" d="M 54.0729887 29.107298473999997 C 51.1824794 38.849196883999994 39.883208 45.537663572 28.846715 49.17269804" />
<path class="stroke" d="M 49.868609000000006 40.157808914 C 55.912409600000004 41.75722605199999 63.007295000000006 44.665253725999996 67.474445 49.318101092" />
<path class="stroke" d="M 26.403856 71.684536 L 46.66876 71.684536" />
<path class="stroke" d="M 26.1262072 60.328075 L 26.1262072 89.7413152 M 11.6908544 91.67191600000001 L 44.725544000000006 87.583576" />
<path class="stroke" d="M 86.643552 68.504728 C 77.205024 71.608828 68.599328 72.8959 55.552008 73.047316" />
<path class="stroke" d="M 55.274368 60.3280732 L 55.274368 89.28706 C 55.18188 90.42271600000001 57.032520000000005 91.67191600000001 59.993632 91.67191600000001 L 82.75712 91.55837199999999 C 86.45840000000001 91.40692 88.21664 90.460588 88.309128 89.173516 L 88.309128 85.880128" />
</svg>
