<?xml version="1.0" standalone="no"?>
<!DOCTYPE svg PUBLIC "-//W3C//DTD SVG 1.1//EN" "http://www.w3.org/Graphics/SVG/1.1/DTD/svg11.dtd">
<svg xmlns="http://www.w3.org/2000/svg" version="1.1" width="100%" height="100%">
<style type="text/css"><![CDATA[
  .stroke { fill:none; stroke:black; stroke-width:2 }
]]></style>
<path class="stroke" d="M 21.135134 7.09459425 C 18.799368 13.007002499999999 13.449989 20.788418999999998 8.486486 23.635134" />
<path class="stroke" d="M 18.216215 13.41891825 L 47.226276 13.521897" />
<path class="stroke" d="M 26.0 13.662161249999999 C 30.08759 17.16581175 30.6376 15.9472275 31.513512 21.20270025" />
<path class="stroke" d="M 65.32846 6.95255475 C 63.284668 14.17883025 60.07299 17.24452425 57.44525 19.43430525" />
<path class="stroke" d="M 62.9927 13.740875249999998 L 89.24324 13.90540425" />
<path class="stroke" d="M 72.62773 14.17883025 C 74.97297 17.79729675 74.64864 17.067567 76.918915 20.716215" />
<path class="stroke" d="M 21.7350129 30.49268032105263 C 26.1514599 32.95708347894737 29.022089899999997 35.057946636842104 31.671939899999998 37.76478702105263" />
<path class="stroke" d="M 39.179869 29.401854 C 43.37545899999999 31.74510789473684 45.804389 33.724714210526315 48.895869 36.79517105263158" />
<path class="stroke" d="M 74.51101799999999 29.038244842105264 C 71.640388 32.27030063157895 67.886428 35.138778 63.249208 38.00721694736842" />
<path class="stroke" d="M 19.71607 41.250588360799995 L 19.71607 68.631331738" />
<path class="stroke" d="M 19.71607 41.250588360799995 L 80.91487 41.250588360799995 L 80.91487 68.631331738" />
<path class="stroke" d="M 20.03156 55.035335923999995 L 80.91486 55.035335923999995" />
<path class="stroke" d="M 19.71607 68.631331738 L 80.91487 68.631331738" />
<path class="stroke" d="M 8.04415 80.33896004799999 L 91.95585 80.33896004799999" />
<path class="stroke" d="M 50.3155 41.628234326 L 50.3155 92.99074218" />
</svg>
