<?xml version="1.0" standalone="no"?>
<!DOCTYPE svg PUBLIC "-//W3C//DTD SVG 1.1//EN" "http://www.w3.org/Graphics/SVG/1.1/DTD/svg11.dtd">
<svg xmlns="http://www.w3.org/2000/svg" version="1.1" width="100%" height="100%">
<style type="text/css"><![CDATA[
  .stroke { fill:none; stroke:black; stroke-width:2 }
]]></style>
<path class="stroke" d="M 21.135134 6.5690687500000005 C 18.799368 12.043520833333332 13.449989 19.24853611111111 8.486486 21.884383333333332" />
<path class="stroke" d="M 18.216215 12.424924305555557 L 47.226276 12.520274999999998" />
<path class="stroke" d="M 26.0 12.650149305555553 C 30.08759 15.894270138888889 30.6376 14.765951388888888 31.513512 19.63212986111111" />
<path class="stroke" d="M 65.32846 6.437550694444444 C 63.284668 13.128546527777779 60.07299 15.967152083333334 57.44525 17.994727083333334" />
<path class="stroke" d="M 62.9927 12.723032638888888 L 89.24324 12.875374305555555" />
<path class="stroke" d="M 72.62773 13.128546527777779 C 74.97297 16.47897847222222 74.64864 15.803302777777777 76.918915 19.181680555555555" />
<path class="stroke" d="M 49.999996 22.1 C 52.376232 24.292079268000002 52.793365 26.23041216 52.918915 28.416215639999997" />
<path class="stroke" d="M 12.702702 29.21405268 L 92.81081 28.948107819999997" />
<path class="stroke" d="M 12.378378 29.47999836 L 12.702702 50.4897284 C 12.702702 68.2699278 14.560343 83.34326209999999 6.5405407 93.5729671" />
<path class="stroke" d="M 37.4166416 31.59495860082353 C 40.780145216 33.37508785094118 43.470947648 35.82276471247059 45.489050047999996 38.15918421035294" />
<path class="stroke" d="M 73.06977728 31.59495860082353 C 71.697472256 33.797868042941175 68.86539776 36.37905419811764 66.00642176 38.270441574" />
<path class="stroke" d="M 26.3396216 38.3514693697 L 85.6603712 38.3514693697" />
<path class="stroke" d="M 29.96228 46.9684146016 L 80.226416 46.9684146016 L 80.226416 66.21909367960001" />
<path class="stroke" d="M 24.3018884 56.6854107148 L 87.6981152 56.6854107148" />
<path class="stroke" d="M 30.1886732 66.4024476394 L 80.2264412 66.4024476394" />
<path class="stroke" d="M 49.4339528 38.718148138299995 L 49.4339528 88.95324729519999" />
<path class="stroke" d="M 62.3395928 38.718148138299995 L 62.3395928 88.95324729519999" />
<path class="stroke" d="M 48.30190399999999 66.40246513 C 45.283015999999996 78.075050248 35.01884 85.89754619200001 24.3018848 88.769852524" />
<path class="stroke" d="M 63.471728 66.402406828 C 66.037664 77.70838897 75.849032 85.530884914 86.56601599999999 88.769852524" />
</svg>
