<?xml version="1.0" standalone="no"?>
<!DOCTYPE svg PUBLIC "-//W3C//DTD SVG 1.1//EN" "http://www.w3.org/Graphics/SVG/1.1/DTD/svg11.dtd">
<svg xmlns="http://www.w3.org/2000/svg" version="1.1" width="100%" height="100%">
<style type="text/css"><![CDATA[
  .stroke { fill:none; stroke:black; stroke-width:2 }
]]></style>
<path class="stroke" d="M 21.135134 7.09459425 C 18.799368 13.007002499999999 13.449989 20.788418999999998 8.486486 23.635134" />
<path class="stroke" d="M 18.216215 13.41891825 L 47.226276 13.521897" />
<path class="stroke" d="M 26.0 13.662161249999999 C 30.08759 17.16581175 30.6376 15.9472275 31.513512 21.20270025" />
<path class="stroke" d="M 65.32846 6.95255475 C 63.284668 14.17883025 60.07299 17.24452425 57.44525 19.43430525" />
<path class="stroke" d="M 62.9927 13.740875249999998 L 89.24324 13.90540425" />
<path class="stroke" d="M 72.62773 14.17883025 C 74.97297 17.79729675 74.64864 17.067567 76.918915 20.716215" />
<path class="stroke" d="M 30.821487470588234 30.82043764 C 26.579323941176472 42.80291836000001 17.768676352941174 53.897809519999996 10.263308647058825 60.1109448" />
<path class="stroke" d="M 24.29508023529412 45.24379364 L 24.29508023529412 90.732842" />
<path class="stroke" d="M 34.59179664 44.895911999999996 L 95.00817599999999 44.895911999999996" />
<path class="stroke" d="M 57.895293599999995 26.4353296 L 57.895293599999995 44.895911999999996 C 58.182984 66.153492 75.5167068 92.44584400000001 91.9873584 92.845376 L 91.9873584 84.694072" />
<path class="stroke" d="M 83.35644119999999 53.526852000000005 C 75.3728616 72.86642 60.2687052 85.73291599999999 38.9072484 91.886408" />
<path class="stroke" d="M 67.01837616 30.42162042 C 69.89534855999999 32.8190864 69.884975016 33.9734846 71.89880644799999 37.5697286" />
</svg>
