<?xml version="1.0" standalone="no"?>
<!DOCTYPE svg PUBLIC "-//W3C//DTD SVG 1.1//EN" "http://www.w3.org/Graphics/SVG/1.1/DTD/svg11.dtd">
<svg xmlns="http://www.w3.org/2000/svg" version="1.1" width="100%" height="100%">
<style type="text/css"><![CDATA[
  .stroke { fill:none; stroke:black; stroke-width:2 }
]]></style>
<path class="stroke" d="M 21.135134 8.67117075 C 18.799368 15.897447499999998 13.449989 25.408067666666664 8.486486 28.887386" />
<path class="stroke" d="M 18.216215 16.400900083333333 L 47.226276 16.526763" />
<path class="stroke" d="M 26.0 16.69819708333333 C 30.08759 20.980436583333333 30.6376 19.49105583333333 31.513512 25.914411416666667" />
<path class="stroke" d="M 65.32846 8.497566916666667 C 63.284668 17.329681416666666 60.07299 21.07664075 57.44525 23.75303975" />
<path class="stroke" d="M 62.9927 16.794403083333332 L 89.24324 16.99549408333333" />
<path class="stroke" d="M 72.62773 17.329681416666666 C 74.97297 21.752251583333333 74.64864 20.860359666666664 76.918915 25.319818333333334" />
<path class="stroke" d="M 25.036495 34.549633990000004 C 24.160583 41.17153141 20.656933 48.02992453 15.401459 52.5233566" />
<path class="stroke" d="M 21.532845 46.3744522 L 80.51095 46.3744522" />
<path class="stroke" d="M 50.024662 29.110217905 L 50.024662 91.5452524" />
<path class="stroke" d="M 25.328465 68.368609 L 74.9635 68.368609" />
<path class="stroke" d="M 12.189779 92.0182438 L 87.51824 92.0182438" />
</svg>
