<?xml version="1.0" standalone="no"?>
<!DOCTYPE svg PUBLIC "-//W3C//DTD SVG 1.1//EN" "http://www.w3.org/Graphics/SVG/1.1/DTD/svg11.dtd">
<svg xmlns="http://www.w3.org/2000/svg" version="1.1" width="100%" height="100%">
<style type="text/css"><![CDATA[
  .stroke { fill:none; stroke:black; stroke-width:2 }
]]></style>
<path class="stroke" d="M 18.820422641509435 5.5205 L 18.820422641509435 16.877" />
<path class="stroke" d="M 7.035415094339622 17.1924 L 31.321116981132075 17.1924 C 25.89143396226415 37.2765 17.74898113207547 51.9978 6.392597735849056 60.7256" />
<path class="stroke" d="M 18.820422641509435 47.1609 L 18.820422641509435 94.795" />
<path class="stroke" d="M 33.39104905660377 39.2744 C 32.67675471698113 43.2702 31.319690566037735 46.6351 29.534090566037733 48.4228" />
<path class="stroke" d="M 19.034724528301886 46.5299 C 24.462913207547167 50.6309 27.748422641509435 55.6783 31.24823396226415 63.5646" />
<path class="stroke" d="M 67.80214 8.681829023999999 C 66.35759248 12.618158736 63.19594864 16.374202464 59.78901088 17.921692880000002" />
<path class="stroke" d="M 44.2289044 19.667462515599997 L 44.2289044 71.291984332" />
<path class="stroke" d="M 44.2289044 19.667462515599997 L 83.7710956 19.667462515599997 L 83.7710956 71.2840051984" />
<path class="stroke" d="M 51.70029742 28.322131033896 C 53.323608181599994 29.648725419327995 54.82204964128 31.19641817484 55.792093744 33.4818806832" />
<path class="stroke" d="M 76.04996098240001 28.322131033896 C 75.3007404664 30.312022801359998 73.92717130240001 31.970265120544003 72.0541189432 33.407408312384" />
<path class="stroke" d="M 48.95315524288 38.050485821656004 L 79.17171277599999 38.050485821656004" />
<path class="stroke" d="M 64.0 25.353166582719997 L 64.0624327264 55.94363341728" />
<path class="stroke" d="M 61.68990230416 39.045431894703995 C 59.119914592 44.315753825600005 53.929718416 49.6746461112 47.7044553808 52.532468060991995" />
<path class="stroke" d="M 66.55983458896 39.15598032248 C 68.6585044 44.3555480488 73.880306128 49.990160156799995 80.1706706128 52.64301686740001" />
<path class="stroke" d="M 39.08905048 72.9026126492 L 89.12116 72.9026126492" />
<path class="stroke" d="M 64.1051056 62.2126861342 L 64.1051056 74.14039296499999 C 64.1051056 82.804861342 53.06532111999999 91.7107554556 35.725546 93.71984026" />
<path class="stroke" d="M 64.1051056 74.0278681124 C 64.1051056 82.91738657999998 75.3785128 91.69033156799999 92.4846688 93.71984026" />
</svg>
