<?xml version="1.0" standalone="no"?>
<!DOCTYPE svg PUBLIC "-//W3C//DTD SVG 1.1//EN" "http://www.w3.org/Graphics/SVG/1.1/DTD/svg11.dtd">
<svg xmlns="http://www.w3.org/2000/svg" version="1.1" width="100%" height="100%">
<style type="text/css"><![CDATA[
  .stroke { fill:none; stroke:black; stroke-width:2 }
]]></style>
<path class="stroke" d="M 20.287656603773584 5.5205 L 20.287656603773584 16.877" />
<path class="stroke" d="M 8.175287735849057 17.1924 L 33.13559245283019 17.1924 C 27.555084905660372 37.2765 19.186452830188678 51.9978 7.514614339622641 60.7256" />
<path class="stroke" d="M 20.287656603773584 47.1609 L 20.287656603773584 94.795" />
<path class="stroke" d="M 35.26302264150943 39.2744 C 34.52888679245282 43.2702 33.13412641509434 46.6351 31.298926415094336 48.4228" />
<path class="stroke" d="M 20.507911320754715 46.5299 C 26.086883018867923 50.6309 29.463656603773586 55.6783 33.06068490566037 63.5646" />
<path class="stroke" d="M 47.4812257472 26.68467072 L 90.6200224 26.68467072" />
<path class="stroke" d="M 68.6118864 9.758878079999999 L 68.3798139776 9.9981312 C 65.9347820032 29.5421312 58.6326735296 36.5551424 41.6912147328 48.7570112" />
<path class="stroke" d="M 73.94960798720001 26.745793279999997 C 79.055250944 34.88037376 83.2325980032 42.057944320000004 93.675966272 49.235513600000004" />
<path class="stroke" d="M 56.198586337280005 39.4 L 79.801411328 39.4" />
<path class="stroke" d="M 46.672050688 53.49514144 L 89.4813696 53.49514144" />
<path class="stroke" d="M 60.48152064 53.49514144 L 57.25926656 67.64380288000001 L 81.04228096 67.64380288000001 C 81.09340159999999 80.0730048 77.92236544000001 92.94431807999999 71.98940415999999 92.84606592 L 67.23280128 92.84606592" />
</svg>
