<?xml version="1.0" standalone="no"?>
<!DOCTYPE svg PUBLIC "-//W3C//DTD SVG 1.1//EN" "http://www.w3.org/Graphics/SVG/1.1/DTD/svg11.dtd">
<svg xmlns="http://www.w3.org/2000/svg" version="1.1" width="100%" height="100%">
<style type="text/css"><![CDATA[
  .stroke { fill:none; stroke:black; stroke-width:2 }
]]></style>
<path class="stroke" d="M 20.820422641509435 10.913245 L 20.820422641509435 21.02053" />
<path class="stroke" d="M 9.035415094339623 21.301236 L 33.32111698113208 21.301236 C 27.89143396226415 39.176085 19.74898113207547 52.278042 8.392597735849055 60.045784" />
<path class="stroke" d="M 20.820422641509435 47.973200999999996 L 20.820422641509435 90.36755000000001" />
<path class="stroke" d="M 35.39104905660377 40.954216 C 34.67675471698113 44.510478000000006 33.319690566037735 47.505239 31.534090566037733 49.096292000000005" />
<path class="stroke" d="M 21.034724528301886 47.411611 C 26.462913207547167 51.061501 29.748422641509435 55.553687000000004 33.24823396226415 62.572494" />
<path class="stroke" d="M 68.09342720000001 13.13576452 C 60.8058368 28.919706180000002 52.58394048 41.29926916 42.30656832 48.72700398" />
<path class="stroke" d="M 68.09342720000001 13.13576452 C 75.56788096 28.3007266 83.22919424 41.29926916 93.88028800000001 48.41751684" />
<path class="stroke" d="M 58.6830944768 43.0 L 77.31690368 43.0" />
<path class="stroke" d="M 55.835328128 58.69124025 L 55.835328128 88.4489035" />
<path class="stroke" d="M 55.835328128 58.69124025 L 80.2767872 58.69124025 L 80.2767872 88.1627729" />
<path class="stroke" d="M 55.835328128 86.15985183999999 L 80.2767872 86.15985183999999" />
</svg>
