<?xml version="1.0" standalone="no"?>
<!DOCTYPE svg PUBLIC "-//W3C//DTD SVG 1.1//EN" "http://www.w3.org/Graphics/SVG/1.1/DTD/svg11.dtd">
<svg xmlns="http://www.w3.org/2000/svg" version="1.1" width="100%" height="100%">
<style type="text/css"><![CDATA[
  .stroke { fill:none; stroke:black; stroke-width:2 }
]]></style>
<path class="stroke" d="M 18.68935849056604 5.2444749999999996 L 18.68935849056604 16.03315" />
<path class="stroke" d="M 5.594905660377359 16.33278 L 32.57901886792453 16.33278 C 26.546037735849055 35.412675 17.4988679245283 49.397909999999996 4.880664150943397 57.689319999999995" />
<path class="stroke" d="M 18.68935849056604 44.802854999999994 L 18.68935849056604 90.05525" />
<path class="stroke" d="M 34.87894339622642 37.31068 C 34.085283018867926 41.10669 32.57743396226415 44.303345 30.59343396226415 46.00166" />
<path class="stroke" d="M 18.92747169811321 44.203405 C 24.95879245283019 48.099354999999996 28.60935849056604 52.894385 32.49803773584906 60.38637" />
<path class="stroke" d="M 42.73614064 8.044167 L 89.47937872 8.044167 L 89.47937872 23.186256" />
<path class="stroke" d="M 42.73614064 23.186256 L 89.47937872 23.186256" />
<path class="stroke" d="M 42.545362528 8.044167 L 42.545362528 58.20186 C 42.608987488 72.92316 41.527786528 81.01996 38.920378815999996 94.164055" />
<path class="stroke" d="M 45.81591101056 42.369200000000006 L 91.54408612096 42.369200000000006" />
<path class="stroke" d="M 68.68 25.122467067200002 L 68.68 62.20509171200001" />
<path class="stroke" d="M 55.806735991455994 64.0172476475 L 55.806735991455994 89.10477966500001" />
<path class="stroke" d="M 55.806735991455994 64.0172476475 L 81.67191005439999 64.0172476475 L 81.67191005439999 88.86355405100001" />
<path class="stroke" d="M 55.806735991455994 87.17496896960002 L 81.67191005439999 87.17496896960002" />
</svg>
