<?xml version="1.0" standalone="no"?>
<!DOCTYPE svg PUBLIC "-//W3C//DTD SVG 1.1//EN" "http://www.w3.org/Graphics/SVG/1.1/DTD/svg11.dtd">
<svg xmlns="http://www.w3.org/2000/svg" version="1.1" width="100%" height="100%">
<style type="text/css"><![CDATA[
  .stroke { fill:none; stroke:black; stroke-width:2 }
]]></style>
<path class="stroke" d="M 20.09106037735849 5.5205 L 20.09106037735849 16.877" />
<path class="stroke" d="M 6.01452358490566 17.1924 L 35.02244528301887 17.1924 C 28.536990566037733 37.2765 18.811283018867925 51.9978 5.246713962264151 60.7256" />
<path class="stroke" d="M 20.09106037735849 47.1609 L 20.09106037735849 94.795" />
<path class="stroke" d="M 37.49486415094339 39.2744 C 36.641679245283015 43.2702 35.02074150943397 46.6351 32.887941509433965 48.4228" />
<path class="stroke" d="M 20.3470320754717 46.5299 C 26.830701886792454 50.6309 30.755060377358493 55.6783 34.93539056603774 63.5646" />
<path class="stroke" d="M 63.79177 8.357641 C 56.388318999999996 26.204376 49.421331280000004 40.88241 40.3643968 49.05759" />
<path class="stroke" d="M 63.79177 8.357641 C 70.84087360000001 25.912407 77.3639473 39.98433 86.8062802 48.743454" />
<path class="stroke" d="M 54.255496 41.67883 L 73.5371716 41.67883" />
<path class="stroke" d="M 45.962302300000005 56.910995 L 80.5863874 56.910995 C 78.0812782 69.46574 71.0335738 81.678825 65.637955 89.270065" />
</svg>
