<?xml version="1.0" standalone="no"?>
<!DOCTYPE svg PUBLIC "-//W3C//DTD SVG 1.1//EN" "http://www.w3.org/Graphics/SVG/1.1/DTD/svg11.dtd">
<svg xmlns="http://www.w3.org/2000/svg" version="1.1" width="100%" height="100%">
<style type="text/css"><![CDATA[
  .stroke { fill:none; stroke:black; stroke-width:2 }
]]></style>
<path class="stroke" d="M 24.5 15.32919671 L 24.5 29.10145988" />
<path class="stroke" d="M 10.837225629999999 29.881020669999998 L 38.4489035 29.881020669999998" />
<path class="stroke" d="M 13.12627631 41.0547455 C 15.98759015 50.40948744 18.13357602 62.622622799999995 19.27810087 74.5759102" />
<path class="stroke" d="M 36.30291665 38.9759102 C 33.7399986 50.193505800000004 31.29636125 62.954023199999995 29.292699799999998 78.7335719" />
<path class="stroke" d="M 11.2890904 84.8688314 L 43.5145431 76.82415166" />
<path class="stroke" d="M 54.4416043 15.705620980851064 L 88.39196709999999 15.705620980851064" />
<path class="stroke" d="M 71.5832086 9.063595129787233 L 71.5832086 38.67595643297872" />
<path class="stroke" d="M 55.9394161 27.052414985106385 L 87.06057820000001 27.052414985106385" />
<path class="stroke" d="M 48.783211449999996 38.67595643297872 L 94.38320859999999 38.67595643297872" />
<path class="stroke" d="M 61.43138662 49.023064807199994 L 61.400671599999995 74.405479896 C 60.9356029 85.56087830399998 61.71552249999999 87.07101955200001 57.35445079 92.875476672" />
<path class="stroke" d="M 61.43138662 49.023064807199994 L 84.7306576 49.023064807199994 L 84.7306576 91.27077141600002 C 84.7306576 92.565722304 84.0649603 93.69879948 82.40072788 93.69879948 L 80.5700737 93.69879948" />
<path class="stroke" d="M 61.43138662 61.2246126888 L 84.7306576 61.2246126888" />
<path class="stroke" d="M 61.43138662 74.1131702784 L 84.7306576 74.1131702784" />
</svg>
