<?xml version="1.0" standalone="no"?>
<!DOCTYPE svg PUBLIC "-//W3C//DTD SVG 1.1//EN" "http://www.w3.org/Graphics/SVG/1.1/DTD/svg11.dtd">
<svg xmlns="http://www.w3.org/2000/svg" version="1.1" width="100%" height="100%">
<style type="text/css"><![CDATA[
  .stroke { fill:none; stroke:black; stroke-width:2 }
]]></style>
<path class="stroke" d="M 19.0 10.90948866 L 19.0 25.45547448" />
<path class="stroke" d="M 8.40437906 26.278830819999996 L 29.817517000000002 26.278830819999996" />
<path class="stroke" d="M 10.17956122 38.080293 C 12.398539300000001 47.960582239999994 14.06277324 60.859848799999995 14.95036394 73.4846692" />
<path class="stroke" d="M 28.1532823 35.8846692 C 26.1657132 47.7324668 24.270647500000003 61.20986719999999 22.7167876 77.8759074" />
<path class="stroke" d="M 8.7548048 84.3558444 L 33.7459722 75.85921636" />
<path class="stroke" d="M 42.29269992 9.854013 L 42.29269992 70.87591 C 42.29269992 80.51095 38.24306507 85.76642 33.98029066 90.72992" />
<path class="stroke" d="M 42.29269992 9.854013 L 82.14963119999999 9.854013 L 82.14963119999999 50.437954 C 82.14963119999999 72.04379 86.1992697 88.10219 93.0197035 89.56204 L 93.0197035 77.00729" />
<path class="stroke" d="M 69.57445191 20.364962 C 65.95109326 22.70073 57.85182210000001 25.912407 54.01532754 26.204376" />
<path class="stroke" d="M 49.1131381 40.51095 L 49.1131381 60.07299" />
<path class="stroke" d="M 49.32627547 40.51095 L 75.3291974 40.51095 L 75.3291974 60.07299" />
<path class="stroke" d="M 49.32627547 60.07299 L 75.3291974 60.07299" />
<path class="stroke" d="M 62.11828739 24.160583 L 62.11828739 78.75912" />
<path class="stroke" d="M 48.26058132 84.8905 C 56.359851750000004 81.09489 68.50875848999999 78.75912 77.03430657999999 78.17518" />
<path class="stroke" d="M 73.41094501 70.0 C 76.1817498 74.379555 77.88685459999999 79.927 79.37882859999999 85.47445" />
</svg>
