<?xml version="1.0" standalone="no"?>
<!DOCTYPE svg PUBLIC "-//W3C//DTD SVG 1.1//EN" "http://www.w3.org/Graphics/SVG/1.1/DTD/svg11.dtd">
<svg xmlns="http://www.w3.org/2000/svg" version="1.1" width="100%" height="100%">
<style type="text/css"><![CDATA[
  .stroke { fill:none; stroke:black; stroke-width:2 }
]]></style>
<path class="stroke" d="M 50.312496 3.1849146999999998 L 50.312496 7.574208766666666" />
<path class="stroke" d="M 14.233576 7.574208766666666 L 14.233576 12.927007133333332" />
<path class="stroke" d="M 14.233576 7.574208766666666 L 86.05839 7.574208766666666 L 86.05839 12.927007133333332" />
<path class="stroke" d="M 38.46715 11.214110966666667 C 35.547443 14.961069566666666 27.956203 18.493916466666665 19.197079 19.778588499999998" />
<path class="stroke" d="M 60.40019 10.5717755 L 60.40019 15.42677033333333 C 60.65693 17.316301199999998 63.23729 18.354127 67.96229 18.315553666666666 L 85.93139 18.315590333333333" />
<path class="stroke" d="M 18.321167 28.391970399999998 L 81.678825 28.391970399999998" />
<path class="stroke" d="M 50.0 20.870802615 L 50.0 38.1963483" />
<path class="stroke" d="M 9.854013 38.1963483 L 89.85401 38.1963483" />
<path class="stroke" d="M 17.50786 47.405359 L 17.50786 65.386465" />
<path class="stroke" d="M 17.50786 47.405359 L 79.96846 47.405359 L 80.28396 65.386522" />
<path class="stroke" d="M 17.82331 56.216134 L 79.96851 56.216134" />
<path class="stroke" d="M 17.50786 65.386465 L 79.96846 65.386465" />
<path class="stroke" d="M 13.406943 73.8374959 L 13.406943 91.27921090000001" />
<path class="stroke" d="M 13.406943 73.8374959 L 85.01574 73.8374959 L 85.01574 91.2791539" />
<path class="stroke" d="M 13.722443 82.6482709 L 85.01574 82.6482709" />
<path class="stroke" d="M 13.406943 91.27921090000001 L 85.01574 91.27921090000001" />
<path class="stroke" d="M 49.0536 47.405401749999996 L 49.0536 93.9763426 C 49.0536 95.5347226 51.8927 97.2728806 54.7318 97.0331386 L 88.1704 97.0331386 C 90.9044 97.0331386 93.9538 96.1340776 93.8486 93.9763426 L 93.8486 90.91954659999999" />
</svg>
