<?xml version="1.0" standalone="no"?>
<!DOCTYPE svg PUBLIC "-//W3C//DTD SVG 1.1//EN" "http://www.w3.org/Graphics/SVG/1.1/DTD/svg11.dtd">
<svg xmlns="http://www.w3.org/2000/svg" version="1.1" width="100%" height="100%">
<style type="text/css"><![CDATA[
  .stroke { fill:none; stroke:black; stroke-width:2 }
]]></style>
<path class="stroke" d="M 50.312496 8.4744524 L 50.312496 13.2627732" />
<path class="stroke" d="M 14.233576 13.2627732 L 14.233576 19.102189600000003" />
<path class="stroke" d="M 14.233576 13.2627732 L 86.05839 13.2627732 L 86.05839 19.102189600000003" />
<path class="stroke" d="M 38.46715 17.2335756 C 35.547443 21.3211668 27.956203 25.175181600000002 19.197079 26.576642000000003" />
<path class="stroke" d="M 60.40019 16.532846 L 60.40019 21.829204 C 60.65693 23.8905104 63.23729 25.022684 67.96229 24.980604 L 85.93139 24.980644" />
<path class="stroke" d="M 15.72553648 33.550475229999996 L 83.24354704 33.550475229999996 L 83.24354704 43.99851664" />
<path class="stroke" d="M 15.72553648 43.99851664 L 83.24354704 43.99851664" />
<path class="stroke" d="M 15.449968096 33.550475229999996 L 15.449968096 68.15928339999999 C 15.541870816 78.31698039999999 13.980136095999999 83.9037724 10.213880512000001 92.97319795" />
<path class="stroke" d="M 54.975457792 50.000422465599996 L 54.975457792 88.43896023999999" />
<path class="stroke" d="M 27.0110943232 53.626700298399996 L 27.0110943232 68.27685884799999 M 27.0110943232 66.9714005968 L 81.76893184 66.9714005968" />
<path class="stroke" d="M 82.01558809599999 53.626700298399996 L 82.01558809599999 68.4219115312" />
<path class="stroke" d="M 24.791182105599997 76.1096177944 L 24.791182105599997 89.889472168 M 24.791182105599997 88.584010936 L 84.48215910399999 88.584010936" />
<path class="stroke" d="M 84.48215910399999 75.819517396 L 84.48215910399999 90.034522864" />
</svg>
