<?xml version="1.0" standalone="no"?>
<!DOCTYPE svg PUBLIC "-//W3C//DTD SVG 1.1//EN" "http://www.w3.org/Graphics/SVG/1.1/DTD/svg11.dtd">
<svg xmlns="http://www.w3.org/2000/svg" version="1.1" width="100%" height="100%">
<style type="text/css"><![CDATA[
  .stroke { fill:none; stroke:black; stroke-width:2 }
]]></style>
<path class="stroke" d="M 50.312496 7.77737205 L 50.312496 14.36131315" />
<path class="stroke" d="M 14.233576 14.36131315 L 14.233576 22.3905107" />
<path class="stroke" d="M 14.233576 14.36131315 L 86.05839 14.36131315 L 86.05839 22.3905107" />
<path class="stroke" d="M 38.46715 19.821166450000003 C 35.547443 25.441604350000002 27.956203 30.740874700000003 19.197079 32.667882750000004" />
<path class="stroke" d="M 60.40019 18.85766325 L 60.40019 26.1401555 C 60.65693 28.9744518 63.23729 30.531190500000005 67.96229 30.473330500000003 L 85.93139 30.473385500000003" />
<path class="stroke" d="M 31.4 35.78904982 C 29.1109454 45.32481629 21.957662759999998 53.824085 14.23211549 58.591969299999995" />
<path class="stroke" d="M 25.3912378 48.848904129999994 L 87.4817446 48.848904129999994" />
<path class="stroke" d="M 46.053646 48.848904129999994 L 46.053646 93.2109445" />
<path class="stroke" d="M 46.2788304 61.9087556 L 78.897807 61.9087556" />
<path class="stroke" d="M 46.2788304 74.9686092 L 82.6175146 74.9686092" />
</svg>
