<?xml version="1.0" standalone="no"?>
<!DOCTYPE svg PUBLIC "-//W3C//DTD SVG 1.1//EN" "http://www.w3.org/Graphics/SVG/1.1/DTD/svg11.dtd">
<svg xmlns="http://www.w3.org/2000/svg" version="1.1" width="100%" height="100%">
<style type="text/css"><![CDATA[
  .stroke { fill:none; stroke:black; stroke-width:2 }
]]></style>
<path class="stroke" d="M 50.312496 7.19829665 L 50.312496 12.984184283333333" />
<path class="stroke" d="M 14.233576 12.984184283333333 L 14.233576 20.040145766666665" />
<path class="stroke" d="M 14.233576 12.984184283333333 L 86.05839 12.984184283333333 L 86.05839 20.040145766666665" />
<path class="stroke" d="M 38.46715 17.782237183333336 C 35.547443 22.721409883333333 27.956203 27.378344433333332 19.197079 29.07177575" />
<path class="stroke" d="M 60.40019 16.93552225 L 60.40019 23.335288166666665 C 60.65693 25.8260334 63.23729 27.1940765 67.96229 27.143229833333333 L 85.93139 27.14327816666667" />
<path class="stroke" d="M 12.362784000000001 47.828739712 L 41.637223999999996 47.828739712" />
<path class="stroke" d="M 9.7129332 63.15341908800001 L 41.774028 63.063458080000004" />
<path class="stroke" d="M 27.0 36.133629696 L 27.0 63.15352136 C 27.062336000000002 78.005793584 19.59728 88.8290348 9.9653 91.58475383999999" />
<path class="stroke" d="M 27.0 63.15345744 C 33.91948 70.2357780992 36.662338399999996 74.61886454399999 40.776624 83.58426712480001" />
<path class="stroke" d="M 53.2 39.28571516 L 53.2 72.31428484" />
<path class="stroke" d="M 53.00000104 38.8 L 86.60000160000001 38.8 L 86.60000160000001 72.31428484" />
<path class="stroke" d="M 53.40000008 50.21428756 L 86.3999976 50.21428756" />
<path class="stroke" d="M 53.40000008 60.414287560000005 L 86.60000160000001 60.414287560000005" />
<path class="stroke" d="M 53.00000104 70.12856968 L 86.3999976 70.37143032" />
<path class="stroke" d="M 63.600000800000004 70.8571448 C 62.29197184 82.76954800000001 55.3664216 91.51240320000001 47.35474352 93.2992664" />
<path class="stroke" d="M 72.6000016 71.1 L 72.53430408 88.1372232 C 72.53430408 91.7109428 74.49635088 93.497806 77.1124088 93.497806 L 90.68320800000001 93.497806 C 92.31824560000001 93.497806 93.29926760000001 92.70364420000001 93.29926760000001 91.115324 L 93.29926760000001 88.732842" />
</svg>
