<?xml version="1.0" standalone="no"?>
<!DOCTYPE svg PUBLIC "-//W3C//DTD SVG 1.1//EN" "http://www.w3.org/Graphics/SVG/1.1/DTD/svg11.dtd">
<svg xmlns="http://www.w3.org/2000/svg" version="1.1" width="100%" height="100%">
<style type="text/css"><![CDATA[
  .stroke { fill:none; stroke:black; stroke-width:2 }
]]></style>
<path class="stroke" d="M 46.846712000000004 7.5386928882 C 46.64308 9.235452039 41.774280000000005 11.204116898999999 37.40236 11.269430919000001" />
<path class="stroke" d="M 27.226276 11.3314813527 L 27.226276 32.147715989999995" />
<path class="stroke" d="M 27.226276 11.2697012985 L 73.2408752 11.2697012985 L 73.2408752 32.147715989999995" />
<path class="stroke" d="M 27.226276 21.0747918225 L 73.2408752 21.0747918225" />
<path class="stroke" d="M 27.226276 31.241917476 L 73.2408752 31.241917476" />
<path class="stroke" d="M 50.005287 33.5636276373 L 50.005287 49.044268471 C 50.005287 49.4883851245 48.394157 49.742166534999996 47.226276 49.742166534999996 L 45.18248 49.742166534999996" />
<path class="stroke" d="M 26.788319 39.337145002 C 25.328465 41.557729355999996 20.948904 43.461087218500005 14.817516 44.9837737258" />
<path class="stroke" d="M 70.58394 39.337145002 C 76.423355 40.669496049 81.386856 42.445963314900006 84.306564 45.1106634532" />
<path class="stroke" d="M 66.8175116 54.72992624 C 53.1182424 60.05547392 33.24087512 63.97956032 18.73576504 64.4" />
<path class="stroke" d="M 74.60729880000001 66.5021888 C 58.902760799999996 73.6287152 45.1917248 76.6220432 21.5618008 77.9411792" />
<path class="stroke" d="M 82.24849680000001 79.25776352 C 64.8010924 88.0468664 41.03065404 92.56934240000001 15.781021280000001 92.98977919999999" />
</svg>
