<?xml version="1.0" standalone="no"?>
<!DOCTYPE svg PUBLIC "-//W3C//DTD SVG 1.1//EN" "http://www.w3.org/Graphics/SVG/1.1/DTD/svg11.dtd">
<svg xmlns="http://www.w3.org/2000/svg" version="1.1" width="100%" height="100%">
<style type="text/css"><![CDATA[
  .stroke { fill:none; stroke:black; stroke-width:2 }
]]></style>
<path class="stroke" d="M 35.19111111111111 8.04416 L 6.309146666666666 12.776" />
<path class="stroke" d="M 6.028737777777778 31.072584 L 35.471377777777775 31.072584" />
<path class="stroke" d="M 20.89022222222222 11.829685 L 20.89022222222222 94.164085" />
<path class="stroke" d="M 5.467928888888888 71.4511 C 11.636888888888889 58.4122 17.525422222222222 45.0578 20.89031111111111 31.0726 C 23.88133333333333 41.2723 28.554666666666666 50.8413 34.910577777777775 59.4638" />
<path class="stroke" d="M 64.38729704 7.5386928882 C 64.2508636 9.235452039 60.9887676 11.204116898999999 58.059581200000004 11.269430919000001" />
<path class="stroke" d="M 51.24160492 11.3314813527 L 51.24160492 32.147715989999995" />
<path class="stroke" d="M 51.24160492 11.2697012985 L 82.07138638400001 11.2697012985 L 82.07138638400001 32.147715989999995" />
<path class="stroke" d="M 51.24160492 21.0747918225 L 82.07138638400001 21.0747918225" />
<path class="stroke" d="M 51.24160492 31.241917476 L 82.07138638400001 31.241917476" />
<path class="stroke" d="M 66.50354229000001 33.5636276373 L 66.50354229000001 49.044268471 C 66.50354229000001 49.4883851245 65.42408519 49.742166534999996 64.64160492 49.742166534999996 L 63.2722616 49.742166534999996" />
<path class="stroke" d="M 50.94817373 39.337145002 C 49.97007155 41.557729355999996 47.03576568 43.461087218500005 42.92773572 44.9837737258" />
<path class="stroke" d="M 80.2912398 39.337145002 C 84.20364785000001 40.669496049 87.52919352 42.445963314900006 89.48539788 45.1106634532" />
<path class="stroke" d="M 77.767732772 54.72992624 C 68.58922240800001 60.05547392 55.2713863304 63.97956032 45.5529625768 64.4" />
<path class="stroke" d="M 82.98689019600002 66.5021888 C 72.46484973599999 73.6287152 63.278455616 76.6220432 47.446406536 77.9411792" />
<path class="stroke" d="M 88.10649285600002 79.25776352 C 76.416731908 88.0468664 60.490538206800004 92.56934240000001 43.5732842576 92.98977919999999" />
</svg>
