<?xml version="1.0" standalone="no"?>
<!DOCTYPE svg PUBLIC "-//W3C//DTD SVG 1.1//EN" "http://www.w3.org/Graphics/SVG/1.1/DTD/svg11.dtd">
<svg xmlns="http://www.w3.org/2000/svg" version="1.1" width="100%" height="100%">
<style type="text/css"><![CDATA[
  .stroke { fill:none; stroke:black; stroke-width:2 }
]]></style>
<path class="stroke" d="M 8.003300000000001 33.069305 L 25.825083333333335 30.9901" />
<path class="stroke" d="M 19.389438333333334 9.60396 L 19.389438333333334 84.15842 C 19.389438333333334 87.42574 17.161715833333336 90.09901 14.191419166666668 90.09901" />
<path class="stroke" d="M 8.498349166666667 63.36634 L 24.09241 46.435642" />
<path class="stroke" d="M 33.96449839 8.044167 L 88.82288197 8.044167 L 88.82288197 23.186256" />
<path class="stroke" d="M 33.96449839 23.186256 L 88.82288197 23.186256" />
<path class="stroke" d="M 33.740599078 8.044167 L 33.740599078 58.20186 C 33.815270038 72.92316 32.546360578 81.01996 29.486277916 94.164055" />
<path class="stroke" d="M 65.855059456 31.88467024 L 65.855059456 87.59269599999999" />
<path class="stroke" d="M 43.134014137600005 37.14014536 L 43.134014137600005 58.3722592 M 43.134014137600005 56.48029072 L 87.62475712 56.48029072" />
<path class="stroke" d="M 87.825165328 37.14014536 L 87.825165328 58.58248048" />
<path class="stroke" d="M 41.3303354608 69.72408376 L 41.3303354608 89.6948872 M 41.3303354608 87.80291439999999 L 89.829254272 87.80291439999999" />
<path class="stroke" d="M 89.829254272 69.3036484 L 89.829254272 89.9051056" />
</svg>
