<?xml version="1.0" standalone="no"?>
<!DOCTYPE svg PUBLIC "-//W3C//DTD SVG 1.1//EN" "http://www.w3.org/Graphics/SVG/1.1/DTD/svg11.dtd">
<svg xmlns="http://www.w3.org/2000/svg" version="1.1" width="100%" height="100%">
<style type="text/css"><![CDATA[
  .stroke { fill:none; stroke:black; stroke-width:2 }
]]></style>
<path class="stroke" d="M 35.19111111111111 8.04416 L 6.309146666666666 12.776" />
<path class="stroke" d="M 6.028737777777778 31.072584 L 35.471377777777775 31.072584" />
<path class="stroke" d="M 20.89022222222222 11.829685 L 20.89022222222222 94.164085" />
<path class="stroke" d="M 5.467928888888888 71.4511 C 11.636888888888889 58.4122 17.525422222222222 45.0578 20.89031111111111 31.0726 C 23.88133333333333 41.2723 28.554666666666666 50.8413 34.910577777777775 59.4638" />
<path class="stroke" d="M 84.280714 7.7287 C 71.78863 16.6666 56.381722 25.2891 43.473244 28.2334" />
<path class="stroke" d="M 50.55214 10.2524 C 63.946378 12.3554 74.425858 19.5057 85.738126 28.5488" />
<path class="stroke" d="M 64.5912376 30.3868612 C 61.583974 45.74662 54.676677999999995 58.746880000000004 40.11824818 68.051092" />
<path class="stroke" d="M 40.503648580000004 40.99366 L 93.689047 40.99366" />
<path class="stroke" d="M 53.925254800000005 60.49087405 L 53.925254800000005 83.02372075" />
<path class="stroke" d="M 53.925254800000005 60.49087405 L 88.30306288 60.49087405 L 88.30306288 81.7974415 C 88.30306288 84.0967105 86.91561616000001 85.47627399999999 85.37400928000001 85.62955825 L 83.98656783999999 85.62955825" />
<path class="stroke" d="M 71.03707744 52.673356825 L 71.03707744 94.8266395" />
</svg>
