<?xml version="1.0" standalone="no"?>
<!DOCTYPE svg PUBLIC "-//W3C//DTD SVG 1.1//EN" "http://www.w3.org/Graphics/SVG/1.1/DTD/svg11.dtd">
<svg xmlns="http://www.w3.org/2000/svg" version="1.1" width="100%" height="100%">
<style type="text/css"><![CDATA[
  .stroke { fill:none; stroke:black; stroke-width:2 }
]]></style>
<path class="stroke" d="M 35.19111111111111 8.04416 L 6.309146666666666 12.776" />
<path class="stroke" d="M 6.028737777777778 31.072584 L 35.471377777777775 31.072584" />
<path class="stroke" d="M 20.89022222222222 11.829685 L 20.89022222222222 94.164085" />
<path class="stroke" d="M 5.467928888888888 71.4511 C 11.636888888888889 58.4122 17.525422222222222 45.0578 20.89031111111111 31.0726 C 23.88133333333333 41.2723 28.554666666666666 50.8413 34.910577777777775 59.4638" />
<path class="stroke" d="M 49.35912354 16.50722568 L 88.6408715 16.50722568" />
<path class="stroke" d="M 69.0 5.356276920500001 L 69.0 31.043281610000005" />
<path class="stroke" d="M 44.109488060000004 31.043281610000005 L 93.7094862 31.043281610000005" />
<path class="stroke" d="M 60.94452476 34.448466778000004 L 60.94452476 40.123502716000004 C 60.94452476 45.127298370000005 56.23795596 50.07007187600001 44.47153272 51.351531550000004" />
<path class="stroke" d="M 71.62481588 34.387445257 L 71.62481588 48.78861262 C 71.62481588 50.31416005 73.97810276 51.229488090000004 76.51240546 51.229488090000004 L 90.63211000000001 51.229488090000004 C 92.6233578 51.290509820000004 94.071529 50.80233389 94.071529 50.13109277 L 94.071529 48.971678646" />
<path class="stroke" d="M 64.74598346 56.678831 C 60.5824801 63.248175 53.5226269 70.1094875 46.281750439999996 74.48904999999999" />
<path class="stroke" d="M 62.573720460000004 60.474452 L 78.6846728 60.474452 C 72.1678838 72.4452535 58.229195700000005 86.31386499999999 44.2905107 93.90510499999999" />
<path class="stroke" d="M 55.69489052 67.627737 C 62.8 78.225807 77.41751493999999 88.21167750000001 92.8043792 93.90510499999999" />
</svg>
