<?xml version="1.0" standalone="no"?>
<!DOCTYPE svg PUBLIC "-//W3C//DTD SVG 1.1//EN" "http://www.w3.org/Graphics/SVG/1.1/DTD/svg11.dtd">
<svg xmlns="http://www.w3.org/2000/svg" version="1.1" width="100%" height="100%">
<style type="text/css"><![CDATA[
  .stroke { fill:none; stroke:black; stroke-width:2 }
]]></style>
<path class="stroke" d="M 35.19111111111111 8.04416 L 6.309146666666666 12.776" />
<path class="stroke" d="M 6.028737777777778 31.072584 L 35.471377777777775 31.072584" />
<path class="stroke" d="M 20.89022222222222 11.829685 L 20.89022222222222 94.164085" />
<path class="stroke" d="M 5.467928888888888 71.4511 C 11.636888888888889 58.4122 17.525422222222222 45.0578 20.89031111111111 31.0726 C 23.88133333333333 41.2723 28.554666666666666 50.8413 34.910577777777775 59.4638" />
<path class="stroke" d="M 69.0905076 8.958540147999999 L 69.0905076 12.745984924" />
<path class="stroke" d="M 45.01459816 12.826569472 L 92.6233578 12.826569472" />
<path class="stroke" d="M 59.0075907456 17.713284639999998 C 58.1386850496 21.7915324 53.6203790016 25.617517359999997 45.1051085376 28.686715359999997" />
<path class="stroke" d="M 77.608204992 17.793883456 C 84.9009608448 20.740437376 89.593045056 24.776641599999998 92.37354268799999 28.770802720000002" />
<path class="stroke" d="M 47.29023934 37.99677419354839 L 90.9053812 37.99677419354839" />
<path class="stroke" d="M 60.5899046 28.227729032258065 L 60.5899046 63.396159999999995" />
<path class="stroke" d="M 77.018925 27.983509677419356 L 77.018925 63.39612903225806" />
<path class="stroke" d="M 47.09465538 51.18485161290322 L 90.709796 51.18485161290322" />
<path class="stroke" d="M 42.2050477 63.88464516129032 L 96.5772993 63.88464516129032" />
<path class="stroke" d="M 67.6309098 65.00007 C 63.2910896 71.653465 55.92475304 76.435641 48.37425788 78.93069299999999" />
<path class="stroke" d="M 61.4495036 72.277228 L 61.4495036 92.861386 C 66.79009804 91.82178099999999 70.28911020000001 90.78217599999999 73.97227972 88.28713099999999" />
<path class="stroke" d="M 86.67920948 66.039605 C 84.1009928 70.1980201 80.6019794 73.5247505 76.5504933 75.18812199999999" />
<path class="stroke" d="M 72.68317076 71.029702 C 76.734655 79.762377 84.6534686 87.03960219999999 93.30891288000001 90.78217599999999" />
</svg>
