<?xml version="1.0" standalone="no"?>
<!DOCTYPE svg PUBLIC "-//W3C//DTD SVG 1.1//EN" "http://www.w3.org/Graphics/SVG/1.1/DTD/svg11.dtd">
<svg xmlns="http://www.w3.org/2000/svg" version="1.1" width="100%" height="100%">
<style type="text/css"><![CDATA[
  .stroke { fill:none; stroke:black; stroke-width:2 }
]]></style>
<path class="stroke" d="M 35.19111111111111 8.04416 L 6.309146666666666 12.776" />
<path class="stroke" d="M 6.028737777777778 31.072584 L 35.471377777777775 31.072584" />
<path class="stroke" d="M 20.89022222222222 11.829685 L 20.89022222222222 94.164085" />
<path class="stroke" d="M 5.467928888888888 71.4511 C 11.636888888888889 58.4122 17.525422222222222 45.0578 20.89031111111111 31.0726 C 23.88133333333333 41.2723 28.554666666666666 50.8413 34.910577777777775 59.4638" />
<path class="stroke" d="M 78.5922635 8.658984812 C 76.38932853200001 14.029562317999998 71.567821676 19.154164531999996 66.372241592 21.26550119" />
<path class="stroke" d="M 48.261313532 21.7430210156 L 48.261313532 53.616420164" />
<path class="stroke" d="M 48.261313532 21.6165391784 L 90.898974704 21.6165391784 L 90.898974704 53.616420164" />
<path class="stroke" d="M 69.58014302000001 21.7430210156 L 69.58014302000001 51.33975055999999" />
<path class="stroke" d="M 48.261313532 36.4696225256 L 90.57839383999999 36.4696225256" />
<path class="stroke" d="M 48.261313532 51.33975055999999 L 90.898974704 51.33975055999999" />
<path class="stroke" d="M 59.7492610688 58.14031435 C 59.082413167999995 60.229319225 56.5817308865 63.9596847 54.0810512585 64.854973725" />
<path class="stroke" d="M 46.07887448531 72.91256449999999 L 91.09112195899999 72.91256449999999" />
<path class="stroke" d="M 79.254569597 56.3497382 L 79.254569597 94.84711925" />
</svg>
