<?xml version="1.0" standalone="no"?>
<!DOCTYPE svg PUBLIC "-//W3C//DTD SVG 1.1//EN" "http://www.w3.org/Graphics/SVG/1.1/DTD/svg11.dtd">
<svg xmlns="http://www.w3.org/2000/svg" version="1.1" width="100%" height="100%">
<style type="text/css"><![CDATA[
  .stroke { fill:none; stroke:black; stroke-width:2 }
]]></style>
<path class="stroke" d="M 35.19111111111111 7.8832768 L 6.309146666666666 12.52048" />
<path class="stroke" d="M 6.028737777777778 30.45113232 L 35.471377777777775 30.45113232" />
<path class="stroke" d="M 20.89022222222222 11.5930913 L 20.89022222222222 92.2808033" />
<path class="stroke" d="M 5.467928888888888 70.022078 C 11.636888888888889 57.243956 17.525422222222222 44.156644 20.89031111111111 30.451148 C 23.88133333333333 40.446854 28.554666666666666 49.824473999999995 34.910577777777775 58.274524" />
<path class="stroke" d="M 67.81701 8.1000075534 C 61.310947 19.1185817424 55.18844264 28.180799934 47.2293184 33.228156066" />
<path class="stroke" d="M 67.81701 8.1000075534 C 74.0116768 18.9383200818 79.7440749 27.626325342 88.0418826 33.034208499600005" />
<path class="stroke" d="M 59.436648 28.672509641999998 L 76.3811508 28.672509641999998" />
<path class="stroke" d="M 52.1486899 38.076848313 L 82.5759162 38.076848313 C 80.3744566 45.828147876 74.1810194 53.368506555 69.439415 58.055338131000006" />
<path class="stroke" d="M 48.2155562928 75.2885010192 C 47.9320010208 78.792 47.116749819199995 81.55703927699999 45.2382226192 83.88800101919999" />
<path class="stroke" d="M 56.0133346944 65.30883439499999 L 55.954538656 90.04098684 C 55.954538656 91.12609085999999 56.920623776 91.84948080000001 58.369700416 91.84948080000001 L 75.75872217599999 91.84948080000001 C 77.100461696 91.84948080000001 78.28122105599999 91.00550676 78.33486409599999 89.67927276 L 78.33486409599999 87.62961059999999" />
<path class="stroke" d="M 64.0946673472 61.5930007644 C 67.922668368 63.1855005096 69.094475312 64.3292428002 70.758226192 66.901333758" />
<path class="stroke" d="M 78.9813346944 76.2440010192 C 82.36252747200001 78.49454635260001 84.11890063999999 80.4749810088 86.212005104 83.569503822" />
</svg>
