<?xml version="1.0" standalone="no"?>
<!DOCTYPE svg PUBLIC "-//W3C//DTD SVG 1.1//EN" "http://www.w3.org/Graphics/SVG/1.1/DTD/svg11.dtd">
<svg xmlns="http://www.w3.org/2000/svg" version="1.1" width="100%" height="100%">
<style type="text/css"><![CDATA[
  .stroke { fill:none; stroke:black; stroke-width:2 }
]]></style>
<path class="stroke" d="M 83.75393 7.29810625 C 63.56463 9.44322235 38.32813 10.94476435 13.72243 11.32017535" />
<path class="stroke" d="M 6.782333 25.317020799999998 L 91.95584 25.317020799999998" />
<path class="stroke" d="M 49.0536 10.354906 L 49.0536 52.34545" />
<path class="stroke" d="M 49.053642 25.3170718 C 38.328045 33.6293578 25.394342 40.8154618 7.413253 46.8754348" />
<path class="stroke" d="M 49.053642 25.3170718 C 59.67404 34.0583698 71.556244 40.5473548 91.32494 46.7145298" />
<path class="stroke" d="M 40.78686012 57.11167806 L 40.78686012 68.78758932 C 40.78686012 79.0824799 33.65109452 89.25182251999999 15.811678639999998 91.8883185" />
<path class="stroke" d="M 56.97955955999999 56.98613139 L 56.97955955999999 86.6153274 C 56.97955955999999 89.7540135 60.54744612 91.6372243 64.38977602 91.6372243 L 85.79707 91.6372243 C 88.81605859999999 91.76277139999999 91.011673 90.7583903 91.011673 89.3773679 L 91.011673 86.99197042" />
</svg>
