<?xml version="1.0" standalone="no"?>
<!DOCTYPE svg PUBLIC "-//W3C//DTD SVG 1.1//EN" "http://www.w3.org/Graphics/SVG/1.1/DTD/svg11.dtd">
<svg xmlns="http://www.w3.org/2000/svg" version="1.1" width="100%" height="100%">
<style type="text/css"><![CDATA[
  .stroke { fill:none; stroke:black; stroke-width:2 }
]]></style>
<path class="stroke" d="M 83.75393 7.58675 C 63.56463 9.269194 38.32813 10.446874000000001 13.72243 10.741314" />
<path class="stroke" d="M 6.782333 21.719232 L 91.95584 21.719232" />
<path class="stroke" d="M 49.0536 9.98424 L 49.0536 42.918" />
<path class="stroke" d="M 49.053642 21.719272 C 38.328045 28.238712000000003 25.394342 33.874871999999996 7.413253 38.627792" />
<path class="stroke" d="M 49.053642 21.719272 C 59.67404 28.575192 71.556244 33.664592 91.32494 38.501592" />
<path class="stroke" d="M 50.14598 45.966714208 C 38.75912 55.258393072000004 25.912407 62.545984864000005 9.854013 66.918538192" />
<path class="stroke" d="M 50.14598 45.966714208 C 61.824814 54.89401264 73.795616 62.545984864000005 90.43795 66.736349536" />
<path class="stroke" d="M 52.808104 61.288647819999994 L 52.808104 94.20732928000001 L 45.636124599999995 93.81151539999999" />
<path class="stroke" d="M 20.8664915 66.76439782 C 28.3272253 68.7434542 34.8926715 71.11832319999999 38.772249200000005 73.8890044" />
<path class="stroke" d="M 43.845550349999996 76.13193586 C 36.981674 80.22198825999999 26.53664725 83.2565458 12.8088993 85.10366379999999" />
<path class="stroke" d="M 80.5523505 65.70890086 C 77.5680642 69.00732928 72.494764 71.9099476 66.227747 73.49319388" />
<path class="stroke" d="M 62.97567185 76.1362144 C 77.26963119999999 78.9026179 82.64135775 81.1455481 93.1702695 85.535134" />
</svg>
