<?xml version="1.0" standalone="no"?>
<!DOCTYPE svg PUBLIC "-//W3C//DTD SVG 1.1//EN" "http://www.w3.org/Graphics/SVG/1.1/DTD/svg11.dtd">
<svg xmlns="http://www.w3.org/2000/svg" version="1.1" width="100%" height="100%">
<style type="text/css"><![CDATA[
  .stroke { fill:none; stroke:black; stroke-width:2 }
]]></style>
<path class="stroke" d="M 22.839923720930233 13.941605 C 26.506533139534888 17.153284 28.339840465116282 21.240875 29.256491511627907 25.912407" />
<path class="stroke" d="M 13.062297034883722 29.416058 L 39.95076976744186 27.66423 C 34.45085302325582 39.927006 21.61772058139535 50.729923 10.617891279069768 57.44525" />
<path class="stroke" d="M 28.339840465116282 45.18248 L 28.339840465116282 89.56204" />
<path class="stroke" d="M 31.700898837209305 44.014595 C 35.97860930232558 46.642334 38.11746453488372 50.14598 39.95076976744186 54.233574" />
<path class="stroke" d="M 67.79808 12.725364554999999 L 67.79808 31.05821045" />
<path class="stroke" d="M 67.9065664 21.028283725 L 84.5372224 21.028283725" />
<path class="stroke" d="M 53.33138688 34.4756923542 L 53.33138688 78.517033498" />
<path class="stroke" d="M 53.518247040000006 34.4756923542 L 82.668608 34.4756923542 L 82.668608 78.517033498" />
<path class="stroke" d="M 53.52460672 49.508813348000004 L 82.63762176 49.508813348000004" />
<path class="stroke" d="M 53.52460672 64.31027800780001 L 82.63762176 64.31027800780001" />
<path class="stroke" d="M 53.518247040000006 78.3204209 L 82.4817472 78.3204209" />
<path class="stroke" d="M 57.25547392 83.03913672 C 55.760583679999996 86.38155762 53.33138688 88.15107773599999 50.5284672 88.937528128" />
<path class="stroke" d="M 79.491968 83.235749318 C 82.2948864 84.02219971 84.3503616 85.791719826 86.03211519999999 88.937528128" />
</svg>
