<?xml version="1.0" standalone="no"?>
<!DOCTYPE svg PUBLIC "-//W3C//DTD SVG 1.1//EN" "http://www.w3.org/Graphics/SVG/1.1/DTD/svg11.dtd">
<svg xmlns="http://www.w3.org/2000/svg" version="1.1" width="100%" height="100%">
<style type="text/css"><![CDATA[
  .stroke { fill:none; stroke:black; stroke-width:2 }
]]></style>
<path class="stroke" d="M 29.256491511627907 11.89781 C 28.339840465116282 30.875912 22.534372674418606 45.47445 17.03445697674419 55.693428 C 27.728738372093026 60.9489 36.895263488372095 70.0 43.9229323255814 81.386856" />
<path class="stroke" d="M 42.68938604651163 26.831684 C 40.513468604651166 53.564358 31.700898837209305 69.70802 16.728908023255816 79.34306" />
<path class="stroke" d="M 10.617891279069768 33.79562 L 44.554455000000004 29.80198" />
<path class="stroke" d="M 70.3573424608 9.959853200000001 C 67.783327888 21.39050975 61.64141464 34.191410000000005 54.3984517568 43.332116 C 65.2093128744 41.88686 74.6044667704 41.229927499999995 84.89070536 41.326025" />
<path class="stroke" d="M 79.881196292 33.0839384 C 82.841311552 35.58029 85.4153261248 39.39050975 87.088437184 44.5145945" />
<path class="stroke" d="M 59.240817190399994 56.223357 L 59.240817190399994 87.802918" />
<path class="stroke" d="M 59.240817190399994 56.223357 L 82.86756095999999 56.223357 L 82.86756095999999 87.49926920000001" />
<path class="stroke" d="M 59.240817190399994 85.37372031999999 L 82.86756095999999 85.37372031999999" />
</svg>
