<?xml version="1.0" standalone="no"?>
<!DOCTYPE svg PUBLIC "-//W3C//DTD SVG 1.1//EN" "http://www.w3.org/Graphics/SVG/1.1/DTD/svg11.dtd">
<svg xmlns="http://www.w3.org/2000/svg" version="1.1" width="100%" height="100%">
<style type="text/css"><![CDATA[
  .stroke { fill:none; stroke:black; stroke-width:2 }
]]></style>
<path class="stroke" d="M 20.30215441860465 13.941605 C 23.561362790697675 17.153284 25.19096930232558 21.240875 26.005770232558138 25.912407" />
<path class="stroke" d="M 11.61093069767442 29.416058 L 35.511795348837204 27.66423 C 30.62298046511628 39.927006 19.215751627906975 50.729923 9.438125581395349 57.44525" />
<path class="stroke" d="M 25.19096930232558 45.18248 L 25.19096930232558 89.56204" />
<path class="stroke" d="M 28.178576744186046 44.014595 C 31.980986046511624 46.642334 33.88219069767442 50.14598 35.511795348837204 54.233574" />
<path class="stroke" d="M 50.15049481 11.966054142857145 C 48.74851439 21.895332428571432 46.64554435 32.20650385714286 43.8415841 39.08062028571429" />
<path class="stroke" d="M 47.87227766 26.478075857142862 L 91.3336636 26.478075857142862" />
<path class="stroke" d="M 67.50311933 32.14890476 L 67.50311933 86.2919652 C 67.50311933 87.8452494 66.55255263 88.732842 65.86350284 88.732842 L 64.6576632 88.732842" />
<path class="stroke" d="M 53.80510821 52.3416024 C 52.94379435 60.108027199999995 50.35985336 66.7649622 46.74233444 72.09051095999999" />
<path class="stroke" d="M 79.6445246 52.3416024 C 83.08977945 57.0014588 86.01824504 63.21459788 87.74087276 72.53430384" />
</svg>
