<?xml version="1.0" standalone="no"?>
<!DOCTYPE svg PUBLIC "-//W3C//DTD SVG 1.1//EN" "http://www.w3.org/Graphics/SVG/1.1/DTD/svg11.dtd">
<svg xmlns="http://www.w3.org/2000/svg" version="1.1" width="100%" height="100%">
<style type="text/css"><![CDATA[
  .stroke { fill:none; stroke:black; stroke-width:2 }
]]></style>
<path class="stroke" d="M 20.30215441860465 13.941605 C 23.561362790697675 17.153284 25.19096930232558 21.240875 26.005770232558138 25.912407" />
<path class="stroke" d="M 11.61093069767442 29.416058 L 35.511795348837204 27.66423 C 30.62298046511628 39.927006 19.215751627906975 50.729923 9.438125581395349 57.44525" />
<path class="stroke" d="M 25.19096930232558 45.18248 L 25.19096930232558 89.56204" />
<path class="stroke" d="M 28.178576744186046 44.014595 C 31.980986046511624 46.642334 33.88219069767442 50.14598 35.511795348837204 54.233574" />
<path class="stroke" d="M 72.72043638 12.189779 C 66.69123877 15.985401 58.42262536 20.948904 49.46496275 22.116787" />
<path class="stroke" d="M 49.46496275 22.116787 L 49.46496275 86.35036 C 49.46496275 88.39416 50.8430641 91.0219 52.22116604 90.72992 L 57.21678808 88.978096" />
<path class="stroke" d="M 49.809488529999996 48.10219 L 77.0270045 43.430653" />
<path class="stroke" d="M 64.96861104999999 16.861313 L 68.5861282 54.525543 C 71.6868614 79.051094 81.6780984 87.51824 88.9131327 90.43795 C 91.49707663999999 91.313866 92.18612819999998 89.56204 92.18612819999998 85.76642 L 92.18612819999998 82.84671" />
</svg>
