<?xml version="1.0" standalone="no"?>
<!DOCTYPE svg PUBLIC "-//W3C//DTD SVG 1.1//EN" "http://www.w3.org/Graphics/SVG/1.1/DTD/svg11.dtd">
<svg xmlns="http://www.w3.org/2000/svg" version="1.1" width="100%" height="100%">
<style type="text/css"><![CDATA[
  .stroke { fill:none; stroke:black; stroke-width:2 }
]]></style>
<path class="stroke" d="M 22.332369860465114 13.941605 C 25.917499069767445 17.153284 27.71006623255814 21.240875 28.606347255813954 25.912407" />
<path class="stroke" d="M 12.772023767441862 29.416058 L 39.062974883720926 27.66423 C 33.685278511627914 39.927006 21.137326790697674 50.729923 10.381938139534883 57.44525" />
<path class="stroke" d="M 27.71006623255814 45.18248 L 27.71006623255814 89.56204" />
<path class="stroke" d="M 30.99643441860465 44.014595 C 35.17908465116279 46.642334 37.27040976744186 50.14598 39.062974883720926 54.233574" />
<path class="stroke" d="M 54.73605764 24.308 L 88.703939 24.308" />
<path class="stroke" d="M 57.000583288 35.316 L 86.43941380000001 35.316" />
<path class="stroke" d="M 49.8076486496 46.668000000000006 L 94.19234696000001 46.668000000000006" />
<path class="stroke" d="M 66.2145 12.784636400000002 C 63.093564 43.585424599999996 56.262852 72.9755204 48.902184 85.08424300000001" />
<path class="stroke" d="M 49.84525536 64.14671439 L 93.9912364 64.14671439" />
<path class="stroke" d="M 80.7474464 56.99051077 L 80.7474464 88.87956059999999 C 80.7474464 90.0094888 80.093428 90.7627714 78.62189584000001 90.7627714 L 74.2072988 90.7627714" />
<path class="stroke" d="M 58.837956000000005 68.91751708999999 C 60.8 70.04744486 62.59853968 71.67956146 64.07007128000001 74.44160411" />
</svg>
