<?xml version="1.0" standalone="no"?>
<!DOCTYPE svg PUBLIC "-//W3C//DTD SVG 1.1//EN" "http://www.w3.org/Graphics/SVG/1.1/DTD/svg11.dtd">
<svg xmlns="http://www.w3.org/2000/svg" version="1.1" width="100%" height="100%">
<style type="text/css"><![CDATA[
  .stroke { fill:none; stroke:black; stroke-width:2 }
]]></style>
<path class="stroke" d="M 26.807454054054055 11.310218400000002 C 22.16748702702703 15.485401500000002 17.306567459459462 18.37591165 13.108500972972973 19.981751600000003" />
<path class="stroke" d="M 28.133161729729732 22.551093650000002 C 23.493193945945947 26.72627565 16.86466691891892 30.419705500000003 10.89899372972973 32.1861295" />
<path class="stroke" d="M 21.504634702702706 28.0109475 L 21.504634702702706 52.419705500000006" />
<path class="stroke" d="M 42.0441 6.632073500000001 C 39.905704 10.667715000000001 37.125796 13.492680000000002 33.4905636 16.14467" />
<path class="stroke" d="M 40.119472200000004 10.6100915 L 62.999976880000006 10.6100915" />
<path class="stroke" d="M 33.0628912 24.619504500000005 L 65.779908 24.619504500000005" />
<path class="stroke" d="M 49.7421624 11.1289428 L 49.7421624 50.735820000000004" />
<path class="stroke" d="M 49.955968 37.0723537 L 62.78614 37.0723537" />
<path class="stroke" d="M 39.0503184 36.2075535 L 39.0503184 52.46538850000001" />
<path class="stroke" d="M 33.0628912 53.6761035 L 62.786208 48.6604335" />
<path class="stroke" d="M 72.69053635 8.11829835 L 90.87035589999999 8.11829835 L 90.87035589999999 37.96056025 C 90.87035589999999 40.389583 89.5832638 41.604090250000006 87.97441984000001 41.604090250000006 L 85.23944386 41.604090250000006" />
<path class="stroke" d="M 72.69053635 8.11829835 L 72.69053635 54.96369970000001" />
<path class="stroke" d="M 16.5615 64.145112 L 83.4385 64.145112" />
<path class="stroke" d="M 7.097795 74.5930572 L 93.53311 74.5930572" />
<path class="stroke" d="M 50.31547 74.706612 L 50.31547 91.627764 C 50.31547 92.839128 47.79177 93.59620799999999 45.58357 93.55837199999999 L 41.48257 93.55837199999999" />
<path class="stroke" d="M 32.6498 79.13562 C 26.8664 83.413248 20.1367 86.895924 7.72871 89.583612" />
<path class="stroke" d="M 68.6121 79.249236 C 77.7604 81.936924 85.0158 85.30602 91.0095 89.583612" />
</svg>
