<?xml version="1.0" standalone="no"?>
<!DOCTYPE svg PUBLIC "-//W3C//DTD SVG 1.1//EN" "http://www.w3.org/Graphics/SVG/1.1/DTD/svg11.dtd">
<svg xmlns="http://www.w3.org/2000/svg" version="1.1" width="100%" height="100%">
<style type="text/css"><![CDATA[
  .stroke { fill:none; stroke:black; stroke-width:2 }
]]></style>
<path class="stroke" d="M 11.397809250000002 11.503284 L 39.383208 11.503284" />
<path class="stroke" d="M 20.39952915 11.503284 C 20.22592635 35.080395 11.26642275 62.408752 5.87956185 70.0" />
<path class="stroke" d="M 16.78467015 45.47445 L 16.78467015 85.18248" />
<path class="stroke" d="M 16.78467015 45.47445 L 36.0985365 45.47445 L 35.967150000000004 85.47445" />
<path class="stroke" d="M 16.6532841 82.26277 L 35.967150000000004 82.26277" />
<path class="stroke" d="M 51.358027965000005 9.854013 L 86.6222601 9.854013" />
<path class="stroke" d="M 51.21350331 9.854013 L 51.21350331 31.167881 C 51.21350331 74.67153 49.33467042 81.386856 47.048019405 90.09901" />
<path class="stroke" d="M 57.33576572 27.8430648 L 92.27882860000001 27.8430648" />
<path class="stroke" d="M 72.36642180000001 43.726276999999996 L 86.1124068 43.726276999999996 C 85.47007104 69.04014145 82.38685860000001 77.72627359999998 81.10218708 81.6970775 C 79.817516 84.67518 77.76204148 90.135036 76.2204368 88.894155 L 74.80729848 87.6532825" />
<path class="stroke" d="M 73.52262696 27.8430648 C 73.2656916 48.937955099999996 65.6861306 74.996349 58.36350276 86.1642321" />
</svg>
