<?xml version="1.0" standalone="no"?>
<!DOCTYPE svg PUBLIC "-//W3C//DTD SVG 1.1//EN" "http://www.w3.org/Graphics/SVG/1.1/DTD/svg11.dtd">
<svg xmlns="http://www.w3.org/2000/svg" version="1.1" width="100%" height="100%">
<style type="text/css"><![CDATA[
  .stroke { fill:none; stroke:black; stroke-width:2 }
]]></style>
<path class="stroke" d="M 10.131386000000001 11.503284 L 35.007296000000004 11.503284" />
<path class="stroke" d="M 18.1329148 11.503284 C 17.9786012 35.080395 10.014598 62.408752 5.2262772 70.0" />
<path class="stroke" d="M 14.9197068 45.47445 L 14.9197068 85.18248" />
<path class="stroke" d="M 14.9197068 45.47445 L 32.087588000000004 45.47445 L 31.970800000000004 85.47445" />
<path class="stroke" d="M 14.8029192 82.26277 L 31.970800000000004 82.26277" />
<path class="stroke" d="M 53.31344777445 6.84306507 C 51.58347721455 11.39780955 49.02971104245 14.47226262 46.97022201195 17.20510845 C 48.9473319891 19.2547437 51.17157940845 21.759854100000002 53.31344777445 24.83430483" />
<path class="stroke" d="M 59.24477601299999 14.8138683 C 54.79627976355 24.37883007 49.27684961325 31.666423499999997 43.92217813395 37.018245300000004 C 50.512543031549995 35.4240852 56.52625032345 34.85474175 62.457578561999995 34.85474175" />
<path class="stroke" d="M 60.809986209 30.983209799999997 C 61.91910093 32.629314 63.25423472999999 35.499987 63.528512745 38.0430639" />
<path class="stroke" d="M 81.52844777445 6.84306507 C 79.79847721454999 11.39780955 77.24471104244998 14.47226262 75.18522201195 17.20510845 C 77.1623319891 19.2547437 79.38657940844999 21.759854100000002 81.52844777445 24.83430483" />
<path class="stroke" d="M 87.459776013 14.8138683 C 83.01127976355 24.37883007 77.49184961325 31.666423499999997 72.13717813395 37.018245300000004 C 78.72754303155 35.4240852 84.74125032345 34.85474175 90.672578562 34.85474175" />
<path class="stroke" d="M 89.02498620899999 30.983209799999997 C 90.13410092999999 32.629314 91.46923473 35.499987 91.743512745 38.0430639" />
<path class="stroke" d="M 41.85 50.49315 L 93.15 50.49315" />
<path class="stroke" d="M 67.40630168999999 10.054794 L 67.40630168999999 37.0137 C 66.28191798 59.369865 82.90379399999999 93.0074 90.156132 93.2176 L 90.156132 82.4922" />
<path class="stroke" d="M 88.20739662 59.369865 C 85.48104899999998 68.82226 76.850109 86.38276 64.622982 92.586754" />
<path class="stroke" d="M 83.52246629999999 37.0137 C 85.95862919999999 40.958904 85.58383709999998 38.9863 86.895618 45.56164" />
<path class="stroke" d="M 50.783559839999995 56.188659 C 50.12516082 69.608004 46.0610517 80.234774 40.770945426 85.04399699999999" />
<path class="stroke" d="M 49.82997834 65.264167 C 51.69176364 72.788265 55.1201301 80.428691 59.02527648 85.04399699999999" />
</svg>
