<?xml version="1.0" standalone="no"?>
<!DOCTYPE svg PUBLIC "-//W3C//DTD SVG 1.1//EN" "http://www.w3.org/Graphics/SVG/1.1/DTD/svg11.dtd">
<svg xmlns="http://www.w3.org/2000/svg" version="1.1" width="100%" height="100%">
<style type="text/css"><![CDATA[
  .stroke { fill:none; stroke:black; stroke-width:2 }
]]></style>
<path class="stroke" d="M 11.397809250000002 11.503284 L 39.383208 11.503284" />
<path class="stroke" d="M 20.39952915 11.503284 C 20.22592635 35.080395 11.26642275 62.408752 5.87956185 70.0" />
<path class="stroke" d="M 16.78467015 45.47445 L 16.78467015 85.18248" />
<path class="stroke" d="M 16.78467015 45.47445 L 36.0985365 45.47445 L 35.967150000000004 85.47445" />
<path class="stroke" d="M 16.6532841 82.26277 L 35.967150000000004 82.26277" />
<path class="stroke" d="M 51.809488529999996 9.45985248 L 87.81240539999999 9.45985248" />
<path class="stroke" d="M 70.06934129999999 9.45985248 C 69.38029209999999 14.22481536 68.00218898 18.14890272 66.052816 21.179616" />
<path class="stroke" d="M 53.330999999999996 21.483936 L 53.330999999999996 73.64671104" />
<path class="stroke" d="M 53.330999999999996 21.483936 L 86.44516300000001 21.483936 L 86.44516300000001 73.3664208" />
<path class="stroke" d="M 53.518088999999996 39.139833599999996 L 86.44516300000001 39.139833599999996" />
<path class="stroke" d="M 53.518088999999996 57.4044192 L 86.44516300000001 57.4044192" />
<path class="stroke" d="M 53.35985336 73.64671104 L 86.6065634 73.64671104" />
<path class="stroke" d="M 59.90583787 79.81313279999999 C 56.80510821 83.45692799999999 48.25656989 90.9197088 43.95 91.2" />
<path class="stroke" d="M 80.5773711 80.093424 C 84.1948912 81.21458879999999 87.12335619999999 82.89634559999999 90.56861104999999 87.1007232" />
</svg>
