<?xml version="1.0" standalone="no"?>
<!DOCTYPE svg PUBLIC "-//W3C//DTD SVG 1.1//EN" "http://www.w3.org/Graphics/SVG/1.1/DTD/svg11.dtd">
<svg xmlns="http://www.w3.org/2000/svg" version="1.1" width="100%" height="100%">
<style type="text/css"><![CDATA[
  .stroke { fill:none; stroke:black; stroke-width:2 }
]]></style>
<path class="stroke" d="M 11.397809250000002 11.503284 L 39.383208 11.503284" />
<path class="stroke" d="M 20.39952915 11.503284 C 20.22592635 35.080395 11.26642275 62.408752 5.87956185 70.0" />
<path class="stroke" d="M 16.78467015 45.47445 L 16.78467015 85.18248" />
<path class="stroke" d="M 16.78467015 45.47445 L 36.0985365 45.47445 L 35.967150000000004 85.47445" />
<path class="stroke" d="M 16.6532841 82.26277 L 35.967150000000004 82.26277" />
<path class="stroke" d="M 52.58904886 9.569284276 L 52.58904886 44.238594688" />
<path class="stroke" d="M 52.58904886 9.569284276 L 84.22700499999999 9.569284276 L 84.22700499999999 44.238594688" />
<path class="stroke" d="M 52.77299185 25.959522981600003 L 84.04306389999999 25.959522981600003" />
<path class="stroke" d="M 52.58904886 42.7252529568 L 84.22700499999999 42.7252529568" />
<path class="stroke" d="M 47.6097508972 56.01 L 89.39024497 56.01" />
<path class="stroke" d="M 43.57591228 67.47102102699999 L 93.24014095000001 67.47102102699999" />
<path class="stroke" d="M 78.3408772 60.830729761 L 78.3408772 90.42080158 C 78.3408772 91.46926984 77.6051065 92.16824601999998 75.94963282 92.16824601999998 L 70.98321115 92.16824601999998" />
<path class="stroke" d="M 53.6927005 71.897882137 C 55.9 72.94634999799999 57.92335714 74.460802378 59.578830190000005 77.02372102300001" />
</svg>
