<?xml version="1.0" standalone="no"?>
<!DOCTYPE svg PUBLIC "-//W3C//DTD SVG 1.1//EN" "http://www.w3.org/Graphics/SVG/1.1/DTD/svg11.dtd">
<svg xmlns="http://www.w3.org/2000/svg" version="1.1" width="100%" height="100%">
<style type="text/css"><![CDATA[
  .stroke { fill:none; stroke:black; stroke-width:2 }
]]></style>
<path class="stroke" d="M 11.397809250000002 11.503284 L 39.383208 11.503284" />
<path class="stroke" d="M 20.39952915 11.503284 C 20.22592635 35.080395 11.26642275 62.408752 5.87956185 70.0" />
<path class="stroke" d="M 16.78467015 45.47445 L 16.78467015 85.18248" />
<path class="stroke" d="M 16.78467015 45.47445 L 36.0985365 45.47445 L 35.967150000000004 85.47445" />
<path class="stroke" d="M 16.6532841 82.26277 L 35.967150000000004 82.26277" />
<path class="stroke" d="M 68.35330400000001 9.430351840000004 L 68.35330400000001 20.226565600000004" />
<path class="stroke" d="M 43.62145112 20.461223200000003 L 43.62145112 29.849238400000008" />
<path class="stroke" d="M 43.62145112 20.461223200000003 L 92.73187080000001 20.461223200000003 L 92.73187080000001 29.849238400000008" />
<path class="stroke" d="M 54.40671428 30.148612840000002 C 53.45021804 43.399415032 51.169342856 50.350654648 48.079123808 56.65021796800001" />
<path class="stroke" d="M 54.18598496 34.710363279999996 L 63.53021804000001 34.710363279999996 C 62.64729824 54.26072656000001 55.657517792 79.24175118400001 46.018977944 89.45138344000001" />
<path class="stroke" d="M 53.0087594 49.04729759200001 C 55.30707374 51.974295520000005 57.129050876 55.781311528 58.747736336 62.73255412000001" />
<path class="stroke" d="M 71.776016888 34.01350045648 L 86.83225484000002 34.01350045648 L 86.83225484000002 58.72272848848 C 86.81819702000001 60.68569283584 86.27795564 62.03196013648001 85.05290048 62.03196013648001 L 82.45227308 62.03196013648001" />
<path class="stroke" d="M 71.775973292 34.234078600480004 L 71.775973292 88.72680898239999 C 71.81675924000001 91.186535032 72.73409720000001 92.5334953984 73.965964676 92.47733679040002 L 87.65344094000001 92.47733679040002 C 88.97660096 92.47733679040002 90.02597180000001 91.1536581184 89.98036988000001 88.72680898239999 L 89.98036988000001 84.5350549504" />
</svg>
