<?xml version="1.0" standalone="no"?>
<!DOCTYPE svg PUBLIC "-//W3C//DTD SVG 1.1//EN" "http://www.w3.org/Graphics/SVG/1.1/DTD/svg11.dtd">
<svg xmlns="http://www.w3.org/2000/svg" version="1.1" width="100%" height="100%">
<style type="text/css"><![CDATA[
  .stroke { fill:none; stroke:black; stroke-width:2 }
]]></style>
<path class="stroke" d="M 11.397809250000002 11.503284 L 39.383208 11.503284" />
<path class="stroke" d="M 20.39952915 11.503284 C 20.22592635 35.080395 11.26642275 62.408752 5.87956185 70.0" />
<path class="stroke" d="M 16.78467015 45.47445 L 16.78467015 85.18248" />
<path class="stroke" d="M 16.78467015 45.47445 L 36.0985365 45.47445 L 35.967150000000004 85.47445" />
<path class="stroke" d="M 16.6532841 82.26277 L 35.967150000000004 82.26277" />
<path class="stroke" d="M 81.905384 8.18927 C 71.537362 12.2418356 60.620369999999994 14.515187999999998 49.703435999999996 15.305916" />
<path class="stroke" d="M 49.337514 15.306009999999999 L 49.337514 74.908496 M 43.29968152 77.57725 L 62.6939947 70.756986" />
<path class="stroke" d="M 49.337514 42.58673699999999 L 91.419588 42.58673699999999" />
<path class="stroke" d="M 69.097824 12.340686 L 69.097824 47.034676 C 69.58572 78.961118 83.430088 91.61304799999999 93.06626599999998 91.51415999999999 L 93.06626599999998 77.87382" />
<path class="stroke" d="M 44.950291398 88.53999999999999 L 70.74970605 88.53999999999999" />
</svg>
