<?xml version="1.0" standalone="no"?>
<!DOCTYPE svg PUBLIC "-//W3C//DTD SVG 1.1//EN" "http://www.w3.org/Graphics/SVG/1.1/DTD/svg11.dtd">
<svg xmlns="http://www.w3.org/2000/svg" version="1.1" width="100%" height="100%">
<style type="text/css"><![CDATA[
  .stroke { fill:none; stroke:black; stroke-width:2 }
]]></style>
<path class="stroke" d="M 10.036495 8.78175126 L 39.9635 8.78175126" />
<path class="stroke" d="M 25.15573 8.78175126 L 25.0821915 42.79205160000001" />
<path class="stroke" d="M 12.372261 27.19634898 L 37.77372 27.19634898" />
<path class="stroke" d="M 5.510948 46.539411300000005 L 43.9863 39.65561495000001" />
<path class="stroke" d="M 69.7926984 4.9665246148 C 69.650156 7.883759646000001 66.241996 11.268481686000001 63.181652 11.380775966000002" />
<path class="stroke" d="M 56.0583932 11.487459167799999 L 56.0583932 47.27677486" />
<path class="stroke" d="M 56.0583932 11.381240829000001 L 88.26861264000001 11.381240829000001 L 88.26861264000001 47.27677486" />
<path class="stroke" d="M 56.0583932 28.239115764999998 L 88.26861264000001 28.239115764999998" />
<path class="stroke" d="M 56.0583932 45.719437064000005 L 88.26861264000001 45.719437064000005" />
<path class="stroke" d="M 15.247524 57.766335940000005 L 85.346535 57.766335940000005" />
<path class="stroke" d="M 44.950497 57.766335940000005 C 40.79208 69.73663316 22.673267 84.1009928 10.198019 87.78415860000001" />
<path class="stroke" d="M 38.71287 71.20990196 L 38.71287 90.9148517" />
<path class="stroke" d="M 38.71287 71.20990196 L 79.40594 71.20990196 L 79.40594 91.09900719999999" />
<path class="stroke" d="M 38.71287 89.0029174 L 79.40594 89.0029174" />
</svg>
