<?xml version="1.0" standalone="no"?>
<!DOCTYPE svg PUBLIC "-//W3C//DTD SVG 1.1//EN" "http://www.w3.org/Graphics/SVG/1.1/DTD/svg11.dtd">
<svg xmlns="http://www.w3.org/2000/svg" version="1.1" width="100%" height="100%">
<style type="text/css"><![CDATA[
  .stroke { fill:none; stroke:black; stroke-width:2 }
]]></style>
<path class="stroke" d="M 10.891239950000001 11.503284 L 37.6328432 11.503284" />
<path class="stroke" d="M 19.49288341 11.503284 C 19.32699629 35.080395 10.765692849999999 62.408752 5.6182479899999995 70.0" />
<path class="stroke" d="M 16.03868481 45.47445 L 16.03868481 85.18248" />
<path class="stroke" d="M 16.03868481 45.47445 L 34.4941571 45.47445 L 34.368610000000004 85.47445" />
<path class="stroke" d="M 15.91313814 82.26277 L 34.368610000000004 82.26277" />
<path class="stroke" d="M 69.0846684 6.294379566999999 L 69.0846684 15.017298372999997" />
<path class="stroke" d="M 47.23941529 15.215545323999999 L 47.23941529 24.731458045" />
<path class="stroke" d="M 47.23941529 15.215545323999999 L 90.92992179999999 15.215545323999999 L 90.92992179999999 24.731458045" />
<path class="stroke" d="M 45.031546399999996 31.479102025 L 92.968442 31.479102025" />
<path class="stroke" d="M 69.18298999999999 31.708621 L 69.0 90.4290272125" />
<path class="stroke" d="M 69.18298999999999 57.641595249999995 L 88.02840799999998 57.641595249999995" />
<path class="stroke" d="M 53.81386 56.035057 C 53.508896 76.46012875 49.727644 84.03354925 43.7507846 92.29533025" />
<path class="stroke" d="M 53.81386 56.035057 C 54.362772 92.5248565 70.12257955999999 90.89838475 78.167741 91.83709255 L 94.06626599999998 92.06587675" />
</svg>
