<?xml version="1.0" standalone="no"?>
<!DOCTYPE svg PUBLIC "-//W3C//DTD SVG 1.1//EN" "http://www.w3.org/Graphics/SVG/1.1/DTD/svg11.dtd">
<svg xmlns="http://www.w3.org/2000/svg" version="1.1" width="100%" height="100%">
<style type="text/css"><![CDATA[
  .stroke { fill:none; stroke:black; stroke-width:2 }
]]></style>
<path class="stroke" d="M 27.870642 7.3264983400000006 C 27.532082000000003 9.60410434 26.758132000000003 11.52210304 24.678242 13.080426039999999" />
<path class="stroke" d="M 15.536248 13.080450549999998 L 15.536248 42.02995255 C 15.487902 49.0426084 13.407966000000002 53.717687979999994 7.700295199999999 57.13409469999999" />
<path class="stroke" d="M 15.536248 13.080450549999998 L 38.89905 13.080450549999998 L 38.89905 53.897463699999996 C 38.947442 56.0551987 38.125146 56.95426198 36.867506 56.95426198 L 34.690832 56.95426198" />
<path class="stroke" d="M 24.242898000000004 19.3738063 C 26.903262 20.8122583 28.547808000000003 23.1498283 30.047316000000002 26.386402299999997" />
<path class="stroke" d="M 27.3780832 38.0282191 L 27.3780832 50.3964382" />
<path class="stroke" d="M 6.9747648 32.320164999999996 L 46.735012 32.320164999999996" />
<path class="stroke" d="M 64.148266 8.5851769 L 64.148266 19.194034 C 64.05152799999999 27.405339999999995 58.875930000000004 31.301289999999998 52.9747648 33.03944799999999" />
<path class="stroke" d="M 64.293396 8.5851712 L 79.96532 8.5851712 L 79.96532 24.947899 C 79.82019000000001 27.285411999999997 80.981092 28.723921 82.577292 28.723921 L 92.65235460000001 28.723921" />
<path class="stroke" d="M 59.649834000000006 34.298127699999995 L 83.883324 34.298127699999995 C 77.7403 48.0236707 66.518416 54.7366177 53.84542520000001 57.6734857" />
<path class="stroke" d="M 63.132494 34.298127699999995 C 65.40590600000002 47.1246097 78.417466 56.534739699999996 92.735012 57.493707699999995" />
<path class="stroke" d="M 15.247524 67.98415789 L 85.346535 67.98415789" />
<path class="stroke" d="M 44.950497 67.98415789 C 40.79208 77.05841545999999 22.673267 87.94752679999999 10.198019 90.73960410000001" />
<path class="stroke" d="M 38.71287 78.17524825999999 L 38.71287 93.11287145" />
<path class="stroke" d="M 38.71287 78.17524825999999 L 79.40594 78.17524825999999 L 79.40594 93.2524732" />
<path class="stroke" d="M 38.71287 91.6635019 L 79.40594 91.6635019" />
</svg>
