<?xml version="1.0" standalone="no"?>
<!DOCTYPE svg PUBLIC "-//W3C//DTD SVG 1.1//EN" "http://www.w3.org/Graphics/SVG/1.1/DTD/svg11.dtd">
<svg xmlns="http://www.w3.org/2000/svg" version="1.1" width="100%" height="100%">
<style type="text/css"><![CDATA[
  .stroke { fill:none; stroke:black; stroke-width:2 }
]]></style>
<path class="stroke" d="M 19.21094769 14.233576 C 17.58174951 21.824816 15.137954100000002 28.540146 11.608027965000002 34.67153" />
<path class="stroke" d="M 15.40948806 27.372261 L 41.476639410000004 27.372261" />
<path class="stroke" d="M 9.16423209 49.562042 L 42.8343027 49.562042" />
<path class="stroke" d="M 25.7277339 27.372261 C 25.7277339 36.131386 25.7277339 43.430653 25.7277339 49.85401 C 25.7277339 69.70802 19.21094769 79.927 9.70729908 87.81021" />
<path class="stroke" d="M 26.542335780000002 65.62044 C 33.05912199 69.41605 36.31751742 76.131386 40.39050729 87.81021" />
<path class="stroke" d="M 51.354906 12.941637099999998 L 51.354906 92.6577635" />
<path class="stroke" d="M 51.354906 12.941637099999998 L 91.414794 12.941637099999998" />
<path class="stroke" d="M 51.515811 37.8154871 L 87.714489 37.8154871 L 87.714489 64.787034" />
<path class="stroke" d="M 51.51576 64.787034 L 87.714489 64.787034" />
<path class="stroke" d="M 51.354906 92.6577635 L 91.093035 92.6577635" />
</svg>
