<?xml version="1.0" standalone="no"?>
<!DOCTYPE svg PUBLIC "-//W3C//DTD SVG 1.1//EN" "http://www.w3.org/Graphics/SVG/1.1/DTD/svg11.dtd">
<svg xmlns="http://www.w3.org/2000/svg" version="1.1" width="100%" height="100%">
<style type="text/css"><![CDATA[
  .stroke { fill:none; stroke:black; stroke-width:2 }
]]></style>
<path class="stroke" d="M 19.62408635 14.233576 C 17.95985165 21.824816 15.4635015 28.540146 11.857662975 34.67153" />
<path class="stroke" d="M 15.740874899999998 27.372261 L 42.368610149999995 27.372261" />
<path class="stroke" d="M 9.36131235 49.562042 L 43.7554705 49.562042" />
<path class="stroke" d="M 26.2810185 27.372261 C 26.2810185 36.131386 26.2810185 43.430653 26.2810185 49.85401 C 26.2810185 69.70802 19.62408635 79.927 9.9160582 87.81021" />
<path class="stroke" d="M 27.1131387 65.62044 C 33.770070849999996 69.41605 37.0985393 76.131386 41.259120349999996 87.81021" />
<path class="stroke" d="M 59.25182385 9.854013 C 58.448904150000004 19.781021 53.310218400000004 30.29197 50.2591231 32.627735" />
<path class="stroke" d="M 56.843064749999996 25.036495 L 56.843064749999996 90.43795" />
<path class="stroke" d="M 75.95255185 10.145985 C 74.98904865 16.569342 73.2226263 22.116787 70.6532837 25.328465" />
<path class="stroke" d="M 56.843064749999996 24.76344 L 86.551092 24.76344" />
<path class="stroke" d="M 71.4562045 25.328465 L 71.4562045 90.43795" />
<path class="stroke" d="M 56.843064749999996 47.79185 L 84.46350100000001 47.79185" />
<path class="stroke" d="M 56.843064749999996 69.124084 L 84.62408450000001 69.124084" />
<path class="stroke" d="M 56.843064749999996 90.43795 L 89.7627708 90.43795" />
</svg>
