<?xml version="1.0" standalone="no"?>
<!DOCTYPE svg PUBLIC "-//W3C//DTD SVG 1.1//EN" "http://www.w3.org/Graphics/SVG/1.1/DTD/svg11.dtd">
<svg xmlns="http://www.w3.org/2000/svg" version="1.1" width="100%" height="100%">
<style type="text/css"><![CDATA[
  .stroke { fill:none; stroke:black; stroke-width:2 }
]]></style>
<path class="stroke" d="M 8.95912358 9.562042 L 8.95912358 90.72992" />
<path class="stroke" d="M 8.95912358 9.562042 L 28.92992668 9.562042 L 28.92992668 90.43795" />
<path class="stroke" d="M 8.95912358 34.356148 L 28.92992668 34.356148" />
<path class="stroke" d="M 8.95912358 62.19584 L 28.92992668 62.19584" />
<path class="stroke" d="M 8.95912358 87.81021 L 28.92992668 87.81021" />
<path class="stroke" d="M 41.3037074512 24.7689845514 L 88.3338904 24.7689845514" />
<path class="stroke" d="M 64.34048440000001 7.068307967099998 L 64.0874776096 7.318514393999999 C 61.4218886272 27.757263143999996 53.461084801599995 35.091338762999996 34.9914016288 47.85182436899999" />
<path class="stroke" d="M 70.1597014912 24.832905378599996 C 75.72590502399999 33.339897121199996 80.2800746272 40.8460658334 91.665499312 48.352233207" />
<path class="stroke" d="M 42.0454816048 29.752573453517645 C 44.7251974336 32.090826705 46.3742544736 33.026127391411755 48.6417063808 36.143798052176464" />
<path class="stroke" d="M 86.776126912 30.53199137461764 C 85.127063104 32.40259428289411 85.3332001408 33.80554582432941 79.35537361600001 36.92321597327647" />
<path class="stroke" d="M 45.816055840000004 44.059693746389996 L 45.816055840000004 67.56875300832" />
<path class="stroke" d="M 45.816055840000004 44.059693746389996 L 81.97371999999999 44.059693746389996 L 81.97371999999999 67.56875300832" />
<path class="stroke" d="M 46.0262764 55.173820000073995 L 81.7635016 55.173820000073995" />
<path class="stroke" d="M 45.816055840000004 66.542564716152 L 81.97371999999999 66.542564716152" />
<path class="stroke" d="M 64.00380664 67.88360897443499 L 64.00380664 91.06788117745 C 64.00380664 91.733003603275 62.84379304 92.11307425825 62.00291872 92.11307425825 L 60.5313856 92.11307425825" />
<path class="stroke" d="M 47.287589679999996 76.5302018119 C 46.2364948 79.8558155682 43.083210879999996 82.706341412575 38.66861152 84.98676241351001" />
<path class="stroke" d="M 78.8204368 76.5302018119 C 83.0248156 78.52557071654999 86.59853632 81.186061396155 88.70072608 85.17679627654" />
</svg>
