<?xml version="1.0" standalone="no"?>
<!DOCTYPE svg PUBLIC "-//W3C//DTD SVG 1.1//EN" "http://www.w3.org/Graphics/SVG/1.1/DTD/svg11.dtd">
<svg xmlns="http://www.w3.org/2000/svg" version="1.1" width="100%" height="100%">
<style type="text/css"><![CDATA[
  .stroke { fill:none; stroke:black; stroke-width:2 }
]]></style>
<path class="stroke" d="M 9.4306564 14.22335612 L 9.4306564 84.0277312" />
<path class="stroke" d="M 9.4306564 14.22335612 L 30.452554400000004 14.22335612 L 30.452554400000004 83.776637" />
<path class="stroke" d="M 9.4306564 35.54628728 L 30.452554400000004 35.54628728" />
<path class="stroke" d="M 9.4306564 59.4884224 L 30.452554400000004 59.4884224" />
<path class="stroke" d="M 9.4306564 81.51678059999999 L 30.452554400000004 81.51678059999999" />
<path class="stroke" d="M 65.5 11.086457344000005 L 65.5 23.2" />
<path class="stroke" d="M 38.725 23.2 L 92.275 23.2" />
<path class="stroke" d="M 65.95985149 27.306276083199997 C 62.09707831 36.724086207999996 56.39488909 43.0811091712 51.79634899 48.731793472 C 56.210948619999996 52.969808512 61.17737029 58.149606016 65.95985149 64.5066241408" />
<path class="stroke" d="M 79.2036466 43.787444608 C 69.27080011 63.564842483199996 56.94671365 78.63334336 44.99050939 89.699264128 C 59.70583771 86.403031552 73.13357329 85.22580448 86.3773684 85.22580448" />
<path class="stroke" d="M 82.6985338 77.220667648 C 85.175026 80.62430463999999 88.15618599999999 86.55997311999998 88.768609 91.818273664" />
</svg>
