<?xml version="1.0" standalone="no"?>
<!DOCTYPE svg PUBLIC "-//W3C//DTD SVG 1.1//EN" "http://www.w3.org/Graphics/SVG/1.1/DTD/svg11.dtd">
<svg xmlns="http://www.w3.org/2000/svg" version="1.1" width="100%" height="100%">
<style type="text/css"><![CDATA[
  .stroke { fill:none; stroke:black; stroke-width:2 }
]]></style>
<path class="stroke" d="M 10.137955629999999 16.84087444 L 10.137955629999999 83.3985344" />
<path class="stroke" d="M 10.137955629999999 16.84087444 L 32.73649598 16.84087444 L 32.73649598 83.15911899999999" />
<path class="stroke" d="M 10.137955629999999 37.172041359999994 L 32.73649598 37.172041359999994" />
<path class="stroke" d="M 10.137955629999999 60.000588799999996 L 32.73649598 60.000588799999996" />
<path class="stroke" d="M 10.137955629999999 81.00437219999999 L 32.73649598 81.00437219999999" />
<path class="stroke" d="M 65.013283936 8.587627148 C 61.88335696 16.855802052500003 54.4149688 26.1151199 45.607736256 32.72689724 C 58.753429448000006 31.681495399999996 70.177663768 31.206314224999996 82.68543120000001 31.27582475" />
<path class="stroke" d="M 76.59401364000001 25.314048776 C 80.19342784 27.1197431 83.323354816 29.8758020525 85.35780928 33.582223354999996" />
<path class="stroke" d="M 54.469341310000004 43.686641642000005 C 53.88248027 46.727809625 52.12189782 52.049853758000005 49.18759061 55.09102109" />
<path class="stroke" d="M 53.49123913 50.529270092 L 81.0737194 50.529270092" />
<path class="stroke" d="M 41.362772835 67.25569172 L 91.8328407 67.25569172" />
<path class="stroke" d="M 66.79342918 39.505036235000006 L 66.79342918 91.20488803999999" />
</svg>
