<?xml version="1.0" standalone="no"?>
<!DOCTYPE svg PUBLIC "-//W3C//DTD SVG 1.1//EN" "http://www.w3.org/Graphics/SVG/1.1/DTD/svg11.dtd">
<svg xmlns="http://www.w3.org/2000/svg" version="1.1" width="100%" height="100%">
<style type="text/css"><![CDATA[
  .stroke { fill:none; stroke:black; stroke-width:2 }
]]></style>
<path class="stroke" d="M 54.10092 6.46688 L 54.10092 14.66882" />
<path class="stroke" d="M 18.7697 14.98422 L 93.8486 14.98422" />
<path class="stroke" d="M 18.7697 15.2997 L 18.7697 59.7792 C 19.0852 71.2408 14.6687 79.2323 6.46688 87.5394" />
<path class="stroke" d="M 5.83596 25.07884 C 8.78023 28.65404 10.4627 32.22924 11.8297 36.43534" />
<path class="stroke" d="M 6.15141 58.20189 C 8.14931 57.04519 10.4627 54.62679 12.1451 52.20829" />
<path class="stroke" d="M 54.01610314 23.150389042 C 53.24934819999999 27.09012947 51.971427399999996 28.32129786 50.43792079999999 31.522336780000003" />
<path class="stroke" d="M 34.0805198 31.522336780000003 L 34.0805198 59.3467514" />
<path class="stroke" d="M 34.0805198 31.522336780000003 L 83.6638944 31.522336780000003 L 83.6638944 59.5929865" />
<path class="stroke" d="M 34.0805198 45.55766322 L 83.4083127 45.55766322" />
<path class="stroke" d="M 34.5916873 59.3467514 L 83.4083127 59.3467514" />
<path class="stroke" d="M 58.87220628 31.7685703 C 58.87220628 68.9498729 52.73818479999999 68.70363463999999 34.0805198 73.13584273999999" />
<path class="stroke" d="M 26.157401819999997 79.0454567 L 94.1428548 79.0454567" />
<path class="stroke" d="M 63.472726079999994 60.08545196 L 63.472726079999994 91.35714060000001" />
</svg>
