<?xml version="1.0" standalone="no"?>
<!DOCTYPE svg PUBLIC "-//W3C//DTD SVG 1.1//EN" "http://www.w3.org/Graphics/SVG/1.1/DTD/svg11.dtd">
<svg xmlns="http://www.w3.org/2000/svg" version="1.1" width="100%" height="100%">
<style type="text/css"><![CDATA[
  .stroke { fill:none; stroke:black; stroke-width:2 }
]]></style>
<path class="stroke" d="M 54.10092 6.46688 L 54.10092 14.66882" />
<path class="stroke" d="M 18.7697 14.98422 L 93.8486 14.98422" />
<path class="stroke" d="M 18.7697 15.2997 L 18.7697 59.7792 C 19.0852 71.2408 14.6687 79.2323 6.46688 87.5394" />
<path class="stroke" d="M 5.83596 25.07884 C 8.78023 28.65404 10.4627 32.22924 11.8297 36.43534" />
<path class="stroke" d="M 6.15141 58.20189 C 8.14931 57.04519 10.4627 54.62679 12.1451 52.20829" />
<path class="stroke" d="M 38.157788 28.0552061 L 79.009488 28.0552061 L 79.009488 55.380188" />
<path class="stroke" d="M 38.3911988 41.9416204 L 78.5425628 41.9416204" />
<path class="stroke" d="M 38.391183999999996 55.380188 L 79.009488 55.380188" />
<path class="stroke" d="M 38.157788 28.0552061 L 38.157788 82.70503500000001 M 26.0189242 87.40854359999999 C 34.500486 83.82488676 43.215614 82.0330626 54.264998 81.8091286" />
<path class="stroke" d="M 86.01258159999999 58.515761 C 80.17657159999999 62.472591 75.50783759999999 65.757619 71.77283560000001 70.610398" />
<path class="stroke" d="M 59.8674344 55.604193 C 62.2796864 73.895355 70.99474040000001 82.77965599999999 88.5804704 86.960562" />
</svg>
