<?xml version="1.0" standalone="no"?>
<!DOCTYPE svg PUBLIC "-//W3C//DTD SVG 1.1//EN" "http://www.w3.org/Graphics/SVG/1.1/DTD/svg11.dtd">
<svg xmlns="http://www.w3.org/2000/svg" version="1.1" width="100%" height="100%">
<style type="text/css"><![CDATA[
  .stroke { fill:none; stroke:black; stroke-width:2 }
]]></style>
<path class="stroke" d="M 54.10092 6.46688 L 54.10092 14.66882" />
<path class="stroke" d="M 18.7697 14.98422 L 93.8486 14.98422" />
<path class="stroke" d="M 18.7697 15.2997 L 18.7697 59.7792 C 19.0852 71.2408 14.6687 79.2323 6.46688 87.5394" />
<path class="stroke" d="M 5.83596 25.07884 C 8.78023 28.65404 10.4627 32.22924 11.8297 36.43534" />
<path class="stroke" d="M 6.15141 58.20189 C 8.14931 57.04519 10.4627 54.62679 12.1451 52.20829" />
<path class="stroke" d="M 34.413938328 31.3936654201 L 34.413938328 55.3516893088" />
<path class="stroke" d="M 34.413938328 31.3936654201 L 80.81627399999999 31.3936654201 L 80.81627399999999 55.3516893088" />
<path class="stroke" d="M 34.683721379999994 42.72004387366 L 80.54649372 42.72004387366" />
<path class="stroke" d="M 34.413938328 54.30590336968 L 80.81627399999999 54.30590336968" />
<path class="stroke" d="M 57.75 21.3477728551 L 57.75 64.763771227" />
<path class="stroke" d="M 35.683335135 67.030000648 L 77.29307175 67.110197776 C 69.335641575 79.717327108 55.93366278 85.87653568 32.48019795 91.26584152000001" />
<path class="stroke" d="M 40.18750047 67.570000432 C 44.603223555 75.96612833200001 55.519353315000004 80.87838726400001 59.15806206 83.07322612000002 C 65.75322285 86.41774204000001 77.57902962 88.92612736000001 88.8103959 91.26584152000001" />
</svg>
