<?xml version="1.0" standalone="no"?>
<!DOCTYPE svg PUBLIC "-//W3C//DTD SVG 1.1//EN" "http://www.w3.org/Graphics/SVG/1.1/DTD/svg11.dtd">
<svg xmlns="http://www.w3.org/2000/svg" version="1.1" width="100%" height="100%">
<style type="text/css"><![CDATA[
  .stroke { fill:none; stroke:black; stroke-width:2 }
]]></style>
<path class="stroke" d="M 54.10092 6.46688 L 54.10092 14.66882" />
<path class="stroke" d="M 18.7697 14.98422 L 93.8486 14.98422" />
<path class="stroke" d="M 18.7697 15.2997 L 18.7697 59.7792 C 19.0852 71.2408 14.6687 79.2323 6.46688 87.5394" />
<path class="stroke" d="M 5.83596 25.07884 C 8.78023 28.65404 10.4627 32.22924 11.8297 36.43534" />
<path class="stroke" d="M 6.15141 58.20189 C 8.14931 57.04519 10.4627 54.62679 12.1451 52.20829" />
<path class="stroke" d="M 45.5874344 32.3986067724 C 44.65759036 34.2453498158 41.86806342 35.7843033862 38.3811516 37.4258524678" />
<path class="stroke" d="M 83.8231826 32.5197766788 C 81.49780956000001 34.5451522858 78.6890478 35.880160159599995 75.4481734 37.0244512698" />
<path class="stroke" d="M 59.066268 26.058320645800002 C 59.22189 29.259073477599998 59.144042 31.8459087776 59.066268 35.8438314618 C 59.295297999999995 44.650400256 41.104692 52.10322935999999 30.07591108 52.37703447" />
<path class="stroke" d="M 59.120792679999994 36.9387720056 C 61.555479999999996 43.470659002 77.93937600000001 50.651756906 85.1708003 51.995603229 C 86.89926639999999 52.37703447 88.1956206 52.472391872 90.1401408 52.56775254" />
<path class="stroke" d="M 45.5874344 65.0586067724 C 44.65759036 66.9053498158 41.86806342 68.4443033862 38.3811516 70.0858524678" />
<path class="stroke" d="M 83.8231826 65.1797766788 C 81.49780956000001 67.2051522858 78.6890478 68.54016015959999 75.4481734 69.68445126980001" />
<path class="stroke" d="M 59.066268 58.7183206458 C 59.22189 61.9190734776 59.144042 64.5059087776 59.066268 68.50383146179999 C 59.295297999999995 77.310400256 41.104692 84.76322935999998 30.07591108 85.03703447000001" />
<path class="stroke" d="M 59.120792679999994 69.59877200560001 C 61.555479999999996 76.13065900199999 77.93937600000001 83.311756906 85.1708003 84.655603229 C 86.89926639999999 85.03703447000001 88.1956206 85.132391872 90.1401408 85.22775254" />
</svg>
