<?xml version="1.0" standalone="no"?>
<!DOCTYPE svg PUBLIC "-//W3C//DTD SVG 1.1//EN" "http://www.w3.org/Graphics/SVG/1.1/DTD/svg11.dtd">
<svg xmlns="http://www.w3.org/2000/svg" version="1.1" width="100%" height="100%">
<style type="text/css"><![CDATA[
  .stroke { fill:none; stroke:black; stroke-width:2 }
]]></style>
<path class="stroke" d="M 8.029196 16.569342 L 31.970800000000004 16.569342" />
<path class="stroke" d="M 20.124584 16.569342 L 20.065753200000003 80.73972" />
<path class="stroke" d="M 9.8978088 51.313866 L 30.218975999999998 51.313866" />
<path class="stroke" d="M 4.4087584 87.81021 L 35.18904 74.821915" />
<path class="stroke" d="M 40.92335635 22.83394065 L 90.0766365 22.83394065" />
<path class="stroke" d="M 55.5364945 12.213501345 L 55.5364945 34.304012655" />
<path class="stroke" d="M 75.46349900000001 12.213501345 L 75.46349900000001 34.304012655" />
<path class="stroke" d="M 45.815465 41.34741399999999 L 45.815465 64.06745724999999" />
<path class="stroke" d="M 45.815465 41.34741399999999 L 85.59461999999999 41.34741399999999 L 85.59461999999999 64.06745724999999" />
<path class="stroke" d="M 38.023655 64.06745724999999 L 93.591505 64.06745724999999" />
<path class="stroke" d="M 65.5 29.413642224999997 L 65.5 64.06745724999999 C 65.636695 77.83714074999999 53.265505000000005 91.8363505 38.228704 93.442816" />
<path class="stroke" d="M 65.705075 64.06745724999999 C 65.56838 77.76068049999999 77.119335 93.06029649999999 92.97634500000001 93.21328975" />
</svg>
