<?xml version="1.0" standalone="no"?>
<!DOCTYPE svg PUBLIC "-//W3C//DTD SVG 1.1//EN" "http://www.w3.org/Graphics/SVG/1.1/DTD/svg11.dtd">
<svg xmlns="http://www.w3.org/2000/svg" version="1.1" width="100%" height="100%">
<style type="text/css"><![CDATA[
  .stroke { fill:none; stroke:black; stroke-width:2 }
]]></style>
<path class="stroke" d="M 8.029196 16.569342 L 31.970800000000004 16.569342" />
<path class="stroke" d="M 20.124584 16.569342 L 20.065753200000003 80.73972" />
<path class="stroke" d="M 9.8978088 51.313866 L 30.218975999999998 51.313866" />
<path class="stroke" d="M 4.4087584 87.81021 L 35.18904 74.821915" />
<path class="stroke" d="M 67.18981600000001 8.54138623 L 67.18981600000001 28.66197064" />
<path class="stroke" d="M 45.8905096 16.931750440000002 L 45.8905096 29.558027965 M 45.8905096 28.66197064 L 87.93430000000001 28.66197064" />
<path class="stroke" d="M 87.93430000000001 16.85029081 L 87.93430000000001 29.639487315999997" />
<path class="stroke" d="M 40.690852 39.8064601 L 93.30915999999999 39.8064601" />
<path class="stroke" d="M 66.43216 40.0118506 C 66.43216 45.6935182 64.5394 50.348493700000006 58.86118 52.9496944" />
<path class="stroke" d="M 45.61198 52.9496944 L 45.61198 92.5847227" />
<path class="stroke" d="M 45.61198 52.9496944 L 86.87386 52.9496944 L 86.87386 88.4774335 C 87.00004 91.35250989999999 85.8013 92.5846576 83.84541999999999 92.5846576 L 81.19564 92.5846576" />
<path class="stroke" d="M 58.861186000000004 53.360421367 L 58.861186000000004 89.50426882000001" />
<path class="stroke" d="M 72.48898 53.360421367 L 72.48898 89.50426882000001" />
</svg>
