<?xml version="1.0" standalone="no"?>
<!DOCTYPE svg PUBLIC "-//W3C//DTD SVG 1.1//EN" "http://www.w3.org/Graphics/SVG/1.1/DTD/svg11.dtd">
<svg xmlns="http://www.w3.org/2000/svg" version="1.1" width="100%" height="100%">
<style type="text/css"><![CDATA[
  .stroke { fill:none; stroke:black; stroke-width:2 }
]]></style>
<path class="stroke" d="M 9.4233568 16.569342 L 28.57664 16.569342" />
<path class="stroke" d="M 19.0996672 16.569342 L 19.05260256 80.73972" />
<path class="stroke" d="M 10.91824704 51.313866 L 27.1751808 51.313866" />
<path class="stroke" d="M 6.52700672 87.81021 L 31.151232 74.821915" />
<path class="stroke" d="M 33.91794699184 29.127600000000005 L 65.97205099744 29.127600000000005" />
<path class="stroke" d="M 49.945 9.325795521600002 L 49.945 51.90214233600001" />
<path class="stroke" d="M 40.921221062284 53.9827658175 L 40.921221062284 82.78696924500001" />
<path class="stroke" d="M 40.921221062284 53.9827658175 L 59.0519463216 53.9827658175 L 59.0519463216 82.510006503" />
<path class="stroke" d="M 40.921221062284 80.57126066880001 L 59.0519463216 80.57126066880001" />
<path class="stroke" d="M 73.577116623 9.854013 L 73.55607413999999 55.63759 C 70.8828521105 80.20134 70.8828521105 79.39597 67.895133877 89.865776" />
<path class="stroke" d="M 73.577116623 9.854013 L 89.53916104 9.854013 L 89.53916104 86.05839 C 89.53916104 88.39416 89.083099995 90.43795 87.942954802 90.43795 L 86.688796105 90.43795" />
<path class="stroke" d="M 73.577116623 31.862577 L 89.53916104 31.862577" />
<path class="stroke" d="M 73.577116623 55.110336 L 89.53916104 55.110336" />
</svg>
