<?xml version="1.0" standalone="no"?>
<!DOCTYPE svg PUBLIC "-//W3C//DTD SVG 1.1//EN" "http://www.w3.org/Graphics/SVG/1.1/DTD/svg11.dtd">
<svg xmlns="http://www.w3.org/2000/svg" version="1.1" width="100%" height="100%">
<style type="text/css"><![CDATA[
  .stroke { fill:none; stroke:black; stroke-width:2 }
]]></style>
<path class="stroke" d="M 10.6240867 16.569342 L 30.375910000000005 16.569342" />
<path class="stroke" d="M 20.6027818 16.569342 L 20.55424639 80.73972" />
<path class="stroke" d="M 12.16569226 51.313866 L 28.9306552 51.313866" />
<path class="stroke" d="M 7.63722568 87.81021 L 33.030958 74.821915" />
<path class="stroke" d="M 39.0694022 16.6340704 L 91.498433 16.6340704" />
<path class="stroke" d="M 65.94638 16.6340704 C 59.13248 28.10832 49.4795 35.69612 41.15144 40.23032" />
<path class="stroke" d="M 58.3754 26.90536 C 66.95582 36.158824 70.23656 76.22610399999999 64.8107 89.643552 C 62.854879999999994 93.90011200000001 58.62776 90.939 56.861239999999995 90.19874399999999" />
<path class="stroke" d="M 64.24292 40.507872000000006 C 57.30284 50.223864 50.173519999999996 55.498584 40.394324 61.605696" />
<path class="stroke" d="M 66.51422 56.608792 C 61.52996 66.32504800000001 49.73186 76.31859200000001 40.205048 82.14824" />
<path class="stroke" d="M 85.063082 28.570980000000002 C 81.214502 35.788652 76.60884200000001 41.895852 72.192422 46.615204" />
<path class="stroke" d="M 66.70344800000001 53.2775872 C 73.895888 64.56675784000001 80.899088 75.8560112 89.60568799999999 82.9811072" />
</svg>
