<?xml version="1.0" standalone="no"?>
<!DOCTYPE svg PUBLIC "-//W3C//DTD SVG 1.1//EN" "http://www.w3.org/Graphics/SVG/1.1/DTD/svg11.dtd">
<svg xmlns="http://www.w3.org/2000/svg" version="1.1" width="100%" height="100%">
<style type="text/css"><![CDATA[
  .stroke { fill:none; stroke:black; stroke-width:2 }
]]></style>
<path class="stroke" d="M 10.0255465 15.40948806 L 30.97445 15.40948806" />
<path class="stroke" d="M 20.609011 15.40948806 L 20.557534049999997 75.08793960000001" />
<path class="stroke" d="M 11.660582699999999 47.72189538 L 29.441603999999998 47.72189538" />
<path class="stroke" d="M 6.8576635999999995 81.66349530000001 L 33.790409999999994 69.58438095000001" />
<path class="stroke" d="M 48.050495639999994 9.21386169 C 50.7920797 11.56633632 52.057424659999995 13.91881194 54.16633695 18.3297015" />
<path class="stroke" d="M 78.62970289999998 9.21386169 C 76.9425725 13.33069353 75.4663334 16.27128756 72.93564276999999 18.03564279" />
<path class="stroke" d="M 41.72376232 21.858415920000002 L 87.48712756 21.858415920000002" />
<path class="stroke" d="M 64.05204893 22.15247364 L 64.05204893 47.14752636" />
<path class="stroke" d="M 44.67623768 34.79702886 L 83.9019854 34.79702886" />
<path class="stroke" d="M 36.24059349 47.14752636 L 92.33762604 47.14752636" />
<path class="stroke" d="M 55.22855375 49.14090324 C 52.142170969999995 66.05103186000001 45.387084709999996 82.18666764 38.10790982 88.8345513" />
<path class="stroke" d="M 56.9880595904 59.59801984 L 84.65697043200001 59.59801984" />
<path class="stroke" d="M 70.60331904 59.74059328 L 70.60331904 87.4" />
<path class="stroke" d="M 52.803979833599996 87.4 L 89.110990144 87.4" />
</svg>
