<?xml version="1.0" standalone="no"?>
<!DOCTYPE svg PUBLIC "-//W3C//DTD SVG 1.1//EN" "http://www.w3.org/Graphics/SVG/1.1/DTD/svg11.dtd">
<svg xmlns="http://www.w3.org/2000/svg" version="1.1" width="100%" height="100%">
<style type="text/css"><![CDATA[
  .stroke { fill:none; stroke:black; stroke-width:2 }
]]></style>
<path class="stroke" d="M 10.824816600000002 16.569342 L 31.175180000000005 16.569342" />
<path class="stroke" d="M 21.1058964 16.569342 L 21.055890220000002 80.73972" />
<path class="stroke" d="M 12.413137480000001 51.313866 L 29.6861296 51.313866" />
<path class="stroke" d="M 7.74744464 87.81021 L 33.910684 74.821915" />
<path class="stroke" d="M 65.5 7.392605754000003 L 65.5 17.85" />
<path class="stroke" d="M 38.725 17.85 L 92.275 17.85" />
<path class="stroke" d="M 65.0824517248 19.014065167200002 C 61.550772928 26.3982692985 53.12375584 34.66765086 43.1860427008 40.572546935999995 C 58.0190935264 39.63891156 70.9097221024 39.214533165 85.02296416 39.276612150000005" />
<path class="stroke" d="M 78.149663152 33.952224206400004 C 82.211091712 35.56486733999999 85.74277050879999 38.0262692985 88.038363904 41.336428047" />
<path class="stroke" d="M 47.6135377 47.775993 L 47.6135377 72.41324300000001 C 47.812302700000004 83.51730300000001 43.6387417 89.76354300000001 38.869087300000004 93.23348750000001" />
<path class="stroke" d="M 62.91646009 49.51103950000001 L 62.91646009 90.457434" />
<path class="stroke" d="M 78.6167386 47.776026 L 78.6167386 87.33444050000001 C 78.6167386 91.151446 80.00790459999999 93.23341600000002 81.3990706 93.23341600000002 L 89.3485366 93.23341600000002 C 91.1372326 93.34902600000001 92.3296336 90.68867600000002 92.3296336 87.3343316 L 92.3296336 82.12935600000002" />
</svg>
