<?xml version="1.0" standalone="no"?>
<!DOCTYPE svg PUBLIC "-//W3C//DTD SVG 1.1//EN" "http://www.w3.org/Graphics/SVG/1.1/DTD/svg11.dtd">
<svg xmlns="http://www.w3.org/2000/svg" version="1.1" width="100%" height="100%">
<style type="text/css"><![CDATA[
  .stroke { fill:none; stroke:black; stroke-width:2 }
]]></style>
<path class="stroke" d="M 7.4270063 16.569342 L 29.57299 16.569342" />
<path class="stroke" d="M 18.6152402 16.569342 L 18.56082171 80.73972" />
<path class="stroke" d="M 9.15547314 51.313866 L 27.9525528 51.313866" />
<path class="stroke" d="M 4.07810152 87.81021 L 32.549862 74.821915" />
<path class="stroke" d="M 61.623334400000005 8.003153999999999 L 44.005661599999996 14.400636" />
<path class="stroke" d="M 44.005661599999996 14.400636 L 44.005661599999996 48.520488 M 37.312934 51.637212000000005 L 61.131216800000004 42.451048" />
<path class="stroke" d="M 53.3558336 28.835992 C 58.2113648 34.085184 61.688947999999996 41.794964 63.9854864 50.981076" />
<path class="stroke" d="M 76.70248108000001 13.134306 L 93.19065616 11.91970768 C 92.82627448 23.30656888 92.09751736 29.98686016 91.09547319999999 38.64087592 C 90.54890224 42.7401446 89.546859952 48.9649632 87.63386752 48.9649632 L 86.631823984 48.9649632" />
<path class="stroke" d="M 82.350363736 12.830655640000002 L 81.4394164 22.091968480000002 C 79.981896856 33.934302880000004 77.34014543200001 41.525544200000006 75.06277288000001 47.9021872" />
<path class="stroke" d="M 44.86861278 60.73284586 L 44.86861278 91.6350334" />
<path class="stroke" d="M 44.86861278 60.61021804 L 90.30218615999999 60.61021804 L 90.30218615999999 91.6350334" />
<path class="stroke" d="M 67.58539830000001 60.73284586 L 67.58539830000001 89.427736" />
<path class="stroke" d="M 44.86861278 75.01071436000001 L 89.9605836 75.01071436000001" />
<path class="stroke" d="M 44.86861278 89.427736 L 90.30218615999999 89.427736" />
</svg>
