<?xml version="1.0" standalone="no"?>
<!DOCTYPE svg PUBLIC "-//W3C//DTD SVG 1.1//EN" "http://www.w3.org/Graphics/SVG/1.1/DTD/svg11.dtd">
<svg xmlns="http://www.w3.org/2000/svg" version="1.1" width="100%" height="100%">
<style type="text/css"><![CDATA[
  .stroke { fill:none; stroke:black; stroke-width:2 }
]]></style>
<path class="stroke" d="M 8.2299259 16.569342 L 32.770070000000004 16.569342" />
<path class="stroke" d="M 20.6276986 16.569342 L 20.56739703 80.73972" />
<path class="stroke" d="M 10.14525402 51.313866 L 30.974450399999995 51.313866" />
<path class="stroke" d="M 4.51897736 87.81021 L 36.068766 74.821915" />
<path class="stroke" d="M 86.24950396 8.963696279999999 C 75.01584156 12.997360058666667 57.80296953 14.879736368 47.65643632 14.879736368" />
<path class="stroke" d="M 48.74356368 21.871420190666665 C 51.46138635 25.63617280933333 53.094091 29.74934386666667 54.3603961 33.97241062133334" />
<path class="stroke" d="M 62.51386167 20.526864390666663 C 65.05049604 23.484884434666665 66.6811883 27.24963705333333 67.7683181 32.09003340666667" />
<path class="stroke" d="M 85.3435649 18.913398335999997 C 83.89406094 25.367260743999996 81.7197989 30.207657097333335 78.6396039 33.70349765066667" />
<path class="stroke" d="M 49.373823 41.2020207 L 86.512575 41.2020207" />
<path class="stroke" d="M 40.05602054 60.70371685799999 L 93.3272266 60.70371685799999" />
<path class="stroke" d="M 66.50003050000001 41.416234336 L 66.50003050000001 92.18064811999999" />
<path class="stroke" d="M 44.178209 71.8320502 L 44.178209 92.39481829999998 L 88.24448699999999 92.39481829999998" />
<path class="stroke" d="M 88.24448699999999 71.4036012 L 88.24448699999999 92.39481829999998" />
</svg>
