<?xml version="1.0" standalone="no"?>
<!DOCTYPE svg PUBLIC "-//W3C//DTD SVG 1.1//EN" "http://www.w3.org/Graphics/SVG/1.1/DTD/svg11.dtd">
<svg xmlns="http://www.w3.org/2000/svg" version="1.1" width="100%" height="100%">
<style type="text/css"><![CDATA[
  .stroke { fill:none; stroke:black; stroke-width:2 }
]]></style>
<path class="stroke" d="M 50.291888 7.1632427199999995 L 50.291888 14.01297264" />
<path class="stroke" d="M 11.762162239999999 14.29837732 L 88.237832 14.15567564" />
<path class="stroke" d="M 49.9999964 15.15459356 C 44.481749 20.2932792 36.428801 21.6324632 29.859458 24.715674319999998 C 36.166028 27.028082 44.919231800000006 29.52382008 51.751347800000005 32.9924316" />
<path class="stroke" d="M 71.3081066 23.00324184 C 63.4270235 25.99999824 57.8810768 28.4259444 51.1675655 32.5643226" />
<path class="stroke" d="M 9.854013 35.671532 L 9.854013 41.3941588" />
<path class="stroke" d="M 9.854013 35.4379548 L 90.14598 35.4379548 L 90.14598 41.5109468" />
<path class="stroke" d="M 48.475181479999996 37.09416024 C 44.212407799999994 41.92043745 34.040909 47.325262 22.04598408 51.1846712 C 39.94963339 50.574452 55.50875849 50.2970805 72.543591 50.337655" />
<path class="stroke" d="M 64.24744394999999 46.85766288 C 69.14963119999999 47.911677999999995 73.41240488 49.52043745 76.18321040000001 51.6839399" />
<path class="stroke" d="M 32.043793 60.4562039 C 31.167881 62.55839375 28.540146 66.2372261 24.160583 68.3394155" />
<path class="stroke" d="M 30.583939 65.1861314 L 71.75182 65.1861314" />
<path class="stroke" d="M 12.4817505 76.748174 L 87.81021 76.748174" />
<path class="stroke" d="M 50.437954 57.56569325 L 50.437954 93.302918" />
</svg>
