<?xml version="1.0" standalone="no"?>
<!DOCTYPE svg PUBLIC "-//W3C//DTD SVG 1.1//EN" "http://www.w3.org/Graphics/SVG/1.1/DTD/svg11.dtd">
<svg xmlns="http://www.w3.org/2000/svg" version="1.1" width="100%" height="100%">
<style type="text/css"><![CDATA[
  .stroke { fill:none; stroke:black; stroke-width:2 }
]]></style>
<path class="stroke" d="M 50.14598 7.105956208400001 L 50.14598 14.664378609200002" />
<path class="stroke" d="M 11.313868 14.825197337600002 L 88.10219 14.825197337600002" />
<path class="stroke" d="M 27.8248169 24.4042923296 L 27.8248169 35.1083059904" />
<path class="stroke" d="M 27.8248169 24.4042923296 L 72.37956 24.4042923296 L 72.37956 35.00538306176001" />
<path class="stroke" d="M 27.8248169 34.284920093696 L 72.37956 34.284920093696" />
<path class="stroke" d="M 8.80503 42.5254745 L 84.9056 42.5254745 L 50.3145 50.8037555" />
<path class="stroke" d="M 50.3145 50.8037555 L 50.3145 74.1103715 C 50.2096 75.4689035 48.5324 76.57265000000001 45.283 76.53016550000001 L 39.6226 76.53016550000001" />
<path class="stroke" d="M 18.613138 83.2153217 C 18.029196 87.26496019999999 15.69343 90.6751771 11.89781 92.5934273" />
<path class="stroke" d="M 35.255474 83.8547433 C 38.46715 86.62554225 40.218975 89.18321040000001 41.67883 92.8065654" />
<path class="stroke" d="M 59.197075 84.0678814 C 62.408752 86.62554225 63.868607 89.3963485 65.32846 93.0197035" />
<path class="stroke" d="M 81.386856 84.0678814 C 84.8905 86.62554225 86.9343 88.970065 88.68613 93.0197035" />
</svg>
