<?xml version="1.0" standalone="no"?>
<!DOCTYPE svg PUBLIC "-//W3C//DTD SVG 1.1//EN" "http://www.w3.org/Graphics/SVG/1.1/DTD/svg11.dtd">
<svg xmlns="http://www.w3.org/2000/svg" version="1.1" width="100%" height="100%">
<style type="text/css"><![CDATA[
  .stroke { fill:none; stroke:black; stroke-width:2 }
]]></style>
<path class="stroke" d="M 14.897667272727272 25.811516 C 14.32651 33.979057 13.184197272727273 36.806282 12.041884545454545 41.83246" />
<path class="stroke" d="M 34.92349090909091 23.267326 C 33.303329999999995 28.613861 31.143115454545452 33.069305 28.172818181818183 36.336636" />
<path class="stroke" d="M 22.232221818181817 9.306931 L 22.232221818181817 57.72277 C 22.232221818181817 74.653465 14.195545454545455 85.6467 8.730872727272727 90.39604" />
<path class="stroke" d="M 21.962197272727273 63.36634 C 26.552654545454544 68.71287 30.873087272727275 75.24753 32.76327636363636 82.9703" />
<path class="stroke" d="M 49.25126314 17.81750431 C 48.3075007912 27.325 46.705832302 35.91275338 38.1978642646 45.026830909" />
<path class="stroke" d="M 48.4723348498 26.185000626999997 L 84.15745440999999 26.185000626999997 L 75.76907486799999 42.567278572" />
<path class="stroke" d="M 48.51219999999999 43.73042239432 L 48.51219999999999 91.9416205864" />
<path class="stroke" d="M 63.45346829104 45.6361104376 L 63.45346829104 90.4531103488" />
<path class="stroke" d="M 63.45346829104 45.6361104376 L 88.67946531999999 45.6361104376 L 88.67946531999999 90.4531103488" />
<path class="stroke" d="M 63.600132168399995 66.82376366416 L 88.5328029496 66.82376366416" />
<path class="stroke" d="M 63.45346829104 88.49681426368 L 88.67946531999999 88.49681426368" />
</svg>
