<?xml version="1.0" standalone="no"?>
<!DOCTYPE svg PUBLIC "-//W3C//DTD SVG 1.1//EN" "http://www.w3.org/Graphics/SVG/1.1/DTD/svg11.dtd">
<svg xmlns="http://www.w3.org/2000/svg" version="1.1" width="100%" height="100%">
<style type="text/css"><![CDATA[
  .stroke { fill:none; stroke:black; stroke-width:2 }
]]></style>
<path class="stroke" d="M 16.014992318181818 25.811516 C 15.40099825 33.979057 14.17301206818182 36.806282 12.945025886363638 41.83246" />
<path class="stroke" d="M 37.54275272727273 23.267326 C 35.80107975 28.613861 33.478849113636365 33.069305 30.28577954545455 36.336636" />
<path class="stroke" d="M 23.899638454545457 9.306931 L 23.899638454545457 57.72277 C 23.899638454545457 74.653465 15.260211363636364 85.6467 9.385688181818182 90.39604" />
<path class="stroke" d="M 23.60936206818182 63.36634 C 28.544103636363637 68.71287 33.18856881818182 75.24753 35.220522090909085 82.9703" />
<path class="stroke" d="M 62.47153078 12.81605692 C 58.039414300000004 21.487591000000002 50.5240867 30.5445235 42.81605692 36.325546" />
<path class="stroke" d="M 60.15912178 17.82627664 L 77.3094904 17.82627664 C 70.37226340000001 33.62773462 55.5343051 51.9343018 40.696350100000004 61.9547386" />
<path class="stroke" d="M 52.83649636 27.26861284 C 60.400000000000006 41.25806524 75.96058042 54.4394143 92.3401456 61.9547386" />
<path class="stroke" d="M 53.850583621 58.98175125 L 53.850583621 86.3102175" />
<path class="stroke" d="M 53.850583621 58.98175125 L 76.9554004 58.98175125 L 76.9554004 86.04744450000001" />
<path class="stroke" d="M 53.850583621 84.2080272 L 76.9554004 84.2080272" />
</svg>
