<?xml version="1.0" standalone="no"?>
<!DOCTYPE svg PUBLIC "-//W3C//DTD SVG 1.1//EN" "http://www.w3.org/Graphics/SVG/1.1/DTD/svg11.dtd">
<svg xmlns="http://www.w3.org/2000/svg" version="1.1" width="100%" height="100%">
<style type="text/css"><![CDATA[
  .stroke { fill:none; stroke:black; stroke-width:2 }
]]></style>
<path class="stroke" d="M 34.65157206400001 6.4040691362999995 L 34.65157206400001 15.683309597" />
<path class="stroke" d="M 34.71756434112001 10.606623608500001 L 44.833992385920006 10.606623608500001" />
<path class="stroke" d="M 27.931083927680003 14.708989773529998 C 26.45340351424 21.517800494493997 22.929704785536 25.089635175566 18.155659714048 28.326611597755996" />
<path class="stroke" d="M 27.590081653760002 17.053005996259998 L 42.02588351424 17.053005996259998 C 40.66187052544 27.09879199252 29.863436375552002 39.935076605027994 14.972963259263999 45.18120831498" />
<path class="stroke" d="M 25.7713989664 24.419916364013996 C 29.32203925344 25.923929070839996 32.13679148665601 27.880131498025996 34.637480668416 31.45196770829" />
<path class="stroke" d="M 53.8537788276 10.4495009306 L 78.09956578 10.5646729172 C 74.58869028200002 21.7550313635 73.25636687920002 26.5840911122 61.132215328 35.487669893" />
<path class="stroke" d="M 56.47833360720001 11.225000620400001 C 59.0513535268 23.2827731879 65.4121281444 30.3373228208 67.5323856656 33.489355289 C 71.37535311600001 38.292451763 78.2661920112 41.894771792 84.810653384 45.254861294" />
<path class="stroke" d="M 24.158417 52.241585380000004 C 30.69307 55.003960660000004 33.366337 58.13465252 36.039604 62.001979399999996" />
<path class="stroke" d="M 77.0297 51.320793 C 74.653465 55.92475304 71.9802 59.4237621 66.039604 62.18613986" />
<path class="stroke" d="M 14.950495 68.6316828 L 85.04951 68.6316828" />
<path class="stroke" d="M 50.0 43.9544552 L 50.14598 94.0455448" />
<path class="stroke" d="M 41.980198 70.65742553999999 C 35.445545 81.1544552 25.643566 86.86336560000001 14.059406 91.28317200000001" />
<path class="stroke" d="M 57.128716 70.47326632 C 69.0099 76.18217920000001 77.32674 82.44356540000001 83.26733 91.09900719999999" />
</svg>
