<?xml version="1.0" standalone="no"?>
<!DOCTYPE svg PUBLIC "-//W3C//DTD SVG 1.1//EN" "http://www.w3.org/Graphics/SVG/1.1/DTD/svg11.dtd">
<svg xmlns="http://www.w3.org/2000/svg" version="1.1" width="100%" height="100%">
<style type="text/css"><![CDATA[
  .stroke { fill:none; stroke:black; stroke-width:2 }
]]></style>
<path class="stroke" d="M 14.897667272727272 25.811516 C 14.32651 33.979057 13.184197272727273 36.806282 12.041884545454545 41.83246" />
<path class="stroke" d="M 34.92349090909091 23.267326 C 33.303329999999995 28.613861 31.143115454545452 33.069305 28.172818181818183 36.336636" />
<path class="stroke" d="M 22.232221818181817 9.306931 L 22.232221818181817 57.72277 C 22.232221818181817 74.653465 14.195545454545455 85.6467 8.730872727272727 90.39604" />
<path class="stroke" d="M 21.962197272727273 63.36634 C 26.552654545454544 68.71287 30.873087272727275 75.24753 32.76327636363636 82.9703" />
<path class="stroke" d="M 52.94913188608 6.4040691362999995 L 52.94913188608 15.683309597" />
<path class="stroke" d="M 52.996646325606406 10.606623608500001 L 60.2804745178624 10.606623608500001" />
<path class="stroke" d="M 48.1103804279296 14.708989773529998 C 47.0464505302528 21.517800494493997 44.509387445585915 25.089635175566 41.07207499411456 28.326611597755996" />
<path class="stroke" d="M 47.8648587907072 17.053005996259998 L 58.258636130252796 17.053005996259998 C 57.2765467783168 27.09879199252 49.50167419039744 39.935076605027994 38.78053354667008 45.18120831498" />
<path class="stroke" d="M 46.555407255808 24.419916364013996 C 49.111868262476804 25.923929070839996 51.13848987039233 27.880131498025996 52.93898608125952 31.45196770829" />
<path class="stroke" d="M 66.77472075587201 10.4495009306 L 84.2316873616 10.5646729172 C 81.70385700304001 21.7550313635 80.74458415302401 26.5840911122 72.01519503616001 35.487669893" />
<path class="stroke" d="M 68.664400197184 11.225000620400001 C 70.516974539296 23.2827731879 75.096732263968 30.3373228208 76.623317679232 33.489355289 C 79.39025424352 38.292451763 84.351658248064 41.894771792 89.06367043648001 45.254861294" />
<path class="stroke" d="M 45.39406024 52.241585380000004 C 50.0990104 55.003960660000004 52.02376264 58.13465252 53.94851488 62.001979399999996" />
<path class="stroke" d="M 83.46138400000001 51.320793 C 81.7504948 55.92475304 79.82574399999999 59.4237621 75.54851488 62.18613986" />
<path class="stroke" d="M 38.7643564 68.6316828 L 89.23564719999999 68.6316828" />
<path class="stroke" d="M 64.0 43.9544552 L 64.1051056 94.0455448" />
<path class="stroke" d="M 58.22574256 70.65742553999999 C 53.520792400000005 81.1544552 46.46336752 86.86336560000001 38.122772319999996 91.28317200000001" />
<path class="stroke" d="M 69.13267551999999 70.47326632 C 77.687128 76.18217920000001 83.6752528 82.44356540000001 87.95247760000001 91.09900719999999" />
</svg>
