<?xml version="1.0" standalone="no"?>
<!DOCTYPE svg PUBLIC "-//W3C//DTD SVG 1.1//EN" "http://www.w3.org/Graphics/SVG/1.1/DTD/svg11.dtd">
<svg xmlns="http://www.w3.org/2000/svg" version="1.1" width="100%" height="100%">
<style type="text/css"><![CDATA[
  .stroke { fill:none; stroke:black; stroke-width:2 }
]]></style>
<path class="stroke" d="M 14.897667272727272 25.811516 C 14.32651 33.979057 13.184197272727273 36.806282 12.041884545454545 41.83246" />
<path class="stroke" d="M 34.92349090909091 23.267326 C 33.303329999999995 28.613861 31.143115454545452 33.069305 28.172818181818183 36.336636" />
<path class="stroke" d="M 22.232221818181817 9.306931 L 22.232221818181817 57.72277 C 22.232221818181817 74.653465 14.195545454545455 85.6467 8.730872727272727 90.39604" />
<path class="stroke" d="M 21.962197272727273 63.36634 C 26.552654545454544 68.71287 30.873087272727275 75.24753 32.76327636363636 82.9703" />
<path class="stroke" d="M 43.57068076 17.958115 L 88.42931720000001 17.958115" />
<path class="stroke" d="M 48.83168368 29.20792 L 48.83168368 57.8534" />
<path class="stroke" d="M 48.83168368 29.20792 L 84.79790232 29.20792 L 84.79790232 58.167534" />
<path class="stroke" d="M 49.03366204 43.465347 L 84.370676 43.465347" />
<path class="stroke" d="M 49.03366204 57.72277 L 83.72984128 57.72277" />
<path class="stroke" d="M 66.4272236 9.790575 L 66.4272236 90.20942" />
<path class="stroke" d="M 66.21454 57.2556 C 59.74598356 72.33576 52.10790736 85.7412 43.57068076 88.95288" />
<path class="stroke" d="M 66.21454 57.2556 C 71.85693248 72.9197 80.731469 86.39163 89.070156 89.89529" />
</svg>
