<?xml version="1.0" standalone="no"?>
<!DOCTYPE svg PUBLIC "-//W3C//DTD SVG 1.1//EN" "http://www.w3.org/Graphics/SVG/1.1/DTD/svg11.dtd">
<svg xmlns="http://www.w3.org/2000/svg" version="1.1" width="100%" height="100%">
<style type="text/css"><![CDATA[
  .stroke { fill:none; stroke:black; stroke-width:2 }
]]></style>
<path class="stroke" d="M 25.912407 10.729925 C 21.824816 18.029196 16.27737 23.86861 11.021896 28.540146 C 15.109488 31.45985 20.07299 36.131386 24.744522 40.218975" />
<path class="stroke" d="M 37.007298 25.912407 C 30.0 34.67153 20.656933 45.18248 8.978102 56.277367 C 19.48905 54.525543 31.167881 52.48175 41.67883 50.437954" />
<path class="stroke" d="M 38.17518 43.430653 C 41.094887 46.642334 41.970802 49.85401 43.722626 55.40146" />
<path class="stroke" d="M 26.49635 54.233574 L 26.49635 89.56204" />
<path class="stroke" d="M 17.445253 65.03649 C 15.69343 70.87591 13.649633 74.67153 9.562042 78.75912" />
<path class="stroke" d="M 34.08759 65.32846 C 37.299267 68.540146 37.35135 68.81081 38.97297 71.72973" />
<path class="stroke" d="M 74.999979 6.6246024 L 74.999979 17.9811264" />
<path class="stroke" d="M 55.5993785 17.9811264 L 94.87383 17.9811264" />
<path class="stroke" d="M 65.5362785 17.9811264 L 70.583578 36.9086064" />
<path class="stroke" d="M 83.99053 17.9811264 L 78.943228 37.2870876" />
<path class="stroke" d="M 53.8643535 37.2870876 L 53.8643535 49.400603999999994" />
<path class="stroke" d="M 54.0220835 37.2870876 L 96.45113 37.2870876 L 96.45113 50.1576876" />
<path class="stroke" d="M 58.8686125 56.36204188 L 58.8686125 79.5386842" />
<path class="stroke" d="M 58.8686125 56.36204188 L 91.423355 56.36204188 L 91.423355 78.2773684 C 91.423355 80.6423308 90.109485 82.0613104 88.64963 82.2189742 L 87.33576500000001 82.2189742" />
<path class="stroke" d="M 75.07299 48.321167020000004 L 75.07299 91.6788292" />
</svg>
