<?xml version="1.0" standalone="no"?>
<!DOCTYPE svg PUBLIC "-//W3C//DTD SVG 1.1//EN" "http://www.w3.org/Graphics/SVG/1.1/DTD/svg11.dtd">
<svg xmlns="http://www.w3.org/2000/svg" version="1.1" width="100%" height="100%">
<style type="text/css"><![CDATA[
  .stroke { fill:none; stroke:black; stroke-width:2 }
]]></style>
<path class="stroke" d="M 16.75987568181818 25.811516 C 16.11732375 33.979057 14.832221931818182 36.806282 13.547120113636364 41.83246" />
<path class="stroke" d="M 39.28892727272728 23.267326 C 37.46624625 28.613861 35.036004886363635 33.069305 31.694420454545455 36.336636" />
<path class="stroke" d="M 25.011249545454543 9.306931 L 25.011249545454543 57.72277 C 25.011249545454543 74.653465 15.969988636363636 85.6467 9.82223181818182 90.39604" />
<path class="stroke" d="M 24.70747193181818 63.36634 C 29.871736363636366 68.71287 34.732223181818185 75.24753 36.85868590909091 82.9703" />
<path class="stroke" d="M 42.1876961 15.798170299999999 L 92.626212 15.798170299999999" />
<path class="stroke" d="M 53.9132381 8.319696116 L 53.9132381 47.72557674" />
<path class="stroke" d="M 79.97005709999999 8.319696116 L 79.97005709999999 47.72557674" />
<path class="stroke" d="M 53.9132381 30.898991589999998 L 79.97005709999999 30.898991589999998" />
<path class="stroke" d="M 53.9132381 47.72557674 L 79.97005709999999 47.72557674" />
<path class="stroke" d="M 44.50291864 60.70437268 L 90.3248167 60.70437268" />
<path class="stroke" d="M 67.5861282 53.340873759999994 L 67.5861282 89.9279468" />
<path class="stroke" d="M 65.86350284 62.97006958 C 58.97299137 73.1656872 51.910218189999995 80.8124009 45.70875887 85.0605741" />
<path class="stroke" d="M 69.3087571 62.97006958 C 75.8547422 73.73210900000001 82.5729896 80.52919 89.11897705999999 85.0605741" />
</svg>
