<?xml version="1.0" standalone="no"?>
<!DOCTYPE svg PUBLIC "-//W3C//DTD SVG 1.1//EN" "http://www.w3.org/Graphics/SVG/1.1/DTD/svg11.dtd">
<svg xmlns="http://www.w3.org/2000/svg" version="1.1" width="100%" height="100%">
<style type="text/css"><![CDATA[
  .stroke { fill:none; stroke:black; stroke-width:2 }
]]></style>
<path class="stroke" d="M 15.270108954545453 25.811516 C 14.684672749999999 33.979057 13.513802204545454 36.806282 12.34293165909091 41.83246" />
<path class="stroke" d="M 35.796578181818184 23.267326 C 34.135913249999994 28.613861 31.92169334090909 33.069305 28.877138636363636 36.336636" />
<path class="stroke" d="M 22.788027363636363 9.306931 L 22.788027363636363 57.72277 C 22.788027363636363 74.653465 14.55043409090909 85.6467 8.949144545454546 90.39604" />
<path class="stroke" d="M 22.511252204545453 63.36634 C 27.21647090909091 68.71287 31.644914454545457 75.24753 33.58235827272727 82.9703" />
<path class="stroke" d="M 44.599268789999996 9.2116775 L 44.599268789999996 24.783455" />
<path class="stroke" d="M 44.599268789999996 9.2116775 L 90.58467042000001 9.2116775 L 90.58467042000001 24.783455" />
<path class="stroke" d="M 59.153022899999996 9.2116775 L 59.153022899999996 24.783455" />
<path class="stroke" d="M 75.84703128000001 9.2116775 L 75.84703128000001 24.783455" />
<path class="stroke" d="M 44.599268789999996 24.790775 L 90.7039584 24.790775" />
<path class="stroke" d="M 55.376973 31.4621403 C 53.522127 42.4905 48.686121 53.301213 40.2728679 60.193968" />
<path class="stroke" d="M 53.588277000000005 42.563088 L 92.73975300000001 42.780713999999996 L 92.540988 67.159311 C 92.14352099999999 78.187719 87.970086 90.95741100000001 80.81549100000001 91.10251799999999 L 77.834394 91.10251799999999" />
<path class="stroke" d="M 55.9668609 53.879781036 L 55.9668609 69.533208252" />
<path class="stroke" d="M 55.9668609 54.020802063 L 79.25386842 54.020802063 L 79.25386842 69.67423266" />
<path class="stroke" d="M 55.9668609 67.738826544 L 79.25386842 67.738826544" />
<path class="stroke" d="M 67.49621622000001 44.854378796999995 L 67.49621622000001 82.648247322" />
<path class="stroke" d="M 55.194305634 84.76357769999998 L 79.364231568 80.67393941999998" />
<path class="stroke" d="M 77.15693232 76.16124144 C 79.0331391 78.69963345 80.02642104 81.520070412 80.68860900000001 84.76357769999998" />
</svg>
