<?xml version="1.0" standalone="no"?>
<!DOCTYPE svg PUBLIC "-//W3C//DTD SVG 1.1//EN" "http://www.w3.org/Graphics/SVG/1.1/DTD/svg11.dtd">
<svg xmlns="http://www.w3.org/2000/svg" version="1.1" width="100%" height="100%">
<style type="text/css"><![CDATA[
  .stroke { fill:none; stroke:black; stroke-width:2 }
]]></style>
<path class="stroke" d="M 14.525547 25.204379 L 42.146595 25.204379" />
<path class="stroke" d="M 30.0 9.875911299999999 L 29.584415 48.92727119999999" />
<path class="stroke" d="M 30.0 27.043792800000002 C 25.620438 34.1970781 19.197079 41.7591235 10.145985 47.0729915" />
<path class="stroke" d="M 30.0 28.678831799999998 C 35.547443 31.335765799999997 38.46715 33.788318000000004 41.38686 37.26277219999999" />
<path class="stroke" d="M 49.685863 25.204379 L 81.386856 25.204379" />
<path class="stroke" d="M 64.74452 9.875911299999999 L 64.80519 48.272724999999994" />
<path class="stroke" d="M 64.16058 27.861313 C 60.65693 35.832114999999995 51.605835 43.598540799999995 42.846714 48.7080249" />
<path class="stroke" d="M 64.16058 27.656934 C 69.41605 36.445251999999996 75.682434 39.235963 84.44156 44.345452" />
<path class="stroke" d="M 32.471204 64.46282644 C 31.3403126 67.06387298 27.9476447 69.23141322000001 23.706806 71.54345418" />
<path class="stroke" d="M 78.974141 64.63348828 C 76.1459846 67.48612998 72.729923 69.36642276 68.788319 70.97810038" />
<path class="stroke" d="M 48.86438 55.53284598 C 49.053650000000005 60.040948560000004 48.95897 63.68437856 48.86438 69.31525558 C 49.14293 81.7188736 27.01922 92.21581599999999 13.6058378 92.60145700000001" />
<path class="stroke" d="M 48.9306938 70.85742536000001 C 51.891799999999996 80.0572662 71.81816 90.1714886 80.6131355 92.0642299 C 82.715324 92.60145700000001 84.29197099999999 92.73576320000001 86.65692800000001 92.870074" />
</svg>
