<?xml version="1.0" standalone="no"?>
<!DOCTYPE svg PUBLIC "-//W3C//DTD SVG 1.1//EN" "http://www.w3.org/Graphics/SVG/1.1/DTD/svg11.dtd">
<svg xmlns="http://www.w3.org/2000/svg" version="1.1" width="100%" height="100%">
<style type="text/css"><![CDATA[
  .stroke { fill:none; stroke:black; stroke-width:2 }
]]></style>
<path class="stroke" d="M 13.780342227272726 25.811516 C 13.25202175 33.979057 12.195382477272728 36.806282 11.138743204545456 41.83246" />
<path class="stroke" d="M 32.3042290909091 23.267326 C 30.80558025 28.613861 28.807381795454546 33.069305 26.05985681818182 36.336636" />
<path class="stroke" d="M 20.564805181818183 9.306931 L 20.564805181818183 57.72277 C 20.564805181818183 74.653465 13.130879545454546 85.6467 8.076057272727274 90.39604" />
<path class="stroke" d="M 20.315032477272727 63.36634 C 24.56120545454546 68.71287 28.55760572727273 75.24753 30.306030636363634 82.9703" />
<path class="stroke" d="M 41.3037074512 26.513634195199998 L 88.3338904 26.513634195199998" />
<path class="stroke" d="M 64.34048440000001 8.9954388128 L 64.0874776096 9.243065792 C 61.4218886272 29.471105791999996 53.461084801599995 36.729572383999994 34.9914016288 49.358506592" />
<path class="stroke" d="M 70.1597014912 26.576896044799998 C 75.72590502399999 34.9961868416 80.2800746272 42.4249723712 91.665499312 49.853756575999995" />
<path class="stroke" d="M 42.0454816048 31.445845892141172 C 44.7251974336 33.75999344 46.3742544736 34.685651851294104 48.6417063808 37.77118157741176" />
<path class="stroke" d="M 86.776126912 32.21722857694117 C 85.127063104 34.068546919152936 85.3332001408 35.45703504263529 79.35537361600001 38.54256426221176" />
<path class="stroke" d="M 45.816055840000004 45.60547009952 L 45.816055840000004 68.87216792576" />
<path class="stroke" d="M 45.816055840000004 45.60547009952 L 81.97371999999999 45.60547009952 L 81.97371999999999 68.87216792576" />
<path class="stroke" d="M 46.0262764 56.605017732031996 L 81.7635016 56.605017732031996" />
<path class="stroke" d="M 45.816055840000004 67.856558894336 L 81.97371999999999 67.856558894336" />
<path class="stroke" d="M 64.00380664 69.18377795408 L 64.00380664 92.1290370416 C 64.00380664 92.7873025352 62.84379304 93.163454936 62.00291872 93.163454936 L 60.5313856 93.163454936" />
<path class="stroke" d="M 47.287589679999996 77.7412306592 C 46.2364948 81.0325597376 43.083210879999996 83.8536987176 38.66861152 86.11061022368" />
<path class="stroke" d="M 78.8204368 77.7412306592 C 83.0248156 79.7160287504 86.59853632 82.34909169104 88.70072608 86.29868497471999" />
</svg>
