<?xml version="1.0" standalone="no"?>
<!DOCTYPE svg PUBLIC "-//W3C//DTD SVG 1.1//EN" "http://www.w3.org/Graphics/SVG/1.1/DTD/svg11.dtd">
<svg xmlns="http://www.w3.org/2000/svg" version="1.1" width="100%" height="100%">
<style type="text/css"><![CDATA[
  .stroke { fill:none; stroke:black; stroke-width:2 }
]]></style>
<path class="stroke" d="M 38.0 8.077921 C 31.454544 10.571428 14.311687 14.0 8.077921 14.311687" />
<path class="stroke" d="M 7.454544 41.740257 L 38.0 33.636364" />
<path class="stroke" d="M 7.454544 66.67532 L 37.37662 59.1948" />
<path class="stroke" d="M 23.662338 12.129869 L 23.662338 84.44156 C 23.662338 89.11309 24.834011 92.233765 28.337662 92.233765 L 87.55844 92.233765 C 92.22997 92.233765 92.612144 89.09315 92.85714 86.0 L 92.85714 81.63636" />
<path class="stroke" d="M 47.59207894 21.197201200000002 L 86.4079204 21.197201200000002" />
<path class="stroke" d="M 67.0 8.8118811 L 67.0 73.843567 C 67.0 77.28019520000001 65.6277214 80.1881189 63.86336584 80.1881189 L 62.491088559999994 80.1881189" />
<path class="stroke" d="M 49.356435160000004 32.86831855 C 53.2772272 34.9831677 56.609901820000005 37.89108873 59.942573800000005 43.178216500000005" />
<path class="stroke" d="M 47.98415788 70.6712866 C 53.2772272 67.7633629 58.17821758 61.9475244 60.922772800000004 54.28118633" />
<path class="stroke" d="M 86.4079204 30.48911003 C 84.0554428 38.1554481 81.31089220000001 43.178216500000005 76.6059436 47.143567000000004" />
<path class="stroke" d="M 72.8811874 47.67227862 C 77.9782222 53.7524756 84.44752636000001 65.912866 87.78019636 75.4296983" />
<path class="stroke" d="M 82.09504744 8.28316859 C 84.64356219999999 9.6049512 86.80000000000001 11.719803019999999 88.9564378 15.156435670000002" />
</svg>
