<?xml version="1.0" standalone="no"?>
<!DOCTYPE svg PUBLIC "-//W3C//DTD SVG 1.1//EN" "http://www.w3.org/Graphics/SVG/1.1/DTD/svg11.dtd">
<svg xmlns="http://www.w3.org/2000/svg" version="1.1" width="100%" height="100%">
<style type="text/css"><![CDATA[
  .stroke { fill:none; stroke:black; stroke-width:2 }
]]></style>
<path class="stroke" d="M 11.929092571428571 27.956203 L 37.95620342857143 27.956203" />
<path class="stroke" d="M 27.278411428571427 9.270073 L 27.278411428571427 90.14598" />
<path class="stroke" d="M 27.278411428571427 36.131386 C 22.940559999999998 44.598537 17.601667428571428 52.48175 9.927006857142857 56.861313" />
<path class="stroke" d="M 27.278411428571427 36.131386 C 32.283626285714284 37.299267 35.620435428571426 42.26277 37.28884 46.934303" />
<path class="stroke" d="M 70.5861282 5.330291975 L 70.5861282 12.717152524999998" />
<path class="stroke" d="M 48.364232795 12.885034699999999 L 48.364232795 20.943429124999998" />
<path class="stroke" d="M 48.364232795 12.885034699999999 L 92.8080239 12.885034699999999 L 92.8080239 20.943429124999998" />
<path class="stroke" d="M 71.0571842 26.210624000000003 C 73.6048632 28.295552 75.2185722 30.787456 76.6454282 33.887552" />
<path class="stroke" d="M 87.809125 23.012672000000002 C 81.232867 40.644608 66.839581 57.468992 51.329602 64.40064000000001" />
<path class="stroke" d="M 56.5562232 36.706368 L 59.7103632 48.098624 C 62.8637952 57.569344 68.4381152 61.801984000000004 79.7639322 62.002688 L 89.6446622 61.801408 C 90.76607519999999 61.801408 92.0683822 60.790656 91.88223719999999 59.172352000000004 L 91.88223719999999 58.153408" />
<path class="stroke" d="M 50.037324999999996 42.584192 C 49.601905 48.441664 48.234698 52.077568 45.747258 55.712256" />
<path class="stroke" d="M 85.92082174 36.37205568 C 90.9641087 38.686574719999996 92.7098656 41.00109632 94.649585 44.7884928" />
<path class="stroke" d="M 70.66798716 69.2087584 L 70.66798716 92.2861312" />
<path class="stroke" d="M 51.818100996 78.8321152 L 51.818100996 93.3138672 M 51.818100996 92.2861312 L 89.02685550000001 92.2861312" />
<path class="stroke" d="M 89.02685550000001 78.7386848 L 89.02685550000001 93.40729728" />
</svg>
