<?xml version="1.0" standalone="no"?>
<!DOCTYPE svg PUBLIC "-//W3C//DTD SVG 1.1//EN" "http://www.w3.org/Graphics/SVG/1.1/DTD/svg11.dtd">
<svg xmlns="http://www.w3.org/2000/svg" version="1.1" width="100%" height="100%">
<style type="text/css"><![CDATA[
  .stroke { fill:none; stroke:black; stroke-width:2 }
]]></style>
<path class="stroke" d="M 12.227319885714286 27.956203 L 38.905108514285715 27.956203" />
<path class="stroke" d="M 27.960371714285717 9.270073 L 27.960371714285717 90.14598" />
<path class="stroke" d="M 27.960371714285717 36.131386 C 23.514074 44.598537 18.041709114285712 52.48175 10.17518202857143 56.861313" />
<path class="stroke" d="M 27.960371714285717 36.131386 C 33.09071694285715 37.299267 36.51094631428572 42.26277 38.221061000000006 46.934303" />
<path class="stroke" d="M 50.154743679999996 13.8320573712 L 86.03211519999999 13.8320573712" />
<path class="stroke" d="M 69.21459712000001 7.0349776128 C 66.97226048 19.269722015999996 59.3109472 33.13576492799999 44.54890368 39.389075567999996" />
<path class="stroke" d="M 62.6744512 27.0183945888 L 86.59270016 27.0183945888" />
<path class="stroke" d="M 72.57810047999999 27.1543353552 L 72.57810047999999 41.836027056" />
<path class="stroke" d="M 55.01313728 42.10790952 L 90.703648 42.10790952" />
<path class="stroke" d="M 56.69489024 53.279196305 L 56.660403200000005 75.48423115 C 52.279194239999995 87.3976499 52.279194239999995 87.00704545 47.38254976 92.08490135999999" />
<path class="stroke" d="M 56.69489024 53.279196305 L 82.8554752 53.279196305 L 82.8554752 90.23831915 C 82.8554752 91.37116759999999 82.1080256 92.36240575 80.23941375999999 92.36240575 L 78.1839424 92.36240575" />
<path class="stroke" d="M 56.69489024 63.95334984499999 L 82.8554752 63.95334984499999" />
<path class="stroke" d="M 56.69489024 75.22851295999999 L 82.8554752 75.22851295999999" />
</svg>
