<?xml version="1.0" standalone="no"?>
<!DOCTYPE svg PUBLIC "-//W3C//DTD SVG 1.1//EN" "http://www.w3.org/Graphics/SVG/1.1/DTD/svg11.dtd">
<svg xmlns="http://www.w3.org/2000/svg" version="1.1" width="100%" height="100%">
<style type="text/css"><![CDATA[
  .stroke { fill:none; stroke:black; stroke-width:2 }
]]></style>
<path class="stroke" d="M 11.929092571428571 27.956203 L 37.95620342857143 27.956203" />
<path class="stroke" d="M 27.278411428571427 9.270073 L 27.278411428571427 90.14598" />
<path class="stroke" d="M 27.278411428571427 36.131386 C 22.940559999999998 44.598537 17.601667428571428 52.48175 9.927006857142857 56.861313" />
<path class="stroke" d="M 27.278411428571427 36.131386 C 32.283626285714284 37.299267 35.620435428571426 42.26277 37.28884 46.934303" />
<path class="stroke" d="M 51.535034100000004 10.13914234375 L 82.44306272 10.13914234375 C 77.16131469999999 18.761404374999998 73.4445232 20.996805156249998 66.98904841000001 23.870892499999997" />
<path class="stroke" d="M 63.859121300000005 19.719433125 C 66.20656814 22.91286375 67.77153136 25.786951093749998 68.74963353999999 29.938410468750003" />
<path class="stroke" d="M 49.77445165 31.88467024 L 49.77445165 70.56496096000001 C 49.77445165 77.2919656 48.600730240000004 82.54744 45.47080246 87.38248048" />
<path class="stroke" d="M 49.77445165 31.88467024 L 88.1160559 31.88467024 L 88.1160559 87.17225919999998 C 88.1160559 88.4335768 87.3335763 89.9051056 85.7686104 89.9051056 L 84.39926708 89.9051056" />
<path class="stroke" d="M 49.77445165 48.280760799999996 L 88.1160559 48.280760799999996" />
<path class="stroke" d="M 49.77445165 65.31545679999999 L 88.1160559 65.31545679999999" />
<path class="stroke" d="M 68.61357329 32.3051092 L 68.61357329 86.7518224" />
</svg>
