<?xml version="1.0" standalone="no"?>
<!DOCTYPE svg PUBLIC "-//W3C//DTD SVG 1.1//EN" "http://www.w3.org/Graphics/SVG/1.1/DTD/svg11.dtd">
<svg xmlns="http://www.w3.org/2000/svg" version="1.1" width="100%" height="100%">
<style type="text/css"><![CDATA[
  .stroke { fill:none; stroke:black; stroke-width:2 }
]]></style>
<path class="stroke" d="M 10.60364931 30.29197 L 30.767014349999997 30.29197" />
<path class="stroke" d="M 21.9 8.394159 L 21.9 91.0219" />
<path class="stroke" d="M 21.9 32.919704 C 18.70291974 43.138683 14.013867669999998 53.941605 7.40656905 61.532845" />
<path class="stroke" d="M 21.9 35.255474 C 25.94963339 39.051094 28.081019499999996 42.55474 30.212407799999998 47.518246" />
<path class="stroke" d="M 36.27067999 30.29197 L 59.41240488 30.29197" />
<path class="stroke" d="M 47.263499599999996 8.394159 L 47.263499599999996 91.605835" />
<path class="stroke" d="M 46.8372234 34.08759 C 44.2795589 45.47445 37.67225955 56.569344 31.27810122 63.868607" />
<path class="stroke" d="M 47.9903898 37.37662 C 51.85843788 40.181816 56.181559199999995 44.85714 59.13947905 49.532467" />
<path class="stroke" d="M 88.4284637 9.562042 C 83.58174509999999 19.781021 73.16131089999999 26.788319 66.37590652 29.416058" />
<path class="stroke" d="M 88.67079879999999 40.218975 C 81.8853994 49.562042 72.9189758 55.693428 62.9832118 58.905106" />
<path class="stroke" d="M 89.64013920000001 69.41605 C 81.1583858 79.927 70.9802867 86.35036 60.5598525 89.85401" />
</svg>
