<?xml version="1.0" standalone="no"?>
<!DOCTYPE svg PUBLIC "-//W3C//DTD SVG 1.1//EN" "http://www.w3.org/Graphics/SVG/1.1/DTD/svg11.dtd">
<svg xmlns="http://www.w3.org/2000/svg" version="1.1" width="100%" height="100%">
<style type="text/css"><![CDATA[
  .stroke { fill:none; stroke:black; stroke-width:2 }
]]></style>
<path class="stroke" d="M 9.245046742857141 27.956203 L 29.416057657142854 27.956203" />
<path class="stroke" d="M 21.140768857142856 9.270073 L 21.140768857142856 90.14598" />
<path class="stroke" d="M 21.140768857142856 36.131386 C 17.778934 44.598537 13.641292257142856 52.48175 7.693430314285713 56.861313" />
<path class="stroke" d="M 21.140768857142856 36.131386 C 25.019810371428573 37.299267 27.605837457142858 42.26277 28.898851 46.934303" />
<path class="stroke" d="M 38.28306528 23.277558399999997 L 57.89694008 23.277558399999997" />
<path class="stroke" d="M 36.507665244 45.8138516 L 57.98859876 45.681556" />
<path class="stroke" d="M 48.09 6.0788671999999995 L 48.09 45.814002 C 48.13176512 67.65557879999999 43.1301776 83.57211 36.676750999999996 87.62463799999999" />
<path class="stroke" d="M 48.09 45.813908 C 52.726051600000005 56.22908544 54.563766728 62.67480079999999 57.32033808 75.85921636" />
<path class="stroke" d="M 65.644 10.714287 L 65.644 59.285713" />
<path class="stroke" d="M 65.5100006968 10.0 L 88.02200107200001 10.0 L 88.02200107200001 59.285713" />
<path class="stroke" d="M 65.77800005360001 26.785717 L 87.88799839200001 26.785717" />
<path class="stroke" d="M 65.77800005360001 41.785717 L 88.02200107200001 41.785717" />
<path class="stroke" d="M 65.5100006968 56.071426 L 87.88799839200001 56.428574" />
<path class="stroke" d="M 72.61200053600001 57.14286 C 71.7356211328 74.6611 67.095502472 87.51824 61.727678158399996 90.14598" />
<path class="stroke" d="M 78.642001072 57.5 L 78.5979837336 82.55474 C 78.5979837336 87.81021 79.9125550896 90.43795 81.665313896 90.43795 L 90.75774936 90.43795 C 91.85322455200001 90.43795 92.51050929200001 89.270065 92.51050929200001 86.9343 L 92.51050929200001 83.43065" />
</svg>
