<?xml version="1.0" standalone="no"?>
<!DOCTYPE svg PUBLIC "-//W3C//DTD SVG 1.1//EN" "http://www.w3.org/Graphics/SVG/1.1/DTD/svg11.dtd">
<svg xmlns="http://www.w3.org/2000/svg" version="1.1" width="100%" height="100%">
<style type="text/css"><![CDATA[
  .stroke { fill:none; stroke:black; stroke-width:2 }
]]></style>
<path class="stroke" d="M 11.034410628571429 27.956203 L 35.10948817142857 27.956203" />
<path class="stroke" d="M 25.232530571428573 9.270073 L 25.232530571428573 90.14598" />
<path class="stroke" d="M 25.232530571428573 36.131386 C 21.220018 44.598537 16.28154237142857 52.48175 9.182481342857143 56.861313" />
<path class="stroke" d="M 25.232530571428573 36.131386 C 29.862354314285717 37.299267 32.94890277142857 42.26277 34.492177000000005 46.934303" />
<path class="stroke" d="M 53.89196992 8.622261375 L 82.4817472 8.622261375" />
<path class="stroke" d="M 44.36204352 17.81934175 C 44.36204352 22.673356125 44.17518208 25.994523625 43.24087552 29.5711675" />
<path class="stroke" d="M 44.54890368 17.81934175 L 92.0116736 17.81934175 C 91.8248128 22.928829 91.2642304 25.4835735 90.51678720000001 28.038318875" />
<path class="stroke" d="M 68.10600832 8.622261375 L 68.10600832 40.556565" />
<path class="stroke" d="M 53.33138688 23.950728375 C 56.134304 24.717151375 58.0029184 25.994523625 59.87153088 28.804741000000003" />
<path class="stroke" d="M 53.518247040000006 32.892335 C 55.760583679999996 33.403282499999996 57.6291968 34.93613025 59.68467072 38.512770625" />
<path class="stroke" d="M 75.007296 23.950728375 C 77.4364928 24.461677625 79.491968 25.73905075 82.1080256 28.549268125" />
<path class="stroke" d="M 75.007296 33.147808749999996 C 77.6233536 33.658756249999996 79.86569344 35.958026125 81.73430400000001 38.512770625" />
<path class="stroke" d="M 53.695205232640006 49.2 L 81.024792064 49.2" />
<path class="stroke" d="M 42.664479744 60.65230242 L 92.2331648 60.65230242" />
<path class="stroke" d="M 58.65439232 60.65230242 L 54.923361279999995 72.14808984000001 L 82.46158848 72.14808984000001 C 82.52078080000001 82.2468164 78.84905472 92.70475844 71.97931008 92.62492856 L 66.47166464 92.62492856" />
</svg>
