<?xml version="1.0" standalone="no"?>
<!DOCTYPE svg PUBLIC "-//W3C//DTD SVG 1.1//EN" "http://www.w3.org/Graphics/SVG/1.1/DTD/svg11.dtd">
<svg xmlns="http://www.w3.org/2000/svg" version="1.1" width="100%" height="100%">
<style type="text/css"><![CDATA[
  .stroke { fill:none; stroke:black; stroke-width:2 }
]]></style>
<path class="stroke" d="M 11.630865257142858 27.956203 L 37.00729834285714 27.956203" />
<path class="stroke" d="M 26.596451142857145 9.270073 L 26.596451142857145 90.14598" />
<path class="stroke" d="M 26.596451142857145 36.131386 C 22.367046000000002 44.598537 17.161625742857144 52.48175 9.678831685714286 56.861313" />
<path class="stroke" d="M 26.596451142857145 36.131386 C 31.47653562857143 37.299267 34.72992454285715 42.26277 36.356619 46.934303" />
<path class="stroke" d="M 67.5 9.166457344000005 L 67.5 21.28" />
<path class="stroke" d="M 41.575 21.28 L 93.425 21.28" />
<path class="stroke" d="M 49.5561839532 30.494205981952 L 49.5561839532 54.35872972288001" />
<path class="stroke" d="M 49.5561839532 30.494205981952 L 85.37789219999999 30.494205981952 L 85.37789219999999 54.50177261824" />
<path class="stroke" d="M 49.6347118152 53.1299120128 L 85.22828677199999 53.1299120128" />
<path class="stroke" d="M 59.70852766598399 37.045577217856 L 59.70852766598399 47.440363817344" />
<path class="stroke" d="M 59.70852766598399 37.045577217856 L 75.36328220159999 37.045577217856 L 75.36328220159999 47.3404142177536" />
<path class="stroke" d="M 59.70852766598399 46.640764624322564 L 75.36328220159999 46.640764624322564" />
<path class="stroke" d="M 52.09415842 65.842420562944 L 52.09415842 85.59721730867201" />
<path class="stroke" d="M 52.09415842 65.842420562944 L 82.727735 65.842420562944 L 82.727735 85.59721730867201" />
<path class="stroke" d="M 52.27226195 75.1816843208704 L 82.54963330000001 75.1816843208704" />
<path class="stroke" d="M 52.09415842 84.73490542673922 L 82.727735 84.73490542673922" />
<path class="stroke" d="M 47.2729334084 92.30464 L 87.72706259 92.30464" />
</svg>
