<?xml version="1.0" standalone="no"?>
<!DOCTYPE svg PUBLIC "-//W3C//DTD SVG 1.1//EN" "http://www.w3.org/Graphics/SVG/1.1/DTD/svg11.dtd">
<svg xmlns="http://www.w3.org/2000/svg" version="1.1" width="100%" height="100%">
<style type="text/css"><![CDATA[
  .stroke { fill:none; stroke:black; stroke-width:2 }
]]></style>
<path class="stroke" d="M 10.437956 27.956203 L 33.211678 27.956203" />
<path class="stroke" d="M 23.86861 9.270073 L 23.86861 90.14598" />
<path class="stroke" d="M 23.86861 36.131386 C 20.07299 44.598537 15.401459 52.48175 8.686131 56.861313" />
<path class="stroke" d="M 23.86861 36.131386 C 28.248173 37.299267 31.167881 42.26277 32.627735 46.934303" />
<path class="stroke" d="M 38.563649146428574 9.90099 L 66.24660624464286 9.90099" />
<path class="stroke" d="M 44.236386388214285 9.90099 L 44.236386388214285 70.19802" />
<path class="stroke" d="M 44.236386388214285 28.613861 L 59.89313836428572 28.613861" />
<path class="stroke" d="M 44.236386388214285 47.92079 L 59.89313836428572 47.92079" />
<path class="stroke" d="M 38.79055808607143 72.871284 L 59.85952550714286 63.055557" />
<path class="stroke" d="M 59.89313836428572 9.90099 L 59.89313836428572 89.80198" />
<path class="stroke" d="M 75.5702671 7.5135136 L 91.9064794 7.5135136 C 89.89243149999999 15.297297 88.1387137 25.963066 85.64053834 36.7027" />
<path class="stroke" d="M 85.8643219 37.675674 C 88.4272234 41.305073 92.9633662 50.29703 92.9633662 59.207924 L 92.9633662 63.069305 C 92.9633662 66.63367 91.66165084 76.918915 88.9972945 76.918915 L 82.28378079999999 75.945946" />
<path class="stroke" d="M 75.79405134999999 8.81081 L 75.5702671 92.48648" />
</svg>
