<?xml version="1.0" standalone="no"?>
<!DOCTYPE svg PUBLIC "-//W3C//DTD SVG 1.1//EN" "http://www.w3.org/Graphics/SVG/1.1/DTD/svg11.dtd">
<svg xmlns="http://www.w3.org/2000/svg" version="1.1" width="100%" height="100%">
<style type="text/css"><![CDATA[
  .stroke { fill:none; stroke:black; stroke-width:2 }
]]></style>
<path class="stroke" d="M 31.70296976 9.60396 C 23.2671536 13.941605 16.25985296 16.27737 9.25255424 17.445253" />
<path class="stroke" d="M 8.41167776 41.970802 L 32.7970784 34.37956" />
<path class="stroke" d="M 6.6182912 67.0347 L 41.205836 57.153282" />
<path class="stroke" d="M 20.3240864 14.817516 L 20.3240864 82.84671 C 20.3240864 87.51824 22.286129600000002 90.43795 23.96788256 90.43795 L 41.4861296 90.43795 C 43.728463999999995 90.43795 45.1299248 85.76642 45.2475248 82.67327 L 45.1299248 78.75912" />
<path class="stroke" d="M 79.70296976 9.60396 C 71.2671536 13.941605 64.25985296 16.27737 57.25255424 17.445253" />
<path class="stroke" d="M 56.41167776 41.970802 L 80.7970784 34.37956" />
<path class="stroke" d="M 54.6182912 67.0347 L 89.205836 57.153282" />
<path class="stroke" d="M 68.3240864 14.817516 L 68.3240864 82.84671 C 68.3240864 87.51824 70.28612960000001 90.43795 71.96788255999999 90.43795 L 89.4861296 90.43795 C 91.728464 90.43795 93.1299248 85.76642 93.24752480000001 82.67327 L 93.1299248 78.75912" />
</svg>
