<?xml version="1.0" standalone="no"?>
<!DOCTYPE svg PUBLIC "-//W3C//DTD SVG 1.1//EN" "http://www.w3.org/Graphics/SVG/1.1/DTD/svg11.dtd">
<svg xmlns="http://www.w3.org/2000/svg" version="1.1" width="100%" height="100%">
<style type="text/css"><![CDATA[
  .stroke { fill:none; stroke:black; stroke-width:2 }
]]></style>
<path class="stroke" d="M 13.649633 9.562042 L 13.649633 90.14598" />
<path class="stroke" d="M 13.649633 9.562042 L 38.17518 9.562042 L 38.17518 38.46715" />
<path class="stroke" d="M 13.649633 22.408756 L 37.88321 22.408756" />
<path class="stroke" d="M 13.649633 36.131386 L 38.17518 36.131386" />
<path class="stroke" d="M 62.408752 9.854013 L 62.408752 38.46715" />
<path class="stroke" d="M 62.408752 9.854013 L 86.642334 9.854013 L 86.642334 85.47445 C 86.642334 88.39416 84.306564 90.14598 81.678825 89.85401" />
<path class="stroke" d="M 62.408752 22.408756 L 86.642334 22.408756" />
<path class="stroke" d="M 62.408752 36.131386 L 86.642334 36.131386" />
<path class="stroke" d="M 24.93193732 45.774868999999995 L 75.06806040000001 45.774868999999995" />
<path class="stroke" d="M 30.811881760000002 52.524752 L 30.811881760000002 69.71204" />
<path class="stroke" d="M 30.811881760000002 52.524752 L 71.00942024 52.524752 L 71.00942024 69.9005204" />
<path class="stroke" d="M 31.03762228 61.0792082 L 70.531932 61.0792082" />
<path class="stroke" d="M 31.03762228 69.63366199999999 L 69.81570496 69.63366199999999" />
<path class="stroke" d="M 50.477485200000004 40.874345 L 50.477485200000004 89.125652" />
<path class="stroke" d="M 50.23978 69.35336000000001 C 43.010216920000005 78.401456 34.47354352 86.44472 24.93193732 88.37172799999999" />
<path class="stroke" d="M 50.23978 69.35336000000001 C 56.54598336 78.75182000000001 66.464583 86.834978 75.784292 88.937174" />
</svg>
