<?xml version="1.0" standalone="no"?>
<!DOCTYPE svg PUBLIC "-//W3C//DTD SVG 1.1//EN" "http://www.w3.org/Graphics/SVG/1.1/DTD/svg11.dtd">
<svg xmlns="http://www.w3.org/2000/svg" version="1.1" width="100%" height="100%">
<style type="text/css"><![CDATA[
  .stroke { fill:none; stroke:black; stroke-width:2 }
]]></style>
<path class="stroke" d="M 61.881187 6.6099008 C 44.30657 8.691970399999999 29.708027 9.813137600000001 15.109488 10.37372144" />
<path class="stroke" d="M 13.357662 22.14598496 L 64.16058 18.5021888" />
<path class="stroke" d="M 9.62144 34.176656 L 81.678825 29.43357536" />
<path class="stroke" d="M 38.17518 9.11240768 L 38.17518 41.7664208 C 38.17518 44.0087552 42.26277 45.410216 45.766422 45.410216 L 82.26277 45.410216 C 86.9343 45.410216 89.85401 43.167881599999994 90.09901 41.6831696 L 89.85401 39.804377599999995" />
<path class="stroke" d="M 31.70296976 53.6099008 C 23.2671536 55.6919704 16.25985296 56.8131376 9.25255424 57.37372144" />
<path class="stroke" d="M 8.41167776 69.14598495999999 L 32.7970784 65.5021888" />
<path class="stroke" d="M 6.6182912 81.17665600000001 L 41.205836 76.43357535999999" />
<path class="stroke" d="M 20.3240864 56.11240768 L 20.3240864 88.76642079999999 C 20.3240864 91.0087552 22.286129600000002 92.41021599999999 23.96788256 92.41021599999999 L 41.4861296 92.41021599999999 C 43.728463999999995 92.41021599999999 45.1299248 90.16788159999999 45.2475248 88.6831696 L 45.1299248 86.8043776" />
<path class="stroke" d="M 79.70296976 53.6099008 C 71.2671536 55.6919704 64.25985296 56.8131376 57.25255424 57.37372144" />
<path class="stroke" d="M 56.41167776 69.14598495999999 L 80.7970784 65.5021888" />
<path class="stroke" d="M 54.6182912 81.17665600000001 L 89.205836 76.43357535999999" />
<path class="stroke" d="M 68.3240864 56.11240768 L 68.3240864 88.76642079999999 C 68.3240864 91.0087552 70.28612960000001 92.41021599999999 71.96788255999999 92.41021599999999 L 89.4861296 92.41021599999999 C 91.728464 92.41021599999999 93.1299248 90.16788159999999 93.24752480000001 88.6831696 L 93.1299248 86.8043776" />
</svg>
