<?xml version="1.0" standalone="no"?>
<!DOCTYPE svg PUBLIC "-//W3C//DTD SVG 1.1//EN" "http://www.w3.org/Graphics/SVG/1.1/DTD/svg11.dtd">
<svg xmlns="http://www.w3.org/2000/svg" version="1.1" width="100%" height="100%">
<style type="text/css"><![CDATA[
  .stroke { fill:none; stroke:black; stroke-width:2 }
]]></style>
<path class="stroke" d="M 9.543274057142856 27.956203 L 30.36496274285714 27.956203" />
<path class="stroke" d="M 21.822729142857142 9.270073 L 21.822729142857142 90.14598" />
<path class="stroke" d="M 21.822729142857142 36.131386 C 18.352448 44.598537 14.081333942857142 52.48175 7.941605485714285 56.861313" />
<path class="stroke" d="M 21.822729142857142 36.131386 C 25.826901028571427 37.299267 28.496348342857143 42.26277 29.831072 46.934303" />
<path class="stroke" d="M 72.46039529000001 6.6099008 C 60.6854019 8.691970399999999 50.90437809 9.813137600000001 41.12335696 10.37372144" />
<path class="stroke" d="M 39.94963354 22.14598496 L 73.98758860000001 18.5021888" />
<path class="stroke" d="M 37.4463648 34.176656 L 85.72481275000001 29.43357536" />
<path class="stroke" d="M 56.577370599999995 9.11240768 L 56.577370599999995 41.7664208 C 56.577370599999995 44.0087552 59.31605590000001 45.410216 61.66350274 45.410216 L 86.1160559 45.410216 C 89.245981 45.410216 91.2021867 43.167881599999994 91.3663367 41.6831696 L 91.2021867 39.804377599999995" />
<path class="stroke" d="M 52.2409897392 53.6099008 C 46.588992912 55.6919704 41.894101483200004 56.8131376 37.1992113408 57.37372144" />
<path class="stroke" d="M 36.6358240992 69.14598495999999 L 52.974042528 65.5021888" />
<path class="stroke" d="M 35.434255104 81.17665600000001 L 58.60791012 76.43357535999999" />
<path class="stroke" d="M 44.617137888 56.11240768 L 44.617137888 88.76642079999999 C 44.617137888 91.0087552 45.931706832 92.41021599999999 47.0584813152 92.41021599999999 L 58.795706832 92.41021599999999 C 60.29807088 92.41021599999999 61.237049616 90.16788159999999 61.315841616 88.6831696 L 61.237049616 86.8043776" />
<path class="stroke" d="M 84.40098973920001 53.6099008 C 78.748992912 55.6919704 74.05410148320001 56.8131376 69.3592113408 57.37372144" />
<path class="stroke" d="M 68.7958240992 69.14598495999999 L 85.13404252800001 65.5021888" />
<path class="stroke" d="M 67.59425510400001 81.17665600000001 L 90.76791012000001 76.43357535999999" />
<path class="stroke" d="M 76.777137888 56.11240768 L 76.777137888 88.76642079999999 C 76.777137888 91.0087552 78.091706832 92.41021599999999 79.2184813152 92.41021599999999 L 90.955706832 92.41021599999999 C 92.45807088000001 92.41021599999999 93.397049616 90.16788159999999 93.47584161600001 88.6831696 L 93.397049616 86.8043776" />
</svg>
