<?xml version="1.0" standalone="no"?>
<!DOCTYPE svg PUBLIC "-//W3C//DTD SVG 1.1//EN" "http://www.w3.org/Graphics/SVG/1.1/DTD/svg11.dtd">
<svg xmlns="http://www.w3.org/2000/svg" version="1.1" width="100%" height="100%">
<style type="text/css"><![CDATA[
  .stroke { fill:none; stroke:black; stroke-width:2 }
]]></style>
<path class="stroke" d="M 10.736183314285713 27.956203 L 34.16058308571428 27.956203" />
<path class="stroke" d="M 24.550570285714283 9.270073 L 24.550570285714283 90.14598" />
<path class="stroke" d="M 24.550570285714283 36.131386 C 20.646504 44.598537 15.841500685714283 52.48175 8.93430617142857 56.861313" />
<path class="stroke" d="M 24.550570285714283 36.131386 C 29.055263657142856 37.299267 32.058391885714286 42.26277 33.559956 46.934303" />
<path class="stroke" d="M 43.24087552 17.445253 C 45.856933760000004 18.029196 48.472992 20.364962 50.341603840000005 24.160583" />
<path class="stroke" d="M 41.93284672 47.226276 C 44.54890368 47.226276 47.725546879999996 46.934303 51.2759104 43.138683 C 46.4175168 53.357662 45.10948864 58.321167 45.67007232 60.9489 C 46.0437952 63.284668 49.40729856 65.62044 50.154743679999996 68.832115 C 51.08905024 72.33576 47.60271744 80.26506 43.05401344 83.722626" />
<path class="stroke" d="M 43.05401344 84.014595 C 61.40347136 81.65476 61.927008 91.313866 93.88028800000001 90.14598" />
<path class="stroke" d="M 62.0788304 13.02673358375 L 84.22189567999999 13.02673358375 C 80.4379568 20.703010295 77.7751808 22.693155676249997 73.15036304 25.251914579999998" />
<path class="stroke" d="M 70.90802719999999 21.555929604999996 C 72.58978016 24.39899527 73.71094784 26.957754173749997 74.41167776 30.653739148750002" />
<path class="stroke" d="M 61.535765839999996 31.628612108 L 61.535765839999996 62.465399432000005 C 61.535765839999996 67.82831701999999 60.778978304000006 72.01809800000001 58.76087561600001 75.872699716" />
<path class="stroke" d="M 61.535765839999996 31.628612108 L 86.25751664 31.628612108 L 86.25751664 75.70510663999998 C 86.25751664 76.71065705999997 85.75299248 77.88379251999999 84.74393984 77.88379251999999 L 83.861019968 77.88379251999999" />
<path class="stroke" d="M 61.535765839999996 44.69993986 L 86.25751664 44.69993986" />
<path class="stroke" d="M 61.535765839999996 58.28037806 L 86.25751664 58.28037806" />
<path class="stroke" d="M 73.682781584 31.963795389999998 L 73.682781584 75.36992507999999" />
</svg>
