<?xml version="1.0" standalone="no"?>
<!DOCTYPE svg PUBLIC "-//W3C//DTD SVG 1.1//EN" "http://www.w3.org/Graphics/SVG/1.1/DTD/svg11.dtd">
<svg xmlns="http://www.w3.org/2000/svg" version="1.1" width="100%" height="100%">
<style type="text/css"><![CDATA[
  .stroke { fill:none; stroke:black; stroke-width:2 }
]]></style>
<path class="stroke" d="M 10.736183314285713 27.956203 L 34.16058308571428 27.956203" />
<path class="stroke" d="M 24.550570285714283 9.270073 L 24.550570285714283 90.14598" />
<path class="stroke" d="M 24.550570285714283 36.131386 C 20.646504 44.598537 15.841500685714283 52.48175 8.93430617142857 56.861313" />
<path class="stroke" d="M 24.550570285714283 36.131386 C 29.055263657142856 37.299267 32.058391885714286 42.26277 33.559956 46.934303" />
<path class="stroke" d="M 46.07103 37.971592 L 61.039425 37.971592" />
<path class="stroke" d="M 45.8659485 8.949525000000001 L 45.8659485 84.1166944 M 35.203472 89.050452 L 59.604095 78.60247199999999" />
<path class="stroke" d="M 90.56626 29.845416 C 83.59461999999999 37.778116000000004 77.23814 41.0673 67.600915 41.454252" />
<path class="stroke" d="M 67.39583999999999 8.9495204 L 67.39583999999999 82.95582 C 67.32752500000001 85.85805200000001 68.69447500000001 89.050452 70.88166000000001 89.050452 L 87.69560000000001 88.760284 C 90.4295 88.37324 91.7282 85.954836 91.796515 82.66565200000001 L 91.796515 74.249216" />
</svg>
