<?xml version="1.0" standalone="no"?>
<!DOCTYPE svg PUBLIC "-//W3C//DTD SVG 1.1//EN" "http://www.w3.org/Graphics/SVG/1.1/DTD/svg11.dtd">
<svg xmlns="http://www.w3.org/2000/svg" version="1.1" width="100%" height="100%">
<style type="text/css"><![CDATA[
  .stroke { fill:none; stroke:black; stroke-width:2 }
]]></style>
<path class="stroke" d="M 12.227319885714286 27.956203 L 38.905108514285715 27.956203" />
<path class="stroke" d="M 27.960371714285717 9.270073 L 27.960371714285717 90.14598" />
<path class="stroke" d="M 27.960371714285717 36.131386 C 23.514074 44.598537 18.041709114285712 52.48175 10.17518202857143 56.861313" />
<path class="stroke" d="M 27.960371714285717 36.131386 C 33.09071694285715 37.299267 36.51094631428572 42.26277 38.221061000000006 46.934303" />
<path class="stroke" d="M 46.15839404 11.98831948 L 46.15839404 90.2072968" />
<path class="stroke" d="M 46.15839404 11.71386862 L 93.18612819999998 11.71386862 L 93.18612819999998 89.932845" />
<path class="stroke" d="M 46.33065575 84.44379396 L 93.18612819999998 84.44379396" />
<path class="stroke" d="M 57.14014487 31.908085643999996 L 81.98043461 31.908085643999996" />
<path class="stroke" d="M 69.56028974 22.6700144808 L 69.56028974 73.388842368" />
<path class="stroke" d="M 69.56028974 34.987444146 C 65.58102235 48.935122466399996 60.757663494999996 56.361808027200006 54.487298429 60.16571742" />
<path class="stroke" d="M 69.56028974 34.987444146 C 73.29839197499999 49.116260034 78.36291804999999 56.542945594799995 84.63328394199999 59.803444146" />
</svg>
