<?xml version="1.0" standalone="no"?>
<!DOCTYPE svg PUBLIC "-//W3C//DTD SVG 1.1//EN" "http://www.w3.org/Graphics/SVG/1.1/DTD/svg11.dtd">
<svg xmlns="http://www.w3.org/2000/svg" version="1.1" width="100%" height="100%">
<style type="text/css"><![CDATA[
  .stroke { fill:none; stroke:black; stroke-width:2 }
]]></style>
<path class="stroke" d="M 10.736183314285713 27.956203 L 34.16058308571428 27.956203" />
<path class="stroke" d="M 24.550570285714283 9.270073 L 24.550570285714283 90.14598" />
<path class="stroke" d="M 24.550570285714283 36.131386 C 20.646504 44.598537 15.841500685714283 52.48175 8.93430617142857 56.861313" />
<path class="stroke" d="M 24.550570285714283 36.131386 C 29.055263657142856 37.299267 32.058391885714286 42.26277 33.559956 46.934303" />
<path class="stroke" d="M 66.594887 7.6546091571199995 C 59.193428000000004 16.46026174208 50.84306455 23.36665642496 40.40510845 27.51049157888" />
<path class="stroke" d="M 66.594887 7.6546091571199995 C 74.1861291 16.114941209599998 81.96715040000001 23.36665642496 92.78466750000001 27.33783279104" />
<path class="stroke" d="M 55.98613092 24.4 L 77.013867 24.4" />
<path class="stroke" d="M 50.506301500000006 33.378522000000004 L 84.9542215 33.687712000000005 L 84.9542215 59.656144" />
<path class="stroke" d="M 51.1214615 46.3627282 L 84.7492115 46.3627282" />
<path class="stroke" d="M 50.7112465 59.346954 L 84.9542215 59.656144" />
<path class="stroke" d="M 50.506301500000006 33.378522000000004 L 50.506301500000006 59.347052 C 50.574616500000005 71.91908000000001 46.952166500000004 82.945256 42.3044065 90.88012" />
<path class="stroke" d="M 57.697955814000004 70.10856895500001 L 57.697955814000004 88.55832017" />
<path class="stroke" d="M 57.697955814000004 70.10856895500001 L 85.8310936 70.10856895500001 L 85.8310936 88.380919198" />
<path class="stroke" d="M 57.697955814000004 87.1391081408 L 85.8310936 87.1391081408" />
</svg>
