<?xml version="1.0" standalone="no"?>
<!DOCTYPE svg PUBLIC "-//W3C//DTD SVG 1.1//EN" "http://www.w3.org/Graphics/SVG/1.1/DTD/svg11.dtd">
<svg xmlns="http://www.w3.org/2000/svg" version="1.1" width="100%" height="100%">
<style type="text/css"><![CDATA[
  .stroke { fill:none; stroke:black; stroke-width:2 }
]]></style>
<path class="stroke" d="M 11.332637942857142 27.956203 L 36.05839325714285 27.956203" />
<path class="stroke" d="M 25.914490857142855 9.270073 L 25.914490857142855 90.14598" />
<path class="stroke" d="M 25.914490857142855 36.131386 C 21.793532 44.598537 16.721584057142856 52.48175 9.430656514285713 56.861313" />
<path class="stroke" d="M 25.914490857142855 36.131386 C 30.66944497142857 37.299267 33.839413657142856 42.26277 35.424398 46.934303" />
<path class="stroke" d="M 46.94817403 17.262773 L 90.0518197 17.262773" />
<path class="stroke" d="M 59.76277209999999 9.2335749 L 59.76277209999999 25.9343051" />
<path class="stroke" d="M 77.23722219999999 9.2335749 L 77.23722219999999 25.9343051" />
<path class="stroke" d="M 46.724334824799996 29.8 L 89.13566098 29.8" />
<path class="stroke" d="M 44.30188747 49.339648000000004 L 92.6981131 49.339648000000004" />
<path class="stroke" d="M 54.877342 31.79242 L 54.877342 65.47176999999999" />
<path class="stroke" d="M 81.22639 32.07547 L 81.22639 65.47176999999999" />
<path class="stroke" d="M 48.78303595 65.471698 L 88.03773609999999 65.471698" />
<path class="stroke" d="M 46.27359328 81.320797 L 90.72641242 81.320797" />
<path class="stroke" d="M 68.41116778 31.857141700000003 L 68.41116778 93.571426" />
</svg>
