<?xml version="1.0" standalone="no"?>
<!DOCTYPE svg PUBLIC "-//W3C//DTD SVG 1.1//EN" "http://www.w3.org/Graphics/SVG/1.1/DTD/svg11.dtd">
<svg xmlns="http://www.w3.org/2000/svg" version="1.1" width="100%" height="100%">
<style type="text/css"><![CDATA[
  .stroke { fill:none; stroke:black; stroke-width:2 }
]]></style>
<path class="stroke" d="M 11.034410628571429 27.956203 L 35.10948817142857 27.956203" />
<path class="stroke" d="M 25.232530571428573 9.270073 L 25.232530571428573 90.14598" />
<path class="stroke" d="M 25.232530571428573 36.131386 C 21.220018 44.598537 16.28154237142857 52.48175 9.182481342857143 56.861313" />
<path class="stroke" d="M 25.232530571428573 36.131386 C 29.862354314285717 37.299267 32.94890277142857 42.26277 34.492177000000005 46.934303" />
<path class="stroke" d="M 38.660144838 9.440000000000001 L 90.33985005 9.440000000000001" />
<path class="stroke" d="M 60.488758014 11.941605024800001 C 60.115618437 14.471006153600001 58.063356834 16.7028314584 55.264816077000006 18.0419262336" />
<path class="stroke" d="M 49.48116765 18.190714655200004 L 49.48116765 52.858391408" />
<path class="stroke" d="M 49.48116765 18.0419262336 L 79.51883235 18.0419262336 L 79.51883235 53.15596723200001" />
<path class="stroke" d="M 49.48116765 29.201050209600005 L 79.51883235 29.201050209600005" />
<path class="stroke" d="M 49.48116765 41.10411578400001 L 79.33226352 41.10411578400001" />
<path class="stroke" d="M 49.48116765 51.965663936000006 L 79.51883235 51.965663936000006" />
<path class="stroke" d="M 57.97007107 56.3788283 C 52.9948902 66.31459562 46.36131263 72.8576566 36.82554616 78.67371892" />
<path class="stroke" d="M 56.104377799999995 60.25620069 L 76.6270059 60.25620069 C 72.273719 71.6459811 63.1525549 82.55109048 50.71459669 89.33649319999999" />
<path class="stroke" d="M 54.65328406 65.1029168 C 57.858063599999994 73.6354828 76.0051098 89.82116339999999 90.30875559999998 89.82116339999999" />
</svg>
