<?xml version="1.0" standalone="no"?>
<!DOCTYPE svg PUBLIC "-//W3C//DTD SVG 1.1//EN" "http://www.w3.org/Graphics/SVG/1.1/DTD/svg11.dtd">
<svg xmlns="http://www.w3.org/2000/svg" version="1.1" width="100%" height="100%">
<style type="text/css"><![CDATA[
  .stroke { fill:none; stroke:black; stroke-width:2 }
]]></style>
<path class="stroke" d="M 10.736183314285713 27.956203 L 34.16058308571428 27.956203" />
<path class="stroke" d="M 24.550570285714283 9.270073 L 24.550570285714283 90.14598" />
<path class="stroke" d="M 24.550570285714283 36.131386 C 20.646504 44.598537 15.841500685714283 52.48175 8.93430617142857 56.861313" />
<path class="stroke" d="M 24.550570285714283 36.131386 C 29.055263657142856 37.299267 32.058391885714286 42.26277 33.559956 46.934303" />
<path class="stroke" d="M 89.11511300000001 8.143536 C 74.108788 13.338059999999999 58.89114500000001 15.236065 44.096205 15.336005" />
<path class="stroke" d="M 44.096205 15.336005 L 44.096205 58.49061 C 44.166689 69.678855 41.700821000000005 78.769215 37.3328096 85.462155" />
<path class="stroke" d="M 51.566335562000006 28.129749999999998 L 92.153661892 28.129749999999998" />
<path class="stroke" d="M 71.86 16.7516970235 L 71.86 41.21592856" />
<path class="stroke" d="M 58.4052255972 46.4938384642 L 58.4052255972 89.520930592" />
<path class="stroke" d="M 58.4052255972 46.4938384642 L 85.1661017512 46.4938384642 L 85.1661017512 89.366157295" />
<path class="stroke" d="M 58.4052255972 59.6371940548 L 85.1661017512 59.6371940548" />
<path class="stroke" d="M 58.4052255972 74.39501478400001 L 85.1661017512 74.39501478400001" />
<path class="stroke" d="M 58.4052255972 87.973192321 L 85.1661017512 87.973192321" />
</svg>
