<?xml version="1.0" standalone="no"?>
<!DOCTYPE svg PUBLIC "-//W3C//DTD SVG 1.1//EN" "http://www.w3.org/Graphics/SVG/1.1/DTD/svg11.dtd">
<svg xmlns="http://www.w3.org/2000/svg" version="1.1" width="100%" height="100%">
<style type="text/css"><![CDATA[
  .stroke { fill:none; stroke:black; stroke-width:2 }
]]></style>
<path class="stroke" d="M 12.5255472 27.956203 L 39.854013599999995 27.956203" />
<path class="stroke" d="M 28.642332 9.270073 L 28.642332 90.14598" />
<path class="stroke" d="M 28.642332 36.131386 C 24.087588 44.598537 18.481750799999997 52.48175 10.4233572 56.861313" />
<path class="stroke" d="M 28.642332 36.131386 C 33.8978076 37.299267 37.4014572 42.26277 39.153282 46.934303" />
<path class="stroke" d="M 64.9379535 8.35072911 C 64.7725025 10.90625845 60.8166025 13.87131145 57.2644175 13.96968245" />
<path class="stroke" d="M 48.99634925 14.063138085 L 48.99634925 45.4149645" />
<path class="stroke" d="M 48.99634925 13.970089675 L 86.38321110000001 13.970089675 L 86.38321110000001 45.4149645" />
<path class="stroke" d="M 48.99634925 28.737769875 L 86.38321110000001 28.737769875" />
<path class="stroke" d="M 48.99634925 44.0507198 L 86.38321110000001 44.0507198" />
<path class="stroke" d="M 46.52919625 54.8298084112 L 46.52919625 76.701691608" />
<path class="stroke" d="M 46.52919625 54.8298084112 L 88.8503615 54.8298084112 L 88.8503615 75.51138321600001 C 88.8503615 77.743206992 87.1423305 79.082303296 85.244519 79.23109120800001 L 83.5364945 79.23109120800001" />
<path class="stroke" d="M 67.594887 47.2416050248 L 67.594887 88.158391408" />
</svg>
