<?xml version="1.0" standalone="no"?>
<!DOCTYPE svg PUBLIC "-//W3C//DTD SVG 1.1//EN" "http://www.w3.org/Graphics/SVG/1.1/DTD/svg11.dtd">
<svg xmlns="http://www.w3.org/2000/svg" version="1.1" width="100%" height="100%">
<style type="text/css"><![CDATA[
  .stroke { fill:none; stroke:black; stroke-width:2 }
]]></style>
<path class="stroke" d="M 12.5255472 27.956203 L 39.854013599999995 27.956203" />
<path class="stroke" d="M 28.642332 9.270073 L 28.642332 90.14598" />
<path class="stroke" d="M 28.642332 36.131386 C 24.087588 44.598537 18.481750799999997 52.48175 10.4233572 56.861313" />
<path class="stroke" d="M 28.642332 36.131386 C 33.8978076 37.299267 37.4014572 42.26277 39.153282 46.934303" />
<path class="stroke" d="M 48.16350268 7.5 L 91.836493 7.5" />
<path class="stroke" d="M 51.198539848 18.422481092 L 51.198539848 42.26131148" />
<path class="stroke" d="M 51.198539848 18.327882488 L 88.943354656 18.327882488 L 88.943354656 42.26131148" />
<path class="stroke" d="M 70.07094628 18.422481092 L 70.07094628 40.5585392" />
<path class="stroke" d="M 51.198539848 29.436836792 L 88.65956176 29.436836792" />
<path class="stroke" d="M 51.198539848 40.5585392 L 88.943354656 40.5585392" />
<path class="stroke" d="M 48.16350268 50.800000000000004 L 91.836493 50.800000000000004" />
<path class="stroke" d="M 51.198539848 61.3119190647 L 51.198539848 84.554778693" />
<path class="stroke" d="M 51.198539848 61.2196854258 L 88.943354656 61.2196854258 L 88.943354656 84.554778693" />
<path class="stroke" d="M 70.07094628 61.3119190647 L 70.07094628 82.89457572" />
<path class="stroke" d="M 51.198539848 72.05091587220001 L 88.65956176 72.05091587220001" />
<path class="stroke" d="M 51.198539848 82.89457572 L 88.943354656 82.89457572" />
<path class="stroke" d="M 48.16350268 92.88 L 91.836493 92.88" />
</svg>
