<?xml version="1.0" standalone="no"?>
<!DOCTYPE svg PUBLIC "-//W3C//DTD SVG 1.1//EN" "http://www.w3.org/Graphics/SVG/1.1/DTD/svg11.dtd">
<svg xmlns="http://www.w3.org/2000/svg" version="1.1" width="100%" height="100%">
<style type="text/css"><![CDATA[
  .stroke { fill:none; stroke:black; stroke-width:2 }
]]></style>
<path class="stroke" d="M 11.630865257142858 27.956203 L 37.00729834285714 27.956203" />
<path class="stroke" d="M 26.596451142857145 9.270073 L 26.596451142857145 90.14598" />
<path class="stroke" d="M 26.596451142857145 36.131386 C 22.367046000000002 44.598537 17.161625742857144 52.48175 9.678831685714286 56.861313" />
<path class="stroke" d="M 26.596451142857145 36.131386 C 31.47653562857143 37.299267 34.72992454285715 42.26277 36.356619 46.934303" />
<path class="stroke" d="M 57.99050889 7.8636047308 C 52.70875886 13.99253947 49.38321051 16.8767439442 43.9058379 19.760947801" />
<path class="stroke" d="M 54.664963220000004 12.009648238 L 73.4445232 12.009648238 C 72.85765948 16.1556923626 70.51021599 18.859633941400002 66.79342918 22.2846252496" />
<path class="stroke" d="M 51.92627591 23.1105354298 L 51.92627591 44.6372094616" />
<path class="stroke" d="M 51.92627591 23.185940344 L 80.8780995 23.005678066 L 80.8780995 44.6372094616" />
<path class="stroke" d="M 66.59780660000001 23.005678066 L 66.59780660000001 44.6372094616" />
<path class="stroke" d="M 51.92627591 33.64118086839999 L 80.8780995 33.64118086839999" />
<path class="stroke" d="M 51.92627591 44.6372094616 L 80.8780995 44.6372094616" />
<path class="stroke" d="M 46.25328407 49.864831576 C 45.66642169 52.388506555000006 44.49270028 54.731925430000004 42.92773572 56.89507647039999" />
<path class="stroke" d="M 55.8386853 50.225356131999995 C 57.40364785 52.02798508600001 58.3817507 54.731925430000004 58.9686104 57.435865774" />
<path class="stroke" d="M 69.33649458 50.04509385400001 C 71.4883175 52.02798508600001 72.76376568 54.551663151999996 73.83576300000001 57.435865774" />
<path class="stroke" d="M 83.6167848 50.40561841 C 85.18175070000001 51.66746052999999 86.9423365 55.092449986 87.920436 57.79639033" />
<path class="stroke" d="M 51.7751584686 65.678598244 L 51.7751584686 91.636435072" />
<path class="stroke" d="M 51.7751584686 65.678598244 L 81.72073505 65.678598244 L 81.72073505 91.636435072" />
<path class="stroke" d="M 51.9492619685 77.95040685039999 L 81.54663333900001 77.95040685039999" />
<path class="stroke" d="M 51.7751584686 90.50335577919999 L 81.72073505 90.50335577919999" />
</svg>
