<?xml version="1.0" standalone="no"?>
<!DOCTYPE svg PUBLIC "-//W3C//DTD SVG 1.1//EN" "http://www.w3.org/Graphics/SVG/1.1/DTD/svg11.dtd">
<svg xmlns="http://www.w3.org/2000/svg" version="1.1" width="100%" height="100%">
<style type="text/css"><![CDATA[
  .stroke { fill:none; stroke:black; stroke-width:2 }
]]></style>
<path class="stroke" d="M 12.5255472 27.956203 L 39.854013599999995 27.956203" />
<path class="stroke" d="M 28.642332 9.270073 L 28.642332 90.14598" />
<path class="stroke" d="M 28.642332 36.131386 C 24.087588 44.598537 18.481750799999997 52.48175 10.4233572 56.861313" />
<path class="stroke" d="M 28.642332 36.131386 C 33.8978076 37.299267 37.4014572 42.26277 39.153282 46.934303" />
<path class="stroke" d="M 51.75547375 9.856252057985294 C 54.96715255 11.684401929661764 57.53649515 14.198107122705883 59.46350265 16.597553682529412" />
<path class="stroke" d="M 85.7992665 9.856252057985294 C 84.4889058 12.118587005661766 81.784668 14.769403028176471 79.054743 16.711812315750002" />
<path class="stroke" d="M 45.383281 17.944133305 L 93.61673 17.944133305" />
<path class="stroke" d="M 49.373795 27.47020603 L 49.373795 59.661787270000005" />
<path class="stroke" d="M 49.373795 27.47020603 L 89.79967500000001 27.47020603 L 89.79967500000001 59.661787270000005" />
<path class="stroke" d="M 64.12144 18.10837599205 L 64.12144 31.247811261400006 C 63.82257990000001 34.9623230845 57.6129028 41.8483389784 49.6290324 43.35990099205" />
<path class="stroke" d="M 74.7050515 17.944133305 L 74.7050515 40.773906895 C 74.47372150000001 42.690107155 75.8038954 44.11351219000001 77.65459150000001 44.058791875 L 82.6861015 44.058791875 C 84.0162765 44.00401949500001 85.6934465 42.963812860000004 85.6356382 40.938171970000006 L 85.6356382 38.63877331" />
<path class="stroke" d="M 49.373795 50.628457705 L 89.79967500000001 50.628457705" />
<path class="stroke" d="M 49.373795 59.661787270000005 L 89.79967500000001 59.661787270000005" />
<path class="stroke" d="M 47.7408758 70.7335321086 L 91.09853575 70.7335321086" />
<path class="stroke" d="M 78.091242 65.1050947498 L 78.091242 90.186203244 C 78.091242 91.07490491200001 77.4489025 91.667370436 76.0036477 91.667370436 L 71.66788275 91.667370436" />
<path class="stroke" d="M 56.5729925 74.4858239066 C 58.5 75.3745252364 60.2664229 76.6582039204 61.71167715 78.8305825814" />
</svg>
