<?xml version="1.0" standalone="no"?>
<!DOCTYPE svg PUBLIC "-//W3C//DTD SVG 1.1//EN" "http://www.w3.org/Graphics/SVG/1.1/DTD/svg11.dtd">
<svg xmlns="http://www.w3.org/2000/svg" version="1.1" width="100%" height="100%">
<style type="text/css"><![CDATA[
  .stroke { fill:none; stroke:black; stroke-width:2 }
]]></style>
<path class="stroke" d="M 49.999996 5.0 C 52.376232 7.6732674 52.793365 10.037088 52.918915 12.702702" />
<path class="stroke" d="M 12.702702 13.675674 L 92.81081 13.351351" />
<path class="stroke" d="M 12.378378 13.999998 L 12.702702 39.62162 C 12.702702 61.30479 14.560343 79.686905 6.5405407 92.162155" />
<path class="stroke" d="M 28.903776999999998 29.2555228 L 53.5 29.2555228 C 47.62299399999999 44.199808000000004 40.222398999999996 51.850691999999995 23.8974751 59.93058800000001" />
<path class="stroke" d="M 29.992085019999998 39.337597200000005 C 32.241278019999996 41.1966492 33.837524020000004 43.2702412 35.43377071 45.558373200000005" />
<path class="stroke" d="M 72.6545932 30.1135638 L 63.7303402 38.4795222" />
<path class="stroke" d="M 53.717625999999996 29.4700288 C 59.884845999999996 44.914896 69.09938199999999 53.924284 83.10251799999999 60.359668000000006" />
<path class="stroke" d="M 80.49052989999998 39.7665276 L 72.0015289 47.7034876" />
<path class="stroke" d="M 39.7870642 49.634089200000005 L 66.7775872 49.634089200000005" />
<path class="stroke" d="M 27.8154607 67.0094628 L 80.9258647 67.0094628" />
<path class="stroke" d="M 44.140356999999995 49.848568 L 44.140356999999995 68.08202 C 44.067837999999995 77.949568 36.812349999999995 87.173496 26.074156 87.602508" />
<path class="stroke" d="M 62.206627 49.848636 L 62.424322 83.526792 C 62.134108 86.029396 64.020499 88.10305600000001 66.34227999999999 88.03152 L 80.055202 88.03152 C 81.94166200000001 88.03152 84.04574799999999 86.100932 83.97316 83.526792 L 83.97316 79.880156" />
</svg>
