<?xml version="1.0" standalone="no"?>
<!DOCTYPE svg PUBLIC "-//W3C//DTD SVG 1.1//EN" "http://www.w3.org/Graphics/SVG/1.1/DTD/svg11.dtd">
<svg xmlns="http://www.w3.org/2000/svg" version="1.1" width="100%" height="100%">
<style type="text/css"><![CDATA[
  .stroke { fill:none; stroke:black; stroke-width:2 }
]]></style>
<path class="stroke" d="M 11.929092571428571 27.956203 L 37.95620342857143 27.956203" />
<path class="stroke" d="M 27.278411428571427 9.270073 L 27.278411428571427 90.14598" />
<path class="stroke" d="M 27.278411428571427 36.131386 C 22.940559999999998 44.598537 17.601667428571428 52.48175 9.927006857142857 56.861313" />
<path class="stroke" d="M 27.278411428571427 36.131386 C 32.283626285714284 37.299267 35.620435428571426 42.26277 37.28884 46.934303" />
<path class="stroke" d="M 54.06569234 9.854013 C 53.160582860000005 19.781021 47.36788256 30.29197 43.92846604 32.627735" />
<path class="stroke" d="M 51.3503639 25.036495 L 51.3503639 90.43795" />
<path class="stroke" d="M 72.89196754 10.145985 C 71.80583666 16.569342 69.81459692 22.116787 66.91824708 25.328465" />
<path class="stroke" d="M 51.3503639 24.76344 L 84.83941279999999 24.76344" />
<path class="stroke" d="M 67.8233578 25.328465 L 67.8233578 90.43795" />
<path class="stroke" d="M 51.3503639 47.79185 L 82.4861284 47.79185" />
<path class="stroke" d="M 51.3503639 69.124084 L 82.6671498 69.124084" />
<path class="stroke" d="M 51.3503639 90.43795 L 88.45985071999999 90.43795" />
</svg>
