<?xml version="1.0" standalone="no"?>
<!DOCTYPE svg PUBLIC "-//W3C//DTD SVG 1.1//EN" "http://www.w3.org/Graphics/SVG/1.1/DTD/svg11.dtd">
<svg xmlns="http://www.w3.org/2000/svg" version="1.1" width="100%" height="100%">
<style type="text/css"><![CDATA[
  .stroke { fill:none; stroke:black; stroke-width:2 }
]]></style>
<path class="stroke" d="M 12.5255472 27.956203 L 39.854013599999995 27.956203" />
<path class="stroke" d="M 28.642332 9.270073 L 28.642332 90.14598" />
<path class="stroke" d="M 28.642332 36.131386 C 24.087588 44.598537 18.481750799999997 52.48175 10.4233572 56.861313" />
<path class="stroke" d="M 28.642332 36.131386 C 33.8978076 37.299267 37.4014572 42.26277 39.153282 46.934303" />
<path class="stroke" d="M 49.834372099999996 7.722400319999999 L 91.5914951 7.722400319999999 L 91.5914951 31.94952768" />
<path class="stroke" d="M 49.834372099999996 31.94952768 L 91.5914951 31.94952768" />
<path class="stroke" d="M 49.834372099999996 7.722400319999999 L 49.834372099999996 55.8737856 C 49.8985441 70.00623359999999 48.6156531 77.7791616 41.7523662 90.3974928" />
<path class="stroke" d="M 79.26559353389999 42.01188096 C 71.010795929 44.51036448 64.1538602819 45.855765119999994 57.2969265136 46.52846572799999" />
<path class="stroke" d="M 56.4740938414 60.65518195199999 L 80.336224426 56.28262656" />
<path class="stroke" d="M 54.719190368 75.0919872 L 88.56454410250001 69.40029043199999" />
<path class="stroke" d="M 68.130882046 45.014889216 L 68.130882046 84.19970495999999 C 68.130882046 86.89050624 70.050823069 88.57225919999999 71.6964884134 88.57225919999999 L 88.838823069 88.57225919999999 C 91.03304071 88.57225919999999 92.404428497 85.88145791999999 92.519504997 84.09980352 L 92.404428497 81.84525312" />
</svg>
