<?xml version="1.0" standalone="no"?>
<!DOCTYPE svg PUBLIC "-//W3C//DTD SVG 1.1//EN" "http://www.w3.org/Graphics/SVG/1.1/DTD/svg11.dtd">
<svg xmlns="http://www.w3.org/2000/svg" version="1.1" width="100%" height="100%">
<style type="text/css"><![CDATA[
  .stroke { fill:none; stroke:black; stroke-width:2 }
]]></style>
<path class="stroke" d="M 11.929092571428571 27.956203 L 37.95620342857143 27.956203" />
<path class="stroke" d="M 27.278411428571427 9.270073 L 27.278411428571427 90.14598" />
<path class="stroke" d="M 27.278411428571427 36.131386 C 22.940559999999998 44.598537 17.601667428571428 52.48175 9.927006857142857 56.861313" />
<path class="stroke" d="M 27.278411428571427 36.131386 C 32.283626285714284 37.299267 35.620435428571426 42.26277 37.28884 46.934303" />
<path class="stroke" d="M 48.047298 9.944828 L 87.05679 9.944828 L 87.05679 43.910056999999995" />
<path class="stroke" d="M 67.4668644 10.2507854 L 67.4668644 43.604119" />
<path class="stroke" d="M 47.876982 43.910056999999995 L 87.05679 43.910056999999995" />
<path class="stroke" d="M 47.876982 9.944837699999999 L 47.876982 83.38324669999999 C 47.876982 87.9731897 49.06941 90.7271167 51.454266000000004 90.7271167 L 87.90853200000001 90.7271167 C 90.293388 91.1350987 91.656186 88.1771807 91.485816 83.6892817 L 91.485816 74.81543070000001" />
</svg>
