<?xml version="1.0" standalone="no"?>
<!DOCTYPE svg PUBLIC "-//W3C//DTD SVG 1.1//EN" "http://www.w3.org/Graphics/SVG/1.1/DTD/svg11.dtd">
<svg xmlns="http://www.w3.org/2000/svg" version="1.1" width="100%" height="100%">
<style type="text/css"><![CDATA[
  .stroke { fill:none; stroke:black; stroke-width:2 }
]]></style>
<path class="stroke" d="M 11.929092571428571 27.956203 L 37.95620342857143 27.956203" />
<path class="stroke" d="M 27.278411428571427 9.270073 L 27.278411428571427 90.14598" />
<path class="stroke" d="M 27.278411428571427 36.131386 C 22.940559999999998 44.598537 17.601667428571428 52.48175 9.927006857142857 56.861313" />
<path class="stroke" d="M 27.278411428571427 36.131386 C 32.283626285714284 37.299267 35.620435428571426 42.26277 37.28884 46.934303" />
<path class="stroke" d="M 40.3296519 11.962176 L 92.862797 11.962176" />
<path class="stroke" d="M 46.8722496 26.195615999999998 L 46.8722496 53.451071999999996" />
<path class="stroke" d="M 46.8722496 26.195615999999998 L 86.7050666 26.195615999999998 L 86.7050666 53.451071999999996" />
<path class="stroke" d="M 46.872261800000004 39.823353600000004 L 86.32022979999999 39.823353600000004" />
<path class="stroke" d="M 46.8722496 53.451071999999996 L 86.7050666 53.451071999999996" />
<path class="stroke" d="M 66.884849 11.962176 L 66.884849 58.902144 C 67.013193 76.264896 54.441154 85.75392 40.9069437 89.791776" />
<path class="stroke" d="M 53.607284 61.022112 C 64.255017 78.78864 77.40436 90.19564799999999 92.477948 90.397536" />
</svg>
