<?xml version="1.0" standalone="no"?>
<!DOCTYPE svg PUBLIC "-//W3C//DTD SVG 1.1//EN" "http://www.w3.org/Graphics/SVG/1.1/DTD/svg11.dtd">
<svg xmlns="http://www.w3.org/2000/svg" version="1.1" width="100%" height="100%">
<style type="text/css"><![CDATA[
  .stroke { fill:none; stroke:black; stroke-width:2 }
]]></style>
<path class="stroke" d="M 11.034410628571429 27.956203 L 35.10948817142857 27.956203" />
<path class="stroke" d="M 25.232530571428573 9.270073 L 25.232530571428573 90.14598" />
<path class="stroke" d="M 25.232530571428573 36.131386 C 21.220018 44.598537 16.28154237142857 52.48175 9.182481342857143 56.861313" />
<path class="stroke" d="M 25.232530571428573 36.131386 C 29.862354314285717 37.299267 32.94890277142857 42.26277 34.492177000000005 46.934303" />
<path class="stroke" d="M 43.2350138 15.869889230769232 L 90.695605 15.869889230769232" />
<path class="stroke" d="M 48.446354 28.39115076923077 L 83.99527 28.39115076923077 L 83.99527 53.14244307692308" />
<path class="stroke" d="M 41.00157765 40.621107692307696 L 92.74291385000001 40.621107692307696" />
<path class="stroke" d="M 48.632498999999996 53.14244307692308 L 83.99527 53.14244307692308" />
<path class="stroke" d="M 67.05836006999999 7.42543476923077 L 67.05836006999999 52.85115692307693" />
<path class="stroke" d="M 63.69603916 60.0297028 C 62.99504954 66.4455444 58.61386116999999 74.28712920000001 54.40792109 77.9702972 C 64.00218898 79.37956 77.61094785 83.934304 84.5014605 89.6569336" />
<path class="stroke" d="M 77.5405933 67.27722800000001 C 73.15940788 80.82178400000001 64.04653397 85.930696 50.56569241 89.306568" />
<path class="stroke" d="M 42.81386767 69.2189772 L 90.0138659 69.2189772" />
</svg>
