<?xml version="1.0" standalone="no"?>
<!DOCTYPE svg PUBLIC "-//W3C//DTD SVG 1.1//EN" "http://www.w3.org/Graphics/SVG/1.1/DTD/svg11.dtd">
<svg xmlns="http://www.w3.org/2000/svg" version="1.1" width="100%" height="100%">
<style type="text/css"><![CDATA[
  .stroke { fill:none; stroke:black; stroke-width:2 }
]]></style>
<path class="stroke" d="M 11.332637942857142 27.956203 L 36.05839325714285 27.956203" />
<path class="stroke" d="M 25.914490857142855 9.270073 L 25.914490857142855 90.14598" />
<path class="stroke" d="M 25.914490857142855 36.131386 C 21.793532 44.598537 16.721584057142856 52.48175 9.430656514285713 56.861313" />
<path class="stroke" d="M 25.914490857142855 36.131386 C 30.66944497142857 37.299267 33.839413657142856 42.26277 35.424398 46.934303" />
<path class="stroke" d="M 68.0905076 10.13576452 C 61.0306544 25.919706180000002 53.06569234 38.29926916 43.109488060000004 45.72700398" />
<path class="stroke" d="M 68.0905076 10.13576452 C 75.33138468 25.3007266 82.75328192 38.29926916 93.071529 45.41751684" />
<path class="stroke" d="M 58.6599418 41.46376 L 76.854230974 41.46376" />
<path class="stroke" d="M 51.3410060566 57.11032 L 83.892363094 57.11032" />
<path class="stroke" d="M 62.4847135726 57.4014584 C 60.7251820492 68.6131376 57.059488153000004 79.5912352 52.9539117526 88.934304 C 63.804363094 86.36496 72.602028244 85.1970768 81.253061038 84.729928" />
<path class="stroke" d="M 79.20027334 78.189776 C 80.81318204920001 81.92700160000001 82.132830064 86.598536 82.86596673400001 90.80292" />
</svg>
