<?xml version="1.0" standalone="no"?>
<!DOCTYPE svg PUBLIC "-//W3C//DTD SVG 1.1//EN" "http://www.w3.org/Graphics/SVG/1.1/DTD/svg11.dtd">
<svg xmlns="http://www.w3.org/2000/svg" version="1.1" width="100%" height="100%">
<style type="text/css"><![CDATA[
  .stroke { fill:none; stroke:black; stroke-width:2 }
]]></style>
<path class="stroke" d="M 11.332637942857142 27.956203 L 36.05839325714285 27.956203" />
<path class="stroke" d="M 25.914490857142855 9.270073 L 25.914490857142855 90.14598" />
<path class="stroke" d="M 25.914490857142855 36.131386 C 21.793532 44.598537 16.721584057142856 52.48175 9.430656514285713 56.861313" />
<path class="stroke" d="M 25.914490857142855 36.131386 C 30.66944497142857 37.299267 33.839413657142856 42.26277 35.424398 46.934303" />
<path class="stroke" d="M 48.2875905 10.199333472647059 C 51.67445178 13.138277950882353 54.383940339999995 17.179325192941178 56.416057339999995 21.036689584705883" />
<path class="stroke" d="M 84.18831739999999 10.199333472647059 C 82.80648248 13.836276430882354 79.9547408 18.097743848235297 77.0759108 21.220372435" />
<path class="stroke" d="M 41.5678236 23.201458900000002 L 92.432188 23.201458900000002" />
<path class="stroke" d="M 45.776002 38.5156294 L 45.776002 90.2670046" />
<path class="stroke" d="M 45.776002 38.5156294 L 88.40692999999999 38.5156294 L 88.40692999999999 90.2670046" />
<path class="stroke" d="M 61.328064 23.465496409 L 61.328064 44.58852977200001 C 61.012902440000005 50.56000081 54.46451568 61.63000043200001 46.04516144 64.05999640900001" />
<path class="stroke" d="M 72.48896339999999 23.201458900000002 L 72.48896339999999 59.9027371 C 72.2450154 62.9832319 73.64774424 65.2715062 75.5993874 65.1835375 L 80.90534339999999 65.1835375 C 82.3080734 65.09548510000002 84.07672539999999 63.423242800000004 84.01576392 60.166810600000005 L 84.01576392 56.470283800000004" />
<path class="stroke" d="M 45.776002 75.7449709 L 88.40692999999999 75.7449709" />
<path class="stroke" d="M 45.776002 90.2670046 L 88.40692999999999 90.2670046" />
</svg>
