<?xml version="1.0" standalone="no"?>
<!DOCTYPE svg PUBLIC "-//W3C//DTD SVG 1.1//EN" "http://www.w3.org/Graphics/SVG/1.1/DTD/svg11.dtd">
<svg xmlns="http://www.w3.org/2000/svg" version="1.1" width="100%" height="100%">
<style type="text/css"><![CDATA[
  .stroke { fill:none; stroke:black; stroke-width:2 }
]]></style>
<path class="stroke" d="M 11.929092571428571 27.956203 L 37.95620342857143 27.956203" />
<path class="stroke" d="M 27.278411428571427 9.270073 L 27.278411428571427 90.14598" />
<path class="stroke" d="M 27.278411428571427 36.131386 C 22.940559999999998 44.598537 17.601667428571428 52.48175 9.927006857142857 56.861313" />
<path class="stroke" d="M 27.278411428571427 36.131386 C 32.283626285714284 37.299267 35.620435428571426 42.26277 37.28884 46.934303" />
<path class="stroke" d="M 43.221605615 16.809984 L 87.77839159 16.809984" />
<path class="stroke" d="M 65.5 7.932935430144 L 65.5 27.019695882240004" />
<path class="stroke" d="M 51.759853320000005 29.72187950592 L 51.759853320000005 65.25392977919999" />
<path class="stroke" d="M 51.759853320000005 29.72187950592 L 79.08832072000001 29.72187950592 L 79.08832072000001 65.126116992" />
<path class="stroke" d="M 51.759853320000005 40.57574734848 L 79.08832072000001 40.57574734848" />
<path class="stroke" d="M 51.759853320000005 52.7628509184 L 79.08832072000001 52.7628509184" />
<path class="stroke" d="M 51.759853320000005 63.975797529599994 L 79.08832072000001 63.975797529599994" />
<path class="stroke" d="M 39.2153273 76.8 L 91.78466750000001 76.8" />
<path class="stroke" d="M 53.607275 77.0226144 C 51.69348 84.14441279999998 47.319175 87.9985344 42.329645 90.09316224" />
<path class="stroke" d="M 75.752385 77.02253472 C 78.34959 84.06050975999999 81.972105 87.57949728 87.02995000000001 90.09308255999998" />
</svg>
