<?xml version="1.0" standalone="no"?>
<!DOCTYPE svg PUBLIC "-//W3C//DTD SVG 1.1//EN" "http://www.w3.org/Graphics/SVG/1.1/DTD/svg11.dtd">
<svg xmlns="http://www.w3.org/2000/svg" version="1.1" width="100%" height="100%">
<style type="text/css"><![CDATA[
  .stroke { fill:none; stroke:black; stroke-width:2 }
]]></style>
<path class="stroke" d="M 10.736183314285713 27.956203 L 34.16058308571428 27.956203" />
<path class="stroke" d="M 24.550570285714283 9.270073 L 24.550570285714283 90.14598" />
<path class="stroke" d="M 24.550570285714283 36.131386 C 20.646504 44.598537 15.841500685714283 52.48175 8.93430617142857 56.861313" />
<path class="stroke" d="M 24.550570285714283 36.131386 C 29.055263657142856 37.299267 32.058391885714286 42.26277 33.559956 46.934303" />
<path class="stroke" d="M 42.1017405 7.279155 L 42.05301348 61.75" />
<path class="stroke" d="M 42.1017405 7.279155 L 64.66798349999999 7.279155" />
<path class="stroke" d="M 52.171140195 7.2792200000000005 L 52.171140195 23.682945" />
<path class="stroke" d="M 42.1017405 24.503121500000002 L 60.802043999999995 24.503121500000002 L 60.802043999999995 42.1372315" />
<path class="stroke" d="M 42.1017405 42.1372315 L 60.802043999999995 42.1372315" />
<path class="stroke" d="M 52.26104544 42.3423 L 52.26104544 58.951100000000004" />
<path class="stroke" d="M 42.1017405 59.156175000000005 L 64.84779 59.156175000000005" />
<path class="stroke" d="M 74.300494725 9.9108906 L 88.43762475 9.9108906 C 85.220791275 35.20297105 79.80297006 47.559408 70.32178215 58.371287" />
<path class="stroke" d="M 73.961881095 15.70297105 C 75.222579735 27.677417950000002 79.635483255 37.5322584 81.10645062 41.9354845 C 83.77257945 48.64516150000001 88.55322473999999 53.677416 93.0935643 58.371287" />
<path class="stroke" d="M 49.44306519 78.554744 L 85.55693025 78.554744" />
<path class="stroke" d="M 67.5 68.74452515 L 67.5 91.343063" />
<path class="stroke" d="M 44.61678741 91.343063 L 90.2167857 91.343063" />
</svg>
