<?xml version="1.0" standalone="no"?>
<!DOCTYPE svg PUBLIC "-//W3C//DTD SVG 1.1//EN" "http://www.w3.org/Graphics/SVG/1.1/DTD/svg11.dtd">
<svg xmlns="http://www.w3.org/2000/svg" version="1.1" width="100%" height="100%">
<style type="text/css"><![CDATA[
  .stroke { fill:none; stroke:black; stroke-width:2 }
]]></style>
<path class="stroke" d="M 9.245046742857141 27.956203 L 29.416057657142854 27.956203" />
<path class="stroke" d="M 21.140768857142856 9.270073 L 21.140768857142856 90.14598" />
<path class="stroke" d="M 21.140768857142856 36.131386 C 17.778934 44.598537 13.641292257142856 52.48175 7.693430314285713 56.861313" />
<path class="stroke" d="M 21.140768857142856 36.131386 C 25.019810371428573 37.299267 27.605837457142858 42.26277 28.898851 46.934303" />
<path class="stroke" d="M 45.51060818604651 13.941605 C 48.321675406976745 17.153284 49.72721102325582 21.240875 50.42997682558139 25.912407" />
<path class="stroke" d="M 38.01442772674419 29.416058 L 58.628923488372095 27.66423 C 54.412320651162794 39.927006 44.57358577906977 50.729923 36.140383313953485 57.44525" />
<path class="stroke" d="M 49.72721102325582 45.18248 L 49.72721102325582 89.56204" />
<path class="stroke" d="M 52.30402244186046 44.014595 C 55.58360046511628 46.642334 57.22338947674419 50.14598 58.628923488372095 54.233574" />
<path class="stroke" d="M 67.551604126 28.364963 L 67.551604126 72.510944" />
<path class="stroke" d="M 67.551604126 28.364963 L 91.80737049999999 28.364963 L 91.80737049999999 72.510944" />
<path class="stroke" d="M 67.692627085 49.235385799999996 L 91.66634898999999 49.235385799999996" />
<path class="stroke" d="M 67.551604126 70.5839384 L 91.80737049999999 70.5839384" />
<path class="stroke" d="M 79.75 9.854013 L 79.75 89.85401" />
</svg>
