<?xml version="1.0" standalone="no"?>
<!DOCTYPE svg PUBLIC "-//W3C//DTD SVG 1.1//EN" "http://www.w3.org/Graphics/SVG/1.1/DTD/svg11.dtd">
<svg xmlns="http://www.w3.org/2000/svg" version="1.1" width="100%" height="100%">
<style type="text/css"><![CDATA[
  .stroke { fill:none; stroke:black; stroke-width:2 }
]]></style>
<path class="stroke" d="M 11.034410628571429 27.956203 L 35.10948817142857 27.956203" />
<path class="stroke" d="M 25.232530571428573 9.270073 L 25.232530571428573 90.14598" />
<path class="stroke" d="M 25.232530571428573 36.131386 C 21.220018 44.598537 16.28154237142857 52.48175 9.182481342857143 56.861313" />
<path class="stroke" d="M 25.232530571428573 36.131386 C 29.862354314285717 37.299267 32.94890277142857 42.26277 34.492177000000005 46.934303" />
<path class="stroke" d="M 56.134304 15.109488 C 55.947443840000005 33.503647 53.89196992 58.029198 51.46277312 70.58394 C 63.42189696 71.75182 77.8102144 74.67153 89.395616 80.21897" />
<path class="stroke" d="M 56.134304 15.109488 L 82.73823999999999 15.109488 C 82.4817472 38.75912 81.73430400000001 61.824814 77.4364928 83.13868 C 76.87590847999999 85.76642 75.3810208 88.978096 73.69926784 88.978096" />
<path class="stroke" d="M 66.22481664 25.036495 C 69.0277344 27.080292 70.70948736 30.0 72.39124032000001 34.08759" />
<path class="stroke" d="M 64.9167872 53.941605 C 67.1591232 55.693428 69.0277344 58.029198 70.89634752 62.9927" />
<path class="stroke" d="M 42.68029184 44.890507 L 94.06714880000001 44.890507" />
</svg>
