<?xml version="1.0" standalone="no"?>
<!DOCTYPE svg PUBLIC "-//W3C//DTD SVG 1.1//EN" "http://www.w3.org/Graphics/SVG/1.1/DTD/svg11.dtd">
<svg xmlns="http://www.w3.org/2000/svg" version="1.1" width="100%" height="100%">
<style type="text/css"><![CDATA[
  .stroke { fill:none; stroke:black; stroke-width:2 }
]]></style>
<path class="stroke" d="M 11.630865257142858 27.956203 L 37.00729834285714 27.956203" />
<path class="stroke" d="M 26.596451142857145 9.270073 L 26.596451142857145 90.14598" />
<path class="stroke" d="M 26.596451142857145 36.131386 C 22.367046000000002 44.598537 17.161625742857144 52.48175 9.678831685714286 56.861313" />
<path class="stroke" d="M 26.596451142857145 36.131386 C 31.47653562857143 37.299267 34.72992454285715 42.26277 36.356619 46.934303" />
<path class="stroke" d="M 68.35330400000001 8.488742720000003 L 68.35330400000001 19.4010448" />
<path class="stroke" d="M 43.62145112 19.6382256 L 43.62145112 29.127187200000005" />
<path class="stroke" d="M 43.62145112 19.6382256 L 92.73187080000001 19.6382256 L 92.73187080000001 29.127187200000005" />
<path class="stroke" d="M 54.40671428 29.429780719999997 C 53.45021804 42.82306465599999 51.169342856 49.849048784 48.079123808 56.216349344" />
<path class="stroke" d="M 54.18598496 34.04058223999999 L 63.53021804000001 34.04058223999999 C 62.64729824 53.80116448 55.657517792 79.050802272 46.018977944 89.37021552" />
<path class="stroke" d="M 53.0087594 48.531677136 C 55.30707374 51.49014816 57.129050876 55.338099824 58.747736336 62.36408696" />
<path class="stroke" d="M 71.776016888 33.33622626784 L 86.83225484000002 33.33622626784 L 86.83225484000002 58.31114492384 C 86.81819702000001 60.295216414719995 86.27795564 61.655959707840005 85.05290048 61.655959707840005 L 82.45227308 61.655959707840005" />
<path class="stroke" d="M 71.775973292 33.55917621984 L 71.775973292 88.63784993919998 C 71.81675924000001 91.12402465599999 72.73409720000001 92.4854684672 73.965964676 92.4287060032 L 87.65344094000001 92.4287060032 C 88.97660096 92.4287060032 90.02597180000001 91.09079422719999 89.98036988000001 88.63784993919998 L 89.98036988000001 84.40102328319999" />
</svg>
