<?xml version="1.0" standalone="no"?>
<!DOCTYPE svg PUBLIC "-//W3C//DTD SVG 1.1//EN" "http://www.w3.org/Graphics/SVG/1.1/DTD/svg11.dtd">
<svg xmlns="http://www.w3.org/2000/svg" version="1.1" width="100%" height="100%">
<style type="text/css"><![CDATA[
  .stroke { fill:none; stroke:black; stroke-width:2 }
]]></style>
<path class="stroke" d="M 11.034410628571429 27.956203 L 35.10948817142857 27.956203" />
<path class="stroke" d="M 25.232530571428573 9.270073 L 25.232530571428573 90.14598" />
<path class="stroke" d="M 25.232530571428573 36.131386 C 21.220018 44.598537 16.28154237142857 52.48175 9.182481342857143 56.861313" />
<path class="stroke" d="M 25.232530571428573 36.131386 C 29.862354314285717 37.299267 32.94890277142857 42.26277 34.492177000000005 46.934303" />
<path class="stroke" d="M 62.47153078 10.686129600000001 C 58.039414300000004 21.19708 50.5240867 32.175180000000005 42.81605692 39.18248" />
<path class="stroke" d="M 60.15912178 16.7591232 L 77.3094904 16.7591232 C 70.37226340000001 35.9124056 55.5343051 58.102184 40.696350100000004 70.248168" />
<path class="stroke" d="M 52.83649636 28.2043792 C 60.400000000000006 45.1612912 75.96058042 61.138684000000005 92.3401456 70.248168" />
<path class="stroke" d="M 62.725605963999996 63.5315504 C 66.1678790224 64.4274284 69.481047844 67.1152044 71.7615611824 70.02684339999999" />
<path class="stroke" d="M 59.240326804 77.19400585 C 65.049166324 78.6125113 69.438040924 81.82285156 73.568751244 86.82493930000001" />
</svg>
