<?xml version="1.0" standalone="no"?>
<!DOCTYPE svg PUBLIC "-//W3C//DTD SVG 1.1//EN" "http://www.w3.org/Graphics/SVG/1.1/DTD/svg11.dtd">
<svg xmlns="http://www.w3.org/2000/svg" version="1.1" width="100%" height="100%">
<style type="text/css"><![CDATA[
  .stroke { fill:none; stroke:black; stroke-width:2 }
]]></style>
<path class="stroke" d="M 27.918 5.5205 C 21.8192 17.8233 14.4585 30.7571 4.88959 40.5363" />
<path class="stroke" d="M 27.918 5.83596 C 34.0168 11.8296 38.2229 18.4543 42.7445 25.0789" />
<path class="stroke" d="M 12.1451 33.59624 L 40.2208 33.59624" />
<path class="stroke" d="M 6.782335 51.57724 L 44.006287 51.57724" />
<path class="stroke" d="M 27.287043 33.9117 L 27.287043 88.1703" />
<path class="stroke" d="M 6.46688 61.672 C 10.7781 65.878 14.143 70.3996 17.5079 75.2366" />
<path class="stroke" d="M 43.06 61.6719 C 40.7466 67.4553 37.4868 72.2923 33.2807 77.1294" />
<path class="stroke" d="M 8.04416 94.4795 L 42.7445 83.7539" />
<path class="stroke" d="M 53.649050905 17.5104 L 91.35094673 17.5104" />
<path class="stroke" d="M 72.5 8.2634744064 L 72.5 28.145516544000007" />
<path class="stroke" d="M 60.873722040000004 30.960291152 L 60.873722040000004 67.97284352" />
<path class="stroke" d="M 60.873722040000004 30.960291152 L 83.99780984 30.960291152 L 83.99780984 67.8397052" />
<path class="stroke" d="M 60.873722040000004 42.266403488 L 83.99780984 42.266403488" />
<path class="stroke" d="M 60.873722040000004 54.96130304 L 83.99780984 54.96130304" />
<path class="stroke" d="M 60.873722040000004 66.64145576 L 83.99780984 66.64145576" />
<path class="stroke" d="M 50.2591231 80.0 L 94.7408725 80.0" />
<path class="stroke" d="M 62.436925 80.23188999999999 C 60.81756 87.65042999999999 57.116225 91.66514 52.894315 93.847044" />
<path class="stroke" d="M 81.175095 80.231807 C 83.37273 87.563031 86.43793500000001 91.228643 90.71765 93.846961" />
</svg>
