<?xml version="1.0" standalone="no"?>
<!DOCTYPE svg PUBLIC "-//W3C//DTD SVG 1.1//EN" "http://www.w3.org/Graphics/SVG/1.1/DTD/svg11.dtd">
<svg xmlns="http://www.w3.org/2000/svg" version="1.1" width="100%" height="100%">
<style type="text/css"><![CDATA[
  .stroke { fill:none; stroke:black; stroke-width:2 }
]]></style>
<path class="stroke" d="M 11.034410628571429 27.956203 L 35.10948817142857 27.956203" />
<path class="stroke" d="M 25.232530571428573 9.270073 L 25.232530571428573 90.14598" />
<path class="stroke" d="M 25.232530571428573 36.131386 C 21.220018 44.598537 16.28154237142857 52.48175 9.182481342857143 56.861313" />
<path class="stroke" d="M 25.232530571428573 36.131386 C 29.862354314285717 37.299267 32.94890277142857 42.26277 34.492177000000005 46.934303" />
<path class="stroke" d="M 54.879560350000006 13.941605 C 51.6532847 21.824816 47.0985397 29.124084 43.113137825 33.503647" />
<path class="stroke" d="M 56.5875907 35.839413 C 53.9306546 42.55474 48.0474435 54.525543 41.40510845 61.824814" />
<path class="stroke" d="M 51.6532847 47.226276 L 51.6532847 88.39416" />
<path class="stroke" d="M 68.92335505 18.321167 L 88.28102 18.321167" />
<path class="stroke" d="M 63.04014395 37.299267 L 93.594887 37.299267" />
<path class="stroke" d="M 79.5510949 37.59124 L 79.5510949 84.014595 C 79.5510949 87.81021 78.41240475000001 90.14598 77.08393799999999 90.14598 L 75.37590895 90.14598" />
</svg>
