<?xml version="1.0" standalone="no"?>
<!DOCTYPE svg PUBLIC "-//W3C//DTD SVG 1.1//EN" "http://www.w3.org/Graphics/SVG/1.1/DTD/svg11.dtd">
<svg xmlns="http://www.w3.org/2000/svg" version="1.1" width="100%" height="100%">
<style type="text/css"><![CDATA[
  .stroke { fill:none; stroke:black; stroke-width:2 }
]]></style>
<path class="stroke" d="M 11.929092571428571 27.956203 L 37.95620342857143 27.956203" />
<path class="stroke" d="M 27.278411428571427 9.270073 L 27.278411428571427 90.14598" />
<path class="stroke" d="M 27.278411428571427 36.131386 C 22.940559999999998 44.598537 17.601667428571428 52.48175 9.927006857142857 56.861313" />
<path class="stroke" d="M 27.278411428571427 36.131386 C 32.283626285714284 37.299267 35.620435428571426 42.26277 37.28884 46.934303" />
<path class="stroke" d="M 47.54890458 19.06277324 L 90.63211000000001 19.06277324" />
<path class="stroke" d="M 69.0905076 8.52262774 L 69.0905076 20.283210500000003 C 69.0905076 28.8262774 59.584026519999995 37.60738732 44.652553499999996 39.588322" />
<path class="stroke" d="M 69.0905076 20.172262279999998 C 69.0905076 28.937226 78.7981638 37.5872496 93.5284648 39.588322" />
<path class="stroke" d="M 44.2905107 51.27956179 L 93.7094862 51.27956179" />
<path class="stroke" d="M 82.1240856 51.44598412 L 82.1240856 90.5554705 C 82.1240856 92.05328229999999 80.85693208 93.3846712 78.6846728 93.3846712 L 76.8744526 93.3846712" />
<path class="stroke" d="M 54.323649416 60.724087299999994 L 54.323649416 74.57051019999999" />
<path class="stroke" d="M 54.323649416 60.724087299999994 L 70.1087584 60.724087299999994 L 70.1087584 74.43737188" />
<path class="stroke" d="M 54.323649416 73.50540044799999 L 70.1087584 73.50540044799999" />
</svg>
