<?xml version="1.0" standalone="no"?>
<!DOCTYPE svg PUBLIC "-//W3C//DTD SVG 1.1//EN" "http://www.w3.org/Graphics/SVG/1.1/DTD/svg11.dtd">
<svg xmlns="http://www.w3.org/2000/svg" version="1.1" width="100%" height="100%">
<style type="text/css"><![CDATA[
  .stroke { fill:none; stroke:black; stroke-width:2 }
]]></style>
<path class="stroke" d="M 11.929092571428571 27.956203 L 37.95620342857143 27.956203" />
<path class="stroke" d="M 27.278411428571427 9.270073 L 27.278411428571427 90.14598" />
<path class="stroke" d="M 27.278411428571427 36.131386 C 22.940559999999998 44.598537 17.601667428571428 52.48175 9.927006857142857 56.861313" />
<path class="stroke" d="M 27.278411428571427 36.131386 C 32.283626285714284 37.299267 35.620435428571426 42.26277 37.28884 46.934303" />
<path class="stroke" d="M 55.61559800249999 10.535421705882353 C 58.073408196900004 14.107771235294116 60.039656015700004 19.019750117647057 61.5143423007 23.708458588235292" />
<path class="stroke" d="M 81.668384127 10.535421705882353 C 80.66560082039999 14.956203235294117 78.59612138399999 20.136107529411763 76.50698423399999 23.931729" />
<path class="stroke" d="M 50.71021819 26.594888599999997 L 88.64598215999999 26.594888599999997 L 88.64598215999999 40.989049550000004" />
<path class="stroke" d="M 48.751094609999996 40.989049550000004 L 88.64598215999999 40.989049550000004" />
<path class="stroke" d="M 48.9291957 41.237224049999995 L 46.613867805 54.1423346 L 92.7423359 54.1423346 C 92.7423359 64.0693401 90.78320500000001 69.03284199999999 88.64598215999999 72.2591241 C 87.7056025 73.40568909999999 86.86496149999999 75.485396 84.90583670000001 75.7335705 L 82.5905085 75.7335705" />
<path class="stroke" d="M 69.4109461 26.594888599999997 L 69.4109461 91.5851066" />
<path class="stroke" d="M 68.037525 54.6485351 C 63.9580158 65.65472015 55.0292994 76.15681609999999 45.407854799999996 80.48368074999999" />
</svg>
