<?xml version="1.0" standalone="no"?>
<!DOCTYPE svg PUBLIC "-//W3C//DTD SVG 1.1//EN" "http://www.w3.org/Graphics/SVG/1.1/DTD/svg11.dtd">
<svg xmlns="http://www.w3.org/2000/svg" version="1.1" width="100%" height="100%">
<style type="text/css"><![CDATA[
  .stroke { fill:none; stroke:black; stroke-width:2 }
]]></style>
<path class="stroke" d="M 11.929092571428571 27.956203 L 37.95620342857143 27.956203" />
<path class="stroke" d="M 27.278411428571427 9.270073 L 27.278411428571427 90.14598" />
<path class="stroke" d="M 27.278411428571427 36.131386 C 22.940559999999998 44.598537 17.601667428571428 52.48175 9.927006857142857 56.861313" />
<path class="stroke" d="M 27.278411428571427 36.131386 C 32.283626285714284 37.299267 35.620435428571426 42.26277 37.28884 46.934303" />
<path class="stroke" d="M 53.80656827 7.39050975 C 52.91605733 14.83576575 47.216787679999996 22.7189775 43.83284562 24.47080125" />
<path class="stroke" d="M 51.13503545 18.777371249999998 L 51.13503545 67.8284625" />
<path class="stroke" d="M 72.32919387 7.60948875 C 71.26058123 12.4270065 69.30145826 16.587590249999998 66.45182374 18.996348750000003" />
<path class="stroke" d="M 51.13503545 18.57258 L 84.0839384 18.57258" />
<path class="stroke" d="M 67.3423359 18.996348750000003 L 67.3423359 67.8284625" />
<path class="stroke" d="M 51.13503545 35.843887499999994 L 81.7686102 35.843887499999994" />
<path class="stroke" d="M 51.13503545 51.843063 L 81.9467119 51.843063" />
<path class="stroke" d="M 51.13503545 67.8284625 L 87.64598215999999 67.8284625" />
<path class="stroke" d="M 49.35401418 77.00729 C 48.99780956 82.55474 47.572992299999996 87.22627 45.2576641 89.85401" />
<path class="stroke" d="M 59.50583914 77.88321 C 61.4649615 81.678825 62.53357475 85.18248 63.4240863 90.14598" />
<path class="stroke" d="M 74.11021575 78.17518 C 76.06933871999999 81.678825 76.95985027 85.47445 77.8503606 90.43795" />
<path class="stroke" d="M 87.64598215999999 78.17518 C 89.78320500000001 81.678825 91.029923 84.8905 92.0985393 90.43795" />
</svg>
