<?xml version="1.0" standalone="no"?>
<!DOCTYPE svg PUBLIC "-//W3C//DTD SVG 1.1//EN" "http://www.w3.org/Graphics/SVG/1.1/DTD/svg11.dtd">
<svg xmlns="http://www.w3.org/2000/svg" version="1.1" width="100%" height="100%">
<style type="text/css"><![CDATA[
  .stroke { fill:none; stroke:black; stroke-width:2 }
]]></style>
<path class="stroke" d="M 11.034410628571429 27.956203 L 35.10948817142857 27.956203" />
<path class="stroke" d="M 25.232530571428573 9.270073 L 25.232530571428573 90.14598" />
<path class="stroke" d="M 25.232530571428573 36.131386 C 21.220018 44.598537 16.28154237142857 52.48175 9.182481342857143 56.861313" />
<path class="stroke" d="M 25.232530571428573 36.131386 C 29.862354314285717 37.299267 32.94890277142857 42.26277 34.492177000000005 46.934303" />
<path class="stroke" d="M 43.12773684 17.445253 C 45.70291917 18.029196 48.2781015 20.364962 50.117516280000004 24.160583" />
<path class="stroke" d="M 41.840145989999996 47.226276 C 44.415327059999996 47.226276 47.54233521 46.934303 51.0372243 43.138683 C 46.2547431 53.357662 44.96715288 58.321167 45.51897744 60.9489 C 45.8868609 63.284668 49.19780952 65.62044 49.93357581 68.832115 C 50.853283829999995 72.33576 47.42142498 80.26506 42.94379448 83.722626" />
<path class="stroke" d="M 42.94379448 84.014595 C 61.00654212 81.65476 61.521898500000006 91.313866 92.9759085 90.14598" />
<path class="stroke" d="M 73.22504624999999 8.252376 C 72.03128823 11.558364000000001 69.41854089 14.712936 66.60308538 16.01262" />
<path class="stroke" d="M 58.541887935 16.763440000000003 L 58.541887935 74.07920800000001" />
<path class="stroke" d="M 58.541887935 16.763440000000003 L 84.55669213499999 16.763440000000003 L 84.55669213499999 37.962160000000004" />
<path class="stroke" d="M 58.710784634999996 37.962160000000004 L 84.55669213499999 37.962160000000004" />
<path class="stroke" d="M 58.541887935 53.8612 L 86.38128843300001 53.8612 L 86.38128843300001 74.07920800000001" />
<path class="stroke" d="M 58.545890262 74.07920800000001 L 86.38128843300001 74.07920800000001" />
</svg>
