<?xml version="1.0" standalone="no"?>
<!DOCTYPE svg PUBLIC "-//W3C//DTD SVG 1.1//EN" "http://www.w3.org/Graphics/SVG/1.1/DTD/svg11.dtd">
<svg xmlns="http://www.w3.org/2000/svg" version="1.1" width="100%" height="100%">
<style type="text/css"><![CDATA[
  .stroke { fill:none; stroke:black; stroke-width:2 }
]]></style>
<path class="stroke" d="M 11.034410628571429 27.956203 L 35.10948817142857 27.956203" />
<path class="stroke" d="M 25.232530571428573 9.270073 L 25.232530571428573 90.14598" />
<path class="stroke" d="M 25.232530571428573 36.131386 C 21.220018 44.598537 16.28154237142857 52.48175 9.182481342857143 56.861313" />
<path class="stroke" d="M 25.232530571428573 36.131386 C 29.862354314285717 37.299267 32.94890277142857 42.26277 34.492177000000005 46.934303" />
<path class="stroke" d="M 53.608757780000005 9.261557183333334 C 52.160582860000005 15.436739133333333 50.53138592 19.324816483333333 47.45401406 22.298052150000004" />
<path class="stroke" d="M 52.160582860000005 16.122870199999998 L 66.28029112 16.122870199999998" />
<path class="stroke" d="M 55.6 16.580291433333333 C 58.1343058 20.239659733333333 59.039414660000006 23.212895399999997 59.5824801 28.701945499999997" />
<path class="stroke" d="M 77.5036452 9.261557183333334 C 76.23649416 16.809000483333335 74.2452538 20.01094755 72.616055 22.298052150000004" />
<path class="stroke" d="M 76.055474 16.35158081666667 L 90.5372232 16.35158081666667" />
<path class="stroke" d="M 82.0291926 16.809000483333335 C 82.21021400000001 21.840630916666665 81.1240856 25.271287816666668 79.132844 28.701945499999997" />
<path class="stroke" d="M 44.831161968 36.32334142 L 64.43646964800001 36.32334142 L 64.43646964800001 66.83625559999999" />
<path class="stroke" d="M 45.159752048 52.098766399999995 L 64.217421168 52.098766399999995" />
<path class="stroke" d="M 45.050210448 66.83625559999999 L 64.43646964800001 66.83625559999999" />
<path class="stroke" d="M 44.831161968 36.32334142 L 44.831161968 87.38579299999999 M 39.792935824 89.66905299999999 L 63.56024448000001 81.36627739999999" />
<path class="stroke" d="M 59.836336992 76.1769933 C 63.012592032 78.2525885 64.984097792 83.23437229999999 65.641243232 88.63122249999999" />
<path class="stroke" d="M 74.73785495999999 36.323346025999996 L 92.41862064 36.323346025999996 L 92.41862064 72.02554299 C 92.41862064 74.93153747999999 91.16686048 76.38452978999999 89.60218086399999 76.38452978999999 L 86.942282656 76.38452978999999" />
<path class="stroke" d="M 74.73785495999999 36.323346025999996 L 74.73785495999999 92.367480732" />
</svg>
