<?xml version="1.0" standalone="no"?>
<!DOCTYPE svg PUBLIC "-//W3C//DTD SVG 1.1//EN" "http://www.w3.org/Graphics/SVG/1.1/DTD/svg11.dtd">
<svg xmlns="http://www.w3.org/2000/svg" version="1.1" width="100%" height="100%">
<style type="text/css"><![CDATA[
  .stroke { fill:none; stroke:black; stroke-width:2 }
]]></style>
<path class="stroke" d="M 11.034410628571429 27.956203 L 35.10948817142857 27.956203" />
<path class="stroke" d="M 25.232530571428573 9.270073 L 25.232530571428573 90.14598" />
<path class="stroke" d="M 25.232530571428573 36.131386 C 21.220018 44.598537 16.28154237142857 52.48175 9.182481342857143 56.861313" />
<path class="stroke" d="M 25.232530571428573 36.131386 C 29.862354314285717 37.299267 32.94890277142857 42.26277 34.492177000000005 46.934303" />
<path class="stroke" d="M 44.19603988 15.131785813793103 L 85.8039608 15.131785813793103" />
<path class="stroke" d="M 48.03366204 26.203823195862068 L 81.96633320000001 26.203823195862068" />
<path class="stroke" d="M 40.156435959999996 37.9401850275862 L 89.843562 37.9401850275862" />
<path class="stroke" d="M 64.7980196 7.381358751724139 C 64.713992 33.35623062068966 52.844388 51.308211241379304 37.5306928 60.305702268965526" />
<path class="stroke" d="M 68.6291124 26.062962186206896 C 72.9193684 41.89834480689655 78.943196 50.60265372413793 92.06534640000001 60.74858125931035" />
<path class="stroke" d="M 75.1946858544 50.569720114599995 C 67.9036193256 51.6580873129 60.834161424 52.5712223056 53.9544917604 52.740587614" />
<path class="stroke" d="M 46.9415488152 66.075918388 L 81.32248812 66.075918388" />
<path class="stroke" d="M 64.78010976000002 52.03361164 L 64.78010976000002 91.504723" />
<path class="stroke" d="M 64.78013460720001 66.098047492 C 58.43487142200001 73.911596332 50.783292727200006 80.666534092 40.1456804748 86.36290871199999" />
<path class="stroke" d="M 64.78013460720001 66.098047492 C 71.06316206400001 74.314867612 78.09267395040001 80.41451351199998 89.787834504 86.211658012" />
</svg>
