<?xml version="1.0" standalone="no"?>
<!DOCTYPE svg PUBLIC "-//W3C//DTD SVG 1.1//EN" "http://www.w3.org/Graphics/SVG/1.1/DTD/svg11.dtd">
<svg xmlns="http://www.w3.org/2000/svg" version="1.1" width="100%" height="100%">
<style type="text/css"><![CDATA[
  .stroke { fill:none; stroke:black; stroke-width:2 }
]]></style>
<path class="stroke" d="M 11.929092571428571 27.956203 L 37.95620342857143 27.956203" />
<path class="stroke" d="M 27.278411428571427 9.270073 L 27.278411428571427 90.14598" />
<path class="stroke" d="M 27.278411428571427 36.131386 C 22.940559999999998 44.598537 17.601667428571428 52.48175 9.927006857142857 56.861313" />
<path class="stroke" d="M 27.278411428571427 36.131386 C 32.283626285714284 37.299267 35.620435428571426 42.26277 37.28884 46.934303" />
<path class="stroke" d="M 69.0905076 9.601459859999999 L 69.0905076 20.85401318" />
<path class="stroke" d="M 45.01459816 21.09343104 L 92.6233578 21.09343104" />
<path class="stroke" d="M 56.3162478302 35.246817005 L 56.3162478302 59.64810087" />
<path class="stroke" d="M 56.3162478302 35.246817005 L 81.17779448 35.246817005 L 81.17779448 59.413473778" />
<path class="stroke" d="M 56.3162478302 57.771078508799995 L 81.17779448 57.771078508799995" />
<path class="stroke" d="M 69.00327794 58.45401441 L 69.00327794 87.6627707 C 69.00327794 88.50072664999999 68.00437734 88.9795595 67.28029112 88.9795595 L 66.0131376 88.9795595" />
<path class="stroke" d="M 54.608757780000005 69.3474434 C 53.7036483 73.5372252 50.98832048 77.12846644999999 47.18685992 80.00145986" />
<path class="stroke" d="M 81.76204279999999 69.3474434 C 85.38248010000001 71.86131329999999 88.45985071999999 75.21313832999999 90.27006968 80.24087443999998" />
</svg>
