<?xml version="1.0" standalone="no"?>
<!DOCTYPE svg PUBLIC "-//W3C//DTD SVG 1.1//EN" "http://www.w3.org/Graphics/SVG/1.1/DTD/svg11.dtd">
<svg xmlns="http://www.w3.org/2000/svg" version="1.1" width="100%" height="100%">
<style type="text/css"><![CDATA[
  .stroke { fill:none; stroke:black; stroke-width:2 }
]]></style>
<path class="stroke" d="M 11.034410628571429 27.956203 L 35.10948817142857 27.956203" />
<path class="stroke" d="M 25.232530571428573 9.270073 L 25.232530571428573 90.14598" />
<path class="stroke" d="M 25.232530571428573 36.131386 C 21.220018 44.598537 16.28154237142857 52.48175 9.182481342857143 56.861313" />
<path class="stroke" d="M 25.232530571428573 36.131386 C 29.862354314285717 37.299267 32.94890277142857 42.26277 34.492177000000005 46.934303" />
<path class="stroke" d="M 45.45474376 9.854013 L 45.45474376 70.87591 C 45.45474376 80.51095 41.627006709999996 85.76642 37.597808979999996 90.72992" />
<path class="stroke" d="M 45.45474376 9.854013 L 83.1277336 9.854013 L 83.1277336 50.437954 C 83.1277336 72.04379 86.9554741 88.10219 93.4021855 89.56204 L 93.4021855 77.00729" />
<path class="stroke" d="M 71.24160523 20.364962 C 67.81678678 22.70073 60.1613113 25.912407 56.53503562 26.204376" />
<path class="stroke" d="M 51.9014593 40.51095 L 51.9014593 60.07299" />
<path class="stroke" d="M 52.10291791 40.51095 L 76.6810222 40.51095 L 76.6810222 60.07299" />
<path class="stroke" d="M 52.10291791 60.07299 L 76.6810222 60.07299" />
<path class="stroke" d="M 64.19399766999999 24.160583 L 64.19399766999999 78.75912" />
<path class="stroke" d="M 51.09561796 84.8905 C 58.75109275 81.09489 70.23430597000001 78.75912 78.29270073999999 78.17518" />
<path class="stroke" d="M 74.86787953 70.0 C 77.48685939999999 74.379555 79.0985338 79.927 80.50875579999999 85.47445" />
</svg>
