<?xml version="1.0" standalone="no"?>
<!DOCTYPE svg PUBLIC "-//W3C//DTD SVG 1.1//EN" "http://www.w3.org/Graphics/SVG/1.1/DTD/svg11.dtd">
<svg xmlns="http://www.w3.org/2000/svg" version="1.1" width="100%" height="100%">
<style type="text/css"><![CDATA[
  .stroke { fill:none; stroke:black; stroke-width:2 }
]]></style>
<path class="stroke" d="M 16.49124066 9.854013 L 16.4637588 55.63759 C 12.97248291 80.20134 12.97248291 79.39597 9.070469339999999 89.865776" />
<path class="stroke" d="M 16.49124066 9.854013 L 37.3379568 9.854013 L 37.3379568 86.05839 C 37.3379568 88.39416 36.7423329 90.43795 35.25328284 90.43795 L 33.6153291 90.43795" />
<path class="stroke" d="M 16.49124066 31.862577 L 37.3379568 31.862577" />
<path class="stroke" d="M 16.49124066 55.110336 L 37.3379568 55.110336" />
<path class="stroke" d="M 49.0900988 27.28503 L 93.071004 27.28503" />
<path class="stroke" d="M 68.76831722 7.821783 C 66.817454 41.4959 58.937361 69.4523 48.3740688 84.7614" />
<path class="stroke" d="M 76.5818461844 44.28248072 C 74.322576134 58.76131235 68.93168177 74.975786 62.5743715624 86.55401359999999 C 72.0633056967 84.723356 80.3096419997 83.89124149999999 89.33810323 84.01296500000001" />
<path class="stroke" d="M 84.9411452935 73.57298864 C 87.539304536 76.73503399999998 89.79857458640001 81.56131235 91.26710151200001 88.0518197" />
</svg>
