<?xml version="1.0" standalone="no"?>
<!DOCTYPE svg PUBLIC "-//W3C//DTD SVG 1.1//EN" "http://www.w3.org/Graphics/SVG/1.1/DTD/svg11.dtd">
<svg xmlns="http://www.w3.org/2000/svg" version="1.1" width="100%" height="100%">
<style type="text/css"><![CDATA[
  .stroke { fill:none; stroke:black; stroke-width:2 }
]]></style>
<path class="stroke" d="M 13.90437938 9.854013 L 13.8812084 55.63759 C 10.937583629999999 80.20134 10.937583629999999 79.39597 7.647650619999999 89.865776" />
<path class="stroke" d="M 13.90437938 9.854013 L 31.4810224 9.854013 L 31.4810224 86.05839 C 31.4810224 88.39416 30.9788297 90.43795 29.72335612 90.43795 L 28.342336299999996 90.43795" />
<path class="stroke" d="M 13.90437938 31.862577 L 31.4810224 31.862577" />
<path class="stroke" d="M 13.90437938 55.110336 L 31.4810224 55.110336" />
<path class="stroke" d="M 52.260251499999995 6.297885285714286 C 55.0825385 9.324833142857143 57.3275215 12.351604571428572 59.3801105 17.13606792857143" />
<path class="stroke" d="M 81.1246646 6.297877857142858 C 79.45692460000001 10.691757142857144 77.7891236 14.206957142857142 74.19713859999999 17.72197142857143" />
<path class="stroke" d="M 40.906940649999996 18.307788571428574 L 92.47789676 18.307788571428574" />
<path class="stroke" d="M 44.17823218 31.48943571428572 L 89.2066034 31.48943571428572" />
<path class="stroke" d="M 44.17823218 44.08520071428572 L 89.2066034 44.08520071428572" />
<path class="stroke" d="M 66.88485937 18.600678571428574 L 66.88485937 58.7314" />
<path class="stroke" d="M 48.0268149 44.37812785714286 C 51.426344900000004 48.28382 53.863782900000004 53.06813571428572 55.9163719 58.7314" />
<path class="stroke" d="M 84.203481 44.37811857142857 C 82.535741 51.11544285714286 81.060395 55.216385714285714 77.66080400000001 58.43852857142857" />
<path class="stroke" d="M 41.09936942 59.02436428571429 L 92.6703237 59.02436428571429" />
<path class="stroke" d="M 51.040729496 70.675912 L 51.040729496 90.109488" />
<path class="stroke" d="M 51.040729496 70.675912 L 82.1017504 70.675912 L 82.1017504 89.9226272" />
<path class="stroke" d="M 51.040729496 88.61459712 L 82.1017504 88.61459712" />
</svg>
