<?xml version="1.0" standalone="no"?>
<!DOCTYPE svg PUBLIC "-//W3C//DTD SVG 1.1//EN" "http://www.w3.org/Graphics/SVG/1.1/DTD/svg11.dtd">
<svg xmlns="http://www.w3.org/2000/svg" version="1.1" width="100%" height="100%">
<style type="text/css"><![CDATA[
  .stroke { fill:none; stroke:black; stroke-width:2 }
]]></style>
<path class="stroke" d="M 15.197810019999999 9.854013 L 15.1724836 55.63759 C 11.95503327 80.20134 11.95503327 79.39597 8.35905998 89.865776" />
<path class="stroke" d="M 15.197810019999999 9.854013 L 34.4094896 9.854013 L 34.4094896 86.05839 C 34.4094896 88.39416 33.8605813 90.43795 32.488319479999994 90.43795 L 30.978832699999995 90.43795" />
<path class="stroke" d="M 15.197810019999999 31.862577 L 34.4094896 31.862577" />
<path class="stroke" d="M 15.197810019999999 55.110336 L 34.4094896 55.110336" />
<path class="stroke" d="M 85.5536457 7.29968 C 71.7881147 12.346976 62.2024287 13.457408 52.2823127 13.356512" />
<path class="stroke" d="M 45.09306092 24.8643104 L 92.5757323 24.8643104" />
<path class="stroke" d="M 53.954256 36.37229504 L 53.954256 67.8674912" />
<path class="stroke" d="M 53.954256 36.37229504 L 83.71450012 36.37229504 L 83.71450012 67.8674912" />
<path class="stroke" d="M 54.28866321 52.119900799999996 L 83.71452980000001 52.119900799999996" />
<path class="stroke" d="M 53.954256 67.8674912 L 83.71450012 67.8674912" />
<path class="stroke" d="M 68.8344088 12.448009279999999 L 68.8344088 92.3974784" />
<path class="stroke" d="M 48.93848705 79.9810976 L 88.3958714 79.9810976" />
<path class="stroke" d="M 44.92586765 92.70032 L 92.4085173 92.70032" />
</svg>
