<?xml version="1.0" standalone="no"?>
<!DOCTYPE svg PUBLIC "-//W3C//DTD SVG 1.1//EN" "http://www.w3.org/Graphics/SVG/1.1/DTD/svg11.dtd">
<svg xmlns="http://www.w3.org/2000/svg" version="1.1" width="100%" height="100%">
<style type="text/css"><![CDATA[
  .stroke { fill:none; stroke:black; stroke-width:2 }
]]></style>
<path class="stroke" d="M 15.52116768 9.854013 L 15.4953024 55.63759 C 12.209395679999998 80.20134 12.209395679999998 79.39597 8.536912319999999 89.865776" />
<path class="stroke" d="M 15.52116768 9.854013 L 35.1416064 9.854013 L 35.1416064 86.05839 C 35.1416064 88.39416 34.5810192 90.43795 33.17956032 90.43795 L 31.637956799999998 90.43795" />
<path class="stroke" d="M 15.52116768 31.862577 L 35.1416064 31.862577" />
<path class="stroke" d="M 15.52116768 55.110336 L 35.1416064 55.110336" />
<path class="stroke" d="M 66.08280089600001 10.398539320000001 C 65.95899263999999 12.9821514 62.99876224 15.979787400000001 60.340634879999996 16.0792394" />
<path class="stroke" d="M 54.153575808 16.17372202 L 54.153575808 47.870074" />
<path class="stroke" d="M 54.153575808 16.0796511 L 82.1304521216 16.0796511 L 82.1304521216 47.870074" />
<path class="stroke" d="M 54.153575808 31.0096135 L 82.1304521216 31.0096135" />
<path class="stroke" d="M 54.153575808 46.490837600000006 L 82.1304521216 46.490837600000006" />
<path class="stroke" d="M 68.00424960000001 47.83086656 L 68.00424960000001 86.83941328 C 68.00424960000001 88.205836 66.7854016 89.8759096 64.9167872 89.8759096 L 63.2350336 89.8759096" />
<path class="stroke" d="M 44.17518208 61.636494760000005 L 62.5893696 60.635056399999996 C 60.15641344 71.91246124 51.997985920000005 80.4732592 42.30656832 84.56204" />
<path class="stroke" d="M 89.608544 56.96353036 C 84.95281920000001 60.86545072 79.61069824 62.84033376 73.6104416 64.43387324" />
<path class="stroke" d="M 71.22436736 60.58557684 C 75.56025407999999 71.30984676 83.1146752 80.8210872 93.31970559999999 84.56204" />
</svg>
