<?xml version="1.0" standalone="no"?>
<!DOCTYPE svg PUBLIC "-//W3C//DTD SVG 1.1//EN" "http://www.w3.org/Graphics/SVG/1.1/DTD/svg11.dtd">
<svg xmlns="http://www.w3.org/2000/svg" version="1.1" width="100%" height="100%">
<style type="text/css"><![CDATA[
  .stroke { fill:none; stroke:black; stroke-width:2 }
]]></style>
<path class="stroke" d="M 15.52116768 9.854013 L 15.4953024 55.63759 C 12.209395679999998 80.20134 12.209395679999998 79.39597 8.536912319999999 89.865776" />
<path class="stroke" d="M 15.52116768 9.854013 L 35.1416064 9.854013 L 35.1416064 86.05839 C 35.1416064 88.39416 34.5810192 90.43795 33.17956032 90.43795 L 31.637956799999998 90.43795" />
<path class="stroke" d="M 15.52116768 31.862577 L 35.1416064 31.862577" />
<path class="stroke" d="M 15.52116768 55.110336 L 35.1416064 55.110336" />
<path class="stroke" d="M 68.19374752 8.686131 L 68.19374752 20.656933" />
<path class="stroke" d="M 45.82481712 20.656933 L 45.82481712 35.255474" />
<path class="stroke" d="M 45.82481712 20.656933 L 90.35620180000001 20.656933 L 90.35620180000001 35.255474" />
<path class="stroke" d="M 60.849633 30.583939 C 59.039414660000006 40.802917 54.33284586 50.437954 48.90218898 53.941605" />
<path class="stroke" d="M 74.4481178 28.832115 L 74.4481178 42.07301 C 74.6072966 47.226276 76.2071198 50.05671 79.1366198 49.95151 L 90.2774618 49.95161" />
<path class="stroke" d="M 50.64 65.0 L 85.36 65.0" />
<path class="stroke" d="M 67.60884200000001 65.0 L 67.60884200000001 90.72992" />
<path class="stroke" d="M 42.92846604 91.0 L 93.071529 91.0" />
</svg>
