<?xml version="1.0" standalone="no"?>
<!DOCTYPE svg PUBLIC "-//W3C//DTD SVG 1.1//EN" "http://www.w3.org/Graphics/SVG/1.1/DTD/svg11.dtd">
<svg xmlns="http://www.w3.org/2000/svg" version="1.1" width="100%" height="100%">
<style type="text/css"><![CDATA[
  .stroke { fill:none; stroke:black; stroke-width:2 }
]]></style>
<path class="stroke" d="M 11.8297 11.11512 L 88.8013 11.11512" />
<path class="stroke" d="M 38.64349 11.38956759 C 38.74869 19.16562759 36.96109 26.66720259 33.91159 33.61980672 L 51.57729 33.61980672 L 51.57729 63.53467320000001 C 51.89269 70.76176319999999 49.36909 81.28232172 41.16719 81.6482472 L 35.17349 81.6482472" />
<path class="stroke" d="M 11.41240845 43.5825543 L 11.41240845 64.7165682" />
<path class="stroke" d="M 11.41240845 43.5825543 L 33.68978 43.5825543 L 33.68978 64.51335708" />
<path class="stroke" d="M 11.41240845 63.090874367999994 L 33.68978 63.090874367999994" />
<path class="stroke" d="M 59.2962962962963 38.488800000000005 L 93.11111111111111 38.488800000000005 C 85.50619999999999 53.7051 75.86417037037037 65.92425 59.7037037037037 77.91285" />
<path class="stroke" d="M 67.03703703703704 47.01915 C 78.58027407407407 52.629215370000004 86.45676296296296 59.622534630000004 91.88888888888889 67.30755" />
<path class="stroke" d="M 9.562042 92.5 L 90.43795 92.5" />
</svg>
