<?xml version="1.0" standalone="no"?>
<!DOCTYPE svg PUBLIC "-//W3C//DTD SVG 1.1//EN" "http://www.w3.org/Graphics/SVG/1.1/DTD/svg11.dtd">
<svg xmlns="http://www.w3.org/2000/svg" version="1.1" width="100%" height="100%">
<style type="text/css"><![CDATA[
  .stroke { fill:none; stroke:black; stroke-width:2 }
]]></style>
<path class="stroke" d="M 13.376623 16.86389612 L 88.49351 16.86389612" />
<path class="stroke" d="M 50.14598 7.56642324 L 50.15584 38.31428412" />
<path class="stroke" d="M 50.14598 19.875911300000002 C 40.51095 33.81459692 28.832115 41.23649416 13.649633 45.037951" />
<path class="stroke" d="M 50.14598 19.875911300000002 C 59.197075 33.9956177 71.45985 41.41751494 86.642334 44.6759113" />
<path class="stroke" d="M 50.14598 43.0661594448 C 38.75912 52.51269962320001 25.912407 59.9217512784 9.854013 64.3671804952" />
<path class="stroke" d="M 50.14598 43.0661594448 C 61.824814 52.142246184 73.795616 59.9217512784 90.43795 64.1819553616" />
<path class="stroke" d="M 52.808104 58.64345861699999 L 52.808104 92.110784768 L 45.636124599999995 91.70837399" />
<path class="stroke" d="M 20.8664915 64.210471117 C 28.3272253 66.22251177 34.8926715 68.63696192 38.772249200000005 71.45382114" />
<path class="stroke" d="M 43.845550349999996 73.734134791 C 36.981674 77.892354731 26.53664725 80.97748823 12.8088993 82.85539152999999" />
<path class="stroke" d="M 80.5523505 63.137382540999994 C 77.5680642 66.490784768 72.494764 69.44178006 66.227747 71.051413778" />
<path class="stroke" d="M 62.97567185 73.73848464 C 77.26963119999999 76.55099486499999 82.64135775 78.831307235 93.1702695 83.2940529" />
</svg>
