<?xml version="1.0" standalone="no"?>
<!DOCTYPE svg PUBLIC "-//W3C//DTD SVG 1.1//EN" "http://www.w3.org/Graphics/SVG/1.1/DTD/svg11.dtd">
<svg xmlns="http://www.w3.org/2000/svg" version="1.1" width="100%" height="100%">
<style type="text/css"><![CDATA[
  .stroke { fill:none; stroke:black; stroke-width:2 }
]]></style>
<path class="stroke" d="M 14.5510947 9.854013 L 14.526846 55.63759 C 11.44630845 80.20134 11.44630845 79.39597 8.003355299999999 89.865776" />
<path class="stroke" d="M 14.5510947 9.854013 L 32.945256 9.854013 L 32.945256 86.05839 C 32.945256 88.39416 32.4197055 90.43795 31.1058378 90.43795 L 29.6605845 90.43795" />
<path class="stroke" d="M 14.5510947 31.862577 L 32.945256 31.862577" />
<path class="stroke" d="M 14.5510947 55.110336 L 32.945256 55.110336" />
<path class="stroke" d="M 44.29350626 16.86389612 L 90.8659762 16.86389612" />
<path class="stroke" d="M 67.0905076 7.56642324 L 67.0966208 38.31428412" />
<path class="stroke" d="M 67.0905076 19.875911300000002 C 61.116789 33.81459692 53.8759113 41.23649416 44.46277246 45.037951" />
<path class="stroke" d="M 67.0905076 19.875911300000002 C 72.7021865 33.9956177 80.30510699999999 41.41751494 89.71824708 44.6759113" />
<path class="stroke" d="M 67.0905076 43.0661594448 C 60.0306544 52.51269962320001 52.06569234 59.9217512784 42.109488060000004 64.3671804952" />
<path class="stroke" d="M 67.0905076 43.0661594448 C 74.33138468 52.142246184 81.75328192 59.9217512784 92.071529 64.1819553616" />
<path class="stroke" d="M 68.74102448 58.64345861699999 L 68.74102448 92.110784768 L 64.294397252 91.70837399" />
<path class="stroke" d="M 48.93722473 64.210471117 C 53.562879686 66.22251177 57.63345633 68.63696192 60.038794504 71.45382114" />
<path class="stroke" d="M 63.18424121699999 73.734134791 C 58.92863788 77.892354731 52.452721295 80.97748823 43.941517566 82.85539152999999" />
<path class="stroke" d="M 85.94245731000001 63.137382540999994 C 84.09219980399999 66.490784768 80.94675368 69.44178006 77.06120314 71.051413778" />
<path class="stroke" d="M 75.044916547 73.73848464 C 83.907171344 76.55099486499999 87.237641805 78.831307235 93.76556709 83.2940529" />
</svg>
