<?xml version="1.0" standalone="no"?>
<!DOCTYPE svg PUBLIC "-//W3C//DTD SVG 1.1//EN" "http://www.w3.org/Graphics/SVG/1.1/DTD/svg11.dtd">
<svg xmlns="http://www.w3.org/2000/svg" version="1.1" width="100%" height="100%">
<style type="text/css"><![CDATA[
  .stroke { fill:none; stroke:black; stroke-width:2 }
]]></style>
<path class="stroke" d="M 14.5510947 9.854013 L 14.526846 55.63759 C 11.44630845 80.20134 11.44630845 79.39597 8.003355299999999 89.865776" />
<path class="stroke" d="M 14.5510947 9.854013 L 32.945256 9.854013 L 32.945256 86.05839 C 32.945256 88.39416 32.4197055 90.43795 31.1058378 90.43795 L 29.6605845 90.43795" />
<path class="stroke" d="M 14.5510947 31.862577 L 32.945256 31.862577" />
<path class="stroke" d="M 14.5510947 55.110336 L 32.945256 55.110336" />
<path class="stroke" d="M 67.50352763000001 9.593268823599999 L 67.50352763000001 16.5380451446" />
<path class="stroke" d="M 49.77883144 16.756829713399995 L 85.22116734 16.756829713399995" />
<path class="stroke" d="M 54.83017312 16.97226818 L 59.75255287 32.143284031600004" />
<path class="stroke" d="M 79.79324460000001 16.9756838622 L 75.06933871999999 32.143284031600004" />
<path class="stroke" d="M 43.18905085 32.143284031600004 L 91.8109461 32.143284031600004" />
<path class="stroke" d="M 56.1905085 40.878872819399994 L 56.1905085 66.069878336" />
<path class="stroke" d="M 56.01240741 40.878872819399994 L 78.98759015 40.878872819399994 L 78.98759015 65.66357288399999" />
<path class="stroke" d="M 56.1905085 52.74139794 L 78.98759015 52.74139794" />
<path class="stroke" d="M 56.54671373 63.632038666 L 78.98759015 63.632038666" />
<path class="stroke" d="M 47.641633 76.04737279999999 C 47.128562 80.93188880000001 45.845732 84.1470728 43.600627 87.7331672" />
<path class="stroke" d="M 57.2630654 73.07956039999999 L 57.2630654 88.84613359999999 C 57.2630654 90.51552439999999 58.4176734 91.628432 60.149524400000004 91.628432 L 80.93185840000001 91.628432 C 82.5354264 91.628432 83.9466004 90.33001039999999 84.01071139999999 88.28965039999999 L 84.01071139999999 85.136324" />
<path class="stroke" d="M 64.57541599999999 73.07957215999998 C 67.91083499999999 75.92372816 70.091707 78.95339816 72.080124 82.91046175999999" />
<path class="stroke" d="M 84.01068699999999 73.26507439999999 C 88.051693 76.72745359999999 90.553303 80.190068 93.054852 84.95086880000001" />
</svg>
