<?xml version="1.0" standalone="no"?>
<!DOCTYPE svg PUBLIC "-//W3C//DTD SVG 1.1//EN" "http://www.w3.org/Graphics/SVG/1.1/DTD/svg11.dtd">
<svg xmlns="http://www.w3.org/2000/svg" version="1.1" width="100%" height="100%">
<style type="text/css"><![CDATA[
  .stroke { fill:none; stroke:black; stroke-width:2 }
]]></style>
<path class="stroke" d="M 16.167883 9.854013 L 16.14094 55.63759 C 12.7181205 80.20134 12.7181205 79.39597 8.892617 89.865776" />
<path class="stroke" d="M 16.167883 9.854013 L 36.60584 9.854013 L 36.60584 86.05839 C 36.60584 88.39416 36.021895 90.43795 34.562042 90.43795 L 32.956205 90.43795" />
<path class="stroke" d="M 16.167883 31.862577 L 36.60584 31.862577" />
<path class="stroke" d="M 16.167883 55.110336 L 36.60584 55.110336" />
<path class="stroke" d="M 68.0905076 9.562042 L 68.0905076 42.26277" />
<path class="stroke" d="M 50.3503639 15.985401 C 53.427737 20.364962 55.23795596 24.452553 56.505106999999995 31.167881" />
<path class="stroke" d="M 84.0204342 16.569342 C 83.1153241 22.992699 81.1240856 27.080292 78.22773452 30.875912" />
<path class="stroke" d="M 47.45401406 42.1136 L 88.5459816 42.1136" />
<path class="stroke" d="M 62.297808540000005 47.518246 C 60.4875902 66.20438 54.1518226 82.26277 47.091969399999996 87.51824" />
<path class="stroke" d="M 70.80583666 47.810215 L 70.80583666 83.13868 C 70.80583666 87.51824 72.43503484 89.56204 74.96934250000001 89.56204 L 90.35620180000001 89.56204 C 91.6233578 89.56204 92.7094862 87.81021 92.7094862 86.05839 L 92.7094862 82.55474" />
</svg>
