<?xml version="1.0" standalone="no"?>
<!DOCTYPE svg PUBLIC "-//W3C//DTD SVG 1.1//EN" "http://www.w3.org/Graphics/SVG/1.1/DTD/svg11.dtd">
<svg xmlns="http://www.w3.org/2000/svg" version="1.1" width="100%" height="100%">
<style type="text/css"><![CDATA[
  .stroke { fill:none; stroke:black; stroke-width:2 }
]]></style>
<path class="stroke" d="M 14.22773704 9.854013 L 14.2040272 55.63759 C 11.19194604 80.20134 11.19194604 79.39597 7.82550296 89.865776" />
<path class="stroke" d="M 14.22773704 9.854013 L 32.2131392 9.854013 L 32.2131392 86.05839 C 32.2131392 88.39416 31.699267600000002 90.43795 30.414596959999997 90.43795 L 29.0014604 90.43795" />
<path class="stroke" d="M 14.22773704 31.862577 L 32.2131392 31.862577" />
<path class="stroke" d="M 14.22773704 55.110336 L 32.2131392 55.110336" />
<path class="stroke" d="M 65.49999748 7.85 C 66.99702616 10.443069378 67.25981995000001 12.735975360000001 67.33891645 15.32162094" />
<path class="stroke" d="M 42.00270226 16.26540378 L 92.47081030000001 15.950810469999999" />
<path class="stroke" d="M 41.79837814 16.57999806 L 42.00270226 41.4329714 C 42.00270226 62.465646299999996 43.17301609 80.29629784999999 38.120540641 92.39729034999999" />
<path class="stroke" d="M 56.60459620701471 28.6087077023 C 54.41379783377941 40.9963854677 49.863678002323525 52.4664591314 45.98764935642647 58.889696486" />
<path class="stroke" d="M 53.23413623888235 43.5198008723 L 53.23413623888235 90.547097315" />
<path class="stroke" d="M 65.57651793016 43.290400829 L 89.54337208839999 43.290400829" />
<path class="stroke" d="M 83.5702215316 26.7734963561 L 83.5702215316 86.18846585 C 83.5702215316 88.25308116800001 82.47118449039999 90.31769648599999 80.70313860016 90.31769648599999 L 77.5599436636 90.31769648599999" />
<path class="stroke" d="M 66.55876609552 51.319453415 C 69.5055105916 53.1546631898 71.2735591732 56.1368818238 72.2558046472 59.5779036872" />
</svg>
