<?xml version="1.0" standalone="no"?>
<!DOCTYPE svg PUBLIC "-//W3C//DTD SVG 1.1//EN" "http://www.w3.org/Graphics/SVG/1.1/DTD/svg11.dtd">
<svg xmlns="http://www.w3.org/2000/svg" version="1.1" width="100%" height="100%">
<style type="text/css"><![CDATA[
  .stroke { fill:none; stroke:black; stroke-width:2 }
]]></style>
<path class="stroke" d="M 13.90437938 9.854013 L 13.8812084 55.63759 C 10.937583629999999 80.20134 10.937583629999999 79.39597 7.647650619999999 89.865776" />
<path class="stroke" d="M 13.90437938 9.854013 L 31.4810224 9.854013 L 31.4810224 86.05839 C 31.4810224 88.39416 30.9788297 90.43795 29.72335612 90.43795 L 28.342336299999996 90.43795" />
<path class="stroke" d="M 13.90437938 31.862577 L 31.4810224 31.862577" />
<path class="stroke" d="M 13.90437938 55.110336 L 31.4810224 55.110336" />
<path class="stroke" d="M 44.0946312 18.13327015 L 44.0946312 46.12223115" />
<path class="stroke" d="M 44.0946312 18.13327015 L 89.6655612 18.13327015 L 89.6655612 46.12223115" />
<path class="stroke" d="M 59.1545614 8.51656305 L 59.1545614 46.122217500000005" />
<path class="stroke" d="M 74.214504 8.373030115 L 74.214504 45.9786832" />
<path class="stroke" d="M 44.2902288 32.0559835 L 89.4700628 32.0559835" />
<path class="stroke" d="M 44.0946312 46.12223115 L 89.6655612 46.12223115" />
<path class="stroke" d="M 45.072582 54.4471614 L 92.794974 54.4471614" />
<path class="stroke" d="M 45.072582 54.4471614 L 45.072582 76.120686 C 44.6162 82.6753705 42.399575999999996 87.3641 38.42271 90.904546" />
<path class="stroke" d="M 53.6782068 62.9155941 L 88.1009168 62.9155941" />
<path class="stroke" d="M 45.268165960000005 71.95818220000001 L 92.40378748 71.95818220000001" />
<path class="stroke" d="M 54.265012 72.81940711 L 54.265012 91.33517619999999 M 44.4858078 93.20108570000001 L 69.3249298 88.75154970000001" />
<path class="stroke" d="M 88.29656399999999 75.115929975 C 86.145102 78.752107975 82.820166 81.38355543 78.32181800000001 82.72321102000001" />
<path class="stroke" d="M 68.738168 72.10171650000001 C 70.36802399999999 85.833025 77.669826 90.665307 91.817048 92.91400800000001" />
</svg>
