<?xml version="1.0" standalone="no"?>
<!DOCTYPE svg PUBLIC "-//W3C//DTD SVG 1.1//EN" "http://www.w3.org/Graphics/SVG/1.1/DTD/svg11.dtd">
<svg xmlns="http://www.w3.org/2000/svg" version="1.1" width="100%" height="100%">
<style type="text/css"><![CDATA[
  .stroke { fill:none; stroke:black; stroke-width:2 }
]]></style>
<path class="stroke" d="M 8.115151000000001 5.375376 L 8.03479416 45.6" />
<path class="stroke" d="M 8.115151000000001 5.375376 L 45.329657 5.375376" />
<path class="stroke" d="M 24.720827689999997 5.375424 L 24.720827689999997 17.488944" />
<path class="stroke" d="M 8.115151000000001 18.0946128 L 38.954248 18.0946128 L 38.954248 31.1167248" />
<path class="stroke" d="M 8.115151000000001 31.1167248 L 38.954248 31.1167248" />
<path class="stroke" d="M 24.86909248 31.268159999999998 L 24.86909248 43.53312" />
<path class="stroke" d="M 8.115151000000001 43.68456 L 45.62618 43.68456" />
<path class="stroke" d="M 61.21485095 7.31881152 L 84.52871449999999 7.31881152 C 79.22376105 25.99604016 70.28910852 35.1207936 54.6534653 43.1049504" />
<path class="stroke" d="M 60.65643548999999 11.59604016 C 62.73548237 20.43870864 70.01290221000001 27.71612928 72.43870804 30.967742400000002 C 76.83548189999999 35.9225808 84.71935308 39.6387072 92.2069306 43.1049504" />
<path class="stroke" d="M 32.335766 52.9270065 L 32.335766 78.47445 C 32.335766 84.138615 32.335766 86.51485 32.335766 92.00990300000001" />
<path class="stroke" d="M 32.335766 52.9270065 L 73.21168 52.9270065 L 73.21168 91.029195 C 73.21168 92.19708 72.04379 93.218975 69.124084 93.218975 L 65.91241 93.218975" />
<path class="stroke" d="M 32.335766 63.9312885 L 73.21168 63.9312885" />
<path class="stroke" d="M 32.335766 75.555168 L 73.21168 75.555168" />
</svg>
