<?xml version="1.0" standalone="no"?>
<!DOCTYPE svg PUBLIC "-//W3C//DTD SVG 1.1//EN" "http://www.w3.org/Graphics/SVG/1.1/DTD/svg11.dtd">
<svg xmlns="http://www.w3.org/2000/svg" version="1.1" width="100%" height="100%">
<style type="text/css"><![CDATA[
  .stroke { fill:none; stroke:black; stroke-width:2 }
]]></style>
<path class="stroke" d="M 10.392699239999999 23.5956198 L 10.392699239999999 79.51386240000001" />
<path class="stroke" d="M 10.392699239999999 23.5956198 L 31.484669999999998 23.5956198 L 31.484669999999998 79.51386240000001" />
<path class="stroke" d="M 10.515327899999999 50.03148868 L 31.362042600000002 50.03148868" />
<path class="stroke" d="M 10.392699239999999 77.07298863999999 L 31.484669999999998 77.07298863999999" />
<path class="stroke" d="M 52.505837889999995 10.145985 C 51.297080019999996 19.197079 47.670802269999996 25.036495 43.44014524 28.832115" />
<path class="stroke" d="M 50.0883187 19.781021 L 85.1423335 19.781021" />
<path class="stroke" d="M 52.505837889999995 33.16715261 C 51.7 49.08247997 48.476640849999995 63.15255298 46.059123039999996 70.99488772000001 C 59.95985338 72.60948340000002 78.29270073999999 75.8386795 88.97007055 86.6795572" />
<path class="stroke" d="M 52.505837889999995 33.16715261 L 81.91897503999999 33.16715261 C 81.314593 50.46642093 78.69561795999999 73.53211334 73.65912166 84.37298630000001 C 72.04744036 87.14087454000001 69.42846531999999 88.2941592 67.01094613 88.2941592" />
<path class="stroke" d="M 67.01094613 33.397809699999996 C 66.60802615 49.31313627 65.19780897999999 61.99926832 61.77299053 73.07080389999999" />
<path class="stroke" d="M 38.00072965 54.387588300000004 L 93.20072619999999 54.387588300000004" />
</svg>
