<?xml version="1.0" standalone="no"?>
<!DOCTYPE svg PUBLIC "-//W3C//DTD SVG 1.1//EN" "http://www.w3.org/Graphics/SVG/1.1/DTD/svg11.dtd">
<svg xmlns="http://www.w3.org/2000/svg" version="1.1" width="100%" height="100%">
<style type="text/css"><![CDATA[
  .stroke { fill:none; stroke:black; stroke-width:2 }
]]></style>
<path class="stroke" d="M 8.16569226 17.57153215 L 8.16569226 78.64013920000001" />
<path class="stroke" d="M 8.16569226 17.57153215 L 24.737955 17.57153215 L 24.737955 78.64013920000001" />
<path class="stroke" d="M 8.26204335 46.44228369 L 24.6416049 46.44228369" />
<path class="stroke" d="M 8.16569226 75.97444811999999 L 24.737955 75.97444811999999" />
<path class="stroke" d="M 45.073720179999995 7.586788045 L 45.073720179999995 31.79350096" />
<path class="stroke" d="M 45.073720179999995 7.586788045 L 79.72481499999999 7.586788045 L 79.72481499999999 31.79350096" />
<path class="stroke" d="M 45.27518155 19.030736546999997 L 79.5233557 19.030736546999997" />
<path class="stroke" d="M 45.073720179999995 30.736859555999995 L 79.72481499999999 30.736859555999995" />
<path class="stroke" d="M 38.33913733 44.443050127999996 L 86.8785694 44.443050127999996" />
<path class="stroke" d="M 51.616719700000004 35.857884616 L 51.616719700000004 56.1334276576" />
<path class="stroke" d="M 73.3832803 35.675226448 L 73.3832803 56.133404496000004" />
<path class="stroke" d="M 32.462145129999996 56.316091616 L 92.97319795 56.316091616" />
<path class="stroke" d="M 49.875415 57.04675324 C 47.843847999999994 60.92834787999999 43.200355 63.02896023999999 37.903777 64.17059550399999" />
<path class="stroke" d="M 73.383301 57.046709812 C 76.140334 60.882618196 79.985773 62.800572388 85.35487 64.17055207599999" />
<path class="stroke" d="M 61.76866071999999 65.32986122 L 61.76866071999999 89.85432726999998 C 61.829576679999995 92.03033984999999 60.79348372 93.14782124999998 58.66038184 93.03020045999997 L 57.19764531999999 93.03020045999997" />
<path class="stroke" d="M 45.678767656 69.564310334 C 48.908936415999996 71.269783824 51.042038296 73.50469069399999 53.17519813599999 76.445210444" />
<path class="stroke" d="M 39.279415648 90.73651115999998 C 44.58178192 87.14899317 49.33560316 84.62011821999998 55.73496675999999 82.09118733999999" />
<path class="stroke" d="M 78.58984089999998 70.09362066799999 C 76.27381725999999 73.15187306799999 73.77504574 75.15142649799999 70.91054661999999 76.97457670799999" />
<path class="stroke" d="M 68.533717144 81.56188259899999 C 72.921810784 85.38464216899999 77.67563202400001 88.501676999 82.79512290399998 91.44230860899998" />
</svg>
