<?xml version="1.0" standalone="no"?>
<!DOCTYPE svg PUBLIC "-//W3C//DTD SVG 1.1//EN" "http://www.w3.org/Graphics/SVG/1.1/DTD/svg11.dtd">
<svg xmlns="http://www.w3.org/2000/svg" version="1.1" width="100%" height="100%">
<style type="text/css"><![CDATA[
  .stroke { fill:none; stroke:black; stroke-width:2 }
]]></style>
<path class="stroke" d="M 24.744522 6.99489015 L 24.744522 38.6328432" />
<path class="stroke" d="M 24.744522 6.99489015 L 74.9635 6.99489015 L 74.9635 38.6328432" />
<path class="stroke" d="M 25.036495 21.952026489999998 L 74.67153 21.952026489999998" />
<path class="stroke" d="M 24.744522 37.25182252 L 74.9635 37.25182252" />
<path class="stroke" d="M 50.14598 42.11970688 L 50.14598 63.0481728" />
<path class="stroke" d="M 21.532845 46.23065664 C 26.49635 49.03357568 29.416058 51.64963392 31.45985 55.947443840000005" />
<path class="stroke" d="M 75.83941 46.60437888 C 74.379555 50.71532736 71.16788 53.33138688 66.496346 55.760583679999996" />
<path class="stroke" d="M 16.861313 62.952704 L 83.13868 62.952704" />
<path class="stroke" d="M 40.802917 66.41167744 C 37.88321 78.37080320000001 27.66423 88.6481728 16.27737 92.0116736" />
<path class="stroke" d="M 54.525543 66.5985376 L 54.525543 89.2087552 C 54.525543 92.0116736 57.153282 93.31970559999999 61.240875 93.31970559999999 L 86.05839 93.31970559999999 C 88.10219 93.31970559999999 89.85401 92.1985344 89.85401 91.0773696 L 89.85401 88.8350336" />
</svg>
