<?xml version="1.0" standalone="no"?>
<!DOCTYPE svg PUBLIC "-//W3C//DTD SVG 1.1//EN" "http://www.w3.org/Graphics/SVG/1.1/DTD/svg11.dtd">
<svg xmlns="http://www.w3.org/2000/svg" version="1.1" width="100%" height="100%">
<style type="text/css"><![CDATA[
  .stroke { fill:none; stroke:black; stroke-width:2 }
]]></style>
<path class="stroke" d="M 10.392699239999999 14.5474445 L 10.392699239999999 80.766416" />
<path class="stroke" d="M 10.392699239999999 14.5474445 L 31.484669999999998 14.5474445 L 31.484669999999998 80.766416" />
<path class="stroke" d="M 10.515327899999999 45.8530787 L 31.362042600000002 45.8530787" />
<path class="stroke" d="M 10.392699239999999 77.87590759999999 L 31.484669999999998 77.87590759999999" />
<path class="stroke" d="M 41.8714282 15.246752 L 91.912986 15.246752" />
<path class="stroke" d="M 44.06204325 43.722626 L 44.06204325 90.43795" />
<path class="stroke" d="M 44.06204325 43.722626 L 91.127734 43.722626 L 91.127734 90.43795" />
<path class="stroke" d="M 60.572990950000005 15.401459 L 60.572990950000005 35.839413 C 60.572990950000005 55.985397 54.6897805 70.29197 48.0474435 74.087585" />
<path class="stroke" d="M 74.0474435 15.109488 L 74.0474435 55.693428 C 74.0474435 66.788315 81.4489025 69.124084 82.96715040000001 69.124084 L 86.193428 69.124084" />
<path class="stroke" d="M 44.06204325 85.76642 L 91.127734 85.76642" />
</svg>
