<?xml version="1.0" standalone="no"?>
<!DOCTYPE svg PUBLIC "-//W3C//DTD SVG 1.1//EN" "http://www.w3.org/Graphics/SVG/1.1/DTD/svg11.dtd">
<svg xmlns="http://www.w3.org/2000/svg" version="1.1" width="100%" height="100%">
<style type="text/css"><![CDATA[
  .stroke { fill:none; stroke:black; stroke-width:2 }
]]></style>
<path class="stroke" d="M 8.840169642857143 9.90099 L 41.19519196428572 9.90099" />
<path class="stroke" d="M 15.470297321428573 9.90099 L 15.470297321428573 70.19802" />
<path class="stroke" d="M 15.470297321428573 28.613861 L 33.76944642857143 28.613861" />
<path class="stroke" d="M 15.470297321428573 47.92079 L 33.76944642857143 47.92079" />
<path class="stroke" d="M 9.105374107142858 72.871284 L 33.73016071428572 63.055557" />
<path class="stroke" d="M 33.76944642857143 9.90099 L 33.76944642857143 89.80198" />
<path class="stroke" d="M 46.087591 16.66 L 93.912406 16.66" />
<path class="stroke" d="M 70.0 6.01386856 L 70.0 28.9043776" />
<path class="stroke" d="M 48.1897798 34.41240658333333 L 48.1897798 59.846309833333336" />
<path class="stroke" d="M 48.1897798 34.41240658333333 L 91.9854004 34.41240658333333 L 91.9854004 59.846309833333336" />
<path class="stroke" d="M 62.050498000000005 34.41240658333333 L 62.050498000000005 59.846309833333336" />
<path class="stroke" d="M 77.9495536 34.41240658333333 L 77.9495536 59.846309833333336" />
<path class="stroke" d="M 48.1897798 59.85826583333333 L 92.099008 59.85826583333333" />
<path class="stroke" d="M 50.46718 74.13248 C 49.96252 80.77808 48.700720000000004 85.15248000000001 46.49242 90.03152" />
<path class="stroke" d="M 59.930884 70.09464 L 59.930884 91.54576 C 59.930884 93.81704 61.066564 95.33120000000001 62.770024 95.33120000000001 L 83.211664 95.33120000000001 C 84.788944 95.33120000000001 86.176984 93.56464 86.240044 90.78864 L 86.240044 86.4984" />
<path class="stroke" d="M 67.12335999999999 70.094656 C 70.4041 73.964256 72.54921999999999 78.086256 74.50504000000001 83.470016" />
<path class="stroke" d="M 86.24001999999999 70.34703999999999 C 90.21477999999999 75.05776 92.67537999999999 79.7688 95.13592 86.24607999999999" />
</svg>
