<?xml version="1.0" standalone="no"?>
<!DOCTYPE svg PUBLIC "-//W3C//DTD SVG 1.1//EN" "http://www.w3.org/Graphics/SVG/1.1/DTD/svg11.dtd">
<svg xmlns="http://www.w3.org/2000/svg" version="1.1" width="100%" height="100%">
<style type="text/css"><![CDATA[
  .stroke { fill:none; stroke:black; stroke-width:2 }
]]></style>
<path class="stroke" d="M 24.744522 6.7401457 L 24.744522 31.756201600000004" />
<path class="stroke" d="M 24.744522 6.7401457 L 74.9635 6.7401457 L 74.9635 31.756201600000004" />
<path class="stroke" d="M 25.036495 18.56671862 L 74.67153 18.56671862" />
<path class="stroke" d="M 24.744522 30.66423176 L 74.9635 30.66423176" />
<path class="stroke" d="M 17.921177999999998 42.1182972 L 93.35334599999999 42.1182972" />
<path class="stroke" d="M 17.921177999999998 42.1182972 L 17.921177999999998 70.222428 C 17.1998 78.72190900000001 13.696103999999998 84.80179999999999 7.41009 89.392708" />
<path class="stroke" d="M 31.5236172 53.0993418 L 85.9337072 53.0993418" />
<path class="stroke" d="M 18.23032684 64.82489559999999 L 92.73501892 64.82489559999999" />
<path class="stroke" d="M 32.451148 65.94164878000001 L 32.451148 89.9511076 M 16.993696200000002 92.3706386 L 56.25553419999999 86.60091059999999" />
<path class="stroke" d="M 86.24295599999999 68.91955755000001 C 82.84225799999999 73.63460155 77.586714 77.04680814 70.476422 78.78394396" />
<path class="stroke" d="M 55.328072 65.011017 C 57.904296 82.81645 69.445854 89.082486 91.807592 91.998384" />
</svg>
