<?xml version="1.0" standalone="no"?>
<!DOCTYPE svg PUBLIC "-//W3C//DTD SVG 1.1//EN" "http://www.w3.org/Graphics/SVG/1.1/DTD/svg11.dtd">
<svg xmlns="http://www.w3.org/2000/svg" version="1.1" width="100%" height="100%">
<style type="text/css"><![CDATA[
  .stroke { fill:none; stroke:black; stroke-width:2 }
]]></style>
<path class="stroke" d="M 24.744522 8.15839385 L 24.744522 35.381748800000004" />
<path class="stroke" d="M 24.744522 8.15839385 L 74.9635 8.15839385 L 74.9635 35.381748800000004" />
<path class="stroke" d="M 25.036495 21.02848791 L 74.67153 21.02848791" />
<path class="stroke" d="M 24.744522 34.19342868 L 74.9635 34.19342868" />
<path class="stroke" d="M 50.14598 37.6582116825 L 50.14598 44.1136854675" />
<path class="stroke" d="M 12.4817505 44.26039989 L 12.4817505 51.302735887500006" />
<path class="stroke" d="M 12.4817505 44.26039989 L 87.81021 44.26039989 L 87.81021 51.302735887500006" />
<path class="stroke" d="M 45.247524 53.139801752 C 44.059406 61.737029496000005 36.633663 72.24475312800001 29.504951 77.18019824800001 C 45.766422 79.0686104 68.832115 85.17196736 80.51095 92.84029102400001" />
<path class="stroke" d="M 68.71287 62.851485520000004 C 61.287132 81.00119056000001 45.841583 87.84713264 22.992699 92.37080112000001" />
<path class="stroke" d="M 9.854013 65.45342944800001 L 89.85401 65.45342944800001" />
</svg>
