<?xml version="1.0" standalone="no"?>
<!DOCTYPE svg PUBLIC "-//W3C//DTD SVG 1.1//EN" "http://www.w3.org/Graphics/SVG/1.1/DTD/svg11.dtd">
<svg xmlns="http://www.w3.org/2000/svg" version="1.1" width="100%" height="100%">
<style type="text/css"><![CDATA[
  .stroke { fill:none; stroke:black; stroke-width:2 }
]]></style>
<path class="stroke" d="M 9.15547314 12.96569265 L 9.15547314 81.3919632" />
<path class="stroke" d="M 9.15547314 12.96569265 L 27.736494999999998 12.96569265 L 27.736494999999998 81.3919632" />
<path class="stroke" d="M 9.26350315 45.314847990000004 L 27.6284661 45.314847990000004" />
<path class="stroke" d="M 9.15547314 78.40510452 L 27.736494999999998 78.40510452" />
<path class="stroke" d="M 38.30802819 9.175180999999995 L 38.30802819 19.189777899999996" />
<path class="stroke" d="M 38.30802819 8.766420899999996 L 88.8919674 8.766420899999996 L 88.8919674 19.3941569" />
<path class="stroke" d="M 45.88471661 22.1020447 L 82.9095728 22.1020447" />
<path class="stroke" d="M 46.242435776 35.7129207 L 46.242435776 70.8287374" />
<path class="stroke" d="M 46.242435776 35.7129207 L 82.19415488000001 35.7129207 L 82.19415488000001 70.8287374" />
<path class="stroke" d="M 46.421268143 53.40685482 L 82.01526921499999 53.40685482" />
<path class="stroke" d="M 46.242435776 70.8287374 L 82.19415488000001 70.8287374" />
<path class="stroke" d="M 39.803311616 83.3506642 L 88.45441321999999 83.3506642" />
<path class="stroke" d="M 63.95001701 13.391166276 L 63.95001701 93.42264019999999" />
</svg>
