<?xml version="1.0" standalone="no"?>
<!DOCTYPE svg PUBLIC "-//W3C//DTD SVG 1.1//EN" "http://www.w3.org/Graphics/SVG/1.1/DTD/svg11.dtd">
<svg xmlns="http://www.w3.org/2000/svg" version="1.1" width="100%" height="100%">
<style type="text/css"><![CDATA[
  .stroke { fill:none; stroke:black; stroke-width:2 }
]]></style>
<path class="stroke" d="M 24.744522 7.60072965 L 24.744522 31.881019200000004" />
<path class="stroke" d="M 24.744522 7.60072965 L 74.9635 7.60072965 L 74.9635 31.881019200000004" />
<path class="stroke" d="M 25.036495 19.07946219 L 74.67153 19.07946219" />
<path class="stroke" d="M 24.744522 30.82116612 L 74.9635 30.82116612" />
<path class="stroke" d="M 14.6688 49.600942 L 14.6688 80.405359 C 14.5636 86.63246799999999 12.5657 89.282374 7.41325 92.528386" />
<path class="stroke" d="M 14.9842 49.6009546 L 94.164 49.6009546" />
<path class="stroke" d="M 14.98423 62.518902999999995 L 38.95893 62.518902999999995 L 38.95893 75.834394 C 38.95893 80.869102 38.64353 86.10251199999999 31.07253 86.168788 L 26.65623 86.168788" />
<path class="stroke" d="M 53.4701 37.6766548 L 53.4701 49.600942 C 53.5752 78.74915200000001 78.9169 92.594662 91.6403 92.72708800000001 L 91.6403 85.970086" />
<path class="stroke" d="M 85.0157 63.91010491 C 76.1829 79.14665302 59.7791 88.8186058 38.328 92.7271258" />
<path class="stroke" d="M 78.39121 38.2728679 C 81.96641 39.8627737 84.27971 41.2539397 86.59301 43.8375697" />
</svg>
