<?xml version="1.0" standalone="no"?>
<!DOCTYPE svg PUBLIC "-//W3C//DTD SVG 1.1//EN" "http://www.w3.org/Graphics/SVG/1.1/DTD/svg11.dtd">
<svg xmlns="http://www.w3.org/2000/svg" version="1.1" width="100%" height="100%">
<style type="text/css"><![CDATA[
  .stroke { fill:none; stroke:black; stroke-width:2 }
]]></style>
<path class="stroke" d="M 9.15547314 15.57153215 L 9.15547314 76.64013920000001" />
<path class="stroke" d="M 9.15547314 15.57153215 L 27.736494999999998 15.57153215 L 27.736494999999998 76.64013920000001" />
<path class="stroke" d="M 9.26350315 44.44228369 L 27.6284661 44.44228369" />
<path class="stroke" d="M 9.15547314 73.97444811999999 L 27.736494999999998 73.97444811999999" />
<path class="stroke" d="M 87.83960284 10.50055 C 75.13267324 12.975797777777778 55.66237537 14.130913333333334 44.18514928 14.130913333333334" />
<path class="stroke" d="M 45.41485072 18.42134277777778 C 48.48910915 20.73157388888889 50.335938999999996 23.255611111111115 51.7683169 25.84708555555556" />
<path class="stroke" d="M 60.99108943 17.596259444444442 C 63.86039716 19.41144111111111 65.7049507 21.721672222222224 66.9346549 24.691969444444446" />
<path class="stroke" d="M 86.8148521 16.606160000000003 C 85.17524925999999 20.566556666666667 82.7158381 23.536853888888892 79.2316831 25.682067777777778" />
<path class="stroke" d="M 37.79926897 29.175180999999995 L 37.79926897 39.189777899999996" />
<path class="stroke" d="M 37.79926897 28.766420899999996 L 93.20072619999999 28.766420899999996 L 93.20072619999999 39.3941569" />
<path class="stroke" d="M 45.2835313 37.479487999999996 C 44.7612082 41.466848 43.4552452 44.091488 41.169654699999995 47.018912" />
<path class="stroke" d="M 55.07846494 35.05678399999999 L 55.07846494 47.92745599999999 C 55.07846494 49.290223999999995 56.253893739999995 50.19872 58.01697484 50.19872 L 79.17407224 50.19872 C 80.80655704 50.19872 82.24317844000001 49.138783999999994 82.30844554000001 47.473183999999996 L 82.30844554000001 44.89904" />
<path class="stroke" d="M 62.522677599999994 35.0567936 C 65.91824349999999 37.3785536 68.1384427 39.8517536 70.1627164 43.0820096" />
<path class="stroke" d="M 82.3084207 35.208224 C 86.4222973 38.034656 88.96901829999999 40.86128 91.5156772 44.747648" />
<path class="stroke" d="M 60.76569127 60.3430648 C 56.13211495 65.59854 48.27518155 71.08759 40.21678678 74.59124" />
<path class="stroke" d="M 58.34817277 63.3795616 L 76.27810360000001 63.3795616 C 69.0255481 72.9562028 53.51313715 84.051092 38.00072965 90.12408400000001" />
<path class="stroke" d="M 50.69270074 69.1021896 C 58.599999999999994 77.5806456 74.86787953 85.569342 91.99197039999999 90.12408400000001" />
</svg>
