<?xml version="1.0" standalone="no"?>
<!DOCTYPE svg PUBLIC "-//W3C//DTD SVG 1.1//EN" "http://www.w3.org/Graphics/SVG/1.1/DTD/svg11.dtd">
<svg xmlns="http://www.w3.org/2000/svg" version="1.1" width="100%" height="100%">
<style type="text/css"><![CDATA[
  .stroke { fill:none; stroke:black; stroke-width:2 }
]]></style>
<path class="stroke" d="M 24.744522 7.1583938499999995 L 24.744522 34.381748800000004" />
<path class="stroke" d="M 24.744522 7.1583938499999995 L 74.9635 7.1583938499999995 L 74.9635 34.381748800000004" />
<path class="stroke" d="M 25.036495 20.02848791 L 74.67153 20.02848791" />
<path class="stroke" d="M 24.744522 33.19342868 L 74.9635 33.19342868" />
<path class="stroke" d="M 38.19762961538461 44.730287 L 18.875796961538462 48.54732" />
<path class="stroke" d="M 18.578585576923075 48.720813650000004 L 18.578585576923075 81.339167 M 7.282810634615385 84.11512150000001 L 42.29676607692308 75.81250080000001" />
<path class="stroke" d="M 42.35921846153846 51.67033 L 42.65651653846154 77.86908500000001 C 42.45834923076923 86.60198500000001 31.558864615384614 92.03840500000001 17.686870384615382 93.13725" />
<path class="stroke" d="M 59.25394 48.1179040625 L 89.553635 48.1179040625 L 89.553635 76.468054435 C 89.553635 78.77562029999999 87.40849 79.9294048 84.72708 79.9294048 L 80.168785 79.9294048" />
<path class="stroke" d="M 59.25394 48.1179040625 L 59.25394 92.62103952500001" />
</svg>
