<?xml version="1.0" standalone="no"?>
<!DOCTYPE svg PUBLIC "-//W3C//DTD SVG 1.1//EN" "http://www.w3.org/Graphics/SVG/1.1/DTD/svg11.dtd">
<svg xmlns="http://www.w3.org/2000/svg" version="1.1" width="100%" height="100%">
<style type="text/css"><![CDATA[
  .stroke { fill:none; stroke:black; stroke-width:2 }
]]></style>
<path class="stroke" d="M 13.591089772727273 10.5217104 C 13.417680681818181 16.6752504 12.483737499999998 20.367290399999998 9.024838636363636 24.626209199999998" />
<path class="stroke" d="M 15.083672727272726 17.7592698 L 34.41862727272728 17.7592698" />
<path class="stroke" d="M 22.498772727272726 7.100994 L 22.498772727272726 59.61972" />
<path class="stroke" d="M 9.521488636363635 41.513898 L 32.722232954545454 33.564378" />
<path class="stroke" d="M 51.33138688 8.5620438 C 50.39708032 12.766422 48.341603840000005 18.5474442 44.97810176 22.0510938" />
<path class="stroke" d="M 49.46277312 15.2189772 C 68.89634752 15.2189772 74.87590847999999 15.2189772 91.6934272 15.2189772 C 91.1328416 39.919707 85.9007296 48.6788316 80.668608 54.28467 C 78.23941375999999 56.38685759999999 75.9970816 56.912406 73.56788096 57.087588" />
<path class="stroke" d="M 62.9167872 15.2189772 C 61.2350336 29.9343042 51.89196992 40.9708008 41.6145984 47.10218999999999" />
<path class="stroke" d="M 75.8102144 15.2189772 C 74.1284672 33.087588 65.9065664 46.576637999999996 57.3109472 52.007295" />
<path class="stroke" d="M 16.569342 78.4372243 C 15.985401 82.07810180999999 13.649633 84.8401436 10.145985 86.72335612" />
<path class="stroke" d="M 26.36648 74.271466 L 31.71248 81.92563799999999 C 37.05728 88.28877800000001 46.50528 91.13258300000001 65.70158 91.26743099999999 L 79.927 91.26743099999999 C 82.84671 91.2430629 84.40613 90.39501862 84.59853 89.48539919999999 L 84.59853 88.4810224" />
<path class="stroke" d="M 48.9781 67.2635023 C 53.357662 68.3934305 56.569344 70.27664216 59.197075 72.41094759" />
<path class="stroke" d="M 80.51095 69.9 C 84.8905 71.5321166 87.51824 73.5408745 89.85401 75.80072917999999" />
</svg>
