<?xml version="1.0" standalone="no"?>
<!DOCTYPE svg PUBLIC "-//W3C//DTD SVG 1.1//EN" "http://www.w3.org/Graphics/SVG/1.1/DTD/svg11.dtd">
<svg xmlns="http://www.w3.org/2000/svg" version="1.1" width="100%" height="100%">
<style type="text/css"><![CDATA[
  .stroke { fill:none; stroke:black; stroke-width:2 }
]]></style>
<path class="stroke" d="M 79.354836 7.18709664 C 60.0 11.71612868 43.138683 12.1605836 17.419353 13.22580568" />
<path class="stroke" d="M 27.419353 17.92258036 C 30.0 18.840875920000002 31.751823 20.81459832 33.548386 22.116127640000002" />
<path class="stroke" d="M 73.548386 17.25161292 C 72.62773 19.90364828 71.6129 21.109677 69.354836 22.116127640000002" />
<path class="stroke" d="M 12.4817505 27.539412 L 87.81021 27.539412" />
<path class="stroke" d="M 50.0 11.627776 L 50.0 50.268609919999996" />
<path class="stroke" d="M 49.85401 29.6204364 C 40.6414 38.256612000000004 28.832115 44.195615200000006 11.021896 48.143060000000006" />
<path class="stroke" d="M 49.85401 29.6204364 C 58.5174 38.092552000000005 72.713 44.05253200000001 89.85401 47.839413279999995" />
<path class="stroke" d="M 16.569342 73.4226253 C 15.985401 77.91021851 13.649633 81.31459559999999 10.145985 83.63576452000001" />
<path class="stroke" d="M 26.36648 68.288086 L 31.71248 77.722298 C 37.05728 85.565238 46.50528 89.070393 65.70158 89.23660100000001 L 79.927 89.23660100000001 C 82.84671 89.2065659 84.40613 88.16130202 84.59853 87.04014319999999 L 84.59853 85.8021904" />
<path class="stroke" d="M 48.9781 59.6503633 C 53.357662 61.0430655 56.569344 63.36423336 59.197075 65.99488889" />
<path class="stroke" d="M 80.51095 62.9 C 84.8905 64.9116786 87.51824 67.3875895 89.85401 70.17299178" />
</svg>
