<?xml version="1.0" standalone="no"?>
<!DOCTYPE svg PUBLIC "-//W3C//DTD SVG 1.1//EN" "http://www.w3.org/Graphics/SVG/1.1/DTD/svg11.dtd">
<svg xmlns="http://www.w3.org/2000/svg" version="1.1" width="100%" height="100%">
<style type="text/css"><![CDATA[
  .stroke { fill:none; stroke:black; stroke-width:2 }
]]></style>
<path class="stroke" d="M 12.189779 17.4197073 L 87.81021 17.4197073" />
<path class="stroke" d="M 34.67153 9.31751649 L 34.67153 26.17007151" />
<path class="stroke" d="M 65.32846 9.31751649 L 65.32846 26.17007151" />
<path class="stroke" d="M 46.35036 22.742846609999997 C 41.7939 36.9506235 31.3283 48.975864 9.270073 57.58226009999999" />
<path class="stroke" d="M 9.854013 32.5541355 L 90.43795 32.5541355" />
<path class="stroke" d="M 33.35912354 45.76805432625 L 33.35912354 65.6540682675" />
<path class="stroke" d="M 33.35912354 45.76805432625 L 72.821896 45.76805432625 L 72.821896 65.46285711450001" />
<path class="stroke" d="M 33.35912354 64.12437445920001 L 72.821896 64.12437445920001" />
<path class="stroke" d="M 16.569342 83.4518233 C 15.985401 86.24598511 13.649633 88.36569159999999 10.145985 89.81094772" />
<path class="stroke" d="M 26.36648 80.254846 L 31.71248 86.128978 C 37.05728 91.012318 46.50528 93.194773 65.70158 93.298261 L 79.927 93.298261 C 82.84671 93.27955990000001 84.40613 92.62873522000001 84.59853 91.9306552 L 84.59853 91.1598544" />
<path class="stroke" d="M 48.9781 74.8766413 C 53.357662 75.7437955 56.569344 77.18905096 59.197075 78.82700629" />
<path class="stroke" d="M 80.51095 76.9 C 84.8905 78.1525546 87.51824 79.6941595 89.85401 81.42846658" />
</svg>
