<?xml version="1.0" standalone="no"?>
<!DOCTYPE svg PUBLIC "-//W3C//DTD SVG 1.1//EN" "http://www.w3.org/Graphics/SVG/1.1/DTD/svg11.dtd">
<svg xmlns="http://www.w3.org/2000/svg" version="1.1" width="100%" height="100%">
<style type="text/css"><![CDATA[
  .stroke { fill:none; stroke:black; stroke-width:2 }
]]></style>
<path class="stroke" d="M 8.015087142857142 11.089109 L 28.98617380952381 11.290321 C 30.55299580952381 17.741934 25.852533047619048 33.225803 21.152073523809523 40.0" />
<path class="stroke" d="M 21.152073523809523 40.96774 C 25.069122857142858 44.51613 28.202762809523808 49.032257 29.769584809523806 54.19355 C 31.33640357142857 57.09677 31.33640357142857 65.161285 22.980030095238096 68.38709 L 18.018432761904762 69.354836" />
<path class="stroke" d="M 10.419612476190476 11.089109 L 10.419612476190476 90.09901" />
<path class="stroke" d="M 42.716787968 7.746568335 L 42.716787968 44.16700365" />
<path class="stroke" d="M 42.716787968 7.602042689999999 L 87.45138329599999 7.602042689999999 L 87.45138329599999 44.16700365" />
<path class="stroke" d="M 65.08408448 7.746568335 L 65.08408448 41.565546" />
<path class="stroke" d="M 42.716787968 24.574056210000002 L 87.11503616 24.574056210000002" />
<path class="stroke" d="M 42.716787968 41.565546 L 87.45138329599999 41.565546" />
<path class="stroke" d="M 39.11970688 53.856 L 90.88028800000001 53.856" />
<path class="stroke" d="M 51.473152 57.47635872 L 51.473152 85.95823104 M 37.9463808 93.15370944 L 64.394304 79.96206240000001" />
<path class="stroke" d="M 85.9967936 57.776086368 C 83.23762176 64.171993248 79.87275904 67.869714528 75.49842304 71.267489568" />
<path class="stroke" d="M 65.20185599999999 57.476263679999995 C 71.797056 75.56475167999999 80.411136 85.5584928 92.65932799999999 93.75322175999999" />
</svg>
