<?xml version="1.0" standalone="no"?>
<!DOCTYPE svg PUBLIC "-//W3C//DTD SVG 1.1//EN" "http://www.w3.org/Graphics/SVG/1.1/DTD/svg11.dtd">
<svg xmlns="http://www.w3.org/2000/svg" version="1.1" width="100%" height="100%">
<style type="text/css"><![CDATA[
  .stroke { fill:none; stroke:black; stroke-width:2 }
]]></style>
<path class="stroke" d="M 50.005287 5.754744359999999 L 50.005287 31.4014572 C 50.005287 32.137223399999996 48.394157 32.557662 47.226276 32.557662 L 45.18248 32.557662" />
<path class="stroke" d="M 26.788319 15.319706400000001 C 25.328465 18.9985392 20.948904 22.1518242 14.817516 24.674452559999995" />
<path class="stroke" d="M 70.58394 15.319706400000001 C 76.423355 17.5270068 81.386856 20.47007268 84.306564 24.88467024" />
<path class="stroke" d="M 24.744522 39.843503354999996 L 24.744522 65.66890224000001" />
<path class="stroke" d="M 24.744522 39.843503354999996 L 74.9635 39.843503354999996 L 74.9635 65.66890224000001" />
<path class="stroke" d="M 25.036495 52.052700693000006 L 74.67153 52.052700693000006" />
<path class="stroke" d="M 24.744522 64.541603964 L 74.9635 64.541603964" />
<path class="stroke" d="M 50.005287 66.0147808575 L 50.005287 91.483391525 C 50.005287 92.21404823750001 48.394157 92.631567125 47.226276 92.631567125 L 45.18248 92.631567125" />
<path class="stroke" d="M 26.788319 75.51331955 C 25.328465 79.16660490000001 20.948904 82.2979920875 14.817516 84.80310219500001" />
<path class="stroke" d="M 70.58394 75.51331955 C 76.423355 77.705291475 81.386856 80.6279193975 84.306564 85.01186003" />
</svg>
