<?xml version="1.0" standalone="no"?>
<!DOCTYPE svg PUBLIC "-//W3C//DTD SVG 1.1//EN" "http://www.w3.org/Graphics/SVG/1.1/DTD/svg11.dtd">
<svg xmlns="http://www.w3.org/2000/svg" version="1.1" width="100%" height="100%">
<style type="text/css"><![CDATA[
  .stroke { fill:none; stroke:black; stroke-width:2 }
]]></style>
<path class="stroke" d="M 8.250825 11.089109 L 29.838708333333333 11.290321 C 31.451613333333338 17.741934 26.61290166666667 33.225803 21.774193333333333 40.0" />
<path class="stroke" d="M 21.774193333333333 40.96774 C 25.80645 44.51613 29.032255833333334 49.032257 30.645160833333332 54.19355 C 32.2580625 57.09677 32.2580625 65.161285 23.655913333333334 68.38709 L 18.54838666666667 69.354836" />
<path class="stroke" d="M 10.726071666666666 11.089109 L 10.726071666666666 90.09901" />
<path class="stroke" d="M 63.50385951 8.582102029199998 L 63.50385951 33.459413483999995 C 63.50385951 34.173106698 62.32773461 34.58093214 61.475181479999996 34.58093214 L 59.9832104 34.58093214" />
<path class="stroke" d="M 46.55547287 17.860115208 C 45.48977945 21.428583023999998 42.29269992 24.487269473999998 37.81678668 26.934218983199994" />
<path class="stroke" d="M 78.5262762 17.860115208 C 82.78904915 20.001196596 86.41240488 22.8559704996 88.54379172 27.138130132799997" />
<path class="stroke" d="M 45.06350106 41.64819825434999 L 45.06350106 66.69883517280002" />
<path class="stroke" d="M 45.06350106 41.64819825434999 L 81.723355 41.64819825434999 L 81.723355 66.69883517280002" />
<path class="stroke" d="M 45.27664135 53.491119672210004 L 81.5102169 53.491119672210004" />
<path class="stroke" d="M 45.06350106 65.60535584508 L 81.723355 65.60535584508" />
<path class="stroke" d="M 63.50385951 67.034337431775 L 63.50385951 91.73888977925 C 63.50385951 92.44762679037501 62.32773461 92.85262011125 61.475181479999996 92.85262011125 L 59.9832104 92.85262011125" />
<path class="stroke" d="M 46.55547287 76.24791996350001 C 45.48977945 79.79160675300001 42.29269992 82.82905232487501 37.81678668 85.25900912915" />
<path class="stroke" d="M 78.5262762 76.24791996350001 C 82.78904915 78.37413273074999 86.41240488 81.20908181557499 88.54379172 85.46150422909999" />
</svg>
