<?xml version="1.0" standalone="no"?>
<!DOCTYPE svg PUBLIC "-//W3C//DTD SVG 1.1//EN" "http://www.w3.org/Graphics/SVG/1.1/DTD/svg11.dtd">
<svg xmlns="http://www.w3.org/2000/svg" version="1.1" width="100%" height="100%">
<style type="text/css"><![CDATA[
  .stroke { fill:none; stroke:black; stroke-width:2 }
]]></style>
<path class="stroke" d="M 17.737225 8.066229482058823 C 23.576641 9.99392424735294 28.248173 12.64450362117647 31.751823 15.174602845882353" />
<path class="stroke" d="M 79.63503 8.066229482058823 C 77.252556 10.451751207352942 72.33576 13.246907255294118 67.37226 15.295082995" />
<path class="stroke" d="M 6.15142 16.5945053 L 93.8486 16.5945053" />
<path class="stroke" d="M 13.4069 26.639283799999998 L 13.4069 60.5837342" />
<path class="stroke" d="M 13.4069 26.639283799999998 L 86.9085 26.639283799999998 L 86.9085 60.5837342" />
<path class="stroke" d="M 40.2208 16.767691192999997 L 40.2208 30.622584044000003 C 39.677418 34.539355369999996 28.387096 41.800322864 13.870968 43.394191193" />
<path class="stroke" d="M 59.46373 16.5945053 L 59.46373 40.6673867 C 59.04313 42.6879263 61.461628 44.188837400000004 64.82653 44.131137499999994 L 73.97473 44.131137499999994 C 76.39323 44.0733827 79.44263 42.9765356 79.337524 40.8405962 L 79.337524 38.4159926" />
<path class="stroke" d="M 13.4069 51.0585293 L 86.9085 51.0585293" />
<path class="stroke" d="M 13.4069 60.5837342 L 86.9085 60.5837342" />
<path class="stroke" d="M 15.401459 73.32262728 L 84.8905 73.32262728" />
<path class="stroke" d="M 50.14598 63.33722628 L 50.14598 74.478831 C 50.14598 82.5722628 34.812946 90.89120904 10.729925 92.76788400000001" />
<path class="stroke" d="M 50.14598 74.37372216 C 50.14598 82.67737199999999 65.80349 90.8721312 89.56204 92.76788400000001" />
</svg>
