<?xml version="1.0" standalone="no"?>
<!DOCTYPE svg PUBLIC "-//W3C//DTD SVG 1.1//EN" "http://www.w3.org/Graphics/SVG/1.1/DTD/svg11.dtd">
<svg xmlns="http://www.w3.org/2000/svg" version="1.1" width="100%" height="100%">
<style type="text/css"><![CDATA[
  .stroke { fill:none; stroke:black; stroke-width:2 }
]]></style>
<path class="stroke" d="M 14.287590499999999 8.066229482058823 C 17.67445178 9.99392424735294 20.38394034 12.64450362117647 22.41605734 15.174602845882353" />
<path class="stroke" d="M 50.188317399999995 8.066229482058823 C 48.80648247999999 10.451751207352942 45.954740799999996 13.246907255294118 43.075910799999996 15.295082995" />
<path class="stroke" d="M 7.5678236 16.5945053 L 58.432188 16.5945053" />
<path class="stroke" d="M 11.776001999999998 26.639283799999998 L 11.776001999999998 60.5837342" />
<path class="stroke" d="M 11.776001999999998 26.639283799999998 L 54.406929999999996 26.639283799999998 L 54.406929999999996 60.5837342" />
<path class="stroke" d="M 27.328063999999998 16.767691192999997 L 27.328063999999998 30.622584044000003 C 27.01290244 34.539355369999996 20.464515679999998 41.800322864 12.04516144 43.394191193" />
<path class="stroke" d="M 38.488963399999996 16.5945053 L 38.488963399999996 40.6673867 C 38.2450154 42.6879263 39.647744239999994 44.188837400000004 41.5993874 44.131137499999994 L 46.90534339999999 44.131137499999994 C 48.3080734 44.0733827 50.076725399999994 42.9765356 50.01576392 40.8405962 L 50.01576392 38.4159926" />
<path class="stroke" d="M 11.776001999999998 51.0585293 L 54.406929999999996 51.0585293" />
<path class="stroke" d="M 11.776001999999998 60.5837342 L 54.406929999999996 60.5837342" />
<path class="stroke" d="M 12.932846219999998 73.32262728 L 53.236489999999996 73.32262728" />
<path class="stroke" d="M 33.0846684 63.33722628 L 33.0846684 74.478831 C 33.0846684 82.5722628 24.19150868 90.89120904 10.2233565 92.76788400000001" />
<path class="stroke" d="M 33.0846684 74.37372216 C 33.0846684 82.67737199999999 42.166024199999995 90.8721312 55.94598319999999 92.76788400000001" />
<path class="stroke" d="M 67.4270228 7.5135136 L 89.2086392 7.5135136 C 86.523242 15.297297 84.1849516 25.963066 80.85405112000001 36.7027" />
<path class="stroke" d="M 81.1524292 37.675674 C 84.5696312 41.305073 90.6178216 50.29703 90.6178216 59.207924 L 90.6178216 63.069305 C 90.6178216 66.63367 88.88220112 76.918915 85.32972600000001 76.918915 L 76.3783744 75.945946" />
<path class="stroke" d="M 67.7254018 8.81081 L 67.4270228 92.48648" />
</svg>
