<?xml version="1.0" standalone="no"?>
<!DOCTYPE svg PUBLIC "-//W3C//DTD SVG 1.1//EN" "http://www.w3.org/Graphics/SVG/1.1/DTD/svg11.dtd">
<svg xmlns="http://www.w3.org/2000/svg" version="1.1" width="100%" height="100%">
<style type="text/css"><![CDATA[
  .stroke { fill:none; stroke:black; stroke-width:2 }
]]></style>
<path class="stroke" d="M 29.3467124 8.978102 C 26.658400999999998 34.5777 20.483697 56.2448 7.46934307 71.75182" />
<path class="stroke" d="M 7.81386767 26.6561 L 55.3583905 26.6561" />
<path class="stroke" d="M 24.8971676684 45.41970715 L 24.8971676684 73.521895 C 24.8971676684 79.7524765 24.8971676684 82.366335 24.8971676684 88.4108933" />
<path class="stroke" d="M 24.8971676684 45.41970715 L 45.637606432 45.41970715 L 45.637606432 87.3321145 C 45.637606432 88.61678800000001 45.04501904599999 89.7408725 43.56356022159999 89.7408725 L 41.933956834 89.7408725" />
<path class="stroke" d="M 24.8971676684 57.52441735000001 L 45.637606432 57.52441735000001" />
<path class="stroke" d="M 24.8971676684 70.3106848 L 45.637606432 70.3106848" />
<path class="stroke" d="M 64.59459 7.5135136 L 88.27026 7.5135136 C 85.35135 15.297297 82.80973 25.963066 79.189186 36.7027" />
<path class="stroke" d="M 79.51351 37.675674 C 83.22786 41.305073 89.80198 50.29703 89.80198 59.207924 L 89.80198 63.069305 C 89.80198 66.63367 87.915436 76.918915 84.05405 76.918915 L 74.32432 75.945946" />
<path class="stroke" d="M 64.918915 8.81081 L 64.59459 92.48648" />
</svg>
