<?xml version="1.0" standalone="no"?>
<!DOCTYPE svg PUBLIC "-//W3C//DTD SVG 1.1//EN" "http://www.w3.org/Graphics/SVG/1.1/DTD/svg11.dtd">
<svg xmlns="http://www.w3.org/2000/svg" version="1.1" width="100%" height="100%">
<style type="text/css"><![CDATA[
  .stroke { fill:none; stroke:black; stroke-width:2 }
]]></style>
<path class="stroke" d="M 8.946819428571429 27.956203 L 28.46715257142857 27.956203" />
<path class="stroke" d="M 20.45880857142857 9.270073 L 20.45880857142857 90.14598" />
<path class="stroke" d="M 20.45880857142857 36.131386 C 17.20542 44.598537 13.20125057142857 52.48175 7.4452551428571425 56.861313" />
<path class="stroke" d="M 20.45880857142857 36.131386 C 24.212719714285715 37.299267 26.71532657142857 42.26277 27.96663 46.934303" />
<path class="stroke" d="M 38.5328453 14.9087585 L 91.467147 14.9087585" />
<path class="stroke" d="M 54.270071 7.97445105 L 54.270071 22.397808949999998" />
<path class="stroke" d="M 75.729922 7.97445105 L 75.729922 22.397808949999998" />
<path class="stroke" d="M 47.3211654 31.15839385 L 47.3211654 58.381748800000004" />
<path class="stroke" d="M 47.3211654 31.15839385 L 82.47444999999999 31.15839385 L 82.47444999999999 58.381748800000004" />
<path class="stroke" d="M 47.5255465 44.028487909999996 L 82.270071 44.028487909999996" />
<path class="stroke" d="M 47.3211654 57.19342868 L 82.47444999999999 57.19342868" />
<path class="stroke" d="M 40.7810213 72.9525543 L 89.42335 72.9525543" />
<path class="stroke" d="M 65.10218599999999 63.24452555 L 65.10218599999999 74.07664125 C 65.10218599999999 81.9452555 54.369062199999995 90.0331199 37.5109475 91.857665" />
<path class="stroke" d="M 65.10218599999999 73.9744521 C 65.10218599999999 82.047445 76.062443 90.014572 92.69342799999998 91.857665" />
</svg>
