<?xml version="1.0" standalone="no"?>
<!DOCTYPE svg PUBLIC "-//W3C//DTD SVG 1.1//EN" "http://www.w3.org/Graphics/SVG/1.1/DTD/svg11.dtd">
<svg xmlns="http://www.w3.org/2000/svg" version="1.1" width="100%" height="100%">
<style type="text/css"><![CDATA[
  .stroke { fill:none; stroke:black; stroke-width:2 }
]]></style>
<path class="stroke" d="M 11.313868 17.445253 C 15.401459 18.029196 19.48905 20.364962 22.408756 24.160583" />
<path class="stroke" d="M 9.270073 47.226276 C 13.357662 47.226276 18.321167 46.934303 23.86861 43.138683 C 16.27737 53.357662 14.233576 58.321167 15.109488 60.9489 C 15.69343 63.284668 20.948904 65.62044 22.116787 68.832115 C 23.576641 72.33576 18.129246 80.26506 11.021896 83.722626" />
<path class="stroke" d="M 11.021896 84.014595 C 39.692924 81.65476 40.51095 91.313866 90.43795 90.14598" />
<path class="stroke" d="M 36.27999882 10.942701 L 84.2800004 10.942701" />
<path class="stroke" d="M 42.310946279999996 26.18102004 L 42.310946279999996 43.348901399999995" />
<path class="stroke" d="M 42.310946279999996 26.426274 L 79.47299 26.426274 L 79.47299 43.348901399999995" />
<path class="stroke" d="M 42.310946279999996 43.348901399999995 L 79.47299 43.348901399999995" />
<path class="stroke" d="M 47.49634902 50.2160568 C 50.521165620000005 56.102184599999994 52.46569099999999 63.950364240000006 53.54598444 72.04379279999999" />
<path class="stroke" d="M 72.99124119999999 50.2160568 C 72.1270026 57.8189766 70.18247647999999 65.42189640000001 66.94160652 72.53430239999999" />
<path class="stroke" d="M 31.5080289 73.024812 L 90.49196740000001 73.024812" />
</svg>
