<?xml version="1.0" standalone="no"?>
<!DOCTYPE svg PUBLIC "-//W3C//DTD SVG 1.1//EN" "http://www.w3.org/Graphics/SVG/1.1/DTD/svg11.dtd">
<svg xmlns="http://www.w3.org/2000/svg" version="1.1" width="100%" height="100%">
<style type="text/css"><![CDATA[
  .stroke { fill:none; stroke:black; stroke-width:2 }
]]></style>
<path class="stroke" d="M 11.313868 17.445253 C 15.401459 18.029196 19.48905 20.364962 22.408756 24.160583" />
<path class="stroke" d="M 9.270073 47.226276 C 13.357662 47.226276 18.321167 46.934303 23.86861 43.138683 C 16.27737 53.357662 14.233576 58.321167 15.109488 60.9489 C 15.69343 63.284668 20.948904 65.62044 22.116787 68.832115 C 23.576641 72.33576 18.129246 80.26506 11.021896 83.722626" />
<path class="stroke" d="M 11.021896 84.014595 C 39.692924 81.65476 40.51095 91.313866 90.43795 90.14598" />
<path class="stroke" d="M 38.62178189 8.509194057142857 C 36.93465291 15.570014171428571 34.40396015 22.902402742857145 31.0297029 27.790663314285712" />
<path class="stroke" d="M 35.880198539999995 18.828853942857144 L 88.1811884 18.828853942857144" />
<path class="stroke" d="M 40.07579089 28.858044800000002 L 78.53223514999999 28.858044800000002 C 72.37665584999999 35.541544 56.414623999999996 49.95236 49.02361985 56.946368 C 45.373410449999994 60.577127999999995 41.4718433 64.21869600000001 41.5988197 68.958984 C 41.5988197 74.25871199999999 44.45452135 76.378536 50.165864299999996 76.378536 L 85.19547865 76.378536 C 87.4800279 76.31967999999999 89.9549814 75.377536 89.76457715 72.492136 L 89.76457715 69.135664" />
</svg>
