<?xml version="1.0" standalone="no"?>
<!DOCTYPE svg PUBLIC "-//W3C//DTD SVG 1.1//EN" "http://www.w3.org/Graphics/SVG/1.1/DTD/svg11.dtd">
<svg xmlns="http://www.w3.org/2000/svg" version="1.1" width="100%" height="100%">
<style type="text/css"><![CDATA[
  .stroke { fill:none; stroke:black; stroke-width:2 }
]]></style>
<path class="stroke" d="M 11.313868 17.445253 C 15.401459 18.029196 19.48905 20.364962 22.408756 24.160583" />
<path class="stroke" d="M 9.270073 47.226276 C 13.357662 47.226276 18.321167 46.934303 23.86861 43.138683 C 16.27737 53.357662 14.233576 58.321167 15.109488 60.9489 C 15.69343 63.284668 20.948904 65.62044 22.116787 68.832115 C 23.576641 72.33576 18.129246 80.26506 11.021896 83.722626" />
<path class="stroke" d="M 11.021896 84.014595 C 39.692924 81.65476 40.51095 91.313866 90.43795 90.14598" />
<path class="stroke" d="M 38.47226184 9.075 L 80.52773400000001 9.075" />
<path class="stroke" d="M 44.674306156 20.1785032875 L 44.674306156 37.39543702500001" />
<path class="stroke" d="M 44.674306156 20.1785032875 L 74.4623344 20.1785032875 L 74.4623344 37.229890035000004" />
<path class="stroke" d="M 44.674306156 36.071057136 L 74.4623344 36.071057136" />
<path class="stroke" d="M 34.3540142 48.3286633923 L 34.3540142 78.723172137" />
<path class="stroke" d="M 34.3540142 48.208050172200004 L 84.8357624 48.208050172200004 L 84.8357624 78.723172137" />
<path class="stroke" d="M 59.594887 48.3286633923 L 59.594887 76.55213748" />
<path class="stroke" d="M 34.3540142 62.3719669098 L 84.456204 62.3719669098" />
<path class="stroke" d="M 34.3540142 76.55213748 L 84.8357624 76.55213748" />
</svg>
