<?xml version="1.0" standalone="no"?>
<!DOCTYPE svg PUBLIC "-//W3C//DTD SVG 1.1//EN" "http://www.w3.org/Graphics/SVG/1.1/DTD/svg11.dtd">
<svg xmlns="http://www.w3.org/2000/svg" version="1.1" width="100%" height="100%">
<style type="text/css"><![CDATA[
  .stroke { fill:none; stroke:black; stroke-width:2 }
]]></style>
<path class="stroke" d="M 11.313868 17.445253 C 15.401459 18.029196 19.48905 20.364962 22.408756 24.160583" />
<path class="stroke" d="M 9.270073 47.226276 C 13.357662 47.226276 18.321167 46.934303 23.86861 43.138683 C 16.27737 53.357662 14.233576 58.321167 15.109488 60.9489 C 15.69343 63.284668 20.948904 65.62044 22.116787 68.832115 C 23.576641 72.33576 18.129246 80.26506 11.021896 83.722626" />
<path class="stroke" d="M 11.021896 84.014595 C 39.692924 81.65476 40.51095 91.313866 90.43795 90.14598" />
<path class="stroke" d="M 37.227576024200005 23.449429920799997 L 87.5237439 23.449429920799997" />
<path class="stroke" d="M 61.864129150000004 8.121008961199998 L 61.5935524436 8.337682567999998 C 58.7428531152 26.037217567999996 50.2292156906 32.388375835999994 30.4769156308 43.438693267999994" />
<path class="stroke" d="M 68.0874585392 23.504784039199997 C 74.04020398399999 30.8716634864 78.9106353652 37.3718508248 91.086714542 43.872037004" />
<path class="stroke" d="M 38.0208622718 27.765115155623526 C 40.886669477599995 29.789994259999997 42.650244367599996 30.599945369882345 45.075158212800005 33.299783880235296" />
<path class="stroke" d="M 85.857802392 28.440075004823523 C 84.094220264 30.059978554258816 84.3146723728 31.27490566230588 77.921719006 33.97474372943529" />
<path class="stroke" d="M 42.053281940000005 40.15478633708 L 42.053281940000005 60.51314693504" />
<path class="stroke" d="M 42.053281940000005 40.15478633708 L 80.72189499999999 40.15478633708 L 80.72189499999999 60.51314693504" />
<path class="stroke" d="M 42.27810115 49.779390515528 L 80.49707810000001 49.779390515528" />
<path class="stroke" d="M 42.053281940000005 59.624489032544 L 80.72189499999999 59.624489032544" />
<path class="stroke" d="M 61.50407099 60.785805709819996 L 61.50407099 80.8629074114 C 61.50407099 81.43888971829999 60.26350089 81.768023069 59.36423252 81.768023069 L 57.7905096 81.768023069" />
<path class="stroke" d="M 43.62700563 68.2735768268 C 42.502918050000005 71.1534897704 39.130656079999994 73.62198637789999 34.40948732 75.59678394572" />
<path class="stroke" d="M 77.34963379999999 68.2735768268 C 81.84598335000001 70.0015251566 85.66787912 72.30545522966 87.91605428 75.76134935288" />
</svg>
