<?xml version="1.0" standalone="no"?>
<!DOCTYPE svg PUBLIC "-//W3C//DTD SVG 1.1//EN" "http://www.w3.org/Graphics/SVG/1.1/DTD/svg11.dtd">
<svg xmlns="http://www.w3.org/2000/svg" version="1.1" width="100%" height="100%">
<style type="text/css"><![CDATA[
  .stroke { fill:none; stroke:black; stroke-width:2 }
]]></style>
<path class="stroke" d="M 11.313868 17.445253 C 15.401459 18.029196 19.48905 20.364962 22.408756 24.160583" />
<path class="stroke" d="M 9.270073 47.226276 C 13.357662 47.226276 18.321167 46.934303 23.86861 43.138683 C 16.27737 53.357662 14.233576 58.321167 15.109488 60.9489 C 15.69343 63.284668 20.948904 65.62044 22.116787 68.832115 C 23.576641 72.33576 18.129246 80.26506 11.021896 83.722626" />
<path class="stroke" d="M 11.021896 84.014595 C 39.692924 81.65476 40.51095 91.313866 90.43795 90.14598" />
<path class="stroke" d="M 83.01584048000001 7.485148440000001 C 70.49306928000001 10.853465616000001 51.304949640000004 12.425346864000002 39.994060160000004 12.425346864000002" />
<path class="stroke" d="M 41.20593984 18.263763252 C 44.235643800000005 21.407525748 46.055708 24.842235600000006 47.4673268 28.368714024000003" />
<path class="stroke" d="M 56.55643596 17.140989852 C 59.384159520000004 19.611089064 61.201980400000004 22.754851560000002 62.413862800000004 26.796832020000004" />
<path class="stroke" d="M 82.00594120000001 15.793662528 C 80.39010072 21.182970312 77.96633320000001 25.224950772000003 74.5326732 28.144157832000005" />
<path class="stroke" d="M 41.908524 34.4058111 L 83.3091 34.4058111" />
<path class="stroke" d="M 31.52146552 50.690732634 L 90.90576080000001 50.690732634" />
<path class="stroke" d="M 61.00003400000001 34.584690528 L 61.00003400000001 76.97559276" />
<path class="stroke" d="M 36.116692 59.9834646 L 36.116692 77.1544359 L 85.239756 77.1544359" />
<path class="stroke" d="M 85.239756 59.6256876 L 85.239756 77.1544359" />
</svg>
