<?xml version="1.0" standalone="no"?>
<!DOCTYPE svg PUBLIC "-//W3C//DTD SVG 1.1//EN" "http://www.w3.org/Graphics/SVG/1.1/DTD/svg11.dtd">
<svg xmlns="http://www.w3.org/2000/svg" version="1.1" width="100%" height="100%">
<style type="text/css"><![CDATA[
  .stroke { fill:none; stroke:black; stroke-width:2 }
]]></style>
<path class="stroke" d="M 11.313868 17.445253 C 15.401459 18.029196 19.48905 20.364962 22.408756 24.160583" />
<path class="stroke" d="M 9.270073 47.226276 C 13.357662 47.226276 18.321167 46.934303 23.86861 43.138683 C 16.27737 53.357662 14.233576 58.321167 15.109488 60.9489 C 15.69343 63.284668 20.948904 65.62044 22.116787 68.832115 C 23.576641 72.33576 18.129246 80.26506 11.021896 83.722626" />
<path class="stroke" d="M 11.021896 84.014595 C 39.692924 81.65476 40.51095 91.313866 90.43795 90.14598" />
<path class="stroke" d="M 85.465269 10.238172800000001 C 69.56304399999999 14.667188 53.436885000000004 16.285487000000003 37.758665 16.370699000000002" />
<path class="stroke" d="M 37.758665 16.370699000000002 L 37.758665 53.165678 C 37.833357 62.705129 35.220273 70.45585700000001 30.5914848 76.162469" />
<path class="stroke" d="M 45.674773506 27.27905 L 88.685223796 27.27905" />
<path class="stroke" d="M 67.18 17.5777627253 L 67.18 38.436739088" />
<path class="stroke" d="M 52.9219554836 42.936851743160005 L 52.9219554836 79.6231092416" />
<path class="stroke" d="M 52.9219554836 42.936851743160005 L 81.2804958856 42.936851743160005 L 81.2804958856 79.491144641" />
<path class="stroke" d="M 52.9219554836 54.143291773040005 L 81.2804958856 54.143291773040005" />
<path class="stroke" d="M 52.9219554836 66.72627576320002 L 81.2804958856 66.72627576320002" />
<path class="stroke" d="M 52.9219554836 78.3034587158 L 81.2804958856 78.3034587158" />
</svg>
