<?xml version="1.0" standalone="no"?>
<!DOCTYPE svg PUBLIC "-//W3C//DTD SVG 1.1//EN" "http://www.w3.org/Graphics/SVG/1.1/DTD/svg11.dtd">
<svg xmlns="http://www.w3.org/2000/svg" version="1.1" width="100%" height="100%">
<style type="text/css"><![CDATA[
  .stroke { fill:none; stroke:black; stroke-width:2 }
]]></style>
<path class="stroke" d="M 11.313868 17.445253 C 15.401459 18.029196 19.48905 20.364962 22.408756 24.160583" />
<path class="stroke" d="M 9.270073 47.226276 C 13.357662 47.226276 18.321167 46.934303 23.86861 43.138683 C 16.27737 53.357662 14.233576 58.321167 15.109488 60.9489 C 15.69343 63.284668 20.948904 65.62044 22.116787 68.832115 C 23.576641 72.33576 18.129246 80.26506 11.021896 83.722626" />
<path class="stroke" d="M 11.021896 84.014595 C 39.692924 81.65476 40.51095 91.313866 90.43795 90.14598" />
<path class="stroke" d="M 54.75109275 8.42116755 C 58.780289100000005 9.14817368 63.2124075 10.60218926 67.24160523 13.5102171" />
<path class="stroke" d="M 33.79926897 20.360687669999997 L 88.7978076 20.360687669999997" />
<path class="stroke" d="M 48.6296646 31.428379109999995 L 73.43199059999999 31.428379109999995" />
<path class="stroke" d="M 47.32774499999999 42.477120819999996 L 74.80023299999999 42.477120819999996" />
<path class="stroke" d="M 47.110809 54.09522095 L 47.110809 76.85280005" />
<path class="stroke" d="M 47.11074 53.8342897 L 75.017169 53.8342897 L 75.017169 76.601198" />
<path class="stroke" d="M 47.1114714 73.99113849999999 L 74.8008954 73.9912215" />
</svg>
