<?xml version="1.0" standalone="no"?>
<!DOCTYPE svg PUBLIC "-//W3C//DTD SVG 1.1//EN" "http://www.w3.org/Graphics/SVG/1.1/DTD/svg11.dtd">
<svg xmlns="http://www.w3.org/2000/svg" version="1.1" width="100%" height="100%">
<style type="text/css"><![CDATA[
  .stroke { fill:none; stroke:black; stroke-width:2 }
]]></style>
<path class="stroke" d="M 27.918 5.5205 C 21.8192 17.8233 14.4585 30.7571 4.88959 40.5363" />
<path class="stroke" d="M 27.918 5.83596 C 34.0168 11.8296 38.2229 18.4543 42.7445 25.0789" />
<path class="stroke" d="M 12.1451 33.59624 L 40.2208 33.59624" />
<path class="stroke" d="M 6.782335 51.57724 L 44.006287 51.57724" />
<path class="stroke" d="M 27.287043 33.9117 L 27.287043 88.1703" />
<path class="stroke" d="M 6.46688 61.672 C 10.7781 65.878 14.143 70.3996 17.5079 75.2366" />
<path class="stroke" d="M 43.06 61.6719 C 40.7466 67.4553 37.4868 72.2923 33.2807 77.1294" />
<path class="stroke" d="M 8.04416 94.4795 L 42.7445 83.7539" />
<path class="stroke" d="M 73.0788292 6.489051099999999 L 73.0788292 15.481750899999998" />
<path class="stroke" d="M 52.74014527 15.6861292 L 52.74014527 25.4963485" />
<path class="stroke" d="M 52.74014527 15.6861292 L 93.4175134 15.6861292 L 93.4175134 25.4963485" />
<path class="stroke" d="M 50.6845432 32.4526825 L 95.31544600000001 32.4526825" />
<path class="stroke" d="M 73.17037 32.6893 L 73.0 93.22580125" />
<path class="stroke" d="M 73.17037 59.424324999999996 L 90.716104 59.424324999999996" />
<path class="stroke" d="M 58.861180000000004 57.768100000000004 C 58.577248 78.82487499999999 55.056772 86.632525 49.4921098 95.149825" />
<path class="stroke" d="M 58.861180000000004 57.768100000000004 C 59.372236 95.38645 74.04516028 93.709675 81.535483 94.677415 L 96.337558 94.913275" />
</svg>
