<?xml version="1.0" standalone="no"?>
<!DOCTYPE svg PUBLIC "-//W3C//DTD SVG 1.1//EN" "http://www.w3.org/Graphics/SVG/1.1/DTD/svg11.dtd">
<svg xmlns="http://www.w3.org/2000/svg" version="1.1" width="100%" height="100%">
<style type="text/css"><![CDATA[
  .stroke { fill:none; stroke:black; stroke-width:2 }
]]></style>
<path class="stroke" d="M 11.313868 17.445253 C 15.401459 18.029196 19.48905 20.364962 22.408756 24.160583" />
<path class="stroke" d="M 9.270073 47.226276 C 13.357662 47.226276 18.321167 46.934303 23.86861 43.138683 C 16.27737 53.357662 14.233576 58.321167 15.109488 60.9489 C 15.69343 63.284668 20.948904 65.62044 22.116787 68.832115 C 23.576641 72.33576 18.129246 80.26506 11.021896 83.722626" />
<path class="stroke" d="M 11.021896 84.014595 C 39.692924 81.65476 40.51095 91.313866 90.43795 90.14598" />
<path class="stroke" d="M 36.2945914 25.16871123 L 36.2945914 72.9201285" />
<path class="stroke" d="M 36.59806392 25.16874201 L 90.31239360000001 25.168719330000002 L 90.1199936 73.07513010000001" />
<path class="stroke" d="M 63.0 13.0815 L 63.0 69.5385" />
<path class="stroke" d="M 36.59806392 47.8774638 L 90.31239360000001 47.87743950000001" />
<path class="stroke" d="M 36.59806392 69.71098140000001 L 90.31239360000001 69.8925186" />
</svg>
