<?xml version="1.0" standalone="no"?>
<!DOCTYPE svg PUBLIC "-//W3C//DTD SVG 1.1//EN" "http://www.w3.org/Graphics/SVG/1.1/DTD/svg11.dtd">
<svg xmlns="http://www.w3.org/2000/svg" version="1.1" width="100%" height="100%">
<style type="text/css"><![CDATA[
  .stroke { fill:none; stroke:black; stroke-width:2 }
]]></style>
<path class="stroke" d="M 12.189779 12.554744 L 87.81021 12.554744" />
<path class="stroke" d="M 34.67153 6.715327200000001 L 34.67153 18.8613128" />
<path class="stroke" d="M 65.32846 6.715327200000001 L 65.32846 18.8613128" />
<path class="stroke" d="M 44.089862 22.361202900000002 C 43.906901 29.5883441 42.077291 35.3202681 37.777577 39.8060461" />
<path class="stroke" d="M 23.506308410000003 28.093032100000002 L 74.27916215 28.093032100000002 L 74.27916215 39.8060461" />
<path class="stroke" d="M 12.802837610000001 40.055204200000006 L 89.6482298 40.055204200000006" />
<path class="stroke" d="M 27.074140999999997 48.77758867 L 27.074140999999997 62.73341267" />
<path class="stroke" d="M 27.074140999999997 48.77758867 L 76.74922699999999 48.77758867 L 76.74922699999999 62.73341267" />
<path class="stroke" d="M 27.074140999999997 62.73341267 L 76.74922699999999 62.73341267" />
<path class="stroke" d="M 18.64314761 72.17715720000001 L 83.88488000000001 72.20348" />
<path class="stroke" d="M 27.62298659 72.4526934 L 27.62298659 84.91328124" />
<path class="stroke" d="M 12.5283935 84.664071 L 89.37379700000001 84.664071" />
<path class="stroke" d="M 61.654553 62.733434 L 61.654553 92.88805" />
</svg>
