<?xml version="1.0" standalone="no"?>
<!DOCTYPE svg PUBLIC "-//W3C//DTD SVG 1.1//EN" "http://www.w3.org/Graphics/SVG/1.1/DTD/svg11.dtd">
<svg xmlns="http://www.w3.org/2000/svg" version="1.1" width="100%" height="100%">
<style type="text/css"><![CDATA[
  .stroke { fill:none; stroke:black; stroke-width:2 }
]]></style>
<path class="stroke" d="M 12.189779 14.124087 L 87.81021 14.124087" />
<path class="stroke" d="M 34.67153 7.5547431000000005 L 34.67153 21.218976899999998" />
<path class="stroke" d="M 65.32846 7.5547431000000005 L 65.32846 21.218976899999998" />
<path class="stroke" d="M 44.9527 22.2381728 C 44.6372 26.326502 42.1136 28.626254000000003 38.6435 30.925925" />
<path class="stroke" d="M 18.45421 31.692428 L 18.45421 60.821729000000005" />
<path class="stroke" d="M 18.45421 31.692428 L 80.59941 31.436873 L 80.59941 60.566174000000004" />
<path class="stroke" d="M 49.6845 31.692428 L 49.6845 60.821729000000005" />
<path class="stroke" d="M 18.76963 45.746089999999995 L 79.96843 45.746089999999995" />
<path class="stroke" d="M 18.45421 60.821729000000005 L 80.59941 60.566174000000004" />
<path class="stroke" d="M 41.1671 61.077284000000006 C 40.9568 78.537806 28.1283 89.09939600000001 6.78233 93.528395" />
<path class="stroke" d="M 53.7855 61.077284000000006 L 53.7855 89.69555600000001 C 53.8252 92.011346 55.1556 92.84945300000001 57.571 92.761892 L 88.8013 92.761892 C 91.325 92.918141 93.1901 92.250782 93.2177 89.95111100000001 L 93.2177 84.074156" />
<path class="stroke" d="M 74.2902 67.209713 C 71.6614 73.597778 67.4553 79.21925900000001 61.6719 84.840659 C 69.1377 82.796543 76.6036 81.007901 84.0694 80.496872" />
<path class="stroke" d="M 80.2839 74.87539100000001 C 83.6488 77.77130300000002 85.121 80.922689 85.6467 84.074156" />
</svg>
