<?xml version="1.0" standalone="no"?>
<!DOCTYPE svg PUBLIC "-//W3C//DTD SVG 1.1//EN" "http://www.w3.org/Graphics/SVG/1.1/DTD/svg11.dtd">
<svg xmlns="http://www.w3.org/2000/svg" version="1.1" width="100%" height="100%">
<style type="text/css"><![CDATA[
  .stroke { fill:none; stroke:black; stroke-width:2 }
]]></style>
<path class="stroke" d="M 12.189779 14.124087 L 87.81021 14.124087" />
<path class="stroke" d="M 34.67153 7.5547431000000005 L 34.67153 21.218976899999998" />
<path class="stroke" d="M 65.32846 7.5547431000000005 L 65.32846 21.218976899999998" />
<path class="stroke" d="M 50.14598 23.50875913 L 50.14598 33.914597470000004" />
<path class="stroke" d="M 12.4817505 34.15109236 L 12.4817505 45.50291755000001" />
<path class="stroke" d="M 12.4817505 34.15109236 L 87.81021 34.15109236 L 87.81021 45.50291755000001" />
<path class="stroke" d="M 26.5255464 46.370186565927995 L 73.94160000000001 46.370186565927995" />
<path class="stroke" d="M 18.116788 59.666295703372 L 81.88320800000001 59.666295703372" />
<path class="stroke" d="M 37.007298 61.61795769166 L 37.007298 72.24113620852 C 37.007298 81.6078107239 29.416058 90.86025703372 10.437956 93.2590391785" />
<path class="stroke" d="M 54.233574 61.50373065979 L 54.233574 88.46147567140001 C 54.233574 91.3171690735 58.029198 93.0305843323 62.116783 93.0305843323 L 84.8905 93.0305843323 C 88.10219 93.1448117554 90.43795 92.23098845829999 90.43795 90.97448289190001 L 90.43795 88.80415950562" />
</svg>
