<?xml version="1.0" standalone="no"?>
<!DOCTYPE svg PUBLIC "-//W3C//DTD SVG 1.1//EN" "http://www.w3.org/Graphics/SVG/1.1/DTD/svg11.dtd">
<svg xmlns="http://www.w3.org/2000/svg" version="1.1" width="100%" height="100%">
<style type="text/css"><![CDATA[
  .stroke { fill:none; stroke:black; stroke-width:2 }
]]></style>
<path class="stroke" d="M 12.189779 14.124087 L 87.81021 14.124087" />
<path class="stroke" d="M 34.67153 7.5547431000000005 L 34.67153 21.218976899999998" />
<path class="stroke" d="M 65.32846 7.5547431000000005 L 65.32846 21.218976899999998" />
<path class="stroke" d="M 15.177432701999999 28.285017719 L 54.757708962 28.285017719 L 54.757708962 44.865458006" />
<path class="stroke" d="M 15.177432701999999 44.865458006 L 54.757708962 44.865458006" />
<path class="stroke" d="M 15.177432701999999 28.285017719 L 15.177432701999999 61.23862202 C 15.238259342 70.91051612 14.022246921999999 76.23011371999999 7.516751044 84.86578413500001" />
<path class="stroke" d="M 25.412674172999996 54.0134879 L 49.000325827 54.0134879" />
<path class="stroke" d="M 22.074806492089998 67.784460115 L 52.560714963219986 67.784460115" />
<path class="stroke" d="M 37.31776689994 67.93413165000001 L 37.31776689994 90.23715005 C 37.31776689994 91.8337951 36.42765286254 92.8316686 35.64881630614 92.78179865 L 34.202385404139996 92.78179865" />
<path class="stroke" d="M 31.087049759599992 73.77181024999999 C 29.047233012799996 79.4099616 26.673654363400004 84.00032205 22.29733147442 87.54284415" />
<path class="stroke" d="M 43.771024894199996 73.92156245000001 C 46.9976486008 77.46408455 49.55664269159999 81.90474025 51.670632669 87.54284415" />
<path class="stroke" d="M 65.13274273879999 45.1131381 L 89.21928156199999 45.1131381" />
<path class="stroke" d="M 83.216302538 29.76715329 L 83.216302538 84.970065 C 83.216302538 86.8883152 82.11177717199999 88.8065654 80.33490208879998 88.8065654 L 77.176010798 88.8065654" />
<path class="stroke" d="M 66.11989601359998 52.572993499999995 C 69.08135583800001 54.278101219999996 70.858233626 57.04890382 71.845384196 60.24598408" />
</svg>
