<?xml version="1.0" standalone="no"?>
<!DOCTYPE svg PUBLIC "-//W3C//DTD SVG 1.1//EN" "http://www.w3.org/Graphics/SVG/1.1/DTD/svg11.dtd">
<svg xmlns="http://www.w3.org/2000/svg" version="1.1" width="100%" height="100%">
<style type="text/css"><![CDATA[
  .stroke { fill:none; stroke:black; stroke-width:2 }
]]></style>
<path class="stroke" d="M 15.769693084999998 14.017427575490196 C 17.349839054599997 17.58519716960784 18.6139556138 22.490878643137254 19.5620433038 27.173575949019607" />
<path class="stroke" d="M 32.519239118 14.017427575490196 C 31.874541653599998 18.432541436274512 30.544056655999995 23.605804827450978 29.200933556 27.396560116666667" />
<path class="stroke" d="M 7.92043722 30.51083333333333 L 41.079559499999995 30.51083333333333" />
<path class="stroke" d="M 8.0741331 42.4503035 L 8.0741331 72.868268 L 40.925871 72.868268" />
<path class="stroke" d="M 40.925871 42.4503035 L 40.925871 72.868268" />
<path class="stroke" d="M 24.5 32.800475199999994 L 24.5 73.91717249999999 C 24.5 86.01445349999999 16.998435 89.5107575 10.143521999999999 91.95815699999999" />
<path class="stroke" d="M 58.2153265 11.605839 C 57.25182385 22.116787 54.68248125 32.627735 51.47080245 39.927006" />
<path class="stroke" d="M 55.8065696 26.204376 L 88.08394000000001 26.204376 C 87.7627708 34.37956 86.15693250000001 39.927006 83.10583500000001 45.47445" />
<path class="stroke" d="M 70.7408747 30.875912 C 70.7408747 62.408752 60.78392 79.653 48.41970715 90.14598" />
<path class="stroke" d="M 70.58028900000001 48.394157 C 74.27372215 63.868607 79.73357325 80.21897 92.7408725 90.14598" />
</svg>
