<?xml version="1.0" standalone="no"?>
<!DOCTYPE svg PUBLIC "-//W3C//DTD SVG 1.1//EN" "http://www.w3.org/Graphics/SVG/1.1/DTD/svg11.dtd">
<svg xmlns="http://www.w3.org/2000/svg" version="1.1" width="100%" height="100%">
<style type="text/css"><![CDATA[
  .stroke { fill:none; stroke:black; stroke-width:2 }
]]></style>
<path class="stroke" d="M 18.905107 9.854013 L 90.14598 9.854013" />
<path class="stroke" d="M 18.613138 9.854013 L 18.613138 31.167881 C 18.613138 74.67153 14.817516 81.386856 10.198019 90.09901" />
<path class="stroke" d="M 35.6695728829 21.755859093696078 C 36.838880900404 25.002529424343138 37.774327154212 29.466699565254903 38.475912044812 33.727954113607844" />
<path class="stroke" d="M 48.06423694732 21.755859093696078 C 47.58716082366399 25.773612707009807 46.60260192544 30.48128239298039 45.60869083144 33.93086970616667" />
<path class="stroke" d="M 29.8611235428 36.764858333333336 L 54.398874029999995 36.764858333333336" />
<path class="stroke" d="M 29.974858494 47.629776185 L 29.974858494 75.31012388 L 54.285144540000005 75.31012388" />
<path class="stroke" d="M 54.285144540000005 47.629776185 L 54.285144540000005 75.31012388" />
<path class="stroke" d="M 42.129999999999995 38.848432431999996 L 42.129999999999995 76.264626975 C 42.129999999999995 87.27315268499999 36.5788419 90.454789325 31.50620628 92.68192287" />
<path class="stroke" d="M 67.07934161 19.56131349 C 66.366349649 29.12627617 64.46503612500001 38.691238850000005 62.088393813 45.33357546" />
<path class="stroke" d="M 65.29686150399999 32.845982160000005 L 89.1821156 32.845982160000005 C 88.944450392 40.2853996 87.75613005000001 45.33357546 85.49831790000002 50.3817495" />
<path class="stroke" d="M 76.348247278 37.09707992 C 76.348247278 65.79196432 68.9801008 81.48423000000001 59.830583291 91.0328418" />
<path class="stroke" d="M 76.22941386000001 53.03868287 C 78.962554391 67.12043237 83.002844205 81.9992627 92.62824565 91.0328418" />
</svg>
