<?xml version="1.0" standalone="no"?>
<!DOCTYPE svg PUBLIC "-//W3C//DTD SVG 1.1//EN" "http://www.w3.org/Graphics/SVG/1.1/DTD/svg11.dtd">
<svg xmlns="http://www.w3.org/2000/svg" version="1.1" width="100%" height="100%">
<style type="text/css"><![CDATA[
  .stroke { fill:none; stroke:black; stroke-width:2 }
]]></style>
<path class="stroke" d="M 12.189779 13.3394155 L 87.81021 13.3394155" />
<path class="stroke" d="M 34.67153 7.13503515 L 34.67153 20.040144849999997" />
<path class="stroke" d="M 65.32846 7.13503515 L 65.32846 20.040144849999997" />
<path class="stroke" d="M 18.905107 25.17883079 L 90.14598 25.17883079" />
<path class="stroke" d="M 18.613138 25.17883079 L 18.613138 42.86934123 C 18.613138 78.9773699 14.817516 84.55109048 10.198019 91.7821783" />
<path class="stroke" d="M 35.6695728829 35.057363047767744 C 36.838880900404 37.75209942220481 37.774327154212 41.457360639161564 38.475912044812 44.99420191429451" />
<path class="stroke" d="M 48.06423694732 35.057363047767744 C 47.58716082366399 38.39209854681814 46.60260192544 42.299464386173725 45.60869083144 45.162621856118335" />
<path class="stroke" d="M 29.8611235428 47.514832416666664 L 54.398874029999995 47.514832416666664" />
<path class="stroke" d="M 29.974858494 56.532714233549996 L 29.974858494 79.5074028204 L 54.285144540000005 79.5074028204" />
<path class="stroke" d="M 54.285144540000005 56.532714233549996 L 54.285144540000005 79.5074028204" />
<path class="stroke" d="M 42.129999999999995 49.244198918559995 L 42.129999999999995 80.29964038924999 C 42.129999999999995 89.43671672854998 36.5788419 92.07747513974999 31.50620628 93.92599598209999" />
<path class="stroke" d="M 67.07934161 33.2358901967 C 66.366349649 41.1748092211 64.46503612500001 49.1137282455 62.088393813 54.626867631799996" />
<path class="stroke" d="M 65.29686150399999 44.262165192800005 L 89.1821156 44.262165192800005 C 88.944450392 50.436881668 87.75613005000001 54.626867631799996 85.49831790000002 58.816852084999994" />
<path class="stroke" d="M 76.348247278 47.7905763336 C 76.348247278 71.6073303856 68.9801008 84.63191090000001 59.830583291 92.557258694" />
<path class="stroke" d="M 76.22941386000001 61.0221067821 C 78.962554391 72.7099588671 83.002844205 85.059388041 92.62824565 92.557258694" />
</svg>
