<?xml version="1.0" standalone="no"?>
<!DOCTYPE svg PUBLIC "-//W3C//DTD SVG 1.1//EN" "http://www.w3.org/Graphics/SVG/1.1/DTD/svg11.dtd">
<svg xmlns="http://www.w3.org/2000/svg" version="1.1" width="100%" height="100%">
<style type="text/css"><![CDATA[
  .stroke { fill:none; stroke:black; stroke-width:2 }
]]></style>
<path class="stroke" d="M 26.459999999999997 5.7343356684 L 26.459999999999997 9.3801167952" />
<path class="stroke" d="M 11.7042036804 9.586481426799999 L 41.524815780000004 9.586481426799999" />
<path class="stroke" d="M 14.1763784148 12.54437982 C 17.266597362 15.0207586976 19.5842621016 18.253808911999997 20.8203489396 21.418072408" />
<path class="stroke" d="M 39.207149982000004 11.994072408 C 35.498889468 14.539240359999999 32.40867105 18.460175664 31.636115783999998 22.518684876" />
<path class="stroke" d="M 5.9872989456 23.206568552 L 46.62367894799999 23.206568552" />
<path class="stroke" d="M 16.840466932800002 30.3478825972 L 16.840466932800002 49.98875716 C 16.840466932800002 54.343367212000004 16.840466932800002 56.17021668 16.840466932800002 60.394813426400006" />
<path class="stroke" d="M 16.840466932800002 30.3478825972 L 38.128642944 30.3478825972 L 38.128642944 59.640845116 C 38.128642944 60.538715104 37.520405831999994 61.32434798 35.9998229472 61.32434798 L 34.327183127999994 61.32434798" />
<path class="stroke" d="M 16.840466932800002 38.8079745988 L 38.128642944 38.8079745988" />
<path class="stroke" d="M 16.840466932800002 47.7444131584 L 38.128642944 47.7444131584" />
<path class="stroke" d="M 55.36276 10.72554534 L 91.32496 10.72554534" />
<path class="stroke" d="M 55.36276 6.813874200000001 L 55.36276 17.76654 L 88.17036 17.76654 L 88.17036 26.763422" />
<path class="stroke" d="M 55.36276 26.763422 L 88.17036 26.763422" />
<path class="stroke" d="M 55.36276 26.763422 L 55.36276 58.252354 C 55.36276 59.947434 56.94006 61.642452 60.09466 61.57729 L 89.74756 61.57729 C 92.48166 61.57729 93.95366 60.403816 94.16396 58.447964 L 94.16396 55.90528200000001" />
<path class="stroke" d="M 55.36276 34.977926 L 83.43846 34.977926" />
<path class="stroke" d="M 55.67822 43.192368 L 83.75392 43.192368" />
<path class="stroke" d="M 55.67822 51.211386 L 83.75392 51.211386" />
<path class="stroke" d="M 50.3155 66.4637216 L 50.3155 71.006304" />
<path class="stroke" d="M 6.15142 71.006304 L 93.2177 71.006304" />
<path class="stroke" d="M 50.3155 71.006304 C 40.2209 76.995808 25.7098 81.370144 7.09779 84.129344" />
<path class="stroke" d="M 30.4416 79.283904 L 30.4416 93.416416 M 11.1987 94.627744 C 27.8128 94.324928 44.4269 93.719264 59.1482 91.498432" />
<path class="stroke" d="M 88.48578 76.3564384 C 79.96848 78.7791904 70.50478 80.4952544 60.09458 81.4037984" />
<path class="stroke" d="M 50.0 71.006304 C 56.8349 82.951648 71.2408 89.445824 90.694 94.223936" />
</svg>
