<?xml version="1.0" standalone="no"?>
<!DOCTYPE svg PUBLIC "-//W3C//DTD SVG 1.1//EN" "http://www.w3.org/Graphics/SVG/1.1/DTD/svg11.dtd">
<svg xmlns="http://www.w3.org/2000/svg" version="1.1" width="100%" height="100%">
<style type="text/css"><![CDATA[
  .stroke { fill:none; stroke:black; stroke-width:2 }
]]></style>
<path class="stroke" d="M 16.307592 17.82335 L 33.465334 17.82335" />
<path class="stroke" d="M 7.0331219 40.53627 L 42.5851258 40.53627" />
<path class="stroke" d="M 24.80915472 40.8517 L 24.80915472 87.8549 C 24.80915472 91.2198 23.57254123 93.3228 22.4905247 93.2177 L 20.481033229999998 93.2177" />
<path class="stroke" d="M 15.998401999999999 57.2554 C 13.319130999999999 68.8223 9.403247 76.9191 3.7870679000000003 82.1767" />
<path class="stroke" d="M 33.619929 57.8865 C 38.257191 64.4059 41.503147 71.8718 44.594655 82.1767" />
<path class="stroke" d="M 66.6404 17.82335 L 84.1483 17.82335" />
<path class="stroke" d="M 57.176655 40.53627 L 93.45421 40.53627" />
<path class="stroke" d="M 75.31546399999999 40.8517 L 75.31546399999999 87.8549 C 75.31546399999999 91.2198 74.0536135 93.3228 72.949515 93.2177 L 70.8990135 93.2177" />
<path class="stroke" d="M 66.3249 57.2554 C 63.59095 68.8223 59.595150000000004 76.9191 53.864355 82.1767" />
<path class="stroke" d="M 84.30605 57.8865 C 89.03795 64.4059 92.35015 71.8718 95.50475 82.1767" />
</svg>
