<?xml version="1.0" standalone="no"?>
<!DOCTYPE svg PUBLIC "-//W3C//DTD SVG 1.1//EN" "http://www.w3.org/Graphics/SVG/1.1/DTD/svg11.dtd">
<svg xmlns="http://www.w3.org/2000/svg" version="1.1" width="100%" height="100%">
<style type="text/css"><![CDATA[
  .stroke { fill:none; stroke:black; stroke-width:2 }
]]></style>
<path class="stroke" d="M 12.189779 14.124087 L 87.81021 14.124087" />
<path class="stroke" d="M 34.67153 7.5547431000000005 L 34.67153 21.218976899999998" />
<path class="stroke" d="M 65.32846 7.5547431000000005 L 65.32846 21.218976899999998" />
<path class="stroke" d="M 19.6768328 30.436913500000003 L 35.1188006 30.436913500000003" />
<path class="stroke" d="M 11.32980971 48.8343787 L 43.32661322 48.8343787" />
<path class="stroke" d="M 27.328239248 49.089877 L 27.328239248 87.162469 C 27.328239248 89.88803800000001 26.215287106999998 91.591468 25.241472230000003 91.506337 L 23.432929907 91.506337" />
<path class="stroke" d="M 19.3985618 62.376874 C 16.987217899999997 71.74606299999999 13.4629223 78.304471 8.408361110000001 82.56312700000001" />
<path class="stroke" d="M 35.257936099999995 62.888065000000005 C 39.4314719 68.168779 42.3528323 74.21615800000001 45.1351895 82.56312700000001" />
<path class="stroke" d="M 64.97636 30.436913500000003 L 80.73347000000001 30.436913500000003" />
<path class="stroke" d="M 56.4589895 48.8343787 L 89.108789 48.8343787" />
<path class="stroke" d="M 72.7839176 49.089877 L 72.7839176 87.162469 C 72.7839176 89.88803800000001 71.64825215 91.591468 70.65456350000001 91.506337 L 68.80911215 91.506337" />
<path class="stroke" d="M 64.69241 62.376874 C 62.231855 71.74606299999999 58.63563500000001 78.304471 53.477919500000006 82.56312700000001" />
<path class="stroke" d="M 80.875445 62.888065000000005 C 85.13415499999999 68.168779 88.115135 74.21615800000001 90.95427500000001 82.56312700000001" />
</svg>
