<?xml version="1.0" standalone="no"?>
<!DOCTYPE svg PUBLIC "-//W3C//DTD SVG 1.1//EN" "http://www.w3.org/Graphics/SVG/1.1/DTD/svg11.dtd">
<svg xmlns="http://www.w3.org/2000/svg" version="1.1" width="100%" height="100%">
<style type="text/css"><![CDATA[
  .stroke { fill:none; stroke:black; stroke-width:2 }
]]></style>
<path class="stroke" d="M 12.189779 14.124087 L 87.81021 14.124087" />
<path class="stroke" d="M 34.67153 7.5547431000000005 L 34.67153 21.218976899999998" />
<path class="stroke" d="M 65.32846 7.5547431000000005 L 65.32846 21.218976899999998" />
<path class="stroke" d="M 15.56237684 33.162971095 C 18.9603964 34.967425915 20.35049524 37.01247463 21.740594079999997 39.53871235" />
<path class="stroke" d="M 43.055444 32.56148575 C 41.8198018 35.56891126000001 40.429704 37.854554275 37.34059408 39.659010715" />
<path class="stroke" d="M 10.7742574 43.8694057 L 47.2257452 43.8694057" />
<path class="stroke" d="M 29.0 27.749603800000003 L 29.075909600000003 60.4703962" />
<path class="stroke" d="M 24.829702960000002 45.19267313500001 C 21.4316834 52.0496038 16.33465432 55.7788114 10.31089112 58.665943000000006" />
<path class="stroke" d="M 32.70693232 45.07237558 C 38.885148 48.8015848 43.209904800000004 52.89168385000001 46.2990116 58.5456418" />
<path class="stroke" d="M 27.171286759999997 64.3150899388 C 25.86138593 69.4445540968 23.09604055 74.32380228880001 19.457425989999997 78.82772295160001 C 27.425546779999998 80.31167668 38.72773635 85.10782211200001 44.4503655 91.1337510808" />
<path class="stroke" d="M 38.5237616 66.4419406024 C 35.32178163 80.4541399984 27.46237567 87.21002288800001 16.266422509999998 90.764816104" />
<path class="stroke" d="M 9.8514851 70.82075180800001 L 49.1485149 67.0674853612" />
<path class="stroke" d="M 64.34851616 30.348019729 C 62.68514872 39.7624651057 58.693070000000006 50.928434038 52.53861344 57.2777117182" />
<path class="stroke" d="M 58.526732640000006 49.395850558300005 L 86.6376216 49.395850558300005" />
<path class="stroke" d="M 73.663368 49.614792108399996 C 71.66732640000001 68.2247449972 63.184159120000004 83.7695235556 49.877228 89.243039458" />
<path class="stroke" d="M 58.526732640000006 55.0883072737 C 62.18613776 68.443684336 79.9841552 89.46198027100002 89.7980208 89.46198027100002" />
</svg>
