<?xml version="1.0" standalone="no"?>
<!DOCTYPE svg PUBLIC "-//W3C//DTD SVG 1.1//EN" "http://www.w3.org/Graphics/SVG/1.1/DTD/svg11.dtd">
<svg xmlns="http://www.w3.org/2000/svg" version="1.1" width="100%" height="100%">
<style type="text/css"><![CDATA[
  .stroke { fill:none; stroke:black; stroke-width:2 }
]]></style>
<path class="stroke" d="M 12.189779 14.124087 L 87.81021 14.124087" />
<path class="stroke" d="M 34.67153 7.5547431000000005 L 34.67153 21.218976899999998" />
<path class="stroke" d="M 65.32846 7.5547431000000005 L 65.32846 21.218976899999998" />
<path class="stroke" d="M 18.430655833333333 28.55401318 C 21.350365 29.707297840000003 24.27007 32.70583764 26.216541666666668 36.3963495" />
<path class="stroke" d="M 8.2116775 39.067853 L 35.46228333333334 39.067853" />
<path class="stroke" d="M 13.564475000000002 50.23576542 L 30.109488333333335 50.23576542" />
<path class="stroke" d="M 13.564475000000002 61.53795414 L 30.109488333333335 61.53795414" />
<path class="stroke" d="M 12.59124 71.91751450000001 L 12.59124 88.7554718" />
<path class="stroke" d="M 12.59124 71.68685819999999 L 31.569341666666666 71.68685819999999 L 31.569341666666666 88.7554718" />
<path class="stroke" d="M 12.59124 88.7554718 L 31.326033333333335 88.7554718" />
<path class="stroke" d="M 55.073267200000004 36.97878416642857 L 74.8435648 36.97878416642857" />
<path class="stroke" d="M 65.14851584 28.26308337857143 L 65.14851584 48.52708739857143" />
<path class="stroke" d="M 45.188119040000004 48.65353017142857 L 90.8118784 48.65353017142857" />
<path class="stroke" d="M 82.2574272 32.83882686071429 C 72.75247551999999 50.9239044 58.49504896 62.25431491071429 43.287128960000004 67.48373655714286" />
<path class="stroke" d="M 56.3622757376 62.167072654500004 L 56.3622757376 91.811098896" />
<path class="stroke" d="M 56.3622757376 62.167072654500004 L 79.5031808 62.167072654500004 L 79.5031808 91.811098896" />
<path class="stroke" d="M 56.496816896 76.18156156469999 L 79.368641024 76.18156156469999" />
<path class="stroke" d="M 56.3622757376 90.5171146356 L 79.5031808 90.5171146356" />
</svg>
