<?xml version="1.0" standalone="no"?>
<!DOCTYPE svg PUBLIC "-//W3C//DTD SVG 1.1//EN" "http://www.w3.org/Graphics/SVG/1.1/DTD/svg11.dtd">
<svg xmlns="http://www.w3.org/2000/svg" version="1.1" width="100%" height="100%">
<style type="text/css"><![CDATA[
  .stroke { fill:none; stroke:black; stroke-width:2 }
]]></style>
<path class="stroke" d="M 12.189779 14.124087 L 87.81021 14.124087" />
<path class="stroke" d="M 34.67153 7.5547431000000005 L 34.67153 21.218976899999998" />
<path class="stroke" d="M 65.32846 7.5547431000000005 L 65.32846 21.218976899999998" />
<path class="stroke" d="M 28.9700097 22.89116404 C 26.1950557 29.78604044 21.6976537 35.895339269999994 15.4779129 40.43377761" />
<path class="stroke" d="M 24.089889000000003 32.8406662 L 88.392764 32.8406662" />
<path class="stroke" d="M 11.74605022 53.2633723 L 90.6892764 53.2633723" />
<path class="stroke" d="M 30.1182477 33.1025312 L 30.1182477 73.42426319999998" />
<path class="stroke" d="M 45.332801599999996 33.364363 L 45.332801599999996 73.424313" />
<path class="stroke" d="M 60.547334570000004 33.1025312 L 60.547334570000004 73.42426319999998" />
<path class="stroke" d="M 75.1876994 33.1025312 L 75.1876994 73.1624812" />
<path class="stroke" d="M 14.616716199999999 73.68612819999998 L 88.96691030000001 73.68612819999998" />
<path class="stroke" d="M 21.93795558 83.77864309499999 C 21.406568359999998 87.69236906999998 19.2810213 90.98813348499999 15.8270071 92.84200405499999" />
<path class="stroke" d="M 37.08248134 84.39660465499999 C 40.0051065 87.0744110375 41.599267250000004 89.54623964 42.9277353 93.04798889" />
<path class="stroke" d="M 58.86933825 84.60258949 C 61.791964320000005 87.0744110375 63.120432369999996 89.752224475 64.4488986 93.253973725" />
<path class="stroke" d="M 79.06203896 84.60258949 C 82.250355 87.0744110375 84.110213 89.34024775 85.7043783 93.253973725" />
</svg>
