<?xml version="1.0" standalone="no"?>
<!DOCTYPE svg PUBLIC "-//W3C//DTD SVG 1.1//EN" "http://www.w3.org/Graphics/SVG/1.1/DTD/svg11.dtd">
<svg xmlns="http://www.w3.org/2000/svg" version="1.1" width="100%" height="100%">
<style type="text/css"><![CDATA[
  .stroke { fill:none; stroke:black; stroke-width:2 }
]]></style>
<path class="stroke" d="M 12.189779 14.124087 L 87.81021 14.124087" />
<path class="stroke" d="M 34.67153 7.5547431000000005 L 34.67153 21.218976899999998" />
<path class="stroke" d="M 65.32846 7.5547431000000005 L 65.32846 21.218976899999998" />
<path class="stroke" d="M 24.744522 26.581036241 L 24.744522 48.96304860800001" />
<path class="stroke" d="M 24.744522 26.581036241 L 74.9635 26.581036241 L 74.9635 48.96304860800001" />
<path class="stroke" d="M 25.036495 37.162340600600004 L 74.67153 37.162340600600004" />
<path class="stroke" d="M 24.744522 47.9860567688 L 74.9635 47.9860567688" />
<path class="stroke" d="M 30.7571 56.213404058 C 27.8129 62.82083 20.1367 69.29785718 6.78233 73.42751648000001" />
<path class="stroke" d="M 27.9179 62.86431968 L 90.0631 62.99470604 L 89.7476 77.60066546000002 C 89.1167 84.20812034000001 82.4922 91.85883146 71.1357 91.94576948000001 L 66.4038 91.94576948000001" />
<path class="stroke" d="M 59.84158342 72.38039831921 C 50.43168424 73.93371762818 43.76633764 74.33893212215 31.477370620000002 74.88743223431001" />
<path class="stroke" d="M 31.1798248 68.1931880963 L 31.1798248 83.18610004460001 C 31.1798248 85.14463430228 35.14059304 86.22520567988 40.62970348 86.22520567988 L 69.44752636000001 86.22520567988 C 71.9960398 86.22520567988 73.36831576 85.8875262149 73.36831576 85.00956424430001 L 73.36831576 84.40174284440002" />
</svg>
