<?xml version="1.0" standalone="no"?>
<!DOCTYPE svg PUBLIC "-//W3C//DTD SVG 1.1//EN" "http://www.w3.org/Graphics/SVG/1.1/DTD/svg11.dtd">
<svg xmlns="http://www.w3.org/2000/svg" version="1.1" width="100%" height="100%">
<style type="text/css"><![CDATA[
  .stroke { fill:none; stroke:black; stroke-width:2 }
]]></style>
<path class="stroke" d="M 12.189779 14.124087 L 87.81021 14.124087" />
<path class="stroke" d="M 34.67153 7.5547431000000005 L 34.67153 21.218976899999998" />
<path class="stroke" d="M 65.32846 7.5547431000000005 L 65.32846 21.218976899999998" />
<path class="stroke" d="M 10.90802792 37.157050558 L 10.90802792 84.216666304" />
<path class="stroke" d="M 10.90802792 37.157050558 L 28.986859999999997 37.157050558 L 28.986859999999997 84.216666304" />
<path class="stroke" d="M 11.013138199999998 59.404921262799995 L 28.8817508 59.404921262799995" />
<path class="stroke" d="M 10.90802792 82.16247833439999 L 28.986859999999997 82.16247833439999" />
<path class="stroke" d="M 47.613137480000006 38.795619099999996 L 78.3868564 38.795619099999996" />
<path class="stroke" d="M 62.70218856 29.458392760000002 L 62.70218856 51.321167200000005" />
<path class="stroke" d="M 37.48759034 51.321167200000005 L 88.7109428 51.321167200000005" />
<path class="stroke" d="M 40.473138567999996 63.6394734652 L 86.03809756999999 63.6394734652" />
<path class="stroke" d="M 72.36861432 56.110481563600004 L 72.36861432 89.660728408 C 72.36861432 90.849517984 71.6935739 91.64204135199999 70.17474249200001 91.64204135199999 L 65.61824769 91.64204135199999" />
<path class="stroke" d="M 49.7548903 68.65880170119999 C 51.78 69.8475908248 53.636349884000005 71.56472931280001 55.155180714 74.4706551148" />
</svg>
