<?xml version="1.0" standalone="no"?>
<!DOCTYPE svg PUBLIC "-//W3C//DTD SVG 1.1//EN" "http://www.w3.org/Graphics/SVG/1.1/DTD/svg11.dtd">
<svg xmlns="http://www.w3.org/2000/svg" version="1.1" width="100%" height="100%">
<style type="text/css"><![CDATA[
  .stroke { fill:none; stroke:black; stroke-width:2 }
]]></style>
<path class="stroke" d="M 11.313868 17.445253 C 15.401459 18.029196 19.48905 20.364962 22.408756 24.160583" />
<path class="stroke" d="M 9.270073 47.226276 C 13.357662 47.226276 18.321167 46.934303 23.86861 43.138683 C 16.27737 53.357662 14.233576 58.321167 15.109488 60.9489 C 15.69343 63.284668 20.948904 65.62044 22.116787 68.832115 C 23.576641 72.33576 18.129246 80.26506 11.021896 83.722626" />
<path class="stroke" d="M 11.021896 84.014595 C 39.692924 81.65476 40.51095 91.313866 90.43795 90.14598" />
<path class="stroke" d="M 42.8686125 17.956202400000002 C 45.5255465 20.7591232 47.978102199999995 24.029196 49.56581 28.85808" />
<path class="stroke" d="M 82.72262599999999 17.956202400000002 C 81.4963485 22.160584 79.248176 25.664233600000003 76.1824805 28.700729600000003" />
<path class="stroke" d="M 38.3722612 38.5109464 L 87.832115 38.5109464" />
<path class="stroke" d="M 63.0 11.683168000000002 L 63.102185999999996 76.316832" />
<path class="stroke" d="M 59.2189759 40.6131376 C 55.01258 51.74864 46.51759 63.07128 36.328467 69.1094848" />
<path class="stroke" d="M 67.1897779 40.846712000000004 C 70.62475 51.83272 79.17147 63.73792 89.467147 69.34306000000001" />
</svg>
