<?xml version="1.0" standalone="no"?>
<!DOCTYPE svg PUBLIC "-//W3C//DTD SVG 1.1//EN" "http://www.w3.org/Graphics/SVG/1.1/DTD/svg11.dtd">
<svg xmlns="http://www.w3.org/2000/svg" version="1.1" width="100%" height="100%">
<style type="text/css"><![CDATA[
  .stroke { fill:none; stroke:black; stroke-width:2 }
]]></style>
<path class="stroke" d="M 18.055557 22.875001200000003 C 17.500002 27.0 15.902723 30.255540749999998 12.222223 33.0000012" />
<path class="stroke" d="M 33.333336 11.12500125 L 33.21814 40.24449 C 33.21814 41.522085 35.11094 42.3738 37.95004 42.3738 L 72.01944 42.3738 C 74.64824 42.3738 76.96164 41.38011 77.06674 39.81861 L 77.06674 37.405350000000006" />
<path class="stroke" d="M 49.166668 6.7500009 C 56.66667 8.625000600000002 58.96253 9.97163595 62.22223 13.0000005" />
<path class="stroke" d="M 78.333336 24.000001200000003 C 84.95793 26.64977985 88.3991 28.9815318 92.50001 32.6250045" />
<path class="stroke" d="M 9.0277785 70.43333472 C 8.750001 75.2 7.9513615 78.9619582 6.1111115 82.13333472" />
<path class="stroke" d="M 16.666668 56.855557000000005 L 16.60907 90.504744 C 16.60907 91.981076 17.55547 92.96528 18.97502 92.96528 L 36.00972 92.96528 C 37.32412 92.96528 38.48082 91.817016 38.53337 90.01261600000001 L 38.53337 87.22396" />
<path class="stroke" d="M 24.583334 51.80000104 C 28.333335 53.96666736 29.481265 55.52277932 31.111115 59.0222228" />
<path class="stroke" d="M 39.166668 71.73333472 C 42.478965 74.79530116000001 44.19955 77.48977008 46.250005 81.70000519999999" />
<path class="stroke" d="M 56.0277785 70.43333472 C 55.750001 75.2 54.9513615 78.9619582 53.1111115 82.13333472" />
<path class="stroke" d="M 63.666668 56.855557000000005 L 63.60907 90.504744 C 63.60907 91.981076 64.55547 92.96528 65.97502 92.96528 L 83.00972 92.96528 C 84.32412 92.96528 85.48082 91.817016 85.53336999999999 90.01261600000001 L 85.53336999999999 87.22396" />
<path class="stroke" d="M 71.58333400000001 51.80000104 C 75.333335 53.96666736 76.48126500000001 55.52277932 78.111115 59.0222228" />
<path class="stroke" d="M 86.166668 71.73333472 C 89.478965 74.79530116000001 91.19955 77.48977008 93.250005 81.70000519999999" />
</svg>
