<?xml version="1.0" standalone="no"?>
<!DOCTYPE svg PUBLIC "-//W3C//DTD SVG 1.1//EN" "http://www.w3.org/Graphics/SVG/1.1/DTD/svg11.dtd">
<svg xmlns="http://www.w3.org/2000/svg" version="1.1" width="100%" height="100%">
<style type="text/css"><![CDATA[
  .stroke { fill:none; stroke:black; stroke-width:2 }
]]></style>
<path class="stroke" d="M 12.189779 14.124087 L 87.81021 14.124087" />
<path class="stroke" d="M 34.67153 7.5547431000000005 L 34.67153 21.218976899999998" />
<path class="stroke" d="M 65.32846 7.5547431000000005 L 65.32846 21.218976899999998" />
<path class="stroke" d="M 18.055557 38.613750924 C 17.500002 41.79 15.902723 44.2967663775 12.222223 46.410000924" />
<path class="stroke" d="M 33.333336 29.5662509625 L 33.21814 51.9882573 C 33.21814 52.97200545 35.11094 53.627826000000006 37.95004 53.627826000000006 L 72.01944 53.627826000000006 C 74.64824 53.627826000000006 76.96164 52.8626847 77.06674 51.660329700000005 L 77.06674 49.8021195" />
<path class="stroke" d="M 49.166668 26.197500693000002 C 56.66667 27.641250462000002 58.96253 28.6781596815 62.22223 31.010000385" />
<path class="stroke" d="M 78.333336 39.480000924 C 84.95793 41.5203304845 88.3991 43.315779486 92.50001 46.121253465" />
<path class="stroke" d="M 9.0277785 75.2336677344 C 8.750001 78.904 7.9513615 81.80070781399999 6.1111115 84.24266773439999" />
<path class="stroke" d="M 16.666668 64.77877889000001 L 16.60907 90.68865288 C 16.60907 91.82542852 17.55547 92.5832656 18.97502 92.5832656 L 36.00972 92.5832656 C 37.32412 92.5832656 38.48082 91.69910232 38.53337 90.30971432000001 L 38.53337 88.16244920000001" />
<path class="stroke" d="M 24.583334 60.8860008008 C 28.333335 62.5543338672 29.481265 63.7525400764 31.111115 66.44711155600001" />
<path class="stroke" d="M 39.166668 76.2346677344 C 42.478965 78.59238189320001 44.19955 80.6671229616 46.250005 83.909004004" />
<path class="stroke" d="M 56.0277785 75.2336677344 C 55.750001 78.904 54.9513615 81.80070781399999 53.1111115 84.24266773439999" />
<path class="stroke" d="M 63.666668 64.77877889000001 L 63.60907 90.68865288 C 63.60907 91.82542852 64.55547 92.5832656 65.97502 92.5832656 L 83.00972 92.5832656 C 84.32412 92.5832656 85.48082 91.69910232 85.53336999999999 90.30971432000001 L 85.53336999999999 88.16244920000001" />
<path class="stroke" d="M 71.58333400000001 60.8860008008 C 75.333335 62.5543338672 76.48126500000001 63.7525400764 78.111115 66.44711155600001" />
<path class="stroke" d="M 86.166668 76.2346677344 C 89.478965 78.59238189320001 91.19955 80.6671229616 93.250005 83.909004004" />
</svg>
