<?xml version="1.0" standalone="no"?>
<!DOCTYPE svg PUBLIC "-//W3C//DTD SVG 1.1//EN" "http://www.w3.org/Graphics/SVG/1.1/DTD/svg11.dtd">
<svg xmlns="http://www.w3.org/2000/svg" version="1.1" width="100%" height="100%">
<style type="text/css"><![CDATA[
  .stroke { fill:none; stroke:black; stroke-width:2 }
]]></style>
<path class="stroke" d="M 14.3533 6.396173793103449 L 50.0 6.396173793103449 C 41.4826 24.58394482758621 30.7571 33.89536551724137 7.09779 43.72891034482759" />
<path class="stroke" d="M 15.930558 18.666446896551722 C 19.190258 20.92898482758621 21.503658 23.45262620689655 23.817059 26.237371034482756" />
<path class="stroke" d="M 77.76028 7.440442758620689 L 64.82658 17.622136551724136" />
<path class="stroke" d="M 50.3154 6.657235862068966 C 59.2534 25.454234482758622 72.6078 36.41900689655173 92.9022 44.25111724137931" />
<path class="stroke" d="M 89.11671 19.18847172413793 L 76.81381 28.848057931034482" />
<path class="stroke" d="M 30.1513514 41.1621622 L 69.848645 41.1621622" />
<path class="stroke" d="M 18.1837823 60.913512 L 82.983776 60.913512" />
<path class="stroke" d="M 50.131382 41.1897807 L 50.131382 56.518247 C 50.131382 76.5474422 29.109487100000003 89.42335 14.3941604 92.897807" />
<path class="stroke" d="M 50.131382 56.518247 C 50.131382 76.5474422 69.313865 89.627736 85.3430585 92.69342799999998" />
</svg>
