<?xml version="1.0" standalone="no"?>
<!DOCTYPE svg PUBLIC "-//W3C//DTD SVG 1.1//EN" "http://www.w3.org/Graphics/SVG/1.1/DTD/svg11.dtd">
<svg xmlns="http://www.w3.org/2000/svg" version="1.1" width="100%" height="100%">
<style type="text/css"><![CDATA[
  .stroke { fill:none; stroke:black; stroke-width:2 }
]]></style>
<path class="stroke" d="M 12.189779 14.124087 L 87.81021 14.124087" />
<path class="stroke" d="M 34.67153 7.5547431000000005 L 34.67153 21.218976899999998" />
<path class="stroke" d="M 65.32846 7.5547431000000005 L 65.32846 21.218976899999998" />
<path class="stroke" d="M 14.3533 28.73316860689655 L 50.0 28.73316860689655 C 41.4826 42.1921191724138 30.7571 49.08257048275861 7.09779 56.35939365517242" />
<path class="stroke" d="M 15.930558 37.81317070344828 C 19.190258 39.48744877241379 21.503658 41.35494339310345 23.817059 43.415654565517244" />
<path class="stroke" d="M 77.76028 29.50592764137931 L 64.82658 37.04038104827586" />
<path class="stroke" d="M 50.3154 28.926354537931033 C 59.2534 42.83613351724138 72.6078 50.95006510344828 92.9022 56.74582675862069" />
<path class="stroke" d="M 89.11671 38.19946907586207 L 76.81381 45.34756286896552" />
<path class="stroke" d="M 30.1513514 54.460000027999996 L 69.848645 54.460000027999996" />
<path class="stroke" d="M 18.1837823 69.07599888 L 82.983776 69.07599888" />
<path class="stroke" d="M 50.131382 54.480437718000005 L 50.131382 65.82350278 C 50.131382 80.645107228 29.109487100000003 90.173279 14.3941604 92.74437718" />
<path class="stroke" d="M 50.131382 65.82350278 C 50.131382 80.645107228 69.313865 90.32452463999999 85.3430585 92.59313671999999" />
</svg>
