<?xml version="1.0" standalone="no"?>
<!DOCTYPE svg PUBLIC "-//W3C//DTD SVG 1.1//EN" "http://www.w3.org/Graphics/SVG/1.1/DTD/svg11.dtd">
<svg xmlns="http://www.w3.org/2000/svg" version="1.1" width="100%" height="100%">
<style type="text/css"><![CDATA[
  .stroke { fill:none; stroke:black; stroke-width:2 }
]]></style>
<path class="stroke" d="M 12.189779 14.124087 L 87.81021 14.124087" />
<path class="stroke" d="M 34.67153 7.5547431000000005 L 34.67153 21.218976899999998" />
<path class="stroke" d="M 65.32846 7.5547431000000005 L 65.32846 21.218976899999998" />
<path class="stroke" d="M 13.649633 26.569342 L 13.649633 39.026764" />
<path class="stroke" d="M 13.649633 26.569342 L 86.642334 26.569342 L 86.642334 39.026764" />
<path class="stroke" d="M 36.75083 26.569342 L 36.75083 39.026764" />
<path class="stroke" d="M 63.249256 26.569342 L 63.249256 39.026764" />
<path class="stroke" d="M 13.649633 39.032619999999994 L 86.83168 39.032619999999994" />
<path class="stroke" d="M 13.57999806 52.36216152 L 13.57999806 76.7059404 C 13.57999806 85.98810840000002 10.748647114999999 88.7902656 5.9668773999999996 92.678298" />
<path class="stroke" d="M 12.950810469999999 52.18702656 L 90.3410761 52.36216152" />
<path class="stroke" d="M 49.75837615 46.23243198 L 52.58973049 64.9718916 C 55.128048799999995 85.966287 70.837548 92.621436 83.38333399999999 92.50787400000002 L 86.749137 92.50787400000002 C 89.50316099999999 92.593086 91.44966000000001 91.565844 91.33908 89.611962 L 91.33908 87.567846" />
<path class="stroke" d="M 83.077299 67.296516 C 72.57152 80.981034 52.06736124 90.76203456 41.578918079999994 91.5924282" />
<path class="stroke" d="M 78.181418 45.6624582 C 80.2740475 46.58270244 81.6465199 47.67531792 83.10540378 48.85945908" />
<path class="stroke" d="M 22.709325041 71.316715236 C 31.993194070999998 73.690222596 37.387835491 76.840514556 40.649731120999995 81.22071375600001" />
</svg>
