<?xml version="1.0" standalone="no"?>
<!DOCTYPE svg PUBLIC "-//W3C//DTD SVG 1.1//EN" "http://www.w3.org/Graphics/SVG/1.1/DTD/svg11.dtd">
<svg xmlns="http://www.w3.org/2000/svg" version="1.1" width="100%" height="100%">
<style type="text/css"><![CDATA[
  .stroke { fill:none; stroke:black; stroke-width:2 }
]]></style>
<path class="stroke" d="M 12.189779 14.124087 L 87.81021 14.124087" />
<path class="stroke" d="M 34.67153 7.5547431000000005 L 34.67153 21.218976899999998" />
<path class="stroke" d="M 65.32846 7.5547431000000005 L 65.32846 21.218976899999998" />
<path class="stroke" d="M 27.080292 25.195781025800002 C 25.620438 28.941882002 22.408756 34.0927727822 17.153284 37.2145245758" />
<path class="stroke" d="M 24.160583 31.1271086852 C 54.525543 31.1271086852 63.868607 31.1271086852 90.14598 31.1271086852 C 89.270065 53.135458937 85.47684 58.069867724000005 77.30245 60.866683757000004 C 73.378746 61.740690605000005 68.80109 60.866683757000004 63.896454 59.992679582" />
<path class="stroke" d="M 45.18248 31.1271086852 C 42.55474 44.238465042200005 27.956203 54.07198351280001 11.89781 59.53505129" />
<path class="stroke" d="M 65.32846 31.1271086852 C 62.70073 47.048040908000004 49.85401 59.066784458 36.423355 63.90549984500001" />
<path class="stroke" d="M 25.39433 40.139931689 C 48.73823 43.231737329 62.30283 47.335407119 70.50473 53.04119291900001" />
<path class="stroke" d="M 17.4453 74.11776560000001 C 16.6042 79.8371351 14.5012 83.6018531 10.8207 87.8008769" />
<path class="stroke" d="M 33.21814 70.64269955 L 33.21814 89.10406970000001 C 33.21814 91.05879005 35.11094 92.361914 37.95004 92.361914 L 72.01944 92.361914 C 74.64824 92.361914 76.96164 90.8415683 77.06674 88.45247330000001 L 77.06674 84.7601855" />
<path class="stroke" d="M 45.2056 70.64271332000001 C 50.6735 73.97298781999999 54.2487 77.52048407000001 57.5084 82.15388252000001" />
<path class="stroke" d="M 77.0667 70.8599213 C 83.6913 74.9140847 87.7923 78.9685235 91.8932 84.5430326" />
</svg>
