<?xml version="1.0" standalone="no"?>
<!DOCTYPE svg PUBLIC "-//W3C//DTD SVG 1.1//EN" "http://www.w3.org/Graphics/SVG/1.1/DTD/svg11.dtd">
<svg xmlns="http://www.w3.org/2000/svg" version="1.1" width="100%" height="100%">
<style type="text/css"><![CDATA[
  .stroke { fill:none; stroke:black; stroke-width:2 }
]]></style>
<path class="stroke" d="M 12.189779 14.124087 L 87.81021 14.124087" />
<path class="stroke" d="M 34.67153 7.5547431000000005 L 34.67153 21.218976899999998" />
<path class="stroke" d="M 65.32846 7.5547431000000005 L 65.32846 21.218976899999998" />
<path class="stroke" d="M 26.534653 32.94975015423999 L 73.16832 32.94975015423999" />
<path class="stroke" d="M 50.0 23.95927527904 L 50.0 43.174035487359994" />
<path class="stroke" d="M 10.198019 43.174035487359994 L 90.09901 43.174035487359994" />
<path class="stroke" d="M 49.36423252 44.699339767359994 C 44.8678822 50.01230893179999 34.139041 55.962167367999996 21.48685992 60.210767516800004 C 40.37153111000001 59.53901252799999 56.78321101 59.23367030199999 74.75145900000001 59.27833642" />
<path class="stroke" d="M 66.00072855 55.44741456831999 C 71.1715288 56.60771879199999 75.66787912 58.3787089318 78.5905096 60.76038352359999" />
<path class="stroke" d="M 18.4542 71.21856535999999 L 18.4542 92.81952452" />
<path class="stroke" d="M 18.4542 71.21856535999999 L 80.5994 71.21856535999999 L 80.5994 92.73310907" />
<path class="stroke" d="M 39.27444 71.30498081 L 39.27444 92.81952452" />
<path class="stroke" d="M 60.41014 71.3049690323 L 60.41014 92.905929014" />
<path class="stroke" d="M 7.09779 92.90591257999999 L 92.9022 92.90591257999999" />
</svg>
