<?xml version="1.0" standalone="no"?>
<!DOCTYPE svg PUBLIC "-//W3C//DTD SVG 1.1//EN" "http://www.w3.org/Graphics/SVG/1.1/DTD/svg11.dtd">
<svg xmlns="http://www.w3.org/2000/svg" version="1.1" width="100%" height="100%">
<style type="text/css"><![CDATA[
  .stroke { fill:none; stroke:black; stroke-width:2 }
]]></style>
<path class="stroke" d="M 12.189779 14.124087 L 87.81021 14.124087" />
<path class="stroke" d="M 34.67153 7.5547431000000005 L 34.67153 21.218976899999998" />
<path class="stroke" d="M 65.32846 7.5547431000000005 L 65.32846 21.218976899999998" />
<path class="stroke" d="M 15.930572 29.689277500000003 L 79.33757 29.689277500000003 C 69.13767 38.3643175 61.14617 42.3075175 50.31547 45.3044425" />
<path class="stroke" d="M 42.74457 39.389575 C 47.686672 42.62305 51.99797 46.566325 53.15467 50.74615" />
<path class="stroke" d="M 7.728707 50.982655 L 92.271255 50.982655 C 89.957954 56.976355 85.751854 60.604105000000004 79.65305 63.75868" />
<path class="stroke" d="M 53.46999 53.5851775 L 53.46999 88.6009525 C 53.36489 91.5189025 51.05149 93.0173275 48.10719 93.0962275 L 42.11359 93.0962275" />
<path class="stroke" d="M 53.47 53.82175 C 44.8475 71.17195000000001 30.2313 83.317075 7.09779 89.547325" />
</svg>
