<?xml version="1.0" standalone="no"?>
<!DOCTYPE svg PUBLIC "-//W3C//DTD SVG 1.1//EN" "http://www.w3.org/Graphics/SVG/1.1/DTD/svg11.dtd">
<svg xmlns="http://www.w3.org/2000/svg" version="1.1" width="100%" height="100%">
<style type="text/css"><![CDATA[
  .stroke { fill:none; stroke:black; stroke-width:2 }
]]></style>
<path class="stroke" d="M 12.189779 12.554744 L 87.81021 12.554744" />
<path class="stroke" d="M 34.67153 6.715327200000001 L 34.67153 18.8613128" />
<path class="stroke" d="M 65.32846 6.715327200000001 L 65.32846 18.8613128" />
<path class="stroke" d="M 9.854013 25.007298 L 9.854013 33.5912382" />
<path class="stroke" d="M 9.854013 24.6569322 L 90.14598 24.6569322 L 90.14598 33.7664202" />
<path class="stroke" d="M 21.59780898 36.0 L 77.4021855 36.0" />
<path class="stroke" d="M 12.1041033 45.8580448 L 90.74764950000001 45.8580448" />
<path class="stroke" d="M 52.41957 45.8580448 C 42.19872 53.15984 27.719250000000002 57.98844 15.22716 60.87384" />
<path class="stroke" d="M 41.063100000000006 52.39432 C 53.933730000000004 58.282888 58.85484 83.780248 50.71605 92.318624 C 47.78232 95.027344 41.44164000000001 93.143 38.79186 92.67192800000001" />
<path class="stroke" d="M 49.86438 61.050464000000005 C 39.45426 67.233368 28.76028 70.59000800000001 14.091486 74.476352" />
<path class="stroke" d="M 53.27133 71.296504 C 45.794940000000004 77.47957600000001 28.09779 83.839104 13.807572 87.54888" />
<path class="stroke" d="M 81.094623 53.454260000000005 C 75.321753 58.047324 68.413263 61.933724 61.788633 64.936948" />
<path class="stroke" d="M 53.555172000000006 69.17664640000001 C 64.343832 76.36066408 74.84863200000001 83.54473440000001 87.908532 88.0788864" />
</svg>
