<?xml version="1.0" standalone="no"?>
<!DOCTYPE svg PUBLIC "-//W3C//DTD SVG 1.1//EN" "http://www.w3.org/Graphics/SVG/1.1/DTD/svg11.dtd">
<svg xmlns="http://www.w3.org/2000/svg" version="1.1" width="100%" height="100%">
<style type="text/css"><![CDATA[
  .stroke { fill:none; stroke:black; stroke-width:2 }
]]></style>
<path class="stroke" d="M 12.189779 14.124087 L 87.81021 14.124087" />
<path class="stroke" d="M 34.67153 7.5547431000000005 L 34.67153 21.218976899999998" />
<path class="stroke" d="M 65.32846 7.5547431000000005 L 65.32846 21.218976899999998" />
<path class="stroke" d="M 8.4222375 29.6893 L 26.7029925 29.6893 C 23.905955 36.55045 21.408595 39.86275 16.96326 41.755449999999996" />
<path class="stroke" d="M 16.96326 41.755449999999996 L 16.96326 88.6009 C 17.163044999999997 92.071 14.838030674999999 93.25 12.563716424999999 92.829175 L 9.2943894175 90.360355" />
<path class="stroke" d="M 8.572083375 63.0488815 L 26.4033226 53.348605" />
<path class="stroke" d="M 85.85171199999999 27.55993 C 71.386936 31.582075 53.565696 33.23815 37.662468 33.23815" />
<path class="stroke" d="M 37.4226804 33.23815 L 37.4226804 68.49055 C 37.182976399999994 77.244475 35.744372399999996 83.3959 28.0725524 92.38645" />
<path class="stroke" d="M 57.56150468 40.57251775 L 57.56150468 85.998445" />
<path class="stroke" d="M 43.41638468 89.783875 C 52.44693344 87.181375 61.47740468 85.2886 71.22713840000002 84.34225" />
<path class="stroke" d="M 66.91166688 76.29808750000001 C 69.9484688 79.61039500000001 72.02623736 83.869045 72.4258484 88.83757" />
<path class="stroke" d="M 78.6593532 30.87221125 L 78.41957319999999 67.07096200000001 C 78.57947719999999 77.87546499999999 81.1367252 84.1845325 90.16719719999999 92.1498325" />
</svg>
