<?xml version="1.0" standalone="no"?>
<!DOCTYPE svg PUBLIC "-//W3C//DTD SVG 1.1//EN" "http://www.w3.org/Graphics/SVG/1.1/DTD/svg11.dtd">
<svg xmlns="http://www.w3.org/2000/svg" version="1.1" width="100%" height="100%">
<style type="text/css"><![CDATA[
  .stroke { fill:none; stroke:black; stroke-width:2 }
]]></style>
<path class="stroke" d="M 12.189779 14.124087 L 87.81021 14.124087" />
<path class="stroke" d="M 34.67153 7.5547431000000005 L 34.67153 21.218976899999998" />
<path class="stroke" d="M 65.32846 7.5547431000000005 L 65.32846 21.218976899999998" />
<path class="stroke" d="M 79.354836 27.2561934256 C 60.0 31.4002577422 43.138683 31.806933993999998 17.419353 32.781612197200005" />
<path class="stroke" d="M 27.419353 37.0791610294 C 30.0 37.9194014668 31.751823 39.7253574628 33.548386 40.9162567906" />
<path class="stroke" d="M 73.548386 36.4652258218 C 72.62773 38.8918381762 71.6129 39.995354455 69.354836 40.9162567906" />
<path class="stroke" d="M 12.4817505 45.87856198 L 87.81021 45.87856198" />
<path class="stroke" d="M 50.0 31.31941504 L 50.0 66.6757780768" />
<path class="stroke" d="M 49.85401 47.782699306 C 40.6414 55.68479998 28.832115 61.118987908 11.021896 64.7308999" />
<path class="stroke" d="M 49.85401 47.782699306 C 58.5174 55.53468508 72.713 60.988066780000004 89.85401 64.4530631512" />
<path class="stroke" d="M 27.56204344 67.2445540456 L 27.56204344 92.496055864" />
<path class="stroke" d="M 27.56204344 67.1443495984 L 72.60729568 67.1443495984 L 72.60729568 92.496055864" />
<path class="stroke" d="M 50.0846684 67.2445540456 L 50.0846684 90.69237856" />
<path class="stroke" d="M 27.56204344 78.9116123056 L 72.2686128 78.9116123056" />
<path class="stroke" d="M 27.56204344 90.69237856 L 72.60729568 90.69237856" />
</svg>
