<?xml version="1.0" standalone="no"?>
<!DOCTYPE svg PUBLIC "-//W3C//DTD SVG 1.1//EN" "http://www.w3.org/Graphics/SVG/1.1/DTD/svg11.dtd">
<svg xmlns="http://www.w3.org/2000/svg" version="1.1" width="100%" height="100%">
<style type="text/css"><![CDATA[
  .stroke { fill:none; stroke:black; stroke-width:2 }
]]></style>
<path class="stroke" d="M 23.49853821 9.562042 C 18.53211654 19.48905 15.40510839 24.160583 10.2547431 28.832115" />
<path class="stroke" d="M 20.37153258 16.27737 L 38.0299248 16.27737 C 37.47809772 22.992699 35.270800109999996 27.372261 31.77591102 32.919704" />
<path class="stroke" d="M 17.796348990000002 34.257427 L 17.796348990000002 69.124084" />
<path class="stroke" d="M 17.796348990000002 34.37956 L 45.0197055 34.08759 L 45.0197055 69.124084" />
<path class="stroke" d="M 31.5919674 34.08759 L 31.5919674 69.124084" />
<path class="stroke" d="M 17.796348990000002 51.313866 L 45.0197055 51.313866" />
<path class="stroke" d="M 17.796348990000002 69.124084 L 45.0197055 69.124084" />
<path class="stroke" d="M 12.462043229999999 77.59124 C 11.910217410000001 81.678825 10.80656892 85.47445 9.335035079999999 88.978096" />
<path class="stroke" d="M 21.4751817 78.17518 C 22.94671365 81.09489 23.8664223 85.47445 24.418245600000002 89.85401" />
<path class="stroke" d="M 34.16715162 77.88321 C 36.1905075 81.09489 37.38980952 85.18248 38.397807 89.85401" />
<path class="stroke" d="M 47.594887199999995 78.46715 C 49.066422300000006 80.51095 49.1834322 78.290596 50.1031377 82.67016" />
<path class="stroke" d="M 90.46977777777778 12.3201856 L 57.25551866666667 16.62616" />
<path class="stroke" d="M 56.933048444444445 33.27605144 L 90.79208444444444 33.27605144" />
<path class="stroke" d="M 74.02375555555555 15.76501335 L 74.02375555555555 90.68931735" />
<path class="stroke" d="M 56.288118222222224 70.020501 C 63.38242222222222 58.155102 70.15423555555556 46.002598 74.02385777777778 33.276066 C 77.46353333333333 42.557793000000004 82.83786666666666 51.265583 90.14716444444444 59.112058" />
</svg>
