<?xml version="1.0" standalone="no"?>
<!DOCTYPE svg PUBLIC "-//W3C//DTD SVG 1.1//EN" "http://www.w3.org/Graphics/SVG/1.1/DTD/svg11.dtd">
<svg xmlns="http://www.w3.org/2000/svg" version="1.1" width="100%" height="100%">
<style type="text/css"><![CDATA[
  .stroke { fill:none; stroke:black; stroke-width:2 }
]]></style>
<path class="stroke" d="M 12.189779 14.124087 L 87.81021 14.124087" />
<path class="stroke" d="M 34.67153 7.5547431000000005 L 34.67153 21.218976899999998" />
<path class="stroke" d="M 65.32846 7.5547431000000005 L 65.32846 21.218976899999998" />
<path class="stroke" d="M 23.49853821 25.84087444 C 18.53211654 33.981021 15.40510839 37.81167806 10.2547431 41.6423343" />
<path class="stroke" d="M 20.37153258 31.3474434 L 38.0299248 31.3474434 C 37.47809772 36.854013179999995 35.270800109999996 40.44525402 31.77591102 44.994157279999996" />
<path class="stroke" d="M 17.796348990000002 46.09109014 L 17.796348990000002 74.68174887999999" />
<path class="stroke" d="M 17.796348990000002 46.1912392 L 45.0197055 45.9518238 L 45.0197055 74.68174887999999" />
<path class="stroke" d="M 31.5919674 45.9518238 L 31.5919674 74.68174887999999" />
<path class="stroke" d="M 17.796348990000002 60.07737012 L 45.0197055 60.07737012" />
<path class="stroke" d="M 17.796348990000002 74.68174887999999 L 45.0197055 74.68174887999999" />
<path class="stroke" d="M 12.462043229999999 81.62481679999999 C 11.910217410000001 84.9766365 10.80656892 88.089049 9.335035079999999 90.96203872" />
<path class="stroke" d="M 21.4751817 82.10364759999999 C 22.94671365 84.4978098 23.8664223 88.089049 24.418245600000002 91.68028819999999" />
<path class="stroke" d="M 34.16715162 81.8642322 C 36.1905075 84.4978098 37.38980952 87.84963359999999 38.397807 91.68028819999999" />
<path class="stroke" d="M 47.594887199999995 82.343063 C 49.066422300000006 84.01897899999999 49.1834322 82.19828872 50.1031377 85.7895312" />
<path class="stroke" d="M 90.46977777777778 28.102552191999997 L 57.25551866666667 31.633451199999996" />
<path class="stroke" d="M 56.933048444444445 45.2863621808 L 90.79208444444444 45.2863621808" />
<path class="stroke" d="M 74.02375555555555 30.927310947 L 74.02375555555555 92.36524022699999" />
<path class="stroke" d="M 56.288118222222224 75.41681082 C 63.38242222222222 65.68718364 70.15423555555556 55.722130359999994 74.02385777777778 45.28637412 C 77.46353333333333 52.89739026 82.83786666666666 60.037778059999994 90.14716444444444 66.47188756" />
</svg>
