<?xml version="1.0" standalone="no"?>
<!DOCTYPE svg PUBLIC "-//W3C//DTD SVG 1.1//EN" "http://www.w3.org/Graphics/SVG/1.1/DTD/svg11.dtd">
<svg xmlns="http://www.w3.org/2000/svg" version="1.1" width="100%" height="100%">
<style type="text/css"><![CDATA[
  .stroke { fill:none; stroke:black; stroke-width:2 }
]]></style>
<path class="stroke" d="M 12.189779 14.124087 L 87.81021 14.124087" />
<path class="stroke" d="M 34.67153 7.5547431000000005 L 34.67153 21.218976899999998" />
<path class="stroke" d="M 65.32846 7.5547431000000005 L 65.32846 21.218976899999998" />
<path class="stroke" d="M 17.5999982 23.9 C 17.0162141 33.259998440000004 14.389188800000001 40.78594466 11.4702692 46.35135074" />
<path class="stroke" d="M 17.5999982 29.14918862 L 88.237832 29.14918862 L 88.237832 70.88972720000001 C 87.670022 83.3566154 79.24298 92.299682 69.02213 92.46371599999999 L 64.76342 92.46371599999999" />
<path class="stroke" d="M 30.938144 37.135393184 C 29.196824000000003 42.71267648 25.638512000000002 47.118709280000004 19.581728000000002 51.022824560000004" />
<path class="stroke" d="M 27.985496 43.49347832 L 71.82140000000001 43.49347832" />
<path class="stroke" d="M 16.8561464 59.89074128 L 79.770992 59.89074128" />
<path class="stroke" d="M 48.200036000000004 43.6608110336 L 48.200036000000004 83.315369312" />
<path class="stroke" d="M 21.852968000000004 67.42008752000001 L 21.852968000000004 83.48266808 L 73.865624 83.48266808" />
<path class="stroke" d="M 73.865624 67.08540512 L 73.865624 83.48266808" />
</svg>
