<?xml version="1.0" standalone="no"?>
<!DOCTYPE svg PUBLIC "-//W3C//DTD SVG 1.1//EN" "http://www.w3.org/Graphics/SVG/1.1/DTD/svg11.dtd">
<svg xmlns="http://www.w3.org/2000/svg" version="1.1" width="100%" height="100%">
<style type="text/css"><![CDATA[
  .stroke { fill:none; stroke:black; stroke-width:2 }
]]></style>
<path class="stroke" d="M 13.999998 5.0 C 13.351349 16.999998 10.432432 26.648647 7.189188 33.783783" />
<path class="stroke" d="M 13.999998 11.729729 L 92.48648 11.729729 L 92.48648 65.24324 C 91.85558 81.22643 82.4922 92.6919 71.1357 92.9022 L 66.4038 92.9022" />
<path class="stroke" d="M 18.934448619999998 31.6057406 L 79.8043013 31.6057406" />
<path class="stroke" d="M 21.6546188 42.6624358 L 21.6546188 84.4479418" />
<path class="stroke" d="M 21.6546188 42.6624358 L 77.0584218 42.6624358 L 77.0584218 80.2460738 C 77.3454358 82.73609979999999 75.3359738 84.2923235 72.4652878 84.2144718 L 69.8817068 84.2144718" />
<path class="stroke" d="M 21.9416055 53.634068 L 76.77128950000001 53.400597999999995" />
<path class="stroke" d="M 21.6545915 65.072544 L 76.77138049999999 65.072544" />
<path class="stroke" d="M 49.5 20.0189242 L 49.5 84.447964" />
<path class="stroke" d="M 65.17464079999999 20.133971629999998 C 68.90654534000001 21.69023566 71.0283614 23.996195540000002 72.75071840000001 26.7196168" />
</svg>
