<?xml version="1.0" standalone="no"?>
<!DOCTYPE svg PUBLIC "-//W3C//DTD SVG 1.1//EN" "http://www.w3.org/Graphics/SVG/1.1/DTD/svg11.dtd">
<svg xmlns="http://www.w3.org/2000/svg" version="1.1" width="100%" height="100%">
<style type="text/css"><![CDATA[
  .stroke { fill:none; stroke:black; stroke-width:2 }
]]></style>
<path class="stroke" d="M 12.189779 14.124087 L 87.81021 14.124087" />
<path class="stroke" d="M 34.67153 7.5547431000000005 L 34.67153 21.218976899999998" />
<path class="stroke" d="M 65.32846 7.5547431000000005 L 65.32846 21.218976899999998" />
<path class="stroke" d="M 13.999998 21.15 C 13.351349 31.10999834 10.432432 39.11837701 7.189188 45.04053989" />
<path class="stroke" d="M 13.999998 26.73567507 L 92.48648 26.73567507 L 92.48648 71.1518892 C 91.85558 84.41793689999999 82.4922 93.934277 71.1357 94.108826 L 66.4038 94.108826" />
<path class="stroke" d="M 18.934448619999998 43.232764698 L 79.8043013 43.232764698" />
<path class="stroke" d="M 21.6546188 52.409821713999996 L 21.6546188 87.091791694" />
<path class="stroke" d="M 21.6546188 52.409821713999996 L 77.0584218 52.409821713999996 L 77.0584218 83.604241254 C 77.3454358 85.670962834 75.3359738 86.962628505 72.4652878 86.898011594 L 69.8817068 86.898011594" />
<path class="stroke" d="M 21.9416055 61.51627644 L 76.77128950000001 61.322496339999994" />
<path class="stroke" d="M 21.6545915 71.01021151999998 L 76.77138049999999 71.01021151999998" />
<path class="stroke" d="M 49.5 33.615707086 L 49.5 87.09181011999999" />
<path class="stroke" d="M 65.17464079999999 33.7111964529 C 68.90654534000001 35.0028955978 71.0283614 36.9168422982 72.75071840000001 39.177281944" />
</svg>
