<?xml version="1.0" standalone="no"?>
<!DOCTYPE svg PUBLIC "-//W3C//DTD SVG 1.1//EN" "http://www.w3.org/Graphics/SVG/1.1/DTD/svg11.dtd">
<svg xmlns="http://www.w3.org/2000/svg" version="1.1" width="100%" height="100%">
<style type="text/css"><![CDATA[
  .stroke { fill:none; stroke:black; stroke-width:2 }
]]></style>
<path class="stroke" d="M 12.189779 14.124087 L 87.81021 14.124087" />
<path class="stroke" d="M 34.67153 7.5547431000000005 L 34.67153 21.218976899999998" />
<path class="stroke" d="M 65.32846 7.5547431000000005 L 65.32846 21.218976899999998" />
<path class="stroke" d="M 14.14525402 31.938101760000002 L 14.14525402 69.60933888" />
<path class="stroke" d="M 14.14525402 31.938101760000002 L 34.735034999999996 31.938101760000002 L 34.735034999999996 69.60933888" />
<path class="stroke" d="M 14.26496295 49.747529216000004 L 34.615327300000004 49.747529216000004" />
<path class="stroke" d="M 14.14525402 67.964960768 L 34.735034999999996 67.964960768" />
<path class="stroke" d="M 50.31167854 29.325546192 L 50.2744972 65.21987056 C 45.55100629 84.47785056000001 45.55100629 83.84644048000001 40.271811459999995 92.054768384" />
<path class="stroke" d="M 50.31167854 29.325546192 L 78.5160592 29.325546192 L 78.5160592 89.06977776000001 C 78.5160592 90.90102144000001 77.7102151 92.5033528 75.69561795999999 92.5033528 L 73.47956289999999 92.5033528" />
<path class="stroke" d="M 50.31167854 46.580260368 L 78.5160592 46.580260368" />
<path class="stroke" d="M 50.31167854 64.806503424 L 78.5160592 64.806503424" />
</svg>
