<?xml version="1.0" standalone="no"?>
<!DOCTYPE svg PUBLIC "-//W3C//DTD SVG 1.1//EN" "http://www.w3.org/Graphics/SVG/1.1/DTD/svg11.dtd">
<svg xmlns="http://www.w3.org/2000/svg" version="1.1" width="100%" height="100%">
<style type="text/css"><![CDATA[
  .stroke { fill:none; stroke:black; stroke-width:2 }
]]></style>
<path class="stroke" d="M 12.189779 14.124087 L 87.81021 14.124087" />
<path class="stroke" d="M 34.67153 7.5547431000000005 L 34.67153 21.218976899999998" />
<path class="stroke" d="M 65.32846 7.5547431000000005 L 65.32846 21.218976899999998" />
<path class="stroke" d="M 8.250825 32.42772284 L 29.838708333333333 32.58064396 C 31.451613333333338 37.48386984 26.61290166666667 49.25161028 21.774193333333333 54.4" />
<path class="stroke" d="M 21.774193333333333 55.1354824 C 25.80645 57.8322588 29.032255833333334 61.26451532 30.645160833333332 65.18709799999999 C 32.2580625 67.3935452 32.2580625 73.52257660000001 23.655913333333334 75.9741884 L 18.54838666666667 76.70967536" />
<path class="stroke" d="M 10.726071666666666 32.42772284 L 10.726071666666666 92.4752476" />
<path class="stroke" d="M 65.78546 27.6840481528 C 58.157662 35.5508889408 50.979553440000004 42.020966328 41.6481664 45.624585671999995" />
<path class="stroke" d="M 65.78546 27.6840481528 C 73.0481728 35.4221890056 79.7689154 41.62509266399999 89.4973796 45.4861145232" />
<path class="stroke" d="M 55.960208 42.372028263999994 L 75.82617680000001 42.372028263999994" />
<path class="stroke" d="M 47.4157054 49.086366596 L 83.0890052 49.086366596 C 80.5079836 54.620498192 73.2467124 60.004026059999994 67.68759 63.35024465199999" />
<path class="stroke" d="M 45.649633200000004 64.36376587000001 L 86.35036000000001 64.36376587000001" />
<path class="stroke" d="M 38.8992698 74.65026232 L 92.9021872 74.65026232" />
<path class="stroke" d="M 59.94452316 74.608787752 C 56.56934248 82.1976919192 51.6058382 88.64826085119999 46.443795 93.4545646 C 56.56934248 92.82215758 71.45985464 91.9367860192 84.16642032 91.683824944" />
<path class="stroke" d="M 79.9970792 87.762888424 C 82.7766404 89.786597386 85.55620160000001 92.569194772 86.5488996 94.592901568" />
</svg>
