<?xml version="1.0" standalone="no"?>
<!DOCTYPE svg PUBLIC "-//W3C//DTD SVG 1.1//EN" "http://www.w3.org/Graphics/SVG/1.1/DTD/svg11.dtd">
<svg xmlns="http://www.w3.org/2000/svg" version="1.1" width="100%" height="100%">
<style type="text/css"><![CDATA[
  .stroke { fill:none; stroke:black; stroke-width:2 }
]]></style>
<path class="stroke" d="M 12.189779 14.124087 L 87.81021 14.124087" />
<path class="stroke" d="M 34.67153 7.5547431000000005 L 34.67153 21.218976899999998" />
<path class="stroke" d="M 65.32846 7.5547431000000005 L 65.32846 21.218976899999998" />
<path class="stroke" d="M 8.115151000000001 29.13796356 L 8.03479416 67.586" />
<path class="stroke" d="M 8.115151000000001 29.13796356 L 45.329657 29.13796356" />
<path class="stroke" d="M 24.720827689999997 29.13800944 L 24.720827689999997 40.71651564" />
<path class="stroke" d="M 8.115151000000001 41.295434068000006 L 38.954248 41.295434068000006 L 38.954248 53.74240278799999" />
<path class="stroke" d="M 8.115151000000001 53.74240278799999 L 38.954248 53.74240278799999" />
<path class="stroke" d="M 24.86909248 53.8871496 L 24.86909248 65.6104072" />
<path class="stroke" d="M 8.115151000000001 65.7551586 L 45.62618 65.7551586" />
<path class="stroke" d="M 53.7078809668 34.00404672313143 C 52.412356009199996 42.30527641099429 50.469069118 50.92578234470858 47.878019748 56.67278809202286" />
<path class="stroke" d="M 51.6026538648 46.136612859268574 L 91.763921008 46.136612859268574" />
<path class="stroke" d="M 56.800851226784 60.704 L 90.31194545839999 60.704" />
<path class="stroke" d="M 20.346947999999998 73.12946432 L 20.346947999999998 91.80455424" />
<path class="stroke" d="M 20.346947999999998 73.12946432 L 78.763436 73.12946432 L 78.763436 91.72984384" />
<path class="stroke" d="M 39.917973599999996 73.20417472 L 39.917973599999996 91.80455424" />
<path class="stroke" d="M 59.7855316 73.20416453760001 L 59.7855316 91.879255168" />
<path class="stroke" d="M 9.671922599999998 91.87924095999999 L 90.32806799999999 91.87924095999999" />
</svg>
