<?xml version="1.0" standalone="no"?>
<!DOCTYPE svg PUBLIC "-//W3C//DTD SVG 1.1//EN" "http://www.w3.org/Graphics/SVG/1.1/DTD/svg11.dtd">
<svg xmlns="http://www.w3.org/2000/svg" version="1.1" width="100%" height="100%">
<style type="text/css"><![CDATA[
  .stroke { fill:none; stroke:black; stroke-width:2 }
]]></style>
<path class="stroke" d="M 12.189779 14.124087 L 87.81021 14.124087" />
<path class="stroke" d="M 34.67153 7.5547431000000005 L 34.67153 21.218976899999998" />
<path class="stroke" d="M 65.32846 7.5547431000000005 L 65.32846 21.218976899999998" />
<path class="stroke" d="M 11.8297 28.742899 L 11.8297 52.4022025" />
<path class="stroke" d="M 11.8297 28.742899 L 39.2744 28.742899 L 39.2744 52.4022025" />
<path class="stroke" d="M 11.8297 52.4022025 L 39.2744 52.4022025" />
<path class="stroke" d="M 25.39435 52.402225 L 25.39435 88.837525" />
<path class="stroke" d="M 25.70984 66.36122499999999 L 41.48264 66.36122499999999" />
<path class="stroke" d="M 11.8297 61.392700000000005 L 11.8297 91.203475" />
<path class="stroke" d="M 6.78233 92.38645 L 41.7981 86.235025" />
<path class="stroke" d="M 68.72627565 31.61204269 C 65.03284525000001 38.11569325 58.77007225 44.908392625000005 52.3467141 49.2441595" />
<path class="stroke" d="M 66.79926815 35.36970748 L 81.091242 35.36970748 C 75.3102195 47.220800964999995 62.945254250000005 60.95072635 50.58029175 68.46605395" />
<path class="stroke" d="M 60.6970803 42.45145963 C 67.0 52.94354893 79.96715035 62.829560725 93.61678800000001 68.46605395" />
<path class="stroke" d="M 61.5421530175 66.2363134375 L 61.5421530175 86.73266312499999" />
<path class="stroke" d="M 61.5421530175 66.2363134375 L 80.79616700000001 66.2363134375 L 80.79616700000001 86.53558337500002" />
<path class="stroke" d="M 61.5421530175 85.1560204 L 80.79616700000001 85.1560204" />
</svg>
