<?xml version="1.0" standalone="no"?>
<!DOCTYPE svg PUBLIC "-//W3C//DTD SVG 1.1//EN" "http://www.w3.org/Graphics/SVG/1.1/DTD/svg11.dtd">
<svg xmlns="http://www.w3.org/2000/svg" version="1.1" width="100%" height="100%">
<style type="text/css"><![CDATA[
  .stroke { fill:none; stroke:black; stroke-width:2 }
]]></style>
<path class="stroke" d="M 82.376236 7.70077 C 63.960396 11.16611688888889 35.742573 12.783278666666666 19.108912 12.783278666666666" />
<path class="stroke" d="M 20.891088 18.78987988888889 C 25.346535 22.024203444444446 28.0231 25.55785555555556 30.09901 29.18591977777778" />
<path class="stroke" d="M 43.465347 17.634763222222222 C 47.623764 20.176017555555557 50.29703 23.410341111111112 52.07921 27.568757222222224" />
<path class="stroke" d="M 80.89109 16.248624 C 78.514854 21.79317933333333 74.95049 25.951595444444447 69.90099 28.95489488888889" />
<path class="stroke" d="M 13.40696 47.334351999999996 L 86.59306 47.334351999999996" />
<path class="stroke" d="M 6.782333 64.116698 L 92.27137 64.116698" />
<path class="stroke" d="M 50.0 34.526816 L 50.0 64.11681 C 50.5258 77.5132 31.4932 92.23454999999998 7.41325 95.25238999999999" />
<path class="stroke" d="M 50.0 64.11674 C 50.3155 77.66040999999998 64.5111 90.98322999999999 92.2713 95.47317" />
</svg>
