<?xml version="1.0" standalone="no"?>
<!DOCTYPE svg PUBLIC "-//W3C//DTD SVG 1.1//EN" "http://www.w3.org/Graphics/SVG/1.1/DTD/svg11.dtd">
<svg xmlns="http://www.w3.org/2000/svg" version="1.1" width="100%" height="100%">
<style type="text/css"><![CDATA[
  .stroke { fill:none; stroke:black; stroke-width:2 }
]]></style>
<path class="stroke" d="M 13.649633 9.562042 L 13.649633 90.14598" />
<path class="stroke" d="M 13.649633 9.562042 L 38.17518 9.562042 L 38.17518 38.46715" />
<path class="stroke" d="M 13.649633 22.408756 L 37.88321 22.408756" />
<path class="stroke" d="M 13.649633 36.131386 L 38.17518 36.131386" />
<path class="stroke" d="M 62.408752 9.854013 L 62.408752 38.46715" />
<path class="stroke" d="M 62.408752 9.854013 L 86.642334 9.854013 L 86.642334 85.47445 C 86.642334 88.39416 84.306564 90.14598 81.678825 89.85401" />
<path class="stroke" d="M 62.408752 22.408756 L 86.642334 22.408756" />
<path class="stroke" d="M 62.408752 36.131386 L 86.642334 36.131386" />
<path class="stroke" d="M 19.68216132 49.2378374 L 80.5643196 49.2378374" />
<path class="stroke" d="M 50.1109448 40.3868612 L 50.1109448 89.437952" />
<path class="stroke" d="M 48.767565760000004 73.951349 C 37.675675080000005 82.318916 30.9743614 84.47792 19.43567508 88.156754" />
<path class="stroke" d="M 51.2324312 73.951349 C 63.310267599999996 83.291888 69.0256272 85.587254 80.5643196 88.7405396" />
<path class="stroke" d="M 27.397189235200003 57.207783584 L 27.742269651999997 71.48324204" />
<path class="stroke" d="M 27.397189235200003 57.04432412 L 72.60280735999999 57.04432412 L 72.77535092 71.59221608" />
<path class="stroke" d="M 35.851674396 59.932107704 C 40.510269120000004 62.92886432 41.02788916 63.364756616 43.09837623599999 67.61470184000001" />
<path class="stroke" d="M 63.975778319999996 59.823135007999994 C 59.66226646 62.81989162399999 59.66226646 62.983351088 57.419243272 67.50572864" />
<path class="stroke" d="M 27.569729283999997 71.319783248 L 72.60280735999999 71.42875544" />
</svg>
