<?xml version="1.0" standalone="no"?>
<!DOCTYPE svg PUBLIC "-//W3C//DTD SVG 1.1//EN" "http://www.w3.org/Graphics/SVG/1.1/DTD/svg11.dtd">
<svg xmlns="http://www.w3.org/2000/svg" version="1.1" width="100%" height="100%">
<style type="text/css"><![CDATA[
  .stroke { fill:none; stroke:black; stroke-width:2 }
]]></style>
<path class="stroke" d="M 12.189779 14.124087 L 87.81021 14.124087" />
<path class="stroke" d="M 34.67153 7.5547431000000005 L 34.67153 21.218976899999998" />
<path class="stroke" d="M 65.32846 7.5547431000000005 L 65.32846 21.218976899999998" />
<path class="stroke" d="M 25.912407 24.9863128975 C 24.452553 31.0169702575 15.109488 37.402371775000006 9.562042 38.8213490125" />
<path class="stroke" d="M 21.532845 34.2096707125 L 21.532845 73.941054625" />
<path class="stroke" d="M 56.277367 25.1636858875 C 54.525543 29.065875265000003 51.313866 32.4359481025 46.642334 34.387042487500004" />
<path class="stroke" d="M 21.532845 34.0437898 L 75.54744 34.0437898" />
<path class="stroke" d="M 48.10219 34.387042487500004 L 48.10219 73.941054625" />
<path class="stroke" d="M 21.532845 48.033548874999994 L 71.75182 48.033548874999994" />
<path class="stroke" d="M 21.532845 60.99288103000001 L 72.04379 60.99288103000001" />
<path class="stroke" d="M 21.532845 73.941054625 L 81.386856 73.941054625" />
<path class="stroke" d="M 18.613138 81.3759049 C 18.029196 85.8693394 15.69343 89.6532787 11.89781 91.7817481" />
<path class="stroke" d="M 35.255474 82.08540010000002 C 38.46715 85.15984825000001 40.218975 87.9978088 41.67883 92.0182438" />
<path class="stroke" d="M 59.197075 82.3218958 C 62.408752 85.15984825000001 63.868607 88.23430450000001 65.32846 92.2547395" />
<path class="stroke" d="M 81.386856 82.3218958 C 84.8905 85.15984825000001 86.9343 87.76130500000001 88.68613 92.2547395" />
</svg>
