<?xml version="1.0" standalone="no"?>
<!DOCTYPE svg PUBLIC "-//W3C//DTD SVG 1.1//EN" "http://www.w3.org/Graphics/SVG/1.1/DTD/svg11.dtd">
<svg xmlns="http://www.w3.org/2000/svg" version="1.1" width="100%" height="100%">
<style type="text/css"><![CDATA[
  .stroke { fill:none; stroke:black; stroke-width:2 }
]]></style>
<path class="stroke" d="M 12.189779 14.124087 L 87.81021 14.124087" />
<path class="stroke" d="M 34.67153 7.5547431000000005 L 34.67153 21.218976899999998" />
<path class="stroke" d="M 65.32846 7.5547431000000005 L 65.32846 21.218976899999998" />
<path class="stroke" d="M 13.649633 27.487225225 L 13.649633 39.78892945" />
<path class="stroke" d="M 13.649633 27.487225225 L 86.642334 27.487225225 L 86.642334 39.78892945" />
<path class="stroke" d="M 36.75083 27.487225225 L 36.75083 39.78892945" />
<path class="stroke" d="M 63.249256 27.487225225 L 63.249256 39.78892945" />
<path class="stroke" d="M 13.649633 39.79471225 L 86.83168 39.79471225" />
<path class="stroke" d="M 29.80198 49.58302733314286 L 60.69307 49.58302733314286" />
<path class="stroke" d="M 45.544556 42.610466702857146 L 45.544556 58.82166991885715" />
<path class="stroke" d="M 14.356436 58.922824137142854 L 85.64356 58.922824137142854" />
<path class="stroke" d="M 72.27723 46.27106148857143 C 57.425743 60.73912352000001 35.148514 69.80345192857143 11.386139 73.98698924571428" />
<path class="stroke" d="M 31.81605584 69.73365812360001 L 31.81605584 93.4488791168" />
<path class="stroke" d="M 31.81605584 69.73365812360001 L 67.97371999999999 69.73365812360001 L 67.97371999999999 93.4488791168" />
<path class="stroke" d="M 32.0262764 80.94524925176 L 67.7635016 80.94524925176" />
<path class="stroke" d="M 31.81605584 92.41369170848 L 67.97371999999999 92.41369170848" />
</svg>
