<?xml version="1.0" standalone="no"?>
<!DOCTYPE svg PUBLIC "-//W3C//DTD SVG 1.1//EN" "http://www.w3.org/Graphics/SVG/1.1/DTD/svg11.dtd">
<svg xmlns="http://www.w3.org/2000/svg" version="1.1" width="100%" height="100%">
<style type="text/css"><![CDATA[
  .stroke { fill:none; stroke:black; stroke-width:2 }
]]></style>
<path class="stroke" d="M 12.189779 10.985401 L 87.81021 10.985401" />
<path class="stroke" d="M 34.67153 5.875911299999999 L 34.67153 16.5036487" />
<path class="stroke" d="M 65.32846 5.875911299999999 L 65.32846 16.5036487" />
<path class="stroke" d="M 13.649633 22.22335612 L 13.649633 91.5255428" />
<path class="stroke" d="M 13.649633 22.22335612 L 38.17518 22.22335612 L 38.17518 47.081748999999995" />
<path class="stroke" d="M 13.649633 33.27153016 L 37.88321 33.27153016" />
<path class="stroke" d="M 13.649633 45.072991959999996 L 38.17518 45.072991959999996" />
<path class="stroke" d="M 62.408752 22.474451180000003 L 62.408752 47.081748999999995" />
<path class="stroke" d="M 62.408752 22.474451180000003 L 86.642334 22.474451180000003 L 86.642334 87.508027 C 86.642334 90.0189776 84.306564 91.5255428 81.678825 91.2744486" />
<path class="stroke" d="M 62.408752 33.27153016 L 86.642334 33.27153016" />
<path class="stroke" d="M 62.408752 45.072991959999996 L 86.642334 45.072991959999996" />
<path class="stroke" d="M 24.93193732 53.366387339999996 L 75.06806040000001 53.366387339999996" />
<path class="stroke" d="M 30.811881760000002 59.17128672 L 30.811881760000002 73.95235439999999" />
<path class="stroke" d="M 30.811881760000002 59.17128672 L 71.00942024 59.17128672 L 71.00942024 74.114447544" />
<path class="stroke" d="M 31.03762228 66.528119052 L 70.531932 66.528119052" />
<path class="stroke" d="M 31.03762228 73.88494931999999 L 69.81570496 73.88494931999999" />
<path class="stroke" d="M 50.477485200000004 49.1519367 L 50.477485200000004 90.64806072" />
<path class="stroke" d="M 50.23978 73.64388960000001 C 43.010216920000005 81.42525216 34.47354352 88.34245920000001 24.93193732 89.99968607999999" />
<path class="stroke" d="M 50.23978 73.64388960000001 C 56.54598336 81.72656520000001 66.464583 88.67808108 75.784292 90.48596964" />
</svg>
