<?xml version="1.0" standalone="no"?>
<!DOCTYPE svg PUBLIC "-//W3C//DTD SVG 1.1//EN" "http://www.w3.org/Graphics/SVG/1.1/DTD/svg11.dtd">
<svg xmlns="http://www.w3.org/2000/svg" version="1.1" width="100%" height="100%">
<style type="text/css"><![CDATA[
  .stroke { fill:none; stroke:black; stroke-width:2 }
]]></style>
<path class="stroke" d="M 12.189779 14.124087 L 87.81021 14.124087" />
<path class="stroke" d="M 34.67153 7.5547431000000005 L 34.67153 21.218976899999998" />
<path class="stroke" d="M 65.32846 7.5547431000000005 L 65.32846 21.218976899999998" />
<path class="stroke" d="M 50.14598 23.570164238750003 L 50.14598 32.675272786250005" />
<path class="stroke" d="M 12.4817505 32.882205815 L 12.4817505 42.815052856250006" />
<path class="stroke" d="M 12.4817505 32.882205815 L 87.81021 32.882205815 L 87.81021 42.815052856250006" />
<path class="stroke" d="M 32.33436 39.02586344 C 26.235558 44.9539424 19.190357 49.04230400000001 10.252367 51.9041312" />
<path class="stroke" d="M 66.08834 39.025869920000005 C 72.08204 44.136296 79.02204 48.224592799999996 87.85484 51.086420000000004" />
<path class="stroke" d="M 49.6845 45.97599392000001 C 37.6971 58.64983712 26.0253 66.21329312 6.15142 71.11923632" />
<path class="stroke" d="M 49.6845 45.97599392000001 C 61.1462 58.71794192 71.9768 66.14505872000001 93.5331 71.11923632" />
<path class="stroke" d="M 26.34068 72.14135912 L 26.65618 92.58297272000001" />
<path class="stroke" d="M 26.34068 72.14135912 L 73.02828 72.14135912 L 73.34378 92.58297272000001" />
<path class="stroke" d="M 26.65618 92.58297272000001 L 73.34378 92.58297272000001" />
</svg>
