<?xml version="1.0" standalone="no"?>
<!DOCTYPE svg PUBLIC "-//W3C//DTD SVG 1.1//EN" "http://www.w3.org/Graphics/SVG/1.1/DTD/svg11.dtd">
<svg xmlns="http://www.w3.org/2000/svg" version="1.1" width="100%" height="100%">
<style type="text/css"><![CDATA[
  .stroke { fill:none; stroke:black; stroke-width:2 }
]]></style>
<path class="stroke" d="M 12.189779 14.124087 L 87.81021 14.124087" />
<path class="stroke" d="M 34.67153 7.5547431000000005 L 34.67153 21.218976899999998" />
<path class="stroke" d="M 65.32846 7.5547431000000005 L 65.32846 21.218976899999998" />
<path class="stroke" d="M 11.313868 33.130654930000006 C 15.401459 33.60364876 19.48905 35.495619219999995 22.408756 38.57007223" />
<path class="stroke" d="M 9.270073 57.25328356 C 13.357662 57.25328356 18.321167 57.016785430000006 23.86861 53.94233323 C 16.27737 62.21970622 14.233576 66.24014527 15.109488 68.368609 C 15.69343 70.26058108000001 20.948904 72.15255640000001 22.116787 74.75401315 C 23.576641 77.59196560000001 18.129246 84.0146986 11.021896 86.81532706000002" />
<path class="stroke" d="M 11.021896 87.05182195 C 39.692924 85.1403556 40.51095 92.96423146000001 90.43795 92.0182438" />
<path class="stroke" d="M 39.1921461 36.4383232372 L 88.266491 36.4383232372" />
<path class="stroke" d="M 43.78467027 46.078830226 L 43.5715329 64.69582486600001" />
<path class="stroke" d="M 43.5715329 46.078830226 L 83.4284598 46.078830226 L 83.4284598 64.69582486600001" />
<path class="stroke" d="M 43.5715329 55.354190608 L 83.2153217 55.354190608" />
<path class="stroke" d="M 43.5715329 64.88975134 L 83.4284598 64.88975134" />
<path class="stroke" d="M 38.02992624 74.58610160799999 L 88.970065 74.58610160799999" />
<path class="stroke" d="M 63.6355099 29.0132553484 L 63.6355099 83.31281286400001" />
</svg>
