<?xml version="1.0" standalone="no"?>
<!DOCTYPE svg PUBLIC "-//W3C//DTD SVG 1.1//EN" "http://www.w3.org/Graphics/SVG/1.1/DTD/svg11.dtd">
<svg xmlns="http://www.w3.org/2000/svg" version="1.1" width="100%" height="100%">
<style type="text/css"><![CDATA[
  .stroke { fill:none; stroke:black; stroke-width:2 }
]]></style>
<path class="stroke" d="M 12.189779 11.7700725 L 87.81021 11.7700725" />
<path class="stroke" d="M 34.67153 6.29561925 L 34.67153 17.68248075" />
<path class="stroke" d="M 65.32846 6.29561925 L 65.32846 17.68248075" />
<path class="stroke" d="M 24.744522 25.079518016999998 L 24.744522 45.34252329600001" />
<path class="stroke" d="M 24.744522 25.079518016999998 L 74.9635 25.079518016999998 L 74.9635 45.34252329600001" />
<path class="stroke" d="M 25.036495 34.6590420822 L 74.67153 34.6590420822" />
<path class="stroke" d="M 24.744522 44.458027725600004 L 74.9635 44.458027725600004" />
<path class="stroke" d="M 13.649633 53.5128823125 L 13.649633 64.02383212500001" />
<path class="stroke" d="M 13.649633 53.5128823125 L 86.642334 53.5128823125 L 86.642334 64.02383212500001" />
<path class="stroke" d="M 36.75083 53.5128823125 L 36.75083 64.02383212500001" />
<path class="stroke" d="M 63.249256 53.5128823125 L 63.249256 64.02383212500001" />
<path class="stroke" d="M 13.649633 64.028773125 L 86.83168 64.028773125" />
<path class="stroke" d="M 23.861385 73.1056631652 L 73.46535 73.1056631652 C 62.178215 83.50654486410001 43.168316 88.58789193599999 9.90099 93.034069254" />
<path class="stroke" d="M 22.673267 75.48754486410002 C 27.096771 80.41180587390001 42.580643 84.4644194928 47.741932 86.275161549 C 57.09677 89.034387183 73.870964 91.103805072 89.80198 93.034069254" />
</svg>
