<?xml version="1.0" standalone="no"?>
<!DOCTYPE svg PUBLIC "-//W3C//DTD SVG 1.1//EN" "http://www.w3.org/Graphics/SVG/1.1/DTD/svg11.dtd">
<svg xmlns="http://www.w3.org/2000/svg" version="1.1" width="100%" height="100%">
<style type="text/css"><![CDATA[
  .stroke { fill:none; stroke:black; stroke-width:2 }
]]></style>
<path class="stroke" d="M 12.189779 14.124087 L 87.81021 14.124087" />
<path class="stroke" d="M 34.67153 7.5547431000000005 L 34.67153 21.218976899999998" />
<path class="stroke" d="M 65.32846 7.5547431000000005 L 65.32846 21.218976899999998" />
<path class="stroke" d="M 29.429676719999996 26.7 L 29.429676719999996 50.14563608" />
<path class="stroke" d="M 8.8911674 28.7192454 C 12.400084 32.376466 15.167726 37.434292 16.600944 43.892716" />
<path class="stroke" d="M 47.884848999999996 28.7192454 C 45.957426 35.48898 43.73348 40.157714 40.175063 44.126186000000004" />
<path class="stroke" d="M 10.6703477 50.428988000000004 L 10.6703477 93.615166" />
<path class="stroke" d="M 10.818628 50.428988000000004 L 48.62618 50.428988000000004 L 48.62618 89.646694 C 48.774418 92.370116 47.736610999999996 93.69294000000001 46.402187 93.615166 L 44.919525 93.615166" />
<path class="stroke" d="M 29.28902875 50.14563608 L 29.351715 91.74762799999999" />
<path class="stroke" d="M 24.085038819999998 61.660850079999996 C 23.24114724 67.4184556 21.5533669 75.16908240000001 17.333916520000002 79.8194496" />
<path class="stroke" d="M 35.33690791 62.103743040000005 C 37.0246906 64.53965284 40.2596019 71.1830428 40.8221966 79.8194496" />
<path class="stroke" d="M 70.07821892 30.3267326 C 68.68217838999999 39.77821758 65.33168375 50.9881172 60.166336279999996 57.36237508" />
<path class="stroke" d="M 65.19207918000001 49.44950402 L 88.7851467 49.44950402" />
<path class="stroke" d="M 77.896041 49.66930696 C 76.22079179999999 68.35247767999999 69.10099069 83.95841464 57.9326735 89.4534652" />
<path class="stroke" d="M 65.19207918000001 55.16435678 C 68.26336562 68.57227839999999 83.20098739999999 89.6732674 91.43762459999999 89.6732674" />
</svg>
