<?xml version="1.0" standalone="no"?>
<!DOCTYPE svg PUBLIC "-//W3C//DTD SVG 1.1//EN" "http://www.w3.org/Graphics/SVG/1.1/DTD/svg11.dtd">
<svg xmlns="http://www.w3.org/2000/svg" version="1.1" width="100%" height="100%">
<style type="text/css"><![CDATA[
  .stroke { fill:none; stroke:black; stroke-width:2 }
]]></style>
<path class="stroke" d="M 12.189779 11.7700725 L 87.81021 11.7700725" />
<path class="stroke" d="M 34.67153 6.29561925 L 34.67153 17.68248075" />
<path class="stroke" d="M 65.32846 6.29561925 L 65.32846 17.68248075" />
<path class="stroke" d="M 13.154171785714285 24.742415891199997 C 16.654879285714284 26.478971248 20.15558785714286 28.9597633024 23.01980357142857 31.936712598399996" />
<path class="stroke" d="M 10.926448928571428 44.8368326176 C 14.108912142857141 46.325306848 17.927864999999997 48.5580194464 20.473834285714286 51.534971248" />
<path class="stroke" d="M 10.608203571428572 84.529501312 C 11.321795357142857 86.0154189952 13.310014285714285 88.08189422080001 15.629600357142856 88.08189422080001 C 17.949189642857142 88.08189422080001 21.110325 77.087125984 23.33804892857143 71.13322739200001" />
<path class="stroke" d="M 47.6749759496 23.6917281838 L 47.6749759496 48.528257094400004" />
<path class="stroke" d="M 47.6749759496 23.6917281838 L 78.14785179999998 23.6917281838 L 78.14785179999998 48.528257094400004" />
<path class="stroke" d="M 47.852145166 35.43342805108 L 77.970684404 35.43342805108" />
<path class="stroke" d="M 47.6749759496 47.44412374384 L 78.14785179999998 47.44412374384" />
<path class="stroke" d="M 33.07591108 54.218424999999996 L 92.924083 54.218424999999996" />
<path class="stroke" d="M 45.239999999999995 54.3659748175187 C 44.75999826 58.581132424547434 42.11999942 66.73950126975711 31.560000064 71.36257704653416" />
<path class="stroke" d="M 43.87883142 60.705748543318236 C 66.34890182000001 60.705748543318236 73.26276917999999 60.705748543318236 92.7080252 60.705748543318236 C 92.0598481 77.96536373048441 86.0102186 84.08579503743472 79.960578 88.002870134764 C 77.15182216 89.47177203851392 74.5591256 89.8389985625752 71.75036236 89.9614068449296" />
<path class="stroke" d="M 59.4350352 60.705748543318236 C 57.4905076 70.98807151230665 46.68759022 78.69981468235937 34.8043794 82.984117980748" />
<path class="stroke" d="M 74.34306040000001 60.705748543318236 C 72.3985402 73.1914260449296 62.8919674 82.6168889411896 52.9532827 86.411556175414" />
</svg>
