<?xml version="1.0" standalone="no"?>
<!DOCTYPE svg PUBLIC "-//W3C//DTD SVG 1.1//EN" "http://www.w3.org/Graphics/SVG/1.1/DTD/svg11.dtd">
<svg xmlns="http://www.w3.org/2000/svg" version="1.1" width="100%" height="100%">
<style type="text/css"><![CDATA[
  .stroke { fill:none; stroke:black; stroke-width:2 }
]]></style>
<path class="stroke" d="M 12.189779 14.124087 L 87.81021 14.124087" />
<path class="stroke" d="M 34.67153 7.5547431000000005 L 34.67153 21.218976899999998" />
<path class="stroke" d="M 65.32846 7.5547431000000005 L 65.32846 21.218976899999998" />
<path class="stroke" d="M 82.4037728 27.44031475 C 63.022044799999996 28.949467018 38.7950048 30.005845978 15.173532799999998 30.269958658" />
<path class="stroke" d="M 8.51103968 40.117151104 L 90.2776064 40.117151104" />
<path class="stroke" d="M 49.091456 29.59086328 L 49.091456 59.13244600000001" />
<path class="stroke" d="M 49.091496320000005 40.117186984 C 38.7949232 45.965124664 26.37856832 51.020760184000004 9.116722880000001 55.284129424" />
<path class="stroke" d="M 49.091496320000005 40.117186984 C 59.2870784 46.266947224000006 70.69399424000001 50.832139024 89.67194239999999 55.170928024" />
<path class="stroke" d="M 45.532672559999995 65.5116434116 C 44.415841640000004 71.2666533268 37.435643219999996 78.3005548924 30.734653939999998 81.6043565884 C 46.020436679999996 82.86846532000001 67.7021881 86.954070688 78.68029299999999 92.08726943920001" />
<path class="stroke" d="M 67.5900978 72.012673516 C 60.60990408 84.162140248 46.09108802 88.74483431200001 24.61313706 91.772991496" />
<path class="stroke" d="M 12.26277222 73.75442254840002 L 87.4627694 73.75442254840002" />
</svg>
