<?xml version="1.0" standalone="no"?>
<!DOCTYPE svg PUBLIC "-//W3C//DTD SVG 1.1//EN" "http://www.w3.org/Graphics/SVG/1.1/DTD/svg11.dtd">
<svg xmlns="http://www.w3.org/2000/svg" version="1.1" width="100%" height="100%">
<style type="text/css"><![CDATA[
  .stroke { fill:none; stroke:black; stroke-width:2 }
]]></style>
<path class="stroke" d="M 12.189779 14.124087 L 87.81021 14.124087" />
<path class="stroke" d="M 34.67153 7.5547431000000005 L 34.67153 21.218976899999998" />
<path class="stroke" d="M 65.32846 7.5547431000000005 L 65.32846 21.218976899999998" />
<path class="stroke" d="M 50.0 23.126832912000005 L 50.0 33.599999999999994" />
<path class="stroke" d="M 7.5 33.599999999999994 L 92.5 33.599999999999994" />
<path class="stroke" d="M 27.8248169 42.162782409375 L 27.8248169 62.95519048125" />
<path class="stroke" d="M 27.8248169 42.162782409375 L 72.37956 42.162782409375 L 72.37956 62.75526402375" />
<path class="stroke" d="M 27.8248169 61.355774028 L 72.37956 61.355774028" />
<path class="stroke" d="M 9.562042 53.208749999999995 L 90.43795 53.208749999999995" />
<path class="stroke" d="M 47.79179 67.21506225 C 40.79208 73.131831375 28.910892 77.384552175 16.732674 79.603366275" />
<path class="stroke" d="M 37.82178 73.6865349 L 37.82178 91.99173255 C 46.435642 91.067226675 52.07921 90.1427208 58.019806 87.923912925" />
<path class="stroke" d="M 78.514854 68.139505875 C 74.35644 71.83752501749998 68.71287 74.7959388375 62.178215 76.27515135" />
<path class="stroke" d="M 55.940598 72.57712785000001 C 62.47525 80.342970975 75.24753 86.814503385 89.207924 90.1427208" />
</svg>
