<?xml version="1.0" standalone="no"?>
<!DOCTYPE svg PUBLIC "-//W3C//DTD SVG 1.1//EN" "http://www.w3.org/Graphics/SVG/1.1/DTD/svg11.dtd">
<svg xmlns="http://www.w3.org/2000/svg" version="1.1" width="100%" height="100%">
<style type="text/css"><![CDATA[
  .stroke { fill:none; stroke:black; stroke-width:2 }
]]></style>
<path class="stroke" d="M 12.189779 14.124087 L 87.81021 14.124087" />
<path class="stroke" d="M 34.67153 7.5547431000000005 L 34.67153 21.218976899999998" />
<path class="stroke" d="M 65.32846 7.5547431000000005 L 65.32846 21.218976899999998" />
<path class="stroke" d="M 19.62408635 30.529196560000003 C 17.95985165 36.678100959999995 15.4635015 42.11751826 11.857662975 47.0839393" />
<path class="stroke" d="M 15.740874899999998 41.17153141 L 42.368610149999995 41.17153141" />
<path class="stroke" d="M 9.36131235 59.14525402 L 43.7554705 59.14525402" />
<path class="stroke" d="M 26.2810185 41.17153141 C 26.2810185 48.26642266 26.2810185 54.17882893 26.2810185 59.3817481 C 26.2810185 75.46349620000001 19.62408635 83.74087000000002 9.9160582 90.1262701" />
<path class="stroke" d="M 27.1131387 72.15255640000001 C 33.770070849999996 75.2270005 37.0985393 80.66642266000001 41.259120349999996 90.1262701" />
<path class="stroke" d="M 59.25182385 26.98175053 C 58.448904150000004 35.02262701 53.310218400000004 43.5364957 50.2591231 45.42846535" />
<path class="stroke" d="M 56.843064749999996 39.279560950000004 L 56.843064749999996 92.2547395" />
<path class="stroke" d="M 75.95255185 27.21824785 C 74.98904865 32.42116702 73.2226263 36.914597470000004 70.6532837 39.51605665" />
<path class="stroke" d="M 56.843064749999996 39.0583864 L 86.551092 39.0583864" />
<path class="stroke" d="M 71.4562045 39.51605665 L 71.4562045 92.2547395" />
<path class="stroke" d="M 56.843064749999996 57.7113985 L 84.46350100000001 57.7113985" />
<path class="stroke" d="M 56.843064749999996 74.99050804000001 L 84.62408450000001 74.99050804000001" />
<path class="stroke" d="M 56.843064749999996 92.2547395 L 89.7627708 92.2547395" />
</svg>
