<?xml version="1.0" standalone="no"?>
<!DOCTYPE svg PUBLIC "-//W3C//DTD SVG 1.1//EN" "http://www.w3.org/Graphics/SVG/1.1/DTD/svg11.dtd">
<svg xmlns="http://www.w3.org/2000/svg" version="1.1" width="100%" height="100%">
<style type="text/css"><![CDATA[
  .stroke { fill:none; stroke:black; stroke-width:2 }
]]></style>
<path class="stroke" d="M 12.189779 10.2007295 L 87.81021 10.2007295" />
<path class="stroke" d="M 34.67153 5.45620335 L 34.67153 15.324816649999999" />
<path class="stroke" d="M 65.32846 5.45620335 L 65.32846 15.324816649999999" />
<path class="stroke" d="M 9.1605835 25.0591186376 L 40.8394125 25.0591186376" />
<path class="stroke" d="M 25.0 18.703077844685 L 25.0 33.344670517699996" />
<path class="stroke" d="M 4.9270065 33.344670517699996 L 44.927005 33.344670517699996" />
<path class="stroke" d="M 18.503649 35.28562606346 L 18.503649 38.520396548120004 C 18.503649 41.37256007090001 14.708029 44.18994096932 5.218978 44.9203729835" />
<path class="stroke" d="M 27.116787 35.25084379649 L 27.116787 43.459509193399995 C 27.116787 44.3290712285 29.014599 44.8508082113 31.0583915 44.8508082113 L 42.44525 44.8508082113 C 44.051095 44.8855905974 45.218975 44.6073303173 45.218975 44.224722878899996 L 45.218975 43.56385682822" />
<path class="stroke" d="M 9.1605835 54.68715288 L 40.8394125 54.68715288" />
<path class="stroke" d="M 25.0 47.1332843655 L 25.0 64.53415851" />
<path class="stroke" d="M 4.9270065 64.53415851 L 44.927005 64.53415851" />
<path class="stroke" d="M 71.131385 19.58029175 L 69.8175165 37.2445235 C 68.357662 50.57299030000001 63.83235 61.45053500000001 54.781021 63.90145600000001" />
<path class="stroke" d="M 56.386860999999996 35.79926815 L 80.036495 31.14233455 C 79.1605835 38.68977885 78.4306565 49.770069500000005 79.89051 59.886857500000005 C 80.47445 61.65328370000001 81.204376 63.580289 84.85401 63.580289 L 92.59124 63.419705500000006 C 94.051095 63.580289 94.92700500000001 62.13503200000001 94.92700500000001 60.5291915 L 94.92700500000001 57.7992665" />
<path class="stroke" d="M 63.248175 40.7773715 C 66.3138675 41.2591231 69.525547 42.70437735 72.59124 46.07664185" />
<path class="stroke" d="M 20.07299 73.14379525 L 79.927 73.14379525" />
<path class="stroke" d="M 10.145985 80.029954 L 89.56204 80.029954" />
<path class="stroke" d="M 41.094887 80.00218939999999 C 36.131386 85.08248074 28.832115 89.40072864 21.240875 92.618245 C 36.131386 92.19488849999999 58.029198 91.60218824 76.715324 91.4328468" />
<path class="stroke" d="M 70.58394 88.80802779999999 C 74.67153 90.16277295 78.75912 92.0255459 80.21897 93.3802896" />
</svg>
