<?xml version="1.0" standalone="no"?>
<!DOCTYPE svg PUBLIC "-//W3C//DTD SVG 1.1//EN" "http://www.w3.org/Graphics/SVG/1.1/DTD/svg11.dtd">
<svg xmlns="http://www.w3.org/2000/svg" version="1.1" width="100%" height="100%">
<style type="text/css"><![CDATA[
  .stroke { fill:none; stroke:black; stroke-width:2 }
]]></style>
<path class="stroke" d="M 12.189779 13.3394155 L 87.81021 13.3394155" />
<path class="stroke" d="M 34.67153 7.13503515 L 34.67153 20.040144849999997" />
<path class="stroke" d="M 65.32846 7.13503515 L 65.32846 20.040144849999997" />
<path class="stroke" d="M 40.272989259999996 27.691239250000002 C 33.1197076 31.238685280000002 24.5357651 33.60364876 16.81021832 35.02262701" />
<path class="stroke" d="M 10.80145808 52.286858470000006 L 44.2788304 49.21240627" />
<path class="stroke" d="M 29.4 32.42116702 L 29.4 89.18029054000002" />
<path class="stroke" d="M 29.4 55.36131067 C 22.81897856 65.29415842 17.3824805 71.6795569 9.943065299999999 74.51751826" />
<path class="stroke" d="M 29.4 55.36131067 C 35.40875828 58.199267170000006 38.84233234 60.56423146 41.703645200000004 64.58466727000001" />
<path class="stroke" d="M 58.1774868 45.8674019524 C 57.511517420000004 49.80629112580001 55.51361299 53.0887009762 53.0162302 56.5899351778" />
<path class="stroke" d="M 85.5625497 46.125843338799996 C 83.89707982 50.4457350958 81.8853991 53.2931523796 79.56423230000001 55.7337928798" />
<path class="stroke" d="M 67.831246 32.344305455800004 C 67.942705 39.1711407976 67.886949 44.6885610976 67.831246 53.2156674718 C 67.995281 71.999059456 54.966874000000004 87.89508136 47.06788226 88.47907597" />
<path class="stroke" d="M 67.87029746 55.5510489256 C 69.61406 69.482807902 81.348472 84.79925860600001 86.52773535 87.665527279 C 87.7656908 88.47907597 88.6941607 88.68246227200001 90.0868576 88.88585554000001" />
</svg>
