<?xml version="1.0" standalone="no"?>
<!DOCTYPE svg PUBLIC "-//W3C//DTD SVG 1.1//EN" "http://www.w3.org/Graphics/SVG/1.1/DTD/svg11.dtd">
<svg xmlns="http://www.w3.org/2000/svg" version="1.1" width="100%" height="100%">
<style type="text/css"><![CDATA[
  .stroke { fill:none; stroke:black; stroke-width:2 }
]]></style>
<path class="stroke" d="M 12.189779 13.3394155 L 87.81021 13.3394155" />
<path class="stroke" d="M 34.67153 7.13503515 L 34.67153 20.040144849999997" />
<path class="stroke" d="M 65.32846 7.13503515 L 65.32846 20.040144849999997" />
<path class="stroke" d="M 31.45985 29.54087504 C 31.167881 44.80802701 27.956203 65.16423434000001 24.160583 75.5846702 C 42.846714 76.5540106 65.32846 78.9773699 83.43065 83.58174509999999" />
<path class="stroke" d="M 31.45985 29.54087504 L 73.0285 29.54087504 C 72.62773 49.1700696 71.45985 68.31459562 64.74452 86.0051044 C 63.868607 88.18612859999999 61.532845 90.85181967999999 58.905106 90.85181967999999" />
<path class="stroke" d="M 47.226276 37.78029085 C 51.605835 39.47664236 54.233574 41.9 56.861313 45.2926997" />
<path class="stroke" d="M 45.18248 61.77153215 C 48.68613 63.225545239999995 51.605835 65.16423434000001 54.525543 69.283941" />
<path class="stroke" d="M 10.437956 54.25912081 L 90.72992 54.25912081" />
</svg>
