<?xml version="1.0" standalone="no"?>
<!DOCTYPE svg PUBLIC "-//W3C//DTD SVG 1.1//EN" "http://www.w3.org/Graphics/SVG/1.1/DTD/svg11.dtd">
<svg xmlns="http://www.w3.org/2000/svg" version="1.1" width="100%" height="100%">
<style type="text/css"><![CDATA[
  .stroke { fill:none; stroke:black; stroke-width:2 }
]]></style>
<path class="stroke" d="M 12.189779 14.124087 L 87.81021 14.124087" />
<path class="stroke" d="M 34.67153 7.5547431000000005 L 34.67153 21.218976899999998" />
<path class="stroke" d="M 65.32846 7.5547431000000005 L 65.32846 21.218976899999998" />
<path class="stroke" d="M 46.848171179999994 31.04744375 C 38.527006799999995 34.332116 28.541604299999996 36.521896999999996 19.554743759999997 37.83576575" />
<path class="stroke" d="M 12.56496144 53.82116525 L 51.508027199999994 50.974450250000004" />
<path class="stroke" d="M 34.199999999999996 35.4270065 L 34.199999999999996 87.9817505" />
<path class="stroke" d="M 34.199999999999996 56.667880249999996 C 26.54452608 65.86496149999999 20.220436499999998 71.7773675 11.5664229 74.4051095" />
<path class="stroke" d="M 34.199999999999996 56.667880249999996 C 41.189780039999995 59.29561775 45.183937619999995 61.4853995 48.5124036 65.20802524999999" />
<path class="stroke" d="M 64.75130174999998 32.108824999999996 L 64.75130174999998 74.459" />
<path class="stroke" d="M 81.63851125 28.0867475 L 81.63851125 86.05205000000001 C 81.75344224999999 90.231875 78.077289 92.282375 73.71187749999999 92.203475 L 69.9209025 92.203475" />
</svg>
