<?xml version="1.0" standalone="no"?>
<!DOCTYPE svg PUBLIC "-//W3C//DTD SVG 1.1//EN" "http://www.w3.org/Graphics/SVG/1.1/DTD/svg11.dtd">
<svg xmlns="http://www.w3.org/2000/svg" version="1.1" width="100%" height="100%">
<style type="text/css"><![CDATA[
  .stroke { fill:none; stroke:black; stroke-width:2 }
]]></style>
<path class="stroke" d="M 35.665443874999994 5.6608811999999995 C 30.060643424999995 18.3085851 18.312605925 31.568291099999996 6.241068175 37.4842241" />
<path class="stroke" d="M 9.151164125 7.802844899999999 C 21.007154625 17.186654 30.923004624999997 32.078385000000004 30.815174624999997 59.821743 L 30.815174624999997 75.121456 C 31.246288599999996 83.077299 28.7674286 93.175193 20.144821099999998 92.869158 L 14.806417125 92.869158" />
<path class="stroke" d="M 27.258352874999996 33.200345199999994 C 27.366182874999996 47.9900322 16.480170375 60.9437032 6.241076375 65.0236202" />
<path class="stroke" d="M 42.932175799999996 19.4006 L 89.46216 19.4006 L 89.46216 39.2744" />
<path class="stroke" d="M 48.701892 39.2744 L 89.46216 39.2744" />
<path class="stroke" d="M 48.701892 39.2744 L 48.701892 58.8328 L 92.998443 58.8328 C 92.998443 69.6635 92.626212 80.8097 87.787091 80.9148 L 84.250808 80.9148" />
<path class="stroke" d="M 62.10256199999999 6.46688 L 62.10256199999999 58.8328 C 62.16463 78.286 56.456911000000005 93.6383 43.3044127 94.1641" />
<path class="stroke" d="M 75.8753686 6.46688 L 75.8753686 93.8486" />
</svg>
