<?xml version="1.0" standalone="no"?>
<!DOCTYPE svg PUBLIC "-//W3C//DTD SVG 1.1//EN" "http://www.w3.org/Graphics/SVG/1.1/DTD/svg11.dtd">
<svg xmlns="http://www.w3.org/2000/svg" version="1.1" width="100%" height="100%">
<style type="text/css"><![CDATA[
  .stroke { fill:none; stroke:black; stroke-width:2 }
]]></style>
<path class="stroke" d="M 26.966555125 5.6608811999999995 C 22.728779175 18.3085851 13.846116675000001 31.568291099999996 4.718856425 37.4842241" />
<path class="stroke" d="M 6.919172875 7.802844899999999 C 15.883458375 17.186654 23.380808375 32.078385000000004 23.299278375 59.821743 L 23.299278375 75.121456 C 23.6252426 83.077299 21.7509826 93.175193 15.2314501 92.869158 L 11.195095875 92.869158" />
<path class="stroke" d="M 20.609974125 33.200345199999994 C 20.691504125 47.9900322 12.460616625 60.9437032 4.718862625 65.0236202" />
<path class="stroke" d="M 45.678202 6.46687 C 45.678202 10.9884 44.012626 14.5636 41.93059 17.1924" />
<path class="stroke" d="M 37.1419534 17.5079 L 37.1419534 91.9558" />
<path class="stroke" d="M 37.350157 17.5079 L 53.381722 17.5079 L 53.381722 41.7981" />
<path class="stroke" d="M 37.350157 41.7981 L 53.381722 41.7981" />
<path class="stroke" d="M 37.350157 63.5647 L 53.798116 63.5647 L 53.798116 91.9558" />
<path class="stroke" d="M 37.1419534 91.9558 L 53.798116 91.9558" />
<path class="stroke" d="M 61.186568632000004 9.5 L 93.2134282 9.5" />
<path class="stroke" d="M 64.42394110000001 29.2700698 L 64.42394110000001 67.897807" />
<path class="stroke" d="M 64.42394110000001 29.2700698 L 90.20729716 29.2700698 L 90.20729716 65.795614 C 90.20729716 69.73721800000001 89.16671212 72.102184 88.01050696000001 72.364957 L 86.96992588 72.364957" />
<path class="stroke" d="M 77.25780807999999 15.8686117 L 77.25780807999999 88.131382" />
</svg>
