<?xml version="1.0" standalone="no"?>
<!DOCTYPE svg PUBLIC "-//W3C//DTD SVG 1.1//EN" "http://www.w3.org/Graphics/SVG/1.1/DTD/svg11.dtd">
<svg xmlns="http://www.w3.org/2000/svg" version="1.1" width="100%" height="100%">
<style type="text/css"><![CDATA[
  .stroke { fill:none; stroke:black; stroke-width:2 }
]]></style>
<path class="stroke" d="M 36.53533275 5.6025216 C 30.79382985 18.119836799999998 18.75925485 31.242844799999997 6.393289350000001 37.0977888" />
<path class="stroke" d="M 9.37436325 7.722403199999999 C 21.51952425 17.009472 31.677224250000002 31.747680000000003 31.566764250000002 59.205024 L 31.566764250000002 74.347008 C 32.0083932 82.22083199999999 29.4690732 92.214624 20.6361582 91.911744 L 15.16754925 91.911744" />
<path class="stroke" d="M 27.92319075 32.8580736 C 28.03365075 47.4952896 16.88212575 60.3154176 6.39329775 64.3532736" />
<path class="stroke" d="M 67.09561790000001 9.562042 C 66.9403485 15.17859 63.2278885 21.69519 59.8942995 21.91139" />
<path class="stroke" d="M 52.13503545 22.116787 L 52.13503545 91.0219" />
<path class="stroke" d="M 52.13503545 21.912285 L 87.22116734 21.912285 L 87.22116734 91.0219" />
<path class="stroke" d="M 52.13503545 54.368725 L 87.22116734 54.368725" />
<path class="stroke" d="M 52.13503545 88.02356 L 87.22116734 88.02356" />
</svg>
