<?xml version="1.0" standalone="no"?>
<!DOCTYPE svg PUBLIC "-//W3C//DTD SVG 1.1//EN" "http://www.w3.org/Graphics/SVG/1.1/DTD/svg11.dtd">
<svg xmlns="http://www.w3.org/2000/svg" version="1.1" width="100%" height="100%">
<style type="text/css"><![CDATA[
  .stroke { fill:none; stroke:black; stroke-width:2 }
]]></style>
<path class="stroke" d="M 37.405221624999996 5.6608811999999995 C 31.527016274999998 18.3085851 19.205903775 31.568291099999996 6.545510525 37.4842241" />
<path class="stroke" d="M 9.597562375 7.802844899999999 C 22.031893874999998 17.186654 32.431443875 32.078385000000004 32.318353875 59.821743 L 32.318353875 75.121456 C 32.7704978 83.077299 30.1707178 93.175193 21.1274953 92.869158 L 15.528681375 92.869158" />
<path class="stroke" d="M 28.588028625 33.200345199999994 C 28.701118625 47.9900322 17.284081125 60.9437032 6.545519124999999 65.0236202" />
<path class="stroke" d="M 47.49781024 9.854013 L 47.49781024 75.25547" />
<path class="stroke" d="M 47.70802792 9.854013 L 80.502184 9.854013 L 80.502184 75.25547" />
<path class="stroke" d="M 47.71518256 32.17822 L 80.46732448 32.17822" />
<path class="stroke" d="M 47.71518256 54.158417 L 80.46732448 54.158417" />
<path class="stroke" d="M 47.70802792 74.9635 L 80.2919656 74.9635" />
<path class="stroke" d="M 51.91240816 81.9708 C 50.23065664 86.9343 47.49781024 89.56204 44.3445256 90.72992" />
<path class="stroke" d="M 76.92846399999999 82.26277 C 80.0817472 83.43065 82.39415679999999 86.05839 84.2861296 90.72992" />
</svg>
