<?xml version="1.0" standalone="no"?>
<!DOCTYPE svg PUBLIC "-//W3C//DTD SVG 1.1//EN" "http://www.w3.org/Graphics/SVG/1.1/DTD/svg11.dtd">
<svg xmlns="http://www.w3.org/2000/svg" version="1.1" width="100%" height="100%">
<style type="text/css"><![CDATA[
  .stroke { fill:none; stroke:black; stroke-width:2 }
]]></style>
<path class="stroke" d="M 33.05577725 7.544162 C 27.861084149999996 19.931088499999998 16.972659150000002 32.9173985 5.78440465 38.711353499999994" />
<path class="stroke" d="M 8.48156675 9.641961499999999 C 19.47004575 18.83229 28.660345749999998 33.416975 28.560405749999997 60.588305 L 28.560405749999997 75.57256 C 28.959974799999998 83.36436499999999 26.6624948 93.254055 18.670809799999997 92.95433 L 13.72302075 92.95433" />
<path class="stroke" d="M 25.26383925 34.515801999999994 C 25.36377925 49.000547 15.27430425 61.687132 5.784412249999999 65.682927" />
<path class="stroke" d="M 48.600730240000004 11.683168 L 48.600730240000004 55.693428" />
<path class="stroke" d="M 48.79634947 11.8297 L 84.39926708 11.8297 L 84.39926708 55.40146" />
<path class="stroke" d="M 48.600730240000004 34.542557 L 84.00802862 34.542557" />
<path class="stroke" d="M 48.600730240000004 55.6782 L 84.39926708 55.6782" />
<path class="stroke" d="M 66.288615 11.683168 L 66.288615 90.43795" />
<path class="stroke" d="M 47.23138625 72.62773 L 85.7686104 72.62773" />
<path class="stroke" d="M 39.60218871 90.43795 L 93.78904640000002 90.43795" />
</svg>
