<?xml version="1.0" standalone="no"?>
<!DOCTYPE svg PUBLIC "-//W3C//DTD SVG 1.1//EN" "http://www.w3.org/Graphics/SVG/1.1/DTD/svg11.dtd">
<svg xmlns="http://www.w3.org/2000/svg" version="1.1" width="100%" height="100%">
<style type="text/css"><![CDATA[
  .stroke { fill:none; stroke:black; stroke-width:2 }
]]></style>
<path class="stroke" d="M 32.185888375000005 9.3690832 C 27.127897725 21.3648436 16.526010225000004 33.9410596 5.632183475000001 39.5520476" />
<path class="stroke" d="M 8.258367625 11.4006364 C 18.957676125000003 20.300744 27.906126125 34.42486 27.808816125 60.738148 L 27.808816125 75.249216 C 28.1978702 82.794964 25.960850200000003 92.372348 18.179472699999998 92.082088 L 13.361888625 92.082088" />
<path class="stroke" d="M 24.599001375 35.4889872 C 24.696311375 49.516319200000005 14.872348875 61.802275200000004 5.632190875 65.67188720000001" />
<path class="stroke" d="M 63.0 9.678831933333333 L 63.0 23.71666666666667" />
<path class="stroke" d="M 38.47737162 23.71666666666667 L 87.738681 23.71666666666667" />
<path class="stroke" d="M 50.36058096000001 34.827735759999996 C 47.76788292 39.87299176 42.58247944 43.86715072 37.39707966 45.338684560000004" />
<path class="stroke" d="M 74.5591256 34.40729896 C 80.1766432 36.92992624 84.7138644 40.92408664 88.1708003 46.17956176" />
<path class="stroke" d="M 72.614598 47.651092 C 67.64525158000001 63.207296799999995 53.38540052 85.9109416 33.07591108 90.3255424" />
<path class="stroke" d="M 52.521165620000005 50.38394128 C 57.05839348 62.78686 78.2321156 83.1781024 93.1401408 90.115324" />
</svg>
