<?xml version="1.0" standalone="no"?>
<!DOCTYPE svg PUBLIC "-//W3C//DTD SVG 1.1//EN" "http://www.w3.org/Graphics/SVG/1.1/DTD/svg11.dtd">
<svg xmlns="http://www.w3.org/2000/svg" version="1.1" width="100%" height="100%">
<style type="text/css"><![CDATA[
  .stroke { fill:none; stroke:black; stroke-width:2 }
]]></style>
<path class="stroke" d="M 29.7956176 8.13686111 L 76.74452000000001 7.56459844 C 75.57664 15.719342099999999 72.072992 20.082846 70.90510880000001 21.012772899999998 C 69.50364400000001 21.799633519999997 66.700728 22.01423245 64.36496 22.0857651 L 62.029192 22.01423245" />
<path class="stroke" d="M 52.919704 2.55729922 C 50.116784 10.568977335 41.007296000000004 18.723721975 26.291969599999998 21.012772899999998" />
<path class="stroke" d="M 15.12481578 32.63503628 L 43.881018499999996 32.02773712 C 43.165692 40.6817508 41.0197076 45.312408000000005 40.30437914 46.2992692 C 39.44598195 47.134304959999994 37.7291959 47.3620426 36.298538 47.4379548 L 34.8678801 47.3620426" />
<path class="stroke" d="M 29.2883187 26.71386856 C 27.5715302 35.21605758 21.991968800000002 43.870072300000004 12.978831379999999 46.2992692" />
<path class="stroke" d="M 58.61970622 32.30109467 L 88.5496315 31.68211668 C 87.80510799999999 40.5025537 85.5715324 45.222262 84.82700686000001 46.2281013 C 83.93357305 47.07919544 82.1467141 47.311312650000005 80.65766199999999 47.3886847 L 79.1686099 47.311312650000005" />
<path class="stroke" d="M 73.3613113 26.26605834 C 71.5744498 34.931750995 65.7671512 43.752189075000004 56.38613062 46.2281013" />
<path class="stroke" d="M 32.335766 54.9270065 L 32.28188 77.818795 C 25.436241 90.10067000000001 25.436241 89.697985 17.785234 94.93288799999999" />
<path class="stroke" d="M 32.335766 54.9270065 L 73.21168 54.9270065 L 73.21168 93.029195 C 73.21168 94.19708 72.04379 95.218975 69.124084 95.218975 L 65.91241 95.218975" />
<path class="stroke" d="M 32.335766 65.9312885 L 73.21168 65.9312885" />
<path class="stroke" d="M 32.335766 77.555168 L 73.21168 77.555168" />
</svg>
