<?xml version="1.0" standalone="no"?>
<!DOCTYPE svg PUBLIC "-//W3C//DTD SVG 1.1//EN" "http://www.w3.org/Graphics/SVG/1.1/DTD/svg11.dtd">
<svg xmlns="http://www.w3.org/2000/svg" version="1.1" width="100%" height="100%">
<style type="text/css"><![CDATA[
  .stroke { fill:none; stroke:black; stroke-width:2 }
]]></style>
<path class="stroke" d="M 35.665443874999994 8.4858024 C 30.060643424999995 20.742340199999997 18.312605925 33.591952199999994 6.241068175 39.3249182" />
<path class="stroke" d="M 9.151164125 10.5615198 C 21.007154625 19.655108 30.923004624999997 34.08627 30.815174624999997 60.971585999999995 L 30.815174624999997 75.798112 C 31.246288599999996 83.507898 28.7674286 93.29348599999999 20.144821099999998 92.996916 L 14.806417125 92.996916" />
<path class="stroke" d="M 27.258352874999996 35.1735304 C 27.366182874999996 49.505804399999995 16.480170375 62.0588464 6.241076375 66.01258039999999" />
<path class="stroke" d="M 46.10948872 7.668320169999999 L 46.10948872 43.720872299999996" />
<path class="stroke" d="M 46.10948872 7.52525438 L 88.04817184 7.52525438 L 88.04817184 43.720872299999996" />
<path class="stroke" d="M 67.0788292 7.668320169999999 L 67.0788292 41.145692" />
<path class="stroke" d="M 46.10948872 24.325833420000002 L 87.7328464 24.325833420000002" />
<path class="stroke" d="M 46.10948872 41.145692 L 88.04817184 41.145692" />
<path class="stroke" d="M 42.7372252 53.312 L 91.26276999999999 53.312" />
<path class="stroke" d="M 54.31858 56.89578944 L 54.31858 85.08996608000001 M 41.637232 92.21276288 L 66.43216 79.15436480000001" />
<path class="stroke" d="M 86.684494 57.192489536 C 84.0977704 63.523791296 80.9432116 67.184161856 76.8422716 70.547615936" />
<path class="stroke" d="M 67.18924 56.89569535999999 C 73.37224 74.80147136 81.44793999999999 84.6942656 92.93062 92.80621951999998" />
</svg>
