<?xml version="1.0" standalone="no"?>
<!DOCTYPE svg PUBLIC "-//W3C//DTD SVG 1.1//EN" "http://www.w3.org/Graphics/SVG/1.1/DTD/svg11.dtd">
<svg xmlns="http://www.w3.org/2000/svg" version="1.1" width="100%" height="100%">
<style type="text/css"><![CDATA[
  .stroke { fill:none; stroke:black; stroke-width:2 }
]]></style>
<path class="stroke" d="M 32.919704 7.05036421 C 29.416058 9.64306521 22.408756 11.69561912 15.401459 12.451824010000001" />
<path class="stroke" d="M 65.62044 6.83430641 C 73.21168 8.13065654 79.34306 10.18321119 84.014595 12.883941459999999" />
<path class="stroke" d="M 62.9927 13.6401445 C 56.277367 21.634305299999998 37.007298 33.301456099999996 9.562042 35.5700704" />
<path class="stroke" d="M 35.839413 15.04452538 C 41.970802 21.4182475 70.58394 31.8970804 90.72992 35.4620415" />
<path class="stroke" d="M 10.961810357142857 44.6435643 L 51.08203803571429 44.6435643" />
<path class="stroke" d="M 19.18316867857143 44.6435643 L 19.18316867857143 79.0128714" />
<path class="stroke" d="M 19.18316867857143 55.30990077 L 41.87411357142857 55.30990077" />
<path class="stroke" d="M 19.18316867857143 66.31485029999999 L 41.87411357142857 66.31485029999999" />
<path class="stroke" d="M 11.290663892857143 80.53663187999999 L 41.82539928571429 74.94166749" />
<path class="stroke" d="M 41.87411357142857 44.6435643 L 41.87411357142857 90.1871286" />
<path class="stroke" d="M 64.59459 43.282702752 L 88.27026 43.282702752 C 85.35135 47.71945929 82.80973 53.79894762 79.189186 59.920539" />
<path class="stroke" d="M 79.51351 60.47513418 C 83.22786 62.54389161 89.80198 67.6693071 89.80198 72.74851668 L 89.80198 74.94950385 C 89.80198 76.9811919 87.915436 82.84378154999999 84.05405 82.84378154999999 L 74.32432 82.28918922" />
<path class="stroke" d="M 64.918915 44.0221617 L 64.59459 91.7172936" />
</svg>
