<?xml version="1.0" standalone="no"?>
<!DOCTYPE svg PUBLIC "-//W3C//DTD SVG 1.1//EN" "http://www.w3.org/Graphics/SVG/1.1/DTD/svg11.dtd">
<svg xmlns="http://www.w3.org/2000/svg" version="1.1" width="100%" height="100%">
<style type="text/css"><![CDATA[
  .stroke { fill:none; stroke:black; stroke-width:2 }
]]></style>
<path class="stroke" d="M 11.838754607142857 14.059406 C 14.989391357142857 16.138615 18.14002907142857 19.108912 20.717823214285715 22.673267" />
<path class="stroke" d="M 9.833804035714286 38.118813 C 12.698020928571427 39.90099 16.1350785 42.574257 18.426450857142857 46.138615" />
<path class="stroke" d="M 9.547383214285714 85.64356 C 10.189615821428571 87.422676 11.979012857142857 89.896904 14.06664032142857 89.896904 C 16.15427067857143 89.896904 18.9992925 76.73267 21.004244035714287 69.60396" />
<path class="stroke" d="M 62.609485 6.359270077999999 L 62.609485 15.172115881999998" />
<path class="stroke" d="M 34.361312874999996 15.372406616 L 34.361312874999996 24.986421529999998" />
<path class="stroke" d="M 34.361312874999996 15.372406616 L 90.8576575 15.372406616 L 90.8576575 24.986421529999998" />
<path class="stroke" d="M 31.50631 31.803628850000003 L 93.493675 31.803628850000003" />
<path class="stroke" d="M 62.736625000000004 32.035514 L 62.5 91.361285225" />
<path class="stroke" d="M 62.736625000000004 58.23583849999999 L 87.1057 58.23583849999999" />
<path class="stroke" d="M 42.86275 56.612738 C 42.4684 77.24837749999999 37.57885 84.8998745 29.8501525 93.2468285" />
<path class="stroke" d="M 42.86275 56.612738 C 43.57255 93.478721 63.9516115 91.8354815 74.3548375 92.78386669999999 L 94.913275 93.01500949999999" />
</svg>
