<?xml version="1.0" standalone="no"?>
<!DOCTYPE svg PUBLIC "-//W3C//DTD SVG 1.1//EN" "http://www.w3.org/Graphics/SVG/1.1/DTD/svg11.dtd">
<svg xmlns="http://www.w3.org/2000/svg" version="1.1" width="100%" height="100%">
<style type="text/css"><![CDATA[
  .stroke { fill:none; stroke:black; stroke-width:2 }
]]></style>
<path class="stroke" d="M 11.838754607142857 14.059406 C 14.989391357142857 16.138615 18.14002907142857 19.108912 20.717823214285715 22.673267" />
<path class="stroke" d="M 9.833804035714286 38.118813 C 12.698020928571427 39.90099 16.1350785 42.574257 18.426450857142857 46.138615" />
<path class="stroke" d="M 9.547383214285714 85.64356 C 10.189615821428571 87.422676 11.979012857142857 89.896904 14.06664032142857 89.896904 C 16.15427067857143 89.896904 18.9992925 76.73267 21.004244035714287 69.60396" />
<path class="stroke" d="M 44.52627631 11.2910565625 L 78.9233521 11.2910565625" />
<path class="stroke" d="M 33.06058361 23.334852291666664 C 33.06058361 29.6912996875 32.83576594 34.040447604166665 31.71167836 38.724147916666666" />
<path class="stroke" d="M 33.28539974 23.334852291666664 L 90.38904480000001 23.334852291666664 C 90.1642279 30.025847499999998 89.48977719999999 33.371346249999995 88.5905096 36.71684614583333" />
<path class="stroke" d="M 61.62754126 11.2910565625 L 61.62754126 53.109787499999996" />
<path class="stroke" d="M 43.85182484 31.3640490625 C 47.224084500000004 32.36769822916666 49.4722612 34.040447604166665 51.72043559 37.72049416666667" />
<path class="stroke" d="M 44.07664097 43.07329583333333 C 46.77445224 43.74239374999999 49.022627400000005 45.749694375 51.49561946 50.43339010416666" />
<path class="stroke" d="M 69.930653 31.3640490625 C 72.85328039999999 32.03314927083333 75.326274 33.70589979166667 78.4737183 37.38594635416666" />
<path class="stroke" d="M 69.930653 43.40784479166666 C 73.0780973 44.07694270833333 75.77591242 47.087891354166665 78.0240845 50.43339010416666" />
<path class="stroke" d="M 27.7365934 55.465295 L 95.263422 55.465295" />
<path class="stroke" d="M 60.771272 55.60727 C 60.771272 59.53469 58.34223 62.752415 51.055181 64.55048000000001" />
<path class="stroke" d="M 34.052041 64.55048000000001 L 34.052041 91.947965" />
<path class="stroke" d="M 34.052041 64.55048000000001 L 87.004787 64.55048000000001 L 87.004787 89.108825 C 87.166718 91.096205 85.62833499999999 91.94792000000001 83.118289 91.94792000000001 L 79.717738 91.94792000000001" />
<path class="stroke" d="M 51.0551887 64.83439265 L 51.0551887 89.81861900000001" />
<path class="stroke" d="M 68.544191 64.83439265 L 68.544191 89.81861900000001" />
</svg>
