<?xml version="1.0" standalone="no"?>
<!DOCTYPE svg PUBLIC "-//W3C//DTD SVG 1.1//EN" "http://www.w3.org/Graphics/SVG/1.1/DTD/svg11.dtd">
<svg xmlns="http://www.w3.org/2000/svg" version="1.1" width="100%" height="100%">
<style type="text/css"><![CDATA[
  .stroke { fill:none; stroke:black; stroke-width:2 }
]]></style>
<path class="stroke" d="M 10.523337428571429 14.059406 C 13.323903428571427 16.138615 16.124470285714285 19.108912 18.415842857142856 22.673267" />
<path class="stroke" d="M 8.741159142857143 38.118813 C 11.287129714285713 39.90099 14.342291999999999 42.574257 16.379067428571428 46.138615" />
<path class="stroke" d="M 8.486562857142857 85.64356 C 9.057436285714285 87.422676 10.648011428571428 89.896904 12.503680285714285 89.896904 C 14.359351714285712 89.896904 16.88826 76.73267 18.67043914285714 69.60396" />
<path class="stroke" d="M 59.2460588 6.78234 L 59.2460588 22.55525" />
<path class="stroke" d="M 59.49211760000001 12.14515 L 76.56602588 12.027397" />
<path class="stroke" d="M 33.410072 23.18615 L 33.410072 56.94005 C 33.16406 71.97685 30.703472 82.59725 25.2902174 91.95585" />
<path class="stroke" d="M 33.410072 23.18615 L 91.971614 23.18615 L 91.971614 27.60255 C 91.88963600000001 30.86225 91.069388 32.54475 89.265014 33.59625" />
<path class="stroke" d="M 40.66465622 41.945206 L 74.5145198 35.36986" />
<path class="stroke" d="M 53.58675632 27.9181 L 53.486575460000005 46.219177 C 53.23013486 51.47945 52.4608232 51.47945 55.5380792 52.136986 L 79.64328499999999 52.136986 C 81.18191612000001 51.150684 81.4383536 48.520546 81.4383536 45.56164 L 81.4383536 41.61644" />
<path class="stroke" d="M 46.96750339712 59.54642293 L 46.96750339712 74.9975167" />
<path class="stroke" d="M 46.96750339712 59.485109019999996 L 78.95273905664 59.485109019999996 L 78.95273905664 74.9975167" />
<path class="stroke" d="M 62.9601204032 59.54642293 L 62.9601204032 73.893868" />
<path class="stroke" d="M 46.96750339712 66.68535718 L 78.7122508544 66.68535718" />
<path class="stroke" d="M 46.96750339712 73.893868 L 78.95273905664 73.893868" />
<path class="stroke" d="M 44.1253424672 84.365663152 C 43.797401201599996 86.3571384784 42.4856338928 87.867911104 40.517985175999996 88.8979845568" />
<path class="stroke" d="M 49.627415168 82.08709024000001 L 52.629728768 86.27374432 C 55.631368448 89.75423391999999 60.937365248 91.30972912 71.71800732800003 91.38348784 L 79.7070032 91.38348784 C 81.346712336 91.370159056 82.222482608 90.9062985568 82.33053444800001 90.408757888 L 82.33053444800001 89.85938713600001" />
<path class="stroke" d="M 62.32610096 78.253897072 C 64.7856629792 78.87194152000001 66.5893435904 79.9020145024 68.06507732 81.0694299376" />
<path class="stroke" d="M 80.03494952 79.696 C 82.49450480000002 80.588729824 83.970243584 81.68747368 85.28201201600001 82.9235616352" />
</svg>
