<?xml version="1.0" standalone="no"?>
<!DOCTYPE svg PUBLIC "-//W3C//DTD SVG 1.1//EN" "http://www.w3.org/Graphics/SVG/1.1/DTD/svg11.dtd">
<svg xmlns="http://www.w3.org/2000/svg" version="1.1" width="100%" height="100%">
<style type="text/css"><![CDATA[
  .stroke { fill:none; stroke:black; stroke-width:2 }
]]></style>
<path class="stroke" d="M 10.961809821428572 14.059406 C 13.879066071428571 16.138615 16.796323214285717 19.108912 19.183169642857145 22.673267" />
<path class="stroke" d="M 9.105374107142858 38.118813 C 11.757426785714285 39.90099 14.939887500000001 42.574257 17.06152857142857 46.138615" />
<path class="stroke" d="M 8.840169642857143 85.64356 C 9.434829464285714 87.422676 11.091678571428572 89.896904 13.024666964285714 89.896904 C 14.957658035714285 89.896904 17.5919375 76.73267 19.448374107142858 69.60396" />
<path class="stroke" d="M 42.925902 10.8580428 L 42.682967000000005 60.378634 C 42.601963 74.61202 34.748117 87.066268 24.7082025 91.217684" />
<path class="stroke" d="M 42.925825 10.5615104 L 72.80282600000001 10.5615104 L 72.80282600000001 84.397514 C 72.964757 89.43854599999999 75.312795 91.217684 78.146626 91.514254 L 86.16248 91.514254 C 88.996311 91.514254 92.073077 89.141976 91.749215 85.28713 L 91.749215 78.763436" />
<path class="stroke" d="M 50.455809 35.766548199999995 C 57.661930999999996 40.313324439999995 61.953218 47.52895338 65.515777 57.413244199999994" />
</svg>
