<?xml version="1.0" standalone="no"?>
<!DOCTYPE svg PUBLIC "-//W3C//DTD SVG 1.1//EN" "http://www.w3.org/Graphics/SVG/1.1/DTD/svg11.dtd">
<svg xmlns="http://www.w3.org/2000/svg" version="1.1" width="100%" height="100%">
<style type="text/css"><![CDATA[
  .stroke { fill:none; stroke:black; stroke-width:2 }
]]></style>
<path class="stroke" d="M 13.154171785714285 14.059406 C 16.654879285714284 16.138615 20.15558785714286 19.108912 23.01980357142857 22.673267" />
<path class="stroke" d="M 10.926448928571428 38.118813 C 14.108912142857141 39.90099 17.927864999999997 42.574257 20.473834285714286 46.138615" />
<path class="stroke" d="M 10.608203571428572 85.64356 C 11.321795357142857 87.422676 13.310014285714285 89.896904 15.629600357142856 89.896904 C 17.949189642857142 89.896904 21.110325 76.73267 23.33804892857143 69.60396" />
<path class="stroke" d="M 90.26495 11.264987399999999 C 71.86328 21.445836 51.91587 24.213383999999998 32.41009 26.684456" />
<path class="stroke" d="M 38.3722406 36.470044 L 38.3722406 67.60566399999999 L 83.19877199999999 67.60566399999999" />
<path class="stroke" d="M 83.19877199999999 37.35966 L 83.19877199999999 67.60566399999999" />
<path class="stroke" d="M 60.89596 10.3753902 L 60.89596 86.287036 C 60.67511 90.24077 62.662479999999995 92.711842 64.8707 92.81072999999999 L 88.0568 92.81072999999999 C 90.55944 92.711842 92.17875 90.833816 92.25238999999999 87.17665199999999 L 92.25238999999999 82.13562" />
</svg>
