<?xml version="1.0" standalone="no"?>
<!DOCTYPE svg PUBLIC "-//W3C//DTD SVG 1.1//EN" "http://www.w3.org/Graphics/SVG/1.1/DTD/svg11.dtd">
<svg xmlns="http://www.w3.org/2000/svg" version="1.1" width="100%" height="100%">
<style type="text/css"><![CDATA[
  .stroke { fill:none; stroke:black; stroke-width:2 }
]]></style>
<path class="stroke" d="M 13.154171785714285 14.059406 C 16.654879285714284 16.138615 20.15558785714286 19.108912 23.01980357142857 22.673267" />
<path class="stroke" d="M 10.926448928571428 38.118813 C 14.108912142857141 39.90099 17.927864999999997 42.574257 20.473834285714286 46.138615" />
<path class="stroke" d="M 10.608203571428572 85.64356 C 11.321795357142857 87.422676 13.310014285714285 89.896904 15.629600357142856 89.896904 C 17.949189642857142 89.896904 21.110325 76.73267 23.33804892857143 69.60396" />
<path class="stroke" d="M 40.187711 8.99054 C 42.42955 13.6172 43.636672 18.244 44.714521 24.7634" />
<path class="stroke" d="M 57.906968 8.99053 C 56.829119 15.4048 55.622037999999996 19.2955 53.380117 24.4479" />
<path class="stroke" d="M 35.27288315 25.0789 L 63.080438199999996 25.0789" />
<path class="stroke" d="M 31.91009472 50.9464 L 66.70189439999999 50.9464" />
<path class="stroke" d="M 49.370644999999996 25.3944 L 49.370644999999996 50.9464 C 48.206614 73.9748 42.386418 87.224 33.0741331 93.2177" />
<path class="stroke" d="M 49.370604 50.9464 C 50.405321 72.8181 55.190841 86.8034 65.020509 92.9023" />
<path class="stroke" d="M 74.9211 12.1451 L 74.9211 68.612" />
<path class="stroke" d="M 90.3785 6.78233 L 90.3785 84.0694 C 90.4837 89.6425 87.1188 92.3765 83.123 92.2713 L 79.653 92.2713" />
</svg>
