<?xml version="1.0" standalone="no"?>
<!DOCTYPE svg PUBLIC "-//W3C//DTD SVG 1.1//EN" "http://www.w3.org/Graphics/SVG/1.1/DTD/svg11.dtd">
<svg xmlns="http://www.w3.org/2000/svg" version="1.1" width="100%" height="100%">
<style type="text/css"><![CDATA[
  .stroke { fill:none; stroke:black; stroke-width:2 }
]]></style>
<path class="stroke" d="M 13.154171785714285 14.059406 C 16.654879285714284 16.138615 20.15558785714286 19.108912 23.01980357142857 22.673267" />
<path class="stroke" d="M 10.926448928571428 38.118813 C 14.108912142857141 39.90099 17.927864999999997 42.574257 20.473834285714286 46.138615" />
<path class="stroke" d="M 10.608203571428572 85.64356 C 11.321795357142857 87.422676 13.310014285714285 89.896904 15.629600357142856 89.896904 C 17.949189642857142 89.896904 21.110325 76.73267 23.33804892857143 69.60396" />
<path class="stroke" d="M 56.30964224 8.003153999999999 L 36.25259936 14.400636" />
<path class="stroke" d="M 36.25259936 14.400636 L 36.25259936 48.520488 M 28.6331864 51.637212000000005 L 55.74938528 42.451048" />
<path class="stroke" d="M 46.89741056 28.835992 C 52.425246079999994 34.085184 56.3843408 41.794964 58.99886144 50.981076" />
<path class="stroke" d="M 73.47667076799999 13.134306 L 92.24782393599999 11.91970768 C 91.832989408 23.30656888 91.003327456 29.98686016 89.86253872 38.64087592 C 89.240288704 42.7401446 88.09950209920001 48.9649632 85.921633792 48.9649632 L 84.78084576639999 48.9649632" />
<path class="stroke" d="M 79.9065679456 12.830655640000002 L 78.86948944 22.091968480000002 C 77.2101594976 33.934302880000004 74.2026271072 41.525544200000006 71.609926048 47.9021872" />
<path class="stroke" d="M 37.235036088 60.73284586 L 37.235036088 91.6350334" />
<path class="stroke" d="M 37.235036088 60.61021804 L 88.959411936 60.61021804 L 88.959411936 91.6350334" />
<path class="stroke" d="M 63.09722268 60.73284586 L 63.09722268 89.427736" />
<path class="stroke" d="M 37.235036088 75.01071436000001 L 88.57051056 75.01071436000001" />
<path class="stroke" d="M 37.235036088 89.427736 L 88.959411936 89.427736" />
</svg>
