<?xml version="1.0" standalone="no"?>
<!DOCTYPE svg PUBLIC "-//W3C//DTD SVG 1.1//EN" "http://www.w3.org/Graphics/SVG/1.1/DTD/svg11.dtd">
<svg xmlns="http://www.w3.org/2000/svg" version="1.1" width="100%" height="100%">
<style type="text/css"><![CDATA[
  .stroke { fill:none; stroke:black; stroke-width:2 }
]]></style>
<path class="stroke" d="M 13.154171785714285 14.059406 C 16.654879285714284 16.138615 20.15558785714286 19.108912 23.01980357142857 22.673267" />
<path class="stroke" d="M 10.926448928571428 38.118813 C 14.108912142857141 39.90099 17.927864999999997 42.574257 20.473834285714286 46.138615" />
<path class="stroke" d="M 10.608203571428572 85.64356 C 11.321795357142857 87.422676 13.310014285714285 89.896904 15.629600357142856 89.896904 C 17.949189642857142 89.896904 21.110325 76.73267 23.33804892857143 69.60396" />
<path class="stroke" d="M 52.052088999999995 9.738161999999999 C 51.834394 40.859042 43.780783 67.03366600000001 33.3328099 86.716084" />
<path class="stroke" d="M 37.903777 9.429020999999999 L 75.995227 9.429020999999999 C 74.544088 21.485813999999998 72.222376 29.214584 68.159311 38.17982 L 82.96056999999999 38.17982 C 81.436912 64.045254 61.629289 83.41857999999999 39.427435 92.28072" />
<path class="stroke" d="M 51.83432499999999 19.012588 C 56.913208 63.014686000000005 71.134039 92.79600400000001 87.966865 91.97153 L 92.320213 91.97153" />
</svg>
