<?xml version="1.0" standalone="no"?>
<!DOCTYPE svg PUBLIC "-//W3C//DTD SVG 1.1//EN" "http://www.w3.org/Graphics/SVG/1.1/DTD/svg11.dtd">
<svg xmlns="http://www.w3.org/2000/svg" version="1.1" width="100%" height="100%">
<style type="text/css"><![CDATA[
  .stroke { fill:none; stroke:black; stroke-width:2 }
]]></style>
<path class="stroke" d="M 11.838754607142857 14.059406 C 14.989391357142857 16.138615 18.14002907142857 19.108912 20.717823214285715 22.673267" />
<path class="stroke" d="M 9.833804035714286 38.118813 C 12.698020928571427 39.90099 16.1350785 42.574257 18.426450857142857 46.138615" />
<path class="stroke" d="M 9.547383214285714 85.64356 C 10.189615821428571 87.422676 11.979012857142857 89.896904 14.06664032142857 89.896904 C 16.15427067857143 89.896904 18.9992925 76.73267 21.004244035714287 69.60396" />
<path class="stroke" d="M 34.3454125 8.044167 L 92.31073749999999 8.044167 L 92.31073749999999 23.186256" />
<path class="stroke" d="M 34.3454125 23.186256 L 92.31073749999999 23.186256" />
<path class="stroke" d="M 34.1088325 8.044167 L 34.1088325 58.20186 C 34.1877325 72.92316 32.8469575 81.01996 29.613565 94.164055" />
<path class="stroke" d="M 41.630128 35.83909 L 93.86986 35.83909" />
<path class="stroke" d="M 64.34308 36.05994 C 61.25164 45.40802 57.78154 51.44377 52.60804 58.14193 M 45.98344 59.466910999999996 C 59.67435999999999 58.215590999999996 72.41878 56.301791 84.40618 52.621471" />
<path class="stroke" d="M 80.24212 46.659361000000004 C 83.27056 49.750771 85.54180000000001 53.946360999999996 87.24526 58.141951" />
<path class="stroke" d="M 52.418791 74.041009 L 85.16325400000001 74.041009" />
<path class="stroke" d="M 68.31784 63.220828999999995 L 68.31784 92.810739" />
<path class="stroke" d="M 41.819398 92.810739 L 93.11278 92.810739" />
</svg>
