<?xml version="1.0" standalone="no"?>
<!DOCTYPE svg PUBLIC "-//W3C//DTD SVG 1.1//EN" "http://www.w3.org/Graphics/SVG/1.1/DTD/svg11.dtd">
<svg xmlns="http://www.w3.org/2000/svg" version="1.1" width="100%" height="100%">
<style type="text/css"><![CDATA[
  .stroke { fill:none; stroke:black; stroke-width:2 }
]]></style>
<path class="stroke" d="M 10.961809821428572 14.059406 C 13.879066071428571 16.138615 16.796323214285717 19.108912 19.183169642857145 22.673267" />
<path class="stroke" d="M 9.105374107142858 38.118813 C 11.757426785714285 39.90099 14.939887500000001 42.574257 17.06152857142857 46.138615" />
<path class="stroke" d="M 8.840169642857143 85.64356 C 9.434829464285714 87.422676 11.091678571428572 89.896904 13.024666964285714 89.896904 C 14.957658035714285 89.896904 17.5919375 76.73267 19.448374107142858 69.60396" />
<path class="stroke" d="M 35.523092289999994 13.837560499999999 L 35.523092289999994 26.1245755" />
<path class="stroke" d="M 35.523092289999994 13.837560499999999 L 79.79808098999999 13.837560499999999 L 79.79808098999999 26.1245755" />
<path class="stroke" d="M 35.523092289999994 26.1245755 L 79.79808098999999 26.1245755" />
<path class="stroke" d="M 57.891169625 7.2444749999999996 L 57.891169625 36.014179999999996" />
<path class="stroke" d="M 26.529683355 36.313905 L 88.791518434 36.313905" />
<path class="stroke" d="M 37.289051119999996 47.329561162999994 L 37.289051119999996 83.36576396999999" />
<path class="stroke" d="M 37.54014446 47.329561162999994 L 76.710942 47.329561162999994 L 76.710942 83.36576396999999" />
<path class="stroke" d="M 37.54869028 59.63019922 L 76.66930424 59.63019922" />
<path class="stroke" d="M 37.54869028 71.74128776699999 L 76.66930424 71.74128776699999" />
<path class="stroke" d="M 37.54014446 83.20488849999998 L 76.4598478 83.20488849999998" />
<path class="stroke" d="M 42.562043079999995 87.06591079999998 C 40.55328432 89.8007993 32.399932199999995 91.65424759 28.63350802 92.29774671499999" />
<path class="stroke" d="M 68.8869114 87.10507863499998 C 71.0481645 88.48978847 79.1528776 92.643929546 86.9874346 92.470838406" />
</svg>
