<?xml version="1.0" standalone="no"?>
<!DOCTYPE svg PUBLIC "-//W3C//DTD SVG 1.1//EN" "http://www.w3.org/Graphics/SVG/1.1/DTD/svg11.dtd">
<svg xmlns="http://www.w3.org/2000/svg" version="1.1" width="100%" height="100%">
<style type="text/css"><![CDATA[
  .stroke { fill:none; stroke:black; stroke-width:2 }
]]></style>
<path class="stroke" d="M 10.961809821428572 14.059406 C 13.879066071428571 16.138615 16.796323214285717 19.108912 19.183169642857145 22.673267" />
<path class="stroke" d="M 9.105374107142858 38.118813 C 11.757426785714285 39.90099 14.939887500000001 42.574257 17.06152857142857 46.138615" />
<path class="stroke" d="M 8.840169642857143 85.64356 C 9.434829464285714 87.422676 11.091678571428572 89.896904 13.024666964285714 89.896904 C 14.957658035714285 89.896904 17.5919375 76.73267 19.448374107142858 69.60396" />
<path class="stroke" d="M 61.0 7.425568904 L 61.0 16.7" />
<path class="stroke" d="M 29.55 16.7 L 92.45 16.7" />
<path class="stroke" d="M 42.246130864 26.925620125 L 42.246130864 41.80445175" />
<path class="stroke" d="M 42.246130864 26.925620125 L 79.9267136 26.925620125 L 79.9267136 41.66138645" />
<path class="stroke" d="M 42.246130864 40.65992592 L 79.9267136 40.65992592" />
<path class="stroke" d="M 44.25547314 53.7718970426 L 80.5532827 53.7718970426 C 76.4481734 58.8192547524 71.03568242 62.55004284 60.76292916 64.41547578000001" />
<path class="stroke" d="M 60.5302184 64.41547578000001 C 64.4861844 70.58484528 63.9167877 87.98176617800002 60.8919674 90.78585085999998 C 59.5956206 91.907485213 58.2992664 92.187895602 56.13868322 92.328099596" />
<path class="stroke" d="M 31.29196962 68.515068032 L 91.1401408 68.515068032" />
</svg>
