<?xml version="1.0" standalone="no"?>
<!DOCTYPE svg PUBLIC "-//W3C//DTD SVG 1.1//EN" "http://www.w3.org/Graphics/SVG/1.1/DTD/svg11.dtd">
<svg xmlns="http://www.w3.org/2000/svg" version="1.1" width="100%" height="100%">
<style type="text/css"><![CDATA[
  .stroke { fill:none; stroke:black; stroke-width:2 }
]]></style>
<path class="stroke" d="M 10.961809821428572 14.059406 C 13.879066071428571 16.138615 16.796323214285717 19.108912 19.183169642857145 22.673267" />
<path class="stroke" d="M 9.105374107142858 38.118813 C 11.757426785714285 39.90099 14.939887500000001 42.574257 17.06152857142857 46.138615" />
<path class="stroke" d="M 8.840169642857143 85.64356 C 9.434829464285714 87.422676 11.091678571428572 89.896904 13.024666964285714 89.896904 C 14.957658035714285 89.896904 17.5919375 76.73267 19.448374107142858 69.60396" />
<path class="stroke" d="M 33.27672 15.4088 L 87.52833199999999 15.4088" />
<path class="stroke" d="M 46.6603808 6.28931 L 46.6603808 62.2642" />
<path class="stroke" d="M 73.42766896 6.60377 L 73.42766896 62.2641" />
<path class="stroke" d="M 46.66046896 30.50313 L 73.18872496 30.50313" />
<path class="stroke" d="M 46.660392200000004 46.540836 L 72.94970799999999 46.540836" />
<path class="stroke" d="M 28.7358492 62.57858 L 92.786164 62.57858" />
<path class="stroke" d="M 54.069256 62.5786 C 54.22855200000001 75.262 48.174012000000005 82.5996 39.490556 82.7044" />
<path class="stroke" d="M 67.213874 62.89308 L 67.213874 75.47168 C 66.895206 78.93078 68.96651 81.76098 71.276758 81.13208 L 84.89937800000001 81.13208" />
<path class="stroke" d="M 36.62262 62.8931 L 36.62262 93.0818 L 87.289312 93.0818" />
</svg>
