<?xml version="1.0" standalone="no"?>
<!DOCTYPE svg PUBLIC "-//W3C//DTD SVG 1.1//EN" "http://www.w3.org/Graphics/SVG/1.1/DTD/svg11.dtd">
<svg xmlns="http://www.w3.org/2000/svg" version="1.1" width="100%" height="100%">
<style type="text/css"><![CDATA[
  .stroke { fill:none; stroke:black; stroke-width:2 }
]]></style>
<path class="stroke" d="M 10.961809821428572 14.059406 C 13.879066071428571 16.138615 16.796323214285717 19.108912 19.183169642857145 22.673267" />
<path class="stroke" d="M 9.105374107142858 38.118813 C 11.757426785714285 39.90099 14.939887500000001 42.574257 17.06152857142857 46.138615" />
<path class="stroke" d="M 8.840169642857143 85.64356 C 9.434829464285714 87.422676 11.091678571428572 89.896904 13.024666964285714 89.896904 C 14.957658035714285 89.896904 17.5919375 76.73267 19.448374107142858 69.60396" />
<path class="stroke" d="M 37.1255465 8.694717352941176 C 41.44671434 12.81665911764706 44.903648020000006 18.484327058823528 47.49634902 23.894375294117648" />
<path class="stroke" d="M 82.9299222 8.694717352941176 C 81.16689144 13.795619117647059 77.5284624 19.772431764705882 73.8554724 24.151995000000003" />
<path class="stroke" d="M 31.07591108 28.799999999999997 L 90.924083 28.799999999999997" />
<path class="stroke" d="M 47.460589999999996 29.231315399999986 C 45.281808 43.02979979999998 40.301829999999995 50.497160399999984 34.621442 54.555501839999984" />
<path class="stroke" d="M 72.671946 29.231161020000012 C 75.628764 42.86723765999999 79.752858 49.68527598000003 85.51102 54.55534745999999" />
<path class="stroke" d="M 37.656108 60.48896 L 37.656108 92.03472" />
<path class="stroke" d="M 37.656108 60.48896 L 83.643556 60.48896 L 83.643556 91.90852000000001" />
<path class="stroke" d="M 53.063085599999994 60.61516 L 53.063085599999994 92.03472" />
<path class="stroke" d="M 68.7035036 60.6151428 L 68.7035036 92.160904" />
<path class="stroke" d="M 29.2523646 92.16087999999999 L 92.74762799999999 92.16087999999999" />
</svg>
