<?xml version="1.0" standalone="no"?>
<!DOCTYPE svg PUBLIC "-//W3C//DTD SVG 1.1//EN" "http://www.w3.org/Graphics/SVG/1.1/DTD/svg11.dtd">
<svg xmlns="http://www.w3.org/2000/svg" version="1.1" width="100%" height="100%">
<style type="text/css"><![CDATA[
  .stroke { fill:none; stroke:black; stroke-width:2 }
]]></style>
<path class="stroke" d="M 10.961809821428572 14.059406 C 13.879066071428571 16.138615 16.796323214285717 19.108912 19.183169642857145 22.673267" />
<path class="stroke" d="M 9.105374107142858 38.118813 C 11.757426785714285 39.90099 14.939887500000001 42.574257 17.06152857142857 46.138615" />
<path class="stroke" d="M 8.840169642857143 85.64356 C 9.434829464285714 87.422676 11.091678571428572 89.896904 13.024666964285714 89.896904 C 14.957658035714285 89.896904 17.5919375 76.73267 19.448374107142858 69.60396" />
<path class="stroke" d="M 41.865764999999996 6.385335 C 40.677615 15.304599 38.30574 22.721287 34.273215 27.506311" />
<path class="stroke" d="M 40.2735675 13.83652 L 85.7924175 13.83652" />
<path class="stroke" d="M 29.188679999999998 32.3899 L 92.867925 32.3899" />
<path class="stroke" d="M 54.365821499999996 13.593146 C 51.998369999999994 34.070683 40.6642215 50.140804 29.3203815 62.04098" />
<path class="stroke" d="M 40.907457 48.593586 L 40.875 93.88889" />
<path class="stroke" d="M 69.16188224999999 36.65558 C 67.79469375 40.634956 66.1996905 44.816624 63.00968475 48.39138" />
<path class="stroke" d="M 40.907457 48.3913 L 90.124815 48.3913" />
<path class="stroke" d="M 63.465393750000004 48.39128 L 63.375003 89.72223" />
<path class="stroke" d="M 41.363231999999996 63.162155 L 86.02332750000001 63.162155" />
<path class="stroke" d="M 41.59105275 78.13529 L 86.02332750000001 78.13529" />
<path class="stroke" d="M 40.875 90.27779 L 89.8333425 90.27779" />
</svg>
