<?xml version="1.0" standalone="no"?>
<!DOCTYPE svg PUBLIC "-//W3C//DTD SVG 1.1//EN" "http://www.w3.org/Graphics/SVG/1.1/DTD/svg11.dtd">
<svg xmlns="http://www.w3.org/2000/svg" version="1.1" width="100%" height="100%">
<style type="text/css"><![CDATA[
  .stroke { fill:none; stroke:black; stroke-width:2 }
]]></style>
<path class="stroke" d="M 9.99801939 14.059406 C 11.860395780000001 16.138615 13.722772740000002 19.108912 15.2465355 22.673267" />
<path class="stroke" d="M 8.81287083 38.118813 C 10.50594126 39.90099 12.53762418 42.574257 13.89207984 46.138615" />
<path class="stroke" d="M 8.643564300000001 85.64356 C 9.023195130000001 87.422676 10.080927599999999 89.896904 11.31494739 89.896904 C 12.54896889 89.896904 14.230692900000001 76.73267 15.41584203 69.60396" />
<path class="stroke" d="M 20.752167234782608 22.2397 L 37.555323130434786 22.2397" />
<path class="stroke" d="M 29.15377591304348 22.5552 L 29.15377591304348 68.9274" />
<path class="stroke" d="M 21.236874285217393 74.9211 L 37.5553436173913 63.2493" />
<path class="stroke" d="M 55.324607 9.4764385 C 54.915849 12.980087 54.760689799999994 14.994076 53.1256536 17.329842" />
<path class="stroke" d="M 45.4293195 17.015707 L 45.4293195 66.96335" />
<path class="stroke" d="M 45.2094229 17.43295 L 78.24904 17.43295 L 78.24904 43.333332" />
<path class="stroke" d="M 45.869108499999996 30.583939 L 78.034483 30.583939" />
<path class="stroke" d="M 45.6492154 43.430653 L 78.24904 43.430653" />
<path class="stroke" d="M 45.869108499999996 55.10949 L 88.968588 55.10949" />
<path class="stroke" d="M 45.6492154 66.20438 L 89.29884799999999 66.20438 L 88.011492 80.57471 C 87.582378 85.01916 86.40229699999999 90.22988 83.9348635 90.22988 C 82.54022549999999 90.22988 81.8965468 90.22988 80.93103399999998 90.22988" />
<path class="stroke" d="M 42.9540229 74.137924 C 42.7394624 76.74329 41.666666199999995 80.881226 40.3793095 83.48659" />
<path class="stroke" d="M 53.1455924 74.137924 C 54.0038309 76.28352 54.7547881 79.042145 54.862068 82.26054" />
<path class="stroke" d="M 66.0191552 74.597694 C 67.199232 76.74329 67.9501878 79.042145 68.4865901 81.800766" />
<path class="stroke" d="M 77.712644 74.44444 C 79.214557 75.82375 80.394631 77.816086 81.360148 80.72797" />
</svg>
