<?xml version="1.0" standalone="no"?>
<!DOCTYPE svg PUBLIC "-//W3C//DTD SVG 1.1//EN" "http://www.w3.org/Graphics/SVG/1.1/DTD/svg11.dtd">
<svg xmlns="http://www.w3.org/2000/svg" version="1.1" width="100%" height="100%">
<style type="text/css"><![CDATA[
  .stroke { fill:none; stroke:black; stroke-width:2 }
]]></style>
<path class="stroke" d="M 17.737225 4.332867480882354 C 23.576641 6.386968460294118 28.248173 9.21135631764706 31.751823 11.907363688235295" />
<path class="stroke" d="M 79.63503 4.332867480882354 C 77.252556 6.874816860294118 72.33576 9.853261829411766 67.37226 12.035744175000001" />
<path class="stroke" d="M 6.15142 13.420374500000001 L 93.8486 13.420374500000001" />
<path class="stroke" d="M 13.4069 24.123827 L 13.4069 60.294143000000005" />
<path class="stroke" d="M 13.4069 24.123827 L 86.9085 24.123827 L 86.9085 60.294143000000005" />
<path class="stroke" d="M 40.2208 13.604916844999998 L 40.2208 28.368327260000004 C 39.677418 32.54193605 28.387096 40.279032560000005 13.870968 41.977416845" />
<path class="stroke" d="M 59.46373 13.420374500000001 L 59.46373 39.0718055 C 59.04313 41.2248395 61.461628 42.82417100000001 64.82653 42.7626875 L 73.97473 42.7626875 C 76.39323 42.70114550000001 79.44263 41.532374000000004 79.337524 39.256373 L 79.337524 36.672779" />
<path class="stroke" d="M 13.4069 50.1443345 L 86.9085 50.1443345" />
<path class="stroke" d="M 13.4069 60.294143000000005 L 86.9085 60.294143000000005" />
<path class="stroke" d="M 10.437956 72.73430574 L 89.270065 72.73430574" />
<path class="stroke" d="M 65.62044 66.41021882 L 65.62044 94.5912396 C 65.62044 95.5897808 64.45255 96.2554724 61.824814 96.2554724 L 53.941605 96.2554724" />
<path class="stroke" d="M 26.49635 76.95036394 C 30.0 77.94890476 33.211678 79.39124036 35.839413 81.83211526" />
</svg>
