<?xml version="1.0" standalone="no"?>
<!DOCTYPE svg PUBLIC "-//W3C//DTD SVG 1.1//EN" "http://www.w3.org/Graphics/SVG/1.1/DTD/svg11.dtd">
<svg xmlns="http://www.w3.org/2000/svg" version="1.1" width="100%" height="100%">
<style type="text/css"><![CDATA[
  .stroke { fill:none; stroke:black; stroke-width:2 }
]]></style>
<path class="stroke" d="M 10.961809821428572 14.059406 C 13.879066071428571 16.138615 16.796323214285717 19.108912 19.183169642857145 22.673267" />
<path class="stroke" d="M 9.105374107142858 38.118813 C 11.757426785714285 39.90099 14.939887500000001 42.574257 17.06152857142857 46.138615" />
<path class="stroke" d="M 8.840169642857143 85.64356 C 9.434829464285714 87.422676 11.091678571428572 89.896904 13.024666964285714 89.896904 C 14.957658035714285 89.896904 17.5919375 76.73267 19.448374107142858 69.60396" />
<path class="stroke" d="M 41.104088000000004 9.93691 C 41.104088000000004 20.8728 38.15144 28.0231 33.608816 34.2271" />
<path class="stroke" d="M 40.877 22.555246 L 87.211376 22.555246" />
<path class="stroke" d="M 62.22716 6.15142 L 62.22716 45.8991" />
<path class="stroke" d="M 31.11040736 46.52997 L 93.11671519999999 46.52997" />
<path class="stroke" d="M 43.752992192 62.98175125 L 43.752992192 90.3102175" />
<path class="stroke" d="M 43.752992192 62.98175125 L 80.4151808 62.98175125 L 80.4151808 90.04744450000001" />
<path class="stroke" d="M 43.752992192 88.2080272 L 80.4151808 88.2080272" />
</svg>
