<?xml version="1.0" standalone="no"?>
<!DOCTYPE svg PUBLIC "-//W3C//DTD SVG 1.1//EN" "http://www.w3.org/Graphics/SVG/1.1/DTD/svg11.dtd">
<svg xmlns="http://www.w3.org/2000/svg" version="1.1" width="100%" height="100%">
<style type="text/css"><![CDATA[
  .stroke { fill:none; stroke:black; stroke-width:2 }
]]></style>
<path class="stroke" d="M 10.961809821428572 14.059406 C 13.879066071428571 16.138615 16.796323214285717 19.108912 19.183169642857145 22.673267" />
<path class="stroke" d="M 9.105374107142858 38.118813 C 11.757426785714285 39.90099 14.939887500000001 42.574257 17.06152857142857 46.138615" />
<path class="stroke" d="M 8.840169642857143 85.64356 C 9.434829464285714 87.422676 11.091678571428572 89.896904 13.024666964285714 89.896904 C 14.957658035714285 89.896904 17.5919375 76.73267 19.448374107142858 69.60396" />
<path class="stroke" d="M 32.47518213 30.29197 L 54.29581005 30.29197" />
<path class="stroke" d="M 44.7 8.394159 L 44.7 91.0219" />
<path class="stroke" d="M 44.7 32.919704 C 41.24014602 43.138683 36.16569241 53.941605 29.015328150000002 61.532845" />
<path class="stroke" d="M 44.7 35.255474 C 49.08247997 39.051094 51.3890485 42.55474 53.6956194 47.518246" />
<path class="stroke" d="M 60.25183177 30.29197 L 85.29561624 30.29197" />
<path class="stroke" d="M 72.1481708 8.394159 L 72.1481708 91.605835" />
<path class="stroke" d="M 71.68685819999999 34.08759 C 68.9189747 45.47445 61.76860965 56.569344 54.84890406 63.868607" />
<path class="stroke" d="M 71.68685819999999 33.79562 C 75.8386795 46.35036 84.14233000000002 60.07299 91.0620427 67.37226" />
</svg>
