<?xml version="1.0" standalone="no"?>
<!DOCTYPE svg PUBLIC "-//W3C//DTD SVG 1.1//EN" "http://www.w3.org/Graphics/SVG/1.1/DTD/svg11.dtd">
<svg xmlns="http://www.w3.org/2000/svg" version="1.1" width="100%" height="100%">
<style type="text/css"><![CDATA[
  .stroke { fill:none; stroke:black; stroke-width:2 }
]]></style>
<path class="stroke" d="M 10.961809821428572 14.059406 C 13.879066071428571 16.138615 16.796323214285717 19.108912 19.183169642857145 22.673267" />
<path class="stroke" d="M 9.105374107142858 38.118813 C 11.757426785714285 39.90099 14.939887500000001 42.574257 17.06152857142857 46.138615" />
<path class="stroke" d="M 8.840169642857143 85.64356 C 9.434829464285714 87.422676 11.091678571428572 89.896904 13.024666964285714 89.896904 C 14.957658035714285 89.896904 17.5919375 76.73267 19.448374107142858 69.60396" />
<path class="stroke" d="M 35.5247528 16.0043248045977 L 84.47524800000001 16.0043248045977" />
<path class="stroke" d="M 40.03960240000001 27.714805291954022 L 79.96039200000001 27.714805291954022" />
<path class="stroke" d="M 30.772277600000002 40.127916942528735 L 89.22772 40.127916942528735" />
<path class="stroke" d="M 59.762376 7.806987517241379 C 59.663520000000005 35.27963954022989 45.69928 54.26677908045976 27.683168000000002 63.78308935632184" />
<path class="stroke" d="M 64.269544 27.565821862068965 C 69.316904 44.31431473563218 76.40376 53.52053724137931 91.841584 64.25150592643678" />
<path class="stroke" d="M 44.826810848 56.813513539999995 L 75.17318640000002 56.813513539999995" />
<path class="stroke" d="M 35.678269136 70.6394584 L 85.21426432 70.6394584" />
<path class="stroke" d="M 60.10043424 56.832846489999994 L 60.10043424 67.5627729 C 60.10043424 81.58320954000001 44.030363472000005 90.596345 32.781313728 93.0284649" />
<path class="stroke" d="M 60.10043424 67.5627729 C 60.10043424 81.58320954000001 74.76437680000001 90.7394152 87.01780472 92.8853996" />
</svg>
