<?xml version="1.0" standalone="no"?>
<!DOCTYPE svg PUBLIC "-//W3C//DTD SVG 1.1//EN" "http://www.w3.org/Graphics/SVG/1.1/DTD/svg11.dtd">
<svg xmlns="http://www.w3.org/2000/svg" version="1.1" width="100%" height="100%">
<style type="text/css"><![CDATA[
  .stroke { fill:none; stroke:black; stroke-width:2 }
]]></style>
<path class="stroke" d="M 10.961809821428572 14.059406 C 13.879066071428571 16.138615 16.796323214285717 19.108912 19.183169642857145 22.673267" />
<path class="stroke" d="M 9.105374107142858 38.118813 C 11.757426785714285 39.90099 14.939887500000001 42.574257 17.06152857142857 46.138615" />
<path class="stroke" d="M 8.840169642857143 85.64356 C 9.434829464285714 87.422676 11.091678571428572 89.896904 13.024666964285714 89.896904 C 14.957658035714285 89.896904 17.5919375 76.73267 19.448374107142858 69.60396" />
<path class="stroke" d="M 34.62026184 13.649633 L 53.7926999456 11.605839 L 51.3027729632 31.167881" />
<path class="stroke" d="M 34.8692547088 32.919704 L 51.5517641264 31.167881" />
<path class="stroke" d="M 35.118245872 32.627735 L 32.3793277264 51.313866 L 53.0457196336 48.68613 L 51.5517641264 70.87591 C 50.55579350399999 84.014595 47.816872800000006 88.10219 45.0779546544 88.10219 L 41.8410499184 88.10219" />
<path class="stroke" d="M 33.8732840864 60.65693 C 37.857168281599996 61.532845 40.3470918528 63.284668 43.0860142624 65.62044" />
<path class="stroke" d="M 32.8773117584 81.678825 C 36.6122030848 80.21897 39.600114952 78.46715 44.081983179199995 74.9635" />
<path class="stroke" d="M 69.33798436000001 13.649633 L 90.72262686239999 11.605839 L 87.9454006128 31.167881" />
<path class="stroke" d="M 69.61570717519999 32.919704 L 88.22312152559999 31.167881" />
<path class="stroke" d="M 69.89342808800001 32.627735 L 66.8384809256 51.313866 L 89.8894565144 48.68613 L 88.22312152559999 70.87591 C 87.112231216 84.014595 84.05728119999999 88.10219 81.00233403759998 88.10219 L 77.3919402936 88.10219" />
<path class="stroke" d="M 68.50481686559999 60.65693 C 72.94838000639999 61.532845 75.72560245119999 63.284668 78.7805543696 65.62044" />
<path class="stroke" d="M 67.3939246536 81.678825 C 71.5597649792 80.21897 74.892435908 78.46715 79.8914427768 74.9635" />
</svg>
