<?xml version="1.0" standalone="no"?>
<!DOCTYPE svg PUBLIC "-//W3C//DTD SVG 1.1//EN" "http://www.w3.org/Graphics/SVG/1.1/DTD/svg11.dtd">
<svg xmlns="http://www.w3.org/2000/svg" version="1.1" width="100%" height="100%">
<style type="text/css"><![CDATA[
  .stroke { fill:none; stroke:black; stroke-width:2 }
]]></style>
<path class="stroke" d="M 10.961809821428572 14.059406 C 13.879066071428571 16.138615 16.796323214285717 19.108912 19.183169642857145 22.673267" />
<path class="stroke" d="M 9.105374107142858 38.118813 C 11.757426785714285 39.90099 14.939887500000001 42.574257 17.06152857142857 46.138615" />
<path class="stroke" d="M 8.840169642857143 85.64356 C 9.434829464285714 87.422676 11.091678571428572 89.896904 13.024666964285714 89.896904 C 14.957658035714285 89.896904 17.5919375 76.73267 19.448374107142858 69.60396" />
<path class="stroke" d="M 34.477909 7.5741358000000005 L 60.5 7.5741358000000005 C 54.282298 29.111488 46.452683 40.137761999999995 29.1813867 51.782318000000004" />
<path class="stroke" d="M 35.62930734 22.1041842 C 38.00888834 24.7834062 39.69767034 27.7718182 41.38645307 31.0694202" />
<path class="stroke" d="M 80.7650044 8.810724299999999 L 71.3234034 20.8675467" />
<path class="stroke" d="M 60.730242 7.8832768 C 67.254982 30.142056 77.003694 43.126174 91.81860599999999 52.400698" />
<path class="stroke" d="M 89.0551983 22.7223486 L 80.0740813 34.1609086" />
<path class="stroke" d="M 45.9921114 36.9432462 L 74.5473024 36.9432462" />
<path class="stroke" d="M 33.3265019 61.9842258 L 89.5157699 61.9842258" />
<path class="stroke" d="M 50.597769 37.252348 L 50.597769 63.52996999999999 C 50.521046 77.75084799999999 42.84495 91.04415599999999 31.484251999999998 91.66243800000001" />
<path class="stroke" d="M 69.71135899999999 37.252446 L 69.941674 85.788612 C 69.634636 89.395306 71.630383 92.383816 74.08676 92.28072 L 88.594634 92.28072 C 90.59045400000001 92.28072 92.816516 89.498402 92.73972 85.788612 L 92.73972 80.533166" />
</svg>
