<?xml version="1.0" standalone="no"?>
<!DOCTYPE svg PUBLIC "-//W3C//DTD SVG 1.1//EN" "http://www.w3.org/Graphics/SVG/1.1/DTD/svg11.dtd">
<svg xmlns="http://www.w3.org/2000/svg" version="1.1" width="100%" height="100%">
<style type="text/css"><![CDATA[
  .stroke { fill:none; stroke:black; stroke-width:2 }
]]></style>
<path class="stroke" d="M 10.961809821428572 14.059406 C 13.879066071428571 16.138615 16.796323214285717 19.108912 19.183169642857145 22.673267" />
<path class="stroke" d="M 9.105374107142858 38.118813 C 11.757426785714285 39.90099 14.939887500000001 42.574257 17.06152857142857 46.138615" />
<path class="stroke" d="M 8.840169642857143 85.64356 C 9.434829464285714 87.422676 11.091678571428572 89.896904 13.024666964285714 89.896904 C 14.957658035714285 89.896904 17.5919375 76.73267 19.448374107142858 69.60396" />
<path class="stroke" d="M 60.5 7.960171630000001 L 60.5 15.61" />
<path class="stroke" d="M 28.625 15.61 L 92.375 15.61" />
<path class="stroke" d="M 43.868612674999994 23.90102165 L 43.868612674999994 35.6826271" />
<path class="stroke" d="M 43.868612674999994 23.90102165 L 77.28467 23.90102165 L 77.28467 35.569342739999996" />
<path class="stroke" d="M 43.868612674999994 34.776349503999995 L 77.28467 34.776349503999995" />
<path class="stroke" d="M 30.39050975 45.687079059999995 L 30.39050975 54.013501053999995" />
<path class="stroke" d="M 30.39050975 45.347224234 L 90.60948499999999 45.347224234 L 90.60948499999999 54.183427593999994" />
<path class="stroke" d="M 43.724085079999995 55.6299333525 L 76.6583885 55.6299333525" />
<path class="stroke" d="M 56.691968585 55.7687071688 C 51.34014509 61.735977467299996 42.2634125 64.94893845 32.477942 67.3979217" />
<path class="stroke" d="M 50.10510917 61.319656969 C 62.66131145 67.9807934972 65.13138752 86.8540206315 60.6029159 91.156006085 C 57.9270038 93.653930976 52.986859415 93.098837612 51.13430342 91.98864613100001" />
<path class="stroke" d="M 56.074451329999995 66.3155105534 C 50.310947315 71.588912721 42.489049865 74.6419324019 32.402919425 77.00108632839999" />
<path class="stroke" d="M 60.39707705 73.392970907 C 54.221895335 80.33165696900001 43.31240879 84.633640046 32.402919425 86.7152477658" />
<path class="stroke" d="M 81.598535 62.291071306599996 C 78.30510635 65.7604148129 73.159121 68.535889713 66.983937875 70.0623997911" />
<path class="stroke" d="M 63.278831525 67.9807934972 C 68.01313565000001 78.66636974749999 78.5109452 84.633640046 88.185395825 88.93562787599998" />
</svg>
