<?xml version="1.0" standalone="no"?>
<!DOCTYPE svg PUBLIC "-//W3C//DTD SVG 1.1//EN" "http://www.w3.org/Graphics/SVG/1.1/DTD/svg11.dtd">
<svg xmlns="http://www.w3.org/2000/svg" version="1.1" width="100%" height="100%">
<style type="text/css"><![CDATA[
  .stroke { fill:none; stroke:black; stroke-width:2 }
]]></style>
<path class="stroke" d="M 10.961809821428572 14.059406 C 13.879066071428571 16.138615 16.796323214285717 19.108912 19.183169642857145 22.673267" />
<path class="stroke" d="M 9.105374107142858 38.118813 C 11.757426785714285 39.90099 14.939887500000001 42.574257 17.06152857142857 46.138615" />
<path class="stroke" d="M 8.840169642857143 85.64356 C 9.434829464285714 87.422676 11.091678571428572 89.896904 13.024666964285714 89.896904 C 14.957658035714285 89.896904 17.5919375 76.73267 19.448374107142858 69.60396" />
<path class="stroke" d="M 43.9373715 10.7080292 L 43.9373715 42.708026000000004" />
<path class="stroke" d="M 43.9373715 21.6861296 L 54.189047220000006 21.6861296" />
<path class="stroke" d="M 34.784086502 22.38686 L 34.784086502 42.708026000000004" />
<path class="stroke" d="M 26.118977434 42.708026000000004 L 59.8030631 42.708026000000004" />
<path class="stroke" d="M 43.976274163012405 46.941773551699995 L 43.976274163012405 73.422004559 C 43.976274163012405 74.1816831605 43.362489700336404 74.615786015 42.9175676815952 74.615786015 L 42.138952529696 74.615786015" />
<path class="stroke" d="M 35.1314173054988 56.817596858 C 34.575263734418 60.615991724 32.9068034021408 63.8717584865 30.5709579464432 66.4763722682" />
<path class="stroke" d="M 51.816024818888 56.817596858 C 54.04063872224601 59.096634521 55.9315598734112 62.1353500421 57.0438670155728 66.6934220228" />
<path class="stroke" d="M 52.413708215000014 68.14747648 C 49.20730761188 78.55031872 42.18954144284 88.47670528 34.62730680728 92.56637760000001" />
<path class="stroke" d="M 65.0997660676 9.854013 L 89.679384568 9.854013" />
<path class="stroke" d="M 77.565984196 9.854013 C 77.095562132 14.817516 76.1547147816 18.905107 74.82385472 22.0621" />
<path class="stroke" d="M 66.13852 22.3791 L 66.13852 76.715324" />
<path class="stroke" d="M 66.13852 22.3791 L 88.74595196 22.3791 L 88.74595196 76.423355" />
<path class="stroke" d="M 66.26624788000001 40.77066 L 88.74595196 40.77066" />
<path class="stroke" d="M 66.26624788000001 59.79627 L 88.74595196 59.79627" />
<path class="stroke" d="M 66.15821853119999 76.715324 L 88.856141928 76.715324" />
<path class="stroke" d="M 70.6272398204 83.13868 C 68.5103348932 86.9343 66.0406126124 89.56204 63.100466253600004 89.85401" />
<path class="stroke" d="M 84.73994081200001 83.43065 C 87.209664704 84.59853 89.208962504 86.35036 91.561078866 90.72992" />
</svg>
