<?xml version="1.0" standalone="no"?>
<!DOCTYPE svg PUBLIC "-//W3C//DTD SVG 1.1//EN" "http://www.w3.org/Graphics/SVG/1.1/DTD/svg11.dtd">
<svg xmlns="http://www.w3.org/2000/svg" version="1.1" width="100%" height="100%">
<style type="text/css"><![CDATA[
  .stroke { fill:none; stroke:black; stroke-width:2 }
]]></style>
<path class="stroke" d="M 10.961809821428572 14.059406 C 13.879066071428571 16.138615 16.796323214285717 19.108912 19.183169642857145 22.673267" />
<path class="stroke" d="M 9.105374107142858 38.118813 C 11.757426785714285 39.90099 14.939887500000001 42.574257 17.06152857142857 46.138615" />
<path class="stroke" d="M 8.840169642857143 85.64356 C 9.434829464285714 87.422676 11.091678571428572 89.896904 13.024666964285714 89.896904 C 14.957658035714285 89.896904 17.5919375 76.73267 19.448374107142858 69.60396" />
<path class="stroke" d="M 60.2996714 7.2996896 L 60.2996714 14.5678688" />
<path class="stroke" d="M 32.987374 15.1735232 L 92.74762799999999 15.1735232" />
<path class="stroke" d="M 32.98740582 15.47634272 L 32.98740582 60.599321599999996 C 33.29864982 74.3279936 31.97582582 83.5141376 28.31861262 92.70027584" />
<path class="stroke" d="M 33.87999974 30.0735104 L 84.2800004 30.0735104 L 84.2800004 45.329724799999994" />
<path class="stroke" d="M 52.48185038 15.476389759999998 L 52.59999877999999 43.772969599999996" />
<path class="stroke" d="M 69.170377 15.476389759999998 L 69.399999 43.772969599999996" />
<path class="stroke" d="M 35.07999854 45.018377599999994 L 82.83999739999999 45.018377599999994" />
<path class="stroke" d="M 47.51780828 63.44604799999999 L 61.320971300000004 63.44604799999999" />
<path class="stroke" d="M 47.328691586000005 48.3041 L 47.328691586000005 87.5217536 M 37.496247872 90.09588799999999 L 59.99737622000001 84.644768" />
<path class="stroke" d="M 88.54925576 59.206303999999996 C 82.12033112 63.345104 76.25867864 65.0612 67.37167454 65.26308800000001" />
<path class="stroke" d="M 67.18256384 48.3040976 L 67.18256384 86.91608 C 67.1195669 88.430288 68.38010510000001 90.09588799999999 70.39702616 90.09588799999999 L 85.90206560000001 89.94449599999999 C 88.42314200000001 89.74256 89.6207432 88.48078399999999 89.68374014000001 86.76468799999999 L 89.68374014000001 82.373504" />
</svg>
