<?xml version="1.0" standalone="no"?>
<!DOCTYPE svg PUBLIC "-//W3C//DTD SVG 1.1//EN" "http://www.w3.org/Graphics/SVG/1.1/DTD/svg11.dtd">
<svg xmlns="http://www.w3.org/2000/svg" version="1.1" width="100%" height="100%">
<style type="text/css"><![CDATA[
  .stroke { fill:none; stroke:black; stroke-width:2 }
]]></style>
<path class="stroke" d="M 10.961809821428572 14.059406 C 13.879066071428571 16.138615 16.796323214285717 19.108912 19.183169642857145 22.673267" />
<path class="stroke" d="M 9.105374107142858 38.118813 C 11.757426785714285 39.90099 14.939887500000001 42.574257 17.06152857142857 46.138615" />
<path class="stroke" d="M 8.840169642857143 85.64356 C 9.434829464285714 87.422676 11.091678571428572 89.896904 13.024666964285714 89.896904 C 14.957658035714285 89.896904 17.5919375 76.73267 19.448374107142858 69.60396" />
<path class="stroke" d="M 38.78861968 9.83757357 L 81.80644240000001 9.83757357 L 81.80644240000001 44.815461570000004 C 81.7662772 47.59419456 80.22273039999999 49.49994357 76.7225728 49.49994357 L 69.2922088 49.49994357" />
<path class="stroke" d="M 38.78849512 10.14981957 L 38.78849512 87.28863659999999 C 38.9050264 90.77057549999999 41.525992 92.6773056 45.04561336 92.59780860000001 L 84.1526884 92.59780860000001 C 87.9331456 92.59780860000001 90.931348 90.7240356 90.8010568 87.28863659999999 L 90.8010568 81.3548736" />
</svg>
