<?xml version="1.0" standalone="no"?>
<!DOCTYPE svg PUBLIC "-//W3C//DTD SVG 1.1//EN" "http://www.w3.org/Graphics/SVG/1.1/DTD/svg11.dtd">
<svg xmlns="http://www.w3.org/2000/svg" version="1.1" width="100%" height="100%">
<style type="text/css"><![CDATA[
  .stroke { fill:none; stroke:black; stroke-width:2 }
]]></style>
<path class="stroke" d="M 11.313868 17.445253 C 15.401459 18.029196 19.48905 20.364962 22.408756 24.160583" />
<path class="stroke" d="M 9.270073 47.226276 C 13.357662 47.226276 18.321167 46.934303 23.86861 43.138683 C 16.27737 53.357662 14.233576 58.321167 15.109488 60.9489 C 15.69343 63.284668 20.948904 65.62044 22.116787 68.832115 C 23.576641 72.33576 18.129246 80.26506 11.021896 83.722626" />
<path class="stroke" d="M 11.021896 84.014595 C 39.692924 81.65476 40.51095 91.313866 90.43795 90.14598" />
<path class="stroke" d="M 31.7476359 9.200316399999998 L 92.9148385 9.200316399999998" />
<path class="stroke" d="M 63.10411 9.200316399999998 C 55.15456 20.022619999999996 43.89275 27.179295 34.17668 31.455869999999997" />
<path class="stroke" d="M 54.2713 18.88801 C 64.28179 27.615709 68.10932 65.40643899999999 61.779149999999994 78.061532 C 59.49735999999999 82.076242 54.56572 79.28337499999999 52.50478 78.585179" />
<path class="stroke" d="M 61.11674 31.717652 C 53.01998 40.881599 44.702439999999996 45.856619 33.293378 51.616736" />
<path class="stroke" d="M 63.766589999999994 46.903747 C 57.95162 56.067943 44.187169999999995 65.493672 33.072556 70.99209" />
<path class="stroke" d="M 85.40692899999999 20.4589925 C 80.916919 27.2665695 75.543649 33.0267695 70.39115899999999 37.4779765" />
<path class="stroke" d="M 63.987356 43.7618152 C 72.378536 54.40955569 80.548936 65.0573742 90.706636 71.77763519999999" />
</svg>
