<?xml version="1.0" standalone="no"?>
<!DOCTYPE svg PUBLIC "-//W3C//DTD SVG 1.1//EN" "http://www.w3.org/Graphics/SVG/1.1/DTD/svg11.dtd">
<svg xmlns="http://www.w3.org/2000/svg" version="1.1" width="100%" height="100%">
<style type="text/css"><![CDATA[
  .stroke { fill:none; stroke:black; stroke-width:2 }
]]></style>
<path class="stroke" d="M 9.20792025 14.059406 C 11.6584155 16.138615 14.108911500000001 19.108912 16.1138625 22.673267" />
<path class="stroke" d="M 7.64851425 38.118813 C 9.8762385 39.90099 12.549505499999999 42.574257 14.331684 46.138615" />
<path class="stroke" d="M 7.4257425 85.64356 C 7.925256750000001 87.422676 9.31701 89.896904 10.94072025 89.896904 C 12.564432749999998 89.896904 14.7772275 76.73267 16.33663425 69.60396" />
<path class="stroke" d="M 27.84667816 7.96372533 L 59.06183896 7.96372533 L 59.06183896 32.94795042" />
<path class="stroke" d="M 27.84667816 32.94795042 L 59.06183896 32.94795042" />
<path class="stroke" d="M 27.84667816 7.96372533 L 27.84667816 57.619841400000006 C 27.894649360000003 72.19392839999999 26.93563576 80.2097604 21.80504752 93.22241445" />
<path class="stroke" d="M 32.9029748344 54.65927412 L 55.357738192 54.65927412" />
<path class="stroke" d="M 39.045299895999996 42.32951514 L 39.045299895999996 71.44864610399999" />
<path class="stroke" d="M 49.114700104 42.067186920000005 L 49.114700104 71.44861284" />
<path class="stroke" d="M 30.184227138399997 71.71098264 L 58.177166356 71.71098264" />
<path class="stroke" d="M 38.2397572 78.0632424 C 37.29993664 84.43424879999999 35.1518164 87.8820624 32.70157336 89.75587104" />
<path class="stroke" d="M 49.114709680000004 78.06317111999999 C 50.39013712 84.35919095999999 52.16907064 87.50720087999998 54.6528616 89.75579975999999" />
<path class="stroke" d="M 68.68769800000001 7.9637283 L 68.68769800000001 26.389637999999998 C 68.607784 40.651379999999996 64.33229 47.418029999999995 59.457414400000005 50.436935999999996" />
<path class="stroke" d="M 68.807588 7.963718399999999 L 81.75396 7.963718399999999 L 81.75396 36.383193 C 81.63407000000001 40.443084 82.593076 42.941547 83.911676 42.941547 L 92.2345538 42.941547" />
<path class="stroke" d="M 64.971602 52.6230639 L 84.990572 52.6230639 C 79.9159 76.4621649 70.64564800000001 88.1214939 60.176655600000004 93.2223699" />
<path class="stroke" d="M 67.848582 52.6230639 C 69.726618 74.9006379 80.475298 91.2445479 92.302836 92.91012389999999" />
</svg>
