<?xml version="1.0" standalone="no"?>
<!DOCTYPE svg PUBLIC "-//W3C//DTD SVG 1.1//EN" "http://www.w3.org/Graphics/SVG/1.1/DTD/svg11.dtd">
<svg xmlns="http://www.w3.org/2000/svg" version="1.1" width="100%" height="100%">
<style type="text/css"><![CDATA[
  .stroke { fill:none; stroke:black; stroke-width:2 }
]]></style>
<path class="stroke" d="M 10.961809821428572 14.059406 C 13.879066071428571 16.138615 16.796323214285717 19.108912 19.183169642857145 22.673267" />
<path class="stroke" d="M 9.105374107142858 38.118813 C 11.757426785714285 39.90099 14.939887500000001 42.574257 17.06152857142857 46.138615" />
<path class="stroke" d="M 8.840169642857143 85.64356 C 9.434829464285714 87.422676 11.091678571428572 89.896904 13.024666964285714 89.896904 C 14.957658035714285 89.896904 17.5919375 76.73267 19.448374107142858 69.60396" />
<path class="stroke" d="M 42.739677392000004 19.48905 L 78.08356038400001 17.153284 C 77.302475552 39.051094 75.740319264 51.897808 73.59234768 68.540146 C 72.42072377600002 76.423355 70.2727562048 88.39416 66.172085248 88.39416 L 64.0241150016 88.39416" />
<path class="stroke" d="M 54.8464207264 18.905107 L 52.89372336 36.715324 C 49.7693994144 59.489044 44.1065681568 74.087585 39.224815712 86.35036" />
<path class="stroke" d="M 36.7219351176 34.00322571 L 36.7219351176 42.16451558 C 36.7219351176 47.951612280000006 36.1923869688 49.95483822 34.5596127576 52.329030700000004" />
<path class="stroke" d="M 87.395962896 34.801254799999995 C 89.524926576 38.9653028 90.762018096 44.4921308 91.510031376 52.1766908" />
</svg>
