<?xml version="1.0" standalone="no"?>
<!DOCTYPE svg PUBLIC "-//W3C//DTD SVG 1.1//EN" "http://www.w3.org/Graphics/SVG/1.1/DTD/svg11.dtd">
<svg xmlns="http://www.w3.org/2000/svg" version="1.1" width="100%" height="100%">
<style type="text/css"><![CDATA[
  .stroke { fill:none; stroke:black; stroke-width:2 }
]]></style>
<path class="stroke" d="M 10.961809821428572 7.873267360000001 C 13.879066071428571 9.037624400000002 16.796323214285717 10.700990720000002 19.183169642857145 12.697029520000001" />
<path class="stroke" d="M 9.105374107142858 21.346535280000005 C 11.757426785714285 22.344554400000003 14.939887500000001 23.841583920000005 17.06152857142857 25.837624400000003" />
<path class="stroke" d="M 8.840169642857143 47.9603936 C 9.434829464285714 48.95669856 11.091678571428572 50.34226624000001 13.024666964285714 50.34226624000001 C 14.957658035714285 50.34226624000001 17.5919375 42.9702952 19.448374107142858 38.9782176" />
<path class="stroke" d="M 42.739677392000004 10.913868 L 78.08356038400001 9.605839040000001 C 77.302475552 21.868612640000002 75.740319264 29.062772480000003 73.59234768 38.38248176 C 72.42072377600002 42.7970788 70.2727562048 49.50072960000001 66.172085248 49.50072960000001 L 64.0241150016 49.50072960000001" />
<path class="stroke" d="M 54.8464207264 10.586859920000002 L 52.89372336 20.560581440000004 C 49.7693994144 33.313864640000006 44.1065681568 41.489047600000006 39.224815712 48.3562016" />
<path class="stroke" d="M 36.7219351176 19.041806397600002 L 36.7219351176 23.6121287248 C 36.7219351176 26.852902876800005 36.1923869688 27.974709403200002 34.5596127576 29.304257192000005" />
<path class="stroke" d="M 87.395962896 19.488702688 C 89.524926576 21.820569568000003 90.762018096 24.915593248 91.510031376 29.218946848000005" />
<path class="stroke" d="M 11.021896 63.37590652 L 88.68613 63.37590652" />
<path class="stroke" d="M 50.14598 57.07518064 L 50.14598 88.3816452" />
<path class="stroke" d="M 47.226276 65.31459562 C 35.547443 74.0386808 23.576641 80.58174509999999 13.065693 84.21677989999999" />
<path class="stroke" d="M 53.06569 65.31459562 C 64.16058 74.523351 75.54744 80.33941 86.642334 84.21677989999999" />
</svg>
