<?xml version="1.0" standalone="no"?>
<!DOCTYPE svg PUBLIC "-//W3C//DTD SVG 1.1//EN" "http://www.w3.org/Graphics/SVG/1.1/DTD/svg11.dtd">
<svg xmlns="http://www.w3.org/2000/svg" version="1.1" width="100%" height="100%">
<style type="text/css"><![CDATA[
  .stroke { fill:none; stroke:black; stroke-width:2 }
]]></style>
<path class="stroke" d="M 10.961809821428572 14.059406 C 13.879066071428571 16.138615 16.796323214285717 19.108912 19.183169642857145 22.673267" />
<path class="stroke" d="M 9.105374107142858 38.118813 C 11.757426785714285 39.90099 14.939887500000001 42.574257 17.06152857142857 46.138615" />
<path class="stroke" d="M 8.840169642857143 85.64356 C 9.434829464285714 87.422676 11.091678571428572 89.896904 13.024666964285714 89.896904 C 14.957658035714285 89.896904 17.5919375 76.73267 19.448374107142858 69.60396" />
<path class="stroke" d="M 85.90098880000001 7.260726 C 71.16831680000001 10.528053066666667 48.5940584 12.0528056 35.2871296 12.0528056" />
<path class="stroke" d="M 36.7128704 17.716172466666666 C 40.277228 20.76567753333333 42.41848 24.097406666666668 44.079208 27.518152933333333" />
<path class="stroke" d="M 54.7722776 16.627062466666665 C 58.0990112 19.023102266666665 60.237624000000004 22.07260733333333 61.663368000000006 25.993399666666665" />
<path class="stroke" d="M 84.712872 15.320131199999999 C 82.81188320000001 20.547854799999996 79.96039200000001 24.468647133333334 75.920792 27.300329466666664" />
<path class="stroke" d="M 79.96039200000001 35.544554500000004 C 68.0792056 37.99504975 51.920792000000006 39.7772275 39.8019808 40.668316000000004" />
<path class="stroke" d="M 31.0099016 62.5 L 88.27722800000001 62.5" />
<path class="stroke" d="M 60.0 39.108911500000005 L 60.0 90.346537" />
<path class="stroke" d="M 40.03960240000001 90.346537 L 80.67326399999999 90.346537" />
</svg>
