<?xml version="1.0" standalone="no"?>
<!DOCTYPE svg PUBLIC "-//W3C//DTD SVG 1.1//EN" "http://www.w3.org/Graphics/SVG/1.1/DTD/svg11.dtd">
<svg xmlns="http://www.w3.org/2000/svg" version="1.1" width="100%" height="100%">
<style type="text/css"><![CDATA[
  .stroke { fill:none; stroke:black; stroke-width:2 }
]]></style>
<path class="stroke" d="M 10.961809821428572 14.059406 C 13.879066071428571 16.138615 16.796323214285717 19.108912 19.183169642857145 22.673267" />
<path class="stroke" d="M 9.105374107142858 38.118813 C 11.757426785714285 39.90099 14.939887500000001 42.574257 17.06152857142857 46.138615" />
<path class="stroke" d="M 8.840169642857143 85.64356 C 9.434829464285714 87.422676 11.091678571428572 89.896904 13.024666964285714 89.896904 C 14.957658035714285 89.896904 17.5919375 76.73267 19.448374107142858 69.60396" />
<path class="stroke" d="M 28.645736919 21.3686116 L 89.207307751 21.3686116" />
<path class="stroke" d="M 59.1500321468 10.05474403 L 59.1500321468 34.7642324" />
<path class="stroke" d="M 34.2325966462 34.7642324 L 83.84392415800001 34.7642324" />
<path class="stroke" d="M 29.6337944794 46.6773704 L 29.6337944794 59.26714936" />
<path class="stroke" d="M 29.6337944794 46.16350056 L 86.94620052399999 46.16350056 L 86.94620052399999 59.52408296" />
<path class="stroke" d="M 50.1940720752 56.11167806 L 50.1940720752 67.78758932 C 50.1940720752 78.0824799 44.7101602992 88.25182251999999 31.0003794144 90.8883185" />
<path class="stroke" d="M 62.638333857599996 55.98613139 L 62.638333857599996 85.6153274 C 62.638333857599996 88.7540135 65.3802926352 90.6372243 68.3331640392 90.6372243 L 84.7848972 90.6372243 C 87.10502205599998 90.76277139999999 88.79237508 89.7583903 88.79237508 88.3773679 L 88.79237508 85.99197042" />
</svg>
