<?xml version="1.0" standalone="no"?>
<!DOCTYPE svg PUBLIC "-//W3C//DTD SVG 1.1//EN" "http://www.w3.org/Graphics/SVG/1.1/DTD/svg11.dtd">
<svg xmlns="http://www.w3.org/2000/svg" version="1.1" width="100%" height="100%">
<style type="text/css"><![CDATA[
  .stroke { fill:none; stroke:black; stroke-width:2 }
]]></style>
<path class="stroke" d="M 10.961809821428572 14.059406 C 13.879066071428571 16.138615 16.796323214285717 19.108912 19.183169642857145 22.673267" />
<path class="stroke" d="M 9.105374107142858 38.118813 C 11.757426785714285 39.90099 14.939887500000001 42.574257 17.06152857142857 46.138615" />
<path class="stroke" d="M 8.840169642857143 85.64356 C 9.434829464285714 87.422676 11.091678571428572 89.896904 13.024666964285714 89.896904 C 14.957658035714285 89.896904 17.5919375 76.73267 19.448374107142858 69.60396" />
<path class="stroke" d="M 29.494889360000002 9.175180999999995 L 29.494889360000002 19.189777899999996" />
<path class="stroke" d="M 29.494889360000002 8.766420899999996 L 87.3051056 8.766420899999996 L 87.3051056 19.3941569" />
<path class="stroke" d="M 38.15396184 22.1020447 L 80.4680832 22.1020447" />
<path class="stroke" d="M 38.562783744 35.7129207 L 38.562783744 70.8287374" />
<path class="stroke" d="M 38.562783744 35.7129207 L 79.65046272000001 35.7129207 L 79.65046272000001 70.8287374" />
<path class="stroke" d="M 38.767163592 53.40685482 L 79.44602196 53.40685482" />
<path class="stroke" d="M 38.562783744 70.8287374 L 79.65046272000001 70.8287374" />
<path class="stroke" d="M 31.203784704 83.3506642 L 86.80504368000001 83.3506642" />
<path class="stroke" d="M 58.80001944000001 13.391166276 L 58.80001944000001 93.42264019999999" />
</svg>
