<?xml version="1.0" standalone="no"?>
<!DOCTYPE svg PUBLIC "-//W3C//DTD SVG 1.1//EN" "http://www.w3.org/Graphics/SVG/1.1/DTD/svg11.dtd">
<svg xmlns="http://www.w3.org/2000/svg" version="1.1" width="100%" height="100%">
<style type="text/css"><![CDATA[
  .stroke { fill:none; stroke:black; stroke-width:2 }
]]></style>
<path class="stroke" d="M 10.961809821428572 14.059406 C 13.879066071428571 16.138615 16.796323214285717 19.108912 19.183169642857145 22.673267" />
<path class="stroke" d="M 9.105374107142858 38.118813 C 11.757426785714285 39.90099 14.939887500000001 42.574257 17.06152857142857 46.138615" />
<path class="stroke" d="M 8.840169642857143 85.64356 C 9.434829464285714 87.422676 11.091678571428572 89.896904 13.024666964285714 89.896904 C 14.957658035714285 89.896904 17.5919375 76.73267 19.448374107142858 69.60396" />
<path class="stroke" d="M 31.13999956 15.246752 L 90.4199988 15.246752" />
<path class="stroke" d="M 33.73503585 43.722626 L 33.73503585 90.43795" />
<path class="stroke" d="M 33.73503585 43.722626 L 89.48977719999999 43.722626 L 89.48977719999999 90.43795" />
<path class="stroke" d="M 53.29415851 15.401459 L 53.29415851 35.839413 C 53.29415851 55.985397 46.3248169 70.29197 38.4562023 74.087585" />
<path class="stroke" d="M 69.2562023 15.109488 L 69.2562023 55.693428 C 69.2562023 66.788315 78.0240845 69.124084 79.82262431999999 69.124084 L 83.6445224 69.124084" />
<path class="stroke" d="M 33.73503585 85.76642 L 89.48977719999999 85.76642" />
</svg>
