<?xml version="1.0" standalone="no"?>
<!DOCTYPE svg PUBLIC "-//W3C//DTD SVG 1.1//EN" "http://www.w3.org/Graphics/SVG/1.1/DTD/svg11.dtd">
<svg xmlns="http://www.w3.org/2000/svg" version="1.1" width="100%" height="100%">
<style type="text/css"><![CDATA[
  .stroke { fill:none; stroke:black; stroke-width:2 }
]]></style>
<path class="stroke" d="M 10.961809821428572 14.059406 C 13.879066071428571 16.138615 16.796323214285717 19.108912 19.183169642857145 22.673267" />
<path class="stroke" d="M 9.105374107142858 38.118813 C 11.757426785714285 39.90099 14.939887500000001 42.574257 17.06152857142857 46.138615" />
<path class="stroke" d="M 8.840169642857143 85.64356 C 9.434829464285714 87.422676 11.091678571428572 89.896904 13.024666964285714 89.896904 C 14.957658035714285 89.896904 17.5919375 76.73267 19.448374107142858 69.60396" />
<path class="stroke" d="M 59.102772784 5.7094960696 C 55.10861224 9.6492623605 45.5780572 14.06130598 34.338976864 17.211802648 C 51.114451012 16.713671079999997 65.693138092 16.487248344999998 81.6545428 16.52036995" />
<path class="stroke" d="M 73.88116665999999 13.6795974352 C 78.47444895999999 14.54000662 82.468609504 15.8532623605 85.06481632 17.619363571" />
<path class="stroke" d="M 39.636787904 22.31861284 C 37.86160544 26.509853575000005 33.6258032 31.203517 28.630656383999998 34.555109200000004 C 36.086422672 34.025182 42.565839152 33.78430675 49.65979680000001 33.8195425" />
<path class="stroke" d="M 46.20496296 30.79744408 C 48.24642176 31.712773000000002 50.021604224 33.109853575 51.17547392 34.988684649999996" />
<path class="stroke" d="M 81.4789485088 22.31861284 C 79.792525168 26.509853575000005 75.76851304 31.203517 71.0231235648 34.555109200000004 C 78.1061015384 34.025182 84.2615471944 33.78430675 91.00080696 33.8195425" />
<path class="stroke" d="M 87.718714812 30.79744408 C 89.658100672 31.712773000000002 91.34452401280001 33.109853575 92.440700224 34.988684649999996" />
<path class="stroke" d="M 61.1109448 31.333721536000002 C 52.4569312 40.387152224000005 42.69342932 47.487882688 30.48904988 51.748319264" />
<path class="stroke" d="M 61.1109448 31.333721536000002 C 69.98685864000001 40.03211488 79.08466816 47.487882688 91.732842 51.570802111999996" />
<path class="stroke" d="M 62.118253360000004 48.968795363599995 C 53.917711999999995 56.806526996399995 47.705175600000004 60.312880522 36.025612640000006 64.85051635159999" />
<path class="stroke" d="M 73.7978148 57.012784088 C 65.34877320000001 64.85051635159999 54.91171448 72.4819946776 40.25013648 77.22588318319998" />
<path class="stroke" d="M 85.9743828 65.0567734432 C 74.7918188 75.7820917424 61.86975388 85.476126476 38.510625680000004 92.076325652" />
</svg>
