<?xml version="1.0" standalone="no"?>
<!DOCTYPE svg PUBLIC "-//W3C//DTD SVG 1.1//EN" "http://www.w3.org/Graphics/SVG/1.1/DTD/svg11.dtd">
<svg xmlns="http://www.w3.org/2000/svg" version="1.1" width="100%" height="100%">
<style type="text/css"><![CDATA[
  .stroke { fill:none; stroke:black; stroke-width:2 }
]]></style>
<path class="stroke" d="M 10.961809821428572 14.059406 C 13.879066071428571 16.138615 16.796323214285717 19.108912 19.183169642857145 22.673267" />
<path class="stroke" d="M 9.105374107142858 38.118813 C 11.757426785714285 39.90099 14.939887500000001 42.574257 17.06152857142857 46.138615" />
<path class="stroke" d="M 8.840169642857143 85.64356 C 9.434829464285714 87.422676 11.091678571428572 89.896904 13.024666964285714 89.896904 C 14.957658035714285 89.896904 17.5919375 76.73267 19.448374107142858 69.60396" />
<path class="stroke" d="M 48.067825 6.46687 C 45.859674999999996 22.45 40.102525 38.1177 30.0867475 48.1072" />
<path class="stroke" d="M 45.938424999999995 22.5552 L 92.547325 22.8706 L 92.3107 58.2019 C 91.837525 74.1851 86.86914999999999 92.6919 78.351775 92.9022 L 74.80285 92.9022" />
<path class="stroke" d="M 51.320618815 39.9708025 L 51.320618815 76.75912" />
<path class="stroke" d="M 51.320618815 39.9708025 L 74.29580125 39.9708025 L 74.29580125 76.75912" />
<path class="stroke" d="M 51.4541964625 57.362821499999995 L 74.16222497500002 57.362821499999995" />
<path class="stroke" d="M 51.320618815 75.15328199999999 L 74.29580125 75.15328199999999" />
</svg>
