<?xml version="1.0" standalone="no"?>
<!DOCTYPE svg PUBLIC "-//W3C//DTD SVG 1.1//EN" "http://www.w3.org/Graphics/SVG/1.1/DTD/svg11.dtd">
<svg xmlns="http://www.w3.org/2000/svg" version="1.1" width="100%" height="100%">
<style type="text/css"><![CDATA[
  .stroke { fill:none; stroke:black; stroke-width:2 }
]]></style>
<path class="stroke" d="M 11.400282214285715 14.059406 C 14.434228714285714 16.138615 17.468176142857143 19.108912 19.95049642857143 22.673267" />
<path class="stroke" d="M 9.469589071428572 38.118813 C 12.227723857142857 39.90099 15.537483 42.574257 17.743989714285714 46.138615" />
<path class="stroke" d="M 9.193776428571429 85.64356 C 9.812222642857144 87.422676 11.535345714285715 89.896904 13.545653642857143 89.896904 C 15.555964357142857 89.896904 18.295615 76.73267 20.22630907142857 69.60396" />
<path class="stroke" d="M 39.2 31.58416 C 37.84554396 40.49505 35.58811824 47.326733 31.976238000000002 51.782177" />
<path class="stroke" d="M 46.198019200000005 9.90099 L 46.198019200000005 54.752472 C 46.198019200000005 73.46535 42.58613744 79.10891 36.491089439999996 85.9406" />
<path class="stroke" d="M 53.64752628 31.881187 C 57.710892879999996 35.445545 60.194060640000004 40.19802 62.0 47.623764" />
<path class="stroke" d="M 68.99802224 9.90099 L 68.99802224 79.40594" />
<path class="stroke" d="M 75.7702956 31.881187 C 79.60792319999999 35.742573 82.542572 41.38614 84.5742572 47.92079" />
<path class="stroke" d="M 91.009428 10.198019 L 91.009428 90.09901" />
</svg>
