<?xml version="1.0" standalone="no"?>
<!DOCTYPE svg PUBLIC "-//W3C//DTD SVG 1.1//EN" "http://www.w3.org/Graphics/SVG/1.1/DTD/svg11.dtd">
<svg xmlns="http://www.w3.org/2000/svg" version="1.1" width="100%" height="100%">
<style type="text/css"><![CDATA[
  .stroke { fill:none; stroke:black; stroke-width:2 }
]]></style>
<path class="stroke" d="M 10.961809821428572 14.059406 C 13.879066071428571 16.138615 16.796323214285717 19.108912 19.183169642857145 22.673267" />
<path class="stroke" d="M 9.105374107142858 38.118813 C 11.757426785714285 39.90099 14.939887500000001 42.574257 17.06152857142857 46.138615" />
<path class="stroke" d="M 8.840169642857143 85.64356 C 9.434829464285714 87.422676 11.091678571428572 89.896904 13.024666964285714 89.896904 C 14.957658035714285 89.896904 17.5919375 76.73267 19.448374107142858 69.60396" />
<path class="stroke" d="M 24.5220832 15.6151 L 58.354903 15.6151" />
<path class="stroke" d="M 29.4432202 31.072584 L 29.4432202 56.940086" />
<path class="stroke" d="M 29.4432202 31.072584 L 53.8028542 31.072584 L 53.8028542 56.940086" />
<path class="stroke" d="M 29.4432202 56.940086 L 53.8028542 56.940086" />
<path class="stroke" d="M 41.746050999999994 5.5205 L 41.746050999999994 93.8486" />
<path class="stroke" d="M 41.746050999999994 56.9401 C 38.629327 73.8696 32.436907 88.591 24.6451087 91.6404" />
<path class="stroke" d="M 41.746050999999994 56.9401 C 45.108826 73.5542 49.947946 88.2755 58.477909000000004 91.6404" />
<path class="stroke" d="M 70.660611688 11.605839 C 69.9500722792 22.116787 68.0552989 32.627735 65.6868317704 39.927006" />
<path class="stroke" d="M 68.8842629632 26.204376 L 92.68735648 26.204376 C 92.4505087936 34.37956 91.26627604000001 39.927006 89.01623032 45.47445" />
<path class="stroke" d="M 79.8976341424 30.875912 C 79.8976341424 62.408752 72.55483264 79.653 63.4367876728 90.14598" />
<path class="stroke" d="M 79.779209488 48.394157 C 82.5029485528 63.868607 86.529340564 80.21897 96.12163252 90.14598" />
</svg>
