<?xml version="1.0" standalone="no"?>
<!DOCTYPE svg PUBLIC "-//W3C//DTD SVG 1.1//EN" "http://www.w3.org/Graphics/SVG/1.1/DTD/svg11.dtd">
<svg xmlns="http://www.w3.org/2000/svg" version="1.1" width="100%" height="100%">
<style type="text/css"><![CDATA[
  .stroke { fill:none; stroke:black; stroke-width:2 }
]]></style>
<path class="stroke" d="M 10.961809821428572 14.059406 C 13.879066071428571 16.138615 16.796323214285717 19.108912 19.183169642857145 22.673267" />
<path class="stroke" d="M 9.105374107142858 38.118813 C 11.757426785714285 39.90099 14.939887500000001 42.574257 17.06152857142857 46.138615" />
<path class="stroke" d="M 8.840169642857143 85.64356 C 9.434829464285714 87.422676 11.091678571428572 89.896904 13.024666964285714 89.896904 C 14.957658035714285 89.896904 17.5919375 76.73267 19.448374107142858 69.60396" />
<path class="stroke" d="M 39.04306282 6.99489015 L 39.04306282 38.6328432" />
<path class="stroke" d="M 39.04306282 6.99489015 L 79.72043500000001 6.99489015 L 79.72043500000001 38.6328432" />
<path class="stroke" d="M 39.279560950000004 21.952026489999998 L 79.4839393 21.952026489999998" />
<path class="stroke" d="M 39.04306282 37.25182252 L 79.72043500000001 37.25182252" />
<path class="stroke" d="M 59.6182438 42.11970688 L 59.6182438 63.0481728" />
<path class="stroke" d="M 36.44160445 46.23065664 C 40.4620435 49.03357568 42.82700698 51.64963392 44.4824785 55.947443840000005" />
<path class="stroke" d="M 80.4299221 46.60437888 C 79.24743955 50.71532736 76.6459828 53.33138688 72.86204026000001 55.760583679999996" />
<path class="stroke" d="M 32.65766353 62.952704 L 86.3423308 62.952704" />
<path class="stroke" d="M 52.05036277 66.41167744 C 49.685400099999995 78.37080320000001 41.4080263 88.6481728 32.1846697 92.0116736" />
<path class="stroke" d="M 63.165689830000005 66.5985376 L 63.165689830000005 89.2087552 C 63.165689830000005 92.0116736 65.29415842 93.31970559999999 68.60510875 93.31970559999999 L 88.7072959 93.31970559999999 C 90.3627739 93.31970559999999 91.7817481 92.1985344 91.7817481 91.0773696 L 91.7817481 88.8350336" />
</svg>
