<?xml version="1.0" standalone="no"?>
<!DOCTYPE svg PUBLIC "-//W3C//DTD SVG 1.1//EN" "http://www.w3.org/Graphics/SVG/1.1/DTD/svg11.dtd">
<svg xmlns="http://www.w3.org/2000/svg" version="1.1" width="100%" height="100%">
<style type="text/css"><![CDATA[
  .stroke { fill:none; stroke:black; stroke-width:2 }
]]></style>
<path class="stroke" d="M 10.961809821428572 14.059406 C 13.879066071428571 16.138615 16.796323214285717 19.108912 19.183169642857145 22.673267" />
<path class="stroke" d="M 9.105374107142858 38.118813 C 11.757426785714285 39.90099 14.939887500000001 42.574257 17.06152857142857 46.138615" />
<path class="stroke" d="M 8.840169642857143 85.64356 C 9.434829464285714 87.422676 11.091678571428572 89.896904 13.024666964285714 89.896904 C 14.957658035714285 89.896904 17.5919375 76.73267 19.448374107142858 69.60396" />
<path class="stroke" d="M 58.6211634 9.562042 L 58.6211634 42.26277" />
<path class="stroke" d="M 34.87226135 15.985401 C 38.991970499999994 20.364962 41.41532814 24.452553 43.1116755 31.167881" />
<path class="stroke" d="M 79.9467103 16.569342 C 78.73503065 22.992699 76.06934039999999 27.080292 72.19196718 30.875912" />
<path class="stroke" d="M 30.99488979 42.1136 L 86.0051044 42.1136" />
<path class="stroke" d="M 50.86642111 47.518246 C 48.443064299999996 66.20438 39.9613109 82.26277 30.5102171 87.51824" />
<path class="stroke" d="M 62.25620069 47.810215 L 62.25620069 83.13868 C 62.25620069 87.51824 64.43722406 89.56204 67.82992625 89.56204 L 88.4284637 89.56204 C 90.1248177 89.56204 91.5788283 87.81021 91.5788283 86.05839 L 91.5788283 82.55474" />
</svg>
