<?xml version="1.0" standalone="no"?>
<!DOCTYPE svg PUBLIC "-//W3C//DTD SVG 1.1//EN" "http://www.w3.org/Graphics/SVG/1.1/DTD/svg11.dtd">
<svg xmlns="http://www.w3.org/2000/svg" version="1.1" width="100%" height="100%">
<style type="text/css"><![CDATA[
  .stroke { fill:none; stroke:black; stroke-width:2 }
]]></style>
<path class="stroke" d="M 10.961809821428572 14.059406 C 13.879066071428571 16.138615 16.796323214285717 19.108912 19.183169642857145 22.673267" />
<path class="stroke" d="M 9.105374107142858 38.118813 C 11.757426785714285 39.90099 14.939887500000001 42.574257 17.06152857142857 46.138615" />
<path class="stroke" d="M 8.840169642857143 85.64356 C 9.434829464285714 87.422676 11.091678571428572 89.896904 13.024666964285714 89.896904 C 14.957658035714285 89.896904 17.5919375 76.73267 19.448374107142858 69.60396" />
<path class="stroke" d="M 43.80583834 9.75136703125 L 78.64962940000001 9.75136703125" />
<path class="stroke" d="M 32.19124054 20.15282697916667 C 32.19124054 25.64248609375 31.963503160000002 29.398568385416667 30.82481704 33.443582291666665" />
<path class="stroke" d="M 32.41897636 20.15282697916667 L 90.26422720000001 20.15282697916667 C 90.03649060000001 25.93141375 89.3532808 28.820708125 88.44233440000001 31.710003489583332" />
<path class="stroke" d="M 61.12919764 9.75136703125 L 61.12919764 45.86754375" />
<path class="stroke" d="M 43.12262776 27.08713328125 C 46.538683 27.95392119791667 48.8160568 29.398568385416667 51.093428259999996 32.576790416666675" />
<path class="stroke" d="M 43.35036358000001 37.19966458333333 C 46.08321136 37.777521875 48.3605836 39.5110996875 50.865692440000004 43.55610963541667" />
<path class="stroke" d="M 69.540142 27.08713328125 C 72.5007256 27.66499255208333 75.00583599999999 29.109640729166667 78.19415620000001 32.28786276041667" />
<path class="stroke" d="M 69.540142 37.48859322916667 C 72.7284622 38.06645052083333 75.46131388 40.66681526041667 77.73868300000001 43.55610963541667" />
<path class="stroke" d="M 61.113864400000004 52.49616694499999 C 52.232113600000005 60.2764589425 42.211677460000004 66.378649185 29.68613014 70.0399618675" />
<path class="stroke" d="M 61.113864400000004 52.49616694499999 C 70.22335492 59.971348725 79.56058048 66.378649185 92.541601 69.887408065" />
<path class="stroke" d="M 45.8600285248 67.09375 L 76.13996848 67.09375" />
<path class="stroke" d="M 38.1166564 73.42572952 L 84.62142639999999 73.42572952 L 84.62142639999999 86.108340898 C 84.5393704 87.85450811999999 82.7349964 88.91139262000002 79.9463404 88.86546392 L 74.2870504 88.86546392" />
<path class="stroke" d="M 59.7697372 73.56357679999999 L 59.7697372 92.3118382" />
</svg>
