<?xml version="1.0" standalone="no"?>
<!DOCTYPE svg PUBLIC "-//W3C//DTD SVG 1.1//EN" "http://www.w3.org/Graphics/SVG/1.1/DTD/svg11.dtd">
<svg xmlns="http://www.w3.org/2000/svg" version="1.1" width="100%" height="100%">
<style type="text/css"><![CDATA[
  .stroke { fill:none; stroke:black; stroke-width:2 }
]]></style>
<path class="stroke" d="M 10.961809821428572 14.059406 C 13.879066071428571 16.138615 16.796323214285717 19.108912 19.183169642857145 22.673267" />
<path class="stroke" d="M 9.105374107142858 38.118813 C 11.757426785714285 39.90099 14.939887500000001 42.574257 17.06152857142857 46.138615" />
<path class="stroke" d="M 8.840169642857143 85.64356 C 9.434829464285714 87.422676 11.091678571428572 89.896904 13.024666964285714 89.896904 C 14.957658035714285 89.896904 17.5919375 76.73267 19.448374107142858 69.60396" />
<path class="stroke" d="M 37.791237800000005 9.270073 L 77.46422976 9.270073 C 70.6846726 17.153284 65.91386560000001 19.197079 57.62773378 21.824816" />
<path class="stroke" d="M 53.6102154 18.029196 C 56.62335612 20.948904 58.632114879999996 23.576641 59.88758932 27.372261" />
<path class="stroke" d="M 34.944452212 29.878707320700002 L 34.944452212 55.476019332999996" />
<path class="stroke" d="M 34.944452212 29.7771306098 L 78.35875566399999 29.7771306098 L 78.35875566399999 55.476019332999996" />
<path class="stroke" d="M 56.65160282 29.878707320700002 L 56.65160282 53.64764132" />
<path class="stroke" d="M 34.944452212 41.705541728200004 L 78.03233544 41.705541728200004" />
<path class="stroke" d="M 34.944452212 53.64764132 L 78.35875566399999 53.64764132" />
<path class="stroke" d="M 33.799457138799994 65.3175544314 L 78.71781951000001 64.4386056856 C 77.60045032 76.96362625399999 74.248335096 83.66561204 73.1309628444 85.09390384599999 C 71.790111397 86.30245752479999 69.10842151400001 86.63206396300001 66.87367548 86.74193227399999 L 64.63892944599999 86.63206396300001" />
<path class="stroke" d="M 55.923426802 56.7478028428 C 53.241733092000004 69.0530864129 44.526230448 81.5781084865 30.4473419148 85.09390384599999" />
</svg>
