<?xml version="1.0" standalone="no"?>
<!DOCTYPE svg PUBLIC "-//W3C//DTD SVG 1.1//EN" "http://www.w3.org/Graphics/SVG/1.1/DTD/svg11.dtd">
<svg xmlns="http://www.w3.org/2000/svg" version="1.1" width="100%" height="100%">
<style type="text/css"><![CDATA[
  .stroke { fill:none; stroke:black; stroke-width:2 }
]]></style>
<path class="stroke" d="M 11.4144135 28.594593 L 8.387386 42.864864" />
<path class="stroke" d="M 26.171168333333334 25.027027 L 28.441438666666667 28.594593" />
<path class="stroke" d="M 18.225223333333336 6.8648643 L 18.225223333333336 92.162155" />
<path class="stroke" d="M 45.429013937499995 10.535421705882353 C 48.4509117175 14.107771235294116 50.8684295275 19.019750117647057 52.681568402500005 23.708458588235292" />
<path class="stroke" d="M 77.461128025 10.535421705882353 C 76.22819772999999 14.956203235294117 73.68375579999999 20.136107529411763 71.11514455 23.931729" />
<path class="stroke" d="M 39.397809249999995 26.594888599999997 L 86.040142 26.594888599999997 L 86.040142 40.989049550000004" />
<path class="stroke" d="M 36.989050750000004 40.989049550000004 L 86.040142 40.989049550000004" />
<path class="stroke" d="M 37.2080275 41.237224049999995 L 34.361312874999996 54.1423346 L 91.07664249999999 54.1423346 C 91.07664249999999 64.0693401 88.66787500000001 69.03284199999999 86.040142 72.2591241 C 84.8839375 73.40568909999999 83.8503625 75.485396 81.4416025 75.7335705 L 78.5948875 75.7335705" />
<path class="stroke" d="M 62.3905075 26.594888599999997 L 62.3905075 91.5851066" />
<path class="stroke" d="M 60.701875 54.6485351 C 55.686085 65.65472015 44.708155000000005 76.15681609999999 32.87851 80.48368074999999" />
</svg>
