<?xml version="1.0" standalone="no"?>
<!DOCTYPE svg PUBLIC "-//W3C//DTD SVG 1.1//EN" "http://www.w3.org/Graphics/SVG/1.1/DTD/svg11.dtd">
<svg xmlns="http://www.w3.org/2000/svg" version="1.1" width="100%" height="100%">
<style type="text/css"><![CDATA[
  .stroke { fill:none; stroke:black; stroke-width:2 }
]]></style>
<path class="stroke" d="M 19.19781002 9.854013 L 19.1724836 55.63759 C 15.95503327 80.20134 15.95503327 79.39597 12.35905998 89.865776" />
<path class="stroke" d="M 19.19781002 9.854013 L 38.4094896 9.854013 L 38.4094896 86.05839 C 38.4094896 88.39416 37.8605813 90.43795 36.488319479999994 90.43795 L 34.9788327 90.43795" />
<path class="stroke" d="M 19.19781002 31.862577 L 38.4094896 31.862577" />
<path class="stroke" d="M 19.19781002 55.110336 L 38.4094896 55.110336" />
<path class="stroke" d="M 59.485796 8.99053 L 59.485796 59.7792 C 59.668786 78.9169 52.533103999999994 93.3228 44.1167182 93.5331" />
<path class="stroke" d="M 59.485796 8.67508 L 78.514204 8.67508 L 78.514204 83.4385 C 78.27025599999999 89.8527 80.03890799999999 94.0589 82.72239400000001 93.8485 L 90.04095 93.8485 C 93.395322 93.8485 94.371172 88.8013 94.249198 83.4385 L 94.249198 78.7066" />
</svg>
