<?xml version="1.0" standalone="no"?>
<!DOCTYPE svg PUBLIC "-//W3C//DTD SVG 1.1//EN" "http://www.w3.org/Graphics/SVG/1.1/DTD/svg11.dtd">
<svg xmlns="http://www.w3.org/2000/svg" version="1.1" width="100%" height="100%">
<style type="text/css"><![CDATA[
  .stroke { fill:none; stroke:black; stroke-width:2 }
]]></style>
<path class="stroke" d="M 11.4144135 28.594593 L 8.387386 42.864864" />
<path class="stroke" d="M 26.171168333333334 25.027027 L 28.441438666666667 28.594593" />
<path class="stroke" d="M 18.225223333333336 6.8648643 L 18.225223333333336 92.162155" />
<path class="stroke" d="M 64.5 6.24963492 L 64.5 10.58248176" />
<path class="stroke" d="M 44.70291877 10.82773684 L 84.71167650000001 10.82773684" />
<path class="stroke" d="M 48.019706490000004 14.343066000000002 C 52.16569185 17.28613088 55.275181579999995 21.1284656 56.933574730000004 24.889050400000002" />
<path class="stroke" d="M 81.60218535 13.689050400000001 C 76.6270059 16.713868 72.48102125 21.3737232 71.44452419999999 26.197078800000003" />
<path class="stroke" d="M 37.03284628 27.014597600000002 L 91.55255489999999 27.014597600000002" />
<path class="stroke" d="M 45.532117119999995 38.178217599999996 L 45.532117119999995 68.9853996" />
<path class="stroke" d="M 45.739415109999996 38.280789999999996 L 83.46788004 38.280789999999996 L 83.46788004 68.78102200000001" />
<path class="stroke" d="M 45.532117119999995 54.1797899 L 83.05328406000001 54.1797899" />
<path class="stroke" d="M 45.532117119999995 68.97474 L 83.46788004 68.97474" />
<path class="stroke" d="M 64.275995 38.178217599999996 L 64.275995 93.306565" />
<path class="stroke" d="M 44.08102125 80.839411 L 84.91897519999999 80.839411" />
<path class="stroke" d="M 35.99634923 93.306565 L 93.4182432 93.306565" />
</svg>
