<?xml version="1.0" standalone="no"?>
<!DOCTYPE svg PUBLIC "-//W3C//DTD SVG 1.1//EN" "http://www.w3.org/Graphics/SVG/1.1/DTD/svg11.dtd">
<svg xmlns="http://www.w3.org/2000/svg" version="1.1" width="100%" height="100%">
<style type="text/css"><![CDATA[
  .stroke { fill:none; stroke:black; stroke-width:2 }
]]></style>
<path class="stroke" d="M 11.4144135 28.594593 L 8.387386 42.864864" />
<path class="stroke" d="M 26.171168333333334 25.027027 L 28.441438666666667 28.594593" />
<path class="stroke" d="M 18.225223333333336 6.8648643 L 18.225223333333336 92.162155" />
<path class="stroke" d="M 63.5 7.425568904 L 63.5 16.7" />
<path class="stroke" d="M 35.025 16.7 L 91.975 16.7" />
<path class="stroke" d="M 46.520145512 26.925620125 L 46.520145512 41.80445175" />
<path class="stroke" d="M 46.520145512 26.925620125 L 80.63634880000001 26.925620125 L 80.63634880000001 41.66138645" />
<path class="stroke" d="M 46.520145512 40.65992592 L 80.63634880000001 40.65992592" />
<path class="stroke" d="M 48.33941487 53.7718970426 L 81.20364785000001 53.7718970426 C 77.4868597 58.8192547524 72.58636111 62.55004284 63.28535478 64.41547578000001" />
<path class="stroke" d="M 63.074657200000004 64.41547578000001 C 66.65641020000001 70.58484528 66.14087535 87.98176617800002 63.4021867 90.78585085999998 C 62.228467300000005 91.907485213 61.0547412 92.187895602 59.09853751 92.328099596" />
<path class="stroke" d="M 36.60218871 68.515068032 L 90.78904640000002 68.515068032" />
</svg>
