<?xml version="1.0" standalone="no"?>
<!DOCTYPE svg PUBLIC "-//W3C//DTD SVG 1.1//EN" "http://www.w3.org/Graphics/SVG/1.1/DTD/svg11.dtd">
<svg xmlns="http://www.w3.org/2000/svg" version="1.1" width="100%" height="100%">
<style type="text/css"><![CDATA[
  .stroke { fill:none; stroke:black; stroke-width:2 }
]]></style>
<path class="stroke" d="M 8.003300000000001 33.069305 L 25.825083333333335 30.9901" />
<path class="stroke" d="M 19.389438333333334 9.60396 L 19.389438333333334 84.15842 C 19.389438333333334 87.42574 17.161715833333336 90.09901 14.191419166666668 90.09901" />
<path class="stroke" d="M 8.498349166666667 63.36634 L 24.09241 46.435642" />
<path class="stroke" d="M 36.66053992 20.16216 L 81.3394568 20.16216" />
<path class="stroke" d="M 40.117837859999995 32.81081 L 77.88215639999999 32.81081 L 77.88215639999999 54.540535" />
<path class="stroke" d="M 31.3474434 44.056984 L 87.3707946 44.056984" />
<path class="stroke" d="M 41.18161894 54.540535 L 77.61621399999999 54.540535" />
<path class="stroke" d="M 59.272863199999996 9.562042 L 59.2659424 83.08108" />
<path class="stroke" d="M 59.7978354 67.83784 L 71.49945679999999 67.83784" />
<path class="stroke" d="M 40.117837859999995 64.59459 C 38.92075758 74.81357 34.26702634 80.81081 28.15026996 89.24324" />
<path class="stroke" d="M 39.32 70.43243 C 54.4789177 82.1081 66.18053663999999 90.21621 92.3985344 90.43795" />
</svg>
