<?xml version="1.0" standalone="no"?>
<!DOCTYPE svg PUBLIC "-//W3C//DTD SVG 1.1//EN" "http://www.w3.org/Graphics/SVG/1.1/DTD/svg11.dtd">
<svg xmlns="http://www.w3.org/2000/svg" version="1.1" width="100%" height="100%">
<style type="text/css"><![CDATA[
  .stroke { fill:none; stroke:black; stroke-width:2 }
]]></style>
<path class="stroke" d="M 8.003300000000001 33.069305 L 25.825083333333335 30.9901" />
<path class="stroke" d="M 19.389438333333334 9.60396 L 19.389438333333334 84.15842 C 19.389438333333334 87.42574 17.161715833333336 90.09901 14.191419166666668 90.09901" />
<path class="stroke" d="M 8.498349166666667 63.36634 L 24.09241 46.435642" />
<path class="stroke" d="M 32.8165145416 9.58613786 L 53.0264153296 9.58613786 L 53.0264153296 42.253467179999994" />
<path class="stroke" d="M 36.25219774360001 24.38415836 L 49.590732808 24.38415836" />
<path class="stroke" d="M 33.220713646 41.974257099999996 L 49.590732808 36.1108896" />
<path class="stroke" d="M 62.5250714896 9.3069306 L 82.93707148960002 9.3069306 L 82.93707148960002 42.532672559999995" />
<path class="stroke" d="M 66.971251432 24.38415836 L 79.501388968 24.38415836" />
<path class="stroke" d="M 63.535564828000005 41.974257099999996 L 79.905580588 36.1108896" />
<path class="stroke" d="M 45.3900351997 47.22262689 C 44.313976816300006 52.48394113 37.4272036048 58.0547441 33.3381811582 59.29269955" />
<path class="stroke" d="M 42.1618600495 55.26934235 L 42.1618600495 89.9321135" />
<path class="stroke" d="M 67.7720472157 47.37737205 C 66.4807777453 50.78175126 64.1134506286 53.72189711 60.6700643914 55.424086450000004" />
<path class="stroke" d="M 42.1618600495 55.1246232 L 81.976018024 55.1246232" />
<path class="stroke" d="M 61.746124249000005 55.424086450000004 L 61.746124249000005 89.9321135" />
<path class="stroke" d="M 42.1618600495 67.3296805 L 79.178266522 67.3296805" />
<path class="stroke" d="M 42.1618600495 78.63576452000001 L 79.393477609 78.63576452000001" />
<path class="stroke" d="M 42.1618600495 89.9321135 L 86.2802515576 89.9321135" />
</svg>
