<?xml version="1.0" standalone="no"?>
<!DOCTYPE svg PUBLIC "-//W3C//DTD SVG 1.1//EN" "http://www.w3.org/Graphics/SVG/1.1/DTD/svg11.dtd">
<svg xmlns="http://www.w3.org/2000/svg" version="1.1" width="100%" height="100%">
<style type="text/css"><![CDATA[
  .stroke { fill:none; stroke:black; stroke-width:2 }
]]></style>
<path class="stroke" d="M 8.003300000000001 33.069305 L 25.825083333333335 30.9901" />
<path class="stroke" d="M 19.389438333333334 9.60396 L 19.389438333333334 84.15842 C 19.389438333333334 87.42574 17.161715833333336 90.09901 14.191419166666668 90.09901" />
<path class="stroke" d="M 8.498349166666667 63.36634 L 24.09241 46.435642" />
<path class="stroke" d="M 35.991480490027996 18.5292053 L 59.135925865039994 18.5292053" />
<path class="stroke" d="M 42.32246267852 8.46197785 L 42.32246267852 32.23769926" />
<path class="stroke" d="M 52.70113732148 8.247787299999999 L 52.70113732148 32.2376721" />
<path class="stroke" d="M 33.189228400508 32.4518966 L 62.04195075122 32.4518966" />
<path class="stroke" d="M 39.639226098799995 44.625035565999994 L 39.639226098799995 74.36225979999999 C 39.639226098799995 80.95534786 39.639226098799995 83.7212854 39.639226098799995 90.117527092" />
<path class="stroke" d="M 39.639226098799995 44.625035565999994 L 56.88068662399999 44.625035565999994 L 56.88068662399999 88.97598297999998 C 56.88068662399999 90.33540112 56.388070622 91.52488689999998 55.15653863119999 91.52488689999998 L 53.801854538 91.52488689999998" />
<path class="stroke" d="M 39.639226098799995 57.434019813999996 L 56.88068662399999 57.434019813999996" />
<path class="stroke" d="M 39.639226098799995 70.964215552 L 56.88068662399999 70.964215552" />
<path class="stroke" d="M 73.1467930648 12.6039603 C 71.89392094659999 24.993068989999998 68.887030225 39.6871266 64.2514056232 48.04257274" />
<path class="stroke" d="M 68.7617425492 37.67029581 L 89.935265698 37.67029581" />
<path class="stroke" d="M 80.16287254 37.95841588 C 78.659425492 62.448518039999996 72.26978270859999 82.90494892000001 62.24681209 90.1079206" />
<path class="stroke" d="M 68.7617425492 45.16138659 C 71.5180587628 62.736635199999995 84.92377975599999 90.3960397 92.31572352399999 90.3960397" />
</svg>
