<?xml version="1.0" standalone="no"?>
<!DOCTYPE svg PUBLIC "-//W3C//DTD SVG 1.1//EN" "http://www.w3.org/Graphics/SVG/1.1/DTD/svg11.dtd">
<svg xmlns="http://www.w3.org/2000/svg" version="1.1" width="100%" height="100%">
<style type="text/css"><![CDATA[
  .stroke { fill:none; stroke:black; stroke-width:2 }
]]></style>
<path class="stroke" d="M 8.003300000000001 33.069305 L 25.825083333333335 30.9901" />
<path class="stroke" d="M 19.389438333333334 9.60396 L 19.389438333333334 84.15842 C 19.389438333333334 87.42574 17.161715833333336 90.09901 14.191419166666668 90.09901" />
<path class="stroke" d="M 8.498349166666667 63.36634 L 24.09241 46.435642" />
<path class="stroke" d="M 46.17506229999999 7.097788 C 44.0709763 15.404868 40.6608583 22.765469 35.944791099999996 28.233467" />
<path class="stroke" d="M 42.474751 19.08514 L 91.231876 19.08514" />
<path class="stroke" d="M 33.11513698 43.69081 L 92.97318759999999 43.69081" />
<path class="stroke" d="M 47.0457043 19.40064 L 47.0457043 67.98104" />
<path class="stroke" d="M 58.58201439999999 19.7161 L 58.58201439999999 67.9811" />
<path class="stroke" d="M 70.11830863 19.40064 L 70.11830863 67.98104" />
<path class="stroke" d="M 81.2192446 19.40064 L 81.2192446 67.66564" />
<path class="stroke" d="M 35.2917958 68.29654 L 91.66721770000001 68.29654" />
<path class="stroke" d="M 40.84306522 80.45619649999999 C 40.44014524 85.17152899999999 38.8284667 89.1423295 36.2094889 91.3759085" />
<path class="stroke" d="M 52.326277059999995 81.2007285 C 54.5423335 84.42700125 55.75109275 87.405108 56.758392699999995 91.624083" />
<path class="stroke" d="M 68.84598174999999 81.448903 C 71.06203887999999 84.42700125 72.06933882999999 87.6532825 73.07663740000001 91.8722575" />
<path class="stroke" d="M 84.15693063999998 81.448903 C 86.574445 84.42700125 87.98466699999999 87.156925 89.1934297 91.8722575" />
</svg>
