<?xml version="1.0" standalone="no"?>
<!DOCTYPE svg PUBLIC "-//W3C//DTD SVG 1.1//EN" "http://www.w3.org/Graphics/SVG/1.1/DTD/svg11.dtd">
<svg xmlns="http://www.w3.org/2000/svg" version="1.1" width="100%" height="100%">
<style type="text/css"><![CDATA[
  .stroke { fill:none; stroke:black; stroke-width:2 }
]]></style>
<path class="stroke" d="M 8.003300000000001 33.069305 L 25.825083333333335 30.9901" />
<path class="stroke" d="M 19.389438333333334 9.60396 L 19.389438333333334 84.15842 C 19.389438333333334 87.42574 17.161715833333336 90.09901 14.191419166666668 90.09901" />
<path class="stroke" d="M 8.498349166666667 63.36634 L 24.09241 46.435642" />
<path class="stroke" d="M 64.836495 10.7080292 L 64.836495 42.708026000000004" />
<path class="stroke" d="M 64.836495 21.6861296 L 82.9853946 21.6861296" />
<path class="stroke" d="M 48.63211486 22.38686 L 48.63211486 42.708026000000004" />
<path class="stroke" d="M 33.29196962 42.708026000000004 L 92.924083 42.708026000000004" />
<path class="stroke" d="M 64.905365743132 46.941773551699995 L 64.905365743132 73.422004559 C 64.905365743132 74.1816831605 63.818761670452005 74.615786015 63.031100680336 74.615786015 L 61.65269108128 74.615786015" />
<path class="stroke" d="M 49.247006713084 56.817596858 C 48.26242862074 60.615991724 45.308695018144 63.8717584865 41.173466220975996 66.4763722682" />
<path class="stroke" d="M 78.78435015784001 56.817596858 C 82.72266185278 59.096634521 86.070225613216 62.1353500421 88.03938179790401 66.6934220228" />
<path class="stroke" d="M 79.84244995000002 68.14747648 C 74.1660469684 78.55031872 61.742250401199996 88.47670528 48.3545622904 92.56637760000001" />
</svg>
