<?xml version="1.0" standalone="no"?>
<!DOCTYPE svg PUBLIC "-//W3C//DTD SVG 1.1//EN" "http://www.w3.org/Graphics/SVG/1.1/DTD/svg11.dtd">
<svg xmlns="http://www.w3.org/2000/svg" version="1.1" width="100%" height="100%">
<style type="text/css"><![CDATA[
  .stroke { fill:none; stroke:black; stroke-width:2 }
]]></style>
<path class="stroke" d="M 8.003300000000001 33.069305 L 25.825083333333335 30.9901" />
<path class="stroke" d="M 19.389438333333334 9.60396 L 19.389438333333334 84.15842 C 19.389438333333334 87.42574 17.161715833333336 90.09901 14.191419166666668 90.09901" />
<path class="stroke" d="M 8.498349166666667 63.36634 L 24.09241 46.435642" />
<path class="stroke" d="M 39.462117 8.544162 L 84.69241000000001 8.544162" />
<path class="stroke" d="M 63.768109 8.843848999999999 C 62.781802 12.939565 59.259209999999996 15.836495 55.736618 16.635635" />
<path class="stroke" d="M 44.53471648 16.93536 L 44.53471648 40.910129999999995" />
<path class="stroke" d="M 44.53471648 16.93536 L 79.61986680000001 16.93536 L 79.61986680000001 40.910129999999995" />
<path class="stroke" d="M 44.746072 25.026833 L 79.619907 25.026833" />
<path class="stroke" d="M 44.746072 33.118286999999995 L 79.619907 33.118286999999995" />
<path class="stroke" d="M 33.54416445 41.2098132 L 33.54416445 51.99839225" />
<path class="stroke" d="M 33.54416445 41.2098132 L 91.8785754 41.2098132 L 91.8785754 52.59774915" />
<path class="stroke" d="M 40.688351 52.019391999999996 C 40.124814 56.75438199999999 38.715804 59.87114199999999 36.249869000000004 63.347457999999996" />
<path class="stroke" d="M 51.2561538 49.142430999999995 L 51.2561538 64.42635399999999 C 51.2561538 66.04464099999998 52.524329800000004 67.12348 54.426526800000005 67.12348 L 77.2530248 67.12348 C 79.01432080000001 67.12348 80.5642988 65.86480599999999 80.63471580000001 63.88690599999999 L 80.63471580000001 60.83011" />
<path class="stroke" d="M 59.287752 49.14244239999999 C 62.951245 51.8995324 65.34662900000001 54.8364574 67.53062800000001 58.67238639999999" />
<path class="stroke" d="M 80.63468900000001 49.32226599999999 C 85.073171 52.678653999999995 87.820841 56.03527 90.568444 60.65033199999999" />
<path class="stroke" d="M 57.90291761 75.395546936 C 53.40364785 78.39116779999999 45.77445165 81.5199263 37.94963354 83.5170068" />
<path class="stroke" d="M 55.55547211 77.126350112 L 72.9656948 77.126350112 C 65.9233583 82.585035596 50.86058245 88.90912244 35.79780995 92.37072788" />
<path class="stroke" d="M 48.12189782 80.388248072 C 55.8 85.22096799199998 71.59634679 89.77452494 88.2240872 92.37072788" />
</svg>
