<?xml version="1.0" standalone="no"?>
<!DOCTYPE svg PUBLIC "-//W3C//DTD SVG 1.1//EN" "http://www.w3.org/Graphics/SVG/1.1/DTD/svg11.dtd">
<svg xmlns="http://www.w3.org/2000/svg" version="1.1" width="100%" height="100%">
<style type="text/css"><![CDATA[
  .stroke { fill:none; stroke:black; stroke-width:2 }
]]></style>
<path class="stroke" d="M 8.003300000000001 33.069305 L 25.825083333333335 30.9901" />
<path class="stroke" d="M 19.389438333333334 9.60396 L 19.389438333333334 84.15842 C 19.389438333333334 87.42574 17.161715833333336 90.09901 14.191419166666668 90.09901" />
<path class="stroke" d="M 8.498349166666667 63.36634 L 24.09241 46.435642" />
<path class="stroke" d="M 34.44455387 14.059406 L 45.71980318 14.059406 C 44.41881105 28.316833 41.16633693 36.930695 36.17920761 46.138615" />
<path class="stroke" d="M 36.17920761 46.138615 L 45.71980318 46.138615 C 43.84913 64.1955 40.778677 77.4448 34.0108908 90.09901" />
<path class="stroke" d="M 34.44455387 64.55446 C 41.3831681 66.33663 51.791089080000006 84.15842 65.668319 86.237625 C 75.4257399 88.019806 79.97920979999999 89.50495 92.5554454 89.50495" />
<path class="stroke" d="M 84.46256181300001 11.528712919999998 C 76.98186982589999 14.20792106 66.80812866299999 16.1564354 59.1778221612 17.13069216" />
<path class="stroke" d="M 53.642109294899996 41.0 L 89.69904967949999 41.0" />
<path class="stroke" d="M 71.895 15.42574324 L 71.895 71.44554712" />
<path class="stroke" d="M 59.3274346611 71.44554712 L 84.91140384599998 71.44554712" />
</svg>
