<?xml version="1.0" standalone="no"?>
<!DOCTYPE svg PUBLIC "-//W3C//DTD SVG 1.1//EN" "http://www.w3.org/Graphics/SVG/1.1/DTD/svg11.dtd">
<svg xmlns="http://www.w3.org/2000/svg" version="1.1" width="100%" height="100%">
<style type="text/css"><![CDATA[
  .stroke { fill:none; stroke:black; stroke-width:2 }
]]></style>
<path class="stroke" d="M 8.003300000000001 33.069305 L 25.825083333333335 30.9901" />
<path class="stroke" d="M 19.389438333333334 9.60396 L 19.389438333333334 84.15842 C 19.389438333333334 87.42574 17.161715833333336 90.09901 14.191419166666668 90.09901" />
<path class="stroke" d="M 8.498349166666667 63.36634 L 24.09241 46.435642" />
<path class="stroke" d="M 43.563088 8.660881199999999 C 42.329644 22.73659 37.395868 33.75239499999999 32.0268124 41.402203" />
<path class="stroke" d="M 42.910072 19.982663 L 58.364346999999995 19.982663 C 54.301213 46.400128 46.973206 60.577745 32.2444798 73.531513" />
<path class="stroke" d="M 43.56305971 31.3044157 L 48.786980709999995 38.6481887" />
<path class="stroke" d="M 38.77440934 42.0141857 L 44.21609503 49.664090699999996" />
<path class="stroke" d="M 60.1057 33.75239499999999 L 93.190855 33.75239499999999" />
<path class="stroke" d="M 72.294895 8.354885 L 72.294895 33.75239499999999 C 72.367483 50.888027 64.16876500000001 69.859481 52.26971499999999 71.38955899999999" />
<path class="stroke" d="M 72.294964 33.75239499999999 C 72.585178 51.296009000000005 80.27598699999999 69.145658 92.755534 71.38955899999999" />
<path class="stroke" d="M 83.1782374 12.02681224 C 85.79023240000001 14.88276384 87.31389039999999 18.35070784 88.4022274 22.43062484" />
<path class="stroke" d="M 40.84306522 77.69707129999999 C 40.44014524 83.0780978 38.8284667 87.60948189999999 36.2094889 90.1583897" />
<path class="stroke" d="M 52.326277059999995 78.5467137 C 54.5423335 82.22846025 55.75109275 85.62700559999999 56.758392699999995 90.44160059999999" />
<path class="stroke" d="M 68.84598174999999 78.8299246 C 71.06203887999999 82.22846025 72.06933882999999 85.9102165 73.07663740000001 90.7248115" />
<path class="stroke" d="M 84.15693063999998 78.8299246 C 86.574445 82.22846025 87.98466699999999 85.343785 89.1934297 90.7248115" />
</svg>
