<?xml version="1.0" standalone="no"?>
<!DOCTYPE svg PUBLIC "-//W3C//DTD SVG 1.1//EN" "http://www.w3.org/Graphics/SVG/1.1/DTD/svg11.dtd">
<svg xmlns="http://www.w3.org/2000/svg" version="1.1" width="100%" height="100%">
<style type="text/css"><![CDATA[
  .stroke { fill:none; stroke:black; stroke-width:2 }
]]></style>
<path class="stroke" d="M 8.003300000000001 33.069305 L 25.825083333333335 30.9901" />
<path class="stroke" d="M 19.389438333333334 9.60396 L 19.389438333333334 84.15842 C 19.389438333333334 87.42574 17.161715833333336 90.09901 14.191419166666668 90.09901" />
<path class="stroke" d="M 8.498349166666667 63.36634 L 24.09241 46.435642" />
<path class="stroke" d="M 38.74851516 15.841015367816093 L 85.2514856 15.841015367816093" />
<path class="stroke" d="M 43.03762228 27.432001156321835 L 80.96237239999999 27.432001156321835" />
<path class="stroke" d="M 34.233663719999996 39.71844840229885 L 89.766334 39.71844840229885" />
<path class="stroke" d="M 61.7742572 7.727324379310344 C 61.680344 34.9196432183908 48.414316 53.71303643678161 31.2990096 63.132241505747125" />
<path class="stroke" d="M 66.0560668 27.284537965517238 C 70.8510588 43.86212785057471 77.583572 52.974409310344825 92.2495048 63.595878314942524" />
<path class="stroke" d="M 42.868133008 61.657715350000004 L 81.29970448 61.657715350000004" />
<path class="stroke" d="M 39.176023216000004 81.2413606 L 85.15964112 81.2413606" />
<path class="stroke" d="M 62.167800248 50.029981 L 62.167800248 91.95115" />
</svg>
