<?xml version="1.0" standalone="no"?>
<!DOCTYPE svg PUBLIC "-//W3C//DTD SVG 1.1//EN" "http://www.w3.org/Graphics/SVG/1.1/DTD/svg11.dtd">
<svg xmlns="http://www.w3.org/2000/svg" version="1.1" width="100%" height="100%">
<style type="text/css"><![CDATA[
  .stroke { fill:none; stroke:black; stroke-width:2 }
]]></style>
<path class="stroke" d="M 26.831684 12.409241333333334 C 30.69307 15.577557333333333 32.475246 18.745874666666666 35.445545 24.686466666666664" />
<path class="stroke" d="M 69.90099 12.409241333333334 C 67.52475 17.953795999999997 65.44554 21.914192 61.881187 24.290428" />
<path class="stroke" d="M 17.920792 29.438944 L 82.376236 29.438944" />
<path class="stroke" d="M 49.369083 29.83498133333333 L 49.369083 63.498352" />
<path class="stroke" d="M 22.079208 46.86468533333333 L 77.32674 46.86468533333333" />
<path class="stroke" d="M 10.198019 63.498352 L 89.207924 63.498352" />
<path class="stroke" d="M 18.613138 77.00729 C 18.029196 82.55474 15.69343 87.22627 11.89781 89.85401" />
<path class="stroke" d="M 35.255474 77.88321 C 38.46715 81.678825 40.218975 85.18248 41.67883 90.14598" />
<path class="stroke" d="M 59.197075 78.17518 C 62.408752 81.678825 63.868607 85.47445 65.32846 90.43795" />
<path class="stroke" d="M 81.386856 78.17518 C 84.8905 81.678825 86.9343 84.8905 88.68613 90.43795" />
</svg>
