<?xml version="1.0" standalone="no"?>
<!DOCTYPE svg PUBLIC "-//W3C//DTD SVG 1.1//EN" "http://www.w3.org/Graphics/SVG/1.1/DTD/svg11.dtd">
<svg xmlns="http://www.w3.org/2000/svg" version="1.1" width="100%" height="100%">
<style type="text/css"><![CDATA[
  .stroke { fill:none; stroke:black; stroke-width:2 }
]]></style>
<path class="stroke" d="M 8.003300000000001 33.069305 L 25.825083333333335 30.9901" />
<path class="stroke" d="M 19.389438333333334 9.60396 L 19.389438333333334 84.15842 C 19.389438333333334 87.42574 17.161715833333336 90.09901 14.191419166666668 90.09901" />
<path class="stroke" d="M 8.498349166666667 63.36634 L 24.09241 46.435642" />
<path class="stroke" d="M 84.92903028 6.73870952 C 70.8 12.05161249 58.491238589999995 12.5729923 39.71612769 13.82257974" />
<path class="stroke" d="M 47.016127690000005 19.33225773 C 48.9 20.40948906 50.17883079 22.72481726 51.49032178 24.251611269999998" />
<path class="stroke" d="M 80.69032177999999 18.545161309999997 C 80.01824289999999 21.656202790000002 79.27741699999999 23.07096725 77.62903028 24.251611269999998" />
<path class="stroke" d="M 36.111677865000004 30.613540999999998 L 91.1014533 30.613540999999998" />
<path class="stroke" d="M 63.5 11.947968 L 63.5 57.276638559999995" />
<path class="stroke" d="M 63.3934273 33.0547427 C 56.668222 43.185641000000004 48.04744395 50.1525486 35.04598408 54.783205" />
<path class="stroke" d="M 63.3934273 33.0547427 C 69.717702 42.993186 80.08049 49.984701 92.5934273 54.42700403999999" />
<path class="stroke" d="M 47.1202917112 58.00583852 L 47.1202917112 90.3795588" />
<path class="stroke" d="M 47.1202917112 57.87737128 L 80.0033258464 57.87737128 L 80.0033258464 90.3795588" />
<path class="stroke" d="M 63.561807932 58.00583852 L 63.561807932 88.067152" />
<path class="stroke" d="M 47.1202917112 72.96360552 L 79.75608734400001 72.96360552" />
<path class="stroke" d="M 47.1202917112 88.067152 L 80.0033258464 88.067152" />
</svg>
