<?xml version="1.0" standalone="no"?>
<!DOCTYPE svg PUBLIC "-//W3C//DTD SVG 1.1//EN" "http://www.w3.org/Graphics/SVG/1.1/DTD/svg11.dtd">
<svg xmlns="http://www.w3.org/2000/svg" version="1.1" width="100%" height="100%">
<style type="text/css"><![CDATA[
  .stroke { fill:none; stroke:black; stroke-width:2 }
]]></style>
<path class="stroke" d="M 30.757086 7.6435336 C 26.656185 13.164064 19.715984 18.684585999999996 8.044165 23.277621999999997 C 18.033686 28.224004 26.130384 36.482673999999996 29.810684 43.283944" />
<path class="stroke" d="M 59.7792 7.6435336 C 55.6783 13.164064 48.7381 18.684585999999996 37.06628 23.277621999999997 C 47.0558 28.224004 55.1525 36.482673999999996 58.8328 43.283944" />
<path class="stroke" d="M 88.4858 7.6435336 C 84.3849 13.164064 77.4447 18.684585999999996 65.77288 23.277621999999997 C 75.7624 28.224004 83.8591 36.482673999999996 87.5394 43.283944" />
<path class="stroke" d="M 46.05839 47.783211449999996 C 42.26277 57.935035709999994 33.211678 63.260582189999994 20.948904 68.08686054" />
<path class="stroke" d="M 45.18248 51.2781009 L 82.26277 51.2781009 C 78.75912 66.2562018 51.021896 85.39489001999999 12.773722 93.2167857" />
<path class="stroke" d="M 40.51095 62.26204251 C 49.631245 64.5045006 56.861313 67.42116609 63.284668 72.74671485" />
</svg>
