<?xml version="1.0" standalone="no"?>
<!DOCTYPE svg PUBLIC "-//W3C//DTD SVG 1.1//EN" "http://www.w3.org/Graphics/SVG/1.1/DTD/svg11.dtd">
<svg xmlns="http://www.w3.org/2000/svg" version="1.1" width="100%" height="100%">
<style type="text/css"><![CDATA[
  .stroke { fill:none; stroke:black; stroke-width:2 }
]]></style>
<path class="stroke" d="M 8.003300000000001 33.069305 L 25.825083333333335 30.9901" />
<path class="stroke" d="M 19.389438333333334 9.60396 L 19.389438333333334 84.15842 C 19.389438333333334 87.42574 17.161715833333336 90.09901 14.191419166666668 90.09901" />
<path class="stroke" d="M 8.498349166666667 63.36634 L 24.09241 46.435642" />
<path class="stroke" d="M 49.45267278 7.490662928 C 46.459015050000005 12.900782719999999 41.39266832 18.310894279999996 32.87224045 22.812069559999998 C 40.16459078 27.65952392 46.07518032 35.75302051999999 48.761799319999994 42.41826512" />
<path class="stroke" d="M 70.63881599999999 7.490662928 C 67.645159 12.900782719999999 62.578813000000004 18.310894279999996 54.058384399999994 22.812069559999998 C 61.350733999999996 27.65952392 67.261325 35.75302051999999 69.947944 42.41826512" />
<path class="stroke" d="M 91.594634 7.490662928 C 88.600977 12.900782719999999 83.53463099999999 18.310894279999996 75.0142024 22.812069559999998 C 82.306552 27.65952392 88.217143 35.75302051999999 90.903762 42.41826512" />
<path class="stroke" d="M 60.6226247 46.827547220999996 C 57.85182210000001 56.77633499579999 51.24452494 61.99537054619999 42.29269992 66.7251233292" />
<path class="stroke" d="M 59.9832104 50.252538881999996 L 87.05182210000001 50.252538881999996 C 84.4941576 64.931077764 64.24598408 83.68699221959999 36.32481706 91.352449986" />
<path class="stroke" d="M 56.572993499999995 61.0168016598 C 63.23080885 63.214410588 68.50875848999999 66.0727427682 73.19780764000001 71.291780553" />
</svg>
