<?xml version="1.0" standalone="no"?>
<!DOCTYPE svg PUBLIC "-//W3C//DTD SVG 1.1//EN" "http://www.w3.org/Graphics/SVG/1.1/DTD/svg11.dtd">
<svg xmlns="http://www.w3.org/2000/svg" version="1.1" width="100%" height="100%">
<style type="text/css"><![CDATA[
  .stroke { fill:none; stroke:black; stroke-width:2 }
]]></style>
<path class="stroke" d="M 8.003300000000001 33.069305 L 25.825083333333335 30.9901" />
<path class="stroke" d="M 19.389438333333334 9.60396 L 19.389438333333334 84.15842 C 19.389438333333334 87.42574 17.161715833333336 90.09901 14.191419166666668 90.09901" />
<path class="stroke" d="M 8.498349166666667 63.36634 L 24.09241 46.435642" />
<path class="stroke" d="M 63.6065654 6.95255475 L 63.6065654 16.587590249999998" />
<path class="stroke" d="M 36.111677865000004 16.806567 L 36.111677865000004 27.31751625" />
<path class="stroke" d="M 36.111677865000004 16.806567 L 91.1014533 16.806567 L 91.1014533 27.31751625" />
<path class="stroke" d="M 60.030692519999995 30.059405599999998 C 59.16336638 42.891088800000006 53.74257399 58.574258400000005 48.53861422999999 65.94059440000001 C 60.40948806 68.75912 77.24744394999999 77.868608 85.77299349999998 89.3138672" />
<path class="stroke" d="M 77.16039509999999 44.554456 C 71.73960636 71.64356800000002 60.46435559 81.861392 43.78467027 88.613136" />
<path class="stroke" d="M 34.19342949 48.4379544 L 92.5934273 48.4379544" />
</svg>
