<?xml version="1.0" standalone="no"?>
<!DOCTYPE svg PUBLIC "-//W3C//DTD SVG 1.1//EN" "http://www.w3.org/Graphics/SVG/1.1/DTD/svg11.dtd">
<svg xmlns="http://www.w3.org/2000/svg" version="1.1" width="100%" height="100%">
<style type="text/css"><![CDATA[
  .stroke { fill:none; stroke:black; stroke-width:2 }
]]></style>
<path class="stroke" d="M 8.003300000000001 33.069305 L 25.825083333333335 30.9901" />
<path class="stroke" d="M 19.389438333333334 9.60396 L 19.389438333333334 84.15842 C 19.389438333333334 87.42574 17.161715833333336 90.09901 14.191419166666668 90.09901" />
<path class="stroke" d="M 8.498349166666667 63.36634 L 24.09241 46.435642" />
<path class="stroke" d="M 42.36435956 8.45625 L 48.91642289000001 15.3675" />
<path class="stroke" d="M 55.89114500000001 8.45625 L 62.443209 15.3675" />
<path class="stroke" d="M 83.79021300000001 8.45625 L 76.604061 15.3675" />
<path class="stroke" d="M 35.025 18.0319069125 L 35.025 27.21172089" />
<path class="stroke" d="M 35.025 18.0319069125 L 91.975 18.0319069125 L 91.975 27.21172089" />
<path class="stroke" d="M 45.007999999999996 30.714286712 L 45.007999999999996 68.40571328800002" />
<path class="stroke" d="M 44.7758940641 30.16 L 83.769894714 30.16 L 83.769894714 68.40571328800002" />
<path class="stroke" d="M 45.2401072357 43.185716392 L 83.537782929 43.185716392" />
<path class="stroke" d="M 45.2401072357 54.825716392 L 83.769894714 54.825716392" />
<path class="stroke" d="M 44.7758940641 65.911426576 L 83.537782929 66.188573424" />
<path class="stroke" d="M 57.077572356999994 66.74285936000001 C 55.5595580336 80.3370136 47.522209638999996 90.31415424000001 38.2243710958 92.35328048" />
<path class="stroke" d="M 67.522394714 67.02 L 67.4461503957 86.46247824 C 67.4461503957 90.54072296000001 69.7231757802 92.57984920000001 72.759204427 92.57984920000001 L 88.50860157 92.57984920000001 C 90.406121099 92.57984920000001 91.54463216650001 91.67357044 91.54463216650001 89.86101679999999 L 91.54463216650001 87.1421844" />
</svg>
