<?xml version="1.0" standalone="no"?>
<!DOCTYPE svg PUBLIC "-//W3C//DTD SVG 1.1//EN" "http://www.w3.org/Graphics/SVG/1.1/DTD/svg11.dtd">
<svg xmlns="http://www.w3.org/2000/svg" version="1.1" width="100%" height="100%">
<style type="text/css"><![CDATA[
  .stroke { fill:none; stroke:black; stroke-width:2 }
]]></style>
<path class="stroke" d="M 8.003300000000001 33.069305 L 25.825083333333335 30.9901" />
<path class="stroke" d="M 19.389438333333334 9.60396 L 19.389438333333334 84.15842 C 19.389438333333334 87.42574 17.161715833333336 90.09901 14.191419166666668 90.09901" />
<path class="stroke" d="M 8.498349166666667 63.36634 L 24.09241 46.435642" />
<path class="stroke" d="M 38.46716184210526 10.2524 L 38.46716184210526 38.3281" />
<path class="stroke" d="M 38.46716184210526 10.2524 L 64.35543684210526 10.2524 L 64.35543684210526 38.3281" />
<path class="stroke" d="M 38.46716184210526 38.3281 L 64.35543684210526 38.3281" />
<path class="stroke" d="M 47.61956973684211 56.9401 L 66.1858355263158 56.9401 L 66.1858355263158 69.5584 C 66.36016315789473 81.1252 63.65804342105263 92.6919 56.5104447368421 92.9022 L 51.019000000000005 92.9022" />
<path class="stroke" d="M 48.40400263157895 38.6435 C 47.79381447368421 74.9212 39.60025 84.3848 30.883694342105265 93.5331" />
<path class="stroke" d="M 77.42899 12.1451 L 77.42899 68.612" />
<path class="stroke" d="M 91.34065 6.78233 L 91.34065 84.0694 C 91.43533 89.6425 88.40692 92.3765 84.8107 92.2713 L 81.6877 92.2713" />
</svg>
