<?xml version="1.0" standalone="no"?>
<!DOCTYPE svg PUBLIC "-//W3C//DTD SVG 1.1//EN" "http://www.w3.org/Graphics/SVG/1.1/DTD/svg11.dtd">
<svg xmlns="http://www.w3.org/2000/svg" version="1.1" width="100%" height="100%">
<style type="text/css"><![CDATA[
  .stroke { fill:none; stroke:black; stroke-width:2 }
]]></style>
<path class="stroke" d="M 8.003300000000001 33.069305 L 25.825083333333335 30.9901" />
<path class="stroke" d="M 19.389438333333334 9.60396 L 19.389438333333334 84.15842 C 19.389438333333334 87.42574 17.161715833333336 90.09901 14.191419166666668 90.09901" />
<path class="stroke" d="M 8.498349166666667 63.36634 L 24.09241 46.435642" />
<path class="stroke" d="M 36.592792064 8.099366530000001 L 52.834852352 8.099366530000001 L 52.834852352 18.773187268" />
<path class="stroke" d="M 36.6840393728 18.81030208 L 52.834852352 18.81030208" />
<path class="stroke" d="M 36.6840393728 18.773187268 L 36.6840393728 35.712079672 C 36.6840393728 37.452374536 37.68776192 39.192673306 39.2389707776 39.192673306 L 56.667247616 39.192673306 C 58.035958784 39.192673306 59.222177792 37.916454208 59.222177792 36.292179262000005 L 59.222177792 34.203824644" />
<path class="stroke" d="M 69.87279206400001 8.099366530000001 L 86.114852352 8.099366530000001 L 86.114852352 18.773187268" />
<path class="stroke" d="M 69.9640393728 18.81030208 L 86.114852352 18.81030208" />
<path class="stroke" d="M 69.9640393728 18.773187268 L 69.9640393728 35.712079672 C 69.9640393728 37.452374536 70.96776192 39.192673306 72.5189707776 39.192673306 L 89.947247616 39.192673306 C 91.315958784 39.192673306 92.502177792 37.916454208 92.502177792 36.292179262000005 L 92.502177792 34.203824644" />
<path class="stroke" d="M 41.58992448 59.06659084 L 86.6120064 59.06659084" />
<path class="stroke" d="M 53.905363200000004 47.48408998 L 53.905363200000004 74.838425128" />
<path class="stroke" d="M 74.09463679999999 47.237660440000006 L 74.09463679999999 74.83839388" />
<path class="stroke" d="M 36.13880128 75.08486248 L 92.2649952 75.08486248" />
<path class="stroke" d="M 52.29024 81.0521368 C 50.405888000000004 87.03702159999999 46.09888 90.27587679999999 41.186112 92.03612128" />
<path class="stroke" d="M 74.09465600000001 81.05206984 C 76.651904 86.96651272 80.218688 89.92373416 85.19872000000001 92.03605431999999" />
</svg>
