<?xml version="1.0" standalone="no"?>
<!DOCTYPE svg PUBLIC "-//W3C//DTD SVG 1.1//EN" "http://www.w3.org/Graphics/SVG/1.1/DTD/svg11.dtd">
<svg xmlns="http://www.w3.org/2000/svg" version="1.1" width="100%" height="100%">
<style type="text/css"><![CDATA[
  .stroke { fill:none; stroke:black; stroke-width:2 }
]]></style>
<path class="stroke" d="M 8.003300000000001 33.069305 L 25.825083333333335 30.9901" />
<path class="stroke" d="M 19.389438333333334 9.60396 L 19.389438333333334 84.15842 C 19.389438333333334 87.42574 17.161715833333336 90.09901 14.191419166666668 90.09901" />
<path class="stroke" d="M 8.498349166666667 63.36634 L 24.09241 46.435642" />
<path class="stroke" d="M 43.657424899999995 7.855049216 L 80.36435900000001 7.855049216 C 72.0118791 22.796832128000002 57.94455384 30.09663488 33.3267326 36.483960319999994" />
<path class="stroke" d="M 42.77821758 11.276832128 C 46.05161054 18.350966912 57.50967582 24.172903424 61.32902968 26.774193920000002 C 68.2516098 30.73806464 80.66451336 33.71096576000001 92.4534652 36.483960319999994" />
<path class="stroke" d="M 40.421897 53.8981606016 L 40.421897 73.49897381119999" />
<path class="stroke" d="M 40.421897 54.0747434528 L 86.0102186 54.0747434528 L 86.0102186 73.67556089600001" />
<path class="stroke" d="M 40.421897 71.25209584640001 L 86.0102186 71.25209584640001" />
<path class="stroke" d="M 62.9925926 42.5967873632 L 62.9925926 89.92128360320001" />
<path class="stroke" d="M 38.90948722 92.57004511999999 L 86.22627344 87.44910675199999" />
<path class="stroke" d="M 81.9051056 81.798424064 C 85.578103 84.97693231999999 87.5226232 88.5086099072 88.81897000000001 92.57004511999999" />
</svg>
