<?xml version="1.0" standalone="no"?>
<!DOCTYPE svg PUBLIC "-//W3C//DTD SVG 1.1//EN" "http://www.w3.org/Graphics/SVG/1.1/DTD/svg11.dtd">
<svg xmlns="http://www.w3.org/2000/svg" version="1.1" width="100%" height="100%">
<style type="text/css"><![CDATA[
  .stroke { fill:none; stroke:black; stroke-width:2 }
]]></style>
<path class="stroke" d="M 8.003300000000001 33.069305 L 25.825083333333335 30.9901" />
<path class="stroke" d="M 19.389438333333334 9.60396 L 19.389438333333334 84.15842 C 19.389438333333334 87.42574 17.161715833333336 90.09901 14.191419166666668 90.09901" />
<path class="stroke" d="M 8.498349166666667 63.36634 L 24.09241 46.435642" />
<path class="stroke" d="M 62.263374999999996 8.0173544151 C 53.850362499999996 18.923494173599998 45.933330999999995 27.893240751 35.64136 32.88909324899999" />
<path class="stroke" d="M 62.263374999999996 8.0173544151 C 70.27372 18.7450719177 77.68630375000001 27.344424062999998 88.41622749999999 32.6971247394" />
<path class="stroke" d="M 51.4267 28.379933013 L 73.337695 28.379933013" />
<path class="stroke" d="M 42.00261625 37.6883090445 L 81.34816749999999 37.6883090445 C 78.5014525 45.360513714 70.4926975 52.823929957500006 64.3613125 57.4629367215" />
<path class="stroke" d="M 36.91666762 74.5202510088 C 36.55000132 77.988 35.49579718 80.72482459049999 33.066667179999996 83.0320010088" />
<path class="stroke" d="M 47.00000176 64.6424177175 L 46.9239724 89.12220126 C 46.9239724 90.19623279 48.1732204 90.9122412 50.0470264 90.9122412 L 72.5328304 90.9122412 C 74.2678384 90.9122412 75.7946824 90.07687914 75.8640484 88.76417814 L 75.8640484 86.7354309" />
<path class="stroke" d="M 57.450000880000005 60.9645007566 C 62.4000022 62.540750504399995 63.915269800000004 63.6728219553 66.0666718 66.218667087" />
<path class="stroke" d="M 76.70000175999999 75.46600100879999 C 81.0722338 77.6935815939 83.343406 79.65380773320001 86.0500066 82.716753783" />
</svg>
