<?xml version="1.0" standalone="no"?>
<!DOCTYPE svg PUBLIC "-//W3C//DTD SVG 1.1//EN" "http://www.w3.org/Graphics/SVG/1.1/DTD/svg11.dtd">
<svg xmlns="http://www.w3.org/2000/svg" version="1.1" width="100%" height="100%">
<style type="text/css"><![CDATA[
  .stroke { fill:none; stroke:black; stroke-width:2 }
]]></style>
<path class="stroke" d="M 15.401459 25.164962640000002 L 84.8905 25.164962640000002" />
<path class="stroke" d="M 49.43925 7.18130796 L 49.065422 7.435514400000001 C 45.126904 28.201014400000002 33.364487 35.6523388 6.074766 48.6168244" />
<path class="stroke" d="M 58.037384 25.22990536 C 66.26168 33.872897120000005 72.990654 41.49906584000001 89.81309 49.12523320000001" />
<path class="stroke" d="M 33.2808 48.337543 L 68.2966 48.337543" />
<path class="stroke" d="M 14.35331 61.5110366 L 86.90842 61.5110366" />
<path class="stroke" d="M 50.630928 61.693985999999995 L 50.630928 88.95584199999999 C 50.630928 90.907484 48.107227 92.127224 45.89903 92.06626599999998 L 41.798027 92.06626599999998" />
<path class="stroke" d="M 32.6498 71.208132 C 27.1819 77.916934 19.1903 82.613078 7.72871 85.662486" />
<path class="stroke" d="M 68.6121 71.57417 C 78.0759 75.355422 84.7003 79.685644 91.0095 85.662486" />
</svg>
