<?xml version="1.0" standalone="no"?>
<!DOCTYPE svg PUBLIC "-//W3C//DTD SVG 1.1//EN" "http://www.w3.org/Graphics/SVG/1.1/DTD/svg11.dtd">
<svg xmlns="http://www.w3.org/2000/svg" version="1.1" width="100%" height="100%">
<style type="text/css"><![CDATA[
  .stroke { fill:none; stroke:black; stroke-width:2 }
]]></style>
<path class="stroke" d="M 8.003300000000001 33.069305 L 25.825083333333335 30.9901" />
<path class="stroke" d="M 19.389438333333334 9.60396 L 19.389438333333334 84.15842 C 19.389438333333334 87.42574 17.161715833333336 90.09901 14.191419166666668 90.09901" />
<path class="stroke" d="M 8.498349166666667 63.36634 L 24.09241 46.435642" />
<path class="stroke" d="M 39.7810213 25.164962640000002 L 88.42335 25.164962640000002" />
<path class="stroke" d="M 63.607475 7.18130796 L 63.34579539999999 7.435514400000001 C 60.5888328 28.201014400000002 52.355140899999995 35.6523388 33.2523362 48.6168244" />
<path class="stroke" d="M 69.6261688 25.22990536 C 75.38317599999999 33.872897120000005 80.09345780000001 41.49906584000001 91.869163 49.12523320000001" />
<path class="stroke" d="M 52.29656 48.337543 L 76.80761999999999 48.337543" />
<path class="stroke" d="M 39.047317 61.5110366 L 89.835894 61.5110366" />
<path class="stroke" d="M 64.4416496 61.693985999999995 L 64.4416496 88.95584199999999 C 64.4416496 90.907484 62.675058899999996 92.127224 61.129321 92.06626599999998 L 58.258618899999995 92.06626599999998" />
<path class="stroke" d="M 51.85486 71.208132 C 48.02733 77.916934 42.43321 82.613078 34.410097 85.662486" />
<path class="stroke" d="M 77.02847 71.57417 C 83.65313 75.355422 88.29021 79.685644 92.70665 85.662486" />
</svg>
