<?xml version="1.0" standalone="no"?>
<!DOCTYPE svg PUBLIC "-//W3C//DTD SVG 1.1//EN" "http://www.w3.org/Graphics/SVG/1.1/DTD/svg11.dtd">
<svg xmlns="http://www.w3.org/2000/svg" version="1.1" width="100%" height="100%">
<style type="text/css"><![CDATA[
  .stroke { fill:none; stroke:black; stroke-width:2 }
]]></style>
<path class="stroke" d="M 8.003300000000001 33.069305 L 25.825083333333335 30.9901" />
<path class="stroke" d="M 19.389438333333334 9.60396 L 19.389438333333334 84.15842 C 19.389438333333334 87.42574 17.161715833333336 90.09901 14.191419166666668 90.09901" />
<path class="stroke" d="M 8.498349166666667 63.36634 L 24.09241 46.435642" />
<path class="stroke" d="M 58.9359553168 5.8656929600000005 C 55.159021048 12.4700723 46.146794439999994 19.866148 35.5189623328 25.1474448 C 51.382086132400005 24.312408 65.16789724840001 23.932847 80.26122556 23.988370000000003" />
<path class="stroke" d="M 72.910611982 19.22627552 C 77.254084192 20.668612 81.0310184608 22.8700723 83.486028064 25.8306546" />
<path class="stroke" d="M 46.3248169 31.73576539 C 45.87518079 37.201459 42.72773726 43.5780994 40.25474212 46.08321136" />
<path class="stroke" d="M 44.3014571 40.84525474 L 80.72189499999999 40.84525474" />
<path class="stroke" d="M 36.20802868 59.772189520000005 L 86.117516 59.772189520000005" />
<path class="stroke" d="M 60.713136999999996 41.5284661 L 60.713136999999996 51.093428259999996 C 60.750807710000004 72.1308028 39.580290649999995 89.3532808 31.26204225 92.541601" />
<path class="stroke" d="M 60.750807710000004 60.494053 C 67.00802714 76.144519 78.0240845 86.8481704 91.73795005000001 92.3138644" />
</svg>
