<?xml version="1.0" standalone="no"?>
<!DOCTYPE svg PUBLIC "-//W3C//DTD SVG 1.1//EN" "http://www.w3.org/Graphics/SVG/1.1/DTD/svg11.dtd">
<svg xmlns="http://www.w3.org/2000/svg" version="1.1" width="100%" height="100%">
<style type="text/css"><![CDATA[
  .stroke { fill:none; stroke:black; stroke-width:2 }
]]></style>
<path class="stroke" d="M 8.003300000000001 33.069305 L 25.825083333333335 30.9901" />
<path class="stroke" d="M 19.389438333333334 9.60396 L 19.389438333333334 84.15842 C 19.389438333333334 87.42574 17.161715833333336 90.09901 14.191419166666668 90.09901" />
<path class="stroke" d="M 8.498349166666667 63.36634 L 24.09241 46.435642" />
<path class="stroke" d="M 63.1080252 9.601459859999999 L 63.1080252 20.85401318" />
<path class="stroke" d="M 34.37226232 21.09343104 L 91.1956206 21.09343104" />
<path class="stroke" d="M 47.861328055399994 35.246817005 L 47.861328055399994 59.64810087" />
<path class="stroke" d="M 47.861328055399994 35.246817005 L 77.53478695999999 35.246817005 L 77.53478695999999 59.413473778" />
<path class="stroke" d="M 47.861328055399994 57.771078508799995 L 77.53478695999999 57.771078508799995" />
<path class="stroke" d="M 63.00391238 58.45401441 L 63.00391238 87.6627707 C 63.00391238 88.50072664999999 61.81167618 88.9795595 60.947444239999996 88.9795595 L 59.4350352 88.9795595" />
<path class="stroke" d="M 45.82335606 69.3474434 C 44.7430641 73.5372252 41.50218896 77.12846644999999 36.96496184 80.00145986" />
<path class="stroke" d="M 78.2321156 69.3474434 C 82.5532827 71.86131329999999 86.22627344 75.21313832999999 88.38685736 80.24087443999998" />
</svg>
