<?xml version="1.0" standalone="no"?>
<!DOCTYPE svg PUBLIC "-//W3C//DTD SVG 1.1//EN" "http://www.w3.org/Graphics/SVG/1.1/DTD/svg11.dtd">
<svg xmlns="http://www.w3.org/2000/svg" version="1.1" width="100%" height="100%">
<style type="text/css"><![CDATA[
  .stroke { fill:none; stroke:black; stroke-width:2 }
]]></style>
<path class="stroke" d="M 8.003300000000001 33.069305 L 25.825083333333335 30.9901" />
<path class="stroke" d="M 19.389438333333334 9.60396 L 19.389438333333334 84.15842 C 19.389438333333334 87.42574 17.161715833333336 90.09901 14.191419166666668 90.09901" />
<path class="stroke" d="M 8.498349166666667 63.36634 L 24.09241 46.435642" />
<path class="stroke" d="M 51.684740489999996 11.613896050000001 C 48.104358399999995 22.606809900000002 42.3757491 32.929428279999996 34.02152544 43.117980759999995" />
<path class="stroke" d="M 75.3152544 11.613896050000001 C 78.89563430000001 22.606809900000002 84.14686739999999 32.929428279999996 92.97847309999999 43.117980759999995" />
<path class="stroke" d="M 48.371414738 47.083211 L 80.777020376 45.63503608 C 80.060870228 59.21167828 78.628582196 67.17664096 76.65918002000001 77.49489052 C 75.58495786399999 82.38248010000001 73.6155593672 89.8043792 69.855793472 89.8043792 L 67.8863925224 89.8043792" />
<path class="stroke" d="M 59.471676419599994 46.721166339999996 L 57.68131454 57.76350088 C 54.816728051599995 71.88320728 49.624670445199996 80.9343027 45.148757468 88.5372232" />
</svg>
