<?xml version="1.0" standalone="no"?>
<!DOCTYPE svg PUBLIC "-//W3C//DTD SVG 1.1//EN" "http://www.w3.org/Graphics/SVG/1.1/DTD/svg11.dtd">
<svg xmlns="http://www.w3.org/2000/svg" version="1.1" width="100%" height="100%">
<style type="text/css"><![CDATA[
  .stroke { fill:none; stroke:black; stroke-width:2 }
]]></style>
<path class="stroke" d="M 8.003300000000001 33.069305 L 25.825083333333335 30.9901" />
<path class="stroke" d="M 19.389438333333334 9.60396 L 19.389438333333334 84.15842 C 19.389438333333334 87.42574 17.161715833333336 90.09901 14.191419166666668 90.09901" />
<path class="stroke" d="M 8.498349166666667 63.36634 L 24.09241 46.435642" />
<path class="stroke" d="M 63.0 8.0621458724 L 63.0 12.2650073072" />
<path class="stroke" d="M 42.92408664 12.5029047348 L 83.496348 12.5029047348" />
<path class="stroke" d="M 46.287589679999996 15.912774020000002 C 50.4919692 18.7675469536 53.64525456 22.494611631999998 55.32700536 26.142378888" />
<path class="stroke" d="M 80.3430612 15.278378888 C 75.2978088 18.212451960000003 71.09343 22.732511504 70.04233439999999 27.411166436000002" />
<path class="stroke" d="M 35.14598496 28.204159672 L 90.4335768 28.204159672" />
<path class="stroke" d="M 43.76496384 39.032871072 L 43.76496384 68.91583761199999" />
<path class="stroke" d="M 43.97518152 39.132366299999994 L 82.23503328 39.132366299999994 L 82.23503328 68.71759134" />
<path class="stroke" d="M 43.76496384 54.554396203 L 81.81459792000001 54.554396203" />
<path class="stroke" d="M 43.76496384 68.90549779999999 L 82.23503328 68.90549779999999" />
<path class="stroke" d="M 62.772839999999995 39.032871072 L 62.772839999999995 92.50736805" />
<path class="stroke" d="M 42.29343 80.41422867 L 83.70656639999999 80.41422867" />
<path class="stroke" d="M 34.094889359999996 92.50736805 L 92.3255424 92.50736805" />
</svg>
