<?xml version="1.0" standalone="no"?>
<!DOCTYPE svg PUBLIC "-//W3C//DTD SVG 1.1//EN" "http://www.w3.org/Graphics/SVG/1.1/DTD/svg11.dtd">
<svg xmlns="http://www.w3.org/2000/svg" version="1.1" width="100%" height="100%">
<style type="text/css"><![CDATA[
  .stroke { fill:none; stroke:black; stroke-width:2 }
]]></style>
<path class="stroke" d="M 8.003300000000001 33.069305 L 25.825083333333335 30.9901" />
<path class="stroke" d="M 19.389438333333334 9.60396 L 19.389438333333334 84.15842 C 19.389438333333334 87.42574 17.161715833333336 90.09901 14.191419166666668 90.09901" />
<path class="stroke" d="M 8.498349166666667 63.36634 L 24.09241 46.435642" />
<path class="stroke" d="M 53.228625 6.8848563 C 48.87534599999999 20.348660000000002 41.257056 31.670403 31.4621403 36.260249" />
<path class="stroke" d="M 49.528362 16.37069 L 73.25394299999999 16.37069 L 61.282304999999994 35.648179" />
<path class="stroke" d="M 39.515772 35.648256599999996 L 39.515772 58.9038126" />
<path class="stroke" d="M 39.515772 35.648256599999996 L 83.04890699999999 35.648256599999996 L 83.04890699999999 58.9038126" />
<path class="stroke" d="M 61.282304999999994 35.648256599999996 L 61.282304999999994 58.9038126" />
<path class="stroke" d="M 39.515772 58.9038126 L 83.04890699999999 58.9038126" />
<path class="stroke" d="M 57.364346999999995 59.20976999999999 C 55.695582 78.793391 45.32019 89.197126 31.4621472 91.339177" />
<path class="stroke" d="M 66.288669 59.515708 L 66.288669 85.831226 C 65.998455 88.891188 67.884915 91.645115 69.989001 91.33908 L 87.61988099999999 91.33908 C 89.723967 91.33908 91.392732 89.50316099999999 91.320144 85.831226 L 91.320144 79.71130199999999" />
</svg>
