<?xml version="1.0" standalone="no"?>
<!DOCTYPE svg PUBLIC "-//W3C//DTD SVG 1.1//EN" "http://www.w3.org/Graphics/SVG/1.1/DTD/svg11.dtd">
<svg xmlns="http://www.w3.org/2000/svg" version="1.1" width="100%" height="100%">
<style type="text/css"><![CDATA[
  .stroke { fill:none; stroke:black; stroke-width:2 }
]]></style>
<path class="stroke" d="M 9.478102199999999 10.145985 L 26.1350355 10.145985 L 25.521895 29.416058" />
<path class="stroke" d="M 11.010947499999999 29.416058 L 25.4197055 29.416058" />
<path class="stroke" d="M 10.90875835 29.416058 L 9.682480499999999 48.9781 L 27.361313 48.9781 C 26.1350355 77.59124 22.456203 89.270065 20.821165399999998 89.270065 L 19.90145955 89.270065" />
<path class="stroke" d="M 38.7708025 17.445253 C 40.5167877 20.948904 42.12846716 25.036495 43.171818 31.0726" />
<path class="stroke" d="M 64.9605828 17.445253 C 64.1547433 22.70073 62.6773728 27.080292 60.66277290000001 30.875912" />
<path class="stroke" d="M 35.81605736 43.138683 L 68.31824700000001 43.138683" />
<path class="stroke" d="M 52.0 9.60396 L 52.0671508 90.39604" />
<path class="stroke" d="M 49.51532702 45.766422 C 46.751124000000004 59.6858 41.168702 73.8391 34.4729926 81.386856" />
<path class="stroke" d="M 54.75328262 46.05839 C 57.01055 59.7909 62.626965999999996 74.6724 69.3926966 81.678825" />
<path class="stroke" d="M 74.4781022 10.145985 L 91.1350355 10.145985 L 90.521895 29.416058" />
<path class="stroke" d="M 76.0109475 29.416058 L 90.41970549999999 29.416058" />
<path class="stroke" d="M 75.90875835 29.416058 L 74.6824805 48.9781 L 92.361313 48.9781 C 91.1350355 77.59124 87.456203 89.270065 85.8211654 89.270065 L 84.90145955 89.270065" />
</svg>
