<?xml version="1.0" standalone="no"?>
<!DOCTYPE svg PUBLIC "-//W3C//DTD SVG 1.1//EN" "http://www.w3.org/Graphics/SVG/1.1/DTD/svg11.dtd">
<svg xmlns="http://www.w3.org/2000/svg" version="1.1" width="100%" height="100%">
<style type="text/css"><![CDATA[
  .stroke { fill:none; stroke:black; stroke-width:2 }
]]></style>
<path class="stroke" d="M 9.74890512 10.145985 L 26.8817508 10.145985 L 26.251092 29.416058" />
<path class="stroke" d="M 11.325546 29.416058 L 26.1459828 29.416058" />
<path class="stroke" d="M 11.22043716 29.416058 L 9.9591228 48.9781 L 28.143064799999998 48.9781 C 26.8817508 77.59124 23.0978088 89.270065 21.41605584 89.270065 L 20.47007268 89.270065" />
<path class="stroke" d="M 38.60510824 45.766422 L 77.48685939999999 32.335766 C 79.7029186 32.335766 80.3072965 36.131386 80.3072965 39.343063 L 80.3072965 51.021896 C 79.5014593 53.357662 78.8970745 55.10949 77.2854001 55.10949 L 75.8751781 55.10949" />
<path class="stroke" d="M 60.76569127 11.021896 L 60.76569127 67.08029" />
<path class="stroke" d="M 42.5240833 19.842932 L 42.64511068 80.51095 C 42.64511068 86.642334 45.45474376 89.56204 48.67810222 89.56204 L 88.5671485 89.56204 C 90.5817484 89.56204 91.99197039999999 87.51824 91.99197039999999 85.47445 L 91.99197039999999 81.386856" />
</svg>
