<?xml version="1.0" standalone="no"?>
<!DOCTYPE svg PUBLIC "-//W3C//DTD SVG 1.1//EN" "http://www.w3.org/Graphics/SVG/1.1/DTD/svg11.dtd">
<svg xmlns="http://www.w3.org/2000/svg" version="1.1" width="100%" height="100%">
<style type="text/css"><![CDATA[
  .stroke { fill:none; stroke:black; stroke-width:2 }
]]></style>
<path class="stroke" d="M 10.832116800000001 10.145985 L 29.868612000000002 10.145985 L 29.167880000000004 29.416058" />
<path class="stroke" d="M 12.58394 29.416058 L 29.051092 29.416058" />
<path class="stroke" d="M 12.467152400000002 29.416058 L 11.065692 48.9781 L 31.270072 48.9781 C 29.868612000000002 77.59124 25.664232 89.270065 23.7956176 89.270065 L 22.7445252 89.270065" />
<path class="stroke" d="M 51.73861363 11.966054142857145 C 50.38415797 21.895332428571432 48.352475049999995 32.20650385714286 45.6435643 39.08062028571429" />
<path class="stroke" d="M 49.537624179999995 26.478075857142862 L 91.52574279999999 26.478075857142862" />
<path class="stroke" d="M 68.50301359 32.14890476 L 68.50301359 86.2919652 C 68.50301359 87.8452494 67.58466949 88.732842 66.91897732 88.732842 L 65.7540136 88.732842" />
<path class="stroke" d="M 55.26934183 52.3416024 C 54.43722505 60.108027199999995 51.94087528 66.7649622 48.44598412 72.09051095999999" />
<path class="stroke" d="M 80.23284579999999 52.3416024 C 83.56131235 57.0014588 86.39050791999999 63.21459788 88.05474147999999 72.53430384" />
</svg>
