<?xml version="1.0" standalone="no"?>
<!DOCTYPE svg PUBLIC "-//W3C//DTD SVG 1.1//EN" "http://www.w3.org/Graphics/SVG/1.1/DTD/svg11.dtd">
<svg xmlns="http://www.w3.org/2000/svg" version="1.1" width="100%" height="100%">
<style type="text/css"><![CDATA[
  .stroke { fill:none; stroke:black; stroke-width:2 }
]]></style>
<path class="stroke" d="M 10.832116800000001 10.145985 L 29.868612000000002 10.145985 L 29.167880000000004 29.416058" />
<path class="stroke" d="M 12.58394 29.416058 L 29.051092 29.416058" />
<path class="stroke" d="M 12.467152400000002 29.416058 L 11.065692 48.9781 L 31.270072 48.9781 C 29.868612000000002 77.59124 25.664232 89.270065 23.7956176 89.270065 L 22.7445252 89.270065" />
<path class="stroke" d="M 42.83284562 7.5 L 92.1671495 7.5" />
<path class="stroke" d="M 46.261313532 18.422481092 L 46.261313532 42.26131148" />
<path class="stroke" d="M 46.261313532 18.327882488 L 88.898974704 18.327882488 L 88.898974704 42.26131148" />
<path class="stroke" d="M 67.58014302000001 18.422481092 L 67.58014302000001 40.5585392" />
<path class="stroke" d="M 46.261313532 29.436836792 L 88.57839383999999 29.436836792" />
<path class="stroke" d="M 46.261313532 40.5585392 L 88.898974704 40.5585392" />
<path class="stroke" d="M 42.83284562 50.800000000000004 L 92.1671495 50.800000000000004" />
<path class="stroke" d="M 46.261313532 61.3119190647 L 46.261313532 84.554778693" />
<path class="stroke" d="M 46.261313532 61.2196854258 L 88.898974704 61.2196854258 L 88.898974704 84.554778693" />
<path class="stroke" d="M 67.58014302000001 61.3119190647 L 67.58014302000001 82.89457572" />
<path class="stroke" d="M 46.261313532 72.05091587220001 L 88.57839383999999 72.05091587220001" />
<path class="stroke" d="M 46.261313532 82.89457572 L 88.898974704 82.89457572" />
<path class="stroke" d="M 42.83284562 92.88 L 92.1671495 92.88" />
</svg>
