<?xml version="1.0" standalone="no"?>
<!DOCTYPE svg PUBLIC "-//W3C//DTD SVG 1.1//EN" "http://www.w3.org/Graphics/SVG/1.1/DTD/svg11.dtd">
<svg xmlns="http://www.w3.org/2000/svg" version="1.1" width="100%" height="100%">
<style type="text/css"><![CDATA[
  .stroke { fill:none; stroke:black; stroke-width:2 }
]]></style>
<path class="stroke" d="M 49.999996 5.0 C 52.376232 7.6732674 52.793365 10.037088 52.918915 12.702702" />
<path class="stroke" d="M 12.702702 13.675674 L 92.81081 13.351351" />
<path class="stroke" d="M 12.378378 13.999998 L 12.702702 39.62162 C 12.702702 61.30479 14.560343 79.686905 6.5405407 92.162155" />
<path class="stroke" d="M 22.6242334 29.740800000000004 L 57.6957644 29.740800000000004" />
<path class="stroke" d="M 40.16 20.372204332800003 L 40.16 40.515852288000005" />
<path class="stroke" d="M 30.603327124800003 42.63572880984 L 30.603327124800003 63.78224232192" />
<path class="stroke" d="M 30.603327124800003 42.63572880984 L 49.6061884 42.63572880984 L 49.6061884 63.78224232192" />
<path class="stroke" d="M 30.713809708 52.632939603344 L 49.495706952 52.632939603344" />
<path class="stroke" d="M 30.603327124800003 62.859180946112 L 49.6061884 62.859180946112" />
<path class="stroke" d="M 22.49576572 73.8117309832 L 58.0811648 73.8117309832" />
<path class="stroke" d="M 40.1262828 65.03246443527999 L 40.1262828 91.57473225328" />
<path class="stroke" d="M 66.0596202256 27.724378296000005 L 66.032591008 63.98497128 C 62.5988184856 83.43946128 62.5988184856 82.80160824000001 58.7610733744 91.09369459199999" />
<path class="stroke" d="M 66.0596202256 27.724378296000005 L 86.562978688 27.724378296000005 L 86.562978688 88.07824488 C 86.562978688 89.92817472 85.97716506399999 91.5468564 84.5126405344 91.5468564 L 82.901664856 91.5468564" />
<path class="stroke" d="M 66.0596202256 45.155160984000005 L 86.562978688 45.155160984000005" />
<path class="stroke" d="M 66.0596202256 63.567386112 L 86.562978688 63.567386112" />
</svg>
