<?xml version="1.0" standalone="no"?>
<!DOCTYPE svg PUBLIC "-//W3C//DTD SVG 1.1//EN" "http://www.w3.org/Graphics/SVG/1.1/DTD/svg11.dtd">
<svg xmlns="http://www.w3.org/2000/svg" version="1.1" width="100%" height="100%">
<style type="text/css"><![CDATA[
  .stroke { fill:none; stroke:black; stroke-width:2 }
]]></style>
<path class="stroke" d="M 49.999996 5.0 C 52.376232 7.6732674 52.793365 10.037088 52.918915 12.702702" />
<path class="stroke" d="M 12.702702 13.675674 L 92.81081 13.351351" />
<path class="stroke" d="M 12.378378 13.999998 L 12.702702 39.62162 C 12.702702 61.30479 14.560343 79.686905 6.5405407 92.162155" />
<path class="stroke" d="M 30.171993999999998 49.029954000000004 L 50.206615 49.029954000000004" />
<path class="stroke" d="M 29.8975003 24.10883125 L 29.8975003 88.6545528 M 15.6261856 92.89114900000001 L 48.285481000000004 83.91951399999999" />
<path class="stroke" d="M 89.727148 42.052042 C 80.395876 48.863817000000004 71.88797199999999 51.688225 58.988917 52.020499" />
<path class="stroke" d="M 58.714432 24.1088273 L 58.714432 87.65771500000001 C 58.622995 90.149849 60.452605 92.89114900000001 63.380068 92.89114900000001 L 85.88488000000001 92.641983 C 89.5441 92.30963 91.28236 90.232957 91.37379700000001 87.40854900000001 L 91.37379700000001 80.181392" />
</svg>
