<?xml version="1.0" standalone="no"?>
<!DOCTYPE svg PUBLIC "-//W3C//DTD SVG 1.1//EN" "http://www.w3.org/Graphics/SVG/1.1/DTD/svg11.dtd">
<svg xmlns="http://www.w3.org/2000/svg" version="1.1" width="100%" height="100%">
<style type="text/css"><![CDATA[
  .stroke { fill:none; stroke:black; stroke-width:2 }
]]></style>
<path class="stroke" d="M 49.999996 5.0 C 52.376232 7.6732674 52.793365 10.037088 52.918915 12.702702" />
<path class="stroke" d="M 12.702702 13.675674 L 92.81081 13.351351" />
<path class="stroke" d="M 12.378378 13.999998 L 12.702702 39.62162 C 12.702702 61.30479 14.560343 79.686905 6.5405407 92.162155" />
<path class="stroke" d="M 38.91 21.42903584 L 38.91 29.0" />
<path class="stroke" d="M 22.878999999999998 29.0 L 54.941 29.0" />
<path class="stroke" d="M 28.109342776 37.347445 L 28.109342776 49.493430000000004" />
<path class="stroke" d="M 28.109342776 37.347445 L 48.986422399999995 37.347445 L 48.986422399999995 49.376642000000004" />
<path class="stroke" d="M 28.109342776 48.5591232 L 48.986422399999995 48.5591232" />
<path class="stroke" d="M 22.600864446 59.362377944 L 51.08367408 59.362377944 C 46.77534816000001 63.812107144 44.26216296 63.939242936 39.71448519 65.08345918399999" />
<path class="stroke" d="M 39.594809634 65.719134224 C 39.47513334 82.75524175999999 39.71448519 87.20497096000001 37.62612969 89.4782456 C 36.979708110000004 90.39386548 36.333282839999995 90.62277192 35.255910957 90.73722416000001" />
<path class="stroke" d="M 23.438594445 75.12713344 L 54.07556667 70.42313344000002" />
<path class="stroke" d="M 71.17822179999999 29.4356432 L 90.41980059999999 29.4356432 C 90.41980059999999 33.7128704 89.2019776 42.5049496 82.6257416 48.2079224" />
<path class="stroke" d="M 82.38218028 48.2079224 C 85.427944 51.11144 91.6376236 57.237624000000004 91.6376236 64.3663392 L 91.6376236 67.455444 C 91.6376236 70.30693600000001 89.6891068 71.97029599999999 86.52277027999999 71.97029599999999 L 76.7801994 71.73267200000001" />
<path class="stroke" d="M 71.17822179999999 29.4356432 L 71.17822179999999 89.07920800000001" />
</svg>
