<?xml version="1.0" standalone="no"?>
<!DOCTYPE svg PUBLIC "-//W3C//DTD SVG 1.1//EN" "http://www.w3.org/Graphics/SVG/1.1/DTD/svg11.dtd">
<svg xmlns="http://www.w3.org/2000/svg" version="1.1" width="100%" height="100%">
<style type="text/css"><![CDATA[
  .stroke { fill:none; stroke:black; stroke-width:2 }
]]></style>
<path class="stroke" d="M 49.999996 5.0 C 52.376232 7.6732674 52.793365 10.037088 52.918915 12.702702" />
<path class="stroke" d="M 12.702702 13.675674 L 92.81081 13.351351" />
<path class="stroke" d="M 12.378378 13.999998 L 12.702702 39.62162 C 12.702702 61.30479 14.560343 79.686905 6.5405407 92.162155" />
<path class="stroke" d="M 38.802799 21.4936954 C 36.07723 33.247654 32.329684 40.146667 24.7492099 47.812264" />
<path class="stroke" d="M 37.269712 30.6924199 L 84.029959 30.6924199 L 84.029959 63.3990859 C 83.944828 67.8281659 82.837477 73.53477790000001 77.641975 73.61998990000001 L 74.320165 73.61998990000001" />
<path class="stroke" d="M 39.569383 42.957367000000005 L 68.954239 42.957367000000005 L 68.954239 64.42107100000001" />
<path class="stroke" d="M 35.992180000000005 64.42107100000001 L 68.954239 64.42107100000001" />
<path class="stroke" d="M 35.992180000000005 64.42107100000001 L 35.992180000000005 85.629382 C 35.651494 89.20666600000001 37.865953000000005 90.99530800000001 41.102551000000005 90.99530800000001 L 86.329711 90.99530800000001 C 89.90699500000001 91.08051999999999 91.695637 88.610425 91.695637 85.118353 L 91.695637 80.007901" />
</svg>
