<?xml version="1.0" standalone="no"?>
<!DOCTYPE svg PUBLIC "-//W3C//DTD SVG 1.1//EN" "http://www.w3.org/Graphics/SVG/1.1/DTD/svg11.dtd">
<svg xmlns="http://www.w3.org/2000/svg" version="1.1" width="100%" height="100%">
<style type="text/css"><![CDATA[
  .stroke { fill:none; stroke:black; stroke-width:2 }
]]></style>
<path class="stroke" d="M 7.272262249999999 24.744522 L 7.272262249999999 67.66423" />
<path class="stroke" d="M 7.272262249999999 24.744522 L 33.967151099999995 24.744522 L 33.967151099999995 65.32846 C 33.967151099999995 69.70802 32.889777699999996 72.33576 31.6926966 72.62773 L 30.6153273 72.62773" />
<path class="stroke" d="M 20.5598518 9.854013 L 20.5598518 90.14598" />
<path class="stroke" d="M 86.78709504 8.603935329599999 C 74.4 13.8105802402 63.60875712 14.321532454 47.14838592 15.546128145199999" />
<path class="stroke" d="M 53.54838592 20.9456125754 C 55.2 22.001299278799998 56.32116672 24.2703209148 57.470967040000005 25.766579044599997" />
<path class="stroke" d="M 83.07096704 20.174258083799998 C 82.4817472 23.2230787342 81.832256 24.609547905 80.38709504 25.766579044599997" />
<path class="stroke" d="M 43.98832032 32.00127018 L 92.1985344 32.00127018" />
<path class="stroke" d="M 68.0 13.709008639999999 L 68.0 58.13110578879999" />
<path class="stroke" d="M 67.9065664 34.393647846 C 62.010496 44.32192818 54.4525536 51.149497628 43.05401344 55.6875409" />
<path class="stroke" d="M 67.9065664 34.393647846 C 73.451136 44.13332228 82.53631999999999 50.98500698 93.5065664 55.33846395919999" />
<path class="stroke" d="M 53.6397078016 58.845721749599996 L 53.6397078016 90.571967624" />
<path class="stroke" d="M 53.6397078016 58.7198238544 L 82.4686692352 58.7198238544 L 82.4686692352 90.571967624" />
<path class="stroke" d="M 68.05418777599999 58.845721749599996 L 68.05418777599999 88.30580896" />
<path class="stroke" d="M 53.6397078016 73.5043334096 L 82.25191219199999 73.5043334096" />
<path class="stroke" d="M 53.6397078016 88.30580896 L 82.4686692352 88.30580896" />
</svg>
