<?xml version="1.0" standalone="no"?>
<!DOCTYPE svg PUBLIC "-//W3C//DTD SVG 1.1//EN" "http://www.w3.org/Graphics/SVG/1.1/DTD/svg11.dtd">
<svg xmlns="http://www.w3.org/2000/svg" version="1.1" width="100%" height="100%">
<style type="text/css"><![CDATA[
  .stroke { fill:none; stroke:black; stroke-width:2 }
]]></style>
<path class="stroke" d="M 23.371287000000002 19.608204345714284 L 43.4504955 19.608204345714284" />
<path class="stroke" d="M 33.6039614 9.458274314285715 L 33.6039614 33.05686127428572" />
<path class="stroke" d="M 13.331683400000001 33.20411108571428 L 59.668313999999995 33.20411108571428" />
<path class="stroke" d="M 50.980199500000005 14.786988242857145 C 41.32673295 35.8480912 26.8465341 49.04299964285715 11.40099035 55.132959028571435" />
<path class="stroke" d="M 24.680436296 48.941401066000005 L 24.680436296 83.463558208" />
<path class="stroke" d="M 24.680436296 48.941401066000005 L 48.182917999999994 48.941401066000005 L 48.182917999999994 83.463558208" />
<path class="stroke" d="M 24.81707966 65.2620716956 L 48.04627604 65.2620716956" />
<path class="stroke" d="M 24.680436296 81.9566398288 L 48.182917999999994 81.9566398288" />
<path class="stroke" d="M 66.7178261 20.61188076 L 87.6019787 20.61188076 C 87.6019787 25.63762272 86.28019520000001 35.96831578 79.1425732 42.66930882" />
<path class="stroke" d="M 78.87822006 42.66930882 C 82.183988 46.08094199999999 88.9237622 53.2792082 88.9237622 61.655448559999996 L 88.9237622 65.2851467 C 88.9237622 68.63564979999998 86.80890860000001 70.5900978 83.37227505999999 70.5900978 L 72.7980213 70.3108896" />
<path class="stroke" d="M 66.7178261 20.61188076 L 66.7178261 90.6930694" />
</svg>
