<?xml version="1.0" standalone="no"?>
<!DOCTYPE svg PUBLIC "-//W3C//DTD SVG 1.1//EN" "http://www.w3.org/Graphics/SVG/1.1/DTD/svg11.dtd">
<svg xmlns="http://www.w3.org/2000/svg" version="1.1" width="100%" height="100%">
<style type="text/css"><![CDATA[
  .stroke { fill:none; stroke:black; stroke-width:2 }
]]></style>
<path class="stroke" d="M 19.107562400000003 13.9985382 L 19.107562400000003 76.0189776" />
<path class="stroke" d="M 7.03795544 39.8613096 L 7.03795544 78.7810181 M 7.03795544 76.0189776 L 30.862770000000005 76.0189776" />
<path class="stroke" d="M 30.862770000000005 39.6102154 L 30.862770000000005 79.03211144" />
<path class="stroke" d="M 50.977228280000006 9.21386169 C 53.5643569 11.56633632 54.75841482 13.91881194 56.74851515 18.3297015" />
<path class="stroke" d="M 79.8336633 9.21386169 C 78.24158249999999 13.33069353 76.8485118 16.27128756 74.46039529000001 18.03564279" />
<path class="stroke" d="M 45.00693064 21.858415920000002 L 88.19207812 21.858415920000002" />
<path class="stroke" d="M 66.07728561 22.15247364 L 66.07728561 47.14752636" />
<path class="stroke" d="M 47.793069360000004 34.79702886 L 84.8089158 34.79702886" />
<path class="stroke" d="M 39.83267273 47.14752636 L 92.76930908 47.14752636" />
<path class="stroke" d="M 57.75088875 49.14090324 C 54.83838669 66.05103186000001 48.463868670000004 82.18666764 41.59478814 88.8345513" />
<path class="stroke" d="M 59.411267500799994 59.59801984 L 85.52136646400001 59.59801984" />
<path class="stroke" d="M 72.25947008 59.74059328 L 72.25947008 87.4" />
<path class="stroke" d="M 55.4629105472 87.4 L 89.724455488 87.4" />
</svg>
