<?xml version="1.0" standalone="no"?>
<!DOCTYPE svg PUBLIC "-//W3C//DTD SVG 1.1//EN" "http://www.w3.org/Graphics/SVG/1.1/DTD/svg11.dtd">
<svg xmlns="http://www.w3.org/2000/svg" version="1.1" width="100%" height="100%">
<style type="text/css"><![CDATA[
  .stroke { fill:none; stroke:black; stroke-width:2 }
]]></style>
<path class="stroke" d="M 50.2720696 6.9065688000000005 L 50.2720696 24.2145984" />
<path class="stroke" d="M 19.74306376 14.1240864 L 19.74306376 24.9854004 M 19.74306376 24.2145984 L 80.00583 24.2145984" />
<path class="stroke" d="M 80.00583 14.054013600000001 L 80.00583 25.055472959999996" />
<path class="stroke" d="M 7.4779171 43.5385719 L 49.367532 43.5385719" />
<path class="stroke" d="M 17.2160791 32.044457268 L 17.2160791 92.60971402000001" />
<path class="stroke" d="M 38.8564881 32.044457268 L 38.8564881 92.60971402000001" />
<path class="stroke" d="M 17.2160791 66.74792807 L 38.8564881 66.74792807" />
<path class="stroke" d="M 17.2160791 92.60971402000001 L 38.8564881 92.60971402000001" />
<path class="stroke" d="M 60.3853996 31.93649603 C 59.47445164 40.029925989999995 57.045255 48.123355950000004 54.00875868 53.74379462" />
<path class="stroke" d="M 58.10802944 43.17736952 L 88.62481600000001 43.17736952 C 88.32116511999999 49.4722612 86.802918 53.74379462 83.918244 58.0153265" />
<path class="stroke" d="M 72.22773608 46.77445224 C 72.22773608 71.05473904 62.813888000000006 84.33281000000001 51.12408676 92.4124046" />
<path class="stroke" d="M 72.0759096 60.26350089 C 75.56788276 72.17882739000001 80.7299238 84.76860690000001 93.02773400000001 92.4124046" />
</svg>
