<?xml version="1.0" standalone="no"?>
<!DOCTYPE svg PUBLIC "-//W3C//DTD SVG 1.1//EN" "http://www.w3.org/Graphics/SVG/1.1/DTD/svg11.dtd">
<svg xmlns="http://www.w3.org/2000/svg" version="1.1" width="100%" height="100%">
<style type="text/css"><![CDATA[
  .stroke { fill:none; stroke:black; stroke-width:2 }
]]></style>
<path class="stroke" d="M 50.284724000000004 6.6043792 L 50.284724000000004 18.1430656" />
<path class="stroke" d="M 18.335764400000002 11.4160576 L 18.335764400000002 18.656933600000002 M 18.335764400000002 18.1430656 L 81.40145000000001 18.1430656" />
<path class="stroke" d="M 81.40145000000001 11.3693424 L 81.40145000000001 18.703648639999997" />
<path class="stroke" d="M 26.5715302 28.993867112 C 20.991968800000002 41.442334308 14.69707943 51.205838696 6.82846637 57.063938988000004" />
<path class="stroke" d="M 26.5715302 28.993867112 C 32.294158859999996 40.95415796 38.159851839999995 51.205838696 46.3145955 56.819852904" />
<path class="stroke" d="M 16.988992278399998 52.35 L 36.011005839999996 52.35" />
<path class="stroke" d="M 12.124566199999999 62.481167232000004 L 41.339101199999995 62.481167232000004 L 41.339101199999995 82.7733454368 C 41.2875532 85.567212992 40.1540362 87.258228192 38.402188200000005 87.18474227200001 L 34.8469932 87.18474227200001" />
<path class="stroke" d="M 25.727142599999997 62.70172288 L 25.727142599999997 92.69894112000001" />
<path class="stroke" d="M 59.97737183 28.48904988 L 89.87809939999998 28.48904988" />
<path class="stroke" d="M 75.1423343 28.48904988 C 74.5700731 32.26131216 73.42554678 35.36788132 71.806576 37.767196" />
<path class="stroke" d="M 61.241 38.008116 L 61.241 79.30364624" />
<path class="stroke" d="M 61.241 38.008116 L 88.742593 38.008116 L 88.742593 79.08174980000001" />
<path class="stroke" d="M 61.396379 51.9857016 L 88.742593 51.9857016" />
<path class="stroke" d="M 61.396379 66.44516519999999 L 88.742593 66.44516519999999" />
<path class="stroke" d="M 61.26496296 79.30364624 L 88.8766374 79.30364624" />
<path class="stroke" d="M 66.70145857 84.1853968 C 64.12627631000001 87.07006799999999 61.12189717 89.0671504 57.54525438 89.2890476" />
<path class="stroke" d="M 83.8693421 84.40729400000001 C 86.8737232 85.2948828 89.30583820000001 86.62627359999999 92.16715154999999 89.9547392" />
</svg>
