<?xml version="1.0" standalone="no"?>
<!DOCTYPE svg PUBLIC "-//W3C//DTD SVG 1.1//EN" "http://www.w3.org/Graphics/SVG/1.1/DTD/svg11.dtd">
<svg xmlns="http://www.w3.org/2000/svg" version="1.1" width="100%" height="100%">
<style type="text/css"><![CDATA[
  .stroke { fill:none; stroke:black; stroke-width:2 }
]]></style>
<path class="stroke" d="M 15.5980716 13.672990800000001 L 15.5980716 74.2510944" />
<path class="stroke" d="M 4.59342996 38.9343024 L 4.59342996 76.9489014 M 4.59342996 74.2510944 L 26.316055000000002 74.2510944" />
<path class="stroke" d="M 26.316055000000002 38.6890476 L 26.316055000000002 77.19415536" />
<path class="stroke" d="M 60.1293 6.7145166 C 52.253389999999996 11.086713 43.93585 13.272831 36.05994 14.209767000000001" />
<path class="stroke" d="M 32.747631 30.7618443 L 93.9148 30.7618443" />
<path class="stroke" d="M 48.867525 11.71143072 L 48.867525 87.60096675 C 48.720315 91.03626774 47.027365 93.22238376 45.113564999999994 93.22238376 L 41.359605 93.22238376" />
<path class="stroke" d="M 34.072549 60.1182747 C 40.844398 55.5378417 50.266048 52.5189357 59.246067999999994 51.68604869999999" />
<path class="stroke" d="M 69.18303 6.4022013 L 69.18303 39.194001 C 69.47745 66.884796 81.91693999999998 92.389671 90.82332 92.597769 L 90.82332 81.97962299999999" />
<path class="stroke" d="M 91.26495 44.19088443 C 85.08198999999999 68.1340374 74.70344 86.76810846 59.68767 92.9100744" />
<path class="stroke" d="M 80.00318200000001 10.7744472 C 82.505822 13.272870600000001 84.125132 15.4589886 85.74444199999999 19.5189786" />
</svg>
