<?xml version="1.0" standalone="no"?>
<!DOCTYPE svg PUBLIC "-//W3C//DTD SVG 1.1//EN" "http://www.w3.org/Graphics/SVG/1.1/DTD/svg11.dtd">
<svg xmlns="http://www.w3.org/2000/svg" version="1.1" width="100%" height="100%">
<style type="text/css"><![CDATA[
  .stroke { fill:none; stroke:black; stroke-width:2 }
]]></style>
<path class="stroke" d="M 22.1202168 13.021896000000002 L 22.1202168 70.715328" />
<path class="stroke" d="M 8.63065608 37.080288 L 8.63065608 73.284668 M 8.63065608 70.715328 L 35.25839 70.715328" />
<path class="stroke" d="M 35.25839 36.846712000000004 L 35.25839 73.5182432" />
<path class="stroke" d="M 47.54233521 17.8469366528 L 87.45765975 17.8469366528" />
<path class="stroke" d="M 67.5 7.142025843680001 L 67.5 31.801550345600003" />
<path class="stroke" d="M 42.20802819 31.801550345600003 L 92.6080263 31.801550345600003" />
<path class="stroke" d="M 59.314597739999996 35.070528106880005 L 59.314597739999996 40.51856260736 C 59.314597739999996 45.3222064352 54.532116540000004 50.06726900096 42.57591228 51.297470288" />
<path class="stroke" d="M 70.16715162 35.01194744672 L 70.16715162 48.8370681152 C 70.16715162 50.301593647999994 72.55839474000001 51.1803085664 75.13357329 51.1803085664 L 89.481015 51.1803085664 C 91.50437969999999 51.2388894272 92.9759085 50.770240534399996 92.9759085 50.1258490592 L 92.9759085 49.01281150016" />
<path class="stroke" d="M 63.17737029 56.41167776 C 58.94671365 62.718248 51.77299185 69.305108 44.415327059999996 73.50948799999999" />
<path class="stroke" d="M 60.97007079 60.05547392 L 77.3408772 60.05547392 C 70.71897870000001 71.54744336 56.55547305 84.8613104 42.391970549999996 92.14890079999999" />
<path class="stroke" d="M 53.980291980000004 66.92262751999999 C 61.2 77.09677472 76.05328130999999 86.68321040000001 91.6883208 92.14890079999999" />
</svg>
