<?xml version="1.0" standalone="no"?>
<!DOCTYPE svg PUBLIC "-//W3C//DTD SVG 1.1//EN" "http://www.w3.org/Graphics/SVG/1.1/DTD/svg11.dtd">
<svg xmlns="http://www.w3.org/2000/svg" version="1.1" width="100%" height="100%">
<style type="text/css"><![CDATA[
  .stroke { fill:none; stroke:black; stroke-width:2 }
]]></style>
<path class="stroke" d="M 12.46055 7.722400319999999 L 89.74765 7.722400319999999 L 89.74765 22.258805759999998" />
<path class="stroke" d="M 12.46055 22.258805759999998 L 89.74765 22.258805759999998" />
<path class="stroke" d="M 12.14511 7.722400319999999 L 12.14511 55.8737856 C 12.25031 70.00623359999999 10.46261 77.7791616 6.15142 90.3974928" />
<path class="stroke" d="M 24.9037875 32.063064 L 91.859625 32.063064" />
<path class="stroke" d="M 40.5189225 32.063064 C 38.7050475 45.766536 34.7618475 57.425855999999996 25.85016 66.586776" />
<path class="stroke" d="M 37.9163475 46.372271999999995 L 56.3706975 46.372271999999995 C 53.610397500000005 65.148288 43.5157725 80.97158400000001 26.3233425 91.116672" />
<path class="stroke" d="M 33.1845975 57.501599999999996 C 38.7839475 60.681408 44.1466725 65.90536800000001 47.3801475 70.67508" />
<path class="stroke" d="M 87.83757 47.280726959999996 L 62.995242000000005 59.77287168" />
<path class="stroke" d="M 62.758649999999996 32.063064 L 62.522025 86.34696 C 62.285475 89.37535199999999 64.17817500000001 91.26808799999999 66.780675 91.343832 L 86.65455 91.343832 C 89.0205 91.49524799999999 90.9132 89.8296 90.9132 87.028368 L 90.9132 82.712904" />
</svg>
