<?xml version="1.0" standalone="no"?>
<!DOCTYPE svg PUBLIC "-//W3C//DTD SVG 1.1//EN" "http://www.w3.org/Graphics/SVG/1.1/DTD/svg11.dtd">
<svg xmlns="http://www.w3.org/2000/svg" version="1.1" width="100%" height="100%">
<style type="text/css"><![CDATA[
  .stroke { fill:none; stroke:black; stroke-width:2 }
]]></style>
<path class="stroke" d="M 12.46055 8.044167 L 89.74765 8.044167 L 89.74765 20.662558" />
<path class="stroke" d="M 12.46055 20.662558 L 89.74765 20.662558" />
<path class="stroke" d="M 12.14511 8.044167 L 12.14511 58.20186 C 12.25031 72.92316 10.46261 81.01996 6.15142 94.164055" />
<path class="stroke" d="M 30.6584161 31.753891547200002 C 36.60197944 33.2263265977 40.9950514 35.6803859791 44.09603851 38.6252569063" />
<path class="stroke" d="M 81.5663356 31.263079175199998 C 78.9821746 34.4533571146 75.8811901 37.030118349700004 69.4207963 38.747960412400005" />
<path class="stroke" d="M 26.265345879999998 42.5517521644 L 86.9930737 42.5517521644" />
<path class="stroke" d="M 56.5 27.827395876000004 L 56.5 58.87124535700001" />
<path class="stroke" d="M 51.80072719 42.7661089282 C 45.9049486 49.7912280418 35.82673375 56.294486187400004 22.90594093 60.957197938" />
<path class="stroke" d="M 61.70729539 42.886720909000005 C 67.61188186 49.7912280418 78.2069263 56.417187628 89.8356421 60.957197938" />
<path class="stroke" d="M 52.88217721 63.226000000000006 C 51.073266249999996 68.3265935791 45.12970465 74.70233694820001 38.66930737 79.2928714699 C 52.816787139999995 80.80536277000002 72.88394005 85.693741768 83.04452649999999 91.83555398620001" />
<path class="stroke" d="M 72.78019689999999 67.81653495100001 C 66.31980483999999 82.35322967800002 52.88217721 87.83636948200001 33.00364813 91.459524106" />
<path class="stroke" d="M 21.57299131 69.9005172799 L 91.1729887 69.9005172799" />
</svg>
