<?xml version="1.0" standalone="no"?>
<!DOCTYPE svg PUBLIC "-//W3C//DTD SVG 1.1//EN" "http://www.w3.org/Graphics/SVG/1.1/DTD/svg11.dtd">
<svg xmlns="http://www.w3.org/2000/svg" version="1.1" width="100%" height="100%">
<style type="text/css"><![CDATA[
  .stroke { fill:none; stroke:black; stroke-width:2 }
]]></style>
<path class="stroke" d="M 12.46055 8.044167 L 89.74765 8.044167 L 89.74765 20.662558" />
<path class="stroke" d="M 12.46055 20.662558 L 89.74765 20.662558" />
<path class="stroke" d="M 12.14511 8.044167 L 12.14511 58.20186 C 12.25031 72.92316 10.46261 81.01996 6.15142 94.164055" />
<path class="stroke" d="M 52.529956 30.424478304210524 L 52.529956 44.513437631578945" />
<path class="stroke" d="M 30.294889719999997 32.46812099894737 C 33.72846532 35.254905450526316 35.4452548 37.85590414473684 37.652551360000004 41.75740186789474" />
<path class="stroke" d="M 73.45984959999998 32.46812099894737 C 71.98831744 37.298546872631576 69.7810192 39.15640444631579 66.59269839999999 41.5716173831579" />
<path class="stroke" d="M 32.335766 47.7371523994 L 32.335766 76.03350082 C 32.335766 82.30712997399999 32.335766 84.93904786000002 32.335766 91.0253685628" />
<path class="stroke" d="M 32.335766 47.7371523994 L 73.21168 47.7371523994 L 73.21168 89.939136382 C 73.21168 91.232685808 72.04379 92.36453671 69.124084 92.36453671 L 65.91241 92.36453671" />
<path class="stroke" d="M 32.335766 59.925495142600006 L 73.21168 59.925495142600006" />
<path class="stroke" d="M 32.335766 72.80010407680001 L 73.21168 72.80010407680001" />
</svg>
