<?xml version="1.0" standalone="no"?>
<!DOCTYPE svg PUBLIC "-//W3C//DTD SVG 1.1//EN" "http://www.w3.org/Graphics/SVG/1.1/DTD/svg11.dtd">
<svg xmlns="http://www.w3.org/2000/svg" version="1.1" width="100%" height="100%">
<style type="text/css"><![CDATA[
  .stroke { fill:none; stroke:black; stroke-width:2 }
]]></style>
<path class="stroke" d="M 19.40061 8.044167 L 87.85491 8.044167 L 87.85491 33.280758" />
<path class="stroke" d="M 19.40061 33.280758 L 87.85491 33.280758" />
<path class="stroke" d="M 19.40061 8.044167 L 19.40061 58.20186 C 19.50581 72.92316 17.40271 81.01996 6.15142 94.164055" />
<path class="stroke" d="M 36.38965 59.427434 L 53.660875000000004 59.427434" />
<path class="stroke" d="M 36.153017500000004 40.81545625 L 36.153017500000004 89.02048880000001 M 23.85016 92.184529 L 52.004725 85.484194" />
<path class="stroke" d="M 87.7303 54.216082 C 79.6861 59.303357000000005 72.3517 61.412724999999995 61.231825 61.660878999999994" />
<path class="stroke" d="M 60.9952 40.8154533 L 60.9952 88.276015 C 60.916375 90.13722899999999 62.493625 92.184529 65.0173 92.184529 L 84.418 91.998443 C 87.5725 91.75022999999999 89.071 90.199297 89.149825 88.089929 L 89.149825 82.692432" />
</svg>
