<?xml version="1.0" standalone="no"?>
<!DOCTYPE svg PUBLIC "-//W3C//DTD SVG 1.1//EN" "http://www.w3.org/Graphics/SVG/1.1/DTD/svg11.dtd">
<svg xmlns="http://www.w3.org/2000/svg" version="1.1" width="100%" height="100%">
<style type="text/css"><![CDATA[
  .stroke { fill:none; stroke:black; stroke-width:2 }
]]></style>
<path class="stroke" d="M 12.46055 8.044167 L 89.74765 8.044167 L 89.74765 20.662558" />
<path class="stroke" d="M 12.46055 20.662558 L 89.74765 20.662558" />
<path class="stroke" d="M 12.14511 8.044167 L 12.14511 58.20186 C 12.25031 72.92316 10.46261 81.01996 6.15142 94.164055" />
<path class="stroke" d="M 39.629702800000004 36.18104725714286 L 66.1960402 36.18104725714286" />
<path class="stroke" d="M 53.16831816 27.355021142857144 L 53.16831816 47.875531542857146" />
<path class="stroke" d="M 26.34653496 48.00357485714285 L 87.6534616 48.00357485714285" />
<path class="stroke" d="M 76.1584178 31.98868542857143 C 63.38613898 50.302688 44.22772204 61.776521428571435 23.79207954 67.07213828571429" />
<path class="stroke" d="M 41.3618080224 61.68817484 L 41.3618080224 91.70744192" />
<path class="stroke" d="M 41.3618080224 61.68817484 L 72.4573992 61.68817484 L 72.4573992 91.70744192" />
<path class="stroke" d="M 41.542597704 75.88006234400001 L 72.276611376 75.88006234400001" />
<path class="stroke" d="M 41.3618080224 90.397078112 L 72.4573992 90.397078112" />
</svg>
