<?xml version="1.0" standalone="no"?>
<!DOCTYPE svg PUBLIC "-//W3C//DTD SVG 1.1//EN" "http://www.w3.org/Graphics/SVG/1.1/DTD/svg11.dtd">
<svg xmlns="http://www.w3.org/2000/svg" version="1.1" width="100%" height="100%">
<style type="text/css"><![CDATA[
  .stroke { fill:none; stroke:black; stroke-width:2 }
]]></style>
<path class="stroke" d="M 50.555192 11.419544000000002 L 50.555192 17.22396" />
<path class="stroke" d="M 11.690851760000001 17.35012 L 11.690851760000001 22.397440000000003" />
<path class="stroke" d="M 11.690851760000001 17.35012 L 88.8643684 17.35012 L 88.8643684 22.397440000000003" />
<path class="stroke" d="M 19.70297 33.663709677419355 L 80.89109 33.663709677419355" />
<path class="stroke" d="M 36.930695 25.60491877419355 L 36.930695 55.959439354838715" />
<path class="stroke" d="M 62.93375 25.815713548387098 L 62.93375 55.959439354838715" />
<path class="stroke" d="M 20.29703 44.78729006451613 L 80.0 44.78729006451613" />
<path class="stroke" d="M 14.059406 56.170232 L 85.9406 56.170232" />
<path class="stroke" d="M 36.1198 57.394187096774196 C 33.366337 65.86681574193548 24.455444 72.82305677419355 9.60396 75.7741935483871" />
<path class="stroke" d="M 63.2492 57.394187096774196 C 64.85149 65.86681574193548 74.0594 72.6122655483871 90.09901 75.7741935483871" />
<path class="stroke" d="M 28.881187699999998 80.45940551999999 L 70.851488 80.45940551999999" />
<path class="stroke" d="M 50.0 69.36423279499999 L 50.0 93.07722753" />
<path class="stroke" d="M 14.178217100000001 93.07722753 L 86.08910900000001 93.07722753" />
</svg>
