<?xml version="1.0" standalone="no"?>
<!DOCTYPE svg PUBLIC "-//W3C//DTD SVG 1.1//EN" "http://www.w3.org/Graphics/SVG/1.1/DTD/svg11.dtd">
<svg xmlns="http://www.w3.org/2000/svg" version="1.1" width="100%" height="100%">
<style type="text/css"><![CDATA[
  .stroke { fill:none; stroke:black; stroke-width:2 }
]]></style>
<path class="stroke" d="M 50.605664 11.134055400000001 L 50.605664 16.793361" />
<path class="stroke" d="M 8.20820192 16.916367 L 8.20820192 21.837504000000003" />
<path class="stroke" d="M 8.20820192 16.916367 L 92.3974928 16.916367 L 92.3974928 21.837504000000003" />
<path class="stroke" d="M 16.87699 28.033135 L 16.87699 53.3485825" />
<path class="stroke" d="M 16.87699 28.033135 L 82.17659 28.033135 L 82.17659 53.3485825" />
<path class="stroke" d="M 17.50784 41.04572425 L 81.54574 41.04572425" />
<path class="stroke" d="M 16.87699 53.3485825 L 82.17659 53.3485825" />
<path class="stroke" d="M 8.35962 63.5221 L 8.35962 92.38645" />
<path class="stroke" d="M 8.35962 63.5221 L 91.3249 63.5221 L 91.3249 87.891175 C 91.4301 90.41485 89.327 91.9921 86.9085 91.913275 L 82.1767 91.913275" />
<path class="stroke" d="M 49.3691 28.50631 L 49.3691 78.19088500000001" />
<path class="stroke" d="M 25.0789 84.1056175 C 39.5899 79.37379250000001 55.9936 77.0078425 71.1356 76.0614925" />
<path class="stroke" d="M 65.7729 70.6198675 C 70.715 74.4053425 73.4491 78.4273675 74.6057 82.9227175" />
</svg>
