<?xml version="1.0" standalone="no"?>
<!DOCTYPE svg PUBLIC "-//W3C//DTD SVG 1.1//EN" "http://www.w3.org/Graphics/SVG/1.1/DTD/svg11.dtd">
<svg xmlns="http://www.w3.org/2000/svg" version="1.1" width="100%" height="100%">
<style type="text/css"><![CDATA[
  .stroke { fill:none; stroke:black; stroke-width:2 }
]]></style>
<path class="stroke" d="M 49.593045999999994 11.134055400000001 L 49.593045999999994 16.793361" />
<path class="stroke" d="M 8.078864379999999 16.916367 L 8.078864379999999 21.837504000000003" />
<path class="stroke" d="M 8.078864379999999 16.916367 L 90.5142117 16.916367 L 90.5142117 21.837504000000003" />
<path class="stroke" d="M 46.35036 25.36204364 C 41.7939 46.353714 31.3283 64.120736 9.270073 76.8364924" />
<path class="stroke" d="M 9.854013 39.858002 L 90.43795 39.858002" />
<path class="stroke" d="M 38.80875876 55.244159863 L 38.80875876 78.28795389999999 C 38.80875876 83.39703073 38.80875876 85.54039470000001 38.80875876 90.496932506" />
<path class="stroke" d="M 38.80875876 55.244159863 L 73.9620448 55.244159863 L 73.9620448 89.61233389 C 73.9620448 90.66576616 72.9576594 91.58751545 70.44671224 91.58751545 L 67.6846726 91.58751545" />
<path class="stroke" d="M 38.80875876 65.170022227 L 73.9620448 65.170022227" />
<path class="stroke" d="M 38.80875876 75.654761536 L 73.9620448 75.654761536" />
</svg>
