<?xml version="1.0" standalone="no"?>
<!DOCTYPE svg PUBLIC "-//W3C//DTD SVG 1.1//EN" "http://www.w3.org/Graphics/SVG/1.1/DTD/svg11.dtd">
<svg xmlns="http://www.w3.org/2000/svg" version="1.1" width="100%" height="100%">
<style type="text/css"><![CDATA[
  .stroke { fill:none; stroke:black; stroke-width:2 }
]]></style>
<path class="stroke" d="M 28.346771649999997 7.1806449599999995 L 28.346771649999997 24.21290208 C 28.346771649999997 36.29032128 24.669353949999998 40.47096672 13.33064415 45.4258032" />
<path class="stroke" d="M 11.94967 7.2264144 L 66.022055 7.2264144 L 66.022055 23.377344 L 88.128935 23.377344 L 88.128935 36.358464 C 88.32805499999999 42.748416 84.781078 46.92648192 79.23513 47.0821584 L 77.69459099999999 47.2378344" />
<path class="stroke" d="M 31.751823 39.6291952 L 68.24817 39.6291952 C 63.868607 46.881748400000006 57.44525 51.9853978 50.14598 53.865689200000006" />
<path class="stroke" d="M 50.14598 53.865689200000006 C 50.14598 68.3708048 50.14598 82.07007399999999 48.10219 87.71094728000001 C 46.934303 90.1284598 45.47445 91.202914 41.970802 91.202914 L 36.131386 91.202914" />
<path class="stroke" d="M 9.854013 57.89488808 L 89.85401 57.89488808" />
</svg>
