<?xml version="1.0" standalone="no"?>
<!DOCTYPE svg PUBLIC "-//W3C//DTD SVG 1.1//EN" "http://www.w3.org/Graphics/SVG/1.1/DTD/svg11.dtd">
<svg xmlns="http://www.w3.org/2000/svg" version="1.1" width="100%" height="100%">
<style type="text/css"><![CDATA[
  .stroke { fill:none; stroke:black; stroke-width:2 }
]]></style>
<path class="stroke" d="M 27.264611930232558 7.5135136 C 26.429440023255815 26.491615 20.52454565116279 60.213448 15.513513255813955 70.43243 C 24.172216488372094 73.99999 26.336893488372095 75.62162 31.903203186046515 81.78378" />
<path class="stroke" d="M 38.894773953488375 26.831684 C 34.06788209302326 87.62162 22.969869558139536 80.905495 9.328723325581395 90.540535" />
<path class="stroke" d="M 10.565680453488373 29.891891 L 40.594059 29.80198" />
<path class="stroke" d="M 46.6817516 17.220765315999998 L 90.9912364 17.220765315999998" />
<path class="stroke" d="M 69.00002352 9.078430300299999 L 69.00002352 26.861291123999997" />
<path class="stroke" d="M 50.769341680000004 26.861291123999997 L 87.06715120000001 26.861291123999997" />
<path class="stroke" d="M 52.2176904 37.52374433 L 52.2176904 50.65085326999999" />
<path class="stroke" d="M 52.2176904 37.52374433 L 86.13560240000001 37.52374433 L 86.13560240000001 50.65085326999999" />
<path class="stroke" d="M 52.2176904 50.65085326999999 L 86.13560240000001 50.65085326999999" />
<path class="stroke" d="M 57.164048320000006 50.75184482 L 62.817024880000005 63.87898577" />
<path class="stroke" d="M 81.1892792 50.75184482 L 75.8896072 63.77799422" />
<path class="stroke" d="M 44.9747624 63.87898577 L 92.67192800000001 63.87898577" />
<path class="stroke" d="M 56.581897464 74.2312770625 L 56.581897464 88.95828387499999" />
<path class="stroke" d="M 56.581897464 74.2312770625 L 81.5325536 74.2312770625 L 81.5325536 88.816678425" />
<path class="stroke" d="M 56.581897464 87.82543688 L 81.5325536 87.82543688" />
</svg>
