<?xml version="1.0" standalone="no"?>
<!DOCTYPE svg PUBLIC "-//W3C//DTD SVG 1.1//EN" "http://www.w3.org/Graphics/SVG/1.1/DTD/svg11.dtd">
<svg xmlns="http://www.w3.org/2000/svg" version="1.1" width="100%" height="100%">
<style type="text/css"><![CDATA[
  .stroke { fill:none; stroke:black; stroke-width:2 }
]]></style>
<path class="stroke" d="M 23.939659255813954 7.5135136 C 23.20633758139535 26.491615 18.021552279069766 60.213448 13.621621395348837 70.43243 C 21.224385209302326 73.99999 23.125077209302326 75.62162 28.01256865116279 81.78378" />
<path class="stroke" d="M 34.151508837209306 26.831684 C 29.9132623255814 87.62162 20.16866595348837 80.905495 8.191074139534884 90.540535" />
<path class="stroke" d="M 9.277182837209303 29.891891 L 35.643564000000005 29.80198" />
<path class="stroke" d="M 52.2653464 24.893918857142854 L 73.2712876 24.893918857142854" />
<path class="stroke" d="M 62.970298080000006 11.315417142857143 L 62.970298080000006 42.885433142857146" />
<path class="stroke" d="M 41.76237648 43.08242285714285 L 90.2376208 43.08242285714285" />
<path class="stroke" d="M 81.1485164 18.444131428571428 C 71.04950524 46.619519999999994 55.900989519999996 64.27157142857142 39.74257452 72.41867428571429" />
<path class="stroke" d="M 83.80433120000001 61.9874 C 76.4395232 67.6656 68.0020832 70.5048 58.921159200000005 71.451" />
<path class="stroke" d="M 58.2776344 58.20177 L 58.2776344 83.753876 C 58.2061664 89.852776 60.065286400000005 92.796974 63.425914399999996 92.90217 L 83.80442640000001 92.90217 C 88.16615039999999 93.00737 89.7392624 89.64247 89.59619040000001 83.438576 L 89.59619040000001 80.283875" />
</svg>
