<?xml version="1.0" standalone="no"?>
<!DOCTYPE svg PUBLIC "-//W3C//DTD SVG 1.1//EN" "http://www.w3.org/Graphics/SVG/1.1/DTD/svg11.dtd">
<svg xmlns="http://www.w3.org/2000/svg" version="1.1" width="100%" height="100%">
<style type="text/css"><![CDATA[
  .stroke { fill:none; stroke:black; stroke-width:2 }
]]></style>
<path class="stroke" d="M 24.604649790697675 7.5135136 C 23.85095806976744 26.491615 18.52215095348837 60.213448 13.99999976744186 70.43243 C 21.81395146511628 73.99999 23.767440465116277 75.62162 28.790695558139536 81.78378" />
<path class="stroke" d="M 35.100161860465114 26.831684 C 30.74418627906977 87.62162 20.728906674418603 80.905495 8.418603976744185 90.540535" />
<path class="stroke" d="M 9.534882360465115 29.891891 L 36.633663 29.80198" />
<path class="stroke" d="M 54.494159769999996 11.2910565625 L 80.8503607 11.2910565625" />
<path class="stroke" d="M 45.70875887 23.334852291666664 C 45.70875887 29.6912996875 45.53649598 34.040447604166665 44.67518212 38.724147916666666" />
<path class="stroke" d="M 45.88102058 23.334852291666664 L 89.6357616 23.334852291666664 C 89.4634993 30.025847499999998 88.9467124 33.371346249999995 88.2576632 36.71684614583333" />
<path class="stroke" d="M 67.59772642 11.2910565625 L 67.59772642 53.109787499999996" />
<path class="stroke" d="M 53.97737228 31.3640490625 C 56.5613115 32.36769822916666 58.2839404 34.040447604166665 60.00656753 37.72049416666667" />
<path class="stroke" d="M 54.14963399 43.07329583333333 C 56.21678808 43.74239374999999 57.9394158 45.749694375 59.83430582 50.43339010416666" />
<path class="stroke" d="M 73.959851 31.3640490625 C 76.1992668 32.03314927083333 78.094158 33.70589979166667 80.5058361 37.38594635416666" />
<path class="stroke" d="M 73.959851 43.40784479166666 C 76.3715291 44.07694270833333 78.43868613999999 47.087891354166665 80.1613115 50.43339010416666" />
<path class="stroke" d="M 41.6293378 55.465295 L 93.37067400000001 55.465295" />
<path class="stroke" d="M 66.941624 55.60727 C 66.941624 59.53469 65.08041 62.752415 59.496826999999996 64.55048000000001" />
<path class="stroke" d="M 46.468447 64.55048000000001 L 46.468447 91.947965" />
<path class="stroke" d="M 46.468447 64.55048000000001 L 87.04262899999999 64.55048000000001 L 87.04262899999999 89.108825 C 87.166706 91.096205 85.987945 91.94792000000001 84.064663 91.94792000000001 L 81.459046 91.94792000000001" />
<path class="stroke" d="M 59.4968329 64.83439265 L 59.4968329 89.81861900000001" />
<path class="stroke" d="M 72.89749699999999 64.83439265 L 72.89749699999999 89.81861900000001" />
</svg>
