<?xml version="1.0" standalone="no"?>
<!DOCTYPE svg PUBLIC "-//W3C//DTD SVG 1.1//EN" "http://www.w3.org/Graphics/SVG/1.1/DTD/svg11.dtd">
<svg xmlns="http://www.w3.org/2000/svg" version="1.1" width="100%" height="100%">
<style type="text/css"><![CDATA[
  .stroke { fill:none; stroke:black; stroke-width:2 }
]]></style>
<path class="stroke" d="M 24.604649790697675 7.5135136 C 23.85095806976744 26.491615 18.52215095348837 60.213448 13.99999976744186 70.43243 C 21.81395146511628 73.99999 23.767440465116277 75.62162 28.790695558139536 81.78378" />
<path class="stroke" d="M 35.100161860465114 26.831684 C 30.74418627906977 87.62162 20.728906674418603 80.905495 8.418603976744185 90.540535" />
<path class="stroke" d="M 9.534882360465115 29.891891 L 36.633663 29.80198" />
<path class="stroke" d="M 70.3785336 6.46688 L 70.3785336 14.66882" />
<path class="stroke" d="M 49.886426 14.98422 L 93.432188 14.98422" />
<path class="stroke" d="M 49.886426 15.2997 L 49.886426 59.7792 C 50.069416 71.2408 47.507846 79.2323 42.7507904 87.5394" />
<path class="stroke" d="M 42.3848568 25.07884 C 44.0925334 28.65404 45.068366 32.22924 45.861226 36.43534" />
<path class="stroke" d="M 42.5678178 58.20189 C 43.7265998 57.04519 45.068366 54.62679 46.044157999999996 52.20829" />
<path class="stroke" d="M 64.65547408 25.609487925 C 64.384524528 31.565692499999997 62.487883232 38.5145955 60.997662784 41.2445252" />
<path class="stroke" d="M 63.43620272 35.53649555 L 85.38306399999999 35.53649555" />
<path class="stroke" d="M 58.55912377599999 56.1620014 L 88.6344512 56.1620014" />
<path class="stroke" d="M 73.3258384 36.281020749999996 L 73.3258384 46.70437695 C 73.34853867199999 69.62972099999999 60.59124008 88.39780599999999 55.578685199999995 91.8722575" />
<path class="stroke" d="M 73.34853867199999 56.94864749999999 C 77.11912284799999 74.0036425 83.75737039999999 85.66787799999999 92.02131016 91.624083" />
</svg>
