<?xml version="1.0" standalone="no"?>
<!DOCTYPE svg PUBLIC "-//W3C//DTD SVG 1.1//EN" "http://www.w3.org/Graphics/SVG/1.1/DTD/svg11.dtd">
<svg xmlns="http://www.w3.org/2000/svg" version="1.1" width="100%" height="100%">
<style type="text/css"><![CDATA[
  .stroke { fill:none; stroke:black; stroke-width:2 }
]]></style>
<path class="stroke" d="M 29.25958353488372 7.5135136 C 28.363301488372095 26.491615 22.026341674418603 60.213448 16.648648372093025 70.43243 C 25.940915255813955 73.99999 28.263983255813955 75.62162 34.237583906976745 81.78378" />
<path class="stroke" d="M 41.740733023255814 26.831684 C 36.56065395348838 87.62162 24.650591720930233 80.905495 10.011312837209303 90.540535" />
<path class="stroke" d="M 11.338779023255814 29.891891 L 43.564356000000004 29.80198" />
<path class="stroke" d="M 47.3627776 11.1987 L 92.637212 11.1987" />
<path class="stroke" d="M 67.047336 11.5142 C 64.368088 24.8686 61.360668000000004 33.4911 56.876968000000005 43.0599 M 51.135648 44.95273 C 63.001112 43.16513 74.046276 40.43113 84.435356 35.17353" />
<path class="stroke" d="M 80.826504 26.65623 C 83.45115200000001 31.07253 85.41956 37.06623 86.895892 43.05993" />
<path class="stroke" d="M 56.712952200000004 65.77287 L 85.09148680000001 65.77287" />
<path class="stroke" d="M 70.49212800000001 50.31547 L 70.49212800000001 92.58677" />
<path class="stroke" d="M 47.5268116 92.58677 L 91.981076 92.58677" />
</svg>
