<?xml version="1.0" standalone="no"?>
<!DOCTYPE svg PUBLIC "-//W3C//DTD SVG 1.1//EN" "http://www.w3.org/Graphics/SVG/1.1/DTD/svg11.dtd">
<svg xmlns="http://www.w3.org/2000/svg" version="1.1" width="100%" height="100%">
<style type="text/css"><![CDATA[
  .stroke { fill:none; stroke:black; stroke-width:2 }
]]></style>
<path class="stroke" d="M 16.35318867924528 5.5205 L 16.35318867924528 16.877" />
<path class="stroke" d="M 4.895542452830188 17.1924 L 28.506641509433962 17.1924 C 23.22778301886792 37.2765 15.311509433962263 51.9978 4.270581132075471 60.7256" />
<path class="stroke" d="M 16.35318867924528 47.1609 L 16.35318867924528 94.795" />
<path class="stroke" d="M 30.51907547169811 39.2744 C 29.82462264150943 43.2702 28.50525471698113 46.6351 26.769254716981127 48.4228" />
<path class="stroke" d="M 16.561537735849058 46.5299 C 21.838943396226412 50.6309 25.033188679245285 55.6783 28.435783018867923 63.5646" />
<path class="stroke" d="M 46.365926 6.7872963 L 46.365926 45.104454" />
<path class="stroke" d="M 46.365926 6.7872963 L 87.61336600000001 6.7872963 L 87.61336600000001 45.104454" />
<path class="stroke" d="M 46.365926 25.447298 L 87.61336600000001 25.447298" />
<path class="stroke" d="M 46.365926 45.104454 L 87.61336600000001 45.104454" />
<path class="stroke" d="M 38.3819929 58.717697 L 95.80102600000001 58.717697" />
<path class="stroke" d="M 67.089915 7.08985 L 67.089915 94.4864" />
<path class="stroke" d="M 67.20801804999999 60.98541 C 60.452804 76.800804 49.905564049999995 84.066444 38.779359480000004 90.9857" />
<path class="stroke" d="M 67.20801804999999 60.98541 C 74.2943278 76.62635 83.747569 85.044235 95.80102600000001 91.09132" />
</svg>
