<?xml version="1.0" standalone="no"?>
<!DOCTYPE svg PUBLIC "-//W3C//DTD SVG 1.1//EN" "http://www.w3.org/Graphics/SVG/1.1/DTD/svg11.dtd">
<svg xmlns="http://www.w3.org/2000/svg" version="1.1" width="100%" height="100%">
<style type="text/css"><![CDATA[
  .stroke { fill:none; stroke:black; stroke-width:2 }
]]></style>
<path class="stroke" d="M 23.939659255813954 7.5135136 C 23.20633758139535 26.491615 18.021552279069766 60.213448 13.621621395348837 70.43243 C 21.224385209302326 73.99999 23.125077209302326 75.62162 28.01256865116279 81.78378" />
<path class="stroke" d="M 34.151508837209306 26.831684 C 29.9132623255814 87.62162 20.16866595348837 80.905495 8.191074139534884 90.540535" />
<path class="stroke" d="M 9.277182837209303 29.891891 L 35.643564000000005 29.80198" />
<path class="stroke" d="M 60.54935005 6.5194798 C 59.941556500000004 11.506493 58.928570500000006 13.064934 57.712986 17.116882" />
<path class="stroke" d="M 44.7467535 17.116882 L 44.7467535 52.33766" />
<path class="stroke" d="M 44.7467535 17.116882 L 84.050648 17.116882 L 84.050648 52.64935" />
<path class="stroke" d="M 44.7467535 34.883118 L 83.84805275 34.883118" />
<path class="stroke" d="M 45.15194725 52.33766 L 83.84805275 52.33766" />
<path class="stroke" d="M 64.39870010000001 17.42857 C 64.39870010000001 64.49351 59.536366 64.181816 44.7467535 69.792206" />
<path class="stroke" d="M 38.46623315 77.27273 L 92.35714100000001 77.27273" />
<path class="stroke" d="M 68.0454536 53.272724 L 68.0454536 92.85714" />
</svg>
