<?xml version="1.0" standalone="no"?>
<!DOCTYPE svg PUBLIC "-//W3C//DTD SVG 1.1//EN" "http://www.w3.org/Graphics/SVG/1.1/DTD/svg11.dtd">
<svg xmlns="http://www.w3.org/2000/svg" version="1.1" width="100%" height="100%">
<style type="text/css"><![CDATA[
  .stroke { fill:none; stroke:black; stroke-width:2 }
]]></style>
<path class="stroke" d="M 45.247524 6.79009878 C 44.059406 15.45148494 36.633663 26.037624420000004 29.504951 31.00990122 C 45.766422 32.912406000000004 68.832115 39.061310399999996 80.51095 46.786860360000006" />
<path class="stroke" d="M 68.71287 16.5742578 C 61.287132 34.85940840000001 45.841583 41.7564396 22.992699 46.3138668" />
<path class="stroke" d="M 9.854013 19.19561922 L 89.85401 19.19561922" />
<path class="stroke" d="M 24.171286759999997 53.66435621 C 23.589108940000003 62.16534633 19.95049487 72.55544619 16.457425989999997 77.43564379 C 24.425546779999998 79.30291700000001 35.72773635 85.3379528 41.4503655 92.92043702000001" />
<path class="stroke" d="M 35.669306299999995 63.2673271 C 32.030694679999996 81.21386380000001 24.46237567 87.98317220000001 13.26642251 92.4562026" />
<path class="stroke" d="M 6.82846637 65.84014479 L 46.0284649 65.84014479" />
<path class="stroke" d="M 71.17128676 53.66435621 C 70.58910894 62.16534633 66.95049487 72.55544619 63.45742599 77.43564379 C 71.42554677999999 79.30291700000001 82.72773635 85.3379528 88.4503655 92.92043702000001" />
<path class="stroke" d="M 82.66930629999999 63.2673271 C 79.03069468 81.21386380000001 71.46237567 87.98317220000001 60.26642251 92.4562026" />
<path class="stroke" d="M 53.82846637 65.84014479 L 93.0284649 65.84014479" />
</svg>
