<?xml version="1.0" standalone="no"?>
<!DOCTYPE svg PUBLIC "-//W3C//DTD SVG 1.1//EN" "http://www.w3.org/Graphics/SVG/1.1/DTD/svg11.dtd">
<svg xmlns="http://www.w3.org/2000/svg" version="1.1" width="100%" height="100%">
<style type="text/css"><![CDATA[
  .stroke { fill:none; stroke:black; stroke-width:2 }
]]></style>
<path class="stroke" d="M 5.4963501 45.18248 L 24.5036475 45.18248" />
<path class="stroke" d="M 15.0 12.4817505 L 15.091370999999999 79.543144" />
<path class="stroke" d="M 4.3096445999999995 88.07107 L 25.873095 71.62437" />
<path class="stroke" d="M 32.6893 9.621452 L 93.257125 9.621452" />
<path class="stroke" d="M 32.6893 9.62145 L 32.6893 91.3249 L 94.4401 91.3249" />
<path class="stroke" d="M 49.22554537 17.6160654155 L 49.22554537 41.97728926400001" />
<path class="stroke" d="M 49.22554537 17.6160654155 L 78.6036475 17.6160654155 L 78.6036475 41.97728926400001" />
<path class="stroke" d="M 49.396349575 29.1330603973 L 78.43284505000001 29.1330603973" />
<path class="stroke" d="M 49.22554537 40.9139033404 L 78.6036475 40.9139033404" />
<path class="stroke" d="M 61.21980154 47.5897720707 C 60.52475251 55.3705839711 56.180692855000004 64.88046593729999 52.010396334999996 69.3472279293 C 61.52335687 71.05631139 75.016787275 76.580077176 81.84890575 83.5201962234" />
<path class="stroke" d="M 74.94702895 56.379208257 C 70.60297222 72.80536854600001 61.567326055 79.001201574 48.200728915 83.095290342" />
<path class="stroke" d="M 40.514597605 58.7340645993 L 87.31459585 58.7340645993" />
</svg>
