<?xml version="1.0" standalone="no"?>
<!DOCTYPE svg PUBLIC "-//W3C//DTD SVG 1.1//EN" "http://www.w3.org/Graphics/SVG/1.1/DTD/svg11.dtd">
<svg xmlns="http://www.w3.org/2000/svg" version="1.1" width="100%" height="100%">
<style type="text/css"><![CDATA[
  .stroke { fill:none; stroke:black; stroke-width:2 }
]]></style>
<path class="stroke" d="M 5.4963501 39.3087576 L 24.5036475 39.3087576" />
<path class="stroke" d="M 15.0 10.859122935 L 15.091370999999999 69.20253527999999" />
<path class="stroke" d="M 4.3096445999999995 76.6218309 L 25.873095 62.313201899999996" />
<path class="stroke" d="M 32.58043768 17.160192 L 87.41955888 17.160192" />
<path class="stroke" d="M 60.0 8.098204918272 L 60.0 27.582606213120005" />
<path class="stroke" d="M 43.089050240000006 30.34108532896 L 43.089050240000006 66.6133866496" />
<path class="stroke" d="M 43.089050240000006 30.34108532896 L 76.72408704 30.34108532896 L 76.72408704 66.482911096" />
<path class="stroke" d="M 43.089050240000006 41.42107541824 L 76.72408704 41.42107541824" />
<path class="stroke" d="M 43.089050240000006 53.8620769792 L 76.72408704 53.8620769792" />
<path class="stroke" d="M 43.089050240000006 65.3086266448 L 76.72408704 65.3086266448" />
<path class="stroke" d="M 27.6496336 78.4 L 92.35036000000001 78.4" />
<path class="stroke" d="M 45.3628 78.62725219999999 C 43.007360000000006 85.89742139999998 37.623599999999996 89.8318372 31.482640000000004 91.97010311999999" />
<path class="stroke" d="M 72.61832000000001 78.62717086 C 75.81488000000002 85.81177038 80.27336 89.40407014 86.4984 91.97002178" />
</svg>
