<?xml version="1.0" standalone="no"?>
<!DOCTYPE svg PUBLIC "-//W3C//DTD SVG 1.1//EN" "http://www.w3.org/Graphics/SVG/1.1/DTD/svg11.dtd">
<svg xmlns="http://www.w3.org/2000/svg" version="1.1" width="100%" height="100%">
<style type="text/css"><![CDATA[
  .stroke { fill:none; stroke:black; stroke-width:2 }
]]></style>
<path class="stroke" d="M 8.12992676 39.7605824 L 25.870071000000003 39.7605824" />
<path class="stroke" d="M 17.0 10.98394044 L 17.0852796 69.99796672" />
<path class="stroke" d="M 7.02233496 77.5025416 L 27.148222000000004 63.0294456" />
<path class="stroke" d="M 62.0 7.011307420000001 L 62.0 14.74" />
<path class="stroke" d="M 31.4 14.74 L 92.6 14.74" />
<path class="stroke" d="M 46.033868168 23.1164961 L 46.033868168 35.0195614" />
<path class="stroke" d="M 46.033868168 23.1164961 L 78.1132832 23.1164961 L 78.1132832 34.90510916" />
<path class="stroke" d="M 46.033868168 34.103940736 L 78.1132832 34.103940736" />
<path class="stroke" d="M 33.094889359999996 45.12715204 L 33.094889359999996 53.539413436" />
<path class="stroke" d="M 33.094889359999996 44.783793556 L 90.9051056 44.783793556 L 90.9051056 53.711091796" />
<path class="stroke" d="M 45.8951216768 55.172509985 L 77.51205296 55.172509985" />
<path class="stroke" d="M 58.3442898416 55.3127144592 C 53.2065392864 61.3415030082 44.492875999999995 64.5875873 35.09882432 67.0618178" />
<path class="stroke" d="M 52.0209048032 60.920890545999995 C 64.074858992 67.6506985848 66.44613201920001 86.718495071 62.098799264 91.06483089 C 59.529923648 93.588507584 54.787385038400004 93.027691608 53.0089312832 91.906054854" />
<path class="stroke" d="M 57.7514732768 65.96824777559999 C 52.218509422400004 71.29601491400001 44.7094878704 74.38050902459999 35.026802648 76.7639841256" />
<path class="stroke" d="M 61.901193967999994 73.118671638 C 55.973019521599994 80.12889054600001 45.4999124384 84.47522396400001 35.026802648 86.5782915572" />
<path class="stroke" d="M 82.25459359999999 61.902319464399994 C 79.092902096 65.4074293986 74.15275616 68.211517442 68.22458036 69.7537647374" />
<path class="stroke" d="M 64.66767826399999 67.6506985848 C 69.212610224 78.446435415 79.290507392 84.47522396400001 88.577979992 88.82156218399999" />
</svg>
