<?xml version="1.0" standalone="no"?>
<!DOCTYPE svg PUBLIC "-//W3C//DTD SVG 1.1//EN" "http://www.w3.org/Graphics/SVG/1.1/DTD/svg11.dtd">
<svg xmlns="http://www.w3.org/2000/svg" version="1.1" width="100%" height="100%">
<style type="text/css"><![CDATA[
  .stroke { fill:none; stroke:black; stroke-width:2 }
]]></style>
<path class="stroke" d="M 9.12992676 18.36715225 L 9.12992676 67.5583915" />
<path class="stroke" d="M 9.12992676 18.36715225 L 26.951824000000002 18.36715225 L 26.951824000000002 67.08540010000002" />
<path class="stroke" d="M 9.12992676 63.77444896 L 26.951824000000002 63.77444896" />
<path class="stroke" d="M 44.061313 7.680656175 C 48.03211588 9.899634825 51.20875764 12.950729399999998 53.59123964 15.863138699999999" />
<path class="stroke" d="M 86.1518204 7.680656175 C 84.53173808 10.426641624999998 81.1883168 13.6441591 77.8131368 16.001823975" />
<path class="stroke" d="M 39.69343024 20.2352181075 L 39.69343024 51.689230425" />
<path class="stroke" d="M 39.69343024 20.110400504999998 L 92.50510528000001 20.110400504999998 L 92.50510528000001 51.689230425" />
<path class="stroke" d="M 66.0992664 20.2352181075 L 66.0992664 49.442516999999995" />
<path class="stroke" d="M 39.69343024 34.768048545 L 92.1080288 34.768048545" />
<path class="stroke" d="M 39.69343024 49.442516999999995 L 92.50510528000001 49.442516999999995" />
<path class="stroke" d="M 45.391529952 66.932919405 L 45.391529952 93.49408464" />
<path class="stroke" d="M 45.391529952 66.932919405 L 86.370216 66.932919405 L 86.370216 93.49408464" />
<path class="stroke" d="M 45.629779920000004 79.489957123 L 86.13196848000001 79.489957123" />
<path class="stroke" d="M 45.391529952 92.334669604 L 86.370216 92.334669604" />
</svg>
