<?xml version="1.0" standalone="no"?>
<!DOCTYPE svg PUBLIC "-//W3C//DTD SVG 1.1//EN" "http://www.w3.org/Graphics/SVG/1.1/DTD/svg11.dtd">
<svg xmlns="http://www.w3.org/2000/svg" version="1.1" width="100%" height="100%">
<style type="text/css"><![CDATA[
  .stroke { fill:none; stroke:black; stroke-width:2 }
]]></style>
<path class="stroke" d="M 7.94671509 15.2540135 L 7.94671509 67.48174900000001" />
<path class="stroke" d="M 7.94671509 15.2540135 L 25.132116 15.2540135 L 25.132116 66.9795606" />
<path class="stroke" d="M 7.94671509 63.464229759999995 L 25.132116 63.464229759999995" />
<path class="stroke" d="M 47.24379364 9.854013 L 47.24379364 21.240875" />
<path class="stroke" d="M 36.3708012 21.240875 L 57.89488812 21.240875" />
<path class="stroke" d="M 39.2554724 21.532845 C 40.80875812 27.372261 41.91824716 33.79562 42.58394028 41.970802" />
<path class="stroke" d="M 55.454013599999996 21.240875 C 53.900727880000005 27.66423 52.51881304 34.851486 52.970297880000004 41.68317" />
<path class="stroke" d="M 33.70802872 41.970802 L 59.67007028 41.970802" />
<path class="stroke" d="M 31.26715192 56.861313 L 60.113866959999996 56.861313" />
<path class="stroke" d="M 47.46569312 43.430653 L 47.46569312 88.978096" />
<path class="stroke" d="M 47.24379364 60.07299 C 43.0277362 65.32846 38.14598488 71.45985 32.82043764 73.795616" />
<path class="stroke" d="M 47.46569312 62.408752 C 51.681749800000006 64.16058 53.678831439999996 66.496346 56.119705200000006 70.29197" />
<path class="stroke" d="M 81.1431229568 10.145985 C 76.172611632 15.109488 71.4506260224 17.153284 66.3558535424 17.445253" />
<path class="stroke" d="M 66.3558535424 17.445253 L 66.3558535424 49.562042 C 66.3558535424 58.613136 65.4860135392 73.50365 62.876496083199996 84.59853" />
<path class="stroke" d="M 66.3558535424 34.37956 L 92.699559776 34.37956" />
<path class="stroke" d="M 79.5277070848 34.37956 L 79.5277070848 90.14598" />
</svg>
