<?xml version="1.0" standalone="no"?>
<!DOCTYPE svg PUBLIC "-//W3C//DTD SVG 1.1//EN" "http://www.w3.org/Graphics/SVG/1.1/DTD/svg11.dtd">
<svg xmlns="http://www.w3.org/2000/svg" version="1.1" width="100%" height="100%">
<style type="text/css"><![CDATA[
  .stroke { fill:none; stroke:black; stroke-width:2 }
]]></style>
<path class="stroke" d="M 7.86277344 15.431385749999999 L 7.86277344 68.26642050000001" />
<path class="stroke" d="M 7.86277344 15.431385749999999 L 28.230656 15.431385749999999 L 28.230656 67.7583927" />
<path class="stroke" d="M 7.86277344 64.20218591999999 L 28.230656 64.20218591999999" />
<path class="stroke" d="M 43.798019530000005 10.211032868571428 C 42.20594007 18.684017005714285 39.817821550000005 27.48288329142857 36.6336633 33.348795977142856" />
<path class="stroke" d="M 41.21089158 22.59462473142857 L 90.5653468 22.59462473142857" />
<path class="stroke" d="M 45.17011253 34.62965376 L 81.45999655 34.62965376 C 75.65121045000001 42.6498528 60.588448 59.942831999999996 53.61383845 68.33564159999999 C 50.169274650000006 72.69255359999998 46.4875141 77.0624352 46.6073369 82.7507808 C 46.6073369 89.11045439999998 49.302153950000005 91.6542432 54.6917311 91.6542432 L 87.74784605 91.6542432 C 89.9036883 91.58361599999999 92.2392078 90.4530432 92.05953055 86.9905632 L 92.05953055 82.96279679999999" />
</svg>
