<?xml version="1.0" standalone="no"?>
<!DOCTYPE svg PUBLIC "-//W3C//DTD SVG 1.1//EN" "http://www.w3.org/Graphics/SVG/1.1/DTD/svg11.dtd">
<svg xmlns="http://www.w3.org/2000/svg" version="1.1" width="100%" height="100%">
<style type="text/css"><![CDATA[
  .stroke { fill:none; stroke:black; stroke-width:2 }
]]></style>
<path class="stroke" d="M 7.4963501 24.318247 L 7.4963501 80.189778" />
<path class="stroke" d="M 7.4963501 24.318247 L 26.59124 24.318247 L 26.59124 79.65255320000001" />
<path class="stroke" d="M 7.4963501 75.89196672 L 26.59124 75.89196672" />
<path class="stroke" d="M 66.2620425 6.87372263 L 66.2620425 31.67372015" />
<path class="stroke" d="M 66.2620425 15.381750440000001 L 83.6751759 15.381750440000001" />
<path class="stroke" d="M 50.71459669 15.924816499999999 L 50.71459669 31.67372015" />
<path class="stroke" d="M 35.99634923 31.67372015 L 93.2109445 31.67372015" />
<path class="stroke" d="M 40.84826416 40.7145131 L 40.84826416 92.862797 L 88.15174719999999 92.862797" />
<path class="stroke" d="M 88.15174719999999 40.3296519 L 88.15174719999999 92.862797" />
<path class="stroke" d="M 52.08526092 50.0812032475 C 53.7237541616 51.68412358 55.23621022528 53.5541964625 56.215326944 56.3157145" />
<path class="stroke" d="M 76.66266170239999 50.0812032475 C 75.90643388640001 52.485583975 74.5200180224 54.48923359 72.6294474032 56.22572974" />
<path class="stroke" d="M 49.31242530688 61.835947472499996 L 79.813610576 61.835947472499996" />
<path class="stroke" d="M 64.5 46.4938117 L 64.5630166464 83.45618830000001" />
<path class="stroke" d="M 62.16829645216 63.038138065 C 59.574272192 69.40625349999999 54.335533216 75.88138824999999 48.0520466208 79.33448662" />
<path class="stroke" d="M 67.08377617695999 63.171713425 C 69.2020744 69.45433675000001 74.47271452799998 76.26262299999999 80.8219114528 79.4680624375" />
</svg>
