<?xml version="1.0" standalone="no"?>
<!DOCTYPE svg PUBLIC "-//W3C//DTD SVG 1.1//EN" "http://www.w3.org/Graphics/SVG/1.1/DTD/svg11.dtd">
<svg xmlns="http://www.w3.org/2000/svg" version="1.1" width="100%" height="100%">
<style type="text/css"><![CDATA[
  .stroke { fill:none; stroke:black; stroke-width:2 }
]]></style>
<path class="stroke" d="M 7.4963501 14.01240775 L 7.4963501 61.9890485" />
<path class="stroke" d="M 7.4963501 14.01240775 L 26.59124 14.01240775 L 26.59124 61.52773590000001" />
<path class="stroke" d="M 7.4963501 58.29853664 L 26.59124 58.29853664" />
<path class="stroke" d="M 37.8572549848 10.464962749999998 L 37.8572549848 46.295618499999996" />
<path class="stroke" d="M 37.8572549848 10.464962749999998 L 73.14461152 10.464962749999998 L 73.14461152 45.951093900000004" />
<path class="stroke" d="M 37.8572549848 43.53941344 L 73.14461152 43.53941344" />
<path class="stroke" d="M 48.49561946 48.87664142 L 48.49561946 62.72481524 C 48.49561946 74.9350343 42.65036466 86.99634764 28.03722612 90.1233545" />
<path class="stroke" d="M 61.75985198 48.72773723 L 61.75985198 83.8693418 C 61.75985198 87.5919695 64.68248246 89.8255451 67.82992291 89.8255451 L 85.365685 89.8255451 C 87.83868629999999 89.9744498 89.6372215 88.7832071 89.6372215 87.1452503 L 89.6372215 84.31605794000001" />
</svg>
