<?xml version="1.0" standalone="no"?>
<!DOCTYPE svg PUBLIC "-//W3C//DTD SVG 1.1//EN" "http://www.w3.org/Graphics/SVG/1.1/DTD/svg11.dtd">
<svg xmlns="http://www.w3.org/2000/svg" version="1.1" width="100%" height="100%">
<style type="text/css"><![CDATA[
  .stroke { fill:none; stroke:black; stroke-width:2 }
]]></style>
<path class="stroke" d="M 7.4963501 16.899268999999997 L 7.4963501 67.912406" />
<path class="stroke" d="M 7.4963501 16.899268999999997 L 26.59124 16.899268999999997 L 26.59124 67.42189640000001" />
<path class="stroke" d="M 7.4963501 63.988317439999996 L 26.59124 63.988317439999996" />
<path class="stroke" d="M 46.86715072 10.729925 L 80.502184 10.729925" />
<path class="stroke" d="M 60.11094664 11.021896 C 54.64525456 23.576641 45.3754 30.3365 35.381728 35.489" />
<path class="stroke" d="M 53.38394128 22.70073 C 66.2072968 36.715324 68.72992768 76.423355 64.1051056 85.47445 C 61.3722592 90.72992 56.32700536 89.56204 54.43503328 87.22627" />
<path class="stroke" d="M 59.48029072 33.211678 C 53.59415896 44.30657 45.605838160000005 50.729923 35.3051092 55.693428" />
<path class="stroke" d="M 63.8948872 48.10219 C 57.58831864 62.70073 46.44671536 71.75182 35.3051092 76.131386" />
<path class="stroke" d="M 85.54744 24.744522 C 82.1839384 32.043793 76.92846399999999 37.88321 70.621894 41.094887" />
<path class="stroke" d="M 66.8379556 36.715324 C 71.6729896 59.197075 82.39415679999999 71.75182 92.27444679999999 80.80292" />
</svg>
