<?xml version="1.0" standalone="no"?>
<!DOCTYPE svg PUBLIC "-//W3C//DTD SVG 1.1//EN" "http://www.w3.org/Graphics/SVG/1.1/DTD/svg11.dtd">
<svg xmlns="http://www.w3.org/2000/svg" version="1.1" width="100%" height="100%">
<style type="text/css"><![CDATA[
  .stroke { fill:none; stroke:black; stroke-width:2 }
]]></style>
<path class="stroke" d="M 7.397080079999999 16.01240775 L 7.397080079999999 63.9890485" />
<path class="stroke" d="M 7.397080079999999 16.01240775 L 22.672991999999997 16.01240775 L 22.672991999999997 63.52773590000001" />
<path class="stroke" d="M 7.397080079999999 60.29853664 L 22.672991999999997 60.29853664" />
<path class="stroke" d="M 60.252368000000004 6.78234 L 60.252368000000004 22.55525" />
<path class="stroke" d="M 60.50473600000001 12.14515 L 78.01643680000001 12.027397" />
<path class="stroke" d="M 33.75392 23.18615 L 33.75392 56.94005 C 33.501599999999996 71.97685 30.97792 82.59725 25.425864 91.95585" />
<path class="stroke" d="M 33.75392 23.18615 L 93.81704 23.18615 L 93.81704 27.60255 C 93.73296 30.86225 92.89168 32.54475 91.04104 33.59625" />
<path class="stroke" d="M 41.1945192 41.945206 L 75.912328 35.36986" />
<path class="stroke" d="M 54.4479552 27.9181 L 54.34520560000001 46.219177 C 54.0821896 51.47945 53.293152 51.47945 56.449312 52.136986 L 81.1726 52.136986 C 82.7506832 51.150684 83.01369600000001 48.520546 83.01369600000001 45.56164 L 83.01369600000001 41.61644" />
<path class="stroke" d="M 58.428996 62.933796 L 58.428996 89.02089" />
<path class="stroke" d="M 74.895894 62.933796 L 74.895894 89.699684" />
<path class="stroke" d="M 43.665618 66.643745 C 46.567818 70.147995 48.712937999999994 74.598915 49.911618000000004 80.14013" />
<path class="stroke" d="M 88.902204 66.73979 C 87.64034400000001 72.459206 85.432164 76.86859 83.034684 80.187904" />
<path class="stroke" d="M 40.06939920000001 90.37849 L 92.87698499999999 90.37849" />
</svg>
