<?xml version="1.0" standalone="no"?>
<!DOCTYPE svg PUBLIC "-//W3C//DTD SVG 1.1//EN" "http://www.w3.org/Graphics/SVG/1.1/DTD/svg11.dtd">
<svg xmlns="http://www.w3.org/2000/svg" version="1.1" width="100%" height="100%">
<style type="text/css"><![CDATA[
  .stroke { fill:none; stroke:black; stroke-width:2 }
]]></style>
<path class="stroke" d="M 7.94671509 16.6729915 L 7.94671509 73.759121" />
<path class="stroke" d="M 7.94671509 16.6729915 L 25.132116 16.6729915 L 25.132116 73.2102174" />
<path class="stroke" d="M 7.94671509 69.36787903999999 L 25.132116 69.36787903999999" />
<path class="stroke" d="M 46.124086500000004 11.605839 C 44.2262765 27.372261 40.284671 41.970802 36.9270065 50.14598" />
<path class="stroke" d="M 43.204378 30.583939 L 43.204378 90.43795" />
<path class="stroke" d="M 56.41347832 8.675077 L 86.02889272000002 8.675077 L 86.02889272000002 27.287058" />
<path class="stroke" d="M 51.728577111999996 27.6025 L 95.566057552 27.6025" />
<path class="stroke" d="M 63.026860888 38.113137825 C 62.7171375208 42.6678825 60.5490803152 47.9817495 58.84560418240001 50.0693428" />
<path class="stroke" d="M 61.633107592 45.70437895 L 86.72064040000001 45.70437895" />
<path class="stroke" d="M 56.0581018336 61.4768246 L 90.43731232 61.4768246" />
<path class="stroke" d="M 72.93798423999999 46.27372175 L 72.93798423999999 54.24452355 C 72.96393299920001 71.775669 58.381020988 86.127734 52.65115222 88.78466750000001" />
<path class="stroke" d="M 72.96393299920001 62.0783775 C 77.27410077280001 75.12043249999999 84.86230444 84.040142 94.30884247600001 88.594887" />
</svg>
