<?xml version="1.0" standalone="no"?>
<!DOCTYPE svg PUBLIC "-//W3C//DTD SVG 1.1//EN" "http://www.w3.org/Graphics/SVG/1.1/DTD/svg11.dtd">
<svg xmlns="http://www.w3.org/2000/svg" version="1.1" width="100%" height="100%">
<style type="text/css"><![CDATA[
  .stroke { fill:none; stroke:black; stroke-width:2 }
]]></style>
<path class="stroke" d="M 7.3131384299999995 15.78613025 L 7.3131384299999995 69.8357635" />
<path class="stroke" d="M 7.3131384299999995 15.78613025 L 25.771531999999997 15.78613025 L 25.771531999999997 69.3160569" />
<path class="stroke" d="M 7.3131384299999995 65.67809824 L 25.771531999999997 65.67809824" />
<path class="stroke" d="M 41.7065685 7.986238082411766 C 45.56058306 9.87601098347059 48.64379418 12.474447812235296 50.95620318 14.954774593176472" />
<path class="stroke" d="M 82.5591198 7.986238082411766 C 80.98668696 10.324831511470588 77.7416016 13.065000883058826 74.4656916 15.072884641000002" />
<path class="stroke" d="M 34.0599372 16.346744540000003 L 91.940076 16.346744540000003" />
<path class="stroke" d="M 38.848554 26.19392084 L 38.848554 59.47061156000001" />
<path class="stroke" d="M 38.848554 26.19392084 L 87.35961 26.19392084 L 87.35961 59.47061156000001" />
<path class="stroke" d="M 56.545728 16.5165234974 L 56.545728 30.098861079200006 C 56.18709588 33.938581166 48.73548336 41.056709955200006 39.15483888 42.6192234974" />
<path class="stroke" d="M 69.2460618 16.346744540000003 L 69.2460618 39.946061060000005 C 68.96846579999999 41.92685234 70.56467448000001 43.39823732000001 72.7855098 43.3416725 L 78.8233218 43.3416725 C 80.4195318 43.28505386000001 82.4321358 42.209784080000006 82.36276584000001 40.11586316 L 82.36276584000001 37.73895668" />
<path class="stroke" d="M 38.848554 50.132787740000005 L 87.35961 50.132787740000005" />
<path class="stroke" d="M 38.848554 59.47061156000001 L 87.35961 59.47061156000001" />
<path class="stroke" d="M 36.88905096 70.9155612808 L 88.9182429 70.9155612808" />
<path class="stroke" d="M 73.3094904 65.0974013144 L 73.3094904 91.023940432 C 73.3094904 91.942598336 72.538683 92.555034608 70.80437724000001 92.555034608 L 65.6014593 92.555034608" />
<path class="stroke" d="M 47.487591 74.7943348248 C 49.8 75.7129923792 51.91970748 77.0399411312 53.65401258 79.2855460392" />
</svg>
