<?xml version="1.0" standalone="no"?>
<!DOCTYPE svg PUBLIC "-//W3C//DTD SVG 1.1//EN" "http://www.w3.org/Graphics/SVG/1.1/DTD/svg11.dtd">
<svg xmlns="http://www.w3.org/2000/svg" version="1.1" width="100%" height="100%">
<style type="text/css"><![CDATA[
  .stroke { fill:none; stroke:black; stroke-width:2 }
]]></style>
<path class="stroke" d="M 8.313138429999999 21.608757999999998 L 8.313138429999999 75.051092" />
<path class="stroke" d="M 8.313138429999999 21.608757999999998 L 26.771531999999997 21.608757999999998 L 26.771531999999997 74.5372248" />
<path class="stroke" d="M 8.313138429999999 70.94014208 L 26.771531999999997 70.94014208" />
<path class="stroke" d="M 35.3454859104 21.5315262 L 89.121407724 21.5315262" />
<path class="stroke" d="M 61.65313212 8.18769839 L 61.65313212 36.506290199999995" />
<path class="stroke" d="M 76.74134736 8.18769369 L 76.74134736 36.506290199999995" />
<path class="stroke" d="M 61.65313212 36.506290199999995 L 76.74134736 36.506290199999995" />
<path class="stroke" d="M 47.14524936 8.1876951 L 47.14524936 48.960557 L 85.25262468 48.960557" />
<path class="stroke" d="M 35.04598408 59.489044 L 91.74087490000001 59.489044" />
<path class="stroke" d="M 63.6065654 51.897808 L 63.6065654 89.61644" />
<path class="stroke" d="M 61.475181479999996 61.824814 C 52.94963339 72.33576 44.21094793 80.21897 36.53795589 84.59853" />
<path class="stroke" d="M 65.73795369999999 61.824814 C 73.8372234 72.9197 82.14963119999999 79.927 90.24890382000001 84.59853" />
</svg>
