<?xml version="1.0" standalone="no"?>
<!DOCTYPE svg PUBLIC "-//W3C//DTD SVG 1.1//EN" "http://www.w3.org/Graphics/SVG/1.1/DTD/svg11.dtd">
<svg xmlns="http://www.w3.org/2000/svg" version="1.1" width="100%" height="100%">
<style type="text/css"><![CDATA[
  .stroke { fill:none; stroke:black; stroke-width:2 }
]]></style>
<path class="stroke" d="M 11.0454535 8.45167476 L 88.7727245 8.45167476" />
<path class="stroke" d="M 26.04545475 8.45167476 L 26.04545475 40.85167260000001" />
<path class="stroke" d="M 27.68181835 19.1483247 L 72.13636249999999 19.1483247" />
<path class="stroke" d="M 27.9545434 29.534928240000003 L 71.86363175 29.534928240000003" />
<path class="stroke" d="M 12.954544049999999 42.866985 L 89.5909025 36.5110014" />
<path class="stroke" d="M 73.49999249999999 8.91674652 L 73.49999249999999 52.013397000000005" />
<path class="stroke" d="M 6.5703344 58.44210536 L 45.843060799999996 58.44210536" />
<path class="stroke" d="M 14.1492824 58.44210536 L 14.1492824 84.8421036" />
<path class="stroke" d="M 14.976076639999999 67.1578942 L 37.43731999999999 67.1578942" />
<path class="stroke" d="M 15.11387456 75.62105264 L 37.2995192 75.62105264" />
<path class="stroke" d="M 7.534927519999999 86.48420999999999 L 46.256456 81.3052604" />
<path class="stroke" d="M 38.126312 58.82105272 L 38.126312 93.93684200000001" />
<path class="stroke" d="M 53.5703344 58.44210536 L 92.84306079999999 58.44210536" />
<path class="stroke" d="M 61.149282400000004 58.44210536 L 61.149282400000004 84.8421036" />
<path class="stroke" d="M 61.97607664 67.1578942 L 84.43732 67.1578942" />
<path class="stroke" d="M 62.11387456 75.62105264 L 84.29951919999999 75.62105264" />
<path class="stroke" d="M 54.53492752 86.48420999999999 L 93.256456 81.3052604" />
<path class="stroke" d="M 85.126312 58.82105272 L 85.126312 93.93684200000001" />
</svg>
