<?xml version="1.0" standalone="no"?>
<!DOCTYPE svg PUBLIC "-//W3C//DTD SVG 1.1//EN" "http://www.w3.org/Graphics/SVG/1.1/DTD/svg11.dtd">
<svg xmlns="http://www.w3.org/2000/svg" version="1.1" width="100%" height="100%">
<style type="text/css"><![CDATA[
  .stroke { fill:none; stroke:black; stroke-width:2 }
]]></style>
<path class="stroke" d="M 7.4963501 17.544524499999998 L 7.4963501 67.343063" />
<path class="stroke" d="M 7.4963501 17.544524499999998 L 26.59124 17.544524499999998 L 26.59124 66.8642322" />
<path class="stroke" d="M 7.4963501 63.51240511999999 L 26.59124 63.51240511999999" />
<path class="stroke" d="M 35.95272652 8.1981245172 L 91.91636163999999 8.1981245172" />
<path class="stroke" d="M 46.75272742 8.1981245172 L 46.75272742 39.62612242200001" />
<path class="stroke" d="M 47.930909212 18.573874958999998 L 79.93818099999999 18.573874958999998" />
<path class="stroke" d="M 48.127271248 28.648880392800002 L 79.74181486 28.648880392800002" />
<path class="stroke" d="M 37.327271716 41.58097545 L 92.5054498 35.415671358" />
<path class="stroke" d="M 80.9199946 8.6492441244 L 80.9199946 50.45299509" />
<path class="stroke" d="M 32.730640768 56.688842199199996 L 61.007003776 56.688842199199996" />
<path class="stroke" d="M 38.187483328 56.688842199199996 L 38.187483328 82.296840492" />
<path class="stroke" d="M 38.7827751808 65.143157374 L 54.95487039999999 65.143157374" />
<path class="stroke" d="M 38.8819896832 73.3524210608 L 54.855653824 73.3524210608" />
<path class="stroke" d="M 33.4251478144 83.88968369999999 L 61.30464832 78.86610258799999" />
<path class="stroke" d="M 55.45094464 57.0564211384 L 55.45094464 91.11873674000002" />
<path class="stroke" d="M 66.570640768 56.688842199199996 L 94.847003776 56.688842199199996" />
<path class="stroke" d="M 72.027483328 56.688842199199996 L 72.027483328 82.296840492" />
<path class="stroke" d="M 72.6227751808 65.143157374 L 88.79487040000001 65.143157374" />
<path class="stroke" d="M 72.72198968320001 73.3524210608 L 88.69565382399999 73.3524210608" />
<path class="stroke" d="M 67.2651478144 83.88968369999999 L 95.14464832 78.86610258799999" />
<path class="stroke" d="M 89.29094463999999 57.0564211384 L 89.29094463999999 91.11873674000002" />
</svg>
