<?xml version="1.0" standalone="no"?>
<!DOCTYPE svg PUBLIC "-//W3C//DTD SVG 1.1//EN" "http://www.w3.org/Graphics/SVG/1.1/DTD/svg11.dtd">
<svg xmlns="http://www.w3.org/2000/svg" version="1.1" width="100%" height="100%">
<style type="text/css"><![CDATA[
  .stroke { fill:none; stroke:black; stroke-width:2 }
]]></style>
<path class="stroke" d="M 19.0852 6.6293378 C 18.0337 16.059413999999997 15.4048 24.000518999999997 7.41324 33.244462" />
<path class="stroke" d="M 18.45424 13.701891999999999 L 39.58984 13.888036999999999 C 36.54054 32.872231 25.28914 47.761883999999995 6.78234 58.556819" />
<path class="stroke" d="M 14.0378 24.310741 C 22.8706 39.882788 39.5899 58.246596999999994 58.2019 58.370674 L 93.8486 58.370674" />
<path class="stroke" d="M 68.92132000000001 11.207522 C 67.24948499999999 27.891032 56.929725000000005 41.102692 43.4968605 47.081726" />
<path class="stroke" d="M 66.499945 22.490586 C 71.22747000000001 31.84487 79.93292500000001 41.343778 89.84904 47.081726" />
<path class="stroke" d="M 20.221896979999997 68.7401455 L 20.221896979999997 91.81751700000001" />
<path class="stroke" d="M 20.221896979999997 68.7401455 L 80.05255199999999 68.7401455 L 80.05255199999999 91.59561980000001" />
<path class="stroke" d="M 20.221896979999997 90.04233408 L 80.05255199999999 90.04233408" />
</svg>
