<?xml version="1.0" standalone="no"?>
<!DOCTYPE svg PUBLIC "-//W3C//DTD SVG 1.1//EN" "http://www.w3.org/Graphics/SVG/1.1/DTD/svg11.dtd">
<svg xmlns="http://www.w3.org/2000/svg" version="1.1" width="100%" height="100%">
<style type="text/css"><![CDATA[
  .stroke { fill:none; stroke:black; stroke-width:2 }
]]></style>
<path class="stroke" d="M 8.313138429999999 24.8350355 L 8.313138429999999 72.20437700000001" />
<path class="stroke" d="M 8.313138429999999 24.8350355 L 26.771531999999997 24.8350355 L 26.771531999999997 71.74890380000001" />
<path class="stroke" d="M 8.313138429999999 68.56058048 L 26.771531999999997 68.56058048" />
<path class="stroke" d="M 34.054744375 20.160000000000004 L 63.94525375 20.160000000000004" />
<path class="stroke" d="M 49.0 9.51386856 L 49.0 32.404377600000004" />
<path class="stroke" d="M 40.855108345000005 34.813328193000004 L 40.855108345000005 58.843457184" />
<path class="stroke" d="M 40.855108345000005 34.813328193000004 L 57.05072875 34.813328193000004 L 57.05072875 58.843457184" />
<path class="stroke" d="M 40.9492696375 46.173795003799995 L 56.956568425 46.173795003799995" />
<path class="stroke" d="M 40.855108345000005 57.7945238024 L 57.05072875 57.7945238024" />
<path class="stroke" d="M 33.945254875 70.24060338999999 L 64.27372 70.24060338999999" />
<path class="stroke" d="M 48.97126375 60.264164131 L 48.97126375 90.425832106" />
<path class="stroke" d="M 71.073539965 17.868611700000002 L 71.0505037 59.073831000000006 C 68.1239930275 81.181206 68.1239930275 80.45637300000001 64.85318753499999 89.87919839999999" />
<path class="stroke" d="M 71.073539965 17.868611700000002 L 88.54799320000001 17.868611700000002 L 88.54799320000001 86.452551 C 88.54799320000001 88.554744 88.048720225 90.394155 86.80054591000001 90.394155 L 85.427555275 90.394155" />
<path class="stroke" d="M 71.073539965 37.6763193 L 88.54799320000001 37.6763193" />
<path class="stroke" d="M 71.073539965 58.5993024 L 88.54799320000001 58.5993024" />
</svg>
