<?xml version="1.0" standalone="no"?>
<!DOCTYPE svg PUBLIC "-//W3C//DTD SVG 1.1//EN" "http://www.w3.org/Graphics/SVG/1.1/DTD/svg11.dtd">
<svg xmlns="http://www.w3.org/2000/svg" version="1.1" width="100%" height="100%">
<style type="text/css"><![CDATA[
  .stroke { fill:none; stroke:black; stroke-width:2 }
]]></style>
<path class="stroke" d="M 25.912407 10.729925 C 21.824816 18.029196 16.27737 23.86861 11.021896 28.540146 C 15.109488 31.45985 20.07299 36.131386 24.744522 40.218975" />
<path class="stroke" d="M 37.007298 25.912407 C 30.0 34.67153 20.656933 45.18248 8.978102 56.277367 C 19.48905 54.525543 31.167881 52.48175 41.67883 50.437954" />
<path class="stroke" d="M 38.17518 43.430653 C 41.094887 46.642334 41.970802 49.85401 43.722626 55.40146" />
<path class="stroke" d="M 26.49635 54.233574 L 26.49635 89.56204" />
<path class="stroke" d="M 17.445253 65.03649 C 15.69343 70.87591 13.649633 74.67153 9.562042 78.75912" />
<path class="stroke" d="M 34.08759 65.32846 C 37.299267 68.540146 37.35135 68.81081 38.97297 71.72973" />
<path class="stroke" d="M 61.9306925 10.23366296 L 86.732675 10.23366296 C 81.0891075 31.24554518 71.584158 41.5108928 54.950495000000004 50.4930692" />
<path class="stroke" d="M 61.3366335 15.045545180000001 C 63.5483855 24.993547220000004 71.2903215 33.180645440000006 73.870966 36.8387102 C 78.548385 42.412903400000005 86.93548200000001 46.593545600000006 94.90099000000001 50.4930692" />
<path class="stroke" d="M 59.1605835 70.7839408 L 90.83941250000001 70.7839408" />
<path class="stroke" d="M 75.0 55.74160523 L 75.0 90.3926966" />
<path class="stroke" d="M 54.9270065 90.3926966 L 94.92700500000001 90.3926966" />
</svg>
