<?xml version="1.0" standalone="no"?>
<!DOCTYPE svg PUBLIC "-//W3C//DTD SVG 1.1//EN" "http://www.w3.org/Graphics/SVG/1.1/DTD/svg11.dtd">
<svg xmlns="http://www.w3.org/2000/svg" version="1.1" width="100%" height="100%">
<style type="text/css"><![CDATA[
  .stroke { fill:none; stroke:black; stroke-width:2 }
]]></style>
<path class="stroke" d="M 6.77883179 22.01240775 L 6.77883179 69.9890485" />
<path class="stroke" d="M 6.77883179 22.01240775 L 30.329196 22.01240775 L 30.329196 69.52773590000001" />
<path class="stroke" d="M 6.77883179 66.29853664000001 L 30.329196 66.29853664000001" />
<path class="stroke" d="M 61.54926436 10.800613210526315 L 61.54926436 28.863381578947365" />
<path class="stroke" d="M 43.5388606732 13.42066794736842 C 46.320056909200005 16.993468526315787 47.710656388000004 20.328082236842103 49.498566601600004 25.330002394736844" />
<path class="stroke" d="M 78.50247817599998 13.42066794736842 C 77.3105371264 19.613521631578944 75.52262555200001 21.995390315789475 72.940085704 25.091817157894738" />
<path class="stroke" d="M 45.19197046 32.99634923 L 45.19197046 69.273719 C 45.19197046 77.3168333 45.19197046 80.69108700000001 45.19197046 88.49406225999999" />
<path class="stroke" d="M 45.19197046 32.99634923 L 78.3014608 32.99634923 L 78.3014608 87.1014569 C 78.3014608 88.7598536 77.3554699 90.2109445 74.99050804000001 90.2109445 L 72.3890521 90.2109445" />
<path class="stroke" d="M 45.19197046 48.62242967 L 78.3014608 48.62242967" />
<path class="stroke" d="M 45.19197046 65.12833856 L 78.3014608 65.12833856" />
</svg>
