<?xml version="1.0" standalone="no"?>
<!DOCTYPE svg PUBLIC "-//W3C//DTD SVG 1.1//EN" "http://www.w3.org/Graphics/SVG/1.1/DTD/svg11.dtd">
<svg xmlns="http://www.w3.org/2000/svg" version="1.1" width="100%" height="100%">
<style type="text/css"><![CDATA[
  .stroke { fill:none; stroke:black; stroke-width:2 }
]]></style>
<path class="stroke" d="M 18.905107 9.854013 L 90.14598 9.854013" />
<path class="stroke" d="M 18.613138 9.854013 L 18.613138 31.167881 C 18.613138 74.67153 14.817516 81.386856 10.198019 90.09901" />
<path class="stroke" d="M 27.47189127 23.463782000000002 L 52.7691894 23.463782000000002" />
<path class="stroke" d="M 30.65036358 39.42773528 L 30.65036358 57.4131348" />
<path class="stroke" d="M 30.65036358 39.684668 L 50.235765 39.684668 L 50.235765 57.4131348" />
<path class="stroke" d="M 30.65036358 57.4131348 L 50.235765 57.4131348" />
<path class="stroke" d="M 33.38321097 64.6072976 C 34.977371070000004 70.7737172 36.0021885 78.99561968 36.57153234 87.4744496" />
<path class="stroke" d="M 46.8197082 64.6072976 C 46.3642311 72.5722612 45.33941328 80.5372248 43.63138722 87.98831679999999" />
<path class="stroke" d="M 24.95693415 88.502184 L 56.0430639 88.502184" />
<path class="stroke" d="M 63.30218772 38.6569336 L 91.0861278 38.6569336" />
<path class="stroke" d="M 84.1616622 20.157664240000003 L 84.1616622 86.70364000000001 C 84.1616622 89.0160512 82.8875868 91.32846239999999 80.83795272 91.32846239999999 L 77.19415620000001 91.32846239999999" />
<path class="stroke" d="M 64.44087384 47.649636 C 67.8569322 49.70510832 69.9065694 53.04525392 71.0452524 56.899268479999996" />
</svg>
