<?xml version="1.0" standalone="no"?>
<!DOCTYPE svg PUBLIC "-//W3C//DTD SVG 1.1//EN" "http://www.w3.org/Graphics/SVG/1.1/DTD/svg11.dtd">
<svg xmlns="http://www.w3.org/2000/svg" version="1.1" width="100%" height="100%">
<style type="text/css"><![CDATA[
  .stroke { fill:none; stroke:black; stroke-width:2 }
]]></style>
<path class="stroke" d="M 24.924858529411765 7.758393989999999 C 21.57578205882353 14.22262701 14.620007647058822 20.20802882 8.694717352941176 23.5598518" />
<path class="stroke" d="M 19.772431764705882 15.53941499 L 19.772431764705882 40.079559499999995" />
<path class="stroke" d="M 46.65693304 7.04014533 C 45.605838160000005 11.110218609999999 38.87883136 15.419707699999998 34.88467024 16.377371349999997" />
<path class="stroke" d="M 43.503648399999996 13.26496295 L 43.503648399999996 40.079559499999995" />
<path class="stroke" d="M 68.51970424 7.159853849999999 C 67.25839096 9.79343022 64.94598352 12.06788267 61.58248048 13.38467065" />
<path class="stroke" d="M 43.503648399999996 13.1530104 L 82.39415679999999 13.1530104" />
<path class="stroke" d="M 62.6335768 13.38467065 L 62.6335768 40.079559499999995" />
<path class="stroke" d="M 43.503648399999996 22.594658499999998 L 79.66131039999999 22.594658499999998" />
<path class="stroke" d="M 43.503648399999996 31.340874439999997 L 79.8715288 31.340874439999997" />
<path class="stroke" d="M 43.503648399999996 40.079559499999995 L 86.59853632 40.079559499999995" />
<path class="stroke" d="M 27.080292 49.22262689 L 27.080292 83.8853991" />
<path class="stroke" d="M 27.372261 49.22262689 L 72.9197 49.22262689 L 72.9197 83.8853991" />
<path class="stroke" d="M 27.382198 61.0544566 L 72.871284 61.0544566" />
<path class="stroke" d="M 27.382198 72.70396101 L 72.871284 72.70396101" />
<path class="stroke" d="M 27.372261 83.730655 L 72.62773 83.730655" />
<path class="stroke" d="M 33.211678 87.444524 C 30.875912 90.07517899999999 27.080292 91.4678812 22.70073 92.0868576" />
<path class="stroke" d="M 67.9562 87.5992681 C 72.33576 88.2182445 75.54744 89.6109467 78.17518 92.0868576" />
</svg>
