<?xml version="1.0" standalone="no"?>
<!DOCTYPE svg PUBLIC "-//W3C//DTD SVG 1.1//EN" "http://www.w3.org/Graphics/SVG/1.1/DTD/svg11.dtd">
<svg xmlns="http://www.w3.org/2000/svg" version="1.1" width="100%" height="100%">
<style type="text/css"><![CDATA[
  .stroke { fill:none; stroke:black; stroke-width:2 }
]]></style>
<path class="stroke" d="M 18.905107 9.854013 L 90.14598 9.854013" />
<path class="stroke" d="M 18.613138 9.854013 L 18.613138 31.167881 C 18.613138 74.67153 14.817516 81.386856 10.198019 90.09901" />
<path class="stroke" d="M 39.18913540882353 18.8273867112 C 36.47638346764706 24.515911768800002 30.842206194117647 29.7830653616 26.042721055882353 32.732669584" />
<path class="stroke" d="M 35.01566972941177 25.6746851912 L 35.01566972941177 47.270012359999996" />
<path class="stroke" d="M 56.7921157624 18.1953278904 C 55.940728909600004 21.7769923768 50.4918534016 25.569342776 47.2565828944 26.412086787999996" />
<path class="stroke" d="M 54.237955204 23.673167396 L 54.237955204 47.270012359999996" />
<path class="stroke" d="M 74.5009604344 18.300671387999998 C 73.4792966776 20.618218593599998 71.6062466512 22.6197367496 68.8818091888 23.778510172" />
<path class="stroke" d="M 54.237955204 23.574649152 L 85.739267008 23.574649152" />
<path class="stroke" d="M 69.733197208 23.778510172 L 69.733197208 47.270012359999996" />
<path class="stroke" d="M 54.237955204 31.883299479999998 L 83.52566142399999 31.883299479999998" />
<path class="stroke" d="M 54.237955204 39.5799695072 L 83.695938328 39.5799695072" />
<path class="stroke" d="M 54.237955204 47.270012359999996 L 89.1448144192 47.270012359999996" />
<path class="stroke" d="M 40.93503652 55.3159116632 L 40.93503652 85.81915120800001" />
<path class="stroke" d="M 41.17153141 55.3159116632 L 78.064957 55.3159116632 L 78.064957 85.81915120800001" />
<path class="stroke" d="M 41.179580380000004 65.727921808 L 78.02574004000002 65.727921808" />
<path class="stroke" d="M 41.179580380000004 75.9794856888 L 78.02574004000002 75.9794856888" />
<path class="stroke" d="M 41.17153141 85.6829764 L 77.8284613 85.6829764" />
<path class="stroke" d="M 45.90145918 88.95118112 C 44.00948872 91.26615752 40.93503652 92.491735456 37.3875913 93.036434688" />
<path class="stroke" d="M 74.044522 89.08735592800001 C 77.59196560000001 89.63205516 80.19342639999999 90.857633096 82.3218958 93.036434688" />
</svg>
