<?xml version="1.0" standalone="no"?>
<!DOCTYPE svg PUBLIC "-//W3C//DTD SVG 1.1//EN" "http://www.w3.org/Graphics/SVG/1.1/DTD/svg11.dtd">
<svg xmlns="http://www.w3.org/2000/svg" version="1.1" width="100%" height="100%">
<style type="text/css"><![CDATA[
  .stroke { fill:none; stroke:black; stroke-width:2 }
]]></style>
<path class="stroke" d="M 18.905107 9.854013 L 90.14598 9.854013" />
<path class="stroke" d="M 18.613138 9.854013 L 18.613138 31.167881 C 18.613138 74.67153 14.817516 81.386856 10.198019 90.09901" />
<path class="stroke" d="M 39.93988682352941 21.329196709999998 C 37.26062564705883 35.36131229 31.69600611764706 48.35401378 26.95577388235294 55.6299222" />
<path class="stroke" d="M 35.817945411764704 38.21970571 L 35.817945411764704 91.48977550000001" />
<path class="stroke" d="M 57.325546432 19.77007157 C 56.484670528 28.605108689999998 51.103065088 37.9598533 47.907736192 40.03868415" />
<path class="stroke" d="M 54.80291872 33.28248055 L 54.80291872 91.48977550000001" />
<path class="stroke" d="M 74.81576339200001 20.02992665 C 73.80671276800001 25.74671438 71.956786816 30.68394043 69.265984384 33.542333850000006" />
<path class="stroke" d="M 54.80291872 33.039461599999996 L 85.91532543999999 33.039461599999996" />
<path class="stroke" d="M 70.10686144 33.542333850000006 L 70.10686144 91.48977550000001" />
<path class="stroke" d="M 54.80291872 53.5347465 L 83.72904832 53.5347465" />
<path class="stroke" d="M 54.80291872 72.52043476 L 83.89722304 72.52043476" />
<path class="stroke" d="M 54.80291872 91.48977550000001 L 89.27882905599999 91.48977550000001" />
</svg>
