<?xml version="1.0" standalone="no"?>
<!DOCTYPE svg PUBLIC "-//W3C//DTD SVG 1.1//EN" "http://www.w3.org/Graphics/SVG/1.1/DTD/svg11.dtd">
<svg xmlns="http://www.w3.org/2000/svg" version="1.1" width="100%" height="100%">
<style type="text/css"><![CDATA[
  .stroke { fill:none; stroke:black; stroke-width:2 }
]]></style>
<path class="stroke" d="M 14.849808411200002 10.387269797999998 L 14.849808411200002 34.490975424" />
<path class="stroke" d="M 14.849808411200002 10.387269797999998 L 40.441399600000004 10.387269797999998 L 40.441399600000004 34.490975424" />
<path class="stroke" d="M 14.998597852000001 21.7825206468 L 40.292611688 21.7825206468" />
<path class="stroke" d="M 14.849808411200002 33.4388303664 L 40.441399600000004 33.4388303664" />
<path class="stroke" d="M 13.249245482666666 44.4418610505 L 13.249245482666666 86.06273075" />
<path class="stroke" d="M 13.249245482666666 44.4418610505 L 42.527295925333334 44.4418610505 L 42.527295925333334 86.92623794000001 C 42.527295925333334 87.78973921500001 40.67425458133334 89.17134717 38.080000000000005 88.99864691500001 L 35.85634759466667 88.99864691500001" />
<path class="stroke" d="M 13.249245482666666 56.012809485000005 L 42.527295925333334 56.012809485000005" />
<path class="stroke" d="M 13.249245482666666 67.929159021 L 42.15668994133333 67.929159021" />
<path class="stroke" d="M 52.62627686 40.51095 L 89.8817492 40.51095" />
<path class="stroke" d="M 70.9153258 13.941605 L 70.9153258 44.014595 C 68.7138662 70.0 61.1724394 85.320595 48.56204344 90.72992" />
<path class="stroke" d="M 70.9153258 44.30657 C 74.64087286 70.0 80.3985404 85.47445 93.60729568 90.43795" />
<path class="stroke" d="M 84.80145728 17.737225 C 87.6802896 19.197079 89.71240660000001 22.992699 90.7284651 27.080292" />
</svg>
