<?xml version="1.0" standalone="no"?>
<!DOCTYPE svg PUBLIC "-//W3C//DTD SVG 1.1//EN" "http://www.w3.org/Graphics/SVG/1.1/DTD/svg11.dtd">
<svg xmlns="http://www.w3.org/2000/svg" version="1.1" width="100%" height="100%">
<style type="text/css"><![CDATA[
  .stroke { fill:none; stroke:black; stroke-width:2 }
]]></style>
<path class="stroke" d="M 18.905107 9.854013 L 90.14598 9.854013" />
<path class="stroke" d="M 18.613138 9.854013 L 18.613138 31.167881 C 18.613138 74.67153 14.817516 81.386856 10.198019 90.09901" />
<path class="stroke" d="M 30.731348644848 17.55628821416 L 30.731348644848 39.73169739008" />
<path class="stroke" d="M 30.731348644848 17.55628821416 L 50.948705684000004 17.55628821416 L 50.948705684000004 39.73169739008" />
<path class="stroke" d="M 30.84889230308 28.039918995056 L 50.83116323352 28.039918995056" />
<path class="stroke" d="M 30.731348644848 38.763723937088 L 50.948705684000004 38.763723937088" />
<path class="stroke" d="M 29.466903931306668 48.88651216646 L 29.466903931306668 87.17771229" />
<path class="stroke" d="M 29.466903931306668 48.88651216646 L 52.59656378101334 48.88651216646 L 52.59656378101334 87.9721389048 C 52.59656378101334 88.76656007780001 51.132661119253335 90.03763939640001 49.083200000000005 89.87875516180002 L 47.32651459978668 89.87875516180002" />
<path class="stroke" d="M 29.466903931306668 59.53178472620001 L 52.59656378101334 59.53178472620001" />
<path class="stroke" d="M 29.466903931306668 70.49482629932001 L 52.303785053653336 70.49482629932001" />
<path class="stroke" d="M 60.5747587194 45.270074 L 90.006581868 45.270074" />
<path class="stroke" d="M 75.023107382 20.8262766 L 75.023107382 48.4934274 C 73.283954298 72.4 67.326227126 86.4949474 57.3640143176 91.47152640000002" />
<path class="stroke" d="M 75.023107382 48.7620444 C 77.9662895594 72.4 82.51484691600001 86.63649400000001 92.9497635872 91.202914" />
<path class="stroke" d="M 85.9931512512 24.318247 C 88.267428784 25.661312679999998 89.872801214 29.15328308 90.675487429 32.913868640000004" />
</svg>
