<?xml version="1.0" standalone="no"?>
<!DOCTYPE svg PUBLIC "-//W3C//DTD SVG 1.1//EN" "http://www.w3.org/Graphics/SVG/1.1/DTD/svg11.dtd">
<svg xmlns="http://www.w3.org/2000/svg" version="1.1" width="100%" height="100%">
<style type="text/css"><![CDATA[
  .stroke { fill:none; stroke:black; stroke-width:2 }
]]></style>
<path class="stroke" d="M 19.067079674999995 10.535421705882353 C 21.887517603 14.107771235294116 24.143867559 19.019750117647057 25.836130509 23.708458588235292" />
<path class="stroke" d="M 48.96371948999999 10.535421705882353 C 47.81298454799999 14.956203235294117 45.43817207999999 20.136107529411763 43.04080157999999 23.931729" />
<path class="stroke" d="M 13.437955299999999 26.594888599999997 L 56.970799199999995 26.594888599999997 L 56.970799199999995 40.989049550000004" />
<path class="stroke" d="M 11.189780699999998 40.989049550000004 L 56.970799199999995 40.989049550000004" />
<path class="stroke" d="M 11.394159 41.237224049999995 L 8.73722535 54.1423346 L 61.67153299999999 54.1423346 C 61.67153299999999 64.0693401 59.42335 69.03284199999999 56.970799199999995 72.2591241 C 55.89167499999999 73.40568909999999 54.927005 75.485396 52.678829 75.7335705 L 50.021895 75.7335705" />
<path class="stroke" d="M 34.897807 26.594888599999997 L 34.897807 91.5851066" />
<path class="stroke" d="M 33.321749999999994 54.6485351 C 28.640345999999997 65.65472015 18.394278 76.15681609999999 7.353275999999998 80.48368074999999" />
<path class="stroke" d="M 74.9211 12.1451 L 74.9211 68.612" />
<path class="stroke" d="M 90.3785 6.78233 L 90.3785 84.0694 C 90.4837 89.6425 87.1188 92.3765 83.123 92.2713 L 79.653 92.2713" />
</svg>
