<?xml version="1.0" standalone="no"?>
<!DOCTYPE svg PUBLIC "-//W3C//DTD SVG 1.1//EN" "http://www.w3.org/Graphics/SVG/1.1/DTD/svg11.dtd">
<svg xmlns="http://www.w3.org/2000/svg" version="1.1" width="100%" height="100%">
<style type="text/css"><![CDATA[
  .stroke { fill:none; stroke:black; stroke-width:2 }
]]></style>
<path class="stroke" d="M 13.725944949999999 7.2877618332 L 50.6664854 7.2877618332 L 50.6664854 41.353620586000005" />
<path class="stroke" d="M 13.725944949999999 23.808971900800003 L 50.449187650000006 23.808971900800003" />
<path class="stroke" d="M 5.034054112 41.499826295999995 L 62.40053710000001 41.499826295999995" />
<path class="stroke" d="M 32.654594 44.507892 L 32.654594 87.479422 C 32.725011 91.29221000000001 31.527319000000002 93.25025 29.061518 93.04415599999999 L 27.370639 93.04415599999999" />
<path class="stroke" d="M 14.0551662 51.9274524 C 17.7891432 54.9157664 20.2549442 58.831748399999995 22.7208122 63.9840984" />
<path class="stroke" d="M 6.6577096000000004 89.02517599999999 C 12.787084000000002 82.739162 18.282357 78.30809199999999 25.679827 73.876924" />
<path class="stroke" d="M 52.0993675 52.8549048 C 49.4221145 58.2135448 46.5336105 61.7171428 43.2223365 64.9116488" />
<path class="stroke" d="M 40.4747938 72.9494814 C 45.5472968 79.6476834 51.0425698 85.1093214 56.9605458 90.2618674" />
<path class="stroke" d="M 74.9211 12.1451 L 74.9211 68.612" />
<path class="stroke" d="M 90.3785 6.78233 L 90.3785 84.0694 C 90.4837 89.6425 87.1188 92.3765 83.123 92.2713 L 79.653 92.2713" />
</svg>
