<?xml version="1.0" standalone="no"?>
<!DOCTYPE svg PUBLIC "-//W3C//DTD SVG 1.1//EN" "http://www.w3.org/Graphics/SVG/1.1/DTD/svg11.dtd">
<svg xmlns="http://www.w3.org/2000/svg" version="1.1" width="100%" height="100%">
<style type="text/css"><![CDATA[
  .stroke { fill:none; stroke:black; stroke-width:2 }
]]></style>
<path class="stroke" d="M 40.958976 5.9826495 L 13.854864 9.796533" />
<path class="stroke" d="M 13.854864 9.796533 L 13.854864 30.137214 M 3.5583599999999995 31.995261000000003 L 40.201872 26.518894" />
<path class="stroke" d="M 28.239743999999998 18.402226 C 35.70979199999999 21.531552 41.05992 26.127767 44.593056 31.604103" />
<path class="stroke" d="M 64.1576632 9.0416055 L 89.52408639999999 8.31751804 C 88.9634992 15.10583914 87.8423344 19.08832048 86.30072799999999 24.24744526 C 85.4598496 26.69124005 83.91824608 30.4021896 80.9751808 30.4021896 L 79.43357535999999 30.4021896" />
<path class="stroke" d="M 72.84671344 8.86058317 L 71.445256 14.381750440000001 C 69.20291824 21.44160364 65.13868528 25.96715135 61.635035200000004 29.7686116" />
<path class="stroke" d="M 55.2524 34.809145 C 44.27456 43.298077 31.0253 52.222398999999996 13.801262000000001 58.970046999999994" />
<path class="stroke" d="M 55.2524 35.0268124 C 66.23024000000001 39.162424 73.80122 43.733467 81.9401 48.304441" />
<path class="stroke" d="M 26.86118 54.1814056 L 77.39744 54.1814056" />
<path class="stroke" d="M 17.208202999999997 66.58829560000001 L 84.2113166 66.58829560000001" />
<path class="stroke" d="M 54.1166774 54.399073 L 54.1166774 91.83750699999999" />
<path class="stroke" d="M 16.640383999999997 73.55367999999999 C 24.40058 76.45581999999999 30.457400000000003 79.57572400000001 36.514219999999995 82.913254" />
<path class="stroke" d="M 82.50800000000001 73.55361099999999 C 78.34388 77.54415699999998 72.47624 80.881687 64.90526 84.219286" />
<path class="stroke" d="M 19.479488 96.190855 L 81.9401 88.790191" />
</svg>
