<?xml version="1.0" standalone="no"?>
<!DOCTYPE svg PUBLIC "-//W3C//DTD SVG 1.1//EN" "http://www.w3.org/Graphics/SVG/1.1/DTD/svg11.dtd">
<svg xmlns="http://www.w3.org/2000/svg" version="1.1" width="100%" height="100%">
<style type="text/css"><![CDATA[
  .stroke { fill:none; stroke:black; stroke-width:2 }
]]></style>
<path class="stroke" d="M 30.39456512 5.74334352 L 13.590015679999999 9.40467168" />
<path class="stroke" d="M 13.590015679999999 9.40467168 L 13.590015679999999 28.931725439999997 M 7.2061832 30.71545056 L 29.92516064 25.45813824" />
<path class="stroke" d="M 22.50864128 17.66613696 C 27.140071039999995 20.670289920000002 30.4571504 25.082656319999998 32.64769472 30.33993888" />
<path class="stroke" d="M 44.777751184 8.67994128 L 60.50493356799999 7.984817318399999 C 60.157369504 14.5016055744 59.462247328 18.3247876608 58.50645135999999 23.2775474496 C 57.985106752 25.623590448 57.0293125696 29.186102016 55.204612096000005 29.186102016 L 54.248816723199994 29.186102016" />
<path class="stroke" d="M 50.1649623328 8.506159843199999 L 49.29605872 13.8064804224 C 47.9058093088 20.5839394944 45.3859848736 24.928465296000002 43.213721824000004 28.577867136" />
<path class="stroke" d="M 39.256488 33.4167792 C 32.4502272 41.56615392 24.235686 50.133503039999994 13.556782440000001 56.61124511999999" />
<path class="stroke" d="M 39.256488 33.625739904 C 46.06274880000001 37.59592704 50.7567564 41.984128319999996 55.802862 46.37226336" />
<path class="stroke" d="M 21.6539316 52.014149376 L 52.986412800000004 52.014149376" />
<path class="stroke" d="M 15.66908586 63.924763776000006 L 57.211016292000004 63.924763776000006" />
<path class="stroke" d="M 38.552339988 52.22311008 L 38.552339988 88.16400671999999" />
<path class="stroke" d="M 15.317038079999998 70.61153279999998 C 20.128359600000003 73.39758719999999 23.883588000000003 76.39269504 27.638816399999996 79.59672384" />
<path class="stroke" d="M 56.15496 70.61146655999998 C 53.5732056 74.44239071999998 49.9352688 77.64641952 45.2412612 80.85051456" />
<path class="stroke" d="M 17.07728256 92.3432208 L 55.802862 85.23858335999999" />
<path class="stroke" d="M 74.9211 12.1451 L 74.9211 68.612" />
<path class="stroke" d="M 90.3785 6.78233 L 90.3785 84.0694 C 90.4837 89.6425 87.1188 92.3765 83.123 92.2713 L 79.653 92.2713" />
</svg>
