<?xml version="1.0" standalone="no"?>
<!DOCTYPE svg PUBLIC "-//W3C//DTD SVG 1.1//EN" "http://www.w3.org/Graphics/SVG/1.1/DTD/svg11.dtd">
<svg xmlns="http://www.w3.org/2000/svg" version="1.1" width="100%" height="100%">
<style type="text/css"><![CDATA[
  .stroke { fill:none; stroke:black; stroke-width:2 }
]]></style>
<path class="stroke" d="M 12.51021738 8.0 L 84.48977550000001 8.0" />
<path class="stroke" d="M 36.17801 10.381674115000001 C 35.59407 13.850286129999999 35.372414 15.84413524 33.036648 18.156543579999997" />
<path class="stroke" d="M 22.041885 17.845549929999997 L 22.041885 67.2937165" />
<path class="stroke" d="M 21.727747 18.258620500000003 L 68.9272 18.258620500000003 L 68.9272 43.899998679999996" />
<path class="stroke" d="M 22.670155 31.27809961 L 68.62069 31.27809961" />
<path class="stroke" d="M 22.356022 43.99634647 L 68.9272 43.99634647" />
<path class="stroke" d="M 22.670155 55.5583951 L 84.24084 55.5583951" />
<path class="stroke" d="M 22.356022 66.5423362 L 84.71264 66.5423362 L 82.87356 80.76896289999999 C 82.26054 85.1689684 80.57471 90.3275812 77.049805 90.3275812 C 75.057465 90.3275812 74.137924 90.3275812 72.75862 90.3275812" />
<path class="stroke" d="M 18.505747 74.39654476 C 18.199232 76.9758571 16.666666 81.07241374 14.827585 83.65172410000001" />
<path class="stroke" d="M 33.065132 74.39654476 C 34.291187 76.5206848 35.363983 79.25172355000001 35.51724 82.4379346" />
<path class="stroke" d="M 51.455936 74.85171706 C 53.14176 76.9758571 54.214554 79.25172355000001 54.980843 81.98275833999999" />
<path class="stroke" d="M 68.16092 74.6999956 C 70.30651 76.0655125 71.99233 78.03792514 73.37164 80.9206903" />
</svg>
