<?xml version="1.0" standalone="no"?>
<!DOCTYPE svg PUBLIC "-//W3C//DTD SVG 1.1//EN" "http://www.w3.org/Graphics/SVG/1.1/DTD/svg11.dtd">
<svg xmlns="http://www.w3.org/2000/svg" version="1.1" width="100%" height="100%">
<style type="text/css"><![CDATA[
  .stroke { fill:none; stroke:black; stroke-width:2 }
]]></style>
<path class="stroke" d="M 15.61514 7.728705 L 15.61514 61.987385 C 15.93064 75.23659 13.09144 85.015785 7.09778 93.21768" />
<path class="stroke" d="M 15.93064 7.72871 L 81.86124 7.72871 L 81.86124 61.041 C 81.86124 77.1293 85.01584 85.6467 92.27134 93.2177 L 92.27134 71.4511" />
<path class="stroke" d="M 24.2567434708 16.28 L 71.76325183 16.28" />
<path class="stroke" d="M 39.8774866 18.447323444650003 C 39.4920862 21.6037603783 39.34579324 23.4181630684 37.80418768 25.522454657799997" />
<path class="stroke" d="M 30.5476441 25.239450436299997 L 30.5476441 70.237282015" />
<path class="stroke" d="M 30.340313020000004 25.615344655000005 L 61.491952000000005 25.615344655000005 L 61.491952000000005 48.9489987988" />
<path class="stroke" d="M 30.9623023 37.463070645100004 L 61.2896554 37.463070645100004" />
<path class="stroke" d="M 30.75497452 49.0366752877 L 61.491952000000005 49.0366752877" />
<path class="stroke" d="M 30.9623023 59.558139541 L 71.5989544 59.558139541" />
<path class="stroke" d="M 30.75497452 69.553525942 L 71.91034239999999 69.553525942 L 70.6965496 82.49975623899999 C 70.2919564 86.503761244 69.1793086 91.198098892 66.8528713 91.198098892 C 65.5379269 91.198098892 64.93102984000001 91.198098892 64.02068919999999 91.198098892" />
<path class="stroke" d="M 28.21379302 76.7008557316 C 28.011493119999997 79.048029961 26.99999956 82.7758965034 25.7862061 85.123068931" />
<path class="stroke" d="M 37.82298712 76.7008557316 C 38.632183420000004 78.633823168 39.340228780000004 81.11906843050001 39.441378400000005 84.01852048600001" />
<path class="stroke" d="M 49.96091776 77.1150625246 C 51.0735616 79.048029961 51.78160564 81.11906843050001 52.28735638 83.60431008939999" />
<path class="stroke" d="M 60.9862072 76.976995996 C 62.40229660000001 78.219616375 63.5149378 80.0145118774 64.4252824 82.637828173" />
</svg>
