<?xml version="1.0" standalone="no"?>
<!DOCTYPE svg PUBLIC "-//W3C//DTD SVG 1.1//EN" "http://www.w3.org/Graphics/SVG/1.1/DTD/svg11.dtd">
<svg xmlns="http://www.w3.org/2000/svg" version="1.1" width="100%" height="100%">
<style type="text/css"><![CDATA[
  .stroke { fill:none; stroke:black; stroke-width:2 }
]]></style>
<path class="stroke" d="M 7.1572320000000005 15.5471665 L 15.3019 24.207565000000002" />
<path class="stroke" d="M 7.1572320000000005 91.707538 L 17.06289 53.245255" />
<path class="stroke" d="M 36.29051026 16.50722568 L 85.7094835 16.50722568" />
<path class="stroke" d="M 61.0 5.356276920500001 L 61.0 31.043281610000005" />
<path class="stroke" d="M 29.68613014 31.043281610000005 L 92.0861278 31.043281610000005" />
<path class="stroke" d="M 50.865692440000004 34.448466778000004 L 50.865692440000004 40.123502716000004 C 50.865692440000004 45.127298370000005 44.944525240000004 50.07007187600001 30.141605679999998 51.351531550000004" />
<path class="stroke" d="M 64.30218772 34.387445257 L 64.30218772 48.78861262 C 64.30218772 50.31416005 67.26277444 51.229488090000004 70.45109074 51.229488090000004 L 88.21459 51.229488090000004 C 90.7197082 51.290509820000004 92.541601 50.80233389 92.541601 50.13109277 L 92.541601 48.971678646" />
<path class="stroke" d="M 55.64817274 56.678831 C 50.4102169 63.248175 41.5284661 70.1094875 32.41897636 74.48904999999999" />
<path class="stroke" d="M 52.91532574 60.474452 L 73.1839432 60.474452 C 64.98540220000001 72.4452535 47.4496333 86.31386499999999 29.9138683 93.90510499999999" />
<path class="stroke" d="M 44.26131388 67.627737 C 53.2 78.225807 71.58977686 88.21167750000001 90.9474448 93.90510499999999" />
</svg>
