<?xml version="1.0" standalone="no"?>
<!DOCTYPE svg PUBLIC "-//W3C//DTD SVG 1.1//EN" "http://www.w3.org/Graphics/SVG/1.1/DTD/svg11.dtd">
<svg xmlns="http://www.w3.org/2000/svg" version="1.1" width="100%" height="100%">
<style type="text/css"><![CDATA[
  .stroke { fill:none; stroke:black; stroke-width:2 }
]]></style>
<path class="stroke" d="M 7.465408 12.5471665 L 16.773600000000002 21.207565000000002" />
<path class="stroke" d="M 7.465408 88.707538 L 18.786160000000002 50.245255" />
<path class="stroke" d="M 32.6762932 10.272478 L 32.6762932 65.85831 C 31.83269598 77.9564 25.92751974 85.47684 20.865939 88.41962" />
<path class="stroke" d="M 32.6762932 10.272478 L 83.23941699999999 10.145985 L 83.23941699999999 86.05839 C 83.23941699999999 88.68613 82.4861258 90.14598 80.22626939999999 90.14598 L 77.7153231 90.14598" />
<path class="stroke" d="M 46.7327295928 30.048816895999998 L 70.70726737999999 30.048816895999998" />
<path class="stroke" d="M 58.72 18.4335177776 L 58.72 45.190186592" />
<path class="stroke" d="M 43.5287585192 45.190186592 L 73.80075738400001 45.190186592" />
<path class="stroke" d="M 46.7327295928 58.78026232 L 46.7327295928 80.35153168" />
<path class="stroke" d="M 46.7327295928 58.78026232 L 70.81775071999999 58.78026232 L 70.81775071999999 80.144116192" />
<path class="stroke" d="M 46.7327295928 78.6922028032 L 70.81775071999999 78.6922028032" />
</svg>
