<?xml version="1.0" standalone="no"?>
<!DOCTYPE svg PUBLIC "-//W3C//DTD SVG 1.1//EN" "http://www.w3.org/Graphics/SVG/1.1/DTD/svg11.dtd">
<svg xmlns="http://www.w3.org/2000/svg" version="1.1" width="100%" height="100%">
<style type="text/css"><![CDATA[
  .stroke { fill:none; stroke:black; stroke-width:2 }
]]></style>
<path class="stroke" d="M 23.263201294117646 11.605839 C 20.137396588235294 27.372261 13.645340470588234 41.970802 8.115069529411764 50.14598" />
<path class="stroke" d="M 18.454269647058823 30.583939 L 18.454269647058823 90.43795" />
<path class="stroke" d="M 30.343853872 31.320000000000004 L 58.656144352 31.320000000000004" />
<path class="stroke" d="M 44.5 10.027737120000001 L 44.5 55.80875520000001" />
<path class="stroke" d="M 36.5296056172 58.04598475 L 36.5296056172 89.0182465" />
<path class="stroke" d="M 36.5296056172 58.04598475 L 52.54385328 58.04598475 L 52.54385328 88.7204371" />
<path class="stroke" d="M 36.5296056172 86.63576416000001 L 52.54385328 86.63576416000001" />
<path class="stroke" d="M 76.44455532 9.90099 C 75.34554469 22.673267 72.70792125 37.82178 68.64158388 46.435642" />
<path class="stroke" d="M 72.59801978 35.742573 L 91.1712857 35.742573" />
<path class="stroke" d="M 82.599011 36.039604 C 81.2801978 61.287132 75.67524799 82.376236 66.88316850000001 89.80198" />
<path class="stroke" d="M 72.59801978 43.465347 C 75.01584102 61.58416 86.77524539999999 90.09901 93.25940659999999 90.09901" />
</svg>
