<?xml version="1.0" standalone="no"?>
<!DOCTYPE svg PUBLIC "-//W3C//DTD SVG 1.1//EN" "http://www.w3.org/Graphics/SVG/1.1/DTD/svg11.dtd">
<svg xmlns="http://www.w3.org/2000/svg" version="1.1" width="100%" height="100%">
<style type="text/css"><![CDATA[
  .stroke { fill:none; stroke:black; stroke-width:2 }
]]></style>
<path class="stroke" d="M 22.43237267647059 11.605839 C 19.418203852941176 27.372261 13.15800688235294 41.970802 7.825245617647059 50.14598" />
<path class="stroke" d="M 17.795188588235295 30.583939 L 17.795188588235295 90.43795" />
<path class="stroke" d="M 62.0 7.166457344000005 L 62.0 19.28" />
<path class="stroke" d="M 32.25 19.28 L 91.75 19.28" />
<path class="stroke" d="M 48.971599999999995 25.899714415094337 C 47.64664 36.432464905660375 40.80127 46.36519547169811 31.968453 50.898215849056605" />
<path class="stroke" d="M 47.42579 33.69919999999999 C 50.66462 39.098846792452825 54.78657 43.29865660377358 59.1293 46.29850264150944" />
<path class="stroke" d="M 81.21136 25.899714415094337 C 79.59205 34.232489056603775 73.77708 41.365452075471694 66.19559 46.29850264150944" />
<path class="stroke" d="M 78.34058999999999 33.899215094339624 C 82.46268 40.69871396226415 86.80541 45.09860226415094 92.25246 49.898330566037735" />
<path class="stroke" d="M 31.968453 61.17324608 L 92.69402699999999 61.17324608" />
<path class="stroke" d="M 62.441637 53.3448584 L 62.441637 92.62915039999999" />
</svg>
