<?xml version="1.0" standalone="no"?>
<!DOCTYPE svg PUBLIC "-//W3C//DTD SVG 1.1//EN" "http://www.w3.org/Graphics/SVG/1.1/DTD/svg11.dtd">
<svg xmlns="http://www.w3.org/2000/svg" version="1.1" width="100%" height="100%">
<style type="text/css"><![CDATA[
  .stroke { fill:none; stroke:black; stroke-width:2 }
]]></style>
<path class="stroke" d="M 21.19525420833333 9.562042 C 24.55291975 11.021896 27.910580500000002 14.817516 30.149022916666667 19.48905" />
<path class="stroke" d="M 9.443429125 22.8707 L 40.78162583333334 22.8707" />
<path class="stroke" d="M 15.599146250000002 37.007298 L 34.625911583333334 37.007298" />
<path class="stroke" d="M 15.599146250000002 51.313866 L 34.625911583333334 51.313866" />
<path class="stroke" d="M 14.479926 64.45255 L 14.479926 85.76642" />
<path class="stroke" d="M 14.479926 64.16058 L 36.30474291666667 64.16058 L 36.30474291666667 85.76642" />
<path class="stroke" d="M 14.479926 85.76642 L 36.02493833333333 85.76642" />
<path class="stroke" d="M 53.8503623 20.364962 L 80.6153234 20.364962 L 80.6153234 41.38686" />
<path class="stroke" d="M 53.442574979999996 41.67883 L 80.6153234 41.67883" />
<path class="stroke" d="M 53.590509 41.67883 L 53.590509 81.386856 C 53.590509 84.306564 55.40948744 87.22627 58.52773327 87.22627 L 86.5919671 87.22627 C 89.19050544 87.22627 90.22992219999999 85.18248 89.9700689 83.13868 L 89.9700689 80.51095" />
</svg>
