<?xml version="1.0" standalone="no"?>
<!DOCTYPE svg PUBLIC "-//W3C//DTD SVG 1.1//EN" "http://www.w3.org/Graphics/SVG/1.1/DTD/svg11.dtd">
<svg xmlns="http://www.w3.org/2000/svg" version="1.1" width="100%" height="100%">
<style type="text/css"><![CDATA[
  .stroke { fill:none; stroke:black; stroke-width:2 }
]]></style>
<path class="stroke" d="M 34.34257608 7.0495049000000005 C 32.02574286 13.56336617 26.4653475 21.2891078 17.893068720000002 25.682177420000002" />
<path class="stroke" d="M 26.23366332 20.22871223 L 65.38811580000001 20.22871223" />
<path class="stroke" d="M 47.316834 20.38019804 C 44.536633200000004 33.25643732 32.720793060000005 44.011880360000006 14.186139 47.7990098" />
<path class="stroke" d="M 26.23366332 24.16732697 C 31.33069188 33.407921599999995 56.1207876 47.950495100000005 69.7901004 47.950495100000005" />
<path class="stroke" d="M 28.13211642 56.72992624 L 28.0852356 78.7060432 C 22.12952967 90.4966432 22.12952967 90.1100656 15.47315358 95.13557248" />
<path class="stroke" d="M 28.13211642 56.72992624 L 63.6941616 56.72992624 L 63.6941616 93.3080272 C 63.6941616 94.4291968 62.6780973 95.41021599999999 60.137953079999996 95.41021599999999 L 57.34379669999999 95.41021599999999" />
<path class="stroke" d="M 28.13211642 67.29403696 L 63.6941616 67.29403696" />
<path class="stroke" d="M 28.13211642 78.45296128 L 63.6941616 78.45296128" />
</svg>
