<?xml version="1.0" standalone="no"?>
<!DOCTYPE svg PUBLIC "-//W3C//DTD SVG 1.1//EN" "http://www.w3.org/Graphics/SVG/1.1/DTD/svg11.dtd">
<svg xmlns="http://www.w3.org/2000/svg" version="1.1" width="100%" height="100%">
<style type="text/css"><![CDATA[
  .stroke { fill:none; stroke:black; stroke-width:2 }
]]></style>
<path class="stroke" d="M 24.0161397288603 11.605839 C 20.78916500459559 27.372261 14.08698653492647 41.970802 8.37772244944853 50.14598" />
<path class="stroke" d="M 19.051561856617646 30.583939 L 19.051561856617646 90.43795" />
<path class="stroke" d="M 30.640625 29.9124078 L 30.640625 77.912406" />
<path class="stroke" d="M 56.009525973600006 9.556039557000002 C 54.4572477162 15.6139305381 50.731782824999996 22.798870254 44.9883560424 26.884425000600004" />
<path class="stroke" d="M 50.5765544244 21.8127023739 L 76.810037586 21.8127023739" />
<path class="stroke" d="M 64.70227878 21.9535841772 C 62.83954424400001 33.9284867076 54.9229313502 43.93104873480001 42.50471313 47.453079114000005" />
<path class="stroke" d="M 50.5765544244 25.4756140821 C 53.991563559599996 34.06936708799999 70.600927692 47.59396044300001 79.759367268 47.59396044300001" />
<path class="stroke" d="M 51.8485180014 55.7588314032 L 51.81710785200001 76.196620176 C 47.8267848789 87.161878176 47.8267848789 86.802361008 43.3670128986 91.4760824064" />
<path class="stroke" d="M 51.8485180014 55.7588314032 L 75.67508827200001 55.7588314032 L 75.67508827200001 89.776465296 C 75.67508827200001 90.819153024 74.994325191 91.73150088 73.2924285636 91.73150088 L 71.42034378899999 91.73150088" />
<path class="stroke" d="M 51.8485180014 65.5834543728 L 75.67508827200001 65.5834543728" />
<path class="stroke" d="M 51.8485180014 75.9612539904 L 75.67508827200001 75.9612539904" />
</svg>
