<?xml version="1.0" standalone="no"?>
<!DOCTYPE svg PUBLIC "-//W3C//DTD SVG 1.1//EN" "http://www.w3.org/Graphics/SVG/1.1/DTD/svg11.dtd">
<svg xmlns="http://www.w3.org/2000/svg" version="1.1" width="100%" height="100%">
<style type="text/css"><![CDATA[
  .stroke { fill:none; stroke:black; stroke-width:2 }
]]></style>
<path class="stroke" d="M 22.43237267647059 11.605839 C 19.418203852941176 27.372261 13.15800688235294 41.970802 7.825245617647059 50.14598" />
<path class="stroke" d="M 17.795188588235295 30.583939 L 17.795188588235295 90.43795" />
<path class="stroke" d="M 38.063065361599996 10.8248165 L 38.063065361599996 47.613135" />
<path class="stroke" d="M 38.063065361599996 10.678830999999999 L 80.09494555519998 10.678830999999999 L 80.09494555519998 47.613135" />
<path class="stroke" d="M 59.079004376 10.8248165 L 59.079004376 44.9854" />
<path class="stroke" d="M 38.063065361599996 27.822279 L 79.778919392 27.822279" />
<path class="stroke" d="M 38.063065361599996 44.9854 L 80.09494555519998 44.9854" />
<path class="stroke" d="M 34.328174395999994 69.9182456 C 33.897225938 74.65985352000001 32.173429154000004 78.2569312 29.58773693 80.70948704" />
<path class="stroke" d="M 41.55846224 64.49307200000001 L 45.50381024 74.461296 C 49.44827264 82.748176 56.420896639999995 86.45173600000001 70.58776604000002 86.627352 L 81.08612600000001 86.627352 C 83.24087198 86.5956168 84.39172394 85.49118704 84.53371514 84.30656640000001 L 84.53371514 82.9985408" />
<path class="stroke" d="M 58.2458378 55.3664216 C 61.47795455599999 56.837956000000005 63.848175872 59.29051072 65.78744135 62.07007128" />
<path class="stroke" d="M 81.51708109999998 58.8 C 84.749189 60.9255472 86.68846112 63.541604 88.41225938 66.48467056" />
</svg>
