<?xml version="1.0" standalone="no"?>
<!DOCTYPE svg PUBLIC "-//W3C//DTD SVG 1.1//EN" "http://www.w3.org/Graphics/SVG/1.1/DTD/svg11.dtd">
<svg xmlns="http://www.w3.org/2000/svg" version="1.1" width="100%" height="100%">
<style type="text/css"><![CDATA[
  .stroke { fill:none; stroke:black; stroke-width:2 }
]]></style>
<path class="stroke" d="M 23.263201294117646 11.605839 C 20.137396588235294 27.372261 13.645340470588234 41.970802 8.115069529411764 50.14598" />
<path class="stroke" d="M 18.454269647058823 30.583939 L 18.454269647058823 90.43795" />
<path class="stroke" d="M 62.999997040000004 5.0 C 64.75841168 7.6732674 65.0670901 10.037088 65.1599971 12.702702" />
<path class="stroke" d="M 35.39999948 13.675674 L 94.6799994 13.351351" />
<path class="stroke" d="M 35.15999972 13.999998 L 35.39999948 39.62162 C 35.39999948 61.30479 36.77465382 79.686905 30.840000118 92.162155" />
<path class="stroke" d="M 47.2639296 26.4732014 L 85.48923936 26.0670047 L 85.48923936 45.309647600000005" />
<path class="stroke" d="M 42.221640640000004 35.823328939999996 L 94.13837120000001 35.823328939999996" />
<path class="stroke" d="M 47.6374224 45.1735142 L 85.48923936 45.309647600000005" />
<path class="stroke" d="M 46.51690848 55.753910000000005 L 46.51690848 91.432202" />
<path class="stroke" d="M 46.70370816 55.753910000000005 L 90.02982016 55.753910000000005 L 90.02982016 87.003128 C 90.02982016 89.62775 88.72256576000001 91.26809 87.22859456 91.186112 L 84.98757856 91.186112" />
<path class="stroke" d="M 46.70367856 66.08835619999999 L 89.84307376 66.08835619999999" />
<path class="stroke" d="M 46.70367856 76.42275092 L 89.65629776 76.42275092" />
<path class="stroke" d="M 68.36672508800001 21.5520488 L 68.36672508800001 90.69401" />
</svg>
