<?xml version="1.0" standalone="no"?>
<!DOCTYPE svg PUBLIC "-//W3C//DTD SVG 1.1//EN" "http://www.w3.org/Graphics/SVG/1.1/DTD/svg11.dtd">
<svg xmlns="http://www.w3.org/2000/svg" version="1.1" width="100%" height="100%">
<style type="text/css"><![CDATA[
  .stroke { fill:none; stroke:black; stroke-width:2 }
]]></style>
<path class="stroke" d="M 24.924858529411765 11.605839 C 21.57578205882353 27.372261 14.620007647058822 41.970802 8.694717352941176 50.14598" />
<path class="stroke" d="M 19.772431764705882 30.583939 L 19.772431764705882 90.43795" />
<path class="stroke" d="M 37.4730504936 11.0828534325 L 37.4730504936 38.757480255000004" />
<path class="stroke" d="M 37.4730504936 11.0828534325 L 80.80572064 11.0828534325 L 80.80572064 38.491378797" />
<path class="stroke" d="M 37.4730504936 36.628662211199995 L 80.80572064 36.628662211199995" />
<path class="stroke" d="M 40.9905046 51.8469759 L 40.9905046 72.67665090000001 C 41.2239746 82.0646289 36.321696599999996 87.3455409 30.7192454 90.27922125" />
<path class="stroke" d="M 58.96536582 53.31387885000001 L 58.96536582 87.9321942" />
<path class="stroke" d="M 77.4069628 51.8470038 L 77.4069628 85.29184515 C 77.4069628 88.5189498 79.04103079999999 90.27916080000001 80.6750988 90.27916080000001 L 90.0125668 90.27916080000001 C 92.1135748 90.37690380000001 93.5141728 88.1276988 93.5141728 85.29175308 L 93.5141728 80.89118280000001" />
</svg>
