<?xml version="1.0" standalone="no"?>
<!DOCTYPE svg PUBLIC "-//W3C//DTD SVG 1.1//EN" "http://www.w3.org/Graphics/SVG/1.1/DTD/svg11.dtd">
<svg xmlns="http://www.w3.org/2000/svg" version="1.1" width="100%" height="100%">
<style type="text/css"><![CDATA[
  .stroke { fill:none; stroke:black; stroke-width:2 }
]]></style>
<path class="stroke" d="M 22.43237267647059 11.605839 C 19.418203852941176 27.372261 13.15800688235294 41.970802 7.825245617647059 50.14598" />
<path class="stroke" d="M 17.795188588235295 30.583939 L 17.795188588235295 90.43795" />
<path class="stroke" d="M 40.454378758333334 9.562042 C 42.58576645 11.021896 44.717151099999995 14.817516 46.138075416666666 19.48905" />
<path class="stroke" d="M 32.994524575 22.8707 L 52.887466833333335 22.8707" />
<path class="stroke" d="M 36.90206675 37.007298 L 48.97992648333333 37.007298" />
<path class="stroke" d="M 36.90206675 51.313866 L 48.97992648333333 51.313866" />
<path class="stroke" d="M 36.1916052 64.45255 L 36.1916052 85.76642" />
<path class="stroke" d="M 36.1916052 64.16058 L 50.04561941666667 64.16058 L 50.04561941666667 85.76642" />
<path class="stroke" d="M 36.1916052 85.76642 L 49.86800433333333 85.76642" />
<path class="stroke" d="M 67.203485056 20.22630907142857 L 81.635802304 20.22630907142857" />
<path class="stroke" d="M 74.5584165632 9.193776428571429 L 74.5584165632 34.84441442857143" />
<path class="stroke" d="M 59.9873268992 35.00446857142857 L 93.292671232 35.00446857142857" />
<path class="stroke" d="M 87.04792185599999 14.985856785714288 C 80.10930712959998 37.87836 69.70138574079999 52.22065178571429 58.599604140800004 58.84017285714286" />
<path class="stroke" d="M 68.144461288448 52.11021855 L 68.144461288448 89.6343024" />
<path class="stroke" d="M 68.144461288448 52.11021855 L 85.03732198399999 52.11021855 L 85.03732198399999 89.6343024" />
<path class="stroke" d="M 68.24267633407999 69.85007793 L 84.93910794752 69.85007793" />
<path class="stroke" d="M 68.144461288448 87.99634764 L 85.03732198399999 87.99634764" />
</svg>
