<?xml version="1.0" standalone="no"?>
<!DOCTYPE svg PUBLIC "-//W3C//DTD SVG 1.1//EN" "http://www.w3.org/Graphics/SVG/1.1/DTD/svg11.dtd">
<svg xmlns="http://www.w3.org/2000/svg" version="1.1" width="100%" height="100%">
<style type="text/css"><![CDATA[
  .stroke { fill:none; stroke:black; stroke-width:2 }
]]></style>
<path class="stroke" d="M 23.263201294117646 11.605839 C 20.137396588235294 27.372261 13.645340470588234 41.970802 8.115069529411764 50.14598" />
<path class="stroke" d="M 18.454269647058823 30.583939 L 18.454269647058823 90.43795" />
<path class="stroke" d="M 32.0908215095 13.86488111361 L 53.5820489945 13.86488111361 L 53.5820489945 35.71547869914" />
<path class="stroke" d="M 32.0908215095 35.71547869914 L 53.5820489945 35.71547869914" />
<path class="stroke" d="M 32.0908215095 13.86488111361 L 32.0908215095 57.2929164438 C 32.1238490495 70.0390596228 31.463580804499998 77.04951196679998 27.931238309 88.43006374065001" />
<path class="stroke" d="M 35.540088960649996 55.163542861029995 L 35.540088960649996 93.63145348944998" />
<path class="stroke" d="M 35.540088960649996 55.311496226589995 L 52.122466292 55.311496226589995 L 52.122466292 93.77940731119999" />
<path class="stroke" d="M 35.85898092695 92.29987365559998 L 52.05868778075 92.29987365559998" />
<path class="stroke" d="M 77.7500138 7.8475417532 L 77.7500138 16.5438682032" />
<path class="stroke" d="M 64.798907 17.143637866 L 90.8099405 17.143637866" />
<path class="stroke" d="M 68.93456 17.14362836 L 73.505534 44.732036619999995" />
<path class="stroke" d="M 86.02130600000001 17.44354266 L 81.45033199999999 45.33177016" />
<path class="stroke" d="M 62.622238175 45.631655941999995 L 92.98658689999999 45.631655941999995" />
<path class="stroke" d="M 64.90774415 70.221291936 L 90.26579615 70.221291936" />
<path class="stroke" d="M 77.6411525 45.6316312264 L 77.6411525 92.411984264" />
</svg>
