<?xml version="1.0" standalone="no"?>
<!DOCTYPE svg PUBLIC "-//W3C//DTD SVG 1.1//EN" "http://www.w3.org/Graphics/SVG/1.1/DTD/svg11.dtd">
<svg xmlns="http://www.w3.org/2000/svg" version="1.1" width="100%" height="100%">
<style type="text/css"><![CDATA[
  .stroke { fill:none; stroke:black; stroke-width:2 }
]]></style>
<path class="stroke" d="M 24.924858529411765 11.605839 C 21.57578205882353 27.372261 14.620007647058822 41.970802 8.694717352941176 50.14598" />
<path class="stroke" d="M 19.772431764705882 30.583939 L 19.772431764705882 90.43795" />
<path class="stroke" d="M 46.100913999999996 9.119889800000001 C 48.603554 12.1083018 50.443714 16.3333758 51.400614000000004 20.2491618" />
<path class="stroke" d="M 77.01579100000001 9.119889800000001 C 75.838041 14.1692418 74.21873099999999 17.0546558 71.936871 20.2492598" />
<path class="stroke" d="M 38.372256 25.5047254 L 86.511046 25.5047254" />
<path class="stroke" d="M 32.6309155 41.8895512 L 91.8107012 41.8895512" />
<path class="stroke" d="M 62.88326 6.9558342 C 61.558299999999996 37.767534 49.192449999999994 60.232367999999994 32.630912 74.35015" />
<path class="stroke" d="M 64.64984999999999 25.813885999999997 C 68.7718 46.732867999999996 78.63507999999999 64.25125 91.81075999999999 74.35015" />
<path class="stroke" d="M 52.1861386 58.21976258 L 66.9900998 58.21976258 L 66.9900998 69.467444648" />
<path class="stroke" d="M 52.26930672 69.50655488 L 66.9900998 69.50655488" />
<path class="stroke" d="M 52.26930672 69.467444648 L 52.26930672 87.31703019199999 C 52.26930672 89.15088929599999 53.184158 90.984752516 54.59802024 90.984752516 L 70.48316840000001 90.984752516 C 71.7306916 90.984752516 72.81188080000001 89.639919488 72.81188080000001 87.928317932 L 72.81188080000001 85.72768618399999" />
</svg>
