<?xml version="1.0" standalone="no"?>
<!DOCTYPE svg PUBLIC "-//W3C//DTD SVG 1.1//EN" "http://www.w3.org/Graphics/SVG/1.1/DTD/svg11.dtd">
<svg xmlns="http://www.w3.org/2000/svg" version="1.1" width="100%" height="100%">
<style type="text/css"><![CDATA[
  .stroke { fill:none; stroke:black; stroke-width:2 }
]]></style>
<path class="stroke" d="M 24.924858529411765 11.605839 C 21.57578205882353 27.372261 14.620007647058822 41.970802 8.694717352941176 50.14598" />
<path class="stroke" d="M 19.772431764705882 30.583939 L 19.772431764705882 90.43795" />
<path class="stroke" d="M 35.9623052 22.4151444 L 90.0754928 22.4151444" />
<path class="stroke" d="M 41.62262984 32.066065349999995 C 45.39629528 36.735894359999996 47.35851056 40.47176034 49.547168 47.63213334" />
<path class="stroke" d="M 84.415112 31.4434197 C 82.45282399999999 38.08483668 80.490608 42.54716367 77.16982399999999 47.32074567" />
<path class="stroke" d="M 31.886806399999998 55.415052 L 92.792456 55.415052" />
<path class="stroke" d="M 63.58486544 7.1603829 C 63.547136 30.146292 63.963944 41.81661 61.603784 55.337238 C 58.448527999999996 71.83034099999999 48.00003272 83.79716400000001 31.88679272 92.462238" />
<path class="stroke" d="M 64.943432 56.037762 C 70.07552 73.471761 80.867888 85.924575 92.56601599999999 92.150982" />
</svg>
