<?xml version="1.0" standalone="no"?>
<!DOCTYPE svg PUBLIC "-//W3C//DTD SVG 1.1//EN" "http://www.w3.org/Graphics/SVG/1.1/DTD/svg11.dtd">
<svg xmlns="http://www.w3.org/2000/svg" version="1.1" width="100%" height="100%">
<style type="text/css"><![CDATA[
  .stroke { fill:none; stroke:black; stroke-width:2 }
]]></style>
<path class="stroke" d="M 24.924858529411765 11.605839 C 21.57578205882353 27.372261 14.620007647058822 41.970802 8.694717352941176 50.14598" />
<path class="stroke" d="M 19.772431764705882 30.583939 L 19.772431764705882 90.43795" />
<path class="stroke" d="M 86.626867328 11.626024375 C 71.89675404799999 13.464094444999999 53.484203648000005 14.750709844999998 35.531884928 15.072385545000001" />
<path class="stroke" d="M 30.468390156799998 27.06576096 L 92.610980864 27.06576096" />
<path class="stroke" d="M 61.30950656 14.2452822 L 61.30950656 50.225415000000005" />
<path class="stroke" d="M 61.3095372032 27.06580466 C 53.484141632000004 34.188292860000004 44.0477119232 40.34579766 30.9287093888 45.53836276" />
<path class="stroke" d="M 61.3095372032 27.06580466 C 69.058179584 34.55589726 77.72743562240001 40.116066759999995 92.150676224 45.40048926" />
<path class="stroke" d="M 58.604831145599995 57.994950309 C 57.756039646400005 65.004257257 52.4510888472 73.57118865099999 47.3583369944 77.59504969099999 C 58.9755318768 79.1346693 75.453662956 84.11072711999999 83.79702268 90.36269995800001" />
<path class="stroke" d="M 75.36847432799999 65.91287159000001 C 70.0635271008 80.71029902 59.029226895200004 86.29178538000001 42.7059841656 89.97992554" />
<path class="stroke" d="M 33.3197068872 68.034232591 L 90.471704744 68.034232591" />
</svg>
