<?xml version="1.0" standalone="no"?>
<!DOCTYPE svg PUBLIC "-//W3C//DTD SVG 1.1//EN" "http://www.w3.org/Graphics/SVG/1.1/DTD/svg11.dtd">
<svg xmlns="http://www.w3.org/2000/svg" version="1.1" width="100%" height="100%">
<style type="text/css"><![CDATA[
  .stroke { fill:none; stroke:black; stroke-width:2 }
]]></style>
<path class="stroke" d="M 7.189188 17.243242 L 92.81081 17.567566" />
<path class="stroke" d="M 25.675674 7.189188 C 25.675674 14.760128 26.0 27.834402 26.0 35.405403 C 25.894798 60.2214 22.43243 81.78378 6.466872 95.4259" />
<path class="stroke" d="M 32.486485 29.891891 L 32.486485 87.94594 C 32.486485 92.83206 33.19375 93.78378 37.675674 93.78378 L 85.675674 93.78378 C 92.44987 93.78378 94.10188 89.86318 94.1081 85.99999 L 94.1081 79.83784" />
<path class="stroke" d="M 80.01824289999999 25.99634923 C 69.1481706 33.87372184 53.375911779999996 39.67809964 41.86642226 40.3" />
<path class="stroke" d="M 86.1992697 43.4094876 C 73.73806019999999 53.950807899999994 62.8586512 58.3784389 44.1088202 60.3296609" />
<path class="stroke" d="M 92.2623942 62.27710854 C 78.4182581 75.27765654999999 59.55693201 81.96715230000001 39.52189732 82.5890484" />
<path class="stroke" d="M 63.8091495 5.7113551000000005 C 67.3107345 6.5210311 69.34542450000001 7.595692100000001 70.5757095 9.089912100000001" />
</svg>
