<?xml version="1.0" standalone="no"?>
<!DOCTYPE svg PUBLIC "-//W3C//DTD SVG 1.1//EN" "http://www.w3.org/Graphics/SVG/1.1/DTD/svg11.dtd">
<svg xmlns="http://www.w3.org/2000/svg" version="1.1" width="100%" height="100%">
<style type="text/css"><![CDATA[
  .stroke { fill:none; stroke:black; stroke-width:2 }
]]></style>
<path class="stroke" d="M 18.905107 9.854013 L 90.14598 9.854013" />
<path class="stroke" d="M 18.613138 9.854013 L 18.613138 31.167881 C 18.613138 74.67153 14.817516 81.386856 10.198019 90.09901" />
<path class="stroke" d="M 28.104323479999998 27.13945844 L 88.8956751 27.40540412" />
<path class="stroke" d="M 41.229728539999996 18.895134159999998 C 41.229728539999996 25.10330496 41.46 35.82420964 41.46 42.03243046 C 41.385306580000005 62.381548 38.9270253 80.06269959999999 27.59147912 91.24923799999999" />
<path class="stroke" d="M 46.06540435 37.51135062 L 46.06540435 85.11567079999999 C 46.06540435 89.1222892 46.5675625 89.90269959999999 49.74972854 89.90269959999999 L 83.82972853999999 89.90269959999999 C 88.6394077 89.90269959999999 89.81233479999999 86.6878076 89.816751 83.5199918 L 89.816751 78.4670288" />
<path class="stroke" d="M 79.81295245899999 34.3170063686 C 72.095201126 40.7764519088 60.896897363799994 45.5360417048 52.7251598046 46.04599999999999" />
<path class="stroke" d="M 84.201481487 48.595779832 C 75.35402274199998 57.23966247799999 67.62964235199999 60.870319898 54.31726234199999 62.470321938" />
<path class="stroke" d="M 88.506299882 64.06722900279999 C 78.67696325099999 74.727678371 65.28542172709999 80.213064886 51.0605470972 80.723019688" />
<path class="stroke" d="M 68.304496145 17.683311182 C 70.790621495 18.347245502 72.235251395 19.228467522000003 73.108753745 20.453727922" />
</svg>
