<?xml version="1.0" standalone="no"?>
<!DOCTYPE svg PUBLIC "-//W3C//DTD SVG 1.1//EN" "http://www.w3.org/Graphics/SVG/1.1/DTD/svg11.dtd">
<svg xmlns="http://www.w3.org/2000/svg" version="1.1" width="100%" height="100%">
<style type="text/css"><![CDATA[
  .stroke { fill:none; stroke:black; stroke-width:2 }
]]></style>
<path class="stroke" d="M 35.55177777777778 7.8832768 L 8.835960666666665 12.52048" />
<path class="stroke" d="M 8.576582444444444 30.45113232 L 35.81102444444444 30.45113232" />
<path class="stroke" d="M 22.323455555555554 11.5930913 L 22.323455555555554 92.2808033" />
<path class="stroke" d="M 8.057834222222223 70.022078 C 13.764122222222221 57.243956 19.211015555555555 44.156644 22.323537777777776 30.451148 C 25.09023333333333 40.446854 29.41306666666667 49.824473999999995 35.29228444444444 58.274524" />
<path class="stroke" d="M 46.1255992946 13.611993600000002 L 91.7882606675 13.611993600000002" />
<path class="stroke" d="M 63.4515331409 6.6340688 C 63.4515331409 8.753932 63.4515331409 11.403768 63.4515331409 13.523648000000001 C 63.397532440999996 20.472127999999998 58.161975614300005 29.540488 46.4494453976 31.719252" />
<path class="stroke" d="M 63.1652575181 20.174194 L 63.1652575181 30.019354080000003 C 63.1652575181 31.387468800000004 67.7560310099 31.266024400000003 70.056604139 31.266024400000003 L 80.05448188399998 31.283869920000004 C 83.531673611 31.283869920000004 86.012195861 30.739757120000004 86.0153865338 29.658063920000004 L 86.0153865338 27.5806448" />
<path class="stroke" d="M 74.62022739725 7.769084080000001 C 77.61583336475 8.41682488 79.35651065975 9.276553680000001 80.40901947725 10.47192968" />
<path class="stroke" d="M 75.50990033 44.739426107599996 C 67.09802076 46.6331680808 61.13960486 47.127188654 50.154013129999996 47.7958970636" />
<path class="stroke" d="M 49.8880252 39.634554428 L 49.8880252 57.913285976 C 49.8880252 60.3010490768 53.42871196 61.618436532800004 58.335644020000004 61.618436532800004 L 84.09703114 61.618436532800004 C 86.3752477 61.618436532800004 87.60197923999999 61.206751843999996 87.60197923999999 60.136377308 L 87.60197923999999 59.395346864000004" />
<path class="stroke" d="M 51.5131654972 72.254612906 L 51.5131654972 92.65005612799999" />
<path class="stroke" d="M 51.5131654972 72.254612906 L 85.29045009999999 72.254612906 L 85.29045009999999 92.65005612799999" />
<path class="stroke" d="M 51.709546536999994 81.8967482396 L 85.09407107799998 81.8967482396" />
<path class="stroke" d="M 51.5131654972 91.7597795408 L 85.29045009999999 91.7597795408" />
</svg>
