<?xml version="1.0" standalone="no"?>
<!DOCTYPE svg PUBLIC "-//W3C//DTD SVG 1.1//EN" "http://www.w3.org/Graphics/SVG/1.1/DTD/svg11.dtd">
<svg xmlns="http://www.w3.org/2000/svg" version="1.1" width="100%" height="100%">
<style type="text/css"><![CDATA[
  .stroke { fill:none; stroke:black; stroke-width:2 }
]]></style>
<path class="stroke" d="M 13.999998 8.05 C 13.351349 12.96999918 10.432432 16.92594527 7.189188 19.851351029999996" />
<path class="stroke" d="M 13.999998 10.80918889 L 92.48648 10.80918889 L 92.48648 32.749728399999995 C 91.85558 39.302836299999996 82.4922 44.003679 71.1357 44.089901999999995 L 66.4038 44.089901999999995" />
<path class="stroke" d="M 23.6577297 20.736713639999998 L 23.33783753 30.083177451999997 L 77.22756228 30.083177451999997" />
<path class="stroke" d="M 77.34227700000001 20.736713639999998 L 77.4448607 30.184237122" />
<path class="stroke" d="M 50.499997320000006 16.12668717656 L 50.499997320000006 30.2081527336 C 50.3977111 36.678015398 34.85459349 43.802 22.25135079 43.802" />
<path class="stroke" d="M 13.999998 49.45 C 13.351349 55.32999902 10.432432 60.05783703 7.189188 63.55405367" />
<path class="stroke" d="M 13.999998 52.74756721 L 92.48648 52.74756721 L 92.48648 78.9691876 C 91.85558 86.80095069999999 82.4922 92.419031 71.1357 92.522078 L 66.4038 92.522078" />
<path class="stroke" d="M 23.6577297 64.61216996 L 23.33783753 75.782334028 L 77.22756228 75.782334028" />
<path class="stroke" d="M 77.34227700000001 64.61216996 L 77.4448607 75.903112658" />
<path class="stroke" d="M 50.499997320000006 59.10262613784 L 50.499997320000006 75.9316947304 C 50.3977111 83.663969622 34.85459349 92.178 22.25135079 92.178" />
</svg>
