<?xml version="1.0" standalone="no"?>
<!DOCTYPE svg PUBLIC "-//W3C//DTD SVG 1.1//EN" "http://www.w3.org/Graphics/SVG/1.1/DTD/svg11.dtd">
<svg xmlns="http://www.w3.org/2000/svg" version="1.1" width="100%" height="100%">
<style type="text/css"><![CDATA[
  .stroke { fill:none; stroke:black; stroke-width:2 }
]]></style>
<path class="stroke" d="M 20.594059 25.643566 L 44.059406 25.643566" />
<path class="stroke" d="M 32.475246 9.60396 L 32.475246 41.38614" />
<path class="stroke" d="M 12.277227 41.482674 L 49.10891 41.482674" />
<path class="stroke" d="M 32.475246 44.950497 L 32.475246 82.67327" />
<path class="stroke" d="M 32.475246 59.50495 L 47.623764 59.50495" />
<path class="stroke" d="M 20.891088 59.50495 C 18.217821 72.871284 17.623762 79.10891 9.90099 90.09901" />
<path class="stroke" d="M 17.920792 73.762375 C 35.148514 91.58416 70.792076 89.80198 90.09901 89.80198" />
<path class="stroke" d="M 56.43999908 7.1645 C 56.14162054 11.5432992702 54.79891872 15.0640912903 53.30702648 17.667702416699996" />
<path class="stroke" d="M 56.43999908 9.6201781121 L 92.54378080000001 9.6201781121 L 92.54378080000001 29.147258275999995 C 92.2535668 34.979524307 87.94641200000001 39.16327431 82.722422 39.240012779999994 L 80.545748 39.240012779999994" />
<path class="stroke" d="M 60.882555662 18.455675139599997 L 60.735405263800004 26.77402793228 L 85.5246786488 26.77402793228" />
<path class="stroke" d="M 85.57744742 18.455675139599997 L 85.62463592200001 26.86397103858" />
<path class="stroke" d="M 73.2299987672 14.352751587138401 L 73.2299987672 26.885255932904 C 73.182947106 32.64343370422 66.0331130054 38.98378 60.2356213634 38.98378" />
<path class="stroke" d="M 56.43999908 44.0105 C 56.14162054 49.24369912780001 54.79891872 53.451474956700004 53.30702648 56.5631077663" />
<path class="stroke" d="M 56.43999908 46.9453348169 L 92.54378080000001 46.9453348169 L 92.54378080000001 70.282576964 C 92.2535668 77.25284612299998 87.94641200000001 82.25293759 82.722422 82.34464942 L 80.545748 82.34464942" />
<path class="stroke" d="M 60.882555662 57.5048312644 L 60.735405263800004 67.44627728492 L 85.5246786488 67.44627728492" />
<path class="stroke" d="M 85.57744742 57.5048312644 L 85.62463592200001 67.55377026562" />
<path class="stroke" d="M 73.2299987672 52.601337262677596 L 73.2299987672 67.579208310056 C 73.182947106 74.46093296357999 66.0331130054 82.03842 60.2356213634 82.03842" />
</svg>
