<?xml version="1.0" standalone="no"?>
<!DOCTYPE svg PUBLIC "-//W3C//DTD SVG 1.1//EN" "http://www.w3.org/Graphics/SVG/1.1/DTD/svg11.dtd">
<svg xmlns="http://www.w3.org/2000/svg" version="1.1" width="100%" height="100%">
<style type="text/css"><![CDATA[
  .stroke { fill:none; stroke:black; stroke-width:2 }
]]></style>
<path class="stroke" d="M 10.999998999999999 7.969500000000001 C 10.6756745 12.8402991882 9.216216 16.7566858173 7.594594 19.652837519699997" />
<path class="stroke" d="M 10.999998999999999 10.701097001099999 L 50.24324 10.701097001099999 L 50.24324 32.42223111599999 C 49.92779 38.909807937 45.2461 43.56364221 39.56785 43.64900297999999 L 37.2019 43.64900297999999" />
<path class="stroke" d="M 15.82886485 20.5293465036 L 15.668918765 29.78234567748 L 42.61378114 29.78234567748" />
<path class="stroke" d="M 42.671138500000005 20.5293465036 L 42.72243035 29.882394750779998" />
<path class="stroke" d="M 29.249998660000003 15.965420304794401 L 29.249998660000003 29.906071206264 C 29.19885555 36.31123524402 21.427296745 43.36398 15.125675395 43.36398" />
<path class="stroke" d="M 10.999998999999999 48.9555 C 10.6756745 54.7766990298 9.216216 59.4572586597 7.594594 62.9185131333" />
<path class="stroke" d="M 10.999998999999999 52.2200915379 L 50.24324 52.2200915379 L 50.24324 78.17949572399999 C 49.92779 85.93294119299999 45.2461 91.49484069 39.56785 91.59685721999999 L 37.2019 91.59685721999999" />
<path class="stroke" d="M 15.82886485 63.9660482604 L 15.668918765 75.02451068772 L 42.61378114 75.02451068772" />
<path class="stroke" d="M 42.671138500000005 63.9660482604 L 42.72243035 75.14408153142" />
<path class="stroke" d="M 29.249998660000003 58.511599876461595 L 29.249998660000003 75.172377783096 C 29.19885555 82.82732992577999 21.427296745 91.25622 15.125675395 91.25622" />
<path class="stroke" d="M 65.91970722 9.854013 C 65.24817438 19.781021 60.95036448 30.29197 58.39853932 32.627735" />
<path class="stroke" d="M 63.9051087 25.036495 L 63.9051087 90.43795" />
<path class="stroke" d="M 79.88758882 10.145985 C 79.08174978 16.569342 77.60437836 22.116787 75.45547364000001 25.328465" />
<path class="stroke" d="M 63.9051087 24.76344 L 88.75182240000001 24.76344" />
<path class="stroke" d="M 76.1270074 25.328465 L 76.1270074 90.43795" />
<path class="stroke" d="M 63.9051087 47.79185 L 87.0058372 47.79185" />
<path class="stroke" d="M 63.9051087 69.124084 L 87.1401434 69.124084" />
<path class="stroke" d="M 63.9051087 90.43795 L 91.43795376 90.43795" />
</svg>
