<?xml version="1.0" standalone="no"?>
<!DOCTYPE svg PUBLIC "-//W3C//DTD SVG 1.1//EN" "http://www.w3.org/Graphics/SVG/1.1/DTD/svg11.dtd">
<svg xmlns="http://www.w3.org/2000/svg" version="1.1" width="100%" height="100%">
<style type="text/css"><![CDATA[
  .stroke { fill:none; stroke:black; stroke-width:2 }
]]></style>
<path class="stroke" d="M 17.968528 7.698105 C 17.299794 13.13838 13.17189 17.44653 7.7987442 19.396214999999998" />
<path class="stroke" d="M 16.999978 11.377365000000001 C 18.890988 14.427674999999999 22.373170000000002 17.525145000000002 26.339616 19.396214999999998" />
<path class="stroke" d="M 39.968528 7.698105 C 39.299794 13.13838 35.171890000000005 17.44653 29.798744199999998 19.396214999999998" />
<path class="stroke" d="M 38.999978 11.377365000000001 C 40.890988 14.427674999999999 44.373169999999995 17.525145000000002 48.339616 19.396214999999998" />
<path class="stroke" d="M 5.6608811999999995 25.5157858 L 91.33908 25.5157858" />
<path class="stroke" d="M 58.903832 6.7776004 L 58.903832 25.515766 C 59.311814 53.206561 74.71347399999999 93.077326 87.055172 93.285424 L 87.055172 82.667278" />
<path class="stroke" d="M 87.667145 45.19088443 C 79.099329 69.1340374 64.41158899999999 86.5189324 43.60402199999999 92.66088646" />
<path class="stroke" d="M 79.711399 8.0268121 C 83.179343 10.525235499999999 85.423244 12.711353500000001 87.667145 16.7713435" />
<path class="stroke" d="M 21.540815414 31.64932978624 L 21.540815414 85.899185569" />
<path class="stroke" d="M 31.969624700599997 31.8612426958 L 32.130068278100005 84.415787884" />
<path class="stroke" d="M 7.4218100286499995 43.3045714366 L 21.3803718365 43.3045714366" />
<path class="stroke" d="M 7.261367193199999 57.7146903202 L 21.3803718365 57.7146903202" />
<path class="stroke" d="M 7.1009241104 72.760549762 L 21.219928259 72.760549762" />
<path class="stroke" d="M 32.4509559278 42.8807454868 L 46.569959087 42.8807454868" />
<path class="stroke" d="M 32.4509559278 57.5027763652 L 46.4095150148 57.5027763652" />
<path class="stroke" d="M 32.6114 72.54863254 L 46.4095150148 72.54863254" />
<path class="stroke" d="M 5.8173779639 88.813 L 47.53261807849999 82.296654868" />
</svg>
