<?xml version="1.0" standalone="no"?>
<!DOCTYPE svg PUBLIC "-//W3C//DTD SVG 1.1//EN" "http://www.w3.org/Graphics/SVG/1.1/DTD/svg11.dtd">
<svg xmlns="http://www.w3.org/2000/svg" version="1.1" width="100%" height="100%">
<style type="text/css"><![CDATA[
  .stroke { fill:none; stroke:black; stroke-width:2 }
]]></style>
<path class="stroke" d="M 9.1315308 28.594593 L 6.7099088 42.864864" />
<path class="stroke" d="M 20.936934666666666 25.027027 L 22.753150933333334 28.594593" />
<path class="stroke" d="M 14.580178666666667 6.8648643 L 14.580178666666667 92.162155" />
<path class="stroke" d="M 39.29671072 7.698105 C 38.80184756 13.13838 35.7471986 17.44653 31.771070708 19.396214999999998" />
<path class="stroke" d="M 38.57998372 11.377365000000001 C 39.97933112 14.427674999999999 42.556145799999996 17.525145000000002 45.49131584 19.396214999999998" />
<path class="stroke" d="M 55.576710719999994 7.698105 C 55.08184756 13.13838 52.027198600000006 17.44653 48.051070708 19.396214999999998" />
<path class="stroke" d="M 54.85998372 11.377365000000001 C 56.25933112 14.427674999999999 58.8361458 17.525145000000002 61.77131584 19.396214999999998" />
<path class="stroke" d="M 30.189052088 25.5157858 L 93.5909192 25.5157858" />
<path class="stroke" d="M 69.58883568 6.7776004 L 69.58883568 25.515766 C 69.89074235999999 53.206561 81.28797076 93.077326 90.42082728 93.285424 L 90.42082728 82.667278" />
<path class="stroke" d="M 90.8736873 45.19088443 C 84.53350345999999 69.1340374 73.66457585999999 86.5189324 58.266976279999994 92.66088646" />
<path class="stroke" d="M 84.98643526000001 8.0268121 C 87.55271382000001 10.525235499999999 89.21320055999999 12.711353500000001 90.8736873 16.7713435" />
<path class="stroke" d="M 41.94020340636 31.64932978624 L 41.94020340636 85.899185569" />
<path class="stroke" d="M 49.657522278444 31.8612426958 L 49.776250525794005 84.415787884" />
<path class="stroke" d="M 31.492139421201 43.3045714366 L 41.82147515901 43.3045714366" />
<path class="stroke" d="M 31.373411722968 57.7146903202 L 41.82147515901 57.7146903202" />
<path class="stroke" d="M 31.254683841696 72.760549762 L 41.70274691166 72.760549762" />
<path class="stroke" d="M 50.013707386572 42.8807454868 L 60.46176972438 42.8807454868" />
<path class="stroke" d="M 50.013707386572 57.5027763652 L 60.343041110952 57.5027763652" />
<path class="stroke" d="M 50.132436 72.54863254 L 60.343041110952 72.54863254" />
<path class="stroke" d="M 30.304859693286 88.813 L 61.174137378089995 82.296654868" />
</svg>
