<?xml version="1.0" standalone="no"?>
<!DOCTYPE svg PUBLIC "-//W3C//DTD SVG 1.1//EN" "http://www.w3.org/Graphics/SVG/1.1/DTD/svg11.dtd">
<svg xmlns="http://www.w3.org/2000/svg" version="1.1" width="100%" height="100%">
<style type="text/css"><![CDATA[
  .stroke { fill:none; stroke:black; stroke-width:2 }
]]></style>
<path class="stroke" d="M 21.135134 7.518017750000001 C 18.799368 12.116557499999999 13.449989 18.168770333333335 8.486486 20.382882" />
<path class="stroke" d="M 18.216215 12.436936416666668 L 47.226276 12.517031" />
<path class="stroke" d="M 26.0 12.626125416666666 C 30.08759 15.351186916666666 30.6376 14.403399166666667 31.513512 18.490989083333336" />
<path class="stroke" d="M 65.32846 7.407542583333334 C 63.284668 13.027979083333335 60.07299 15.412407750000002 57.44525 17.115570750000003" />
<path class="stroke" d="M 62.9927 12.687347416666666 L 89.24324 12.815314416666666" />
<path class="stroke" d="M 72.62773 13.027979083333335 C 74.97297 15.842341916666667 74.64864 15.274774333333333 76.918915 18.112611666666666" />
<path class="stroke" d="M 17.968528 26.158484 C 17.299794 30.510704 13.17189 33.957224 7.7987442 35.516971999999996" />
<path class="stroke" d="M 16.999978 29.101892 C 18.890988 31.54214 22.373170000000002 34.020116 26.339616 35.516971999999996" />
<path class="stroke" d="M 39.968528 26.158484 C 39.299794 30.510704 35.171890000000005 33.957224 29.798744199999998 35.516971999999996" />
<path class="stroke" d="M 38.999978 29.101892 C 40.890988 31.54214 44.373169999999995 34.020116 48.339616 35.516971999999996" />
<path class="stroke" d="M 5.6608811999999995 40.41262864 L 91.33908 40.41262864" />
<path class="stroke" d="M 58.903832 25.42208032 L 58.903832 40.412612800000005 C 59.311814 62.565248800000006 74.71347399999999 94.4618608 87.055172 94.62833920000001 L 87.055172 86.1338224" />
<path class="stroke" d="M 87.667145 56.152707544 C 79.099329 75.30722992 64.41158899999999 89.21514592 43.60402199999999 94.128709168" />
<path class="stroke" d="M 79.711399 26.421449680000002 C 83.179343 28.4201884 85.423244 30.1690828 87.667145 33.4170748" />
<path class="stroke" d="M 21.540815414 45.319463828992 L 21.540815414 88.7193484552" />
<path class="stroke" d="M 31.969624700599997 45.488994156640004 L 32.130068278100005 87.5326303072" />
<path class="stroke" d="M 7.4218100286499995 54.64365714928 L 21.3803718365 54.64365714928" />
<path class="stroke" d="M 7.261367193199999 66.17175225616 L 21.3803718365 66.17175225616" />
<path class="stroke" d="M 7.1009241104 78.20843980960001 L 21.219928259 78.20843980960001" />
<path class="stroke" d="M 32.4509559278 54.30459638944 L 46.569959087 54.30459638944" />
<path class="stroke" d="M 32.4509559278 66.00222109216 L 46.4095150148 66.00222109216" />
<path class="stroke" d="M 32.6114 78.038906032 L 46.4095150148 78.038906032" />
<path class="stroke" d="M 5.8173779639 91.05040000000001 L 47.53261807849999 85.8373238944" />
</svg>
