<?xml version="1.0" standalone="no"?>
<!DOCTYPE svg PUBLIC "-//W3C//DTD SVG 1.1//EN" "http://www.w3.org/Graphics/SVG/1.1/DTD/svg11.dtd">
<svg xmlns="http://www.w3.org/2000/svg" version="1.1" width="100%" height="100%">
<style type="text/css"><![CDATA[
  .stroke { fill:none; stroke:black; stroke-width:2 }
]]></style>
<path class="stroke" d="M 13.154171785714285 14.059406 C 16.654879285714284 16.138615 20.15558785714286 19.108912 23.01980357142857 22.673267" />
<path class="stroke" d="M 10.926448928571428 38.118813 C 14.108912142857141 39.90099 17.927864999999997 42.574257 20.473834285714286 46.138615" />
<path class="stroke" d="M 10.608203571428572 85.64356 C 11.321795357142857 87.422676 13.310014285714285 89.896904 15.629600357142856 89.896904 C 17.949189642857142 89.896904 21.110325 76.73267 23.33804892857143 69.60396" />
<path class="stroke" d="M 77.086535 8.75396 C 69.59183012 14.26394 53.18836316 19.52156 35.51224472 21.687700000000003" />
<path class="stroke" d="M 30.629196379999996 43.93649522 L 87.61021 43.93649522" />
<path class="stroke" d="M 59.1197036 19.25036497 L 59.1197036 46.79488775 C 59.1197036 66.8036497 46.54661571999999 87.36993346 26.7985385 92.009491" />
<path class="stroke" d="M 59.1197036 46.53503534 C 59.1197036 67.063503 71.9588618 87.3227688 91.4408728 92.009491" />
</svg>
