<?xml version="1.0" standalone="no"?>
<!DOCTYPE svg PUBLIC "-//W3C//DTD SVG 1.1//EN" "http://www.w3.org/Graphics/SVG/1.1/DTD/svg11.dtd">
<svg xmlns="http://www.w3.org/2000/svg" version="1.1" width="100%" height="100%">
<style type="text/css"><![CDATA[
  .stroke { fill:none; stroke:black; stroke-width:2 }
]]></style>
<path class="stroke" d="M 23.45112 5.5205 C 18.328128 17.8233 12.14514 30.7571 4.1072556 40.5363" />
<path class="stroke" d="M 23.45112 5.83596 C 28.574112000000003 11.8296 32.107236 18.4543 35.90538 25.0789" />
<path class="stroke" d="M 10.201884 33.59624 L 33.785472 33.59624" />
<path class="stroke" d="M 5.6971614 51.57724 L 36.96528108 51.57724" />
<path class="stroke" d="M 22.92111612 33.9117 L 22.92111612 88.1703" />
<path class="stroke" d="M 5.432179199999999 61.672 C 9.053604 65.878 11.88012 70.3996 14.706636 75.2366" />
<path class="stroke" d="M 36.1704 61.6719 C 34.227144 67.4553 31.488912 72.2923 27.955788000000002 77.1294" />
<path class="stroke" d="M 6.7570944 94.4795 L 35.90538 83.7539" />
<path class="stroke" d="M 68.47672172 8.052495648 L 68.47672172 30.437547264" />
<path class="stroke" d="M 49.768830932 17.387151744 L 49.768830932 31.434451184 M 49.768830932 30.437547264 L 86.6972935 30.437547264" />
<path class="stroke" d="M 86.6972935 17.296524256 L 86.6972935 31.5250783616" />
<path class="stroke" d="M 47.28864766 43.476263547500004 L 87.50486520000001 43.476263547500004" />
<path class="stroke" d="M 52.34160364 55.2660058619 L 52.34160364 68.54863216650001" />
<path class="stroke" d="M 52.34160364 55.455756515 L 83.47737000000001 55.455756515 L 83.47737000000001 68.54863216650001" />
<path class="stroke" d="M 52.34160364 68.54863216650001 L 83.47737000000001 68.54863216650001" />
<path class="stroke" d="M 56.68613026 73.861684898 C 59.22043606 78.41572591849999 60.849633 84.4877877614 61.75474372 90.74959635799999" />
<path class="stroke" d="M 78.0467156 73.861684898 C 77.3226238 79.7439915385 75.69342624000001 85.626298179 72.97810276 91.12909896400001" />
<path class="stroke" d="M 43.2905107 91.50860157 L 92.7094862 91.50860157" />
</svg>
