<?xml version="1.0" standalone="no"?>
<!DOCTYPE svg PUBLIC "-//W3C//DTD SVG 1.1//EN" "http://www.w3.org/Graphics/SVG/1.1/DTD/svg11.dtd">
<svg xmlns="http://www.w3.org/2000/svg" version="1.1" width="100%" height="100%">
<style type="text/css"><![CDATA[
  .stroke { fill:none; stroke:black; stroke-width:2 }
]]></style>
<path class="stroke" d="M 5.777777777777778 6.98 L 42.666666666666664 6.98 C 34.3704 21.335 23.85182222222222 32.8625 6.222222222222221 44.1725" />
<path class="stroke" d="M 14.222222222222221 15.0275 C 26.814844444444443 20.3200145 35.407377777777775 26.9174855 41.33333333333333 34.167500000000004" />
<path class="stroke" d="M 54.25925925925926 6.98 L 94.22222222222223 6.98 C 85.2346 21.335 73.83947407407408 32.8625 54.74074074074074 44.1725" />
<path class="stroke" d="M 63.407407407407405 15.0275 C 77.04941481481481 20.3200145 86.3579925925926 26.9174855 92.77777777777777 34.167500000000004" />
<path class="stroke" d="M 6.018518518518518 53.5384 L 44.44444444444444 53.5384 C 35.8025 69.0418 24.84564814814815 81.4915 6.481481481481482 93.7063" />
<path class="stroke" d="M 14.814814814814815 62.2297 C 27.932129629629628 67.94561566 36.88268518518519 75.07088434 43.05555555555556 82.90090000000001" />
<path class="stroke" d="M 58.12376175 54.233662960000004 L 85.40594250000001 54.233662960000004 C 79.19801825 75.24554518 68.7425738 85.5108928 50.4455445 94.49306920000001" />
<path class="stroke" d="M 57.47029685 59.045545180000005 C 59.903224050000006 68.99354722000001 68.41935365 77.18064544 71.2580626 80.83871020000001 C 76.4032235 86.4129034 85.6290302 90.5935456 94.391089 94.49306920000001" />
</svg>
