<?xml version="1.0" standalone="no"?>
<!DOCTYPE svg PUBLIC "-//W3C//DTD SVG 1.1//EN" "http://www.w3.org/Graphics/SVG/1.1/DTD/svg11.dtd">
<svg xmlns="http://www.w3.org/2000/svg" version="1.1" width="100%" height="100%">
<style type="text/css"><![CDATA[
  .stroke { fill:none; stroke:black; stroke-width:2 }
]]></style>
<path class="stroke" d="M 6.73357644 11.738684379999999 L 6.73357644 75.0145922" />
<path class="stroke" d="M 6.73357644 11.48758932 L 32.362771679999994 11.48758932 L 32.362771679999994 75.0145922" />
<path class="stroke" d="M 19.5481734 11.738684379999999 L 19.5481734 70.494888" />
<path class="stroke" d="M 6.73357644 40.97431988 L 32.1700728 40.97431988" />
<path class="stroke" d="M 6.73357644 70.494888 L 32.362771679999994 70.494888" />
<path class="stroke" d="M 41.35111111111111 6.840400000000001 L 62.74666666666666 6.840400000000001 C 57.934832 20.9083 51.83405688888889 32.20525 41.608888888888885 43.289049999999996" />
<path class="stroke" d="M 46.248888888888885 14.72695 C 53.552609777777775 19.91361421 58.53627911111111 26.37913579 61.97333333333333 33.48415000000001" />
<path class="stroke" d="M 69.47037037037038 6.840400000000001 L 92.64888888888889 6.840400000000001 C 87.436068 20.9083 80.82689496296297 32.20525 69.74962962962962 43.289049999999996" />
<path class="stroke" d="M 74.7762962962963 14.72695 C 82.68866059259258 19.91361421 88.08763570370371 26.37913579 91.8111111111111 33.48415000000001" />
<path class="stroke" d="M 41.49074074074074 52.467632 L 63.77777777777777 52.467632 C 58.76545 67.66096399999999 52.41047592592592 79.86167 41.75925925925926 91.832174" />
<path class="stroke" d="M 46.592592592592595 60.985106 C 54.200635185185185 66.5867033468 59.3919574074074 73.56946665320001 62.97222222222222 81.24288200000001" />
<path class="stroke" d="M 71.711781815 53.1489897008 L 87.53544665000001 53.1489897008 C 83.93485058499999 73.74063427639999 77.870692804 83.800674944 67.25841581 92.60320781600001" />
<path class="stroke" d="M 71.332772173 57.864634276400004 C 72.743869949 67.61367627560001 77.683225117 75.6370325312 79.32967630799999 79.22193599600001 C 82.31386963 84.684645332 87.664837516 88.781674688 92.74683162 92.60320781600001" />
</svg>
