<?xml version="1.0" standalone="no"?>
<!DOCTYPE svg PUBLIC "-//W3C//DTD SVG 1.1//EN" "http://www.w3.org/Graphics/SVG/1.1/DTD/svg11.dtd">
<svg xmlns="http://www.w3.org/2000/svg" version="1.1" width="100%" height="100%">
<style type="text/css"><![CDATA[
  .stroke { fill:none; stroke:black; stroke-width:2 }
]]></style>
<path class="stroke" d="M 13.154171785714285 14.059406 C 16.654879285714284 16.138615 20.15558785714286 19.108912 23.01980357142857 22.673267" />
<path class="stroke" d="M 10.926448928571428 38.118813 C 14.108912142857141 39.90099 17.927864999999997 42.574257 20.473834285714286 46.138615" />
<path class="stroke" d="M 10.608203571428572 85.64356 C 11.321795357142857 87.422676 13.310014285714285 89.896904 15.629600357142856 89.896904 C 17.949189642857142 89.896904 21.110325 76.73267 23.33804892857143 69.60396" />
<path class="stroke" d="M 64.1051056 9.601459859999999 L 64.1051056 20.85401318" />
<path class="stroke" d="M 36.14598496 21.09343104 L 91.4335768 21.09343104" />
<path class="stroke" d="M 49.2704813512 35.246817005 L 49.2704813512 59.64810087" />
<path class="stroke" d="M 49.2704813512 35.246817005 L 78.14195488 35.246817005 L 78.14195488 59.413473778" />
<path class="stroke" d="M 49.2704813512 57.771078508799995 L 78.14195488 57.771078508799995" />
<path class="stroke" d="M 64.00380664 58.45401441 L 64.00380664 87.6627707 C 64.00380664 88.50072664999999 62.84379304 88.9795595 62.00291872 88.9795595 L 60.5313856 88.9795595" />
<path class="stroke" d="M 47.287589679999996 69.3474434 C 46.2364948 73.5372252 43.083210879999996 77.12846644999999 38.66861152 80.00145986" />
<path class="stroke" d="M 78.8204368 69.3474434 C 83.0248156 71.86131329999999 86.59853632 75.21313832999999 88.70072608 80.24087443999998" />
</svg>
