<?xml version="1.0" standalone="no"?>
<!DOCTYPE svg PUBLIC "-//W3C//DTD SVG 1.1//EN" "http://www.w3.org/Graphics/SVG/1.1/DTD/svg11.dtd">
<svg xmlns="http://www.w3.org/2000/svg" version="1.1" width="100%" height="100%">
<style type="text/css"><![CDATA[
  .stroke { fill:none; stroke:black; stroke-width:2 }
]]></style>
<path class="stroke" d="M 50.5 5.9124077999999995 L 50.5 53.912406" />
<path class="stroke" d="M 42.496171736 12.27397312 L 16.07542169 15.61213421" />
<path class="stroke" d="M 15.5416676 15.740530499999998 L 15.5416676 43.579464810000005" />
<path class="stroke" d="M 15.5416676 27.424134201 L 42.496242800000005 27.424134201" />
<path class="stroke" d="M 15.5416676 40.9052184 L 46.65419744 40.9052184" />
<path class="stroke" d="M 57.869160062 15.522450613 L 86.8943138 15.57305999 L 86.8943138 41.06451598" />
<path class="stroke" d="M 58.248396896 27.859549387 L 86.8943138 27.893912989" />
<path class="stroke" d="M 54.6362618 41.06451598 L 86.8943138 41.06451598" />
<path class="stroke" d="M 27.668315749999998 57.31881152 L 74.79208249999999 57.31881152 C 64.06930425 75.99604016 46.0099002 85.1207936 14.4059405 93.1049504" />
<path class="stroke" d="M 26.539603649999997 61.59604016 C 30.74193245 70.43870864 45.45161085 77.71612928 50.3548354 80.9677424 C 59.2419315 85.92258079999999 75.17741579999999 89.6387072 90.311881 93.1049504" />
</svg>
