<?xml version="1.0" standalone="no"?>
<!DOCTYPE svg PUBLIC "-//W3C//DTD SVG 1.1//EN" "http://www.w3.org/Graphics/SVG/1.1/DTD/svg11.dtd">
<svg xmlns="http://www.w3.org/2000/svg" version="1.1" width="100%" height="100%">
<style type="text/css"><![CDATA[
  .stroke { fill:none; stroke:black; stroke-width:2 }
]]></style>
<path class="stroke" d="M 28.351715 5.835962 C 28.020515 9.831762 27.26339 13.196672 25.228715 15.930572" />
<path class="stroke" d="M 16.28546 15.930615 L 16.28546 66.719215 C 16.238165000000002 79.02212 14.203445 87.224014 8.619854 93.21771" />
<path class="stroke" d="M 16.28546 15.930615 L 39.140375000000006 15.930615 L 39.140375000000006 87.53941 C 39.187715000000004 91.32491 38.383295000000004 92.902214 37.152995 92.902214 L 35.02364 92.902214" />
<path class="stroke" d="M 24.802835 26.97159 C 27.405365000000003 29.49519 29.01416 33.59619 30.481070000000003 39.27439" />
<path class="stroke" d="M 27.869864 59.69863 L 27.869864 81.39726" />
<path class="stroke" d="M 7.910095999999999 49.6845 L 46.80599 49.6845" />
<path class="stroke" d="M 72.28 5.9124077999999995 L 72.28 53.912406" />
<path class="stroke" d="M 67.79785617216001 12.27397312 L 53.0022361464 15.61213421" />
<path class="stroke" d="M 52.703333856 15.740530499999998 L 52.703333856 43.579464810000005" />
<path class="stroke" d="M 52.703333856 27.424134201 L 67.797895968 27.424134201" />
<path class="stroke" d="M 52.703333856 40.9052184 L 70.12635056639999 40.9052184" />
<path class="stroke" d="M 76.40672963472 15.522450613 L 92.66081572800002 15.57305999 L 92.66081572800002 41.06451598" />
<path class="stroke" d="M 76.61910226176 27.859549387 L 92.66081572800002 27.893912989" />
<path class="stroke" d="M 74.596306608 41.06451598 L 92.66081572800002 41.06451598" />
<path class="stroke" d="M 59.494256820000004 57.31881152 L 85.88356619999999 57.31881152 C 79.87881038 75.99604016 69.765544112 85.1207936 52.06732668 93.1049504" />
<path class="stroke" d="M 58.862178044000004 61.59604016 C 61.215482172 70.43870864 69.452902076 77.71612928 72.198707824 80.9677424 C 77.17548164 85.92258079999999 86.099352848 89.6387072 94.57465336000001 93.1049504" />
</svg>
