<?xml version="1.0" standalone="no"?>
<!DOCTYPE svg PUBLIC "-//W3C//DTD SVG 1.1//EN" "http://www.w3.org/Graphics/SVG/1.1/DTD/svg11.dtd">
<svg xmlns="http://www.w3.org/2000/svg" version="1.1" width="100%" height="100%">
<style type="text/css"><![CDATA[
  .stroke { fill:none; stroke:black; stroke-width:2 }
]]></style>
<path class="stroke" d="M 22.462146 5.9810718 C 17.520002 8.189267999999998 13.615711999999998 9.734994 6.5978129999999995 9.823319999999999" />
<path class="stroke" d="M 6.5978129999999995 9.823362 L 6.5978129999999995 41.886413999999995" />
<path class="stroke" d="M 28.689269999999997 9.55836006 L 40.402187 9.55836006 L 40.402187 41.886413999999995" />
<path class="stroke" d="M 6.5978129999999995 25.7224032 L 18.162445 25.7224032" />
<path class="stroke" d="M 28.837555 25.722407399999998 L 40.402187 25.722407399999998" />
<path class="stroke" d="M 6.5978129999999995 41.886413999999995 L 40.402187 41.886413999999995" />
<path class="stroke" d="M 8.610948489999998 64.9167872 L 38.389047749999996 64.9167872" />
<path class="stroke" d="M 23.5 43.98832032 L 23.6431479 86.90761216" />
<path class="stroke" d="M 6.75177654 92.3654848 L 40.5345155 81.83959680000001" />
<path class="stroke" d="M 58.22397600000001 7.883286599999999 L 58.22397600000001 26.123075999999998 C 58.106208 40.240759999999995 51.80548 46.93906 44.6214528 49.927471999999995" />
<path class="stroke" d="M 58.400656 7.8832768 L 77.47952000000001 7.8832768 L 77.47952000000001 36.015686 C 77.30284 40.034568 78.71611200000001 42.507794000000004 80.659312 42.507794000000004 L 92.9246056 42.507794000000004" />
<path class="stroke" d="M 52.747624 52.0915178 L 82.24926400000001 52.0915178 C 74.77080000000001 75.6898198 61.109376 87.2313778 45.6813872 92.2807298" />
<path class="stroke" d="M 56.987384 52.0915178 C 59.755016000000005 74.1440658 75.59517600000001 90.32288580000001 93.025232 91.9716378" />
</svg>
