<?xml version="1.0" standalone="no"?>
<!DOCTYPE svg PUBLIC "-//W3C//DTD SVG 1.1//EN" "http://www.w3.org/Graphics/SVG/1.1/DTD/svg11.dtd">
<svg xmlns="http://www.w3.org/2000/svg" version="1.1" width="100%" height="100%">
<style type="text/css"><![CDATA[
  .stroke { fill:none; stroke:black; stroke-width:2 }
]]></style>
<path class="stroke" d="M 42.113514 5.751415840000001 L 42.113514 17.52178304" />
<path class="stroke" d="M 56.62463 5.75142432 L 56.62463 17.789250720000002" />
<path class="stroke" d="M 14.984257 7.08895776 C 19.505756 10.20986912 22.134558 13.330848320000001 24.763357 17.25428992" />
<path class="stroke" d="M 83.75396 7.623969440000001 C 81.01996 11.369085120000001 77.024254 14.846648320000003 72.71286 17.521749120000003" />
<path class="stroke" d="M 6.151417 18.05675232 L 94.164055 18.05675232" />
<path class="stroke" d="M 17.737225 20.77672698852941 C 23.576641 24.34495457617647 28.248173 29.25126579058824 31.751823 33.93456421294118" />
<path class="stroke" d="M 79.63503 20.77672698852941 C 77.252556 25.19240761617647 72.33576 30.36633509764706 67.37226 34.15757700500001" />
<path class="stroke" d="M 9.562042 36.04 L 90.43795 36.04" />
<path class="stroke" d="M 9.562042 48.760000000000005 L 90.43795 48.760000000000005" />
<path class="stroke" d="M 50.0 35.99634923 L 50.0 92.79634709999999" />
<path class="stroke" d="M 39.62162 62.1718916 C 32.81081 63.689729 22.756756 64.6237832 14.0379 64.84855999999999" />
<path class="stroke" d="M 14.0379 64.848596 L 14.0379 92.331212" />
<path class="stroke" d="M 63.297295 64.6237832 L 85.9621 64.62145148 L 85.9621 92.331212" />
<path class="stroke" d="M 14.0379 78.4763456 L 38.32432 78.51783812" />
<path class="stroke" d="M 63.297295 78.51783812 L 85.9621 78.4763492" />
<path class="stroke" d="M 14.0379 92.331212 L 85.9621 92.331212" />
</svg>
