<?xml version="1.0" standalone="no"?>
<!DOCTYPE svg PUBLIC "-//W3C//DTD SVG 1.1//EN" "http://www.w3.org/Graphics/SVG/1.1/DTD/svg11.dtd">
<svg xmlns="http://www.w3.org/2000/svg" version="1.1" width="100%" height="100%">
<style type="text/css"><![CDATA[
  .stroke { fill:none; stroke:black; stroke-width:2 }
]]></style>
<path class="stroke" d="M 24.372216440000003 5.751415840000001 L 24.372216440000003 17.52178304" />
<path class="stroke" d="M 31.047329800000004 5.75142432 L 31.047329800000004 17.789250720000002" />
<path class="stroke" d="M 11.892758220000001 7.08895776 C 13.972647760000001 10.20986912 15.18189668 13.330848320000001 16.39114422 17.25428992" />
<path class="stroke" d="M 43.526821600000005 7.623969440000001 C 42.2691816 11.369085120000001 40.43115684 14.846648320000003 38.4479156 17.521749120000003" />
<path class="stroke" d="M 7.8296518200000005 18.05675232 L 48.31546530000001 18.05675232" />
<path class="stroke" d="M 13.1591235 20.77672698852941 C 15.84525486 24.34495457617647 17.99415958 29.25126579058824 19.605838580000004 33.93456421294118" />
<path class="stroke" d="M 41.6321138 20.77672698852941 C 40.53617576 25.19240761617647 38.2744496 30.36633509764706 35.9912396 34.15757700500001" />
<path class="stroke" d="M 9.398539320000001 36.04 L 46.601457 36.04" />
<path class="stroke" d="M 9.398539320000001 48.760000000000005 L 46.601457 48.760000000000005" />
<path class="stroke" d="M 28.0 35.99634923 L 28.0 92.79634709999999" />
<path class="stroke" d="M 23.2259452 62.1718916 C 20.0929726 63.689729 15.46810776 64.6237832 11.457434 64.84855999999999" />
<path class="stroke" d="M 11.457434 64.848596 L 11.457434 92.331212" />
<path class="stroke" d="M 34.1167557 64.6237832 L 44.54256600000001 64.62145148 L 44.54256600000001 92.331212" />
<path class="stroke" d="M 11.457434 78.4763456 L 22.6291872 78.51783812" />
<path class="stroke" d="M 34.1167557 78.51783812 L 44.54256600000001 78.4763492" />
<path class="stroke" d="M 11.457434 92.331212 L 44.54256600000001 92.331212" />
<path class="stroke" d="M 63.763408 7.883286599999999 L 63.763408 26.123075999999998 C 63.662464 40.240759999999995 58.26184 46.93906 52.1041024 49.927471999999995" />
<path class="stroke" d="M 63.914848 7.8832768 L 80.26816 7.8832768 L 80.26816 36.015686 C 80.11672 40.034568 81.328096 42.507794000000004 82.993696 42.507794000000004 L 93.5068048 42.507794000000004" />
<path class="stroke" d="M 59.069392 52.0915178 L 84.35651200000001 52.0915178 C 77.9464 75.6898198 66.23660799999999 87.2313778 53.0126176 92.2807298" />
<path class="stroke" d="M 62.703472 52.0915178 C 65.075728 74.1440658 78.653008 90.32288580000001 93.59305599999999 91.9716378" />
</svg>
