<?xml version="1.0" standalone="no"?>
<!DOCTYPE svg PUBLIC "-//W3C//DTD SVG 1.1//EN" "http://www.w3.org/Graphics/SVG/1.1/DTD/svg11.dtd">
<svg xmlns="http://www.w3.org/2000/svg" version="1.1" width="100%" height="100%">
<style type="text/css"><![CDATA[
  .stroke { fill:none; stroke:black; stroke-width:2 }
]]></style>
<path class="stroke" d="M 24.372216440000003 7.2783070288000005 L 24.372216440000003 13.987416332799999" />
<path class="stroke" d="M 31.047329800000004 7.2783118624 L 31.047329800000004 14.1398729104" />
<path class="stroke" d="M 11.892758220000001 8.0407059232 C 13.972647760000001 9.8196253984 15.18189668 11.5985835424 16.39114422 13.834945254400001" />
<path class="stroke" d="M 43.526821600000005 8.3456625808 C 42.2691816 10.4803785184 40.43115684 12.462589542400002 38.4479156 13.987396998400001" />
<path class="stroke" d="M 7.8296518200000005 14.2923488224 L 48.31546530000001 14.2923488224" />
<path class="stroke" d="M 13.1591235 15.842734383461764 C 15.84525486 17.876624108420586 17.99415958 20.673221500635293 19.605838580000004 23.342701601376472" />
<path class="stroke" d="M 41.6321138 15.842734383461764 C 40.53617576 18.359672341220588 38.2744496 21.30881100565882 35.9912396 23.469818892850004" />
<path class="stroke" d="M 9.398539320000001 24.542799999999996 L 46.601457 24.542799999999996" />
<path class="stroke" d="M 9.398539320000001 31.7932 L 46.601457 31.7932" />
<path class="stroke" d="M 28.0 24.5179190611 L 28.0 56.89391784699999" />
<path class="stroke" d="M 23.2259452 39.437978212 C 20.0929726 40.303145529999995 15.46810776 40.835556423999996 11.457434 40.963679199999994" />
<path class="stroke" d="M 11.457434 40.963699719999994 L 11.457434 56.62879083999999" />
<path class="stroke" d="M 34.1167557 40.835556423999996 L 44.54256600000001 40.8342273436 L 44.54256600000001 56.62879083999999" />
<path class="stroke" d="M 11.457434 48.731516991999996 L 22.6291872 48.75516772839999" />
<path class="stroke" d="M 34.1167557 48.75516772839999 L 44.54256600000001 48.731519043999995" />
<path class="stroke" d="M 11.457434 56.62879083999999 L 44.54256600000001 56.62879083999999" />
<path class="stroke" d="M 63.763408 8.493473362 L 63.763408 18.890153319999996 C 63.662464 26.937233199999994 58.26184 30.755264199999996 52.1041024 32.45865903999999" />
<path class="stroke" d="M 63.914848 8.493467776 L 80.26816 8.493467776 L 80.26816 24.52894102 C 80.11672 26.81970376 81.328096 28.22944258 82.993696 28.22944258 L 93.5068048 28.22944258" />
<path class="stroke" d="M 59.069392 33.692165145999994 L 84.35651200000001 33.692165145999994 C 77.9464 47.143197285999996 66.23660799999999 53.721885346 53.0126176 56.600015985999995" />
<path class="stroke" d="M 62.703472 33.692165145999994 C 65.075728 46.262117506 78.653008 55.484044906 93.59305599999999 56.42383354599999" />
<path class="stroke" d="M 49.85401 61.41167876 C 38.39237 66.37656572 25.9673 70.22833768 8.637602 72.4648482" />
<path class="stroke" d="M 49.85401 61.41167876 C 61.607628 66.37656572 74.03269 70.22833768 91.3624 72.4648482" />
<path class="stroke" d="M 34.14169 72.4648482 L 65.85831 72.4648482" />
<path class="stroke" d="M 21.389645 80.26154 L 78.61035 80.26154" />
<path class="stroke" d="M 50.02838 72.4648482 L 50.02838 92.588322" />
<path class="stroke" d="M 28.832115 84.37809899999999 C 32.919704 85.709486 34.9635 87.2627702 37.469612 89.4426478" />
<path class="stroke" d="M 70.87591 84.4890476 C 67.66423 85.3766402 63.576637 86.92992668 61.918335 89.4396572" />
<path class="stroke" d="M 14.850136 92.588322 L 85.14986 92.588322" />
</svg>
