<?xml version="1.0" standalone="no"?>
<!DOCTYPE svg PUBLIC "-//W3C//DTD SVG 1.1//EN" "http://www.w3.org/Graphics/SVG/1.1/DTD/svg11.dtd">
<svg xmlns="http://www.w3.org/2000/svg" version="1.1" width="100%" height="100%">
<style type="text/css"><![CDATA[
  .stroke { fill:none; stroke:black; stroke-width:2 }
]]></style>
<path class="stroke" d="M 9.46594584 7.5135136 L 9.46594584 86.64864 L 7.468107844 87.94594 L 30.897296200000003 73.35135 L 30.897296200000003 73.35135" />
<path class="stroke" d="M 16.7308096 12.378378 C 21.9978364 14.324324 26.810809600000002 17.243242 30.6248632 21.783783" />
<path class="stroke" d="M 16.912431599999998 42.864864 C 20.99891736 43.51351 26.6291876 47.081078 30.6248632 52.270267" />
<path class="stroke" d="M 41.46594584 7.5135136 L 41.46594584 86.64864 L 39.468107844 87.94594 L 62.8972962 73.35135 L 62.8972962 73.35135" />
<path class="stroke" d="M 48.7308096 12.378378 C 53.9978364 14.324324 58.8108096 17.243242 62.6248632 21.783783" />
<path class="stroke" d="M 48.9124316 42.864864 C 52.99891736 43.51351 58.6291876 47.081078 62.6248632 52.270267" />
<path class="stroke" d="M 71.803243264 7.837837 C 71.95891864 90.86486 79.8205396 92.162155 92.1189172 92.162155 L 92.3524312 79.189186" />
</svg>
