<?xml version="1.0" standalone="no"?>
<!DOCTYPE svg PUBLIC "-//W3C//DTD SVG 1.1//EN" "http://www.w3.org/Graphics/SVG/1.1/DTD/svg11.dtd">
<svg xmlns="http://www.w3.org/2000/svg" version="1.1" width="100%" height="100%">
<style type="text/css"><![CDATA[
  .stroke { fill:none; stroke:black; stroke-width:2 }
]]></style>
<path class="stroke" d="M 42.534702 6.7681381 C 33.176174 8.818605999999999 25.782944 10.253923 12.493731 10.33594" />
<path class="stroke" d="M 12.493731 10.335979 L 12.493731 40.108813" />
<path class="stroke" d="M 54.32649 10.089905770000001 L 76.506269 10.089905770000001 L 76.506269 40.108813" />
<path class="stroke" d="M 12.493731 25.099374400000002 L 34.392715 25.099374400000002" />
<path class="stroke" d="M 54.607285 25.099378299999998 L 76.506269 25.099378299999998" />
<path class="stroke" d="M 12.493731 40.108813 L 76.506269 40.108813" />
<path class="stroke" d="M 15.8033296312 49.7567568 L 15.8033296312 89.32432 L 13.945340294920001 89.97297 L 35.73448546600001 82.675675 L 35.73448546600001 82.675675" />
<path class="stroke" d="M 22.559652928000002 52.189189 C 27.457987852000002 53.162162 31.934052928000003 54.621621 35.48112277600001 56.8918915" />
<path class="stroke" d="M 22.728561388 67.432432 C 26.5289931448 67.756755 31.765144468000003 69.540539 35.48112277600001 72.1351335" />
<path class="stroke" d="M 45.563329631200006 49.7567568 L 45.563329631200006 89.32432 L 43.705340294920006 89.97297 L 65.494485466 82.675675 L 65.494485466 82.675675" />
<path class="stroke" d="M 52.319652928000004 52.189189 C 57.217987852 53.162162 61.694052928000005 54.621621 65.241122776 56.8918915" />
<path class="stroke" d="M 52.488561388 67.432432 C 56.2889931448 67.756755 61.52514446800001 69.540539 65.241122776 72.1351335" />
<path class="stroke" d="M 73.77701623552001 49.918918500000004 C 73.92179433519999 91.43243 81.233101828 92.08107749999999 92.670592996 92.08107749999999 L 92.887761016 85.594593" />
</svg>
