<?xml version="1.0" standalone="no"?>
<!DOCTYPE svg PUBLIC "-//W3C//DTD SVG 1.1//EN" "http://www.w3.org/Graphics/SVG/1.1/DTD/svg11.dtd">
<svg xmlns="http://www.w3.org/2000/svg" version="1.1" width="100%" height="100%">
<style type="text/css"><![CDATA[
  .stroke { fill:none; stroke:black; stroke-width:2 }
]]></style>
<path class="stroke" d="M 22.0 11.605839 L 22.0 27.080292" />
<path class="stroke" d="M 9.731386279999999 27.956203 L 34.525546 27.956203" />
<path class="stroke" d="M 11.78686036 40.51095 C 14.3562034 51.021896 16.28321112 64.74452 17.31094772 78.17518" />
<path class="stroke" d="M 32.598537400000005 38.17518 C 30.2971416 50.77922 28.102855 65.11688 26.303648799999998 82.84671" />
<path class="stroke" d="M 10.1371424 89.74026 L 39.0742836 80.701294" />
<path class="stroke" d="M 68.44671456 9.50748134 C 65.1766416 15.2863132625 57.373848 21.7578795 48.17226176 26.3790142 C 61.90656808 25.648357 73.84233528 25.316241124999998 86.91015200000001 25.364823750000003" />
<path class="stroke" d="M 80.54598440000001 21.19799108 C 84.30656640000001 22.4600355 87.57663936 24.3863132625 89.7021888 26.976822775" />
<path class="stroke" d="M 62.72408688 31.925364555 L 62.72408688 38.10273621 C 62.72408688 43.549451575 58.47299248 48.92974331 47.84525536 50.324633625000004" />
<path class="stroke" d="M 72.37080144000001 31.8589416075 L 72.37080144000001 47.53485345000001 C 72.37080144000001 49.195437375 74.49635088 50.191787275 76.78539848 50.191787275 L 89.53868 50.191787275 C 91.33722639999999 50.25821045 92.645252 49.726822774999995 92.645252 48.996165575 L 92.645252 47.734123885" />
<path class="stroke" d="M 66.15766248 58.577736210000005 C 62.3970788 64.55583925 56.0204372 70.79963362500001 49.48029072 74.78503549999999" />
<path class="stroke" d="M 64.19561848000001 62.03175132 L 78.7474464 62.03175132 C 72.8613144 72.92518068500002 60.2715316 85.54561715 47.6817516 92.45364554999999" />
<path class="stroke" d="M 57.98248176 68.54124067000001 C 64.4 78.18548437000001 77.60291672 87.272626525 91.5007296 92.45364554999999" />
</svg>
