<?xml version="1.0" standalone="no"?>
<!DOCTYPE svg PUBLIC "-//W3C//DTD SVG 1.1//EN" "http://www.w3.org/Graphics/SVG/1.1/DTD/svg11.dtd">
<svg xmlns="http://www.w3.org/2000/svg" version="1.1" width="100%" height="100%">
<style type="text/css"><![CDATA[
  .stroke { fill:none; stroke:black; stroke-width:2 }
]]></style>
<path class="stroke" d="M 20.1138896 13.184669700000002 L 20.1138896 71.5992696" />
<path class="stroke" d="M 7.3343057599999995 37.543791600000006 L 7.3343057599999995 74.20072635000001 M 7.3343057599999995 71.5992696 L 32.56058 71.5992696" />
<path class="stroke" d="M 32.56058 37.30729590000001 L 32.56058 74.43722124" />
<path class="stroke" d="M 66.3357656 6.59014556 C 62.832116 12.559488425 54.47198 19.244403 44.6131376 24.0178828 C 59.328465800000004 23.263137999999998 72.1167878 22.920073249999998 86.11802 22.9702575" />
<path class="stroke" d="M 79.29926900000001 18.66605672 C 83.328464 19.969707 86.83211359999999 21.959488425 89.109488 24.635399349999997" />
<path class="stroke" d="M 60.2043788 29.74707987 L 60.2043788 36.12810114 C 60.2043788 41.75437855 55.6496348 47.31204253999999 44.2627736 48.75291825" />
<path class="stroke" d="M 70.5401444 29.678467154999996 L 70.5401444 45.8711673 C 70.5401444 47.58649575 72.8175188 48.61569235 75.27006979999999 48.61569235 L 88.93430000000001 48.61569235 C 90.861314 48.6843053 92.26276999999999 48.13539934999999 92.26276999999999 47.380654549999996 L 92.26276999999999 46.07700709" />
<path class="stroke" d="M 63.8832098 57.27810114 C 59.854012999999995 63.4532845 53.021896999999996 69.90291825 46.0145972 74.01970699999998" />
<path class="stroke" d="M 61.781019799999996 60.845984879999996 L 77.372264 60.845984879999996 C 71.06569400000001 72.09853829000001 57.576640999999995 85.13503309999999 44.087591 92.27079869999999" />
<path class="stroke" d="M 55.124087599999996 67.57007277999999 C 62.0 77.53225858 76.14598219999999 86.91897685 91.036496 92.27079869999999" />
</svg>
