<?xml version="1.0" standalone="no"?>
<!DOCTYPE svg PUBLIC "-//W3C//DTD SVG 1.1//EN" "http://www.w3.org/Graphics/SVG/1.1/DTD/svg11.dtd">
<svg xmlns="http://www.w3.org/2000/svg" version="1.1" width="100%" height="100%">
<style type="text/css"><![CDATA[
  .stroke { fill:none; stroke:black; stroke-width:2 }
]]></style>
<path class="stroke" d="M 15.42919612 10.49505 L 15.42919612 58.905106" />
<path class="stroke" d="M 15.47422572 10.412371 L 36.703093599999995 10.412371" />
<path class="stroke" d="M 26.1055968 10.5678 L 26.1055968 58.905106" />
<path class="stroke" d="M 15.42919612 26.49635 L 34.6992676 26.49635" />
<path class="stroke" d="M 15.55766424 43.138683 L 34.6992676 43.138683" />
<path class="stroke" d="M 15.42919612 58.905106 L 41.6364924 58.905106 C 41.6364924 81.386856 40.2233532 90.43795 37.3970792 90.43795" />
<path class="stroke" d="M 10.033576440000001 70.29197 C 9.64817472 74.087585 8.87737128 78.46715 7.59270064 80.80292" />
<path class="stroke" d="M 16.071531880000002 69.124084 C 16.970802120000002 72.04379 17.613138319999997 75.54744 17.9985396 81.09489" />
<path class="stroke" d="M 24.1649636 68.540146 C 25.19269976 72.04379 25.96350188 75.54744 26.47737128 79.63503" />
<path class="stroke" d="M 32.6437944 67.37226 C 33.8 71.16788 34.442334 73.21168 34.956201199999995 77.88321" />
<path class="stroke" d="M 68.44671456 7.5625908200000005 C 65.1766416 13.468430037500001 57.373848 20.0822285 48.17226176 24.8049266 C 61.90656808 24.058211 73.84233528 23.718795874999998 86.91015200000001 23.768446250000004" />
<path class="stroke" d="M 80.54598440000001 19.510034840000003 C 84.30656640000001 20.7998165 87.57663936 22.7684300375 89.7021888 25.415873825000002" />
<path class="stroke" d="M 62.72408688 30.473174765000003 L 62.72408688 36.78631283 C 62.72408688 42.352736225 58.47299248 47.851276129999995 47.84525536 49.276823375" />
<path class="stroke" d="M 72.37080144000001 30.4052919725 L 72.37080144000001 46.425729350000005 C 72.37080144000001 48.122809625 74.49635088 49.141057325000006 76.78539848 49.141057325000006 L 89.53868 49.141057325000006 C 91.33722639999999 49.208940350000006 92.645252 48.665873825 92.645252 47.919158225 L 92.645252 46.629379355000005" />
<path class="stroke" d="M 66.15766248 57.711312830000004 C 62.3970788 63.820802750000006 56.0204372 70.201823375 49.48029072 74.2748165" />
<path class="stroke" d="M 64.19561848000001 61.24124036 L 78.7474464 61.24124036 C 72.8613144 72.37408575500001 60.2715316 85.27189444999999 47.6817516 92.33174765" />
<path class="stroke" d="M 57.98248176 67.89379541 C 64.4 77.75000051 77.60291672 87.036860075 91.5007296 92.33174765" />
</svg>
