<?xml version="1.0" standalone="no"?>
<!DOCTYPE svg PUBLIC "-//W3C//DTD SVG 1.1//EN" "http://www.w3.org/Graphics/SVG/1.1/DTD/svg11.dtd">
<svg xmlns="http://www.w3.org/2000/svg" version="1.1" width="100%" height="100%">
<style type="text/css"><![CDATA[
  .stroke { fill:none; stroke:black; stroke-width:2 }
]]></style>
<path class="stroke" d="M 11.088287399999999 28.594593 L 8.147746399999999 42.864864" />
<path class="stroke" d="M 25.423420666666665 25.027027 L 27.62882613333333 28.594593" />
<path class="stroke" d="M 17.704502666666666 6.8648643 L 17.704502666666666 92.162155" />
<path class="stroke" d="M 62.00291872 8.535036080000001 C 57.79853919999999 14.37737165 47.766375999999994 20.920054 35.93576512 25.5919704 C 53.59415896 24.853284 68.94014536 24.517518499999998 85.741624 24.566635" />
<path class="stroke" d="M 77.5591228 20.35401296 C 82.39415679999999 21.629925999999998 86.59853632 23.57737165 89.3313856 26.1963483" />
<path class="stroke" d="M 54.64525456 31.199269660000002 L 54.64525456 37.44452452 C 54.64525456 42.9510939 49.17956176 48.39050972 35.51532832 49.800728500000005" />
<path class="stroke" d="M 67.04817327999999 31.13211679 L 67.04817327999999 46.980291400000006 C 67.04817327999999 48.6591235 69.78102256 49.66642230000001 72.72408376 49.66642230000001 L 89.12116 49.66642230000001 C 91.4335768 49.73357540000001 93.115324 49.1963483 93.115324 48.4576619 L 93.115324 47.18175162" />
<path class="stroke" d="M 59.05985176 58.144524520000004 C 54.2248156 64.188321 46.0262764 70.50072850000001 37.61751664 74.52992599999999" />
<path class="stroke" d="M 56.53722376 61.63649584 L 75.2467168 61.63649584 C 67.67883280000001 72.64963322000001 51.4919692 85.4087558 35.3051092 92.3926966" />
<path class="stroke" d="M 48.54890512 68.21751804 C 56.8 77.96774244000001 73.77517864000001 87.1547433 91.6437952 92.3926966" />
</svg>
