<?xml version="1.0" standalone="no"?>
<!DOCTYPE svg PUBLIC "-//W3C//DTD SVG 1.1//EN" "http://www.w3.org/Graphics/SVG/1.1/DTD/svg11.dtd">
<svg xmlns="http://www.w3.org/2000/svg" version="1.1" width="100%" height="100%">
<style type="text/css"><![CDATA[
  .stroke { fill:none; stroke:black; stroke-width:2 }
]]></style>
<path class="stroke" d="M 15.401459 21.464232839999998 L 84.8905 21.464232839999998" />
<path class="stroke" d="M 49.43925 6.125233259999999 L 49.065422 6.3420564 C 45.126904 24.053806399999996 33.364487 30.4093478 6.074766 41.46729139999999" />
<path class="stroke" d="M 58.037384 21.519625159999997 C 66.26168 28.89158872 72.990654 35.396262039999996 89.81309 41.9009342" />
<path class="stroke" d="M 17.484864928 45.97837806 L 17.72162101 78.1448624" />
<path class="stroke" d="M 17.72162101 45.97837806 L 79.7518913 45.97837806 L 79.7518913 78.1448624" />
<path class="stroke" d="M 18.66864782 61.630268740000005 L 78.8048623 61.630268740000005" />
<path class="stroke" d="M 19.14216159 77.03567508 L 79.2287952 77.03567508" />
<path class="stroke" d="M 48.447952 37.6267324 L 48.447952 82.10098599999999 C 48.447952 89.0693098 52.534653920000004 92.9633662 58.190099520000004 92.9633662 L 88.463368 92.9633662 C 90.79208095999999 92.9633662 92.45544560000002 90.91385919999999 92.45544560000002 88.4544577 L 92.45544560000002 85.17524925999999" />
</svg>
