<?xml version="1.0" standalone="no"?>
<!DOCTYPE svg PUBLIC "-//W3C//DTD SVG 1.1//EN" "http://www.w3.org/Graphics/SVG/1.1/DTD/svg11.dtd">
<svg xmlns="http://www.w3.org/2000/svg" version="1.1" width="100%" height="100%">
<style type="text/css"><![CDATA[
  .stroke { fill:none; stroke:black; stroke-width:2 }
]]></style>
<path class="stroke" d="M 24.924858529411765 11.605839 C 21.57578205882353 27.372261 14.620007647058822 41.970802 8.694717352941176 50.14598" />
<path class="stroke" d="M 19.772431764705882 30.583939 L 19.772431764705882 90.43795" />
<path class="stroke" d="M 36.39707966 21.464232839999998 L 87.81897000000001 21.464232839999998" />
<path class="stroke" d="M 61.585045 6.125233259999999 L 61.30841228 6.3420564 C 58.393908960000005 24.053806399999996 49.68972038 30.4093478 29.49532684 41.46729139999999" />
<path class="stroke" d="M 67.94766416 21.519625159999997 C 74.0336432 28.89158872 79.01308396 35.396262039999996 91.46168660000001 41.9009342" />
<path class="stroke" d="M 37.938800046720004 45.97837806 L 38.1139995474 78.1448624" />
<path class="stroke" d="M 38.1139995474 45.97837806 L 84.016399562 45.97837806 L 84.016399562 78.1448624" />
<path class="stroke" d="M 38.814799386800004 61.630268740000005 L 83.315598102 61.630268740000005" />
<path class="stroke" d="M 39.1651995766 77.03567508 L 83.62930844799999 77.03567508" />
<path class="stroke" d="M 60.85148448 37.6267324 L 60.85148448 82.10098599999999 C 60.85148448 89.0693098 63.8756439008 92.9633662 68.0606736448 92.9633662 L 90.46289232 92.9633662 C 92.18613991039999 92.9633662 93.41702974400002 90.91385919999999 93.41702974400002 88.4544577 L 93.41702974400002 85.17524925999999" />
</svg>
