<?xml version="1.0" standalone="no"?>
<!DOCTYPE svg PUBLIC "-//W3C//DTD SVG 1.1//EN" "http://www.w3.org/Graphics/SVG/1.1/DTD/svg11.dtd">
<svg xmlns="http://www.w3.org/2000/svg" version="1.1" width="100%" height="100%">
<style type="text/css"><![CDATA[
  .stroke { fill:none; stroke:black; stroke-width:2 }
]]></style>
<path class="stroke" d="M 8.323432 33.069305 L 26.85808666666667 30.9901" />
<path class="stroke" d="M 20.165015866666668 9.60396 L 20.165015866666668 84.15842 C 20.165015866666668 87.42574 17.84818446666667 90.09901 14.759075933333335 90.09901" />
<path class="stroke" d="M 8.838283133333334 63.36634 L 25.0561064 46.435642" />
<path class="stroke" d="M 39.47299212 21.464232839999998 L 86.72554000000001 21.464232839999998" />
<path class="stroke" d="M 62.61869 6.125233259999999 L 62.36448696 6.3420564 C 59.68629472000001 24.053806399999996 51.68785116 30.4093478 33.13084088 41.46729139999999" />
<path class="stroke" d="M 68.46542112 21.519625159999997 C 74.0579424 28.89158872 78.63364472 35.396262039999996 90.0729012 41.9009342" />
<path class="stroke" d="M 40.88970815104 45.97837806 L 41.0507022868 78.1448624" />
<path class="stroke" d="M 41.0507022868 45.97837806 L 83.231286084 45.97837806 L 83.231286084 78.1448624" />
<path class="stroke" d="M 41.694680517600005 61.630268740000005 L 82.587306364 61.630268740000005" />
<path class="stroke" d="M 42.0166698812 77.03567508 L 82.87558073599999 77.03567508" />
<path class="stroke" d="M 61.944607360000006 37.6267324 L 61.944607360000006 82.10098599999999 C 61.944607360000006 89.0693098 64.72356466560001 92.9633662 68.5692676736 92.9633662 L 89.15509024 92.9633662 C 90.7386150528 92.9633662 91.86970300800002 90.91385919999999 91.86970300800002 88.4544577 L 91.86970300800002 85.17524925999999" />
</svg>
