<?xml version="1.0" standalone="no"?>
<!DOCTYPE svg PUBLIC "-//W3C//DTD SVG 1.1//EN" "http://www.w3.org/Graphics/SVG/1.1/DTD/svg11.dtd">
<svg xmlns="http://www.w3.org/2000/svg" version="1.1" width="100%" height="100%">
<style type="text/css"><![CDATA[
  .stroke { fill:none; stroke:black; stroke-width:2 }
]]></style>
<path class="stroke" d="M 49.999996 5.0 C 52.376232 7.6732674 52.793365 10.037088 52.918915 12.702702" />
<path class="stroke" d="M 12.702702 13.675674 L 92.81081 13.351351" />
<path class="stroke" d="M 12.378378 13.999998 L 12.702702 39.62162 C 12.702702 61.30479 14.560343 79.686905 6.5405407 92.162155" />
<path class="stroke" d="M 28.47518179 33.6006709288 L 84.76130500000001 33.6006709288" />
<path class="stroke" d="M 56.045792500000005 21.0226912732 L 55.74299182 21.200486248 C 52.55279224 35.724121247999996 43.02523447 40.935665196 20.92056046 50.00317894799999" />
<path class="stroke" d="M 63.01028104 33.64609263119999 C 69.6719608 39.6911027504 75.12242974 45.024934872799996 88.74860290000001 50.358766044" />
<path class="stroke" d="M 30.16274059168 53.70227000919999 L 30.3545130181 80.07878716799999" />
<path class="stroke" d="M 30.3545130181 53.70227000919999 L 80.59903195300001 53.70227000919999 L 80.59903195300001 80.07878716799999" />
<path class="stroke" d="M 31.1216047342 66.5368203668 L 79.831938463 66.5368203668" />
<path class="stroke" d="M 31.5051508879 79.1692535656 L 80.175324112 79.1692535656" />
<path class="stroke" d="M 55.24284112 46.853920568 L 55.24284112 83.32280852 C 55.24284112 89.036834036 58.55306967520001 92.22996028399999 63.13398061120001 92.22996028399999 L 87.65532808 92.22996028399999 C 89.5415855776 92.22996028399999 90.88891093600002 90.54936454399999 90.88891093600002 88.532655314 L 90.88891093600002 85.84370439319999" />
</svg>
