<?xml version="1.0" standalone="no"?>
<!DOCTYPE svg PUBLIC "-//W3C//DTD SVG 1.1//EN" "http://www.w3.org/Graphics/SVG/1.1/DTD/svg11.dtd">
<svg xmlns="http://www.w3.org/2000/svg" version="1.1" width="100%" height="100%">
<style type="text/css"><![CDATA[
  .stroke { fill:none; stroke:black; stroke-width:2 }
]]></style>
<path class="stroke" d="M 18.6496335 9.562042 C 14.708029 19.48905 12.2262765 24.160583 8.138685 28.832115" />
<path class="stroke" d="M 16.167883 16.27737 L 30.18248 16.27737 C 29.744522 22.992699 27.9926985 27.372261 25.218977 32.919704" />
<path class="stroke" d="M 14.1240865 34.257427 L 14.1240865 69.124084" />
<path class="stroke" d="M 14.1240865 34.37956 L 35.729925 34.08759 L 35.729925 69.124084" />
<path class="stroke" d="M 25.07299 34.08759 L 25.07299 69.124084" />
<path class="stroke" d="M 14.1240865 51.313866 L 35.729925 51.313866" />
<path class="stroke" d="M 14.1240865 69.124084 L 35.729925 69.124084" />
<path class="stroke" d="M 9.8905105 77.59124 C 9.4525535 81.678825 8.576642 85.47445 7.408758 88.978096" />
<path class="stroke" d="M 17.043795 78.17518 C 18.2116775 81.09489 18.941605 85.47445 19.37956 89.85401" />
<path class="stroke" d="M 27.116787 77.88321 C 28.722625 81.09489 29.674452 85.18248 30.47445 89.85401" />
<path class="stroke" d="M 37.77372 78.46715 C 38.941605 80.51095 39.03447 78.290596 39.764395 82.67016" />
<path class="stroke" d="M 54.25766375 11.763137585 C 56.26934235 13.32226228 58.126277380000005 15.141240275 59.328399000000005 17.827307" />
<path class="stroke" d="M 84.43284539999999 11.763137585 C 83.50437815000001 14.10182485 81.8021904 16.05072994 79.48102095 17.73978084" />
<path class="stroke" d="M 50.85328348 23.196713935000002 L 88.3014585 23.196713935000002" />
<path class="stroke" d="M 69.5 8.2737622 L 69.57736940000001 44.2262378" />
<path class="stroke" d="M 66.63722461 24.36605779 C 63.452382 30.560181 57.020461 36.858399500000004 49.3058393 40.217150919999995" />
<path class="stroke" d="M 72.67226041 24.495983550000002 C 75.273025 30.6069505 81.744113 37.229217999999996 89.53941130000001 40.347077125000006" />
<path class="stroke" d="M 57.462163000000004 51.518136850000005 C 56.626194 59.0049815 52.613617 66.21108899999999 46.2602526 72.0133995" />
<path class="stroke" d="M 55.455795 60.642715 L 67.660847 60.642715 C 64.205565 75.1016995 57.406407 82.40143499999999 46.9290225 90.26262700000001" />
<path class="stroke" d="M 51.9447411 66.67901985 L 62.6450701 73.27685685" />
<path class="stroke" d="M 72.34225379 60.78313475 L 92.5725642 60.78313475" />
<path class="stroke" d="M 75.1845309 60.92351 L 75.1845309 76.224746" />
<path class="stroke" d="M 69.50004452 76.224746 L 92.7397527 76.224746" />
<path class="stroke" d="M 84.88171299999999 51.65851655 L 84.88171299999999 89.9818765" />
</svg>
