<?xml version="1.0" standalone="no"?>
<!DOCTYPE svg PUBLIC "-//W3C//DTD SVG 1.1//EN" "http://www.w3.org/Graphics/SVG/1.1/DTD/svg11.dtd">
<svg xmlns="http://www.w3.org/2000/svg" version="1.1" width="100%" height="100%">
<style type="text/css"><![CDATA[
  .stroke { fill:none; stroke:black; stroke-width:2 }
]]></style>
<path class="stroke" d="M 27.0551967 5.410099799999999 L 27.0551967 12.8296994" />
<path class="stroke" d="M 9.708196999999998 13.447971599999999 L 47.664033999999994 13.447971599999999" />
<path class="stroke" d="M 9.708217209999999 13.75709986 L 9.708217209999999 59.8201408 C 9.708217209999999 74.85968727999999 9.065727209999999 83.2123488 6.74290261 92.58986492" />
<path class="stroke" d="M 9.84862924 23.63242168 L 42.39918142 23.6995752 L 42.39918142 32.9916216" />
<path class="stroke" d="M 22.089823889999998 13.75714788 L 22.089823889999998 32.68376832" />
<path class="stroke" d="M 32.6892935 13.75714788 L 32.6892935 32.9916216" />
<path class="stroke" d="M 9.989277210000001 33.01696146 L 42.412040149999996 33.01696146" />
<path class="stroke" d="M 18.936986339999997 60.90374444 L 27.70386015 60.90374444" />
<path class="stroke" d="M 18.816871683 44.518894875 L 18.816871683 86.95566420800002 M 12.571941216 89.74109213999999 L 26.863198410000003 83.84252604" />
<path class="stroke" d="M 44.99750028 56.31598812 C 40.91426436 60.794514619999994 37.19132292 62.6514735 31.546874369999998 62.86993313999999" />
<path class="stroke" d="M 31.42676352 44.518892278 L 31.42676352 86.3002749 C 31.38675195 87.93877414 32.18736405 89.74109213999999 33.468381480000005 89.74109213999999 L 43.3161768 89.57727338000001 C 44.917401000000005 89.3587618 45.6780396 87.99341502 45.71805117 86.13645614 L 45.71805117 81.38482911999999" />
<path class="stroke" d="M 56.6204375 11.02481638 C 58.5182475 12.63649584 60.270073 14.5167877 61.40415 17.293396" />
<path class="stroke" d="M 85.08759 11.02481638 C 84.21167750000001 13.4423358 82.60584 15.45693432 80.4160575 17.202919520000002" />
<path class="stroke" d="M 53.408758 22.84379418 L 88.737225 22.84379418" />
<path class="stroke" d="M 71.0 7.417821600000001 L 71.07299 44.582178400000004" />
<path class="stroke" d="M 68.2992685 24.05255412 C 65.2947 30.455468 59.22685 36.965986 51.948904999999996 40.43795376" />
<path class="stroke" d="M 73.9926985 24.186859400000003 C 76.44624999999999 30.503814000000002 82.55105 37.349304 89.90510499999999 40.5722595" />
<path class="stroke" d="M 59.64355 52.119871800000006 C 58.8549 59.859082 55.06945 67.308092 49.07571 73.305986" />
<path class="stroke" d="M 57.75075 61.552020000000006 L 69.26495 61.552020000000006 C 66.00525 76.498386 59.59095 84.04418 49.706625 92.17035600000001" />
<path class="stroke" d="M 54.438435 67.7917958 L 64.533085 74.61203180000001" />
<path class="stroke" d="M 73.6813715 61.69717300000001 L 92.76657 61.69717300000001" />
<path class="stroke" d="M 76.362765 61.84228 L 76.362765 77.659288" />
<path class="stroke" d="M 71.00004200000001 77.659288 L 92.924295 77.659288" />
<path class="stroke" d="M 85.51105 52.264983400000006 L 85.51105 91.88014199999999" />
</svg>
