<?xml version="1.0" standalone="no"?>
<!DOCTYPE svg PUBLIC "-//W3C//DTD SVG 1.1//EN" "http://www.w3.org/Graphics/SVG/1.1/DTD/svg11.dtd">
<svg xmlns="http://www.w3.org/2000/svg" version="1.1" width="100%" height="100%">
<style type="text/css"><![CDATA[
  .stroke { fill:none; stroke:black; stroke-width:2 }
]]></style>
<path class="stroke" d="M 14.52522559090909 25.811516 C 13.96834725 33.979057 12.854592340909091 36.806282 11.740837431818182 41.83246" />
<path class="stroke" d="M 34.05040363636364 23.267326 C 32.470746749999996 28.613861 30.364537568181817 33.069305 27.46849772727273 36.336636" />
<path class="stroke" d="M 21.676416272727273 9.306931 L 21.676416272727273 57.72277 C 21.676416272727273 74.653465 13.840656818181818 85.6467 8.51260090909091 90.39604" />
<path class="stroke" d="M 21.41314234090909 63.36634 C 25.888838181818183 68.71287 30.101260090909093 75.24753 31.944194454545453 82.9703" />
<path class="stroke" d="M 48.1693425 11.85036385 C 50.5226269 13.4270068 52.69489052 15.26642275 54.101146 17.98267" />
<path class="stroke" d="M 83.4686116 11.85036385 C 82.38248010000001 14.2153285 80.3912416 16.1861314 77.6759113 17.8941604" />
<path class="stroke" d="M 44.18685992 23.412407350000002 L 87.994159 23.412407350000002" />
<path class="stroke" d="M 66.0 8.321782 L 66.0905076 44.678218" />
<path class="stroke" d="M 62.65109294 24.5948899 C 58.925428 30.858610000000002 51.401294 37.227595 42.3766422 40.624085199999996" />
<path class="stroke" d="M 69.71094614 24.726275500000003 C 72.75335 30.905905 80.323302 37.602579999999996 89.4423302 40.75547125" />
<path class="stroke" d="M 51.918002 52.052048500000005 C 50.940076000000005 59.623015 46.246117999999996 66.91009 38.8138804 72.777595" />
<path class="stroke" d="M 49.570930000000004 61.27915 L 63.848538 61.27915 C 59.80651 75.900595 51.852778 83.28235 39.596215 91.23187" />
<path class="stroke" d="M 45.4636594 67.3832785 L 57.9810254 74.0552485" />
<path class="stroke" d="M 69.32490066 61.421147500000004 L 92.9905468 61.421147500000004" />
<path class="stroke" d="M 72.6498286 61.563100000000006 L 72.6498286 77.03626" />
<path class="stroke" d="M 66.00005208 77.03626 L 93.1861258 77.03626" />
<path class="stroke" d="M 83.993702 52.1940055 L 83.993702 90.947965" />
</svg>
