<?xml version="1.0" standalone="no"?>
<!DOCTYPE svg PUBLIC "-//W3C//DTD SVG 1.1//EN" "http://www.w3.org/Graphics/SVG/1.1/DTD/svg11.dtd">
<svg xmlns="http://www.w3.org/2000/svg" version="1.1" width="100%" height="100%">
<style type="text/css"><![CDATA[
  .stroke { fill:none; stroke:black; stroke-width:2 }
]]></style>
<path class="stroke" d="M 10.4360352 28.594593 L 7.668467199999999 42.864864" />
<path class="stroke" d="M 23.927925333333334 25.027027 L 26.003601066666665 28.594593" />
<path class="stroke" d="M 16.66306133333333 6.8648643 L 16.66306133333333 92.162155" />
<path class="stroke" d="M 38.143065 11.937590115 C 41.0277362 13.53175132 43.69051096 15.391605225 45.414308 18.138033" />
<path class="stroke" d="M 81.41313679999999 11.937590115 C 80.08174980000001 14.32883215 77.6408768 16.321532859999998 74.31240740000001 18.04853996" />
<path class="stroke" d="M 33.26131216 23.628100765 L 86.960582 23.628100765" />
<path class="stroke" d="M 60.0 8.369801800000001 L 60.1109448 45.1301982" />
<path class="stroke" d="M 55.89488812 24.82372201 C 51.327944 31.157039 42.104812 37.596790500000004 31.0423356 41.03101948" />
<path class="stroke" d="M 64.54890172 24.95656745 C 68.2783 31.2048595 77.55759599999999 37.975941999999996 88.7357596 41.163865375" />
<path class="stroke" d="M 42.738196 52.585960150000005 C 41.539448 60.241048500000005 35.785564 67.609091 26.6750792 73.5417905" />
<path class="stroke" d="M 39.86114 61.91558500000001 L 57.362724 61.91558500000001 C 52.40798 76.6994905 42.658243999999996 84.163265 27.63407 92.201113" />
<path class="stroke" d="M 34.8264212 68.08753715 L 50.1702892 74.83364015000001" />
<path class="stroke" d="M 64.07568468 62.059160250000005 L 93.0851864 62.059160250000005" />
<path class="stroke" d="M 68.1514028 62.202690000000004 L 68.1514028 77.847774" />
<path class="stroke" d="M 60.00006384 77.847774 L 93.3249284 77.847774" />
<path class="stroke" d="M 82.05679599999999 52.729494450000004 L 82.05679599999999 91.9140535" />
</svg>
