<?xml version="1.0" standalone="no"?>
<!DOCTYPE svg PUBLIC "-//W3C//DTD SVG 1.1//EN" "http://www.w3.org/Graphics/SVG/1.1/DTD/svg11.dtd">
<svg xmlns="http://www.w3.org/2000/svg" version="1.1" width="100%" height="100%">
<style type="text/css"><![CDATA[
  .stroke { fill:none; stroke:black; stroke-width:2 }
]]></style>
<path class="stroke" d="M 50.14598 5.163502680000001 C 38.75912 13.204378620000002 25.912407 19.51094844 9.854013 23.29488882" />
<path class="stroke" d="M 50.14598 5.163502680000001 C 61.824814 12.889049400000001 73.795616 19.51094844 90.43795 23.13722556" />
<path class="stroke" d="M 50.0 17.083775870000004 L 50.0 29.15" />
<path class="stroke" d="M 11.75 29.15 L 88.25 29.15" />
<path class="stroke" d="M 20.018926399999998 34.06498526 L 20.018926399999998 60.2246162 L 79.981088 60.2246162" />
<path class="stroke" d="M 79.981088 33.87192374 L 79.981088 60.2246162" />
<path class="stroke" d="M 70.52787968000001 35.713737128 C 65.31610640000001 42.45827456 46.1312456 51.879598400000006 29.766422552 55.369210159999994" />
<path class="stroke" d="M 37.12408671199999 37.857970193599996 C 46.55521040000001 40.16728928 61.235369600000006 47.143208 69.23788160000001 52.651844479999994" />
<path class="stroke" d="M 12.523658000000001 68.6763396 L 12.523658000000001 92.7444908" />
<path class="stroke" d="M 12.523658000000001 68.6763396 L 87.19241 68.6763396 L 87.19241 89.2801322 C 87.28708999999999 91.22504440000002 85.3943 92.4405784 83.21765 92.37983059999999 L 78.95903 92.37983059999999" />
<path class="stroke" d="M 49.432190000000006 60.106611040000004 L 49.432190000000006 81.80444204000001 M 27.57101 86.36272922 C 40.63091 82.71606942 55.39424 80.89271062 69.02204 80.16339022" />
<path class="stroke" d="M 64.19561000000002 75.96971122 C 68.6435 78.88705062 71.10419 81.98669122 72.14513 85.45110762" />
</svg>
