<?xml version="1.0" standalone="no"?>
<!DOCTYPE svg PUBLIC "-//W3C//DTD SVG 1.1//EN" "http://www.w3.org/Graphics/SVG/1.1/DTD/svg11.dtd">
<svg xmlns="http://www.w3.org/2000/svg" version="1.1" width="100%" height="100%">
<style type="text/css"><![CDATA[
  .stroke { fill:none; stroke:black; stroke-width:2 }
]]></style>
<path class="stroke" d="M 10.736183314285713 27.956203 L 34.16058308571428 27.956203" />
<path class="stroke" d="M 24.550570285714283 9.270073 L 24.550570285714283 90.14598" />
<path class="stroke" d="M 24.550570285714283 36.131386 C 20.646504 44.598537 15.841500685714283 52.48175 8.93430617142857 56.861313" />
<path class="stroke" d="M 24.550570285714283 36.131386 C 29.055263657142856 37.299267 32.058391885714286 42.26277 33.559956 46.934303" />
<path class="stroke" d="M 67.09634679999999 5.163502680000001 C 59.5810192 13.204378620000002 51.10218862000001 19.51094844 40.503648580000004 23.29488882" />
<path class="stroke" d="M 67.09634679999999 5.163502680000001 C 74.80437724000001 12.889049400000001 82.70510655999999 19.51094844 93.689047 23.13722556" />
<path class="stroke" d="M 67.0 17.083775870000004 L 67.0 29.15" />
<path class="stroke" d="M 41.755 29.15 L 92.245 29.15" />
<path class="stroke" d="M 47.212491424 34.06498526 L 47.212491424 60.2246162 L 86.78751808000001 60.2246162" />
<path class="stroke" d="M 86.78751808000001 33.87192374 L 86.78751808000001 60.2246162" />
<path class="stroke" d="M 80.5484005888 35.713737128 C 77.10863022400001 42.45827456 64.446622096 51.879598400000006 53.64583888432 55.369210159999994" />
<path class="stroke" d="M 58.50189722992 37.857970193599996 C 64.726438864 40.16728928 74.415343936 47.143208 79.69700185600001 52.651844479999994" />
<path class="stroke" d="M 42.26561428 68.6763396 L 42.26561428 92.7444908" />
<path class="stroke" d="M 42.26561428 68.6763396 L 91.5469906 68.6763396 L 91.5469906 89.2801322 C 91.6094794 91.22504440000002 90.36023800000001 92.4405784 88.92364900000001 92.37983059999999 L 86.1129598 92.37983059999999" />
<path class="stroke" d="M 66.62524540000001 60.106611040000004 L 66.62524540000001 81.80444204000001 M 52.1968666 86.36272922 C 60.8164006 82.71606942 70.5601984 80.89271062 79.5545464 80.16339022" />
<path class="stroke" d="M 76.36910260000002 75.96971122 C 79.30471 78.88705062 80.9287654 81.98669122 81.6157858 85.45110762" />
</svg>
