<?xml version="1.0" standalone="no"?>
<!DOCTYPE svg PUBLIC "-//W3C//DTD SVG 1.1//EN" "http://www.w3.org/Graphics/SVG/1.1/DTD/svg11.dtd">
<svg xmlns="http://www.w3.org/2000/svg" version="1.1" width="100%" height="100%">
<style type="text/css"><![CDATA[
  .stroke { fill:none; stroke:black; stroke-width:2 }
]]></style>
<path class="stroke" d="M 9.518248 15.109488 L 30.540143999999998 15.109488" />
<path class="stroke" d="M 20.262772000000002 15.109488 L 20.262772000000002 73.795616" />
<path class="stroke" d="M 9.7518232 43.138683 L 30.306568 43.138683" />
<path class="stroke" d="M 8.3503648 78.17518 L 32.175180000000005 70.0" />
<path class="stroke" d="M 65.5 6.660308934000004 L 65.5 20.43" />
<path class="stroke" d="M 38.725 20.43 L 92.275 20.43" />
<path class="stroke" d="M 44.51324848 26.038865532 L 44.51324848 55.891620839999995 L 86.4867616 55.891620839999995" />
<path class="stroke" d="M 86.4867616 25.818548268 L 86.4867616 55.891620839999995" />
<path class="stroke" d="M 79.86951577600001 27.9203823696 C 76.22127448 35.617089792 62.79187192 46.36848288000001 51.3364957864 50.350745712" />
<path class="stroke" d="M 56.486860698399994 30.36733069152 C 63.08864728 33.002671296 73.36475872 40.9634256 78.96651712 47.249751935999996" />
<path class="stroke" d="M 39.2665606 65.53652872 L 39.2665606 93.00253656" />
<path class="stroke" d="M 39.2665606 65.53652872 L 91.53468699999999 65.53652872 L 91.53468699999999 89.04909203999999 C 91.60096300000001 91.26858008000002 90.27601 92.65571888000001 88.752355 92.58639492 L 85.771321 92.58639492" />
<path class="stroke" d="M 65.102533 55.756956128000006 L 65.102533 80.518010328 M 49.799707 85.719820404 C 58.941637 81.55833804400001 69.275968 79.477563884 78.815428 78.645280604" />
<path class="stroke" d="M 75.436927 73.859552804 C 78.55045000000001 77.188751884 80.272933 80.72598880400001 81.00159099999999 84.679499284" />
</svg>
