<?xml version="1.0" standalone="no"?>
<!DOCTYPE svg PUBLIC "-//W3C//DTD SVG 1.1//EN" "http://www.w3.org/Graphics/SVG/1.1/DTD/svg11.dtd">
<svg xmlns="http://www.w3.org/2000/svg" version="1.1" width="100%" height="100%">
<style type="text/css"><![CDATA[
  .stroke { fill:none; stroke:black; stroke-width:2 }
]]></style>
<path class="stroke" d="M 15.424913 7.661234 L 15.424913 35.53085" />
<path class="stroke" d="M 15.424913 7.8009319999999995 L 43.504078 7.8009319999999995" />
<path class="stroke" d="M 15.6151 16.381700000000002 L 38.0126 16.381700000000002" />
<path class="stroke" d="M 15.6151 25.529975 L 37.3817 25.529975" />
<path class="stroke" d="M 6.15142 35.782340000000005 L 46.8454 35.782340000000005" />
<path class="stroke" d="M 19.716 36.0978 C 17.5078 42.0389 13.4069 46.0873 6.15142 51.3975 C 17.9285 49.13675 28.7591 48.1377 39.9053 47.612" />
<path class="stroke" d="M 33.5962 42.5647 C 38.1178 44.9306 40.7466 47.29655 43.3754 50.13565" />
<path class="stroke" d="M 83.66413 7.42077 C 75.19635 13.815475 62.834694 17.832025 50.843895 17.726325" />
<path class="stroke" d="M 88.48511 20.738695 C 78.84295 28.613245 70.12805 31.731295 55.10859 33.105395" />
<path class="stroke" d="M 93.49164 35.007999999999996 C 82.86065 44.9965 67.964806 48.9601 50.84388 50.2285" />
<path class="stroke" d="M 29.914597499999996 58.07883212 L 29.914597499999996 93.2788286" />
<path class="stroke" d="M 29.914597499999996 70.15474256 L 43.894155299999994 70.15474256" />
<path class="stroke" d="M 17.432845229999998 70.925546 L 17.432845229999998 93.2788286" />
<path class="stroke" d="M 5.61678741 93.2788286 L 51.5496315 93.2788286" />
<path class="stroke" d="M 80.9405935 66.45940652 C 73.811882 69.46534616 68.762377 70.24950580000001 59.4525535 71.31094772" />
<path class="stroke" d="M 59.22714 58.3564356 L 59.22714 87.37029519999999 C 59.22714 91.16039536 62.227722 93.25148656 66.386139 93.25148656 L 88.21782300000001 93.25148656 C 90.148515 93.25148656 91.188118 92.5980188 91.188118 90.8990116 L 91.188118 89.7227728" />
</svg>
