<?xml version="1.0" standalone="no"?>
<!DOCTYPE svg PUBLIC "-//W3C//DTD SVG 1.1//EN" "http://www.w3.org/Graphics/SVG/1.1/DTD/svg11.dtd">
<svg xmlns="http://www.w3.org/2000/svg" version="1.1" width="100%" height="100%">
<style type="text/css"><![CDATA[
  .stroke { fill:none; stroke:black; stroke-width:2 }
]]></style>
<path class="stroke" d="M 29.914597499999996 7.26423358 L 29.914597499999996 38.394447" />
<path class="stroke" d="M 29.914597499999996 19.889049040000003 L 43.894155299999994 19.889049040000003" />
<path class="stroke" d="M 17.41666749 12.45555622 L 17.575001519999997 41.077778800000004" />
<path class="stroke" d="M 5.61678741 44.0642299 L 49.083335549999994 33.794447000000005" />
<path class="stroke" d="M 80.9405935 16.02574318 C 73.811882 19.16831644 68.762377 19.988119700000002 59.4525535 21.09780898" />
<path class="stroke" d="M 59.22714 7.5544554 L 59.22714 37.8871268 C 59.22714 41.84950424 62.227722 44.035645040000006 66.386139 44.035645040000006 L 88.21782300000001 44.035645040000006 C 90.148515 44.035645040000006 91.188118 43.3524742 91.188118 41.5762394 L 91.188118 40.3465352" />
<path class="stroke" d="M 15.247524 55.722771550000004 L 85.346535 55.722771550000004" />
<path class="stroke" d="M 44.950497 55.722771550000004 C 40.79208 68.2722767 22.673267 83.331686 10.198019 87.19306950000001" />
<path class="stroke" d="M 38.71287 69.81683269999999 L 38.71287 90.47524775" />
<path class="stroke" d="M 38.71287 69.81683269999999 L 79.40594 69.81683269999999 L 79.40594 90.668314" />
<path class="stroke" d="M 38.71287 88.4708005 L 79.40594 88.4708005" />
</svg>
