<?xml version="1.0" standalone="no"?>
<!DOCTYPE svg PUBLIC "-//W3C//DTD SVG 1.1//EN" "http://www.w3.org/Graphics/SVG/1.1/DTD/svg11.dtd">
<svg xmlns="http://www.w3.org/2000/svg" version="1.1" width="100%" height="100%">
<style type="text/css"><![CDATA[
  .stroke { fill:none; stroke:black; stroke-width:2 }
]]></style>
<path class="stroke" d="M 29.914597499999996 8.35693431 L 29.914597499999996 40.1638915" />
<path class="stroke" d="M 29.914597499999996 21.25620228 L 43.894155299999994 21.25620228" />
<path class="stroke" d="M 17.41666749 13.66111179 L 17.575001519999997 42.905556600000004" />
<path class="stroke" d="M 5.61678741 45.956930549999996 L 49.083335549999994 35.4638915" />
<path class="stroke" d="M 80.9405935 17.308911509999998 C 73.811882 20.51980158 68.762377 21.35742665 59.4525535 22.49123961" />
<path class="stroke" d="M 59.22714 8.6534653 L 59.22714 39.64554259999999 C 59.22714 43.69405868 62.227722 45.92772428 66.386139 45.92772428 L 88.21782300000001 45.92772428 C 90.148515 45.92772428 91.188118 45.229701899999995 91.188118 43.4148533 L 91.188118 42.1584164" />
<path class="stroke" d="M 11.021896 58.29926312 L 88.68613 58.29926312" />
<path class="stroke" d="M 50.14598 50.85985184 L 50.14598 87.82411119999999" />
<path class="stroke" d="M 47.226276 60.58831772 C 35.547443 70.8890448 23.576641 78.6145906 13.065693 82.90655939999999" />
<path class="stroke" d="M 53.06569 60.58831772 C 64.16058 71.46130600000001 75.54744 78.32846 86.642334 82.90655939999999" />
</svg>
