<?xml version="1.0" standalone="no"?>
<!DOCTYPE svg PUBLIC "-//W3C//DTD SVG 1.1//EN" "http://www.w3.org/Graphics/SVG/1.1/DTD/svg11.dtd">
<svg xmlns="http://www.w3.org/2000/svg" version="1.1" width="100%" height="100%">
<style type="text/css"><![CDATA[
  .stroke { fill:none; stroke:black; stroke-width:2 }
]]></style>
<path class="stroke" d="M 14.1240865 10.49505 L 14.1240865 58.905106" />
<path class="stroke" d="M 14.1752565 10.412371 L 38.29897 10.412371" />
<path class="stroke" d="M 26.25636 10.5678 L 26.25636 58.905106" />
<path class="stroke" d="M 14.1240865 26.49635 L 36.021895 26.49635" />
<path class="stroke" d="M 14.270073 43.138683 L 36.021895 43.138683" />
<path class="stroke" d="M 14.1240865 58.905106 L 43.905105 58.905106 C 43.905105 81.386856 42.299265 90.43795 39.08759 90.43795" />
<path class="stroke" d="M 7.9927005 70.29197 C 7.554744 74.087585 6.678831 78.46715 5.218978 80.80292" />
<path class="stroke" d="M 14.8540135 69.124084 C 15.8759115 72.04379 16.605839 75.54744 17.043795 81.09489" />
<path class="stroke" d="M 24.051095 68.540146 C 25.218977 72.04379 26.0948885 75.54744 26.678831 79.63503" />
<path class="stroke" d="M 33.68613 67.37226 C 35.0 71.16788 35.729925 73.21168 36.313865 77.88321" />
<path class="stroke" d="M 58.839118 6.46687 C 57.131482 22.45 52.679286 38.1177 44.9337514 48.1072" />
<path class="stroke" d="M 57.192381999999995 22.5552 L 93.236598 22.8706 L 93.053608 58.2019 C 92.68768599999999 74.1851 88.84547599999999 92.6919 82.25870599999999 92.9022 L 79.514204 92.9022" />
<path class="stroke" d="M 60.813138429999995 42.09489 L 60.813138429999995 66.38686" />
<path class="stroke" d="M 60.813138429999995 42.09489 L 79.271532 42.09489 L 79.271532 66.153284" />
<path class="stroke" d="M 60.813138429999995 64.5182464 L 79.271532 64.5182464" />
</svg>
