<?xml version="1.0" standalone="no"?>
<!DOCTYPE svg PUBLIC "-//W3C//DTD SVG 1.1//EN" "http://www.w3.org/Graphics/SVG/1.1/DTD/svg11.dtd">
<svg xmlns="http://www.w3.org/2000/svg" version="1.1" width="100%" height="100%">
<style type="text/css"><![CDATA[
  .stroke { fill:none; stroke:black; stroke-width:2 }
]]></style>
<path class="stroke" d="M 16.15547272 15.109488 L 16.15547272 30.875912 C 16.15547272 53.941605 12.765692849999999 73.50365 7.1160583 84.8905" />
<path class="stroke" d="M 7.6182479899999995 32.335766 L 26.8270046 27.372261 L 26.8270046 70.87591 C 26.8270046 78.17518 28.58467002 82.26277 31.0956189 82.55474 L 38.00072918 82.55474 C 39.381749 82.26277 40.6372243 80.21897 40.7627714 76.131386 L 40.7627714 71.45985" />
<path class="stroke" d="M 61.068586100000005 9.4764385 C 60.7123827 12.980087 60.57717254 14.994076 59.152355279999995 17.329842" />
<path class="stroke" d="M 52.44554985 17.015707 L 52.44554985 66.96335" />
<path class="stroke" d="M 52.25392567 17.43295 L 81.045592 17.43295 L 81.045592 43.333332" />
<path class="stroke" d="M 52.82879455 30.583939 L 80.8586209 30.583939" />
<path class="stroke" d="M 52.637173419999996 43.430653 L 81.045592 43.430653" />
<path class="stroke" d="M 52.82879455 55.10949 L 90.3869124 55.10949" />
<path class="stroke" d="M 52.637173419999996 66.20438 L 90.6747104 66.20438 L 89.5528716 80.57471 C 89.1789294 85.01916 88.1505731 90.22988 86.00038105 90.22988 C 84.78505365 90.22988 84.22413363999999 90.22988 83.3827582 90.22988" />
<path class="stroke" d="M 50.28850567 74.137924 C 50.101531519999995 76.74329 49.16666626 80.881226 48.04482685 83.48659" />
<path class="stroke" d="M 59.16973052 74.137924 C 59.91762407 76.28352 60.57202963 79.042145 60.6655164 82.26054" />
<path class="stroke" d="M 70.38812096 74.597694 C 71.41647359999999 76.74329 72.07087794 79.042145 72.53831423 81.800766" />
<path class="stroke" d="M 80.57816120000001 74.44444 C 81.88697110000001 75.82375 82.91532129999999 77.816086 83.7567004 80.72797" />
</svg>
