<?xml version="1.0" standalone="no"?>
<!DOCTYPE svg PUBLIC "-//W3C//DTD SVG 1.1//EN" "http://www.w3.org/Graphics/SVG/1.1/DTD/svg11.dtd">
<svg xmlns="http://www.w3.org/2000/svg" version="1.1" width="100%" height="100%">
<style type="text/css"><![CDATA[
  .stroke { fill:none; stroke:black; stroke-width:2 }
]]></style>
<path class="stroke" d="M 12.189779 14.9087585 L 87.81021 14.9087585" />
<path class="stroke" d="M 34.67153 7.97445105 L 34.67153 22.397808949999998" />
<path class="stroke" d="M 65.32846 7.97445105 L 65.32846 22.397808949999998" />
<path class="stroke" d="M 40.007329399999996 26.675915185 C 39.4584258 29.51387047 39.250069159999995 31.14520156 37.05444912 33.03717202" />
<path class="stroke" d="M 26.7193719 32.78272267 L 26.7193719 73.24031350000001" />
<path class="stroke" d="M 26.42408218 33.120689500000005 L 70.791568 33.120689500000005 L 70.791568 54.099998920000004" />
<path class="stroke" d="M 27.3099457 43.772990590000006 L 70.5034486 43.772990590000006" />
<path class="stroke" d="M 27.01466068 54.17882893 L 70.791568 54.17882893" />
<path class="stroke" d="M 27.3099457 63.6386869 L 85.1863896 63.6386869" />
<path class="stroke" d="M 27.01466068 72.6255478 L 85.62988159999999 72.6255478 L 83.90114639999999 84.2655151 C 83.3249076 87.8655196 81.7402274 92.0862028 78.4268167 92.0862028 C 76.5540171 92.0862028 75.68964856 92.0862028 74.3931028 92.0862028" />
<path class="stroke" d="M 23.395402179999998 79.05171844 C 23.107278079999997 81.1620649 21.66666604 84.51379306 19.9379299 86.62413790000001" />
<path class="stroke" d="M 37.08122408 79.05171844 C 38.23371578 80.78965120000001 39.24214402 83.02413745000001 39.3862056 85.63103740000001" />
<path class="stroke" d="M 54.368579839999995 79.42413214000001 C 55.9532544 81.1620649 56.96168076 83.02413745000001 57.68199242 85.25862046" />
<path class="stroke" d="M 70.0712648 79.2999964 C 72.0881194 80.4172375 73.6727902 82.03102966 74.96934159999999 84.3896557" />
</svg>
