<?xml version="1.0" standalone="no"?>
<!DOCTYPE svg PUBLIC "-//W3C//DTD SVG 1.1//EN" "http://www.w3.org/Graphics/SVG/1.1/DTD/svg11.dtd">
<svg xmlns="http://www.w3.org/2000/svg" version="1.1" width="100%" height="100%">
<style type="text/css"><![CDATA[
  .stroke { fill:none; stroke:black; stroke-width:2 }
]]></style>
<path class="stroke" d="M 12.503741400000001 17.68304229 C 9.738653800000002 29.00374351 10.66034908 26.39127452 8.02693324 34.22867955" />
<path class="stroke" d="M 12.503741400000001 17.973318669999998 L 45.026436000000004 17.973318669999998 C 43.7097272 24.93990038 43.446387200000004 27.2620959 39.891273 35.0995019" />
<path class="stroke" d="M 24.090774000000003 7.85 C 20.4257104 36.048562510000004 13.77634328 51.63657988 7.121290480000001 63.1797506" />
<path class="stroke" d="M 13.688778000000001 50.1937689 L 13.919041439999999 93.1189558" />
<path class="stroke" d="M 30.49497092 38.5559126 C 29.692887 42.41590732 28.757151760000003 46.47212527999999 26.885681719999997 49.939638599999995" />
<path class="stroke" d="M 13.919041439999999 49.939561 L 42.793224800000004 49.939561" />
<path class="stroke" d="M 27.153031000000002 49.9395416 L 27.153031000000002 92.9226666" />
<path class="stroke" d="M 14.18642944 64.26729035 L 40.3870188 64.26729035" />
<path class="stroke" d="M 14.320084280000001 78.79123129999999 L 40.3870188 78.79123129999999" />
<path class="stroke" d="M 13.919041439999999 93.1189558 L 42.525835040000004 93.1189558" />
<path class="stroke" d="M 62.345025899999996 9.4764385 C 62.000501299999996 12.980087 61.86972426 14.994076 60.49162232 17.329842" />
<path class="stroke" d="M 54.00471215 17.015707 L 54.00471215 66.96335" />
<path class="stroke" d="M 53.81937073 17.43295 L 81.667048 17.43295 L 81.667048 43.333332" />
<path class="stroke" d="M 54.37539145 30.583939 L 81.4862071 30.583939" />
<path class="stroke" d="M 54.19005298 43.430653 L 81.667048 43.430653" />
<path class="stroke" d="M 54.37539145 55.10949 L 90.7020956 55.10949" />
<path class="stroke" d="M 54.19005298 66.20438 L 90.9804576 66.20438 L 89.8954004 80.57471 C 89.5337186 85.01916 88.53907889999999 90.22988 86.45938495 90.22988 C 85.28390435 90.22988 84.74137515999999 90.22988 83.9275858 90.22988" />
<path class="stroke" d="M 51.91839073 74.137924 C 51.73754688 76.74329 50.83333294 80.881226 49.74827515 83.48659" />
<path class="stroke" d="M 60.50842788 74.137924 C 61.23180033 76.28352 61.86474997 79.042145 61.9551716 82.26054" />
<path class="stroke" d="M 71.35900224 74.597694 C 72.3536384 76.74329 72.98658686 79.042145 73.43869737 81.800766" />
<path class="stroke" d="M 81.2149428 74.44444 C 82.4808409 75.82375 83.47547469999999 77.816086 84.28926759999999 80.72797" />
</svg>
