<?xml version="1.0" standalone="no"?>
<!DOCTYPE svg PUBLIC "-//W3C//DTD SVG 1.1//EN" "http://www.w3.org/Graphics/SVG/1.1/DTD/svg11.dtd">
<svg xmlns="http://www.w3.org/2000/svg" version="1.1" width="100%" height="100%">
<style type="text/css"><![CDATA[
  .stroke { fill:none; stroke:black; stroke-width:2 }
]]></style>
<path class="stroke" d="M 36.17801 9.4764385 C 35.59407 12.980087 35.372414 14.994076 33.036648 17.329842" />
<path class="stroke" d="M 22.041885 17.015707 L 22.041885 66.96335" />
<path class="stroke" d="M 21.727747 17.43295 L 68.9272 17.43295 L 68.81081 37.027023" />
<path class="stroke" d="M 22.756756 36.7027 L 69.13513 36.7027" />
<path class="stroke" d="M 22.756756 51.297295 L 83.72973 51.297295" />
<path class="stroke" d="M 22.356022 66.20438 L 84.71264 66.20438 L 82.87356 80.57471 C 82.26054 85.01916 80.57471 90.22988 77.049805 90.22988 C 75.057465 90.22988 74.137924 90.22988 72.75862 90.22988" />
<path class="stroke" d="M 18.505747 74.137924 C 18.199232 76.74329 16.666666 80.881226 14.827585 83.48659" />
<path class="stroke" d="M 33.065132 74.137924 C 34.291187 76.28352 35.363983 79.042145 35.51724 82.26054" />
<path class="stroke" d="M 51.455936 74.597694 C 53.14176 76.74329 54.214554 79.042145 54.980843 81.800766" />
<path class="stroke" d="M 68.16092 74.44444 C 70.30651 75.82375 71.99233 77.816086 73.37164 80.72797" />
</svg>
