<?xml version="1.0" standalone="no"?>
<!DOCTYPE svg PUBLIC "-//W3C//DTD SVG 1.1//EN" "http://www.w3.org/Graphics/SVG/1.1/DTD/svg11.dtd">
<svg xmlns="http://www.w3.org/2000/svg" version="1.1" width="100%" height="100%">
<style type="text/css"><![CDATA[
  .stroke { fill:none; stroke:black; stroke-width:2 }
]]></style>
<path class="stroke" d="M 11.96423342 9.854013 L 11.9442956 55.63759 C 9.411409169999999 80.20134 9.411409169999999 79.39597 6.5805365799999995 89.865776" />
<path class="stroke" d="M 11.96423342 9.854013 L 27.0883216 9.854013 L 27.0883216 86.05839 C 27.0883216 88.39416 26.6562023 90.43795 25.575911079999997 90.43795 L 24.387591699999998 90.43795" />
<path class="stroke" d="M 11.96423342 31.862577 L 27.0883216 31.862577" />
<path class="stroke" d="M 11.96423342 55.110336 L 27.0883216 55.110336" />
<path class="stroke" d="M 34.14233425 15.69343 L 90.8576575 15.69343" />
<path class="stroke" d="M 51.0036475 8.394159 L 51.0036475 23.576641" />
<path class="stroke" d="M 73.996345 8.394159 L 73.996345 23.576641" />
<path class="stroke" d="M 35.499998500000004 35.3513504 L 35.499998500000004 71.416208 C 35.499998500000004 85.167568 33.310809625 89.318912 29.613565 95.07896" />
<path class="stroke" d="M 35.01351325 35.0918912 L 94.8513475 35.3513504" />
<path class="stroke" d="M 76.93925125 26.3551408 L 76.93925125 51.1775696 C 78.90186700000001 82.280376 79.7713 94.99472 89.47165 94.82648 L 92.07407500000001 94.82648 C 94.203475 94.95272 95.7085 93.43088 95.623 90.53624 L 95.623 87.50792" />
<path class="stroke" d="M 89.235025 57.47632 C 81.112 77.74968000000001 75.7177255 92.49951200000001 67.6081045 93.729724" />
<path class="stroke" d="M 85.44955 25.425864 C 87.0675625 26.789188799999998 88.1287525 28.4078784 89.2567555 30.1621616" />
<path class="stroke" d="M 44.9282395 45.023324 L 44.87438332 88.60000000000001" />
<path class="stroke" d="M 44.9282395 45.023324 L 69.8698765 45.023324" />
<path class="stroke" d="M 56.057576005 45.023376 L 56.057576005 58.146356000000004" />
<path class="stroke" d="M 44.9282395 58.802497200000005 L 65.596996 58.802497200000005 L 65.596996 72.9097852" />
<path class="stroke" d="M 44.9282395 72.9097852 L 65.596996 72.9097852" />
<path class="stroke" d="M 56.15694496 73.07383999999999 L 56.15694496 86.36088" />
<path class="stroke" d="M 44.9282395 86.52494 L 70.06861 86.52494" />
</svg>
