<?xml version="1.0" standalone="no"?>
<!DOCTYPE svg PUBLIC "-//W3C//DTD SVG 1.1//EN" "http://www.w3.org/Graphics/SVG/1.1/DTD/svg11.dtd">
<svg xmlns="http://www.w3.org/2000/svg" version="1.1" width="100%" height="100%">
<style type="text/css"><![CDATA[
  .stroke { fill:none; stroke:black; stroke-width:2 }
]]></style>
<path class="stroke" d="M 11.78887606 15.9684454 L 11.78887606 39.3438414" />
<path class="stroke" d="M 11.78887606 15.9684454 L 42.54925381 15.9684454 L 42.54925381 39.3438414" />
<path class="stroke" d="M 21.954328945000004 7.9369098000000005 L 21.954328945000004 39.343830000000004" />
<path class="stroke" d="M 32.11979020000001 7.817036140000001 L 32.11979020000001 39.2239552" />
<path class="stroke" d="M 11.920904440000001 27.596206000000002 L 42.41729239 27.596206000000002" />
<path class="stroke" d="M 11.78887606 39.3438414 L 42.54925381 39.3438414" />
<path class="stroke" d="M 12.87956146 47.854014208 L 41.93357335 47.854014208" />
<path class="stroke" d="M 13.69415869 56.72992592 L 13.69415869 67.91357580799999" />
<path class="stroke" d="M 13.69415869 56.72992592 L 40.57590820000001 56.90744307199999 L 40.57590820000001 68.091093568" />
<path class="stroke" d="M 13.69415869 67.91357580799999 L 40.57590820000001 67.91357580799999" />
<path class="stroke" d="M 15.86642293 73.771678304 C 19.1248165 77.677078144 19.93941466 81.22744307199999 20.48248072 87.263065152" />
<path class="stroke" d="M 36.2313853 73.239121376 C 36.2313853 77.854595296 35.9598532 82.47007104 33.516055 85.487882688" />
<path class="stroke" d="M 13.69415869 92.94364928 L 42.476639410000004 87.263065152" />
<path class="stroke" d="M 61.33941485 9.270073 C 59.5729925 20.364962 56.68248125 25.328465 52.50729815 30.29197" />
<path class="stroke" d="M 60.6970803 14.9842 L 74.66788275 14.9842 C 73.70437735 23.86861 71.61678635 29.124084 68.88685915 34.37956" />
<path class="stroke" d="M 53.76183 36.11986 L 81.73357325 36.11986 L 81.73357325 55.10949" />
<path class="stroke" d="M 67.9233565 36.131386 L 67.9233565 55.10949" />
<path class="stroke" d="M 53.712871750000005 55.10949 L 81.57299030000001 55.10949" />
<path class="stroke" d="M 53.76183 36.4354 L 53.76183 81.09489 C 53.712871750000005 85.9406 54.75547375 90.14598 57.3248158 90.14598 L 89.2810225 90.14598 C 91.04744430000001 90.14598 92.6532837 88.10219 92.6532837 85.76642 L 92.6532837 81.386856" />
</svg>
