<?xml version="1.0" standalone="no"?>
<!DOCTYPE svg PUBLIC "-//W3C//DTD SVG 1.1//EN" "http://www.w3.org/Graphics/SVG/1.1/DTD/svg11.dtd">
<svg xmlns="http://www.w3.org/2000/svg" version="1.1" width="100%" height="100%">
<style type="text/css"><![CDATA[
  .stroke { fill:none; stroke:black; stroke-width:2 }
]]></style>
<path class="stroke" d="M 33.4087558 9.854013 C 26.5591212 20.948904 16.62043756 29.124084 9.36788252 30.0" />
<path class="stroke" d="M 37.303649400000005 34.37956 C 29.451380399999998 49.22649 22.5958624 55.46259 10.7809004 58.21079" />
<path class="stroke" d="M 41.124248400000006 60.953674 C 32.4005462 79.264305 20.51532702 88.68613 7.8905106400000005 89.56204" />
<path class="stroke" d="M 49.35912354 9.854013 L 87.1926972 9.854013" />
<path class="stroke" d="M 68.54744339999999 9.854013 C 67.8233578 14.817516 66.37518164 18.905107 64.326688 22.0621" />
<path class="stroke" d="M 50.958 22.3791 L 50.958 76.715324" />
<path class="stroke" d="M 50.958 22.3791 L 85.755934 22.3791 L 85.755934 76.423355" />
<path class="stroke" d="M 51.154602 40.77066 L 85.755934 40.77066" />
<path class="stroke" d="M 51.154602 59.79627 L 85.755934 59.79627" />
<path class="stroke" d="M 50.98832048 76.715324 L 85.9255412 76.715324" />
<path class="stroke" d="M 57.867151660000005 83.13868 C 54.608757780000005 86.9343 50.80729846 89.56204 46.281750439999996 89.85401" />
<path class="stroke" d="M 79.5897798 83.43065 C 83.3912416 84.59853 86.4686116 86.35036 90.0890489 90.72992" />
</svg>
