<?xml version="1.0" standalone="no"?>
<!DOCTYPE svg PUBLIC "-//W3C//DTD SVG 1.1//EN" "http://www.w3.org/Graphics/SVG/1.1/DTD/svg11.dtd">
<svg xmlns="http://www.w3.org/2000/svg" version="1.1" width="100%" height="100%">
<style type="text/css"><![CDATA[
  .stroke { fill:none; stroke:black; stroke-width:2 }
]]></style>
<path class="stroke" d="M 8.15985385 20.160000000000004 L 40.840144099999996 20.160000000000004" />
<path class="stroke" d="M 24.5 9.51386856 L 24.5 32.404377600000004" />
<path class="stroke" d="M 15.594918457199999 34.813328193000004 L 15.594918457199999 58.843457184" />
<path class="stroke" d="M 15.594918457199999 34.813328193000004 L 33.3021301 34.813328193000004 L 33.3021301 58.843457184" />
<path class="stroke" d="M 15.697868136999999 46.173795003799995 L 33.199181478 46.173795003799995" />
<path class="stroke" d="M 15.594918457199999 57.7945238024 L 33.3021301 57.7945238024" />
<path class="stroke" d="M 8.04014533 70.24060338999999 L 41.1992672 70.24060338999999" />
<path class="stroke" d="M 24.468581699999998 60.264164131 L 24.468581699999998 90.425832106" />
<path class="stroke" d="M 64.985778 8.244484499999999 C 64.874319 16.9353505 63.759729 23.8281705 61.140363 29.222460499999997" />
<path class="stroke" d="M 52.44637179 15.137190499999999 L 83.37696085 15.137190499999999 L 83.37696085 29.222460499999997" />
<path class="stroke" d="M 45.92586659 29.522081 L 92.7397262 29.522081" />
<path class="stroke" d="M 54.619879 40.01102435 L 54.619879 56.79334435" />
<path class="stroke" d="M 54.619879 40.01102435 L 84.88171299999999 40.01102435 L 84.88171299999999 56.79334435" />
<path class="stroke" d="M 54.619879 56.79334435 L 84.88171299999999 56.79334435" />
<path class="stroke" d="M 49.48375659 68.14974600000001 L 89.22872000000001 68.1814" />
<path class="stroke" d="M 54.95423321 68.48108699999999 L 54.95423321 83.46533819999999" />
<path class="stroke" d="M 45.7586765 83.165655 L 92.572543 83.165655" />
<path class="stroke" d="M 75.68610699999999 56.793369999999996 L 75.68610699999999 93.05525" />
</svg>
