<?xml version="1.0" standalone="no"?>
<!DOCTYPE svg PUBLIC "-//W3C//DTD SVG 1.1//EN" "http://www.w3.org/Graphics/SVG/1.1/DTD/svg11.dtd">
<svg xmlns="http://www.w3.org/2000/svg" version="1.1" width="100%" height="100%">
<style type="text/css"><![CDATA[
  .stroke { fill:none; stroke:black; stroke-width:2 }
]]></style>
<path class="stroke" d="M 9.84150137142857 27.956203 L 31.31386782857143 27.956203" />
<path class="stroke" d="M 22.504689428571428 9.270073 L 22.504689428571428 90.14598" />
<path class="stroke" d="M 22.504689428571428 36.131386 C 18.925962000000002 44.598537 14.521375628571427 52.48175 8.189780657142856 56.861313" />
<path class="stroke" d="M 22.504689428571428 36.131386 C 26.633991685714285 37.299267 29.386859228571428 42.26277 30.763293 46.934303" />
<path class="stroke" d="M 44.08102125 19.197079 L 85.12627674000001 19.197079" />
<path class="stroke" d="M 64.60364580000001 7.5182476 L 64.60364580000001 32.335766" />
<path class="stroke" d="M 41.59342975 34.9635 L 41.59342975 92.48175" />
<path class="stroke" d="M 41.59342975 34.9635 L 88.0284628 34.9635 L 88.0284628 86.35036 C 88.0284628 90.14598 85.74817 92.48175 83.8824746 92.48175 L 82.224085 92.48175" />
<path class="stroke" d="M 53.824085 42.55474 C 57.14087343 45.47445 58.38467059999999 48.9781 59.2138654 55.10949" />
<path class="stroke" d="M 75.3832066 42.55474 C 72.0664203 45.47445 70.61532656 49.85401 69.9934262 55.10949" />
<path class="stroke" d="M 50.5072987 57.73722 L 78.69999999999999 57.73722" />
<path class="stroke" d="M 48.6416033 72.9197 L 80.5656883 72.9197" />
<path class="stroke" d="M 64.60364580000001 57.73722 L 64.60364580000001 91.313866" />
</svg>
