<?xml version="1.0" standalone="no"?>
<!DOCTYPE svg PUBLIC "-//W3C//DTD SVG 1.1//EN" "http://www.w3.org/Graphics/SVG/1.1/DTD/svg11.dtd">
<svg xmlns="http://www.w3.org/2000/svg" version="1.1" width="100%" height="100%">
<style type="text/css"><![CDATA[
  .stroke { fill:none; stroke:black; stroke-width:2 }
]]></style>
<path class="stroke" d="M 10.437956 27.956203 L 33.211678 27.956203" />
<path class="stroke" d="M 23.86861 9.270073 L 23.86861 90.14598" />
<path class="stroke" d="M 23.86861 36.131386 C 20.07299 44.598537 15.401459 52.48175 8.686131 56.861313" />
<path class="stroke" d="M 23.86861 36.131386 C 28.248173 37.299267 31.167881 42.26277 32.627735 46.934303" />
<path class="stroke" d="M 44.390099289999995 20.29703 L 86.6099014 20.29703" />
<path class="stroke" d="M 48.28415707 35.148514 L 82.7158381 35.148514" />
<path class="stroke" d="M 40.29108943 50.89109 L 90.70890849999999 50.89109" />
<path class="stroke" d="M 65.29504929999999 9.90099 C 65.209786 44.7424 53.165628999999996 68.8223 37.6267324 80.89109" />
<path class="stroke" d="M 69.1824817 34.95957 C 73.5358297 56.20037 79.648243 67.8759 92.9633662 81.485146" />
<path class="stroke" d="M 56.7798088972 63.2978099 L 56.7798088972 91.2569312" />
<path class="stroke" d="M 56.7798088972 63.2978099 L 75.49140009999999 63.2978099 L 75.49140009999999 91.2569312" />
<path class="stroke" d="M 56.888598036999994 76.51574434 L 75.382612078 76.51574434" />
<path class="stroke" d="M 56.7798088972 90.03649432 L 75.49140009999999 90.03649432" />
</svg>
