<?xml version="1.0" standalone="no"?>
<!DOCTYPE svg PUBLIC "-//W3C//DTD SVG 1.1//EN" "http://www.w3.org/Graphics/SVG/1.1/DTD/svg11.dtd">
<svg xmlns="http://www.w3.org/2000/svg" version="1.1" width="100%" height="100%">
<style type="text/css"><![CDATA[
  .stroke { fill:none; stroke:black; stroke-width:2 }
]]></style>
<path class="stroke" d="M 12.189779 13.3394155 L 87.81021 13.3394155" />
<path class="stroke" d="M 34.67153 7.13503515 L 34.67153 20.040144849999997" />
<path class="stroke" d="M 65.32846 7.13503515 L 65.32846 20.040144849999997" />
<path class="stroke" d="M 18.321167 30.0407082872 L 81.678825 30.0407082872" />
<path class="stroke" d="M 50.0 21.231458767195 L 50.0 41.52419247190001" />
<path class="stroke" d="M 9.854013 41.52419247190001 L 89.85401 41.52419247190001" />
<path class="stroke" d="M 37.007298 44.21428875462 L 37.007298 48.69756714564001 C 37.007298 52.65056571230001 29.416058 56.55535678204001 10.437956 57.56770992450001" />
<path class="stroke" d="M 54.233574 44.16608175303 L 54.233574 55.543003969800004 C 54.233574 56.7481864395 58.029198 57.4712955911 62.116783 57.4712955911 L 84.8905 57.4712955911 C 88.10219 57.519502757800005 90.43795 57.133843773100004 90.43795 56.6035632883 L 90.43795 55.68762613034" />
<path class="stroke" d="M 43.138683 61.77627649 C 36.423355 66.96605825 25.036495 72.38649512500001 13.357662 75.8463495" />
<path class="stroke" d="M 39.635033 64.77481707999999 L 65.62044 64.77481707999999 C 55.10949 74.23175026500002 32.627735 85.18795335 10.145985 91.18503295" />
<path class="stroke" d="M 28.540146 70.42591223 C 40.0 78.79838753000001 63.576637 86.687225225 88.39416 91.18503295" />
</svg>
