<?xml version="1.0" standalone="no"?>
<!DOCTYPE svg PUBLIC "-//W3C//DTD SVG 1.1//EN" "http://www.w3.org/Graphics/SVG/1.1/DTD/svg11.dtd">
<svg xmlns="http://www.w3.org/2000/svg" version="1.1" width="100%" height="100%">
<style type="text/css"><![CDATA[
  .stroke { fill:none; stroke:black; stroke-width:2 }
]]></style>
<path class="stroke" d="M 8.95912358 10.22335612 L 8.95912358 80.0277312" />
<path class="stroke" d="M 8.95912358 10.22335612 L 28.92992668 10.22335612 L 28.92992668 79.776637" />
<path class="stroke" d="M 8.95912358 31.546287279999998 L 28.92992668 31.546287279999998" />
<path class="stroke" d="M 8.95912358 55.4884224 L 28.92992668 55.4884224" />
<path class="stroke" d="M 8.95912358 77.51678059999999 L 28.92992668 77.51678059999999" />
<path class="stroke" d="M 44.90875855 17.25624036 L 86.09123625000001 17.25624036" />
<path class="stroke" d="M 65.5 7.62587552225 L 65.5 29.810106845" />
<path class="stroke" d="M 39.40510845 29.810106845 L 91.4051065 29.810106845" />
<path class="stroke" d="M 57.0547437 32.750948581 L 57.0547437 37.652115982 C 57.0547437 41.973575865 52.1204377 46.242334802 39.7846714 47.349049975" />
<path class="stroke" d="M 68.2518231 32.6982481765 L 68.2518231 45.135619989999995 C 68.2518231 46.453138225 70.71897870000001 47.243648805 73.37590895 47.243648805 L 88.178825 47.243648805 C 90.2664235 47.296349389999996 91.78466750000001 46.874742905 91.78466750000001 46.295034664999996 L 91.78466750000001 45.293722466999995" />
<path class="stroke" d="M 44.90875855 71.96167799999999 L 86.09123625000001 71.96167799999999" />
<path class="stroke" d="M 65.5 56.4288314875 L 65.5 92.20984974999999" />
<path class="stroke" d="M 39.40510845 92.20984974999999 L 91.4051065 92.20984974999999" />
</svg>
