<?xml version="1.0" standalone="no"?>
<!DOCTYPE svg PUBLIC "-//W3C//DTD SVG 1.1//EN" "http://www.w3.org/Graphics/SVG/1.1/DTD/svg11.dtd">
<svg xmlns="http://www.w3.org/2000/svg" version="1.1" width="100%" height="100%">
<style type="text/css"><![CDATA[
  .stroke { fill:none; stroke:black; stroke-width:2 }
]]></style>
<path class="stroke" d="M 24.87773525 5.6817516 C 23.07481575 15.65547368 18.77554705 20.887589520000002 12.950729399999998 25.629196320000002" />
<path class="stroke" d="M 24.461678 9.115327200000001 L 42.07481575 9.115327200000001 C 40.410582 23.830654400000004 27.2354006 42.633576160000004 9.06751795 50.318245600000004" />
<path class="stroke" d="M 22.24270125 19.906568080000003 C 26.574841375 22.109684800000004 30.009123675 24.97518072 33.060217300000005 30.207298800000004" />
<path class="stroke" d="M 57.61749215 8.5908067952 L 85.99730575000001 8.5908067952 L 85.99730575000001 27.1891504752 C 85.970807875 28.6666505216 84.95249575 29.679969995200004 82.643364 29.679969995200004 L 77.74138775 29.679969995200004" />
<path class="stroke" d="M 57.617409974999994 8.756833355200001 L 57.617409974999994 49.772866975999996 C 57.69428825 51.62427368 59.4233975 52.638114816000005 61.745369925 52.595844896 L 87.545176375 52.595844896 C 90.039228 52.595844896 92.01720875 51.599527616 91.93125275 49.772866975999996 L 91.93125275 46.617783296000006" />
<path class="stroke" d="M 16.569342 75.92992480000001 C 15.985401 79.99416016 13.649633 83.0773696 10.145985 85.17956032000001" />
<path class="stroke" d="M 26.36648 71.279776 L 31.71248 79.823968 C 37.05728 86.927008 46.50528 90.101488 65.70158 90.252016 L 79.927 90.252016 C 82.84671 90.2248144 84.40613 89.27816032 84.59853 88.2627712 L 84.59853 87.1416064" />
<path class="stroke" d="M 48.9781 63.456932800000004 C 53.357662 64.718248 56.569344 66.82043776 59.197075 69.20291824" />
<path class="stroke" d="M 80.51095 66.4 C 84.8905 68.2218976 87.51824 70.464232 89.85401 72.98686047999999" />
</svg>
