<?xml version="1.0" standalone="no"?>
<!DOCTYPE svg PUBLIC "-//W3C//DTD SVG 1.1//EN" "http://www.w3.org/Graphics/SVG/1.1/DTD/svg11.dtd">
<svg xmlns="http://www.w3.org/2000/svg" version="1.1" width="100%" height="100%">
<style type="text/css"><![CDATA[
  .stroke { fill:none; stroke:black; stroke-width:2 }
]]></style>
<path class="stroke" d="M 13.81094892 9.854013 L 13.81094892 75.25547" />
<path class="stroke" d="M 13.959853110000001 9.854013 L 37.189047 9.854013 L 37.189047 75.25547" />
<path class="stroke" d="M 13.96492098 32.17822 L 37.16435484 32.17822" />
<path class="stroke" d="M 13.96492098 54.158417 L 37.16435484 54.158417" />
<path class="stroke" d="M 13.959853110000001 74.9635 L 37.0401423 74.9635" />
<path class="stroke" d="M 16.93795578 81.9708 C 15.74671512 86.9343 13.81094892 89.56204 11.5773723 90.72992" />
<path class="stroke" d="M 34.657661999999995 82.26277 C 36.8912376 83.43065 38.529194399999994 86.05839 39.8693418 90.72992" />
<path class="stroke" d="M 69.4197052 8.978102 C 66.82252299999999 34.5777 60.857130999999995 56.2448 48.28394161 71.75182" />
<path class="stroke" d="M 48.61678741 26.6561 L 94.5496315 26.6561" />
<path class="stroke" d="M 65.12099249319999 45.41970715 L 65.12099249319999 73.521895 C 65.12099249319999 79.7524765 65.12099249319999 82.366335 65.12099249319999 88.4108933" />
<path class="stroke" d="M 65.12099249319999 45.41970715 L 85.15836553599999 45.41970715 L 85.15836553599999 87.3321145 C 85.15836553599999 88.61678800000001 84.585865858 89.7408725 83.15462597679999 89.7408725 L 81.580263382 89.7408725" />
<path class="stroke" d="M 65.12099249319999 57.52441735000001 L 85.15836553599999 57.52441735000001" />
<path class="stroke" d="M 65.12099249319999 70.3106848 L 85.15836553599999 70.3106848" />
</svg>
