<?xml version="1.0" standalone="no"?>
<!DOCTYPE svg PUBLIC "-//W3C//DTD SVG 1.1//EN" "http://www.w3.org/Graphics/SVG/1.1/DTD/svg11.dtd">
<svg xmlns="http://www.w3.org/2000/svg" version="1.1" width="100%" height="100%">
<style type="text/css"><![CDATA[
  .stroke { fill:none; stroke:black; stroke-width:2 }
]]></style>
<path class="stroke" d="M 12.189779 14.124087 L 87.81021 14.124087" />
<path class="stroke" d="M 34.67153 7.5547431000000005 L 34.67153 21.218976899999998" />
<path class="stroke" d="M 65.32846 7.5547431000000005 L 65.32846 21.218976899999998" />
<path class="stroke" d="M 24.108027200000002 28.710948600000002 C 22.286129600000002 42.24671428 17.941605439999996 49.34744292 12.055473919999999 55.78248072" />
<path class="stroke" d="M 23.687590399999998 33.3708012 L 41.4861296 33.3708012 C 39.804377599999995 53.3416024 26.49051008 78.85985336 8.13138656 89.2890476" />
<path class="stroke" d="M 21.445256 48.016056680000005 C 25.8229976 51.0060008 29.29343024 54.89488812 32.376640640000005 61.9956198" />
<path class="stroke" d="M 57.19241312 32.6589520792 L 85.8709616 32.6589520792 L 85.8709616 57.8995613592 C 85.8441848 59.9047399936 84.81515359999999 61.2799592792 82.4817152 61.2799592792 L 77.5281392 61.2799592792" />
<path class="stroke" d="M 57.19233008 32.8842738392 L 57.19233008 88.54889089599999 C 57.270017599999996 91.06151428 59.017328 92.437441536 61.36374224 92.38007521600001 L 87.43512559999999 92.38007521600001 C 89.9554304 92.38007521600001 91.954232 91.027930336 91.8673712 88.54889089599999 L 91.8673712 84.266991616" />
</svg>
