<?xml version="1.0" standalone="no"?>
<!DOCTYPE svg PUBLIC "-//W3C//DTD SVG 1.1//EN" "http://www.w3.org/Graphics/SVG/1.1/DTD/svg11.dtd">
<svg xmlns="http://www.w3.org/2000/svg" version="1.1" width="100%" height="100%">
<style type="text/css"><![CDATA[
  .stroke { fill:none; stroke:black; stroke-width:2 }
]]></style>
<path class="stroke" d="M 50.312496 6.9221409 L 50.312496 13.705595366666666" />
<path class="stroke" d="M 14.233576 13.705595366666666 L 14.233576 21.97810193333333" />
<path class="stroke" d="M 14.233576 13.705595366666666 L 86.05839 13.705595366666666 L 86.05839 21.97810193333333" />
<path class="stroke" d="M 38.46715 19.330898766666667 C 35.547443 25.121652966666666 27.956203 30.581507266666666 19.197079 32.5669095" />
<path class="stroke" d="M 60.40019 18.3381985 L 60.40019 25.841372333333332 C 60.65693 28.7615564 63.23729 30.365469 67.96229 30.305855666666666 L 85.93139 30.305912333333335" />
<path class="stroke" d="M 13.154171785714285 43.71683172 C 16.654879285714284 45.0059413 20.15558785714286 46.84752544 23.01980357142857 49.05742554" />
<path class="stroke" d="M 10.926448928571428 58.63366406 C 14.108912142857141 59.738613799999996 17.927864999999997 61.39603934 20.473834285714286 63.6059413" />
<path class="stroke" d="M 10.608203571428572 88.09900719999999 C 11.321795357142857 89.20205912 13.310014285714285 90.73608048 15.629600357142856 90.73608048 C 17.949189642857142 90.73608048 21.110325 82.5742554 23.33804892857143 78.1544552" />
<path class="stroke" d="M 44.27518189 50.806831552 L 86.72481275000001 50.806831552" />
<path class="stroke" d="M 65.5 40.2641163612 L 65.5 64.550011704" />
<path class="stroke" d="M 38.60218871 64.550011704 L 92.2021867 64.550011704" />
<path class="stroke" d="M 44.27518189 78.7665688 L 86.72481275000001 78.7665688" />
<path class="stroke" d="M 65.5 68.629342655 L 65.5 91.9811651" />
<path class="stroke" d="M 38.60218871 91.9811651 L 92.2021867 91.9811651" />
</svg>
