<?xml version="1.0" standalone="no"?>
<!DOCTYPE svg PUBLIC "-//W3C//DTD SVG 1.1//EN" "http://www.w3.org/Graphics/SVG/1.1/DTD/svg11.dtd">
<svg xmlns="http://www.w3.org/2000/svg" version="1.1" width="100%" height="100%">
<style type="text/css"><![CDATA[
  .stroke { fill:none; stroke:black; stroke-width:2 }
]]></style>
<path class="stroke" d="M 8.250825 13.42376246 L 29.838708333333333 13.61290174 C 31.451613333333338 19.67741796 26.61290166666667 34.232254819999994 21.774193333333333 40.599999999999994" />
<path class="stroke" d="M 21.774193333333333 41.509675599999994 C 25.80645 44.8451622 29.032255833333334 49.09032158 30.645160833333332 53.941936999999996 C 32.2580625 56.670963799999996 32.2580625 64.25160790000001 23.655913333333334 67.2838646 L 18.54838666666667 68.19354584" />
<path class="stroke" d="M 10.726071666666666 13.42376246 L 10.726071666666666 87.6930694" />
<path class="stroke" d="M 41.59489025 14.525547 L 93.4051065 14.525547" />
<path class="stroke" d="M 81.25912199999999 14.817516 L 81.25912199999999 83.43065 C 81.25912199999999 86.05839 79.9306546 88.39416 77.65328600000001 88.39416 L 75.75547449999999 88.39416" />
<path class="stroke" d="M 52.11350342 31.09489 L 52.11350342 55.38686" />
<path class="stroke" d="M 52.11350342 31.09489 L 68.662408 31.09489 L 68.662408 55.153284" />
<path class="stroke" d="M 52.11350342 53.518246399999995 L 68.662408 53.518246399999995" />
</svg>
