<?xml version="1.0" standalone="no"?>
<!DOCTYPE svg PUBLIC "-//W3C//DTD SVG 1.1//EN" "http://www.w3.org/Graphics/SVG/1.1/DTD/svg11.dtd">
<svg xmlns="http://www.w3.org/2000/svg" version="1.1" width="100%" height="100%">
<style type="text/css"><![CDATA[
  .stroke { fill:none; stroke:black; stroke-width:2 }
]]></style>
<path class="stroke" d="M 13.154171785714285 14.059406 C 16.654879285714284 16.138615 20.15558785714286 19.108912 23.01980357142857 22.673267" />
<path class="stroke" d="M 10.926448928571428 38.118813 C 14.108912142857141 39.90099 17.927864999999997 42.574257 20.473834285714286 46.138615" />
<path class="stroke" d="M 10.608203571428572 85.64356 C 11.321795357142857 87.422676 13.310014285714285 89.896904 15.629600357142856 89.896904 C 17.949189642857142 89.896904 21.110325 76.73267 23.33804892857143 69.60396" />
<path class="stroke" d="M 48.053465200000005 20.22630907142857 L 70.9128718 20.22630907142857" />
<path class="stroke" d="M 59.70297144 9.193776428571429 L 59.70297144 34.84441442857143" />
<path class="stroke" d="M 36.62376264 35.00446857142857 L 89.37623439999999 35.00446857142857" />
<path class="stroke" d="M 79.48515019999999 14.985856785714288 C 68.49504981999999 37.87836 52.00990036 52.22065178571429 34.42574286 58.84017285714286" />
<path class="stroke" d="M 49.5438813216 52.11021855 L 49.5438813216 89.6343024" />
<path class="stroke" d="M 49.5438813216 52.11021855 L 76.30055279999999 52.11021855 L 76.30055279999999 89.6343024" />
<path class="stroke" d="M 49.699444536 69.85007793 L 76.14499118399999 69.85007793" />
<path class="stroke" d="M 49.5438813216 87.99634764 L 76.30055279999999 87.99634764" />
</svg>
