<?xml version="1.0" standalone="no"?>
<!DOCTYPE svg PUBLIC "-//W3C//DTD SVG 1.1//EN" "http://www.w3.org/Graphics/SVG/1.1/DTD/svg11.dtd">
<svg xmlns="http://www.w3.org/2000/svg" version="1.1" width="100%" height="100%">
<style type="text/css"><![CDATA[
  .stroke { fill:none; stroke:black; stroke-width:2 }
]]></style>
<path class="stroke" d="M 34.795555 9.1356448 C 29.327457 20.6098504 17.865957 32.6392744 6.088847 38.0063064" />
<path class="stroke" d="M 8.927965 11.078869599999999 C 20.494785 19.592016 30.168785 33.10204 30.063585 58.271272 L 30.063585 72.151424 C 30.484184 79.369096 28.065784 88.530072 19.653484 88.252432 L 14.445285 88.252432" />
<path class="stroke" d="M 26.593515 34.119900799999996 C 26.698715 47.537348800000004 16.078215 59.289132800000004 6.088855 62.9905008" />
<path class="stroke" d="M 52.9673266 20.22630907142857 L 73.6643569 20.22630907142857" />
<path class="stroke" d="M 63.514852520000005 9.193776428571429 L 63.514852520000005 34.84441442857143" />
<path class="stroke" d="M 42.61881212 35.00446857142857 L 90.3811852 35.00446857142857" />
<path class="stroke" d="M 81.4257441 14.985856785714288 C 71.47524781 37.87836 56.54950438 52.22065178571429 40.62871313 58.84017285714286" />
<path class="stroke" d="M 54.3167574128 52.11021855 L 54.3167574128 89.6343024" />
<path class="stroke" d="M 54.3167574128 52.11021855 L 78.54239239999998 52.11021855 L 78.54239239999998 89.6343024" />
<path class="stroke" d="M 54.457605188 69.85007793 L 78.401546072 69.85007793" />
<path class="stroke" d="M 54.3167574128 87.99634764 L 78.54239239999998 87.99634764" />
</svg>
