<?xml version="1.0" standalone="no"?>
<!DOCTYPE svg PUBLIC "-//W3C//DTD SVG 1.1//EN" "http://www.w3.org/Graphics/SVG/1.1/DTD/svg11.dtd">
<svg xmlns="http://www.w3.org/2000/svg" version="1.1" width="100%" height="100%">
<style type="text/css"><![CDATA[
  .stroke { fill:none; stroke:black; stroke-width:2 }
]]></style>
<path class="stroke" d="M 23.83065568 7.8284668 C 22.14890272 12.0036488 19.626275200000002 15.697080300000001 15.98248048 19.0693415" />
<path class="stroke" d="M 19.906568319999998 15.054743550000001 L 46.81459552 15.054743550000001" />
<path class="stroke" d="M 13.45985248 27.2591231 L 48.216054400000004 27.2591231" />
<path class="stroke" d="M 30.557660799999997 15.054743550000001 C 30.557660799999997 19.872262300000003 30.557660799999997 23.886859150000003 30.557660799999997 27.419705500000003 C 30.557660799999997 38.339411000000005 23.83065568 43.95985000000001 14.02043776 48.295615500000004" />
<path class="stroke" d="M 31.39854016 36.091242 C 38.12554528 38.178827500000004 41.48905024 41.87226230000001 45.69342688 48.295615500000004" />
<path class="stroke" d="M 57.79416016 21.456824262500003 L 57.79416016 47.843976675" />
<path class="stroke" d="M 57.79416016 21.456824262500003 L 88.34598399999999 21.456824262500003 L 88.34598399999999 47.59025474500001" />
<path class="stroke" d="M 57.79416016 45.81419515200001 L 88.34598399999999 45.81419515200001" />
<path class="stroke" d="M 24.744522 59.55255435 L 24.744522 94.1335728" />
<path class="stroke" d="M 24.744522 59.55255435 L 74.9635 59.55255435 L 74.9635 94.1335728" />
<path class="stroke" d="M 25.036495 75.90105220999999 L 74.67153 75.90105220999999" />
<path class="stroke" d="M 24.744522 92.62408507999999 L 74.9635 92.62408507999999" />
</svg>
