<?xml version="1.0" standalone="no"?>
<!DOCTYPE svg PUBLIC "-//W3C//DTD SVG 1.1//EN" "http://www.w3.org/Graphics/SVG/1.1/DTD/svg11.dtd">
<svg xmlns="http://www.w3.org/2000/svg" version="1.1" width="100%" height="100%">
<style type="text/css"><![CDATA[
  .stroke { fill:none; stroke:black; stroke-width:2 }
]]></style>
<path class="stroke" d="M 27.28702 7.960562771084337 C 30.86222 10.569085662650602 33.49102 14.25706518072289 34.85802 17.675073614457833" />
<path class="stroke" d="M 71.45113 7.960562771084337 C 69.76863 12.368037469879518 67.45533 14.886655542168674 64.19553 17.675159156626506" />
<path class="stroke" d="M 16.24608 22.262546144578312 L 85.01578 22.262546144578312" />
<path class="stroke" d="M 8.044165 36.564520963855415 L 92.586716 36.564520963855415" />
<path class="stroke" d="M 51.2618 6.071603493975903 C 49.369 32.96649759036144 31.7035 52.57558554216867 8.04416 64.89870481927711" />
<path class="stroke" d="M 53.7855 22.53240602409638 C 59.674 40.79215180722891 73.7644 56.08358433734939 92.5868 64.89870481927711" />
<path class="stroke" d="M 48.99056 59.061518 L 48.99056 88.440013 C 49.07464 91.046715 47.644560000000006 92.38537500000001 44.70032 92.244474 L 42.681360000000005 92.244474" />
<path class="stroke" d="M 26.782288 64.13407459999999 C 31.240768000000003 66.1771056 34.185007999999996 68.85435860000001 37.129328 72.3768836" />
<path class="stroke" d="M 17.949504 89.496804 C 25.26816 85.199223 31.82968 82.16981799999999 40.66248 79.140346" />
<path class="stroke" d="M 72.2082 64.76814920000001 C 69.01148 68.4317092 65.56252 70.8270262 61.60876 73.0110252" />
<path class="stroke" d="M 58.328112000000004 78.5062781 C 64.38483199999999 83.08566110000001 70.946352 86.8196381 78.012592 90.3422971" />
</svg>
