<?xml version="1.0" standalone="no"?>
<!DOCTYPE svg PUBLIC "-//W3C//DTD SVG 1.1//EN" "http://www.w3.org/Graphics/SVG/1.1/DTD/svg11.dtd">
<svg xmlns="http://www.w3.org/2000/svg" version="1.1" width="100%" height="100%">
<style type="text/css"><![CDATA[
  .stroke { fill:none; stroke:black; stroke-width:2 }
]]></style>
<path class="stroke" d="M 12.28759108 9.854013 L 12.2671144 55.63759 C 9.66577158 80.20134 9.66577158 79.39597 6.75838892 89.865776" />
<path class="stroke" d="M 12.28759108 9.854013 L 27.8204384 9.854013 L 27.8204384 86.05839 C 27.8204384 88.39416 27.3766402 90.43795 26.26715192 90.43795 L 25.046715799999998 90.43795" />
<path class="stroke" d="M 12.28759108 31.862577 L 27.8204384 31.862577" />
<path class="stroke" d="M 12.28759108 55.110336 L 27.8204384 55.110336" />
<path class="stroke" d="M 49.2823034 11.403323377108434 C 51.677687399999996 13.82924966626506 53.4389834 17.259070618072286 54.3548734 20.437818461445787" />
<path class="stroke" d="M 78.87225710000001 11.403323377108434 C 77.7449821 15.502274846987952 76.1950711 17.84458965421687 74.0110051 20.43789801566265" />
<path class="stroke" d="M 41.8848736 24.70416791445783 L 87.9605726 24.70416791445783" />
<path class="stroke" d="M 36.38959055 38.00500449638554 L 93.03309972 38.00500449638554" />
<path class="stroke" d="M 65.345406 9.646591249397591 C 64.07723 34.65884275903615 52.241344999999995 52.89529455421686 36.3895872 64.35579548192771" />
<path class="stroke" d="M 67.03628499999999 24.955137602409636 C 70.98158000000001 41.93670118072289 80.42214799999999 56.15773343373494 93.03315599999999 64.35579548192771" />
<path class="stroke" d="M 63.823675200000004 58.927211740000004 L 63.823675200000004 86.24921209 C 63.880008800000006 88.67344495 62.92185520000001 89.91839875000001 60.9492144 89.78736082 L 59.59651120000001 89.78736082" />
<path class="stroke" d="M 48.944132960000005 63.644689377999995 C 51.931314560000004 65.544708208 53.90395536 68.03455349800001 55.87664976000001 71.31050174800001" />
<path class="stroke" d="M 43.02616768 87.23202772 C 47.9296672 83.23527739000001 52.3258856 80.41793074 58.2438616 77.60052178" />
<path class="stroke" d="M 79.37949400000001 64.23437875600001 C 77.2376916 67.64148955600001 74.92688840000001 69.86913436600001 72.2778692 71.90025343600001" />
<path class="stroke" d="M 70.07983504 77.010838633 C 74.13783744 81.26966482300001 78.53405584000001 84.742263433 83.26843664 88.018336303" />
</svg>
