<?xml version="1.0" standalone="no"?>
<!DOCTYPE svg PUBLIC "-//W3C//DTD SVG 1.1//EN" "http://www.w3.org/Graphics/SVG/1.1/DTD/svg11.dtd">
<svg xmlns="http://www.w3.org/2000/svg" version="1.1" width="100%" height="100%">
<style type="text/css"><![CDATA[
  .stroke { fill:none; stroke:black; stroke-width:2 }
]]></style>
<path class="stroke" d="M 13.154171785714285 14.059406 C 16.654879285714284 16.138615 20.15558785714286 19.108912 23.01980357142857 22.673267" />
<path class="stroke" d="M 10.926448928571428 38.118813 C 14.108912142857141 39.90099 17.927864999999997 42.574257 20.473834285714286 46.138615" />
<path class="stroke" d="M 10.608203571428572 85.64356 C 11.321795357142857 87.422676 13.310014285714285 89.896904 15.629600357142856 89.896904 C 17.949189642857142 89.896904 21.110325 76.73267 23.33804892857143 69.60396" />
<path class="stroke" d="M 32.6798077 17.36824637727273 L 92.75551329999999 17.36824637727273" />
<path class="stroke" d="M 38.12144233 29.051654318181818 L 38.12144233 57.96798040909091" />
<path class="stroke" d="M 38.12144233 29.051561727272727 L 87.74920864 29.051561727272727 L 87.74920864 57.96798040909091" />
<path class="stroke" d="M 54.2287285 8.313568418181818 L 54.2287285 57.383824363636364" />
<path class="stroke" d="M 71.20664356 8.021481136363638 L 71.20664356 57.67585609090909" />
<path class="stroke" d="M 38.556763329999995 43.07167718181818 L 87.53151639999999 43.07167718181818" />
<path class="stroke" d="M 38.12144233 57.96798040909091 L 87.53151639999999 57.96798040909091" />
<path class="stroke" d="M 45.073720179999995 68.34747419199999 L 45.073720179999995 91.185661696" />
<path class="stroke" d="M 45.073720179999995 68.34747419199999 L 79.72481499999999 68.34747419199999 L 79.72481499999999 91.185661696" />
<path class="stroke" d="M 45.27518155 79.1444395872 L 79.5233557 79.1444395872" />
<path class="stroke" d="M 45.073720179999995 90.18875746559999 L 79.72481499999999 90.18875746559999" />
</svg>
