<?xml version="1.0" standalone="no"?>
<!DOCTYPE svg PUBLIC "-//W3C//DTD SVG 1.1//EN" "http://www.w3.org/Graphics/SVG/1.1/DTD/svg11.dtd">
<svg xmlns="http://www.w3.org/2000/svg" version="1.1" width="100%" height="100%">
<style type="text/css"><![CDATA[
  .stroke { fill:none; stroke:black; stroke-width:2 }
]]></style>
<path class="stroke" d="M 21.135134 8.9339335 C 18.799368 16.37918833333333 13.449989 26.17800911111111 8.486486 29.76276133333333" />
<path class="stroke" d="M 18.216215 16.897897055555557 L 47.226276 17.027573999999998" />
<path class="stroke" d="M 26.0 17.204203055555553 C 30.08759 21.61620738888889 30.6376 20.08169388888889 31.513512 26.69969661111111" />
<path class="stroke" d="M 65.32846 8.755068944444444 C 63.284668 17.85482327777778 60.07299 21.715326833333336 57.44525 24.472828833333335" />
<path class="stroke" d="M 62.9927 17.30332438888889 L 89.24324 17.510509055555556" />
<path class="stroke" d="M 72.62773 17.85482327777778 C 74.97297 22.41141072222222 74.64864 21.492491777777776 76.918915 26.087085555555554" />
<path class="stroke" d="M 9.07885968 55.5110144 L 91.51422579999999 55.5110144" />
<path class="stroke" d="M 49.406954 37.34069568 L 49.406954 75.9021824" />
<path class="stroke" d="M 72.536312 37.34068928 L 72.536312 75.9021824" />
<path class="stroke" d="M 49.406954 75.9021824 L 72.536312 75.9021824" />
<path class="stroke" d="M 27.167212 37.3406912 L 27.167212 92.86118400000001 L 85.58360599999999 92.86118400000001" />
</svg>
