<?xml version="1.0" standalone="no"?>
<!DOCTYPE svg PUBLIC "-//W3C//DTD SVG 1.1//EN" "http://www.w3.org/Graphics/SVG/1.1/DTD/svg11.dtd">
<svg xmlns="http://www.w3.org/2000/svg" version="1.1" width="100%" height="100%">
<style type="text/css"><![CDATA[
  .stroke { fill:none; stroke:black; stroke-width:2 }
]]></style>
<path class="stroke" d="M 21.135134 7.882882500000001 C 18.799368 14.452224999999999 13.449989 23.098243333333333 8.486486 26.26126" />
<path class="stroke" d="M 18.216215 14.909909166666669 L 47.226276 15.024329999999999" />
<path class="stroke" d="M 26.0 15.180179166666665 C 30.08759 19.073124166666666 30.6376 17.719141666666665 31.513512 23.558555833333333" />
<path class="stroke" d="M 65.32846 7.725060833333334 C 63.284668 15.754255833333335 60.07299 19.160582500000004 57.44525 21.593672500000004" />
<path class="stroke" d="M 62.9927 15.267639166666667 L 89.24324 15.450449166666667" />
<path class="stroke" d="M 72.62773 15.754255833333335 C 74.97297 19.774774166666667 74.64864 18.963963333333332 76.918915 23.018016666666668" />
<path class="stroke" d="M 50.0 29.2846712 L 50.0 41.6642336" />
<path class="stroke" d="M 16.594593 42.6162136 L 83.72973 42.6162136" />
<path class="stroke" d="M 26.788319 52.40876 C 32.627735 60.8175168 37.007298 71.795616 39.343063 82.540144" />
<path class="stroke" d="M 74.087585 50.540144 C 67.08029 59.18248 61.240875 72.496352 59.78102 86.27736800000001" />
<path class="stroke" d="M 11.313868 88.613136 L 88.10219 88.613136" />
</svg>
