<?xml version="1.0" standalone="no"?>
<!DOCTYPE svg PUBLIC "-//W3C//DTD SVG 1.1//EN" "http://www.w3.org/Graphics/SVG/1.1/DTD/svg11.dtd">
<svg xmlns="http://www.w3.org/2000/svg" version="1.1" width="100%" height="100%">
<style type="text/css"><![CDATA[
  .stroke { fill:none; stroke:black; stroke-width:2 }
]]></style>
<path class="stroke" d="M 49.3138644 10.25766325 C 40.554744 12.40364912 30.043794 13.83430604 20.583940799999997 14.69270029" />
<path class="stroke" d="M 13.2262752 25.136494629999998 L 54.218976 23.27664083" />
<path class="stroke" d="M 36.0 13.11897758 L 36.0 47.45474366" />
<path class="stroke" d="M 36.0 26.996348429999998 C 27.9416064 33.00510817999999 21.28467 36.8678801 12.175182 38.584671539999995" />
<path class="stroke" d="M 36.0 26.996348429999998 C 43.3576632 28.71313693 47.5620396 30.14379434 51.065688 32.57590983" />
<path class="stroke" d="M 68.15926499999999 10.951099 L 68.15926499999999 38.619879999999995" />
<path class="stroke" d="M 85.93527499999999 8.3233417 L 85.93527499999999 46.194006 C 86.056255 48.924825 82.18661999999999 50.26448499999999 77.59145 50.212937 L 73.60095 50.212937" />
<path class="stroke" d="M 11.021896 59.489044 L 88.68613 59.489044" />
<path class="stroke" d="M 50.14598 51.897808 L 50.14598 89.61644" />
<path class="stroke" d="M 47.226276 61.824814 C 35.547443 72.33576 23.576641 80.21897 13.065693 84.59853" />
<path class="stroke" d="M 53.06569 61.824814 C 64.16058 72.9197 75.54744 79.927 86.642334 84.59853" />
</svg>
