<?xml version="1.0" standalone="no"?>
<!DOCTYPE svg PUBLIC "-//W3C//DTD SVG 1.1//EN" "http://www.w3.org/Graphics/SVG/1.1/DTD/svg11.dtd">
<svg xmlns="http://www.w3.org/2000/svg" version="1.1" width="100%" height="100%">
<style type="text/css"><![CDATA[
  .stroke { fill:none; stroke:black; stroke-width:2 }
]]></style>
<path class="stroke" d="M 10.67080278 9.854013 L 10.6530204 55.63759 C 8.39395953 80.20134 8.39395953 79.39597 5.86912722 89.865776" />
<path class="stroke" d="M 10.67080278 9.854013 L 24.1598544 9.854013 L 24.1598544 86.05839 C 24.1598544 88.39416 23.774450700000003 90.43795 22.81094772 90.43795 L 21.7510953 90.43795" />
<path class="stroke" d="M 10.67080278 31.862577 L 24.1598544 31.862577" />
<path class="stroke" d="M 10.67080278 55.110336 L 24.1598544 55.110336" />
<path class="stroke" d="M 48.048757024 18.2972988868 L 82.7909448 17.2214450672 C 81.9267136 32.552363148 79.33401408 40.755750479999996 78.469780512 42.504013052 C 77.43269656000001 43.983311017599995 75.35853872 44.386757006 73.6300704 44.521238388 L 71.90160208 44.386757006" />
<path class="stroke" d="M 65.16058096 7.8077225336 C 63.08642016 22.8696773898 56.345399040000004 38.200597312999996 45.456057504 42.504013052" />
<path class="stroke" d="M 37.1923636772 64.3538682064 L 58.47195369 63.21214578559999 C 57.94261208 79.481691504 56.354583624 88.18732704 55.825240563600005 90.04262609599999 C 55.190026642999996 91.61249332479998 53.919604966 92.040640088 52.86091812 92.183355024 L 51.802231274 92.040640088" />
<path class="stroke" d="M 47.673355838 53.2220728928 C 46.402932348 69.20618825039999 42.274056912000006 85.475735924 35.6043352212 90.04262609599999" />
<path class="stroke" d="M 69.3785826028 63.72605797959999 L 91.52672731 62.562379358399994 C 90.97577992 79.144800956 89.322933976 88.01785256 88.7719850764 89.90883044399999 C 88.11084405700001 91.5088874272 86.788568434 91.945267782 85.68666987999998 92.09072723599999 L 84.58477132600001 91.945267782" />
<path class="stroke" d="M 80.28737036199999 52.3801896792 C 78.965092852 68.6716918706 74.66769188800001 85.254115461 67.7257366588 89.90883044399999" />
</svg>
