<?xml version="1.0" standalone="no"?>
<!DOCTYPE svg PUBLIC "-//W3C//DTD SVG 1.1//EN" "http://www.w3.org/Graphics/SVG/1.1/DTD/svg11.dtd">
<svg xmlns="http://www.w3.org/2000/svg" version="1.1" width="100%" height="100%">
<style type="text/css"><![CDATA[
  .stroke { fill:none; stroke:black; stroke-width:2 }
]]></style>
<path class="stroke" d="M 25.912407 10.729925 C 21.824816 18.029196 16.27737 23.86861 11.021896 28.540146 C 15.109488 31.45985 20.07299 36.131386 24.744522 40.218975" />
<path class="stroke" d="M 37.007298 25.912407 C 30.0 34.67153 20.656933 45.18248 8.978102 56.277367 C 19.48905 54.525543 31.167881 52.48175 41.67883 50.437954" />
<path class="stroke" d="M 38.17518 43.430653 C 41.094887 46.642334 41.970802 49.85401 43.722626 55.40146" />
<path class="stroke" d="M 26.49635 54.233574 L 26.49635 89.56204" />
<path class="stroke" d="M 17.445253 65.03649 C 15.69343 70.87591 13.649633 74.67153 9.562042 78.75912" />
<path class="stroke" d="M 34.08759 65.32846 C 37.299267 68.540146 37.35135 68.81081 38.97297 71.72973" />
<path class="stroke" d="M 94.70817500000001 7.72871 C 80.24972 18.5594 64.57675499999999 21.5036 49.250785 24.1324" />
<path class="stroke" d="M 53.9353319 34.5426 L 53.9353319 67.6656 L 89.156178 67.6656" />
<path class="stroke" d="M 89.156178 35.489 L 89.156178 67.6656" />
<path class="stroke" d="M 71.63254 6.78233 L 71.63254 87.5394 C 71.45901500000001 91.7455 73.02052 94.3743 74.75555 94.4795 L 92.9732 94.4795 C 94.93956 94.3743 96.21187499999999 92.3764 96.269735 88.4858 L 96.269735 83.123" />
</svg>
