<?xml version="1.0" standalone="no"?>
<!DOCTYPE svg PUBLIC "-//W3C//DTD SVG 1.1//EN" "http://www.w3.org/Graphics/SVG/1.1/DTD/svg11.dtd">
<svg xmlns="http://www.w3.org/2000/svg" version="1.1" width="100%" height="100%">
<style type="text/css"><![CDATA[
  .stroke { fill:none; stroke:black; stroke-width:2 }
]]></style>
<path class="stroke" d="M 47.2594152 6.4182477 L 47.2594152 21.5627736" />
<path class="stroke" d="M 18.150363119999998 12.7335756 L 18.150363119999998 22.23722535 M 18.150363119999998 21.5627736 L 75.61021 21.5627736" />
<path class="stroke" d="M 75.61021 12.6722619 L 75.61021 22.29853884" />
<path class="stroke" d="M 20.948904 32.39050975 L 20.948904 78.15693250000001 C 20.948904 85.3832125 15.401459 89.324815 9.562042 93.04744000000001" />
<path class="stroke" d="M 20.948904 32.39050975 L 75.54744 32.39050975 L 75.54744 62.8284655 C 75.54744 79.0328425 81.09489 91.07664249999999 90.43795 92.17152999999999 L 90.43795 82.7554675" />
<path class="stroke" d="M 58.321167 40.2737215 C 53.357662 42.0255475 42.26277 44.43430525 37.007298 44.653282000000004" />
<path class="stroke" d="M 30.29197 55.3832125 L 30.29197 70.0547425" />
<path class="stroke" d="M 30.583939 55.3832125 L 66.20438 55.3832125 L 66.20438 70.0547425" />
<path class="stroke" d="M 30.583939 70.0547425 L 66.20438 70.0547425" />
<path class="stroke" d="M 48.107243 43.120437249999995 L 48.107243 84.06934" />
<path class="stroke" d="M 29.124084 88.66787500000001 C 40.218975 85.8211675 56.861313 84.06934 68.540146 83.631385" />
<path class="stroke" d="M 63.576637 77.5 C 67.37226 80.78466625 69.70802 84.94525 71.75182 89.1058375" />
</svg>
