<?xml version="1.0" standalone="no"?>
<!DOCTYPE svg PUBLIC "-//W3C//DTD SVG 1.1//EN" "http://www.w3.org/Graphics/SVG/1.1/DTD/svg11.dtd">
<svg xmlns="http://www.w3.org/2000/svg" version="1.1" width="100%" height="100%">
<style type="text/css"><![CDATA[
  .stroke { fill:none; stroke:black; stroke-width:2 }
]]></style>
<path class="stroke" d="M 7.7956199999999995 27.080292 L 7.7956199999999995 59.489044" />
<path class="stroke" d="M 7.7956199999999995 27.372261 L 32.43795600000001 27.372261 L 32.43795600000001 59.78102" />
<path class="stroke" d="M 7.7956199999999995 55.773968 L 32.43795600000001 55.773968" />
<path class="stroke" d="M 19.995996 8.394159 L 19.995996 86.642334" />
<path class="stroke" d="M 6.978101200000001 91.0219 L 32.5547424 82.55474" />
<path class="stroke" d="M 30.218975999999998 73.21168 C 32.20438 78.46715 33.255472 84.306564 33.9562 91.0219" />
<path class="stroke" d="M 41.5452338368 21.5315262 L 90.164560408 21.5315262" />
<path class="stroke" d="M 65.33022904 8.18769839 L 65.33022904 36.506290199999995" />
<path class="stroke" d="M 78.97162912000002 8.18769369 L 78.97162912000002 36.506290199999995" />
<path class="stroke" d="M 65.33022904 36.506290199999995 L 78.97162912000002 36.506290199999995" />
<path class="stroke" d="M 52.21351312 8.1876951 L 52.21351312 48.960557 L 86.66675656 48.960557" />
<path class="stroke" d="M 41.27445136 59.489044 L 92.5328458 59.489044" />
<path class="stroke" d="M 67.09634679999999 51.897808 L 67.09634679999999 89.61644" />
<path class="stroke" d="M 65.16934216 61.824814 C 57.46131238 72.33576 49.56058306 80.21897 42.62335738 84.59853" />
<path class="stroke" d="M 69.0233554 61.824814 C 76.3459828 72.9197 83.86131040000001 79.927 91.18394044000001 84.59853" />
</svg>
