<?xml version="1.0" standalone="no"?>
<!DOCTYPE svg PUBLIC "-//W3C//DTD SVG 1.1//EN" "http://www.w3.org/Graphics/SVG/1.1/DTD/svg11.dtd">
<svg xmlns="http://www.w3.org/2000/svg" version="1.1" width="100%" height="100%">
<style type="text/css"><![CDATA[
  .stroke { fill:none; stroke:black; stroke-width:2 }
]]></style>
<path class="stroke" d="M 10.437956 27.956203 L 33.211678 27.956203" />
<path class="stroke" d="M 23.86861 9.270073 L 23.86861 90.14598" />
<path class="stroke" d="M 23.86861 36.131386 C 20.07299 44.598537 15.401459 52.48175 8.686131 56.861313" />
<path class="stroke" d="M 23.86861 36.131386 C 28.248173 37.299267 31.167881 42.26277 32.627735 46.934303" />
<path class="stroke" d="M 43.569925484 9.854013 L 87.16933976000001 9.854013" />
<path class="stroke" d="M 43.391240456000006 9.854013 L 43.391240456000006 31.167881 C 43.391240456000006 74.67153 41.068319792 81.386856 38.241187628 90.09901" />
<path class="stroke" d="M 50.960583072000006 27.8430648 L 94.16291536 27.8430648" />
<path class="stroke" d="M 69.54393968000001 43.726276999999996 L 86.53897568 43.726276999999996 C 85.744815104 69.04014145 81.93284336 77.72627359999998 80.344522208 81.6970775 C 78.7562016 84.67518 76.214887648 90.135036 74.30890368 88.894155 L 72.561750848 87.6532825" />
<path class="stroke" d="M 70.97342969600001 27.8430648 C 70.65576416 48.937955099999996 61.28467056 74.996349 52.231239776 86.1642321" />
</svg>
