<?xml version="1.0" standalone="no"?>
<!DOCTYPE svg PUBLIC "-//W3C//DTD SVG 1.1//EN" "http://www.w3.org/Graphics/SVG/1.1/DTD/svg11.dtd">
<svg xmlns="http://www.w3.org/2000/svg" version="1.1" width="100%" height="100%">
<style type="text/css"><![CDATA[
  .stroke { fill:none; stroke:black; stroke-width:2 }
]]></style>
<path class="stroke" d="M 25.89276 7.29968 C 20.891744 19.110367999999998 14.85597 31.526816 7.0094638 40.914848" />
<path class="stroke" d="M 25.89276 7.6025216 C 30.893776000000003 13.356416 34.342777999999996 19.716127999999998 38.050489999999996 26.075744" />
<path class="stroke" d="M 12.958981999999999 34.2523904 L 35.981055999999995 34.2523904" />
<path class="stroke" d="M 8.5615147 51.5141504 L 39.08515534 51.5141504" />
<path class="stroke" d="M 25.37537526 34.555232000000004 L 25.37537526 86.64348799999999" />
<path class="stroke" d="M 8.3028416 61.205119999999994 C 11.838042 65.24288 14.59726 69.583616 17.356478 74.22713599999999" />
<path class="stroke" d="M 38.3092 61.205024 C 36.412212 66.757088 33.739176 71.40060799999999 30.290174 76.044224" />
<path class="stroke" d="M 9.596211199999999 92.70032 L 38.050489999999996 82.403744" />
<path class="stroke" d="M 67.635034 7.63759037 C 67.48231 10.36161615 63.830709999999996 13.52216715 60.55177 13.62702415" />
<path class="stroke" d="M 52.919707 13.726641695 L 52.919707 47.1456215" />
<path class="stroke" d="M 52.919707 13.627458225 L 87.4306564 13.627458225 L 87.4306564 47.1456215" />
<path class="stroke" d="M 52.919707 29.368831625 L 87.4306564 29.368831625" />
<path class="stroke" d="M 52.919707 45.6914266 L 87.4306564 45.6914266" />
<path class="stroke" d="M 50.642335 57.181224350399994 L 50.642335 80.49520973599999" />
<path class="stroke" d="M 50.642335 57.181224350399994 L 89.70802599999999 57.181224350399994 L 89.70802599999999 79.226419472 C 89.70802599999999 81.605396464 88.131382 83.03278483199999 86.37955600000001 83.191382936 L 84.802918 83.191382936" />
<path class="stroke" d="M 70.087588 49.092699861599996 L 70.087588 92.70729633599998" />
</svg>
