<?xml version="1.0" standalone="no"?>
<!DOCTYPE svg PUBLIC "-//W3C//DTD SVG 1.1//EN" "http://www.w3.org/Graphics/SVG/1.1/DTD/svg11.dtd">
<svg xmlns="http://www.w3.org/2000/svg" version="1.1" width="100%" height="100%">
<style type="text/css"><![CDATA[
  .stroke { fill:none; stroke:black; stroke-width:2 }
]]></style>
<path class="stroke" d="M 7.449634499999999 24.744522 L 7.449634499999999 67.66423" />
<path class="stroke" d="M 7.449634499999999 24.744522 L 34.7956182 24.744522 L 34.7956182 65.32846 C 34.7956182 69.70802 33.691967399999996 72.33576 32.4656892 72.62773 L 31.362042600000002 72.62773" />
<path class="stroke" d="M 21.0613116 9.854013 L 21.0613116 90.14598" />
<path class="stroke" d="M 49.57882974 6.9249412485 L 49.57882974 38.246514768000004" />
<path class="stroke" d="M 49.57882974 6.9249412485 L 83.22554500000001 6.9249412485 L 83.22554500000001 38.246514768000004" />
<path class="stroke" d="M 49.77445165 21.732506225099996 L 83.02992510000001 21.732506225099996" />
<path class="stroke" d="M 49.57882974 36.8793042948 L 83.22554500000001 36.8793042948" />
<path class="stroke" d="M 66.59780660000001 41.698509811200005 L 66.59780660000001 62.417691072000004" />
<path class="stroke" d="M 47.42700615 45.7683500736 C 50.7525545 48.5432399232 52.70875886 51.133137580799996 54.0780995 55.3879694016" />
<path class="stroke" d="M 83.8124047 46.1383350912 C 82.83430185 50.2081740864 80.6824796 52.798073011199996 77.55255182 55.202977843199996" />
<path class="stroke" d="M 44.29707971 62.32317696 L 88.7029156 62.32317696" />
<path class="stroke" d="M 60.33795439000001 65.7475606656 C 58.3817507 77.587095168 51.535034100000004 87.76169107199999 43.9058379 91.091556864" />
<path class="stroke" d="M 69.53211381 65.932552224 L 69.53211381 88.31666764799999 C 69.53211381 91.091556864 71.29269894000001 92.386508544 74.03138625 92.386508544 L 90.65912130000001 92.386508544 C 92.02846729999999 92.386508544 93.2021867 91.276549056 93.2021867 90.16659590399999 L 93.2021867 87.946683264" />
</svg>
