<?xml version="1.0" standalone="no"?>
<!DOCTYPE svg PUBLIC "-//W3C//DTD SVG 1.1//EN" "http://www.w3.org/Graphics/SVG/1.1/DTD/svg11.dtd">
<svg xmlns="http://www.w3.org/2000/svg" version="1.1" width="100%" height="100%">
<style type="text/css"><![CDATA[
  .stroke { fill:none; stroke:black; stroke-width:2 }
]]></style>
<path class="stroke" d="M 41.144999375 8.3107236 C 34.993389125 20.1760953 22.099201625000003 32.6156133 8.849952875 38.1656123" />
<path class="stroke" d="M 12.043960625 10.3201947 C 25.056633125 19.123562 35.939883125 33.094155 35.821533125 59.121429 L 35.821533125 73.474768 C 36.294707 80.938497 33.574007 90.411779 24.110169499999998 90.124674 L 18.250945625 90.124674" />
<path class="stroke" d="M 31.917704375 34.1467156 C 32.036054375 48.0215766 20.087991875 60.173989600000006 8.849961875 64.0015406" />
<path class="stroke" d="M 56.9246072 29.267014 C 56.145548680000005 34.921463 53.80837746 39.633507 50.8869108 44.659683" />
<path class="stroke" d="M 88.9599638 29.638018 C 87.01167828000001 35.839413 84.6583914 39.927006 81.94306420000001 43.430653" />
<path class="stroke" d="M 68.21768399999999 9.854013 C 68.34807 19.654236 68.282846 27.574736 68.21768399999999 39.815773 C 68.40957399999999 66.78016 53.168796 89.5996 43.92846604 90.43795" />
<path class="stroke" d="M 68.26336684 43.168316 C 70.30323999999999 63.16797 84.030288 85.15541 90.0890489 89.270065 C 91.5372232 90.43795 92.6233578 90.72992 94.2525504 91.0219" />
</svg>
