<?xml version="1.0" standalone="no"?>
<!DOCTYPE svg PUBLIC "-//W3C//DTD SVG 1.1//EN" "http://www.w3.org/Graphics/SVG/1.1/DTD/svg11.dtd">
<svg xmlns="http://www.w3.org/2000/svg" version="1.1" width="100%" height="100%">
<style type="text/css"><![CDATA[
  .stroke { fill:none; stroke:black; stroke-width:2 }
]]></style>
<path class="stroke" d="M 12.189779 10.985401 L 87.81021 10.985401" />
<path class="stroke" d="M 34.67153 5.875911299999999 L 34.67153 16.5036487" />
<path class="stroke" d="M 65.32846 5.875911299999999 L 65.32846 16.5036487" />
<path class="stroke" d="M 40.322099387499996 27.565471644 C 34.2935213425 36.939115287 21.657217592500004 46.766334506999996 8.6729538175 51.150833717" />
<path class="stroke" d="M 11.803081412500001 29.152953813 C 24.5555004625 36.107613979999996 35.2210854625 47.14438245 35.1051024625 67.70592891000001 L 35.1051024625 79.04506672 C 35.56881286 84.94141263 32.90252686 92.42530540999999 23.62796611 92.19849246 L 17.885926712499998 92.19849246" />
<path class="stroke" d="M 31.279350287499998 47.975905324 C 31.395333287499998 58.937045514000005 19.686232037499998 68.53745178400001 8.6729626375 71.561217074" />
<path class="stroke" d="M 55.78611505599999 44.12094106 C 55.022637706400005 48.58795577000001 52.7322099108 52.31047053 49.869172584000005 56.281149570000004" />
<path class="stroke" d="M 87.180764524 44.414034220000005 C 85.2714447144 49.31313627 82.965223572 52.54233474 80.30420291600001 55.31021587" />
<path class="stroke" d="M 66.85333031999998 28.78467027 C 66.9811086 36.52684644 66.91718908 42.78404144 66.85333031999998 52.45446067 C 67.04138251999998 73.7563264 52.10542008 91.783684 43.0498967192 92.4459805" />
<path class="stroke" d="M 66.8980995032 55.10296964 C 68.89717519999999 70.9026963 82.34968223999999 88.2727739 88.287267922 91.52335135 C 89.706478736 92.4459805 90.77089064399999 92.67663680000001 92.367499392 92.907301" />
</svg>
