<?xml version="1.0" standalone="no"?>
<!DOCTYPE svg PUBLIC "-//W3C//DTD SVG 1.1//EN" "http://www.w3.org/Graphics/SVG/1.1/DTD/svg11.dtd">
<svg xmlns="http://www.w3.org/2000/svg" version="1.1" width="100%" height="100%">
<style type="text/css"><![CDATA[
  .stroke { fill:none; stroke:black; stroke-width:2 }
]]></style>
<path class="stroke" d="M 7.3899360000000005 8.64779725 L 20.1887 12.5503225" />
<path class="stroke" d="M 7.3899360000000005 42.966977 L 22.955970000000004 25.6352075" />
<path class="stroke" d="M 43.0248148 5.8029195 C 41.69342932 11.0583935 38.143065 16.3138675 33.70510884 19.963503" />
<path class="stroke" d="M 39.69635072 13.102188 L 84.297808 13.102188 C 83.85401056 17.18978 81.635034 19.963503 77.418972 22.737225" />
<path class="stroke" d="M 60.33284504 15.437956 C 60.33284504 31.204376 46.574144000000004 39.8265 29.48904988 45.07299" />
<path class="stroke" d="M 60.1109448 24.1970785 C 65.21459788 31.9343035 72.7591194 40.109485 90.732842 45.07299" />
<path class="stroke" d="M 45.247524 56.2871285 C 44.059406 64.30693049999999 36.633663 74.1089115 29.504951 78.7128715 C 45.766422 80.47445 68.832115 86.16788 80.51095 93.321167" />
<path class="stroke" d="M 68.71287 65.346535 C 61.287132 82.27723 45.841583 88.66337 22.992699 92.88320999999999" />
<path class="stroke" d="M 9.854013 67.7737215 L 89.85401 67.7737215" />
</svg>
