<?xml version="1.0" standalone="no"?>
<!DOCTYPE svg PUBLIC "-//W3C//DTD SVG 1.1//EN" "http://www.w3.org/Graphics/SVG/1.1/DTD/svg11.dtd">
<svg xmlns="http://www.w3.org/2000/svg" version="1.1" width="100%" height="100%">
<style type="text/css"><![CDATA[
  .stroke { fill:none; stroke:black; stroke-width:2 }
]]></style>
<path class="stroke" d="M 13.154171785714285 14.059406 C 16.654879285714284 16.138615 20.15558785714286 19.108912 23.01980357142857 22.673267" />
<path class="stroke" d="M 10.926448928571428 38.118813 C 14.108912142857141 39.90099 17.927864999999997 42.574257 20.473834285714286 46.138615" />
<path class="stroke" d="M 10.608203571428572 85.64356 C 11.321795357142857 87.422676 13.310014285714285 89.896904 15.629600357142856 89.896904 C 17.949189642857142 89.896904 21.110325 76.73267 23.33804892857143 69.60396" />
<path class="stroke" d="M 34.3328096 28.596204 L 92.244474 28.596204" />
<path class="stroke" d="M 41.518921399999996 53.3280818 L 84.6356324 53.3280818" />
<path class="stroke" d="M 63.288626390000005 7.8832768 L 63.288626390000005 92.8991" />
<path class="stroke" d="M 63.288615 53.328072 C 58.21604500000001 68.167232 47.859654 83.315484 35.3895872 87.64355599999999" />
<path class="stroke" d="M 63.288615 53.328072 C 68.1498 67.858042 78.506325 82.388012 92.455859 87.64355599999999" />
</svg>
