<?xml version="1.0" standalone="no"?>
<!DOCTYPE svg PUBLIC "-//W3C//DTD SVG 1.1//EN" "http://www.w3.org/Graphics/SVG/1.1/DTD/svg11.dtd">
<svg xmlns="http://www.w3.org/2000/svg" version="1.1" width="100%" height="100%">
<style type="text/css"><![CDATA[
  .stroke { fill:none; stroke:black; stroke-width:2 }
]]></style>
<path class="stroke" d="M 10.736183314285713 27.956203 L 34.16058308571428 27.956203" />
<path class="stroke" d="M 24.550570285714283 9.270073 L 24.550570285714283 90.14598" />
<path class="stroke" d="M 24.550570285714283 36.131386 C 20.646504 44.598537 15.841500685714283 52.48175 8.93430617142857 56.861313" />
<path class="stroke" d="M 24.550570285714283 36.131386 C 29.055263657142856 37.299267 32.058391885714286 42.26277 33.559956 46.934303" />
<path class="stroke" d="M 45.252554 10.145985 L 45.252554 90.43795" />
<path class="stroke" d="M 45.252554 10.145985 L 86.747446 10.145985 L 86.747446 86.05839 C 86.747446 88.68613 86.1518204 90.14598 84.36495719999999 90.14598 L 82.37955780000001 90.14598" />
<path class="stroke" d="M 57.02471434598401 25.759999999999998 L 74.9752838784 25.759999999999998" />
<path class="stroke" d="M 55.6600289088 40.72572208 L 55.6600289088 66.76671392" />
<path class="stroke" d="M 55.6600289088 40.72572208 L 76.43526911999999 40.72572208 L 76.43526911999999 66.51632044800002" />
<path class="stroke" d="M 55.6600289088 64.7635601408 L 76.43526911999999 64.7635601408" />
</svg>
