<?xml version="1.0" standalone="no"?>
<!DOCTYPE svg PUBLIC "-//W3C//DTD SVG 1.1//EN" "http://www.w3.org/Graphics/SVG/1.1/DTD/svg11.dtd">
<svg xmlns="http://www.w3.org/2000/svg" version="1.1" width="100%" height="100%">
<style type="text/css"><![CDATA[
  .stroke { fill:none; stroke:black; stroke-width:2 }
]]></style>
<path class="stroke" d="M 10.437956 27.956203 L 33.211678 27.956203" />
<path class="stroke" d="M 23.86861 9.270073 L 23.86861 90.14598" />
<path class="stroke" d="M 23.86861 36.131386 C 20.07299 44.598537 15.401459 52.48175 8.686131 56.861313" />
<path class="stroke" d="M 23.86861 36.131386 C 28.248173 37.299267 31.167881 42.26277 32.627735 46.934303" />
<path class="stroke" d="M 63.92276656 10.800613210526315 L 63.92276656 28.863381578947365" />
<path class="stroke" d="M 47.02411618719999 13.42066794736842 C 49.6336336432 16.993468526315787 50.938393648 20.328082236842103 52.6159390336 25.330002394736844" />
<path class="stroke" d="M 79.82948569599999 13.42066794736842 C 78.71112125440001 19.613521631578944 77.03357459200001 21.995390315789475 74.610450784 25.091817157894738" />
<path class="stroke" d="M 48.57518216 32.99634923 L 48.57518216 69.273719 C 48.57518216 77.3168333 48.57518216 80.69108700000001 48.57518216 88.49406225999999" />
<path class="stroke" d="M 48.57518216 32.99634923 L 79.6408768 32.99634923 L 79.6408768 87.1014569 C 79.6408768 88.7598536 78.7532804 90.2109445 76.53430384 90.2109445 L 74.0934316 90.2109445" />
<path class="stroke" d="M 48.57518216 48.62242967 L 79.6408768 48.62242967" />
<path class="stroke" d="M 48.57518216 65.12833856 L 79.6408768 65.12833856" />
</svg>
