<?xml version="1.0" standalone="no"?>
<!DOCTYPE svg PUBLIC "-//W3C//DTD SVG 1.1//EN" "http://www.w3.org/Graphics/SVG/1.1/DTD/svg11.dtd">
<svg xmlns="http://www.w3.org/2000/svg" version="1.1" width="100%" height="100%">
<style type="text/css"><![CDATA[
  .stroke { fill:none; stroke:black; stroke-width:2 }
]]></style>
<path class="stroke" d="M 20.14160418 9.562042 C 15.88467132 19.48905 13.204378620000002 24.160583 8.789779800000002 28.832115" />
<path class="stroke" d="M 17.46131364 16.27737 L 32.5970784 16.27737 C 32.124083760000005 22.992699 30.232114380000002 27.372261 27.23649516 32.919704" />
<path class="stroke" d="M 15.254013420000001 34.257427 L 15.254013420000001 69.124084" />
<path class="stroke" d="M 15.254013420000001 34.37956 L 38.588319000000006 34.08759 L 38.588319000000006 69.124084" />
<path class="stroke" d="M 27.0788292 34.08759 L 27.0788292 69.124084" />
<path class="stroke" d="M 15.254013420000001 51.313866 L 38.588319000000006 51.313866" />
<path class="stroke" d="M 15.254013420000001 69.124084 L 38.588319000000006 69.124084" />
<path class="stroke" d="M 10.68175134 77.59124 C 10.208757780000001 81.678825 9.26277336 85.47445 8.001458640000001 88.978096" />
<path class="stroke" d="M 18.4072986 78.17518 C 19.668611700000003 81.09489 20.4569334 85.47445 20.929924800000002 89.85401" />
<path class="stroke" d="M 29.28612996 77.88321 C 31.020435000000003 81.09489 32.04840816 85.18248 32.912406000000004 89.85401" />
<path class="stroke" d="M 40.7956176 78.46715 C 42.056933400000005 80.51095 42.1572276 78.290596 42.9455466 82.67016" />
<path class="stroke" d="M 51.43649664 11.683168 L 51.43649664 55.693428" />
<path class="stroke" d="M 51.61751742 11.8297 L 84.56350087999999 11.8297 L 84.56350087999999 55.40146" />
<path class="stroke" d="M 51.43649664 34.542557 L 84.20145932 34.542557" />
<path class="stroke" d="M 51.43649664 55.6782 L 84.56350087999999 55.6782" />
<path class="stroke" d="M 67.80439 11.683168 L 67.80439 90.43795" />
<path class="stroke" d="M 50.1693425 72.62773 L 85.8306544 72.62773" />
<path class="stroke" d="M 43.109488060000004 90.43795 L 93.2525504 90.43795" />
</svg>
