<?xml version="1.0" standalone="no"?>
<!DOCTYPE svg PUBLIC "-//W3C//DTD SVG 1.1//EN" "http://www.w3.org/Graphics/SVG/1.1/DTD/svg11.dtd">
<svg xmlns="http://www.w3.org/2000/svg" version="1.1" width="100%" height="100%">
<style type="text/css"><![CDATA[
  .stroke { fill:none; stroke:black; stroke-width:2 }
]]></style>
<path class="stroke" d="M 21.372262319999997 10.005838520000001 L 21.372262319999997 42.3795588" />
<path class="stroke" d="M 21.372262319999997 9.87737128 L 78.84379104 9.87737128 L 78.84379104 42.3795588" />
<path class="stroke" d="M 50.1080252 10.005838520000001 L 50.1080252 40.067152" />
<path class="stroke" d="M 21.372262319999997 24.96360552 L 78.4116784 24.96360552" />
<path class="stroke" d="M 21.372262319999997 40.067152 L 78.84379104 40.067152" />
<path class="stroke" d="M 47.5036484 43.3868612 C 42.248174 48.2919704 35.678831 52.6715318 29.109487100000003 56.5255472 L 42.63611 64.583" />
<path class="stroke" d="M 62.4817463 53.5474442 C 54.67487 58.96478 40.25417 67.44176 26.481749 75.4452512 L 70.364957 72.2919692" />
<path class="stroke" d="M 66.6861314 66.861314 C 70.102184 69.48904999999999 72.46715 71.9416064 73.255469 75.4452512" />
<path class="stroke" d="M 49.868609000000006 74.04379399999999 L 49.8520553 93.34794439999999" />
<path class="stroke" d="M 24.6423344 81.22627399999999 C 23.3284658 84.204374 21.2262764 86.83211359999999 17.8102184 89.109488" />
<path class="stroke" d="M 73.255469 81.401456 C 76.671527 83.328464 78.77372 85.605836 80.3503634 89.109488" />
</svg>
