<?xml version="1.0" standalone="no"?>
<!DOCTYPE svg PUBLIC "-//W3C//DTD SVG 1.1//EN" "http://www.w3.org/Graphics/SVG/1.1/DTD/svg11.dtd">
<svg xmlns="http://www.w3.org/2000/svg" version="1.1" width="100%" height="100%">
<style type="text/css"><![CDATA[
  .stroke { fill:none; stroke:black; stroke-width:2 }
]]></style>
<path class="stroke" d="M 13.154171785714285 14.059406 C 16.654879285714284 16.138615 20.15558785714286 19.108912 23.01980357142857 22.673267" />
<path class="stroke" d="M 10.926448928571428 38.118813 C 14.108912142857141 39.90099 17.927864999999997 42.574257 20.473834285714286 46.138615" />
<path class="stroke" d="M 10.608203571428572 85.64356 C 11.321795357142857 87.422676 13.310014285714285 89.896904 15.629600357142856 89.896904 C 17.949189642857142 89.896904 21.110325 76.73267 23.33804892857143 69.60396" />
<path class="stroke" d="M 44.7430641 9.744525 L 83.8496332 8.576642 C 82.9853946 19.525547 81.2569322 25.948904 78.880289 34.270073 C 77.58393480000001 38.2116775 75.20729604 44.19708 70.6700704 44.19708 L 68.29342868 44.19708" />
<path class="stroke" d="M 58.13868322 9.4525535 L 55.978103000000004 18.357662 C 52.521165620000005 29.744522 46.25547314 37.0437925 40.854012600000004 43.17518" />
<path class="stroke" d="M 39.557663579999996 58.8686125 L 39.557663579999996 89.233575" />
<path class="stroke" d="M 39.557663579999996 58.8686125 L 86.65839199999999 58.8686125 L 86.65839199999999 88.94160500000001" />
<path class="stroke" d="M 39.557663579999996 86.897808 L 86.65839199999999 86.897808" />
</svg>
