<?xml version="1.0" standalone="no"?>
<!DOCTYPE svg PUBLIC "-//W3C//DTD SVG 1.1//EN" "http://www.w3.org/Graphics/SVG/1.1/DTD/svg11.dtd">
<svg xmlns="http://www.w3.org/2000/svg" version="1.1" width="100%" height="100%">
<style type="text/css"><![CDATA[
  .stroke { fill:none; stroke:black; stroke-width:2 }
]]></style>
<path class="stroke" d="M 20.7299256 10.729925 C 17.4598528 18.029196 13.021896000000002 23.86861 8.8175168 28.540146 C 12.087590400000002 31.45985 16.058392 36.131386 19.7956176 40.218975" />
<path class="stroke" d="M 29.6058384 25.912407 C 24.0 34.67153 16.5255464 45.18248 7.1824816 56.277367 C 15.591239999999999 54.525543 24.934304800000003 52.48175 33.343064 50.437954" />
<path class="stroke" d="M 30.540143999999998 43.430653 C 32.8759096 46.642334 33.5766416 49.85401 34.9781008 55.40146" />
<path class="stroke" d="M 21.19708 54.233574 L 21.19708 89.56204" />
<path class="stroke" d="M 13.956202400000002 65.03649 C 12.554744 70.87591 10.9197064 74.67153 7.6496336000000005 78.75912" />
<path class="stroke" d="M 27.270072 65.32846 C 29.8394136 68.540146 29.881079999999997 68.81081 31.178376 71.72973" />
<path class="stroke" d="M 52.043794 17.626959574468085 L 87.78101799999999 17.626959574468085" />
<path class="stroke" d="M 70.087588 10.172385106382979 L 70.087588 43.407358510638296" />
<path class="stroke" d="M 53.620438 30.36185744680851 L 86.37955600000001 30.36185744680851" />
<path class="stroke" d="M 46.087591 43.407358510638296 L 94.087588 43.407358510638296" />
<path class="stroke" d="M 56.2481752 54.9270065 L 56.2481752 87.627735" />
<path class="stroke" d="M 56.423356600000005 54.9270065 L 83.75182000000001 54.9270065 L 83.75182000000001 87.627735" />
<path class="stroke" d="M 56.4293188 66.08911 L 83.7227704 66.08911" />
<path class="stroke" d="M 56.4293188 77.0792085 L 83.7227704 77.0792085" />
<path class="stroke" d="M 56.423356600000005 87.48175 L 83.576638 87.48175" />
<path class="stroke" d="M 59.9270068 90.9854 C 58.5255472 93.46715 52.837162 95.149045 50.2094242 95.73298249999999" />
<path class="stroke" d="M 78.293194 91.02094249999999 C 79.801045 92.277485 85.455496 96.047123 90.92146600000001 95.890053" />
</svg>
