<?xml version="1.0" standalone="no"?>
<!DOCTYPE svg PUBLIC "-//W3C//DTD SVG 1.1//EN" "http://www.w3.org/Graphics/SVG/1.1/DTD/svg11.dtd">
<svg xmlns="http://www.w3.org/2000/svg" version="1.1" width="100%" height="100%">
<style type="text/css"><![CDATA[
  .stroke { fill:none; stroke:black; stroke-width:2 }
]]></style>
<path class="stroke" d="M 13.154171785714285 14.059406 C 16.654879285714284 16.138615 20.15558785714286 19.108912 23.01980357142857 22.673267" />
<path class="stroke" d="M 10.926448928571428 38.118813 C 14.108912142857141 39.90099 17.927864999999997 42.574257 20.473834285714286 46.138615" />
<path class="stroke" d="M 10.608203571428572 85.64356 C 11.321795357142857 87.422676 13.310014285714285 89.896904 15.629600357142856 89.896904 C 17.949189642857142 89.896904 21.110325 76.73267 23.33804892857143 69.60396" />
<path class="stroke" d="M 49.723974999999996 6.15142 C 45.386425 19.0852 39.865975 28.2334 32.4526825 34.2271" />
<path class="stroke" d="M 46.88485 14.353272 L 73.856425 14.353272 C 71.96365 22.450071 68.4148 29.284971 62.736625000000004 33.911774" />
<path class="stroke" d="M 41.679775 33.91169 L 83.320225 33.91169 L 83.320225 66.71929" />
<path class="stroke" d="M 30.5599375 50.31548 L 95.149825 50.31548" />
<path class="stroke" d="M 37.65775 66.71929 L 83.320225 66.71929" />
<path class="stroke" d="M 62.736625000000004 33.9117 L 62.736625000000004 88.1703 C 62.657725 92.1661 60.686125 94.5846 58.241350000000004 94.4795 L 53.036275 94.4795" />
</svg>
