<?xml version="1.0" standalone="no"?>
<!DOCTYPE svg PUBLIC "-//W3C//DTD SVG 1.1//EN" "http://www.w3.org/Graphics/SVG/1.1/DTD/svg11.dtd">
<svg xmlns="http://www.w3.org/2000/svg" version="1.1" width="100%" height="100%">
<style type="text/css"><![CDATA[
  .stroke { fill:none; stroke:black; stroke-width:2 }
]]></style>
<path class="stroke" d="M 20.770715441176474 11.605839 C 17.979818382352942 27.372261 12.183339705882354 41.970802 7.245597794117647 50.14598" />
<path class="stroke" d="M 16.477026470588235 30.583939 L 16.477026470588235 90.43795" />
<path class="stroke" d="M 54.356428 5.52051 C 54.192394 14.66879 52.552054 21.92439 48.697138 27.60259" />
<path class="stroke" d="M 35.90220754 12.77599 L 81.42269710000001 12.77599 L 81.42269710000001 27.60259" />
<path class="stroke" d="M 26.30599234 27.91798 L 95.2018612 27.91798" />
<path class="stroke" d="M 39.100954 38.958973 L 39.100954 56.624573" />
<path class="stroke" d="M 39.100954 38.958973 L 83.637238 38.958973 L 83.637238 56.624573" />
<path class="stroke" d="M 39.100954 56.624573 L 83.637238 56.624573" />
<path class="stroke" d="M 31.542132340000002 68.57868 L 90.03472000000001 68.612" />
<path class="stroke" d="M 39.59302246 68.92746 L 39.59302246 84.700356" />
<path class="stroke" d="M 26.059939 84.3849 L 94.95581800000001 84.3849" />
<path class="stroke" d="M 70.104082 56.6246 L 70.104082 94.795" />
</svg>
