<?xml version="1.0" standalone="no"?>
<!DOCTYPE svg PUBLIC "-//W3C//DTD SVG 1.1//EN" "http://www.w3.org/Graphics/SVG/1.1/DTD/svg11.dtd">
<svg xmlns="http://www.w3.org/2000/svg" version="1.1" width="100%" height="100%">
<style type="text/css"><![CDATA[
  .stroke { fill:none; stroke:black; stroke-width:2 }
]]></style>
<path class="stroke" d="M 20.891088 19.758417 L 20.891088 39.45148572 C 20.891088 51.4990077 17.920792 58.91287260000001 11.683168 67.02178380000001" />
<path class="stroke" d="M 20.891088 19.854864 L 76.435646 19.854864" />
<path class="stroke" d="M 58.019806 10.4910888 L 62.178215 35.5128726 C 65.44554 57.059405399999996 80.0 73.2772278 84.75247 73.2772278 L 86.83168 73.2772278 C 88.91089 73.2772278 90.9901 71.65544868 90.9901 70.033668 L 90.9901 67.25346408" />
<path class="stroke" d="M 78.81188 36.67128648 C 75.544556 45.475246320000004 69.30693 51.0356448 61.287132 56.1326718" />
<path class="stroke" d="M 78.514854 10.259406180000001 C 82.376236 11.4178224 85.04951 14.4297027 86.237625 17.441583" />
<path class="stroke" d="M 28.15547386 33.225 L 54.8445235 33.225" />
<path class="stroke" d="M 32.091386599 42.8480361825 L 32.091386599 57.769378755" />
<path class="stroke" d="M 32.091386599 42.8480361825 L 50.995327599999996 42.8480361825 L 50.995327599999996 57.625904697" />
<path class="stroke" d="M 32.091386599 56.62158285120001 L 50.995327599999996 56.62158285120001" />
<path class="stroke" d="M 23.46718 70.012608 C 22.962519999999998 75.66136800000001 21.70072 79.379608 19.49242 83.526792" />
<path class="stroke" d="M 32.930884 66.580444 L 32.930884 84.813896 C 32.930884 86.744484 34.066564 88.03152 35.770024 88.03152 L 56.211664 88.03152 C 57.788944 88.03152 59.176984 86.529944 59.240044 84.170344 L 59.240044 80.52364" />
<path class="stroke" d="M 40.12336 66.5804576 C 43.4041 69.8696176 45.54922 73.37331760000001 47.50504 77.9495136" />
<path class="stroke" d="M 59.240019999999994 66.794984 C 63.21478 70.79909599999999 65.67537999999999 74.80348000000001 68.13592 80.309168" />
</svg>
