<?xml version="1.0" standalone="no"?>
<!DOCTYPE svg PUBLIC "-//W3C//DTD SVG 1.1//EN" "http://www.w3.org/Graphics/SVG/1.1/DTD/svg11.dtd">
<svg xmlns="http://www.w3.org/2000/svg" version="1.1" width="100%" height="100%">
<style type="text/css"><![CDATA[
  .stroke { fill:none; stroke:black; stroke-width:2 }
]]></style>
<path class="stroke" d="M 8.250825 11.089109 L 29.838708333333333 11.290321 C 31.451613333333338 17.741934 26.61290166666667 33.225803 21.774193333333333 40.0" />
<path class="stroke" d="M 21.774193333333333 40.96774 C 25.80645 44.51613 29.032255833333334 49.032257 30.645160833333332 54.19355 C 32.2580625 57.09677 32.2580625 65.161285 23.655913333333334 68.38709 L 18.54838666666667 69.354836" />
<path class="stroke" d="M 10.726071666666666 11.089109 L 10.726071666666666 90.09901" />
<path class="stroke" d="M 44.8686125 8.7226265 C 47.5255465 10.474452 49.978102199999995 12.5182475 51.56581 15.5363" />
<path class="stroke" d="M 84.72262599999999 8.7226265 C 83.4963485 11.350365 81.248176 13.540146 78.1824805 15.437956" />
<path class="stroke" d="M 40.3722612 21.5693415 L 89.832115 21.5693415" />
<path class="stroke" d="M 65.0 4.80198 L 65.10218599999999 45.19802" />
<path class="stroke" d="M 61.2189759 22.883211 C 57.01258 29.8429 48.51759 36.91955 38.328467 40.693428" />
<path class="stroke" d="M 69.1897779 23.029195 C 72.62475 29.89545 81.17147 37.3362 91.467147 40.8394125" />
<path class="stroke" d="M 49.10097 53.391165 C 47.99686 61.80335 42.69723 69.9001 34.305994 76.41955" />
<path class="stroke" d="M 46.451049999999995 63.6435 L 62.57093 63.6435 C 58.00735 79.88955 49.02733 88.0915 35.189275 96.9243" />
<path class="stroke" d="M 41.813809 70.425865 L 55.946319 77.83916500000001" />
<path class="stroke" d="M 68.7539201 63.801275000000004 L 95.473198 63.801275000000004" />
<path class="stroke" d="M 72.507871 63.959 L 72.507871 81.1514" />
<path class="stroke" d="M 65.0000588 81.1514 L 95.694013 81.1514" />
<path class="stroke" d="M 85.31546999999999 53.548895 L 85.31546999999999 96.60884999999999" />
</svg>
