<?xml version="1.0" standalone="no"?>
<!DOCTYPE svg PUBLIC "-//W3C//DTD SVG 1.1//EN" "http://www.w3.org/Graphics/SVG/1.1/DTD/svg11.dtd">
<svg xmlns="http://www.w3.org/2000/svg" version="1.1" width="100%" height="100%">
<style type="text/css"><![CDATA[
  .stroke { fill:none; stroke:black; stroke-width:2 }
]]></style>
<path class="stroke" d="M 12.189779 15.69343 L 87.81021 15.69343" />
<path class="stroke" d="M 34.67153 8.394159 L 34.67153 23.576641" />
<path class="stroke" d="M 65.32846 8.394159 L 65.32846 23.576641" />
<path class="stroke" d="M 13.999998 35.3513504 L 13.999998 71.416208 C 13.999998 85.167568 11.0810795 89.318912 6.15142 95.07896" />
<path class="stroke" d="M 13.351351 35.0918912 L 93.13513 35.3513504" />
<path class="stroke" d="M 69.252335 26.3551408 L 69.252335 51.1775696 C 71.869156 82.280376 73.0284 94.99472 85.9622 94.82648 L 89.4321 94.82648 C 92.2713 94.95272 94.278 93.43088 94.164 90.53624 L 94.164 87.50792" />
<path class="stroke" d="M 85.6467 57.47632 C 74.816 77.74968000000001 67.623634 92.49951200000001 56.810806 93.729724" />
<path class="stroke" d="M 80.5994 25.425864 C 82.75675 26.789188799999998 84.17167 28.4078784 85.675674 30.1621616" />
<path class="stroke" d="M 26.570985999999998 45.023324 L 26.49917776 88.60000000000001" />
<path class="stroke" d="M 26.570985999999998 45.023324 L 59.826502 45.023324" />
<path class="stroke" d="M 41.41010134 45.023376 L 41.41010134 58.146356000000004" />
<path class="stroke" d="M 26.570985999999998 58.802497200000005 L 54.129328 58.802497200000005 L 54.129328 72.9097852" />
<path class="stroke" d="M 26.570985999999998 72.9097852 L 54.129328 72.9097852" />
<path class="stroke" d="M 41.54259328 73.07383999999999 L 41.54259328 86.36088" />
<path class="stroke" d="M 26.570985999999998 86.52494 L 60.09148 86.52494" />
</svg>
