<?xml version="1.0" standalone="no"?>
<!DOCTYPE svg PUBLIC "-//W3C//DTD SVG 1.1//EN" "http://www.w3.org/Graphics/SVG/1.1/DTD/svg11.dtd">
<svg xmlns="http://www.w3.org/2000/svg" version="1.1" width="100%" height="100%">
<style type="text/css"><![CDATA[
  .stroke { fill:none; stroke:black; stroke-width:2 }
]]></style>
<path class="stroke" d="M 20.770715441176474 4.6423356 C 17.979818382352942 10.948904400000002 12.183339705882354 16.7883208 7.245597794117647 20.058392" />
<path class="stroke" d="M 16.477026470588235 12.233575600000002 L 16.477026470588235 36.175180000000005" />
<path class="stroke" d="M 81.2128675 5.6237624 C 70.07425525 6.9306932 54.9257425 7.881188000000001 43.564357 8.3564352" />
<path class="stroke" d="M 35.32178275 20.0 L 89.00990125 20.0" />
<path class="stroke" d="M 62.5 7.524752800000001 L 62.5 34.8514864" />
<path class="stroke" d="M 43.78712725 34.8514864 L 81.88118499999999 34.8514864" />
<path class="stroke" d="M 27.080292 45.9124078 L 27.080292 85.15328199999999" />
<path class="stroke" d="M 27.372261 45.9124078 L 72.9197 45.9124078 L 72.9197 85.15328199999999" />
<path class="stroke" d="M 27.382198 59.306932 L 72.871284 59.306932" />
<path class="stroke" d="M 27.382198 72.49505020000001 L 72.871284 72.49505020000001" />
<path class="stroke" d="M 27.372261 84.9781 L 72.62773 84.9781" />
<path class="stroke" d="M 33.211678 89.18248 C 30.875912 92.16058 27.080292 93.737224 22.70073 94.437952" />
<path class="stroke" d="M 67.9562 89.357662 C 72.33576 90.05839 75.54744 91.63503399999999 78.17518 94.437952" />
</svg>
