<?xml version="1.0" standalone="no"?>
<!DOCTYPE svg PUBLIC "-//W3C//DTD SVG 1.1//EN" "http://www.w3.org/Graphics/SVG/1.1/DTD/svg11.dtd">
<svg xmlns="http://www.w3.org/2000/svg" version="1.1" width="100%" height="100%">
<style type="text/css"><![CDATA[
  .stroke { fill:none; stroke:black; stroke-width:2 }
]]></style>
<path class="stroke" d="M 13.154171785714285 14.059406 C 16.654879285714284 16.138615 20.15558785714286 19.108912 23.01980357142857 22.673267" />
<path class="stroke" d="M 10.926448928571428 38.118813 C 14.108912142857141 39.90099 17.927864999999997 42.574257 20.473834285714286 46.138615" />
<path class="stroke" d="M 10.608203571428572 85.64356 C 11.321795357142857 87.422676 13.310014285714285 89.896904 15.629600357142856 89.896904 C 17.949189642857142 89.896904 21.110325 76.73267 23.33804892857143 69.60396" />
<path class="stroke" d="M 27.2902174 8.044168 L 95.44792000000001 8.044168" />
<path class="stroke" d="M 33.57356668 19.625937 L 89.3601058 19.625937 L 89.3601058 35.785538" />
<path class="stroke" d="M 33.340150120000004 35.486286 L 89.8269358 35.486286" />
<path class="stroke" d="M 33.6876916 19.40065 L 33.6876916 61.67185 C 33.6056356 75.86745 32.5394536 82.17665 28.766515599999998 90.37855" />
<path class="stroke" d="M 45.049853514999995 60.3540139 L 85.70094250000001 60.3540139" />
<path class="stroke" d="M 65.3753983 45.09854015 L 65.3753983 62.12043625 C 65.3753983 74.4854015 56.405573409999995 87.1949027 42.317006125 90.06204500000001" />
<path class="stroke" d="M 65.3753983 61.959853300000006 C 65.3753983 74.645985 74.53504165 87.16575600000002 88.4337934 90.06204500000001" />
</svg>
