<?xml version="1.0" standalone="no"?>
<!DOCTYPE svg PUBLIC "-//W3C//DTD SVG 1.1//EN" "http://www.w3.org/Graphics/SVG/1.1/DTD/svg11.dtd">
<svg xmlns="http://www.w3.org/2000/svg" version="1.1" width="100%" height="100%">
<style type="text/css"><![CDATA[
  .stroke { fill:none; stroke:black; stroke-width:2 }
]]></style>
<path class="stroke" d="M 30.087588 6.693429399999999 C 23.255472 17.1167871 15.547444200000001 25.291970199999998 5.9124077999999995 30.1970781" />
<path class="stroke" d="M 30.087588 6.693429399999999 C 37.0948884 16.708026999999998 44.27736959999999 25.291970199999998 54.262769999999996 29.992699799999997" />
<path class="stroke" d="M 17.886443999999997 28.5489 L 42.113544 28.5489" />
<path class="stroke" d="M 8.611998 41.7981 L 8.611998 62.9337" />
<path class="stroke" d="M 8.611998 41.7981 L 51.766578 41.7981 L 51.766578 62.9337" />
<path class="stroke" d="M 8.611998 62.9337 L 51.766578 62.9337" />
<path class="stroke" d="M 29.810723999999997 29.1798 L 29.621423999999998 68.9275 C 27.665544 83.2282 15.678204 90.9043 4.258686 93.8485" />
<path class="stroke" d="M 29.62146 69.2429 C 31.89276 82.387 43.24926 91.1146 55.55208 94.164" />
<path class="stroke" d="M 69.90531999999999 12.1451 L 69.90531999999999 68.612" />
<path class="stroke" d="M 88.4542 6.78233 L 88.4542 84.0694 C 88.58044 89.6425 84.54256 92.3765 79.7476 92.2713 L 75.5836 92.2713" />
</svg>
