<?xml version="1.0" standalone="no"?>
<!DOCTYPE svg PUBLIC "-//W3C//DTD SVG 1.1//EN" "http://www.w3.org/Graphics/SVG/1.1/DTD/svg11.dtd">
<svg xmlns="http://www.w3.org/2000/svg" version="1.1" width="100%" height="100%">
<style type="text/css"><![CDATA[
  .stroke { fill:none; stroke:black; stroke-width:2 }
]]></style>
<path class="stroke" d="M 9.1605835 15.0065688 L 40.8394125 15.0065688" />
<path class="stroke" d="M 25.0 4.8693426550000005 L 25.0 28.2211651" />
<path class="stroke" d="M 4.9270065 28.2211651 L 44.927005 28.2211651" />
<path class="stroke" d="M 18.503649 31.31678798 L 18.503649 36.47591156 C 18.503649 41.0248167 14.708029 45.51824716 5.218978 46.6832105" />
<path class="stroke" d="M 27.116787 31.26131387 L 27.116787 44.3532842 C 27.116787 45.7401455 29.014599 46.5722619 31.0583915 46.5722619 L 42.44525 46.5722619 C 44.051095 46.6277362 45.218975 46.1839399 45.218975 45.573720699999996 L 45.218975 44.51970786" />
<path class="stroke" d="M 9.1605835 72.59124 L 40.8394125 72.59124" />
<path class="stroke" d="M 25.0 56.24087525 L 25.0 93.90510499999999" />
<path class="stroke" d="M 4.9270065 93.90510499999999 L 44.927005 93.90510499999999" />
<path class="stroke" d="M 71.131385 10.145985 L 69.8175165 42.26277 C 68.357662 66.496346 63.83235 86.2737 54.781021 90.72992" />
<path class="stroke" d="M 56.386860999999996 39.635033 L 80.036495 31.167881 C 79.1605835 44.890507 78.4306565 65.03649 79.89051 83.43065 C 80.47445 86.642334 81.204376 90.14598 84.85401 90.14598 L 92.59124 89.85401 C 94.051095 90.14598 94.92700500000001 87.51824 94.92700500000001 84.59853 L 94.92700500000001 79.63503" />
<path class="stroke" d="M 63.248175 48.68613 C 66.3138675 49.562042 69.525547 52.189777 72.59124 58.321167" />
</svg>
