<?xml version="1.0" standalone="no"?>
<!DOCTYPE svg PUBLIC "-//W3C//DTD SVG 1.1//EN" "http://www.w3.org/Graphics/SVG/1.1/DTD/svg11.dtd">
<svg xmlns="http://www.w3.org/2000/svg" version="1.1" width="100%" height="100%">
<style type="text/css"><![CDATA[
  .stroke { fill:none; stroke:black; stroke-width:2 }
]]></style>
<path class="stroke" d="M 22.116787 9.562042 C 25.620438 11.021896 29.124084 14.817516 31.45985 19.48905" />
<path class="stroke" d="M 9.854013 22.8707 L 42.55474 22.8707" />
<path class="stroke" d="M 16.27737 37.007298 L 36.131386 37.007298" />
<path class="stroke" d="M 16.27737 51.313866 L 36.131386 51.313866" />
<path class="stroke" d="M 15.109488 64.45255 L 15.109488 85.76642" />
<path class="stroke" d="M 15.109488 64.16058 L 37.88321 64.16058 L 37.88321 85.76642" />
<path class="stroke" d="M 15.109488 85.76642 L 37.59124 85.76642" />
<path class="stroke" d="M 53.5117656658 17.04598475 L 85.82306381 17.04598475" />
<path class="stroke" d="M 66.06796877299999 17.04598475 L 59.203910906199994 52.7832071" />
<path class="stroke" d="M 51.5027733292 32.8299263 L 81.63766239199998 32.8299263 L 80.63316307 52.6343024" />
<path class="stroke" d="M 46.1454598582 52.7832071 L 92.519704932 52.7832071" />
<path class="stroke" d="M 55.8613791903 64.27226225 L 55.8613791903 89.1715315" />
<path class="stroke" d="M 55.8613791903 64.27226225 L 82.65150971999999 64.27226225 L 82.65150971999999 88.9321161" />
<path class="stroke" d="M 55.8613791903 87.25620255999999 L 82.65150971999999 87.25620255999999" />
</svg>
