<?xml version="1.0" standalone="no"?>
<!DOCTYPE svg PUBLIC "-//W3C//DTD SVG 1.1//EN" "http://www.w3.org/Graphics/SVG/1.1/DTD/svg11.dtd">
<svg xmlns="http://www.w3.org/2000/svg" version="1.1" width="100%" height="100%">
<style type="text/css"><![CDATA[
  .stroke { fill:none; stroke:black; stroke-width:2 }
]]></style>
<path class="stroke" d="M 8.69085 22.0316 L 2.3817 38.1199" />
<path class="stroke" d="M 20.6782 22.0316 L 27.6183 38.1199" />
<path class="stroke" d="M 14.6845 7.3123 L 14.6845 93.3186" />
<path class="stroke" d="M 38.5328453 14.124087 L 91.467147 14.124087" />
<path class="stroke" d="M 54.270071 7.5547431000000005 L 54.270071 21.218976899999998" />
<path class="stroke" d="M 75.729922 7.5547431000000005 L 75.729922 21.218976899999998" />
<path class="stroke" d="M 65.662473 23.01419417 L 65.662473 27.32017208" />
<path class="stroke" d="M 35.410125 27.8123162 L 95.47320500000001 27.8123162" />
<path class="stroke" d="M 43.580420000000004 27.93533 L 43.580420000000004 52.110455 C 43.286 53.89435400000001 44.97888 55.555208 48.438419999999994 55.616711 L 92.82338999999999 55.616711" />
<path class="stroke" d="M 52.117208399999996 67.0012471 C 50.2319208 75.82319405000001 46.958091499999995 91.4436578 36.20139695 94.53236785" />
<path class="stroke" d="M 65.10473959999999 67.20174862 L 65.7334131 95.1875441" />
<path class="stroke" d="M 78.511225 67.8032438 L 79.5215392 86.2958133 C 80.10826800000001 89.47811899999999 80.30384099999999 89.7589093 82.74854479999999 93.03481065 C 85.584403 94.9067538 92.62514999999999 95.1875441 95.68827999999999 92.46459039999999 C 96.04773349999999 90.6948792 96.24331 92.2860354 96.5 87.9805618" />
</svg>
