<?xml version="1.0" standalone="no"?>
<!DOCTYPE svg PUBLIC "-//W3C//DTD SVG 1.1//EN" "http://www.w3.org/Graphics/SVG/1.1/DTD/svg11.dtd">
<svg xmlns="http://www.w3.org/2000/svg" version="1.1" width="100%" height="100%">
<style type="text/css"><![CDATA[
  .stroke { fill:none; stroke:black; stroke-width:2 }
]]></style>
<path class="stroke" d="M 6.78233 8.044168 L 94.164 8.044168" />
<path class="stroke" d="M 14.837906 19.625937 L 86.35911 19.625937 L 86.35911 35.785538" />
<path class="stroke" d="M 14.538654 35.486286 L 86.95761 35.486286" />
<path class="stroke" d="M 14.98422 19.40065 L 14.98422 61.67185 C 14.87902 75.86745 13.51212 82.17665 8.67502 90.37855" />
<path class="stroke" d="M 33.17623792 45.3782176 L 52.76831632 45.3782176 L 52.76831632 87.7940596 C 52.76831632 89.62376160000001 51.55643596 90.45544560000002 49.7386144 90.45544560000002 L 47.31485096 90.45544560000002" />
<path class="stroke" d="M 29.944554240000002 55.69108912 C 34.590098 57.02178128 38.83168368 59.3504948 41.861385600000006 62.5108912" />
<path class="stroke" d="M 30.348514360000003 78.1465336 L 43.073268 69.49702952000001" />
<path class="stroke" d="M 63.67524976 45.3782176 L 82.45940519999999 45.3782176 L 82.45940519999999 87.29504864 C 82.45940519999999 89.1247512 81.44950320000001 90.28910880000001 79.22772560000001 90.28910880000001 L 77.2079216 90.28910880000001" />
<path class="stroke" d="M 61.655446440000006 55.19207872 C 66.0990132 56.35643520000001 69.5326732 58.68514872 72.360392 62.34455440000001" />
<path class="stroke" d="M 61.655446440000006 77.81386 L 74.1782156 69.1643576" />
</svg>
