<?xml version="1.0" standalone="no"?>
<!DOCTYPE svg PUBLIC "-//W3C//DTD SVG 1.1//EN" "http://www.w3.org/Graphics/SVG/1.1/DTD/svg11.dtd">
<svg xmlns="http://www.w3.org/2000/svg" version="1.1" width="100%" height="100%">
<style type="text/css"><![CDATA[
  .stroke { fill:none; stroke:black; stroke-width:2 }
]]></style>
<path class="stroke" d="M 20.770715441176474 11.605839 C 17.979818382352942 27.372261 12.183339705882354 41.970802 7.245597794117647 50.14598" />
<path class="stroke" d="M 16.477026470588235 30.583939 L 16.477026470588235 90.43795" />
<path class="stroke" d="M 42.556809 3.7981048000000004 C 41.310742000000005 13.219752000000002 35.329731 22.288112 25.8596218 29.589896000000003" />
<path class="stroke" d="M 39.566185000000004 15.28072 L 57.758621 15.28072 C 52.608295 33.476296000000005 42.473701 42.66248000000001 26.8564675 52.55521600000001" />
<path class="stroke" d="M 34.3327273 22.876968800000004 L 50.2822743 31.179864800000004" />
<path class="stroke" d="M 64.73656697000001 15.457428000000002 L 94.89118060000001 15.457428000000002" />
<path class="stroke" d="M 68.9731687 15.63408 L 68.9731687 34.889568000000004" />
<path class="stroke" d="M 60.500066360000005 34.889568000000004 L 95.1403861 34.889568000000004" />
<path class="stroke" d="M 83.427459 3.9747624000000004 L 83.427459 52.201912" />
<path class="stroke" d="M 36.8576621 61.934305 L 84.37298630000001 61.934305" />
<path class="stroke" d="M 60.6153242 54.489051 L 60.6153242 95.36496" />
<path class="stroke" d="M 60.6153242 64.4160575 C 53.0036505 75.656933 43.777370850000004 81.642334 31.783210070000003 84.70802499999999" />
<path class="stroke" d="M 60.6153242 64.4160575 C 67.76568925000001 75.8029175 77.4532815 81.7883185 89.44744386 84.4160575" />
</svg>
