<?xml version="1.0" standalone="no"?>
<!DOCTYPE svg PUBLIC "-//W3C//DTD SVG 1.1//EN" "http://www.w3.org/Graphics/SVG/1.1/DTD/svg11.dtd">
<svg xmlns="http://www.w3.org/2000/svg" version="1.1" width="100%" height="100%">
<style type="text/css"><![CDATA[
  .stroke { fill:none; stroke:black; stroke-width:2 }
]]></style>
<path class="stroke" d="M 8.607954255319148 13.7224 C 11.1249 16.98216 12.433691489361703 19.92646 13.44054255319149 23.50156" />
<path class="stroke" d="M 34.884871276595746 13.72239 C 34.0794670212766 17.1924 32.36793510638298 20.347 29.750371276595747 23.1862" />
<path class="stroke" d="M 5.587621276595745 33.91172 L 39.11327234042554 33.91172" />
<path class="stroke" d="M 22.19947659574468 5.8359594 L 22.19947659574468 94.164" />
<path class="stroke" d="M 22.19940957446809 41.798 C 21.091930851063832 54.942 14.245898936170214 66.8245 6.493710638297873 73.343796" />
<path class="stroke" d="M 22.501541489361703 44.32176 C 28.54216914893617 47.37116 32.77063723404256 51.68236 36.09297765957447 57.25546" />
<path class="stroke" d="M 54.4416043 15.864263617021276 L 88.39196709999999 15.864263617021276" />
<path class="stroke" d="M 71.5832086 9.15514659574468 L 71.5832086 39.06662265957447" />
<path class="stroke" d="M 55.9394161 27.32567170212766 L 87.06057820000001 27.32567170212766" />
<path class="stroke" d="M 48.783211449999996 39.06662265957447 L 94.38320859999999 39.06662265957447" />
<path class="stroke" d="M 61.43138662 49.51824728 L 61.400671599999995 75.1570504 C 60.9356029 86.42512959999999 61.71552249999999 87.95052480000001 57.35445079 93.8136128" />
<path class="stroke" d="M 61.43138662 49.51824728 L 84.7306576 49.51824728 L 84.7306576 92.19269840000001 C 84.7306576 93.5007296 84.0649603 94.645252 82.40072788 94.645252 L 80.5700737 94.645252" />
<path class="stroke" d="M 61.43138662 61.843043120000004 L 84.7306576 61.843043120000004" />
<path class="stroke" d="M 61.43138662 74.86178816 L 84.7306576 74.86178816" />
</svg>
