<?xml version="1.0" standalone="no"?>
<!DOCTYPE svg PUBLIC "-//W3C//DTD SVG 1.1//EN" "http://www.w3.org/Graphics/SVG/1.1/DTD/svg11.dtd">
<svg xmlns="http://www.w3.org/2000/svg" version="1.1" width="100%" height="100%">
<style type="text/css"><![CDATA[
  .stroke { fill:none; stroke:black; stroke-width:2 }
]]></style>
<path class="stroke" d="M 46.05839 4.781021 C 45.80385 7.589295 39.71785 10.847595 34.25295 10.955695" />
<path class="stroke" d="M 21.532845 11.0583935 L 21.532845 45.51095" />
<path class="stroke" d="M 21.532845 10.9561425 L 79.051094 10.9561425 L 79.051094 45.51095" />
<path class="stroke" d="M 21.532845 27.1843625 L 79.051094 27.1843625" />
<path class="stroke" d="M 21.532845 44.01178 L 79.051094 44.01178" />
<path class="stroke" d="M 47.79182 55.3649625 L 47.79182 61.934305" />
<path class="stroke" d="M 14.525547 61.934305 L 85.76642 61.934305" />
<path class="stroke" d="M 46.35036 69.6715315 L 77.88321 69.6715315 C 76.423355 76.532845 75.25547 81.0583915 72.9197 85.145985 C 70.0 89.817515 64.74452 94.051095 60.07299 94.051095 L 54.233574 94.051095" />
<path class="stroke" d="M 47.810215 61.934305 L 45.766422 70.69343 C 43.722626 80.036495 36.131386 89.233575 24.744522 92.00729749999999" />
</svg>
