<?xml version="1.0" standalone="no"?>
<!DOCTYPE svg PUBLIC "-//W3C//DTD SVG 1.1//EN" "http://www.w3.org/Graphics/SVG/1.1/DTD/svg11.dtd">
<svg xmlns="http://www.w3.org/2000/svg" version="1.1" width="100%" height="100%">
<style type="text/css"><![CDATA[
  .stroke { fill:none; stroke:black; stroke-width:2 }
]]></style>
<path class="stroke" d="M 3.6642334 16.30291875 L 3.6642334 61.8503625" />
<path class="stroke" d="M 3.6642334 16.30291875 L 16.39416 16.30291875 L 16.39416 61.4124075" />
<path class="stroke" d="M 3.6642334 58.346712 L 16.39416 58.346712" />
<path class="stroke" d="M 27.342256499999998 8.044167 L 91.49054949999999 8.044167 L 91.49054949999999 20.662558" />
<path class="stroke" d="M 27.342256499999998 20.662558 L 91.49054949999999 20.662558" />
<path class="stroke" d="M 27.0804413 8.044167 L 27.0804413 58.20186 C 27.167757299999998 72.92316 25.6839663 81.01996 22.1056786 94.164055" />
<path class="stroke" d="M 86.65586175 28.63407 C 70.85442549999999 31.67084 54.162859899999994 32.549932 38.36142365 32.70976" />
<path class="stroke" d="M 38.36138343649999 42.0599488 L 38.36138343649999 54.5268368" />
<path class="stroke" d="M 38.36138343649999 42.0599488 L 86.655823653 42.0599488 L 86.655823653 54.5268368" />
<path class="stroke" d="M 38.36138343649999 54.5268368 L 86.655823653 54.5268368" />
<path class="stroke" d="M 33.687711910000004 65.075728 L 33.687711910000004 94.32493600000001" />
<path class="stroke" d="M 33.687711910000004 65.075728 L 92.21971694999999 65.075728 L 92.21971694999999 89.769724 C 92.29393554999999 92.327048 90.8101985 93.92532800000001 89.10394674999999 93.845452 L 85.76566185 93.845452" />
<path class="stroke" d="M 62.61990005 31.9905568 L 62.61990005 79.9400968" />
<path class="stroke" d="M 45.48316395 85.93369240000001 C 55.72067445 81.1387764 67.2934848 78.7412804 77.97616579999999 77.7823124" />
<path class="stroke" d="M 74.19278095000001 72.26813240000001 C 77.6794325 76.1040804 79.60834005000001 80.1797324 80.42432135 84.7350204" />
</svg>
