<?xml version="1.0" standalone="no"?>
<!DOCTYPE svg PUBLIC "-//W3C//DTD SVG 1.1//EN" "http://www.w3.org/Graphics/SVG/1.1/DTD/svg11.dtd">
<svg xmlns="http://www.w3.org/2000/svg" version="1.1" width="100%" height="100%">
<style type="text/css"><![CDATA[
  .stroke { fill:none; stroke:black; stroke-width:2 }
]]></style>
<path class="stroke" d="M 15.04100774 8.894082631578947 C 17.690875939999998 12.269977368421053 19.413253939999997 15.147872105263158 21.003163939999997 18.855872631578947" />
<path class="stroke" d="M 25.507921399999997 7.3998 C 28.025275399999995 10.609736842105264 29.4826334 13.321526315789473 31.337521399999996 17.527631578947368" />
<path class="stroke" d="M 46.70661079999999 6.901705263157894 C 44.9842328 11.32917894736842 42.731856799999996 15.2586 39.9495248 19.18796842105263" />
<path class="stroke" d="M 13.829641999999998 23.63094296 L 13.829641999999998 61.1388106" />
<path class="stroke" d="M 13.829641999999998 23.63094296 L 50.548922 23.63094296 L 50.548922 61.1388106" />
<path class="stroke" d="M 14.018935999999998 42.5141588 L 50.548916 42.5141588" />
<path class="stroke" d="M 13.829641999999998 61.1388106 L 50.548922 61.1388106" />
<path class="stroke" d="M 6.82649 77.1766576 L 57.17351 77.1766576" />
<path class="stroke" d="M 32.1893 24.1482662 L 32.1893 94.50786599999999" />
<path class="stroke" d="M 58.3927436 30.1262 L 94.60723999999999 30.1262" />
<path class="stroke" d="M 72.361214 5.83596 L 72.361214 30.1262 C 72.53366 58.0967 82.923757 92.6919 92.796516 93.2176 L 92.796516 82.4922" />
<path class="stroke" d="M 87.623013 41.4827 C 82.837534 66.9295 73.783873 83.8591 60.979490999999996 91.9558" />
<path class="stroke" d="M 77.8297284 11.0810795 C 79.5542294 14.23564 79.54801134 15.754585 80.75513251999999 20.486485" />
</svg>
