<?xml version="1.0" standalone="no"?>
<!DOCTYPE svg PUBLIC "-//W3C//DTD SVG 1.1//EN" "http://www.w3.org/Graphics/SVG/1.1/DTD/svg11.dtd">
<svg xmlns="http://www.w3.org/2000/svg" version="1.1" width="100%" height="100%">
<style type="text/css"><![CDATA[
  .stroke { fill:none; stroke:black; stroke-width:2 }
]]></style>
<path class="stroke" d="M 18.905107 9.854013 L 90.14598 9.854013" />
<path class="stroke" d="M 18.613138 9.854013 L 18.613138 31.167881 C 18.613138 74.67153 14.817516 81.386856 10.198019 90.09901" />
<path class="stroke" d="M 30.74890478 34.126349858 L 51.188480299999995 34.126349858" />
<path class="stroke" d="M 42.2 20.3000719926 L 41.892467100000005 55.52439862239999" />
<path class="stroke" d="M 42.2 35.7855011056 C 38.95912412 42.237764446199996 34.205838459999995 49.058729397 27.5080289 53.851838332999996" />
<path class="stroke" d="M 42.2 37.2603062836 C 46.30510782 39.65686075159999 48.46569099999999 41.869062836000005 50.626276399999995 45.0030205244" />
<path class="stroke" d="M 56.767538619999996 34.126349858 L 80.22627344 34.126349858" />
<path class="stroke" d="M 67.9109448 20.3000719926 L 67.95584059999999 54.93399795" />
<path class="stroke" d="M 67.4788292 36.522904325999995 C 64.8861282 43.71256773 58.1883179 50.717883801599996 51.70656836 55.3266384598" />
<path class="stroke" d="M 67.4788292 36.338554468 C 71.367877 44.265617304 76.00500116 46.782838626 82.4867544 51.391597704" />
<path class="stroke" d="M 31.5828869408 61.716058049999994 L 31.5828869408 91.8824784" />
<path class="stroke" d="M 31.5828869408 61.716058049999994 L 82.1232664 61.716058049999994 L 82.1232664 91.8824784" />
<path class="stroke" d="M 31.876728568 75.97751362999999 L 81.829427792 75.97751362999999" />
<path class="stroke" d="M 31.5828869408 90.56569123999999 L 82.1232664 90.56569123999999" />
</svg>
