<?xml version="1.0" standalone="no"?>
<!DOCTYPE svg PUBLIC "-//W3C//DTD SVG 1.1//EN" "http://www.w3.org/Graphics/SVG/1.1/DTD/svg11.dtd">
<svg xmlns="http://www.w3.org/2000/svg" version="1.1" width="100%" height="100%">
<style type="text/css"><![CDATA[
  .stroke { fill:none; stroke:black; stroke-width:2 }
]]></style>
<path class="stroke" d="M 13.999998 19.189188 L 13.999998 64.27026 C 13.999998 81.45946 11.0810795 86.64864 6.15142 93.8487" />
<path class="stroke" d="M 13.351351 18.864864 L 93.13513 19.189188" />
<path class="stroke" d="M 69.252335 7.943926 L 69.252335 38.971962 C 71.869156 77.85047 73.0284 93.7434 85.9622 93.5331 L 89.4321 93.5331 C 92.2713 93.6909 94.278 91.7886 94.164 88.1703 L 94.164 84.3849" />
<path class="stroke" d="M 85.6467 46.8454 C 74.816 72.1871 67.623634 90.62439 56.810806 92.162155" />
<path class="stroke" d="M 80.5994 6.78233 C 82.75675 8.486486 84.17167 10.509848 85.675674 12.702702" />
<path class="stroke" d="M 29.4270578614 29.9 L 53.422939765 29.9" />
<path class="stroke" d="M 40.45643532 31.67623733 C 39.94554458 42.74356409 36.75247509 56.27029787 33.68712893 62.62376267 C 40.67956146 65.054741 50.59780945 72.91167439999998 55.619708499999994 82.78321045999999" />
<path class="stroke" d="M 50.5465341 44.1782183 C 47.35346676 67.5425774 40.71188069 76.3554506 30.886860570000003 82.17882979999999" />
<path class="stroke" d="M 25.23722559 47.52773567 L 59.6372243 47.52773567" />
</svg>
