<?xml version="1.0" standalone="no"?>
<!DOCTYPE svg PUBLIC "-//W3C//DTD SVG 1.1//EN" "http://www.w3.org/Graphics/SVG/1.1/DTD/svg11.dtd">
<svg xmlns="http://www.w3.org/2000/svg" version="1.1" width="100%" height="100%">
<style type="text/css"><![CDATA[
  .stroke { fill:none; stroke:black; stroke-width:2 }
]]></style>
<path class="stroke" d="M 12.372261 24.744522 L 37.48175 24.744522" />
<path class="stroke" d="M 25.07299 8.686131 L 25.07299 44.014595" />
<path class="stroke" d="M 5.3649625 43.92274 L 44.927005 43.92274" />
<path class="stroke" d="M 19.8175165 44.014595 L 19.8175165 68.540146 C 19.8175165 76.423355 18.2116775 84.014595 15.5839405 89.56204" />
<path class="stroke" d="M 29.89051 44.014595 L 29.89051 86.35036 C 30.036495 89.56204 29.014599 91.0219 27.846714 91.0219 L 26.240875 91.0219" />
<path class="stroke" d="M 12.842843 59.610348 C 11.766824 67.22196 10.10384 73.31116 6.093131 77.87813" />
<path class="stroke" d="M 36.645635 59.894783 C 39.775965 65.07066 41.2922 70.246544 42.955225 76.64024" />
<path class="stroke" d="M 62.372261 24.744522 L 87.48175 24.744522" />
<path class="stroke" d="M 75.07299 8.686131 L 75.07299 44.014595" />
<path class="stroke" d="M 55.3649625 43.92274 L 94.92700500000001 43.92274" />
<path class="stroke" d="M 69.8175165 44.014595 L 69.8175165 68.540146 C 69.8175165 76.423355 68.21167750000001 84.014595 65.5839405 89.56204" />
<path class="stroke" d="M 79.89051 44.014595 L 79.89051 86.35036 C 80.036495 89.56204 79.014599 91.0219 77.84671399999999 91.0219 L 76.240875 91.0219" />
<path class="stroke" d="M 62.842843 59.610348 C 61.766824 67.22196 60.10384 73.31116 56.093131 77.87813" />
<path class="stroke" d="M 86.645635 59.894783 C 89.775965 65.07066 91.29220000000001 70.246544 92.955225 76.64024" />
</svg>
