<?xml version="1.0" standalone="no"?>
<!DOCTYPE svg PUBLIC "-//W3C//DTD SVG 1.1//EN" "http://www.w3.org/Graphics/SVG/1.1/DTD/svg11.dtd">
<svg xmlns="http://www.w3.org/2000/svg" version="1.1" width="100%" height="100%">
<style type="text/css"><![CDATA[
  .stroke { fill:none; stroke:black; stroke-width:2 }
]]></style>
<path class="stroke" d="M 8.25182435 10.6058378 L 8.25182435 83.65692800000001" />
<path class="stroke" d="M 8.25182435 10.6058378 L 26.6459851 10.6058378 L 26.6459851 83.394155" />
<path class="stroke" d="M 8.25182435 32.920533199999994 L 26.6459851 32.920533199999994" />
<path class="stroke" d="M 8.25182435 57.976256 L 26.6459851 57.976256" />
<path class="stroke" d="M 8.25182435 81.029189 L 26.6459851 81.029189" />
<path class="stroke" d="M 88.01584048000001 5.5005500000000005 C 75.49306928000001 7.975797777777778 56.304949640000004 9.130913333333334 44.994060160000004 9.130913333333334" />
<path class="stroke" d="M 46.20593984 13.42134277777778 C 49.235643800000005 15.731573888888889 51.055708 18.255611111111115 52.4673268 20.84708555555556" />
<path class="stroke" d="M 61.55643596 12.596259444444444 C 64.38415952 14.411441111111111 66.2019804 16.721672222222224 67.4138628 19.691969444444446" />
<path class="stroke" d="M 87.00594120000001 11.606160000000001 C 85.39010072 15.566556666666667 82.96633320000001 18.536853888888892 79.5326732 20.682067777777778" />
<path class="stroke" d="M 38.700728840000004 23.343064 L 38.700728840000004 34.7883176" />
<path class="stroke" d="M 38.700728840000004 22.8759096 L 93.2992664 22.8759096 L 93.2992664 35.0218936" />
<path class="stroke" d="M 50.555228 31.9511009 C 49.482664 44.232890999999995 44.334452 56.054145999999996 36.1829656 65.572543" />
<path class="stroke" d="M 47.98102 46.91951 L 63.640332 46.91951 C 59.20714 70.638743 50.483692000000005 82.61359 37.04101 95.509478" />
<path class="stroke" d="M 43.476271600000004 56.8217629 L 57.204995600000004 67.6451809" />
<path class="stroke" d="M 69.64666524 47.1498615 L 95.6025352 47.1498615" />
<path class="stroke" d="M 73.29336040000001 47.38014 L 73.29336040000001 72.481044" />
<path class="stroke" d="M 66.00005712000001 72.481044 L 95.8170412 72.481044" />
<path class="stroke" d="M 85.735028 32.1813867 L 85.735028 95.04892099999999" />
</svg>
