<?xml version="1.0" standalone="no"?>
<!DOCTYPE svg PUBLIC "-//W3C//DTD SVG 1.1//EN" "http://www.w3.org/Graphics/SVG/1.1/DTD/svg11.dtd">
<svg xmlns="http://www.w3.org/2000/svg" version="1.1" width="100%" height="100%">
<style type="text/css"><![CDATA[
  .stroke { fill:none; stroke:black; stroke-width:2 }
]]></style>
<path class="stroke" d="M 13.649633 9.562042 L 13.649633 90.14598" />
<path class="stroke" d="M 13.649633 9.562042 L 38.17518 9.562042 L 38.17518 38.46715" />
<path class="stroke" d="M 13.649633 22.408756 L 37.88321 22.408756" />
<path class="stroke" d="M 13.649633 36.131386 L 38.17518 36.131386" />
<path class="stroke" d="M 62.408752 9.854013 L 62.408752 38.46715" />
<path class="stroke" d="M 62.408752 9.854013 L 86.642334 9.854013 L 86.642334 85.47445 C 86.642334 88.39416 84.306564 90.14598 81.678825 89.85401" />
<path class="stroke" d="M 62.408752 22.408756 L 86.642334 22.408756" />
<path class="stroke" d="M 62.408752 36.131386 L 86.642334 36.131386" />
<path class="stroke" d="M 26.01459816 47.1261875 L 74.16641952 47.1261875" />
<path class="stroke" d="M 38.867151660000005 47.218978 L 38.867151660000005 77.58394" />
<path class="stroke" d="M 39.04817492 57.0811635 L 60.7708012 57.0811635" />
<path class="stroke" d="M 39.04817492 66.596197 L 60.7708012 66.596197" />
<path class="stroke" d="M 30.17810152 78.751825 L 65.83941279999999 74.08028999999999" />
<path class="stroke" d="M 60.9518226 47.3649625 L 60.9518226 87.65693300000001" />
</svg>
