<?xml version="1.0" standalone="no"?>
<!DOCTYPE svg PUBLIC "-//W3C//DTD SVG 1.1//EN" "http://www.w3.org/Graphics/SVG/1.1/DTD/svg11.dtd">
<svg xmlns="http://www.w3.org/2000/svg" version="1.1" width="100%" height="100%">
<style type="text/css"><![CDATA[
  .stroke { fill:none; stroke:black; stroke-width:2 }
]]></style>
<path class="stroke" d="M 26.788319 5.150040555555556 C 24.452553 9.529602222222222 21.824816 12.287103888888888 16.861313 14.395781666666668" />
<path class="stroke" d="M 24.452553 10.01622 L 47.226276 10.01622" />
<path class="stroke" d="M 30.0 10.340632222222222 C 34.08759 12.93592888888889 35.547443 15.044606666666667 36.423355 18.93755" />
<path class="stroke" d="M 65.32846 5.150040555555556 C 63.284668 10.502837222222222 60.07299 12.773721666666669 57.44525 14.395781666666668" />
<path class="stroke" d="M 62.9927 10.178426111111111 L 86.35036 10.178426111111111" />
<path class="stroke" d="M 72.62773 10.502837222222222 C 72.9197 14.071369444444446 71.16788 16.504459444444446 67.9562 18.93755" />
<path class="stroke" d="M 13.154171785714285 31.2475248 C 16.654879285714284 32.910892000000004 20.15558785714286 35.2871296 23.01980357142857 38.1386136" />
<path class="stroke" d="M 10.926448928571428 50.495050400000004 C 14.108912142857141 51.920792000000006 17.927864999999997 54.059405600000005 20.473834285714286 56.910892000000004" />
<path class="stroke" d="M 10.608203571428572 88.514848 C 11.321795357142857 89.9381408 13.310014285714285 91.9175232 15.629600357142856 91.9175232 C 17.949189642857142 91.9175232 21.110325 81.386136 23.33804892857143 75.683168" />
<path class="stroke" d="M 78.10246187199999 21.789588476 C 81.800135632 22.636278236 83.948768272 23.760066596 85.247949232 25.322593796" />
<path class="stroke" d="M 31.9747636 32.23846904 L 95.5709848 32.23846904" />
<path class="stroke" d="M 39.2429152 41.47503048 L 39.2429152 65.49024248" />
<path class="stroke" d="M 39.2429152 41.47503048 L 88.30285119999999 41.47503048 L 88.30285119999999 65.49024248" />
<path class="stroke" d="M 39.4700248 52.8668976 L 87.84862480000001 52.8668976" />
<path class="stroke" d="M 39.2429152 65.49024248 L 88.30285119999999 65.49024248" />
<path class="stroke" d="M 63.772839999999995 23.46372152 L 63.772839999999995 65.3362736" />
<path class="stroke" d="M 35.51532832 75.891386128 L 92.27444679999999 75.891386128" />
<path class="stroke" d="M 75.2467168 70.299561904 L 75.2467168 95.21751712000001 C 75.2467168 96.10043776 74.405836 96.68904927999999 72.51386608 96.68904927999999 L 66.8379556 96.68904927999999" />
<path class="stroke" d="M 47.077372 79.61926916800002 C 49.599999999999994 80.502189472 51.91240816 81.777517792 53.804377360000004 83.93576507200001" />
</svg>
