<?xml version="1.0" standalone="no"?>
<!DOCTYPE svg PUBLIC "-//W3C//DTD SVG 1.1//EN" "http://www.w3.org/Graphics/SVG/1.1/DTD/svg11.dtd">
<svg xmlns="http://www.w3.org/2000/svg" version="1.1" width="100%" height="100%">
<style type="text/css"><![CDATA[
  .stroke { fill:none; stroke:black; stroke-width:2 }
]]></style>
<path class="stroke" d="M 18.321167 16.50722568 L 81.678825 16.50722568" />
<path class="stroke" d="M 50.0 5.356276920500001 L 50.0 31.043281610000005" />
<path class="stroke" d="M 9.854013 31.043281610000005 L 89.85401 31.043281610000005" />
<path class="stroke" d="M 37.007298 34.448466778000004 L 37.007298 40.123502716000004 C 37.007298 45.127298370000005 29.416058 50.07007187600001 10.437956 51.351531550000004" />
<path class="stroke" d="M 54.233574 34.387445257 L 54.233574 48.78861262 C 54.233574 50.31416005 58.029198 51.229488090000004 62.116783 51.229488090000004 L 84.8905 51.229488090000004 C 88.10219 51.290509820000004 90.43795 50.80233389 90.43795 50.13109277 L 90.43795 48.971678646" />
<path class="stroke" d="M 43.138683 56.678831 C 36.423355 63.248175 25.036495 70.1094875 13.357662 74.48904999999999" />
<path class="stroke" d="M 39.635033 60.474452 L 65.62044 60.474452 C 55.10949 72.4452535 32.627735 86.31386499999999 10.145985 93.90510499999999" />
<path class="stroke" d="M 28.540146 67.627737 C 40.0 78.225807 63.576637 88.21167750000001 88.39416 93.90510499999999" />
</svg>
