<?xml version="1.0" standalone="no"?>
<!DOCTYPE svg PUBLIC "-//W3C//DTD SVG 1.1//EN" "http://www.w3.org/Graphics/SVG/1.1/DTD/svg11.dtd">
<svg xmlns="http://www.w3.org/2000/svg" version="1.1" width="100%" height="100%">
<style type="text/css"><![CDATA[
  .stroke { fill:none; stroke:black; stroke-width:2 }
]]></style>
<path class="stroke" d="M 27.747834210526314 7.413248 L 27.747834210526314 94.164024" />
<path class="stroke" d="M 9.152407894736841 17.5078 C 13.123342105263157 21.7139 16.51309210526316 25.9201 19.32175 32.0189" />
<path class="stroke" d="M 6.246882894736842 72.082 C 11.961157894736841 69.5584 17.384776315789473 66.0882 21.646210526315787 61.3564" />
<path class="stroke" d="M 88.89702868 11.001100000000001 C 77.29504948 15.951595555555556 59.517820990000004 18.261826666666668 49.03861456 18.261826666666668" />
<path class="stroke" d="M 50.161385440000004 26.84268555555556 C 52.968317049999996 31.463147777777777 54.654553 36.51122222222223 55.9623763 41.69417111111112" />
<path class="stroke" d="M 64.38316861 25.192518888888888 C 67.00297132 28.822882222222223 68.6871289 33.44334444444445 69.8099023 39.38393888888889" />
<path class="stroke" d="M 87.9613867 23.212320000000002 C 86.46435801999999 31.133113333333334 84.21880870000001 37.073707777777784 81.0376237 41.364135555555556" />
<path class="stroke" d="M 43.57591228 64.1240865 L 93.24014095000001 64.1240865" />
<path class="stroke" d="M 78.3408772 55.8029195 L 78.3408772 92.88320999999999 C 78.3408772 94.19708 77.6051065 95.07299 75.94963282 95.07299 L 70.98321115 95.07299" />
<path class="stroke" d="M 53.6927005 69.6715315 C 55.9 70.985401 57.92335714 72.883211 59.578830190000005 76.0948885" />
</svg>
