<?xml version="1.0" standalone="no"?>
<!DOCTYPE svg PUBLIC "-//W3C//DTD SVG 1.1//EN" "http://www.w3.org/Graphics/SVG/1.1/DTD/svg11.dtd">
<svg xmlns="http://www.w3.org/2000/svg" version="1.1" width="100%" height="100%">
<style type="text/css"><![CDATA[
  .stroke { fill:none; stroke:black; stroke-width:2 }
]]></style>
<path class="stroke" d="M 8.350785 20.157066 L 41.96335 20.157066" />
<path class="stroke" d="M 11.4963495 34.67153 L 11.350365 62.70073" />
<path class="stroke" d="M 11.350365 34.67153 L 38.64963 34.67153 L 38.64963 62.70073" />
<path class="stroke" d="M 11.350365 48.63624 L 38.503645 48.63624" />
<path class="stroke" d="M 11.350365 62.9927 L 38.64963 62.9927" />
<path class="stroke" d="M 7.554744 77.59124 L 42.44525 77.59124" />
<path class="stroke" d="M 25.092815 8.978102 L 25.092815 90.72992" />
<path class="stroke" d="M 66.7981 4.3154544 L 66.7981 28.694016 C 66.95585 37.880112 60.8044 44.794944 53.548895 44.895888" />
<path class="stroke" d="M 66.7981 4.1640384 L 83.2019 4.1640384 L 83.2019 40.05048 C 82.9916 43.129296 84.5163 45.148272 86.82965 45.04728 L 93.13875 45.04728 C 96.03045 45.04728 96.8717 42.624624 96.76655 40.05048 L 96.76655 37.779168" />
<path class="stroke" d="M 61.9306925 52.53861344 L 86.732675 52.53861344 C 81.0891075 74.32871352000001 71.584158 84.9742592 54.950495000000004 94.28910880000001" />
<path class="stroke" d="M 61.3366335 57.528713520000004 C 63.5483855 67.84516008 71.2903215 76.33548416000001 73.870966 80.1290328 C 78.548385 85.90967760000001 86.93548200000001 90.24515840000001 94.90099000000001 94.28910880000001" />
</svg>
