<?xml version="1.0" standalone="no"?>
<!DOCTYPE svg PUBLIC "-//W3C//DTD SVG 1.1//EN" "http://www.w3.org/Graphics/SVG/1.1/DTD/svg11.dtd">
<svg xmlns="http://www.w3.org/2000/svg" version="1.1" width="100%" height="100%">
<style type="text/css"><![CDATA[
  .stroke { fill:none; stroke:black; stroke-width:2 }
]]></style>
<path class="stroke" d="M 8.003300000000001 33.069305 L 25.825083333333335 30.9901" />
<path class="stroke" d="M 19.389438333333334 9.60396 L 19.389438333333334 84.15842 C 19.389438333333334 87.42574 17.161715833333336 90.09901 14.191419166666668 90.09901" />
<path class="stroke" d="M 8.498349166666667 63.36634 L 24.09241 46.435642" />
<path class="stroke" d="M 43.9375 6.151438666666671 L 43.9375 16.666666666666668" />
<path class="stroke" d="M 30.390625 16.666666666666668 L 57.484375 16.666666666666668" />
<path class="stroke" d="M 43.053375474999996 17.755474000000003 C 41.192061624999994 24.10583875 36.750739374999995 31.217449999999996 31.51322935 36.29562 C 39.33074745625 35.4927 46.12454351875 35.1277375 53.562698125000004 35.181125" />
<path class="stroke" d="M 49.94023665624999 30.602188 C 52.0807465 31.98905 53.94206035 34.105838750000004 55.1519155 36.9525525" />
<path class="stroke" d="M 37.12591225 44.109488060000004 L 37.12591225 75.788318 C 37.12591225 82.8118826 37.12591225 85.758414 37.12591225 92.57227972000001" />
<path class="stroke" d="M 37.12591225 44.109488060000004 L 52.45438 44.109488060000004 L 52.45438 91.35620180000001 C 52.45438 92.8043792 52.01642125 94.071529 50.9215315 94.071529 L 49.717153749999994 94.071529" />
<path class="stroke" d="M 37.12591225 57.75479774 L 52.45438 57.75479774" />
<path class="stroke" d="M 37.12591225 72.16840832 L 52.45438 72.16840832" />
<path class="stroke" d="M 76.1262385 9.90099 C 75.012376375 22.673267 72.339109375 37.82178 68.2178215 46.435642" />
<path class="stroke" d="M 72.22772275 35.742573 L 91.05197875 35.742573" />
<path class="stroke" d="M 82.36386250000001 36.039604 C 81.0272275 61.287132 75.346535125 82.376236 66.43564375 89.80198" />
<path class="stroke" d="M 72.22772275 43.465347 C 74.67821725 61.58416 86.5965325 90.09901 93.1683175 90.09901" />
</svg>
