<?xml version="1.0" standalone="no"?>
<!DOCTYPE svg PUBLIC "-//W3C//DTD SVG 1.1//EN" "http://www.w3.org/Graphics/SVG/1.1/DTD/svg11.dtd">
<svg xmlns="http://www.w3.org/2000/svg" version="1.1" width="100%" height="100%">
<style type="text/css"><![CDATA[
  .stroke { fill:none; stroke:black; stroke-width:2 }
]]></style>
<path class="stroke" d="M 10.961809821428572 14.059406 C 13.879066071428571 16.138615 16.796323214285717 19.108912 19.183169642857145 22.673267" />
<path class="stroke" d="M 9.105374107142858 38.118813 C 11.757426785714285 39.90099 14.939887500000001 42.574257 17.06152857142857 46.138615" />
<path class="stroke" d="M 8.840169642857143 85.64356 C 9.434829464285714 87.422676 11.091678571428572 89.896904 13.024666964285714 89.896904 C 14.957658035714285 89.896904 17.5919375 76.73267 19.448374107142858 69.60396" />
<path class="stroke" d="M 43.848560000000006 8.04416 L 43.848560000000006 44.6373" />
<path class="stroke" d="M 43.848560000000006 8.04416 L 76.90856 8.04416 L 76.90856 44.6373" />
<path class="stroke" d="M 59.999968 25.3943 L 59.999968 44.6373" />
<path class="stroke" d="M 59.999968 25.3943 L 76.656208 25.3943" />
<path class="stroke" d="M 30.97792 45.2681 L 30.97792 92.9022" />
<path class="stroke" d="M 30.97792 45.2681 L 89.02208 45.2681 L 89.02208 86.9085 C 88.93792 90.2734 86.83488 92.3764 84.98416 92.2713 L 81.45104 92.2713" />
<path class="stroke" d="M 47.381704 58.51736 L 47.381704 81.86116" />
<path class="stroke" d="M 47.381704 58.51736 L 72.61826400000001 58.51736 L 72.61826400000001 81.86116" />
<path class="stroke" d="M 47.381704 81.86116 L 72.61826400000001 81.86116" />
</svg>
