<?xml version="1.0" standalone="no"?>
<!DOCTYPE svg PUBLIC "-//W3C//DTD SVG 1.1//EN" "http://www.w3.org/Graphics/SVG/1.1/DTD/svg11.dtd">
<svg xmlns="http://www.w3.org/2000/svg" version="1.1" width="100%" height="100%">
<style type="text/css"><![CDATA[
  .stroke { fill:none; stroke:black; stroke-width:2 }
]]></style>
<path class="stroke" d="M 41.59314 8.675072 C 28.72242 12.039972 16.98741 12.881172 5.5362599999999995 12.776072" />
<path class="stroke" d="M 5.2523675999999995 24.76336 L 41.8770126 24.76336" />
<path class="stroke" d="M 5.5362599999999995 36.750874 L 5.82021 66.08827" />
<path class="stroke" d="M 5.5362599999999995 36.750874 L 41.59296 36.750874 L 41.87691 66.08827" />
<path class="stroke" d="M 6.10416 51.26186 L 41.025330000000004 51.57736" />
<path class="stroke" d="M 5.82021 66.08827 L 41.87691 66.08827" />
<path class="stroke" d="M 23.70663 12.460643 L 23.70663 91.009445" />
<path class="stroke" d="M 5.5362798 78.3912 L 41.876946000000004 78.3912" />
<path class="stroke" d="M 4.9684545 94.4795 L 41.5930644 88.8012" />
<path class="stroke" d="M 58.6094871 33.211678 L 90.8868575 30.875912 C 90.08394000000001 64.16058 87.675182 81.9708 86.87226230000002 85.76642 C 85.90875525 88.978096 83.9817505 89.85401 82.37591 90.14598 L 80.7700695 89.85401" />
<path class="stroke" d="M 74.5072965 10.437956 C 72.58028900000001 43.138683 66.31751600000001 76.423355 56.200729100000004 85.76642" />
</svg>
