<?xml version="1.0" standalone="no"?>
<!DOCTYPE svg PUBLIC "-//W3C//DTD SVG 1.1//EN" "http://www.w3.org/Graphics/SVG/1.1/DTD/svg11.dtd">
<svg xmlns="http://www.w3.org/2000/svg" version="1.1" width="100%" height="100%">
<style type="text/css"><![CDATA[
  .stroke { fill:none; stroke:black; stroke-width:2 }
]]></style>
<path class="stroke" d="M 18.1386849 10.729925 C 15.277371199999997 18.029196 11.394159 23.86861 7.715327199999999 28.540146 C 10.5766416 31.45985 14.051093 36.131386 17.321165399999998 40.218975" />
<path class="stroke" d="M 25.9051086 25.912407 C 21.0 34.67153 14.459853099999998 45.18248 6.2846714 56.277367 C 13.642335 54.525543 21.8175167 52.48175 29.175180999999995 50.437954" />
<path class="stroke" d="M 26.722625999999998 43.430653 C 28.766420899999996 46.642334 29.379561399999996 49.85401 30.605838199999997 55.40146" />
<path class="stroke" d="M 18.547445 54.233574 L 18.547445 89.56204" />
<path class="stroke" d="M 12.2116771 65.03649 C 10.985401 70.87591 9.5547431 74.67153 6.693429399999999 78.75912" />
<path class="stroke" d="M 23.861313 65.32846 C 26.1094869 68.540146 26.145944999999998 68.81081 27.281078999999995 71.72973" />
<path class="stroke" d="M 49.7554745 11.496349799999999 L 87.3321175 11.496349799999999" />
<path class="stroke" d="M 49.7554745 23.5839384 L 87.7116785 23.5839384 L 87.7116785 41.1897798" />
<path class="stroke" d="M 49.7554745 41.1897798 L 87.521898 41.1897798" />
<path class="stroke" d="M 49.7554745 23.5839384 L 49.7554745 58.007295000000006 C 49.7554745 70.620435 46.841583650000004 77.07920399999999 41.4356435 81.62376300000001" />
<path class="stroke" d="M 55.1244004 56.045743 L 55.1244004 94.08994" />
<path class="stroke" d="M 55.1244004 56.045743 L 92.05544130000001 56.045743 L 92.05544130000001 90.966895 C 92.11214275 92.623075 90.6372037 93.85333 89.1622107 93.80603500000001 L 86.94977515 93.80603500000001" />
<path class="stroke" d="M 55.805125315 74.4999955 L 91.54490166 74.6419705" />
<path class="stroke" d="M 67.54815746 56.18769775 L 67.54815746 93.0962095" />
<path class="stroke" d="M 80.312368153 56.18769865 L 80.312368153 93.238162" />
</svg>
