<?xml version="1.0" standalone="no"?>
<!DOCTYPE svg PUBLIC "-//W3C//DTD SVG 1.1//EN" "http://www.w3.org/Graphics/SVG/1.1/DTD/svg11.dtd">
<svg xmlns="http://www.w3.org/2000/svg" version="1.1" width="100%" height="100%">
<style type="text/css"><![CDATA[
  .stroke { fill:none; stroke:black; stroke-width:2 }
]]></style>
<path class="stroke" d="M 24.76344 7.41325 C 20.24184 17.1925 13.82764 23.817 6.78234 28.2334" />
<path class="stroke" d="M 25.0789 30.44158 C 20.347 40.22088 14.0379 47.16098 6.78234 52.20818" />
<path class="stroke" d="M 17.82337 44.006344 L 17.82337 93.84854" />
<path class="stroke" d="M 73.81704 12.775985 L 90.69404 12.775985" />
<path class="stroke" d="M 69.87374 38.01264 L 94.16404 38.01264" />
<path class="stroke" d="M 82.80756 38.01264 L 82.80756 87.85484 C 83.18956 92.40424 81.39656 94.31324 78.07566 94.16404 L 75.55206 94.16404" />
<path class="stroke" d="M 32.626182299999996 32.33434 L 64.14038099999999 32.33434" />
<path class="stroke" d="M 48.149832 8.99054 L 48.149832 93.5331" />
<path class="stroke" d="M 41.496862 43.6909 C 40.251849 60.8307 38.073104 71.3459 33.793388 81.2303" />
<path class="stroke" d="M 54.686141000000006 44.0063 C 58.382256 54.2062 60.561001000000005 65.0368 62.156145 81.2303" />
<path class="stroke" d="M 54.8028242 7.41325 C 56.3979682 10.98843 57.6430182 15.19449 58.18769519999999 20.97789" />
</svg>
