<?xml version="1.0" standalone="no"?>
<!DOCTYPE svg PUBLIC "-//W3C//DTD SVG 1.1//EN" "http://www.w3.org/Graphics/SVG/1.1/DTD/svg11.dtd">
<svg xmlns="http://www.w3.org/2000/svg" version="1.1" width="100%" height="100%">
<style type="text/css"><![CDATA[
  .stroke { fill:none; stroke:black; stroke-width:2 }
]]></style>
<path class="stroke" d="M 23.783857894736844 7.413248 L 23.783857894736844 94.164024" />
<path class="stroke" d="M 7.8449210526315785 17.5078 C 11.248578947368422 21.7139 14.15407894736842 25.9201 16.561500000000002 32.0189" />
<path class="stroke" d="M 5.354471052631579 72.082 C 10.252421052631579 69.5584 14.901236842105263 66.0882 18.553894736842107 61.3564" />
<path class="stroke" d="M 43.271271999999996 7.54891 L 86.905352 7.54891 L 86.905352 30.26182" />
<path class="stroke" d="M 43.094648 18.526801 L 86.905352 18.526801" />
<path class="stroke" d="M 43.271271999999996 30.26182 L 86.905352 30.26182" />
<path class="stroke" d="M 36.8978091 41.67883 L 36.8978091 55.985397" />
<path class="stroke" d="M 36.8978091 41.094887 L 93.10218599999999 41.094887 L 93.10218599999999 56.277367" />
<path class="stroke" d="M 50.3623756 56.8613858 L 78.14059599999999 56.8613858 C 71.81980039999999 74.37128765 61.174256959999994 82.92574400000001 42.544554399999996 90.41089099999999" />
<path class="stroke" d="M 49.69702952 60.87128765 C 52.17419176 69.16128935 60.84516008 75.98387120000001 63.73548192 79.0322585 C 68.9741912 83.67741950000001 78.36773984 87.161288 87.2891088 90.41089099999999" />
</svg>
