<?xml version="1.0" standalone="no"?>
<!DOCTYPE svg PUBLIC "-//W3C//DTD SVG 1.1//EN" "http://www.w3.org/Graphics/SVG/1.1/DTD/svg11.dtd">
<svg xmlns="http://www.w3.org/2000/svg" version="1.1" width="100%" height="100%">
<style type="text/css"><![CDATA[
  .stroke { fill:none; stroke:black; stroke-width:2 }
]]></style>
<path class="stroke" d="M 8.86496275 14.7777914 L 30.631384 14.7777914" />
<path class="stroke" d="M 15.866300449999999 14.7777914 C 15.731276049999998 34.81833575 8.762773249999999 58.0474392 4.5729925499999995 64.5" />
<path class="stroke" d="M 13.05474345 43.653282499999996 L 13.05474345 77.405108" />
<path class="stroke" d="M 13.05474345 43.653282499999996 L 28.0766395 43.653282499999996 L 27.97445 77.6532825" />
<path class="stroke" d="M 12.9525543 74.9233545 L 27.97445 74.9233545" />
<path class="stroke" d="M 47.8069305 24.329895 L 47.8069305 47.623764 C 47.8069305 75.84158 45.8762381 82.07921 43.5594067 88.019806" />
<path class="stroke" d="M 47.798968 24.455444 L 87.9046375 24.455444 L 87.9046375 27.57732 C 87.9046375 30.206184 87.70360550000001 32.061855 86.798968 34.381443" />
<path class="stroke" d="M 68.2722767 9.60396 L 68.2722767 42.27723" />
<path class="stroke" d="M 55.915843 42.27723 L 80.82178250000001 42.27723 C 78.09409 72.0821 63.44554375 88.91089 49.5445534 89.80198" />
<path class="stroke" d="M 58.92408330000001 43.717278 C 58.93881945 55.470665 75.46334825 89.58115 87.510471 89.58115" />
</svg>
