<?xml version="1.0" standalone="no"?>
<!DOCTYPE svg PUBLIC "-//W3C//DTD SVG 1.1//EN" "http://www.w3.org/Graphics/SVG/1.1/DTD/svg11.dtd">
<svg xmlns="http://www.w3.org/2000/svg" version="1.1" width="100%" height="100%">
<style type="text/css"><![CDATA[
  .stroke { fill:none; stroke:black; stroke-width:2 }
]]></style>
<path class="stroke" d="M 25.912407 7.39050975 C 24.452553 14.83576575 15.109488 22.7189775 9.562042 24.47080125" />
<path class="stroke" d="M 21.532845 18.777371249999998 L 21.532845 67.8284625" />
<path class="stroke" d="M 56.277367 7.60948875 C 54.525543 12.4270065 51.313866 16.587590249999998 46.642334 18.996348750000003" />
<path class="stroke" d="M 21.532845 18.57258 L 75.54744 18.57258" />
<path class="stroke" d="M 48.10219 18.996348750000003 L 48.10219 67.8284625" />
<path class="stroke" d="M 21.532845 35.843887499999994 L 71.75182 35.843887499999994" />
<path class="stroke" d="M 21.532845 51.843063 L 72.04379 51.843063" />
<path class="stroke" d="M 21.532845 67.8284625 L 81.386856 67.8284625" />
<path class="stroke" d="M 18.613138 77.00729 C 18.029196 82.55474 15.69343 87.22627 11.89781 89.85401" />
<path class="stroke" d="M 35.255474 77.88321 C 38.46715 81.678825 40.218975 85.18248 41.67883 90.14598" />
<path class="stroke" d="M 59.197075 78.17518 C 62.408752 81.678825 63.868607 85.47445 65.32846 90.43795" />
<path class="stroke" d="M 81.386856 78.17518 C 84.8905 81.678825 86.9343 84.8905 88.68613 90.43795" />
</svg>
