<?xml version="1.0" standalone="no"?>
<!DOCTYPE svg PUBLIC "-//W3C//DTD SVG 1.1//EN" "http://www.w3.org/Graphics/SVG/1.1/DTD/svg11.dtd">
<svg xmlns="http://www.w3.org/2000/svg" version="1.1" width="100%" height="100%">
<style type="text/css"><![CDATA[
  .stroke { fill:none; stroke:black; stroke-width:2 }
]]></style>
<path class="stroke" d="M 22.334400000000002 5.5205 C 17.45536 17.8233 11.5668 30.7571 3.9116720000000003 40.5363" />
<path class="stroke" d="M 22.334400000000002 5.83596 C 27.213440000000006 11.8296 30.578320000000005 18.4543 34.195600000000006 25.0789" />
<path class="stroke" d="M 9.71608 33.59624 L 32.17664 33.59624" />
<path class="stroke" d="M 5.425868 51.57724 L 35.2050296 51.57724" />
<path class="stroke" d="M 21.829634400000003 33.9117 L 21.829634400000003 88.1703" />
<path class="stroke" d="M 5.173504 61.672 C 8.622480000000001 65.878 11.314400000000001 70.3996 14.00632 75.2366" />
<path class="stroke" d="M 34.448 61.6719 C 32.597280000000005 67.4553 29.989440000000002 72.2923 26.624560000000002 77.1294" />
<path class="stroke" d="M 6.435328 94.4795 L 34.195600000000006 83.7539" />
<path class="stroke" d="M 48.472992 10.145985 L 48.472992 90.43795" />
<path class="stroke" d="M 48.472992 10.145985 L 87.527008 10.145985 L 87.527008 86.05839 C 87.527008 88.68613 86.9664192 90.14598 85.2846656 90.14598 L 83.41605440000001 90.14598" />
<path class="stroke" d="M 56.323503200000005 19.315768592436974 C 58.378977632 23.732134768907564 60.023356895999996 29.80463613445378 61.256641696 35.60111638655462" />
<path class="stroke" d="M 78.11153056 19.315768592436974 C 77.272899712 24.781020483193277 75.54218752 31.18474831932773 73.79503552 35.8771375" />
<path class="stroke" d="M 53.445838784 38.392857142857146 L 81.91415839999999 38.392857142857146" />
<path class="stroke" d="M 67.79135872 44.56897705 L 67.79135872 78.1032844" />
<path class="stroke" d="M 55.295765632 58.5529174 L 55.295765632 79.59671327500001 M 55.295765632 78.1032844 L 79.961456 78.1032844" />
<path class="stroke" d="M 79.961456 58.41715135 L 79.961456 79.73247885999999" />
</svg>
