<?xml version="1.0" standalone="no"?>
<!DOCTYPE svg PUBLIC "-//W3C//DTD SVG 1.1//EN" "http://www.w3.org/Graphics/SVG/1.1/DTD/svg11.dtd">
<svg xmlns="http://www.w3.org/2000/svg" version="1.1" width="100%" height="100%">
<style type="text/css"><![CDATA[
  .stroke { fill:none; stroke:black; stroke-width:2 }
]]></style>
<path class="stroke" d="M 24.924858529411765 11.605839 C 21.57578205882353 27.372261 14.620007647058822 41.970802 8.694717352941176 50.14598" />
<path class="stroke" d="M 19.772431764705882 30.583939 L 19.772431764705882 90.43795" />
<path class="stroke" d="M 42.9219325 10.729925 L 42.9219325 23.86861" />
<path class="stroke" d="M 30.447080125 23.86861 L 57.1624075 23.86861" />
<path class="stroke" d="M 42.381385 39.343063 L 54.20620375 39.343063 C 53.658758125 53.06569 53.22080125 62.116783 52.3448875 70.29197 C 51.25 79.63503 49.279195 88.10219 47.52737125 88.10219 L 45.33759025 88.10219" />
<path class="stroke" d="M 42.928830625 23.86861 L 42.16240825 41.38686 C 41.39598475 60.07299 38.54926975 78.46715 34.27919575 84.014595" />
<path class="stroke" d="M 76.1262385 9.90099 C 75.012376375 22.673267 72.339109375 37.82178 68.2178215 46.435642" />
<path class="stroke" d="M 72.22772275 35.742573 L 91.05197875 35.742573" />
<path class="stroke" d="M 82.36386250000001 36.039604 C 81.0272275 61.287132 75.346535125 82.376236 66.43564375 89.80198" />
<path class="stroke" d="M 72.22772275 43.465347 C 74.67821725 61.58416 86.5965325 90.09901 93.1683175 90.09901" />
</svg>
