<?xml version="1.0" standalone="no"?>
<!DOCTYPE svg PUBLIC "-//W3C//DTD SVG 1.1//EN" "http://www.w3.org/Graphics/SVG/1.1/DTD/svg11.dtd">
<svg xmlns="http://www.w3.org/2000/svg" version="1.1" width="100%" height="100%">
<style type="text/css"><![CDATA[
  .stroke { fill:none; stroke:black; stroke-width:2 }
]]></style>
<path class="stroke" d="M 25.912407 10.729925 C 21.824816 18.029196 16.27737 23.86861 11.021896 28.540146 C 15.109488 31.45985 20.07299 36.131386 24.744522 40.218975" />
<path class="stroke" d="M 37.007298 25.912407 C 30.0 34.67153 20.656933 45.18248 8.978102 56.277367 C 19.48905 54.525543 31.167881 52.48175 41.67883 50.437954" />
<path class="stroke" d="M 38.17518 43.430653 C 41.094887 46.642334 41.970802 49.85401 43.722626 55.40146" />
<path class="stroke" d="M 26.49635 54.233574 L 26.49635 89.56204" />
<path class="stroke" d="M 17.445253 65.03649 C 15.69343 70.87591 13.649633 74.67153 9.562042 78.75912" />
<path class="stroke" d="M 34.08759 65.32846 C 37.299267 68.540146 37.35135 68.81081 38.97297 71.72973" />
<path class="stroke" d="M 61.05109475 21.3686116 L 88.74452275 21.3686116" />
<path class="stroke" d="M 75.0000147 10.05474403 L 75.0000147 34.7642324" />
<path class="stroke" d="M 63.60583855 34.7642324 L 86.2919695 34.7642324" />
<path class="stroke" d="M 59.089415395 46.6773704 L 59.089415395 59.26714936" />
<path class="stroke" d="M 59.089415395 46.16350056 L 92.4105817 46.16350056 L 92.4105817 59.52408296" />
<path class="stroke" d="M 69.57846655 57.01605764 L 69.57846655 68.42043608 C 69.57846655 78.47591059999999 65.97262755 88.40875688 56.9580291 90.98393899999999" />
<path class="stroke" d="M 77.76094764999999 56.89343066 L 77.76094764999999 85.83357559999999 C 77.76094764999999 88.899269 79.56386905 90.7386842 81.505471925 90.7386842 L 92.3229875 90.7386842 C 93.84854024999999 90.8613116 94.95802624999999 89.8802882 94.95802624999999 88.5313826 L 94.95802624999999 86.20145948000001" />
</svg>
