<?xml version="1.0" standalone="no"?>
<!DOCTYPE svg PUBLIC "-//W3C//DTD SVG 1.1//EN" "http://www.w3.org/Graphics/SVG/1.1/DTD/svg11.dtd">
<svg xmlns="http://www.w3.org/2000/svg" version="1.1" width="100%" height="100%">
<style type="text/css"><![CDATA[
  .stroke { fill:none; stroke:black; stroke-width:2 }
]]></style>
<path class="stroke" d="M 32.8759096 10.729925 C 27.036496 15.109488 20.029196 18.029196 13.7226272 19.781021" />
<path class="stroke" d="M 8.8175168 41.094887 L 36.145984 37.299267" />
<path class="stroke" d="M 24.0 16.569342 L 24.0 86.642334" />
<path class="stroke" d="M 24.0 44.890507 C 18.6277376 57.153282 14.189779999999999 65.03649 8.116788 68.540146" />
<path class="stroke" d="M 24.0 44.890507 C 28.9051088 48.394157 31.7080264 51.313866 34.043792 56.277367" />
<path class="stroke" d="M 68.11384699999999 23.7666 C 70.920612 27.0243 72.69842700000001 30.9179 74.270387 35.7618" />
<path class="stroke" d="M 86.56937500000001 18.7698 C 79.324345 46.3197 63.467335000000006 72.6078 46.38007 83.4385" />
<path class="stroke" d="M 52.138211999999996 40.1662 L 55.613112 57.9666 C 59.087232 72.7646 65.228432 79.3781 77.706027 79.6917 L 88.591577 79.3772 C 89.827032 79.3772 91.261777 77.7979 91.056702 75.2693 L 91.056702 73.6772" />
<path class="stroke" d="M 44.956375 49.3503 C 44.476675 58.5026 42.97043 64.1837 40.23003 69.8629" />
<path class="stroke" d="M 84.48904089999999 39.643837 C 90.0452045 43.260273 91.968496 46.876713 94.105475 52.79452" />
</svg>
