<?xml version="1.0" standalone="no"?>
<!DOCTYPE svg PUBLIC "-//W3C//DTD SVG 1.1//EN" "http://www.w3.org/Graphics/SVG/1.1/DTD/svg11.dtd">
<svg xmlns="http://www.w3.org/2000/svg" version="1.1" width="100%" height="100%">
<style type="text/css"><![CDATA[
  .stroke { fill:none; stroke:black; stroke-width:2 }
]]></style>
<path class="stroke" d="M 8.8248168 6.125 L 41.175180000000005 6.125" />
<path class="stroke" d="M 9.02516 14.2245299 L 9.02516 33.765097100000006" />
<path class="stroke" d="M 9.15092 14.151887330000001 L 40.72328 14.151887330000001 L 40.72328 33.765097100000006" />
<path class="stroke" d="M 24.119488 22.4330225 L 24.119488 33.765097100000006" />
<path class="stroke" d="M 58.8248168 6.125 L 91.17518000000001 6.125" />
<path class="stroke" d="M 59.02516 14.2245299 L 59.02516 33.765097100000006" />
<path class="stroke" d="M 59.15092 14.151887330000001 L 90.72328 14.151887330000001 L 90.72328 33.765097100000006" />
<path class="stroke" d="M 74.119488 22.4330225 L 74.119488 33.765097100000006" />
<path class="stroke" d="M 49.05361 36.6987417 L 49.05361 41.7713251" />
<path class="stroke" d="M 12.1451 42.1940214 L 92.9022 42.1940214" />
<path class="stroke" d="M 12.145143 42.40536419 L 12.145143 73.8974432 C 12.565743 83.4789122 10.778143 89.89007520000001 5.835963 96.30123418000001" />
<path class="stroke" d="M 12.776 52.761784000000006 L 85.3313 52.761784000000006 L 85.3313 64.809121" />
<path class="stroke" d="M 36.1199 46.843875000000004 L 36.1199 64.809121" />
<path class="stroke" d="M 61.67197 46.843875000000004 L 61.67197 64.597803" />
<path class="stroke" d="M 12.776 64.809121 L 85.3313 64.809121" />
<path class="stroke" d="M 31.7034 78.758655 C 38.4332 78.547337 44.8475 77.701931 50.9463 76.011052" />
<path class="stroke" d="M 31.38797 71.57254119000001 L 31.38797 94.1876562 M 27.297295 94.74864385000001 L 52.5237 91.44008000000001" />
<path class="stroke" d="M 88.48587 77.4905125 C 81.96647 81.08358849999999 73.55417 82.9858525 64.19557 83.83119150000002" />
<path class="stroke" d="M 63.56466 71.57261020000001 L 63.56466 92.4968442 C 63.35436 94.8922282 65.35226 96.2307542 68.61196 96.3012382 L 85.96216 96.3012382 C 89.85276 96.3012382 91.85066 94.82174420000001 91.95586 92.4968442 L 91.95586 90.3832622" />
</svg>
