<?xml version="1.0" standalone="no"?>
<!DOCTYPE svg PUBLIC "-//W3C//DTD SVG 1.1//EN" "http://www.w3.org/Graphics/SVG/1.1/DTD/svg11.dtd">
<svg xmlns="http://www.w3.org/2000/svg" version="1.1" width="100%" height="100%">
<style type="text/css"><![CDATA[
  .stroke { fill:none; stroke:black; stroke-width:2 }
]]></style>
<path class="stroke" d="M 7.543611428571428 11.089109 L 27.28110476190476 11.290321 C 28.755760761904764 17.741934 24.331795809523808 33.225803 19.9078339047619 40.0" />
<path class="stroke" d="M 19.9078339047619 40.96774 C 23.59446857142857 44.51613 26.54377676190476 49.032257 28.01843276190476 54.19355 C 29.493085714285712 57.09677 29.493085714285712 65.161285 21.62826361904762 68.38709 L 16.95852495238095 69.354836" />
<path class="stroke" d="M 9.806694095238095 11.089109 L 9.806694095238095 90.09901" />
<path class="stroke" d="M 49.32182 6.506302916666667 C 45.567859999999996 16.33803875 41.151489999999995 21.543148 34.968453 26.74816375" />
<path class="stroke" d="M 46.67197 12.868075 L 66.06598939999999 12.609983833333333 C 57.93371 30.989291666666666 47.77608 43.616375 34.305994 50.74923333333333" />
<path class="stroke" d="M 47.99686 20.96480833333333 L 55.28393 29.929075" />
<path class="stroke" d="M 41.372220999999996 28.19398083333333 L 49.542621 38.025689166666666" />
<path class="stroke" d="M 71.6245599 12.868035583333333 L 93.48576779999999 12.868035583333333 C 89.216605 22.31428558333333 83.76595699999999 27.109930833333333 80.489362 31.790779166666663" />
<path class="stroke" d="M 69.170215 4.583333333333333 C 74.829792 28.670213 82.96003999999999 41.592099999999995 95.47317 50.74914166666666" />
<path class="stroke" d="M 53.29656 44.9416445 L 77.80761999999999 44.9416445" />
<path class="stroke" d="M 40.047317 60.159300900000005 L 90.835894 60.159300900000005" />
<path class="stroke" d="M 65.4416496 60.370639 L 65.4416496 91.86278300000001 C 65.4416496 94.117266 63.675058899999996 95.526276 62.129321 95.455859 L 59.258618899999995 95.455859" />
<path class="stroke" d="M 52.85486 71.361118 C 49.02733 79.110941 43.43321 84.535797 35.410097 88.058389" />
<path class="stroke" d="M 78.02847 71.78395499999999 C 84.65313 76.151953 89.29021 81.154106 93.70665 88.058389" />
</svg>
