<?xml version="1.0" standalone="no"?>
<!DOCTYPE svg PUBLIC "-//W3C//DTD SVG 1.1//EN" "http://www.w3.org/Graphics/SVG/1.1/DTD/svg11.dtd">
<svg xmlns="http://www.w3.org/2000/svg" version="1.1" width="100%" height="100%">
<style type="text/css"><![CDATA[
  .stroke { fill:none; stroke:black; stroke-width:2 }
]]></style>
<path class="stroke" d="M 12.189779 14.124087 L 87.81021 14.124087" />
<path class="stroke" d="M 34.67153 7.5547431000000005 L 34.67153 21.218976899999998" />
<path class="stroke" d="M 65.32846 7.5547431000000005 L 65.32846 21.218976899999998" />
<path class="stroke" d="M 9.62145 28.8328104 L 9.62145 93.80442000000001" />
<path class="stroke" d="M 9.62145 28.8328104 L 89.7476 28.8328104 L 89.7476 89.48898799999999 C 89.6425 91.96636000000001 87.6446 93.244984 85.6467 93.32493600000001 L 81.5458 93.32493600000001" />
<path class="stroke" d="M 49.6845 28.8328104 L 49.6845 93.56464" />
<path class="stroke" d="M 28.1678828 35.058686015999996 C 26.416058 40.029196672 24.226277 44.467152224 22.0364957 48.37255449600001 L 26.54537 56.537440000000004" />
<path class="stroke" d="M 33.1605821 45.354743456 C 30.55829 50.8443104 25.75139 59.434316800000005 21.160583 67.544521216 L 35.788319 64.349195456" />
<path class="stroke" d="M 34.5620438 58.84613152 C 35.700728 61.508904 36.48905 63.994161152000004 36.751823 67.544521216" />
<path class="stroke" d="M 28.956203000000002 66.12437792 L 28.9506851 85.685916992" />
<path class="stroke" d="M 20.5474448 73.40262432 C 20.1094886 76.42043232 19.4087588 79.083208448 18.2700728 81.39094784" />
<path class="stroke" d="M 36.751823 73.58014208 C 37.890508999999994 75.53284352 38.59124 77.84058048 39.1167878 81.39094784" />
<path class="stroke" d="M 60.846715 46.06481753600001 L 60.846715 65.76933875200001" />
<path class="stroke" d="M 60.846715 46.242334688 L 79.328467 46.242334688 L 79.328467 65.94686016" />
<path class="stroke" d="M 60.846715 63.510572544000006 L 79.328467 63.510572544000006" />
<path class="stroke" d="M 69.996997 34.703648672 L 69.996997 82.278539072" />
<path class="stroke" d="M 60.2335759 84.9413152 L 79.41605679999999 79.79328192" />
<path class="stroke" d="M 77.664232 74.11270144 C 79.153285 77.3080272 79.941604 80.858390912 80.46715 84.9413152" />
</svg>
