<?xml version="1.0" standalone="no"?>
<!DOCTYPE svg PUBLIC "-//W3C//DTD SVG 1.1//EN" "http://www.w3.org/Graphics/SVG/1.1/DTD/svg11.dtd">
<svg xmlns="http://www.w3.org/2000/svg" version="1.1" width="100%" height="100%">
<style type="text/css"><![CDATA[
  .stroke { fill:none; stroke:black; stroke-width:2 }
]]></style>
<path class="stroke" d="M 11.313868 17.445253 C 15.401459 18.029196 19.48905 20.364962 22.408756 24.160583" />
<path class="stroke" d="M 9.270073 47.226276 C 13.357662 47.226276 18.321167 46.934303 23.86861 43.138683 C 16.27737 53.357662 14.233576 58.321167 15.109488 60.9489 C 15.69343 63.284668 20.948904 65.62044 22.116787 68.832115 C 23.576641 72.33576 18.129246 80.26506 11.021896 83.722626" />
<path class="stroke" d="M 11.021896 84.014595 C 39.692924 81.65476 40.51095 91.313866 90.43795 90.14598" />
<path class="stroke" d="M 46.282357000000005 7.372242799999999 C 49.94585000000001 11.166103999999999 51.918464 14.96008 53.679827 20.305988" />
<path class="stroke" d="M 75.238216 7.3722346 C 73.476853 12.631936 71.504306 15.82231 67.840679 20.047278" />
<path class="stroke" d="M 38.25080905 20.564698 L 83.6924234 20.564698" />
<path class="stroke" d="M 32.75552064 41.776047999999996 L 89.6104128 41.776047999999996" />
<path class="stroke" d="M 61.288615 20.823408 L 61.288615 41.776047999999996 C 59.386418 60.659335999999996 49.875366 71.52368 34.6577297 76.43851399999998" />
<path class="stroke" d="M 61.288548 41.776047999999996 C 62.979427 59.710842 70.799667 71.178788 86.86278300000001 76.179886" />
</svg>
