<?xml version="1.0" standalone="no"?>
<!DOCTYPE svg PUBLIC "-//W3C//DTD SVG 1.1//EN" "http://www.w3.org/Graphics/SVG/1.1/DTD/svg11.dtd">
<svg xmlns="http://www.w3.org/2000/svg" version="1.1" width="100%" height="100%">
<style type="text/css"><![CDATA[
  .stroke { fill:none; stroke:black; stroke-width:2 }
]]></style>
<path class="stroke" d="M 12.46055 8.044167 L 89.74765 8.044167 L 89.74765 20.662558" />
<path class="stroke" d="M 12.46055 20.662558 L 89.74765 20.662558" />
<path class="stroke" d="M 12.14511 8.044167 L 12.14511 58.20186 C 12.25031 72.92316 10.46261 81.01996 6.15142 94.164055" />
<path class="stroke" d="M 83.922725 28.63407 C 64.88485 31.67084 44.77453 32.549932 25.736655 32.70976" />
<path class="stroke" d="M 25.736606549999998 42.0599488 L 25.736606549999998 54.5268368" />
<path class="stroke" d="M 25.736606549999998 42.0599488 L 83.9226791 42.0599488 L 83.9226791 54.5268368" />
<path class="stroke" d="M 25.736606549999998 54.5268368 L 83.9226791 54.5268368" />
<path class="stroke" d="M 20.105677 65.075728 L 20.105677 94.32493600000001" />
<path class="stroke" d="M 20.105677 65.075728 L 90.626165 65.075728 L 90.626165 89.769724 C 90.71558499999999 92.327048 88.92795 93.92532800000001 86.872225 93.845452 L 82.850195 93.845452" />
<path class="stroke" d="M 54.963735 31.9905568 L 54.963735 79.9400968" />
<path class="stroke" d="M 34.317065 85.93369240000001 C 46.651415 81.1387764 60.59456 78.7412804 73.46526 77.7823124" />
<path class="stroke" d="M 68.90696500000001 72.26813240000001 C 73.10775000000001 76.1040804 75.431735 80.1797324 76.414845 84.7350204" />
</svg>
