<?xml version="1.0" standalone="no"?>
<!DOCTYPE svg PUBLIC "-//W3C//DTD SVG 1.1//EN" "http://www.w3.org/Graphics/SVG/1.1/DTD/svg11.dtd">
<svg xmlns="http://www.w3.org/2000/svg" version="1.1" width="100%" height="100%">
<style type="text/css"><![CDATA[
  .stroke { fill:none; stroke:black; stroke-width:2 }
]]></style>
<path class="stroke" d="M 54.10092 6.46688 L 54.10092 14.66882" />
<path class="stroke" d="M 18.7697 14.98422 L 93.8486 14.98422" />
<path class="stroke" d="M 18.7697 15.2997 L 18.7697 59.7792 C 19.0852 71.2408 14.6687 79.2323 6.46688 87.5394" />
<path class="stroke" d="M 5.83596 25.07884 C 8.78023 28.65404 10.4627 32.22924 11.8297 36.43534" />
<path class="stroke" d="M 6.15141 58.20189 C 8.14931 57.04519 10.4627 54.62679 12.1451 52.20829" />
<path class="stroke" d="M 29.88467024 27.7 L 88.115324 27.7" />
<path class="stroke" d="M 37.032116 44.5535574361 L 37.032116 90.180269467" />
<path class="stroke" d="M 37.032116 44.5535574361 L 80.967884 44.5535574361 L 80.967884 87.6915407014 C 80.967884 89.1847802338 80.33722159999999 90.0143545948 78.4452488 90.0143545948 L 76.3430612 90.0143545948" />
<path class="stroke" d="M 61.932551864000004 34.528831009 C 59.851385168 48.085328194 51.71590976 57.392772801999996 43.7696348 62.45116414" />
<path class="stroke" d="M 58.90539848 49.906348549 C 63.256934912 52.132043482 68.3652524 56.178756691000004 71.5816004 62.653502122" />
</svg>
