<?xml version="1.0" standalone="no"?>
<!DOCTYPE svg PUBLIC "-//W3C//DTD SVG 1.1//EN" "http://www.w3.org/Graphics/SVG/1.1/DTD/svg11.dtd">
<svg xmlns="http://www.w3.org/2000/svg" version="1.1" width="100%" height="100%">
<style type="text/css"><![CDATA[
  .stroke { fill:none; stroke:black; stroke-width:2 }
]]></style>
<path class="stroke" d="M 3.0437955 47.0 L 26.956203 47.0" />
<path class="stroke" d="M 15.0 8.978102 L 15.0 90.72992" />
<path class="stroke" d="M 43.83649408 16.27372222 L 81.39561600000002 15.12919688 C 80.46131199999999 31.438684199999997 77.65839360000001 40.165692 76.72408704 42.025545799999996 C 75.60291520000001 43.599267039999994 73.3605824 44.0284649 71.491968 44.1715302 L 69.6233536 44.0284649" />
<path class="stroke" d="M 62.3357632 5.11459844 C 60.09342720000001 21.13795467 52.8058368 37.44744395 41.03357568 42.025545799999996" />
<path class="stroke" d="M 32.099852624 65.27007256 L 55.1048148 64.05547424 C 54.5325536 81.3635016 52.815766079999996 90.62481600000001 52.243503312 92.5985384 C 51.556785559999994 94.26860991999999 50.183356720000006 94.7240852 49.0388304 94.8759096 L 47.89430408 94.7240852" />
<path class="stroke" d="M 43.43065496 53.42773712 C 42.057224160000004 70.43211516 37.593575040000005 87.74014460000001 30.383065104 92.5985384" />
<path class="stroke" d="M 66.89576497600001 64.60218934 L 90.83970520000001 63.36423336 C 90.2440864 81.0051074 88.45722592 90.444524 87.86160548800001 92.4562026 C 87.14685844 94.15839088 85.71737128 94.62262530000001 84.52612959999999 94.7773694 L 83.33488792 94.62262530000001" />
<path class="stroke" d="M 78.68904904 52.53211668 C 77.25955984000001 69.86350199 72.61372096 87.50437815000001 65.10890449600001 92.4562026" />
</svg>
