<?xml version="1.0" standalone="no"?>
<!DOCTYPE svg PUBLIC "-//W3C//DTD SVG 1.1//EN" "http://www.w3.org/Graphics/SVG/1.1/DTD/svg11.dtd">
<svg xmlns="http://www.w3.org/2000/svg" version="1.1" width="100%" height="100%">
<style type="text/css"><![CDATA[
  .stroke { fill:none; stroke:black; stroke-width:2 }
]]></style>
<path class="stroke" d="M 31.090507600000002 9.562042 L 31.090507600000002 42.26277" />
<path class="stroke" d="M 13.3503639 15.985401 C 16.427737 20.364962 18.23795596 24.452553 19.505107 31.167881" />
<path class="stroke" d="M 47.0204342 16.569342 C 46.115324099999995 22.992699 44.1240856 27.080292 41.22773452 30.875912" />
<path class="stroke" d="M 10.454014059999999 42.1136 L 51.5459816 42.1136" />
<path class="stroke" d="M 25.297808540000002 47.518246 C 23.4875902 66.20438 17.1518226 82.26277 10.0919694 87.51824" />
<path class="stroke" d="M 35.0216176 47.72973 L 35.0216176 86.32432 L 47.4886458 78.86486" />
<path class="stroke" d="M 55.93430585 9.175180999999995 L 55.93430585 19.189777899999996" />
<path class="stroke" d="M 55.93430585 8.766420899999996 L 92.065691 8.766420899999996 L 92.065691 19.3941569" />
<path class="stroke" d="M 61.34622615 22.1020447 L 87.792552 22.1020447" />
<path class="stroke" d="M 61.60173984 35.7129207 L 61.60173984 70.8287374" />
<path class="stroke" d="M 61.60173984 35.7129207 L 87.2815392 35.7129207 L 87.2815392 70.8287374" />
<path class="stroke" d="M 61.729477245 53.40685482 L 87.153763725 53.40685482" />
<path class="stroke" d="M 61.60173984 70.8287374 L 87.2815392 70.8287374" />
<path class="stroke" d="M 57.00236544 83.3506642 L 91.75315230000001 83.3506642" />
<path class="stroke" d="M 74.25001215 13.391166276 L 74.25001215 93.42264019999999" />
</svg>
