<?xml version="1.0" standalone="no"?>
<!DOCTYPE svg PUBLIC "-//W3C//DTD SVG 1.1//EN" "http://www.w3.org/Graphics/SVG/1.1/DTD/svg11.dtd">
<svg xmlns="http://www.w3.org/2000/svg" version="1.1" width="100%" height="100%">
<style type="text/css"><![CDATA[
  .stroke { fill:none; stroke:black; stroke-width:2 }
]]></style>
<path class="stroke" d="M 26.788319 10.300081111111112 C 24.452553 19.059204444444443 21.824816 24.574207777777776 16.861313 28.791563333333336" />
<path class="stroke" d="M 24.452553 20.03244 L 47.226276 20.03244" />
<path class="stroke" d="M 30.0 20.681264444444444 C 34.08759 25.87185777777778 35.547443 30.089213333333333 36.423355 37.8751" />
<path class="stroke" d="M 65.32846 10.300081111111112 C 63.284668 21.005674444444445 60.07299 25.547443333333337 57.44525 28.791563333333336" />
<path class="stroke" d="M 62.9927 20.356852222222223 L 86.35036 20.356852222222223" />
<path class="stroke" d="M 72.62773 21.005674444444445 C 72.9197 28.142738888888893 71.16788 33.00891888888889 67.9562 37.8751" />
<path class="stroke" d="M 7.029217391304347 46.0794604 L 42.689565217391305 46.0794604" />
<path class="stroke" d="M 24.85945652173913 46.3104064 L 24.85945652173913 80.2548568" />
<path class="stroke" d="M 8.057882608695651 84.64224519999999 L 42.68960869565217 76.0984876" />
<path class="stroke" d="M 53.818642 42.015772 L 53.607257000000004 73.62466 C 53.536773000000004 82.7098 46.702907 90.65932 37.9668775 93.30915999999999" />
<path class="stroke" d="M 53.818575 41.826496 L 79.81544600000001 41.826496 L 79.81544600000001 88.95586 C 79.95634700000001 92.17354 81.99944500000001 93.30915999999999 84.46524600000001 93.49846 L 91.44008000000001 93.49846 C 93.90588100000001 93.49846 96.583067 91.98424 96.301265 89.52369999999999 L 96.301265 85.35964" />
<path class="stroke" d="M 60.370639 57.914818 C 66.640901 60.8170156 70.374878 65.4227362 73.474767 71.73185799999999" />
</svg>
