<?xml version="1.0" standalone="no"?>
<!DOCTYPE svg PUBLIC "-//W3C//DTD SVG 1.1//EN" "http://www.w3.org/Graphics/SVG/1.1/DTD/svg11.dtd">
<svg xmlns="http://www.w3.org/2000/svg" version="1.1" width="100%" height="100%">
<style type="text/css"><![CDATA[
  .stroke { fill:none; stroke:black; stroke-width:2 }
]]></style>
<path class="stroke" d="M 13.154171785714285 14.059406 C 16.654879285714284 16.138615 20.15558785714286 19.108912 23.01980357142857 22.673267" />
<path class="stroke" d="M 10.926448928571428 38.118813 C 14.108912142857141 39.90099 17.927864999999997 42.574257 20.473834285714286 46.138615" />
<path class="stroke" d="M 10.608203571428572 85.64356 C 11.321795357142857 87.422676 13.310014285714285 89.896904 15.629600357142856 89.896904 C 17.949189642857142 89.896904 21.110325 76.73267 23.33804892857143 69.60396" />
<path class="stroke" d="M 56.821795 7.413245 C 60.449545 8.675085 63.367495000000005 11.829615 65.57572 15.930615" />
<path class="stroke" d="M 44.992075 24.7634 L 62.263374999999996 24.7634 L 62.263374999999996 90.6939 C 62.105650000000004 93.533 61.0015 94.4794 59.660799999999995 94.4794 L 57.0583 94.4794" />
<path class="stroke" d="M 31.742905 44.32184 L 55.40215 44.32184 C 52.4053 67.35024 43.020475000000005 79.96854 29.8501525 88.80124" />
<path class="stroke" d="M 88.52524 34.22712 C 84.029965 44.53212 81.664015 47.89702 75.512665 53.15452" />
<path class="stroke" d="M 62.263374999999996 27.9181 C 64.3927 65.5626 81.900625 84.5951 95.38645 88.8013" />
</svg>
