<?xml version="1.0" standalone="no"?>
<!DOCTYPE svg PUBLIC "-//W3C//DTD SVG 1.1//EN" "http://www.w3.org/Graphics/SVG/1.1/DTD/svg11.dtd">
<svg xmlns="http://www.w3.org/2000/svg" version="1.1" width="100%" height="100%">
<style type="text/css"><![CDATA[
  .stroke { fill:none; stroke:black; stroke-width:2 }
]]></style>
<path class="stroke" d="M 27.956203 11.7016404375 L 72.62773 11.7016404375" />
<path class="stroke" d="M 13.065693 24.183392374999997 C 13.065693 30.7709833125 12.773722 35.278282062500004 11.313868 40.13229875" />
<path class="stroke" d="M 13.357662 24.183392374999997 L 87.51824 24.183392374999997 C 87.22627 31.1176965 86.35036 34.58484975 85.18248 38.0520041875" />
<path class="stroke" d="M 50.165638 11.7016404375 L 50.165638 55.0410525" />
<path class="stroke" d="M 27.080292 32.504559937500005 C 31.45985 33.5447054375 34.37956 35.278282062500004 37.299267 39.0921485" />
<path class="stroke" d="M 27.372261 44.6395975 C 30.875912 45.333026249999996 33.79562 47.413319625 37.007298 52.2673315625" />
<path class="stroke" d="M 60.9489 32.504559937500005 C 64.74452 33.1979910625 67.9562 34.931568874999996 72.04379 38.7454353125" />
<path class="stroke" d="M 60.9489 44.986311875 C 65.03649 45.679740624999994 68.540146 48.8001783125 71.45985 52.2673315625" />
<path class="stroke" d="M 11.929092571428571 67.62335714 L 37.95620342857143 67.62335714" />
<path class="stroke" d="M 27.278411428571427 63.24554472 L 27.278411428571427 91.2554724" />
<path class="stroke" d="M 27.278411428571427 70.72992668 C 22.940559999999998 73.94744406 17.601667428571428 76.943065 9.927006857142857 78.60729893999999" />
<path class="stroke" d="M 27.278411428571427 70.72992668 C 32.283626285714284 71.17372146 35.620435428571426 73.0598526 37.28884 74.83503514" />
<path class="stroke" d="M 52.38175101 67.2888462104 L 52.38175101 90.113253504" />
<path class="stroke" d="M 52.38175101 67.2888462104 L 84.44014546 67.2888462104 L 84.44014546 90.03115154" />
<path class="stroke" d="M 52.38175101 74.2609488176 L 84.44014546 74.2609488176" />
<path class="stroke" d="M 52.38175101 82.089470208 L 84.44014546 82.089470208" />
<path class="stroke" d="M 52.38175101 89.292231052 L 84.44014546 89.292231052" />
</svg>
