<?xml version="1.0" standalone="no"?>
<!DOCTYPE svg PUBLIC "-//W3C//DTD SVG 1.1//EN" "http://www.w3.org/Graphics/SVG/1.1/DTD/svg11.dtd">
<svg xmlns="http://www.w3.org/2000/svg" version="1.1" width="100%" height="100%">
<style type="text/css"><![CDATA[
  .stroke { fill:none; stroke:black; stroke-width:2 }
]]></style>
<path class="stroke" d="M 50.312496 6.51459825 L 50.312496 15.49269975" />
<path class="stroke" d="M 14.233576 15.49269975 L 14.233576 26.4416055" />
<path class="stroke" d="M 14.233576 15.49269975 L 86.05839 15.49269975 L 86.05839 26.4416055" />
<path class="stroke" d="M 38.46715 22.93795425 C 35.547443 30.60218775 27.956203 37.8284655 19.197079 40.45620375" />
<path class="stroke" d="M 60.40019 21.62408625 L 60.40019 31.554757499999997 C 60.65693 35.419707 63.23729 37.5425325 67.96229 37.4636325 L 85.93139 37.4637075" />
<path class="stroke" d="M 6.46688 46.71922 L 93.5331 46.71922" />
<path class="stroke" d="M 44.3218 46.90852 C 39.1694 54.92116 33.3859 60.094660000000005 24.7634 65.83594 M 13.7224 66.971638 C 36.5406 65.899078 57.7813 64.258678 77.7603 61.104118" />
<path class="stroke" d="M 70.8202 55.993738 C 75.8676 58.643518 79.653 62.239738 82.4921 65.835958" />
<path class="stroke" d="M 24.447985 79.46372199999999 L 79.02209 79.46372199999999" />
<path class="stroke" d="M 50.9464 70.18928199999999 L 50.9464 95.552062" />
<path class="stroke" d="M 6.78233 95.552062 L 92.2713 95.552062" />
</svg>
