<?xml version="1.0" standalone="no"?>
<!DOCTYPE svg PUBLIC "-//W3C//DTD SVG 1.1//EN" "http://www.w3.org/Graphics/SVG/1.1/DTD/svg11.dtd">
<svg xmlns="http://www.w3.org/2000/svg" version="1.1" width="100%" height="100%">
<style type="text/css"><![CDATA[
  .stroke { fill:none; stroke:black; stroke-width:2 }
]]></style>
<path class="stroke" d="M 20.770715441176474 11.605839 C 17.979818382352942 27.372261 12.183339705882354 41.970802 7.245597794117647 50.14598" />
<path class="stroke" d="M 16.477026470588235 30.583939 L 16.477026470588235 90.43795" />
<path class="stroke" d="M 45.96715225 11.2910565625 L 79.4707975 11.2910565625" />
<path class="stroke" d="M 34.79926975 23.334852291666664 C 34.79926975 29.6912996875 34.5802915 34.040447604166665 33.485400999999996 38.724147916666666" />
<path class="stroke" d="M 35.018246500000004 23.334852291666664 L 90.63868000000001 23.334852291666664 C 90.4197025 30.025847499999998 89.76276999999999 33.371346249999995 88.88686 36.71684614583333" />
<path class="stroke" d="M 62.6242285 11.2910565625 L 62.6242285 53.109787499999996" />
<path class="stroke" d="M 45.310219000000004 31.3640490625 C 48.5948875 32.36769822916666 50.78467 34.040447604166665 52.974450250000004 37.72049416666667" />
<path class="stroke" d="M 45.52919575 43.07329583333333 C 48.156934 43.74239374999999 50.346715 45.749694375 52.7554735 50.43339010416666" />
<path class="stroke" d="M 70.711675 31.3640490625 C 73.55839 32.03314927083333 75.96715 33.70589979166667 79.0328425 37.38594635416666" />
<path class="stroke" d="M 70.711675 43.40784479166666 C 73.7773675 44.07694270833333 76.4051095 47.087891354166665 78.5948875 50.43339010416666" />
<path class="stroke" d="M 29.613565 55.465295 L 95.38645 55.465295" />
<path class="stroke" d="M 61.7902 55.60727 C 61.7902 59.53469 59.42425 62.752415 52.326475 64.55048000000001" />
<path class="stroke" d="M 35.764975 64.55048000000001 L 35.764975 91.947965" />
<path class="stroke" d="M 35.764975 64.55048000000001 L 87.34232499999999 64.55048000000001 L 87.34232499999999 89.108825 C 87.50005 91.096205 86.00162499999999 91.94792000000001 83.556775 91.94792000000001 L 80.24455 91.94792000000001" />
<path class="stroke" d="M 52.3264825 64.83439265 L 52.3264825 89.81861900000001" />
<path class="stroke" d="M 69.36122499999999 64.83439265 L 69.36122499999999 89.81861900000001" />
</svg>
