<?xml version="1.0" standalone="no"?>
<!DOCTYPE svg PUBLIC "-//W3C//DTD SVG 1.1//EN" "http://www.w3.org/Graphics/SVG/1.1/DTD/svg11.dtd">
<svg xmlns="http://www.w3.org/2000/svg" version="1.1" width="100%" height="100%">
<style type="text/css"><![CDATA[
  .stroke { fill:none; stroke:black; stroke-width:2 }
]]></style>
<path class="stroke" d="M 10.961809821428572 14.059406 C 13.879066071428571 16.138615 16.796323214285717 19.108912 19.183169642857145 22.673267" />
<path class="stroke" d="M 9.105374107142858 38.118813 C 11.757426785714285 39.90099 14.939887500000001 42.574257 17.06152857142857 46.138615" />
<path class="stroke" d="M 8.840169642857143 85.64356 C 9.434829464285714 87.422676 11.091678571428572 89.896904 13.024666964285714 89.896904 C 14.957658035714285 89.896904 17.5919375 76.73267 19.448374107142858 69.60396" />
<path class="stroke" d="M 62.609485 6.95255475 L 62.609485 16.587590249999998" />
<path class="stroke" d="M 34.361312874999996 16.806567 L 34.361312874999996 27.31751625" />
<path class="stroke" d="M 34.361312874999996 16.806567 L 90.8576575 16.806567 L 90.8576575 27.31751625" />
<path class="stroke" d="M 44.5041598015 24.0 L 79.74583671250001 24.0" />
<path class="stroke" d="M 39.659977225 36.57566428999999 L 39.659977225 73.7156555" />
<path class="stroke" d="M 39.915263229999994 36.57568823 L 85.1006284 36.57567059 L 84.93877839999999 73.8362123" />
<path class="stroke" d="M 62.125 27.174499999999995 L 62.125 71.0855" />
<path class="stroke" d="M 39.915263229999994 54.23802739999999 L 85.1006284 54.2380085" />
<path class="stroke" d="M 39.915263229999994 71.2196522 L 85.1006284 71.36084779999999" />
<path class="stroke" d="M 48.777625 76.183 C 46.5694 85.121 41.522125 89.958 35.764975 92.5868" />
<path class="stroke" d="M 74.32967500000001 76.1829 C 77.32645000000001 85.0157 81.506275 89.4321 87.34225 92.5867" />
</svg>
