<?xml version="1.0" standalone="no"?>
<!DOCTYPE svg PUBLIC "-//W3C//DTD SVG 1.1//EN" "http://www.w3.org/Graphics/SVG/1.1/DTD/svg11.dtd">
<svg xmlns="http://www.w3.org/2000/svg" version="1.1" width="100%" height="100%">
<style type="text/css"><![CDATA[
  .stroke { fill:none; stroke:black; stroke-width:2 }
]]></style>
<path class="stroke" d="M 8.89344642857143 11.089109 L 24.313363095238095 11.290321 C 25.465438095238095 17.741934 22.009215476190477 33.225803 18.552995238095235 40.0" />
<path class="stroke" d="M 18.552995238095235 40.96774 C 21.43317857142857 44.51613 23.737325595238094 49.032257 24.889400595238094 54.19355 C 26.041473214285713 57.09677 26.041473214285713 65.161285 19.897080952380954 68.38709 L 16.24884761904762 69.354836" />
<path class="stroke" d="M 10.661479761904761 11.089109 L 10.661479761904761 90.09901" />
<path class="stroke" d="M 36.07999856 5.0 C 35.61297128 16.999998 33.51135104 26.648647 31.17621536 33.783783" />
<path class="stroke" d="M 36.07999856 11.729729 L 92.5902656 11.729729 L 92.5902656 65.24324 C 92.1360176 81.22643 85.394384 92.6919 77.217704 92.9022 L 73.81073599999999 92.9022" />
<path class="stroke" d="M 46.750515199999995 21.9684528 C 45.3574592 29.118816000000002 42.5108096 34.767576000000005 37.6653824 39.772852" />
<path class="stroke" d="M 44.388396799999995 30.119844 L 79.45712 30.119844" />
<path class="stroke" d="M 35.48491712 51.141976 L 85.81679360000001 51.141976" />
<path class="stroke" d="M 60.560028800000005 30.334373120000002 L 60.560028800000005 81.17355040000001" />
<path class="stroke" d="M 39.4823744 60.794984 L 39.4823744 81.388036 L 81.09249919999999 81.388036" />
<path class="stroke" d="M 81.09249919999999 60.365904 L 81.09249919999999 81.388036" />
</svg>
