<?xml version="1.0" standalone="no"?>
<!DOCTYPE svg PUBLIC "-//W3C//DTD SVG 1.1//EN" "http://www.w3.org/Graphics/SVG/1.1/DTD/svg11.dtd">
<svg xmlns="http://www.w3.org/2000/svg" version="1.1" width="100%" height="100%">
<style type="text/css"><![CDATA[
  .stroke { fill:none; stroke:black; stroke-width:2 }
]]></style>
<path class="stroke" d="M 25.507986486486487 15.109488 C 20.536593243243246 22.70073 15.328465135135136 27.956203 10.830536756756757 30.875912" />
<path class="stroke" d="M 26.92838756756757 35.547443 C 21.956993513513513 43.138683 14.85500027027027 49.85401 8.463207567567569 53.06569" />
<path class="stroke" d="M 19.826394324324326 45.47445 L 19.826394324324326 89.85401" />
<path class="stroke" d="M 47.6233804 7.72839357 L 47.6233804 26.55087576" />
<path class="stroke" d="M 33.77883124 15.577443959999998 L 33.77883124 27.389122935 M 33.77883124 26.55087576 L 61.107295 26.55087576" />
<path class="stroke" d="M 61.107295 15.501239790000001 L 61.107295 27.465326843999996" />
<path class="stroke" d="M 36.4737224 43.576203648 L 63.8021872 43.576203648" />
<path class="stroke" d="M 50.4416036 43.576203648 L 50.4416036 84.421748736" />
<path class="stroke" d="M 36.77737016 63.08452336799999 L 63.4985384 63.08452336799999" />
<path class="stroke" d="M 34.95547424 87.46992528 L 65.927734 81.78" />
<path class="stroke" d="M 76.44455532 9.90099 C 75.34554469 22.673267 72.70792125 37.82178 68.64158388 46.435642" />
<path class="stroke" d="M 72.59801978 35.742573 L 91.1712857 35.742573" />
<path class="stroke" d="M 82.599011 36.039604 C 81.2801978 61.287132 75.67524799 82.376236 66.8831685 89.80198" />
<path class="stroke" d="M 72.59801978 43.465347 C 75.01584102 61.58416 86.7752454 90.09901 93.2594066 90.09901" />
</svg>
