<?xml version="1.0" standalone="no"?>
<!DOCTYPE svg PUBLIC "-//W3C//DTD SVG 1.1//EN" "http://www.w3.org/Graphics/SVG/1.1/DTD/svg11.dtd">
<svg xmlns="http://www.w3.org/2000/svg" version="1.1" width="100%" height="100%">
<style type="text/css"><![CDATA[
  .stroke { fill:none; stroke:black; stroke-width:2 }
]]></style>
<path class="stroke" d="M 11.313868 17.445253 C 15.401459 18.029196 19.48905 20.364962 22.408756 24.160583" />
<path class="stroke" d="M 9.270073 47.226276 C 13.357662 47.226276 18.321167 46.934303 23.86861 43.138683 C 16.27737 53.357662 14.233576 58.321167 15.109488 60.9489 C 15.69343 63.284668 20.948904 65.62044 22.116787 68.832115 C 23.576641 72.33576 18.129246 80.26506 11.021896 83.722626" />
<path class="stroke" d="M 11.021896 84.014595 C 39.692924 81.65476 40.51095 91.313866 90.43795 90.14598" />
<path class="stroke" d="M 54.706592 7.9306 L 54.706592 50.07576 C 54.70666 69.08728 42.693984 76.7424 32.8264972 76.82648" />
<path class="stroke" d="M 36.6877004 21.053624 C 40.9779496 26.016824 43.3375496 30.222904 45.6971496 37.457384000000005" />
<path class="stroke" d="M 34.3280732 56.8896 C 39.476319200000006 53.02 43.9810472 50.66456 50.2018912 48.30912000000001" />
<path class="stroke" d="M 68.220844 7.678232 L 68.220844 72.53624 C 68.006304 75.6836 69.67176 77.52416 71.65294 77.5836 L 88.599356 77.5836 C 91.03056000000001 77.66744 92.81780400000001 75.73296 92.675072 72.53624 L 92.675072 67.74128" />
<path class="stroke" d="M 86.88324680000001 23.072576 C 83.37961480000001 29.129296 80.5194668 32.914816 76.15774280000001 36.447936" />
<path class="stroke" d="M 72.511032 46.290240000000004 C 77.58777599999999 48.6456 82.02103600000001 50.74872 86.454228 55.62776" />
</svg>
