<?xml version="1.0" standalone="no"?>
<!DOCTYPE svg PUBLIC "-//W3C//DTD SVG 1.1//EN" "http://www.w3.org/Graphics/SVG/1.1/DTD/svg11.dtd">
<svg xmlns="http://www.w3.org/2000/svg" version="1.1" width="100%" height="100%">
<style type="text/css"><![CDATA[
  .stroke { fill:none; stroke:black; stroke-width:2 }
]]></style>
<path class="stroke" d="M 25.94635 5.835962 C 25.57835 9.831762 24.7371 13.196672 22.47635 15.930572" />
<path class="stroke" d="M 12.5394 15.930615 L 12.5394 66.719215 C 12.48685 79.02212 10.22605 87.224014 4.02206 93.21771" />
<path class="stroke" d="M 12.5394 15.930615 L 37.93375 15.930615 L 37.93375 87.53941 C 37.98635 91.32491 37.09255 92.902214 35.72555 92.902214 L 33.3596 92.902214" />
<path class="stroke" d="M 22.00315 26.97159 C 24.89485 29.49519 26.6824 33.59619 28.3123 39.27439" />
<path class="stroke" d="M 25.41096 59.69863 L 25.41096 81.39726" />
<path class="stroke" d="M 3.23344 49.6845 L 46.4511 49.6845" />
<path class="stroke" d="M 65.37855 8.04417 L 65.37855 26.6562 C 65.2734 41.062 59.64775 47.897 53.23344 50.9464" />
<path class="stroke" d="M 65.5363 8.04416 L 82.571 8.04416 L 82.571 36.7507 C 82.41325 40.8516 83.6751 43.3753 85.4101 43.3753 L 96.361255 43.3753" />
<path class="stroke" d="M 60.48895 53.15461 L 86.8297 53.15461 C 80.1525 77.23451 67.9548 89.01161 54.17981 94.16401" />
<path class="stroke" d="M 64.27445 53.15461 C 66.74555000000001 75.65721 80.88855 92.16621 96.4511 93.84861" />
</svg>
