<?xml version="1.0" standalone="no"?>
<!DOCTYPE svg PUBLIC "-//W3C//DTD SVG 1.1//EN" "http://www.w3.org/Graphics/SVG/1.1/DTD/svg11.dtd">
<svg xmlns="http://www.w3.org/2000/svg" version="1.1" width="100%" height="100%">
<style type="text/css"><![CDATA[
  .stroke { fill:none; stroke:black; stroke-width:2 }
]]></style>
<path class="stroke" d="M 29.914597499999996 4.6350365 L 29.914597499999996 44.6350325" />
<path class="stroke" d="M 29.914597499999996 18.357662 L 43.894155299999994 18.357662" />
<path class="stroke" d="M 17.432845229999998 19.233575 L 17.432845229999998 44.6350325" />
<path class="stroke" d="M 5.61678741 44.6350325 L 51.5496315 44.6350325" />
<path class="stroke" d="M 80.9405935 14.1584165 C 73.811882 17.574257 68.762377 18.4653475 59.4525535 19.6715315" />
<path class="stroke" d="M 59.22714 4.950495 L 59.22714 37.92079 C 59.22714 42.227722 62.227722 44.603962 66.386139 44.603962 L 88.21782300000001 44.603962 C 90.148515 44.603962 91.188118 43.861385 91.188118 41.930695 L 91.188118 40.59406" />
<path class="stroke" d="M 47.226276 54.489051 C 41.38686 58.576642 34.08759 62.2262765 26.788319 65.437956 L 41.8179 72.1525" />
<path class="stroke" d="M 63.868607 62.9562035 C 55.1943 67.47065 39.1713 74.5348 23.86861 81.204376 L 72.62773 78.576641" />
<path class="stroke" d="M 68.540146 74.051095 C 72.33576 76.240875 74.9635 78.284672 75.83941 81.204376" />
<path class="stroke" d="M 49.85401 80.036495 L 49.835617 96.123287" />
<path class="stroke" d="M 21.824816 86.021895 C 20.364962 88.503645 18.029196 90.693428 14.233576 92.59124" />
<path class="stroke" d="M 75.83941 86.16788 C 79.63503 87.77372 81.9708 89.67152999999999 83.722626 92.59124" />
</svg>
