<?xml version="1.0" standalone="no"?>
<!DOCTYPE svg PUBLIC "-//W3C//DTD SVG 1.1//EN" "http://www.w3.org/Graphics/SVG/1.1/DTD/svg11.dtd">
<svg xmlns="http://www.w3.org/2000/svg" version="1.1" width="100%" height="100%">
<style type="text/css"><![CDATA[
  .stroke { fill:none; stroke:black; stroke-width:2 }
]]></style>
<path class="stroke" d="M 13.591089772727273 12.536184 C 13.417680681818181 22.792084 12.483737499999998 28.945484 9.024838636363636 36.043682" />
<path class="stroke" d="M 15.083672727272726 24.598783 L 34.41862727272728 24.598783" />
<path class="stroke" d="M 22.498772727272726 6.83499 L 22.498772727272726 94.3662" />
<path class="stroke" d="M 9.521488636363635 64.18983 L 32.722232954545454 50.94063" />
<path class="stroke" d="M 51.33138688 9.270073 C 50.39708032 16.27737 48.341603840000005 25.912407 44.97810176 31.751823" />
<path class="stroke" d="M 49.46277312 20.364962 C 68.89634752 20.364962 74.87590847999999 20.364962 91.6934272 20.364962 C 91.1328416 61.532845 85.9007296 76.131386 80.668608 85.47445 C 78.23941375999999 88.978096 75.9970816 89.85401 73.56788096 90.14598" />
<path class="stroke" d="M 62.9167872 20.364962 C 61.2350336 44.890507 51.89196992 63.284668 41.6145984 73.50365" />
<path class="stroke" d="M 75.8102144 20.364962 C 74.1284672 50.14598 65.9065664 72.62773 57.3109472 81.678825" />
</svg>
