<?xml version="1.0" standalone="no"?>
<!DOCTYPE svg PUBLIC "-//W3C//DTD SVG 1.1//EN" "http://www.w3.org/Graphics/SVG/1.1/DTD/svg11.dtd">
<svg xmlns="http://www.w3.org/2000/svg" version="1.1" width="100%" height="100%">
<style type="text/css"><![CDATA[
  .stroke { fill:none; stroke:black; stroke-width:2 }
]]></style>
<path class="stroke" d="M 31.396438709999998 5.452055 L 31.396438709999998 20.246574" />
<path class="stroke" d="M 7.163014005 19.917809 L 53.972877419999996 19.917809" />
<path class="stroke" d="M 21.8687679 32.08219 C 19.38328812 37.0137 18.55479339 38.9863 13.1695893 44.246574" />
<path class="stroke" d="M 41.54547978 30.767124 C 45.68794398 34.38356 48.38054760000001 38.0 50.866023600000005 43.91781" />
<path class="stroke" d="M 41.54547978 43.91781 C 36.98876538 57.72603 29.94657435 74.49315 15.86219166 85.671234" />
<path class="stroke" d="M 22.697260110000002 56.08219 C 28.49671188 57.397263 39.68136774 62.986298 45.0665775 73.178085" />
<path class="stroke" d="M 62.372261 33.211678 L 91.715325 30.875912 C 90.9854 64.16058 88.79562 81.9708 88.06569300000001 85.76642 C 87.18977749999999 88.978096 85.437955 89.85401 83.9781 90.14598 L 82.51824500000001 89.85401" />
<path class="stroke" d="M 76.824815 10.437956 C 75.07299 43.138683 69.37956 76.423355 60.182480999999996 85.76642" />
</svg>
