<?xml version="1.0" standalone="no"?>
<!DOCTYPE svg PUBLIC "-//W3C//DTD SVG 1.1//EN" "http://www.w3.org/Graphics/SVG/1.1/DTD/svg11.dtd">
<svg xmlns="http://www.w3.org/2000/svg" version="1.1" width="100%" height="100%">
<style type="text/css"><![CDATA[
  .stroke { fill:none; stroke:black; stroke-width:2 }
]]></style>
<path class="stroke" d="M 15.6151 5.83596 L 83.123 5.83596" />
<path class="stroke" d="M 51.8927 6.15142 C 50.4206 10.4627 45.163 13.5121 39.9054 14.3533" />
<path class="stroke" d="M 23.186144 14.6688 L 23.186144 39.9054" />
<path class="stroke" d="M 23.186144 14.6688 L 75.55204 14.6688 L 75.55204 39.9054" />
<path class="stroke" d="M 23.5016 23.18614 L 75.5521 23.18614" />
<path class="stroke" d="M 23.5016 31.70346 L 75.5521 31.70346" />
<path class="stroke" d="M 6.782335 40.220856 L 6.782335 51.577255" />
<path class="stroke" d="M 6.782335 40.220856 L 93.84862 40.220856 L 93.84862 52.208157" />
<path class="stroke" d="M 17.4453 51.59936 C 16.6042 56.58356 14.5012 59.86436 10.8207 63.52364" />
<path class="stroke" d="M 33.21814 48.57098 L 33.21814 64.65932 C 33.21814 66.36277999999999 35.11094 67.4984 37.95004 67.4984 L 72.01944 67.4984 C 74.64824 67.4984 76.96164 66.17348 77.06674 64.09147999999999 L 77.06674 60.8738" />
<path class="stroke" d="M 45.2056 48.570992 C 50.6735 51.473192 54.2487 54.564692 57.5084 58.602512" />
<path class="stroke" d="M 77.0667 48.760279999999995 C 83.6913 52.293319999999994 87.7923 55.8266 91.8932 60.68456" />
<path class="stroke" d="M 43.138683 76.20583888 C 36.423355 79.359124 25.036495 82.652554 13.357662 84.754744" />
<path class="stroke" d="M 39.635033 78.02773696 L 65.62044 78.02773696 C 55.10949 83.77372168 32.627735 90.4306552 10.145985 94.0744504" />
<path class="stroke" d="M 28.540146 81.46131376 C 40.0 86.54838735999999 63.576637 91.3416052 88.39416 94.0744504" />
</svg>
