<?xml version="1.0" standalone="no"?>
<!DOCTYPE svg PUBLIC "-//W3C//DTD SVG 1.1//EN" "http://www.w3.org/Graphics/SVG/1.1/DTD/svg11.dtd">
<svg xmlns="http://www.w3.org/2000/svg" version="1.1" width="100%" height="100%">
<style type="text/css"><![CDATA[
  .stroke { fill:none; stroke:black; stroke-width:2 }
]]></style>
<path class="stroke" d="M 20.770715441176474 11.605839 C 17.979818382352942 27.372261 12.183339705882354 41.970802 7.245597794117647 50.14598" />
<path class="stroke" d="M 16.477026470588235 30.583939 L 16.477026470588235 90.43795" />
<path class="stroke" d="M 62.5 11.373761875 L 62.5 20.841584375" />
<path class="stroke" d="M 40.0 13.415841875 L 40.0 20.841584375 L 85.2227725 20.841584375" />
<path class="stroke" d="M 85.2227725 13.601485625 L 85.2227725 20.841584375" />
<path class="stroke" d="M 44.43430525 33.29196962 C 43.33941475 40.63795554 36.332116 48.416057800000004 32.1715315 50.144523899999996" />
<path class="stroke" d="M 41.14963375 44.5270063 L 41.14963375 92.924083" />
<path class="stroke" d="M 67.20802524999999 33.5080289 C 65.89415725 38.26131308 63.4853995 42.36642238 59.9817505 44.7430641" />
<path class="stroke" d="M 41.14963375 44.3249456 L 81.66058 44.3249456" />
<path class="stroke" d="M 61.0766425 44.7430641 L 61.0766425 92.924083" />
<path class="stroke" d="M 41.14963375 61.365969 L 78.81386499999999 61.365969" />
<path class="stroke" d="M 41.14963375 77.15182216 L 79.0328425 77.15182216" />
<path class="stroke" d="M 41.14963375 92.924083 L 86.040142 92.924083" />
</svg>
