<?xml version="1.0" standalone="no"?>
<!DOCTYPE svg PUBLIC "-//W3C//DTD SVG 1.1//EN" "http://www.w3.org/Graphics/SVG/1.1/DTD/svg11.dtd">
<svg xmlns="http://www.w3.org/2000/svg" version="1.1" width="100%" height="100%">
<style type="text/css"><![CDATA[
  .stroke { fill:none; stroke:black; stroke-width:2 }
]]></style>
<path class="stroke" d="M 10.208757780000001 9.854013 L 48.6788292 9.854013" />
<path class="stroke" d="M 10.051094520000001 9.854013 L 10.051094520000001 31.167881 C 10.051094520000001 74.67153 8.00145864 81.386856 5.506930260000001 90.09901" />
<path class="stroke" d="M 16.729926239999998 27.8430648 L 54.849631200000005 27.8430648" />
<path class="stroke" d="M 33.127005600000004 43.726276999999996 L 48.1226256 43.726276999999996 C 47.42189567999999 69.04014145 44.0583912 77.72627359999998 42.656931359999994 81.6970775 C 41.255472 84.67518 39.013136159999995 90.135036 37.3313856 88.894155 L 35.78978016 87.6532825" />
<path class="stroke" d="M 34.38832032 27.8430648 C 34.1080272 48.937955099999996 25.839415199999998 74.996349 17.85109392 86.1642321" />
<path class="stroke" d="M 69.8978088 33.211678 L 93.37226000000001 30.875912 C 92.78832 64.16058 91.036496 81.9708 90.4525544 85.76642 C 89.751822 88.978096 88.350364 89.85401 87.18248 90.14598 L 86.014596 89.85401" />
<path class="stroke" d="M 81.459852 10.437956 C 80.058392 43.138683 75.503648 76.423355 68.1459848 85.76642" />
</svg>
