<?xml version="1.0" standalone="no"?>
<!DOCTYPE svg PUBLIC "-//W3C//DTD SVG 1.1//EN" "http://www.w3.org/Graphics/SVG/1.1/DTD/svg11.dtd">
<svg xmlns="http://www.w3.org/2000/svg" version="1.1" width="100%" height="100%">
<style type="text/css"><![CDATA[
  .stroke { fill:none; stroke:black; stroke-width:2 }
]]></style>
<path class="stroke" d="M 13.649633 9.562042 L 13.649633 90.14598" />
<path class="stroke" d="M 13.649633 9.562042 L 38.17518 9.562042 L 38.17518 38.46715" />
<path class="stroke" d="M 13.649633 22.408756 L 37.88321 22.408756" />
<path class="stroke" d="M 13.649633 36.131386 L 38.17518 36.131386" />
<path class="stroke" d="M 62.408752 9.854013 L 62.408752 38.46715" />
<path class="stroke" d="M 62.408752 9.854013 L 86.642334 9.854013 L 86.642334 85.47445 C 86.642334 88.39416 84.306564 90.14598 81.678825 89.85401" />
<path class="stroke" d="M 62.408752 22.408756 L 86.642334 22.408756" />
<path class="stroke" d="M 62.408752 36.131386 L 86.642334 36.131386" />
<path class="stroke" d="M 28.061313 45.62279889705882 C 32.03211588 47.340274632352944 35.20875764 49.70180294117647 37.59123964 51.95598970588235" />
<path class="stroke" d="M 70.1518204 45.62279889705882 C 68.53173808 47.74817463235294 65.1883168 50.23851323529412 61.8131368 52.063331250000005" />
<path class="stroke" d="M 31.770043363200003 53.94760916875 L 31.770043363200003 69.1756378625" />
<path class="stroke" d="M 31.770043363200003 53.94760916875 L 62.93290368 53.94760916875 L 62.93290368 69.0292149075" />
<path class="stroke" d="M 31.770043363200003 68.004250712 L 62.93290368 68.004250712" />
<path class="stroke" d="M 41.16496264 70.2725726035 L 41.16496264 76.158046477 C 41.16496264 81.3473895775 36.00291944 86.473447747 23.097810080000002 87.8024256625" />
<path class="stroke" d="M 52.87883032 70.20928832275 L 52.87883032 85.144470265 C 52.87883032 86.7265870375 55.45985464 87.6758566675 58.23941244 87.6758566675 L 73.72554000000001 87.6758566675 C 75.9094892 87.739141165 77.497806 87.2328630175 77.497806 86.53673137749999 L 77.497806 85.3343246245" />
</svg>
