<?xml version="1.0" standalone="no"?>
<!DOCTYPE svg PUBLIC "-//W3C//DTD SVG 1.1//EN" "http://www.w3.org/Graphics/SVG/1.1/DTD/svg11.dtd">
<svg xmlns="http://www.w3.org/2000/svg" version="1.1" width="100%" height="100%">
<style type="text/css"><![CDATA[
  .stroke { fill:none; stroke:black; stroke-width:2 }
]]></style>
<path class="stroke" d="M 11.313868 17.445253 C 15.401459 18.029196 19.48905 20.364962 22.408756 24.160583" />
<path class="stroke" d="M 9.270073 47.226276 C 13.357662 47.226276 18.321167 46.934303 23.86861 43.138683 C 16.27737 53.357662 14.233576 58.321167 15.109488 60.9489 C 15.69343 63.284668 20.948904 65.62044 22.116787 68.832115 C 23.576641 72.33576 18.129246 80.26506 11.021896 83.722626" />
<path class="stroke" d="M 11.021896 84.014595 C 39.692924 81.65476 40.51095 91.313866 90.43795 90.14598" />
<path class="stroke" d="M 38.5306928 28.455444 L 53.073268 26.792080000000002" />
<path class="stroke" d="M 47.82178168 9.683168000000002 L 47.82178168 69.32673600000001 C 47.82178168 71.94059200000001 46.00396012 74.07920800000001 43.58019804 74.07920800000001" />
<path class="stroke" d="M 38.93465292 52.693072 L 51.65940656 39.1485136" />
<path class="stroke" d="M 78.91007172799999 10.116788 C 73.35094722 14.087590400000002 68.069779104 15.7226272 62.371678304 15.956202400000002" />
<path class="stroke" d="M 62.371678304 15.956202400000002 L 62.371678304 41.6496336 C 62.371678304 48.8905088 61.398830932 60.80292 58.48029167200001 69.678824" />
<path class="stroke" d="M 62.371678304 29.503648 L 91.83503396 29.503648" />
<path class="stroke" d="M 77.10335660799998 29.503648 L 77.10335660799998 74.116784" />
</svg>
