<?xml version="1.0" standalone="no"?>
<!DOCTYPE svg PUBLIC "-//W3C//DTD SVG 1.1//EN" "http://www.w3.org/Graphics/SVG/1.1/DTD/svg11.dtd">
<svg xmlns="http://www.w3.org/2000/svg" version="1.1" width="100%" height="100%">
<style type="text/css"><![CDATA[
  .stroke { fill:none; stroke:black; stroke-width:2 }
]]></style>
<path class="stroke" d="M 14.525547 21.8102184 L 42.146595 21.8102184" />
<path class="stroke" d="M 30.0 6.04379448 L 29.584415 46.21090752" />
<path class="stroke" d="M 30.0 23.702186880000003 C 25.620438 31.05985176 19.197079 38.8379556 10.145985 44.3036484" />
<path class="stroke" d="M 30.0 25.38394128 C 35.547443 28.116787679999998 38.46715 30.639412800000002 41.38686 34.21313712" />
<path class="stroke" d="M 49.685863 21.8102184 L 81.386856 21.8102184" />
<path class="stroke" d="M 64.74452 6.04379448 L 64.80519 45.537659999999995" />
<path class="stroke" d="M 64.16058 24.5430648 C 60.65693 32.741603999999995 51.605835 40.729927679999996 42.846714 45.985397039999995" />
<path class="stroke" d="M 64.16058 24.332846399999998 C 69.41605 33.3722592 75.682434 36.2427048 84.44156 41.4981792" />
<path class="stroke" d="M 8.67508 54.968455 L 91.3249 54.968455 L 86.77419 60.4838705" />
<path class="stroke" d="M 50.3155 54.810725 L 50.0 95.0" />
<path class="stroke" d="M 50.3155 72.94955 L 82.8076 72.94955" />
<path class="stroke" d="M 23.817 71.8454 C 23.2912 85.88325 16.7718 91.08834999999999 6.46687 96.76655" />
<path class="stroke" d="M 23.817 71.8454 C 24.7634 96.9243 51.29032 95.16129000000001 72.258064 96.29032000000001 L 93.2177 96.60884999999999" />
</svg>
