<?xml version="1.0" standalone="no"?>
<!DOCTYPE svg PUBLIC "-//W3C//DTD SVG 1.1//EN" "http://www.w3.org/Graphics/SVG/1.1/DTD/svg11.dtd">
<svg xmlns="http://www.w3.org/2000/svg" version="1.1" width="100%" height="100%">
<style type="text/css"><![CDATA[
  .stroke { fill:none; stroke:black; stroke-width:2 }
]]></style>
<path class="stroke" d="M 12.189779 19.6167875 L 87.81021 19.6167875" />
<path class="stroke" d="M 34.67153 10.49269875 L 34.67153 29.470801249999997" />
<path class="stroke" d="M 65.32846 10.49269875 L 65.32846 29.470801249999997" />
<path class="stroke" d="M 13.154171785714285 35.544554500000004 C 16.654879285714284 37.10396125 20.15558785714286 39.331683999999996 23.01980357142857 42.00495025" />
<path class="stroke" d="M 10.926448928571428 53.589109750000006 C 14.108912142857141 54.9257425 17.927864999999997 56.930692750000006 20.473834285714286 59.60396125" />
<path class="stroke" d="M 10.608203571428572 89.23267 C 11.321795357142857 90.56700699999999 13.310014285714285 92.422678 15.629600357142856 92.422678 C 17.949189642857142 92.422678 21.110325 82.5495025 23.33804892857143 77.20297" />
<path class="stroke" d="M 57.92262542 34.612042689999996 C 52.9532827 41.11569325 44.5270063 47.908392625000005 35.88466988 52.2441595" />
<path class="stroke" d="M 55.32992442 38.36970748 L 74.5591256 38.36970748 C 66.7810226 50.220800964999995 50.144523899999996 63.95072635 33.5080289 71.46605395" />
<path class="stroke" d="M 47.11970804 45.45145963 C 55.6 55.94354893 73.04671138 65.829560725 91.4116784 71.46605395" />
<path class="stroke" d="M 48.256714969 69.2363134375 L 48.256714969 89.73266312499999" />
<path class="stroke" d="M 48.256714969 69.2363134375 L 74.1621156 69.2363134375 L 74.1621156 89.53558337500002" />
<path class="stroke" d="M 48.256714969 88.1560204 L 74.1621156 88.1560204" />
</svg>
