<?xml version="1.0" standalone="no"?>
<!DOCTYPE svg PUBLIC "-//W3C//DTD SVG 1.1//EN" "http://www.w3.org/Graphics/SVG/1.1/DTD/svg11.dtd">
<svg xmlns="http://www.w3.org/2000/svg" version="1.1" width="100%" height="100%">
<style type="text/css"><![CDATA[
  .stroke { fill:none; stroke:black; stroke-width:2 }
]]></style>
<path class="stroke" d="M 26.788319 12.210056777777778 C 24.452553 18.34144311111111 21.824816 22.201945444444444 16.861313 25.154094333333337" />
<path class="stroke" d="M 24.452553 19.022708 L 47.226276 19.022708" />
<path class="stroke" d="M 30.0 19.47688511111111 C 34.08759 23.110300444444444 35.547443 26.062449333333333 36.423355 31.51257" />
<path class="stroke" d="M 65.32846 12.210056777777778 C 63.284668 19.703972111111113 60.07299 22.883210333333334 57.44525 25.154094333333337" />
<path class="stroke" d="M 62.9927 19.249796555555555 L 86.35036 19.249796555555555" />
<path class="stroke" d="M 72.62773 19.703972111111113 C 72.9197 24.699917222222222 71.16788 28.106243222222222 67.9562 31.51257" />
<path class="stroke" d="M 27.372261 42.963210591999996 L 72.62773 42.963210591999996" />
<path class="stroke" d="M 49.562042 35.378509811200004 L 49.562042 53.137809664" />
<path class="stroke" d="M 12.4817505 53.137809664 L 87.81021 53.137809664" />
<path class="stroke" d="M 19.93284656 64.67305019919999 L 79.8452494 64.67305019919999" />
<path class="stroke" d="M 61.8715344 57.8430363256 L 61.8715344 88.27853876799999 C 61.8715344 89.35696326399999 60.983938 90.075910192 58.98685864 90.075910192 L 52.9956198 90.075910192" />
<path class="stroke" d="M 32.137226 69.22639305519999 C 34.8 70.3048171408 37.24087528 71.8625395888 39.23795388 74.4986844808" />
</svg>
