<?xml version="1.0" standalone="no"?>
<!DOCTYPE svg PUBLIC "-//W3C//DTD SVG 1.1//EN" "http://www.w3.org/Graphics/SVG/1.1/DTD/svg11.dtd">
<svg xmlns="http://www.w3.org/2000/svg" version="1.1" width="100%" height="100%">
<style type="text/css"><![CDATA[
  .stroke { fill:none; stroke:black; stroke-width:2 }
]]></style>
<path class="stroke" d="M 8.350785 20.157066 L 41.96335 20.157066" />
<path class="stroke" d="M 11.4963495 34.67153 L 11.350365 62.70073" />
<path class="stroke" d="M 11.350365 34.67153 L 38.64963 34.67153 L 38.64963 62.70073" />
<path class="stroke" d="M 11.350365 48.63624 L 38.503645 48.63624" />
<path class="stroke" d="M 11.350365 62.9927 L 38.64963 62.9927" />
<path class="stroke" d="M 7.554744 77.59124 L 42.44525 77.59124" />
<path class="stroke" d="M 25.092815 8.978102 L 25.092815 90.72992" />
<path class="stroke" d="M 57.492097 9.936943 L 87.36558500000001 9.936943 L 87.36558500000001 45.268143 C 87.3376925 48.074944 86.265785 49.999943 83.83512 49.999943 L 78.675145 49.999943" />
<path class="stroke" d="M 57.4920105 10.252343 L 57.4920105 88.17034 C 57.572935 91.68745 59.39305 93.61344 61.8372315 93.53314 L 88.9949225 93.53314 C 91.62024 93.53314 93.702325 91.64044 93.611845 88.17034 L 93.611845 82.17664" />
</svg>
