<?xml version="1.0" standalone="no"?>
<!DOCTYPE svg PUBLIC "-//W3C//DTD SVG 1.1//EN" "http://www.w3.org/Graphics/SVG/1.1/DTD/svg11.dtd">
<svg xmlns="http://www.w3.org/2000/svg" version="1.1" width="100%" height="100%">
<style type="text/css"><![CDATA[
  .stroke { fill:none; stroke:black; stroke-width:2 }
]]></style>
<path class="stroke" d="M 11.313868 17.445253 C 15.401459 18.029196 19.48905 20.364962 22.408756 24.160583" />
<path class="stroke" d="M 9.270073 47.226276 C 13.357662 47.226276 18.321167 46.934303 23.86861 43.138683 C 16.27737 53.357662 14.233576 58.321167 15.109488 60.9489 C 15.69343 63.284668 20.948904 65.62044 22.116787 68.832115 C 23.576641 72.33576 18.129246 80.26506 11.021896 83.722626" />
<path class="stroke" d="M 11.021896 84.014595 C 39.692924 81.65476 40.51095 91.313866 90.43795 90.14598" />
<path class="stroke" d="M 57.037819999999996 8.416408 C 56.890609999999995 15.735032 55.41851 21.539512 51.958969999999994 26.082072" />
<path class="stroke" d="M 40.4763401 14.220792000000001 L 81.32806149999999 14.220792000000001 L 81.32806149999999 26.082072" />
<path class="stroke" d="M 31.864352099999998 26.334384 L 93.693978 26.334384" />
<path class="stroke" d="M 43.34701 35.1671784 L 43.34701 49.2996584" />
<path class="stroke" d="M 43.34701 35.1671784 L 83.31546999999999 35.1671784 L 83.31546999999999 49.2996584" />
<path class="stroke" d="M 43.34701 49.2996584 L 83.31546999999999 49.2996584" />
<path class="stroke" d="M 36.5634521 58.862944000000006 L 89.0568 58.8896" />
<path class="stroke" d="M 43.7886099 59.141968 L 43.7886099 71.76028480000001" />
<path class="stroke" d="M 31.643535 71.50792 L 93.47317 71.50792" />
<path class="stroke" d="M 71.17033 49.29968 L 71.17033 79.836" />
</svg>
