<?xml version="1.0" standalone="no"?>
<!DOCTYPE svg PUBLIC "-//W3C//DTD SVG 1.1//EN" "http://www.w3.org/Graphics/SVG/1.1/DTD/svg11.dtd">
<svg xmlns="http://www.w3.org/2000/svg" version="1.1" width="100%" height="100%">
<style type="text/css"><![CDATA[
  .stroke { fill:none; stroke:black; stroke-width:2 }
]]></style>
<path class="stroke" d="M 23.24817374 10.729925 C 19.896349119999996 18.029196 15.3474434 23.86861 11.03795472 28.540146 C 14.389780159999999 31.45985 18.4598518 36.131386 22.29050804 40.218975" />
<path class="stroke" d="M 32.345984359999996 25.912407 C 26.599999999999998 34.67153 18.938685059999997 45.18248 9.36204364 56.277367 C 17.981021 54.525543 27.55766242 52.48175 36.1766406 50.437954" />
<path class="stroke" d="M 33.30364759999999 43.430653 C 35.69780734 46.642334 36.41605764 49.85401 37.85255332 55.40146" />
<path class="stroke" d="M 23.727006999999997 54.233574 L 23.727006999999997 89.56204" />
<path class="stroke" d="M 16.305107460000002 65.03649 C 14.868612599999999 70.87591 13.192699059999999 74.67153 9.84087444 78.75912" />
<path class="stroke" d="M 29.951823799999996 65.32846 C 32.58539894 68.540146 32.628107 68.81081 33.95783539999999 71.72973" />
<path class="stroke" d="M 69.2919692 12.06788121 C 63.1605818 15.82554699 54.7518224 20.739414959999998 45.642335 21.89561913" />
<path class="stroke" d="M 45.642335 21.89561913 L 45.642335 85.4868564 C 45.642335 87.5102184 47.043794 90.111681 48.4452536 89.82262080000001 L 53.5255472 88.08831504" />
<path class="stroke" d="M 45.9927002 47.6211681 L 73.67152999999999 42.99634647" />
<path class="stroke" d="M 61.408756999999994 16.69269987 L 65.087588 53.98028757 C 68.240876 78.26058306 78.401456 86.6430576 85.759118 89.5335705 C 88.38685759999998 90.40072734 89.087588 88.6664196 89.087588 84.9087558 L 89.087588 82.0182429" />
</svg>
