<?xml version="1.0" standalone="no"?>
<!DOCTYPE svg PUBLIC "-//W3C//DTD SVG 1.1//EN" "http://www.w3.org/Graphics/SVG/1.1/DTD/svg11.dtd">
<svg xmlns="http://www.w3.org/2000/svg" version="1.1" width="100%" height="100%">
<style type="text/css"><![CDATA[
  .stroke { fill:none; stroke:black; stroke-width:2 }
]]></style>
<path class="stroke" d="M 13.154171785714285 14.059406 C 16.654879285714284 16.138615 20.15558785714286 19.108912 23.01980357142857 22.673267" />
<path class="stroke" d="M 10.926448928571428 38.118813 C 14.108912142857141 39.90099 17.927864999999997 42.574257 20.473834285714286 46.138615" />
<path class="stroke" d="M 10.608203571428572 85.64356 C 11.321795357142857 87.422676 13.310014285714285 89.896904 15.629600357142856 89.896904 C 17.949189642857142 89.896904 21.110325 76.73267 23.33804892857143 69.60396" />
<path class="stroke" d="M 67.17821875 9.306931 C 68.2920775 12.574257 69.1831675 15.544554 69.1831675 19.108912" />
<path class="stroke" d="M 45.96715225 19.197079 L 90.20072499999999 19.197079" />
<path class="stroke" d="M 45.96715225 19.197079 L 45.96715225 36.131386 C 45.96715225 56.861313 41.14963375 72.62773 29.61970075 93.8404" />
<path class="stroke" d="M 51.64504912 35.60491244 L 90.28267360000001 35.60491244" />
<path class="stroke" d="M 62.4991888 27.896376581600002 L 62.4991888 51.911696336000006" />
<path class="stroke" d="M 79.15648479999999 27.8792645204 L 79.15648479999999 52.0078265624" />
<path class="stroke" d="M 62.4991888 52.200084644 L 79.00080928 52.200084644" />
<path class="stroke" d="M 59.687187616 61.04653436 L 81.59229856 61.04653436 C 76.60789974400001 76.22178263 68.21312834560001 83.6356448 53.522277184000004 90.12277220000001" />
<path class="stroke" d="M 59.1625147072 64.52178263 C 61.1159340736 71.70645077 67.9536119488 77.61935504000002 70.2328371712 80.2612907 C 74.363933632 84.2870969 81.7714177024 87.30644960000001 88.80655436800001 90.12277220000001" />
</svg>
