<?xml version="1.0" standalone="no"?>
<!DOCTYPE svg PUBLIC "-//W3C//DTD SVG 1.1//EN" "http://www.w3.org/Graphics/SVG/1.1/DTD/svg11.dtd">
<svg xmlns="http://www.w3.org/2000/svg" version="1.1" width="100%" height="100%">
<style type="text/css"><![CDATA[
  .stroke { fill:none; stroke:black; stroke-width:2 }
]]></style>
<path class="stroke" d="M 8.003300000000001 33.069305 L 25.825083333333335 30.9901" />
<path class="stroke" d="M 19.389438333333334 9.60396 L 19.389438333333334 84.15842 C 19.389438333333334 87.42574 17.161715833333336 90.09901 14.191419166666668 90.09901" />
<path class="stroke" d="M 8.498349166666667 63.36634 L 24.09241 46.435642" />
<path class="stroke" d="M 65.49109 9.306931 C 66.5603944 12.574257 67.4158408 15.544554 67.4158408 19.108912" />
<path class="stroke" d="M 45.12846616 19.197079 L 87.59269599999999 19.197079" />
<path class="stroke" d="M 45.12846616 19.197079 L 45.12846616 36.131386 C 45.12846616 56.861313 40.503648399999996 72.62773 29.43491272 93.8404" />
<path class="stroke" d="M 67.27317439000001 30.597078879999998 C 63.90091165 50.4102169 55.85428075 72.598444 46.36514494 88.44233440000001 C 60.528648332500005 85.937224 72.8374082575 84.798541 86.31359425000001 84.96511000000001" />
<path class="stroke" d="M 79.7505464125 70.67882656 C 83.6286466 75.00583599999999 87.00090933999999 81.61021690000001 89.1928822 90.49196380000001" />
</svg>
