<?xml version="1.0" standalone="no"?>
<!DOCTYPE svg PUBLIC "-//W3C//DTD SVG 1.1//EN" "http://www.w3.org/Graphics/SVG/1.1/DTD/svg11.dtd">
<svg xmlns="http://www.w3.org/2000/svg" version="1.1" width="100%" height="100%">
<style type="text/css"><![CDATA[
  .stroke { fill:none; stroke:black; stroke-width:2 }
]]></style>
<path class="stroke" d="M 20.7344878125 9.562042 C 24.019160625 11.021896 27.30382875 14.817516 29.493609375 19.48905" />
<path class="stroke" d="M 9.2381371875 22.8707 L 39.89506875 22.8707" />
<path class="stroke" d="M 15.260034375000002 37.007298 L 33.873174375 37.007298" />
<path class="stroke" d="M 15.260034375000002 51.313866 L 33.873174375 51.313866" />
<path class="stroke" d="M 14.165145 64.45255 L 14.165145 85.76642" />
<path class="stroke" d="M 14.165145 64.16058 L 35.515509375 64.16058 L 35.515509375 85.76642" />
<path class="stroke" d="M 14.165145 85.76642 L 35.2417875 85.76642" />
<path class="stroke" d="M 59.9270068 13.116058299999999 C 59.051093800000004 25.29415925 54.4963498 36.71897545 45.9124078 45.883941699999994" />
<path class="stroke" d="M 78.677626 13.356735319999999 C 86.0291944 22.15547272 90.759118 34.208027 93.562039 46.1350359" />
<path class="stroke" d="M 70.751970136 39.05401344 C 67.91401396 55.3109472 61.14230379999999 73.516672 53.156641456 86.51678720000001 C 65.076057298 84.46131199999999 75.434598118 83.527008 86.77559620000001 83.66368" />
<path class="stroke" d="M 81.25240789 71.94160128 C 84.51605583999999 75.491968 87.35401201599998 80.91094720000001 89.19868528 88.1985344" />
</svg>
