<?xml version="1.0" standalone="no"?>
<!DOCTYPE svg PUBLIC "-//W3C//DTD SVG 1.1//EN" "http://www.w3.org/Graphics/SVG/1.1/DTD/svg11.dtd">
<svg xmlns="http://www.w3.org/2000/svg" version="1.1" width="100%" height="100%">
<style type="text/css"><![CDATA[
  .stroke { fill:none; stroke:black; stroke-width:2 }
]]></style>
<path class="stroke" d="M 25.697867924528303 5.5205 L 25.697867924528303 16.877" />
<path class="stroke" d="M 7.692995283018868 17.1924 L 44.79615094339623 17.1924 C 36.50080188679245 37.2765 24.060943396226413 51.9978 6.710913207547169 60.7256" />
<path class="stroke" d="M 25.697867924528303 47.1609 L 25.697867924528303 94.795" />
<path class="stroke" d="M 47.95854716981132 39.2744 C 46.86726415094339 43.2702 44.79397169811321 46.6351 42.0659716981132 48.4228" />
<path class="stroke" d="M 26.025273584905662 46.5299 C 34.31833962264151 50.6309 39.337867924528304 55.6783 44.68480188679245 63.5646" />
<path class="stroke" d="M 62.6642325 19.48905 L 89.08759 17.153284 C 88.503645 39.051094 87.33576500000001 51.897808 85.72992500000001 68.540146 C 84.85401 76.423355 83.24817300000001 88.39416 80.18248 88.39416 L 78.576641 88.39416" />
<path class="stroke" d="M 71.7153265 18.905107 L 70.255475 36.715324 C 67.9197065 59.489044 63.686130500000004 74.087585 60.036495 86.35036" />
</svg>
