<?xml version="1.0" standalone="no"?>
<!DOCTYPE svg PUBLIC "-//W3C//DTD SVG 1.1//EN" "http://www.w3.org/Graphics/SVG/1.1/DTD/svg11.dtd">
<svg xmlns="http://www.w3.org/2000/svg" version="1.1" width="100%" height="100%">
<style type="text/css"><![CDATA[
  .stroke { fill:none; stroke:black; stroke-width:2 }
]]></style>
<path class="stroke" d="M 8.946819428571429 27.956203 L 28.46715257142857 27.956203" />
<path class="stroke" d="M 20.45880857142857 9.270073 L 20.45880857142857 90.14598" />
<path class="stroke" d="M 20.45880857142857 36.131386 C 17.20542 44.598537 13.20125057142857 52.48175 7.4452551428571425 56.861313" />
<path class="stroke" d="M 20.45880857142857 36.131386 C 24.212719714285715 37.299267 26.71532657142857 42.26277 27.96663 46.934303" />
<path class="stroke" d="M 49.1605827 17.737225 L 82.0656885 17.737225" />
<path class="stroke" d="M 58.521768800000004 9.562042 L 58.521768800000004 27.660316" />
<path class="stroke" d="M 72.116039 9.270073 L 72.116039 27.958801" />
<path class="stroke" d="M 37.1021895 30.398762 L 93.10218599999999 30.398762" />
<path class="stroke" d="M 50.3868588 42.55474 L 50.3868588 73.795616" />
<path class="stroke" d="M 50.2376244 42.55474 L 80.22627399999999 42.55474 L 80.22627399999999 74.379555" />
<path class="stroke" d="M 65.2235408 31.021841 L 65.2235408 71.08911" />
<path class="stroke" d="M 50.2376244 57.21993 L 80.22627399999999 57.21993" />
<path class="stroke" d="M 50.3868588 71.25714 L 80.22627399999999 71.25714" />
<path class="stroke" d="M 51.1108051 80.3413 C 49.1605827 84.59853 46.708027 87.51824 43.2335749 90.72992" />
<path class="stroke" d="M 78.591235 80.51095 C 82.0656885 81.9708 85.131384 85.76642 86.357665 90.43795" />
</svg>
