<?xml version="1.0" standalone="no"?>
<!DOCTYPE svg PUBLIC "-//W3C//DTD SVG 1.1//EN" "http://www.w3.org/Graphics/SVG/1.1/DTD/svg11.dtd">
<svg xmlns="http://www.w3.org/2000/svg" version="1.1" width="100%" height="100%">
<style type="text/css"><![CDATA[
  .stroke { fill:none; stroke:black; stroke-width:2 }
]]></style>
<path class="stroke" d="M 26.788319 7.725060833333334 C 24.452553 14.294403333333333 21.824816 18.430655833333333 16.861313 21.593672500000004" />
<path class="stroke" d="M 24.452553 15.024329999999999 L 47.226276 15.024329999999999" />
<path class="stroke" d="M 30.0 15.510948333333333 C 34.08759 19.403893333333336 35.547443 22.56691 36.423355 28.406325" />
<path class="stroke" d="M 65.32846 7.725060833333334 C 63.284668 15.754255833333335 60.07299 19.160582500000004 57.44525 21.593672500000004" />
<path class="stroke" d="M 62.9927 15.267639166666667 L 86.35036 15.267639166666667" />
<path class="stroke" d="M 72.62773 15.754255833333335 C 72.9197 21.107054166666668 71.16788 24.756689166666668 67.9562 28.406325" />
<path class="stroke" d="M 13.91161 44.8579864 L 13.91161 92.01988" />
<path class="stroke" d="M 14.321708 44.8580168 L 86.90864 44.8579944 L 86.64864 92.17296800000001" />
<path class="stroke" d="M 50.0 32.92 L 50.0 88.67999999999999" />
<path class="stroke" d="M 14.321708 67.286384 L 86.90864 67.28636" />
<path class="stroke" d="M 14.321708 88.850352 L 86.90864 89.029648" />
</svg>
