<?xml version="1.0" standalone="no"?>
<!DOCTYPE svg PUBLIC "-//W3C//DTD SVG 1.1//EN" "http://www.w3.org/Graphics/SVG/1.1/DTD/svg11.dtd">
<svg xmlns="http://www.w3.org/2000/svg" version="1.1" width="100%" height="100%">
<style type="text/css"><![CDATA[
  .stroke { fill:none; stroke:black; stroke-width:2 }
]]></style>
<path class="stroke" d="M 33.814713 5.8069480250000005 C 28.91008 11.303404950000001 21.06267 16.464714139999998 9.618528 21.558990379999997" />
<path class="stroke" d="M 66.18528 5.8069480250000005 C 71.08991 11.303404950000001 78.28338 16.464714139999998 90.38147 21.558990379999997" />
<path class="stroke" d="M 29.2759106 23.5416055 L 73.66715119999999 22.81751804 C 72.6861236 29.60583914 70.7240852 33.58832048 68.026274 38.74744526 C 66.5547368 41.191240050000005 63.85693064 44.9021896 58.7065664 44.9021896 L 56.00875687999999 44.9021896" />
<path class="stroke" d="M 44.48174852 23.360583169999998 L 42.029198 28.88175044 C 38.10510692 35.94160364 30.99269924 40.46715135 24.8613116 44.2686116" />
<path class="stroke" d="M 18.4542 56.8612 L 18.4542 96.29339999999999" />
<path class="stroke" d="M 18.4542 56.8612 L 80.5994 56.8612 L 80.5994 96.13565" />
<path class="stroke" d="M 39.27444 57.018950000000004 L 39.27444 96.29339999999999" />
<path class="stroke" d="M 60.41014 57.0189285 L 60.41014 96.45113" />
<path class="stroke" d="M 7.09779 96.4511 L 92.9022 96.4511" />
</svg>
