<?xml version="1.0" standalone="no"?>
<!DOCTYPE svg PUBLIC "-//W3C//DTD SVG 1.1//EN" "http://www.w3.org/Graphics/SVG/1.1/DTD/svg11.dtd">
<svg xmlns="http://www.w3.org/2000/svg" version="1.1" width="100%" height="100%">
<style type="text/css"><![CDATA[
  .stroke { fill:none; stroke:black; stroke-width:2 }
]]></style>
<path class="stroke" d="M 12.46055 7.641958649999999 L 89.74765 7.641958649999999 L 89.74765 19.6294301" />
<path class="stroke" d="M 12.46055 19.6294301 L 89.74765 19.6294301" />
<path class="stroke" d="M 12.14511 7.641958649999999 L 12.14511 55.291767 C 12.25031 69.277002 10.46261 76.96896199999999 6.15142 89.45585225" />
<path class="stroke" d="M 28.18978 25.796478235294117 C 32.8613128 28.544439411764706 36.5985384 32.32288470588235 39.4014584 35.929583529411765" />
<path class="stroke" d="M 77.708024 25.796478235294117 C 75.8020448 29.197079411764705 71.868608 33.181621176470586 67.897808 36.101330000000004" />
<path class="stroke" d="M 31.226276 39.89197052 L 77.2408752 39.89197052" />
<path class="stroke" d="M 23.7518232 56.37080084 L 81.4452512 56.37080084" />
<path class="stroke" d="M 40.5693424 41.281750439999996 L 40.5693424 59.94452316 C 40.5693424 83.96788140000001 35.6642336 87.541601 27.255473600000002 90.91678712000001" />
<path class="stroke" d="M 68.36496 41.281750439999996 L 68.36496 93.1007268" />
</svg>
