<?xml version="1.0" standalone="no"?>
<!DOCTYPE svg PUBLIC "-//W3C//DTD SVG 1.1//EN" "http://www.w3.org/Graphics/SVG/1.1/DTD/svg11.dtd">
<svg xmlns="http://www.w3.org/2000/svg" version="1.1" width="100%" height="100%">
<style type="text/css"><![CDATA[
  .stroke { fill:none; stroke:black; stroke-width:2 }
]]></style>
<path class="stroke" d="M 49.999996 5.0 C 52.376232 7.6732674 52.793365 10.037088 52.918915 12.702702" />
<path class="stroke" d="M 12.702702 13.675674 L 92.81081 13.351351" />
<path class="stroke" d="M 12.378378 13.999998 L 12.702702 39.62162 C 12.702702 61.30479 14.560343 79.686905 6.5405407 92.162155" />
<path class="stroke" d="M 28.735039999999998 26.4732014 L 80.390864 26.0670047 L 80.390864 45.309647600000005" />
<path class="stroke" d="M 21.921136 35.823328939999996 L 92.07888000000001 35.823328939999996" />
<path class="stroke" d="M 29.23976 45.1735142 L 80.390864 45.309647600000005" />
<path class="stroke" d="M 27.725552 55.753910000000005 L 27.725552 91.432202" />
<path class="stroke" d="M 27.977984 55.753910000000005 L 86.526784 55.753910000000005 L 86.526784 87.003128 C 86.526784 89.62775 84.76022400000001 91.26809 82.74134400000001 91.186112 L 79.71294400000001 91.186112" />
<path class="stroke" d="M 27.977944 66.08835619999999 L 86.274424 66.08835619999999" />
<path class="stroke" d="M 27.977944 76.42275092 L 86.022024 76.42275092" />
<path class="stroke" d="M 57.2523312 21.5520488 L 57.2523312 90.69401" />
</svg>
