<?xml version="1.0" standalone="no"?>
<!DOCTYPE svg PUBLIC "-//W3C//DTD SVG 1.1//EN" "http://www.w3.org/Graphics/SVG/1.1/DTD/svg11.dtd">
<svg xmlns="http://www.w3.org/2000/svg" version="1.1" width="100%" height="100%">
<style type="text/css"><![CDATA[
  .stroke { fill:none; stroke:black; stroke-width:2 }
]]></style>
<path class="stroke" d="M 49.27007 9.270073 C 40.218975 23.284672 22.70073 36.423355 9.854013 39.927006" />
<path class="stroke" d="M 49.27007 9.562042 C 58.905106 23.576641 76.715324 37.007298 89.56204 39.927006" />
<path class="stroke" d="M 47.226276 24.160583 C 49.27007 26.788319 50.437954 29.124084 51.021896 32.043793" />
<path class="stroke" d="M 34.851486 34.37956 L 62.9927 34.37956 L 62.9927 58.905106" />
<path class="stroke" d="M 34.9635 46.642334 L 62.70073 46.642334" />
<path class="stroke" d="M 34.9635 58.905106 L 62.9927 58.905106" />
<path class="stroke" d="M 34.9635 34.37956 L 34.9635 89.85401 C 39.927006 89.270065 45.47445 88.68613 52.77372 84.8905" />
<path class="stroke" d="M 74.9635 64.45255 C 70.58394 70.0 65.91241 73.50365 58.321167 75.54744" />
<path class="stroke" d="M 48.68613 65.32846 C 55.985397 77.00729 66.788315 86.642334 80.51095 89.85401" />
</svg>
