<?xml version="1.0" standalone="no"?>
<!DOCTYPE svg PUBLIC "-//W3C//DTD SVG 1.1//EN" "http://www.w3.org/Graphics/SVG/1.1/DTD/svg11.dtd">
<svg xmlns="http://www.w3.org/2000/svg" version="1.1" width="100%" height="100%">
<style type="text/css"><![CDATA[
  .stroke { fill:none; stroke:black; stroke-width:2 }
]]></style>
<path class="stroke" d="M 13.154171785714285 14.059406 C 16.654879285714284 16.138615 20.15558785714286 19.108912 23.01980357142857 22.673267" />
<path class="stroke" d="M 10.926448928571428 38.118813 C 14.108912142857141 39.90099 17.927864999999997 42.574257 20.473834285714286 46.138615" />
<path class="stroke" d="M 10.608203571428572 85.64356 C 11.321795357142857 87.422676 13.310014285714285 89.896904 15.629600357142856 89.896904 C 17.949189642857142 89.896904 21.110325 76.73267 23.33804892857143 69.60396" />
<path class="stroke" d="M 43.5583915 8.7401457 L 43.5583915 33.756201600000004" />
<path class="stroke" d="M 43.5583915 8.7401457 L 81.222625 8.7401457 L 81.222625 33.756201600000004" />
<path class="stroke" d="M 43.77737125 20.56671862 L 81.0036475 20.56671862" />
<path class="stroke" d="M 43.5583915 32.66423176 L 81.222625 32.66423176" />
<path class="stroke" d="M 35.237224749999996 43.84306458333333 L 35.237224749999996 56.819545833333336" />
<path class="stroke" d="M 35.237224749999996 43.84306458333333 L 89.9817505 43.84306458333333 L 89.9817505 56.819545833333336" />
<path class="stroke" d="M 52.5631225 43.84306458333333 L 52.5631225 56.819545833333336" />
<path class="stroke" d="M 72.436942 43.84306458333333 L 72.436942 56.819545833333336" />
<path class="stroke" d="M 35.237224749999996 56.82564583333333 L 90.12376 56.82564583333333" />
<path class="stroke" d="M 42.89603875 68.03168292 L 80.0990125 68.03168292 C 71.63366125 80.87227761 57.376236999999996 87.14554559999999 32.4257425 92.6346534" />
<path class="stroke" d="M 42.00495025 70.97227761 C 45.32257825 77.05161219 56.93548225 82.05483888 60.806449 84.2903229 C 67.8225775 87.6967743 80.403223 90.2516112 92.351485 92.6346534" />
</svg>
