<?xml version="1.0" standalone="no"?>
<!DOCTYPE svg PUBLIC "-//W3C//DTD SVG 1.1//EN" "http://www.w3.org/Graphics/SVG/1.1/DTD/svg11.dtd">
<svg xmlns="http://www.w3.org/2000/svg" version="1.1" width="100%" height="100%">
<style type="text/css"><![CDATA[
  .stroke { fill:none; stroke:black; stroke-width:2 }
]]></style>
<path class="stroke" d="M 16.84890331 19.6167875 L 84.1510869 19.6167875" />
<path class="stroke" d="M 36.857661699999994 10.49269875 L 36.857661699999994 29.470801249999997" />
<path class="stroke" d="M 64.14232940000001 10.49269875 L 64.14232940000001 29.470801249999997" />
<path class="stroke" d="M 30.7571 28.9148212 C 27.8129 41.062 20.1367 52.969452000000004 6.78233 60.561472" />
<path class="stroke" d="M 27.9179 41.141952 L 90.0631 41.381656 L 89.7476 68.23344399999999 C 89.1167 80.38067600000001 82.4922 94.44584400000001 71.1357 94.605672 L 66.4038 94.605672" />
<path class="stroke" d="M 28.80656875 53.270538904800006 C 31.27372175 55.0279702464 33.551094899999995 57.078305891999996 35.025395 60.10601616" />
<path class="stroke" d="M 65.813867 53.270538904800006 C 64.67518075000001 55.90668616800001 62.587592 58.1034744672 59.74087475 60.0073574592" />
<path class="stroke" d="M 24.6313854 66.1583633928 L 70.5583925 66.1583633928" />
<path class="stroke" d="M 47.5 49.337346336 L 47.594887 89.86265366399999" />
<path class="stroke" d="M 43.989049050000006 67.4764372752 C 40.08311 74.45839728 32.194905000000006 81.55769255999999 22.733576499999998 85.3436469696" />
<path class="stroke" d="M 51.39050805 67.622888424 C 54.580125 74.51111544 62.516365 81.97567584000001 72.0766365 85.49009862000001" />
</svg>
