<?xml version="1.0" standalone="no"?>
<!DOCTYPE svg PUBLIC "-//W3C//DTD SVG 1.1//EN" "http://www.w3.org/Graphics/SVG/1.1/DTD/svg11.dtd">
<svg xmlns="http://www.w3.org/2000/svg" version="1.1" width="100%" height="100%">
<style type="text/css"><![CDATA[
  .stroke { fill:none; stroke:black; stroke-width:2 }
]]></style>
<path class="stroke" d="M 25.3649615 9.854013 C 22.2992685 21.532845 17.7737215 29.416058 14.1240865 36.423355 C 17.627737 41.67883 21.5693415 48.10219 25.3649615 55.985397" />
<path class="stroke" d="M 35.87591 30.29197 C 27.9926985 54.817513 18.2116775 73.50365 8.7226265 87.22627 C 20.4014585 83.13868 31.0583915 81.678825 41.56934 81.678825" />
<path class="stroke" d="M 38.64963 71.75182 C 40.6151 75.9726 42.9811 83.3333 43.46715 89.85401" />
<path class="stroke" d="M 75.36496149999999 9.854013 C 72.2992685 21.532845 67.7737215 29.416058 64.1240865 36.423355 C 67.627737 41.67883 71.56934150000001 48.10219 75.36496149999999 55.985397" />
<path class="stroke" d="M 85.87591 30.29197 C 77.9926985 54.817513 68.21167750000001 73.50365 58.722626500000004 87.22627 C 70.4014585 83.13868 81.0583915 81.678825 91.56934 81.678825" />
<path class="stroke" d="M 88.64963 71.75182 C 90.6151 75.9726 92.9811 83.3333 93.46715 89.85401" />
</svg>
