<?xml version="1.0" standalone="no"?>
<!DOCTYPE svg PUBLIC "-//W3C//DTD SVG 1.1//EN" "http://www.w3.org/Graphics/SVG/1.1/DTD/svg11.dtd">
<svg xmlns="http://www.w3.org/2000/svg" version="1.1" width="100%" height="100%">
<style type="text/css"><![CDATA[
  .stroke { fill:none; stroke:black; stroke-width:2 }
]]></style>
<path class="stroke" d="M 27.238685249999996 10.535421705882353 C 31.26788229 14.107771235294116 34.49123937 19.019750117647057 36.90875787 23.708458588235292" />
<path class="stroke" d="M 69.94817069999999 10.535421705882353 C 68.30426363999999 14.956203235294117 64.91167439999998 20.136107529411763 61.48685939999999 23.931729" />
<path class="stroke" d="M 19.197079 26.594888599999997 L 81.386856 26.594888599999997 L 81.386856 40.989049550000004" />
<path class="stroke" d="M 15.985401 40.989049550000004 L 81.386856 40.989049550000004" />
<path class="stroke" d="M 16.27737 41.237224049999995 L 12.4817505 54.1423346 L 88.10219 54.1423346 C 88.10219 64.0693401 84.8905 69.03284199999999 81.386856 72.2591241 C 79.84525 73.40568909999999 78.46715 75.485396 75.25547 75.7335705 L 71.45985 75.7335705" />
<path class="stroke" d="M 49.85401 26.594888599999997 L 49.85401 91.5851066" />
<path class="stroke" d="M 47.6025 54.6485351 C 40.91478 65.65472015 26.277540000000002 76.15681609999999 10.504679999999999 80.48368074999999" />
</svg>
