<?xml version="1.0" standalone="no"?>
<!DOCTYPE svg PUBLIC "-//W3C//DTD SVG 1.1//EN" "http://www.w3.org/Graphics/SVG/1.1/DTD/svg11.dtd">
<svg xmlns="http://www.w3.org/2000/svg" version="1.1" width="100%" height="100%">
<style type="text/css"><![CDATA[
  .stroke { fill:none; stroke:black; stroke-width:2 }
]]></style>
<path class="stroke" d="M 20.770715441176474 11.605839 C 17.979818382352942 27.372261 12.183339705882354 41.970802 7.245597794117647 50.14598" />
<path class="stroke" d="M 16.477026470588235 30.583939 L 16.477026470588235 90.43795" />
<path class="stroke" d="M 34.164876 8.990537 L 34.164876 74.60566" />
<path class="stroke" d="M 34.164876 8.990537 L 57.89414034782609 8.990537 L 57.89414034782609 74.60566" />
<path class="stroke" d="M 34.164876 31.072573 L 57.56903817391304 31.072573" />
<path class="stroke" d="M 34.164876 53.1546 L 57.56903817391304 53.1546" />
<path class="stroke" d="M 34.164876 74.60566 L 57.89414034782609 74.60566" />
<path class="stroke" d="M 40.015849565217394 82.1766 C 37.8488452173913 87.4343 33.731433913043475 91.7455 27.663687782608697 95.1104" />
<path class="stroke" d="M 51.39299334782609 82.49213 C 54.535201173913045 85.43633 56.70220552173913 88.38063 57.89410943478261 92.58673" />
<path class="stroke" d="M 73.26581934999999 12.1451 L 73.26581934999999 68.612" />
<path class="stroke" d="M 87.30886724999999 6.78233 L 87.30886724999999 84.0694 C 87.40444145 89.6425 84.34742979999999 92.3765 80.71724549999999 92.2713 L 77.5647505 92.2713" />
</svg>
