<?xml version="1.0" standalone="no"?>
<!DOCTYPE svg PUBLIC "-//W3C//DTD SVG 1.1//EN" "http://www.w3.org/Graphics/SVG/1.1/DTD/svg11.dtd">
<svg xmlns="http://www.w3.org/2000/svg" version="1.1" width="100%" height="100%">
<style type="text/css"><![CDATA[
  .stroke { fill:none; stroke:black; stroke-width:2 }
]]></style>
<path class="stroke" d="M 8.607954255319148 13.7224 C 11.1249 16.98216 12.433691489361703 19.92646 13.44054255319149 23.50156" />
<path class="stroke" d="M 34.884871276595746 13.72239 C 34.0794670212766 17.1924 32.36793510638298 20.347 29.750371276595747 23.1862" />
<path class="stroke" d="M 5.587621276595745 33.91172 L 39.11327234042554 33.91172" />
<path class="stroke" d="M 22.19947659574468 5.8359594 L 22.19947659574468 94.164" />
<path class="stroke" d="M 22.19940957446809 41.798 C 21.091930851063832 54.942 14.245898936170214 66.8245 6.493710638297873 73.343796" />
<path class="stroke" d="M 22.501541489361703 44.32176 C 28.54216914893617 47.37116 32.77063723404256 51.68236 36.09297765957447 57.25546" />
<path class="stroke" d="M 73.742575 8.376237900000001 C 74.63366199999999 11.3168313 75.34653399999999 13.9900986 75.34653399999999 17.198020800000002" />
<path class="stroke" d="M 56.7737218 17.2773711 L 92.16058 17.2773711" />
<path class="stroke" d="M 56.7737218 17.2773711 L 56.7737218 32.5182474 C 56.7737218 51.1751817 52.919707 65.364957 43.6957606 84.45636" />
<path class="stroke" d="M 62.204817141999996 48.4350352 L 89.19517944999998 48.4350352" />
<path class="stroke" d="M 75.69999999999999 24.23649537 L 75.69999999999999 79.9795554" />
<path class="stroke" d="M 58.597809538 79.9795554 L 92.67780825999999 79.9795554" />
</svg>
