<?xml version="1.0" standalone="no"?>
<!DOCTYPE svg PUBLIC "-//W3C//DTD SVG 1.1//EN" "http://www.w3.org/Graphics/SVG/1.1/DTD/svg11.dtd">
<svg xmlns="http://www.w3.org/2000/svg" version="1.1" width="100%" height="100%">
<style type="text/css"><![CDATA[
  .stroke { fill:none; stroke:black; stroke-width:2 }
]]></style>
<path class="stroke" d="M 17.737225 7.245597794117647 C 23.576641 10.680549264705883 28.248173 15.403605882352942 31.751823 19.911979411764708" />
<path class="stroke" d="M 79.63503 7.245597794117647 C 77.252556 11.496349264705882 72.33576 16.477026470588235 67.37226 20.126662500000002" />
<path class="stroke" d="M 23.19124024 23.895218337499998 L 23.19124024 54.351275724999994" />
<path class="stroke" d="M 23.19124024 23.895218337499998 L 69.018976 23.895218337499998 L 69.018976 54.058429815000004" />
<path class="stroke" d="M 23.19124024 52.008501423999995 L 69.018976 52.008501423999995" />
<path class="stroke" d="M 37.007298 56.545145207 L 37.007298 68.316092954 C 37.007298 78.69477915499999 29.416058 88.94689549399999 10.437956 91.604851325" />
<path class="stroke" d="M 54.233574 56.4185766455 L 54.233574 86.28894053 C 54.233574 89.453174075 58.029198 91.351713335 62.116783 91.351713335 L 84.8905 91.351713335 C 88.10219 91.47828233 90.43795 90.465726035 90.43795 89.073462755 L 90.43795 86.668649249" />
</svg>
