<?xml version="1.0" standalone="no"?>
<!DOCTYPE svg PUBLIC "-//W3C//DTD SVG 1.1//EN" "http://www.w3.org/Graphics/SVG/1.1/DTD/svg11.dtd">
<svg xmlns="http://www.w3.org/2000/svg" version="1.1" width="100%" height="100%">
<style type="text/css"><![CDATA[
  .stroke { fill:none; stroke:black; stroke-width:2 }
]]></style>
<path class="stroke" d="M 39.27446 6.52681316 L 39.27446 33.75708636 C 39.27446 45.622444800000004 25.39436 50.4342648 8.04416 51.9653008" />
<path class="stroke" d="M 7.09779 15.712908 L 36.4353 15.712908" />
<path class="stroke" d="M 11.8297 26.539412 L 36.4353 26.539412" />
<path class="stroke" d="M 7.41325 38.022104 L 36.1199 35.069388000000004" />
<path class="stroke" d="M 61.9874 6.5268168 L 61.9874 51.801272000000004" />
<path class="stroke" d="M 61.9874 15.876968000000002 L 93.2177 15.876968000000002" />
<path class="stroke" d="M 61.9874 26.703471999999998 L 88.4858 26.703471999999998" />
<path class="stroke" d="M 61.9874 38.186112 L 92.9022 38.186112" />
<path class="stroke" d="M 16.70157 63.46596772 L 83.9267 63.46596772" />
<path class="stroke" d="M 22.992699 69.5620426 L 22.70073 81.33430659999999" />
<path class="stroke" d="M 22.70073 69.5620426 L 77.29926 69.5620426 L 77.29926 81.33430659999999" />
<path class="stroke" d="M 22.70073 75.4272208 L 77.00729 75.4272208" />
<path class="stroke" d="M 22.70073 81.456934 L 77.29926 81.456934" />
<path class="stroke" d="M 15.109488 87.58832079999999 L 84.8905 87.58832079999999" />
<path class="stroke" d="M 50.18563 58.77080284 L 50.18563 93.10656639999999" />
</svg>
