<?xml version="1.0" standalone="no"?>
<!DOCTYPE svg PUBLIC "-//W3C//DTD SVG 1.1//EN" "http://www.w3.org/Graphics/SVG/1.1/DTD/svg11.dtd">
<svg xmlns="http://www.w3.org/2000/svg" version="1.1" width="100%" height="100%">
<style type="text/css"><![CDATA[
  .stroke { fill:none; stroke:black; stroke-width:2 }
]]></style>
<path class="stroke" d="M 10.267693518518518 15.528433000000001 L 42.445910185185184 15.528433000000001" />
<path class="stroke" d="M 9.71763888888889 31.7881189 L 9.71763888888889 84.9237622" />
<path class="stroke" d="M 9.71763888888889 31.812318 L 43.546018518518515 31.812318 L 43.546018518518515 84.9237622" />
<path class="stroke" d="M 20.99376574074074 15.39801952 L 20.99376574074074 41.3049512 C 20.99376574074074 47.12079237 20.718737037037037 53.46534516 14.66813425925926 57.1663354" />
<path class="stroke" d="M 31.444811111111115 15.66237622 L 31.444811111111115 42.89108873 C 31.444811111111115 48.442574979999996 31.444811111111115 52.93663265 35.84525 52.93663265 L 38.320499999999996 52.93663265" />
<path class="stroke" d="M 14.393105555555556 69.062378 L 39.145583333333335 69.062378" />
<path class="stroke" d="M 9.71763888888889 84.9237622 L 43.546018518518515 84.9237622" />
<path class="stroke" d="M 66.97162 6.46688 C 66.78232 11.5142 65.26816 14.3534 63.186099999999996 17.1925" />
<path class="stroke" d="M 51.072525999999996 18.1388 L 51.072525999999996 54.1009" />
<path class="stroke" d="M 51.072525999999996 18.1388 L 88.359646 17.8233 L 88.359646 53.7854" />
<path class="stroke" d="M 69.8107 18.1388 L 69.8107 54.1009" />
<path class="stroke" d="M 51.261778 35.489 L 87.98105799999999 35.489" />
<path class="stroke" d="M 51.072525999999996 54.1009 L 88.359646 53.7854" />
<path class="stroke" d="M 64.70026 54.4164 C 64.57408 75.9726 56.87698 89.0116 44.069398 94.4795" />
<path class="stroke" d="M 72.2713 54.4164 L 72.2713 89.7476 C 72.29512 92.6066 73.09335999999999 93.6413 74.5426 93.5332 L 93.28078 93.5332 C 94.795 93.7261 95.91406 92.9022 95.93062 90.0631 L 95.93062 82.8076" />
<path class="stroke" d="M 84.57412 61.9873 C 82.99683999999999 69.8738 80.47317999999999 76.8139 77.00314 83.7539 C 81.48262 81.2303 85.96216 79.0221 90.44164 78.3912" />
<path class="stroke" d="M 88.17034000000001 71.4511 C 90.18928 75.0263 91.0726 78.9169 91.38802 82.8076" />
</svg>
