<?xml version="1.0" standalone="no"?>
<!DOCTYPE svg PUBLIC "-//W3C//DTD SVG 1.1//EN" "http://www.w3.org/Graphics/SVG/1.1/DTD/svg11.dtd">
<svg xmlns="http://www.w3.org/2000/svg" version="1.1" width="100%" height="100%">
<style type="text/css"><![CDATA[
  .stroke { fill:none; stroke:black; stroke-width:2 }
]]></style>
<path class="stroke" d="M 6.412408449999999 24.18978 L 6.412408449999999 72.77372" />
<path class="stroke" d="M 6.412408449999999 24.18978 L 28.689779999999995 24.18978 L 28.689779999999995 72.306568" />
<path class="stroke" d="M 6.412408449999999 69.03649279999999 L 28.689779999999995 69.03649279999999" />
<path class="stroke" d="M 42.92335635 13.3394155 L 92.0766365 13.3394155" />
<path class="stroke" d="M 57.5364945 7.13503515 L 57.5364945 20.040144849999997" />
<path class="stroke" d="M 77.46349900000001 7.13503515 L 77.46349900000001 20.040144849999997" />
<path class="stroke" d="M 48.430599 30.7965295 L 48.430599 48.541064500000005" />
<path class="stroke" d="M 48.430599 30.7965295 L 87.184509 30.7965295 L 87.184509 48.541064500000005" />
<path class="stroke" d="M 48.430599 48.541064500000005 L 87.184509 48.541064500000005" />
<path class="stroke" d="M 44.53471025 60.8438395 L 90.670342 60.8438395" />
<path class="stroke" d="M 40.84384905 73.14667 L 94.771309 73.14667" />
<path class="stroke" d="M 67.705075 31.03312 L 67.705075 70.5442 C 67.841705 83.63560000000001 53.010005 95.7808 39.8186125 96.09625" />
<path class="stroke" d="M 67.705075 70.5442 C 67.705075 83.47795 79.5978 95.7019 95.18142 96.09625" />
</svg>
