<?xml version="1.0" standalone="no"?>
<!DOCTYPE svg PUBLIC "-//W3C//DTD SVG 1.1//EN" "http://www.w3.org/Graphics/SVG/1.1/DTD/svg11.dtd">
<svg xmlns="http://www.w3.org/2000/svg" version="1.1" width="100%" height="100%">
<style type="text/css"><![CDATA[
  .stroke { fill:none; stroke:black; stroke-width:2 }
]]></style>
<path class="stroke" d="M 9.785 11.116710399999999 L 9.785 59.570944" />
<path class="stroke" d="M 9.785 10.8138784 L 43.37537037037037 10.8138784" />
<path class="stroke" d="M 25.55787962962963 10.8138784 L 25.55787962962963 59.268159999999995" />
<path class="stroke" d="M 10.369259259259259 25.955872 L 38.70194444444444 25.955872" />
<path class="stroke" d="M 9.785 42.914848 L 38.409814814814816 42.914848" />
<path class="stroke" d="M 9.785 59.570944 L 43.37537037037037 59.570944 C 43.6675 71.987392 41.330740740740744 92.58044799999999 34.612685185185185 92.88332799999999 L 27.310462962962962 92.88332799999999" />
<path class="stroke" d="M 7.448291666666667 70.17037119999999 C 8.90874537037037 75.82333119999998 8.90874537037037 81.17360319999999 7.448291666666667 87.1293472" />
<path class="stroke" d="M 15.334740740740742 69.26188479999999 C 17.671592592592592 74.20828479999999 18.255666666666666 78.2459488 18.255666666666666 83.49522879999999" />
<path class="stroke" d="M 22.929111111111112 68.05049919999999 C 25.265870370370372 71.9873632 26.434203703703705 75.3185632 27.310407407407407 79.2554272" />
<path class="stroke" d="M 30.52346296296296 66.8390368 C 32.27605555555555 69.7664608 33.4442962962963 72.69398079999999 34.61262962962963 75.9242848" />
<path class="stroke" d="M 64.3801289 6.1119825 C 72.0836159 9.0036825 76.5599339 12.8417575 79.2665609 18.1782575" />
<path class="stroke" d="M 56.040144500000004 29.0839407 L 88.95985000000002 29.0839407" />
<path class="stroke" d="M 72.671303 29.0839407 L 72.671303 89.6386785" />
<path class="stroke" d="M 58.6094871 58.6167861 L 86.551092 58.6167861" />
<path class="stroke" d="M 51.0620428 89.6386785 L 94.09853575 89.6386785" />
</svg>
