<?xml version="1.0" standalone="no"?>
<!DOCTYPE svg PUBLIC "-//W3C//DTD SVG 1.1//EN" "http://www.w3.org/Graphics/SVG/1.1/DTD/svg11.dtd">
<svg xmlns="http://www.w3.org/2000/svg" version="1.1" width="100%" height="100%">
<style type="text/css"><![CDATA[
  .stroke { fill:none; stroke:black; stroke-width:2 }
]]></style>
<path class="stroke" d="M 4.07299248 15.9197064 L 4.07299248 74.78101600000001" />
<path class="stroke" d="M 4.07299248 15.686129600000001 L 32.03211456 15.686129600000001 L 32.03211456 74.78101600000001" />
<path class="stroke" d="M 18.0525528 15.9197064 L 18.0525528 70.57664" />
<path class="stroke" d="M 4.07299248 43.1156464 L 31.8218976 43.1156464" />
<path class="stroke" d="M 4.07299248 70.57664 L 32.03211456 70.57664" />
<path class="stroke" d="M 63.60875712 12.81605692 C 59.3109472 21.487591000000002 52.0233568 30.5445235 44.54890368 36.325546" />
<path class="stroke" d="M 61.36642112 17.82627664 L 77.9970816 17.82627664 C 71.2700736 33.62773462 56.8817504 51.9343018 42.4934304 61.9547386" />
<path class="stroke" d="M 54.26569344 27.26861284 C 61.6 41.25806524 76.68904768 54.4394143 92.5722624 61.9547386" />
<path class="stroke" d="M 55.249050784000005 58.98175125 L 55.249050784000005 86.3102175" />
<path class="stroke" d="M 55.249050784000005 58.98175125 L 77.65372160000001 58.98175125 L 77.65372160000001 86.04744450000001" />
<path class="stroke" d="M 55.249050784000005 84.2080272 L 77.65372160000001 84.2080272" />
</svg>
