<?xml version="1.0" standalone="no"?>
<!DOCTYPE svg PUBLIC "-//W3C//DTD SVG 1.1//EN" "http://www.w3.org/Graphics/SVG/1.1/DTD/svg11.dtd">
<svg xmlns="http://www.w3.org/2000/svg" version="1.1" width="100%" height="100%">
<style type="text/css"><![CDATA[
  .stroke { fill:none; stroke:black; stroke-width:2 }
]]></style>
<path class="stroke" d="M 10.961809821428572 14.059406 C 13.879066071428571 16.138615 16.796323214285717 19.108912 19.183169642857145 22.673267" />
<path class="stroke" d="M 9.105374107142858 38.118813 C 11.757426785714285 39.90099 14.939887500000001 42.574257 17.06152857142857 46.138615" />
<path class="stroke" d="M 8.840169642857143 85.64356 C 9.434829464285714 87.422676 11.091678571428572 89.896904 13.024666964285714 89.896904 C 14.957658035714285 89.896904 17.5919375 76.73267 19.448374107142858 69.60396" />
<path class="stroke" d="M 29.140375 22.23974 L 95.859625 22.23974" />
<path class="stroke" d="M 39.55051 37.38167 L 39.55051 93.84857" />
<path class="stroke" d="M 39.55051 37.38167 L 85.212985 37.38167 L 85.212985 88.17037 C 85.449535 91.53527 83.793385 93.638275 81.427435 93.53307 L 79.29811000000001 93.53307" />
<path class="stroke" d="M 39.7870375 52.2082 L 84.9763375 51.8927" />
<path class="stroke" d="M 39.5504875 67.6656 L 84.9764125 67.6656" />
<path class="stroke" d="M 62.5 6.78233 L 62.5 93.8486" />
<path class="stroke" d="M 77.40535 6.78233 C 80.4811 8.88539 82.373875 12.2503 83.79339999999999 15.9306" />
</svg>
