<?xml version="1.0" standalone="no"?>
<!DOCTYPE svg PUBLIC "-//W3C//DTD SVG 1.1//EN" "http://www.w3.org/Graphics/SVG/1.1/DTD/svg11.dtd">
<svg xmlns="http://www.w3.org/2000/svg" version="1.1" width="100%" height="100%">
<style type="text/css"><![CDATA[
  .stroke { fill:none; stroke:black; stroke-width:2 }
]]></style>
<path class="stroke" d="M 16.126823854166666 9.562042 C 18.681569375 11.021896 21.23631125 14.817516 22.93947395833333 19.48905" />
<path class="stroke" d="M 7.1852178124999995 22.8707 L 31.029497916666667 22.8707" />
<path class="stroke" d="M 11.868915625 37.007298 L 26.345802291666665 37.007298" />
<path class="stroke" d="M 11.868915625 51.313866 L 26.345802291666665 51.313866" />
<path class="stroke" d="M 11.017335 64.45255 L 11.017335 85.76642" />
<path class="stroke" d="M 11.017335 64.16058 L 27.623173958333332 64.16058 L 27.623173958333332 85.76642" />
<path class="stroke" d="M 11.017335 85.76642 L 27.410279166666665 85.76642" />
<path class="stroke" d="M 42.92335635 19.6167875 L 92.0766365 19.6167875" />
<path class="stroke" d="M 57.5364945 10.49269875 L 57.5364945 29.470801249999997" />
<path class="stroke" d="M 77.46349900000001 10.49269875 L 77.46349900000001 29.470801249999997" />
<path class="stroke" d="M 51.84306455 29.43430585 C 50.894159450000004 33.90145945 44.821167200000005 38.6313865 41.2153273 39.682480749999996" />
<path class="stroke" d="M 48.99634925 36.266422750000004 L 48.99634925 65.6970775" />
<path class="stroke" d="M 71.58028855 29.56569325 C 70.44160295 32.4562039 68.3540129 34.95255415 65.3175171 36.39780925" />
<path class="stroke" d="M 48.99634925 36.143547999999996 L 84.105836 36.143547999999996" />
<path class="stroke" d="M 66.2664235 36.39780925 L 66.2664235 65.6970775" />
<path class="stroke" d="M 48.99634925 46.5063325 L 81.638683 46.5063325" />
<path class="stroke" d="M 48.99634925 56.105837799999996 L 81.8284635 56.105837799999996" />
<path class="stroke" d="M 48.99634925 65.6970775 L 87.9014564 65.6970775" />
<path class="stroke" d="M 50.50990025 77.75247505 L 82.7524775 77.75247505 C 75.41583975 87.9665844625 63.0594054 92.956684 41.4356435 97.32301974999999" />
<path class="stroke" d="M 49.73762355 80.0915844625 C 52.61290115 84.9274187875 62.677417950000006 88.9072582 66.0322558 90.685484125 C 72.1129005 93.395161375 83.0161266 95.42741799999999 93.371287 97.32301974999999" />
</svg>
