<?xml version="1.0" standalone="no"?>
<!DOCTYPE svg PUBLIC "-//W3C//DTD SVG 1.1//EN" "http://www.w3.org/Graphics/SVG/1.1/DTD/svg11.dtd">
<svg xmlns="http://www.w3.org/2000/svg" version="1.1" width="100%" height="100%">
<style type="text/css"><![CDATA[
  .stroke { fill:none; stroke:black; stroke-width:2 }
]]></style>
<path class="stroke" d="M 9.60396 33.069305 L 30.9901 30.9901" />
<path class="stroke" d="M 23.267326 9.60396 L 23.267326 84.15842 C 23.267326 87.42574 20.594059 90.09901 17.029703 90.09901" />
<path class="stroke" d="M 10.198019 63.36634 L 28.910892 46.435642" />
<path class="stroke" d="M 50.1626857456 8.3211675 L 50.1626857456 26.540145" />
<path class="stroke" d="M 50.1626857456 8.3211675 L 77.96484544 8.3211675 L 77.96484544 26.364963" />
<path class="stroke" d="M 50.1626857456 25.138684799999996 L 77.96484544 25.138684799999996" />
<path class="stroke" d="M 46.12262776 41.109488060000004 L 46.12262776 81.6583914" />
<path class="stroke" d="M 46.35036358000001 41.109488060000004 L 81.87736600000001 41.109488060000004 L 81.87736600000001 81.6583914" />
<path class="stroke" d="M 46.35811444 54.950496400000006 L 81.83960152 54.950496400000006" />
<path class="stroke" d="M 46.35811444 68.57821854 L 81.83960152 68.57821854" />
<path class="stroke" d="M 46.35036358000001 81.47737000000001 L 81.64962940000001 81.47737000000001" />
<path class="stroke" d="M 50.90510884 85.821896 C 49.08321136 88.899266 46.12262776 90.5284648 42.7065694 91.2525504" />
<path class="stroke" d="M 78.00583599999999 86.0029174 C 81.4218928 86.727003 83.9270032 88.35620180000001 85.97664040000001 91.2525504" />
</svg>
