<?xml version="1.0" standalone="no"?>
<!DOCTYPE svg PUBLIC "-//W3C//DTD SVG 1.1//EN" "http://www.w3.org/Graphics/SVG/1.1/DTD/svg11.dtd">
<svg xmlns="http://www.w3.org/2000/svg" version="1.1" width="100%" height="100%">
<style type="text/css"><![CDATA[
  .stroke { fill:none; stroke:black; stroke-width:2 }
]]></style>
<path class="stroke" d="M 25.0 5.13357653 L 25.0 9.31167884" />
<path class="stroke" d="M 11.0583935 9.548174809999999 L 39.233575 9.548174809999999" />
<path class="stroke" d="M 13.3941595 12.9379565 C 16.3138675 15.77591192 18.503649 19.4810204 19.6715315 23.1072986" />
<path class="stroke" d="M 37.0437925 12.3072986 C 33.540145 15.224087 30.6204375 19.7175188 29.89051 24.368611700000002" />
<path class="stroke" d="M 5.656934 25.1569334 L 44.051095 25.1569334" />
<path class="stroke" d="M 14.14014446 42.820277129 L 14.14014446 64.142785952" />
<path class="stroke" d="M 14.14014446 42.820277129 L 35.734305 42.820277129 L 35.734305 64.142785952" />
<path class="stroke" d="M 14.265692849999999 52.900691341400005 L 35.6087579 52.900691341400005" />
<path class="stroke" d="M 14.14014446 63.2120422472 L 35.734305 63.2120422472" />
<path class="stroke" d="M 4.9270065 74.25574667000001 L 45.36496 74.25574667000001" />
<path class="stroke" d="M 24.961685 65.403413243 L 24.961685 92.166583418" />
<path class="stroke" d="M 86.31386499999999 9.854013 C 78.86861 20.948904 68.065693 29.124084 60.182480999999996 30.0" />
<path class="stroke" d="M 90.54744500000001 34.37956 C 82.01237 49.22649 74.56072 55.46259 61.71837 58.21079" />
<path class="stroke" d="M 94.70027 60.953674 C 85.217985 79.264305 72.2992685 88.68613 58.576642 89.56204" />
</svg>
