<?xml version="1.0" standalone="no"?>
<!DOCTYPE svg PUBLIC "-//W3C//DTD SVG 1.1//EN" "http://www.w3.org/Graphics/SVG/1.1/DTD/svg11.dtd">
<svg xmlns="http://www.w3.org/2000/svg" version="1.1" width="100%" height="100%">
<style type="text/css"><![CDATA[
  .stroke { fill:none; stroke:black; stroke-width:2 }
]]></style>
<path class="stroke" d="M 49.43847 9.562042 L 49.43847 16.861313" />
<path class="stroke" d="M 18.905107 16.861313 L 79.63503 16.861313" />
<path class="stroke" d="M 28.540146 17.153284 C 33.211678 22.992699 37.007298 30.29197 38.46715 38.17518" />
<path class="stroke" d="M 68.24817 17.153284 C 66.20438 24.744522 63.284668 31.751823 59.197075 38.17518" />
<path class="stroke" d="M 15.69343 38.17518 L 84.8905 38.17518" />
<path class="stroke" d="M 15.8265 38.17518 L 15.8265 61.240875 C 15.8265 74.67153 13.649633 83.722626 9.270073 90.14598" />
<path class="stroke" d="M 69.9343018 45.61678741 C 60.106565200000006 51.94087528 45.84671476 56.600727879999994 35.44087492 57.099999999999994" />
<path class="stroke" d="M 75.5226274 59.5963492 C 64.2563284 68.0590993 54.420150400000004 71.6136763 37.4682484 73.18015030000001" />
<path class="stroke" d="M 81.0043564 74.74359418 C 68.48774019999999 85.18065385 51.43503442 90.5510941 33.321167439999996 91.05036279999999" />
</svg>
