<?xml version="1.0" standalone="no"?>
<!DOCTYPE svg PUBLIC "-//W3C//DTD SVG 1.1//EN" "http://www.w3.org/Graphics/SVG/1.1/DTD/svg11.dtd">
<svg xmlns="http://www.w3.org/2000/svg" version="1.1" width="100%" height="100%">
<style type="text/css"><![CDATA[
  .stroke { fill:none; stroke:black; stroke-width:2 }
]]></style>
<path class="stroke" d="M 16.35318867924528 5.5205 L 16.35318867924528 16.877" />
<path class="stroke" d="M 4.895542452830188 17.1924 L 28.506641509433962 17.1924 C 23.22778301886792 37.2765 15.311509433962263 51.9978 4.270581132075471 60.7256" />
<path class="stroke" d="M 16.35318867924528 47.1609 L 16.35318867924528 94.795" />
<path class="stroke" d="M 30.51907547169811 39.2744 C 29.82462264150943 43.2702 28.50525471698113 46.6351 26.769254716981127 48.4228" />
<path class="stroke" d="M 16.561537735849058 46.5299 C 21.838943396226412 50.6309 25.033188679245285 55.6783 28.435783018867923 63.5646" />
<path class="stroke" d="M 43.792079 24.329895 L 43.792079 47.623764 C 43.792079 75.84158 41.7128718 82.07921 39.2178226 88.019806" />
<path class="stroke" d="M 43.783504 24.455444 L 86.97422499999999 24.455444 L 86.97422499999999 27.57732 C 86.97422499999999 30.206184 86.757729 32.061855 85.783504 34.381443" />
<path class="stroke" d="M 65.8316826 9.60396 L 65.8316826 42.27723" />
<path class="stroke" d="M 52.524754 42.27723 L 79.346535 42.27723 C 76.40902 72.0821 60.6336625 88.91089 45.6633652 89.80198" />
<path class="stroke" d="M 55.7643974 43.717278 C 55.780267099999996 55.470665 73.5759135 89.58115 86.54973799999999 89.58115" />
</svg>
