<?xml version="1.0" standalone="no"?>
<!DOCTYPE svg PUBLIC "-//W3C//DTD SVG 1.1//EN" "http://www.w3.org/Graphics/SVG/1.1/DTD/svg11.dtd">
<svg xmlns="http://www.w3.org/2000/svg" version="1.1" width="100%" height="100%">
<style type="text/css"><![CDATA[
  .stroke { fill:none; stroke:black; stroke-width:2 }
]]></style>
<path class="stroke" d="M 15.554452152 6.2080287499999995 L 15.554452152 27.4635025" />
<path class="stroke" d="M 15.554452152 6.2080287499999995 L 44.5786848 6.2080287499999995 L 44.5786848 27.2591235" />
<path class="stroke" d="M 15.554452152 25.828465599999998 L 44.5786848 25.828465599999998" />
<path class="stroke" d="M 9.369119999999999 40.843851 L 9.369119999999999 95.79658" />
<path class="stroke" d="M 9.369119999999999 40.843851 L 50.44164 40.843851 L 50.44164 91.285515 C 50.50469999999999 93.677775 48.86436 95.45481000000001 47.22396 95.386495 L 44.763419999999996 95.386495" />
<path class="stroke" d="M 10.126182 67.4999935 L 49.873848 67.7050685" />
<path class="stroke" d="M 23.186087999999998 41.04889675 L 23.186087999999998 94.3611915" />
<path class="stroke" d="M 37.381688399999994 41.04889805 L 37.381688399999994 94.56623400000001" />
<path class="stroke" d="M 56.632489 9.30599 L 95.03313399999999 9.30599 L 95.03313399999999 87.8548 C 95.03313399999999 91.6404 93.84699499999999 93.8486 92.660856 93.8486 L 90.585195 93.8486" />
<path class="stroke" d="M 62.7015542466 26.25 L 85.128443535 26.25" />
<path class="stroke" d="M 66.00891364819 41.32883162500001 L 66.00891364819 64.70985275000001" />
<path class="stroke" d="M 66.00891364819 41.32883162500001 L 81.893952556 41.32883162500001 L 81.893952556 64.48503585" />
<path class="stroke" d="M 66.00891364819 62.91131216000001 L 81.893952556 62.91131216000001" />
</svg>
