<?xml version="1.0" standalone="no"?>
<!DOCTYPE svg PUBLIC "-//W3C//DTD SVG 1.1//EN" "http://www.w3.org/Graphics/SVG/1.1/DTD/svg11.dtd">
<svg xmlns="http://www.w3.org/2000/svg" version="1.1" width="100%" height="100%">
<style type="text/css"><![CDATA[
  .stroke { fill:none; stroke:black; stroke-width:2 }
]]></style>
<path class="stroke" d="M 11.313868 17.445253 C 15.401459 18.029196 19.48905 20.364962 22.408756 24.160583" />
<path class="stroke" d="M 9.270073 47.226276 C 13.357662 47.226276 18.321167 46.934303 23.86861 43.138683 C 16.27737 53.357662 14.233576 58.321167 15.109488 60.9489 C 15.69343 63.284668 20.948904 65.62044 22.116787 68.832115 C 23.576641 72.33576 18.129246 80.26506 11.021896 83.722626" />
<path class="stroke" d="M 11.021896 84.014595 C 39.692924 81.65476 40.51095 91.313866 90.43795 90.14598" />
<path class="stroke" d="M 56.660399999999996 8.6037776 C 50.169816 13.270447999999998 43.679304 16.616419999999998 35.830224 18.641575999999997" />
<path class="stroke" d="M 35.830224 18.641575999999997 L 35.830224 65.396228 M 31.3018884 67.50949999999999 L 55.301880239999996 56.943391999999996" />
<path class="stroke" d="M 66.17980800000001 16.719876499999998 L 91.845432 16.719876499999998 L 91.845432 57.739424215999996 C 91.845432 61.07821807999999 90.028368 62.74761727999999 87.757056 62.74761727999999 L 83.895912 62.74761727999999" />
<path class="stroke" d="M 66.17980800000001 16.719876499999998 L 66.17980800000001 81.11101604" />
</svg>
