<?xml version="1.0" standalone="no"?>
<!DOCTYPE svg PUBLIC "-//W3C//DTD SVG 1.1//EN" "http://www.w3.org/Graphics/SVG/1.1/DTD/svg11.dtd">
<svg xmlns="http://www.w3.org/2000/svg" version="1.1" width="100%" height="100%">
<style type="text/css"><![CDATA[
  .stroke { fill:none; stroke:black; stroke-width:2 }
]]></style>
<path class="stroke" d="M 20.594059 25.643566 L 44.059406 25.643566" />
<path class="stroke" d="M 32.475246 9.60396 L 32.475246 41.38614" />
<path class="stroke" d="M 12.277227 41.482674 L 49.10891 41.482674" />
<path class="stroke" d="M 32.475246 44.950497 L 32.475246 82.67327" />
<path class="stroke" d="M 32.475246 59.50495 L 47.623764 59.50495" />
<path class="stroke" d="M 20.891088 59.50495 C 18.217821 72.871284 17.623762 79.10891 9.90099 90.09901" />
<path class="stroke" d="M 17.920792 73.762375 C 35.148514 91.58416 70.792076 89.80198 90.09901 89.80198" />
<path class="stroke" d="M 60.39780925 13.087955749999999 L 84.178831 12.118612859999999 C 83.6532805 21.20620401 82.60218850000001 26.53759032 81.15693250000001 33.444160589999996 C 80.368609 36.715692325 78.9233557 41.6835764 76.164232 41.6835764 L 74.7189769 41.6835764" />
<path class="stroke" d="M 68.54379385 12.845619405 L 67.2299275 20.236859459999998 C 65.12773585 29.68795326 61.31751745 35.746347775000004 58.0328455 40.83539939999999" />
<path class="stroke" d="M 57.24452515 53.86094837499999 L 57.24452515 79.06386725" />
<path class="stroke" d="M 57.24452515 53.86094837499999 L 85.88686 53.86094837499999 L 85.88686 78.82153215000001" />
<path class="stroke" d="M 57.24452515 77.12518064 L 85.88686 77.12518064" />
</svg>
