<?xml version="1.0" standalone="no"?>
<!DOCTYPE svg PUBLIC "-//W3C//DTD SVG 1.1//EN" "http://www.w3.org/Graphics/SVG/1.1/DTD/svg11.dtd">
<svg xmlns="http://www.w3.org/2000/svg" version="1.1" width="100%" height="100%">
<style type="text/css"><![CDATA[
  .stroke { fill:none; stroke:black; stroke-width:2 }
]]></style>
<path class="stroke" d="M 5.520505 16.7933565 L 93.84859 16.7933565" />
<path class="stroke" d="M 15.61516 27.203415500000002 L 15.61516 54.269740500000005" />
<path class="stroke" d="M 15.61516 27.203415500000002 L 83.75396 27.203415500000002 L 83.75396 54.269740500000005" />
<path class="stroke" d="M 15.93059 40.04261 L 83.12309 40.04261" />
<path class="stroke" d="M 15.61516 54.269740500000005 L 83.75396 54.269740500000005" />
<path class="stroke" d="M 49.6845 6.9037845 L 49.6845 54.09621" />
<path class="stroke" d="M 65.7729 7.944797 C 69.3481 9.332810000000002 71.6614 11.06784 73.6593 13.149865" />
<path class="stroke" d="M 47.79182 62.18467075 L 47.79182 67.3087579" />
<path class="stroke" d="M 14.525547 67.3087579 L 85.76642 67.3087579" />
<path class="stroke" d="M 46.35036 73.34379457 L 77.88321 73.34379457 C 76.423355 78.6956191 75.25547 82.22554536999999 72.9197 85.4138683 C 70.0 89.0576617 64.74452 92.3598541 60.07299 92.3598541 L 54.233574 92.3598541" />
<path class="stroke" d="M 47.810215 67.3087579 L 45.766422 74.1408754 C 43.722626 81.42846610000001 36.131386 88.60218850000001 24.744522 90.76569205" />
</svg>
