<?xml version="1.0" standalone="no"?>
<!DOCTYPE svg PUBLIC "-//W3C//DTD SVG 1.1//EN" "http://www.w3.org/Graphics/SVG/1.1/DTD/svg11.dtd">
<svg xmlns="http://www.w3.org/2000/svg" version="1.1" width="100%" height="100%">
<style type="text/css"><![CDATA[
  .stroke { fill:none; stroke:black; stroke-width:2 }
]]></style>
<path class="stroke" d="M 10.8978088 15.45620375 L 10.8978088 70.63868000000001" />
<path class="stroke" d="M 10.8978088 15.45620375 L 30.9854 15.45620375 L 30.9854 70.63868000000001" />
<path class="stroke" d="M 11.014598 41.54423225 L 30.868612000000002 41.54423225" />
<path class="stroke" d="M 10.8978088 68.229923 L 30.9854 68.229923" />
<path class="stroke" d="M 46.4452538 15.864263617021276 L 83.37371859999999 15.864263617021276" />
<path class="stroke" d="M 65.0905076 9.15514659574468 L 65.0905076 39.06662265957447" />
<path class="stroke" d="M 48.0744526 27.32567170212766 L 81.9255412 27.32567170212766" />
<path class="stroke" d="M 40.2905107 39.06662265957447 L 89.8905076 39.06662265957447" />
<path class="stroke" d="M 54.04817492 49.51824728 L 54.014765600000004 75.1570504 C 53.5089014 86.42512959999999 54.357235 87.95052480000001 49.61361314 93.8136128" />
<path class="stroke" d="M 54.04817492 49.51824728 L 79.3912416 49.51824728 L 79.3912416 92.19269840000001 C 79.3912416 93.5007296 78.6671498 94.645252 76.85693208 94.645252 L 74.8656942 94.645252" />
<path class="stroke" d="M 54.04817492 61.843043120000004 L 79.3912416 61.843043120000004" />
<path class="stroke" d="M 54.04817492 74.86178816 L 79.3912416 74.86178816" />
</svg>
