<?xml version="1.0" standalone="no"?>
<!DOCTYPE svg PUBLIC "-//W3C//DTD SVG 1.1//EN" "http://www.w3.org/Graphics/SVG/1.1/DTD/svg11.dtd">
<svg xmlns="http://www.w3.org/2000/svg" version="1.1" width="100%" height="100%">
<style type="text/css"><![CDATA[
  .stroke { fill:none; stroke:black; stroke-width:2 }
]]></style>
<path class="stroke" d="M 11.173250454545453 25.811516 C 10.7448825 33.979057 9.888147954545454 36.806282 9.03141340909091 41.83246" />
<path class="stroke" d="M 26.192618181818183 23.267326 C 24.9774975 28.613861 23.35733659090909 33.069305 21.129613636363636 36.336636" />
<path class="stroke" d="M 16.674166363636363 9.306931 L 16.674166363636363 57.72277 C 16.674166363636363 74.653465 10.64665909090909 85.6467 6.548154545454546 90.39604" />
<path class="stroke" d="M 16.471647954545453 63.36634 C 19.914490909090908 68.71287 23.154815454545457 75.24753 24.57245727272727 82.9703" />
<path class="stroke" d="M 45.78864 5.83596 C 44.53732 20.347 39.53204 31.7035 34.085172 39.5899" />
<path class="stroke" d="M 45.12616 17.5079 L 60.804410000000004 17.5079 C 56.68239 44.7424 49.24818 59.3585 34.305994 72.7129" />
<path class="stroke" d="M 45.7886113 29.17981 L 51.0882413 36.75071" />
<path class="stroke" d="M 40.9305602 40.22081 L 46.4511109 48.10731" />
<path class="stroke" d="M 62.571 31.7035 L 96.13565 31.7035" />
<path class="stroke" d="M 74.93684999999999 5.5205 L 74.93684999999999 31.7035 C 75.01049 49.3691 66.69295 68.9273 54.621449999999996 70.5047" />
<path class="stroke" d="M 74.93691999999999 31.7035 C 75.23134 49.7897 83.03361 68.1914 95.69402 70.5047" />
<path class="stroke" d="M 85.97792199999999 9.305992 C 88.627772 12.250272 90.17351199999999 15.825472 91.27762200000001 20.031572" />
<path class="stroke" d="M 43.0291966 77.00729 C 42.6204372 82.55474 40.985400999999996 87.22627 38.328467 89.85401" />
<path class="stroke" d="M 54.6788318 77.88321 C 56.927004999999994 81.678825 58.1532825 85.18248 59.175180999999995 90.14598" />
<path class="stroke" d="M 71.4379525 78.17518 C 73.6861264 81.678825 74.7080249 85.47445 75.729922 90.43795" />
<path class="stroke" d="M 86.97079919999999 78.17518 C 89.42335 81.678825 90.85400999999999 84.8905 92.080291 90.43795" />
</svg>
