<?xml version="1.0" standalone="no"?>
<!DOCTYPE svg PUBLIC "-//W3C//DTD SVG 1.1//EN" "http://www.w3.org/Graphics/SVG/1.1/DTD/svg11.dtd">
<svg xmlns="http://www.w3.org/2000/svg" version="1.1" width="100%" height="100%">
<style type="text/css"><![CDATA[
  .stroke { fill:none; stroke:black; stroke-width:2 }
]]></style>
<path class="stroke" d="M 49.00518126 5.035401315 L 49.00518126 27.47627505 C 49.00518126 28.120070475000002 47.42627386 28.48795425 46.28175048 28.48795425 L 44.2788304 28.48795425" />
<path class="stroke" d="M 26.25255262 13.404743100000001 C 24.821895700000002 16.6237218 20.52992592 19.382846175 14.52116568 21.590145989999996" />
<path class="stroke" d="M 69.1722612 13.404743100000001 C 74.8948879 15.33613095 79.75911887999999 17.911313595 82.62043272 21.77408646" />
<path class="stroke" d="M 70.70975000000001 23.006336 C 62.461562 31.822304 44.408966 40.234496 24.955772 43.700320000000005" />
<path class="stroke" d="M 24.744522 66.605839 L 83.43065 65.437956 C 81.9708 82.08028999999999 77.59124 90.9854 76.131386 92.88320999999999 C 74.379555 94.489048 70.87591 94.92700500000001 67.9562 95.07299 L 65.03649 94.92700500000001" />
<path class="stroke" d="M 53.64963 55.218978 C 50.14598 71.56934150000001 38.75912 88.21167750000001 20.364962 92.88320999999999" />
</svg>
