<?xml version="1.0" standalone="no"?>
<!DOCTYPE svg PUBLIC "-//W3C//DTD SVG 1.1//EN" "http://www.w3.org/Graphics/SVG/1.1/DTD/svg11.dtd">
<svg xmlns="http://www.w3.org/2000/svg" version="1.1" width="100%" height="100%">
<style type="text/css"><![CDATA[
  .stroke { fill:none; stroke:black; stroke-width:2 }
]]></style>
<path class="stroke" d="M 9.8978088 24.7591235 L 9.8978088 76.262768" />
<path class="stroke" d="M 9.8978088 24.7591235 L 29.9854 24.7591235 L 29.9854 76.262768" />
<path class="stroke" d="M 10.014598 49.1079501 L 29.868612000000002 49.1079501" />
<path class="stroke" d="M 9.8978088 74.0145948 L 29.9854 74.0145948" />
<path class="stroke" d="M 61.567750000000004 7.09779 C 57.656108 20.978 50.810688 32.6499 42.0094594 37.3817" />
<path class="stroke" d="M 58.242875999999995 16.877 L 79.561514 16.877 L 68.80439 36.7507" />
<path class="stroke" d="M 49.246055999999996 36.75078 L 49.246055999999996 60.72558" />
<path class="stroke" d="M 49.246055999999996 36.75078 L 88.362786 36.75078 L 88.362786 60.72558" />
<path class="stroke" d="M 68.80439 36.75078 L 68.80439 60.72558" />
<path class="stroke" d="M 49.246055999999996 60.72558 L 88.362786 60.72558" />
<path class="stroke" d="M 65.283906 61.041 C 63.784436 81.2303 54.461619999999996 91.9558 42.0094656 94.1641" />
<path class="stroke" d="M 73.302862 61.3564 L 73.302862 88.4858 C 73.04209 91.6404 74.73716999999999 94.4795 76.627798 94.164 L 92.470038 94.164 C 94.36066600000001 94.164 95.860136 92.2713 95.79491200000001 88.4858 L 95.79491200000001 82.1766" />
</svg>
