<?xml version="1.0" standalone="no"?>
<!DOCTYPE svg PUBLIC "-//W3C//DTD SVG 1.1//EN" "http://www.w3.org/Graphics/SVG/1.1/DTD/svg11.dtd">
<svg xmlns="http://www.w3.org/2000/svg" version="1.1" width="100%" height="100%">
<style type="text/css"><![CDATA[
  .stroke { fill:none; stroke:black; stroke-width:2 }
]]></style>
<path class="stroke" d="M 22.51751502 6.9708025 L 22.51751502 43.75912" />
<path class="stroke" d="M 22.51751502 6.9708025 L 68.216785 6.9708025 L 68.216785 43.75912" />
<path class="stroke" d="M 22.78321045 24.3628215 L 67.9510923 24.3628215" />
<path class="stroke" d="M 22.51751502 42.153282 L 68.216785 42.153282" />
<path class="stroke" d="M 34.879999999999995 44.093512957 C 34.309187120000004 50.025405230000004 31.16972904 61.50648604 18.611891968 68.01243197" />
<path class="stroke" d="M 33.261313040000005 53.01532758 C 59.98247784 53.01532758 68.20437416 53.01532758 91.32846239999999 53.01532758 C 90.55765720000001 77.30437855 83.36350320000001 85.91751774 76.169336 91.4299255 C 72.82919392 93.49707663999999 69.7459872 94.0138659 66.40583632 94.18612819999998" />
<path class="stroke" d="M 51.7605824 53.01532758 C 49.448171200000004 67.48539912999999 36.601458640000004 78.33795412 22.4700728 84.3671535" />
<path class="stroke" d="M 69.48904480000002 53.01532758 C 67.17664239999999 70.5861282 55.8715288 83.8503607 44.0525524 89.19050675" />
</svg>
