<?xml version="1.0" standalone="no"?>
<!DOCTYPE svg PUBLIC "-//W3C//DTD SVG 1.1//EN" "http://www.w3.org/Graphics/SVG/1.1/DTD/svg11.dtd">
<svg xmlns="http://www.w3.org/2000/svg" version="1.1" width="100%" height="100%">
<style type="text/css"><![CDATA[
  .stroke { fill:none; stroke:black; stroke-width:2 }
]]></style>
<path class="stroke" d="M 13.154171785714285 14.059406 C 16.654879285714284 16.138615 20.15558785714286 19.108912 23.01980357142857 22.673267" />
<path class="stroke" d="M 10.926448928571428 38.118813 C 14.108912142857141 39.90099 17.927864999999997 42.574257 20.473834285714286 46.138615" />
<path class="stroke" d="M 10.608203571428572 85.64356 C 11.321795357142857 87.422676 13.310014285714285 89.896904 15.629600357142856 89.896904 C 17.949189642857142 89.896904 21.110325 76.73267 23.33804892857143 69.60396" />
<path class="stroke" d="M 56.159295 7.0978 L 56.159295 15.9306" />
<path class="stroke" d="M 35.512637749999996 16.246 L 76.26971359999999 16.246 L 76.26971359999999 54.7318" />
<path class="stroke" d="M 35.51260035 36.4353 L 76.2696745 36.4353" />
<path class="stroke" d="M 35.512637749999996 54.7318 L 76.26971359999999 54.7318" />
<path class="stroke" d="M 35.512637749999996 16.246 L 35.512637749999996 91.0094 M 23.4463905 93.5331 C 34.70827 91.9557 44.093035 89.4322 54.28241 84.0695" />
<path class="stroke" d="M 82.1687425 58.51731 C 76.7165875 66.82431 70.46007750000001 72.29231 63.1309525 76.49851" />
<path class="stroke" d="M 45.433825 54.7318 C 49.277015 76.0778 67.59987 93.9537 93.16243 94.164" />
</svg>
