<?xml version="1.0" standalone="no"?>
<!DOCTYPE svg PUBLIC "-//W3C//DTD SVG 1.1//EN" "http://www.w3.org/Graphics/SVG/1.1/DTD/svg11.dtd">
<svg xmlns="http://www.w3.org/2000/svg" version="1.1" width="100%" height="100%">
<style type="text/css"><![CDATA[
  .stroke { fill:none; stroke:black; stroke-width:2 }
]]></style>
<path class="stroke" d="M 20.948904 12.4817505 L 79.051094 12.4817505" />
<path class="stroke" d="M 14.66277 34.37956 L 14.66277 88.39416" />
<path class="stroke" d="M 14.817516 34.37956 L 85.47445 34.37956 L 85.47445 85.47445 C 85.18248 88.978096 83.13868 91.313866 80.21897 91.605835 L 78.17518 91.605835" />
<path class="stroke" d="M 49.99803 12.4817505 L 49.99803 84.014595" />
<path class="stroke" d="M 25.328465 44.014595 C 29.416058 45.766422 33.79562 49.562042 38.17518 54.525543" />
<path class="stroke" d="M 25.328465 64.16058 C 29.416058 66.496346 33.79562 69.70802 37.88321 74.67153" />
<path class="stroke" d="M 59.78102 44.014595 C 64.45255 46.35036 68.832115 49.562042 72.9197 54.525543" />
<path class="stroke" d="M 60.07299 63.868607 C 64.45255 66.20438 68.540146 70.0 72.62773 75.25547" />
</svg>
