<?xml version="1.0" standalone="no"?>
<!DOCTYPE svg PUBLIC "-//W3C//DTD SVG 1.1//EN" "http://www.w3.org/Graphics/SVG/1.1/DTD/svg11.dtd">
<svg xmlns="http://www.w3.org/2000/svg" version="1.1" width="100%" height="100%">
<style type="text/css"><![CDATA[
  .stroke { fill:none; stroke:black; stroke-width:2 }
]]></style>
<path class="stroke" d="M 10.267693518518518 11.8297 L 42.445910185185184 11.8297" />
<path class="stroke" d="M 9.71763888888889 30.09901 L 9.71763888888889 89.80198" />
<path class="stroke" d="M 9.71763888888889 30.1262 L 43.546018518518515 30.1262 L 43.546018518518515 89.80198" />
<path class="stroke" d="M 20.99376574074074 11.683168 L 20.99376574074074 40.79208 C 20.99376574074074 47.326733 20.718737037037037 54.455444 14.66813425925926 58.61386" />
<path class="stroke" d="M 31.444811111111115 11.980198 L 31.444811111111115 42.574257 C 31.444811111111115 48.811882 31.444811111111115 53.861385 35.84525 53.861385 L 38.320499999999996 53.861385" />
<path class="stroke" d="M 14.393105555555556 71.9802 L 39.145583333333335 71.9802" />
<path class="stroke" d="M 9.71763888888889 89.80198 L 43.546018518518515 89.80198" />
<path class="stroke" d="M 60.0 31.58416 C 59.1089105 40.49505 57.623762 47.326733 55.247525 51.782177" />
<path class="stroke" d="M 64.60396 9.90099 L 64.60396 54.752472 C 64.60396 73.46535 62.227722 79.10891 58.217822 85.9406" />
<path class="stroke" d="M 69.5049515 31.881187 C 72.178219 35.445545 73.811882 40.19802 75.0 47.623764" />
<path class="stroke" d="M 79.603962 9.90099 L 79.603962 79.40594" />
<path class="stroke" d="M 84.059405 31.881187 C 86.58416 35.742573 88.51485 41.38614 89.851485 47.92079" />
<path class="stroke" d="M 94.08515 10.198019 L 94.08515 90.09901" />
</svg>
