<?xml version="1.0" standalone="no"?>
<!DOCTYPE svg PUBLIC "-//W3C//DTD SVG 1.1//EN" "http://www.w3.org/Graphics/SVG/1.1/DTD/svg11.dtd">
<svg xmlns="http://www.w3.org/2000/svg" version="1.1" width="100%" height="100%">
<style type="text/css"><![CDATA[
  .stroke { fill:none; stroke:black; stroke-width:2 }
]]></style>
<path class="stroke" d="M 2.7602525 16.7933565 L 46.924295 16.7933565" />
<path class="stroke" d="M 7.80758 27.203415500000002 L 7.80758 54.269740500000005" />
<path class="stroke" d="M 7.80758 27.203415500000002 L 41.87698 27.203415500000002 L 41.87698 54.269740500000005" />
<path class="stroke" d="M 7.965295 40.04261 L 41.561545 40.04261" />
<path class="stroke" d="M 7.80758 54.269740500000005 L 41.87698 54.269740500000005" />
<path class="stroke" d="M 24.84225 6.9037845 L 24.84225 54.09621" />
<path class="stroke" d="M 32.88645 7.944797 C 34.67405 9.332810000000002 35.8307 11.06784 36.82965 13.149865" />
<path class="stroke" d="M 23.89591 62.18467075 L 23.89591 67.3087579" />
<path class="stroke" d="M 7.2627735 67.3087579 L 42.88321 67.3087579" />
<path class="stroke" d="M 23.17518 73.34379457 L 38.941605 73.34379457 C 38.2116775 78.6956191 37.627735 82.22554536999999 36.45985 85.4138683 C 35.0 89.0576617 32.37226 92.3598541 30.036495 92.3598541 L 27.116787 92.3598541" />
<path class="stroke" d="M 23.9051075 67.3087579 L 22.883211 74.1408754 C 21.861313 81.42846610000001 18.065693 88.60218850000001 12.372261 90.76569205" />
<path class="stroke" d="M 68.168318 9.90099 C 66.6831685 22.673267 63.118812500000004 37.82178 57.623762 46.435642" />
<path class="stroke" d="M 62.970297 35.742573 L 88.069305 35.742573" />
<path class="stroke" d="M 76.48515 36.039604 C 74.70297 61.287132 67.1287135 82.376236 55.247525 89.80198" />
<path class="stroke" d="M 62.970297 43.465347 C 66.237623 61.58416 82.12871 90.09901 90.89108999999999 90.09901" />
</svg>
