<?xml version="1.0" standalone="no"?>
<!DOCTYPE svg PUBLIC "-//W3C//DTD SVG 1.1//EN" "http://www.w3.org/Graphics/SVG/1.1/DTD/svg11.dtd">
<svg xmlns="http://www.w3.org/2000/svg" version="1.1" width="100%" height="100%">
<style type="text/css"><![CDATA[
  .stroke { fill:none; stroke:black; stroke-width:2 }
]]></style>
<path class="stroke" d="M 30.446110625 5.83596 C 25.661524874999998 18.87483 15.632712375 32.54463 5.327741125 38.64353" />
<path class="stroke" d="M 7.811969375 8.04417 C 17.932936875 17.7182 26.397686874999998 33.0705 26.305636875 61.6719 L 26.305636875 77.4448 C 26.673661 85.6467 24.557561 96.0569 17.1967985 95.7414 L 12.639624375 95.7414" />
<path class="stroke" d="M 23.269325625 34.22716 C 23.361375625 49.47426 14.068438125 62.82856 5.327748124999999 67.03466" />
<path class="stroke" d="M 43.642335 27.080292 L 43.642335 59.489044" />
<path class="stroke" d="M 43.642335 27.372261 L 86.766423 27.372261 L 86.766423 59.78102" />
<path class="stroke" d="M 43.642335 55.773968 L 86.766423 55.773968" />
<path class="stroke" d="M 64.992993 8.394159 L 64.992993 86.642334" />
<path class="stroke" d="M 42.2116771 91.0219 L 86.97079919999999 82.55474" />
<path class="stroke" d="M 82.883208 73.21168 C 86.357665 78.46715 88.19707599999998 84.306564 89.42335 91.0219" />
</svg>
