<?xml version="1.0" standalone="no"?>
<!DOCTYPE svg PUBLIC "-//W3C//DTD SVG 1.1//EN" "http://www.w3.org/Graphics/SVG/1.1/DTD/svg11.dtd">
<svg xmlns="http://www.w3.org/2000/svg" version="1.1" width="100%" height="100%">
<style type="text/css"><![CDATA[
  .stroke { fill:none; stroke:black; stroke-width:2 }
]]></style>
<path class="stroke" d="M 18.62208409090909 25.811516 C 17.908137500000002 33.979057 16.480246590909093 36.806282 15.052355681818185 41.83246" />
<path class="stroke" d="M 43.65436363636364 23.267326 C 41.6291625 28.613861 38.92889431818182 33.069305 35.21602272727273 36.336636" />
<path class="stroke" d="M 27.790277272727277 9.306931 L 27.790277272727277 57.72277 C 27.790277272727277 74.653465 17.74443181818182 85.6467 10.91359090909091 90.39604" />
<path class="stroke" d="M 27.452746590909094 63.36634 C 33.19081818181819 68.71287 38.591359090909094 75.24753 40.95409545454545 82.9703" />
<path class="stroke" d="M 59.1605835 9.854013 L 89.67152999999999 9.854013" />
<path class="stroke" d="M 74.635035 9.854013 C 74.051095 14.817516 72.883211 18.905107 71.2312 22.0621" />
<path class="stroke" d="M 60.45 22.3791 L 60.45 76.715324" />
<path class="stroke" d="M 60.45 22.3791 L 88.51285 22.3791 L 88.51285 76.423355" />
<path class="stroke" d="M 60.60855 40.77066 L 88.51285 40.77066" />
<path class="stroke" d="M 60.60855 59.79627 L 88.51285 59.79627" />
<path class="stroke" d="M 60.474452 76.715324 L 88.64963 76.715324" />
<path class="stroke" d="M 66.0218965 83.13868 C 63.3941595 86.9343 60.3284665 89.56204 56.678831 89.85401" />
<path class="stroke" d="M 83.540145 83.43065 C 86.60584 84.59853 89.08759 86.35036 92.00729749999999 90.72992" />
</svg>
