<?xml version="1.0" standalone="no"?>
<!DOCTYPE svg PUBLIC "-//W3C//DTD SVG 1.1//EN" "http://www.w3.org/Graphics/SVG/1.1/DTD/svg11.dtd">
<svg xmlns="http://www.w3.org/2000/svg" version="1.1" width="100%" height="100%">
<style type="text/css"><![CDATA[
  .stroke { fill:none; stroke:black; stroke-width:2 }
]]></style>
<path class="stroke" d="M 16.5401455 38.46715 L 38.34063166666667 35.839413" />
<path class="stroke" d="M 28.462285333333334 15.401459 L 28.462285333333334 71.16788" />
<path class="stroke" d="M 13.815085166666668 74.9635 L 40.04379350000001 68.24817" />
<path class="stroke" d="M 68.087588 8.958540147999999 L 68.087588 12.745984924" />
<path class="stroke" d="M 44.7883208 12.826569472 L 90.861314 12.826569472" />
<path class="stroke" d="M 58.329926527999994 17.713284639999998 C 57.489050047999996 21.7915324 53.116495807999996 25.617517359999997 44.875911488 28.686715359999997" />
<path class="stroke" d="M 76.33052096 17.793883456 C 83.38802662399999 20.740437376 87.92875328 24.776641599999998 90.61955744 28.770802720000002" />
<path class="stroke" d="M 46.9905542 37.99677419354839 L 89.198756 37.99677419354839" />
<path class="stroke" d="M 59.861198 28.227729032258065 L 59.861198 63.396159999999995" />
<path class="stroke" d="M 75.76025 27.983509677419356 L 75.76025 63.39612903225806" />
<path class="stroke" d="M 46.8012794 51.18485161290322 L 89.00948 51.18485161290322" />
<path class="stroke" d="M 42.069401 63.88464516129032 L 94.68770900000001 63.88464516129032" />
<path class="stroke" d="M 66.675074 65.00007 C 62.47524799999999 71.653465 55.3465352 76.435641 48.0396044 78.93069299999999" />
<path class="stroke" d="M 60.693068 72.277228 L 60.693068 92.861386 C 65.8613852 91.82178099999999 69.247526 90.78217599999999 72.8118836 88.28713099999999" />
<path class="stroke" d="M 85.10891240000001 66.039605 C 82.613864 70.1980201 79.227722 73.5247505 75.306929 75.18812199999999" />
<path class="stroke" d="M 71.56435880000001 71.029702 C 75.48515 79.762377 83.148518 87.03960219999999 91.5247544 90.78217599999999" />
</svg>
