<?xml version="1.0" standalone="no"?>
<!DOCTYPE svg PUBLIC "-//W3C//DTD SVG 1.1//EN" "http://www.w3.org/Graphics/SVG/1.1/DTD/svg11.dtd">
<svg xmlns="http://www.w3.org/2000/svg" version="1.1" width="100%" height="100%">
<style type="text/css"><![CDATA[
  .stroke { fill:none; stroke:black; stroke-width:2 }
]]></style>
<path class="stroke" d="M 50.14598 4.597976196 C 38.75912 11.758184771142858 25.912407 17.37403503942857 9.854013 20.743543854000002" />
<path class="stroke" d="M 50.14598 4.597976196 C 61.824814 11.477391608571429 73.795616 17.37403503942857 90.43795 20.603148474857143" />
<path class="stroke" d="M 33.8248168 18.214285714285715 L 66.17518000000001 18.214285714285715" />
<path class="stroke" d="M 19.78588786666667 27.561678585000003 L 19.78588786666667 66.6142275" />
<path class="stroke" d="M 19.78588786666667 27.561678585000003 L 43.62043523333334 27.561678585000003 L 43.62043523333334 67.42444979999999 C 43.62043523333334 68.23466655 42.11191943333334 69.53101889999999 40.0 69.36897555 L 38.18977876666667 69.36897555" />
<path class="stroke" d="M 19.78588786666667 38.41861245 L 43.62043523333334 38.41861245" />
<path class="stroke" d="M 19.78588786666667 49.599633569999995 L 43.318733933333334 49.599633569999995" />
<path class="stroke" d="M 61.532845 29.50620378 L 61.532845 48.30328344" />
<path class="stroke" d="M 79.927 26.265327345 L 79.927 66.6142275 C 79.927 68.07262320000001 77.59124 69.36897555 75.54744 69.53101889999999 L 73.21168 69.53101889999999" />
<path class="stroke" d="M 17.4453 79.305984 C 16.6042 84.62246400000001 14.5012 88.121984 10.8207 92.025216" />
<path class="stroke" d="M 33.21814 76.07571200000001 L 33.21814 93.23660799999999 C 33.21814 95.053632 35.11094 96.26496 37.95004 96.26496 L 72.01944 96.26496 C 74.64824 96.26496 76.96164 94.85171199999999 77.06674 92.630912 L 77.06674 89.19872000000001" />
<path class="stroke" d="M 45.2056 76.07572479999999 C 50.6735 79.1714048 54.2487 82.4690048 57.5084 86.77601279999999" />
<path class="stroke" d="M 77.0667 76.277632 C 83.6913 80.04620800000001 87.7923 83.81504000000001 91.8932 88.99686399999999" />
</svg>
