<?xml version="1.0" standalone="no"?>
<!DOCTYPE svg PUBLIC "-//W3C//DTD SVG 1.1//EN" "http://www.w3.org/Graphics/SVG/1.1/DTD/svg11.dtd">
<svg xmlns="http://www.w3.org/2000/svg" version="1.1" width="100%" height="100%">
<style type="text/css"><![CDATA[
  .stroke { fill:none; stroke:black; stroke-width:2 }
]]></style>
<path class="stroke" d="M 26.788319 6.180048666666667 C 24.452553 11.435522666666666 21.824816 14.744524666666665 16.861313 17.274938000000002" />
<path class="stroke" d="M 24.452553 12.019464000000001 L 47.226276 12.019464000000001" />
<path class="stroke" d="M 30.0 12.408758666666666 C 34.08759 15.523114666666668 35.547443 18.053528 36.423355 22.725060000000003" />
<path class="stroke" d="M 65.32846 6.180048666666667 C 63.284668 12.603404666666666 60.07299 15.328466000000002 57.44525 17.274938000000002" />
<path class="stroke" d="M 62.9927 12.214111333333333 L 86.35036 12.214111333333333" />
<path class="stroke" d="M 72.62773 12.603404666666666 C 72.9197 16.885643333333334 71.16788 19.805351333333334 67.9562 22.725060000000003" />
<path class="stroke" d="M 7.029217391304347 27.64767624 L 42.689565217391305 27.64767624" />
<path class="stroke" d="M 24.85945652173913 27.786243839999997 L 24.85945652173913 48.152914079999995" />
<path class="stroke" d="M 8.057882608695651 50.78534711999999 L 42.68960869565217 45.65909256" />
<path class="stroke" d="M 53.818642 25.2094632 L 53.607257000000004 44.174796 C 53.536773000000004 49.62588 46.702907 54.39559199999999 37.9668775 55.98549599999999" />
<path class="stroke" d="M 53.818575 25.095897599999997 L 79.81544600000001 25.095897599999997 L 79.81544600000001 53.373516 C 79.95634700000001 55.304124 81.99944500000001 55.98549599999999 84.46524600000001 56.099076 L 91.44008000000001 56.099076 C 93.90588100000001 56.099076 96.583067 55.190543999999996 96.301265 53.71421999999999 L 96.301265 51.215784" />
<path class="stroke" d="M 60.370639 34.7488908 C 66.640901 36.490209359999994 70.374878 39.25364172 73.474767 43.03911479999999" />
<path class="stroke" d="M 20.07299 68.8313857 L 80.21897 68.8313857" />
<path class="stroke" d="M 50.14598 63.32189774 L 50.14598 93.57007039999999" />
<path class="stroke" d="M 50.14598 70.66788255 C 40.51095 78.98613042 28.832115 83.41532716 13.649633 85.6839385" />
<path class="stroke" d="M 50.14598 70.66788255 C 59.197075 79.09415895000001 71.45985 83.52335569 86.642334 85.46788255" />
</svg>
