<?xml version="1.0" standalone="no"?>
<!DOCTYPE svg PUBLIC "-//W3C//DTD SVG 1.1//EN" "http://www.w3.org/Graphics/SVG/1.1/DTD/svg11.dtd">
<svg xmlns="http://www.w3.org/2000/svg" version="1.1" width="100%" height="100%">
<style type="text/css"><![CDATA[
  .stroke { fill:none; stroke:black; stroke-width:2 }
]]></style>
<path class="stroke" d="M 20.587590249999998 9.562042 C 23.2153285 11.021896 25.843063 14.817516 27.5948875 19.48905" />
<path class="stroke" d="M 11.39050975 22.8707 L 35.916055 22.8707" />
<path class="stroke" d="M 16.2080275 37.007298 L 31.0985395 37.007298" />
<path class="stroke" d="M 16.2080275 51.313866 L 31.0985395 51.313866" />
<path class="stroke" d="M 15.332116000000001 64.45255 L 15.332116000000001 85.76642" />
<path class="stroke" d="M 15.332116000000001 64.16058 L 32.4124075 64.16058 L 32.4124075 85.76642" />
<path class="stroke" d="M 15.332116000000001 85.76642 L 32.19343 85.76642" />
<path class="stroke" d="M 70.52992536 10.145985 C 63.2890489 15.109488 56.41021648 17.153284 48.98832048 17.445253" />
<path class="stroke" d="M 48.98832048 17.445253 L 48.98832048 49.562042 C 48.98832048 58.613136 47.721166339999996 73.50365 43.91970764 84.59853" />
<path class="stroke" d="M 48.98832048 34.37956 L 87.3649602 34.37956" />
<path class="stroke" d="M 68.17664096 34.37956 L 68.17664096 90.14598" />
<path class="stroke" d="M 56.370036139999996 49.334379 C 69.39593234 52.804418999999996 76.96497914 57.410109 81.54163933999999 63.813908999999995" />
</svg>
