<?xml version="1.0" standalone="no"?>
<!DOCTYPE svg PUBLIC "-//W3C//DTD SVG 1.1//EN" "http://www.w3.org/Graphics/SVG/1.1/DTD/svg11.dtd">
<svg xmlns="http://www.w3.org/2000/svg" version="1.1" width="100%" height="100%">
<style type="text/css"><![CDATA[
  .stroke { fill:none; stroke:black; stroke-width:2 }
]]></style>
<path class="stroke" d="M 5.83596 17.334394 L 94.164 17.334394" />
<path class="stroke" d="M 60.7256 4.085172 L 60.7256 17.33438 C 61.1462 36.913729999999994 77.0242 65.10518 89.7476 65.25232 L 89.7476 57.74453999999999" />
<path class="stroke" d="M 90.3785 31.246079899999998 C 81.5457 48.175582 66.4037 60.467932 44.9526 64.8107278" />
<path class="stroke" d="M 82.1767 4.968452999999999 C 85.7519 6.735014999999999 88.0652 8.280755000000001 90.3785 11.151454999999999" />
<path class="stroke" d="M 17.3284668 29.448233184999996 L 17.3284668 48.06802819" />
<path class="stroke" d="M 17.3284668 29.448233184999996 L 42.78832 29.448233184999996 L 42.78832 47.888992185999996" />
<path class="stroke" d="M 17.3284668 46.63573586559999 L 42.78832 46.63573586559999" />
<path class="stroke" d="M 13.8248168 59.78 L 45.320548 55.44560009239999" />
<path class="stroke" d="M 17.4453 75.10251199999999 C 16.6042 81.498902 14.5012 85.709262 10.8207 90.405338" />
<path class="stroke" d="M 33.21814 71.216091 L 33.21814 91.862794 C 33.21814 94.048901 35.11094 95.50628 37.95004 95.50628 L 72.01944 95.50628 C 74.64824 95.50628 76.96164 93.805966 77.06674 91.134066 L 77.06674 87.00471" />
<path class="stroke" d="M 45.2056 71.2161064 C 50.6735 74.9405964 54.2487 78.9080214 57.5084 84.0898904" />
<path class="stroke" d="M 77.0667 71.459026 C 83.6913 75.993094 87.7923 80.52747 91.8932 86.761852" />
</svg>
