<?xml version="1.0" standalone="no"?>
<!DOCTYPE svg PUBLIC "-//W3C//DTD SVG 1.1//EN" "http://www.w3.org/Graphics/SVG/1.1/DTD/svg11.dtd">
<svg xmlns="http://www.w3.org/2000/svg" version="1.1" width="100%" height="100%">
<style type="text/css"><![CDATA[
  .stroke { fill:none; stroke:black; stroke-width:2 }
]]></style>
<path class="stroke" d="M 30.9927002 4.43430625 L 30.9927002 19.6167875" />
<path class="stroke" d="M 30.9927002 4.43430625 L 69.18248 4.43430625 L 69.18248 19.4708025" />
<path class="stroke" d="M 30.9927002 18.448904 L 69.18248 18.448904" />
<path class="stroke" d="M 11.24452515 27.377736875 L 11.24452515 44.078466250000005" />
<path class="stroke" d="M 11.24452515 27.377736875 L 39.88686 27.377736875 L 39.88686 43.917882750000004" />
<path class="stroke" d="M 11.24452515 42.793794399999996 L 39.88686 42.793794399999996" />
<path class="stroke" d="M 60.24452515 27.377736875 L 60.24452515 44.078466250000005" />
<path class="stroke" d="M 60.24452515 27.377736875 L 88.88686 27.377736875 L 88.88686 43.917882750000004" />
<path class="stroke" d="M 60.24452515 42.793794399999996 L 88.88686 42.793794399999996" />
<path class="stroke" d="M 20.07299 61.934305 L 80.21897 61.934305" />
<path class="stroke" d="M 50.14598 54.489051 L 50.14598 95.36496" />
<path class="stroke" d="M 50.14598 64.4160575 C 40.51095 75.656933 28.832115 81.642334 13.649633 84.70802499999999" />
<path class="stroke" d="M 50.14598 64.4160575 C 59.197075 75.8029175 71.45985 81.7883185 86.642334 84.4160575" />
</svg>
