<?xml version="1.0" standalone="no"?>
<!DOCTYPE svg PUBLIC "-//W3C//DTD SVG 1.1//EN" "http://www.w3.org/Graphics/SVG/1.1/DTD/svg11.dtd">
<svg xmlns="http://www.w3.org/2000/svg" version="1.1" width="100%" height="100%">
<style type="text/css"><![CDATA[
  .stroke { fill:none; stroke:black; stroke-width:2 }
]]></style>
<path class="stroke" d="M 10.961809821428572 14.059406 C 13.879066071428571 16.138615 16.796323214285717 19.108912 19.183169642857145 22.673267" />
<path class="stroke" d="M 9.105374107142858 38.118813 C 11.757426785714285 39.90099 14.939887500000001 42.574257 17.06152857142857 46.138615" />
<path class="stroke" d="M 8.840169642857143 85.64356 C 9.434829464285714 87.422676 11.091678571428572 89.896904 13.024666964285714 89.896904 C 14.957658035714285 89.896904 17.5919375 76.73267 19.448374107142858 69.60396" />
<path class="stroke" d="M 32.2262764 16.152351489361703 L 53.668610799999996 16.152351489361703" />
<path class="stroke" d="M 43.0525528 7.206862127659575 L 43.0525528 47.08883021276596" />
<path class="stroke" d="M 33.1722628 31.434228936170214 L 52.8277336 31.434228936170214" />
<path class="stroke" d="M 28.652554600000002 47.08883021276596 L 57.45255279999999 47.08883021276596" />
<path class="stroke" d="M 73.1182474 9.744525 L 92.14306479999999 8.576642 C 91.7226244 19.525547 90.88175079999999 25.948904 89.725546 34.270073 C 89.0948872 38.2116775 87.93868456 44.19708 85.73138560000001 44.19708 L 84.57518152 44.19708" />
<path class="stroke" d="M 79.63503508 9.4525535 L 78.58394200000001 18.357662 C 76.90218868 29.744522 73.85401396 37.0437925 71.2262764 43.17518" />
<path class="stroke" d="M 60.419707 54.489051 C 56.040144999999995 58.576642 50.5656925 62.2262765 45.09123925 65.437956 L 56.363425 72.1525" />
<path class="stroke" d="M 72.90145525 62.9562035 C 66.395725 67.47065 54.378475 74.5348 42.9014575 81.204376 L 79.4707975 78.576641" />
<path class="stroke" d="M 76.4051095 74.051095 C 79.25182 76.240875 81.222625 78.284672 81.8795575 81.204376" />
<path class="stroke" d="M 62.3905075 80.036495 L 62.376712749999996 96.123287" />
<path class="stroke" d="M 41.368612 86.021895 C 40.2737215 88.503645 38.521896999999996 90.693428 35.675182 92.59124" />
<path class="stroke" d="M 81.8795575 86.16788 C 84.7262725 87.77372 86.4781 89.67152999999999 87.79196950000001 92.59124" />
</svg>
