<?xml version="1.0" standalone="no"?>
<!DOCTYPE svg PUBLIC "-//W3C//DTD SVG 1.1//EN" "http://www.w3.org/Graphics/SVG/1.1/DTD/svg11.dtd">
<svg xmlns="http://www.w3.org/2000/svg" version="1.1" width="100%" height="100%">
<style type="text/css"><![CDATA[
  .stroke { fill:none; stroke:black; stroke-width:2 }
]]></style>
<path class="stroke" d="M 54.10092 6.46688 L 54.10092 14.66882" />
<path class="stroke" d="M 18.7697 14.98422 L 93.8486 14.98422" />
<path class="stroke" d="M 18.7697 15.2997 L 18.7697 59.7792 C 19.0852 71.2408 14.6687 79.2323 6.46688 87.5394" />
<path class="stroke" d="M 5.83596 25.07884 C 8.78023 28.65404 10.4627 32.22924 11.8297 36.43534" />
<path class="stroke" d="M 6.15141 58.20189 C 8.14931 57.04519 10.4627 54.62679 12.1451 52.20829" />
<path class="stroke" d="M 42.6346852032 28.3868608 C 41.390188012799996 34.4598528 39.523443648 39.8321168 36.8270355552 44.737224" />
<path class="stroke" d="M 39.730860556799996 38.89780880000001 L 59.6428006848 38.89780880000001" />
<path class="stroke" d="M 34.9602908352 56.6496336 L 60.679880256000004 56.6496336" />
<path class="stroke" d="M 47.612668991999996 38.89780880000001 C 47.612668991999996 45.9051088 47.612668991999996 51.7445224 47.612668991999996 56.883208 C 47.612668991999996 72.766416 42.6346852032 80.94160000000001 35.3751239424 87.248168" />
<path class="stroke" d="M 48.2349197184 69.496352 C 53.2129035072 72.53284 55.7018971776 77.90510880000001 58.8131358912 87.248168" />
<path class="stroke" d="M 67.7676785184 48.2099262 L 67.7676785184 86.5912388" />
<path class="stroke" d="M 67.7676785184 48.2099262 L 90.37602815999999 48.2099262 L 90.37602815999999 86.22218872" />
<path class="stroke" d="M 67.7676785184 83.63882931200001 L 90.37602815999999 83.63882931200001" />
</svg>
