<?xml version="1.0" standalone="no"?>
<!DOCTYPE svg PUBLIC "-//W3C//DTD SVG 1.1//EN" "http://www.w3.org/Graphics/SVG/1.1/DTD/svg11.dtd">
<svg xmlns="http://www.w3.org/2000/svg" version="1.1" width="100%" height="100%">
<style type="text/css"><![CDATA[
  .stroke { fill:none; stroke:black; stroke-width:2 }
]]></style>
<path class="stroke" d="M 13.154171785714285 14.059406 C 16.654879285714284 16.138615 20.15558785714286 19.108912 23.01980357142857 22.673267" />
<path class="stroke" d="M 10.926448928571428 38.118813 C 14.108912142857141 39.90099 17.927864999999997 42.574257 20.473834285714286 46.138615" />
<path class="stroke" d="M 10.608203571428572 85.64356 C 11.321795357142857 87.422676 13.310014285714285 89.896904 15.629600357142856 89.896904 C 17.949189642857142 89.896904 21.110325 76.73267 23.33804892857143 69.60396" />
<path class="stroke" d="M 31.735008 14.432165 L 31.735008 45.189265" />
<path class="stroke" d="M 31.735008 14.432165 L 90.536208 14.432165 L 90.536208 45.189265" />
<path class="stroke" d="M 51.167176 3.864355 L 51.167176 45.18925" />
<path class="stroke" d="M 70.59936 3.7066265 L 70.59936 45.03152" />
<path class="stroke" d="M 31.987392 29.73185 L 90.283952 29.73185" />
<path class="stroke" d="M 31.735008 45.189265 L 90.536208 45.189265" />
<path class="stroke" d="M 32.99688 54.33754 L 94.57415999999999 54.33754" />
<path class="stroke" d="M 32.99688 54.33754 L 32.99688 78.1546 C 32.408 85.35755 29.54784 90.50999999999999 24.4164 94.4006" />
<path class="stroke" d="M 44.100912 63.64351 L 88.517312 63.64351" />
<path class="stroke" d="M 33.249246400000004 73.58042 L 94.0694032 73.58042" />
<path class="stroke" d="M 44.85808 74.526821 L 44.85808 94.87382 M 32.239752 96.92427 L 64.290232 92.03467" />
<path class="stroke" d="M 88.76976 77.0504725 C 85.99368 81.0462725 81.70344 83.937973 75.89912000000001 85.410122" />
<path class="stroke" d="M 63.533120000000004 73.73815 C 65.63616 88.8275 75.05784 94.1377 93.31232 96.6088" />
</svg>
