<?xml version="1.0" standalone="no"?>
<!DOCTYPE svg PUBLIC "-//W3C//DTD SVG 1.1//EN" "http://www.w3.org/Graphics/SVG/1.1/DTD/svg11.dtd">
<svg xmlns="http://www.w3.org/2000/svg" version="1.1" width="100%" height="100%">
<style type="text/css"><![CDATA[
  .stroke { fill:none; stroke:black; stroke-width:2 }
]]></style>
<path class="stroke" d="M 13.154171785714285 14.059406 C 16.654879285714284 16.138615 20.15558785714286 19.108912 23.01980357142857 22.673267" />
<path class="stroke" d="M 10.926448928571428 38.118813 C 14.108912142857141 39.90099 17.927864999999997 42.574257 20.473834285714286 46.138615" />
<path class="stroke" d="M 10.608203571428572 85.64356 C 11.321795357142857 87.422676 13.310014285714285 89.896904 15.629600357142856 89.896904 C 17.949189642857142 89.896904 21.110325 76.73267 23.33804892857143 69.60396" />
<path class="stroke" d="M 77.5919667 13.12481732 C 68.6401446 16.24014401 53.50729862 17.939415229999998 44.76861316 18.222627099999997" />
<path class="stroke" d="M 32.6613865 41.7039603 L 90.5554454 41.7039603" />
<path class="stroke" d="M 61.6065654 16.80656872 L 61.6065654 62.448518039999996" />
<path class="stroke" d="M 46.10495116 62.448518039999996 L 46.10495116 90.3960397" />
<path class="stroke" d="M 46.10495116 62.448518039999996 L 77.3287141 62.448518039999996 L 77.3287141 90.3960397" />
<path class="stroke" d="M 46.10495116 90.3960397 L 77.1118822 90.3960397" />
</svg>
