<?xml version="1.0" standalone="no"?>
<!DOCTYPE svg PUBLIC "-//W3C//DTD SVG 1.1//EN" "http://www.w3.org/Graphics/SVG/1.1/DTD/svg11.dtd">
<svg xmlns="http://www.w3.org/2000/svg" version="1.1" width="100%" height="100%">
<style type="text/css"><![CDATA[
  .stroke { fill:none; stroke:black; stroke-width:2 }
]]></style>
<path class="stroke" d="M 13.154171785714285 14.059406 C 16.654879285714284 16.138615 20.15558785714286 19.108912 23.01980357142857 22.673267" />
<path class="stroke" d="M 10.926448928571428 38.118813 C 14.108912142857141 39.90099 17.927864999999997 42.574257 20.473834285714286 46.138615" />
<path class="stroke" d="M 10.608203571428572 85.64356 C 11.321795357142857 87.422676 13.310014285714285 89.896904 15.629600357142856 89.896904 C 17.949189642857142 89.896904 21.110325 76.73267 23.33804892857143 69.60396" />
<path class="stroke" d="M 31.269714999999998 19.4006 L 90.418 19.4006 L 90.418 39.2744" />
<path class="stroke" d="M 38.6041 39.2744 L 90.418 39.2744" />
<path class="stroke" d="M 38.6041 39.2744 L 38.6041 58.8328 L 94.913275 58.8328 C 94.913275 69.6635 94.4401 80.8097 88.288675 80.9148 L 83.79339999999999 80.9148" />
<path class="stroke" d="M 55.63885 6.46688 L 55.63885 58.8328 C 55.71775 78.286 48.462175 93.6383 31.742897499999998 94.1641" />
<path class="stroke" d="M 73.146655 6.46688 L 73.146655 93.8486" />
</svg>
