<?xml version="1.0" standalone="no"?>
<!DOCTYPE svg PUBLIC "-//W3C//DTD SVG 1.1//EN" "http://www.w3.org/Graphics/SVG/1.1/DTD/svg11.dtd">
<svg xmlns="http://www.w3.org/2000/svg" version="1.1" width="100%" height="100%">
<style type="text/css"><![CDATA[
  .stroke { fill:none; stroke:black; stroke-width:2 }
]]></style>
<path class="stroke" d="M 24.744522 8.4613136 L 24.744522 32.0058368" />
<path class="stroke" d="M 24.744522 8.4613136 L 74.9635 8.4613136 L 74.9635 32.0058368" />
<path class="stroke" d="M 25.036495 19.59220576 L 74.67153 19.59220576" />
<path class="stroke" d="M 24.744522 30.97810048 L 74.9635 30.97810048" />
<path class="stroke" d="M 27.956203 44.191604835 L 72.62773 44.191604835" />
<path class="stroke" d="M 13.065693 50.795984456666666 C 13.065693 54.281629065000004 12.773722 56.66654363166666 11.313868 59.23491456666666" />
<path class="stroke" d="M 13.357662 50.795984456666666 L 87.51824 50.795984456666666 C 87.22627 54.46508292 86.35036 56.299632779999996 85.18248 58.13418326833333" />
<path class="stroke" d="M 50.165638 44.191604835 L 50.165638 67.1234762" />
<path class="stroke" d="M 27.080292 55.198903994999995 C 31.45985 55.749268701666665 34.37956 56.66654363166666 37.299267 58.68454734666666" />
<path class="stroke" d="M 27.372261 61.619829133333326 C 30.875912 61.9867381 33.79562 63.08746877 37.007298 65.65583719166666" />
<path class="stroke" d="M 60.9489 55.198903994999995 C 64.74452 55.56581421833333 67.9562 56.48308977666666 72.04379 58.501093491666666" />
<path class="stroke" d="M 60.9489 61.80328361666666 C 65.03649 62.17019258333333 68.540146 63.82128733166667 71.45985 65.65583719166666" />
<path class="stroke" d="M 28.5 70.36520494999999 L 71.5 70.36520494999999" />
<path class="stroke" d="M 15.8170382 76.88786465 L 84.4541972 76.88786465" />
<path class="stroke" d="M 42.5920804 76.95331736 L 24.71089074 90.62351570999999 C 41.5702972 89.0385652975 58.4297028 87.94891240999999 75.0336626 87.354554713" />
<path class="stroke" d="M 70.180201 84.18465322099999 C 74.0118794 86.066781815 77.07722556 88.24608758999999 79.37624120000001 90.52445620499999" />
</svg>
