<?xml version="1.0" standalone="no"?>
<!DOCTYPE svg PUBLIC "-//W3C//DTD SVG 1.1//EN" "http://www.w3.org/Graphics/SVG/1.1/DTD/svg11.dtd">
<svg xmlns="http://www.w3.org/2000/svg" version="1.1" width="100%" height="100%">
<style type="text/css"><![CDATA[
  .stroke { fill:none; stroke:black; stroke-width:2 }
]]></style>
<path class="stroke" d="M 52.48175 6.87372263 L 52.48175 31.67372015" />
<path class="stroke" d="M 52.48175 15.381750440000001 L 77.00729 15.381750440000001" />
<path class="stroke" d="M 30.583939 15.924816499999999 L 30.583939 31.67372015" />
<path class="stroke" d="M 9.854013 31.67372015 L 90.43795 31.67372015" />
<path class="stroke" d="M 16.687696 40.7145131 L 16.687696 92.862797 L 83.31232 92.862797" />
<path class="stroke" d="M 83.31232 40.3296519 L 83.31232 92.862797" />
<path class="stroke" d="M 32.514452000000006 50.0812032475 C 34.822188960000005 51.68412358 36.952408768 53.5541964625 38.331446400000004 56.3157145" />
<path class="stroke" d="M 67.13050944 50.0812032475 C 66.06539984000001 52.485583975 64.11270144 54.48923359 61.44992592000001 56.22572974" />
<path class="stroke" d="M 28.609049728 61.835947472499996 L 71.5684656 61.835947472499996" />
<path class="stroke" d="M 50.0 46.4938117 L 50.088755840000005 83.45618830000001" />
<path class="stroke" d="M 46.715910496 63.038138065 C 43.062355200000006 69.40625349999999 35.6838496 75.88138824999999 26.833868480000003 79.33448662" />
<path class="stroke" d="M 53.639121376 63.171713425 C 56.622640000000004 69.45433675000001 64.0460768 76.26262299999999 72.98860768 79.4680624375" />
</svg>
