<?xml version="1.0" standalone="no"?>
<!DOCTYPE svg PUBLIC "-//W3C//DTD SVG 1.1//EN" "http://www.w3.org/Graphics/SVG/1.1/DTD/svg11.dtd">
<svg xmlns="http://www.w3.org/2000/svg" version="1.1" width="100%" height="100%">
<style type="text/css"><![CDATA[
  .stroke { fill:none; stroke:black; stroke-width:2 }
]]></style>
<path class="stroke" d="M 28.7065685 7.557534764705881 C 32.56058306 9.481107588235293 35.64379418 12.126019294117645 37.95620318 14.650708470588235" />
<path class="stroke" d="M 69.5591198 7.557534764705881 C 67.98668696 9.937955588235294 64.7416016 12.727134823529411 61.4656916 14.770931" />
<path class="stroke" d="M 9.562042 16.45 L 90.43795 16.45" />
<path class="stroke" d="M 25.3649615 16.363137735 C 22.2992685 23.312042775 17.7737215 28.002554509999996 14.1240865 32.171896225 C 17.627737 35.298903849999995 21.5693415 39.12080305 25.3649615 43.811311214999996" />
<path class="stroke" d="M 35.87591 28.523722149999998 C 27.9926985 43.116420235 18.2116775 54.23467174999999 8.7226265 62.39963065 C 20.4014585 59.96751459999999 31.0583915 59.098900875 41.56934 59.098900875" />
<path class="stroke" d="M 38.64963 53.1923329 C 40.6151 55.70369699999999 42.9811 60.083313499999996 43.46715 63.963135949999995" />
<path class="stroke" d="M 75.36496149999999 16.363137735 C 72.2992685 23.312042775 67.7737215 28.002554509999996 64.1240865 32.171896225 C 67.627737 35.298903849999995 71.56934150000001 39.12080305 75.36496149999999 43.811311214999996" />
<path class="stroke" d="M 85.87591 28.523722149999998 C 77.9926985 43.116420235 68.21167750000001 54.23467174999999 58.722626500000004 62.39963065 C 70.4014585 59.96751459999999 81.0583915 59.098900875 91.56934 59.098900875" />
<path class="stroke" d="M 88.64963 53.1923329 C 90.6151 55.70369699999999 92.9811 60.083313499999996 93.46715 63.963135949999995" />
<path class="stroke" d="M 17.4453 75.7492 C 16.6042 81.97945 14.5012 86.08045 10.8207 90.65455" />
<path class="stroke" d="M 33.21814 71.963725 L 33.21814 92.07415 C 33.21814 94.203475 35.11094 95.623 37.95004 95.623 L 72.01944 95.623 C 74.64824 95.623 76.96164 93.96685 77.06674 91.36435 L 77.06674 87.34225" />
<path class="stroke" d="M 45.2056 71.96374 C 50.6735 75.59149 54.2487 79.455865 57.5084 84.50314" />
<path class="stroke" d="M 77.0667 72.20035 C 83.6913 76.61664999999999 87.7923 81.03325 91.8932 87.1057" />
</svg>
