<?xml version="1.0" standalone="no"?>
<!DOCTYPE svg PUBLIC "-//W3C//DTD SVG 1.1//EN" "http://www.w3.org/Graphics/SVG/1.1/DTD/svg11.dtd">
<svg xmlns="http://www.w3.org/2000/svg" version="1.1" width="100%" height="100%">
<style type="text/css"><![CDATA[
  .stroke { fill:none; stroke:black; stroke-width:2 }
]]></style>
<path class="stroke" d="M 50.14598 5.2144160625 L 50.14598 12.4406926875" />
<path class="stroke" d="M 12.4817505 12.60492525 L 12.4817505 20.4881371875" />
<path class="stroke" d="M 12.4817505 12.60492525 L 87.81021 12.60492525 L 87.81021 20.4881371875" />
<path class="stroke" d="M 37.007298 12.442335120000001 L 37.007298 22.217516640000003 C 37.007298 30.8364948 29.416058 39.350363040000005 10.437956 41.55766200000001" />
<path class="stroke" d="M 54.233574 12.337226280000001 L 54.233574 37.1430648 C 54.233574 39.770802 58.029198 41.347443600000005 62.116783 41.347443600000005 L 84.8905 41.347443600000005 C 88.10219 41.4525528 90.43795 40.611675600000005 90.43795 39.4554708 L 90.43795 37.45839384000001" />
<path class="stroke" d="M 30.0 50.2591231 C 27.66423 57.64598445 20.364962 64.22992500000001 12.4817505 67.9233565" />
<path class="stroke" d="M 23.86861 60.37591165 L 87.22627 60.37591165" />
<path class="stroke" d="M 44.9527 60.37591165 L 44.9527 94.7408725" />
<path class="stroke" d="M 45.18248 70.492698 L 78.46715 70.492698" />
<path class="stroke" d="M 45.18248 80.609486 L 82.26277 80.609486" />
</svg>
