<?xml version="1.0" standalone="no"?>
<!DOCTYPE svg PUBLIC "-//W3C//DTD SVG 1.1//EN" "http://www.w3.org/Graphics/SVG/1.1/DTD/svg11.dtd">
<svg xmlns="http://www.w3.org/2000/svg" version="1.1" width="100%" height="100%">
<style type="text/css"><![CDATA[
  .stroke { fill:none; stroke:black; stroke-width:2 }
]]></style>
<path class="stroke" d="M 30.189276 6.78234 L 30.189276 22.55525" />
<path class="stroke" d="M 30.378552 12.14515 L 43.5123276 12.027397" />
<path class="stroke" d="M 10.315439999999999 23.18615 L 10.315439999999999 56.94005 C 10.126199999999999 71.97685 8.23344 82.59725 4.069398 91.95585" />
<path class="stroke" d="M 10.315439999999999 23.18615 L 55.362779999999994 23.18615 L 55.362779999999994 27.60255 C 55.29972 30.86225 54.66876 32.54475 53.28078 33.59625" />
<path class="stroke" d="M 15.895889399999998 41.945206 L 41.934246 35.36986" />
<path class="stroke" d="M 25.8359664 27.9181 L 25.7589042 46.219177 C 25.561642199999998 51.47945 24.969863999999998 51.47945 27.336983999999998 52.136986 L 45.87945 52.136986 C 47.0630124 51.150684 47.260272 48.520546 47.260272 45.56164 L 47.260272 41.61644" />
<path class="stroke" d="M 28.821746999999995 62.933796 L 28.821746999999995 89.02089" />
<path class="stroke" d="M 41.1719205 62.933796 L 41.1719205 89.699684" />
<path class="stroke" d="M 17.7492135 66.643745 C 19.9258635 70.147995 21.534703499999996 74.598915 22.4337135 80.14013" />
<path class="stroke" d="M 51.676652999999995 66.73979 C 50.730258 72.459206 49.074123 76.86859 47.27601299999999 80.187904" />
<path class="stroke" d="M 15.0520494 90.37849 L 54.65773874999999 90.37849" />
<path class="stroke" d="M 62.334384 30.1262 L 97.66560000000001 30.1262" />
<path class="stroke" d="M 75.96216 5.83596 L 75.96216 30.1262 C 76.13040000000001 58.0967 86.26707999999999 92.6919 95.89904000000001 93.2176 L 95.89904000000001 82.4922" />
<path class="stroke" d="M 90.85172 41.4827 C 86.18296000000001 66.9295 77.35012 83.8591 64.85804 91.9558" />
<path class="stroke" d="M 81.297296 11.0810795 C 82.979736 14.23564 82.9736696 15.754585 84.1513488 20.486485" />
</svg>
