<?xml version="1.0" standalone="no"?>
<!DOCTYPE svg PUBLIC "-//W3C//DTD SVG 1.1//EN" "http://www.w3.org/Graphics/SVG/1.1/DTD/svg11.dtd">
<svg xmlns="http://www.w3.org/2000/svg" version="1.1" width="100%" height="100%">
<style type="text/css"><![CDATA[
  .stroke { fill:none; stroke:black; stroke-width:2 }
]]></style>
<path class="stroke" d="M 25.31545 6.466883 L 25.31545 15.615143" />
<path class="stroke" d="M 3.075711 15.9306 L 47.3974875 15.9306" />
<path class="stroke" d="M 15.694 16.2461 L 19.79495 34.858" />
<path class="stroke" d="M 34.7792 15.9306 L 30.20505 35.1735" />
<path class="stroke" d="M 6.54575 35.1735 L 6.54575 94.4795" />
<path class="stroke" d="M 6.54575 35.1735 L 42.9811 35.1735 L 42.9811 88.4858 C 43.03365 92.2713 41.98215 94.1641 40.61515 93.8486 L 38.0915 93.8486" />
<path class="stroke" d="M 13.52204368 57.660000000000004 L 36.47795488 57.660000000000004" />
<path class="stroke" d="M 25.0 47.01386856 L 25.0 69.9043776" />
<path class="stroke" d="M 18.537518068 71.022992375 L 18.537518068 86.50912325" />
<path class="stroke" d="M 18.537518068 71.022992375 L 31.5220432 71.022992375 L 31.5220432 86.36021855" />
<path class="stroke" d="M 18.537518068 85.31788208 L 31.5220432 85.31788208" />
<path class="stroke" d="M 68.168318 9.90099 C 66.6831685 22.673267 63.118812500000004 37.82178 57.623762 46.435642" />
<path class="stroke" d="M 62.970297 35.742573 L 88.069305 35.742573" />
<path class="stroke" d="M 76.48515 36.039604 C 74.70297 61.287132 67.1287135 82.376236 55.247525 89.80198" />
<path class="stroke" d="M 62.970297 43.465347 C 66.237623 61.58416 82.12871 90.09901 90.89108999999999 90.09901" />
</svg>
