<?xml version="1.0" standalone="no"?>
<!DOCTYPE svg PUBLIC "-//W3C//DTD SVG 1.1//EN" "http://www.w3.org/Graphics/SVG/1.1/DTD/svg11.dtd">
<svg xmlns="http://www.w3.org/2000/svg" version="1.1" width="100%" height="100%">
<style type="text/css"><![CDATA[
  .stroke { fill:none; stroke:black; stroke-width:2 }
]]></style>
<path class="stroke" d="M 20.770715441176474 11.605839 C 17.979818382352942 27.372261 12.183339705882354 41.970802 7.245597794117647 50.14598" />
<path class="stroke" d="M 16.477026470588235 30.583939 L 16.477026470588235 90.43795" />
<path class="stroke" d="M 42.19703036 8.376237900000001 C 45.2475253 10.5148512 46.65544434 12.6534654 49.00198055 16.663365" />
<path class="stroke" d="M 76.2217821 8.376237900000001 C 74.34455249999999 12.1188123 72.7019766 14.792079600000001 69.88613773 16.3960389" />
<path class="stroke" d="M 35.15742568 19.8712872 L 86.07722644 19.8712872" />
<path class="stroke" d="M 60.00157557000001 20.1386124 L 60.00157557000001 42.8613876" />
<path class="stroke" d="M 38.442574320000006 31.6336626 L 82.0881246 31.6336626" />
<path class="stroke" d="M 29.05643501 42.8613876 L 91.47425996000001 42.8613876" />
<path class="stroke" d="M 57.26021 53.39117 C 48.371683000000004 55.59935 38.984745000000004 56.703450000000004 30.096218 57.17665" />
<path class="stroke" d="M 26.3580407 65.53628499999999 L 95.38956 65.53628499999999" />
<path class="stroke" d="M 44.550492500000004 55.914864 L 44.550492500000004 94.2429125 C 44.3843555 95.977913 42.473740500000005 97.08201199999999 40.313880499999996 97.08201199999999 L 36.0772685 97.08201199999999" />
<path class="stroke" d="M 27.853305300000002 80.362765 C 35.4958206 78.049415 46.1288256 76.524715 56.2634196 76.10406499999999" />
<path class="stroke" d="M 67.477991 53.233435 L 67.477991 69.79495 C 67.810265 83.78020000000001 81.849118 96.66145 91.900604 96.76655 L 91.900604 91.40385" />
<path class="stroke" d="M 92.399015 72.3186285 C 85.421103 84.41113 73.708168 93.822277 56.761798999999996 96.92428000000001" />
<path class="stroke" d="M 79.6893054 55.44164 C 82.5137134 56.70347 84.3412204 57.80757 86.1687274 59.85807" />
</svg>
