<?xml version="1.0" standalone="no"?>
<!DOCTYPE svg PUBLIC "-//W3C//DTD SVG 1.1//EN" "http://www.w3.org/Graphics/SVG/1.1/DTD/svg11.dtd">
<svg xmlns="http://www.w3.org/2000/svg" version="1.1" width="100%" height="100%">
<style type="text/css"><![CDATA[
  .stroke { fill:none; stroke:black; stroke-width:2 }
]]></style>
<path class="stroke" d="M 8.250825 11.089109 L 29.838708333333333 11.290321 C 31.451613333333338 17.741934 26.61290166666667 33.225803 21.774193333333333 40.0" />
<path class="stroke" d="M 21.774193333333333 40.96774 C 25.80645 44.51613 29.032255833333334 49.032257 30.645160833333332 54.19355 C 32.2580625 57.09677 32.2580625 65.161285 23.655913333333334 68.38709 L 18.54838666666667 69.354836" />
<path class="stroke" d="M 10.726071666666666 11.089109 L 10.726071666666666 90.09901" />
<path class="stroke" d="M 46.09197022 20.107488432 L 87.90802450000001 20.107488432" />
<path class="stroke" d="M 67.0 8.5510506267 L 67.0 35.172128214" />
<path class="stroke" d="M 40.503648580000004 35.172128214 L 93.30364660000001 35.172128214" />
<path class="stroke" d="M 58.42481668 38.701138297199996 L 58.42481668 44.5825391784 C 58.42481668 49.768291038 53.41459828 54.890801762399995 40.88905096 56.21885997" />
<path class="stroke" d="M 69.79415884 38.637897811799995 L 69.79415884 53.562743987999994 C 69.79415884 55.14376586999999 72.29927068 56.092378565999994 74.99707678 56.092378565999994 L 90.02773 56.092378565999994 C 92.1474454 56.155619267999995 93.689047 55.649691485999995 93.689047 54.95404159799999 L 93.689047 53.75246696039999" />
<path class="stroke" d="M 46.09197022 73.9766416 L 87.90802450000001 73.9766416" />
<path class="stroke" d="M 67.0 60.24233521 L 67.0 91.8802882" />
<path class="stroke" d="M 40.503648580000004 91.8802882 L 93.30364660000001 91.8802882" />
</svg>
