<?xml version="1.0" standalone="no"?>
<!DOCTYPE svg PUBLIC "-//W3C//DTD SVG 1.1//EN" "http://www.w3.org/Graphics/SVG/1.1/DTD/svg11.dtd">
<svg xmlns="http://www.w3.org/2000/svg" version="1.1" width="100%" height="100%">
<style type="text/css"><![CDATA[
  .stroke { fill:none; stroke:black; stroke-width:2 }
]]></style>
<path class="stroke" d="M 6.133888888888889 5.44165 L 54.153555555555556 5.44165" />
<path class="stroke" d="M 27.8654 5.44165 C 27.1644 14.95795 21.906844444444445 21.16195 9.638977777777777 27.36595" />
<path class="stroke" d="M 25.411844444444448 15.0631 L 52.40106666666667 15.06315 C 45.858177777777776 29.101 34.75873333333333 38.2493 12.092555555555556 47.23975" />
<path class="stroke" d="M 26.11277777777778 22.949535 C 30.202111111111112 24.263935 33.23977777777778 25.893785 35.22611111111111 27.839136" />
<path class="stroke" d="M 69.90531999999999 6.07255 L 69.90531999999999 34.306" />
<path class="stroke" d="M 88.4542 3.391165 L 88.4542 42.0347 C 88.58044 44.82125 84.54256 46.18825 79.7476 46.13565 L 75.5836 46.13565" />
<path class="stroke" d="M 50.3155 52.287065 L 50.3155 59.38485" />
<path class="stroke" d="M 6.15142 59.38485 L 93.2177 59.38485" />
<path class="stroke" d="M 50.3155 59.38485 C 40.2209 68.74345 25.7098 75.57835 7.09779 79.8896" />
<path class="stroke" d="M 30.4416 72.3186 L 30.4416 94.40065 M 11.1987 96.29335 C 27.8128 95.8202 44.4269 94.87385 59.1482 91.40379999999999" />
<path class="stroke" d="M 88.48578 67.744435 C 79.96848 71.529985 70.50478 74.21133499999999 60.09458 75.630935" />
<path class="stroke" d="M 50.0 59.38485 C 56.8349 78.04945000000001 71.2408 88.19659999999999 90.694 95.66239999999999" />
</svg>
