<?xml version="1.0" standalone="no"?>
<!DOCTYPE svg PUBLIC "-//W3C//DTD SVG 1.1//EN" "http://www.w3.org/Graphics/SVG/1.1/DTD/svg11.dtd">
<svg xmlns="http://www.w3.org/2000/svg" version="1.1" width="100%" height="100%">
<style type="text/css"><![CDATA[
  .stroke { fill:none; stroke:black; stroke-width:2 }
]]></style>
<path class="stroke" d="M 23.029195 10.145985 C 21.131385 27.956203 16.605839 37.299267 10.474452 45.766422" />
<path class="stroke" d="M 22.59124 16.27737 L 41.131385 16.27737 C 39.37956 42.55474 25.510948 76.131386 6.386861 89.85401" />
<path class="stroke" d="M 20.255475 35.547443 C 24.8156225 39.48158 28.4306565 44.598537 31.642334 53.941605" />
<path class="stroke" d="M 57.492097 15.34072642 L 87.36558500000001 15.34072642 L 87.36558500000001 48.55205442 C 87.3376925 51.19044736 86.265785 52.99994642 83.83512 52.99994642 L 78.675145 52.99994642" />
<path class="stroke" d="M 57.4920105 15.63720242 L 57.4920105 88.88011959999999 C 57.572935 92.18620299999999 59.39305 93.9966336 61.8372315 93.9211516 L 88.9949225 93.9211516 C 91.62024 93.9211516 93.702325 92.1420136 93.611845 88.88011959999999 L 93.611845 83.2460416" />
</svg>
