<?xml version="1.0" standalone="no"?>
<!DOCTYPE svg PUBLIC "-//W3C//DTD SVG 1.1//EN" "http://www.w3.org/Graphics/SVG/1.1/DTD/svg11.dtd">
<svg xmlns="http://www.w3.org/2000/svg" version="1.1" width="100%" height="100%">
<style type="text/css"><![CDATA[
  .stroke { fill:none; stroke:black; stroke-width:2 }
]]></style>
<path class="stroke" d="M 29.57622175 5.83596 C 24.92833845 18.87483 15.18606345 32.54463 5.17551995 38.64353" />
<path class="stroke" d="M 7.5887702500000005 8.04417 C 17.42056725 17.7182 25.64346725 33.0705 25.55404725 61.6719 L 25.55404725 77.4448 C 25.9115564 85.6467 23.8559164 96.0569 16.705461399999997 95.7414 L 12.27849225 95.7414" />
<path class="stroke" d="M 22.60448775 34.22716 C 22.69390775 49.47426 13.66648275 62.82856 5.1755267499999995 67.03466" />
<path class="stroke" d="M 46.98175053 8.9124078 L 82.78904915 8.9124078 C 78.73941429999999 15.2189772 73.40006509 19.88052 63.266132819999996 22.21134" />
<path class="stroke" d="M 63.0365668 22.21134 C 66.9390738 29.919839999999997 66.37737165 51.656934 63.3934273 55.160579999999996 C 62.1145987 56.562039 60.8357628 56.912406 58.704376690000004 57.087588" />
<path class="stroke" d="M 34.19342949 27.333696 L 93.2328416 27.333696" />
<path class="stroke" d="M 40.471565999999996 66.665616 L 40.471565999999996 93.479512" />
<path class="stroke" d="M 40.471565999999996 66.665616 L 85.83756199999999 66.665616 L 85.83756199999999 93.372242" />
<path class="stroke" d="M 55.670341199999996 66.772886 L 55.670341199999996 93.479512" />
<path class="stroke" d="M 71.0994022 66.77287138 L 71.0994022 93.5867684" />
<path class="stroke" d="M 32.1813867 93.586748 L 94.81860599999999 93.586748" />
</svg>
