<?xml version="1.0" standalone="no"?>
<!DOCTYPE svg PUBLIC "-//W3C//DTD SVG 1.1//EN" "http://www.w3.org/Graphics/SVG/1.1/DTD/svg11.dtd">
<svg xmlns="http://www.w3.org/2000/svg" version="1.1" width="100%" height="100%">
<style type="text/css"><![CDATA[
  .stroke { fill:none; stroke:black; stroke-width:2 }
]]></style>
<path class="stroke" d="M 27.927864188235294 4.17810204 C 24.71275077647059 9.85401396 18.035207341176466 15.10948872 12.34692865882353 18.0525528" />
<path class="stroke" d="M 22.981534494117646 11.01021804 L 22.981534494117646 32.557662" />
<path class="stroke" d="M 48.7906557184 3.54744468 C 47.781604633600004 7.121167559999999 41.323678105599996 10.9051092 37.4892834304 11.7459846" />
<path class="stroke" d="M 45.76350246399999 9.013138199999998 L 45.76350246399999 32.557662" />
<path class="stroke" d="M 69.77891607039999 3.6525545999999998 C 68.5680553216 5.964963119999999 66.3481441792 7.962043319999999 63.1191812608 9.1182474" />
<path class="stroke" d="M 45.76350246399999 8.914838399999999 L 83.09839052799998 8.914838399999999" />
<path class="stroke" d="M 64.128233728 9.1182474 L 64.128233728 32.557662" />
<path class="stroke" d="M 45.76350246399999 17.205066 L 80.47485798399998 17.205066" />
<path class="stroke" d="M 45.76350246399999 24.88467024 L 80.67666764799999 24.88467024" />
<path class="stroke" d="M 45.76350246399999 32.557662 L 87.1345948672 32.557662" />
<path class="stroke" d="M 36.17801 37.538742565 C 35.59407 39.956260029999996 35.372414 41.34591244 33.036648 42.95759098" />
<path class="stroke" d="M 22.041885 42.74083783 L 22.041885 77.2047115" />
<path class="stroke" d="M 21.727747 43.028735499999996 L 68.9272 43.028735499999996 L 68.9272 60.89999908" />
<path class="stroke" d="M 22.670155 52.10291791 L 68.62069 52.10291791" />
<path class="stroke" d="M 22.356022 60.96715057 L 68.9272 60.96715057" />
<path class="stroke" d="M 22.670155 69.0255481 L 84.24084 69.0255481" />
<path class="stroke" d="M 22.356022 76.6810222 L 84.71264 76.6810222 L 82.87356 86.59654989999999 C 82.26054 89.6632204 80.57471 93.25861719999999 77.049805 93.25861719999999 C 75.057465 93.25861719999999 74.137924 93.25861719999999 72.75862 93.25861719999999" />
<path class="stroke" d="M 18.505747 82.15516756 C 18.199232 83.9528701 16.666666 86.80804594 14.827585 88.6057471" />
<path class="stroke" d="M 33.065132 82.15516756 C 34.291187 83.63562879999999 35.363983 85.53908005 35.51724 87.75977259999999" />
<path class="stroke" d="M 51.455936 82.47240886 C 53.14176 83.9528701 54.214554 85.53908005 54.980843 87.44252853999998" />
<path class="stroke" d="M 68.16092 82.3666636 C 70.30651 83.3183875 71.99233 84.69309934 73.37164 86.70229929999999" />
</svg>
