<?xml version="1.0" standalone="no"?>
<!DOCTYPE svg PUBLIC "-//W3C//DTD SVG 1.1//EN" "http://www.w3.org/Graphics/SVG/1.1/DTD/svg11.dtd">
<svg xmlns="http://www.w3.org/2000/svg" version="1.1" width="100%" height="100%">
<style type="text/css"><![CDATA[
  .stroke { fill:none; stroke:black; stroke-width:2 }
]]></style>
<path class="stroke" d="M 6.76025 10.2524 L 26.00315 10.2524 C 23.0589 19.4006 20.4301 23.817 15.7508 26.3406" />
<path class="stroke" d="M 15.7508 26.3406 L 15.7508 88.8012 C 15.9611 93.428 13.5137165 95.0 11.1197015 94.4389 L 7.678304649999999 91.14714" />
<path class="stroke" d="M 6.9179825 54.731842 L 25.687708 41.79814" />
<path class="stroke" d="M 88.26496 7.41324 C 73.03888 12.7761 54.279680000000006 14.9842 37.53944 14.9842" />
<path class="stroke" d="M 37.287031999999996 14.9842 L 37.287031999999996 61.9874 C 37.034712 73.6593 35.520392 81.8612 27.444792 93.8486" />
<path class="stroke" d="M 58.4857944 24.763357 L 58.4857944 85.33126" />
<path class="stroke" d="M 43.5961944 90.3785 C 53.1020352 86.9085 62.6077944 84.3848 72.87067200000001 83.123" />
<path class="stroke" d="M 68.3280704 72.39745 C 71.524704 76.81386 73.7118288 82.49206 74.132472 89.11676" />
<path class="stroke" d="M 80.694056 11.829615 L 80.441656 60.094616 C 80.60997599999999 74.50062 83.301816 82.91271 92.807576 93.53311" />
</svg>
