<?xml version="1.0" standalone="no"?>
<!DOCTYPE svg PUBLIC "-//W3C//DTD SVG 1.1//EN" "http://www.w3.org/Graphics/SVG/1.1/DTD/svg11.dtd">
<svg xmlns="http://www.w3.org/2000/svg" version="1.1" width="100%" height="100%">
<style type="text/css"><![CDATA[
  .stroke { fill:none; stroke:black; stroke-width:2 }
]]></style>
<path class="stroke" d="M 13.154171785714285 14.059406 C 16.654879285714284 16.138615 20.15558785714286 19.108912 23.01980357142857 22.673267" />
<path class="stroke" d="M 10.926448928571428 38.118813 C 14.108912142857141 39.90099 17.927864999999997 42.574257 20.473834285714286 46.138615" />
<path class="stroke" d="M 10.608203571428572 85.64356 C 11.321795357142857 87.422676 13.310014285714285 89.896904 15.629600357142856 89.896904 C 17.949189642857142 89.896904 21.110325 76.73267 23.33804892857143 69.60396" />
<path class="stroke" d="M 43.35620408 9.854013 C 41.80291836000001 17.737225 38.47445124 22.992699 34.92408692 27.372261" />
<path class="stroke" d="M 42.0248148 15.985401 L 77.7503628 15.109488" />
<path class="stroke" d="M 43.8 27.66423 L 73.97809520000001 26.49635" />
<path class="stroke" d="M 35.36788132 39.635033 L 79.5255404 37.88321 C 76.1970748 63.868607 79.9693424 86.642334 89.0671504 90.43795 L 89.0671504 80.51095" />
</svg>
