<?xml version="1.0" standalone="no"?>
<!DOCTYPE svg PUBLIC "-//W3C//DTD SVG 1.1//EN" "http://www.w3.org/Graphics/SVG/1.1/DTD/svg11.dtd">
<svg xmlns="http://www.w3.org/2000/svg" version="1.1" width="100%" height="100%">
<style type="text/css"><![CDATA[
  .stroke { fill:none; stroke:black; stroke-width:2 }
]]></style>
<path class="stroke" d="M 7.072135714285714 11.089109 L 25.576035714285712 11.290321 C 26.958525714285717 17.741934 22.81105857142857 33.225803 18.663594285714286 40.0" />
<path class="stroke" d="M 18.663594285714286 40.96774 C 22.119814285714284 44.51613 24.884790714285714 49.032257 26.26728071428571 54.19355 C 27.649767857142855 57.09677 27.649767857142855 65.161285 20.276497142857142 68.38709 L 15.898617142857145 69.354836" />
<path class="stroke" d="M 9.193775714285714 11.089109 L 9.193775714285714 90.09901" />
<path class="stroke" d="M 65.10218599999999 9.270073 L 65.10218599999999 22.116787" />
<path class="stroke" d="M 38.73722535 22.408756 L 38.73722535 36.423355" />
<path class="stroke" d="M 38.73722535 22.408756 L 91.467147 22.408756 L 91.467147 36.423355" />
<path class="stroke" d="M 48.567882479999994 37.494057488799996 L 81.75912 37.494057488799996" />
<path class="stroke" d="M 42.6817516 53.9090070412 L 87.31824560000001 53.9090070412" />
<path class="stroke" d="M 55.9051086 56.318466285999996 L 55.9051086 69.433501492 C 55.9051086 80.99729719 50.5912406 92.420070412 37.3065692 95.38152984999999" />
<path class="stroke" d="M 67.96350179999999 56.177445258999995 L 67.96350179999999 89.45861194 C 67.96350179999999 92.98415935 70.6204386 95.09948682999999 73.4817481 95.09948682999999 L 89.42335 95.09948682999999 C 91.67153299999998 95.24050833999999 93.306565 94.11233142999998 93.306565 92.56108999 L 93.306565 89.881678402" />
</svg>
