<?xml version="1.0" standalone="no"?>
<!DOCTYPE svg PUBLIC "-//W3C//DTD SVG 1.1//EN" "http://www.w3.org/Graphics/SVG/1.1/DTD/svg11.dtd">
<svg xmlns="http://www.w3.org/2000/svg" version="1.1" width="100%" height="100%">
<style type="text/css"><![CDATA[
  .stroke { fill:none; stroke:black; stroke-width:2 }
]]></style>
<path class="stroke" d="M 54.10092 6.46688 L 54.10092 14.66882" />
<path class="stroke" d="M 18.7697 14.98422 L 93.8486 14.98422" />
<path class="stroke" d="M 18.7697 15.2997 L 18.7697 59.7792 C 19.0852 71.2408 14.6687 79.2323 6.46688 87.5394" />
<path class="stroke" d="M 5.83596 25.07884 C 8.78023 28.65404 10.4627 32.22924 11.8297 36.43534" />
<path class="stroke" d="M 6.15141 58.20189 C 8.14931 57.04519 10.4627 54.62679 12.1451 52.20829" />
<path class="stroke" d="M 31.60756626 25.682160500000002 L 84.7967572 25.682160500000002" />
<path class="stroke" d="M 38.29050804 40.55766242 L 38.29050804 57.3167847" />
<path class="stroke" d="M 38.29050804 40.797077 L 79.47006999999999 40.797077 L 79.47006999999999 57.3167847" />
<path class="stroke" d="M 38.29050804 57.3167847 L 79.47006999999999 57.3167847" />
<path class="stroke" d="M 44.036494860000005 64.0204364 C 47.388318659999996 69.7664183 49.543063 77.42773652 50.74014492 85.32846439999999" />
<path class="stroke" d="M 72.2875916 64.0204364 C 71.3299218 71.4423343 69.17517663999999 78.8642322 65.58394236 85.8072952" />
<path class="stroke" d="M 26.3197077 86.286126 L 91.68028819999999 86.286126" />
</svg>
