<?xml version="1.0" standalone="no"?>
<!DOCTYPE svg PUBLIC "-//W3C//DTD SVG 1.1//EN" "http://www.w3.org/Graphics/SVG/1.1/DTD/svg11.dtd">
<svg xmlns="http://www.w3.org/2000/svg" version="1.1" width="100%" height="100%">
<style type="text/css"><![CDATA[
  .stroke { fill:none; stroke:black; stroke-width:2 }
]]></style>
<path class="stroke" d="M 26.09666625 5.83596 C 21.99559275 18.87483 13.399467750000001 32.54463 4.56663525 38.64353" />
<path class="stroke" d="M 6.69597375 8.04417 C 15.37108875 17.7182 22.62658875 33.0705 22.54768875 61.6719 L 22.54768875 77.4448 C 22.863138 85.6467 21.049338 96.0569 14.740113 95.7414 L 10.83396375 95.7414" />
<path class="stroke" d="M 19.94513625 34.22716 C 20.02403625 49.47426 12.05866125 62.82856 4.56664125 67.03466" />
<path class="stroke" d="M 38.30291875 6.665949970588236 C 42.682480749999996 9.826105323529411 46.18612975 14.171317411764706 48.81386725 18.31902105882353" />
<path class="stroke" d="M 84.7262725 6.665949970588236 C 82.93941699999999 10.576641323529412 79.25182 15.158864352941178 75.529195 18.5165295" />
<path class="stroke" d="M 29.613565 20.64673 L 95.38645 20.64673" />
<path class="stroke" d="M 35.055175 37.11358 L 35.055175 92.76022" />
<path class="stroke" d="M 35.055175 37.11358 L 90.181375 37.11358 L 90.181375 92.76022" />
<path class="stroke" d="M 55.1656 20.930641299999998 L 55.1656 43.643580400000005 C 54.758063500000006 50.064516999999995 46.290322 61.967742400000006 35.403226000000004 64.5806413" />
<path class="stroke" d="M 69.5977975 20.64673 L 69.5977975 60.11047 C 69.2823475 63.42283 71.096221 65.88334 73.61989750000001 65.78875 L 80.48104749999999 65.78875 C 82.2949225 65.69407000000001 84.58197249999999 63.89596 84.503143 60.394420000000004 L 84.503143 56.41966" />
<path class="stroke" d="M 35.055175 77.14513 L 90.181375 77.14513" />
<path class="stroke" d="M 35.055175 92.76022 L 90.181375 92.76022" />
</svg>
