<?xml version="1.0" standalone="no"?>
<!DOCTYPE svg PUBLIC "-//W3C//DTD SVG 1.1//EN" "http://www.w3.org/Graphics/SVG/1.1/DTD/svg11.dtd">
<svg xmlns="http://www.w3.org/2000/svg" version="1.1" width="100%" height="100%">
<style type="text/css"><![CDATA[
  .stroke { fill:none; stroke:black; stroke-width:2 }
]]></style>
<path class="stroke" d="M 19.48905 10.145985 L 19.48905 90.43795" />
<path class="stroke" d="M 19.48905 10.145985 L 80.51095 10.145985 L 80.51095 86.05839 C 80.51095 88.68613 79.63503 90.14598 77.00729 90.14598 L 74.087585 90.14598" />
<path class="stroke" d="M 31.75547375 21.95577388235294 C 34.96715255 25.253327294117646 37.53649515 29.78746164705882 39.46350265 34.11550023529412" />
<path class="stroke" d="M 65.7992665 21.95577388235294 C 64.4889058 26.036495294117643 61.784667999999996 30.817945411764704 59.054743 34.321596" />
<path class="stroke" d="M 27.2591231 36.2 L 71.7408725 36.2" />
<path class="stroke" d="M 50.020514500000004 39.78706447 L 50.020514500000004 45.19713928" />
<path class="stroke" d="M 26.250812500000002 45.8154742 L 73.44323250000001 45.8154742" />
<path class="stroke" d="M 32.67033 45.970029999999994 L 32.67033 76.343905 C 32.439 78.58521399999998 33.76912 80.671928 36.48733 80.74920099999999 L 71.361235 80.74920099999999" />
</svg>
