<?xml version="1.0" standalone="no"?>
<!DOCTYPE svg PUBLIC "-//W3C//DTD SVG 1.1//EN" "http://www.w3.org/Graphics/SVG/1.1/DTD/svg11.dtd">
<svg xmlns="http://www.w3.org/2000/svg" version="1.1" width="100%" height="100%">
<style type="text/css"><![CDATA[
  .stroke { fill:none; stroke:black; stroke-width:2 }
]]></style>
<path class="stroke" d="M 3.6642334 20.4160575 L 3.6642334 62.927005" />
<path class="stroke" d="M 3.6642334 20.4160575 L 16.39416 20.4160575 L 16.39416 62.518247" />
<path class="stroke" d="M 3.6642334 59.656931199999995 L 16.39416 59.656931199999995" />
<path class="stroke" d="M 32.52664097 24.744522 L 51.860947499999995 24.744522" />
<path class="stroke" d="M 42.3062023 8.686131 L 42.3062023 44.014595" />
<path class="stroke" d="M 27.131021125 43.92274 L 57.593793850000004 43.92274" />
<path class="stroke" d="M 38.259487705 44.014595 L 38.259487705 68.540146 C 38.259487705 76.423355 37.022991675 84.014595 34.999634185000005 89.56204" />
<path class="stroke" d="M 46.0156927 44.014595 L 46.0156927 86.35036 C 46.12810115 89.56204 45.34124123 91.0219 44.44196978 91.0219 L 43.205473749999996 91.0219" />
<path class="stroke" d="M 32.88898911 59.610348 C 32.060454480000004 67.22196 30.7799568 73.31116 27.69171087 77.87813" />
<path class="stroke" d="M 51.21713895 59.894783 C 53.62749305 65.07066 54.794994 70.246544 56.075523249999996 76.64024" />
<path class="stroke" d="M 71.02664097 24.744522 L 90.36094750000001 24.744522" />
<path class="stroke" d="M 80.8062023 8.686131 L 80.8062023 44.014595" />
<path class="stroke" d="M 65.63102112499999 43.92274 L 96.09379385000001 43.92274" />
<path class="stroke" d="M 76.759487705 44.014595 L 76.759487705 68.540146 C 76.759487705 76.423355 75.52299167500001 84.014595 73.49963418499999 89.56204" />
<path class="stroke" d="M 84.51569270000002 44.014595 L 84.51569270000002 86.35036 C 84.62810115 89.56204 83.84124123000001 91.0219 82.94196978 91.0219 L 81.70547375000001 91.0219" />
<path class="stroke" d="M 71.38898911000001 59.610348 C 70.56045448 67.22196 69.27995680000001 73.31116 66.19171087000001 77.87813" />
<path class="stroke" d="M 89.71713895 59.894783 C 92.12749305 65.07066 93.294994 70.246544 94.57552325 76.64024" />
</svg>
