<?xml version="1.0" standalone="no"?>
<!DOCTYPE svg PUBLIC "-//W3C//DTD SVG 1.1//EN" "http://www.w3.org/Graphics/SVG/1.1/DTD/svg11.dtd">
<svg xmlns="http://www.w3.org/2000/svg" version="1.1" width="100%" height="100%">
<style type="text/css"><![CDATA[
  .stroke { fill:none; stroke:black; stroke-width:2 }
]]></style>
<path class="stroke" d="M 25.912407 10.729925 C 21.824816 18.029196 16.27737 23.86861 11.021896 28.540146 C 15.109488 31.45985 20.07299 36.131386 24.744522 40.218975" />
<path class="stroke" d="M 37.007298 25.912407 C 30.0 34.67153 20.656933 45.18248 8.978102 56.277367 C 19.48905 54.525543 31.167881 52.48175 41.67883 50.437954" />
<path class="stroke" d="M 38.17518 43.430653 C 41.094887 46.642334 41.970802 49.85401 43.722626 55.40146" />
<path class="stroke" d="M 26.49635 54.233574 L 26.49635 89.56204" />
<path class="stroke" d="M 17.445253 65.03649 C 15.69343 70.87591 13.649633 74.67153 9.562042 78.75912" />
<path class="stroke" d="M 34.08759 65.32846 C 37.299267 68.540146 37.35135 68.81081 38.97297 71.72973" />
<path class="stroke" d="M 90.3069298 7.70077 C 80.1782178 11.16611688888889 64.65841515 12.783278666666666 55.5099016 12.783278666666666" />
<path class="stroke" d="M 56.4900984 18.78987988888889 C 58.940594250000004 22.024203444444446 60.412705 25.55785555555556 61.5544555 29.18591977777778" />
<path class="stroke" d="M 68.90594085000001 17.634763222222222 C 71.1930702 20.176017555555557 72.6633665 23.410341111111112 73.64356550000001 27.568757222222224" />
<path class="stroke" d="M 89.49009950000001 16.248624 C 88.18316970000001 21.79317933333333 86.2227695 25.951595444444447 83.4455445 28.95489488888889" />
<path class="stroke" d="M 61.48474401200001 35.025 L 84.61525370000001 35.025" />
<path class="stroke" d="M 56.4900984 50.995543104999996 L 89.0 50.995543104999996" />
<path class="stroke" d="M 73.64356550000001 39.651980135 L 71.3564345 54.5876735005 C 69.55940575 65.17500000000001 61.8811885 77.27480135 53.05940575 83.702821215" />
<path class="stroke" d="M 70.37623825 61.9609913405 L 84.262377 61.9609913405 C 82.7920785 74.62797338499999 74.4663765 85.72242935 61.71782090000001 90.31990067499999" />
<path class="stroke" d="M 68.5792095 67.6327715525 C 74.4603969 80.2997516875 80.1782178 87.105890106 94.2277225 90.31990067499999" />
</svg>
