<?xml version="1.0" standalone="no"?>
<!DOCTYPE svg PUBLIC "-//W3C//DTD SVG 1.1//EN" "http://www.w3.org/Graphics/SVG/1.1/DTD/svg11.dtd">
<svg xmlns="http://www.w3.org/2000/svg" version="1.1" width="100%" height="100%">
<style type="text/css"><![CDATA[
  .stroke { fill:none; stroke:black; stroke-width:2 }
]]></style>
<path class="stroke" d="M 8.946819428571429 27.956203 L 28.46715257142857 27.956203" />
<path class="stroke" d="M 20.45880857142857 9.270073 L 20.45880857142857 90.14598" />
<path class="stroke" d="M 20.45880857142857 36.131386 C 17.20542 44.598537 13.20125057142857 52.48175 7.4452551428571425 56.861313" />
<path class="stroke" d="M 20.45880857142857 36.131386 C 24.212719714285715 37.299267 26.71532657142857 42.26277 27.96663 46.934303" />
<path class="stroke" d="M 42.901970633999994 9.854013 L 42.88047012 55.63759 C 40.149060159 80.20134 40.149060159 79.39597 37.096308366 89.865776" />
<path class="stroke" d="M 42.901970633999994 9.854013 L 59.21146031999999 9.854013 L 59.21146031999999 86.05839 C 59.21146031999999 88.39416 58.745472209999996 90.43795 57.58050951599999 90.43795 L 56.29905158999999 90.43795" />
<path class="stroke" d="M 42.901970633999994 31.862577 L 59.21146031999999 31.862577" />
<path class="stroke" d="M 42.901970633999994 55.110336 L 59.21146031999999 55.110336" />
<path class="stroke" d="M 72.054671358 9.854013 L 72.03241643999999 55.63759 C 69.20516753300001 80.20134 69.20516753300001 79.39597 66.045301642 89.865776" />
<path class="stroke" d="M 72.054671358 9.854013 L 88.93642384 9.854013 L 88.93642384 86.05839 C 88.93642384 88.39416 88.45408527 90.43795 87.24824669199998 90.43795 L 85.92182532999999 90.43795" />
<path class="stroke" d="M 72.054671358 31.862577 L 88.93642384 31.862577" />
<path class="stroke" d="M 72.054671358 55.110336 L 88.93642384 55.110336" />
</svg>
