<?xml version="1.0" standalone="no"?>
<!DOCTYPE svg PUBLIC "-//W3C//DTD SVG 1.1//EN" "http://www.w3.org/Graphics/SVG/1.1/DTD/svg11.dtd">
<svg xmlns="http://www.w3.org/2000/svg" version="1.1" width="100%" height="100%">
<style type="text/css"><![CDATA[
  .stroke { fill:none; stroke:black; stroke-width:2 }
]]></style>
<path class="stroke" d="M 8.86496275 14.54772572 L 30.631384 14.54772572" />
<path class="stroke" d="M 15.866300449999999 14.54772572 C 15.731276049999998 34.116727850000004 8.762773249999999 56.79926416 4.5729925499999995 63.099999999999994" />
<path class="stroke" d="M 13.05474345 42.743793499999995 L 13.05474345 75.70145839999999" />
<path class="stroke" d="M 13.05474345 42.743793499999995 L 28.0766395 42.743793499999995 L 27.97445 75.9437935" />
<path class="stroke" d="M 12.9525543 73.2780991 L 27.97445 73.2780991" />
<path class="stroke" d="M 47.56234525 15.137157 C 43.477556750000005 26.807983 44.83915205 24.114716 40.94887865 32.194515" />
<path class="stroke" d="M 47.56234525 15.436411 L 95.607235 15.436411 C 93.662097 22.618454 93.273072 25.01247 88.02119875 33.09227" />
<path class="stroke" d="M 64.6795525 5.0 C 59.265254 34.070683 49.4423253 50.140804 39.6109973 62.04098" />
<path class="stroke" d="M 49.3129675 48.65337 L 49.6531294 92.90614" />
<path class="stroke" d="M 74.14029795 36.65558 C 72.95540125 40.634956 71.57306510000001 44.816624 68.80839345 48.39138" />
<path class="stroke" d="M 49.6531294 48.3913 L 92.30817300000001 48.3913" />
<path class="stroke" d="M 69.20334125 48.39128 L 69.20334125 92.70378" />
<path class="stroke" d="M 50.0481344 63.162155 L 88.7535505 63.162155" />
<path class="stroke" d="M 50.24557905 78.13529 L 88.7535505 78.13529" />
<path class="stroke" d="M 49.6531294 92.90614 L 91.9131654 92.90614" />
</svg>
