<?xml version="1.0" standalone="no"?>
<!DOCTYPE svg PUBLIC "-//W3C//DTD SVG 1.1//EN" "http://www.w3.org/Graphics/SVG/1.1/DTD/svg11.dtd">
<svg xmlns="http://www.w3.org/2000/svg" version="1.1" width="100%" height="100%">
<style type="text/css"><![CDATA[
  .stroke { fill:none; stroke:black; stroke-width:2 }
]]></style>
<path class="stroke" d="M 9.60396 33.069305 L 30.9901 30.9901" />
<path class="stroke" d="M 23.267326 9.60396 L 23.267326 84.15842 C 23.267326 87.42574 20.594059 90.09901 17.029703 90.09901" />
<path class="stroke" d="M 10.198019 63.36634 L 28.910892 46.435642" />
<path class="stroke" d="M 50.503355627999994 9.576642 L 50.503355627999994 39.007296000000004" />
<path class="stroke" d="M 50.503355627999994 9.576642 L 79.329049 9.576642 L 79.329049 39.007296000000004" />
<path class="stroke" d="M 50.67094813 23.490257200000002 L 79.16145822 23.490257200000002" />
<path class="stroke" d="M 50.503355627999994 37.7226256 L 79.329049 37.7226256" />
<path class="stroke" d="M 36.6934294 45.75 L 93.306565 45.75" />
<path class="stroke" d="M 48.2 45.92484277464 C 47.7459443 50.9196971496 45.2486481 60.5871563808 35.25945952 66.0653833944" />
<path class="stroke" d="M 46.91240809999999 53.4373131216 C 68.16788009999999 53.4373131216 74.7080249 53.4373131216 93.10218599999999 53.4373131216 C 92.4890455 73.889517396 86.766423 81.1420725648 81.04379 85.78370676 C 78.3868588 87.5243180928 75.934308 87.959472168 73.2773698 88.104522864" />
<path class="stroke" d="M 61.627736 53.4373131216 C 59.788318000000004 65.62160387760001 49.5693421 74.75982306240002 38.328467 79.83661332" />
<path class="stroke" d="M 75.729922 53.4373131216 C 73.890511 68.232522864 64.897807 79.401456264 55.496348499999996 83.89804026" />
</svg>
