<?xml version="1.0" standalone="no"?>
<!DOCTYPE svg PUBLIC "-//W3C//DTD SVG 1.1//EN" "http://www.w3.org/Graphics/SVG/1.1/DTD/svg11.dtd">
<svg xmlns="http://www.w3.org/2000/svg" version="1.1" width="100%" height="100%">
<style type="text/css"><![CDATA[
  .stroke { fill:none; stroke:black; stroke-width:2 }
]]></style>
<path class="stroke" d="M 21.240875 8.7226265 C 25.036495 10.474452 28.540146 12.5182475 30.8083 15.5363" />
<path class="stroke" d="M 78.17518 8.7226265 C 76.423355 11.350365 73.21168 13.540146 68.832115 15.437956" />
<path class="stroke" d="M 14.817516 21.5693415 L 85.47445 21.5693415" />
<path class="stroke" d="M 50.0 4.80198 L 50.14598 45.19802" />
<path class="stroke" d="M 44.598537 22.883211 C 38.5894 29.8429 26.4537 36.91955 11.89781 40.693428" />
<path class="stroke" d="M 55.985397 23.029195 C 60.8925 29.89545 73.1021 37.3362 87.81021 40.8394125" />
<path class="stroke" d="M 15.401459 68.503649 L 84.8905 68.503649" />
<path class="stroke" d="M 50.14598 54.6350365 L 50.14598 70.1094875 C 50.14598 81.350365 34.812946 92.90445700000001 10.729925 95.51095000000001" />
<path class="stroke" d="M 50.14598 69.963503 C 50.14598 81.49635 65.80349 92.87796 89.56204 95.51095000000001" />
</svg>
