<?xml version="1.0" standalone="no"?>
<!DOCTYPE svg PUBLIC "-//W3C//DTD SVG 1.1//EN" "http://www.w3.org/Graphics/SVG/1.1/DTD/svg11.dtd">
<svg xmlns="http://www.w3.org/2000/svg" version="1.1" width="100%" height="100%">
<style type="text/css"><![CDATA[
  .stroke { fill:none; stroke:black; stroke-width:2 }
]]></style>
<path class="stroke" d="M 49.4257416 8.480748 C 38.3762376 11.847084977777778 21.4455438 13.418042133333334 11.4653472 13.418042133333334" />
<path class="stroke" d="M 12.5346528 19.253026177777777 C 15.207920999999999 22.39494048888889 16.81386 25.827631111111113 18.059406 29.352036355555555" />
<path class="stroke" d="M 26.0792082 18.130912844444442 C 28.5742584 20.59955991111111 30.178217999999998 23.741474222222223 31.247526 27.781078444444447" />
<path class="stroke" d="M 48.534654 16.7843776 C 47.1089124 22.170517066666665 44.970294 26.21012128888889 41.940594 29.127612177777777" />
<path class="stroke" d="M 6.6246 36.66406 L 52.80756 36.66406 C 45.74136 42.61039 39.43224 45.481049999999996 28.201919999999998 47.12139" />
<path class="stroke" d="M 28.201919999999998 47.12139 L 28.201919999999998 87.72077999999999 C 28.70664 90.7282 22.832919599999997 91.75 17.0872836 91.38528500000001 L 8.827931159999999 89.245641" />
<path class="stroke" d="M 7.003158 65.5756973 L 52.0504992 57.168791" />
<path class="stroke" d="M 64.60568 9.60396 L 64.60568 74.0594 C 64.60568 84.15842 67.5247528 89.80198 71.5643568 89.80198 L 93.18812 89.80198 C 94.8514864 89.80198 96.039604 86.83168 96.039604 83.26733 L 96.039604 78.514854" />
</svg>
