<?xml version="1.0" standalone="no"?>
<!DOCTYPE svg PUBLIC "-//W3C//DTD SVG 1.1//EN" "http://www.w3.org/Graphics/SVG/1.1/DTD/svg11.dtd">
<svg xmlns="http://www.w3.org/2000/svg" version="1.1" width="100%" height="100%">
<style type="text/css"><![CDATA[
  .stroke { fill:none; stroke:black; stroke-width:2 }
]]></style>
<path class="stroke" d="M 13.90437938 9.854013 L 13.8812084 55.63759 C 10.937583629999999 80.20134 10.937583629999999 79.39597 7.647650619999999 89.865776" />
<path class="stroke" d="M 13.90437938 9.854013 L 31.4810224 9.854013 L 31.4810224 86.05839 C 31.4810224 88.39416 30.9788297 90.43795 29.72335612 90.43795 L 28.342336299999996 90.43795" />
<path class="stroke" d="M 13.90437938 31.862577 L 31.4810224 31.862577" />
<path class="stroke" d="M 13.90437938 55.110336 L 31.4810224 55.110336" />
<path class="stroke" d="M 38.2681408 10.32035172413793 L 95.731846 10.32035172413793" />
<path class="stroke" d="M 43.681408 25.875650862068966 L 43.681408 46.51639224137931" />
<path class="stroke" d="M 43.681408 25.875650862068966 L 89.902198 25.875650862068966 L 89.902198 46.51639224137931" />
<path class="stroke" d="M 58.4637382 10.619456896551725 L 58.4637382 45.9180775862069" />
<path class="stroke" d="M 74.7034804 10.619537500000002 L 74.7034804 45.61897715517241" />
<path class="stroke" d="M 43.681408 46.51639224137931 L 89.902198 46.51639224137931" />
<path class="stroke" d="M 63.86336584 51.91584135 C 63.079207960000005 60.73762355 58.17821758 71.51980265 53.473267660000005 76.58415865 C 64.20583852 78.521895 79.4291959 84.784668 87.137227 92.6532837" />
<path class="stroke" d="M 79.3504942 61.8811885 C 74.44950711999999 80.504953 64.25544478 87.529707 49.17518134 92.171531" />
<path class="stroke" d="M 40.503648580000004 64.55109365 L 93.30364660000001 64.55109365" />
</svg>
