<?xml version="1.0" standalone="no"?>
<!DOCTYPE svg PUBLIC "-//W3C//DTD SVG 1.1//EN" "http://www.w3.org/Graphics/SVG/1.1/DTD/svg11.dtd">
<svg xmlns="http://www.w3.org/2000/svg" version="1.1" width="100%" height="100%">
<style type="text/css"><![CDATA[
  .stroke { fill:none; stroke:black; stroke-width:2 }
]]></style>
<path class="stroke" d="M 54.10092 6.46688 L 54.10092 14.66882" />
<path class="stroke" d="M 18.7697 14.98422 L 93.8486 14.98422" />
<path class="stroke" d="M 18.7697 15.2997 L 18.7697 59.7792 C 19.0852 71.2408 14.6687 79.2323 6.46688 87.5394" />
<path class="stroke" d="M 5.83596 25.07884 C 8.78023 28.65404 10.4627 32.22924 11.8297 36.43534" />
<path class="stroke" d="M 6.15141 58.20189 C 8.14931 57.04519 10.4627 54.62679 12.1451 52.20829" />
<path class="stroke" d="M 46.067825 24.435336 L 46.067825 39.324960000000004 C 45.9101 50.8496 37.471625 56.3176 27.85016 58.75712" />
<path class="stroke" d="M 46.30445 24.435328 L 71.8565 24.435328 L 71.8565 47.40056 C 71.619875 50.68128 73.51265000000001 52.70024 76.11515 52.70024 L 92.5418825 52.70024" />
<path class="stroke" d="M 38.733425 60.523688 L 78.24455 60.523688 C 68.22874999999999 79.787608 49.932199999999995 89.209288 29.269714999999998 93.331208" />
<path class="stroke" d="M 44.411675 60.523688 C 48.118325 78.525768 69.332825 91.73296800000001 92.67665 93.07888799999999" />
</svg>
