<?xml version="1.0" standalone="no"?>
<!DOCTYPE svg PUBLIC "-//W3C//DTD SVG 1.1//EN" "http://www.w3.org/Graphics/SVG/1.1/DTD/svg11.dtd">
<svg xmlns="http://www.w3.org/2000/svg" version="1.1" width="100%" height="100%">
<style type="text/css"><![CDATA[
  .stroke { fill:none; stroke:black; stroke-width:2 }
]]></style>
<path class="stroke" d="M 13.437956 27.956203 L 36.211678 27.956203" />
<path class="stroke" d="M 26.86861 9.270073 L 26.86861 90.14598" />
<path class="stroke" d="M 26.86861 36.131386 C 23.07299 44.598537 18.401459 52.48175 11.686131 56.861313" />
<path class="stroke" d="M 26.86861 36.131386 C 31.248173 37.299267 34.167881 42.26277 35.627735 46.934303" />
<path class="stroke" d="M 39.2050446 17.90540863636364 L 93.1861134 17.90540863636364" />
<path class="stroke" d="M 44.09462934 29.950159090909093 L 44.09462934 59.76080454545455" />
<path class="stroke" d="M 44.09462934 29.950063636363637 L 88.68769472 29.950063636363637 L 88.68769472 59.76080454545455" />
<path class="stroke" d="M 58.567842999999996 8.570689090909092 L 58.567842999999996 59.15858181818182" />
<path class="stroke" d="M 73.82336088 8.269568181818183 L 73.82336088 59.45964545454546" />
<path class="stroke" d="M 44.48578734 44.40379090909091 L 88.49208719999999 44.40379090909091" />
<path class="stroke" d="M 44.09462934 59.76080454545455 L 88.49208719999999 59.76080454545455" />
<path class="stroke" d="M 50.34160364 70.4613136 L 50.34160364 94.0058368" />
<path class="stroke" d="M 50.34160364 70.4613136 L 81.47737000000001 70.4613136 L 81.47737000000001 94.0058368" />
<path class="stroke" d="M 50.5226269 81.59220576 L 81.2963486 81.59220576" />
<path class="stroke" d="M 50.34160364 92.97810048 L 81.47737000000001 92.97810048" />
</svg>
