<?xml version="1.0" standalone="no"?>
<!DOCTYPE svg PUBLIC "-//W3C//DTD SVG 1.1//EN" "http://www.w3.org/Graphics/SVG/1.1/DTD/svg11.dtd">
<svg xmlns="http://www.w3.org/2000/svg" version="1.1" width="100%" height="100%">
<style type="text/css"><![CDATA[
  .stroke { fill:none; stroke:black; stroke-width:2 }
]]></style>
<path class="stroke" d="M 25.0268515 12.46059 L 25.0268515 25.39429" />
<path class="stroke" d="M 25.0268515 12.46059 L 76.5093965 12.46059 L 76.5093965 25.39429" />
<path class="stroke" d="M 25.0268515 25.39429 L 76.5093965 25.39429" />
<path class="stroke" d="M 51.036243750000004 5.5205 L 51.036243750000004 35.8044" />
<path class="stroke" d="M 14.56939925 36.1199 L 86.9668819 36.1199" />
<path class="stroke" d="M 27.080292 47.71532754 L 27.080292 85.6481726" />
<path class="stroke" d="M 27.372261 47.71532754 L 72.9197 47.71532754 L 72.9197 85.6481726" />
<path class="stroke" d="M 27.382198 60.6633676 L 72.871284 60.6633676" />
<path class="stroke" d="M 27.382198 73.41188186 L 72.871284 73.41188186" />
<path class="stroke" d="M 27.372261 85.47882999999999 L 72.62773 85.47882999999999" />
<path class="stroke" d="M 33.211678 89.54306399999999 C 30.875912 92.421894 21.39527 94.3728922 17.015707 95.0502597" />
<path class="stroke" d="M 63.82199 89.58429329999998 C 66.335075 91.0418826 75.75916 95.41466267999999 84.86911 95.23246148" />
</svg>
