<?xml version="1.0" standalone="no"?>
<!DOCTYPE svg PUBLIC "-//W3C//DTD SVG 1.1//EN" "http://www.w3.org/Graphics/SVG/1.1/DTD/svg11.dtd">
<svg xmlns="http://www.w3.org/2000/svg" version="1.1" width="100%" height="100%">
<style type="text/css"><![CDATA[
  .stroke { fill:none; stroke:black; stroke-width:2 }
]]></style>
<path class="stroke" d="M 9.8842424625 15.307695172 L 47.5948242 15.307695172" />
<path class="stroke" d="M 19.870825274999998 5.028074436 L 19.870825274999998 65.36498892" />
<path class="stroke" d="M 37.4591511 5.0280765612 L 37.4591511 65.5884537" />
<path class="stroke" d="M 20.019889575 31.6210279 L 37.310082075 31.6210279" />
<path class="stroke" d="M 20.168944424999996 47.93431104 L 37.310110425 47.93431104" />
<path class="stroke" d="M 8.8408656 66.03541867999999 L 49.234389750000005 66.03541867999999" />
<path class="stroke" d="M 19.973205 76.837434 C 18.118296 82.182358 13.878585 85.07488400000001 9.042579 86.6469064" />
<path class="stroke" d="M 41.436927000000004 76.83737420000001 C 46.211350499999995 79.99275708 43.7594598 78.24723993 47.2329711 81.5443219" />
<path class="stroke" d="M 58.0452534 11.605839 C 57.029196060000004 22.116787 54.3197075 32.627735 50.93284622 39.927006" />
<path class="stroke" d="M 55.505109759999996 26.204376 L 89.54306399999999 26.204376 C 89.20437648 34.37956 87.510947 39.927006 84.29342600000001 45.47445" />
<path class="stroke" d="M 71.25401332 30.875912 C 71.25401332 62.408752 60.753952 79.653 47.71532754 90.14598" />
<path class="stroke" d="M 71.0846684 48.394157 C 74.97956153999999 63.868607 80.73722269999999 80.21897 94.454011 90.14598" />
</svg>
