<?xml version="1.0" standalone="no"?>
<!DOCTYPE svg PUBLIC "-//W3C//DTD SVG 1.1//EN" "http://www.w3.org/Graphics/SVG/1.1/DTD/svg11.dtd">
<svg xmlns="http://www.w3.org/2000/svg" version="1.1" width="100%" height="100%">
<style type="text/css"><![CDATA[
  .stroke { fill:none; stroke:black; stroke-width:2 }
]]></style>
<path class="stroke" d="M 55.28075 2.8530096 C 53.27443400000001 7.0405944 48.883262 11.036385600000001 44.151404 12.682652000000003" />
<path class="stroke" d="M 22.540145 14.539853739999998 L 22.540145 69.4595578" />
<path class="stroke" d="M 22.540145 14.539853739999998 L 77.45985499999999 14.539853739999998 L 77.45985499999999 69.45106936" />
<path class="stroke" d="M 32.91707975 23.7469479084 C 35.171678029999995 25.158218531199996 37.252846724 26.804700186 38.6001302 29.236043280000004" />
<path class="stroke" d="M 66.73605692000001 23.7469479084 C 65.69547287 25.863854044 63.787737920000005 27.627941617600005 61.186276310000004 29.1568173536" />
<path class="stroke" d="M 29.101604504 34.096261512400005 L 71.0718233 34.096261512400005" />
<path class="stroke" d="M 50.0 20.588475088 L 50.08671212 53.131524912" />
<path class="stroke" d="M 46.791530978000004 35.1547147816 C 43.2221036 40.761440240000006 36.0134978 46.46238948 27.36729914 49.502625596799994" />
<path class="stroke" d="M 53.555325818 35.272319492 C 56.470145 40.803774520000005 63.72264740000001 46.79804272 72.45926474 49.62023071000001" />
<path class="stroke" d="M 15.401459 71.17299218 L 84.8905 71.17299218" />
<path class="stroke" d="M 50.14598 59.80072993 L 50.14598 72.48977975 C 50.14598 81.7072993 34.812946 91.18165474 10.729925 93.318979" />
<path class="stroke" d="M 50.14598 72.37007246 C 50.14598 81.827007 65.80349 91.1599272 89.56204 93.318979" />
</svg>
