<?xml version="1.0" standalone="no"?>
<!DOCTYPE svg PUBLIC "-//W3C//DTD SVG 1.1//EN" "http://www.w3.org/Graphics/SVG/1.1/DTD/svg11.dtd">
<svg xmlns="http://www.w3.org/2000/svg" version="1.1" width="100%" height="100%">
<style type="text/css"><![CDATA[
  .stroke { fill:none; stroke:black; stroke-width:2 }
]]></style>
<path class="stroke" d="M 26.769344444444446 9.306931 C 22.527680555555555 17.680412 15.511645370370369 26.030926 9.167583333333333 30.69307" />
<path class="stroke" d="M 27.044370370370373 9.306931 C 31.548299074074077 14.123711 36.13020370370371 17.216494 41.57120740740741 19.536081" />
<path class="stroke" d="M 27.682318518518517 19.999998 C 29.830083333333334 22.319588 30.54600925925926 24.639175 31.118746296296298 27.731956" />
<path class="stroke" d="M 19.234439814814817 29.896904 L 40.28255 29.896904 L 40.28255 57.72277" />
<path class="stroke" d="M 19.618627777777778 43.81443 L 39.60635925925926 43.81443" />
<path class="stroke" d="M 19.3436 57.72277 L 40.245691666666666 57.72277" />
<path class="stroke" d="M 19.234439814814817 29.896904 L 19.234439814814817 89.896904 C 26.823212962962963 87.57732 33.149564814814816 83.55427 38.73375925925926 79.842926" />
<path class="stroke" d="M 34.98472592592593 74.12371 C 37.705231481481476 76.90721 40.28255 82.16495 41.42802592592593 85.87628" />
<path class="stroke" d="M 54.58685992 9.854013 L 94.48174879999999 9.854013" />
<path class="stroke" d="M 54.423357280000005 9.854013 L 54.423357280000005 31.167881 C 54.423357280000005 74.67153 52.29780896 81.386856 49.71089064 90.09901" />
<path class="stroke" d="M 63.866138039999996 34.6732668 L 88.8665364 34.6732668 C 83.17782036 61.910891899999996 73.596831264 75.217824 56.83009896 86.861386" />
<path class="stroke" d="M 63.267326568 40.910891899999996 C 65.496772584 53.8064501 73.30064407200001 64.4193552 75.901933728 69.161291 C 80.61677208 76.38709700000001 89.070965856 81.80644799999999 97.10019792 86.861386" />
</svg>
