<?xml version="1.0" standalone="no"?>
<!DOCTYPE svg PUBLIC "-//W3C//DTD SVG 1.1//EN" "http://www.w3.org/Graphics/SVG/1.1/DTD/svg11.dtd">
<svg xmlns="http://www.w3.org/2000/svg" version="1.1" width="100%" height="100%">
<style type="text/css"><![CDATA[
  .stroke { fill:none; stroke:black; stroke-width:2 }
]]></style>
<path class="stroke" d="M 15.56237684 17.4851495 C 18.9603964 19.7128715 20.35049524 22.237623 21.740594079999997 25.356435" />
<path class="stroke" d="M 43.055444 16.742575000000002 C 41.8198018 20.455446000000002 40.429704 23.2772275 37.34059408 25.5049515" />
<path class="stroke" d="M 10.7742574 30.70297 L 47.2257452 30.70297" />
<path class="stroke" d="M 29.0 10.80198 L 29.075909600000003 51.19802" />
<path class="stroke" d="M 24.829702960000002 32.336633500000005 C 21.4316834 40.80198 16.33465432 45.40594 10.31089112 48.9703" />
<path class="stroke" d="M 32.70693232 32.188118 C 38.885148 36.79208 43.209904800000004 41.841585 46.2990116 48.82178" />
<path class="stroke" d="M 27.171286759999997 55.94455548 C 25.86138593 62.27722728 23.09604055 68.30099048 19.457425989999997 73.86138636 C 27.425546779999998 75.693428 38.72773635 81.6145952 44.4503655 89.05401368" />
<path class="stroke" d="M 38.5237616 58.57029704 C 35.32178163 75.86930864 27.46237567 84.2099048 16.266422509999998 88.5985384" />
<path class="stroke" d="M 9.8514851 63.9762368 L 49.1485149 59.34257452" />
<path class="stroke" d="M 64.34851616 14.0099009 C 62.68514872 25.63267297 58.693070000000006 39.4178198 52.53861344 47.25643422" />
<path class="stroke" d="M 58.526732640000006 37.525741430000004 L 86.6376216 37.525741430000004" />
<path class="stroke" d="M 73.663368 37.79603964 C 71.66732640000001 60.77129012 63.184159120000004 79.96237476 49.877228 86.7198018" />
<path class="stroke" d="M 58.526732640000006 44.55346577 C 62.18613776 61.0415856 79.9841552 86.99009910000001 89.7980208 86.99009910000001" />
</svg>
