<?xml version="1.0" standalone="no"?>
<!DOCTYPE svg PUBLIC "-//W3C//DTD SVG 1.1//EN" "http://www.w3.org/Graphics/SVG/1.1/DTD/svg11.dtd">
<svg xmlns="http://www.w3.org/2000/svg" version="1.1" width="100%" height="100%">
<style type="text/css"><![CDATA[
  .stroke { fill:none; stroke:black; stroke-width:2 }
]]></style>
<path class="stroke" d="M 21.0 10.90948866 L 21.0 25.45547448" />
<path class="stroke" d="M 10.96204332 26.278830819999996 L 31.248174 26.278830819999996" />
<path class="stroke" d="M 12.64379484 38.080293 C 14.7459846 47.960582239999994 16.32262728 60.859848799999995 17.16350268 73.4846692" />
<path class="stroke" d="M 29.6715306 35.8846692 C 27.7885704 47.7324668 25.993244999999998 61.20986719999999 24.521167199999997 77.8759074" />
<path class="stroke" d="M 11.2940256 84.3558444 L 34.969868399999996 75.85921636" />
<path class="stroke" d="M 67.6929796 6.78554678 L 67.6929796 27.98788304" />
<path class="stroke" d="M 46.038684759999995 15.62700584 L 46.038684759999995 28.93211549 M 46.038684759999995 27.98788304 L 88.78320500000001 27.98788304" />
<path class="stroke" d="M 88.78320500000001 15.54116666 L 88.78320500000001 29.017954375999995" />
<path class="stroke" d="M 40.7523662 39.7315386 L 94.247646 39.7315386" />
<path class="stroke" d="M 66.922696 39.9479716 C 66.922696 45.935105199999995 64.99839 50.8403482 59.225533 53.5813984" />
<path class="stroke" d="M 45.755513 53.5813984 L 45.755513 95.34734219999999" />
<path class="stroke" d="M 45.755513 53.5813984 L 87.705091 53.5813984 L 87.705091 91.01923099999999 C 87.83337399999999 94.04888139999998 86.614655 95.3472736 84.626177 95.3472736 L 81.932234 95.3472736" />
<path class="stroke" d="M 59.2255391 54.014207461999995 L 59.2255391 92.10127252" />
<path class="stroke" d="M 73.08046300000001 54.014207461999995 L 73.08046300000001 92.10127252" />
</svg>
