<?xml version="1.0" standalone="no"?>
<!DOCTYPE svg PUBLIC "-//W3C//DTD SVG 1.1//EN" "http://www.w3.org/Graphics/SVG/1.1/DTD/svg11.dtd">
<svg xmlns="http://www.w3.org/2000/svg" version="1.1" width="100%" height="100%">
<style type="text/css"><![CDATA[
  .stroke { fill:none; stroke:black; stroke-width:2 }
]]></style>
<path class="stroke" d="M 27.956203 11.443429125 L 72.62773 11.443429125" />
<path class="stroke" d="M 13.065693 21.516421916666665 C 13.065693 26.832723375000004 12.773722 30.47019254166667 11.313868 34.38746916666667" />
<path class="stroke" d="M 13.357662 21.516421916666665 L 87.51824 21.516421916666665 C 87.22627 27.112527 86.35036 29.910580500000002 85.18248 32.708634958333334" />
<path class="stroke" d="M 50.165638 11.443429125 L 50.165638 46.419095000000006" />
<path class="stroke" d="M 27.080292 28.231750125 C 31.45985 29.07116579166667 34.37956 30.47019254166667 37.299267 33.54804966666667" />
<path class="stroke" d="M 27.372261 38.02493833333333 C 30.875912 38.5845475 33.79562 40.26338075 37.007298 44.180653541666665" />
<path class="stroke" d="M 60.9489 28.231750125 C 64.74452 28.79136120833333 67.9562 30.190388916666667 72.04379 33.26824604166667" />
<path class="stroke" d="M 60.9489 38.30474291666667 C 65.03649 38.86435208333333 68.540146 41.38260004166667 71.45985 44.180653541666665" />
<path class="stroke" d="M 20.656933 55.15401388 L 79.927 55.15401388" />
<path class="stroke" d="M 10.145985 68.18175162 L 89.85401 68.18175162" />
<path class="stroke" d="M 37.38166 72.94167107999999 L 37.38166 91.9852497" />
<path class="stroke" d="M 64.82649 72.94167107999999 L 64.82649 92.48076932000001" />
<path class="stroke" d="M 12.77603 75.64993385 C 17.61303 78.20803634999999 21.18823 81.45720795 23.18603 85.5022949" />
<path class="stroke" d="M 88.17034 75.7200467 C 86.06724 79.89522038 82.38694 83.1140707 78.39114 85.53716992" />
<path class="stroke" d="M 6.782332 92.9762977 L 94.794975 92.9762977" />
</svg>
