<?xml version="1.0" standalone="no"?>
<!DOCTYPE svg PUBLIC "-//W3C//DTD SVG 1.1//EN" "http://www.w3.org/Graphics/SVG/1.1/DTD/svg11.dtd">
<svg xmlns="http://www.w3.org/2000/svg" version="1.1" width="100%" height="100%">
<style type="text/css"><![CDATA[
  .stroke { fill:none; stroke:black; stroke-width:2 }
]]></style>
<path class="stroke" d="M 20.770715441176474 11.605839 C 17.979818382352942 27.372261 12.183339705882354 41.970802 7.245597794117647 50.14598" />
<path class="stroke" d="M 16.477026470588235 30.583939 L 16.477026470588235 90.43795" />
<path class="stroke" d="M 40.367881440000005 20.79981229787234 L 79.44057968 20.79981229787234" />
<path class="stroke" d="M 60.09576288 12.003414425531915 L 60.09576288 51.22068304255319" />
<path class="stroke" d="M 42.09167888 35.82699178723404 L 77.90831456000001 35.82699178723404" />
<path class="stroke" d="M 33.85576616 51.22068304255319 L 86.33576287999999 51.22068304255319" />
<path class="stroke" d="M 58.233432 55.500085 C 52.633664 63.5792075 43.1287136 69.3861355 33.3861392 72.4158415" />
<path class="stroke" d="M 50.257424 64.336634 L 50.257424 89.331683 C 57.1485136 88.0693055 61.663368000000006 86.806928 66.4158448 83.7772305" />
<path class="stroke" d="M 82.81188320000001 56.7623775 C 79.485152 61.811881549999995 74.97029599999999 65.85148275 69.742572 67.87129100000001" />
<path class="stroke" d="M 64.7524784 62.821781 C 69.9802 73.42574350000001 80.198024 82.2623741 91.36633920000001 86.806928" />
</svg>
