<?xml version="1.0" standalone="no"?>
<!DOCTYPE svg PUBLIC "-//W3C//DTD SVG 1.1//EN" "http://www.w3.org/Graphics/SVG/1.1/DTD/svg11.dtd">
<svg xmlns="http://www.w3.org/2000/svg" version="1.1" width="100%" height="100%">
<style type="text/css"><![CDATA[
  .stroke { fill:none; stroke:black; stroke-width:2 }
]]></style>
<path class="stroke" d="M 79.354836 6.73870952 C 60.0 12.05161249 43.138683 12.5729923 17.419353 13.82257974" />
<path class="stroke" d="M 27.419353 19.33225773 C 30.0 20.40948906 31.751823 22.72481726 33.548386 24.251611269999998" />
<path class="stroke" d="M 73.548386 18.545161309999997 C 72.62773 21.656202790000002 71.6129 23.07096725 69.354836 24.251611269999998" />
<path class="stroke" d="M 12.4817505 30.613540999999998 L 87.81021 30.613540999999998" />
<path class="stroke" d="M 50.0 11.947968 L 50.0 57.276638559999995" />
<path class="stroke" d="M 49.85401 33.0547427 C 40.6414 43.185641000000004 28.832115 50.1525486 11.021896 54.783205" />
<path class="stroke" d="M 49.85401 33.0547427 C 58.5174 42.993186 72.713 49.984701 89.85401 54.42700403999999" />
<path class="stroke" d="M 27.56204344 58.00583852 L 27.56204344 90.3795588" />
<path class="stroke" d="M 27.56204344 57.87737128 L 72.60729568 57.87737128 L 72.60729568 90.3795588" />
<path class="stroke" d="M 50.0846684 58.00583852 L 50.0846684 88.067152" />
<path class="stroke" d="M 27.56204344 72.96360552 L 72.2686128 72.96360552" />
<path class="stroke" d="M 27.56204344 88.067152 L 72.60729568 88.067152" />
</svg>
