<?xml version="1.0" standalone="no"?>
<!DOCTYPE svg PUBLIC "-//W3C//DTD SVG 1.1//EN" "http://www.w3.org/Graphics/SVG/1.1/DTD/svg11.dtd">
<svg xmlns="http://www.w3.org/2000/svg" version="1.1" width="100%" height="100%">
<style type="text/css"><![CDATA[
  .stroke { fill:none; stroke:black; stroke-width:2 }
]]></style>
<path class="stroke" d="M 24.3568885 5.83596 C 20.529219899999998 18.87483 12.5061699 32.54463 4.2621929 38.64353" />
<path class="stroke" d="M 6.2495755 8.04417 C 14.346349499999999 17.7182 21.118149499999998 33.0705 21.0445095 61.6719 L 21.0445095 77.4448 C 21.338928799999998 85.6467 19.6460488 96.0569 13.7574388 95.7414 L 10.1116995 95.7414" />
<path class="stroke" d="M 18.615460499999998 34.22716 C 18.6891005 49.47426 11.2547505 62.82856 4.262198499999999 67.03466" />
<path class="stroke" d="M 34.14233425 19.6167875 L 90.8576575 19.6167875" />
<path class="stroke" d="M 51.0036475 10.49269875 L 51.0036475 29.470801249999997" />
<path class="stroke" d="M 73.996345 10.49269875 L 73.996345 29.470801249999997" />
<path class="stroke" d="M 44.43430525 29.43430585 C 43.33941475 33.90145945 36.332116 38.6313865 32.1715315 39.682480749999996" />
<path class="stroke" d="M 41.14963375 36.266422750000004 L 41.14963375 65.6970775" />
<path class="stroke" d="M 67.20802524999999 29.56569325 C 65.89415725 32.4562039 63.4853995 34.95255415 59.9817505 36.39780925" />
<path class="stroke" d="M 41.14963375 36.143547999999996 L 81.66058 36.143547999999996" />
<path class="stroke" d="M 61.0766425 36.39780925 L 61.0766425 65.6970775" />
<path class="stroke" d="M 41.14963375 46.5063325 L 78.81386499999999 46.5063325" />
<path class="stroke" d="M 41.14963375 56.105837799999996 L 79.0328425 56.105837799999996" />
<path class="stroke" d="M 41.14963375 65.6970775 L 86.040142 65.6970775" />
<path class="stroke" d="M 42.89603875 77.75247505 L 80.0990125 77.75247505 C 71.63366125 87.9665844625 57.376236999999996 92.956684 32.4257425 97.32301974999999" />
<path class="stroke" d="M 42.00495025 80.0915844625 C 45.32257825 84.9274187875 56.93548225 88.9072582 60.806449 90.685484125 C 67.8225775 93.395161375 80.403223 95.42741799999999 92.351485 97.32301974999999" />
</svg>
