<?xml version="1.0" standalone="no"?>
<!DOCTYPE svg PUBLIC "-//W3C//DTD SVG 1.1//EN" "http://www.w3.org/Graphics/SVG/1.1/DTD/svg11.dtd">
<svg xmlns="http://www.w3.org/2000/svg" version="1.1" width="100%" height="100%">
<style type="text/css"><![CDATA[
  .stroke { fill:none; stroke:black; stroke-width:2 }
]]></style>
<path class="stroke" d="M 13.649633 9.2116775 L 13.649633 24.783455" />
<path class="stroke" d="M 13.649633 9.2116775 L 86.642334 9.2116775 L 86.642334 24.783455" />
<path class="stroke" d="M 36.75083 9.2116775 L 36.75083 24.783455" />
<path class="stroke" d="M 63.249256 9.2116775 L 63.249256 24.783455" />
<path class="stroke" d="M 13.649633 24.790775 L 86.83168 24.790775" />
<path class="stroke" d="M 25.839414440000002 35.5109475 C 22.07883072 40.6204372 16.9751804 44.708027 12.140144320000001 47.978102199999995 C 15.90072896 50.021895 20.467150800000002 53.291970199999994 24.76496024 56.1532825" />
<path class="stroke" d="M 36.04671416 46.1386849 C 29.6 52.270071 21.00437836 59.627736 10.25985384 67.3941569 C 19.929926 66.16788009999999 30.674450520000004 64.737225 40.3445236 63.306567799999996" />
<path class="stroke" d="M 37.1211656 58.4014571 C 39.807296040000004 60.6496338 40.61313784 62.897807 42.22481592 66.78102200000001" />
<path class="stroke" d="M 26.376642 65.96350179999999 L 26.376642 90.69342799999998" />
<path class="stroke" d="M 18.04963276 73.525543 C 16.437955600000002 77.613137 14.55766236 80.270071 10.79707864 83.131384" />
<path class="stroke" d="M 33.3605828 73.729922 C 36.315325640000005 75.9781022 36.363242 76.16756699999999 37.855132399999995 78.210811" />
<path class="stroke" d="M 58.25182385 34.8978091 C 57.448904150000004 41.8467147 52.310218400000004 49.204379 49.2591231 50.839414500000004" />
<path class="stroke" d="M 55.843064749999996 45.5255465 L 55.843064749999996 91.306565" />
<path class="stroke" d="M 74.95255185 35.1021895 C 73.98904865 39.5985394 72.2226263 43.481750899999994 69.6532837 45.7299255" />
<path class="stroke" d="M 55.843064749999996 45.334407999999996 L 85.551092 45.334407999999996" />
<path class="stroke" d="M 70.4562045 45.7299255 L 70.4562045 91.306565" />
<path class="stroke" d="M 55.843064749999996 61.454294999999995 L 83.46350100000001 61.454294999999995" />
<path class="stroke" d="M 55.843064749999996 76.3868588 L 83.62408450000001 76.3868588" />
<path class="stroke" d="M 55.843064749999996 91.306565 L 88.7627708 91.306565" />
</svg>
