<?xml version="1.0" standalone="no"?>
<!DOCTYPE svg PUBLIC "-//W3C//DTD SVG 1.1//EN" "http://www.w3.org/Graphics/SVG/1.1/DTD/svg11.dtd">
<svg xmlns="http://www.w3.org/2000/svg" version="1.1" width="100%" height="100%">
<style type="text/css"><![CDATA[
  .stroke { fill:none; stroke:black; stroke-width:2 }
]]></style>
<path class="stroke" d="M 14.22773704 9.854013 L 14.2040272 55.63759 C 11.19194604 80.20134 11.19194604 79.39597 7.82550296 89.865776" />
<path class="stroke" d="M 14.22773704 9.854013 L 32.2131392 9.854013 L 32.2131392 86.05839 C 32.2131392 88.39416 31.699267600000002 90.43795 30.414596959999997 90.43795 L 29.0014604 90.43795" />
<path class="stroke" d="M 14.22773704 31.862577 L 32.2131392 31.862577" />
<path class="stroke" d="M 14.22773704 55.110336 L 32.2131392 55.110336" />
<path class="stroke" d="M 41.25394055 8.841123947368422 C 45.35492705 13.90496605263158 48.02051205 18.22180815789474 50.48108705 23.78380894736842" />
<path class="stroke" d="M 57.4527355 6.5996999999999995 C 61.3486405 11.414605263157895 63.6040755 15.482289473684212 66.4747355 21.791447368421053" />
<path class="stroke" d="M 90.260231 5.852557894736842 C 87.594646 12.493768421052632 84.10882600000001 18.387900000000002 79.80283600000001 24.281952631578946" />
<path class="stroke" d="M 40.433753 30.7965325 L 40.433753 94.913275 L 94.56626 94.913275" />
<path class="stroke" d="M 94.56626 30.3233425 L 94.56626 94.913275" />
<path class="stroke" d="M 86.0321136 34.837591 C 81.3270405 51.368320000000004 64.0073745 74.4598 49.233575915 83.01277" />
<path class="stroke" d="M 55.875911615 40.0930642 C 64.3901205 45.75316 77.64304200000001 62.851 84.867532 76.35256" />
</svg>
