<?xml version="1.0" standalone="no"?>
<!DOCTYPE svg PUBLIC "-//W3C//DTD SVG 1.1//EN" "http://www.w3.org/Graphics/SVG/1.1/DTD/svg11.dtd">
<svg xmlns="http://www.w3.org/2000/svg" version="1.1" width="100%" height="100%">
<style type="text/css"><![CDATA[
  .stroke { fill:none; stroke:black; stroke-width:2 }
]]></style>
<path class="stroke" d="M 11.929092571428571 27.956203 L 37.95620342857143 27.956203" />
<path class="stroke" d="M 27.278411428571427 9.270073 L 27.278411428571427 90.14598" />
<path class="stroke" d="M 27.278411428571427 36.131386 C 22.940559999999998 44.598537 17.601667428571428 52.48175 9.927006857142857 56.861313" />
<path class="stroke" d="M 27.278411428571427 36.131386 C 32.283626285714284 37.299267 35.620435428571426 42.26277 37.28884 46.934303" />
<path class="stroke" d="M 65.8832098 12.81605692 C 61.854012999999995 21.487591000000002 55.021896999999996 30.5445235 48.0145972 36.325546" />
<path class="stroke" d="M 63.781019799999996 17.82627664 L 79.372264 17.82627664 C 73.06569400000001 33.62773462 59.576640999999995 51.9343018 46.087591 61.9547386" />
<path class="stroke" d="M 57.124087599999996 27.26861284 C 64.0 41.25806524 78.14598219999999 54.4394143 93.036496 61.9547386" />
<path class="stroke" d="M 58.045985110000004 58.98175125 L 58.045985110000004 86.3102175" />
<path class="stroke" d="M 58.045985110000004 58.98175125 L 79.050364 58.98175125 L 79.050364 86.04744450000001" />
<path class="stroke" d="M 58.045985110000004 84.2080272 L 79.050364 84.2080272" />
</svg>
