<?xml version="1.0" standalone="no"?>
<!DOCTYPE svg PUBLIC "-//W3C//DTD SVG 1.1//EN" "http://www.w3.org/Graphics/SVG/1.1/DTD/svg11.dtd">
<svg xmlns="http://www.w3.org/2000/svg" version="1.1" width="100%" height="100%">
<style type="text/css"><![CDATA[
  .stroke { fill:none; stroke:black; stroke-width:2 }
]]></style>
<path class="stroke" d="M 8.003300000000001 33.069305 L 25.825083333333335 30.9901" />
<path class="stroke" d="M 19.389438333333334 9.60396 L 19.389438333333334 84.15842 C 19.389438333333334 87.42574 17.161715833333336 90.09901 14.191419166666668 90.09901" />
<path class="stroke" d="M 8.498349166666667 63.36634 L 24.09241 46.435642" />
<path class="stroke" d="M 71.41089025 15.45940652 C 60.717823 18.46534616 53.1435655 19.2495058 39.178830250000004 20.31094772" />
<path class="stroke" d="M 38.84071 7.3564356 L 38.84071 36.370295199999994 C 38.84071 40.16039536 43.341583 42.251486560000004 49.5792085 42.251486560000004 L 82.3267345 42.251486560000004 C 85.2227725 42.251486560000004 86.782177 41.5980188 86.782177 39.8990116 L 86.782177 38.7227728" />
<path class="stroke" d="M 40.906566309999995 59.1343062 L 40.906566309999995 91.5080256" />
<path class="stroke" d="M 40.906566309999995 59.1343062 L 83.84379249999999 59.1343062 L 83.84379249999999 91.5080256" />
<path class="stroke" d="M 41.156203225 74.43928292 L 83.59415815 74.43928292" />
<path class="stroke" d="M 40.906566309999995 90.09488816 L 83.84379249999999 90.09488816" />
</svg>
