<?xml version="1.0" standalone="no"?>
<!DOCTYPE svg PUBLIC "-//W3C//DTD SVG 1.1//EN" "http://www.w3.org/Graphics/SVG/1.1/DTD/svg11.dtd">
<svg xmlns="http://www.w3.org/2000/svg" version="1.1" width="100%" height="100%">
<style type="text/css"><![CDATA[
  .stroke { fill:none; stroke:black; stroke-width:2 }
]]></style>
<path class="stroke" d="M 11.313868 17.445253 C 15.401459 18.029196 19.48905 20.364962 22.408756 24.160583" />
<path class="stroke" d="M 9.270073 47.226276 C 13.357662 47.226276 18.321167 46.934303 23.86861 43.138683 C 16.27737 53.357662 14.233576 58.321167 15.109488 60.9489 C 15.69343 63.284668 20.948904 65.62044 22.116787 68.832115 C 23.576641 72.33576 18.129246 80.26506 11.021896 83.722626" />
<path class="stroke" d="M 11.021896 84.014595 C 39.692924 81.65476 40.51095 91.313866 90.43795 90.14598" />
<path class="stroke" d="M 86.62773 9.173504000000001 C 70.94948 13.547839999999999 55.05045 15.146160000000002 39.59305 15.23032" />
<path class="stroke" d="M 39.59305 15.23032 L 39.59305 51.57104 C 39.66669 60.99272 37.09041 68.64776 32.526816 74.28392000000001" />
<path class="stroke" d="M 40.61320816 24.679272 L 92.8952857 24.679272" />
<path class="stroke" d="M 40.99622653 38.264160000000004 L 92.5122856 38.264160000000004" />
<path class="stroke" d="M 46.35851416 51.84899976 L 46.16698366 77.4339816" />
<path class="stroke" d="M 46.55000812 51.84907392 L 88.10755912 51.84907392 L 88.10755912 73.8113088 C 88.10755912 75.9245052 86.57543691999999 77.35852848 85.23490612 77.4339816 L 82.93678372 77.4339816" />
<path class="stroke" d="M 66.849979294 15.849058800000002 L 66.849979294 80.83017552000001" />
</svg>
