<?xml version="1.0" standalone="no"?>
<!DOCTYPE svg PUBLIC "-//W3C//DTD SVG 1.1//EN" "http://www.w3.org/Graphics/SVG/1.1/DTD/svg11.dtd">
<svg xmlns="http://www.w3.org/2000/svg" version="1.1" width="100%" height="100%">
<style type="text/css"><![CDATA[
  .stroke { fill:none; stroke:black; stroke-width:2 }
]]></style>
<path class="stroke" d="M 25.507986486486487 15.109488 C 20.536593243243246 22.70073 15.328465135135136 27.956203 10.830536756756757 30.875912" />
<path class="stroke" d="M 26.92838756756757 35.547443 C 21.956993513513513 43.138683 14.85500027027027 49.85401 8.463207567567569 53.06569" />
<path class="stroke" d="M 19.826394324324326 45.47445 L 19.826394324324326 89.85401" />
<path class="stroke" d="M 39.1255465 7.245597794117647 C 43.44671434 10.680549264705883 46.903648020000006 15.403605882352942 49.49634902 19.911979411764708" />
<path class="stroke" d="M 84.9299222 7.245597794117647 C 83.16689144 11.496349264705882 79.5284624 16.477026470588235 75.8554724 20.126662500000002" />
<path class="stroke" d="M 32.4195592 23.4463735 L 93.580426 23.4463735" />
<path class="stroke" d="M 63.23347 23.71454 L 63.0 92.32257475" />
<path class="stroke" d="M 63.23347 54.014235 L 87.277624 54.014235" />
<path class="stroke" d="M 43.62458 52.13718 C 43.235488000000004 76.00152499999999 38.411131999999995 84.850195 30.7854838 94.503135" />
<path class="stroke" d="M 43.62458 52.13718 C 44.324916 94.77131 64.43225668 92.870965 74.69677300000001 93.967737 L 94.98109799999999 94.235045" />
</svg>
