<?xml version="1.0" standalone="no"?>
<!DOCTYPE svg PUBLIC "-//W3C//DTD SVG 1.1//EN" "http://www.w3.org/Graphics/SVG/1.1/DTD/svg11.dtd">
<svg xmlns="http://www.w3.org/2000/svg" version="1.1" width="100%" height="100%">
<style type="text/css"><![CDATA[
  .stroke { fill:none; stroke:black; stroke-width:2 }
]]></style>
<path class="stroke" d="M 44.3503634 9.71532754 C 43.824814700000005 12.59415928 40.9343054 15.134305819999998 36.992698700000005 16.65839328" />
<path class="stroke" d="M 28.846715 16.827736459999997 L 28.846715 56.284668399999994" />
<path class="stroke" d="M 28.846715 16.65839328 L 71.153285 16.65839328 L 71.153285 56.6233536" />
<path class="stroke" d="M 28.846715 29.359123079999996 L 71.153285 29.359123079999996" />
<path class="stroke" d="M 28.846715 42.9065682 L 70.890512 42.9065682" />
<path class="stroke" d="M 28.846715 55.2686128 L 71.153285 55.2686128" />
<path class="stroke" d="M 17.4453 71.162448 C 16.6042 78.05725799999999 14.5012 82.595698 10.8207 87.657702" />
<path class="stroke" d="M 33.21814 66.97318899999999 L 33.21814 89.228726 C 33.21814 91.585179 35.11094 93.15612 37.95004 93.15612 L 72.01944 93.15612 C 74.64824 93.15612 76.96164 91.323314 77.06674 88.443214 L 77.06674 83.99209" />
<path class="stroke" d="M 45.2056 66.9732056 C 50.6735 70.98791560000001 54.2487 75.2644906 57.5084 80.8501416" />
<path class="stroke" d="M 77.0667 67.23505399999999 C 83.6913 72.12242599999999 87.7923 77.01013 91.8932 83.730308" />
</svg>
