<?xml version="1.0" standalone="no"?>
<!DOCTYPE svg PUBLIC "-//W3C//DTD SVG 1.1//EN" "http://www.w3.org/Graphics/SVG/1.1/DTD/svg11.dtd">
<svg xmlns="http://www.w3.org/2000/svg" version="1.1" width="100%" height="100%">
<style type="text/css"><![CDATA[
  .stroke { fill:none; stroke:black; stroke-width:2 }
]]></style>
<path class="stroke" d="M 11.605839 38.46715 L 30.29197 35.839413" />
<path class="stroke" d="M 21.824816 15.401459 L 21.824816 71.16788" />
<path class="stroke" d="M 9.270073 74.9635 L 31.751823 68.24817" />
<path class="stroke" d="M 65.0 6.06204365 L 65.0 11.478102199999999" />
<path class="stroke" d="M 45.481750899999994 11.784671049999998 L 84.92700500000001 11.784671049999998" />
<path class="stroke" d="M 48.7518233 16.1788325 C 52.839414500000004 19.8576636 55.9051086 24.660581999999998 57.5401441 29.361313" />
<path class="stroke" d="M 81.8613095 15.361312999999999 C 76.956203 19.142335 72.8686125 24.967154 71.84671399999999 30.9963485" />
<path class="stroke" d="M 37.919707599999995 32.018246999999995 L 91.67153299999998 32.018246999999995" />
<path class="stroke" d="M 54.524115179199995 42.754087305 L 54.524115179199995 67.84371984" />
<path class="stroke" d="M 54.524115179199995 42.754087305 L 77.3034436 42.754087305 L 77.3034436 67.84371984" />
<path class="stroke" d="M 54.656554132 54.615444263 L 77.17100600799999 54.615444263" />
<path class="stroke" d="M 54.524115179199995 66.748538324 L 77.3034436 66.748538324" />
<path class="stroke" d="M 60.314597739999996 71.1070943784 L 60.314597739999996 78.8512104048 C 60.314597739999996 85.679356436 55.532116540000004 92.4242320528 43.57591228 94.17290334" />
<path class="stroke" d="M 71.16715162 71.02382481960001 L 71.16715162 90.675561336 C 71.16715162 92.75731314000001 73.55839474 94.006363652 76.13357329 94.006363652 L 90.48101500000001 94.006363652 C 92.50437969999999 94.089633496 93.9759085 93.423471892 93.9759085 92.50750075600001 L 93.9759085 90.9253720088" />
</svg>
