<?xml version="1.0" standalone="no"?>
<!DOCTYPE svg PUBLIC "-//W3C//DTD SVG 1.1//EN" "http://www.w3.org/Graphics/SVG/1.1/DTD/svg11.dtd">
<svg xmlns="http://www.w3.org/2000/svg" version="1.1" width="100%" height="100%">
<style type="text/css"><![CDATA[
  .stroke { fill:none; stroke:black; stroke-width:2 }
]]></style>
<path class="stroke" d="M 8.003300000000001 33.069305 L 25.825083333333335 30.9901" />
<path class="stroke" d="M 19.389438333333334 9.60396 L 19.389438333333334 84.15842 C 19.389438333333334 87.42574 17.161715833333336 90.09901 14.191419166666668 90.09901" />
<path class="stroke" d="M 8.498349166666667 63.36634 L 24.09241 46.435642" />
<path class="stroke" d="M 48.24452515 4.43430625 L 48.24452515 19.6167875" />
<path class="stroke" d="M 48.24452515 4.43430625 L 76.88686 4.43430625 L 76.88686 19.4708025" />
<path class="stroke" d="M 48.24452515 18.448904 L 76.88686 18.448904" />
<path class="stroke" d="M 33.4333938625 27.377736875 L 33.4333938625 44.078466250000005" />
<path class="stroke" d="M 33.4333938625 27.377736875 L 54.915144999999995 27.377736875 L 54.915144999999995 43.917882750000004" />
<path class="stroke" d="M 33.4333938625 42.793794399999996 L 54.915144999999995 42.793794399999996" />
<path class="stroke" d="M 70.1833938625 27.377736875 L 70.1833938625 44.078466250000005" />
<path class="stroke" d="M 70.1833938625 27.377736875 L 91.665145 27.377736875 L 91.665145 43.917882750000004" />
<path class="stroke" d="M 70.1833938625 42.793794399999996 L 91.665145 42.793794399999996" />
<path class="stroke" d="M 40.0547425 61.934305 L 85.1642275 61.934305" />
<path class="stroke" d="M 62.609485 54.489051 L 62.609485 95.36496" />
<path class="stroke" d="M 62.609485 64.4160575 C 55.3832125 75.656933 46.624086250000005 81.642334 35.237224749999996 84.70802499999999" />
<path class="stroke" d="M 62.609485 64.4160575 C 69.39780625 75.8029175 78.5948875 81.7883185 89.9817505 84.4160575" />
</svg>
