<?xml version="1.0" standalone="no"?>
<!DOCTYPE svg PUBLIC "-//W3C//DTD SVG 1.1//EN" "http://www.w3.org/Graphics/SVG/1.1/DTD/svg11.dtd">
<svg xmlns="http://www.w3.org/2000/svg" version="1.1" width="100%" height="100%">
<style type="text/css"><![CDATA[
  .stroke { fill:none; stroke:black; stroke-width:2 }
]]></style>
<path class="stroke" d="M 9.1605835 14.075241902399998 L 40.8394125 14.075241902399998" />
<path class="stroke" d="M 25.0 5.98573543869 L 25.0 24.620489749799997" />
<path class="stroke" d="M 4.9270065 24.620489749799997 L 44.927005 24.620489749799997" />
<path class="stroke" d="M 18.503649 27.090796808039997 L 18.503649 31.207777424879996 C 18.503649 34.8378037266 14.708029 38.42356123368 5.218978 39.353201979" />
<path class="stroke" d="M 27.116787 27.046528468259996 L 27.116787 37.49392079159999 C 27.116787 38.60063610899999 29.014599 39.26466499619999 31.0583915 39.26466499619999 L 42.44525 39.26466499619999 C 44.051095 39.308933487599994 45.218975 38.954784040199996 45.218975 38.46782911859999 L 45.218975 37.626726872279995" />
<path class="stroke" d="M 9.1605835 51.78364911999999 L 40.8394125 51.78364911999999" />
<path class="stroke" d="M 25.0 42.169634646999995 L 25.0 64.31620174" />
<path class="stroke" d="M 4.9270065 64.31620174 L 44.927005 64.31620174" />
<path class="stroke" d="M 71.131385 7.102189499999999 L 69.8175165 29.583939 C 68.357662 46.5474422 63.83235 60.39159 54.781021 63.510944" />
<path class="stroke" d="M 56.386860999999996 27.7445231 L 80.036495 21.8175167 C 79.1605835 31.423354899999996 78.4306565 45.525543 79.89051 58.401455 C 80.47445 60.6496338 81.204376 63.10218599999999 84.85401 63.10218599999999 L 92.59124 62.897807 C 94.051095 63.10218599999999 94.92700500000001 61.262768 94.92700500000001 59.218970999999996 L 94.92700500000001 55.744521" />
<path class="stroke" d="M 63.248175 34.080290999999995 C 66.3138675 34.6934294 69.525547 36.532843899999996 72.59124 40.8248169" />
<path class="stroke" d="M 18.613138 77.00729 C 18.029196 82.55474 15.69343 87.22627 11.89781 89.85401" />
<path class="stroke" d="M 35.255474 77.88321 C 38.46715 81.678825 40.218975 85.18248 41.67883 90.14598" />
<path class="stroke" d="M 59.197075 78.17518 C 62.408752 81.678825 63.868607 85.47445 65.32846 90.43795" />
<path class="stroke" d="M 81.386856 78.17518 C 84.8905 81.678825 86.9343 84.8905 88.68613 90.43795" />
</svg>
