<?xml version="1.0" standalone="no"?>
<!DOCTYPE svg PUBLIC "-//W3C//DTD SVG 1.1//EN" "http://www.w3.org/Graphics/SVG/1.1/DTD/svg11.dtd">
<svg xmlns="http://www.w3.org/2000/svg" version="1.1" width="100%" height="100%">
<style type="text/css"><![CDATA[
  .stroke { fill:none; stroke:black; stroke-width:2 }
]]></style>
<path class="stroke" d="M 27.956203 9.2381371875 L 72.62773 9.2381371875" />
<path class="stroke" d="M 13.065693 19.092151875 C 13.065693 24.2928815625 12.773722 27.8512753125 11.313868 31.68339375" />
<path class="stroke" d="M 13.357662 19.092151875 L 87.51824 19.092151875 C 87.22627 24.5666025 86.35036 27.30382875 85.18248 30.0410559375" />
<path class="stroke" d="M 50.165638 9.2381371875 L 50.165638 43.4534625" />
<path class="stroke" d="M 27.080292 25.661494687500003 C 31.45985 26.4826621875 34.37956 27.8512753125 37.299267 30.8622225" />
<path class="stroke" d="M 27.372261 35.2417875 C 30.875912 35.78923125 33.79562 37.431568125 37.007298 41.2636828125" />
<path class="stroke" d="M 60.9489 25.661494687500003 C 64.74452 26.208940312499998 67.9562 27.577554375 72.04379 30.5885015625" />
<path class="stroke" d="M 60.9489 35.515509375 C 65.03649 36.062953125 68.540146 38.5264565625 71.45985 41.2636828125" />
<path class="stroke" d="M 6.3722288 48.6388035 L 31.735028 48.6388035 C 27.655068 55.000499500000004 24.458468 57.8921795 20.126188 60.0899245" />
<path class="stroke" d="M 17.097828000000003 55.752355 C 19.0746688 58.12357 20.799188 61.015305 21.261868000000003 64.08051" />
<path class="stroke" d="M 3.0914828 64.25394700000001 L 36.908502 64.25394700000001 C 35.9831816 68.649327 34.3007416 71.30967700000001 31.86122 73.623032" />
<path class="stroke" d="M 21.387996 66.1624635 L 21.387996 91.8406985 C 21.345956 93.98052849999999 20.420596000000003 95.0793735 19.242876000000003 95.13723350000001 L 16.845436000000003 95.13723350000001" />
<path class="stroke" d="M 21.388 66.33595 C 17.939 79.05943 12.09252 87.965855 2.839116 92.534705" />
<path class="stroke" d="M 61.8019816 45.72277225 C 60.0198022 49.235148425 55.742575 53.4009895 49.148514399999996 55.769801550000004" />
<path class="stroke" d="M 55.5643564 52.829207575 L 85.683166 52.829207575" />
<path class="stroke" d="M 71.78218 52.9108911 C 69.643564 59.8539613 60.554456200000004 65.6534649 46.29703 67.6955445" />
<path class="stroke" d="M 55.5643564 54.952970425000004 C 59.4851476 59.935643999999996 78.554452 67.77722775000001 89.069308 67.77722775000001" />
<path class="stroke" d="M 52.174304824 79.63321145 L 81.0478798 78.9908758 C 80.3296336 88.1441595 78.17489008 93.04197 77.45664191200001 94.08576550000001 C 76.59474105999999 94.9689764 74.87094772 95.20985275000001 73.4344504 95.2901445 L 71.99795308 95.20985275000001" />
<path class="stroke" d="M 66.39561796 73.3704379 C 64.67182216 82.36313782500001 59.06948704 91.51642262500002 50.019561304 94.08576550000001" />
</svg>
