<?xml version="1.0" standalone="no"?>
<!DOCTYPE svg PUBLIC "-//W3C//DTD SVG 1.1//EN" "http://www.w3.org/Graphics/SVG/1.1/DTD/svg11.dtd">
<svg xmlns="http://www.w3.org/2000/svg" version="1.1" width="100%" height="100%">
<style type="text/css"><![CDATA[
  .stroke { fill:none; stroke:black; stroke-width:2 }
]]></style>
<path class="stroke" d="M 27.956203 11.2910565625 L 72.62773 11.2910565625" />
<path class="stroke" d="M 13.065693 23.334852291666664 C 13.065693 29.6912996875 12.773722 34.040447604166665 11.313868 38.724147916666666" />
<path class="stroke" d="M 13.357662 23.334852291666664 L 87.51824 23.334852291666664 C 87.22627 30.025847499999998 86.35036 33.371346249999995 85.18248 36.71684614583333" />
<path class="stroke" d="M 50.165638 11.2910565625 L 50.165638 53.109787499999996" />
<path class="stroke" d="M 27.080292 31.3640490625 C 31.45985 32.36769822916666 34.37956 34.040447604166665 37.299267 37.72049416666667" />
<path class="stroke" d="M 27.372261 43.07329583333333 C 30.875912 43.74239374999999 33.79562 45.749694375 37.007298 50.43339010416666" />
<path class="stroke" d="M 60.9489 31.3640490625 C 64.74452 32.03314927083333 67.9562 33.70589979166667 72.04379 37.38594635416666" />
<path class="stroke" d="M 60.9489 43.40784479166666 C 65.03649 44.07694270833333 68.540146 47.087891354166665 71.45985 50.43339010416666" />
<path class="stroke" d="M 6.15142 55.465295 L 93.8486 55.465295" />
<path class="stroke" d="M 49.0536 55.60727 C 49.0536 59.53469 45.899 62.752415 36.4353 64.55048000000001" />
<path class="stroke" d="M 14.3533 64.55048000000001 L 14.3533 91.947965" />
<path class="stroke" d="M 14.3533 64.55048000000001 L 83.1231 64.55048000000001 L 83.1231 89.108825 C 83.3334 91.096205 81.3355 91.94792000000001 78.0757 91.94792000000001 L 73.6594 91.94792000000001" />
<path class="stroke" d="M 36.43531 64.83439265 L 36.43531 89.81861900000001" />
<path class="stroke" d="M 59.1483 64.83439265 L 59.1483 89.81861900000001" />
</svg>
