<?xml version="1.0" standalone="no"?>
<!DOCTYPE svg PUBLIC "-//W3C//DTD SVG 1.1//EN" "http://www.w3.org/Graphics/SVG/1.1/DTD/svg11.dtd">
<svg xmlns="http://www.w3.org/2000/svg" version="1.1" width="100%" height="100%">
<style type="text/css"><![CDATA[
  .stroke { fill:none; stroke:black; stroke-width:2 }
]]></style>
<path class="stroke" d="M 6.988120370370371 13.754699999999998 L 43.966944444444444 13.754699999999998" />
<path class="stroke" d="M 25.914255555555556 6.396228 L 25.914255555555556 54.886799999999994" />
<path class="stroke" d="M 10.482162037037037 33.94338 L 40.76401388888889 33.94338" />
<path class="stroke" d="M 6.988120370370371 58.66038 L 43.67574074074074 51.11322" />
<path class="stroke" d="M 62.6642325 14.69343 L 89.08759 13.291970399999999 C 88.503645 26.4306564 87.33576500000001 34.13868479999999 85.72992500000001 44.124087599999996 C 84.85401 48.854013 83.24817300000001 56.036496 80.18248 56.036496 L 78.576641 56.036496" />
<path class="stroke" d="M 71.7153265 14.3430642 L 70.255475 25.0291944 C 67.9197065 38.6934264 63.686130500000004 47.452551 60.036495 54.810216" />
<path class="stroke" d="M 15.401459 72.8029192 L 84.8905 72.8029192" />
<path class="stroke" d="M 50.14598 61.7080292 L 50.14598 74.08759 C 50.14598 83.080292 34.812946 92.3235656 10.729925 94.40876" />
<path class="stroke" d="M 50.14598 73.9708024 C 50.14598 83.19708 65.80349 92.302368 89.56204 94.40876" />
</svg>
