<?xml version="1.0" standalone="no"?>
<!DOCTYPE svg PUBLIC "-//W3C//DTD SVG 1.1//EN" "http://www.w3.org/Graphics/SVG/1.1/DTD/svg11.dtd">
<svg xmlns="http://www.w3.org/2000/svg" version="1.1" width="100%" height="100%">
<style type="text/css"><![CDATA[
  .stroke { fill:none; stroke:black; stroke-width:2 }
]]></style>
<path class="stroke" d="M 3.578101851851852 10.8833 L 31.589574074074072 10.8833" />
<path class="stroke" d="M 16.254816666666667 10.8833 C 15.845899999999999 29.9159 12.77899259259259 42.3239 5.622737037037036 54.7319" />
<path class="stroke" d="M 14.823575925925926 30.1262 L 30.56728888888889 30.1263 C 26.750603703703703 58.202 20.275927777777778 76.4986 7.0539907407407405 94.4795" />
<path class="stroke" d="M 15.232453703703703 45.89907 C 17.617898148148146 48.52787 19.38987037037037 51.78757 20.548564814814814 55.678272" />
<path class="stroke" d="M 54.992115 6.46687 C 53.078385 22.45 48.088855 38.1177 39.4085145 48.1072" />
<path class="stroke" d="M 53.146635 22.5552 L 93.54101500000002 22.8706 L 93.33594000000001 58.2019 C 92.925855 74.1851 88.61993 92.6919 81.238205 92.9022 L 78.16247000000001 92.9022" />
<path class="stroke" d="M 57.811202973 39.9708025 L 57.811202973 76.75912" />
<path class="stroke" d="M 57.811202973 39.9708025 L 77.72302775 39.9708025 L 77.72302775 76.75912" />
<path class="stroke" d="M 57.926970267499996 57.362821499999995 L 77.60726164500001 57.362821499999995" />
<path class="stroke" d="M 57.811202973 75.15328199999999 L 77.72302775 75.15328199999999" />
</svg>
