<?xml version="1.0" standalone="no"?>
<!DOCTYPE svg PUBLIC "-//W3C//DTD SVG 1.1//EN" "http://www.w3.org/Graphics/SVG/1.1/DTD/svg11.dtd">
<svg xmlns="http://www.w3.org/2000/svg" version="1.1" width="100%" height="100%">
<style type="text/css"><![CDATA[
  .stroke { fill:none; stroke:black; stroke-width:2 }
]]></style>
<path class="stroke" d="M 23.1862 21.485796 L 46.2145 21.485796" />
<path class="stroke" d="M 22.87069 6.974762500000001 L 22.87069 44.5583472 M 6.46688 47.025226 L 44.0063 41.801235999999996" />
<path class="stroke" d="M 91.6404 17.422708 C 80.9148 21.389058000000002 71.1356 23.03365 56.3091 23.227126" />
<path class="stroke" d="M 55.9936 6.9747602 L 55.9936 43.97791 C 55.8885 45.42902600000001 57.9915 47.025226 61.3564 47.025226 L 87.224 46.880142 C 91.43 46.68662 93.428 45.477418 93.5331 43.832826000000004 L 93.5331 39.624608" />
<path class="stroke" d="M 46.05839 54.49415974 C 45.80385 57.1339373 39.71785 60.1967393 34.25295 60.2983533" />
<path class="stroke" d="M 21.532845 60.39488989 L 21.532845 92.780293" />
<path class="stroke" d="M 21.532845 60.29877395 L 79.051094 60.29877395 L 79.051094 92.780293" />
<path class="stroke" d="M 21.532845 75.55330075 L 79.051094 75.55330075" />
<path class="stroke" d="M 21.532845 91.3710732 L 79.051094 91.3710732" />
</svg>
