<?xml version="1.0" standalone="no"?>
<!DOCTYPE svg PUBLIC "-//W3C//DTD SVG 1.1//EN" "http://www.w3.org/Graphics/SVG/1.1/DTD/svg11.dtd">
<svg xmlns="http://www.w3.org/2000/svg" version="1.1" width="100%" height="100%">
<style type="text/css"><![CDATA[
  .stroke { fill:none; stroke:black; stroke-width:2 }
]]></style>
<path class="stroke" d="M 5.066944444444445 10.8833 L 29.076777777777778 10.8833" />
<path class="stroke" d="M 15.9327 10.8833 C 15.5822 29.9159 12.953422222222223 42.3239 6.8194888888888885 54.7319" />
<path class="stroke" d="M 14.705922222222224 30.1262 L 28.200533333333336 30.1263 C 24.929088888888888 58.202 19.379366666666666 76.4986 8.046277777777778 94.4795" />
<path class="stroke" d="M 15.05638888888889 45.89907 C 17.101055555555554 48.52787 18.61988888888889 51.78757 19.613055555555555 55.678272" />
<path class="stroke" d="M 42.4160575 50.729923 L 42.4160575 90.14598 L 85.94890000000001 90.14598" />
<path class="stroke" d="M 47.14540128 20.2224 L 82.85459648 20.2224" />
<path class="stroke" d="M 65.0 8.8462481184 L 65.0 33.306392064" />
<path class="stroke" d="M 51.272845986 35.848758176 L 51.272845986 78.70539776" />
<path class="stroke" d="M 51.272845986 35.848758176 L 79.967736756 35.848758176 L 79.967736756 78.5512376" />
<path class="stroke" d="M 51.272845986 48.940046144 L 79.967736756 48.940046144" />
<path class="stroke" d="M 51.272845986 63.63940352 L 79.967736756 63.63940352" />
<path class="stroke" d="M 51.272845986 77.16379088000001 L 79.967736756 77.16379088000001" />
</svg>
