<?xml version="1.0" standalone="no"?>
<!DOCTYPE svg PUBLIC "-//W3C//DTD SVG 1.1//EN" "http://www.w3.org/Graphics/SVG/1.1/DTD/svg11.dtd">
<svg xmlns="http://www.w3.org/2000/svg" version="1.1" width="100%" height="100%">
<style type="text/css"><![CDATA[
  .stroke { fill:none; stroke:black; stroke-width:2 }
]]></style>
<path class="stroke" d="M 25.0 4.804442200000004 L 25.0 19.0" />
<path class="stroke" d="M 3.75 19.0 L 46.25 19.0" />
<path class="stroke" d="M 8.343848 24.7823356 L 8.343848 55.558372 L 41.65616 55.558372" />
<path class="stroke" d="M 41.65616 24.5552044 L 41.65616 55.558372" />
<path class="stroke" d="M 36.404377600000004 26.72204368 C 33.508948000000004 34.6567936 22.850692 45.74070400000001 13.75912364 49.8461296" />
<path class="stroke" d="M 17.846714839999997 29.244670816 C 23.086228000000002 31.9615168 31.241872 40.16848 35.687712000000005 46.649228799999996" />
<path class="stroke" d="M 4.17981 65.501576 L 4.17981 93.817048" />
<path class="stroke" d="M 4.17981 65.501576 L 45.66245 65.501576 L 45.66245 89.741332 C 45.71505 92.02946400000002 44.6635 93.45950400000001 43.45425 93.388036 L 41.08835 93.388036" />
<path class="stroke" d="M 24.68455 55.419542400000005 L 24.68455 80.94640240000001 M 12.53945 86.3090932 C 19.79495 82.0189052 27.9968 79.8737772 35.5678 79.0157532" />
<path class="stroke" d="M 32.88645 74.0820132 C 35.3575 77.5141772 36.72455 81.1608132 37.30285 85.2365972" />
<path class="stroke" d="M 62.9562035 9.854013 C 62.2262765 19.781021 57.554744 30.29197 54.781021 32.627735" />
<path class="stroke" d="M 60.7664225 25.036495 L 60.7664225 90.43795" />
<path class="stroke" d="M 78.1386835 10.145985 C 77.2627715 16.569342 75.656933 22.116787 73.321167 25.328465" />
<path class="stroke" d="M 60.7664225 24.76344 L 87.77372 24.76344" />
<path class="stroke" d="M 74.051095 25.328465 L 74.051095 90.43795" />
<path class="stroke" d="M 60.7664225 47.79185 L 85.87591 47.79185" />
<path class="stroke" d="M 60.7664225 69.124084 L 86.021895 69.124084" />
<path class="stroke" d="M 60.7664225 90.43795 L 90.693428 90.43795" />
</svg>
