<?xml version="1.0" standalone="no"?>
<!DOCTYPE svg PUBLIC "-//W3C//DTD SVG 1.1//EN" "http://www.w3.org/Graphics/SVG/1.1/DTD/svg11.dtd">
<svg xmlns="http://www.w3.org/2000/svg" version="1.1" width="100%" height="100%">
<style type="text/css"><![CDATA[
  .stroke { fill:none; stroke:black; stroke-width:2 }
]]></style>
<path class="stroke" d="M 23.770715441176474 6.38321145 C 20.979818382352942 15.054743550000001 15.183339705882354 23.0839411 10.245597794117646 27.580289000000004" />
<path class="stroke" d="M 19.477026470588235 16.821166450000003 L 19.477026470588235 49.7408725" />
<path class="stroke" d="M 45.752992192 4.682627399999999 L 45.752992192 20.715327600000002" />
<path class="stroke" d="M 45.752992192 4.682627399999999 L 82.4151808 4.682627399999999 L 82.4151808 20.561167440000002" />
<path class="stroke" d="M 45.752992192 19.482042624 L 82.4151808 19.482042624" />
<path class="stroke" d="M 33.04 33.052076750000005 L 94.96 33.052076750000005" />
<path class="stroke" d="M 64.22716 23.361965 L 64.22716 51.269735" />
<path class="stroke" d="M 48.782368 39.471575 C 45.829648 43.46210000000001 41.059936 47.27921 36.290224 49.53470500000001" />
<path class="stroke" d="M 79.44479199999999 39.6451 C 84.214504 42.016315 88.30288 45.601985000000006 91.482616 49.53470500000001" />
<path class="stroke" d="M 47.79179 55.00009000000001 C 40.79208 63.554455000000004 28.910892 69.702967 16.732674 72.91089099999999" />
<path class="stroke" d="M 37.82178 64.356436 L 37.82178 90.821782 C 46.435642 89.485147 52.07921 88.14851200000001 58.019806 84.940597" />
<path class="stroke" d="M 78.514854 56.336635 C 74.35644 61.683168699999996 68.71287 65.96039350000001 62.178215 68.09901400000001" />
<path class="stroke" d="M 55.940598 62.75247400000001 C 62.47525 73.980199 75.24753 83.3366314 89.207924 88.14851200000001" />
</svg>
