<?xml version="1.0" standalone="no"?>
<!DOCTYPE svg PUBLIC "-//W3C//DTD SVG 1.1//EN" "http://www.w3.org/Graphics/SVG/1.1/DTD/svg11.dtd">
<svg xmlns="http://www.w3.org/2000/svg" version="1.1" width="100%" height="100%">
<style type="text/css"><![CDATA[
  .stroke { fill:none; stroke:black; stroke-width:2 }
]]></style>
<path class="stroke" d="M 7.3284668 20.169342399999998 L 32.671530000000004 20.169342399999998" />
<path class="stroke" d="M 20.0 7.74306519 L 20.0 36.3678798" />
<path class="stroke" d="M 3.9416052 36.3678798 L 35.941604000000005 36.3678798" />
<path class="stroke" d="M 9.148276000000001 38.47634242 C 11.419596 41.94637162 12.429036000000002 46.66556896 13.312316000000003 51.38483296" />
<path class="stroke" d="M 30.851712 38.68454338 C 28.664592 42.15459238 27.486872 46.24923238 26.561512 51.38482438" />
<path class="stroke" d="M 3.217664 51.5930722 L 36.782336 51.5930722" />
<path class="stroke" d="M 4.4794796 72.413254 L 35.01576 72.413254" />
<path class="stroke" d="M 19.747628000000002 51.801255999999995 L 19.747628000000002 96.772864" />
<path class="stroke" d="M 65.357662 10.145985 L 63.781019799999996 42.26277 C 62.0291944 66.496346 56.59882 86.2737 45.7372252 90.72992" />
<path class="stroke" d="M 47.6642332 39.635033 L 76.04379399999999 31.167881 C 74.9927002 44.890507 74.1167878 65.03649 75.868612 83.43065 C 76.56934 86.642334 77.4452512 90.14598 81.82481200000001 90.14598 L 91.109488 89.85401 C 92.861314 90.14598 93.912406 87.51824 93.912406 84.59853 L 93.912406 79.63503" />
<path class="stroke" d="M 55.89781 48.68613 C 59.576640999999995 49.562042 63.430656400000004 52.189777 67.109488 58.321167" />
</svg>
