<?xml version="1.0" standalone="no"?>
<!DOCTYPE svg PUBLIC "-//W3C//DTD SVG 1.1//EN" "http://www.w3.org/Graphics/SVG/1.1/DTD/svg11.dtd">
<svg xmlns="http://www.w3.org/2000/svg" version="1.1" width="100%" height="100%">
<style type="text/css"><![CDATA[
  .stroke { fill:none; stroke:black; stroke-width:2 }
]]></style>
<path class="stroke" d="M 25.912407 10.729925 C 21.824816 18.029196 16.27737 23.86861 11.021896 28.540146 C 15.109488 31.45985 20.07299 36.131386 24.744522 40.218975" />
<path class="stroke" d="M 37.007298 25.912407 C 30.0 34.67153 20.656933 45.18248 8.978102 56.277367 C 19.48905 54.525543 31.167881 52.48175 41.67883 50.437954" />
<path class="stroke" d="M 38.17518 43.430653 C 41.094887 46.642334 41.970802 49.85401 43.722626 55.40146" />
<path class="stroke" d="M 26.49635 54.233574 L 26.49635 89.56204" />
<path class="stroke" d="M 17.445253 65.03649 C 15.69343 70.87591 13.649633 74.67153 9.562042 78.75912" />
<path class="stroke" d="M 34.08759 65.32846 C 37.299267 68.540146 37.35135 68.81081 38.97297 71.72973" />
<path class="stroke" d="M 57.29489014 4.78905075 L 57.29489014 21.1861305" />
<path class="stroke" d="M 57.29489014 4.78905075 L 84.027736 4.78905075 L 84.027736 21.028466700000003" />
<path class="stroke" d="M 57.29489014 19.92481632 L 84.027736 19.92481632" />
<path class="stroke" d="M 59.401459599999995 36.700728840000004 L 59.369128 67.8335612 C 55.2617446 84.5369112 55.2617446 83.98925960000001 50.6711404 91.10872768" />
<path class="stroke" d="M 59.401459599999995 36.700728840000004 L 83.927008 36.700728840000004 L 83.927008 88.5197052 C 83.927008 90.1080288 83.22627399999999 91.497806 81.4744504 91.497806 L 79.547446 91.497806" />
<path class="stroke" d="M 59.401459599999995 51.666552360000004 L 83.927008 51.666552360000004" />
<path class="stroke" d="M 59.401459599999995 67.47502847999999 L 83.927008 67.47502847999999" />
</svg>
