<?xml version="1.0" standalone="no"?>
<!DOCTYPE svg PUBLIC "-//W3C//DTD SVG 1.1//EN" "http://www.w3.org/Graphics/SVG/1.1/DTD/svg11.dtd">
<svg xmlns="http://www.w3.org/2000/svg" version="1.1" width="100%" height="100%">
<style type="text/css"><![CDATA[
  .stroke { fill:none; stroke:black; stroke-width:2 }
]]></style>
<path class="stroke" d="M 44.633204000000006 7.137228 C 33.54366400000001 11.724528 19.605564 13.722428 7.113524000000001 13.722428" />
<path class="stroke" d="M 7.807580000000001 21.608887 C 11.971630000000001 25.814985 14.40065 30.021086 16.13568 35.488987" />
<path class="stroke" d="M 43.201950000000004 20.977886 C 41.69825 26.971586 38.80668 31.703386 34.52691 35.488987" />
<path class="stroke" d="M 6.766558700000001 43.37536 L 47.19248160000001 43.37536" />
<path class="stroke" d="M 25.851760000000002 13.722428 L 25.851760000000002 93.848526" />
<path class="stroke" d="M 25.504710000000003 45.2682 C 21.803320000000003 62.4081 15.673020000000003 73.2387 6.766562 83.7539" />
<path class="stroke" d="M 25.8517116 49.3691 C 34.6423627 54.7319 37.881096 61.041 42.1608616 68.9274" />
<path class="stroke" d="M 58.272875 10.2524 L 88.982675 10.2524 L 88.982675 40.2208" />
<path class="stroke" d="M 58.446345 40.2208 L 88.982675 40.2208" />
<path class="stroke" d="M 58.272875 10.2524 L 58.272875 53.7855 C 58.041545 69.2429 54.340155 84.7004 48.9037845 93.5332" />
<path class="stroke" d="M 73.19399 40.5363 C 75.16035000000001 66.1935 81.29076 84.9106 95.92274 92.9022" />
</svg>
