<?xml version="1.0" standalone="no"?>
<!DOCTYPE svg PUBLIC "-//W3C//DTD SVG 1.1//EN" "http://www.w3.org/Graphics/SVG/1.1/DTD/svg11.dtd">
<svg xmlns="http://www.w3.org/2000/svg" version="1.1" width="100%" height="100%">
<style type="text/css"><![CDATA[
  .stroke { fill:none; stroke:black; stroke-width:2 }
]]></style>
<path class="stroke" d="M 13.961809821428572 14.059406 C 16.87906607142857 16.138615 19.796323214285717 19.108912 22.183169642857145 22.673267" />
<path class="stroke" d="M 12.105374107142858 38.118813 C 14.757426785714285 39.90099 17.9398875 42.574257 20.06152857142857 46.138615" />
<path class="stroke" d="M 11.840169642857143 85.64356 C 12.434829464285714 87.422676 14.091678571428572 89.896904 16.024666964285714 89.896904 C 17.957658035714285 89.896904 20.5919375 76.73267 22.448374107142858 69.60396" />
<path class="stroke" d="M 30.263408 15.6151 L 60.626194999999996 15.6151" />
<path class="stroke" d="M 34.679813 31.072584 L 34.679813 56.940086" />
<path class="stroke" d="M 34.679813 31.072584 L 56.541022999999996 31.072584 L 56.541022999999996 56.940086" />
<path class="stroke" d="M 34.679813 56.940086 L 56.541022999999996 56.940086" />
<path class="stroke" d="M 45.720815 5.5205 L 45.720815 93.8486" />
<path class="stroke" d="M 45.720815 56.9401 C 42.923755 73.8696 37.366455 88.591 30.3738155 91.6404" />
<path class="stroke" d="M 45.720815 56.9401 C 48.73869 73.5542 53.08149 88.2755 60.736585 91.6404" />
<path class="stroke" d="M 69.41240845 9.854013 L 90.77007099999999 9.854013" />
<path class="stroke" d="M 80.2445245 9.854013 C 79.8357665 14.817516 79.01824769999999 18.905107 77.86184 22.0621" />
<path class="stroke" d="M 70.315 22.3791 L 70.315 76.715324" />
<path class="stroke" d="M 70.315 22.3791 L 89.95899499999999 22.3791 L 89.95899499999999 76.423355" />
<path class="stroke" d="M 70.425985 40.77066 L 89.95899499999999 40.77066" />
<path class="stroke" d="M 70.425985 59.79627 L 89.95899499999999 59.79627" />
<path class="stroke" d="M 70.33211639999999 76.715324 L 90.054741 76.715324" />
<path class="stroke" d="M 74.21532755 83.13868 C 72.37591165 86.9343 70.22992654999999 89.56204 67.6751817 89.85401" />
<path class="stroke" d="M 86.4781015 83.43065 C 88.624088 84.59853 90.361313 86.35036 92.40510825 90.72992" />
</svg>
