<?xml version="1.0" standalone="no"?>
<!DOCTYPE svg PUBLIC "-//W3C//DTD SVG 1.1//EN" "http://www.w3.org/Graphics/SVG/1.1/DTD/svg11.dtd">
<svg xmlns="http://www.w3.org/2000/svg" version="1.1" width="100%" height="100%">
<style type="text/css"><![CDATA[
  .stroke { fill:none; stroke:black; stroke-width:2 }
]]></style>
<path class="stroke" d="M 49.6845 4.847431779999999 C 38.46715 15.198538079999999 27.911108 23.7117978 14.18848 28.453402199999996" />
<path class="stroke" d="M 49.6845 4.847431779999999 C 60.36496 15.02919606 70.248405 23.190911399999997 84.55497 28.271203319999998" />
<path class="stroke" d="M 35.2356 24.173721399999998 L 64.45026 24.173721399999998" />
<path class="stroke" d="M 22.670155 33.0083771 L 75.13089 33.0083771 C 71.33527 40.290129199999996 60.65693 47.373718499999995 52.48175 51.776637699999995" />
<path class="stroke" d="M 20.07299 53.11021825 L 79.927 53.11021825" />
<path class="stroke" d="M 10.145985 66.645082 L 89.56204 66.645082" />
<path class="stroke" d="M 41.094887 66.5905102 C 36.131386 76.57591042 28.832115 85.06350111999998 21.240875 91.387585 C 36.131386 90.5554705 58.029198 89.39050791999999 76.715324 89.0576644" />
<path class="stroke" d="M 70.58394 83.8985374 C 74.67153 86.56131235 78.75912 90.2226247 80.21897 92.8853968" />
</svg>
