<?xml version="1.0" standalone="no"?>
<!DOCTYPE svg PUBLIC "-//W3C//DTD SVG 1.1//EN" "http://www.w3.org/Graphics/SVG/1.1/DTD/svg11.dtd">
<svg xmlns="http://www.w3.org/2000/svg" version="1.1" width="100%" height="100%">
<style type="text/css"><![CDATA[
  .stroke { fill:none; stroke:black; stroke-width:2 }
]]></style>
<path class="stroke" d="M 28.766420899999996 10.729925 C 23.656934 15.109488 17.525546499999997 18.029196 12.0072988 19.781021" />
<path class="stroke" d="M 7.715327199999999 41.094887 L 31.627735999999995 37.299267" />
<path class="stroke" d="M 21.0 16.569342 L 21.0 86.642334" />
<path class="stroke" d="M 21.0 44.890507 C 16.2992704 57.153282 12.416057499999999 65.03649 7.102189499999999 68.540146" />
<path class="stroke" d="M 21.0 44.890507 C 25.291970199999998 48.394157 27.7445231 51.313866 29.788318 56.277367" />
<path class="stroke" d="M 38.5328453 19.6167875 L 91.467147 19.6167875" />
<path class="stroke" d="M 54.270071 10.49269875 L 54.270071 29.470801249999997" />
<path class="stroke" d="M 75.729922 10.49269875 L 75.729922 29.470801249999997" />
<path class="stroke" d="M 48.1386849 29.43430585 C 47.116787099999996 33.90145945 40.5766416 38.6313865 36.6934294 39.682480749999996" />
<path class="stroke" d="M 45.0729915 36.266422750000004 L 45.0729915 65.6970775" />
<path class="stroke" d="M 69.3941569 29.56569325 C 68.16788009999999 32.4562039 65.9197062 34.95255415 62.6496338 36.39780925" />
<path class="stroke" d="M 45.0729915 36.143547999999996 L 82.883208 36.143547999999996" />
<path class="stroke" d="M 63.671533 36.39780925 L 63.671533 65.6970775" />
<path class="stroke" d="M 45.0729915 46.5063325 L 80.22627399999999 46.5063325" />
<path class="stroke" d="M 45.0729915 56.105837799999996 L 80.430653 56.105837799999996" />
<path class="stroke" d="M 45.0729915 65.6970775 L 86.97079919999999 65.6970775" />
<path class="stroke" d="M 46.702969499999995 77.75247505 L 81.425745 77.75247505 C 73.5247505 87.9665844625 60.217821199999996 92.956684 36.930693 97.32301974999999" />
<path class="stroke" d="M 45.8712869 80.0915844625 C 48.967739699999996 84.9274187875 59.8064501 88.9072582 63.419352399999994 90.685484125 C 69.967739 93.395161375 81.70967479999999 95.42741799999999 92.861386 97.32301974999999" />
</svg>
