<?xml version="1.0" standalone="no"?>
<!DOCTYPE svg PUBLIC "-//W3C//DTD SVG 1.1//EN" "http://www.w3.org/Graphics/SVG/1.1/DTD/svg11.dtd">
<svg xmlns="http://www.w3.org/2000/svg" version="1.1" width="100%" height="100%">
<style type="text/css"><![CDATA[
  .stroke { fill:none; stroke:black; stroke-width:2 }
]]></style>
<path class="stroke" d="M 27.6026 6.506302916666667 C 22.2398 16.33803875 15.9307 21.543148 7.09779 26.74816375" />
<path class="stroke" d="M 23.8171 12.868075 L 51.522842 12.609983833333333 C 39.9053 30.989291666666666 25.3944 43.616375 6.15142 50.74923333333333" />
<path class="stroke" d="M 25.7098 20.96480833333333 L 36.1199 29.929075" />
<path class="stroke" d="M 16.24603 28.19398083333333 L 27.91803 38.025689166666666" />
<path class="stroke" d="M 59.463657 12.868035583333333 L 90.693954 12.868035583333333 C 84.59515 22.31428558333333 76.80851 27.109930833333333 72.12766 31.790779166666663" />
<path class="stroke" d="M 55.95745 4.583333333333333 C 64.04256 28.670213 75.6572 41.592099999999995 93.5331 50.74914166666666" />
<path class="stroke" d="M 33.2808 44.9416445 L 68.2966 44.9416445" />
<path class="stroke" d="M 14.35331 60.159300900000005 L 86.90842 60.159300900000005" />
<path class="stroke" d="M 50.630928 60.370639 L 50.630928 91.86278300000001 C 50.630928 94.117266 48.107227 95.526276 45.89903 95.455859 L 41.798027 95.455859" />
<path class="stroke" d="M 32.6498 71.361118 C 27.1819 79.110941 19.1903 84.535797 7.72871 88.058389" />
<path class="stroke" d="M 68.6121 71.78395499999999 C 78.0759 76.151953 84.7003 81.154106 91.0095 88.058389" />
</svg>
