<?xml version="1.0" standalone="no"?>
<!DOCTYPE svg PUBLIC "-//W3C//DTD SVG 1.1//EN" "http://www.w3.org/Graphics/SVG/1.1/DTD/svg11.dtd">
<svg xmlns="http://www.w3.org/2000/svg" version="1.1" width="100%" height="100%">
<style type="text/css"><![CDATA[
  .stroke { fill:none; stroke:black; stroke-width:2 }
]]></style>
<path class="stroke" d="M 23.038319791666666 9.562042 C 26.687956250000003 11.021896 30.3375875 14.817516 32.77067708333333 19.48905" />
<path class="stroke" d="M 10.264596875 22.8707 L 44.327854166666675 22.8707" />
<path class="stroke" d="M 16.955593750000002 37.007298 L 37.63686041666667 37.007298" />
<path class="stroke" d="M 16.955593750000002 51.313866 L 37.63686041666667 51.313866" />
<path class="stroke" d="M 15.739050000000002 64.45255 L 15.739050000000002 85.76642" />
<path class="stroke" d="M 15.739050000000002 64.16058 L 39.461677083333335 64.16058 L 39.461677083333335 85.76642" />
<path class="stroke" d="M 15.739050000000002 85.76642 L 39.15754166666667 85.76642" />
<path class="stroke" d="M 55.0729925 23.17518 L 94.6350325 23.17518" />
<path class="stroke" d="M 75.000021 4.9270065 L 75.000021 44.78102" />
<path class="stroke" d="M 58.722626500000004 44.78102 L 91.131385 44.78102" />
<path class="stroke" d="M 58.284671 74.92700500000001 C 57.9927005 79.1605835 56.8248165 82.37226 55.0729925 84.56204199999999" />
<path class="stroke" d="M 63.18324 70.0831 L 65.85624 78.9833 C 68.52864 86.3823 73.25264 89.68905000000001 82.85079 89.84585 L 89.96350000000001 89.84585 C 91.423355 89.817515 92.20306500000001 88.831417 92.29926499999999 87.77372 L 92.29926499999999 86.60584" />
<path class="stroke" d="M 74.48904999999999 61.934305 C 76.678831 63.248175 78.284672 65.437956 79.59853749999999 67.9197065" />
<path class="stroke" d="M 90.25547499999999 65.0 C 92.44525 66.89780999999999 93.75912 69.233575 94.92700500000001 71.861313" />
</svg>
