<?xml version="1.0" standalone="no"?>
<!DOCTYPE svg PUBLIC "-//W3C//DTD SVG 1.1//EN" "http://www.w3.org/Graphics/SVG/1.1/DTD/svg11.dtd">
<svg xmlns="http://www.w3.org/2000/svg" version="1.1" width="100%" height="100%">
<style type="text/css"><![CDATA[
  .stroke { fill:none; stroke:black; stroke-width:2 }
]]></style>
<path class="stroke" d="M 27.747834210526314 4.59621376 L 27.747834210526314 58.38169488" />
<path class="stroke" d="M 9.152407894736841 10.854835999999999 C 13.123342105263157 13.462617999999999 16.51309210526316 16.070462 19.32175 19.851718" />
<path class="stroke" d="M 6.246882894736842 44.690839999999994 C 11.961157894736841 43.126208000000005 17.384776315789473 40.974684 21.646210526315787 38.040968" />
<path class="stroke" d="M 88.89702868 6.820682000000001 C 77.29504948 9.889989244444445 59.517820990000004 11.322332533333334 49.03861456 11.322332533333334" />
<path class="stroke" d="M 50.161385440000004 16.642465044444446 C 52.968317049999996 19.50715162222222 54.654553 22.636957777777784 55.9623763 25.850386088888893" />
<path class="stroke" d="M 64.38316861 15.619361711111111 C 67.00297132 17.870186977777777 68.6871289 20.73487355555556 69.8099023 24.418042111111113" />
<path class="stroke" d="M 87.9613867 14.391638400000001 C 86.46435801999999 19.30253026666667 84.21880870000001 22.985698822222226 81.0376237 25.645764044444444" />
<path class="stroke" d="M 43.57591228 39.75693363 L 93.24014095000001 39.75693363" />
<path class="stroke" d="M 78.3408772 34.59781009 L 78.3408772 57.587590199999994 C 78.3408772 58.4021896 77.6051065 58.9452538 75.94963282 58.9452538 L 70.98321115 58.9452538" />
<path class="stroke" d="M 53.6927005 43.19634953 C 55.9 44.01094862 57.92335714 45.187590820000004 59.578830190000005 47.17883087" />
<path class="stroke" d="M 15.401459 73.1021894 L 84.8905 73.1021894" />
<path class="stroke" d="M 50.14598 64.7810219 L 50.14598 74.0656925 C 50.14598 80.810219 34.812946 87.7426742 10.729925 89.30657" />
<path class="stroke" d="M 50.14598 73.9781018 C 50.14598 80.89780999999999 65.80349 87.726776 89.56204 89.30657" />
</svg>
