<?xml version="1.0" standalone="no"?>
<!DOCTYPE svg PUBLIC "-//W3C//DTD SVG 1.1//EN" "http://www.w3.org/Graphics/SVG/1.1/DTD/svg11.dtd">
<svg xmlns="http://www.w3.org/2000/svg" version="1.1" width="100%" height="100%">
<style type="text/css"><![CDATA[
  .stroke { fill:none; stroke:black; stroke-width:2 }
]]></style>
<path class="stroke" d="M 50.312496 7.96228675 L 50.312496 18.935521916666666" />
<path class="stroke" d="M 14.233576 18.935521916666666 L 14.233576 32.31751783333333" />
<path class="stroke" d="M 14.233576 18.935521916666666 L 86.05839 18.935521916666666 L 86.05839 32.31751783333333" />
<path class="stroke" d="M 38.46715 28.035277416666666 C 35.547443 37.402673916666664 27.956203 46.23479116666666 19.197079 49.44647125" />
<path class="stroke" d="M 60.40019 26.42943875 L 60.40019 38.56692583333333 C 60.65693 43.290752999999995 63.23729 45.8853175 67.96229 45.78888416666666 L 85.93139 45.78897583333333" />
<path class="stroke" d="M 11.67153144 72.63905045 L 39.93430576 70.05948759500001" />
<path class="stroke" d="M 26.05985088 58.74752513 L 26.05985088 88.116422 C 26.05985088 89.47408250000001 27.85839224 90.56021555000001 30.17080256 90.56021555000001 L 40.1912376 89.47408250000001" />
<path class="stroke" d="M 52.2102176 66.1007295 L 86.03211519999999 65.18978076 C 85.2846656 73.72992666 83.7897792 78.74014512 81.73430400000001 85.23065694 C 80.6131328 88.30510845 78.55766144 92.9737224 74.6335744 92.9737224 L 72.57810047999999 92.9737224" />
<path class="stroke" d="M 63.79561792 65.87299173 L 61.927008 72.81897636 C 58.93722432 81.70072716 53.518247040000006 87.39415815000001 48.8467136 92.1766404" />
</svg>
