<?xml version="1.0" standalone="no"?>
<!DOCTYPE svg PUBLIC "-//W3C//DTD SVG 1.1//EN" "http://www.w3.org/Graphics/SVG/1.1/DTD/svg11.dtd">
<svg xmlns="http://www.w3.org/2000/svg" version="1.1" width="100%" height="100%">
<style type="text/css"><![CDATA[
  .stroke { fill:none; stroke:black; stroke-width:2 }
]]></style>
<path class="stroke" d="M 8.39489052 10.145985 L 23.1481743 10.145985 L 22.605107 29.416058" />
<path class="stroke" d="M 9.7525535 29.416058 L 22.5145963 29.416058" />
<path class="stroke" d="M 9.66204311 29.416058 L 8.5759113 48.9781 L 24.234305799999998 48.9781 C 23.1481743 77.59124 19.8897798 89.270065 18.44160364 89.270065 L 17.62700703 89.270065" />
<path class="stroke" d="M 41.301259675 8.894082631578947 C 44.613594925 12.269977368421053 46.766567425 15.147872105263158 48.753954925 18.855872631578947" />
<path class="stroke" d="M 54.38490175 7.3998 C 57.53159425 10.609736842105264 59.35329175 13.321526315789473 61.671901749999996 17.527631578947368" />
<path class="stroke" d="M 80.8832635 6.901705263157894 C 78.730291 11.32917894736842 75.91482099999999 15.2586 72.436906 19.18796842105263" />
<path class="stroke" d="M 39.7870525 23.63094296 L 39.7870525 61.1388106" />
<path class="stroke" d="M 39.7870525 23.63094296 L 85.68615249999999 23.63094296 L 85.68615249999999 61.1388106" />
<path class="stroke" d="M 40.023669999999996 42.5141588 L 85.68614500000001 42.5141588" />
<path class="stroke" d="M 39.7870525 61.1388106 L 85.68615249999999 61.1388106" />
<path class="stroke" d="M 31.0331125 77.1766576 L 93.9668875 77.1766576" />
<path class="stroke" d="M 62.736625000000004 24.1482662 L 62.736625000000004 94.50786599999999" />
</svg>
