<?xml version="1.0" standalone="no"?>
<!DOCTYPE svg PUBLIC "-//W3C//DTD SVG 1.1//EN" "http://www.w3.org/Graphics/SVG/1.1/DTD/svg11.dtd">
<svg xmlns="http://www.w3.org/2000/svg" version="1.1" width="100%" height="100%">
<style type="text/css"><![CDATA[
  .stroke { fill:none; stroke:black; stroke-width:2 }
]]></style>
<path class="stroke" d="M 17.76438511627907 13.941605 C 20.616192441860466 17.153284 22.042098139534883 21.240875 22.75504895348837 25.912407" />
<path class="stroke" d="M 10.159564360465117 29.416058 L 31.072820930232556 27.66423 C 26.795107906976746 39.927006 16.813782674418604 50.729923 8.25835988372093 57.44525" />
<path class="stroke" d="M 22.042098139534883 45.18248 L 22.042098139534883 89.56204" />
<path class="stroke" d="M 24.65625465116279 44.014595 C 27.983362790697672 46.642334 29.64691686046512 50.14598 31.072820930232556 54.233574" />
<path class="stroke" d="M 42.649209288 8.894082631578947 C 45.829051128 12.269977368421053 47.895904728 15.147872105263158 49.803796727999995 18.855872631578947" />
<path class="stroke" d="M 55.20950567999999 7.3998 C 58.23033047999999 10.609736842105264 59.97916008 13.321526315789473 62.20502568 17.527631578947368" />
<path class="stroke" d="M 80.64793295999999 6.901705263157894 C 78.58107935999999 11.32917894736842 75.87822815999999 15.2586 72.53942975999999 19.18796842105263" />
<path class="stroke" d="M 41.195570399999994 23.63094296 L 41.195570399999994 61.1388106" />
<path class="stroke" d="M 41.195570399999994 23.63094296 L 85.2587064 23.63094296 L 85.2587064 61.1388106" />
<path class="stroke" d="M 41.4227232 42.5141588 L 85.2586992 42.5141588" />
<path class="stroke" d="M 41.195570399999994 61.1388106 L 85.2587064 61.1388106" />
<path class="stroke" d="M 32.791788 77.1766576 L 93.208212 77.1766576" />
<path class="stroke" d="M 63.22716 24.1482662 L 63.22716 94.50786599999999" />
</svg>
