<?xml version="1.0" standalone="no"?>
<!DOCTYPE svg PUBLIC "-//W3C//DTD SVG 1.1//EN" "http://www.w3.org/Graphics/SVG/1.1/DTD/svg11.dtd">
<svg xmlns="http://www.w3.org/2000/svg" version="1.1" width="100%" height="100%">
<style type="text/css"><![CDATA[
  .stroke { fill:none; stroke:black; stroke-width:2 }
]]></style>
<path class="stroke" d="M 54.10092 6.46688 L 54.10092 14.66882" />
<path class="stroke" d="M 18.7697 14.98422 L 93.8486 14.98422" />
<path class="stroke" d="M 18.7697 15.2997 L 18.7697 59.7792 C 19.0852 71.2408 14.6687 79.2323 6.46688 87.5394" />
<path class="stroke" d="M 5.83596 25.07884 C 8.78023 28.65404 10.4627 32.22924 11.8297 36.43534" />
<path class="stroke" d="M 6.15141 58.20189 C 8.14931 57.04519 10.4627 54.62679 12.1451 52.20829" />
<path class="stroke" d="M 38.5145955 25.908531028125 L 77.72627359999998 25.908531028125 C 71.02554849999999 32.633895412499996 66.310216 34.377508021875 58.12043455 36.61929615" />
<path class="stroke" d="M 54.1496315 33.3811578375 C 57.127735699999995 35.872033725 59.1131368 38.113821853125 60.3540127 41.351960165625" />
<path class="stroke" d="M 36.281020749999996 42.8700427872 L 36.281020749999996 73.04066954880001 C 36.281020749999996 78.287733168 34.7919712 82.3870032 30.8211673 86.1583347744" />
<path class="stroke" d="M 36.281020749999996 42.8700427872 L 84.9233545 42.8700427872 L 84.9233545 85.994362176 C 84.9233545 86.978189904 83.9306565 88.125982368 81.945252 88.125982368 L 80.2080254 88.125982368" />
<path class="stroke" d="M 36.281020749999996 55.658993423999995 L 84.9233545 55.658993423999995" />
<path class="stroke" d="M 36.281020749999996 68.946056304 L 84.9233545 68.946056304" />
<path class="stroke" d="M 60.181398949999995 43.197985176 L 60.181398949999995 85.666421472" />
</svg>
