<?xml version="1.0" standalone="no"?>
<!DOCTYPE svg PUBLIC "-//W3C//DTD SVG 1.1//EN" "http://www.w3.org/Graphics/SVG/1.1/DTD/svg11.dtd">
<svg xmlns="http://www.w3.org/2000/svg" version="1.1" width="100%" height="100%">
<style type="text/css"><![CDATA[
  .stroke { fill:none; stroke:black; stroke-width:2 }
]]></style>
<path class="stroke" d="M 20.1386849 10.729925 C 17.277371199999997 18.029196 13.394159 23.86861 9.715327199999999 28.540146 C 12.5766416 31.45985 16.051093 36.131386 19.321165399999998 40.218975" />
<path class="stroke" d="M 27.9051086 25.912407 C 23.0 34.67153 16.459853099999997 45.18248 8.2846714 56.277367 C 15.642335 54.525543 23.8175167 52.48175 31.175180999999995 50.437954" />
<path class="stroke" d="M 28.722625999999998 43.430653 C 30.766420899999996 46.642334 31.379561399999996 49.85401 32.605838199999994 55.40146" />
<path class="stroke" d="M 20.547445 54.233574 L 20.547445 89.56204" />
<path class="stroke" d="M 14.2116771 65.03649 C 12.985401 70.87591 11.5547431 74.67153 8.6934294 78.75912" />
<path class="stroke" d="M 25.861313 65.32846 C 28.1094869 68.540146 28.145944999999998 68.81081 29.281078999999995 71.72973" />
<path class="stroke" d="M 38.811678 10.145985 L 38.811678 90.43795" />
<path class="stroke" d="M 38.811678 10.145985 L 85.188322 10.145985 L 85.188322 86.05839 C 85.188322 88.68613 84.5226228 90.14598 82.5255404 90.14598 L 80.3065646 90.14598" />
<path class="stroke" d="M 48.134160050000006 21.95577388235294 C 50.575035938 25.253327294117646 52.527736314 29.78746164705882 53.992262014000005 34.11550023529412" />
<path class="stroke" d="M 74.00744254 21.95577388235294 C 73.011568408 26.036495294117643 70.95634768 30.817945411764704 68.88160468000001 34.321596" />
<path class="stroke" d="M 44.716933556 36.2 L 78.5230631 36.2" />
<path class="stroke" d="M 62.01559102 39.78706447 L 62.01559102 45.19713928" />
<path class="stroke" d="M 43.95061750000001 45.8154742 L 79.81685670000002 45.8154742" />
<path class="stroke" d="M 48.829450800000004 45.970029999999994 L 48.829450800000004 76.343905 C 48.653639999999996 78.58521399999998 49.6645312 80.671928 51.7303708 80.74920099999999 L 78.2345386 80.74920099999999" />
</svg>
