<?xml version="1.0" standalone="no"?>
<!DOCTYPE svg PUBLIC "-//W3C//DTD SVG 1.1//EN" "http://www.w3.org/Graphics/SVG/1.1/DTD/svg11.dtd">
<svg xmlns="http://www.w3.org/2000/svg" version="1.1" width="100%" height="100%">
<style type="text/css"><![CDATA[
  .stroke { fill:none; stroke:black; stroke-width:2 }
]]></style>
<path class="stroke" d="M 40.958976 8.003153999999999 L 13.854864 14.400636" />
<path class="stroke" d="M 13.854864 14.400636 L 13.854864 48.520488 M 3.5583599999999995 51.637212000000005 L 40.201872 42.451048" />
<path class="stroke" d="M 28.239743999999998 28.835992 C 35.70979199999999 34.085184 41.05992 41.794964 44.593056 50.981076" />
<path class="stroke" d="M 64.1576632 13.134306 L 89.52408639999999 11.91970768 C 88.9634992 23.30656888 87.8423344 29.98686016 86.30072799999999 38.64087592 C 85.4598496 42.7401446 83.91824608 48.9649632 80.9751808 48.9649632 L 79.43357535999999 48.9649632" />
<path class="stroke" d="M 72.84671344 12.830655640000002 L 71.445256 22.091968480000002 C 69.20291824 33.934302880000004 65.13868528 41.525544200000006 61.635035200000004 47.9021872" />
<path class="stroke" d="M 15.1824812 60.73284586 L 15.1824812 91.6350334" />
<path class="stroke" d="M 15.1824812 60.61021804 L 85.08028639999999 60.61021804 L 85.08028639999999 91.6350334" />
<path class="stroke" d="M 50.131382 60.73284586 L 50.131382 89.427736" />
<path class="stroke" d="M 15.1824812 75.01071436000001 L 84.554744 75.01071436000001" />
<path class="stroke" d="M 15.1824812 89.427736 L 85.08028639999999 89.427736" />
</svg>
