<?xml version="1.0" standalone="no"?>
<!DOCTYPE svg PUBLIC "-//W3C//DTD SVG 1.1//EN" "http://www.w3.org/Graphics/SVG/1.1/DTD/svg11.dtd">
<svg xmlns="http://www.w3.org/2000/svg" version="1.1" width="100%" height="100%">
<style type="text/css"><![CDATA[
  .stroke { fill:none; stroke:black; stroke-width:2 }
]]></style>
<path class="stroke" d="M 10.961809821428572 14.059406 C 13.879066071428571 16.138615 16.796323214285717 19.108912 19.183169642857145 22.673267" />
<path class="stroke" d="M 9.105374107142858 38.118813 C 11.757426785714285 39.90099 14.939887500000001 42.574257 17.06152857142857 46.138615" />
<path class="stroke" d="M 8.840169642857143 85.64356 C 9.434829464285714 87.422676 11.091678571428572 89.896904 13.024666964285714 89.896904 C 14.957658035714285 89.896904 17.5919375 76.73267 19.448374107142858 69.60396" />
<path class="stroke" d="M 32.60948875 14.525547 L 92.3905075 14.525547" />
<path class="stroke" d="M 78.37591 14.817516 L 78.37591 83.43065 C 78.37591 86.05839 76.843063 88.39416 74.21533 88.39416 L 72.0255475 88.39416" />
<path class="stroke" d="M 44.7463501 31.09489 L 44.7463501 55.38686" />
<path class="stroke" d="M 44.7463501 31.09489 L 63.84124 31.09489 L 63.84124 55.153284" />
<path class="stroke" d="M 44.7463501 53.518246399999995 L 63.84124 53.518246399999995" />
</svg>
