<?xml version="1.0" standalone="no"?>
<!DOCTYPE svg PUBLIC "-//W3C//DTD SVG 1.1//EN" "http://www.w3.org/Graphics/SVG/1.1/DTD/svg11.dtd">
<svg xmlns="http://www.w3.org/2000/svg" version="1.1" width="100%" height="100%">
<style type="text/css"><![CDATA[
  .stroke { fill:none; stroke:black; stroke-width:2 }
]]></style>
<path class="stroke" d="M 36.52997 5.8753923 C 34.46903 10.5105 29.095689999999998 15.054132999999998 19.747631 17.951088" />
<path class="stroke" d="M 34.54253 10.541008 L 78.04417000000001 10.632473999999998 L 77.82332 20.878550999999998 C 77.38168999999999 25.513679 72.74454 30.880651 64.79499 30.941637999999998 L 61.48266 30.941637999999998" />
<path class="stroke" d="M 15.07883 31.559959 L 85.20503 31.559959 L 85.20503 67.143518" />
<path class="stroke" d="M 14.794970000000001 48.758654899999996 L 85.20503 48.758654899999996" />
<path class="stroke" d="M 15.07883 67.143518 L 85.20503 67.143518" />
<path class="stroke" d="M 17.4453 77.569392 C 16.6042 82.304382 14.5012 85.421142 10.8207 88.897458" />
<path class="stroke" d="M 33.21814 74.692431 L 33.21814 89.97635399999999 C 33.21814 91.594641 35.11094 92.67348 37.95004 92.67348 L 72.01944 92.67348 C 74.64824 92.67348 76.96164 91.414806 77.06674 89.436906 L 77.06674 86.38011" />
<path class="stroke" d="M 45.2056 74.6924424 C 50.6735 77.4495324 54.2487 80.3864574 57.5084 84.2223864" />
<path class="stroke" d="M 77.0667 74.872266 C 83.6913 78.22865399999999 87.7923 81.58527 91.8932 86.20033199999999" />
</svg>
