<?xml version="1.0" standalone="no"?>
<!DOCTYPE svg PUBLIC "-//W3C//DTD SVG 1.1//EN" "http://www.w3.org/Graphics/SVG/1.1/DTD/svg11.dtd">
<svg xmlns="http://www.w3.org/2000/svg" version="1.1" width="100%" height="100%">
<style type="text/css"><![CDATA[
  .stroke { fill:none; stroke:black; stroke-width:2 }
]]></style>
<path class="stroke" d="M 27.94635 5.835962 C 27.57835 9.831762 26.7371 13.196672 24.47635 15.930572" />
<path class="stroke" d="M 14.5394 15.930615 L 14.5394 66.719215 C 14.48685 79.02212 12.22605 87.224014 6.02206 93.21771" />
<path class="stroke" d="M 14.5394 15.930615 L 39.93375 15.930615 L 39.93375 87.53941 C 39.98635 91.32491 39.09255 92.902214 37.72555 92.902214 L 35.3596 92.902214" />
<path class="stroke" d="M 24.00315 26.97159 C 26.89485 29.49519 28.6824 33.59619 30.3123 39.27439" />
<path class="stroke" d="M 27.41096 59.69863 L 27.41096 81.39726" />
<path class="stroke" d="M 5.23344 49.6845 L 48.4511 49.6845" />
<path class="stroke" d="M 65.77919671000001 18.146773636 C 65.129561235 29.35062651 61.751459435 39.861457414 55.385035785 48.293226364" />
<path class="stroke" d="M 79.68590595 18.3681964944 C 85.13831918 26.4630349024 88.64634584999999 37.55138484 90.725178925 48.524233028" />
<path class="stroke" d="M 59.469707645 58.88867091 L 59.469707645 88.50058234000001" />
<path class="stroke" d="M 59.469707645 58.88867091 L 87.157298 58.88867091 L 87.157298 88.21585319600001" />
<path class="stroke" d="M 59.469707645 86.2227423616 L 87.157298 86.2227423616" />
</svg>
