<?xml version="1.0" standalone="no"?>
<!DOCTYPE svg PUBLIC "-//W3C//DTD SVG 1.1//EN" "http://www.w3.org/Graphics/SVG/1.1/DTD/svg11.dtd">
<svg xmlns="http://www.w3.org/2000/svg" version="1.1" width="100%" height="100%">
<style type="text/css"><![CDATA[
  .stroke { fill:none; stroke:black; stroke-width:2 }
]]></style>
<path class="stroke" d="M 14.031116571428571 14.059406 C 17.76520457142857 16.138615 21.499293714285713 19.108912 24.554457142857142 22.673267" />
<path class="stroke" d="M 11.654878857142856 38.118813 C 15.049506285714283 39.90099 19.123056 42.574257 21.838756571428572 46.138615" />
<path class="stroke" d="M 11.315417142857143 85.64356 C 12.076581714285714 87.422676 14.19734857142857 89.896904 16.671573714285714 89.896904 C 19.145802285714282 89.896904 22.51768 76.73267 24.893918857142854 69.60396" />
<path class="stroke" d="M 39.178830250000004 9.854013 L 92.60948499999999 9.854013" />
<path class="stroke" d="M 38.9598535 9.854013 L 38.9598535 31.167881 C 38.9598535 74.67153 36.113137 81.386856 32.64851425 90.09901" />
<path class="stroke" d="M 52.7560214275 34.160758368 L 86.4939743125 34.160758368" />
<path class="stroke" d="M 69.625 20.0471235158 L 69.625 52.558886636" />
<path class="stroke" d="M 48.2472619225 52.558886636 L 90.847260325 52.558886636" />
<path class="stroke" d="M 52.7560214275 71.5907292 L 86.4939743125 71.5907292" />
<path class="stroke" d="M 69.625 58.0199264575 L 69.625 89.28123715" />
<path class="stroke" d="M 48.2472619225 89.28123715 L 90.847260325 89.28123715" />
</svg>
