<?xml version="1.0" standalone="no"?>
<!DOCTYPE svg PUBLIC "-//W3C//DTD SVG 1.1//EN" "http://www.w3.org/Graphics/SVG/1.1/DTD/svg11.dtd">
<svg xmlns="http://www.w3.org/2000/svg" version="1.1" width="100%" height="100%">
<style type="text/css"><![CDATA[
  .stroke { fill:none; stroke:black; stroke-width:2 }
]]></style>
<path class="stroke" d="M 8.946819428571429 27.956203 L 28.46715257142857 27.956203" />
<path class="stroke" d="M 20.45880857142857 9.270073 L 20.45880857142857 90.14598" />
<path class="stroke" d="M 20.45880857142857 36.131386 C 17.20542 44.598537 13.20125057142857 52.48175 7.4452551428571425 56.861313" />
<path class="stroke" d="M 20.45880857142857 36.131386 C 24.212719714285715 37.299267 26.71532657142857 42.26277 27.96663 46.934303" />
<path class="stroke" d="M 43.584158699999996 16.33094367816092 L 86.415842 16.33094367816092" />
<path class="stroke" d="M 47.5346521 28.28041356321839 L 82.46534299999999 28.28041356321839" />
<path class="stroke" d="M 39.4257429 40.946854022988504 L 90.574255 40.946854022988504" />
<path class="stroke" d="M 64.792079 7.966313793103448 C 64.70558 35.99963218390805 52.486869999999996 55.37426436781609 36.722772 65.08478505747127" />
<path class="stroke" d="M 68.735851 28.128389655172413 C 73.15229099999999 45.218688505747124 79.35328999999999 54.612793103448276 92.861386 65.56276114942528" />
<path class="stroke" d="M 47.37854356 63.564655 L 82.77604360000001 63.564655" />
<path class="stroke" d="M 43.97791612 83.75398 L 86.33124839999999 83.75398" />
<path class="stroke" d="M 65.15455286 51.5773 L 65.15455286 94.795" />
</svg>
