<?xml version="1.0" standalone="no"?>
<!DOCTYPE svg PUBLIC "-//W3C//DTD SVG 1.1//EN" "http://www.w3.org/Graphics/SVG/1.1/DTD/svg11.dtd">
<svg xmlns="http://www.w3.org/2000/svg" version="1.1" width="100%" height="100%">
<style type="text/css"><![CDATA[
  .stroke { fill:none; stroke:black; stroke-width:2 }
]]></style>
<path class="stroke" d="M 28.055337465116278 11.89781 C 27.30164660465116 30.875912 22.528261976744183 45.47445 18.00610906976744 55.693428 C 26.79918488372093 60.9489 34.33610553488372 70.0 40.11441102325581 81.386856" />
<path class="stroke" d="M 39.100161860465114 26.831684 C 37.31107418604651 53.564358 30.065183488372092 69.70802 17.754879930232555 79.34306" />
<path class="stroke" d="M 12.730266162790697 33.79562 L 40.633663 29.80198" />
<path class="stroke" d="M 65.537847 7.0978 L 65.537847 15.9306" />
<path class="stroke" d="M 50.72083415 16.246 L 79.97002975999999 16.246 L 79.97002975999999 54.7318" />
<path class="stroke" d="M 50.72080731 36.4353 L 79.9700017 36.4353" />
<path class="stroke" d="M 50.72083415 54.7318 L 79.97002975999999 54.7318" />
<path class="stroke" d="M 50.72083415 16.246 L 50.72083415 91.0094 M 42.0615273 93.5331 C 50.143581999999995 91.9557 56.878530999999995 89.4322 64.190906 84.0695" />
<path class="stroke" d="M 84.2034505 58.51731 C 80.2907275 66.82431 75.8007615 72.29231 70.5410365 76.49851" />
<path class="stroke" d="M 57.840745 54.7318 C 60.598799 76.0778 73.748142 93.9537 92.093038 94.164" />
</svg>
