<?xml version="1.0" standalone="no"?>
<!DOCTYPE svg PUBLIC "-//W3C//DTD SVG 1.1//EN" "http://www.w3.org/Graphics/SVG/1.1/DTD/svg11.dtd">
<svg xmlns="http://www.w3.org/2000/svg" version="1.1" width="100%" height="100%">
<style type="text/css"><![CDATA[
  .stroke { fill:none; stroke:black; stroke-width:2 }
]]></style>
<path class="stroke" d="M 17.015328150000002 7.69853991 L 79.9846679 7.69853991" />
<path class="stroke" d="M 65.22262520000001 7.85328348 L 65.22262520000001 44.218244500000004 C 65.22262520000001 45.61094670000001 63.60802636 46.8489048 60.8401476 46.8489048 L 58.533576700000005 46.8489048" />
<path class="stroke" d="M 29.799488772 16.480291700000002 L 29.799488772 29.3550358" />
<path class="stroke" d="M 29.799488772 16.480291700000002 L 49.9127728 16.480291700000002 L 49.9127728 29.23124052" />
<path class="stroke" d="M 29.799488772 28.364670592 L 49.9127728 28.364670592" />
<path class="stroke" d="M 15.02992665 56.408028970000004 L 85.9700689 56.408028970000004" />
<path class="stroke" d="M 69.3394132 56.55693316 L 69.3394132 91.5496315 C 69.3394132 92.88977890000001 67.52043476 94.0810216 64.40219160000001 94.0810216 L 61.8036497 94.0810216" />
<path class="stroke" d="M 29.432335452 64.8583939 L 29.432335452 77.2472986" />
<path class="stroke" d="M 29.432335452 64.8583939 L 52.0916048 64.8583939 L 52.0916048 77.12817484" />
<path class="stroke" d="M 29.432335452 76.294305664 L 52.0916048 76.294305664" />
</svg>
