<?xml version="1.0" standalone="no"?>
<!DOCTYPE svg PUBLIC "-//W3C//DTD SVG 1.1//EN" "http://www.w3.org/Graphics/SVG/1.1/DTD/svg11.dtd">
<svg xmlns="http://www.w3.org/2000/svg" version="1.1" width="100%" height="100%">
<style type="text/css"><![CDATA[
  .stroke { fill:none; stroke:black; stroke-width:2 }
]]></style>
<path class="stroke" d="M 8.69085 22.0316 L 2.3817 38.1199" />
<path class="stroke" d="M 20.6782 22.0316 L 27.6183 38.1199" />
<path class="stroke" d="M 14.6845 7.3123 L 14.6845 93.3186" />
<path class="stroke" d="M 61.820152 6.46688 C 59.288112 13.9327 55.696104 22.0295 50.86756 27.6025 M 43.27130392 29.1798 C 54.636167359999995 27.918 70.06411136 24.7634 80.72242560000001 20.0315" />
<path class="stroke" d="M 75.422776 11.5142 C 79.956928 17.6131 82.19451999999998 21.5037 84.785472 28.8644" />
<path class="stroke" d="M 40.7810213 44.8991381748 L 89.42335 44.8991381748" />
<path class="stroke" d="M 64.607475 34.2517567422 L 64.34579539999999 34.402261908 C 61.5888328 46.696659408 53.355140899999995 51.108281766000005 34.2523362 58.78401985799999" />
<path class="stroke" d="M 70.6261688 44.9375880852 C 76.38317599999999 50.0547476184 81.09345780000001 54.5698880988 92.869163 59.085027774" />
<path class="stroke" d="M 63.868171988 57.0227736306 C 56.7682296 63.0091704294 51.38948098 65.687295237 41.277438312 69.1531052286" />
<path class="stroke" d="M 73.98021333999999 63.166707948 C 66.66512205999999 69.1531052286 57.628826483999994 74.9819673996 44.934986584 78.60531153720001" />
<path class="stroke" d="M 84.52255774 69.3106427472 C 74.84081154 77.5025551704 63.653023753999996 84.906781446 43.428936444 89.947960842" />
</svg>
