<?xml version="1.0" standalone="no"?>
<!DOCTYPE svg PUBLIC "-//W3C//DTD SVG 1.1//EN" "http://www.w3.org/Graphics/SVG/1.1/DTD/svg11.dtd">
<svg xmlns="http://www.w3.org/2000/svg" version="1.1" width="100%" height="100%">
<style type="text/css"><![CDATA[
  .stroke { fill:none; stroke:black; stroke-width:2 }
]]></style>
<path class="stroke" d="M 23.770715441176474 11.605839 C 20.979818382352942 27.372261 15.183339705882354 41.970802 10.245597794117646 50.14598" />
<path class="stroke" d="M 19.477026470588235 30.583939 L 19.477026470588235 90.43795" />
<path class="stroke" d="M 59.99996892 6.6246024 L 59.99996892 17.9811264" />
<path class="stroke" d="M 31.28708018 17.9811264 L 89.41326839999999 17.9811264" />
<path class="stroke" d="M 45.99369218 17.9811264 L 53.463695439999995 36.9086064" />
<path class="stroke" d="M 73.3059844 17.9811264 L 65.83597744 37.2870876" />
<path class="stroke" d="M 28.71924318 37.2870876 L 28.71924318 49.400603999999994" />
<path class="stroke" d="M 28.95268358 37.2870876 L 91.7476724 37.2870876 L 91.7476724 50.1576876" />
<path class="stroke" d="M 58.3659468 50.68686025 L 58.3659468 57.6503633" />
<path class="stroke" d="M 33.748904780000004 57.6503633 L 86.4671508 57.6503633" />
<path class="stroke" d="M 57.2992664 65.85182338999999 L 80.63357540000001 65.85182338999999 C 79.5532827 73.1248157 78.6890478 77.92189499 76.960578 82.25474410000001 C 74.8 87.2065659 70.9109448 91.6941607 67.4540126 91.6941607 L 63.13284476 91.6941607" />
<path class="stroke" d="M 58.3795591 57.6503633 L 56.86715228 66.93503580000001 C 55.35474324 76.8386847 49.73722564 86.5875895 41.310946279999996 89.52773535" />
</svg>
