<?xml version="1.0" standalone="no"?>
<!DOCTYPE svg PUBLIC "-//W3C//DTD SVG 1.1//EN" "http://www.w3.org/Graphics/SVG/1.1/DTD/svg11.dtd">
<svg xmlns="http://www.w3.org/2000/svg" version="1.1" width="100%" height="100%">
<style type="text/css"><![CDATA[
  .stroke { fill:none; stroke:black; stroke-width:2 }
]]></style>
<path class="stroke" d="M 9.591089772727273 12.536184 C 9.417680681818181 22.792084 8.483737499999998 28.945484 5.024838636363636 36.043682" />
<path class="stroke" d="M 11.083672727272726 24.598783 L 30.418627272727274 24.598783" />
<path class="stroke" d="M 18.498772727272726 6.83499 L 18.498772727272726 94.3662" />
<path class="stroke" d="M 5.521488636363636 64.18983 L 28.722232954545454 50.94063" />
<path class="stroke" d="M 48.7821788 8.376237900000001 C 51.48514899999999 10.5148512 52.732672199999996 12.6534654 54.8118815 16.663365" />
<path class="stroke" d="M 78.93069299999999 8.376237900000001 C 77.267325 12.1188123 75.811878 14.792079600000001 73.31683089999999 16.3960389" />
<path class="stroke" d="M 42.544554399999996 19.8712872 L 87.6633652 19.8712872" />
<path class="stroke" d="M 64.55835809999999 20.1386124 L 64.55835809999999 42.8613876" />
<path class="stroke" d="M 45.4554456 31.6336626 L 84.12871799999999 31.6336626" />
<path class="stroke" d="M 37.1386133 42.8613876 L 92.4455468 42.8613876" />
<path class="stroke" d="M 62.1293 53.39117 C 54.253389999999996 55.59935 45.93585 56.703450000000004 38.05994 57.17665" />
<path class="stroke" d="M 34.747631 65.53628499999999 L 95.9148 65.53628499999999" />
<path class="stroke" d="M 50.867525 55.914864 L 50.867525 94.2429125 C 50.720315 95.977913 49.027365 97.08201199999999 47.113564999999994 97.08201199999999 L 43.359605 97.08201199999999" />
<path class="stroke" d="M 36.072549 80.362765 C 42.844398 78.049415 52.266048 76.524715 61.246067999999994 76.10406499999999" />
<path class="stroke" d="M 71.18303 53.233435 L 71.18303 69.79495 C 71.47745 83.78020000000001 83.91693999999998 96.66145 92.82332 96.76655 L 92.82332 91.40385" />
<path class="stroke" d="M 93.26495 72.3186285 C 87.08198999999999 84.41113 76.70344 93.822277 61.68767 96.92428000000001" />
<path class="stroke" d="M 82.00318200000001 55.44164 C 84.505822 56.70347 86.125132 57.80757 87.74444199999999 59.85807" />
</svg>
