<?xml version="1.0" standalone="no"?>
<!DOCTYPE svg PUBLIC "-//W3C//DTD SVG 1.1//EN" "http://www.w3.org/Graphics/SVG/1.1/DTD/svg11.dtd">
<svg xmlns="http://www.w3.org/2000/svg" version="1.1" width="100%" height="100%">
<style type="text/css"><![CDATA[
  .stroke { fill:none; stroke:black; stroke-width:2 }
]]></style>
<path class="stroke" d="M 29.256491511627907 6.543795500000001 C 28.339840465116282 16.981751600000003 22.534372674418606 25.0109475 17.03445697674419 30.6313854 C 27.728738372093026 33.521895 36.895263488372095 38.5 43.9229323255814 44.7627708" />
<path class="stroke" d="M 42.68938604651163 14.757426200000001 C 40.513468604651166 29.460396900000003 31.700898837209305 38.339411000000005 16.728908023255816 43.638683" />
<path class="stroke" d="M 10.617891279069768 18.587591 L 44.554455000000004 16.391089" />
<path class="stroke" d="M 55.8396033 8.386138200000001 L 84.609903 8.386138200000001 C 78.0633647 29.78712935 67.03762327999999 40.242576 47.7425742 49.391089" />
<path class="stroke" d="M 55.150494859999995 13.28712935 C 57.71612718 23.41935365 66.69677294 31.758064800000003 69.69032056 35.48387150000001 C 75.1161266 41.16129050000001 84.84515912 45.419352 94.0851484 49.391089" />
<path class="stroke" d="M 24.744522 69.9452551 L 83.43065 68.8941604 C 81.9708 83.872261 77.59124 91.88686 76.131386 93.594889 C 74.379555 95.04014319999999 70.87591 95.4343045 67.9562 95.565691 L 65.03649 95.4343045" />
<path class="stroke" d="M 53.64963 59.6970802 C 50.14598 74.41240735 38.75912 89.39050975 20.364962 93.594889" />
</svg>
