<?xml version="1.0" standalone="no"?>
<!DOCTYPE svg PUBLIC "-//W3C//DTD SVG 1.1//EN" "http://www.w3.org/Graphics/SVG/1.1/DTD/svg11.dtd">
<svg xmlns="http://www.w3.org/2000/svg" version="1.1" width="100%" height="100%">
<style type="text/css"><![CDATA[
  .stroke { fill:none; stroke:black; stroke-width:2 }
]]></style>
<path class="stroke" d="M 20.30215441860465 13.941605 C 23.561362790697675 17.153284 25.19096930232558 21.240875 26.005770232558138 25.912407" />
<path class="stroke" d="M 11.61093069767442 29.416058 L 35.511795348837204 27.66423 C 30.62298046511628 39.927006 19.215751627906975 50.729923 9.438125581395349 57.44525" />
<path class="stroke" d="M 25.19096930232558 45.18248 L 25.19096930232558 89.56204" />
<path class="stroke" d="M 28.178576744186046 44.014595 C 31.980986046511624 46.642334 33.88219069767442 50.14598 35.511795348837204 54.233574" />
<path class="stroke" d="M 45.6 10.714287 L 45.6 59.285713" />
<path class="stroke" d="M 45.35714412 10.0 L 86.1571448 10.0 L 86.1571448 59.285713" />
<path class="stroke" d="M 45.84285724 26.785717 L 85.9142828 26.785717" />
<path class="stroke" d="M 45.84285724 41.785717 L 86.1571448 41.785717" />
<path class="stroke" d="M 45.35714412 56.071426 L 85.9142828 56.428574" />
<path class="stroke" d="M 58.228572400000004 57.14286 C 56.64025152000001 74.6611 48.230654799999996 87.51824 38.50218856 90.14598" />
<path class="stroke" d="M 69.1571448 57.5 L 69.07736924 82.55474 C 69.07736924 87.81021 71.45985464 90.43795 74.6364964 90.43795 L 91.115324 90.43795 C 93.1007268 90.43795 94.29196780000001 89.270065 94.29196780000001 86.9343 L 94.29196780000001 83.43065" />
</svg>
