<?xml version="1.0" standalone="no"?>
<!DOCTYPE svg PUBLIC "-//W3C//DTD SVG 1.1//EN" "http://www.w3.org/Graphics/SVG/1.1/DTD/svg11.dtd">
<svg xmlns="http://www.w3.org/2000/svg" version="1.1" width="100%" height="100%">
<style type="text/css"><![CDATA[
  .stroke { fill:none; stroke:black; stroke-width:2 }
]]></style>
<path class="stroke" d="M 10.961809821428572 14.059406 C 13.879066071428571 16.138615 16.796323214285717 19.108912 19.183169642857145 22.673267" />
<path class="stroke" d="M 9.105374107142858 38.118813 C 11.757426785714285 39.90099 14.939887500000001 42.574257 17.06152857142857 46.138615" />
<path class="stroke" d="M 8.840169642857143 85.64356 C 9.434829464285714 87.422676 11.091678571428572 89.896904 13.024666964285714 89.896904 C 14.957658035714285 89.896904 17.5919375 76.73267 19.448374107142858 69.60396" />
<path class="stroke" d="M 42.27189625 4.781021 C 42.17644375 7.589295 39.89419375 10.847595 37.84485625 10.955695" />
<path class="stroke" d="M 33.074816874999996 11.0583935 L 33.074816874999996 45.51095" />
<path class="stroke" d="M 33.074816874999996 10.9561425 L 54.64416025 10.9561425 L 54.64416025 45.51095" />
<path class="stroke" d="M 33.074816874999996 27.1843625 L 54.64416025 27.1843625" />
<path class="stroke" d="M 33.074816874999996 44.01178 L 54.64416025 44.01178" />
<path class="stroke" d="M 42.9219325 55.3649625 L 42.9219325 61.934305" />
<path class="stroke" d="M 30.447080125 61.934305 L 57.1624075 61.934305" />
<path class="stroke" d="M 42.381385 69.6715315 L 54.20620375 69.6715315 C 53.658758125 76.532845 53.22080125 81.0583915 52.3448875 85.145985 C 51.25 89.817515 49.279195 94.051095 47.52737125 94.051095 L 45.33759025 94.051095" />
<path class="stroke" d="M 42.928830625 61.934305 L 42.16240825 70.69343 C 41.39598475 80.036495 38.54926975 89.233575 34.27919575 92.00729749999999" />
<path class="stroke" d="M 76.1262385 9.90099 C 75.012376375 22.673267 72.339109375 37.82178 68.2178215 46.435642" />
<path class="stroke" d="M 72.22772275 35.742573 L 91.05197875 35.742573" />
<path class="stroke" d="M 82.36386250000001 36.039604 C 81.0272275 61.287132 75.346535125 82.376236 66.43564375 89.80198" />
<path class="stroke" d="M 72.22772275 43.465347 C 74.67821725 61.58416 86.5965325 90.09901 93.1683175 90.09901" />
</svg>
