<?xml version="1.0" standalone="no"?>
<!DOCTYPE svg PUBLIC "-//W3C//DTD SVG 1.1//EN" "http://www.w3.org/Graphics/SVG/1.1/DTD/svg11.dtd">
<svg xmlns="http://www.w3.org/2000/svg" version="1.1" width="100%" height="100%">
<style type="text/css"><![CDATA[
  .stroke { fill:none; stroke:black; stroke-width:2 }
]]></style>
<path class="stroke" d="M 12.46055 8.044167 L 89.74765 8.044167 L 89.74765 20.662558" />
<path class="stroke" d="M 12.46055 20.662558 L 89.74765 20.662558" />
<path class="stroke" d="M 12.14511 8.044167 L 12.14511 58.20186 C 12.25031 72.92316 10.46261 81.01996 6.15142 94.164055" />
<path class="stroke" d="M 27.43693331 40.924318 L 85.8249458 40.924318" />
<path class="stroke" d="M 43.4085179 29.952671 L 43.4085179 55.864355599999996" />
<path class="stroke" d="M 69.5914821 29.719238 L 69.5914821 55.864326" />
<path class="stroke" d="M 20.36750791 56.097796 L 93.15616565 56.097796" />
<path class="stroke" d="M 38.957369 58.232724860000005 L 38.957369 85.50987151999999 M 21.4148376 92.40099572 L 55.714488 79.76732870000001" />
<path class="stroke" d="M 83.7302167 58.519774634 C 80.15191572 64.64514757399999 75.78810938000001 68.186462714 70.11514238 71.440518734" />
<path class="stroke" d="M 56.761782 58.23263383999999 C 65.314932 75.55601534 76.48631699999999 85.1270414 92.370691 92.97514987999999" />
</svg>
