<?xml version="1.0" standalone="no"?>
<!DOCTYPE svg PUBLIC "-//W3C//DTD SVG 1.1//EN" "http://www.w3.org/Graphics/SVG/1.1/DTD/svg11.dtd">
<svg xmlns="http://www.w3.org/2000/svg" version="1.1" width="100%" height="100%">
<style type="text/css"><![CDATA[
  .stroke { fill:none; stroke:black; stroke-width:2 }
]]></style>
<path class="stroke" d="M 4.80198 27.28503 L 46.2934 27.28503" />
<path class="stroke" d="M 23.366337 7.821783 C 21.5259 41.4959 14.09185 69.4523 4.12648 84.7614" />
<path class="stroke" d="M 30.737590739999998 44.28248072 C 28.606203899999997 58.76131235 23.5204545 74.975786 17.52299204 86.55401359999999 C 26.474816695 84.723356 34.254379244999996 83.89124149999999 42.7717955 84.01296500000001" />
<path class="stroke" d="M 38.623721974999995 73.57298864 C 41.074815599999994 76.73503399999998 43.20620244 81.56131235 44.591605200000004 88.0518197" />
<path class="stroke" d="M 61.47445164 9.854013 C 60.715327560000006 19.781021 55.856933760000004 30.29197 52.97226184 32.627735" />
<path class="stroke" d="M 59.1970794 25.036495 L 59.1970794 90.43795" />
<path class="stroke" d="M 77.26423084 10.145985 C 76.35328236000001 16.569342 74.68321032 22.116787 72.25401368 25.328465" />
<path class="stroke" d="M 59.1970794 24.76344 L 87.28466879999999 24.76344" />
<path class="stroke" d="M 73.01313880000001 25.328465 L 73.01313880000001 90.43795" />
<path class="stroke" d="M 59.1970794 47.79185 L 85.3109464 47.79185" />
<path class="stroke" d="M 59.1970794 69.124084 L 85.4627708 69.124084" />
<path class="stroke" d="M 59.1970794 90.43795 L 90.32116511999999 90.43795" />
</svg>
