<?xml version="1.0" standalone="no"?>
<!DOCTYPE svg PUBLIC "-//W3C//DTD SVG 1.1//EN" "http://www.w3.org/Graphics/SVG/1.1/DTD/svg11.dtd">
<svg xmlns="http://www.w3.org/2000/svg" version="1.1" width="100%" height="100%">
<style type="text/css"><![CDATA[
  .stroke { fill:none; stroke:black; stroke-width:2 }
]]></style>
<path class="stroke" d="M 12.46055 8.044167 L 89.74765 8.044167 L 89.74765 20.662558" />
<path class="stroke" d="M 12.46055 20.662558 L 89.74765 20.662558" />
<path class="stroke" d="M 12.14511 8.044167 L 12.14511 58.20186 C 12.25031 72.92316 10.46261 81.01996 6.15142 94.164055" />
<path class="stroke" d="M 31.502188959999998 31.48613038 L 74.49780956000001 31.48613038" />
<path class="stroke" d="M 26.8504498 48.1284656 L 26.8504498 89.1795616" />
<path class="stroke" d="M 26.96496184 48.1284656 L 79.251093 48.1284656 L 79.251093 86.960582 C 79.0350352 89.62335295999999 77.5226232 91.39853816 75.3620378 91.6204346 L 73.8496332 91.6204346" />
<path class="stroke" d="M 52.9985422 31.48613038 L 52.9985422 85.85109220000001" />
<path class="stroke" d="M 34.7430641 55.4510922 C 37.76788292 56.78248072 41.008758799999995 59.66715192 44.2496332 63.43941268" />
<path class="stroke" d="M 34.7430641 70.7620408 C 37.76788292 72.53722296000001 41.008758799999995 74.97809520000001 44.033575400000004 78.7503628" />
<path class="stroke" d="M 60.2379548 55.4510922 C 63.694887 57.2262736 66.9357651 59.66715192 69.960578 63.43941268" />
<path class="stroke" d="M 60.4540126 70.54014132 C 63.694887 72.3153288 66.71970804 75.2 69.7445202 79.1941572" />
</svg>
