<?xml version="1.0" standalone="no"?>
<!DOCTYPE svg PUBLIC "-//W3C//DTD SVG 1.1//EN" "http://www.w3.org/Graphics/SVG/1.1/DTD/svg11.dtd">
<svg xmlns="http://www.w3.org/2000/svg" version="1.1" width="100%" height="100%">
<style type="text/css"><![CDATA[
  .stroke { fill:none; stroke:black; stroke-width:2 }
]]></style>
<path class="stroke" d="M 9.4306564 13.1277357 L 9.4306564 82.12043200000001" />
<path class="stroke" d="M 9.4306564 13.1277357 L 30.452554400000004 13.1277357 L 30.452554400000004 81.8722575" />
<path class="stroke" d="M 9.4306564 34.202725799999996 L 30.452554400000004 34.202725799999996" />
<path class="stroke" d="M 9.4306564 57.86646399999999 L 30.452554400000004 57.86646399999999" />
<path class="stroke" d="M 9.4306564 79.6386785 L 30.452554400000004 79.6386785" />
<path class="stroke" d="M 50.839168 9.93691 L 86.170368 9.93691 L 86.170368 48.4228" />
<path class="stroke" d="M 51.0410368 29.49524 L 85.7665408 29.49524" />
<path class="stroke" d="M 51.041024 48.4228 L 86.170368 48.4228" />
<path class="stroke" d="M 50.839168 9.93691 L 50.839168 86.9085 M 40.3406912 93.53316 C 47.676096 88.485756 55.213504 85.96206 64.769728 85.64666" />
<path class="stroke" d="M 92.22709760000001 52.8391 C 87.17973760000001 58.4121 83.14191360000001 63.0389 79.9116416 69.8738" />
<path class="stroke" d="M 69.6150784 48.7383 C 71.7013504 74.5005 79.23869440000001 87.0136 94.4479744 92.9022" />
</svg>
