<?xml version="1.0" standalone="no"?>
<!DOCTYPE svg PUBLIC "-//W3C//DTD SVG 1.1//EN" "http://www.w3.org/Graphics/SVG/1.1/DTD/svg11.dtd">
<svg xmlns="http://www.w3.org/2000/svg" version="1.1" width="100%" height="100%">
<style type="text/css"><![CDATA[
  .stroke { fill:none; stroke:black; stroke-width:2 }
]]></style>
<path class="stroke" d="M 7.651514893617021 13.7224 C 9.8888 16.98216 11.052170212765958 19.92646 11.947148936170214 23.50156" />
<path class="stroke" d="M 31.008774468085107 13.72239 C 30.292859574468086 17.1924 28.77149787234043 20.347 26.444774468085107 23.1862" />
<path class="stroke" d="M 4.966774468085107 33.91172 L 34.76735319148936 33.91172" />
<path class="stroke" d="M 19.732868085106382 5.8359594 L 19.732868085106382 94.164" />
<path class="stroke" d="M 19.7328085106383 41.798 C 18.748382978723406 54.942 12.663021276595744 66.8245 5.772187234042554 73.343796" />
<path class="stroke" d="M 20.001370212765956 44.32176 C 25.370817021276597 47.37116 29.12945531914894 51.68236 32.08264680851064 57.25546" />
<path class="stroke" d="M 51.0839393 5.0189778 L 51.0839393 31.506566400000004" />
<path class="stroke" d="M 51.0839393 5.0189778 L 83.726275 5.0189778 L 83.726275 31.506566400000004" />
<path class="stroke" d="M 51.27372175 17.541231480000004 L 83.5364945 17.541231480000004" />
<path class="stroke" d="M 51.0839393 30.35036304 L 83.726275 30.35036304" />
<path class="stroke" d="M 45.946568386 40.5 L 89.05342734999999 40.5" />
<path class="stroke" d="M 50.1350368 48.77623744 L 50.1350368 74.30218823999999" />
<path class="stroke" d="M 50.32481665 48.861226 L 84.86496059999999 48.861226 L 84.86496059999999 74.1328468" />
<path class="stroke" d="M 50.1350368 62.03468306 L 84.4854009 62.03468306" />
<path class="stroke" d="M 50.1350368 74.29335599999999 L 84.86496059999999 74.29335599999999" />
<path class="stroke" d="M 67.294925 48.77623744 L 67.294925 94.454011" />
<path class="stroke" d="M 48.80656875 84.12408339999999 L 86.193428 84.12408339999999" />
<path class="stroke" d="M 41.40510845 94.454011 L 93.97444800000001 94.454011" />
</svg>
