<?xml version="1.0" standalone="no"?>
<!DOCTYPE svg PUBLIC "-//W3C//DTD SVG 1.1//EN" "http://www.w3.org/Graphics/SVG/1.1/DTD/svg11.dtd">
<svg xmlns="http://www.w3.org/2000/svg" version="1.1" width="100%" height="100%">
<style type="text/css"><![CDATA[
  .stroke { fill:none; stroke:black; stroke-width:2 }
]]></style>
<path class="stroke" d="M 18.430655833333333 9.562042 C 21.350365 11.021896 24.27007 14.817516 26.216541666666668 19.48905" />
<path class="stroke" d="M 8.2116775 22.8707 L 35.46228333333334 22.8707" />
<path class="stroke" d="M 13.564475000000002 37.007298 L 30.109488333333335 37.007298" />
<path class="stroke" d="M 13.564475000000002 51.313866 L 30.109488333333335 51.313866" />
<path class="stroke" d="M 12.59124 64.45255 L 12.59124 85.76642" />
<path class="stroke" d="M 12.59124 64.16058 L 31.569341666666666 64.16058 L 31.569341666666666 85.76642" />
<path class="stroke" d="M 12.59124 85.76642 L 31.326033333333335 85.76642" />
<path class="stroke" d="M 49.1224374426 26.68467072 L 90.9131467 26.68467072" />
<path class="stroke" d="M 69.59276495 9.758878079999999 L 69.3679447908 9.9981312 C 66.9993200656 29.5421312 59.92540248179999 36.5551424 43.5133642724 48.7570112" />
<path class="stroke" d="M 74.76368273759999 26.745793279999997 C 79.709774352 34.88037376 83.75657931559999 42.057944320000004 93.873592326 49.235513600000004" />
<path class="stroke" d="M 57.56738051424 39.4 L 80.432617224 39.4" />
<path class="stroke" d="M 48.338549104 53.49514144 L 89.81007679999999 53.49514144" />
<path class="stroke" d="M 61.71647312 53.49514144 L 58.59491448 67.64380288000001 L 81.63470968000001 67.64380288000001 C 81.68423279999999 80.0730048 78.61229152 92.94431807999999 72.86473527999999 92.84606592 L 68.25677624 92.84606592" />
</svg>
