<?xml version="1.0" standalone="no"?>
<!DOCTYPE svg PUBLIC "-//W3C//DTD SVG 1.1//EN" "http://www.w3.org/Graphics/SVG/1.1/DTD/svg11.dtd">
<svg xmlns="http://www.w3.org/2000/svg" version="1.1" width="100%" height="100%">
<style type="text/css"><![CDATA[
  .stroke { fill:none; stroke:black; stroke-width:2 }
]]></style>
<path class="stroke" d="M 16.587590249999998 9.562042 C 19.2153285 11.021896 21.843063 14.817516 23.5948875 19.48905" />
<path class="stroke" d="M 7.39050975 22.8707 L 31.916055 22.8707" />
<path class="stroke" d="M 12.2080275 37.007298 L 27.0985395 37.007298" />
<path class="stroke" d="M 12.2080275 51.313866 L 27.0985395 51.313866" />
<path class="stroke" d="M 11.332116000000001 64.45255 L 11.332116000000001 85.76642" />
<path class="stroke" d="M 11.332116000000001 64.16058 L 28.4124075 64.16058 L 28.4124075 85.76642" />
<path class="stroke" d="M 11.332116000000001 85.76642 L 28.19343 85.76642" />
<path class="stroke" d="M 88.72079104 9.240924 C 76.93465344 13.399340266666668 58.87524672 15.3399344 48.22970368 15.3399344" />
<path class="stroke" d="M 49.37029632 22.547855866666666 C 52.221782399999995 26.42904413333333 53.934784 30.66942666666667 55.263366399999995 35.023103733333336" />
<path class="stroke" d="M 63.81782208 21.161715866666665 C 66.47920896 24.211221066666667 68.19009919999999 28.092409333333332 69.3306944 33.08250866666667" />
<path class="stroke" d="M 87.7702976 19.4983488 C 86.24950656 26.151815199999998 83.9683136 31.141914533333335 80.7366336 34.74587386666667" />
<path class="stroke" d="M 50.031552 42.47631 L 88.99680000000001 42.47631" />
<path class="stroke" d="M 40.25549696 62.581151399999996 L 96.1465984 62.581151399999996" />
<path class="stroke" d="M 68.000032 42.6971488 L 68.000032 95.031596" />
<path class="stroke" d="M 44.580416 74.05366 L 44.580416 95.25238999999999 L 90.81388799999999 95.25238999999999" />
<path class="stroke" d="M 90.81388799999999 73.61196 L 90.81388799999999 95.25238999999999" />
</svg>
