<?xml version="1.0" standalone="no"?>
<!DOCTYPE svg PUBLIC "-//W3C//DTD SVG 1.1//EN" "http://www.w3.org/Graphics/SVG/1.1/DTD/svg11.dtd">
<svg xmlns="http://www.w3.org/2000/svg" version="1.1" width="100%" height="100%">
<style type="text/css"><![CDATA[
  .stroke { fill:none; stroke:black; stroke-width:2 }
]]></style>
<path class="stroke" d="M 13.154171785714285 14.059406 C 16.654879285714284 16.138615 20.15558785714286 19.108912 23.01980357142857 22.673267" />
<path class="stroke" d="M 10.926448928571428 38.118813 C 14.108912142857141 39.90099 17.927864999999997 42.574257 20.473834285714286 46.138615" />
<path class="stroke" d="M 10.608203571428572 85.64356 C 11.321795357142857 87.422676 13.310014285714285 89.896904 15.629600357142856 89.896904 C 17.949189642857142 89.896904 21.110325 76.73267 23.33804892857143 69.60396" />
<path class="stroke" d="M 31.719229 8.044167 L 92.00316699999999 8.044167 L 92.00316699999999 20.662558" />
<path class="stroke" d="M 31.719229 20.662558 L 92.00316699999999 20.662558" />
<path class="stroke" d="M 31.473185800000003 8.044167 L 31.473185800000003 58.20186 C 31.5552418 72.92316 30.1608358 81.01996 26.7981076 94.164055" />
<path class="stroke" d="M 46.5717073888 31.48613038 L 80.1082914568 31.48613038" />
<path class="stroke" d="M 42.943350844 48.1284656 L 42.943350844 89.1795616" />
<path class="stroke" d="M 43.0326702352 48.1284656 L 83.81585254000001 48.1284656 L 83.81585254000001 86.960582 C 83.647327456 89.62335295999999 82.46764609600001 91.39853816 80.78238948399999 91.6204346 L 79.60271389600001 91.6204346" />
<path class="stroke" d="M 63.338862916000004 31.48613038 L 63.338862916000004 85.85109220000001" />
<path class="stroke" d="M 49.099589998 55.4510922 C 51.4589486776 56.78248072 53.986831863999996 59.66715192 56.514713895999996 63.43941268" />
<path class="stroke" d="M 49.099589998 70.7620408 C 51.4589486776 72.53722296000001 53.986831863999996 74.97809520000001 56.346188812 78.7503628" />
<path class="stroke" d="M 68.985604744 55.4510922 C 71.68201186 57.2262736 74.209896778 59.66715192 76.56925084 63.43941268" />
<path class="stroke" d="M 69.15412982800001 70.54014132 C 71.68201186 72.3153288 74.0413722712 75.2 76.400725756 79.1941572" />
</svg>
