<?xml version="1.0" standalone="no"?>
<!DOCTYPE svg PUBLIC "-//W3C//DTD SVG 1.1//EN" "http://www.w3.org/Graphics/SVG/1.1/DTD/svg11.dtd">
<svg xmlns="http://www.w3.org/2000/svg" version="1.1" width="100%" height="100%">
<style type="text/css"><![CDATA[
  .stroke { fill:none; stroke:black; stroke-width:2 }
]]></style>
<path class="stroke" d="M 19.405941 13.997951724137932 L 80.59406 13.997951724137932" />
<path class="stroke" d="M 25.049503 24.240354482758622 L 74.95049 24.240354482758622" />
<path class="stroke" d="M 13.465347 35.097303448275866 L 86.53465 35.097303448275866" />
<path class="stroke" d="M 49.70297 6.828268965517242 C 49.5794 30.8568275862069 32.1241 47.463655172413795 9.60396 55.78695862068966" />
<path class="stroke" d="M 55.33693 24.11004827586207 C 61.64613 38.75887586206897 70.5047 46.810965517241385 89.80198 56.19665241379311" />
<path class="stroke" d="M 50.7382 49.03786 L 50.7382 88.50151 C 50.8433 92.00305 49.0557 93.80125 45.3754 93.61198 L 42.8517 93.61198" />
<path class="stroke" d="M 22.97786 55.851742 C 28.55096 58.596112 32.23126 62.192422 35.91166 66.924172" />
<path class="stroke" d="M 11.93688 89.92108 C 21.0852 84.14821 29.2871 80.07885999999999 40.3281 76.00942" />
<path class="stroke" d="M 79.76025 56.703484 C 75.76435 61.624684 71.45315 64.842274 66.51095 67.776004" />
<path class="stroke" d="M 62.41014 75.157687 C 69.98104 81.30909700000001 78.18294 86.324887 87.01574 91.05681700000001" />
</svg>
