<?xml version="1.0" standalone="no"?>
<!DOCTYPE svg PUBLIC "-//W3C//DTD SVG 1.1//EN" "http://www.w3.org/Graphics/SVG/1.1/DTD/svg11.dtd">
<svg xmlns="http://www.w3.org/2000/svg" version="1.1" width="100%" height="100%">
<style type="text/css"><![CDATA[
  .stroke { fill:none; stroke:black; stroke-width:2 }
]]></style>
<path class="stroke" d="M 26.75504895348837 11.89781 C 26.042098139534883 30.875912 21.52673430232558 45.47445 17.249022093023257 55.693428 C 25.566796511627906 60.9489 32.696316046511626 70.0 38.16228069767442 81.386856" />
<path class="stroke" d="M 37.20285581395349 26.831684 C 35.510475581395355 53.564358 28.65625465116279 69.70802 17.011372906976746 79.34306" />
<path class="stroke" d="M 12.25835988372093 33.79562 L 38.653465000000004 29.80198" />
<path class="stroke" d="M 42.205048 4.968455 L 91.79494 4.968455 L 89.064514 10.4838705" />
<path class="stroke" d="M 67.1893 4.810725 L 67.0 45.0" />
<path class="stroke" d="M 67.1893 22.94955 L 86.68456 22.94955" />
<path class="stroke" d="M 51.2902 21.8454 C 50.97472 35.88325 47.06308 41.08835 40.880122 46.76655" />
<path class="stroke" d="M 51.2902 21.8454 C 51.85804 46.9243 67.774192 45.16129 80.3548384 46.29032 L 92.93062 46.60885" />
<path class="stroke" d="M 56.401459599999995 54.9270065 L 56.369128 77.818795 C 52.2617446 90.10067000000001 52.2617446 89.697985 47.6711404 94.93288799999999" />
<path class="stroke" d="M 56.401459599999995 54.9270065 L 80.927008 54.9270065 L 80.927008 93.029195 C 80.927008 94.19708 80.22627399999999 95.218975 78.4744504 95.218975 L 76.547446 95.218975" />
<path class="stroke" d="M 56.401459599999995 65.9312885 L 80.927008 65.9312885" />
<path class="stroke" d="M 56.401459599999995 77.555168 L 80.927008 77.555168" />
</svg>
