<?xml version="1.0" standalone="no"?>
<!DOCTYPE svg PUBLIC "-//W3C//DTD SVG 1.1//EN" "http://www.w3.org/Graphics/SVG/1.1/DTD/svg11.dtd">
<svg xmlns="http://www.w3.org/2000/svg" version="1.1" width="100%" height="100%">
<style type="text/css"><![CDATA[
  .stroke { fill:none; stroke:black; stroke-width:2 }
]]></style>
<path class="stroke" d="M 16.126823854166666 9.562042 C 18.681569375 11.021896 21.23631125 14.817516 22.93947395833333 19.48905" />
<path class="stroke" d="M 7.1852178124999995 22.8707 L 31.029497916666667 22.8707" />
<path class="stroke" d="M 11.868915625 37.007298 L 26.345802291666665 37.007298" />
<path class="stroke" d="M 11.868915625 51.313866 L 26.345802291666665 51.313866" />
<path class="stroke" d="M 11.017335 64.45255 L 11.017335 85.76642" />
<path class="stroke" d="M 11.017335 64.16058 L 27.623173958333332 64.16058 L 27.623173958333332 85.76642" />
<path class="stroke" d="M 11.017335 85.76642 L 27.410279166666665 85.76642" />
<path class="stroke" d="M 49.115803 10.272478 L 49.115803 65.85831 C 48.47820045 77.9564 44.01498585 85.47684 40.1893725 88.41962" />
<path class="stroke" d="M 49.115803 10.272478 L 87.3321175 10.145985 L 87.3321175 86.05839 C 87.3321175 88.68613 86.7627695 90.14598 85.0547385 90.14598 L 83.15693025 90.14598" />
<path class="stroke" d="M 59.739853761999996 30.048816895999998 L 77.86014395000001 30.048816895999998" />
<path class="stroke" d="M 68.80000000000001 18.4335177776 L 68.80000000000001 45.190186592" />
<path class="stroke" d="M 57.318247717999995 45.190186592 L 80.19824686000001 45.190186592" />
<path class="stroke" d="M 59.739853761999996 58.78026232 L 59.739853761999996 80.35153168" />
<path class="stroke" d="M 59.739853761999996 58.78026232 L 77.9436488 58.78026232 L 77.9436488 80.144116192" />
<path class="stroke" d="M 59.739853761999996 78.6922028032 L 77.9436488 78.6922028032" />
</svg>
