<?xml version="1.0" standalone="no"?>
<!DOCTYPE svg PUBLIC "-//W3C//DTD SVG 1.1//EN" "http://www.w3.org/Graphics/SVG/1.1/DTD/svg11.dtd">
<svg xmlns="http://www.w3.org/2000/svg" version="1.1" width="100%" height="100%">
<style type="text/css"><![CDATA[
  .stroke { fill:none; stroke:black; stroke-width:2 }
]]></style>
<path class="stroke" d="M 8.12992676 19.076641249999998 L 8.12992676 70.6970775" />
<path class="stroke" d="M 8.12992676 19.076641249999998 L 25.951824000000002 19.076641249999998 L 25.951824000000002 70.2007285" />
<path class="stroke" d="M 8.12992676 66.72627359999998 L 25.951824000000002 66.72627359999998" />
<path class="stroke" d="M 44.1259122 13.540700000000001 L 85.57408520000001 13.540700000000001" />
<path class="stroke" d="M 64.85 2.5865911861999997 L 64.85 26.139289952000006" />
<path class="stroke" d="M 43.97408676 27.136765639 L 85.4222608 27.136765639" />
<path class="stroke" d="M 54.9532248 23.263 L 54.9532248 41.0192242855" />
<path class="stroke" d="M 75.08225528 23.4044838073 L 75.08225528 40.807" />
<path class="stroke" d="M 50.602189800000005 44.109488060000004 L 50.602189800000005 84.6583914" />
<path class="stroke" d="M 50.79196965 44.109488060000004 L 80.397805 44.109488060000004 L 80.397805 84.6583914" />
<path class="stroke" d="M 50.7984287 57.950496400000006 L 80.3663346 57.950496400000006" />
<path class="stroke" d="M 50.7984287 71.57821854 L 80.3663346 71.57821854" />
<path class="stroke" d="M 50.79196965 84.47737000000001 L 80.2080245 84.47737000000001" />
<path class="stroke" d="M 54.5875907 88.821896 C 53.0693428 91.899266 46.9069255 93.9848158 44.060209549999996 94.7088983" />
<path class="stroke" d="M 74.4842935 88.8659687 C 76.11779875 90.4240814 82.243454 95.09843251999999 88.1649215 94.90366571999999" />
</svg>
