<?xml version="1.0" standalone="no"?>
<!DOCTYPE svg PUBLIC "-//W3C//DTD SVG 1.1//EN" "http://www.w3.org/Graphics/SVG/1.1/DTD/svg11.dtd">
<svg xmlns="http://www.w3.org/2000/svg" version="1.1" width="100%" height="100%">
<style type="text/css"><![CDATA[
  .stroke { fill:none; stroke:black; stroke-width:2 }
]]></style>
<path class="stroke" d="M 9.744525 27.080292 L 9.744525 59.489044" />
<path class="stroke" d="M 9.744525 27.372261 L 40.547445 27.372261 L 40.547445 59.78102" />
<path class="stroke" d="M 9.744525 55.773968 L 40.547445 55.773968" />
<path class="stroke" d="M 24.994995 8.394159 L 24.994995 86.642334" />
<path class="stroke" d="M 8.7226265 91.0219 L 40.693428 82.55474" />
<path class="stroke" d="M 37.77372 73.21168 C 40.255475 78.46715 41.56934 84.306564 42.44525 91.0219" />
<path class="stroke" d="M 75.07299 8.111313875 L 75.07299 19.352188625" />
<path class="stroke" d="M 56.24087525 19.6076615 L 56.24087525 31.870435625" />
<path class="stroke" d="M 56.24087525 19.6076615 L 93.90510499999999 19.6076615 L 93.90510499999999 31.870435625" />
<path class="stroke" d="M 82.84653415 46.237624749999995 C 76.4306938 51.3613855 71.8861393 52.69802125 63.50729815 54.50729725" />
<path class="stroke" d="M 63.304426 32.4257425 L 63.304426 81.88118499999999 C 63.304426 88.341583 66.00494979999999 91.90594300000001 69.7475251 91.90594300000001 L 89.3960407 91.90594300000001 C 91.13366350000001 91.90594300000001 92.0693062 90.7920775 92.0693062 87.8960425 L 92.0693062 85.89108999999999" />
</svg>
