<?xml version="1.0" standalone="no"?>
<!DOCTYPE svg PUBLIC "-//W3C//DTD SVG 1.1//EN" "http://www.w3.org/Graphics/SVG/1.1/DTD/svg11.dtd">
<svg xmlns="http://www.w3.org/2000/svg" version="1.1" width="100%" height="100%">
<style type="text/css"><![CDATA[
  .stroke { fill:none; stroke:black; stroke-width:2 }
]]></style>
<path class="stroke" d="M 19.152474870000002 25.643566 L 40.97524758 25.643566" />
<path class="stroke" d="M 30.20197878 9.60396 L 30.20197878 41.38614" />
<path class="stroke" d="M 11.41782111 41.482674 L 45.671286300000006 41.482674" />
<path class="stroke" d="M 30.20197878 44.950497 L 30.20197878 82.67327" />
<path class="stroke" d="M 30.20197878 59.50495 L 44.29010052 59.50495" />
<path class="stroke" d="M 19.428711840000002 59.50495 C 16.94257353 72.871284 16.39009866 79.10891 9.2079207 90.09901" />
<path class="stroke" d="M 16.66633656 73.762375 C 32.68811802 91.58416 65.83663068 89.80198 83.79207930000001 89.80198" />
<path class="stroke" d="M 48.424328092857145 18.920792 L 68.27736978928571 18.920792" />
<path class="stroke" d="M 52.49257443642857 18.920792 L 52.49257443642857 67.158416" />
<path class="stroke" d="M 52.49257443642857 33.891088800000006 L 63.72093232857143 33.891088800000006" />
<path class="stroke" d="M 52.49257443642857 49.336632 L 63.72093232857143 49.336632" />
<path class="stroke" d="M 48.58705755214286 69.2970272 L 63.69682661428571 61.4444456" />
<path class="stroke" d="M 63.72093232857143 18.920792 L 63.72093232857143 82.841584" />
<path class="stroke" d="M 68.82088959320001 30.400001200000002 L 85.08705046 30.548514400000002 C 81.976316054 53.89505020000001 76.7371878896 65.30099200000001 67.568712844 75.281188" />
<path class="stroke" d="M 70.5816668504 31.4000008 C 72.30787008760001 46.948385800000004 76.5752252108 56.0451616 77.9976764592 60.109678 C 80.57586981200001 66.30322600000001 85.1988376784 70.948384 89.589425688 75.281188" />
</svg>
