<?xml version="1.0" standalone="no"?>
<!DOCTYPE svg PUBLIC "-//W3C//DTD SVG 1.1//EN" "http://www.w3.org/Graphics/SVG/1.1/DTD/svg11.dtd">
<svg xmlns="http://www.w3.org/2000/svg" version="1.1" width="100%" height="100%">
<style type="text/css"><![CDATA[
  .stroke { fill:none; stroke:black; stroke-width:2 }
]]></style>
<path class="stroke" d="M 15.5839405 10.145985 C 14.708029 19.197079 12.0802915 25.036495 9.014598 28.832115" />
<path class="stroke" d="M 13.832115 19.781021 L 39.233575 19.781021" />
<path class="stroke" d="M 15.5839405 33.16715261 C 15.0 49.08247997 12.6642325 63.15255298 10.912408 70.99488772000001 C 20.985401 72.60948340000002 34.270073 75.8386795 42.0072975 86.6795572" />
<path class="stroke" d="M 15.5839405 33.16715261 L 36.897808 33.16715261 C 36.45985 50.46642093 34.562042 73.53211334 30.912407 84.37298630000001 C 29.744522 87.14087454000001 27.846714 88.2941592 26.0948885 88.2941592" />
<path class="stroke" d="M 26.0948885 33.397809699999996 C 25.8029175 49.31313627 24.781021 61.99926832 22.2992685 73.07080389999999" />
<path class="stroke" d="M 5.0729925 54.387588300000004 L 45.07299 54.387588300000004" />
<path class="stroke" d="M 68.168318 9.90099 C 66.6831685 22.673267 63.118812500000004 37.82178 57.623762 46.435642" />
<path class="stroke" d="M 62.970297 35.742573 L 88.069305 35.742573" />
<path class="stroke" d="M 76.48515 36.039604 C 74.70297 61.287132 67.1287135 82.376236 55.247525 89.80198" />
<path class="stroke" d="M 62.970297 43.465347 C 66.237623 61.58416 82.12871 90.09901 90.89108999999999 90.09901" />
</svg>
