<?xml version="1.0" standalone="no"?>
<!DOCTYPE svg PUBLIC "-//W3C//DTD SVG 1.1//EN" "http://www.w3.org/Graphics/SVG/1.1/DTD/svg11.dtd">
<svg xmlns="http://www.w3.org/2000/svg" version="1.1" width="100%" height="100%">
<style type="text/css"><![CDATA[
  .stroke { fill:none; stroke:black; stroke-width:2 }
]]></style>
<path class="stroke" d="M 8.69085 22.0316 L 2.3817 38.1199" />
<path class="stroke" d="M 20.6782 22.0316 L 27.6183 38.1199" />
<path class="stroke" d="M 14.6845 7.3123 L 14.6845 93.3186" />
<path class="stroke" d="M 65.0040481 9.789049819999999 L 65.0040481 16.87555627" />
<path class="stroke" d="M 44.6642328 17.098805829999996 L 85.3357658 17.098805829999996" />
<path class="stroke" d="M 50.4608544 17.318641 L 56.1094869 32.79926942" />
<path class="stroke" d="M 79.107002 17.32212639 L 73.6861264 32.79926942" />
<path class="stroke" d="M 37.1021895 32.79926942 L 92.897807 32.79926942" />
<path class="stroke" d="M 52.021895 41.713135529999995 L 52.021895 67.4182432" />
<path class="stroke" d="M 51.8175167 41.713135529999995 L 78.1824805 41.713135529999995 L 78.1824805 67.00364579999999" />
<path class="stroke" d="M 52.021895 53.817752999999996 L 78.1824805 53.817752999999996" />
<path class="stroke" d="M 52.430655099999996 64.9306517 L 78.1824805 64.9306517" />
<path class="stroke" d="M 42.21171 77.59935999999999 C 41.62294 82.58356 40.15084 85.86436 37.57449 89.52364" />
<path class="stroke" d="M 53.252697999999995 74.57097999999999 L 53.252697999999995 90.65932 C 53.252697999999995 92.36277999999999 54.577658 93.4984 56.565028 93.4984 L 80.413608 93.4984 C 82.25376800000001 93.4984 83.873148 92.17348 83.946718 90.09147999999999 L 83.946718 86.8738" />
<path class="stroke" d="M 61.643919999999994 74.57099199999999 C 65.47145 77.473192 67.97408999999999 80.56469200000001 70.25587999999999 84.60251199999999" />
<path class="stroke" d="M 83.94668999999999 74.76028 C 88.58391 78.29332 91.45461 81.8266 94.32524 86.68456" />
</svg>
