<?xml version="1.0" standalone="no"?>
<!DOCTYPE svg PUBLIC "-//W3C//DTD SVG 1.1//EN" "http://www.w3.org/Graphics/SVG/1.1/DTD/svg11.dtd">
<svg xmlns="http://www.w3.org/2000/svg" version="1.1" width="100%" height="100%">
<style type="text/css"><![CDATA[
  .stroke { fill:none; stroke:black; stroke-width:2 }
]]></style>
<path class="stroke" d="M 23.029195 4.781021 C 22.901925 7.589295 19.858925 10.847595 17.126475 10.955695" />
<path class="stroke" d="M 10.7664225 11.0583935 L 10.7664225 45.51095" />
<path class="stroke" d="M 10.7664225 10.9561425 L 39.525547 10.9561425 L 39.525547 45.51095" />
<path class="stroke" d="M 10.7664225 27.1843625 L 39.525547 27.1843625" />
<path class="stroke" d="M 10.7664225 44.01178 L 39.525547 44.01178" />
<path class="stroke" d="M 23.89591 55.3649625 L 23.89591 61.934305" />
<path class="stroke" d="M 7.2627735 61.934305 L 42.88321 61.934305" />
<path class="stroke" d="M 23.17518 69.6715315 L 38.941605 69.6715315 C 38.2116775 76.532845 37.627735 81.0583915 36.45985 85.145985 C 35.0 89.817515 32.37226 94.051095 30.036495 94.051095 L 27.116787 94.051095" />
<path class="stroke" d="M 23.9051075 61.934305 L 22.883211 70.69343 C 21.861313 80.036495 18.065693 89.233575 12.372261 92.00729749999999" />
<path class="stroke" d="M 68.168318 9.90099 C 66.6831685 22.673267 63.118812500000004 37.82178 57.623762 46.435642" />
<path class="stroke" d="M 62.970297 35.742573 L 88.069305 35.742573" />
<path class="stroke" d="M 76.48515 36.039604 C 74.70297 61.287132 67.1287135 82.376236 55.247525 89.80198" />
<path class="stroke" d="M 62.970297 43.465347 C 66.237623 61.58416 82.12871 90.09901 90.89108999999999 90.09901" />
</svg>
