<?xml version="1.0" standalone="no"?>
<!DOCTYPE svg PUBLIC "-//W3C//DTD SVG 1.1//EN" "http://www.w3.org/Graphics/SVG/1.1/DTD/svg11.dtd">
<svg xmlns="http://www.w3.org/2000/svg" version="1.1" width="100%" height="100%">
<style type="text/css"><![CDATA[
  .stroke { fill:none; stroke:black; stroke-width:2 }
]]></style>
<path class="stroke" d="M 35.19507052 10.800613210526315 L 35.19507052 28.863381578947365" />
<path class="stroke" d="M 20.297576112399998 13.42066794736842 C 22.5980717644 16.993468526315787 23.748320716000002 20.328082236842103 25.227209411200004 25.330002394736844" />
<path class="stroke" d="M 49.21809923199999 13.42066794736842 C 48.232172684800005 19.613521631578944 46.753282864000006 21.995390315789475 44.617107927999996 25.091817157894738" />
<path class="stroke" d="M 21.66496322 32.99634923 L 21.66496322 69.273719 C 21.66496322 77.3168333 21.66496322 80.69108700000001 21.66496322 88.49406225999999" />
<path class="stroke" d="M 21.66496322 32.99634923 L 49.0518256 32.99634923 L 49.0518256 87.1014569 C 49.0518256 88.7598536 48.269339300000006 90.2109445 46.31313628 90.2109445 L 44.1613147 90.2109445" />
<path class="stroke" d="M 21.66496322 48.62242967 L 49.0518256 48.62242967" />
<path class="stroke" d="M 21.66496322 65.12833856 L 49.0518256 65.12833856" />
<path class="stroke" d="M 69.15926499999999 12.1451 L 69.15926499999999 68.612" />
<path class="stroke" d="M 86.93527499999999 6.78233 L 86.93527499999999 84.0694 C 87.056255 89.6425 83.18661999999999 92.3765 78.59145 92.2713 L 74.60095 92.2713" />
</svg>
