<?xml version="1.0" standalone="no"?>
<!DOCTYPE svg PUBLIC "-//W3C//DTD SVG 1.1//EN" "http://www.w3.org/Graphics/SVG/1.1/DTD/svg11.dtd">
<svg xmlns="http://www.w3.org/2000/svg" version="1.1" width="100%" height="100%">
<style type="text/css"><![CDATA[
  .stroke { fill:none; stroke:black; stroke-width:2 }
]]></style>
<path class="stroke" d="M 12.189779 19.6167875 L 87.81021 19.6167875" />
<path class="stroke" d="M 34.67153 10.49269875 L 34.67153 29.470801249999997" />
<path class="stroke" d="M 65.32846 10.49269875 L 65.32846 29.470801249999997" />
<path class="stroke" d="M 13.154171785714285 38.122772319999996 C 16.654879285714284 39.6198028 20.15558785714286 41.75841664 23.01980357142857 44.324752239999995" />
<path class="stroke" d="M 10.926448928571428 55.44554536 C 14.108912142857141 56.7287128 17.927864999999997 58.65346504 20.473834285714286 61.2198028" />
<path class="stroke" d="M 10.608203571428572 89.66336319999999 C 11.321795357142857 90.94432671999999 13.310014285714285 92.72577088 15.629600357142856 92.72577088 C 17.949189642857142 92.72577088 21.110325 83.2475224 23.33804892857143 78.1148512" />
<path class="stroke" d="M 49.624671146 34.391970549999996 L 49.624671146 46.4164957" />
<path class="stroke" d="M 49.624671146 34.391970549999996 L 77.5032104 34.391970549999996 L 77.5032104 46.30087558" />
<path class="stroke" d="M 49.624671146 45.491531968000004 L 77.5032104 45.491531968000004" />
<path class="stroke" d="M 35.2085033595 52.563167605000004 L 35.2085033595 65.79014527000001" />
<path class="stroke" d="M 35.2085033595 52.563167605000004 L 56.117407799999995 52.563167605000004 L 56.117407799999995 65.66296313800001" />
<path class="stroke" d="M 35.2085033595 64.77268516480001 L 56.117407799999995 64.77268516480001" />
<path class="stroke" d="M 70.9785033595 52.563167605000004 L 70.9785033595 65.79014527000001" />
<path class="stroke" d="M 70.9785033595 52.563167605000004 L 91.88740779999999 52.563167605000004 L 91.88740779999999 65.66296313800001" />
<path class="stroke" d="M 70.9785033595 64.77268516480001 L 91.88740779999999 64.77268516480001" />
<path class="stroke" d="M 41.6532827 75.742305688 L 85.5598481 75.742305688" />
<path class="stroke" d="M 63.6065654 71.5610510416 L 63.6065654 94.51696153600001" />
<path class="stroke" d="M 63.6065654 77.136057892 C 56.572993499999995 83.4489335728 48.04744395 86.81033477439999 36.964232089999996 88.53202684" />
<path class="stroke" d="M 63.6065654 77.136057892 C 70.21386475 83.530918468 79.16569050000001 86.8923196696 90.24890382000001 88.368057892" />
</svg>
