<?xml version="1.0" standalone="no"?>
<!DOCTYPE svg PUBLIC "-//W3C//DTD SVG 1.1//EN" "http://www.w3.org/Graphics/SVG/1.1/DTD/svg11.dtd">
<svg xmlns="http://www.w3.org/2000/svg" version="1.1" width="100%" height="100%">
<style type="text/css"><![CDATA[
  .stroke { fill:none; stroke:black; stroke-width:2 }
]]></style>
<path class="stroke" d="M 11.8297 8.990532 L 11.8297 40.53627" />
<path class="stroke" d="M 11.8297 8.990532 L 39.2744 8.990532 L 39.2744 40.53627" />
<path class="stroke" d="M 11.8297 40.53627 L 39.2744 40.53627" />
<path class="stroke" d="M 25.39435 40.5363 L 25.39435 89.1167" />
<path class="stroke" d="M 25.70984 59.1483 L 41.48264 59.1483" />
<path class="stroke" d="M 11.8297 52.5236 L 11.8297 92.2713" />
<path class="stroke" d="M 6.78233 93.8486 L 41.7981 85.6467" />
<path class="stroke" d="M 68.72627565 12.81605692 C 65.03284525000001 21.487591000000002 58.77007225 30.5445235 52.3467141 36.325546" />
<path class="stroke" d="M 66.79926815 17.82627664 L 81.091242 17.82627664 C 75.3102195 33.62773462 62.945254250000005 51.9343018 50.58029175 61.9547386" />
<path class="stroke" d="M 60.6970803 27.26861284 C 67.0 41.25806524 79.96715035 54.4394143 93.61678800000001 61.9547386" />
<path class="stroke" d="M 61.5421530175 58.98175125 L 61.5421530175 86.3102175" />
<path class="stroke" d="M 61.5421530175 58.98175125 L 80.79616700000001 58.98175125 L 80.79616700000001 86.04744450000001" />
<path class="stroke" d="M 61.5421530175 84.2080272 L 80.79616700000001 84.2080272" />
</svg>
