<?xml version="1.0" standalone="no"?>
<!DOCTYPE svg PUBLIC "-//W3C//DTD SVG 1.1//EN" "http://www.w3.org/Graphics/SVG/1.1/DTD/svg11.dtd">
<svg xmlns="http://www.w3.org/2000/svg" version="1.1" width="100%" height="100%">
<style type="text/css"><![CDATA[
  .stroke { fill:none; stroke:black; stroke-width:2 }
]]></style>
<path class="stroke" d="M 23.038319791666666 9.562042 C 26.687956250000003 11.021896 30.3375875 14.817516 32.77067708333333 19.48905" />
<path class="stroke" d="M 10.264596875 22.8707 L 44.327854166666675 22.8707" />
<path class="stroke" d="M 16.955593750000002 37.007298 L 37.63686041666667 37.007298" />
<path class="stroke" d="M 16.955593750000002 51.313866 L 37.63686041666667 51.313866" />
<path class="stroke" d="M 15.739050000000002 64.45255 L 15.739050000000002 85.76642" />
<path class="stroke" d="M 15.739050000000002 64.16058 L 39.461677083333335 64.16058 L 39.461677083333335 85.76642" />
<path class="stroke" d="M 15.739050000000002 85.76642 L 39.15754166666667 85.76642" />
<path class="stroke" d="M 86.82965 8.343890000000002 C 76.05154999999999 15.315659999999994 64.48475 19.416510000000002 53.54892 21.056850000000004" />
<path class="stroke" d="M 52.76025 43.20183 L 96.9243 43.20183" />
<path class="stroke" d="M 70.11041 17.366020000000006 L 70.11041 85.85171 C 70.05786 90.49947 71.26711 93.50676 72.79181 93.64352 L 90.29966 93.64352 C 91.98211 93.50689000000001 93.19136 90.4996 93.13881 85.85184 L 93.13881 78.88020000000002" />
</svg>
