<?xml version="1.0" standalone="no"?>
<!DOCTYPE svg PUBLIC "-//W3C//DTD SVG 1.1//EN" "http://www.w3.org/Graphics/SVG/1.1/DTD/svg11.dtd">
<svg xmlns="http://www.w3.org/2000/svg" version="1.1" width="100%" height="100%">
<style type="text/css"><![CDATA[
  .stroke { fill:none; stroke:black; stroke-width:2 }
]]></style>
<path class="stroke" d="M 12.189779 19.6167875 L 87.81021 19.6167875" />
<path class="stroke" d="M 34.67153 10.49269875 L 34.67153 29.470801249999997" />
<path class="stroke" d="M 65.32846 10.49269875 L 65.32846 29.470801249999997" />
<path class="stroke" d="M 13.154171785714285 35.544554500000004 C 16.654879285714284 37.10396125 20.15558785714286 39.331683999999996 23.01980357142857 42.00495025" />
<path class="stroke" d="M 10.926448928571428 53.589109750000006 C 14.108912142857141 54.9257425 17.927864999999997 56.930692750000006 20.473834285714286 59.60396125" />
<path class="stroke" d="M 10.608203571428572 89.23267 C 11.321795357142857 90.56700699999999 13.310014285714285 92.422678 15.629600357142856 92.422678 C 17.949189642857142 92.422678 21.110325 82.5495025 23.33804892857143 77.20297" />
<path class="stroke" d="M 78.10246187199999 26.67773919625 C 81.800135632 27.47151084625 83.948768272 28.52506243375 85.247949232 29.98993168375" />
<path class="stroke" d="M 31.9747636 36.473564725 L 95.5709848 36.473564725" />
<path class="stroke" d="M 39.2429152 45.132841075 L 39.2429152 67.64710232499999" />
<path class="stroke" d="M 39.2429152 45.132841075 L 88.30285119999999 45.132841075 L 88.30285119999999 67.64710232499999" />
<path class="stroke" d="M 39.4700248 55.8127165 L 87.84862480000001 55.8127165" />
<path class="stroke" d="M 39.2429152 67.64710232499999 L 88.30285119999999 67.64710232499999" />
<path class="stroke" d="M 63.772839999999995 28.247238925 L 63.772839999999995 67.5027565" />
<path class="stroke" d="M 35.51532832 77.398174495 L 92.27444679999999 77.398174495" />
<path class="stroke" d="M 75.2467168 72.155839285 L 75.2467168 95.5164223 C 75.2467168 96.34416039999999 74.405836 96.89598369999999 72.51386608 96.89598369999999 L 66.8379556 96.89598369999999" />
<path class="stroke" d="M 47.077372 80.893064845 C 49.599999999999994 81.72080263 51.91240816 82.91642293000001 53.804377360000004 84.939779755" />
</svg>
