<?xml version="1.0" standalone="no"?>
<!DOCTYPE svg PUBLIC "-//W3C//DTD SVG 1.1//EN" "http://www.w3.org/Graphics/SVG/1.1/DTD/svg11.dtd">
<svg xmlns="http://www.w3.org/2000/svg" version="1.1" width="100%" height="100%">
<style type="text/css"><![CDATA[
  .stroke { fill:none; stroke:black; stroke-width:2 }
]]></style>
<path class="stroke" d="M 13.154171785714285 14.059406 C 16.654879285714284 16.138615 20.15558785714286 19.108912 23.01980357142857 22.673267" />
<path class="stroke" d="M 10.926448928571428 38.118813 C 14.108912142857141 39.90099 17.927864999999997 42.574257 20.473834285714286 46.138615" />
<path class="stroke" d="M 10.608203571428572 85.64356 C 11.321795357142857 87.422676 13.310014285714285 89.896904 15.629600357142856 89.896904 C 17.949189642857142 89.896904 21.110325 76.73267 23.33804892857143 69.60396" />
<path class="stroke" d="M 61.66897732 9.959853200000001 C 58.3405102 21.39050975 50.398381 34.191410000000005 41.032480719999995 43.332116 C 55.01204251 41.88686 67.16094841 41.229927499999995 80.462119 41.326025" />
<path class="stroke" d="M 73.98430555000002 33.0839384 C 77.81204079999999 35.58029 81.14050792 39.39050975 83.3040136 44.5145945" />
<path class="stroke" d="M 47.294160160000004 56.223357 L 47.294160160000004 87.802918" />
<path class="stroke" d="M 47.294160160000004 56.223357 L 77.84598399999999 56.223357 L 77.84598399999999 87.49926920000001" />
<path class="stroke" d="M 47.294160160000004 85.37372031999999 L 77.84598399999999 85.37372031999999" />
</svg>
