<?xml version="1.0" standalone="no"?>
<!DOCTYPE svg PUBLIC "-//W3C//DTD SVG 1.1//EN" "http://www.w3.org/Graphics/SVG/1.1/DTD/svg11.dtd">
<svg xmlns="http://www.w3.org/2000/svg" version="1.1" width="100%" height="100%">
<style type="text/css"><![CDATA[
  .stroke { fill:none; stroke:black; stroke-width:2 }
]]></style>
<path class="stroke" d="M 50.14598 6.95255475 L 50.14598 16.587590249999998" />
<path class="stroke" d="M 12.4817505 16.806567 L 12.4817505 27.31751625" />
<path class="stroke" d="M 12.4817505 16.806567 L 87.81021 16.806567 L 87.81021 27.31751625" />
<path class="stroke" d="M 18.70077 23.862768000000003 C 17.943779999999997 28.265478 16.05108 31.163518000000003 12.73863 34.395882" />
<path class="stroke" d="M 32.896326 21.187699000000002 L 32.896326 35.399066 C 32.896326 36.903789 34.599846 37.90692000000001 37.155036 37.90692000000001 L 67.817496 37.90692000000001 C 70.18341600000001 37.90692000000001 72.265476 36.736574 72.360066 34.897474 L 72.360066 32.05519" />
<path class="stroke" d="M 43.68504 21.187709599999998 C 48.60615 23.751319600000002 51.82383 26.482144600000005 54.757560000000005 30.0488856" />
<path class="stroke" d="M 72.36003 21.354914 C 78.32217 24.475766 82.01307 27.596830000000004 85.70388 31.888028" />
<path class="stroke" d="M 17.284669700000002 46.66423233333333 L 17.284669700000002 61.19789133333333" />
<path class="stroke" d="M 17.284669700000002 46.66423233333333 L 82.9781006 46.66423233333333 L 82.9781006 61.19789133333333" />
<path class="stroke" d="M 38.075747 46.66423233333333 L 38.075747 61.19789133333333" />
<path class="stroke" d="M 61.9243304 46.66423233333333 L 61.9243304 61.19789133333333" />
<path class="stroke" d="M 17.284669700000002 61.204723333333334 L 83.14851200000001 61.204723333333334" />
<path class="stroke" d="M 8.686131 71.59562044 L 91.605835 71.59562044" />
<path class="stroke" d="M 50.14598 71.8408758 L 50.14598 93.25985352000001 C 50.14598 93.7503648 48.68613 94.4043776 46.642334 94.4043776 L 41.094887 94.4043776" />
</svg>
