<?xml version="1.0" standalone="no"?>
<!DOCTYPE svg PUBLIC "-//W3C//DTD SVG 1.1//EN" "http://www.w3.org/Graphics/SVG/1.1/DTD/svg11.dtd">
<svg xmlns="http://www.w3.org/2000/svg" version="1.1" width="100%" height="100%">
<style type="text/css"><![CDATA[
  .stroke { fill:none; stroke:black; stroke-width:2 }
]]></style>
<path class="stroke" d="M 49.999996 5.0 C 52.376232 7.6732674 52.793365 10.037088 52.918915 12.702702" />
<path class="stroke" d="M 12.702702 13.675674 L 92.81081 13.351351" />
<path class="stroke" d="M 12.378378 13.999998 L 12.702702 39.62162 C 12.702702 61.30479 14.560343 79.686905 6.5405407 92.162155" />
<path class="stroke" d="M 25.52737125 27.666597532 L 48.08211375 27.666597532" />
<path class="stroke" d="M 36.8047425 22.8837663624 L 36.8047425 49.14245030400001" />
<path class="stroke" d="M 36.8047425 29.260875337999998 C 33.19160625 36.4820137592 28.812043125000002 40.3270353616 23.118612374999998 42.296435259999996" />
<path class="stroke" d="M 36.8047425 29.260875337999998 C 42.7537425 31.974914159999997 47.2425225 36.300299356 50.49087525 42.108875338000004" />
<path class="stroke" d="M 63.02737125 27.666597532 L 85.58211375 27.666597532" />
<path class="stroke" d="M 74.3047425 22.8837663624 L 74.3047425 49.14245030400001" />
<path class="stroke" d="M 74.3047425 29.260875337999998 C 70.69160625 36.4820137592 66.312043125 40.3270353616 60.618612375 42.296435259999996" />
<path class="stroke" d="M 74.3047425 29.260875337999998 C 77.69890312499999 36.575794202 82.29744375000001 40.4208158044 87.99087525 42.108875338000004" />
<path class="stroke" d="M 72.689775 52.7279773026 C 60.8649615 53.768094792999996 48.23925 54.53240326 37.2153285 54.9382260791" />
<path class="stroke" d="M 34.58759025 62.999130395499996 L 77.94525 62.999130395499996" />
<path class="stroke" d="M 26.70437925 71.840123275 L 84.29562 71.840123275" />
<path class="stroke" d="M 54.952552499999996 54.5481815749 C 56.716215 57.3037888161 56.9594565 58.1703185699 57.44594475 61.0587498951 L 57.3613125 86.531772585 C 57.3613125 88.09194614879999 56.04744225 89.2620783255 53.419707 89.1320645298 L 51.01094625 89.1320645298" />
</svg>
