<?xml version="1.0" standalone="no"?>
<!DOCTYPE svg PUBLIC "-//W3C//DTD SVG 1.1//EN" "http://www.w3.org/Graphics/SVG/1.1/DTD/svg11.dtd">
<svg xmlns="http://www.w3.org/2000/svg" version="1.1" width="100%" height="100%">
<style type="text/css"><![CDATA[
  .stroke { fill:none; stroke:black; stroke-width:2 }
]]></style>
<path class="stroke" d="M 13.649633 9.562042 L 13.649633 90.14598" />
<path class="stroke" d="M 13.649633 9.562042 L 38.17518 9.562042 L 38.17518 38.46715" />
<path class="stroke" d="M 13.649633 22.408756 L 37.88321 22.408756" />
<path class="stroke" d="M 13.649633 36.131386 L 38.17518 36.131386" />
<path class="stroke" d="M 62.408752 9.854013 L 62.408752 38.46715" />
<path class="stroke" d="M 62.408752 9.854013 L 86.642334 9.854013 L 86.642334 85.47445 C 86.642334 88.39416 84.306564 90.14598 81.678825 89.85401" />
<path class="stroke" d="M 62.408752 22.408756 L 86.642334 22.408756" />
<path class="stroke" d="M 62.408752 36.131386 L 86.642334 36.131386" />
<path class="stroke" d="M 35.069212611764705 48.8029195 C 32.21133402352942 56.686130500000004 26.275739858823528 63.985400999999996 21.21949214117647 68.07299" />
<path class="stroke" d="M 30.672475105882356 58.2919695 L 30.672475105882356 88.218975" />
<path class="stroke" d="M 37.609210368 58.0631 L 78.3107712 58.0631" />
<path class="stroke" d="M 53.30840832 45.91798 L 53.30840832 58.0631 C 53.5022208 72.04835 65.17967616 89.34595 76.27569408 89.6088 L 76.27569408 84.2461" />
<path class="stroke" d="M 70.46118144 63.74135 C 65.08276992 76.46475000000001 54.90733824 84.92955 40.51646208 88.9779" />
<path class="stroke" d="M 59.454484992 48.54053975 C 61.392655872 50.11782 61.38566737920001 50.8772925 62.7423538176 53.2432425" />
</svg>
