<?xml version="1.0" standalone="no"?>
<!DOCTYPE svg PUBLIC "-//W3C//DTD SVG 1.1//EN" "http://www.w3.org/Graphics/SVG/1.1/DTD/svg11.dtd">
<svg xmlns="http://www.w3.org/2000/svg" version="1.1" width="100%" height="100%">
<style type="text/css"><![CDATA[
  .stroke { fill:none; stroke:black; stroke-width:2 }
]]></style>
<path class="stroke" d="M 24.132515 7.115142499999999 L 73.34382 7.115142499999999 C 68.50681 14.443252999999999 59.884315 19.159333999999998 49.684616 21.045724999999997" />
<path class="stroke" d="M 49.684616 21.045724999999997 L 49.369114 62.837506999999995 C 49.579414 65.66712799999999 47.581516 66.97316 44.321815 66.97316 L 40.220814 66.97316" />
<path class="stroke" d="M 7.09779 27.140356999999998 L 37.3817 27.140356999999998 C 32.0189 41.869097 23.1861 51.591473 6.78233 60.878527999999996" />
<path class="stroke" d="M 93.84854 26.0520614 C 89.432144 30.4053404 84.06934 33.2350304 77.44474 34.97631439999999" />
<path class="stroke" d="M 63.2492 27.140425999999998 C 68.4017 42.231899 78.2859 53.62297099999999 94.164 60.878527999999996" />
<path class="stroke" d="M 9.562042 75.5 L 90.43795 75.5" />
<path class="stroke" d="M 18.613138 81.60583199999999 C 18.029196 86.043792 15.69343 89.78101600000001 11.89781 91.88320800000001" />
<path class="stroke" d="M 35.255474 82.306568 C 38.46715 85.34306000000001 40.218975 88.145984 41.67883 92.116784" />
<path class="stroke" d="M 59.197075 82.540144 C 62.408752 85.34306000000001 63.868607 88.37956000000001 65.32846 92.35036000000001" />
<path class="stroke" d="M 81.386856 82.540144 C 84.8905 85.34306000000001 86.9343 87.9124 88.68613 92.35036000000001" />
</svg>
