<?xml version="1.0" standalone="no"?>
<!DOCTYPE svg PUBLIC "-//W3C//DTD SVG 1.1//EN" "http://www.w3.org/Graphics/SVG/1.1/DTD/svg11.dtd">
<svg xmlns="http://www.w3.org/2000/svg" version="1.1" width="100%" height="100%">
<style type="text/css"><![CDATA[
  .stroke { fill:none; stroke:black; stroke-width:2 }
]]></style>
<path class="stroke" d="M 13.649633 9.562042 L 13.649633 90.14598" />
<path class="stroke" d="M 13.649633 9.562042 L 38.17518 9.562042 L 38.17518 38.46715" />
<path class="stroke" d="M 13.649633 22.408756 L 37.88321 22.408756" />
<path class="stroke" d="M 13.649633 36.131386 L 38.17518 36.131386" />
<path class="stroke" d="M 62.408752 9.854013 L 62.408752 38.46715" />
<path class="stroke" d="M 62.408752 9.854013 L 86.642334 9.854013 L 86.642334 85.47445 C 86.642334 88.39416 84.306564 90.14598 81.678825 89.85401" />
<path class="stroke" d="M 62.408752 22.408756 L 86.642334 22.408756" />
<path class="stroke" d="M 62.408752 36.131386 L 86.642334 36.131386" />
<path class="stroke" d="M 20.80810755 49.5135125 L 43.510811000000004 49.5135125" />
<path class="stroke" d="M 23.6605827 58.5839405 L 23.6605827 68.8029175" />
<path class="stroke" d="M 23.6605827 58.729925 L 41.237224999999995 58.729925 L 41.237224999999995 68.8029175" />
<path class="stroke" d="M 23.6605827 68.8029175 L 41.237224999999995 68.8029175" />
<path class="stroke" d="M 26.11313805 72.89051 C 27.54379455 76.3941575 28.463502499999997 81.06569300000001 28.9744521 85.88320999999999" />
<path class="stroke" d="M 38.171533 72.89051 C 37.7627715 77.4160575 36.8430632 81.94160500000001 35.3102193 86.17518" />
<path class="stroke" d="M 18.55109475 86.46715 L 46.4489035 86.46715" />
<path class="stroke" d="M 52.963501799999996 58.145984999999996 L 77.897807 58.145984999999996" />
<path class="stroke" d="M 71.68354299999999 47.6350365 L 71.68354299999999 85.44525 C 71.68354299999999 86.75912 70.540142 88.07299 68.70072679999998 88.07299 L 65.430653 88.07299" />
<path class="stroke" d="M 53.985399599999994 63.255475000000004 C 57.051092999999995 64.423357 58.890511 66.321167 59.912406 68.510948" />
</svg>
