<?xml version="1.0" standalone="no"?>
<!DOCTYPE svg PUBLIC "-//W3C//DTD SVG 1.1//EN" "http://www.w3.org/Graphics/SVG/1.1/DTD/svg11.dtd">
<svg xmlns="http://www.w3.org/2000/svg" version="1.1" width="100%" height="100%">
<style type="text/css"><![CDATA[
  .stroke { fill:none; stroke:black; stroke-width:2 }
]]></style>
<path class="stroke" d="M 25.507986486486487 15.109488 C 20.536593243243246 22.70073 15.328465135135136 27.956203 10.830536756756757 30.875912" />
<path class="stroke" d="M 26.92838756756757 35.547443 C 21.956993513513513 43.138683 14.85500027027027 49.85401 8.463207567567569 53.06569" />
<path class="stroke" d="M 19.826394324324326 45.47445 L 19.826394324324326 89.85401" />
<path class="stroke" d="M 37.1021895 16.66 L 92.897807 16.66" />
<path class="stroke" d="M 65.0 6.01386856 L 65.0 28.9043776" />
<path class="stroke" d="M 39.554743099999996 34.41240658333333 L 39.554743099999996 59.846309833333336" />
<path class="stroke" d="M 39.554743099999996 34.41240658333333 L 90.6496338 34.41240658333333 L 90.6496338 59.846309833333336" />
<path class="stroke" d="M 55.725581 34.41240658333333 L 55.725581 59.846309833333336" />
<path class="stroke" d="M 74.2744792 34.41240658333333 L 74.2744792 59.846309833333336" />
<path class="stroke" d="M 39.554743099999996 59.85826583333333 L 90.78217599999999 59.85826583333333" />
<path class="stroke" d="M 42.21171 74.13248 C 41.62294 80.77808 40.15084 85.15248000000001 37.57449 90.03152" />
<path class="stroke" d="M 53.252697999999995 70.09464 L 53.252697999999995 91.54576 C 53.252697999999995 93.81704 54.577658 95.33120000000001 56.565028 95.33120000000001 L 80.413608 95.33120000000001 C 82.25376800000001 95.33120000000001 83.873148 93.56464 83.946718 90.78864 L 83.946718 86.4984" />
<path class="stroke" d="M 61.643919999999994 70.094656 C 65.47145 73.964256 67.97408999999999 78.086256 70.25587999999999 83.470016" />
<path class="stroke" d="M 83.94668999999999 70.34703999999999 C 88.58391 75.05776 91.45461 79.7688 94.32524 86.24607999999999" />
</svg>
