<?xml version="1.0" standalone="no"?>
<!DOCTYPE svg PUBLIC "-//W3C//DTD SVG 1.1//EN" "http://www.w3.org/Graphics/SVG/1.1/DTD/svg11.dtd">
<svg xmlns="http://www.w3.org/2000/svg" version="1.1" width="100%" height="100%">
<style type="text/css"><![CDATA[
  .stroke { fill:none; stroke:black; stroke-width:2 }
]]></style>
<path class="stroke" d="M 26.788319 5.150040555555556 C 24.452553 9.529602222222222 21.824816 12.287103888888888 16.861313 14.395781666666668" />
<path class="stroke" d="M 24.452553 10.01622 L 47.226276 10.01622" />
<path class="stroke" d="M 30.0 10.340632222222222 C 34.08759 12.93592888888889 35.547443 15.044606666666667 36.423355 18.93755" />
<path class="stroke" d="M 65.32846 5.150040555555556 C 63.284668 10.502837222222222 60.07299 12.773721666666669 57.44525 14.395781666666668" />
<path class="stroke" d="M 62.9927 10.178426111111111 L 86.35036 10.178426111111111" />
<path class="stroke" d="M 72.62773 10.502837222222222 C 72.9197 14.071369444444446 71.16788 16.504459444444446 67.9562 18.93755" />
<path class="stroke" d="M 13.649633 27.6496336 L 13.649633 92.116784" />
<path class="stroke" d="M 13.649633 27.6496336 L 38.17518 27.6496336 L 38.17518 50.77372" />
<path class="stroke" d="M 13.649633 37.927004800000006 L 37.88321 37.927004800000006" />
<path class="stroke" d="M 13.649633 48.9051088 L 38.17518 48.9051088" />
<path class="stroke" d="M 62.408752 27.8832104 L 62.408752 50.77372" />
<path class="stroke" d="M 62.408752 27.8832104 L 86.642334 27.8832104 L 86.642334 88.37956000000001 C 86.642334 90.715328 84.306564 92.116784 81.678825 91.88320800000001" />
<path class="stroke" d="M 62.408752 37.927004800000006 L 86.642334 37.927004800000006" />
<path class="stroke" d="M 62.408752 48.9051088 L 86.642334 48.9051088" />
<path class="stroke" d="M 37.87737056 58.8613136 L 37.87737056 82.4058368" />
<path class="stroke" d="M 37.87737056 58.8613136 L 61.982479999999995 58.8613136 L 61.982479999999995 82.4058368" />
<path class="stroke" d="M 38.0175176 69.99220576 L 61.8423344 69.99220576" />
<path class="stroke" d="M 37.87737056 81.37810048 L 61.982479999999995 81.37810048" />
</svg>
