<?xml version="1.0" standalone="no"?>
<!DOCTYPE svg PUBLIC "-//W3C//DTD SVG 1.1//EN" "http://www.w3.org/Graphics/SVG/1.1/DTD/svg11.dtd">
<svg xmlns="http://www.w3.org/2000/svg" version="1.1" width="100%" height="100%">
<style type="text/css"><![CDATA[
  .stroke { fill:none; stroke:black; stroke-width:2 }
]]></style>
<path class="stroke" d="M 15.058394 13.4 L 46.941604000000005 13.4" />
<path class="stroke" d="M 31.0 5.7956204 L 31.0 22.145984000000002" />
<path class="stroke" d="M 5.83596 24.76342 L 94.164 24.76342" />
<path class="stroke" d="M 60.7256 5.83596 L 60.7256 24.7634 C 61.1462 52.7339 77.0242 93.0074 89.7476 93.2176 L 89.7476 82.4922" />
<path class="stroke" d="M 90.3785 44.637257 C 81.5457 68.82226 66.4037 86.38276 44.9526 92.586754" />
<path class="stroke" d="M 82.1767 7.09779 C 85.7519 9.62145 88.0652 11.82965 90.3785 15.93065" />
<path class="stroke" d="M 10.1879577 35.32722346 L 51.195287 35.32722346" />
<path class="stroke" d="M 14.02554639 47.0839393 L 13.8474453 69.7875913" />
<path class="stroke" d="M 13.8474453 47.0839393 L 47.1525486 47.0839393 L 47.1525486 69.7875913" />
<path class="stroke" d="M 13.8474453 58.3953544 L 46.9744469 58.3953544" />
<path class="stroke" d="M 13.8474453 70.02408700000001 L 47.1525486 70.02408700000001" />
<path class="stroke" d="M 9.21678768 81.84890440000001 L 51.783205 81.84890440000001" />
<path class="stroke" d="M 30.613234300000002 26.27226262 L 30.613234300000002 92.4912352" />
</svg>
