<?xml version="1.0" standalone="no"?>
<!DOCTYPE svg PUBLIC "-//W3C//DTD SVG 1.1//EN" "http://www.w3.org/Graphics/SVG/1.1/DTD/svg11.dtd">
<svg xmlns="http://www.w3.org/2000/svg" version="1.1" width="100%" height="100%">
<style type="text/css"><![CDATA[
  .stroke { fill:none; stroke:black; stroke-width:2 }
]]></style>
<path class="stroke" d="M 11.215692874999998 19.97444995 L 11.215692874999998 45.594887 L 38.268245 45.594887" />
<path class="stroke" d="M 25.15775 47.46846000000001 L 25.15775 61.2066" />
<path class="stroke" d="M 15.5362575 49.723986000000004 C 12.697158 54.5084449 9.384857 57.857501 5.1261825 59.771296" />
<path class="stroke" d="M 34.62144 49.92897 C 38.8800925 52.457924999999996 41.7191925 55.601975 44.87379 59.976345" />
<path class="stroke" d="M 16.95912358 5.803502926 L 16.95912358 38.51415776" />
<path class="stroke" d="M 16.95912358 5.803502926 L 36.92992668 5.803502926 L 36.92992668 38.39649385" />
<path class="stroke" d="M 16.95912358 15.795527644 L 36.92992668 15.795527644" />
<path class="stroke" d="M 16.95912358 27.01492352 L 36.92992668 27.01492352" />
<path class="stroke" d="M 16.95912358 37.33751463 L 36.92992668 37.33751463" />
<path class="stroke" d="M 84.235 5.7720962 C 79.77652 10.4280293 70.01836 14.8707182 59.503119999999996 16.7011065" />
<path class="stroke" d="M 73.61313799999999 14.710401355 C 70.69343 19.22718941 67.043795 23.2600355325 63.3941595 26.80894138 L 70.90895 34.2285125" />
<path class="stroke" d="M 81.9343035 24.0666048675 C 77.59715 29.055068249999998 69.58565 36.860954 61.934305 44.23083548 L 86.31386499999999 41.327188305" />
<path class="stroke" d="M 84.270073 36.326459975000006 C 86.16788 38.746166875 87.48175 41.00456256 87.919705 44.23083548" />
<path class="stroke" d="M 74.92700500000001 42.940326975 L 74.9178085 60.716232135" />
<path class="stroke" d="M 60.912408 49.554193975000004 C 60.182480999999996 52.296527725 59.014598 54.71623794 57.116788 56.8133202" />
<path class="stroke" d="M 87.919705 49.7155074 C 89.817515 51.489960599999996 90.9854 53.58704065 91.861313 56.8133202" />
<path class="stroke" d="M 17.4453 74.13248 C 16.6042 80.77808 14.5012 85.15248000000001 10.8207 90.03152" />
<path class="stroke" d="M 33.21814 70.09464 L 33.21814 91.54576 C 33.21814 93.81704 35.11094 95.33120000000001 37.95004 95.33120000000001 L 72.01944 95.33120000000001 C 74.64824 95.33120000000001 76.96164 93.56464 77.06674 90.78864 L 77.06674 86.4984" />
<path class="stroke" d="M 45.2056 70.094656 C 50.6735 73.964256 54.2487 78.086256 57.5084 83.470016" />
<path class="stroke" d="M 77.0667 70.34703999999999 C 83.6913 75.05776 87.7923 79.7688 91.8932 86.24607999999999" />
</svg>
