<?xml version="1.0" standalone="no"?>
<!DOCTYPE svg PUBLIC "-//W3C//DTD SVG 1.1//EN" "http://www.w3.org/Graphics/SVG/1.1/DTD/svg11.dtd">
<svg xmlns="http://www.w3.org/2000/svg" version="1.1" width="100%" height="100%">
<style type="text/css"><![CDATA[
  .stroke { fill:none; stroke:black; stroke-width:2 }
]]></style>
<path class="stroke" d="M 24.18978 8.796478235294117 C 28.8613128 11.544439411764706 32.5985384 15.322884705882352 35.4014584 18.929583529411765" />
<path class="stroke" d="M 73.708024 8.796478235294117 C 71.8020448 12.197079411764706 67.868608 16.18162117647059 63.897808 19.10133" />
<path class="stroke" d="M 6.782337 23.8533132 L 94.164055 23.8533132" />
<path class="stroke" d="M 51.5773 23.8533132 C 40.2208 34.15406 24.1325 40.965835 10.2524 45.03631" />
<path class="stroke" d="M 38.959 33.07413 C 53.2597 41.38121700000001 58.7276 77.350707 49.6845 89.395916 C 46.4248 93.217146 39.3796 90.558875 36.4354 89.894327" />
<path class="stroke" d="M 48.7382 45.285476 C 37.1714 54.007787 25.2892 58.743047000000004 8.99054 64.22556800000001" />
<path class="stroke" d="M 52.5237 59.73971100000001 C 44.2166 68.462259 24.5531 77.43373600000001 8.67508 82.66717000000001" />
<path class="stroke" d="M 83.43847 34.5694025 C 77.02417 41.0489035 69.34807 46.5315035 61.98737 50.7681945" />
<path class="stroke" d="M 52.83908 56.7491976 C 64.82648 66.88379397 76.49848 77.0184646 91.00948 83.4148576" />
</svg>
