<?xml version="1.0" standalone="no"?>
<!DOCTYPE svg PUBLIC "-//W3C//DTD SVG 1.1//EN" "http://www.w3.org/Graphics/SVG/1.1/DTD/svg11.dtd">
<svg xmlns="http://www.w3.org/2000/svg" version="1.1" width="100%" height="100%">
<style type="text/css"><![CDATA[
  .stroke { fill:none; stroke:black; stroke-width:2 }
]]></style>
<path class="stroke" d="M 8.003300000000001 33.069305 L 25.825083333333335 30.9901" />
<path class="stroke" d="M 19.389438333333334 9.60396 L 19.389438333333334 84.15842 C 19.389438333333334 87.42574 17.161715833333336 90.09901 14.191419166666668 90.09901" />
<path class="stroke" d="M 8.498349166666667 63.36634 L 24.09241 46.435642" />
<path class="stroke" d="M 39.313900000000004 6.15142 C 38.525275 22.1346 36.5536 35.5941 30.55993 51.2618" />
<path class="stroke" d="M 38.84068 18.1388 L 54.69238 18.4543 C 52.405405 50.6309 43.966854999999995 75.8676 30.086755 94.1641" />
<path class="stroke" d="M 35.52835 36.1199 C 42.152950000000004 62.5132 54.692425 93.6383 68.651425 93.8486 L 95.38645 93.8486" />
<path class="stroke" d="M 69.61434700000001 11.2823293 L 69.61434700000001 52.421152000000006 C 69.7515895 67.922689 64.399828 79.591468 58.08753865 79.76181100000001" />
<path class="stroke" d="M 69.61434700000001 11.0268148 L 83.885653 11.0268148 L 83.885653 71.58518500000001 C 83.70269199999998 76.780687 85.029181 80.187709 87.0417955 80.017285 L 92.53071249999999 80.017285 C 95.0464915 80.017285 95.778379 75.929053 95.68689850000001 71.58518500000001 L 95.68689850000001 67.752346" />
</svg>
