<?xml version="1.0" standalone="no"?>
<!DOCTYPE svg PUBLIC "-//W3C//DTD SVG 1.1//EN" "http://www.w3.org/Graphics/SVG/1.1/DTD/svg11.dtd">
<svg xmlns="http://www.w3.org/2000/svg" version="1.1" width="100%" height="100%">
<style type="text/css"><![CDATA[
  .stroke { fill:none; stroke:black; stroke-width:2 }
]]></style>
<path class="stroke" d="M 8.69085 22.0316 L 2.3817 38.1199" />
<path class="stroke" d="M 20.6782 22.0316 L 27.6183 38.1199" />
<path class="stroke" d="M 14.6845 7.3123 L 14.6845 93.3186" />
<path class="stroke" d="M 44.051093 15.864263617021276 L 85.74452099999999 15.864263617021276" />
<path class="stroke" d="M 65.10218599999999 9.15514659574468 L 65.10218599999999 39.06662265957447" />
<path class="stroke" d="M 45.890511 27.32567170212766 L 84.109482 27.32567170212766" />
<path class="stroke" d="M 37.1021895 39.06662265957447 L 93.10218599999999 39.06662265957447" />
<path class="stroke" d="M 52.6350362 49.51824728 L 52.597316 75.1570504 C 52.026179 86.42512959999999 52.983975 87.95052480000001 47.6282729 93.8136128" />
<path class="stroke" d="M 52.6350362 49.51824728 L 81.248176 49.51824728 L 81.248176 92.19269840000001 C 81.248176 93.5007296 80.430653 94.645252 78.3868588 94.645252 L 76.13868699999999 94.645252" />
<path class="stroke" d="M 52.6350362 61.843043120000004 L 81.248176 61.843043120000004" />
<path class="stroke" d="M 52.6350362 74.86178816 L 81.248176 74.86178816" />
</svg>
