<?xml version="1.0" standalone="no"?>
<!DOCTYPE svg PUBLIC "-//W3C//DTD SVG 1.1//EN" "http://www.w3.org/Graphics/SVG/1.1/DTD/svg11.dtd">
<svg xmlns="http://www.w3.org/2000/svg" version="1.1" width="100%" height="100%">
<style type="text/css"><![CDATA[
  .stroke { fill:none; stroke:black; stroke-width:2 }
]]></style>
<path class="stroke" d="M 13.154171785714285 14.059406 C 16.654879285714284 16.138615 20.15558785714286 19.108912 23.01980357142857 22.673267" />
<path class="stroke" d="M 10.926448928571428 38.118813 C 14.108912142857141 39.90099 17.927864999999997 42.574257 20.473834285714286 46.138615" />
<path class="stroke" d="M 10.608203571428572 85.64356 C 11.321795357142857 87.422676 13.310014285714285 89.896904 15.629600357142856 89.896904 C 17.949189642857142 89.896904 21.110325 76.73267 23.33804892857143 69.60396" />
<path class="stroke" d="M 62.5 7.392605754000003 L 62.5 17.85" />
<path class="stroke" d="M 30.625 17.85 L 94.375 17.85" />
<path class="stroke" d="M 62.00291872 19.014065167200002 C 57.79853919999999 26.3982692985 47.766376 34.66765086 35.93576512 40.572546935999995 C 53.59415896 39.63891156 68.94014536 39.214533165 85.741624 39.276612150000005" />
<path class="stroke" d="M 77.5591228 33.952224206400004 C 82.39415679999999 35.56486733999999 86.59853632 38.0262692985 89.3313856 41.336428047" />
<path class="stroke" d="M 41.2065925 47.775993 L 41.2065925 72.41324300000001 C 41.4432175 83.51730300000001 36.4746925 89.76354300000001 30.7965325 93.23348750000001" />
<path class="stroke" d="M 59.42435725 49.51103950000001 L 59.42435725 90.457434" />
<path class="stroke" d="M 78.115165 47.776026 L 78.115165 87.33444050000001 C 78.115165 91.151446 79.771315 93.23341600000002 81.427465 93.23341600000002 L 90.891115 93.23341600000002 C 93.02051499999999 93.34902600000001 94.44004 90.68867600000002 94.44004 87.3343316 L 94.44004 82.12935600000002" />
</svg>
