<?xml version="1.0" standalone="no"?>
<!DOCTYPE svg PUBLIC "-//W3C//DTD SVG 1.1//EN" "http://www.w3.org/Graphics/SVG/1.1/DTD/svg11.dtd">
<svg xmlns="http://www.w3.org/2000/svg" version="1.1" width="100%" height="100%">
<style type="text/css"><![CDATA[
  .stroke { fill:none; stroke:black; stroke-width:2 }
]]></style>
<path class="stroke" d="M 13.886999999999999 8.990537 L 13.886999999999999 74.60566" />
<path class="stroke" d="M 13.886999999999999 8.990537 L 38.91786956521739 8.990537 L 38.91786956521739 74.60566" />
<path class="stroke" d="M 13.886999999999999 31.072573 L 38.57493478260869 31.072573" />
<path class="stroke" d="M 13.886999999999999 53.1546 L 38.57493478260869 53.1546" />
<path class="stroke" d="M 13.886999999999999 74.60566 L 38.91786956521739 74.60566" />
<path class="stroke" d="M 20.05891304347826 82.1766 C 17.773043478260867 87.4343 13.429782608695652 91.7455 7.02920652173913 95.1104" />
<path class="stroke" d="M 32.06011956521739 82.49213 C 35.374684782608696 85.43633 37.66055434782608 88.38063 38.91783695652173 92.58673" />
<path class="stroke" d="M 58.123 21.6088 L 95.03155000000001 21.6088" />
<path class="stroke" d="M 81.11989 5.83596 L 81.11989 89.4321 C 81.11989 93.0073 79.70032 95.3207 76.86118 95.4259 L 72.03466 95.4259" />
<path class="stroke" d="M 81.11980000000001 21.2933 C 77.42899 58.0966 65.50471 70.6099 49.88962 75.5521" />
</svg>
