<?xml version="1.0" standalone="no"?>
<!DOCTYPE svg PUBLIC "-//W3C//DTD SVG 1.1//EN" "http://www.w3.org/Graphics/SVG/1.1/DTD/svg11.dtd">
<svg xmlns="http://www.w3.org/2000/svg" version="1.1" width="100%" height="100%">
<style type="text/css"><![CDATA[
  .stroke { fill:none; stroke:black; stroke-width:2 }
]]></style>
<path class="stroke" d="M 29.256491511627907 11.89781 C 28.339840465116282 30.875912 22.534372674418606 45.47445 17.03445697674419 55.693428 C 27.728738372093026 60.9489 36.895263488372095 70.0 43.9229323255814 81.386856" />
<path class="stroke" d="M 42.68938604651163 26.831684 C 40.513468604651166 53.564358 31.700898837209305 69.70802 16.728908023255816 79.34306" />
<path class="stroke" d="M 10.617891279069768 33.79562 L 44.554455000000004 29.80198" />
<path class="stroke" d="M 71.952849693 10.07080263 L 71.952849693 54.9525501 C 71.952849693 56.240140950000004 71.08445062300001 56.9759085 70.454962764 56.9759085 L 69.35335672 56.9759085" />
<path class="stroke" d="M 59.438903941 26.809486200000002 C 58.652042635 33.2474436 56.291459256 38.76569235 52.986641124 43.18029197999999" />
<path class="stroke" d="M 83.04474366 26.809486200000002 C 86.192188345 30.6722619 88.867515384 35.82262719 90.44123799600001 43.54817292" />
<path class="stroke" d="M 83.89036250000001 46.012672 C 79.3538591 63.644608 69.4249313 80.468992 58.725674600000005 87.40064000000001" />
</svg>
