<?xml version="1.0" standalone="no"?>
<!DOCTYPE svg PUBLIC "-//W3C//DTD SVG 1.1//EN" "http://www.w3.org/Graphics/SVG/1.1/DTD/svg11.dtd">
<svg xmlns="http://www.w3.org/2000/svg" version="1.1" width="100%" height="100%">
<style type="text/css"><![CDATA[
  .stroke { fill:none; stroke:black; stroke-width:2 }
]]></style>
<path class="stroke" d="M 14.525547 21.204379 L 42.146595 21.204379" />
<path class="stroke" d="M 30.0 5.875911299999999 L 29.584415 44.92727119999999" />
<path class="stroke" d="M 30.0 23.043792800000002 C 25.620438 30.1970781 19.197079 37.7591235 10.145985 43.0729915" />
<path class="stroke" d="M 30.0 24.678831799999998 C 35.547443 27.335765799999997 38.46715 29.788318 41.38686 33.26277219999999" />
<path class="stroke" d="M 49.685863 21.204379 L 81.386856 21.204379" />
<path class="stroke" d="M 64.74452 5.875911299999999 L 64.80519 44.272724999999994" />
<path class="stroke" d="M 64.16058 23.861313 C 60.65693 31.832114999999995 51.605835 39.598540799999995 42.846714 44.7080249" />
<path class="stroke" d="M 64.16058 23.656934 C 69.41605 32.445251999999996 75.682434 35.235963 84.44156 40.345452" />
<path class="stroke" d="M 16.5615 55.296532 L 83.4385 55.296532" />
<path class="stroke" d="M 7.097795 68.64668420000001 L 93.53311 68.64668420000001" />
<path class="stroke" d="M 50.31547 68.791782 L 50.31547 90.413254 C 50.31547 91.961108 47.79177 92.928488 45.58357 92.880142 L 41.48257 92.880142" />
<path class="stroke" d="M 32.6498 74.45107 C 26.8664 79.916928 20.1367 84.367014 7.72871 87.801282" />
<path class="stroke" d="M 68.6121 74.59624600000001 C 77.7604 78.030514 85.0158 82.33547 91.0095 87.801282" />
</svg>
