<?xml version="1.0" standalone="no"?>
<!DOCTYPE svg PUBLIC "-//W3C//DTD SVG 1.1//EN" "http://www.w3.org/Graphics/SVG/1.1/DTD/svg11.dtd">
<svg xmlns="http://www.w3.org/2000/svg" version="1.1" width="100%" height="100%">
<style type="text/css"><![CDATA[
  .stroke { fill:none; stroke:black; stroke-width:2 }
]]></style>
<path class="stroke" d="M 25.912407 10.729925 C 21.824816 18.029196 16.27737 23.86861 11.021896 28.540146 C 15.109488 31.45985 20.07299 36.131386 24.744522 40.218975" />
<path class="stroke" d="M 37.007298 25.912407 C 30.0 34.67153 20.656933 45.18248 8.978102 56.277367 C 19.48905 54.525543 31.167881 52.48175 41.67883 50.437954" />
<path class="stroke" d="M 38.17518 43.430653 C 41.094887 46.642334 41.970802 49.85401 43.722626 55.40146" />
<path class="stroke" d="M 26.49635 54.233574 L 26.49635 89.56204" />
<path class="stroke" d="M 17.445253 65.03649 C 15.69343 70.87591 13.649633 74.67153 9.562042 78.75912" />
<path class="stroke" d="M 34.08759 65.32846 C 37.299267 68.540146 37.35135 68.81081 38.97297 71.72973" />
<path class="stroke" d="M 75.0 9.678831933333333 L 75.0 23.71666666666667" />
<path class="stroke" d="M 58.4306565 23.71666666666667 L 91.715325 23.71666666666667" />
<path class="stroke" d="M 66.459852 34.827735759999996 C 64.708029 39.87299176 61.204378 43.86715072 57.7007295 45.338684560000004" />
<path class="stroke" d="M 82.81022 34.40729896 C 86.60584 36.92992624 89.67152999999999 40.92408664 92.00729749999999 46.17956176" />
<path class="stroke" d="M 81.49635 47.651092 C 78.1386835 63.207296799999995 68.503649 85.9109416 54.781021 90.3255424" />
<path class="stroke" d="M 67.9197065 50.38394128 C 70.985401 62.78686 85.29196999999999 83.1781024 95.36496 90.115324" />
</svg>
