<?xml version="1.0" standalone="no"?>
<!DOCTYPE svg PUBLIC "-//W3C//DTD SVG 1.1//EN" "http://www.w3.org/Graphics/SVG/1.1/DTD/svg11.dtd">
<svg xmlns="http://www.w3.org/2000/svg" version="1.1" width="100%" height="100%">
<style type="text/css"><![CDATA[
  .stroke { fill:none; stroke:black; stroke-width:2 }
]]></style>
<path class="stroke" d="M 23.770715441176474 11.605839 C 20.979818382352942 27.372261 15.183339705882354 41.970802 10.245597794117646 50.14598" />
<path class="stroke" d="M 19.477026470588235 30.583939 L 19.477026470588235 90.43795" />
<path class="stroke" d="M 38.858028595 25.53503562 L 87.8478025 25.53503562" />
<path class="stroke" d="M 62.85467125 7.286915429999999 L 62.59112250999999 7.5448602 C 59.81446732 28.615735199999996 51.521963334999995 36.176637899999996 32.282710030000004 49.331777699999996" />
<path class="stroke" d="M 68.91635572 25.600933379999997 C 74.71448439999999 34.37102796 79.45841107 42.10934622 91.31822844999999 49.8476631" />
<path class="stroke" d="M 39.630710005 30.672756137647056 C 42.42208066 33.0833265 44.13984841 34.047554011764696 46.50177748 37.261647476470586" />
<path class="stroke" d="M 86.22513219999999 31.476279767647053 C 84.5073574 33.40473637411764 84.72208348000001 34.851078169411764 78.49518085 38.065171106470586" />
<path class="stroke" d="M 43.5583915 45.422364687 L 43.5583915 69.658508256" />
<path class="stroke" d="M 43.5583915 45.422364687 L 81.222625 45.422364687 L 81.222625 69.658508256" />
<path class="stroke" d="M 43.77737125 56.8802268042 L 81.0036475 56.8802268042" />
<path class="stroke" d="M 43.5583915 68.6005821816 L 81.222625 68.6005821816" />
<path class="stroke" d="M 62.50396525 69.9831020355 L 62.50396525 93.884413585 C 62.50396525 94.5701068075 61.29561775 94.961932225 60.419707 94.961932225 L 58.88686 94.961932225" />
<path class="stroke" d="M 45.09123925 78.89711527 C 43.99634875 82.32558306 40.711678 85.2642694975 36.113137 87.615218983" />
<path class="stroke" d="M 77.937955 78.89711527 C 82.31751625 80.954196615 86.040142 83.6969705115 88.229923 87.811130182" />
</svg>
