<?xml version="1.0" standalone="no"?>
<!DOCTYPE svg PUBLIC "-//W3C//DTD SVG 1.1//EN" "http://www.w3.org/Graphics/SVG/1.1/DTD/svg11.dtd">
<svg xmlns="http://www.w3.org/2000/svg" version="1.1" width="100%" height="100%">
<style type="text/css"><![CDATA[
  .stroke { fill:none; stroke:black; stroke-width:2 }
]]></style>
<path class="stroke" d="M 15.424913 7.17380676 L 15.424913 38.945169" />
<path class="stroke" d="M 15.424913 7.33306248 L 43.504078 7.33306248" />
<path class="stroke" d="M 15.6151 17.115138 L 38.0126 17.115138" />
<path class="stroke" d="M 15.6151 27.544171499999997 L 37.3817 27.544171499999997" />
<path class="stroke" d="M 6.15142 39.2318676 L 46.8454 39.2318676" />
<path class="stroke" d="M 19.716 39.591491999999995 C 17.5078 46.364346 13.4069 50.979521999999996 6.15142 57.03315 C 17.9285 54.455895 28.7591 53.316978 39.9053 52.71768" />
<path class="stroke" d="M 33.5962 46.963758 C 38.1178 49.660883999999996 40.7466 52.358067 43.3754 55.594640999999996" />
<path class="stroke" d="M 83.66413 6.899677799999999 C 75.19635 14.189641499999999 62.834694 18.768508499999996 50.843895 18.648010499999998" />
<path class="stroke" d="M 88.48511 22.0821123 C 78.84295 31.059099299999996 70.12805 34.613676299999995 55.10859 36.1801503" />
<path class="stroke" d="M 93.49164 38.34912 C 82.86065 49.73600999999999 67.964806 54.25451399999999 50.84388 55.700489999999995" />
<path class="stroke" d="M 20.891088 70.2574249 L 80.0 70.2574249" />
<path class="stroke" d="M 52.07921 63.6633663 L 47.92079 72.34554469 C 44.653465 78.5 30.69307 85.533663 14.653465 89.2702967" />
<path class="stroke" d="M 46.138615 76.63168389 L 71.38614 76.63168389 C 68.71287 83.9950513 53.57523 90.44430299999999 30.396038 93.11683149999999" />
<path class="stroke" d="M 42.87129 79.92871245 C 53.564358 87.29207875 63.960396 91.24851428 89.50495 93.11683149999999" />
</svg>
