<?xml version="1.0" standalone="no"?>
<!DOCTYPE svg PUBLIC "-//W3C//DTD SVG 1.1//EN" "http://www.w3.org/Graphics/SVG/1.1/DTD/svg11.dtd">
<svg xmlns="http://www.w3.org/2000/svg" version="1.1" width="100%" height="100%">
<style type="text/css"><![CDATA[
  .stroke { fill:none; stroke:black; stroke-width:2 }
]]></style>
<path class="stroke" d="M 8.350785 20.157066 L 41.96335 20.157066" />
<path class="stroke" d="M 11.4963495 34.67153 L 11.350365 62.70073" />
<path class="stroke" d="M 11.350365 34.67153 L 38.64963 34.67153 L 38.64963 62.70073" />
<path class="stroke" d="M 11.350365 48.63624 L 38.503645 48.63624" />
<path class="stroke" d="M 11.350365 62.9927 L 38.64963 62.9927" />
<path class="stroke" d="M 7.554744 77.59124 L 42.44525 77.59124" />
<path class="stroke" d="M 25.092815 8.978102 L 25.092815 90.72992" />
<path class="stroke" d="M 60.42262536 15.109488 L 60.42262536 30.875912 C 60.42262536 53.941605 55.77153205 73.50365 48.0197079 84.8905" />
<path class="stroke" d="M 48.70875887 32.335766 L 75.0649598 27.372261 L 75.0649598 70.87591 C 75.0649598 78.17518 77.47664026000001 82.26277 80.9218957 82.55474 L 90.39634934 82.55474 C 92.291237 82.26277 94.0138659 80.21897 94.18612819999998 76.131386 L 94.18612819999998 71.45985" />
</svg>
