<?xml version="1.0" standalone="no"?>
<!DOCTYPE svg PUBLIC "-//W3C//DTD SVG 1.1//EN" "http://www.w3.org/Graphics/SVG/1.1/DTD/svg11.dtd">
<svg xmlns="http://www.w3.org/2000/svg" version="1.1" width="100%" height="100%">
<style type="text/css"><![CDATA[
  .stroke { fill:none; stroke:black; stroke-width:2 }
]]></style>
<path class="stroke" d="M 20.268612 13.649633 L 43.64963408 11.605839 L 40.61313776 31.167881" />
<path class="stroke" d="M 20.57226184 32.919704 L 40.916785520000005 31.167881" />
<path class="stroke" d="M 20.8759096 32.627735 L 17.535765519999998 51.313866 L 42.73868248 48.68613 L 40.916785520000005 70.87591 C 39.7021872 84.014595 36.36204000000001 88.10219 33.021895920000006 88.10219 L 29.07445112 88.10219" />
<path class="stroke" d="M 19.35766352 60.65693 C 24.216058880000002 61.532845 27.25255104 63.284668 30.592700320000002 65.62044" />
<path class="stroke" d="M 18.14306312 81.678825 C 22.697808639999998 80.21897 26.341603600000003 78.46715 31.80729656 74.9635" />
<path class="stroke" d="M 62.607298 13.649633 L 88.68613031999999 11.605839 L 85.29926904 31.167881" />
<path class="stroke" d="M 62.94598436 32.919704 L 85.63795307999999 31.167881" />
<path class="stroke" d="M 63.2846684 32.627735 L 59.55912308 51.313866 L 87.67006892 48.68613 L 85.63795307999999 70.87591 C 84.2832088 84.014595 80.55766 88.10219 76.83211467999999 88.10219 L 72.42919548 88.10219" />
<path class="stroke" d="M 61.59124008 60.65693 C 67.01021951999999 61.532845 70.39707616 63.284668 74.12262727999999 65.62044" />
<path class="stroke" d="M 60.23649348 81.678825 C 65.31678656 80.21897 69.3810194 78.46715 75.47736924 74.9635" />
</svg>
