<?xml version="1.0" standalone="no"?>
<!DOCTYPE svg PUBLIC "-//W3C//DTD SVG 1.1//EN" "http://www.w3.org/Graphics/SVG/1.1/DTD/svg11.dtd">
<svg xmlns="http://www.w3.org/2000/svg" version="1.1" width="100%" height="100%">
<style type="text/css"><![CDATA[
  .stroke { fill:none; stroke:black; stroke-width:2 }
]]></style>
<path class="stroke" d="M 6.015702325581395 8.99054 L 35.348837209302324 8.99054" />
<path class="stroke" d="M 10.754855813953489 9.305995 L 10.754855813953489 82.438515" />
<path class="stroke" d="M 10.754855813953489 31.7035 L 28.36186046511628 31.7035" />
<path class="stroke" d="M 10.754855813953489 54.73183 L 28.36186046511628 54.73183" />
<path class="stroke" d="M 4.255004651162791 85.4858 L 28.36186046511628 79.4212" />
<path class="stroke" d="M 28.36186046511628 9.306 L 28.36186046511628 95.1104" />
<path class="stroke" d="M 54.41637 7.09779 L 54.41637 13.7224" />
<path class="stroke" d="M 38.643574 14.35327 L 69.55837 14.35327" />
<path class="stroke" d="M 43.05987 14.6688 C 45.89897 21.5037 46.84547 28.9694 47.79177 35.489" />
<path class="stroke" d="M 65.457375 14.6688 C 63.35437 21.3985 62.19747 28.1283 61.67187 35.489" />
<path class="stroke" d="M 35.8044 36.11992 L 94.164 36.11992" />
<path class="stroke" d="M 76.8139 7.09779 L 76.8139 41.1672 C 77.2345 69.1377 81.1251 93.0074 92.5867 93.2176 L 92.5867 82.4922" />
<path class="stroke" d="M 90.3785 52.208157 C 84.7003 71.97686 77.4448 85.12096 64.511 93.21766" />
<path class="stroke" d="M 84.3849 12.77603 C 87.9602 16.24609 89.958 19.40059 91.9558 23.81709" />
<path class="stroke" d="M 43.39269924 48.27372225 L 43.39269924 81.383208" />
<path class="stroke" d="M 43.39269924 48.27372225 L 64.48467 48.27372225 L 64.48467 81.383208" />
<path class="stroke" d="M 43.5153279 63.92653935 L 64.3620426 63.92653935" />
<path class="stroke" d="M 43.39269924 79.9379538 L 64.48467 79.9379538" />
</svg>
