<?xml version="1.0" standalone="no"?>
<!DOCTYPE svg PUBLIC "-//W3C//DTD SVG 1.1//EN" "http://www.w3.org/Graphics/SVG/1.1/DTD/svg11.dtd">
<svg xmlns="http://www.w3.org/2000/svg" version="1.1" width="100%" height="100%">
<style type="text/css"><![CDATA[
  .stroke { fill:none; stroke:black; stroke-width:2 }
]]></style>
<path class="stroke" d="M 29.256491511627907 11.89781 C 28.339840465116282 30.875912 22.534372674418606 45.47445 17.03445697674419 55.693428 C 27.728738372093026 60.9489 36.895263488372095 70.0 43.9229323255814 81.386856" />
<path class="stroke" d="M 42.68938604651163 26.831684 C 40.513468604651166 53.564358 31.700898837209305 69.70802 16.728908023255816 79.34306" />
<path class="stroke" d="M 10.617891279069768 33.79562 L 44.554455000000004 29.80198" />
<path class="stroke" d="M 71.28550100000001 10.729925 L 71.28550100000001 23.86861" />
<path class="stroke" d="M 52.98905085 23.86861 L 92.171531 23.86861" />
<path class="stroke" d="M 70.492698 39.343063 L 87.83576550000001 39.343063 C 87.03284525000001 53.06569 86.39050850000001 62.116783 85.10583500000001 70.29197 C 83.5 79.63503 80.609486 88.10219 78.0401445 88.10219 L 74.82846570000001 88.10219" />
<path class="stroke" d="M 71.29561825 23.86861 L 70.17153210000001 41.38686 C 69.0474443 60.07299 64.8722623 78.46715 58.6094871 84.014595" />
</svg>
