<?xml version="1.0" standalone="no"?>
<!DOCTYPE svg PUBLIC "-//W3C//DTD SVG 1.1//EN" "http://www.w3.org/Graphics/SVG/1.1/DTD/svg11.dtd">
<svg xmlns="http://www.w3.org/2000/svg" version="1.1" width="100%" height="100%">
<style type="text/css"><![CDATA[
  .stroke { fill:none; stroke:black; stroke-width:2 }
]]></style>
<path class="stroke" d="M 54.10092 6.46688 L 54.10092 14.66882" />
<path class="stroke" d="M 18.7697 14.98422 L 93.8486 14.98422" />
<path class="stroke" d="M 18.7697 15.2997 L 18.7697 59.7792 C 19.0852 71.2408 14.6687 79.2323 6.46688 87.5394" />
<path class="stroke" d="M 5.83596 25.07884 C 8.78023 28.65404 10.4627 32.22924 11.8297 36.43534" />
<path class="stroke" d="M 6.15141 58.20189 C 8.14931 57.04519 10.4627 54.62679 12.1451 52.20829" />
<path class="stroke" d="M 31.7475245 34.950513900000004 L 31.7475245 54.05148648 C 31.7475245 77.19009559999999 29.2227729 82.3049522 26.1930703 87.17624092" />
<path class="stroke" d="M 31.737112 35.05346408 L 84.1829875 35.05346408 L 84.1829875 37.6134024 C 84.1829875 39.76907088 83.92009949999999 41.2907211 82.737112 43.19278326" />
<path class="stroke" d="M 58.5099003 22.8752472 L 58.5099003 49.6673286" />
<path class="stroke" d="M 42.351487000000006 49.6673286 L 74.9207925 49.6673286 C 71.35381 74.107322 52.198018749999996 87.90692979999999 34.019800599999996 88.6376236" />
<path class="stroke" d="M 46.2853397 50.84816796 C 46.304610049999994 60.4859453 67.91360925000001 88.456543 83.667539 88.456543" />
</svg>
