<?xml version="1.0" standalone="no"?>
<!DOCTYPE svg PUBLIC "-//W3C//DTD SVG 1.1//EN" "http://www.w3.org/Graphics/SVG/1.1/DTD/svg11.dtd">
<svg xmlns="http://www.w3.org/2000/svg" version="1.1" width="100%" height="100%">
<style type="text/css"><![CDATA[
  .stroke { fill:none; stroke:black; stroke-width:2 }
]]></style>
<path class="stroke" d="M 20.725624 7.47572 C 17.90744 20.0456 13.827441 32.5976 6.954414 42.312" />
<path class="stroke" d="M 18.389303 21.38539 L 33.83292 21.38539 C 32.597458 28.04429 30.589748 31.53239 28.118773 35.33749" />
<path class="stroke" d="M 13.608352 36.605915 L 13.608352 71.54349" />
<path class="stroke" d="M 13.608352 36.605915 L 43.877884 36.605915 L 43.877884 71.54349" />
<path class="stroke" d="M 28.588663 37.08778 L 28.588663 70.82066" />
<path class="stroke" d="M 13.762808 53.954113 L 43.8779 53.954113" />
<path class="stroke" d="M 13.608352 71.54349 L 43.877884 71.54349" />
<path class="stroke" d="M 13.930401 81.6759 L 9.297291 94.0425" />
<path class="stroke" d="M 21.96106 80.72953 L 22.424377 93.09613" />
<path class="stroke" d="M 32.462723 79.78306 L 34.62487 92.14976" />
<path class="stroke" d="M 42.326977 78.52123 L 46.805565 90.88793" />
<path class="stroke" d="M 75.07299 9.601459859999999 L 75.07299 20.85401318" />
<path class="stroke" d="M 55.656934 21.09343104 L 94.051095 21.09343104" />
<path class="stroke" d="M 64.771167605 35.246817005 L 64.771167605 59.64810087" />
<path class="stroke" d="M 64.771167605 35.246817005 L 84.820802 35.246817005 L 84.820802 59.413473778" />
<path class="stroke" d="M 64.771167605 57.771078508799995 L 84.820802 57.771078508799995" />
<path class="stroke" d="M 75.0026435 58.45401441 L 75.0026435 87.6627707 C 75.0026435 88.50072664999999 74.1970785 88.9795595 73.61313799999999 88.9795595 L 72.59124 88.9795595" />
<path class="stroke" d="M 63.3941595 69.3474434 C 62.6642325 73.5372252 60.474452 77.12846644999999 57.408758 80.00145986" />
<path class="stroke" d="M 85.29196999999999 69.3474434 C 88.21167750000001 71.86131329999999 90.693428 75.21313832999999 92.15328199999999 80.24087443999998" />
</svg>
