<?xml version="1.0" standalone="no"?>
<!DOCTYPE svg PUBLIC "-//W3C//DTD SVG 1.1//EN" "http://www.w3.org/Graphics/SVG/1.1/DTD/svg11.dtd">
<svg xmlns="http://www.w3.org/2000/svg" version="1.1" width="100%" height="100%">
<style type="text/css"><![CDATA[
  .stroke { fill:none; stroke:black; stroke-width:2 }
]]></style>
<path class="stroke" d="M 26.788319 7.725060833333334 C 24.452553 14.294403333333333 21.824816 18.430655833333333 16.861313 21.593672500000004" />
<path class="stroke" d="M 24.452553 15.024329999999999 L 47.226276 15.024329999999999" />
<path class="stroke" d="M 30.0 15.510948333333333 C 34.08759 19.403893333333336 35.547443 22.56691 36.423355 28.406325" />
<path class="stroke" d="M 65.32846 7.725060833333334 C 63.284668 15.754255833333335 60.07299 19.160582500000004 57.44525 21.593672500000004" />
<path class="stroke" d="M 62.9927 15.267639166666667 L 86.35036 15.267639166666667" />
<path class="stroke" d="M 72.62773 15.754255833333335 C 72.9197 21.107054166666668 71.16788 24.756689166666668 67.9562 28.406325" />
<path class="stroke" d="M 12.6309064 36.514193 L 44.25237040000001 36.514193 L 44.25237040000001 68.97474" />
<path class="stroke" d="M 13.160890400000001 53.29656 L 43.8990664 53.29656" />
<path class="stroke" d="M 12.984210400000002 68.97474 L 44.25237040000001 68.97474" />
<path class="stroke" d="M 12.6309064 36.514193 L 12.6309064 90.83595 M 4.5047352 93.26495 L 42.839104000000006 84.43221" />
<path class="stroke" d="M 36.8328016 78.91169500000001 C 41.9557936 81.119775 45.13564160000001 86.419545 46.195553600000004 92.16087499999999" />
<path class="stroke" d="M 60.867508 36.5141979 L 89.384872 36.5141979 L 89.384872 74.4952585 C 89.384872 77.58674199999999 87.365904 79.13247849999999 84.8422272 79.13247849999999 L 80.5520688 79.13247849999999" />
<path class="stroke" d="M 60.867508 36.5141979 L 60.867508 96.1356178" />
</svg>
