<?xml version="1.0" standalone="no"?>
<!DOCTYPE svg PUBLIC "-//W3C//DTD SVG 1.1//EN" "http://www.w3.org/Graphics/SVG/1.1/DTD/svg11.dtd">
<svg xmlns="http://www.w3.org/2000/svg" version="1.1" width="100%" height="100%">
<style type="text/css"><![CDATA[
  .stroke { fill:none; stroke:black; stroke-width:2 }
]]></style>
<path class="stroke" d="M 26.788319 6.437550694444444 C 24.452553 11.912002777777777 21.824816 15.35887986111111 16.861313 17.994727083333334" />
<path class="stroke" d="M 24.452553 12.520274999999998 L 47.226276 12.520274999999998" />
<path class="stroke" d="M 30.0 12.925790277777777 C 34.08759 16.169911111111112 35.547443 18.805758333333333 36.423355 23.6719375" />
<path class="stroke" d="M 65.32846 6.437550694444444 C 63.284668 13.128546527777779 60.07299 15.967152083333334 57.44525 17.994727083333334" />
<path class="stroke" d="M 62.9927 12.723032638888888 L 86.35036 12.723032638888888" />
<path class="stroke" d="M 72.62773 13.128546527777779 C 72.9197 17.589211805555557 71.16788 20.630574305555555 67.9562 23.6719375" />
<path class="stroke" d="M 19.48905 32.60948875 L 19.48905 92.8284625" />
<path class="stroke" d="M 19.48905 32.60948875 L 80.51095 32.60948875 L 80.51095 89.5437925 C 80.51095 91.51459750000001 79.63503 92.60948499999999 77.00729 92.60948499999999 L 74.087585 92.60948499999999" />
<path class="stroke" d="M 36.8010505088 44.32 L 63.198946879999994 44.32" />
<path class="stroke" d="M 34.79416016 55.54429156 L 34.79416016 75.07503544" />
<path class="stroke" d="M 34.79416016 55.54429156 L 65.34598399999999 55.54429156 L 65.34598399999999 74.88724033600002" />
<path class="stroke" d="M 34.79416016 73.5726701056 L 65.34598399999999 73.5726701056" />
</svg>
