<?xml version="1.0" standalone="no"?>
<!DOCTYPE svg PUBLIC "-//W3C//DTD SVG 1.1//EN" "http://www.w3.org/Graphics/SVG/1.1/DTD/svg11.dtd">
<svg xmlns="http://www.w3.org/2000/svg" version="1.1" width="100%" height="100%">
<style type="text/css"><![CDATA[
  .stroke { fill:none; stroke:black; stroke-width:2 }
]]></style>
<path class="stroke" d="M 28.766420899999996 10.729925 C 23.656934 15.109488 17.525546499999997 18.029196 12.0072988 19.781021" />
<path class="stroke" d="M 7.715327199999999 41.094887 L 31.627735999999995 37.299267" />
<path class="stroke" d="M 21.0 16.569342 L 21.0 86.642334" />
<path class="stroke" d="M 21.0 44.890507 C 16.2992704 57.153282 12.416057499999999 65.03649 7.102189499999999 68.540146" />
<path class="stroke" d="M 21.0 44.890507 C 25.291970199999998 48.394157 27.7445231 51.313866 29.788318 56.277367" />
<path class="stroke" d="M 87.6633652 6.6006599999999995 C 74.77227719999999 9.570957333333332 55.019801099999995 10.957096 43.3762384 10.957096" />
<path class="stroke" d="M 44.623761599999995 16.105611333333332 C 47.7425745 18.877888666666664 49.61617 21.906733333333335 51.069306999999995 25.016502666666668" />
<path class="stroke" d="M 60.4257429 15.115511333333332 C 63.3366348 17.29372933333333 65.207921 20.066006666666667 66.45544699999999 23.630363333333335" />
<path class="stroke" d="M 86.623763 13.927392 C 84.9603978 18.679868 82.46534299999999 22.244224666666668 78.93069299999999 24.81848133333333" />
<path class="stroke" d="M 37.83909 32.731880000000004 L 92.38168999999999 32.731880000000004 L 92.38168999999999 63.01576" />
<path class="stroke" d="M 37.61831 47.369068 L 92.38168999999999 47.369068" />
<path class="stroke" d="M 37.83909 63.01576 L 92.38168999999999 63.01576" />
<path class="stroke" d="M 42.21171 74.13248 C 41.62294 80.77808 40.15084 85.15248000000001 37.57449 90.03152" />
<path class="stroke" d="M 53.252697999999995 70.09464 L 53.252697999999995 91.54576 C 53.252697999999995 93.81704 54.577658 95.33120000000001 56.565028 95.33120000000001 L 80.413608 95.33120000000001 C 82.25376800000001 95.33120000000001 83.873148 93.56464 83.946718 90.78864 L 83.946718 86.4984" />
<path class="stroke" d="M 61.643919999999994 70.094656 C 65.47145 73.964256 67.97408999999999 78.086256 70.25587999999999 83.470016" />
<path class="stroke" d="M 83.94668999999999 70.34703999999999 C 88.58391 75.05776 91.45461 79.7688 94.32524 86.24607999999999" />
</svg>
