<?xml version="1.0" standalone="no"?>
<!DOCTYPE svg PUBLIC "-//W3C//DTD SVG 1.1//EN" "http://www.w3.org/Graphics/SVG/1.1/DTD/svg11.dtd">
<svg xmlns="http://www.w3.org/2000/svg" version="1.1" width="100%" height="100%">
<style type="text/css"><![CDATA[
  .stroke { fill:none; stroke:black; stroke-width:2 }
]]></style>
<path class="stroke" d="M 50.0 6.06204365 L 50.0 11.478102199999999" />
<path class="stroke" d="M 22.116787 11.784671049999998 L 78.46715 11.784671049999998" />
<path class="stroke" d="M 26.788319 16.1788325 C 32.627735 19.8576636 37.007298 24.660581999999998 39.343063 29.361313" />
<path class="stroke" d="M 74.087585 15.361312999999999 C 67.08029 19.142335 61.240875 24.967154 59.78102 30.9963485" />
<path class="stroke" d="M 11.313868 32.018246999999995 L 88.10219 32.018246999999995" />
<path class="stroke" d="M 35.034450256 42.754087305 L 35.034450256 67.84371984" />
<path class="stroke" d="M 35.034450256 42.754087305 L 67.576348 42.754087305 L 67.576348 67.84371984" />
<path class="stroke" d="M 35.223648759999996 54.615444263 L 67.38715144 54.615444263" />
<path class="stroke" d="M 35.034450256 66.748538324 L 67.576348 66.748538324" />
<path class="stroke" d="M 43.3065682 71.1070943784 L 43.3065682 78.8512104048 C 43.3065682 85.679356436 36.4744522 92.4242320528 19.3941604 94.17290334" />
<path class="stroke" d="M 58.8102166 71.02382481960001 L 58.8102166 90.675561336 C 58.8102166 92.75731314000001 62.2262782 94.006363652 65.90510470000001 94.006363652 L 86.40145000000001 94.006363652 C 89.29197099999999 94.089633496 91.394155 93.423471892 91.394155 92.50750075600001 L 91.394155 90.9253720088" />
</svg>
