<?xml version="1.0" standalone="no"?>
<!DOCTYPE svg PUBLIC "-//W3C//DTD SVG 1.1//EN" "http://www.w3.org/Graphics/SVG/1.1/DTD/svg11.dtd">
<svg xmlns="http://www.w3.org/2000/svg" version="1.1" width="100%" height="100%">
<style type="text/css"><![CDATA[
  .stroke { fill:none; stroke:black; stroke-width:2 }
]]></style>
<path class="stroke" d="M 5.0225124050000005 10.47445204 L 46.47905755000001 10.47445204" />
<path class="stroke" d="M 12.031386900000001 21.487588319999997 L 42.9802917 21.487588319999997 L 42.9802917 37.52846604" />
<path class="stroke" d="M 12.031386900000001 37.52846604 L 42.8255476 37.52846604" />
<path class="stroke" d="M 12.031386900000001 21.487588319999997 L 12.031386900000001 52.851091 C 12.031386900000001 64.343063 9.65544513 70.2277192 5.2475247000000005 74.3683174" />
<path class="stroke" d="M 71.78723724 7.955745616 C 67.15744839999999 25.262979840000003 66.0 26.10042616 52.689362440000004 40.057871168" />
<path class="stroke" d="M 66.86808528 23.029787904 L 89.14894079999999 23.588085232" />
<path class="stroke" d="M 82.4936176 23.588085232 C 78.44255432 47.03659728 59.344683599999996 55.969362399999994 39.136634 58.91009887999999" />
<path class="stroke" d="M 63.685106600000005 27.775320111999996 C 68.6042572 44.24510736 75.5489408 55.969362399999994 87.6118824 59.104950560000006" />
<path class="stroke" d="M 27.19124024 66.91751775 L 27.19124024 90.60218850000001" />
<path class="stroke" d="M 27.19124024 66.91751775 L 73.018976 66.91751775 L 73.018976 90.3744519" />
<path class="stroke" d="M 27.19124024 88.78029024 L 73.018976 88.78029024" />
</svg>
