<?xml version="1.0" standalone="no"?>
<!DOCTYPE svg PUBLIC "-//W3C//DTD SVG 1.1//EN" "http://www.w3.org/Graphics/SVG/1.1/DTD/svg11.dtd">
<svg xmlns="http://www.w3.org/2000/svg" version="1.1" width="100%" height="100%">
<style type="text/css"><![CDATA[
  .stroke { fill:none; stroke:black; stroke-width:2 }
]]></style>
<path class="stroke" d="M 36.021895 7.306569199999999 C 29.89051 9.5547431 19.525547 10.781021299999999 13.540146 10.985401" />
<path class="stroke" d="M 5.247525 27.930692999999998 L 44.90099 27.930692999999998" />
<path class="stroke" d="M 25.07299 9.963503199999998 L 25.07299 42.9009924" />
<path class="stroke" d="M 14.455446 42.9009924 L 14.455446 63.069307" />
<path class="stroke" d="M 14.455446 42.9009924 L 35.841585 42.9009924 L 35.841585 63.069307" />
<path class="stroke" d="M 14.455446 63.069307 L 35.69307 63.069307" />
<path class="stroke" d="M 71.861313 6.8978091 C 71.56934150000001 10.372261199999999 69.963503 13.437955299999999 67.7737215 15.277371199999997" />
<path class="stroke" d="M 63.248175 15.481750899999998 L 63.248175 63.10218599999999" />
<path class="stroke" d="M 63.248175 15.277371199999997 L 86.751825 15.277371199999997 L 86.751825 63.510944" />
<path class="stroke" d="M 63.248175 30.605838199999997 L 86.751825 30.605838199999997" />
<path class="stroke" d="M 63.248175 46.956203 L 86.60584 46.956203" />
<path class="stroke" d="M 63.248175 61.87591199999999 L 86.751825 61.87591199999999" />
<path class="stroke" d="M 17.4453 76.719232 C 16.6042 82.700272 14.5012 86.637232 10.8207 91.028368" />
<path class="stroke" d="M 33.21814 73.08517599999999 L 33.21814 92.391184 C 33.21814 94.43533599999999 35.11094 95.79808 37.95004 95.79808 L 72.01944 95.79808 C 74.64824 95.79808 76.96164 94.208176 77.06674 91.709776 L 77.06674 87.84855999999999" />
<path class="stroke" d="M 45.2056 73.08519039999999 C 50.6735 76.56783039999999 54.2487 80.27763039999999 57.5084 85.12301439999999" />
<path class="stroke" d="M 77.0667 73.31233599999999 C 83.6913 77.551984 87.7923 81.79192 91.8932 87.62147199999998" />
</svg>
