<?xml version="1.0" standalone="no"?>
<!DOCTYPE svg PUBLIC "-//W3C//DTD SVG 1.1//EN" "http://www.w3.org/Graphics/SVG/1.1/DTD/svg11.dtd">
<svg xmlns="http://www.w3.org/2000/svg" version="1.1" width="100%" height="100%">
<style type="text/css"><![CDATA[
  .stroke { fill:none; stroke:black; stroke-width:2 }
]]></style>
<path class="stroke" d="M 8.250825 11.089109 L 29.838708333333333 11.290321 C 31.451613333333338 17.741934 26.61290166666667 33.225803 21.774193333333333 40.0" />
<path class="stroke" d="M 21.774193333333333 40.96774 C 25.80645 44.51613 29.032255833333334 49.032257 30.645160833333332 54.19355 C 32.2580625 57.09677 32.2580625 65.161285 23.655913333333334 68.38709 L 18.54838666666667 69.354836" />
<path class="stroke" d="M 10.726071666666666 11.089109 L 10.726071666666666 90.09901" />
<path class="stroke" d="M 61.334304440000004 7.346714100000001 C 56.76788140000001 14.572992500000002 49.0248166 22.12043625 41.08321016 26.937955000000002" />
<path class="stroke" d="M 58.95182244 11.5218972 L 76.6218992 11.5218972 C 69.4744532 24.689778850000003 54.18685980000001 39.945251500000005 38.8992698 48.295615500000004" />
<path class="stroke" d="M 51.407299280000004 19.3905107 C 59.2 31.048387700000003 75.23211316000001 42.03284525 92.1080288 48.295615500000004" />
<path class="stroke" d="M 50.72233494 59.5985395 C 50.186276796 63.686130500000004 48.042042996 67.9197065 44.825692908 70.69343" />
<path class="stroke" d="M 48.57810114 66.89780999999999 L 84.6727014 66.89780999999999" />
<path class="stroke" d="M 66.015093144 56.24087525 L 66.015093144 94.78102" />
<path class="stroke" d="M 50.90102058000001 80.47445 L 81.277662 80.47445" />
<path class="stroke" d="M 42.860144747999996 95.07299 L 88.96116288000002 95.07299" />
</svg>
