<?xml version="1.0" standalone="no"?>
<!DOCTYPE svg PUBLIC "-//W3C//DTD SVG 1.1//EN" "http://www.w3.org/Graphics/SVG/1.1/DTD/svg11.dtd">
<svg xmlns="http://www.w3.org/2000/svg" version="1.1" width="100%" height="100%">
<style type="text/css"><![CDATA[
  .stroke { fill:none; stroke:black; stroke-width:2 }
]]></style>
<path class="stroke" d="M 27.64525348 9.952554750000001 C 25.496348760000004 15.864963 23.07883072 19.587590249999998 18.512407959999997 22.43430525" />
<path class="stroke" d="M 25.496348760000004 16.521897 L 46.44817392 16.521897" />
<path class="stroke" d="M 30.6 16.9598535 C 34.3605828 20.463504 35.70364756 23.310219 36.5094866 28.565692499999997" />
<path class="stroke" d="M 63.102183200000006 9.952554750000001 C 61.22189456 17.17883025 58.2671508 20.24452425 55.849630000000005 22.43430525" />
<path class="stroke" d="M 60.953284000000004 16.74087525 L 82.4423312 16.74087525" />
<path class="stroke" d="M 69.8175116 17.17883025 C 70.08612400000001 21.996348750000003 68.4744496 25.28102025 65.51970399999999 28.565692499999997" />
<path class="stroke" d="M 16.736183314285714 42.68759022 L 40.160583085714286 42.68759022" />
<path class="stroke" d="M 30.550570285714286 34.16237656 L 30.550570285714286 88.7080252" />
<path class="stroke" d="M 30.550570285714286 48.73722564 C 26.646504 55.00291738 21.841500685714287 60.836495 14.934306171428572 64.07737162000001" />
<path class="stroke" d="M 30.550570285714286 48.73722564 C 35.05526365714286 49.60145758 38.058391885714286 53.2744498 39.559956 56.73138422" />
<path class="stroke" d="M 53.143575909000006 42.036174199200005 L 53.143575909000006 86.48370419199999" />
<path class="stroke" d="M 53.143575909000006 42.036174199200005 L 81.996130914 42.036174199200005 L 81.996130914 86.32382142" />
<path class="stroke" d="M 53.143575909000006 55.61342664479999 L 81.996130914 55.61342664479999" />
<path class="stroke" d="M 53.143575909000006 70.858441984 L 81.996130914 70.858441984" />
<path class="stroke" d="M 53.143575909000006 84.88487099599999 L 81.996130914 84.88487099599999" />
</svg>
