<?xml version="1.0" standalone="no"?>
<!DOCTYPE svg PUBLIC "-//W3C//DTD SVG 1.1//EN" "http://www.w3.org/Graphics/SVG/1.1/DTD/svg11.dtd">
<svg xmlns="http://www.w3.org/2000/svg" version="1.1" width="100%" height="100%">
<style type="text/css"><![CDATA[
  .stroke { fill:none; stroke:black; stroke-width:2 }
]]></style>
<path class="stroke" d="M 27.956203 10.264596875 L 72.62773 10.264596875" />
<path class="stroke" d="M 13.065693 21.213502083333335 C 13.065693 26.992090625000003 12.773722 30.945861458333336 11.313868 35.20377083333334" />
<path class="stroke" d="M 13.357662 21.213502083333335 L 87.51824 21.213502083333335 C 87.22627 27.296225000000003 86.35036 30.3375875 85.18248 33.37895104166667" />
<path class="stroke" d="M 50.165638 10.264596875 L 50.165638 48.281625000000005" />
<path class="stroke" d="M 27.080292 28.512771875000002 C 31.45985 29.425180208333337 34.37956 30.945861458333336 37.299267 34.29135833333334" />
<path class="stroke" d="M 27.372261 39.15754166666667 C 30.875912 39.7658125 33.79562 41.59063125 37.007298 45.848536458333335" />
<path class="stroke" d="M 60.9489 28.512771875000002 C 64.74452 29.121044791666666 67.9562 30.641727083333336 72.04379 33.98722395833334" />
<path class="stroke" d="M 60.9489 39.461677083333335 C 65.03649 40.06994791666666 68.540146 42.80717395833334 71.45985 45.848536458333335" />
<path class="stroke" d="M 33.814713 55.806948025 C 28.91008 61.30340495 21.06267 66.46471414 9.618528 71.55899038" />
<path class="stroke" d="M 66.18528 55.806948025 C 71.08991 61.30340495 78.28338 66.46471414 90.38147 71.55899038" />
<path class="stroke" d="M 29.2759106 73.5416055 L 73.66715119999999 72.81751804 C 72.6861236 79.60583914 70.7240852 83.58832048 68.026274 88.74744526 C 66.5547368 91.19124005 63.85693064 94.9021896 58.7065664 94.9021896 L 56.00875687999999 94.9021896" />
<path class="stroke" d="M 44.48174852 73.36058317 L 42.029198 78.88175044 C 38.10510692 85.94160364 30.99269924 90.46715135 24.8613116 94.2686116" />
</svg>
