<?xml version="1.0" standalone="no"?>
<!DOCTYPE svg PUBLIC "-//W3C//DTD SVG 1.1//EN" "http://www.w3.org/Graphics/SVG/1.1/DTD/svg11.dtd">
<svg xmlns="http://www.w3.org/2000/svg" version="1.1" width="100%" height="100%">
<style type="text/css"><![CDATA[
  .stroke { fill:none; stroke:black; stroke-width:2 }
]]></style>
<path class="stroke" d="M 25.507986486486487 12.51897744 C 20.536593243243246 17.301459899999998 15.328465135135136 20.61240789 10.830536756756757 22.45182456" />
<path class="stroke" d="M 26.92838756756757 25.39488909 C 21.956993513513513 30.17737029 14.85500027027027 34.4080263 8.463207567567569 36.431384699999995" />
<path class="stroke" d="M 19.826394324324326 31.6489035 L 19.826394324324326 59.6080263" />
<path class="stroke" d="M 47.6233804 7.8688879490999994 L 47.6233804 19.7270517288" />
<path class="stroke" d="M 33.77883124 12.813789694799999 L 33.77883124 20.25514744905 M 33.77883124 19.7270517288 L 61.107295 19.7270517288" />
<path class="stroke" d="M 61.107295 12.7657810677 L 61.107295 20.303155911719998" />
<path class="stroke" d="M 36.4737224 30.453008298240004 L 63.8021872 30.453008298240004" />
<path class="stroke" d="M 50.4416036 30.453008298240004 L 50.4416036 56.185701703679996" />
<path class="stroke" d="M 36.77737016 42.743249721839994 L 63.4985384 42.743249721839994" />
<path class="stroke" d="M 34.95547424 58.1060529264 L 65.927734 54.5214" />
<path class="stroke" d="M 76.44455532 9.2376237 C 75.34554469 17.28415821 72.70792125 26.827721399999998 68.64158388 32.254454460000005" />
<path class="stroke" d="M 72.59801978 25.51782099 L 91.1712857 25.51782099" />
<path class="stroke" d="M 82.599011 25.704950519999997 C 81.2801978 41.61089316 75.67524799 54.897028680000005 66.8831685 59.5752474" />
<path class="stroke" d="M 72.59801978 30.383168610000002 C 75.01584102 41.798020799999996 86.7752454 59.76237630000001 93.2594066 59.76237630000001" />
<path class="stroke" d="M 17.4453 74.13248 C 16.6042 80.77808 14.5012 85.15248000000001 10.8207 90.03152" />
<path class="stroke" d="M 33.21814 70.09464 L 33.21814 91.54576 C 33.21814 93.81704 35.11094 95.33120000000001 37.95004 95.33120000000001 L 72.01944 95.33120000000001 C 74.64824 95.33120000000001 76.96164 93.56464 77.06674 90.78864 L 77.06674 86.4984" />
<path class="stroke" d="M 45.2056 70.094656 C 50.6735 73.964256 54.2487 78.086256 57.5084 83.470016" />
<path class="stroke" d="M 77.0667 70.34703999999999 C 83.6913 75.05776 87.7923 79.7688 91.8932 86.24607999999999" />
</svg>
