<?xml version="1.0" standalone="no"?>
<!DOCTYPE svg PUBLIC "-//W3C//DTD SVG 1.1//EN" "http://www.w3.org/Graphics/SVG/1.1/DTD/svg11.dtd">
<svg xmlns="http://www.w3.org/2000/svg" version="1.1" width="100%" height="100%">
<style type="text/css"><![CDATA[
  .stroke { fill:none; stroke:black; stroke-width:2 }
]]></style>
<path class="stroke" d="M 11.313868 17.445253 C 15.401459 18.029196 19.48905 20.364962 22.408756 24.160583" />
<path class="stroke" d="M 9.270073 47.226276 C 13.357662 47.226276 18.321167 46.934303 23.86861 43.138683 C 16.27737 53.357662 14.233576 58.321167 15.109488 60.9489 C 15.69343 63.284668 20.948904 65.62044 22.116787 68.832115 C 23.576641 72.33576 18.129246 80.26506 11.021896 83.722626" />
<path class="stroke" d="M 11.021896 84.014595 C 39.692924 81.65476 40.51095 91.313866 90.43795 90.14598" />
<path class="stroke" d="M 68.49109 11.617227941000001 C 69.5603944 13.940296727000002 70.4158408 16.052177894 70.4158408 18.586436432000003" />
<path class="stroke" d="M 48.12846616 18.649123169 L 90.59269599999999 18.649123169" />
<path class="stroke" d="M 48.12846616 18.649123169 L 48.12846616 30.689415446 C 48.12846616 45.428393543000006 43.503648399999996 56.638316030000006 32.43491272 71.7205244" />
<path class="stroke" d="M 54.372672892 35.94206904 L 92.04435676 35.94206904" />
<path class="stroke" d="M 64.95545908 24.436481105600002 L 64.95545908 60.28120937600001" />
<path class="stroke" d="M 81.19632268 24.410940026400002 L 81.19632268 60.4246911984" />
<path class="stroke" d="M 64.95545908 60.711651304000014 L 81.04453904799999 60.711651304000014" />
<path class="stroke" d="M 58.310948584 69.46860728 C 58.037663728 72.97459568 56.944525240000004 75.92700264000001 55.16817508 77.58773432000001" />
<path class="stroke" d="M 66.099561832 70.02218872 C 67.6026262 72.42101740000001 68.4224803 74.63532736 69.10569244 77.77225936" />
<path class="stroke" d="M 77.3042311 70.20671376 C 78.807295936 72.42101740000001 79.490508076 74.81985240000002 80.17371928 77.9567844" />
<path class="stroke" d="M 87.68904860800001 70.20671376 C 89.328754 72.42101740000001 90.28525239999999 74.45079600000001 91.10510883999999 77.9567844" />
</svg>
