<?xml version="1.0" standalone="no"?>
<!DOCTYPE svg PUBLIC "-//W3C//DTD SVG 1.1//EN" "http://www.w3.org/Graphics/SVG/1.1/DTD/svg11.dtd">
<svg xmlns="http://www.w3.org/2000/svg" version="1.1" width="100%" height="100%">
<style type="text/css"><![CDATA[
  .stroke { fill:none; stroke:black; stroke-width:2 }
]]></style>
<path class="stroke" d="M 11.400282214285715 14.059406 C 14.434228714285714 16.138615 17.468176142857143 19.108912 19.95049642857143 22.673267" />
<path class="stroke" d="M 9.469589071428572 38.118813 C 12.227723857142857 39.90099 15.537483 42.574257 17.743989714285714 46.138615" />
<path class="stroke" d="M 9.193776428571429 85.64356 C 9.812222642857144 87.422676 11.535345714285715 89.896904 13.545653642857143 89.896904 C 15.555964357142857 89.896904 18.295615 76.73267 20.22630907142857 69.60396" />
<path class="stroke" d="M 32.15620304 45.766422 L 73.8554724 32.335766 C 76.2321156 32.335766 76.880289 36.131386 76.880289 39.343063 L 76.880289 51.021896 C 76.0160578 53.357662 75.367877 55.10949 73.63941460000001 55.10949 L 72.1270026 55.10949" />
<path class="stroke" d="M 55.92262542 11.021896 L 55.92262542 67.08029" />
<path class="stroke" d="M 36.3591618 19.842932 L 36.48895928 80.51095 C 36.48895928 86.642334 39.50218896 89.56204 42.95912412 89.56204 L 85.738681 89.56204 C 87.89926639999999 89.56204 89.4116784 87.51824 89.4116784 85.47445 L 89.4116784 81.386856" />
</svg>
