<?xml version="1.0" standalone="no"?>
<!DOCTYPE svg PUBLIC "-//W3C//DTD SVG 1.1//EN" "http://www.w3.org/Graphics/SVG/1.1/DTD/svg11.dtd">
<svg xmlns="http://www.w3.org/2000/svg" version="1.1" width="100%" height="100%">
<style type="text/css"><![CDATA[
  .stroke { fill:none; stroke:black; stroke-width:2 }
]]></style>
<path class="stroke" d="M 13.154171785714285 14.059406 C 16.654879285714284 16.138615 20.15558785714286 19.108912 23.01980357142857 22.673267" />
<path class="stroke" d="M 10.926448928571428 38.118813 C 14.108912142857141 39.90099 17.927864999999997 42.574257 20.473834285714286 46.138615" />
<path class="stroke" d="M 10.608203571428572 85.64356 C 11.321795357142857 87.422676 13.310014285714285 89.896904 15.629600357142856 89.896904 C 17.949189642857142 89.896904 21.110325 76.73267 23.33804892857143 69.60396" />
<path class="stroke" d="M 50.145112 8.04417 L 50.145112 26.6562 C 49.993696 41.062 41.892759999999996 47.897 32.656153599999996 50.9464" />
<path class="stroke" d="M 50.372271999999995 8.04416 L 74.90223999999999 8.04416 L 74.90223999999999 36.7507 C 74.67508 40.8516 76.492144 43.3753 78.990544 43.3753 L 94.7602072 43.3753" />
<path class="stroke" d="M 43.104088000000004 53.15461 L 81.034768 53.15461 C 71.4196 77.23451 53.854912 89.01161 34.0189264 94.16401" />
<path class="stroke" d="M 48.555208 53.15461 C 52.113592 75.65721 72.479512 92.16621 94.889584 93.84861" />
</svg>
