<?xml version="1.0" standalone="no"?>
<!DOCTYPE svg PUBLIC "-//W3C//DTD SVG 1.1//EN" "http://www.w3.org/Graphics/SVG/1.1/DTD/svg11.dtd">
<svg xmlns="http://www.w3.org/2000/svg" version="1.1" width="100%" height="100%">
<style type="text/css"><![CDATA[
  .stroke { fill:none; stroke:black; stroke-width:2 }
]]></style>
<path class="stroke" d="M 8.86496275 19.777791399999998 L 30.631384 19.777791399999998" />
<path class="stroke" d="M 15.866300449999999 19.777791399999998 C 15.731276049999998 39.81833575 8.762773249999999 63.0474392 4.5729925499999995 69.5" />
<path class="stroke" d="M 13.05474345 48.653282499999996 L 13.05474345 82.405108" />
<path class="stroke" d="M 13.05474345 48.653282499999996 L 28.0766395 48.653282499999996 L 27.97445 82.6532825" />
<path class="stroke" d="M 12.9525543 79.9233545 L 27.97445 79.9233545" />
<path class="stroke" d="M 53.659269525 10.796478235294117 C 56.164378989 13.544439411764706 58.168466217 17.322884705882352 59.671532067 20.929583529411765" />
<path class="stroke" d="M 80.21342787 10.796478235294117 C 79.19134652400001 14.197079411764706 77.08204104000001 18.18162117647059 74.95269954 21.10133" />
<path class="stroke" d="M 41.2153273 23.5 L 93.78466750000001 23.5" />
<path class="stroke" d="M 51.487224975000004 23.37591105 C 49.494524525 33.30291825 46.552918975 40.0036493 44.180656225 45.95985175 C 46.45802905 50.4270055 49.020071975 55.8868615 51.487224975000004 62.58758745" />
<path class="stroke" d="M 58.3193415 40.7481745 C 53.195254025 61.59488605 46.837590375000005 77.47810249999999 40.669707225 89.1423295 C 48.260948025000005 85.66787799999999 55.187954475 84.42700125 62.020071 84.42700125" />
<path class="stroke" d="M 60.1222595 75.989047 C 61.399815000000004 79.57670999999999 62.937715 85.833305 63.2536475 91.3759085" />
<path class="stroke" d="M 83.987224975 23.37591105 C 81.994524525 33.30291825 79.052918975 40.0036493 76.680656225 45.95985175 C 78.95802905 50.4270055 81.52007197500001 55.8868615 83.987224975 62.58758745" />
<path class="stroke" d="M 90.81934150000001 40.7481745 C 85.695254025 61.59488605 79.337590375 77.47810249999999 73.169707225 89.1423295 C 80.760948025 85.66787799999999 87.687954475 84.42700125 94.520071 84.42700125" />
<path class="stroke" d="M 92.62225950000001 75.989047 C 93.899815 79.57670999999999 95.437715 85.833305 95.7536475 91.3759085" />
</svg>
