<?xml version="1.0" standalone="no"?>
<!DOCTYPE svg PUBLIC "-//W3C//DTD SVG 1.1//EN" "http://www.w3.org/Graphics/SVG/1.1/DTD/svg11.dtd">
<svg xmlns="http://www.w3.org/2000/svg" version="1.1" width="100%" height="100%">
<style type="text/css"><![CDATA[
  .stroke { fill:none; stroke:black; stroke-width:2 }
]]></style>
<path class="stroke" d="M 11.313868 17.445253 C 15.401459 18.029196 19.48905 20.364962 22.408756 24.160583" />
<path class="stroke" d="M 9.270073 47.226276 C 13.357662 47.226276 18.321167 46.934303 23.86861 43.138683 C 16.27737 53.357662 14.233576 58.321167 15.109488 60.9489 C 15.69343 63.284668 20.948904 65.62044 22.116787 68.832115 C 23.576641 72.33576 18.129246 80.26506 11.021896 83.722626" />
<path class="stroke" d="M 11.021896 84.014595 C 39.692924 81.65476 40.51095 91.313866 90.43795 90.14598" />
<path class="stroke" d="M 63.102185999999996 11.36525402 C 55.131384 23.426567930000004 46.1386849 32.88642266 34.8978091 38.56233323" />
<path class="stroke" d="M 63.102185999999996 11.36525402 C 71.2773698 22.9535741 79.6569312 32.88642266 91.306565 38.325838340000004" />
<path class="stroke" d="M 47.984251 35.621419088 L 76.690831 35.621419088" />
<path class="stroke" d="M 33.6309134 49.337715440000004 L 93.25237179999999 49.337715440000004" />
<path class="stroke" d="M 62.33752 35.84619344 L 62.33752 76.77039368000001 L 56.73752 76.77039368000001" />
<path class="stroke" d="M 48.86756 59.45641040000001 C 46.070499999999996 66.72675656 42.39018 70.84916408000001 36.05994 75.64616552000001" />
<path class="stroke" d="M 73.82024999999999 59.68122752000001 C 80.3712 63.3540008 84.714 68.6005652 88.17347000000001 75.64616552000001" />
</svg>
