<?xml version="1.0" standalone="no"?>
<!DOCTYPE svg PUBLIC "-//W3C//DTD SVG 1.1//EN" "http://www.w3.org/Graphics/SVG/1.1/DTD/svg11.dtd">
<svg xmlns="http://www.w3.org/2000/svg" version="1.1" width="100%" height="100%">
<style type="text/css"><![CDATA[
  .stroke { fill:none; stroke:black; stroke-width:2 }
]]></style>
<path class="stroke" d="M 50.0 7.381726400000005 L 50.0 20.0" />
<path class="stroke" d="M 7.5 20.0 L 92.5 20.0" />
<path class="stroke" d="M 23.770715441176474 29.595912244 C 20.979818382352942 35.839415356 15.183339705882354 41.620437592 10.245597794117646 44.85780808" />
<path class="stroke" d="M 19.477026470588235 37.111239844 L 19.477026470588235 60.8134282" />
<path class="stroke" d="M 45.752992192 28.371491728 L 45.752992192 39.915035872000004" />
<path class="stroke" d="M 45.752992192 28.371491728 L 82.4151808 28.371491728 L 82.4151808 39.804040556800004" />
<path class="stroke" d="M 45.752992192 39.02707068928 L 82.4151808 39.02707068928" />
<path class="stroke" d="M 33.04 48.797495260000005 L 94.96 48.797495260000005" />
<path class="stroke" d="M 64.22716 41.8206148 L 64.22716 61.914209199999995" />
<path class="stroke" d="M 48.782368 53.419534 C 45.829648 56.29271200000001 41.059936 59.0410312 36.290224 60.6649876" />
<path class="stroke" d="M 79.44479199999999 53.544472 C 84.214504 55.2517468 88.30288 57.833429200000005 91.482616 60.6649876" />
<path class="stroke" d="M 47.79179 64.60006480000001 C 40.79208 70.7592076 28.910892 75.18613624 16.732674 77.49584152" />
<path class="stroke" d="M 37.82178 71.33663392 L 37.82178 90.39168304 C 46.435642 89.42930584 52.07921 88.46692864 58.019806 86.15722983999999" />
<path class="stroke" d="M 78.514854 65.5623772 C 74.35644 69.411881464 68.71287 72.49148332000001 62.178215 74.03129008" />
<path class="stroke" d="M 55.940598 70.18178128 C 62.47525 78.26574328 75.24753 85.002374608 89.207924 88.46692864" />
</svg>
