<?xml version="1.0" standalone="no"?>
<!DOCTYPE svg PUBLIC "-//W3C//DTD SVG 1.1//EN" "http://www.w3.org/Graphics/SVG/1.1/DTD/svg11.dtd">
<svg xmlns="http://www.w3.org/2000/svg" version="1.1" width="100%" height="100%">
<style type="text/css"><![CDATA[
  .stroke { fill:none; stroke:black; stroke-width:2 }
]]></style>
<path class="stroke" d="M 14.744524666666665 9.562042 C 17.080292 11.021896 19.416055999999998 14.817516 20.973233333333333 19.48905" />
<path class="stroke" d="M 6.569342 22.8707 L 28.36982666666667 22.8707" />
<path class="stroke" d="M 10.85158 37.007298 L 24.087590666666664 37.007298" />
<path class="stroke" d="M 10.85158 51.313866 L 24.087590666666664 51.313866" />
<path class="stroke" d="M 10.072992 64.45255 L 10.072992 85.76642" />
<path class="stroke" d="M 10.072992 64.16058 L 25.25547333333333 64.16058 L 25.25547333333333 85.76642" />
<path class="stroke" d="M 10.072992 85.76642 L 25.060826666666664 85.76642" />
<path class="stroke" d="M 48.356482 5.83596 C 48.213478 10.3575 46.997910000000005 15.1945 45.031554 14.9842" />
<path class="stroke" d="M 40.634062 15.2997 L 40.634062 67.3502" />
<path class="stroke" d="M 40.634062 15.2997 L 56.829656 15.2997 L 56.829656 88.4858 C 56.91163 92.3456 56.236696 94.795 55.006338 94.4795 L 53.719268 94.4795" />
<path class="stroke" d="M 40.741298 31.703472 L 56.722386 31.703472" />
<path class="stroke" d="M 40.74131738 47.476357 L 56.829642400000004 47.476357" />
<path class="stroke" d="M 34.0914828 71.45113 L 56.722386 61.35643" />
<path class="stroke" d="M 63.693984 32.0189 C 58.402734 73.449 48.713992000000005 85.5415 36.45111 92.9022" />
<path class="stroke" d="M 68.87883031999999 30.29197 L 93.1007268 30.29197" />
<path class="stroke" d="M 87.0640132 9.270073 L 87.0640132 84.8905 C 87.0640132 87.51824 85.9532808 90.14598 84.16642032 90.14598 L 80.9897772 90.14598" />
<path class="stroke" d="M 69.87153104000001 40.51095 C 72.8496332 42.846714 74.6364964 46.642334 75.6291944 51.021896" />
</svg>
