<?xml version="1.0" standalone="no"?>
<!DOCTYPE svg PUBLIC "-//W3C//DTD SVG 1.1//EN" "http://www.w3.org/Graphics/SVG/1.1/DTD/svg11.dtd">
<svg xmlns="http://www.w3.org/2000/svg" version="1.1" width="100%" height="100%">
<style type="text/css"><![CDATA[
  .stroke { fill:none; stroke:black; stroke-width:2 }
]]></style>
<path class="stroke" d="M 10.437956 27.956203 L 33.211678 27.956203" />
<path class="stroke" d="M 23.86861 9.270073 L 23.86861 90.14598" />
<path class="stroke" d="M 23.86861 36.131386 C 20.07299 44.598537 15.401459 52.48175 8.686131 56.861313" />
<path class="stroke" d="M 23.86861 36.131386 C 28.248173 37.299267 31.167881 42.26277 32.627735 46.934303" />
<path class="stroke" d="M 43.872261449999996 9.562042 L 43.872261449999996 90.14598" />
<path class="stroke" d="M 43.872261449999996 9.562042 L 59.813867 9.562042 L 59.813867 38.46715" />
<path class="stroke" d="M 43.872261449999996 22.408756 L 59.624086500000004 22.408756" />
<path class="stroke" d="M 43.872261449999996 36.131386 L 59.813867 36.131386" />
<path class="stroke" d="M 75.5656888 9.854013 L 75.5656888 38.46715" />
<path class="stroke" d="M 75.5656888 9.854013 L 91.3175171 9.854013 L 91.3175171 85.47445 C 91.3175171 88.39416 89.7992666 90.14598 88.09123625000001 89.85401" />
<path class="stroke" d="M 75.5656888 22.408756 L 91.3175171 22.408756" />
<path class="stroke" d="M 75.5656888 36.131386 L 91.3175171 36.131386" />
<path class="stroke" d="M 51.205759258 45.774868999999995 L 83.79423926000001 45.774868999999995" />
<path class="stroke" d="M 55.02772314400001 52.524752 L 55.02772314400001 69.71204" />
<path class="stroke" d="M 55.02772314400001 52.524752 L 81.156123156 52.524752 L 81.156123156 69.9005204" />
<path class="stroke" d="M 55.174454482 61.0792082 L 80.8457558 61.0792082" />
<path class="stroke" d="M 55.174454482 69.63366199999999 L 80.380208224 69.63366199999999" />
<path class="stroke" d="M 67.81036538000001 40.874345 L 67.81036538000001 89.125652" />
<path class="stroke" d="M 67.655857 69.35336000000001 C 62.956640998000005 78.401456 57.407803288 86.44472 51.205759258 88.37172799999999" />
<path class="stroke" d="M 67.655857 69.35336000000001 C 71.754889184 78.75182000000001 78.20197895000001 86.834978 84.2597898 88.937174" />
</svg>
